<svg width="236" height="136" viewBox="0 0 236 136" fill="none" xmlns="http://www.w3.org/2000/svg">
<rect width="236" height="136" fill="white"/>
<g clip-path="url(#clip0)">
<path d="M32 109C32 82.0067 32 55.0134 32 28C89.2238 28 146.456 28 203.731 28C203.731 54.9876 203.731 81.9952 203.731 109C146.493 109 89.2495 109 32 109ZM52.0325 67.3723C56.7064 67.3723 61.3804 67.3809 66.0543 67.3694C68.7849 67.3637 70.3076 65.8553 70.3104 63.1248C70.3219 53.8742 70.319 44.6236 70.3104 35.3701C70.3076 32.6596 68.7677 31.137 66.0286 31.1341C56.8238 31.1255 47.619 31.1284 38.417 31.1341C35.5777 31.1341 34.118 32.6053 34.1152 35.4703C34.1094 44.6751 34.1094 53.8771 34.1152 63.0819C34.118 65.9498 35.552 67.3694 38.4399 67.3723C42.9708 67.3752 47.5016 67.3723 52.0325 67.3723ZM90.5461 69.4503C85.9666 69.4503 81.3871 69.4388 76.8076 69.4531C73.851 69.4646 72.4055 70.9157 72.4055 73.8323C72.4027 82.9426 72.4027 92.053 72.4055 101.163C72.4055 104.252 73.8223 105.726 76.9564 105.734C86.021 105.76 95.0827 105.76 104.147 105.731C107.207 105.723 108.618 104.275 108.618 101.249C108.627 92.1388 108.624 83.0285 108.618 73.9181C108.615 70.8785 107.207 69.4646 104.142 69.4531C99.6078 69.4359 95.077 69.4503 90.5461 69.4503ZM91.7854 58.8544C91.7854 60.8064 91.7769 62.7613 91.7883 64.7133C91.7998 66.5365 92.5697 67.3523 94.3786 67.3637C98.2368 67.3895 102.098 67.3895 105.956 67.3609C107.777 67.3494 108.661 66.445 108.67 64.6103C108.69 60.7978 108.692 56.9883 108.67 53.1758C108.658 51.3612 107.762 50.4539 105.93 50.4396C102.118 50.4081 98.3055 50.4138 94.4959 50.4367C92.5954 50.4482 91.7998 51.2639 91.7883 53.1358C91.774 55.042 91.7854 56.9482 91.7854 58.8544ZM70.3219 97.1906C70.3219 95.333 70.3333 93.4726 70.319 91.6151C70.3047 89.6573 69.4088 88.7328 67.4196 88.7185C63.653 88.6899 59.8892 88.687 56.1225 88.7214C54.2478 88.7386 53.4378 89.5943 53.4321 91.4519C53.4206 95.2644 53.4235 99.0768 53.4292 102.892C53.4321 104.795 54.2621 105.723 56.1826 105.746C59.9464 105.794 63.7131 105.803 67.4797 105.74C69.4775 105.708 70.3018 104.767 70.319 102.769C70.3333 100.909 70.319 99.051 70.3219 97.1906ZM50.9334 97.2507C50.9334 95.2958 50.9448 93.3438 50.9305 91.3889C50.9162 89.6974 50.0948 88.7529 48.4433 88.7328C44.4877 88.687 40.5322 88.687 36.5766 88.7357C35.011 88.7529 34.0665 89.7088 34.0522 91.2516C34.015 95.2071 34.0178 99.1627 34.0522 103.118C34.0665 104.732 34.9194 105.634 36.5165 105.66C40.4721 105.723 44.4276 105.749 48.3803 105.711C50.1091 105.694 50.9191 104.741 50.9305 102.969C50.942 101.063 50.9334 99.1569 50.9334 97.2507ZM91.7854 39.5833C91.7854 41.5382 91.7769 43.4902 91.7883 45.4451C91.7998 47.2225 92.604 48.0496 94.4158 48.0611C98.2769 48.084 102.135 48.084 105.996 48.0582C107.725 48.0468 108.652 47.1423 108.667 45.4107C108.698 41.5038 108.701 37.5969 108.667 33.69C108.652 32.1187 107.731 31.1627 106.182 31.1484C102.181 31.1083 98.1767 31.1083 94.1754 31.1484C92.6498 31.1627 91.8169 32.0614 91.7969 33.5813C91.7654 35.5791 91.7854 37.5826 91.7854 39.5833ZM53.4206 77.8479C53.4206 79.7541 53.4149 81.6604 53.4235 83.5666C53.4321 85.5701 54.1906 86.3715 56.1483 86.3801C59.9607 86.3944 63.7732 86.3944 67.5856 86.3801C69.343 86.3744 70.2875 85.4957 70.3018 83.7812C70.3333 79.8743 70.3305 75.9646 70.3018 72.0577C70.2904 70.3919 69.406 69.4875 67.7345 69.4703C63.7789 69.4331 59.8234 69.4302 55.8678 69.4731C54.2364 69.4903 53.4464 70.3547 53.4264 71.9861C53.4035 73.9382 53.4206 75.893 53.4206 77.8479ZM50.9305 78.0368C50.9305 76.0362 50.9448 74.0355 50.9248 72.0348C50.9076 70.3375 50.0976 69.4817 48.3832 69.4674C44.4763 69.4331 40.5694 69.4331 36.6625 69.4646C34.9767 69.4789 34.0636 70.3604 34.0493 72.009C34.015 75.9646 34.015 79.9173 34.0493 83.8728C34.0636 85.4299 35.0167 86.3629 36.5738 86.3744C40.5293 86.403 44.482 86.403 48.4376 86.3744C50.0576 86.3629 50.899 85.5014 50.9219 83.8957C50.9534 81.9437 50.9305 79.9917 50.9305 78.0368ZM80.829 67.2893C82.8783 67.2893 84.9305 67.3179 86.9798 67.2807C88.4682 67.255 89.2724 66.4478 89.281 64.9595C89.3068 60.9553 89.3039 56.9482 89.2839 52.944C89.2753 51.3841 88.4739 50.534 86.9197 50.5226C82.8669 50.4882 78.814 50.4911 74.7611 50.5226C73.3787 50.534 72.4542 51.3498 72.4342 52.7207C72.3712 56.8194 72.3712 60.9209 72.4313 65.0224C72.4513 66.4965 73.3415 67.2607 74.8241 67.2836C76.8248 67.3122 78.8254 67.2893 80.829 67.2893ZM143.167 90.4788C143.952 89.4741 144.653 88.5811 145.348 87.6939C141.845 84.1963 134.922 83.9644 130.803 87.1672C126.512 90.5017 125.445 97.2679 128.442 102.202C129.758 104.369 131.63 105.854 134.06 106.573C137.36 107.552 140.443 107.011 143.305 104.961C143.359 105.608 143.399 106.103 143.448 106.667C144.616 106.596 145.695 106.81 146.805 106.516C146.805 103.404 146.808 100.353 146.805 97.3022C146.805 96.2289 146.293 95.5563 145.197 95.5134C143.92 95.4618 142.638 95.5019 141.316 95.5019C141.167 96.6811 141.147 97.7545 141.327 98.8736C141.653 98.8965 141.934 98.9108 142.212 98.9337C142.486 98.9566 142.79 98.8564 143.01 99.1054C143.368 100.651 143.319 100.963 142.618 101.57C140.314 103.568 136.696 103.817 134.071 102.162C131.435 100.499 130.21 96.8672 131.169 93.5585C132.045 90.536 134.592 88.6498 137.744 88.6155C139.733 88.5983 141.442 89.3453 143.167 90.4788ZM196.109 92.239C191.298 89.3196 186.472 91.5492 185.227 96.06C184.738 97.826 184.752 99.6263 185.107 101.438C186.286 107.463 193.124 108.645 196.247 105.033C197.091 106.796 198.296 107.117 201.871 106.493C201.931 105.477 202.003 104.449 201.802 103.336C200.142 103.642 200.065 102.683 200.079 101.415C200.137 96.7412 200.111 92.0673 200.096 87.3933C200.091 85.862 199.553 85.2953 198.064 85.2438C196.842 85.2009 195.617 85.2352 194.323 85.2352C194.389 86.4603 194.163 87.5364 194.458 88.5496C195.028 88.7443 195.594 88.4352 196.087 88.8817C196.25 89.935 196.195 91.0169 196.109 92.239ZM145.552 47.9609C144.484 48.001 144.169 47.2883 143.86 46.4153C142.234 41.8473 140.543 37.305 138.88 32.7512C137.844 29.9177 137.847 29.972 134.904 29.9034C133.883 29.8805 133.545 30.2783 133.233 31.1541C131.415 36.2546 129.512 41.3235 127.692 46.4211C127.383 47.2826 127.022 47.9466 126.137 48.021C126.137 49.1602 126.137 50.1906 126.137 51.2009C130.027 51.6589 130.285 51.5014 131.536 47.9752C131.661 47.6175 131.827 47.2654 131.899 46.8962C132.056 46.1005 132.492 45.8314 133.302 45.8658C134.824 45.9288 136.361 45.9831 137.875 45.8543C139.14 45.7456 139.673 46.2551 139.945 47.3999C140.151 48.2729 140.514 49.1144 140.835 49.9587C141.13 50.7344 141.676 51.2267 142.532 51.2753C143.522 51.3326 144.516 51.4127 145.552 51.2124C145.552 50.1734 145.552 49.1831 145.552 47.9609ZM152.186 49.9759C156.354 53.2445 162.061 51.3498 163.292 46.0661C163.586 44.8068 163.641 43.5245 163.483 42.2308C163.146 39.4574 162.069 37.1161 159.327 36.0485C156.68 35.0152 154.175 35.4102 152.12 37.4853C150.778 34.8521 148.465 36.369 146.594 35.9225C146.594 37.1447 146.594 38.1694 146.594 39.154C147.134 39.4545 147.727 39.1082 148.319 39.652C148.319 45.3964 148.319 51.2811 148.319 57.223C149.699 57.1743 150.921 57.3661 152.186 57.0942C152.186 54.7357 152.186 52.4574 152.186 49.9759ZM170.793 49.973C174.915 53.2331 180.656 51.3812 181.896 46.069C182.199 44.7639 182.245 43.4358 182.07 42.0934C181.715 39.3658 180.608 37.0932 177.937 36.0513C175.29 35.0181 172.783 35.4074 170.725 37.4824C169.391 34.8521 167.075 36.3748 165.204 35.9225C165.204 37.1447 165.204 38.1694 165.204 39.1854C165.75 39.4259 166.331 39.1253 166.929 39.6377C166.929 45.3935 166.929 51.2811 166.929 57.2258C168.309 57.18 169.528 57.3661 170.796 57.0999C170.793 54.7357 170.793 52.4574 170.793 49.973ZM165.49 98.9079C165.475 94.2855 161.926 90.9138 157.081 90.9167C152.264 90.9195 148.623 94.3799 148.66 98.9222C148.697 103.559 152.252 106.988 157.035 106.999C161.958 107.011 165.501 103.619 165.49 98.9079ZM144.496 80.089C149.396 80.0947 153.002 76.6458 152.965 71.9919C152.928 67.3809 149.37 64.0121 144.527 64.0035C139.69 63.9978 136.155 67.3837 136.155 72.0234C136.158 76.6658 139.69 80.0833 144.496 80.089ZM166.792 98.8936C166.783 103.568 170.255 106.968 175.067 106.996C179.941 107.028 183.613 103.559 183.599 98.9423C183.584 94.3713 179.981 90.931 175.184 90.9138C170.344 90.8966 166.801 94.2683 166.792 98.8936ZM185.637 46.4239C185.101 47.1681 184.675 47.8006 184.208 48.3988C183.871 48.8339 183.977 49.1087 184.337 49.4893C186.616 51.8821 191.39 52.4775 194.152 50.68C196.788 48.9627 196.888 45.4422 194.346 43.5961C193.333 42.8605 192.16 42.4598 191.006 42.0104C190.253 41.7185 189.512 41.3951 188.791 41.0344C188.353 40.8169 187.995 40.4505 188.05 39.9096C188.107 39.3286 188.513 39.028 189.048 38.8277C190.608 38.2438 191.61 38.6874 192.523 40.4534C193.479 40.3647 194.475 40.5765 195.428 40.3217C195.829 37.7658 195.44 36.578 192.297 35.8224C190.434 35.3759 188.507 35.4446 186.704 36.2746C184.646 37.222 183.688 39.2942 184.397 41.3693C184.93 42.9292 186.218 43.7707 187.617 44.4376C188.817 45.01 190.064 45.4823 191.261 46.0604C191.816 46.3266 192.414 46.7101 192.211 47.4686C192.022 48.1842 191.435 48.5105 190.714 48.5963C189.787 48.708 188.925 48.5019 188.081 48.1183C187.205 47.7234 186.49 47.1023 185.637 46.4239ZM126.767 67.3408C127.36 67.7043 128.052 67.2378 128.65 67.7558C128.65 71.6885 128.65 75.6784 128.65 79.7341C129.947 79.7341 131.158 79.7341 132.512 79.7341C132.512 75.6669 132.512 71.6484 132.512 67.5125C133.628 67.5125 134.607 67.5125 135.591 67.5125C135.591 66.4192 135.591 65.4489 135.591 64.3699C134.518 64.3699 133.536 64.3699 132.557 64.3699C132.54 62.2518 133.101 61.8196 136.207 61.5248C136.135 60.4744 136.358 59.4068 136.086 58.3621C131.078 57.9299 129.111 59.4698 128.502 64.2325C127.949 64.5359 127.265 64.0951 126.767 64.5044C126.767 65.489 126.767 66.4278 126.767 67.3408ZM160.212 79.6797C160.212 77.7105 160.183 75.8158 160.218 73.9239C160.289 69.7823 161.586 68.3397 165.601 67.9075C165.601 66.6539 165.601 65.3974 165.601 64.1466C164.428 64.0064 163.435 64.2353 162.496 64.7763C161.537 65.3287 160.936 66.2217 160.186 67.358C160.132 65.7981 160.126 64.4414 158.386 64.367C157.115 64.3126 155.838 64.3555 154.496 64.3555C154.528 65.5519 154.336 66.6253 154.605 67.6099C155.177 67.8818 155.753 67.5269 156.314 68.042C156.314 71.8345 156.314 75.7242 156.314 79.6797C157.65 79.6797 158.861 79.6797 160.212 79.6797ZM76.1207 38.6159C77.0251 38.6159 77.9296 38.5844 78.8312 38.6245C79.6097 38.6588 79.9875 38.3497 79.9846 37.5626C79.9789 35.8023 79.9846 34.0421 79.9846 32.2818C79.9846 31.4604 79.6125 31.094 78.751 31.1141C77.0394 31.157 75.325 31.1455 73.6134 31.1198C72.7862 31.1083 72.3798 31.4089 72.3941 32.2818C72.4227 33.9934 72.4313 35.7079 72.3912 37.4195C72.3683 38.3783 72.8063 38.676 73.6935 38.6245C74.5007 38.5815 75.3107 38.6159 76.1207 38.6159Z" fill="#FDFDFD"/>
<path d="M52.0325 67.3722C47.5016 67.3722 42.9708 67.3751 38.4399 67.3693C35.552 67.3665 34.118 65.9497 34.1152 63.0789C34.1094 53.8741 34.1094 44.6722 34.1152 35.4674C34.118 32.6023 35.5749 31.134 38.4142 31.1312C47.619 31.1254 56.8238 31.1226 66.0257 31.1312C68.7648 31.134 70.3047 32.6538 70.3075 35.3672C70.3161 44.6178 70.3161 53.8684 70.3075 63.1219C70.3047 65.8524 68.782 67.3608 66.0515 67.3665C61.3804 67.3808 56.7064 67.3722 52.0325 67.3722Z" fill="#5AB247"/>
<path d="M90.5461 69.4503C95.077 69.4503 99.6107 69.436 104.142 69.456C107.204 69.4674 108.615 70.8814 108.618 73.921C108.624 83.0314 108.627 92.1417 108.618 101.252C108.615 104.277 107.207 105.726 104.147 105.734C95.0827 105.76 86.021 105.763 76.9564 105.737C73.8223 105.729 72.4056 104.257 72.4056 101.166C72.4027 92.0558 72.4027 82.9455 72.4056 73.8351C72.4056 70.9157 73.8538 69.4646 76.8076 69.456C81.3871 69.4388 85.9666 69.4503 90.5461 69.4503Z" fill="#3A97C7"/>
<path d="M91.7854 58.8544C91.7854 56.9482 91.774 55.042 91.7883 53.1357C91.7997 51.2639 92.5954 50.4481 94.4959 50.4367C98.3084 50.4138 102.121 50.4081 105.93 50.4396C107.762 50.4539 108.661 51.3641 108.669 53.1758C108.692 56.9883 108.69 60.7978 108.669 64.6103C108.658 66.4478 107.776 67.3494 105.956 67.3608C102.098 67.3866 98.2368 67.3866 94.3786 67.3637C92.5697 67.3522 91.7997 66.5365 91.7883 64.7133C91.7768 62.7613 91.7854 60.8064 91.7854 58.8544Z" fill="#5AB247"/>
<path d="M70.3218 97.1906C70.3218 99.0482 70.3333 100.909 70.319 102.766C70.3018 104.764 69.4775 105.706 67.4797 105.737C63.7159 105.8 59.9493 105.792 56.1826 105.743C54.265 105.717 53.4349 104.793 53.4292 102.889C53.4235 99.0768 53.4206 95.2644 53.4321 91.4491C53.4378 89.5915 54.2478 88.7357 56.1225 88.7186C59.8892 88.6871 63.6529 88.6871 67.4196 88.7157C69.4088 88.73 70.3047 89.6545 70.319 91.6122C70.3333 93.4727 70.3218 95.3331 70.3218 97.1906Z" fill="#EFAD4F"/>
<path d="M50.9334 97.2505C50.9334 99.1568 50.942 101.063 50.9306 102.969C50.922 104.741 50.1091 105.697 48.3803 105.711C44.4248 105.748 40.4692 105.723 36.5166 105.66C34.9195 105.634 34.0665 104.732 34.0522 103.118C34.0179 99.1625 34.015 95.2069 34.0522 91.2514C34.0665 89.7087 35.0111 88.7527 36.5767 88.7355C40.5322 88.6897 44.4878 88.6869 48.4433 88.7327C50.0919 88.7527 50.9134 89.6944 50.9306 91.3888C50.9477 93.3436 50.9334 95.2985 50.9334 97.2505Z" fill="#5AB247"/>
<path d="M91.7855 39.5833C91.7855 37.5826 91.7655 35.5791 91.7912 33.5784C91.8113 32.0586 92.6442 31.1598 94.1697 31.1455C98.171 31.1055 102.175 31.1055 106.177 31.1455C107.725 31.1627 108.647 32.1158 108.661 33.6872C108.695 37.594 108.695 41.5009 108.661 45.4078C108.647 47.1395 107.722 48.0439 105.991 48.0554C102.129 48.0811 98.2712 48.0811 94.4101 48.0582C92.5984 48.0468 91.7941 47.2225 91.7826 45.4422C91.7769 43.4902 91.7855 41.5381 91.7855 39.5833Z" fill="#C13E3F"/>
<path d="M53.4207 77.8479C53.4207 75.893 53.4035 73.941 53.4264 71.9861C53.4436 70.3547 54.2364 69.4903 55.8678 69.4731C59.8234 69.4302 63.7789 69.4331 67.7345 69.4703C69.406 69.4874 70.2904 70.3919 70.3019 72.0577C70.3305 75.9646 70.3334 79.8743 70.3019 83.7812C70.2876 85.4957 69.343 86.3744 67.5856 86.3801C63.7732 86.3944 59.9608 86.3973 56.1483 86.3801C54.1906 86.3715 53.4321 85.5701 53.4235 83.5666C53.4149 81.6603 53.4207 79.7541 53.4207 77.8479Z" fill="#C13E3F"/>
<path d="M50.9305 78.0369C50.9305 79.9918 50.9506 81.9438 50.9248 83.8958C50.9019 85.4987 50.0576 86.363 48.4404 86.3745C44.4849 86.4031 40.5293 86.4031 36.5766 86.3745C35.0196 86.363 34.0665 85.43 34.0522 83.8729C34.015 79.9174 34.015 75.9647 34.0522 72.0092C34.0665 70.3605 34.9795 69.4761 36.6654 69.4647C40.5723 69.4332 44.4791 69.4332 48.386 69.4675C50.1005 69.4818 50.9105 70.3376 50.9277 72.0349C50.9477 74.0356 50.9305 76.0363 50.9305 78.0369Z" fill="#3A97C7"/>
<path d="M80.829 67.2892C78.8254 67.2892 76.8219 67.3121 74.8212 67.2806C73.3386 67.2578 72.4485 66.4964 72.4284 65.0195C72.3683 60.9209 72.3683 56.8193 72.4313 52.7178C72.4513 51.3468 73.3758 50.5311 74.7582 50.5197C78.8111 50.4853 82.864 50.4853 86.9168 50.5197C88.471 50.534 89.2753 51.3812 89.281 52.9411C89.301 56.9453 89.3039 60.9523 89.2781 64.9565C89.2695 66.4449 88.4653 67.2492 86.9769 67.2778C84.9305 67.3179 82.8783 67.2892 80.829 67.2892Z" fill="#EFAD4F"/>
<path d="M143.168 90.4787C141.444 89.3424 139.733 88.5953 137.741 88.6182C134.592 88.6554 132.042 90.5416 131.166 93.5612C130.208 96.8699 131.433 100.502 134.069 102.165C136.693 103.819 140.311 103.57 142.615 101.573C143.316 100.966 143.365 100.654 143.007 99.1082C142.787 98.8592 142.483 98.9593 142.209 98.9364C141.931 98.9107 141.651 98.8992 141.324 98.8763C141.144 97.7572 141.164 96.6839 141.313 95.5047C142.635 95.5047 143.917 95.4646 145.194 95.5161C146.29 95.5591 146.803 96.2317 146.803 97.305C146.805 100.356 146.803 103.407 146.803 106.518C145.692 106.813 144.613 106.599 143.445 106.67C143.399 106.106 143.356 105.608 143.302 104.964C140.44 107.014 137.354 107.555 134.057 106.576C131.627 105.854 129.752 104.372 128.439 102.205C125.442 97.2707 126.51 90.5044 130.8 87.17C134.919 83.9672 141.845 84.199 145.346 87.6966C144.65 88.5839 143.952 89.4769 143.168 90.4787Z" fill="#2A2A2A"/>
<path d="M196.109 92.239C196.195 91.0197 196.25 89.935 196.087 88.8845C195.597 88.4409 195.028 88.75 194.458 88.5525C194.163 87.5393 194.389 86.4631 194.323 85.2381C195.617 85.2381 196.842 85.2038 198.064 85.2467C199.553 85.2982 200.091 85.8649 200.096 87.3962C200.114 92.0702 200.137 96.7441 200.079 101.418C200.065 102.686 200.142 103.645 201.802 103.339C202.003 104.452 201.931 105.48 201.871 106.496C198.296 107.12 197.091 106.799 196.247 105.036C193.124 108.651 186.286 107.466 185.107 101.441C184.752 99.6263 184.738 97.8289 185.227 96.0629C186.472 91.5492 191.298 89.3167 196.109 92.239ZM188.774 99.031C188.779 101.338 189.816 103.055 191.519 103.585C192.875 104.005 194.349 103.576 195.259 102.491C196.527 100.983 196.716 97.9834 195.66 96.1316C194.893 94.7864 193.599 94.1452 192.068 94.3542C190.07 94.629 188.765 96.4779 188.774 99.031Z" fill="#2A2A2A"/>
<path d="M145.552 47.9609C145.552 49.1831 145.552 50.1734 145.552 51.2152C144.513 51.4127 143.52 51.3326 142.532 51.2782C141.673 51.2295 141.127 50.7344 140.835 49.9616C140.514 49.1172 140.151 48.2786 139.945 47.4028C139.673 46.255 139.14 45.7456 137.875 45.8572C136.361 45.9889 134.824 45.9316 133.301 45.8686C132.489 45.8343 132.054 46.1033 131.899 46.899C131.827 47.2683 131.661 47.6203 131.536 47.9781C130.285 51.5072 130.027 51.6646 126.137 51.2038C126.137 50.1934 126.137 49.163 126.137 48.0239C127.022 47.9466 127.385 47.2854 127.692 46.4239C129.512 41.3263 131.415 36.2574 133.233 31.157C133.545 30.2812 133.883 29.8833 134.904 29.9062C137.847 29.9749 137.844 29.9177 138.88 32.7541C140.543 37.3078 142.234 41.853 143.86 46.4182C144.169 47.2883 144.484 48.001 145.552 47.9609ZM133.15 42.4913C134.887 42.4913 136.559 42.4913 138.342 42.4913C137.549 39.7836 136.458 37.2992 135.746 34.6603C135.022 37.3336 133.934 39.8552 133.15 42.4913Z" fill="#2A2A2A"/>
<path d="M152.186 49.9759C152.186 52.4546 152.186 54.7358 152.186 57.0971C150.921 57.3661 149.699 57.1772 148.319 57.2259C148.319 51.284 148.319 45.3964 148.319 39.6549C147.727 39.1111 147.135 39.4545 146.594 39.1569C146.594 38.1723 146.594 37.1505 146.594 35.9255C148.465 36.372 150.778 34.855 152.12 37.4882C154.175 35.4131 156.68 35.021 159.327 36.0514C162.067 37.119 163.146 39.4603 163.483 42.2337C163.641 43.5274 163.583 44.8097 163.292 46.0691C162.061 51.3527 156.354 53.2446 152.186 49.9759ZM159.634 43.6734C159.628 40.9858 158.203 39.071 156.093 38.9164C153.952 38.759 152.286 40.4849 152.112 43.0466C151.912 45.9632 153.317 48.1785 155.475 48.3445C157.939 48.5305 159.639 46.6243 159.634 43.6734Z" fill="#2A2A2A"/>
<path d="M170.793 49.973C170.793 52.4546 170.793 54.7357 170.793 57.0999C169.528 57.3661 168.306 57.18 166.927 57.2258C166.927 51.2811 166.927 45.3964 166.927 39.6377C166.328 39.1253 165.747 39.423 165.201 39.1855C165.201 38.1694 165.201 37.1447 165.201 35.9226C167.075 36.3719 169.388 34.8492 170.722 37.4824C172.78 35.4074 175.287 35.0181 177.935 36.0514C180.605 37.0932 181.713 39.3658 182.068 42.0934C182.242 43.4358 182.199 44.7667 181.893 46.069C180.656 51.3812 174.915 53.2331 170.793 49.973ZM178.289 43.7277C178.298 41.3808 177.319 39.7035 175.622 39.1225C174.205 38.6388 172.914 38.9508 171.97 40.0327C170.484 41.7328 170.436 43.7592 171.111 45.8143C171.575 47.2282 172.508 48.1928 174.071 48.3387C176.561 48.5677 178.281 46.6758 178.289 43.7277Z" fill="#2A2A2A"/>
<path d="M165.49 98.908C165.504 103.619 161.958 107.011 157.035 106.999C152.252 106.988 148.7 103.559 148.66 98.9223C148.623 94.38 152.264 90.9196 157.081 90.9168C161.926 90.911 165.475 94.2856 165.49 98.908ZM152.576 99.0025C152.57 101.679 154.496 103.688 157.072 103.694C159.605 103.696 161.6 101.65 161.629 99.011C161.657 96.4379 159.602 94.2999 157.089 94.2913C154.585 94.2798 152.581 96.3692 152.576 99.0025Z" fill="#2A2A2A"/>
<path d="M144.496 80.089C139.69 80.0833 136.158 76.6687 136.158 72.0262C136.158 67.3866 139.693 64.0006 144.53 64.0064C149.373 64.0121 152.93 67.3809 152.968 71.9947C153.002 76.6458 149.396 80.0919 144.496 80.089ZM144.418 76.6944C147.04 76.7259 148.983 74.8197 149.041 72.155C149.098 69.5103 147.177 67.4124 144.65 67.3551C142.123 67.3007 140.073 69.3071 139.985 71.9232C139.896 74.4848 141.92 76.663 144.418 76.6944Z" fill="#2A2A2A"/>
<path d="M166.792 98.8937C166.801 94.2655 170.344 90.8967 175.181 90.9139C179.978 90.9311 183.582 94.3714 183.596 98.9423C183.61 103.562 179.938 107.028 175.064 106.997C170.255 106.968 166.783 103.568 166.792 98.8937ZM179.675 98.9309C179.629 96.3291 177.554 94.2312 175.075 94.2798C172.571 94.3285 170.544 96.5009 170.616 99.0654C170.687 101.719 172.694 103.736 175.218 103.696C177.757 103.651 179.721 101.556 179.675 98.9309Z" fill="#2A2A2A"/>
<path d="M185.637 46.4238C186.487 47.1022 187.205 47.7233 188.078 48.1211C188.922 48.5046 189.781 48.7136 190.711 48.5991C191.433 48.5104 192.019 48.1869 192.208 47.4714C192.409 46.7129 191.81 46.3294 191.258 46.0632C190.062 45.4879 188.814 45.0128 187.614 44.4403C186.215 43.7734 184.927 42.932 184.394 41.3721C183.685 39.297 184.643 37.2247 186.701 36.2774C188.507 35.4445 190.431 35.3758 192.294 35.8251C195.437 36.5808 195.826 37.7686 195.425 40.3245C194.472 40.5821 193.479 40.3674 192.52 40.4562C191.607 38.6902 190.608 38.2437 189.046 38.8304C188.51 39.0308 188.104 39.3313 188.047 39.9123C187.992 40.4533 188.35 40.8197 188.788 41.0372C189.509 41.3978 190.253 41.7212 191.003 42.0132C192.157 42.4626 193.33 42.8633 194.343 43.5988C196.885 45.445 196.785 48.9683 194.149 50.6828C191.39 52.4802 186.613 51.882 184.334 49.4921C183.971 49.1114 183.865 48.8338 184.206 48.4016C184.678 47.8005 185.104 47.1709 185.637 46.4238Z" fill="#2A2A2A"/>
<path d="M126.767 67.3409C126.767 66.425 126.767 65.4862 126.767 64.5016C127.265 64.0894 127.949 64.5331 128.502 64.2325C129.108 59.4699 131.078 57.93 136.086 58.3622C136.358 59.4069 136.135 60.4716 136.207 61.5249C133.101 61.8197 132.54 62.2519 132.557 64.3699C133.536 64.3699 134.518 64.3699 135.591 64.3699C135.591 65.4518 135.591 66.4193 135.591 67.5126C134.607 67.5126 133.628 67.5126 132.512 67.5126C132.512 71.6513 132.512 75.667 132.512 79.7342C131.155 79.7342 129.944 79.7342 128.65 79.7342C128.65 75.6784 128.65 71.6886 128.65 67.7559C128.052 67.2378 127.36 67.7044 126.767 67.3409Z" fill="#2A2A2A"/>
<path d="M160.212 79.6797C158.858 79.6797 157.647 79.6797 156.314 79.6797C156.314 75.7213 156.314 71.8315 156.314 68.042C155.753 67.5268 155.177 67.8817 154.605 67.6098C154.336 66.6252 154.528 65.5519 154.496 64.3555C155.838 64.3555 157.115 64.3097 158.386 64.3669C160.126 64.4442 160.135 65.798 160.186 67.3579C160.936 66.2216 161.54 65.3286 162.496 64.7762C163.435 64.2353 164.431 64.0063 165.601 64.1466C165.601 65.3973 165.601 66.6538 165.601 67.9075C161.586 68.3397 160.289 69.7822 160.218 73.9238C160.186 75.8157 160.212 77.7105 160.212 79.6797Z" fill="#2A2A2A"/>
<path d="M76.1207 38.6159C75.3107 38.6159 74.5007 38.5816 73.6964 38.6274C72.8092 38.6789 72.3712 38.3812 72.3941 37.4224C72.4342 35.7108 72.4256 33.9964 72.397 32.2848C72.3827 31.4118 72.7891 31.1113 73.6163 31.1227C75.3279 31.1485 77.0423 31.1599 78.7539 31.117C79.6126 31.097 79.9875 31.4605 79.9875 32.2848C79.9875 34.045 79.9818 35.8053 79.9875 37.5655C79.9904 38.3526 79.6126 38.6617 78.8341 38.6274C77.9296 38.5845 77.0252 38.6159 76.1207 38.6159Z" fill="#3A97C7"/>
<path d="M85.5295 48.0935C84.7195 48.0935 83.9095 48.0591 83.1053 48.1049C82.218 48.1564 81.7801 47.8588 81.803 46.8999C81.843 45.1884 81.8345 43.4739 81.8058 41.7623C81.7915 40.8893 82.1979 40.5888 83.0251 40.6003C84.7367 40.626 86.4512 40.6375 88.1628 40.5945C89.0214 40.5745 89.3964 40.938 89.3964 41.7623C89.3964 43.5226 89.3906 45.2828 89.3964 47.0431C89.3992 47.8302 89.0214 48.1393 88.2429 48.1049C87.3384 48.062 86.434 48.0935 85.5295 48.0935Z" fill="#3A97C7"/>
<path d="M85.5295 38.6482C84.7195 38.6482 83.9095 38.6138 83.1053 38.6596C82.218 38.7111 81.7801 38.4135 81.803 37.4546C81.843 35.743 81.8345 34.0286 81.8058 32.317C81.7915 31.444 82.1979 31.1435 83.0251 31.1549C84.7367 31.1807 86.4512 31.1922 88.1628 31.1492C89.0214 31.1292 89.3964 31.4927 89.3964 32.317C89.3964 34.0772 89.3906 35.8375 89.3964 37.5977C89.3992 38.3848 89.0214 38.694 88.2429 38.6596C87.3384 38.6167 86.434 38.6482 85.5295 38.6482Z" fill="#EFAD4F"/>
<path d="M76.0843 48.0935C75.2743 48.0935 74.4643 48.0591 73.66 48.1049C72.7728 48.1564 72.3348 47.8588 72.3577 46.8999C72.3978 45.1884 72.3892 43.4739 72.3606 41.7623C72.3463 40.8893 72.7527 40.5888 73.5799 40.6003C75.2915 40.626 77.0059 40.6375 78.7175 40.5945C79.5762 40.5745 79.9511 40.938 79.9511 41.7623C79.9511 43.5226 79.9454 45.2828 79.9511 47.0431C79.954 47.8302 79.5762 48.1393 78.7977 48.1049C77.8932 48.062 76.9888 48.0935 76.0843 48.0935Z" fill="#C13E3F"/>
<path d="M188.774 99.0311C188.765 96.478 190.07 94.629 192.068 94.3542C193.596 94.1453 194.893 94.7864 195.66 96.1316C196.716 97.9835 196.527 100.986 195.259 102.491C194.349 103.576 192.875 104.006 191.519 103.585C189.815 103.055 188.782 101.338 188.774 99.0311Z" fill="#FDFDFD"/>
<path d="M133.15 42.4914C133.931 39.8553 135.022 37.3365 135.746 34.6604C136.459 37.2993 137.549 39.7837 138.342 42.4914C136.559 42.4914 134.887 42.4914 133.15 42.4914Z" fill="#FDFDFD"/>
<path d="M159.634 43.6735C159.639 46.6244 157.939 48.5306 155.475 48.3417C153.317 48.1757 151.911 45.9604 152.112 43.0438C152.289 40.485 153.952 38.7591 156.093 38.9137C158.203 39.0711 159.628 40.9859 159.634 43.6735Z" fill="#FDFDFD"/>
<path d="M178.289 43.7278C178.278 46.6759 176.561 48.5707 174.073 48.336C172.511 48.19 171.578 47.2254 171.114 45.8115C170.438 43.7565 170.484 41.73 171.973 40.0299C172.917 38.948 174.205 38.636 175.625 39.1197C177.319 39.7036 178.298 41.3808 178.289 43.7278Z" fill="#FDFDFD"/>
<path d="M152.575 99.0024C152.581 96.372 154.585 94.2798 157.089 94.2884C159.602 94.2998 161.66 96.4379 161.629 99.0081C161.597 101.647 159.605 103.694 157.072 103.691C154.496 103.688 152.57 101.679 152.575 99.0024Z" fill="#FDFDFD"/>
<path d="M144.418 76.6944C141.92 76.6657 139.896 74.4876 139.985 71.9259C140.073 69.307 142.126 67.3006 144.65 67.3579C147.177 67.4123 149.098 69.5131 149.041 72.1578C148.984 74.8168 147.04 76.7258 144.418 76.6944Z" fill="#FDFDFD"/>
<path d="M179.675 98.9308C179.721 101.555 177.757 103.653 175.215 103.693C172.691 103.734 170.685 101.719 170.613 99.0624C170.544 96.4979 172.571 94.3255 175.072 94.2769C177.554 94.2311 179.629 96.329 179.675 98.9308Z" fill="#FDFDFD"/>
</g>
<defs>
<clipPath id="clip0">
<rect width="171.731" height="81" fill="white" transform="translate(32 28)"/>
</clipPath>
</defs>
</svg>
