<svg width="172" height="136" viewBox="0 0 172 136" fill="none" xmlns="http://www.w3.org/2000/svg">
<rect width="172" height="136" fill="white"/>
<g clip-path="url(#clip0)">
<path d="M0 109C0 82.0067 0 55.0134 0 28C57.2238 28 114.456 28 171.731 28C171.731 54.9876 171.731 81.9952 171.731 109C114.493 109 57.2495 109 0 109ZM20.0325 67.3723C24.7064 67.3723 29.3804 67.3809 34.0543 67.3694C36.7849 67.3637 38.3076 65.8553 38.3104 63.1248C38.3219 53.8742 38.319 44.6236 38.3104 35.3701C38.3076 32.6596 36.7677 31.137 34.0286 31.1341C24.8238 31.1255 15.619 31.1284 6.41703 31.1341C3.57774 31.1341 2.11802 32.6053 2.11516 35.4703C2.10943 44.6751 2.10943 53.8771 2.11516 63.0819C2.11802 65.9498 3.55198 67.3694 6.43993 67.3723C10.9708 67.3752 15.5016 67.3723 20.0325 67.3723ZM58.5461 69.4503C53.9666 69.4503 49.3871 69.4388 44.8076 69.4531C41.851 69.4646 40.4055 70.9157 40.4055 73.8323C40.4027 82.9426 40.4027 92.053 40.4055 101.163C40.4055 104.252 41.8223 105.726 44.9564 105.734C54.021 105.76 63.0827 105.76 72.1472 105.731C75.2069 105.723 76.618 104.275 76.618 101.249C76.6266 92.1388 76.6237 83.0285 76.618 73.9181C76.6151 70.8785 75.2069 69.4646 72.1415 69.4531C67.6078 69.4359 63.077 69.4503 58.5461 69.4503ZM59.7854 58.8544C59.7854 60.8064 59.7769 62.7613 59.7883 64.7133C59.7998 66.5365 60.5697 67.3523 62.3786 67.3637C66.2368 67.3895 70.0979 67.3895 73.9562 67.3609C75.7765 67.3494 76.6609 66.445 76.6695 64.6103C76.6895 60.7978 76.6924 56.9883 76.6695 53.1758C76.6581 51.3612 75.7622 50.4539 73.9304 50.4396C70.118 50.4081 66.3055 50.4138 62.4959 50.4367C60.5954 50.4482 59.7998 51.2639 59.7883 53.1358C59.774 55.042 59.7854 56.9482 59.7854 58.8544ZM38.3219 97.1906C38.3219 95.333 38.3333 93.4726 38.319 91.6151C38.3047 89.6573 37.4088 88.7328 35.4196 88.7185C31.653 88.6899 27.8892 88.687 24.1225 88.7214C22.2478 88.7386 21.4378 89.5943 21.4321 91.4519C21.4206 95.2644 21.4235 99.0768 21.4292 102.892C21.4321 104.795 22.2621 105.723 24.1826 105.746C27.9464 105.794 31.7131 105.803 35.4797 105.74C37.4775 105.708 38.3018 104.767 38.319 102.769C38.3333 100.909 38.319 99.051 38.3219 97.1906ZM18.9334 97.2507C18.9334 95.2958 18.9448 93.3438 18.9305 91.3889C18.9162 89.6974 18.0948 88.7529 16.4433 88.7328C12.4877 88.687 8.53219 88.687 4.57664 88.7357C3.01102 88.7529 2.0665 89.7088 2.05219 91.2516C2.01498 95.2071 2.01784 99.1627 2.05219 103.118C2.0665 104.732 2.91943 105.634 4.51654 105.66C8.47208 105.723 12.4276 105.749 16.3803 105.711C18.1091 105.694 18.9191 104.741 18.9305 102.969C18.942 101.063 18.9334 99.1569 18.9334 97.2507ZM59.7854 39.5833C59.7854 41.5382 59.7769 43.4902 59.7883 45.4451C59.7998 47.2225 60.604 48.0496 62.4158 48.0611C66.2769 48.084 70.1351 48.084 73.9962 48.0582C75.725 48.0468 76.6523 47.1423 76.6666 45.4107C76.6981 41.5038 76.701 37.5969 76.6666 33.69C76.6523 32.1187 75.7307 31.1627 74.1823 31.1484C70.1809 31.1083 66.1767 31.1083 62.1754 31.1484C60.6498 31.1627 59.8169 32.0614 59.7969 33.5813C59.7654 35.5791 59.7854 37.5826 59.7854 39.5833ZM21.4206 77.8479C21.4206 79.7541 21.4149 81.6604 21.4235 83.5666C21.4321 85.5701 22.1906 86.3715 24.1483 86.3801C27.9607 86.3944 31.7732 86.3944 35.5856 86.3801C37.343 86.3744 38.2875 85.4957 38.3018 83.7812C38.3333 79.8743 38.3305 75.9646 38.3018 72.0577C38.2904 70.3919 37.406 69.4875 35.7345 69.4703C31.7789 69.4331 27.8234 69.4302 23.8678 69.4731C22.2364 69.4903 21.4464 70.3547 21.4264 71.9861C21.4035 73.9382 21.4206 75.893 21.4206 77.8479ZM18.9305 78.0368C18.9305 76.0362 18.9448 74.0355 18.9248 72.0348C18.9076 70.3375 18.0976 69.4817 16.3832 69.4674C12.4763 69.4331 8.5694 69.4331 4.66251 69.4646C2.97668 69.4789 2.06364 70.3604 2.04933 72.009C2.01498 75.9646 2.01498 79.9173 2.04933 83.8728C2.06364 85.4299 3.01675 86.3629 4.57378 86.3744C8.52933 86.403 12.482 86.403 16.4376 86.3744C18.0576 86.3629 18.899 85.5014 18.9219 83.8957C18.9534 81.9437 18.9305 79.9917 18.9305 78.0368ZM48.829 67.2893C50.8783 67.2893 52.9305 67.3179 54.9798 67.2807C56.4682 67.255 57.2724 66.4478 57.281 64.9595C57.3068 60.9553 57.3039 56.9482 57.2839 52.944C57.2753 51.3841 56.4739 50.534 54.9197 50.5226C50.8669 50.4882 46.814 50.4911 42.7611 50.5226C41.3787 50.534 40.4542 51.3498 40.4342 52.7207C40.3712 56.8194 40.3712 60.9209 40.4313 65.0224C40.4513 66.4965 41.3415 67.2607 42.8241 67.2836C44.8248 67.3122 46.8254 67.2893 48.829 67.2893ZM111.167 90.4788C111.952 89.4741 112.653 88.5811 113.348 87.6939C109.845 84.1963 102.922 83.9644 98.8028 87.1672C94.5124 90.5017 93.4448 97.2679 96.4415 102.202C97.7581 104.369 99.63 105.854 102.06 106.573C105.36 107.552 108.443 107.011 111.305 104.961C111.359 105.608 111.399 106.103 111.448 106.667C112.616 106.596 113.695 106.81 114.805 106.516C114.805 103.404 114.808 100.353 114.805 97.3022C114.805 96.2289 114.293 95.5563 113.197 95.5134C111.92 95.4618 110.638 95.5019 109.316 95.5019C109.167 96.6811 109.147 97.7545 109.327 98.8736C109.653 98.8965 109.934 98.9108 110.212 98.9337C110.486 98.9566 110.79 98.8564 111.01 99.1054C111.368 100.651 111.319 100.963 110.618 101.57C108.314 103.568 104.696 103.817 102.071 102.162C99.4354 100.499 98.2104 96.8672 99.1692 93.5585C100.045 90.536 102.592 88.6498 105.744 88.6155C107.733 88.5983 109.442 89.3453 111.167 90.4788ZM164.109 92.239C159.298 89.3196 154.472 91.5492 153.227 96.06C152.738 97.826 152.752 99.6263 153.107 101.438C154.286 107.463 161.124 108.645 164.247 105.033C165.091 106.796 166.296 107.117 169.871 106.493C169.931 105.477 170.003 104.449 169.802 103.336C168.142 103.642 168.065 102.683 168.079 101.415C168.137 96.7412 168.111 92.0673 168.096 87.3933C168.091 85.862 167.553 85.2953 166.064 85.2438C164.842 85.2009 163.617 85.2352 162.323 85.2352C162.389 86.4603 162.163 87.5364 162.458 88.5496C163.028 88.7443 163.594 88.4352 164.087 88.8817C164.25 89.935 164.195 91.0169 164.109 92.239ZM113.552 47.9609C112.484 48.001 112.169 47.2883 111.86 46.4153C110.234 41.8473 108.543 37.305 106.88 32.7512C105.844 29.9177 105.847 29.972 102.904 29.9034C101.883 29.8805 101.545 30.2783 101.233 31.1541C99.4153 36.2546 97.512 41.3235 95.6916 46.4211C95.3825 47.2826 95.0219 47.9466 94.1375 48.021C94.1375 49.1602 94.1375 50.1906 94.1375 51.2009C98.0272 51.6589 98.2848 51.5014 99.5356 47.9752C99.6615 47.6175 99.8275 47.2654 99.899 46.8962C100.056 46.1005 100.492 45.8314 101.302 45.8658C102.824 45.9288 104.361 45.9831 105.875 45.8543C107.14 45.7456 107.673 46.2551 107.945 47.3999C108.151 48.2729 108.514 49.1144 108.835 49.9587C109.13 50.7344 109.676 51.2267 110.532 51.2753C111.522 51.3326 112.516 51.4127 113.552 51.2124C113.552 50.1734 113.552 49.1831 113.552 47.9609ZM120.186 49.9759C124.354 53.2445 130.061 51.3498 131.292 46.0661C131.586 44.8068 131.641 43.5245 131.483 42.2308C131.146 39.4574 130.069 37.1161 127.327 36.0485C124.68 35.0152 122.175 35.4102 120.12 37.4853C118.778 34.8521 116.465 36.369 114.594 35.9225C114.594 37.1447 114.594 38.1694 114.594 39.154C115.134 39.4545 115.727 39.1082 116.319 39.652C116.319 45.3964 116.319 51.2811 116.319 57.223C117.699 57.1743 118.921 57.3661 120.186 57.0942C120.186 54.7357 120.186 52.4574 120.186 49.9759ZM138.793 49.973C142.915 53.2331 148.656 51.3812 149.896 46.069C150.199 44.7639 150.245 43.4358 150.07 42.0934C149.715 39.3658 148.608 37.0932 145.937 36.0513C143.29 35.0181 140.783 35.4074 138.725 37.4824C137.391 34.8521 135.075 36.3748 133.204 35.9225C133.204 37.1447 133.204 38.1694 133.204 39.1854C133.75 39.4259 134.331 39.1253 134.929 39.6377C134.929 45.3935 134.929 51.2811 134.929 57.2258C136.309 57.18 137.528 57.3661 138.796 57.0999C138.793 54.7357 138.793 52.4574 138.793 49.973ZM133.49 98.9079C133.475 94.2855 129.926 90.9138 125.081 90.9167C120.264 90.9195 116.623 94.3799 116.66 98.9222C116.697 103.559 120.252 106.988 125.035 106.999C129.958 107.011 133.501 103.619 133.49 98.9079ZM112.496 80.089C117.396 80.0947 121.002 76.6458 120.965 71.9919C120.928 67.3809 117.37 64.0121 112.527 64.0035C107.69 63.9978 104.155 67.3837 104.155 72.0234C104.158 76.6658 107.69 80.0833 112.496 80.089ZM134.792 98.8936C134.783 103.568 138.255 106.968 143.067 106.996C147.941 107.028 151.613 103.559 151.599 98.9423C151.584 94.3713 147.981 90.931 143.184 90.9138C138.344 90.8966 134.801 94.2683 134.792 98.8936ZM153.637 46.4239C153.101 47.1681 152.675 47.8006 152.208 48.3988C151.871 48.8339 151.977 49.1087 152.337 49.4893C154.616 51.8821 159.39 52.4775 162.152 50.68C164.788 48.9627 164.888 45.4422 162.346 43.5961C161.333 42.8605 160.16 42.4598 159.006 42.0104C158.253 41.7185 157.512 41.3951 156.791 41.0344C156.353 40.8169 155.995 40.4505 156.05 39.9096C156.107 39.3286 156.513 39.028 157.048 38.8277C158.608 38.2438 159.61 38.6874 160.523 40.4534C161.479 40.3647 162.475 40.5765 163.428 40.3217C163.829 37.7658 163.44 36.578 160.297 35.8224C158.434 35.3759 156.507 35.4446 154.704 36.2746C152.646 37.222 151.688 39.2942 152.397 41.3693C152.93 42.9292 154.218 43.7707 155.617 44.4376C156.817 45.01 158.064 45.4823 159.261 46.0604C159.816 46.3266 160.414 46.7101 160.211 47.4686C160.022 48.1842 159.435 48.5105 158.714 48.5963C157.787 48.708 156.925 48.5019 156.081 48.1183C155.205 47.7234 154.49 47.1023 153.637 46.4239ZM94.7671 67.3408C95.3596 67.7043 96.0523 67.2378 96.6505 67.7558C96.6505 71.6885 96.6505 75.6784 96.6505 79.7341C97.947 79.7341 99.1577 79.7341 100.512 79.7341C100.512 75.6669 100.512 71.6484 100.512 67.5125C101.628 67.5125 102.607 67.5125 103.591 67.5125C103.591 66.4192 103.591 65.4489 103.591 64.3699C102.518 64.3699 101.536 64.3699 100.557 64.3699C100.54 62.2518 101.101 61.8196 104.207 61.5248C104.135 60.4744 104.358 59.4068 104.086 58.3621C99.0776 57.9299 97.1113 59.4698 96.5016 64.2325C95.9492 64.5359 95.2652 64.0951 94.7671 64.5044C94.7671 65.489 94.7671 66.4278 94.7671 67.3408ZM128.212 79.6797C128.212 77.7105 128.183 75.8158 128.218 73.9239C128.289 69.7823 129.586 68.3397 133.601 67.9075C133.601 66.6539 133.601 65.3974 133.601 64.1466C132.428 64.0064 131.435 64.2353 130.496 64.7763C129.537 65.3287 128.936 66.2217 128.186 67.358C128.132 65.7981 128.126 64.4414 126.386 64.367C125.115 64.3126 123.838 64.3555 122.496 64.3555C122.528 65.5519 122.336 66.6253 122.605 67.6099C123.177 67.8818 123.753 67.5269 124.314 68.042C124.314 71.8345 124.314 75.7242 124.314 79.6797C125.65 79.6797 126.861 79.6797 128.212 79.6797ZM44.1207 38.6159C45.0251 38.6159 45.9296 38.5844 46.8312 38.6245C47.6097 38.6588 47.9875 38.3497 47.9846 37.5626C47.9789 35.8023 47.9846 34.0421 47.9846 32.2818C47.9846 31.4604 47.6125 31.094 46.751 31.1141C45.0394 31.157 43.325 31.1455 41.6134 31.1198C40.7862 31.1083 40.3798 31.4089 40.3941 32.2818C40.4227 33.9934 40.4313 35.7079 40.3912 37.4195C40.3683 38.3783 40.8063 38.676 41.6935 38.6245C42.5007 38.5815 43.3107 38.6159 44.1207 38.6159Z" fill="#FDFDFD"/>
<path d="M20.0325 67.3722C15.5016 67.3722 10.9708 67.3751 6.43993 67.3693C3.55198 67.3665 2.11802 65.9497 2.11516 63.0789C2.10943 53.8741 2.10943 44.6722 2.11516 35.4674C2.11802 32.6023 3.57487 31.134 6.41417 31.1312C15.619 31.1254 24.8238 31.1226 34.0257 31.1312C36.7648 31.134 38.3047 32.6538 38.3075 35.3672C38.3161 44.6178 38.3161 53.8684 38.3075 63.1219C38.3047 65.8524 36.782 67.3608 34.0515 67.3665C29.3804 67.3808 24.7064 67.3722 20.0325 67.3722Z" fill="#5AB247"/>
<path d="M58.5461 69.4503C63.077 69.4503 67.6107 69.436 72.1415 69.456C75.2041 69.4674 76.6151 70.8814 76.618 73.921C76.6237 83.0314 76.6266 92.1417 76.618 101.252C76.6151 104.277 75.2069 105.726 72.1472 105.734C63.0827 105.76 54.021 105.763 44.9564 105.737C41.8223 105.729 40.4056 104.257 40.4056 101.166C40.4027 92.0558 40.4027 82.9455 40.4056 73.8351C40.4056 70.9157 41.8538 69.4646 44.8076 69.456C49.3871 69.4388 53.9666 69.4503 58.5461 69.4503Z" fill="#3A97C7"/>
<path d="M59.7854 58.8544C59.7854 56.9482 59.774 55.042 59.7883 53.1357C59.7997 51.2639 60.5954 50.4481 62.4959 50.4367C66.3084 50.4138 70.1208 50.4081 73.9304 50.4396C75.7622 50.4539 76.6609 51.3641 76.6695 53.1758C76.6924 56.9883 76.6895 60.7978 76.6695 64.6103C76.658 66.4478 75.7765 67.3494 73.9561 67.3608C70.0979 67.3866 66.2368 67.3866 62.3786 67.3637C60.5697 67.3522 59.7997 66.5365 59.7883 64.7133C59.7768 62.7613 59.7854 60.8064 59.7854 58.8544Z" fill="#5AB247"/>
<path d="M38.3218 97.1906C38.3218 99.0482 38.3333 100.909 38.319 102.766C38.3018 104.764 37.4775 105.706 35.4797 105.737C31.7159 105.8 27.9493 105.792 24.1826 105.743C22.265 105.717 21.4349 104.793 21.4292 102.889C21.4235 99.0768 21.4206 95.2644 21.4321 91.4491C21.4378 89.5915 22.2478 88.7357 24.1225 88.7186C27.8892 88.6871 31.6529 88.6871 35.4196 88.7157C37.4088 88.73 38.3047 89.6545 38.319 91.6122C38.3333 93.4727 38.3218 95.3331 38.3218 97.1906Z" fill="#EFAD4F"/>
<path d="M18.9334 97.2505C18.9334 99.1568 18.942 101.063 18.9306 102.969C18.922 104.741 18.1091 105.697 16.3803 105.711C12.4248 105.748 8.46925 105.723 4.51656 105.66C2.91946 105.634 2.06653 104.732 2.05222 103.118C2.01787 99.1625 2.01501 95.2069 2.05222 91.2514C2.06653 89.7087 3.01105 88.7527 4.57667 88.7355C8.53222 88.6897 12.4878 88.6869 16.4433 88.7327C18.0919 88.7527 18.9134 89.6944 18.9306 91.3888C18.9477 93.3436 18.9334 95.2985 18.9334 97.2505Z" fill="#5AB247"/>
<path d="M59.7855 39.5833C59.7855 37.5826 59.7655 35.5791 59.7912 33.5784C59.8113 32.0586 60.6442 31.1598 62.1697 31.1455C66.171 31.1055 70.1752 31.1055 74.1766 31.1455C75.725 31.1627 76.6467 32.1158 76.661 33.6872C76.6953 37.594 76.6953 41.5009 76.661 45.4078C76.6467 47.1395 75.7222 48.0439 73.9906 48.0554C70.1295 48.0811 66.2712 48.0811 62.4101 48.0582C60.5984 48.0468 59.7941 47.2225 59.7826 45.4422C59.7769 43.4902 59.7855 41.5381 59.7855 39.5833Z" fill="#C13E3F"/>
<path d="M21.4207 77.8479C21.4207 75.893 21.4035 73.941 21.4264 71.9861C21.4436 70.3547 22.2364 69.4903 23.8678 69.4731C27.8234 69.4302 31.7789 69.4331 35.7345 69.4703C37.406 69.4874 38.2904 70.3919 38.3019 72.0577C38.3305 75.9646 38.3334 79.8743 38.3019 83.7812C38.2876 85.4957 37.343 86.3744 35.5856 86.3801C31.7732 86.3944 27.9608 86.3973 24.1483 86.3801C22.1906 86.3715 21.4321 85.5701 21.4235 83.5666C21.4149 81.6603 21.4207 79.7541 21.4207 77.8479Z" fill="#C13E3F"/>
<path d="M18.9305 78.0369C18.9305 79.9918 18.9506 81.9438 18.9248 83.8958C18.9019 85.4987 18.0576 86.363 16.4404 86.3745C12.4849 86.4031 8.52932 86.4031 4.57664 86.3745C3.0196 86.363 2.06649 85.43 2.05218 83.8729C2.01497 79.9174 2.01497 75.9647 2.05218 72.0092C2.06649 70.3605 2.97953 69.4761 4.66536 69.4647C8.57225 69.4332 12.4791 69.4332 16.386 69.4675C18.1005 69.4818 18.9105 70.3376 18.9277 72.0349C18.9477 74.0356 18.9305 76.0363 18.9305 78.0369Z" fill="#3A97C7"/>
<path d="M48.829 67.2892C46.8254 67.2892 44.8219 67.3121 42.8212 67.2806C41.3386 67.2578 40.4485 66.4964 40.4284 65.0195C40.3683 60.9209 40.3683 56.8193 40.4313 52.7178C40.4513 51.3468 41.3758 50.5311 42.7582 50.5197C46.8111 50.4853 50.864 50.4853 54.9168 50.5197C56.471 50.534 57.2753 51.3812 57.281 52.9411C57.301 56.9453 57.3039 60.9523 57.2781 64.9565C57.2695 66.4449 56.4653 67.2492 54.9769 67.2778C52.9305 67.3179 50.8783 67.2892 48.829 67.2892Z" fill="#EFAD4F"/>
<path d="M111.168 90.4787C109.444 89.3424 107.733 88.5953 105.741 88.6182C102.592 88.6554 100.042 90.5416 99.1664 93.5612C98.2075 96.8699 99.4325 100.502 102.069 102.165C104.693 103.819 108.311 103.57 110.615 101.573C111.316 100.966 111.365 100.654 111.007 99.1082C110.787 98.8592 110.483 98.9593 110.209 98.9364C109.931 98.9107 109.651 98.8992 109.324 98.8763C109.144 97.7572 109.164 96.6839 109.313 95.5047C110.635 95.5047 111.917 95.4646 113.194 95.5161C114.29 95.5591 114.803 96.2317 114.803 97.305C114.805 100.356 114.803 103.407 114.803 106.518C113.692 106.813 112.613 106.599 111.445 106.67C111.399 106.106 111.356 105.608 111.302 104.964C108.44 107.014 105.354 107.555 102.057 106.576C99.6272 105.854 97.7524 104.372 96.4387 102.205C93.442 97.2707 94.5096 90.5044 98.8 87.17C102.919 83.9672 109.845 84.199 113.346 87.6966C112.65 88.5839 111.952 89.4769 111.168 90.4787Z" fill="#2A2A2A"/>
<path d="M164.109 92.239C164.195 91.0197 164.25 89.935 164.087 88.8845C163.597 88.4409 163.028 88.75 162.458 88.5525C162.163 87.5393 162.389 86.4631 162.323 85.2381C163.617 85.2381 164.842 85.2038 166.064 85.2467C167.553 85.2982 168.091 85.8649 168.096 87.3962C168.114 92.0702 168.137 96.7441 168.079 101.418C168.065 102.686 168.142 103.645 169.802 103.339C170.003 104.452 169.931 105.48 169.871 106.496C166.296 107.12 165.091 106.799 164.247 105.036C161.124 108.651 154.286 107.466 153.107 101.441C152.752 99.6263 152.738 97.8289 153.227 96.0629C154.472 91.5492 159.298 89.3167 164.109 92.239ZM156.774 99.031C156.779 101.338 157.816 103.055 159.519 103.585C160.875 104.005 162.349 103.576 163.259 102.491C164.527 100.983 164.716 97.9834 163.66 96.1316C162.893 94.7864 161.599 94.1452 160.068 94.3542C158.07 94.629 156.765 96.4779 156.774 99.031Z" fill="#2A2A2A"/>
<path d="M113.552 47.9609C113.552 49.1831 113.552 50.1734 113.552 51.2152C112.513 51.4127 111.52 51.3326 110.532 51.2782C109.673 51.2295 109.127 50.7344 108.835 49.9616C108.514 49.1172 108.151 48.2786 107.945 47.4028C107.673 46.255 107.14 45.7456 105.875 45.8572C104.361 45.9889 102.824 45.9316 101.301 45.8686C100.489 45.8343 100.054 46.1033 99.899 46.899C99.8275 47.2683 99.6615 47.6203 99.5355 47.9781C98.2847 51.5072 98.0271 51.6646 94.1374 51.2038C94.1374 50.1934 94.1374 49.163 94.1374 48.0239C95.0218 47.9466 95.3853 47.2854 95.6916 46.4239C97.5119 41.3263 99.4153 36.2574 101.233 31.157C101.545 30.2812 101.883 29.8833 102.904 29.9062C105.847 29.9749 105.844 29.9177 106.88 32.7541C108.543 37.3078 110.234 41.853 111.86 46.4182C112.169 47.2883 112.484 48.001 113.552 47.9609ZM101.15 42.4913C102.887 42.4913 104.559 42.4913 106.342 42.4913C105.549 39.7836 104.458 37.2992 103.746 34.6603C103.022 37.3336 101.934 39.8552 101.15 42.4913Z" fill="#2A2A2A"/>
<path d="M120.186 49.9759C120.186 52.4546 120.186 54.7358 120.186 57.0971C118.921 57.3661 117.699 57.1772 116.319 57.2259C116.319 51.284 116.319 45.3964 116.319 39.6549C115.727 39.1111 115.135 39.4545 114.594 39.1569C114.594 38.1723 114.594 37.1505 114.594 35.9255C116.465 36.372 118.778 34.855 120.12 37.4882C122.175 35.4131 124.68 35.021 127.327 36.0514C130.067 37.119 131.146 39.4603 131.483 42.2337C131.641 43.5274 131.583 44.8097 131.292 46.0691C130.061 51.3527 124.354 53.2446 120.186 49.9759ZM127.634 43.6734C127.628 40.9858 126.203 39.071 124.093 38.9164C121.952 38.759 120.286 40.4849 120.112 43.0466C119.912 45.9632 121.317 48.1785 123.475 48.3445C125.939 48.5305 127.639 46.6243 127.634 43.6734Z" fill="#2A2A2A"/>
<path d="M138.793 49.973C138.793 52.4546 138.793 54.7357 138.793 57.0999C137.528 57.3661 136.306 57.18 134.927 57.2258C134.927 51.2811 134.927 45.3964 134.927 39.6377C134.328 39.1253 133.747 39.423 133.201 39.1855C133.201 38.1694 133.201 37.1447 133.201 35.9226C135.075 36.3719 137.388 34.8492 138.722 37.4824C140.78 35.4074 143.287 35.0181 145.935 36.0514C148.605 37.0932 149.713 39.3658 150.068 42.0934C150.242 43.4358 150.199 44.7667 149.893 46.069C148.656 51.3812 142.915 53.2331 138.793 49.973ZM146.289 43.7277C146.298 41.3808 145.319 39.7035 143.622 39.1225C142.205 38.6388 140.914 38.9508 139.97 40.0327C138.484 41.7328 138.436 43.7592 139.111 45.8143C139.575 47.2282 140.508 48.1928 142.071 48.3387C144.561 48.5677 146.281 46.6758 146.289 43.7277Z" fill="#2A2A2A"/>
<path d="M133.49 98.908C133.504 103.619 129.958 107.011 125.035 106.999C120.252 106.988 116.7 103.559 116.66 98.9223C116.623 94.38 120.264 90.9196 125.081 90.9168C129.926 90.911 133.475 94.2856 133.49 98.908ZM120.576 99.0025C120.57 101.679 122.496 103.688 125.072 103.694C127.605 103.696 129.6 101.65 129.629 99.011C129.657 96.4379 127.602 94.2999 125.089 94.2913C122.585 94.2798 120.581 96.3692 120.576 99.0025Z" fill="#2A2A2A"/>
<path d="M112.496 80.089C107.69 80.0833 104.158 76.6687 104.158 72.0262C104.158 67.3866 107.693 64.0006 112.53 64.0064C117.373 64.0121 120.93 67.3809 120.968 71.9947C121.002 76.6458 117.396 80.0919 112.496 80.089ZM112.418 76.6944C115.04 76.7259 116.983 74.8197 117.041 72.155C117.098 69.5103 115.177 67.4124 112.65 67.3551C110.123 67.3007 108.073 69.3071 107.985 71.9232C107.896 74.4848 109.92 76.663 112.418 76.6944Z" fill="#2A2A2A"/>
<path d="M134.792 98.8937C134.801 94.2655 138.344 90.8967 143.181 90.9139C147.978 90.9311 151.582 94.3714 151.596 98.9423C151.61 103.562 147.938 107.028 143.064 106.997C138.255 106.968 134.783 103.568 134.792 98.8937ZM147.675 98.9309C147.629 96.3291 145.554 94.2312 143.075 94.2798C140.571 94.3285 138.544 96.5009 138.616 99.0654C138.687 101.719 140.694 103.736 143.218 103.696C145.757 103.651 147.721 101.556 147.675 98.9309Z" fill="#2A2A2A"/>
<path d="M153.637 46.4238C154.487 47.1022 155.205 47.7233 156.078 48.1211C156.922 48.5046 157.781 48.7136 158.711 48.5991C159.433 48.5104 160.019 48.1869 160.208 47.4714C160.409 46.7129 159.81 46.3294 159.258 46.0632C158.062 45.4879 156.814 45.0128 155.614 44.4403C154.215 43.7734 152.927 42.932 152.394 41.3721C151.685 39.297 152.643 37.2247 154.701 36.2774C156.507 35.4445 158.431 35.3758 160.294 35.8251C163.437 36.5808 163.826 37.7686 163.425 40.3245C162.472 40.5821 161.479 40.3674 160.52 40.4562C159.607 38.6902 158.608 38.2437 157.046 38.8304C156.51 39.0308 156.104 39.3313 156.047 39.9123C155.992 40.4533 156.35 40.8197 156.788 41.0372C157.509 41.3978 158.253 41.7212 159.003 42.0132C160.157 42.4626 161.33 42.8633 162.343 43.5988C164.885 45.445 164.785 48.9683 162.149 50.6828C159.39 52.4802 154.613 51.882 152.334 49.4921C151.971 49.1114 151.865 48.8338 152.206 48.4016C152.678 47.8005 153.104 47.1709 153.637 46.4238Z" fill="#2A2A2A"/>
<path d="M94.7672 67.3409C94.7672 66.425 94.7672 65.4862 94.7672 64.5016C95.2652 64.0894 95.9492 64.5331 96.5016 64.2325C97.1084 59.4699 99.0776 57.93 104.086 58.3622C104.358 59.4069 104.135 60.4716 104.207 61.5249C101.101 61.8197 100.54 62.2519 100.557 64.3699C101.536 64.3699 102.518 64.3699 103.591 64.3699C103.591 65.4518 103.591 66.4193 103.591 67.5126C102.607 67.5126 101.628 67.5126 100.512 67.5126C100.512 71.6513 100.512 75.667 100.512 79.7342C99.1549 79.7342 97.9442 79.7342 96.6505 79.7342C96.6505 75.6784 96.6505 71.6886 96.6505 67.7559C96.0523 67.2378 95.3596 67.7044 94.7672 67.3409Z" fill="#2A2A2A"/>
<path d="M128.212 79.6797C126.858 79.6797 125.647 79.6797 124.314 79.6797C124.314 75.7213 124.314 71.8315 124.314 68.042C123.753 67.5268 123.177 67.8817 122.605 67.6098C122.336 66.6252 122.528 65.5519 122.496 64.3555C123.838 64.3555 125.115 64.3097 126.386 64.3669C128.126 64.4442 128.135 65.798 128.186 67.3579C128.936 66.2216 129.54 65.3286 130.496 64.7762C131.435 64.2353 132.431 64.0063 133.601 64.1466C133.601 65.3973 133.601 66.6538 133.601 67.9075C129.586 68.3397 128.289 69.7822 128.218 73.9238C128.186 75.8157 128.212 77.7105 128.212 79.6797Z" fill="#2A2A2A"/>
<path d="M44.1207 38.6159C43.3107 38.6159 42.5007 38.5816 41.6964 38.6274C40.8092 38.6789 40.3712 38.3812 40.3941 37.4224C40.4342 35.7108 40.4256 33.9964 40.397 32.2848C40.3827 31.4118 40.7891 31.1113 41.6163 31.1227C43.3279 31.1485 45.0423 31.1599 46.7539 31.117C47.6126 31.097 47.9875 31.4605 47.9875 32.2848C47.9875 34.045 47.9818 35.8053 47.9875 37.5655C47.9904 38.3526 47.6126 38.6617 46.8341 38.6274C45.9296 38.5845 45.0252 38.6159 44.1207 38.6159Z" fill="#3A97C7"/>
<path d="M53.5295 48.0935C52.7195 48.0935 51.9095 48.0591 51.1053 48.1049C50.218 48.1564 49.7801 47.8588 49.803 46.8999C49.843 45.1884 49.8345 43.4739 49.8058 41.7623C49.7915 40.8893 50.1979 40.5888 51.0251 40.6003C52.7367 40.626 54.4512 40.6375 56.1628 40.5945C57.0214 40.5745 57.3964 40.938 57.3964 41.7623C57.3964 43.5226 57.3906 45.2828 57.3964 47.0431C57.3992 47.8302 57.0214 48.1393 56.2429 48.1049C55.3384 48.062 54.434 48.0935 53.5295 48.0935Z" fill="#3A97C7"/>
<path d="M53.5295 38.6482C52.7195 38.6482 51.9095 38.6138 51.1053 38.6596C50.218 38.7111 49.7801 38.4135 49.803 37.4546C49.843 35.743 49.8345 34.0286 49.8058 32.317C49.7915 31.444 50.1979 31.1435 51.0251 31.1549C52.7367 31.1807 54.4512 31.1922 56.1628 31.1492C57.0214 31.1292 57.3964 31.4927 57.3964 32.317C57.3964 34.0772 57.3906 35.8375 57.3964 37.5977C57.3992 38.3848 57.0214 38.694 56.2429 38.6596C55.3384 38.6167 54.434 38.6482 53.5295 38.6482Z" fill="#EFAD4F"/>
<path d="M44.0843 48.0935C43.2743 48.0935 42.4643 48.0591 41.66 48.1049C40.7728 48.1564 40.3348 47.8588 40.3577 46.8999C40.3978 45.1884 40.3892 43.4739 40.3606 41.7623C40.3463 40.8893 40.7527 40.5888 41.5799 40.6003C43.2915 40.626 45.0059 40.6375 46.7175 40.5945C47.5762 40.5745 47.9511 40.938 47.9511 41.7623C47.9511 43.5226 47.9454 45.2828 47.9511 47.0431C47.954 47.8302 47.5762 48.1393 46.7977 48.1049C45.8932 48.062 44.9888 48.0935 44.0843 48.0935Z" fill="#C13E3F"/>
<path d="M156.774 99.0311C156.765 96.478 158.07 94.629 160.068 94.3542C161.596 94.1453 162.893 94.7864 163.66 96.1316C164.716 97.9835 164.527 100.986 163.259 102.491C162.349 103.576 160.875 104.006 159.519 103.585C157.815 103.055 156.782 101.338 156.774 99.0311Z" fill="#FDFDFD"/>
<path d="M101.15 42.4914C101.931 39.8553 103.022 37.3365 103.746 34.6604C104.459 37.2993 105.549 39.7837 106.342 42.4914C104.559 42.4914 102.887 42.4914 101.15 42.4914Z" fill="#FDFDFD"/>
<path d="M127.634 43.6735C127.639 46.6244 125.939 48.5306 123.475 48.3417C121.317 48.1757 119.911 45.9604 120.112 43.0438C120.289 40.485 121.952 38.7591 124.093 38.9137C126.203 39.0711 127.628 40.9859 127.634 43.6735Z" fill="#FDFDFD"/>
<path d="M146.289 43.7278C146.278 46.6759 144.561 48.5707 142.073 48.336C140.511 48.19 139.578 47.2254 139.114 45.8115C138.438 43.7565 138.484 41.73 139.973 40.0299C140.917 38.948 142.205 38.636 143.625 39.1197C145.319 39.7036 146.298 41.3808 146.289 43.7278Z" fill="#FDFDFD"/>
<path d="M120.575 99.0024C120.581 96.372 122.585 94.2798 125.089 94.2884C127.602 94.2998 129.66 96.4379 129.629 99.0081C129.597 101.647 127.605 103.694 125.072 103.691C122.496 103.688 120.57 101.679 120.575 99.0024Z" fill="#FDFDFD"/>
<path d="M112.418 76.6944C109.92 76.6657 107.896 74.4876 107.985 71.9259C108.073 69.307 110.126 67.3006 112.65 67.3579C115.177 67.4123 117.098 69.5131 117.041 72.1578C116.984 74.8168 115.04 76.7258 112.418 76.6944Z" fill="#FDFDFD"/>
<path d="M147.675 98.9308C147.721 101.555 145.757 103.653 143.215 103.693C140.691 103.734 138.685 101.719 138.613 99.0624C138.544 96.4979 140.571 94.3255 143.072 94.2769C145.554 94.2311 147.629 96.329 147.675 98.9308Z" fill="#FDFDFD"/>
</g>
<defs>
<clipPath id="clip0">
<rect width="171.731" height="81" fill="white" transform="translate(0 28)"/>
</clipPath>
</defs>
</svg>
