<svg width="172" height="81" viewBox="0 0 172 81" fill="none" xmlns="http://www.w3.org/2000/svg">
<g clip-path="url(#clip0)">
<path d="M0 81C0 54.0067 0 27.0134 0 0C57.2238 0 114.456 0 171.731 0C171.731 26.9876 171.731 53.9952 171.731 81C114.493 81 57.2495 81 0 81ZM20.0325 39.3723C24.7064 39.3723 29.3804 39.3809 34.0543 39.3694C36.7849 39.3637 38.3076 37.8553 38.3104 35.1248C38.3219 25.8742 38.319 16.6236 38.3104 7.37014C38.3076 4.65965 36.7677 3.13696 34.0286 3.1341C24.8238 3.12551 15.619 3.12837 6.41703 3.1341C3.57774 3.1341 2.11802 4.60527 2.11516 7.47032C2.10943 16.6751 2.10943 25.8771 2.11516 35.0819C2.11802 37.9498 3.55198 39.3694 6.43993 39.3723C10.9708 39.3752 15.5016 39.3723 20.0325 39.3723ZM58.5461 41.4503C53.9666 41.4503 49.3871 41.4388 44.8076 41.4531C41.851 41.4646 40.4055 42.9157 40.4055 45.8323C40.4027 54.9426 40.4027 64.053 40.4055 73.1633C40.4055 76.2516 41.8223 77.7257 44.9564 77.7342C54.021 77.76 63.0827 77.76 72.1472 77.7314C75.2069 77.7228 76.618 76.2745 76.618 73.2492C76.6266 64.1388 76.6237 55.0285 76.618 45.9181C76.6151 42.8785 75.2069 41.4646 72.1415 41.4531C67.6078 41.4359 63.077 41.4503 58.5461 41.4503ZM59.7854 30.8544C59.7854 32.8064 59.7769 34.7613 59.7883 36.7133C59.7998 38.5365 60.5697 39.3523 62.3786 39.3637C66.2368 39.3895 70.0979 39.3895 73.9562 39.3609C75.7765 39.3494 76.6609 38.445 76.6695 36.6103C76.6895 32.7978 76.6924 28.9883 76.6695 25.1758C76.6581 23.3612 75.7622 22.4539 73.9304 22.4396C70.118 22.4081 66.3055 22.4138 62.4959 22.4367C60.5954 22.4482 59.7998 23.2639 59.7883 25.1358C59.774 27.042 59.7854 28.9482 59.7854 30.8544ZM38.3219 69.1906C38.3219 67.333 38.3333 65.4726 38.319 63.6151C38.3047 61.6573 37.4088 60.7328 35.4196 60.7185C31.653 60.6899 27.8892 60.687 24.1225 60.7214C22.2478 60.7386 21.4378 61.5943 21.4321 63.4519C21.4206 67.2644 21.4235 71.0768 21.4292 74.8921C21.4321 76.7954 22.2621 77.7228 24.1826 77.7457C27.9464 77.7943 31.7131 77.8029 35.4797 77.74C37.4775 77.7085 38.3018 76.7668 38.319 74.769C38.3333 72.9086 38.319 71.051 38.3219 69.1906ZM18.9334 69.2507C18.9334 67.2958 18.9448 65.3438 18.9305 63.3889C18.9162 61.6974 18.0948 60.7529 16.4433 60.7328C12.4877 60.687 8.53219 60.687 4.57664 60.7357C3.01102 60.7529 2.0665 61.7088 2.05219 63.2516C2.01498 67.2071 2.01784 71.1627 2.05219 75.1182C2.0665 76.7325 2.91943 77.6341 4.51654 77.6598C8.47208 77.7228 12.4276 77.7486 16.3803 77.7113C18.1091 77.6942 18.9191 76.7411 18.9305 74.9694C18.942 73.0631 18.9334 71.1569 18.9334 69.2507ZM59.7854 11.5833C59.7854 13.5382 59.7769 15.4902 59.7883 17.4451C59.7998 19.2225 60.604 20.0496 62.4158 20.0611C66.2769 20.084 70.1351 20.084 73.9962 20.0582C75.725 20.0468 76.6523 19.1423 76.6666 17.4107C76.6981 13.5038 76.701 9.59693 76.6666 5.69004C76.6523 4.11869 75.7307 3.16272 74.1823 3.14841C70.1809 3.10834 66.1767 3.10834 62.1754 3.14841C60.6498 3.16272 59.8169 4.06145 59.7969 5.58127C59.7654 7.57908 59.7854 9.58262 59.7854 11.5833ZM21.4206 49.8479C21.4206 51.7541 21.4149 53.6604 21.4235 55.5666C21.4321 57.5701 22.1906 58.3715 24.1483 58.3801C27.9607 58.3944 31.7732 58.3944 35.5856 58.3801C37.343 58.3744 38.2875 57.4957 38.3018 55.7812C38.3333 51.8743 38.3305 47.9646 38.3018 44.0577C38.2904 42.3919 37.406 41.4875 35.7345 41.4703C31.7789 41.4331 27.8234 41.4302 23.8678 41.4731C22.2364 41.4903 21.4464 42.3547 21.4264 43.9861C21.4035 45.9382 21.4206 47.893 21.4206 49.8479ZM18.9305 50.0368C18.9305 48.0362 18.9448 46.0355 18.9248 44.0348C18.9076 42.3375 18.0976 41.4817 16.3832 41.4674C12.4763 41.4331 8.5694 41.4331 4.66251 41.4646C2.97668 41.4789 2.06364 42.3604 2.04933 44.009C2.01498 47.9646 2.01498 51.9173 2.04933 55.8728C2.06364 57.4299 3.01675 58.3629 4.57378 58.3744C8.52933 58.403 12.482 58.403 16.4376 58.3744C18.0576 58.3629 18.899 57.5014 18.9219 55.8957C18.9534 53.9437 18.9305 51.9917 18.9305 50.0368ZM48.829 39.2893C50.8783 39.2893 52.9305 39.3179 54.9798 39.2807C56.4682 39.255 57.2724 38.4478 57.281 36.9595C57.3068 32.9553 57.3039 28.9482 57.2839 24.944C57.2753 23.3841 56.4739 22.534 54.9197 22.5226C50.8669 22.4882 46.814 22.4911 42.7611 22.5226C41.3787 22.534 40.4542 23.3498 40.4342 24.7207C40.3712 28.8194 40.3712 32.9209 40.4313 37.0224C40.4513 38.4965 41.3415 39.2607 42.8241 39.2836C44.8248 39.3122 46.8254 39.2893 48.829 39.2893ZM111.167 62.4788C111.952 61.4741 112.653 60.5811 113.348 59.6939C109.845 56.1963 102.922 55.9644 98.8028 59.1672C94.5124 62.5017 93.4448 69.2679 96.4415 74.2023C97.7581 76.369 99.63 77.8545 102.06 78.5729C105.36 79.5517 108.443 79.0108 111.305 76.9615C111.359 77.6083 111.399 78.1035 111.448 78.6673C112.616 78.5958 113.695 78.8104 114.805 78.5156C114.805 75.4044 114.808 72.3533 114.805 69.3022C114.805 68.2289 114.293 67.5563 113.197 67.5134C111.92 67.4618 110.638 67.5019 109.316 67.5019C109.167 68.6811 109.147 69.7545 109.327 70.8736C109.653 70.8965 109.934 70.9108 110.212 70.9337C110.486 70.9566 110.79 70.8564 111.01 71.1054C111.368 72.651 111.319 72.963 110.618 73.5698C108.314 75.5676 104.696 75.8166 102.071 74.1622C99.4354 72.4993 98.2104 68.8672 99.1692 65.5585C100.045 62.536 102.592 60.6498 105.744 60.6155C107.733 60.5983 109.442 61.3453 111.167 62.4788ZM164.109 64.239C159.298 61.3196 154.472 63.5492 153.227 68.06C152.738 69.826 152.752 71.6263 153.107 73.4381C154.286 79.463 161.124 80.6451 164.247 77.033C165.091 78.7961 166.296 79.1167 169.871 78.4927C169.931 77.4766 170.003 76.4491 169.802 75.3357C168.142 75.642 168.065 74.6831 168.079 73.4152C168.137 68.7412 168.111 64.0673 168.096 59.3933C168.091 57.862 167.553 57.2953 166.064 57.2438C164.842 57.2009 163.617 57.2352 162.323 57.2352C162.389 58.4603 162.163 59.5364 162.458 60.5496C163.028 60.7443 163.594 60.4352 164.087 60.8817C164.25 61.935 164.195 63.0169 164.109 64.239ZM113.552 19.9609C112.484 20.001 112.169 19.2883 111.86 18.4153C110.234 13.8473 108.543 9.30498 106.88 4.75124C105.844 1.91767 105.847 1.97205 102.904 1.90336C101.883 1.88046 101.545 2.2783 101.233 3.15413C99.4153 8.25456 97.512 13.3235 95.6916 18.4211C95.3825 19.2826 95.0219 19.9466 94.1375 20.021C94.1375 21.1602 94.1375 22.1906 94.1375 23.2009C98.0272 23.6589 98.2848 23.5014 99.5356 19.9752C99.6615 19.6175 99.8275 19.2654 99.899 18.8962C100.056 18.1005 100.492 17.8314 101.302 17.8658C102.824 17.9288 104.361 17.9831 105.875 17.8543C107.14 17.7456 107.673 18.2551 107.945 19.3999C108.151 20.2729 108.514 21.1144 108.835 21.9587C109.13 22.7344 109.676 23.2267 110.532 23.2753C111.522 23.3326 112.516 23.4127 113.552 23.2124C113.552 22.1734 113.552 21.1831 113.552 19.9609ZM120.186 21.9759C124.354 25.2445 130.061 23.3498 131.292 18.0661C131.586 16.8068 131.641 15.5245 131.483 14.2308C131.146 11.4574 130.069 9.11608 127.327 8.04848C124.68 7.01523 122.175 7.41021 120.12 9.4853C118.778 6.85209 116.465 8.36905 114.594 7.92254C114.594 9.1447 114.594 10.1694 114.594 11.154C115.134 11.4545 115.727 11.1082 116.319 11.652C116.319 17.3964 116.319 23.2811 116.319 29.223C117.699 29.1743 118.921 29.3661 120.186 29.0942C120.186 26.7357 120.186 24.4574 120.186 21.9759ZM138.793 21.973C142.915 25.2331 148.656 23.3812 149.896 18.069C150.199 16.7639 150.245 15.4358 150.07 14.0934C149.715 11.3658 148.608 9.09318 145.937 8.05134C143.29 7.01809 140.783 7.40735 138.725 9.48244C137.391 6.85209 135.075 8.37477 133.204 7.92254C133.204 9.1447 133.204 10.1694 133.204 11.1854C133.75 11.4259 134.331 11.1253 134.929 11.6377C134.929 17.3935 134.929 23.2811 134.929 29.2258C136.309 29.18 137.528 29.3661 138.796 29.0999C138.793 26.7357 138.793 24.4574 138.793 21.973ZM133.49 70.9079C133.475 66.2855 129.926 62.9138 125.081 62.9167C120.264 62.9195 116.623 66.3799 116.66 70.9222C116.697 75.559 120.252 78.9879 125.035 78.9993C129.958 79.0108 133.501 75.6191 133.49 70.9079ZM112.496 52.089C117.396 52.0947 121.002 48.6458 120.965 43.9919C120.928 39.3809 117.37 36.0121 112.527 36.0035C107.69 35.9978 104.155 39.3837 104.155 44.0234C104.158 48.6658 107.69 52.0833 112.496 52.089ZM134.792 70.8936C134.783 75.5676 138.255 78.9678 143.067 78.9965C147.941 79.028 151.613 75.559 151.599 70.9423C151.584 66.3713 147.981 62.931 143.184 62.9138C138.344 62.8966 134.801 66.2683 134.792 70.8936ZM153.637 18.4239C153.101 19.1681 152.675 19.8006 152.208 20.3988C151.871 20.8339 151.977 21.1087 152.337 21.4893C154.616 23.8821 159.39 24.4775 162.152 22.68C164.788 20.9627 164.888 17.4422 162.346 15.5961C161.333 14.8605 160.16 14.4598 159.006 14.0104C158.253 13.7185 157.512 13.3951 156.791 13.0344C156.353 12.8169 155.995 12.4505 156.05 11.9096C156.107 11.3286 156.513 11.028 157.048 10.8277C158.608 10.2438 159.61 10.6874 160.523 12.4534C161.479 12.3647 162.475 12.5765 163.428 12.3217C163.829 9.76579 163.44 8.57799 160.297 7.82237C158.434 7.37587 156.507 7.44456 154.704 8.27459C152.646 9.22198 151.688 11.2942 152.397 13.3693C152.93 14.9292 154.218 15.7707 155.617 16.4376C156.817 17.01 158.064 17.4823 159.261 18.0604C159.816 18.3266 160.414 18.7101 160.211 19.4686C160.022 20.1842 159.435 20.5105 158.714 20.5963C157.787 20.708 156.925 20.5019 156.081 20.1183C155.205 19.7234 154.49 19.1023 153.637 18.4239ZM94.7671 39.3408C95.3596 39.7043 96.0523 39.2378 96.6505 39.7558C96.6505 43.6885 96.6505 47.6784 96.6505 51.7341C97.947 51.7341 99.1577 51.7341 100.512 51.7341C100.512 47.6669 100.512 43.6484 100.512 39.5125C101.628 39.5125 102.607 39.5125 103.591 39.5125C103.591 38.4192 103.591 37.4489 103.591 36.3699C102.518 36.3699 101.536 36.3699 100.557 36.3699C100.54 34.2518 101.101 33.8196 104.207 33.5248C104.135 32.4744 104.358 31.4068 104.086 30.3621C99.0776 29.9299 97.1113 31.4698 96.5016 36.2325C95.9492 36.5359 95.2652 36.0951 94.7671 36.5044C94.7671 37.489 94.7671 38.4278 94.7671 39.3408ZM128.212 51.6797C128.212 49.7105 128.183 47.8158 128.218 45.9239C128.289 41.7823 129.586 40.3397 133.601 39.9075C133.601 38.6539 133.601 37.3974 133.601 36.1466C132.428 36.0064 131.435 36.2353 130.496 36.7763C129.537 37.3287 128.936 38.2217 128.186 39.358C128.132 37.7981 128.126 36.4414 126.386 36.367C125.115 36.3126 123.838 36.3555 122.496 36.3555C122.528 37.5519 122.336 38.6253 122.605 39.6099C123.177 39.8818 123.753 39.5269 124.314 40.042C124.314 43.8345 124.314 47.7242 124.314 51.6797C125.65 51.6797 126.861 51.6797 128.212 51.6797ZM44.1207 10.6159C45.0251 10.6159 45.9296 10.5844 46.8312 10.6245C47.6097 10.6588 47.9875 10.3497 47.9846 9.56258C47.9789 7.80233 47.9846 6.04209 47.9846 4.28184C47.9846 3.46039 47.6125 3.09403 46.751 3.11406C45.0394 3.157 43.325 3.14555 41.6134 3.11979C40.7862 3.10834 40.3798 3.40887 40.3941 4.28184C40.4227 5.99343 40.4313 7.70788 40.3912 9.41947C40.3683 10.3783 40.8063 10.676 41.6935 10.6245C42.5007 10.5815 43.3107 10.6159 44.1207 10.6159Z" fill="#FDFDFD"/>
<path d="M20.0324 39.3723C15.5016 39.3723 10.9707 39.3752 6.4399 39.3695C3.55195 39.3666 2.118 37.9498 2.11513 35.079C2.10941 25.8742 2.10941 16.6723 2.11513 7.46749C2.118 4.60244 3.57485 3.13414 6.41414 3.13127C15.6189 3.12555 24.8237 3.12269 34.0257 3.13127C36.7648 3.13414 38.3047 4.65396 38.3075 7.36732C38.3161 16.6179 38.3161 25.8685 38.3075 35.122C38.3047 37.8525 36.782 39.3609 34.0514 39.3666C29.3804 39.3809 24.7064 39.3723 20.0324 39.3723Z" fill="#5AB247"/>
<path d="M58.5462 41.4503C63.077 41.4503 67.6107 41.436 72.1416 41.456C75.2041 41.4674 76.6152 42.8814 76.618 45.921C76.6237 55.0314 76.6266 64.1417 76.618 73.252C76.6152 76.2774 75.207 77.7256 72.1473 77.7342C63.0827 77.76 54.021 77.7629 44.9565 77.7371C41.8224 77.7285 40.4056 76.2573 40.4056 73.1662C40.4027 64.0558 40.4027 54.9455 40.4056 45.8351C40.4056 42.9157 41.8539 41.4646 44.8076 41.456C49.3871 41.4388 53.9666 41.4503 58.5462 41.4503Z" fill="#3A97C7"/>
<path d="M59.7855 30.8544C59.7855 28.9482 59.774 27.042 59.7883 25.1357C59.7998 23.2639 60.5955 22.4481 62.496 22.4367C66.3084 22.4138 70.1208 22.4081 73.9304 22.4396C75.7622 22.4539 76.6609 23.3641 76.6695 25.1758C76.6924 28.9883 76.6896 32.7978 76.6695 36.6103C76.6581 38.4478 75.7765 39.3494 73.9562 39.3608C70.0979 39.3866 66.2368 39.3866 62.3786 39.3637C60.5697 39.3522 59.7998 38.5365 59.7883 36.7133C59.7769 34.7613 59.7855 32.8064 59.7855 30.8544Z" fill="#5AB247"/>
<path d="M38.3218 69.1906C38.3218 71.0482 38.3333 72.9086 38.319 74.7662C38.3018 76.764 37.4775 77.7057 35.4797 77.7371C31.7159 77.8001 27.9493 77.7915 24.1826 77.7429C22.265 77.7171 21.4349 76.7926 21.4292 74.8893C21.4235 71.0768 21.4206 67.2644 21.4321 63.4491C21.4378 61.5915 22.2478 60.7357 24.1225 60.7186C27.8892 60.6871 31.6529 60.6871 35.4196 60.7157C37.4088 60.73 38.3047 61.6545 38.319 63.6122C38.3333 65.4727 38.3218 67.3331 38.3218 69.1906Z" fill="#EFAD4F"/>
<path d="M18.9334 69.2507C18.9334 71.1569 18.942 73.0631 18.9306 74.9693C18.922 76.741 18.1091 77.697 16.3804 77.7113C12.4248 77.7485 8.46926 77.7227 4.51658 77.6598C2.91948 77.634 2.06655 76.7324 2.05223 75.1182C2.01789 71.1626 2.01503 67.2071 2.05223 63.2515C2.06655 61.7088 3.01107 60.7528 4.57669 60.7356C8.53223 60.6898 12.4878 60.687 16.4433 60.7328C18.0919 60.7528 18.9134 61.6945 18.9306 63.3889C18.9477 65.3438 18.9334 67.2986 18.9334 69.2507Z" fill="#5AB247"/>
<path d="M59.7855 11.5833C59.7855 9.5826 59.7655 7.57906 59.7912 5.57839C59.8113 4.05857 60.6442 3.15984 62.1697 3.14553C66.171 3.10546 70.1753 3.10546 74.1766 3.14553C75.725 3.1627 76.6467 4.11581 76.661 5.68716C76.6953 9.59405 76.6953 13.5009 76.661 17.4078C76.6467 19.1395 75.7222 20.0439 73.9906 20.0554C70.1295 20.0811 66.2712 20.0811 62.4101 20.0582C60.5984 20.0468 59.7941 19.2225 59.7826 17.4422C59.7769 15.4902 59.7855 13.5381 59.7855 11.5833Z" fill="#C13E3F"/>
<path d="M21.4206 49.8479C21.4206 47.893 21.4034 45.941 21.4263 43.9861C21.4435 42.3547 22.2363 41.4903 23.8678 41.4731C27.8233 41.4302 31.7789 41.4331 35.7344 41.4703C37.4059 41.4874 38.2904 42.3919 38.3018 44.0577C38.3304 47.9646 38.3333 51.8743 38.3018 55.7812C38.2875 57.4957 37.343 58.3744 35.5856 58.3801C31.7732 58.3944 27.9607 58.3973 24.1483 58.3801C22.1905 58.3715 21.4321 57.5701 21.4235 55.5666C21.4149 53.6603 21.4206 51.7541 21.4206 49.8479Z" fill="#C13E3F"/>
<path d="M18.9305 50.0368C18.9305 51.9917 18.9506 53.9437 18.9248 55.8957C18.9019 57.4985 18.0576 58.3629 16.4404 58.3744C12.4849 58.403 8.52934 58.403 4.57665 58.3744C3.01962 58.3629 2.06651 57.4298 2.0522 55.8728C2.01499 51.9173 2.01499 47.9646 2.0522 44.009C2.06651 42.3604 2.97955 41.476 4.66538 41.4645C8.57227 41.4331 12.4792 41.4331 16.3861 41.4674C18.1005 41.4817 18.9105 42.3375 18.9277 44.0348C18.9477 46.0355 18.9305 48.0361 18.9305 50.0368Z" fill="#3A97C7"/>
<path d="M48.8289 39.2894C46.8254 39.2894 44.8219 39.3123 42.8212 39.2808C41.3386 39.2579 40.4484 38.4965 40.4284 37.0196C40.3683 32.921 40.3683 28.8195 40.4313 24.7179C40.4513 23.347 41.3758 22.5312 42.7582 22.5198C46.8111 22.4854 50.8639 22.4854 54.9168 22.5198C56.471 22.5341 57.2752 23.3813 57.281 24.9412C57.301 28.9454 57.3039 32.9525 57.2781 36.9567C57.2695 38.445 56.4652 39.2493 54.9769 39.2779C52.9304 39.318 50.8783 39.2894 48.8289 39.2894Z" fill="#EFAD4F"/>
<path d="M111.168 62.4788C109.445 61.3425 107.733 60.5955 105.741 60.6184C102.592 60.6556 100.042 62.5418 99.1664 65.5614C98.2076 68.8701 99.4326 72.5022 102.069 74.1651C104.693 75.8195 108.311 75.5705 110.615 73.5726C111.316 72.9659 111.365 72.6539 111.007 71.1083C110.787 70.8593 110.484 70.9595 110.209 70.9366C109.931 70.9108 109.651 70.8994 109.324 70.8765C109.144 69.7573 109.164 68.684 109.313 67.5048C110.635 67.5048 111.917 67.4647 113.194 67.5162C114.29 67.5592 114.803 68.2318 114.803 69.3051C114.805 72.3562 114.803 75.4073 114.803 78.5185C113.692 78.8133 112.613 78.5987 111.445 78.6702C111.399 78.1064 111.356 77.6083 111.302 76.9643C108.44 79.0137 105.354 79.5546 102.057 78.5758C99.6272 77.8545 97.7525 76.3719 96.4388 74.2052C93.442 69.2708 94.5096 62.5045 98.8001 59.1701C102.919 55.9673 109.845 56.1991 113.346 59.6967C112.65 60.584 111.952 61.477 111.168 62.4788Z" fill="#2A2A2A"/>
<path d="M164.109 64.239C164.195 63.0197 164.25 61.935 164.087 60.8845C163.597 60.4409 163.027 60.75 162.458 60.5525C162.163 59.5393 162.389 58.4631 162.323 57.2381C163.617 57.2381 164.842 57.2038 166.064 57.2467C167.553 57.2982 168.091 57.8649 168.096 59.3962C168.114 64.0702 168.137 68.7441 168.079 73.4181C168.065 74.686 168.142 75.6449 169.802 75.3386C170.003 76.452 169.931 77.4795 169.871 78.4956C166.296 79.1196 165.091 78.799 164.247 77.0359C161.124 80.6508 154.286 79.4659 153.107 73.441C152.752 71.6263 152.738 69.8289 153.227 68.0629C154.472 63.5492 159.298 61.3167 164.109 64.239ZM156.774 71.031C156.779 73.3379 157.815 75.0552 159.518 75.5848C160.875 76.0055 162.349 75.5762 163.259 74.4914C164.527 72.983 164.716 69.9834 163.66 68.1316C162.893 66.7864 161.599 66.1452 160.068 66.3542C158.07 66.629 156.765 68.4779 156.774 71.031Z" fill="#2A2A2A"/>
<path d="M113.552 19.9609C113.552 21.1831 113.552 22.1734 113.552 23.2152C112.513 23.4127 111.52 23.3326 110.532 23.2782C109.673 23.2295 109.127 22.7344 108.835 21.9616C108.514 21.1172 108.151 20.2786 107.945 19.4028C107.673 18.255 107.14 17.7456 105.875 17.8572C104.361 17.9889 102.824 17.9316 101.302 17.8686C100.489 17.8343 100.054 18.1033 99.899 18.899C99.8275 19.2683 99.6615 19.6203 99.5355 19.9781C98.2848 23.5072 98.0272 23.6646 94.1375 23.2038C94.1375 22.1934 94.1375 21.163 94.1375 20.0239C95.0219 19.9466 95.3854 19.2854 95.6916 18.4239C97.512 13.3263 99.4153 8.25741 101.233 3.15698C101.545 2.28115 101.883 1.88331 102.904 1.90621C105.847 1.9749 105.844 1.91766 106.88 4.75409C108.543 9.30783 110.234 13.853 111.86 18.4182C112.169 19.2883 112.484 20.001 113.552 19.9609ZM101.15 14.4913C102.887 14.4913 104.559 14.4913 106.342 14.4913C105.549 11.7836 104.459 9.29925 103.746 6.66031C103.022 9.33359 101.934 11.8552 101.15 14.4913Z" fill="#2A2A2A"/>
<path d="M120.186 21.9759C120.186 24.4546 120.186 26.7358 120.186 29.0971C118.921 29.3661 117.699 29.1772 116.319 29.2259C116.319 23.284 116.319 17.3964 116.319 11.6549C115.727 11.1111 115.134 11.4545 114.594 11.1569C114.594 10.1723 114.594 9.15047 114.594 7.92545C116.465 8.37196 118.778 6.855 120.12 9.48821C122.175 7.41312 124.68 7.021 127.327 8.05139C130.066 9.11899 131.146 11.4603 131.483 14.2337C131.641 15.5274 131.583 16.8097 131.291 18.0691C130.061 23.3527 124.354 25.2446 120.186 21.9759ZM127.634 15.6734C127.628 12.9858 126.203 11.071 124.093 10.9164C121.952 10.759 120.286 12.4849 120.112 15.0466C119.911 17.9632 121.317 20.1785 123.475 20.3445C125.939 20.5305 127.639 18.6243 127.634 15.6734Z" fill="#2A2A2A"/>
<path d="M138.793 21.973C138.793 24.4546 138.793 26.7357 138.793 29.0999C137.528 29.3661 136.306 29.18 134.927 29.2258C134.927 23.2811 134.927 17.3964 134.927 11.6377C134.328 11.1253 133.747 11.423 133.201 11.1855C133.201 10.1694 133.201 9.14471 133.201 7.92255C135.075 8.37192 137.388 6.84923 138.722 9.48245C140.78 7.40736 143.287 7.0181 145.935 8.05135C148.605 9.09319 149.713 11.3658 150.068 14.0934C150.242 15.4358 150.199 16.7667 149.893 18.069C148.657 23.3812 142.915 25.2331 138.793 21.973ZM146.289 15.7277C146.298 13.3808 145.319 11.7035 143.622 11.1225C142.205 10.6388 140.914 10.9508 139.97 12.0327C138.484 13.7328 138.436 15.7592 139.111 17.8143C139.575 19.2282 140.508 20.1928 142.071 20.3387C144.561 20.5677 146.281 18.6758 146.289 15.7277Z" fill="#2A2A2A"/>
<path d="M133.49 70.9079C133.504 75.6191 129.958 79.0108 125.035 78.9993C120.252 78.9879 116.7 75.5589 116.66 70.9222C116.623 66.3799 120.264 62.9195 125.081 62.9166C129.926 62.9109 133.475 66.2854 133.49 70.9079ZM120.576 71.0023C120.57 73.6785 122.496 75.6877 125.072 75.6935C127.605 75.6963 129.6 73.6499 129.629 71.0109C129.657 68.4378 127.602 66.2997 125.089 66.2912C122.585 66.2797 120.581 68.3691 120.576 71.0023Z" fill="#2A2A2A"/>
<path d="M112.496 52.089C107.69 52.0833 104.158 48.6687 104.158 44.0262C104.158 39.3866 107.693 36.0006 112.53 36.0064C117.373 36.0121 120.93 39.3809 120.968 43.9947C121.002 48.6458 117.396 52.0919 112.496 52.089ZM112.418 48.6944C115.04 48.7259 116.983 46.8197 117.041 44.155C117.098 41.5103 115.177 39.4124 112.65 39.3551C110.123 39.3007 108.073 41.3071 107.985 43.9232C107.896 46.4848 109.92 48.663 112.418 48.6944Z" fill="#2A2A2A"/>
<path d="M134.792 70.8935C134.801 66.2654 138.344 62.8966 143.181 62.9138C147.978 62.9309 151.582 66.3713 151.596 70.9422C151.61 75.5618 147.938 79.0279 143.064 78.9964C138.255 78.9678 134.783 75.5675 134.792 70.8935ZM147.675 70.9308C147.629 68.329 145.554 66.231 143.075 66.2797C140.571 66.3284 138.544 68.5008 138.616 71.0653C138.687 73.7185 140.694 75.7364 143.218 75.6963C145.757 75.6505 147.721 73.5554 147.675 70.9308Z" fill="#2A2A2A"/>
<path d="M153.637 18.4239C154.487 19.1023 155.205 19.7234 156.078 20.1212C156.923 20.5048 157.781 20.7137 158.711 20.5992C159.433 20.5105 160.019 20.1871 160.208 19.4715C160.409 18.713 159.81 18.3295 159.258 18.0633C158.062 17.488 156.814 17.0129 155.615 16.4404C154.215 15.7736 152.927 14.9321 152.395 13.3722C151.685 11.2971 152.644 9.22487 154.701 8.27748C156.508 7.44458 158.431 7.37589 160.294 7.82526C163.437 8.58087 163.826 9.76868 163.425 12.3246C162.472 12.5822 161.479 12.3676 160.52 12.4563C159.607 10.6903 158.608 10.2438 157.046 10.8306C156.51 11.0309 156.104 11.3314 156.047 11.9125C155.992 12.4534 156.35 12.8198 156.788 13.0373C157.509 13.3979 158.253 13.7214 159.003 14.0133C160.157 14.4627 161.33 14.8634 162.343 15.599C164.885 17.4451 164.785 20.9684 162.149 22.6829C159.39 24.4803 154.613 23.8821 152.334 21.4922C151.971 21.1115 151.865 20.8339 152.206 20.4017C152.678 19.8007 153.104 19.171 153.637 18.4239Z" fill="#2A2A2A"/>
<path d="M94.7672 39.3408C94.7672 38.4249 94.7672 37.4861 94.7672 36.5015C95.2652 36.0893 95.9493 36.533 96.5017 36.2324C97.1085 31.4697 99.0777 29.9299 104.087 30.3621C104.358 31.4068 104.135 32.4715 104.207 33.5248C101.101 33.8196 100.54 34.2518 100.557 36.3698C101.536 36.3698 102.518 36.3698 103.591 36.3698C103.591 37.4517 103.591 38.4191 103.591 39.5125C102.607 39.5125 101.628 39.5125 100.512 39.5125C100.512 43.6512 100.512 47.6669 100.512 51.734C99.155 51.734 97.9442 51.734 96.6505 51.734C96.6505 47.6783 96.6505 43.6884 96.6505 39.7558C96.0523 39.2377 95.3597 39.7043 94.7672 39.3408Z" fill="#2A2A2A"/>
<path d="M128.212 51.6797C126.858 51.6797 125.647 51.6797 124.314 51.6797C124.314 47.7213 124.314 43.8315 124.314 40.042C123.753 39.5268 123.177 39.8817 122.605 39.6098C122.336 38.6252 122.528 37.5519 122.496 36.3555C123.838 36.3555 125.115 36.3097 126.386 36.3669C128.126 36.4442 128.135 37.798 128.186 39.3579C128.936 38.2216 129.54 37.3286 130.496 36.7762C131.435 36.2353 132.431 36.0063 133.601 36.1466C133.601 37.3973 133.601 38.6538 133.601 39.9075C129.586 40.3397 128.289 41.7822 128.218 45.9238C128.186 47.8157 128.212 49.7105 128.212 51.6797Z" fill="#2A2A2A"/>
<path d="M44.1207 10.6158C43.3107 10.6158 42.5007 10.5815 41.6965 10.6273C40.8092 10.6788 40.3713 10.3811 40.3942 9.42228C40.4342 7.71069 40.4256 5.99624 40.397 4.28465C40.3827 3.41168 40.7891 3.11115 41.6163 3.1226C43.3279 3.14836 45.0424 3.15981 46.754 3.11687C47.6126 3.09684 47.9876 3.46034 47.9876 4.28465C47.9876 6.04489 47.9818 7.80514 47.9876 9.56539C47.9904 10.3525 47.6126 10.6616 46.8341 10.6273C45.9296 10.5843 45.0252 10.6158 44.1207 10.6158Z" fill="#3A97C7"/>
<path d="M53.5295 20.0934C52.7195 20.0934 51.9095 20.059 51.1053 20.1048C50.218 20.1563 49.7801 19.8587 49.803 18.8998C49.843 17.1882 49.8345 15.4738 49.8058 13.7622C49.7915 12.8892 50.198 12.5887 51.0251 12.6001C52.7367 12.6259 54.4512 12.6373 56.1628 12.5944C57.0214 12.5744 57.3964 12.9379 57.3964 13.7622C57.3964 15.5224 57.3906 17.2827 57.3964 19.0429C57.3992 19.83 57.0214 20.1391 56.2429 20.1048C55.3385 20.0619 54.434 20.0934 53.5295 20.0934Z" fill="#3A97C7"/>
<path d="M53.5295 10.6482C52.7195 10.6482 51.9095 10.6138 51.1053 10.6596C50.218 10.7111 49.7801 10.4135 49.803 9.45463C49.843 7.74304 49.8345 6.02859 49.8058 4.317C49.7915 3.44403 50.198 3.1435 51.0251 3.15495C52.7367 3.18071 54.4512 3.19215 56.1628 3.14922C57.0214 3.12919 57.3964 3.49268 57.3964 4.317C57.3964 6.07724 57.3906 7.83749 57.3964 9.59774C57.3992 10.3848 57.0214 10.694 56.2429 10.6596C55.3385 10.6167 54.434 10.6482 53.5295 10.6482Z" fill="#EFAD4F"/>
<path d="M44.0844 20.0934C43.2744 20.0934 42.4644 20.059 41.6601 20.1048C40.7728 20.1563 40.3349 19.8587 40.3578 18.8998C40.3979 17.1882 40.3893 15.4738 40.3606 13.7622C40.3463 12.8892 40.7528 12.5887 41.5799 12.6001C43.2915 12.6259 45.006 12.6373 46.7176 12.5944C47.5762 12.5744 47.9512 12.9379 47.9512 13.7622C47.9512 15.5224 47.9454 17.2827 47.9512 19.0429C47.954 19.83 47.5762 20.1391 46.7977 20.1048C45.8933 20.0619 44.9888 20.0934 44.0844 20.0934Z" fill="#C13E3F"/>
<path d="M156.774 71.0311C156.765 68.478 158.07 66.629 160.068 66.3542C161.596 66.1453 162.893 66.7864 163.66 68.1316C164.716 69.9835 164.527 72.9859 163.259 74.4915C162.349 75.5762 160.875 76.0056 159.518 75.5848C157.815 75.0553 156.782 73.338 156.774 71.0311Z" fill="#FDFDFD"/>
<path d="M101.15 14.4912C101.931 11.8552 103.022 9.33643 103.746 6.66028C104.458 9.29922 105.549 11.7836 106.342 14.4912C104.559 14.4912 102.887 14.4912 101.15 14.4912Z" fill="#FDFDFD"/>
<path d="M127.634 15.6734C127.639 18.6243 125.939 20.5305 123.475 20.3416C121.317 20.1756 119.912 17.9602 120.112 15.0437C120.289 12.4849 121.952 10.759 124.093 10.9135C126.203 11.071 127.628 12.9858 127.634 15.6734Z" fill="#FDFDFD"/>
<path d="M146.289 15.7277C146.278 18.6758 144.561 20.5705 142.073 20.3358C140.511 20.1899 139.578 19.2253 139.114 17.8114C138.438 15.7563 138.484 13.7299 139.973 12.0298C140.917 10.9479 142.205 10.6359 143.625 11.1196C145.319 11.7035 146.298 13.3807 146.289 15.7277Z" fill="#FDFDFD"/>
<path d="M120.575 71.0024C120.581 68.372 122.585 66.2798 125.089 66.2884C127.602 66.2998 129.66 68.4379 129.629 71.0081C129.597 73.6471 127.605 75.6935 125.072 75.6907C122.496 75.6878 120.57 73.6785 120.575 71.0024Z" fill="#FDFDFD"/>
<path d="M112.418 48.6945C109.92 48.6659 107.896 46.4877 107.985 43.9261C108.073 41.3072 110.126 39.3008 112.65 39.358C115.177 39.4124 117.098 41.5132 117.041 44.1579C116.983 46.8169 115.04 48.726 112.418 48.6945Z" fill="#FDFDFD"/>
<path d="M147.675 70.9309C147.72 73.5555 145.757 75.6535 143.215 75.6936C140.691 75.7336 138.685 73.7187 138.613 71.0626C138.544 68.498 140.571 66.3256 143.072 66.277C145.554 66.2312 147.629 68.3292 147.675 70.9309Z" fill="#FDFDFD"/>
</g>
<defs>
<clipPath id="clip0">
<rect width="171.731" height="81" fill="white"/>
</clipPath>
</defs>
</svg>
