<svg width="227" height="136" viewBox="0 0 227 136" fill="none" xmlns="http://www.w3.org/2000/svg">
<rect width="227" height="136" fill="white"/>
<path d="M70.269 44.2588H81.0129V91.5315H70.269V86.5664C65.5472 92.1609 59.7305 93 56.4457 93C42.1434 93 34 80.9021 34 67.8252C34 52.4406 44.3333 43 56.5142 43C59.9358 43 65.8894 43.9091 70.269 49.7133V44.2588ZM44.9491 68.1049C44.9491 76.2867 50.0131 83.1399 57.8144 83.1399C64.6576 83.1399 70.8849 78.1049 70.8849 68.1748C70.8849 57.8252 64.5892 52.9301 57.8144 52.9301C50.0131 52.9301 44.9491 59.6434 44.9491 68.1049ZM93.8097 44.2588H104.554V48.5245C105.785 47.056 107.496 45.5175 109.07 44.6084C111.191 43.3497 113.244 43.0699 115.64 43.0699C118.308 43.0699 121.114 43.4895 124.125 45.3077L119.745 55.3077C117.35 53.7692 115.366 53.6294 114.271 53.6294C111.944 53.6294 109.686 53.979 107.565 56.2168C104.622 59.5035 104.622 63.979 104.622 67.1259V91.6014H93.8781V44.2588H93.8097ZM131.105 44.2588H141.917V48.6643C145.544 44.1888 149.856 43.0699 153.346 43.0699C158.204 43.0699 162.721 45.4476 165.321 50.0629C169.153 44.4685 174.97 43.0699 179.076 43.0699C184.688 43.0699 189.615 45.7972 192.283 50.4825C193.173 52.021 194.679 55.5175 194.679 62.3706V91.6014H183.935V65.5175C183.935 60.2727 183.387 58.1049 182.977 57.1259C182.292 55.3077 180.65 53 176.818 53C174.149 53 171.891 54.4685 170.454 56.4965C168.606 59.2238 168.332 63.2098 168.332 67.2657V91.6713H157.588V65.5175C157.588 60.2727 157.041 58.1049 156.63 57.1259C155.946 55.3077 154.304 53 150.471 53C147.803 53 145.544 54.4685 144.107 56.4965C142.26 59.2238 141.986 63.2098 141.986 67.2657V91.6713H131.242V44.2588H131.105Z" fill="#0091BD"/>
</svg>
