<svg width="222" height="136" viewBox="0 0 222 136" fill="none" xmlns="http://www.w3.org/2000/svg">
<rect width="222" height="136" fill="white"/>
<g clip-path="url(#clip0)">
<path d="M17.2327 85.3038C18.2434 85.795 19.4598 85.3742 19.951 84.3634C20.4421 83.3527 20.0213 82.1363 19.0106 81.6451C17.9999 81.154 16.7835 81.5748 16.2923 82.5855C15.8025 83.5949 16.2233 84.8126 17.2327 85.3038Z" fill="#F04A4A"/>
<path d="M33.4071 79.8049L17.6845 87.0168L9.17911 80.5288L16.8415 91.4386L33.4071 79.8049Z" fill="#F04A4A"/>
<path d="M26.3929 91.8866C25.3821 91.3954 24.1657 91.8162 23.6746 92.827C23.1834 93.8377 23.6042 95.0541 24.615 95.5453C25.6257 96.0364 26.8421 95.6156 27.3333 94.6049C27.8244 93.5955 27.4036 92.3777 26.3929 91.8866Z" fill="#3FAEA8"/>
<path d="M29.1736 109L21.9631 93.2775L28.4497 84.7734L17.5399 92.4345L29.1736 109Z" fill="#3FAEA8"/>
<path d="M16.1745 99.2147C15.1638 98.7235 13.9474 99.1443 13.4562 100.155C12.9651 101.166 13.3859 102.382 14.3966 102.873C15.4074 103.365 16.6238 102.944 17.1149 101.933C17.6047 100.922 17.1839 99.7059 16.1745 99.2147Z" fill="#B3CB9F"/>
<path d="M0 104.713L15.724 97.5016L24.228 103.99L16.567 93.0798L0 104.713Z" fill="#B3CB9F"/>
<path d="M7.14295 92.7159C8.15369 93.2071 9.3701 92.7863 9.86126 91.7755C10.3524 90.7648 9.93162 89.5484 8.92088 89.0572C7.91014 88.5661 6.69373 88.9869 6.20256 89.9976C5.7114 91.0084 6.13221 92.2248 7.14295 92.7159Z" fill="#00546C"/>
<path d="M4.3623 75.6023L11.5741 91.3249L5.08619 99.8303L15.996 92.1692L4.3623 75.6023Z" fill="#00546C"/>
<path d="M37.6869 91.2033C37.6869 87.6434 40.4134 85.0698 44.0761 85.0698C46.0191 85.0698 47.6875 85.768 48.7956 87.0629L47.3641 88.4092C46.4954 87.4715 45.4211 87.0128 44.1776 87.0128C41.7069 87.0128 39.9181 88.7502 39.9181 91.2033C39.9181 93.6564 41.7069 95.3951 44.1776 95.3951C45.4211 95.3951 46.4941 94.9351 47.3641 93.9812L48.7956 95.3437C47.6888 96.6386 46.0191 97.3368 44.0599 97.3368C40.4134 97.3355 37.6869 94.7633 37.6869 91.2033Z" fill="#00546C"/>
<path d="M49.8023 92.6173C49.8023 89.8909 51.8468 87.9668 54.6408 87.9668C57.4688 87.9668 59.4956 89.8922 59.4956 92.6173C59.4956 95.3437 57.4688 97.2854 54.6408 97.2854C51.8468 97.2854 49.8023 95.3424 49.8023 92.6173ZM57.3497 92.6173C57.3497 90.8786 56.1915 89.7718 54.6408 89.7718C53.1078 89.7718 51.9496 90.8786 51.9496 92.6173C51.9496 94.3546 53.1078 95.4628 54.6408 95.4628C56.1915 95.4614 57.3497 94.3546 57.3497 92.6173Z" fill="#00546C"/>
<path d="M76.9259 91.9529V97.1663H74.7961V92.2263C74.7961 90.608 74.0465 89.8246 72.7516 89.8246C71.3553 89.8246 70.3838 90.7446 70.3838 92.551V97.1677H68.254V92.2276C68.254 90.6093 67.5044 89.8259 66.2095 89.8259C64.7956 89.8259 63.8417 90.746 63.8417 92.5523V97.169H61.7133V88.0723H63.7402V89.2306C64.4221 88.4133 65.4775 87.9695 66.721 87.9695C68.0497 87.9695 69.1579 88.4634 69.7871 89.4863C70.5204 88.5486 71.7463 87.9695 73.1941 87.9695C75.3928 87.9654 76.9259 89.2089 76.9259 91.9529Z" fill="#00546C"/>
<path d="M89.485 92.6174C89.485 95.4453 87.5258 97.2855 84.8684 97.2855C83.7101 97.2855 82.6872 96.8931 81.9552 96.0583V100.471H79.8255V88.0684H81.8524V89.2605C82.5681 88.3918 83.6235 87.9656 84.8684 87.9656C87.5258 87.9656 89.485 89.8057 89.485 92.6174ZM87.3215 92.6174C87.3215 90.8787 86.1632 89.7719 84.6302 89.7719C83.0972 89.7719 81.9214 90.8787 81.9214 92.6174C81.9214 94.3548 83.0972 95.4629 84.6302 95.4629C86.1632 95.4616 87.3215 94.3548 87.3215 92.6174Z" fill="#00546C"/>
<path d="M100.492 88.0684V97.1651H98.4654V96.0069C97.7834 96.8417 96.7105 97.2842 95.5347 97.2842C93.2006 97.2842 91.6162 96.0069 91.6162 93.2628V88.067H93.7459V92.9733C93.7459 94.6254 94.5293 95.4088 95.8756 95.4088C97.3572 95.4088 98.3626 94.4887 98.3626 92.6661V88.0657H100.492V88.0684Z" fill="#00546C"/>
<path d="M108.927 96.6711C108.416 97.0797 107.65 97.2841 106.883 97.2841C104.89 97.2841 103.748 96.2273 103.748 94.218V89.8395H102.248V88.1359H103.748V86.0576H105.877V88.1359H108.314V89.8395H105.877V94.1666C105.877 95.0528 106.32 95.5291 107.138 95.5291C107.582 95.5291 108.007 95.4101 108.331 95.1543L108.927 96.6711Z" fill="#00546C"/>
<path d="M110.564 85.2905C110.564 84.5747 111.144 84.0132 111.927 84.0132C112.71 84.0132 113.29 84.5409 113.29 85.2391C113.29 85.9887 112.728 86.5678 111.927 86.5678C111.144 86.5691 110.564 86.0063 110.564 85.2905ZM110.854 88.0683H112.984V97.165H110.854V88.0683Z" fill="#00546C"/>
<path d="M124.91 91.953V97.1664H122.78V92.2264C122.78 90.6081 121.979 89.8247 120.616 89.8247C119.1 89.8247 118.078 90.7448 118.078 92.5673V97.1678H115.948V88.0711H117.975V89.2456C118.673 88.4107 119.782 87.9683 121.11 87.9683C123.291 87.9656 124.91 89.209 124.91 91.953Z" fill="#00546C"/>
<path d="M136.906 88.0684V95.7849C136.906 99.0905 135.185 100.59 132 100.59C130.296 100.59 128.609 100.146 127.57 99.2948L128.524 97.6928C129.325 98.3571 130.62 98.7833 131.879 98.7833C133.89 98.7833 134.776 97.8633 134.776 96.0231V95.5468C134.027 96.3641 132.952 96.7564 131.726 96.7564C129.12 96.7564 127.126 94.9853 127.126 92.3441C127.126 89.7029 129.119 87.9656 131.726 87.9656C133.004 87.9656 134.128 88.3742 134.878 89.2781V88.0684H136.906ZM134.81 92.3441C134.81 90.8111 133.652 89.7719 132.05 89.7719C130.432 89.7719 129.273 90.8111 129.273 92.3441C129.273 93.8947 130.432 94.9501 132.05 94.9501C133.652 94.9515 134.81 93.8947 134.81 92.3441Z" fill="#00546C"/>
<path d="M151.798 91.612V97.1663H150.64V95.77C150.094 96.6901 149.038 97.2516 147.556 97.2516C145.529 97.2516 144.286 96.1948 144.286 94.6456C144.286 93.2655 145.172 92.1072 147.744 92.1072H150.59V91.5619C150.59 90.0289 149.721 89.1941 148.051 89.1941C146.893 89.1941 145.802 89.6027 145.07 90.2508L144.525 89.3483C145.428 88.5811 146.758 88.1387 148.17 88.1387C150.487 88.136 151.798 89.2942 151.798 91.612ZM150.588 94.4737V93.0084H147.777C146.039 93.0084 145.476 93.689 145.476 94.6104C145.476 95.6496 146.311 96.2963 147.743 96.2963C149.107 96.2963 150.112 95.6496 150.588 94.4737Z" fill="#00546C"/>
<path d="M159.977 96.6197C159.499 97.0459 158.784 97.2502 158.086 97.2502C156.398 97.2502 155.462 96.2963 155.462 94.6442V89.2265H153.861V88.2036H155.462V86.2444H156.672V88.2036H159.398V89.2265H156.672V94.5752C156.672 95.632 157.217 96.2111 158.222 96.2111C158.716 96.2111 159.21 96.0582 159.551 95.751L159.977 96.6197Z" fill="#00546C"/>
<path d="M166.094 95.7172L166.588 94.7457C167.441 95.5806 168.956 96.1935 170.524 96.1935C172.755 96.1935 173.727 95.2558 173.727 94.0814C173.727 90.811 166.384 92.8203 166.384 88.4079C166.384 86.653 167.746 85.1362 170.779 85.1362C172.125 85.1362 173.521 85.5286 174.475 86.193L174.049 87.1983C173.026 86.534 171.834 86.2106 170.779 86.2106C168.598 86.2106 167.627 87.1821 167.627 88.3741C167.627 91.6445 174.97 89.669 174.97 94.0137C174.97 95.7686 173.574 97.2678 170.524 97.2678C168.736 97.2678 166.981 96.6373 166.094 95.7172Z" fill="#00546C"/>
<path d="M176.728 92.685C176.728 90.01 178.67 88.136 181.345 88.136C182.862 88.136 184.139 88.7327 184.855 89.9072L183.952 90.5214C183.339 89.6189 182.385 89.1927 181.346 89.1927C179.387 89.1927 177.955 90.5891 177.955 92.685C177.955 94.7971 179.387 96.1773 181.346 96.1773C182.385 96.1773 183.339 95.7686 183.952 94.8661L184.855 95.4791C184.139 96.6373 182.862 97.2516 181.345 97.2516C178.67 97.2502 176.728 95.36 176.728 92.685Z" fill="#00546C"/>
<path d="M195.503 91.9691V97.1649H194.294V92.0882C194.294 90.198 193.306 89.2265 191.602 89.2265C189.677 89.2265 188.467 90.4185 188.467 92.463V97.1649H187.258V84.5232H188.467V89.7704C189.132 88.7312 190.307 88.1345 191.823 88.1345C194.004 88.1359 195.503 89.3969 195.503 91.9691Z" fill="#00546C"/>
<path d="M198.094 92.685C198.094 90.0276 200.036 88.136 202.66 88.136C205.283 88.136 207.209 90.0262 207.209 92.685C207.209 95.3438 205.283 97.2503 202.66 97.2503C200.036 97.2503 198.094 95.3424 198.094 92.685ZM205.981 92.685C205.981 90.5891 204.567 89.1927 202.66 89.1927C200.752 89.1927 199.32 90.5891 199.32 92.685C199.32 94.7809 200.752 96.1773 202.66 96.1773C204.569 96.1773 205.981 94.7809 205.981 92.685Z" fill="#00546C"/>
<path d="M208.949 92.685C208.949 90.0276 210.89 88.136 213.514 88.136C216.138 88.136 218.063 90.0262 218.063 92.685C218.063 95.3438 216.138 97.2503 213.514 97.2503C210.89 97.2503 208.949 95.3424 208.949 92.685ZM216.837 92.685C216.837 90.5891 215.423 89.1927 213.515 89.1927C211.607 89.1927 210.176 90.5891 210.176 92.685C210.176 94.7809 211.607 96.1773 213.515 96.1773C215.423 96.1773 216.837 94.7809 216.837 92.685Z" fill="#00546C"/>
<path d="M220.705 84.5247H221.915V97.1664H220.705V84.5247Z" fill="#00546C"/>
<path d="M32.8484 56.5107C32.8484 62.6821 27.9516 66.2515 18.5681 66.2515H0.104156V30.5508H17.5465C26.4714 30.5508 31.0623 34.2744 31.0623 39.8328C31.0623 43.4036 29.2262 46.1571 26.3198 47.6874C30.2978 48.962 32.8484 52.0226 32.8484 56.5107ZM8.31592 36.7722V45.1869H16.5277C20.5571 45.1869 22.7491 43.7594 22.7491 40.9545C22.7491 38.1496 20.5558 36.7722 16.5277 36.7722H8.31592ZM24.5338 55.6434C24.5338 52.6342 22.239 51.2067 17.9552 51.2067H8.31592V60.0301H17.9552C22.239 60.0287 24.5338 58.7027 24.5338 55.6434Z" fill="#00546C"/>
<path d="M62.2127 50.5937V66.2514H54.7655V62.8349C53.2866 65.334 50.4303 66.66 46.4022 66.66C39.9765 66.66 36.15 63.0893 36.15 58.3468C36.15 53.5014 39.5665 50.135 47.9311 50.135H54.2554C54.2554 46.7185 52.2149 44.7295 47.9311 44.7295C45.0248 44.7295 42.0155 45.6983 40.0252 47.28L37.1689 41.7203C40.1781 39.5784 44.6148 38.4053 49.0014 38.4053C57.3674 38.4039 62.2127 42.2805 62.2127 50.5937ZM54.2554 57.5809V54.776H48.7985C45.0748 54.776 43.9017 56.1535 43.9017 57.9896C43.9017 59.9786 45.5849 61.3046 48.3898 61.3046C51.0432 61.3046 53.338 60.0801 54.2554 57.5809Z" fill="#00546C"/>
<path d="M85.0835 38.4038V45.7483C84.4205 45.6968 83.9104 45.6468 83.2988 45.6468C78.9122 45.6468 76.0058 48.0444 76.0058 53.297V66.2513H68.0497V38.8124H75.6499V42.4332C77.5861 39.7812 80.8498 38.4038 85.0835 38.4038Z" fill="#00546C"/>
<path d="M115.377 54.7759H94.6186C95.383 58.1938 98.2908 60.2843 102.473 60.2843C105.381 60.2843 107.471 59.417 109.359 57.6323L113.593 62.2219C111.042 65.1283 107.217 66.6586 102.27 66.6586C92.7838 66.6586 86.6125 60.6915 86.6125 52.5312C86.6125 44.3208 92.8853 38.4038 101.25 38.4038C109.307 38.4038 115.53 43.8107 115.53 52.634C115.53 53.2456 115.427 54.1129 115.377 54.7759ZM94.5171 50.1349H108.033C107.471 46.667 104.871 44.4223 101.3 44.4223C97.6792 44.4223 95.0772 46.6156 94.5171 50.1349Z" fill="#00546C"/>
<path d="M128.767 39.4241H135.806V45.544H128.972V66.2513H121.015V45.544H116.782V39.4241H121.015V38.1996C121.015 32.0282 124.789 27.9988 131.624 27.9988C133.868 27.9988 136.214 28.4575 137.693 29.4777L135.602 35.2404C134.734 34.6288 133.613 34.2716 132.389 34.2716C130.043 34.2716 128.769 35.5462 128.769 38.2496V39.4241H128.767Z" fill="#00546C"/>
<path d="M136.895 52.5312C136.895 44.2694 143.271 38.4038 151.991 38.4038C160.713 38.4038 167.037 44.2694 167.037 52.5312C167.037 60.793 160.713 66.6586 151.991 66.6586C143.271 66.6599 136.895 60.7944 136.895 52.5312ZM158.98 52.5312C158.98 47.7887 155.971 44.9324 151.993 44.9324C148.015 44.9324 144.954 47.7887 144.954 52.5312C144.954 57.275 148.015 60.1314 151.993 60.1314C155.971 60.1314 158.98 57.275 158.98 52.5312Z" fill="#00546C"/>
<path d="M169.484 52.5312C169.484 44.2694 175.859 38.4038 184.58 38.4038C193.302 38.4038 199.626 44.2694 199.626 52.5312C199.626 60.793 193.302 66.6586 184.58 66.6586C175.858 66.6599 169.484 60.7944 169.484 52.5312ZM191.567 52.5312C191.567 47.7887 188.558 44.9324 184.58 44.9324C180.602 44.9324 177.541 47.7887 177.541 52.5312C177.541 57.275 180.602 60.1314 184.58 60.1314C188.558 60.1314 191.567 57.275 191.567 52.5312Z" fill="#00546C"/>
<path d="M221.783 64.9251C220.151 66.0983 217.753 66.6598 215.305 66.6598C208.828 66.6598 205.053 63.3448 205.053 56.8162V45.5452H200.819V39.4239H205.053V32.7424H213.009V39.4239H219.844V45.5438H213.009V56.7134C213.009 59.0596 214.284 60.3342 216.427 60.3342C217.6 60.3342 218.773 59.977 219.639 59.314L221.783 64.9251Z" fill="#00546C"/>
</g>
<defs>
<clipPath id="clip0">
<rect width="221.915" height="81" fill="white" transform="translate(0 28)"/>
</clipPath>
</defs>
</svg>
