<svg width="222" height="222" viewBox="0 0 222 222" fill="none" xmlns="http://www.w3.org/2000/svg">
<path d="M0 0H222V222H0V0Z" fill="#00546C"/>
<g clip-path="url(#clip0)">
<path d="M37.4649 123.775C38.2546 124.159 39.2051 123.83 39.5889 123.04C39.9726 122.25 39.6438 121.3 38.8541 120.916C38.0643 120.532 37.1139 120.861 36.7301 121.651C36.3474 122.44 36.6762 123.391 37.4649 123.775Z" fill="white"/>
<path d="M50.1029 119.478L37.8179 125.113L31.1722 120.044L37.1593 128.568L50.1029 119.478Z" fill="white"/>
<path d="M44.6223 128.918C43.8326 128.534 42.8821 128.863 42.4983 129.653C42.1146 130.443 42.4434 131.393 43.2331 131.777C44.0229 132.161 44.9733 131.832 45.3571 131.042C45.7409 130.254 45.4121 129.302 44.6223 128.918Z" fill="white"/>
<path d="M46.795 142.29L41.161 130.005L46.2294 123.36L37.705 129.346L46.795 142.29Z" fill="white"/>
<path d="M36.6381 134.644C35.8484 134.26 34.8979 134.589 34.5141 135.379C34.1304 136.169 34.4592 137.119 35.2489 137.503C36.0387 137.887 36.9891 137.558 37.3729 136.768C37.7556 135.978 37.4268 135.028 36.6381 134.644Z" fill="white"/>
<path d="M24 138.941L36.2861 133.306L42.9308 138.375L36.9447 129.851L24 138.941Z" fill="white"/>
<path d="M29.5812 129.566C30.3709 129.95 31.3214 129.621 31.7052 128.832C32.0889 128.042 31.7601 127.091 30.9704 126.708C30.1806 126.324 29.2302 126.653 28.8464 127.442C28.4626 128.232 28.7914 129.183 29.5812 129.566Z" fill="white"/>
<path d="M27.4085 116.194L33.0435 128.479L27.9741 135.125L36.4986 129.139L27.4085 116.194Z" fill="white"/>
<path d="M53.447 128.384C53.447 125.603 55.5773 123.592 58.4393 123.592C59.9574 123.592 61.261 124.137 62.1269 125.149L61.0083 126.201C60.3296 125.468 59.4901 125.11 58.5186 125.11C56.5881 125.11 55.1904 126.467 55.1904 128.384C55.1904 130.301 56.5881 131.66 58.5186 131.66C59.4901 131.66 60.3285 131.3 61.0083 130.555L62.1269 131.619C61.2621 132.631 59.9574 133.177 58.4266 133.177C55.5773 133.176 53.447 131.166 53.447 128.384Z" fill="white"/>
<path d="M62.9135 129.489C62.9135 127.359 64.5109 125.855 66.6941 125.855C68.9037 125.855 70.4874 127.36 70.4874 129.489C70.4874 131.619 68.9037 133.137 66.6941 133.137C64.5109 133.137 62.9135 131.618 62.9135 129.489ZM68.8107 129.489C68.8107 128.131 67.9057 127.266 66.6941 127.266C65.4963 127.266 64.5913 128.131 64.5913 129.489C64.5913 130.847 65.4963 131.713 66.6941 131.713C67.9057 131.711 68.8107 130.847 68.8107 129.489Z" fill="white"/>
<path d="M84.1067 128.97V133.044H82.4426V129.184C82.4426 127.919 81.8569 127.307 80.8451 127.307C79.7541 127.307 78.995 128.026 78.995 129.437V133.045H77.3309V129.185C77.3309 127.92 76.7452 127.308 75.7334 127.308C74.6286 127.308 73.8832 128.027 73.8832 129.438V133.046H72.2202V125.938H73.8039V126.843C74.3368 126.204 75.1614 125.858 76.133 125.858C77.1712 125.858 78.0371 126.243 78.5287 127.043C79.1017 126.31 80.0596 125.858 81.1908 125.858C82.9088 125.854 84.1067 126.826 84.1067 128.97Z" fill="white"/>
<path d="M93.9199 129.489C93.9199 131.699 92.389 133.137 90.3126 133.137C89.4076 133.137 88.6084 132.83 88.0364 132.178V135.625H86.3723V125.935H87.956V126.866C88.5153 126.188 89.34 125.854 90.3126 125.854C92.389 125.854 93.9199 127.292 93.9199 129.489ZM92.2294 129.489C92.2294 128.131 91.3244 127.266 90.1265 127.266C88.9287 127.266 88.01 128.131 88.01 129.489C88.01 130.847 88.9287 131.713 90.1265 131.713C91.3244 131.712 92.2294 130.847 92.2294 129.489Z" fill="white"/>
<path d="M102.521 125.935V133.043H100.937V132.138C100.404 132.79 99.5656 133.136 98.6468 133.136C96.8231 133.136 95.5851 132.138 95.5851 129.994V125.934H97.2492V129.767C97.2492 131.058 97.8613 131.67 98.9132 131.67C100.071 131.67 100.856 130.951 100.856 129.527V125.933H102.521V125.935Z" fill="white"/>
<path d="M109.111 132.657C108.712 132.976 108.113 133.136 107.514 133.136C105.956 133.136 105.064 132.31 105.064 130.74V127.319H103.893V125.988H105.064V124.364H106.728V125.988H108.632V127.319H106.728V130.7C106.728 131.392 107.074 131.764 107.714 131.764C108.06 131.764 108.392 131.671 108.645 131.471L109.111 132.657Z" fill="white"/>
<path d="M110.391 123.764C110.391 123.205 110.843 122.766 111.455 122.766C112.067 122.766 112.52 123.179 112.52 123.724C112.52 124.31 112.081 124.762 111.455 124.762C110.843 124.763 110.391 124.324 110.391 123.764ZM110.617 125.935H112.281V133.043H110.617V125.935Z" fill="white"/>
<path d="M121.599 128.97V133.044H119.935V129.184C119.935 127.919 119.309 127.307 118.245 127.307C117.059 127.307 116.261 128.026 116.261 129.45V133.045H114.597V125.937H116.181V126.855C116.726 126.202 117.592 125.857 118.631 125.857C120.335 125.854 121.599 126.826 121.599 128.97Z" fill="white"/>
<path d="M130.973 125.935V131.964C130.973 134.547 129.628 135.718 127.139 135.718C125.808 135.718 124.49 135.372 123.678 134.707L124.423 133.455C125.049 133.974 126.061 134.307 127.045 134.307C128.616 134.307 129.309 133.588 129.309 132.15V131.778C128.723 132.417 127.883 132.723 126.926 132.723C124.889 132.723 123.331 131.339 123.331 129.276C123.331 127.212 124.888 125.854 126.926 125.854C127.924 125.854 128.802 126.174 129.388 126.88V125.935H130.973ZM129.335 129.276C129.335 128.078 128.43 127.266 127.178 127.266C125.914 127.266 125.009 128.078 125.009 129.276C125.009 130.487 125.914 131.312 127.178 131.312C128.43 131.313 129.335 130.487 129.335 129.276Z" fill="white"/>
<path d="M142.609 128.704V133.044H141.704V131.953C141.277 132.671 140.452 133.11 139.294 133.11C137.71 133.11 136.739 132.285 136.739 131.074C136.739 129.996 137.431 129.091 139.441 129.091H141.664V128.665C141.664 127.467 140.986 126.814 139.681 126.814C138.776 126.814 137.924 127.134 137.352 127.64L136.926 126.935C137.631 126.335 138.67 125.99 139.774 125.99C141.584 125.988 142.609 126.893 142.609 128.704ZM141.663 130.94V129.795H139.466C138.109 129.795 137.669 130.327 137.669 131.046C137.669 131.858 138.321 132.364 139.44 132.364C140.506 132.364 141.291 131.858 141.663 130.94Z" fill="white"/>
<path d="M148.999 132.616C148.626 132.95 148.067 133.109 147.521 133.109C146.203 133.109 145.471 132.364 145.471 131.073V126.84H144.221V126.041H145.471V124.51H146.417V126.041H148.547V126.84H146.417V131.019C146.417 131.845 146.843 132.297 147.628 132.297C148.014 132.297 148.4 132.178 148.666 131.938L148.999 132.616Z" fill="white"/>
<path d="M153.779 131.911L154.165 131.152C154.831 131.804 156.015 132.283 157.241 132.283C158.984 132.283 159.743 131.551 159.743 130.633C159.743 128.078 154.005 129.648 154.005 126.2C154.005 124.829 155.07 123.644 157.439 123.644C158.491 123.644 159.582 123.95 160.328 124.469L159.995 125.255C159.195 124.736 158.264 124.483 157.439 124.483C155.735 124.483 154.977 125.242 154.977 126.174C154.977 128.729 160.715 127.185 160.715 130.58C160.715 131.951 159.624 133.123 157.241 133.123C155.843 133.123 154.472 132.63 153.779 131.911Z" fill="white"/>
<path d="M162.088 129.542C162.088 127.452 163.605 125.988 165.695 125.988C166.88 125.988 167.878 126.454 168.438 127.372L167.733 127.852C167.254 127.146 166.508 126.813 165.696 126.813C164.165 126.813 163.047 127.904 163.047 129.542C163.047 131.192 164.165 132.271 165.696 132.271C166.508 132.271 167.254 131.952 167.733 131.246L168.438 131.725C167.878 132.63 166.88 133.11 165.695 133.11C163.605 133.109 162.088 131.632 162.088 129.542Z" fill="white"/>
<path d="M176.758 128.983V133.042H175.813V129.076C175.813 127.599 175.041 126.84 173.71 126.84C172.206 126.84 171.26 127.771 171.26 129.369V133.042H170.315V123.165H171.26V127.265C171.78 126.453 172.698 125.987 173.882 125.987C175.587 125.988 176.758 126.973 176.758 128.983Z" fill="white"/>
<path d="M178.783 129.542C178.783 127.466 180.3 125.988 182.35 125.988C184.4 125.988 185.904 127.465 185.904 129.542C185.904 131.62 184.4 133.109 182.35 133.109C180.3 133.109 178.783 131.618 178.783 129.542ZM184.945 129.542C184.945 127.904 183.84 126.813 182.35 126.813C180.859 126.813 179.74 127.904 179.74 129.542C179.74 131.18 180.859 132.271 182.35 132.271C183.841 132.271 184.945 131.18 184.945 129.542Z" fill="white"/>
<path d="M187.264 129.542C187.264 127.466 188.781 125.988 190.831 125.988C192.881 125.988 194.385 127.465 194.385 129.542C194.385 131.62 192.881 133.109 190.831 133.109C188.781 133.109 187.264 131.618 187.264 129.542ZM193.427 129.542C193.427 127.904 192.323 126.813 190.832 126.813C189.341 126.813 188.223 127.904 188.223 129.542C188.223 131.18 189.341 132.271 190.832 132.271C192.323 132.271 193.427 131.18 193.427 129.542Z" fill="white"/>
<path d="M196.45 123.166H197.395V133.044H196.45V123.166Z" fill="white"/>
<path d="M49.6663 101.277C49.6663 106.099 45.8402 108.888 38.5083 108.888H24.0814V80.9929H37.7101C44.6836 80.9929 48.2708 83.9024 48.2708 88.2455C48.2708 91.0355 46.8361 93.187 44.5652 94.3827C47.6734 95.3786 49.6663 97.7701 49.6663 101.277ZM30.4977 85.8541V92.429H36.914C40.0624 92.429 41.7752 91.3136 41.7752 89.122C41.7752 86.9303 40.0614 85.8541 36.914 85.8541H30.4977ZM43.1696 100.599C43.1696 98.248 41.3766 97.1326 38.0294 97.1326H30.4977V104.027H38.0294C41.3766 104.026 43.1696 102.99 43.1696 100.599Z" fill="white"/>
<path d="M72.6104 96.6537V108.888H66.7914V106.218C65.6359 108.171 63.4041 109.207 60.2567 109.207C55.2359 109.207 52.2461 106.417 52.2461 102.712C52.2461 98.9256 54.9156 96.2953 61.4514 96.2953H66.3929C66.3929 93.6257 64.7986 92.0716 61.4514 92.0716C59.1805 92.0716 56.8292 92.8286 55.274 94.0645L53.0422 89.7203C55.3935 88.0467 58.8601 87.1301 62.2876 87.1301C68.8245 87.1291 72.6104 90.158 72.6104 96.6537ZM66.3929 102.113V99.9215H62.1291C59.2196 99.9215 58.303 100.998 58.303 102.432C58.303 103.987 59.6181 105.023 61.8098 105.023C63.883 105.023 65.6761 104.066 66.3929 102.113Z" fill="white"/>
<path d="M90.4807 87.1292V92.8678C89.9626 92.8276 89.564 92.7885 89.0862 92.7885C85.6586 92.7885 83.3877 94.6619 83.3877 98.7661V108.888H77.1712V87.4484H83.1097V90.2776C84.6226 88.2054 87.1726 87.1292 90.4807 87.1292Z" fill="white"/>
<path d="M114.151 99.9216H97.931C98.5283 102.592 100.8 104.226 104.068 104.226C106.34 104.226 107.974 103.548 109.448 102.153L112.756 105.74C110.764 108.011 107.775 109.206 103.91 109.206C96.4974 109.206 91.6754 104.544 91.6754 98.1677C91.6754 91.7524 96.5767 87.1292 103.112 87.1292C109.408 87.1292 114.27 91.3538 114.27 98.248C114.27 98.7259 114.19 99.4036 114.151 99.9216ZM97.8517 96.2953H108.412C107.974 93.5857 105.942 91.8317 103.152 91.8317C100.322 91.8317 98.2894 93.5455 97.8517 96.2953Z" fill="white"/>
<path d="M124.613 87.9263H130.113V92.7081H124.773V108.888H118.556V92.7081H115.248V87.9263H118.556V86.9695C118.556 82.1475 121.505 78.999 126.845 78.999C128.599 78.999 130.432 79.3574 131.588 80.1546L129.953 84.6573C129.276 84.1794 128.399 83.9003 127.443 83.9003C125.61 83.9003 124.614 84.8963 124.614 87.0086V87.9263H124.613Z" fill="white"/>
<path d="M130.964 98.1677C130.964 91.7122 135.946 87.1292 142.76 87.1292C149.575 87.1292 154.516 91.7122 154.516 98.1677C154.516 104.623 149.575 109.206 142.76 109.206C135.946 109.207 130.964 104.624 130.964 98.1677ZM148.22 98.1677C148.22 94.4621 145.869 92.2303 142.761 92.2303C139.652 92.2303 137.261 94.4621 137.261 98.1677C137.261 101.874 139.652 104.106 142.761 104.106C145.869 104.106 148.22 101.874 148.22 98.1677Z" fill="white"/>
<path d="M156.427 98.1677C156.427 91.7122 161.409 87.1292 168.223 87.1292C175.038 87.1292 179.979 91.7122 179.979 98.1677C179.979 104.623 175.038 109.206 168.223 109.206C161.408 109.207 156.427 104.624 156.427 98.1677ZM173.683 98.1677C173.683 94.4621 171.331 92.2303 168.223 92.2303C165.115 92.2303 162.723 94.4621 162.723 98.1677C162.723 101.874 165.115 104.106 168.223 104.106C171.331 104.106 173.683 101.874 173.683 98.1677Z" fill="white"/>
<path d="M197.292 107.852C196.016 108.768 194.143 109.207 192.231 109.207C187.17 109.207 184.22 106.617 184.22 101.516V92.7091H180.912V87.9262H184.22V82.7056H190.436V87.9262H195.777V92.708H190.436V101.435C190.436 103.269 191.432 104.265 193.107 104.265C194.024 104.265 194.94 103.985 195.617 103.467L197.292 107.852Z" fill="white"/>
</g>
<defs>
<clipPath id="clip0">
<rect width="173.395" height="63.29" fill="white" transform="translate(24 79)"/>
</clipPath>
</defs>
</svg>
