<svg width="276" height="136" viewBox="0 0 276 136" fill="none" xmlns="http://www.w3.org/2000/svg">
<rect width="276" height="136" fill="white"/>
<g clip-path="url(#clip0)">
<path d="M44.2327 85.3038C45.2434 85.795 46.4598 85.3742 46.951 84.3634C47.4421 83.3527 47.0213 82.1363 46.0106 81.6451C44.9999 81.154 43.7835 81.5748 43.2923 82.5855C42.8025 83.5949 43.2233 84.8126 44.2327 85.3038Z" fill="#F04A4A"/>
<path d="M60.4071 79.8049L44.6845 87.0168L36.1791 80.5288L43.8415 91.4386L60.4071 79.8049Z" fill="#F04A4A"/>
<path d="M53.3929 91.8866C52.3821 91.3954 51.1657 91.8162 50.6746 92.827C50.1834 93.8377 50.6042 95.0541 51.615 95.5453C52.6257 96.0364 53.8421 95.6156 54.3333 94.6049C54.8244 93.5955 54.4036 92.3777 53.3929 91.8866Z" fill="#3FAEA8"/>
<path d="M56.1736 109L48.9631 93.2775L55.4497 84.7734L44.5399 92.4345L56.1736 109Z" fill="#3FAEA8"/>
<path d="M43.1745 99.2147C42.1638 98.7235 40.9474 99.1443 40.4562 100.155C39.9651 101.166 40.3859 102.382 41.3966 102.873C42.4074 103.365 43.6238 102.944 44.1149 101.933C44.6047 100.922 44.1839 99.7059 43.1745 99.2147Z" fill="#B3CB9F"/>
<path d="M27 104.713L42.724 97.5016L51.228 103.99L43.567 93.0798L27 104.713Z" fill="#B3CB9F"/>
<path d="M34.1429 92.7159C35.1537 93.2071 36.3701 92.7863 36.8613 91.7755C37.3524 90.7648 36.9316 89.5484 35.9209 89.0572C34.9101 88.5661 33.6937 88.9869 33.2026 89.9976C32.7114 91.0084 33.1322 92.2248 34.1429 92.7159Z" fill="#00546C"/>
<path d="M31.3623 75.6023L38.5741 91.3249L32.0862 99.8303L42.996 92.1692L31.3623 75.6023Z" fill="#00546C"/>
<path d="M64.6869 91.2033C64.6869 87.6434 67.4134 85.0698 71.0761 85.0698C73.0191 85.0698 74.6875 85.768 75.7956 87.0629L74.3641 88.4092C73.4954 87.4715 72.4211 87.0128 71.1776 87.0128C68.7069 87.0128 66.9181 88.7502 66.9181 91.2033C66.9181 93.6564 68.7069 95.3951 71.1776 95.3951C72.4211 95.3951 73.4941 94.9351 74.3641 93.9812L75.7956 95.3437C74.6888 96.6386 73.0191 97.3368 71.0599 97.3368C67.4134 97.3355 64.6869 94.7633 64.6869 91.2033Z" fill="#00546C"/>
<path d="M76.8023 92.6173C76.8023 89.8909 78.8468 87.9668 81.6408 87.9668C84.4688 87.9668 86.4956 89.8922 86.4956 92.6173C86.4956 95.3437 84.4688 97.2854 81.6408 97.2854C78.8468 97.2854 76.8023 95.3424 76.8023 92.6173ZM84.3497 92.6173C84.3497 90.8786 83.1915 89.7718 81.6408 89.7718C80.1078 89.7718 78.9496 90.8786 78.9496 92.6173C78.9496 94.3546 80.1078 95.4628 81.6408 95.4628C83.1915 95.4614 84.3497 94.3546 84.3497 92.6173Z" fill="#00546C"/>
<path d="M103.926 91.9529V97.1663H101.796V92.2263C101.796 90.608 101.047 89.8246 99.7516 89.8246C98.3553 89.8246 97.3838 90.7446 97.3838 92.551V97.1677H95.254V92.2276C95.254 90.6093 94.5044 89.8259 93.2095 89.8259C91.7956 89.8259 90.8417 90.746 90.8417 92.5523V97.169H88.7133V88.0723H90.7402V89.2306C91.4221 88.4133 92.4775 87.9695 93.721 87.9695C95.0497 87.9695 96.1579 88.4634 96.7871 89.4863C97.5204 88.5486 98.7463 87.9695 100.194 87.9695C102.393 87.9654 103.926 89.2089 103.926 91.9529Z" fill="#00546C"/>
<path d="M116.485 92.6174C116.485 95.4453 114.526 97.2855 111.868 97.2855C110.71 97.2855 109.687 96.8931 108.955 96.0583V100.471H106.825V88.0684H108.852V89.2605C109.568 88.3918 110.624 87.9656 111.868 87.9656C114.526 87.9656 116.485 89.8057 116.485 92.6174ZM114.321 92.6174C114.321 90.8787 113.163 89.7719 111.63 89.7719C110.097 89.7719 108.921 90.8787 108.921 92.6174C108.921 94.3548 110.097 95.4629 111.63 95.4629C113.163 95.4616 114.321 94.3548 114.321 92.6174Z" fill="#00546C"/>
<path d="M127.492 88.0684V97.1651H125.465V96.0069C124.783 96.8417 123.71 97.2842 122.535 97.2842C120.201 97.2842 118.616 96.0069 118.616 93.2628V88.067H120.746V92.9733C120.746 94.6254 121.529 95.4088 122.876 95.4088C124.357 95.4088 125.363 94.4887 125.363 92.6661V88.0657H127.492V88.0684Z" fill="#00546C"/>
<path d="M135.927 96.6711C135.416 97.0797 134.65 97.2841 133.883 97.2841C131.89 97.2841 130.748 96.2273 130.748 94.218V89.8395H129.248V88.1359H130.748V86.0576H132.877V88.1359H135.314V89.8395H132.877V94.1666C132.877 95.0528 133.32 95.5291 134.138 95.5291C134.582 95.5291 135.007 95.4101 135.331 95.1543L135.927 96.6711Z" fill="#00546C"/>
<path d="M137.564 85.2905C137.564 84.5747 138.144 84.0132 138.927 84.0132C139.71 84.0132 140.29 84.5409 140.29 85.2391C140.29 85.9887 139.728 86.5678 138.927 86.5678C138.144 86.5691 137.564 86.0063 137.564 85.2905ZM137.854 88.0683H139.984V97.165H137.854V88.0683Z" fill="#00546C"/>
<path d="M151.91 91.953V97.1664H149.78V92.2264C149.78 90.6081 148.979 89.8247 147.616 89.8247C146.1 89.8247 145.078 90.7448 145.078 92.5673V97.1678H142.948V88.0711H144.975V89.2456C145.673 88.4107 146.782 87.9683 148.11 87.9683C150.291 87.9656 151.91 89.209 151.91 91.953Z" fill="#00546C"/>
<path d="M163.906 88.0684V95.7849C163.906 99.0905 162.185 100.59 159 100.59C157.296 100.59 155.609 100.146 154.57 99.2948L155.524 97.6928C156.325 98.3571 157.62 98.7833 158.879 98.7833C160.89 98.7833 161.776 97.8633 161.776 96.0231V95.5468C161.027 96.3641 159.952 96.7564 158.726 96.7564C156.12 96.7564 154.126 94.9853 154.126 92.3441C154.126 89.7029 156.119 87.9656 158.726 87.9656C160.004 87.9656 161.128 88.3742 161.878 89.2781V88.0684H163.906ZM161.81 92.3441C161.81 90.8111 160.652 89.7719 159.05 89.7719C157.432 89.7719 156.273 90.8111 156.273 92.3441C156.273 93.8947 157.432 94.9501 159.05 94.9501C160.652 94.9515 161.81 93.8947 161.81 92.3441Z" fill="#00546C"/>
<path d="M178.798 91.612V97.1663H177.64V95.77C177.094 96.6901 176.038 97.2516 174.556 97.2516C172.529 97.2516 171.286 96.1948 171.286 94.6456C171.286 93.2655 172.172 92.1072 174.744 92.1072H177.59V91.5619C177.59 90.0289 176.721 89.1941 175.051 89.1941C173.893 89.1941 172.802 89.6027 172.07 90.2508L171.525 89.3483C172.428 88.5811 173.758 88.1387 175.17 88.1387C177.487 88.136 178.798 89.2942 178.798 91.612ZM177.588 94.4737V93.0084H174.777C173.039 93.0084 172.476 93.689 172.476 94.6104C172.476 95.6496 173.311 96.2963 174.743 96.2963C176.107 96.2963 177.112 95.6496 177.588 94.4737Z" fill="#00546C"/>
<path d="M186.977 96.6197C186.499 97.0459 185.784 97.2502 185.086 97.2502C183.398 97.2502 182.462 96.2963 182.462 94.6442V89.2265H180.861V88.2036H182.462V86.2444H183.672V88.2036H186.398V89.2265H183.672V94.5752C183.672 95.632 184.217 96.2111 185.222 96.2111C185.716 96.2111 186.21 96.0582 186.551 95.751L186.977 96.6197Z" fill="#00546C"/>
<path d="M193.094 95.7172L193.588 94.7457C194.441 95.5806 195.956 96.1935 197.524 96.1935C199.755 96.1935 200.727 95.2558 200.727 94.0814C200.727 90.811 193.384 92.8203 193.384 88.4079C193.384 86.653 194.746 85.1362 197.779 85.1362C199.125 85.1362 200.521 85.5286 201.475 86.193L201.049 87.1983C200.026 86.534 198.834 86.2106 197.779 86.2106C195.598 86.2106 194.627 87.1821 194.627 88.3741C194.627 91.6445 201.97 89.669 201.97 94.0137C201.97 95.7686 200.574 97.2678 197.524 97.2678C195.736 97.2678 193.981 96.6373 193.094 95.7172Z" fill="#00546C"/>
<path d="M203.728 92.685C203.728 90.01 205.67 88.136 208.345 88.136C209.862 88.136 211.139 88.7327 211.855 89.9072L210.952 90.5214C210.339 89.6189 209.385 89.1927 208.346 89.1927C206.387 89.1927 204.955 90.5891 204.955 92.685C204.955 94.7971 206.387 96.1773 208.346 96.1773C209.385 96.1773 210.339 95.7686 210.952 94.8661L211.855 95.4791C211.139 96.6373 209.862 97.2516 208.345 97.2516C205.67 97.2502 203.728 95.36 203.728 92.685Z" fill="#00546C"/>
<path d="M222.503 91.9691V97.1649H221.294V92.0882C221.294 90.198 220.306 89.2265 218.602 89.2265C216.677 89.2265 215.467 90.4185 215.467 92.463V97.1649H214.258V84.5232H215.467V89.7704C216.132 88.7312 217.307 88.1345 218.823 88.1345C221.004 88.1359 222.503 89.3969 222.503 91.9691Z" fill="#00546C"/>
<path d="M225.094 92.685C225.094 90.0276 227.036 88.136 229.66 88.136C232.283 88.136 234.209 90.0262 234.209 92.685C234.209 95.3438 232.283 97.2503 229.66 97.2503C227.036 97.2503 225.094 95.3424 225.094 92.685ZM232.981 92.685C232.981 90.5891 231.567 89.1927 229.66 89.1927C227.752 89.1927 226.32 90.5891 226.32 92.685C226.32 94.7809 227.752 96.1773 229.66 96.1773C231.569 96.1773 232.981 94.7809 232.981 92.685Z" fill="#00546C"/>
<path d="M235.949 92.685C235.949 90.0276 237.89 88.136 240.514 88.136C243.138 88.136 245.063 90.0262 245.063 92.685C245.063 95.3438 243.138 97.2503 240.514 97.2503C237.89 97.2503 235.949 95.3424 235.949 92.685ZM243.837 92.685C243.837 90.5891 242.423 89.1927 240.515 89.1927C238.607 89.1927 237.176 90.5891 237.176 92.685C237.176 94.7809 238.607 96.1773 240.515 96.1773C242.423 96.1773 243.837 94.7809 243.837 92.685Z" fill="#00546C"/>
<path d="M247.705 84.5247H248.915V97.1664H247.705V84.5247Z" fill="#00546C"/>
<path d="M59.8484 56.5107C59.8484 62.6821 54.9516 66.2515 45.5681 66.2515H27.1042V30.5508H44.5465C53.4714 30.5508 58.0623 34.2744 58.0623 39.8328C58.0623 43.4036 56.2262 46.1571 53.3198 47.6874C57.2978 48.962 59.8484 52.0226 59.8484 56.5107ZM35.3159 36.7722V45.1869H43.5277C47.5571 45.1869 49.7491 43.7594 49.7491 40.9545C49.7491 38.1496 47.5558 36.7722 43.5277 36.7722H35.3159ZM51.5338 55.6434C51.5338 52.6342 49.239 51.2067 44.9552 51.2067H35.3159V60.0301H44.9552C49.239 60.0287 51.5338 58.7027 51.5338 55.6434Z" fill="#00546C"/>
<path d="M89.2127 50.5937V66.2514H81.7655V62.8349C80.2866 65.334 77.4303 66.66 73.4022 66.66C66.9765 66.66 63.15 63.0893 63.15 58.3468C63.15 53.5014 66.5665 50.135 74.9311 50.135H81.2554C81.2554 46.7185 79.2149 44.7295 74.9311 44.7295C72.0248 44.7295 69.0155 45.6983 67.0252 47.28L64.1689 41.7203C67.1781 39.5784 71.6148 38.4053 76.0014 38.4053C84.3674 38.4039 89.2127 42.2805 89.2127 50.5937ZM81.2554 57.5809V54.776H75.7985C72.0748 54.776 70.9017 56.1535 70.9017 57.9896C70.9017 59.9786 72.5849 61.3046 75.3898 61.3046C78.0432 61.3046 80.338 60.0801 81.2554 57.5809Z" fill="#00546C"/>
<path d="M112.083 38.4038V45.7483C111.42 45.6968 110.91 45.6468 110.299 45.6468C105.912 45.6468 103.006 48.0444 103.006 53.297V66.2513H95.0497V38.8124H102.65V42.4332C104.586 39.7812 107.85 38.4038 112.083 38.4038Z" fill="#00546C"/>
<path d="M142.377 54.7759H121.619C122.383 58.1938 125.291 60.2843 129.473 60.2843C132.381 60.2843 134.471 59.417 136.359 57.6323L140.593 62.2219C138.042 65.1283 134.217 66.6586 129.27 66.6586C119.784 66.6586 113.612 60.6915 113.612 52.5312C113.612 44.3208 119.885 38.4038 128.25 38.4038C136.307 38.4038 142.53 43.8107 142.53 52.634C142.53 53.2456 142.427 54.1129 142.377 54.7759ZM121.517 50.1349H135.033C134.471 46.667 131.871 44.4223 128.3 44.4223C124.679 44.4223 122.077 46.6156 121.517 50.1349Z" fill="#00546C"/>
<path d="M155.767 39.4241H162.806V45.544H155.972V66.2513H148.015V45.544H143.782V39.4241H148.015V38.1996C148.015 32.0282 151.789 27.9988 158.624 27.9988C160.868 27.9988 163.214 28.4575 164.693 29.4777L162.602 35.2404C161.734 34.6288 160.613 34.2716 159.389 34.2716C157.043 34.2716 155.769 35.5462 155.769 38.2496V39.4241H155.767Z" fill="#00546C"/>
<path d="M163.895 52.5312C163.895 44.2694 170.271 38.4038 178.991 38.4038C187.713 38.4038 194.037 44.2694 194.037 52.5312C194.037 60.793 187.713 66.6586 178.991 66.6586C170.271 66.6599 163.895 60.7944 163.895 52.5312ZM185.98 52.5312C185.98 47.7887 182.971 44.9324 178.993 44.9324C175.015 44.9324 171.954 47.7887 171.954 52.5312C171.954 57.275 175.015 60.1314 178.993 60.1314C182.971 60.1314 185.98 57.275 185.98 52.5312Z" fill="#00546C"/>
<path d="M196.484 52.5312C196.484 44.2694 202.859 38.4038 211.58 38.4038C220.302 38.4038 226.626 44.2694 226.626 52.5312C226.626 60.793 220.302 66.6586 211.58 66.6586C202.858 66.6599 196.484 60.7944 196.484 52.5312ZM218.567 52.5312C218.567 47.7887 215.558 44.9324 211.58 44.9324C207.602 44.9324 204.541 47.7887 204.541 52.5312C204.541 57.275 207.602 60.1314 211.58 60.1314C215.558 60.1314 218.567 57.275 218.567 52.5312Z" fill="#00546C"/>
<path d="M248.783 64.9251C247.151 66.0983 244.753 66.6598 242.305 66.6598C235.828 66.6598 232.053 63.3448 232.053 56.8162V45.5452H227.819V39.4239H232.053V32.7424H240.009V39.4239H246.844V45.5438H240.009V56.7134C240.009 59.0596 241.284 60.3342 243.427 60.3342C244.6 60.3342 245.773 59.977 246.639 59.314L248.783 64.9251Z" fill="#00546C"/>
</g>
<defs>
<clipPath id="clip0">
<rect width="221.915" height="81" fill="white" transform="translate(27 28)"/>
</clipPath>
</defs>
</svg>
