<?xml version="1.0" encoding="UTF-8" standalone="no"?>
<svg
   width="296"
   height="146"
   viewBox="0 0 296 146"
   fill="none"
   version="1.1"
   id="svg17"
   sodipodi:docname="bebras-card.svg"
   inkscape:version="1.1.1 (c3084ef, 2021-09-22)"
   xmlns:inkscape="http://www.inkscape.org/namespaces/inkscape"
   xmlns:sodipodi="http://sodipodi.sourceforge.net/DTD/sodipodi-0.dtd"
   xmlns:xlink="http://www.w3.org/1999/xlink"
   xmlns="http://www.w3.org/2000/svg"
   xmlns:svg="http://www.w3.org/2000/svg">
  <defs
     id="defs21" />
  <sodipodi:namedview
     id="namedview19"
     pagecolor="#ffffff"
     bordercolor="#666666"
     borderopacity="1.0"
     inkscape:pageshadow="2"
     inkscape:pageopacity="0.0"
     inkscape:pagecheckerboard="0"
     showgrid="false"
     inkscape:zoom="2.4001112"
     inkscape:cx="112.07814"
     inkscape:cy="111.45317"
     inkscape:window-width="1680"
     inkscape:window-height="927"
     inkscape:window-x="0"
     inkscape:window-y="25"
     inkscape:window-maximized="1"
     inkscape:current-layer="svg17" />
  <rect
     width="296"
     height="146"
     fill="#64BE5B"
     id="rect9"
     style="fill:#0090c7;fill-opacity:1" />
  <g
     id="g171"
     transform="matrix(1.6914204,0,0,1.6914204,-102.33023,-50.473689)">
    <ellipse
       style="fill:#ffffff;fill-opacity:1;stroke-width:1.03744"
       id="path2446"
       cx="153.49591"
       cy="82.382782"
       rx="8.9859018"
       ry="13.860808" />
    <g
       id="Layer_1"
       transform="matrix(0.18343386,0,0,0.18343386,121.2641,34.121193)">
      <path
         fill="#d5995b"
         d="m 218.424,137.867 c 5.167,4.5 16.167,15.167 16.167,28 0,12.833 -15.667,33.5 -29.333,36 -13.719,2.51 -34.161,4.408 -48,5.5 -12.667,1 -29.887,0.081 -38.667,-8.5 -7.333,-7.167 -10.5,-15 -11,-22.167 -0.742,-10.641 3,-19.5 8.667,-27.167 5.667,-7.667 6.833,-10.667 8.5,-20.833 1.667,-10.167 6.333,-26 41.166,-27.167 34.834,-1.167 41,13.333 42.667,17.333 1.667,4 4.667,14.501 9.833,19.001 z"
         id="path2085" />
      <g
         id="g2091">
        <g
           id="g2089">
          <path
             fill="#d5995b"
             d="m 262.883,356.825 c -3.375,-2.625 -15.375,-5.375 -22,-4.875 0,0 9.625,-3.375 22.875,4.125 0,0 2.625,-9.5 -24.75,-10.125 0,0 9.75,-2.125 19.375,1.625 0,0 -4.625,-7.125 -22.375,-5.875 -17.75,1.25 -35.375,2.75 -37.125,1.25 -1.75,-1.5 -3,-5.5 -2.625,-9.5 0,0 18,-9.5 26.5,-22.375 8.5,-12.875 16.75,-29.875 9.25,-57.125 -7.5,-27.25 -22.25,-33.75 -23.5,-49.25 0,0 -1.519,0.212 -4.084,0.557 0,14.389 4.049,25.883 11.215,38.244 3.016,5.202 5.739,10.708 6.836,16.67 3.188,17.349 -1.435,33.188 -13.549,46.002 -6.771,7.161 -16.583,9.931 -26.057,10.986 -18.21,2.03 -40.517,2.068 -46.202,-20.096 -3.015,-11.757 2.359,-23.643 5.784,-34.726 2.405,-7.782 5,-15.534 7.559,-23.271 0.664,-2.009 2.451,-28.203 1.704,-28.123 h 0.001 c -1.92,0.087 -3.599,0.121 -4.957,0.089 -14,-0.333 -18.167,-1.667 -18.167,-1.667 0,0 0.167,2.333 3,3.833 0,0 2.667,0.667 -3,0.833 -5.667,0.167 -17.333,7.167 -22.833,16.334 -5.5,9.166 -10.333,18.166 -9.833,20.5 0.5,2.333 6.667,10.833 6.667,10.833 0,0 5.333,-11.5 7.667,-12.667 2.333,-1.166 20.333,-9.166 27.333,-18.666 0,0 -4.833,9.5 -24.833,20 0,0 -12.5,17 -12.667,29.166 -0.167,12.167 4,36.5 36,53.5 0,0 2.167,15.167 1.167,16.167 -1,1 -13.5,10.667 -23.333,16.167 -9.833,5.5 -18.333,10.166 -12.833,17.833 0,0 15.333,-11.167 21.667,-14.833 6.333,-3.667 9.667,-5.667 7.167,-3.167 -2.5,2.5 -17.333,12 -21.5,15 -4.167,3 -10.333,7.333 3.333,12.167 0,0 5,-6.5 11.833,-12.334 6.833,-5.833 13.333,-8.833 16.167,-13.166 0,0 -1.333,4.333 -10.333,10.833 -9,6.5 -14.667,12.5 -14.333,16 0.333,3.5 8.833,4.167 13.333,2.5 4.5,-1.667 17.667,-9.833 23.833,-25 6.166,-15.167 7.666,-17.833 1.333,-22.5 -6.333,-4.667 -5,-11.833 -5,-11.833 0,0 16.5,6 36.167,-0.5 0,0 0.666,6.666 0.666,11.333 0,4.667 -1,9.833 6.667,9.333 7.667,-0.5 15.833,-2.166 36.833,3 21,5.167 28.084,7.542 31.459,5.667 3.375,-1.875 5.873,-6.248 2.498,-8.873 z"
             id="path2087" />
        </g>
      </g>
      <path
         fill="#0d0c0d"
         d="m 132.601,120.927 c 0,0 15.657,-4.393 15.657,1.107 0,3.167 -2.002,4.263 -4.167,4.167 -3.324,-0.148 -4.167,-3 -4.667,-3.833 -0.5,-0.834 -2.989,-1.275 -6.823,-1.441 z"
         id="path2093" />
      <path
         fill="#0d0c0d"
         d="m 204.424,120.867 c 0,0 -11.496,-3.008 -14.229,-0.114 -2.271,2.405 0.316,5.893 3.648,5.82 3.996,-0.087 5.414,-4.373 5.414,-4.373 z"
         id="path2095" />
      <path
         fill="#dbb48e"
         d="m 167.54,152.7 c -19.292,-4.75 -25.667,-19.167 -25.667,-19.167 -1.581,1.317 -6.267,7.188 -6.777,19.153 5.005,0.577 10.971,1.95 18.096,4.53 0,0 0.576,2.113 -1.537,2.209 0,0 -7.463,-3.567 -16.602,-4.887 -0.014,2.417 0.142,5.063 0.515,7.947 2.729,-0.05 5.733,0.09 9.075,0.494 0,0 1.057,1.537 -0.48,2.306 0,0 -3.47,-0.586 -8.258,-0.577 0.537,3.128 1.349,5.966 2.359,8.521 3.23,-1.229 6.93,-2.416 11.182,-3.525 0,0 2.401,0.384 1.537,2.594 0,0 -5.384,0.728 -11.895,2.857 6.28,13.743 17.953,18.712 17.953,18.712 5,-2.167 11.333,-8.5 11.333,-8.5 z"
         id="path2097" />
      <path
         fill="#dbb48e"
         d="m 194.399,160.194 c 3.931,-0.223 7.406,-0.208 10.511,-0.021 -0.035,-3.114 -0.363,-5.95 -0.878,-8.512 -9.574,1.734 -17.413,5.747 -17.413,5.747 -2.401,-0.48 -1.537,-2.593 -1.537,-2.593 7.228,-2.738 13.344,-4.316 18.518,-5.084 -2.59,-10.377 -8.102,-15.656 -8.102,-15.656 -10.875,15.625 -25.25,18.625 -25.25,18.625 l 0.125,32.25 c 5.375,6.875 16.5,10 16.5,10 0,0 11.046,-7.83 15.794,-20.571 -7.961,-3.03 -14.991,-4.003 -14.991,-4.003 -0.961,-1.729 1.152,-2.498 1.152,-2.498 5.743,1.291 10.521,2.825 14.528,4.48 0.597,-1.953 1.039,-4.008 1.267,-6.159 0.148,-1.407 0.234,-2.766 0.271,-4.082 -5.843,-0.163 -10.303,0.574 -10.303,0.574 -1.44,-1.44 -0.192,-2.497 -0.192,-2.497 z"
         id="path2099" />
      <circle
         fill="#ffffff"
         cx="145.979"
         cy="122.056"
         r="1.597"
         id="circle2101" />
      <circle
         fill="#ffffff"
         cx="194.48599"
         cy="122.056"
         r="1.597"
         id="circle2103" />
      <path
         fill="#d5995b"
         d="m 240.258,239.2 c 0.666,6.333 -5,13.5 -5,13.5 -2.167,-11.167 -18.667,-37.833 -18.667,-37.833 8.5,5.666 22.842,16.499 23.667,24.333 z"
         id="path2105" />
      <path
         fill="#533c13"
         d="m 97.924,288.2 c -52,-75.333 -62.833,-139 -62.833,-139 -7.833,-38 -2.167,-66.167 11.333,-75.833 22.503,-16.114 57.639,-2.61 83.5,7.833 26,10.5 39.667,13 39.667,13 -7.5,1.667 -12,4.667 -12.5,5 -11.833,0.167 -23.333,7.167 -23.333,7.167 0,-18.833 -10.167,-16.667 -13.5,-10.333 -3.333,6.333 8.833,13.5 8.833,13.5 -5.167,3.667 -7,9.167 -7.667,19.5 -0.667,10.333 -3.5,12 -8.333,18.167 -4.833,6.167 -8,11.667 -9.5,28 -1.5,16.333 12.833,27 12.833,27 l 2.167,11.833 c -15.667,8.5 -22.167,27.167 -24.833,35.334 -2.667,8.166 7.833,14.833 7.833,14.833 -5.333,9.499 -3.383,24.41 -3.667,23.999 z"
         id="path2107" />
      <path
         fill="#865f24"
         d="m 195.924,32.2 c 24.456,2.903 61.334,18.5 57.334,34.833 -5.539,22.618 -35.667,25.333 -35.667,25.333 -8.667,-7.833 -11,0 -11,0 -34.417,-1.333 -51.083,-11.167 -86.333,-26.917 -35.25,-15.75 -68,-3 -68,-3 C 99.508,22.7 172.758,29.45 195.924,32.2 Z"
         id="path2109" />
      <ellipse
         transform="matrix(0.119,-0.9929,0.9929,0.119,29.2301,298.008)"
         fill="#ffffff"
         cx="182.549"
         cy="132.532"
         rx="2.3299999"
         ry="7.73"
         id="ellipse2111" />
      <path
         fill="#d4a170"
         d="m 130.758,106.867 c 0,0 -11.5,-6.333 -7.333,-11.333 4.167,-5 8.666,-0.334 7.333,11.333 z"
         id="path2113" />
      <path
         fill="#d4a170"
         d="m 208.258,107.2 c 0,0 -1,-15.667 3.833,-14.667 4.833,1 9.167,5.001 -3.833,14.667 z"
         id="path2115" />
      <g
         id="Layer_2"
         display="none">
        <g
           id="Bebras_UK_Bib.psd"
           display="inline">
          <image
             overflow="visible"
             width="97"
             height="122"
             id="Bebras_UK_Bib_2_"
             xlink:href="../../../../../../../../Downloads/32F0DC1E5316F0AE.png"
             transform="translate(133,199.2002)" />
        </g>
      </g>
      <g
         id="Layer_3"
         display="none">
        <rect
           x="168.373"
           y="213.604"
           display="inline"
           fill="#0e0d0f"
           width="9.6560001"
           height="2.596"
           id="rect2120" />
      </g>
      <path
         fill="#0d0c0d"
         d="m 207.423,160.37 c -0.044,-3.206 -0.474,-6.251 -1.14,-9.069 8.431,-1.154 17.797,-0.264 24.234,6.685 0,0 -4.53,-10.757 -24.716,-8.541 -1.484,-5.278 -3.718,-9.645 -5.554,-12.619 -6.25,-10.125 -22.625,-10.875 -31.75,-10.875 -9.875,0 -16,-0.25 -24.875,3.75 -5.114,2.305 -10.088,10.959 -10.935,22.763 -17.223,-1.171 -21.666,7.731 -21.666,7.731 6.019,-5.615 14.158,-6.636 21.573,-5.942 -0.093,2.648 0.023,5.439 0.386,8.341 -18.982,1.313 -22.247,12.875 -22.247,12.875 4.755,-8.105 14.739,-10.313 22.563,-10.694 0.133,0.803 0.278,1.61 0.45,2.427 0.52,2.47 1.276,4.786 2.191,6.954 -22.199,9.246 -19.25,20.429 -19.25,20.429 1.549,-9.709 11.343,-15.416 20.07,-18.621 6.426,13.331 18.738,20.363 18.738,20.363 5.875,16.25 9.125,17.875 9.125,17.875 2.25,0.5 6.75,0 6.75,0 2.5,0.625 7.25,0.5 7.25,0.5 3.25,-0.5 8.875,-18 8.875,-18 9.024,-7.099 14.326,-14.448 17.164,-21.528 7.742,3.241 15.878,8.46 19.035,16.625 0,0 -0.45,-10.46 -18.313,-18.562 1.29,-3.783 1.897,-7.474 2.019,-10.992 8.072,0.582 17.782,3.093 22.25,11.207 0.002,-0.002 -0.989,-11.004 -22.227,-13.082 z m -68.336,14.785 c 6.511,-2.129 11.895,-2.857 11.895,-2.857 0.864,-2.209 -1.537,-2.594 -1.537,-2.594 -4.252,1.11 -7.952,2.296 -11.182,3.525 -1.01,-2.555 -1.822,-5.393 -2.359,-8.521 4.788,-0.009 8.258,0.577 8.258,0.577 1.537,-0.769 0.48,-2.306 0.48,-2.306 -3.342,-0.404 -6.346,-0.544 -9.075,-0.494 -0.374,-2.884 -0.529,-5.53 -0.515,-7.947 9.139,1.32 16.602,4.887 16.602,4.887 2.113,-0.096 1.537,-2.209 1.537,-2.209 -7.125,-2.58 -13.09,-3.954 -18.096,-4.53 0.51,-11.965 5.197,-17.836 6.777,-19.153 0,0 6.375,14.417 25.667,19.167 l 0.833,32.667 c 0,0 -6.333,6.333 -11.333,8.5 0.001,0 -11.672,-4.97 -17.952,-18.712 z m 26.286,37.42 c 0,0 -5.438,-9.062 -7.25,-16.562 0,0 7,-3.625 10.688,-8 l 1.75,24.625 z m 13.5,0.875 c -2.5,0.5 -6.562,-0.375 -6.562,-0.375 l -1.424,-24.75 -0.014,-0.25 c 5.062,5.125 14.312,8.438 14.312,8.438 -0.999,6.875 -6.312,16.937 -6.312,16.937 z m 15.719,-50.758 c 0,0 4.46,-0.736 10.303,-0.574 -0.037,1.316 -0.123,2.675 -0.271,4.082 -0.228,2.151 -0.67,4.206 -1.267,6.159 -4.008,-1.655 -8.785,-3.19 -14.528,-4.48 0,0 -2.113,0.769 -1.152,2.498 0,0 7.03,0.973 14.991,4.003 -4.748,12.741 -15.794,20.571 -15.794,20.571 0,0 -11.125,-3.125 -16.5,-10 l -0.125,-32.25 c 0,0 14.375,-3 25.25,-18.625 0,0 5.512,5.279 8.102,15.656 -5.174,0.768 -11.29,2.346 -18.518,5.084 0,0 -0.864,2.113 1.537,2.593 0,0 7.839,-4.013 17.413,-5.747 0.515,2.562 0.843,5.398 0.878,8.512 -3.104,-0.187 -6.58,-0.202 -10.511,0.021 -0.001,-0.001 -1.249,1.056 0.192,2.497 z"
         id="path2123" />
      <path
         fill="#0d0c0d"
         d="m 261.258,347.033 c -5,-5.166 -6.5,-7.333 -20.167,-7.166 -13.667,0.166 -24.833,2.5 -31.5,2.333 -6.667,-0.167 -9.667,-1.333 -9,-7.167 0,0 23.833,-13.5 32,-37.666 8.167,-24.167 4.167,-39.167 4.167,-39.167 0,0 7.666,-10 7.666,-20.167 0,-5.166 -13.166,-15.666 -29.5,-29 l -1.166,-5.667 c 0,0 18.666,-12 23,-28.167 4.333,-16.167 -2,-25.667 -10.667,-34.167 -8.667,-8.5 -12,-13.167 -17,-30 0,0 5.167,-3.5 11.167,-13.833 0,0 39.5,-4.333 39.5,-32.333 0,-28 -41.667,-40.166 -99.667,-40.166 -58,0 -93.833,11 -115.833,37.667 -22,26.667 -24.5,66.583 -8.75,113.083 15.75,46.5 41.25,94 67,130.75 0,0 7.75,18.167 26.75,27.833 2.418,1.23 5.333,7.5 5.167,11 -0.166,3.5 -2.667,5.5 -12.667,11.334 -10,5.833 -26,15.5 -26,23 0,7.5 15.667,19.833 29.667,19.833 14,0 29.333,-25.333 32.5,-33.833 3.167,-8.5 5.5,-12.834 0.667,-17.167 -4.833,-4.333 -5.333,-5.833 -5.333,-5.833 0,0 14.333,1.5 28.833,-2 0,0 1.333,4.833 0.833,8.333 -0.5,3.5 1.834,8.833 5,10.167 3.167,1.333 17,-0.834 31.834,2.833 14.833,3.667 29,6.833 35.833,6.833 6.833,0 10.5,-4.5 10.5,-8.333 0,-3.833 0.166,-8 -4.834,-13.167 z m -21,-107.833 c 0.666,6.333 -5,13.5 -5,13.5 -2.167,-11.167 -18.667,-37.833 -18.667,-37.833 8.5,5.666 22.842,16.499 23.667,24.333 z M 218.424,137.867 c 5.167,4.5 16.167,15.167 16.167,28 0,12.833 -15.667,33.5 -29.333,36 -13.719,2.51 -34.161,4.408 -48,5.5 -12.667,1 -29.887,0.081 -38.667,-8.5 -7.333,-7.167 -10.5,-15 -11,-22.167 -0.742,-10.641 3,-19.5 8.667,-27.167 5.667,-7.667 6.833,-10.667 8.5,-20.833 1.667,-10.167 6.333,-26 41.166,-27.167 34.834,-1.167 41,13.333 42.667,17.333 1.667,4 4.667,14.501 9.833,19.001 z m -92,73.5 c -2,0.167 -4.667,1.667 -4.667,1.667 l -1.5,-8 c 2.833,2.167 5.5,3.667 5.5,3.667 z m 4.334,-104.5 c 0,0 -11.5,-6.333 -7.333,-11.333 4.167,-5 8.666,-0.334 7.333,11.333 z m 40.333,-7.667 7.5,-3.167 c 0,0 13.167,2 27.333,1.833 l -0.333,9.333 c 0,0.001 -15.667,-8.665 -34.5,-7.999 z m 37.167,8 c 0,0 -1,-15.667 3.833,-14.667 4.833,1 9.167,5.001 -3.833,14.667 z m -12.334,-75 c 24.456,2.903 61.334,18.5 57.334,34.833 -5.539,22.618 -35.667,25.333 -35.667,25.333 -8.667,-7.833 -11,0 -11,0 -34.417,-1.333 -51.083,-11.167 -86.333,-26.917 -35.25,-15.75 -68,-3 -68,-3 C 99.508,22.7 172.758,29.45 195.924,32.2 Z m -98,256 c -52,-75.333 -62.833,-139 -62.833,-139 -7.833,-38 -2.167,-66.167 11.333,-75.833 22.503,-16.114 57.639,-2.61 83.5,7.833 26,10.5 39.667,13 39.667,13 -7.5,1.667 -12,4.667 -12.5,5 -11.833,0.167 -23.333,7.167 -23.333,7.167 0,-18.833 -10.167,-16.667 -13.5,-10.333 -3.333,6.333 8.833,13.5 8.833,13.5 -5.167,3.667 -7,9.167 -7.667,19.5 -0.667,10.333 -3.5,12 -8.333,18.167 -4.833,6.167 -8,11.667 -9.5,28 -1.5,16.333 12.833,27 12.833,27 l 2.167,11.833 c -15.667,8.5 -22.167,27.167 -24.833,35.334 -2.667,8.166 7.833,14.833 7.833,14.833 -5.333,9.499 -3.383,24.41 -3.667,23.999 z m 162.459,77.5 c -3.375,1.875 -10.459,-0.5 -31.459,-5.667 -21,-5.166 -29.166,-3.5 -36.833,-3 -7.667,0.5 -6.667,-4.666 -6.667,-9.333 0,-4.667 -0.666,-11.333 -0.666,-11.333 -19.667,6.5 -36.167,0.5 -36.167,0.5 0,0 -1.333,7.166 5,11.833 6.333,4.667 4.833,7.333 -1.333,22.5 -6.167,15.167 -19.333,23.333 -23.833,25 -4.5,1.667 -13,1 -13.333,-2.5 -0.333,-3.5 5.333,-9.5 14.333,-16 9,-6.5 10.333,-10.833 10.333,-10.833 -2.833,4.333 -9.333,7.333 -16.167,13.166 -6.833,5.834 -11.833,12.334 -11.833,12.334 -13.667,-4.834 -7.5,-9.167 -3.333,-12.167 4.167,-3 19,-12.5 21.5,-15 2.5,-2.5 -0.833,-0.5 -7.167,3.167 -6.333,3.666 -21.667,14.833 -21.667,14.833 -5.5,-7.667 3,-12.333 12.833,-17.833 9.833,-5.5 22.333,-15.167 23.333,-16.167 1,-1 -1.167,-16.167 -1.167,-16.167 -32,-17 -36.167,-41.333 -36,-53.5 0.167,-12.166 12.667,-29.166 12.667,-29.166 20,-10.5 24.833,-20 24.833,-20 -7,9.5 -25,17.5 -27.333,18.666 -2.333,1.167 -7.667,12.667 -7.667,12.667 0,0 -6.167,-8.5 -6.667,-10.833 -0.5,-2.334 4.333,-11.334 9.833,-20.5 5.5,-9.167 17.167,-16.167 22.833,-16.334 5.667,-0.166 3,-0.833 3,-0.833 -2.833,-1.5 -3,-3.833 -3,-3.833 0,0 4.167,1.333 18.167,1.667 14,0.333 61.75,-6.333 61.75,-6.333 1.25,15.5 16,22 23.5,49.25 7.5,27.25 -0.75,44.25 -9.25,57.125 -8.5,12.875 -26.5,22.375 -26.5,22.375 -0.375,4 0.875,8 2.625,9.5 1.75,1.5 19.375,0 37.125,-1.25 17.75,-1.25 22.375,5.875 22.375,5.875 -9.625,-3.75 -19.375,-1.625 -19.375,-1.625 27.375,0.625 24.75,10.125 24.75,10.125 -13.25,-7.5 -22.875,-4.125 -22.875,-4.125 6.625,-0.5 18.625,2.25 22,4.875 3.375,2.625 0.877,6.999 -2.498,8.874 z"
         id="path2125" />
      <path
         fill="#ffffff"
         d="m 170.887,188.325 1.424,24.75 c 0,0 4.062,0.875 6.562,0.375 0,0 5.312,-10.062 6.312,-16.938 0,0 -9.25,-3.312 -14.312,-8.438 z"
         id="path2127" />
      <path
         fill="#ffffff"
         d="m 158.123,196.013 c 1.812,7.5 7.25,16.562 7.25,16.562 l 5.188,0.062 -1.75,-24.625 c -3.688,4.376 -10.688,8.001 -10.688,8.001 z"
         id="path2129" />
      <path
         display="none"
         fill="#0e0d0f"
         d="m 151.714,210.944 c 0.747,-0.08 -1.04,26.114 -1.704,28.123 -2.559,7.736 -5.153,15.488 -7.559,23.271 -3.426,11.083 -8.799,22.969 -5.784,34.726 5.686,22.164 27.992,22.126 46.202,20.096 9.474,-1.056 19.286,-3.825 26.057,-10.986 12.114,-12.813 16.737,-28.653 13.549,-46.002 -1.097,-5.962 -3.82,-11.468 -6.836,-16.67 -7.166,-12.36 -11.215,-23.854 -11.215,-38.244 0,-0.001 -52.415,5.655 -52.71,5.686 z"
         id="path2131" />
    </g>
  </g>
</svg>
