<svg width="81" height="136" viewBox="0 0 81 136" fill="none" xmlns="http://www.w3.org/2000/svg">
<rect width="81" height="136" fill="white"/>
<path d="M81.0001 68.5C81.0001 90.9238 62.8094 109 40.5 109C18.0763 109 0 90.8094 0 68.5C0 46.0763 18.1907 28 40.5 28C62.9238 28 81.0001 46.0763 81.0001 68.5Z" fill="#2C9942"/>
<path d="M20.25 84.9746C20.25 85.5466 20.1356 86.1187 19.4492 86.1187C19.106 86.1187 19.5636 86.1187 19.2204 86.1187C17.161 86.1187 15.7882 85.6611 14.8729 84.7458C14.0721 83.8305 13.6144 82.3433 13.6144 80.1695V72.8475C13.6144 71.7034 13.5 70.7882 13.1568 70.3305C12.8136 69.7585 12.2416 69.4153 11.4407 69.0721C10.9831 68.9576 10.7543 68.5 10.7543 68.0424C10.7543 67.5848 11.0975 67.1271 11.4407 67.0127C12.928 66.5551 13.7289 65.411 13.7289 63.4661V55.6864C13.7289 53.7415 14.1865 52.3687 14.9873 51.5678C15.9026 50.767 17.2754 50.3093 19.2204 50.3093H19.4492C20.0212 50.3093 20.25 50.767 20.25 51.4534C20.25 52.0254 20.1356 52.2542 19.4492 52.2542C17.9619 52.2542 16.9322 52.4831 16.4746 53.0551C15.9026 53.5127 15.6738 54.428 15.6738 55.8009V63.6949C15.6738 64.6102 15.5594 65.411 15.3305 66.2119C15.1017 67.0127 14.4153 67.6992 13.2712 68.2712C14.1865 68.7288 14.7585 69.3009 15.1017 69.9873C15.445 70.6737 15.6738 71.589 15.6738 72.8475V80.5127C15.6738 82 15.9026 82.9153 16.3602 83.4873C16.8178 83.9449 17.8475 84.1738 19.4492 84.2882C20.1356 84.1738 20.25 84.2882 20.25 84.9746Z" fill="#9ED8B3"/>
<path d="M61.4365 84.1737C62.9238 84.1737 63.9535 83.9449 64.5255 83.3728C64.9831 82.9152 65.2119 81.8855 65.2119 80.3982V72.733C65.2119 71.4745 65.4408 70.5592 65.784 69.8728C66.1272 69.1864 66.8136 68.6143 67.6145 68.1567C66.4704 67.5847 65.784 66.8982 65.5552 66.0974C65.3263 65.2965 65.2119 64.4957 65.2119 63.5804V55.6864C65.2119 54.3135 64.9831 53.3982 64.4111 52.9406C63.839 52.483 62.9238 52.2541 61.4365 52.1397C60.8645 52.1397 60.2924 52.0253 60.2924 51.3389C60.2924 50.7669 60.7501 50.1948 61.4365 50.1948H61.6653C63.6102 50.1948 65.0975 50.6525 65.8984 51.4533C66.8136 52.2541 67.1569 53.7414 67.1569 55.5719V63.3516C67.1569 65.2965 67.9577 66.555 69.445 66.8982C69.9026 67.127 70.1314 67.4703 70.1314 67.9279C70.1314 68.3855 69.7882 68.8431 69.445 68.9576C68.6441 69.1864 68.0721 69.644 67.7289 70.216C67.3857 70.7881 67.2713 71.5889 67.2713 72.733V80.055C67.2713 82.2287 66.8136 83.716 66.0128 84.6313C65.2119 85.5466 63.7246 86.0042 61.6653 86.0042C61.4365 86.0042 61.7797 86.0042 61.4365 86.0042C60.8645 86.0042 60.4068 85.5466 60.4068 84.8601C60.4068 84.2881 60.8645 84.1737 61.4365 84.1737Z" fill="#9ED8B3"/>
<path d="M35.0085 64.7247C36.1526 64.7247 37.1823 64.267 37.9831 63.4662C38.7839 62.6653 39.2416 61.6357 39.2416 60.4916C39.2416 59.3475 38.7839 58.3179 37.9831 57.517C37.1823 56.7162 36.1526 56.2586 35.0085 56.2586C33.8644 56.2586 32.8348 56.7162 32.0339 57.517C31.2331 58.3179 30.7755 59.3475 30.7755 60.4916C30.7755 61.6357 31.2331 62.6653 32.0339 63.4662C32.8348 64.267 33.8644 64.7247 35.0085 64.7247ZM33.2924 58.7755C33.75 58.3179 34.3221 58.0891 35.0085 58.0891C35.695 58.0891 36.267 58.3179 36.7246 58.7755C37.1822 59.2331 37.4111 59.8052 37.4111 60.4916C37.4111 61.1781 37.1822 61.7501 36.7246 62.2077C36.267 62.6653 35.695 62.8942 35.0085 62.8942C34.3221 62.8942 33.75 62.6653 33.2924 62.2077C32.8348 61.7501 32.606 61.1781 32.606 60.4916C32.606 59.8052 32.8348 59.2331 33.2924 58.7755ZM55.6018 58.2035C56.7458 58.2035 57.5467 58.6611 57.7755 59.6908H53.428C53.7712 58.6611 54.4577 58.2035 55.6018 58.2035ZM58.4619 73.0764C57.6611 72.2755 56.7458 71.9323 55.6018 71.9323C54.8009 71.9323 54.1145 72.1611 53.5424 72.6187C53.428 72.7331 53.3136 72.8476 53.1992 72.962V70.1018C53.1992 69.6442 52.7416 69.1865 52.284 69.1865C51.8263 69.1865 51.3687 69.6442 51.3687 70.1018V79.3687C51.3687 79.8264 51.7119 80.284 52.284 80.284C52.7416 80.284 53.1992 79.9408 53.1992 79.3687V79.1399C53.5424 79.5976 54.0001 79.8264 54.4577 80.0552C54.9153 80.1696 55.3729 80.284 55.8306 80.284C56.9746 80.284 57.8899 79.8264 58.6907 79.0255C59.4916 78.2247 59.8348 77.195 59.8348 76.0509C59.606 74.9069 59.2628 73.8772 58.4619 73.0764ZM56.9746 77.6526C56.517 78.1103 55.945 78.3391 55.3729 78.3391C54.6865 78.3391 54.2289 78.1103 53.7713 77.6526C53.3136 77.195 53.0848 76.623 53.0848 76.0509C53.0848 75.3645 53.3136 74.7925 53.7713 74.3348C54.2289 73.8772 54.8009 73.6484 55.3729 73.6484C56.0594 73.6484 56.517 73.8772 56.9746 74.3348C57.4323 74.7925 57.6611 75.3645 57.6611 75.9365C57.6611 76.7374 57.4323 77.3094 56.9746 77.6526ZM47.9365 72.8476V79.3687C47.9365 79.8264 47.5933 80.284 47.0212 80.284C46.5636 80.284 46.106 79.9408 46.106 79.3687V79.2543V78.9111C45.9916 79.1399 45.7628 79.2543 45.7628 79.3687C45.1907 79.9408 44.5043 80.1696 43.589 80.1696C42.9026 80.1696 42.3306 80.0552 41.8729 79.712C41.3009 79.4832 40.9577 79.0255 40.7289 78.5679C40.5 78.1103 40.3856 77.6526 40.3856 77.0806C40.3856 76.8518 40.3856 76.3942 40.3856 75.4789V72.6187C40.3856 72.1611 40.8433 71.7035 41.3009 71.7035C41.8729 71.7035 42.2162 72.1611 42.2162 72.6187V72.7331V75.4789C42.2162 76.0509 42.2162 76.3942 42.2162 76.5086C42.2162 76.8518 42.3306 77.195 42.445 77.5382C42.6738 78.1103 43.2458 78.3391 43.9323 78.3391C45.4195 78.3391 46.106 77.4238 46.106 75.5933V72.7331C46.106 72.2755 46.5636 71.8179 47.0212 71.8179C47.4789 71.9323 47.9365 72.2755 47.9365 72.8476ZM48.3941 53.6272C47.9365 53.6272 47.4789 54.0848 47.4789 54.5425V57.2882C47.0212 56.945 46.5636 56.6018 46.2204 56.4874C45.8772 56.373 45.534 56.373 45.0763 56.373C43.9323 56.373 43.017 56.7162 42.3306 57.517C41.5297 58.3179 41.1865 59.3475 41.1865 60.4916C41.1865 61.6357 41.5297 62.6653 42.3306 63.4662C43.1314 64.267 44.0467 64.7247 45.0763 64.7247C45.9916 64.7247 46.678 64.4959 47.3645 63.9238C47.4789 63.8094 47.5933 63.695 47.7077 63.5806V63.8094C47.7077 64.267 48.0509 64.7247 48.6229 64.7247C49.0806 64.7247 49.5382 64.3814 49.5382 63.8094V54.5425C49.3094 53.9704 48.9662 53.6272 48.3941 53.6272ZM46.9068 62.2077C46.4492 62.6653 45.9916 62.8942 45.3051 62.8942C44.7331 62.8942 44.1611 62.6653 43.7034 62.2077C43.2458 61.7501 43.017 61.1781 43.017 60.606C43.017 59.9196 43.2458 59.3475 43.7034 58.8899C44.1611 58.4323 44.6187 58.2035 45.3051 58.2035C45.9916 58.2035 46.5636 58.4323 46.9068 58.8899C47.3645 59.3475 47.4789 59.9196 47.4789 60.606C47.5933 61.1781 47.3645 61.7501 46.9068 62.2077ZM37.8687 79.1399C37.8687 79.5976 37.5255 79.9408 37.0678 79.9408H32.3772C31.9195 79.9408 31.5763 79.5976 31.5763 79.1399C31.5763 78.6823 31.9195 78.3391 32.3772 78.3391H33.8644V71.1314H32.3772C31.9195 71.1314 31.5763 70.7882 31.5763 70.3306C31.5763 69.873 31.9195 69.5298 32.3772 69.5298H34.7797C35.2373 69.5298 35.5805 69.873 35.5805 70.3306V78.3391H36.9534C37.5255 78.2247 37.8687 78.6823 37.8687 79.1399ZM23.9111 74.3348C23.4534 74.7925 23.2246 75.3645 23.2246 76.0509C23.2246 76.623 23.4534 77.3094 23.9111 77.767C24.8263 78.6823 26.3136 78.6823 27.2288 77.767C27.5721 77.4238 28.3729 77.4238 28.7161 77.767C29.0594 78.1103 29.0594 78.6823 28.7161 79.0255C27.9153 79.8264 26.7712 80.284 25.6272 80.284C24.4831 80.284 23.4534 79.8264 22.5382 79.0255C20.8221 77.4238 20.8221 74.6781 22.5382 73.0764C24.2543 71.4747 27 71.4747 28.7161 73.0764C29.0594 73.4196 29.0594 73.9916 28.7161 74.3348C28.3729 74.6781 27.5721 74.6781 27.2288 74.3348C26.1992 73.4196 24.8263 73.4196 23.9111 74.3348ZM23.7966 58.7755C23.339 59.2331 23.1102 59.8052 23.1102 60.4916C23.1102 61.0636 23.339 61.7501 23.7966 62.2077C24.7119 63.123 26.1992 63.123 27 62.2077C27.3433 61.8645 28.1441 61.8645 28.4873 62.2077C28.8305 62.5509 28.8305 63.123 28.4873 63.4662C27.6865 64.267 26.5424 64.7247 25.3983 64.7247C24.2543 64.7247 23.2246 64.267 22.3094 63.4662C20.5933 61.8645 20.5933 59.1187 22.3094 57.517C24.0255 55.9153 26.7712 55.9153 28.3729 57.517C28.7161 57.8603 28.7161 58.4323 28.3729 58.7755C28.0297 59.1187 27.2289 59.1187 26.8856 58.7755C26.1992 57.8603 24.7119 57.8603 23.7966 58.7755ZM59.1484 63.5806C59.4916 63.2374 59.4916 62.6653 59.1484 62.2077C58.8052 61.8645 58.1187 61.8645 57.7755 62.2077C57.3179 62.5509 56.7458 62.7797 56.1738 62.7797C56.1738 62.7797 55.945 62.7797 55.8306 62.7797C55.1441 62.7797 54.6865 62.6653 54.2289 62.3221C53.7712 61.9789 53.5424 61.6357 53.428 61.0636H58.6907C59.2628 61.0636 59.7204 60.606 59.7204 59.9196C59.7204 59.9196 59.7204 59.9196 59.7204 59.8052C59.606 58.8899 59.2628 58.0891 58.5763 57.4026C57.7755 56.6018 56.8602 56.1441 55.6018 56.1441C54.4577 56.1441 53.428 56.6018 52.6272 57.4026C51.8263 58.2035 51.3687 59.2331 51.3687 60.3772C51.3687 61.5213 51.7119 62.5509 52.5128 63.3518C53.3136 64.1526 54.3433 64.4959 55.6018 64.4959C55.7162 64.4959 55.945 64.4959 55.945 64.4959C57.2035 64.7247 58.2331 64.267 59.1484 63.5806Z" fill="white"/>
</svg>
