<svg width="222" height="222" viewBox="0 0 222 222" fill="none" xmlns="http://www.w3.org/2000/svg">
<rect width="222" height="222" fill="#64BE5B"/>
<path d="M168.864 111.074C168.864 142.989 142.989 168.866 111.072 168.866C79.1529 168.866 53.2793 142.989 53.2793 111.074C53.2793 79.1548 79.1529 53.2812 111.072 53.2812C142.989 53.2812 168.864 79.1548 168.864 111.074Z" fill="white"/>
<path d="M82.2399 134.503C82.2399 135.363 82.0296 136.054 81.1748 136.077V136.093C80.7155 136.129 81.2848 136.145 80.9162 136.145C78.0199 136.145 75.9727 135.506 74.7725 134.234C73.5723 132.959 72.9741 130.804 72.9741 127.757V117.378C72.9741 115.736 72.7329 114.514 72.2505 113.712C71.7758 112.915 70.9442 112.344 69.7614 111.99C69.4597 111.873 69.2004 111.667 69.017 111.4C68.8336 111.133 68.7347 110.817 68.7329 110.493C68.7329 109.816 69.1478 109.241 69.7324 108.996C71.8935 108.421 72.9741 106.725 72.9741 103.902V92.8298C72.9741 90.0782 73.5896 88.0966 74.8284 86.8771C76.0633 85.6595 78.0932 85.0517 80.9162 85.0517H81.1748V85.0536C82.0604 85.0575 82.2997 85.7772 82.2997 86.661C82.2997 87.5466 82.0604 87.7724 81.1748 87.7782V87.7956C79.0522 87.8342 77.6244 88.195 76.8853 88.8761C76.1463 89.5592 75.7778 90.879 75.7778 92.8337V104.122C75.7778 105.395 75.6118 106.566 75.278 107.633C74.8921 108.838 73.9003 109.833 72.3161 110.626C73.5877 111.307 74.483 112.137 75.0001 113.115C75.5153 114.096 75.7758 115.481 75.7758 117.27V128.145C75.7758 130.246 76.1251 131.641 76.8275 132.334C77.5279 133.029 78.977 133.384 81.1709 133.399V133.422C82.0296 133.441 82.2399 133.64 82.2399 134.503ZM140.968 133.418V133.395C143.16 133.38 144.609 133.027 145.31 132.33C146.014 131.639 146.365 130.242 146.365 128.141V117.268C146.365 115.477 146.624 114.092 147.137 113.113C147.656 112.135 148.55 111.307 149.823 110.624C148.237 109.831 147.247 108.834 146.859 107.632C146.518 106.493 146.352 105.309 146.365 104.12V92.8317C146.365 90.8752 145.997 89.5573 145.252 88.8761C144.519 88.1931 143.087 87.8322 140.968 87.7917V87.7743C140.081 87.7685 139.361 87.5466 139.361 86.661C139.361 85.7734 140.081 85.0536 140.968 85.0498V85.0479H141.225C144.048 85.0479 146.08 85.6557 147.315 86.8732C148.551 88.0946 149.171 90.0782 149.171 92.8259V103.898C149.171 106.721 150.251 108.417 152.411 108.992C152.709 109.114 152.965 109.323 153.143 109.591C153.322 109.86 153.416 110.176 153.413 110.499C153.409 110.822 153.31 111.136 153.126 111.401C152.942 111.666 152.683 111.87 152.382 111.987C151.201 112.34 150.367 112.911 149.891 113.708C149.41 114.51 149.173 115.734 149.173 117.374V127.753C149.173 130.8 148.569 132.955 147.371 134.231C146.172 135.502 144.119 136.141 141.225 136.141C140.854 136.141 141.426 136.124 140.968 136.089V136.073C140.11 136.048 139.421 135.359 139.421 134.499C139.421 133.638 140.11 133.441 140.968 133.418Z" fill="#339933"/>
<path d="M103.244 105.657C104.924 105.657 106.356 105.071 107.545 103.897C108.733 102.724 109.326 101.314 109.326 99.6659C109.326 98.0277 108.729 96.6269 107.539 95.4595C106.346 94.294 104.917 93.7093 103.244 93.7093C101.571 93.7093 100.141 94.2921 98.9561 95.4556C98.3853 95.9965 97.9329 96.65 97.6277 97.3747C97.3225 98.0994 97.171 98.8796 97.1828 99.6659C97.1828 101.314 97.7752 102.724 98.9561 103.897C99.5141 104.466 100.182 104.915 100.919 105.218C101.656 105.52 102.447 105.67 103.244 105.657ZM100.801 97.2192C101.474 96.5381 102.287 96.2004 103.244 96.2004C104.208 96.2004 105.023 96.5381 105.692 97.2154C106.362 97.8927 106.698 98.705 106.698 99.6659C106.698 100.642 106.362 101.468 105.692 102.142C105.376 102.47 104.995 102.73 104.574 102.905C104.153 103.08 103.7 103.165 103.244 103.157C102.287 103.157 101.474 102.819 100.801 102.142C100.473 101.824 100.214 101.442 100.04 101.02C99.8659 100.598 99.78 100.145 99.7877 99.6891C99.7877 98.7262 100.127 97.9004 100.801 97.2192ZM132.534 96.3567C134.192 96.3567 135.274 97.0919 135.653 98.4484H129.474C129.964 97.0919 131.024 96.3567 132.534 96.3567ZM136.72 117.586C136.206 117.033 135.582 116.595 134.888 116.3C134.194 116.005 133.445 115.86 132.691 115.874C131.379 115.85 130.109 116.335 129.148 117.229V113.165C129.13 112.826 128.982 112.507 128.735 112.273C128.489 112.039 128.162 111.909 127.822 111.909C127.483 111.909 127.156 112.039 126.909 112.273C126.663 112.507 126.515 112.826 126.497 113.165V126.587C126.497 127.27 127.056 127.828 127.739 127.828C128.423 127.828 128.976 127.272 128.98 126.587H128.994V126.228C129.536 126.819 130.151 127.238 130.831 127.481C131.45 127.71 132.083 127.826 132.733 127.826C134.321 127.826 135.655 127.245 136.735 126.086C137.818 124.928 138.358 123.502 138.358 121.814C138.36 120.135 137.812 118.726 136.72 117.586ZM134.632 124.208C134.332 124.521 133.97 124.768 133.569 124.934C133.169 125.099 132.738 125.179 132.305 125.169C131.874 125.179 131.446 125.102 131.046 124.943C130.646 124.783 130.283 124.543 129.978 124.239C129.67 123.938 129.428 123.577 129.266 123.178C129.104 122.78 129.026 122.352 129.036 121.922C129.036 120.92 129.341 120.102 129.945 119.469C130.549 118.842 131.338 118.522 132.307 118.522C133.229 118.522 134.003 118.842 134.63 119.475C135.253 120.11 135.57 120.893 135.57 121.835C135.568 122.778 135.257 123.571 134.632 124.208ZM121.617 117.237V126.585C121.612 126.917 121.477 127.234 121.24 127.466C121.003 127.699 120.683 127.828 120.351 127.826C120.019 127.829 119.699 127.699 119.462 127.466C119.225 127.233 119.09 126.916 119.087 126.583C119.087 126.537 119.095 126.497 119.099 126.454V125.939C118.867 126.244 118.682 126.47 118.547 126.616C117.808 127.423 116.751 127.826 115.373 127.826C114.512 127.836 113.662 127.637 112.895 127.245C112.152 126.852 111.608 126.338 111.261 125.686C110.952 125.109 110.765 124.409 110.698 123.569C110.665 122.832 110.654 122.094 110.663 121.356V117.237C110.663 116.507 111.265 115.915 112.013 115.915C112.758 115.915 113.36 116.507 113.36 117.237C113.36 117.309 113.352 117.382 113.337 117.453V121.354C113.337 122.128 113.347 122.601 113.36 122.761C113.36 123.297 113.465 123.778 113.667 124.21C114.011 124.957 114.736 125.329 115.836 125.329C117.889 125.329 118.921 124.004 118.921 121.352V117.233C118.921 116.503 119.523 115.911 120.268 115.911C121.013 115.911 121.617 116.507 121.617 117.237ZM122.373 89.8193C122.202 89.8201 122.033 89.8547 121.875 89.9211C121.717 89.9875 121.574 90.0845 121.453 90.2064C121.333 90.3283 121.238 90.4728 121.174 90.6315C121.109 90.7903 121.077 90.9602 121.079 91.1314V95.062C120.45 94.5236 119.832 94.1531 119.217 93.9544C118.685 93.7884 118.131 93.7057 117.574 93.7093C115.988 93.7093 114.655 94.2805 113.584 95.4189C112.511 96.5497 111.977 97.9621 111.977 99.6486C111.977 101.337 112.506 102.761 113.576 103.921C114.645 105.08 115.956 105.657 117.513 105.657C118.804 105.657 119.869 105.296 120.718 104.573C120.9 104.422 121.063 104.251 121.206 104.063V104.328H121.221V104.33C121.221 105.013 121.767 105.568 122.445 105.568C123.122 105.568 123.672 105.011 123.672 104.33V91.1295C123.673 90.7837 123.537 90.4516 123.293 90.206C123.05 89.9604 122.719 89.8214 122.373 89.8193ZM120.247 102.055C119.635 102.686 118.865 103 117.937 103C117.046 103 116.284 102.686 115.662 102.049C115.359 101.741 115.12 101.376 114.96 100.975C114.801 100.573 114.723 100.144 114.732 99.7122C114.732 98.759 115.043 97.9621 115.658 97.3215C116.276 96.6789 117.036 96.3586 117.937 96.3586C118.894 96.3586 119.67 96.6693 120.268 97.2887C120.866 97.91 121.165 98.7069 121.165 99.691C121.163 100.633 120.859 101.424 120.247 102.055ZM107.363 126.215C107.363 126.881 106.823 127.423 106.157 127.423H99.4829C99.1622 127.423 98.8548 127.295 98.628 127.069C98.4013 126.842 98.274 126.535 98.274 126.214C98.274 125.893 98.4013 125.586 98.628 125.359C98.8548 125.132 99.1622 125.005 99.4829 125.005H101.526V114.734H99.4829V114.724C99.1628 114.724 98.8558 114.597 98.6294 114.371C98.4031 114.144 98.2759 113.837 98.2759 113.517C98.2759 113.197 98.4031 112.89 98.6294 112.664C98.8558 112.438 99.1628 112.31 99.4829 112.31H102.948C103.614 112.31 104.154 112.853 104.154 113.516C104.154 113.536 104.15 113.555 104.149 113.572H104.152V125.005H106.159C106.821 125.005 107.363 125.547 107.363 126.215ZM87.3497 119.4C86.7264 120.053 86.38 120.922 86.383 121.825C86.383 122.709 86.7072 123.587 87.3497 124.256C87.6498 124.574 88.0115 124.826 88.4126 124.999C88.8137 125.172 89.2458 125.261 89.6826 125.261C90.1193 125.261 90.5514 125.172 90.9526 124.999C91.3537 124.826 91.7153 124.574 92.0154 124.256C92.4978 123.757 93.5938 123.757 94.1129 124.256C94.6338 124.758 94.6338 125.57 94.1129 126.068C92.9323 127.201 91.3575 127.831 89.7212 127.824C88.0843 127.831 86.5089 127.201 85.3275 126.068C84.7537 125.521 84.2969 124.863 83.9847 124.134C83.6725 123.405 83.5114 122.62 83.5112 121.827C83.5111 121.034 83.6718 120.25 83.9836 119.521C84.2955 118.792 84.752 118.133 85.3256 117.586C87.7491 115.247 91.6932 115.247 94.1129 117.586C94.6338 118.088 94.6338 118.898 94.1129 119.4C93.5957 119.899 92.4978 119.899 92.0154 119.4C91.7153 119.082 91.3537 118.83 90.9526 118.657C90.5514 118.484 90.1193 118.395 89.6826 118.395C89.2458 118.395 88.8137 118.484 88.4126 118.657C88.0115 118.83 87.6498 119.082 87.3497 119.4ZM87.3092 97.2366C86.6724 97.9062 86.3541 98.7822 86.3541 99.6621C86.3541 100.542 86.6744 101.422 87.3092 102.093C87.6049 102.41 87.9627 102.663 88.3602 102.836C88.7577 103.008 89.1864 103.097 89.6199 103.097C90.0533 103.097 90.4821 103.008 90.8796 102.836C91.2771 102.663 91.6348 102.41 91.9305 102.093C92.4071 101.592 93.4915 101.592 94.0067 102.093C94.1285 102.211 94.2253 102.351 94.2915 102.507C94.3576 102.662 94.3917 102.829 94.3917 102.998C94.3917 103.167 94.3576 103.335 94.2915 103.49C94.2253 103.646 94.1285 103.786 94.0067 103.903C92.8429 105.035 91.2811 105.665 89.6575 105.657C88.0351 105.665 86.4745 105.035 85.3121 103.903C84.7435 103.353 84.2914 102.694 83.9826 101.965C83.6738 101.237 83.5147 100.453 83.5147 99.6621C83.5147 98.8707 83.6738 98.0875 83.9826 97.3589C84.2914 96.6303 84.7435 95.9712 85.3121 95.4209C86.4792 94.2949 88.0377 93.6657 89.6594 93.6657C91.2811 93.6657 92.8396 94.2949 94.0067 95.4209C94.1293 95.538 94.2269 95.6787 94.2936 95.8346C94.3602 95.9905 94.3946 96.1582 94.3946 96.3278C94.3946 96.4973 94.3602 96.6651 94.2936 96.8209C94.2269 96.9768 94.1293 97.1176 94.0067 97.2347C93.4954 97.7344 92.4071 97.7344 91.9305 97.2347C91.6348 96.9177 91.277 96.6649 90.8794 96.4922C90.4818 96.3195 90.0529 96.2304 89.6194 96.2306C89.1859 96.2308 88.7571 96.3202 88.3597 96.4933C87.9622 96.6663 87.6046 96.9194 87.3092 97.2366ZM137.628 104.009C137.755 103.887 137.855 103.741 137.924 103.58C137.992 103.418 138.028 103.244 138.028 103.069C138.028 102.893 137.992 102.719 137.924 102.558C137.855 102.396 137.755 102.25 137.628 102.128C137.098 101.609 136.122 101.609 135.626 102.128H135.629C134.988 102.671 134.179 102.978 133.339 102.998H132.916C132.002 102.998 131.23 102.79 130.611 102.367C130.312 102.169 130.056 101.913 129.856 101.615C129.657 101.317 129.518 100.983 129.449 100.631H136.938C137.344 100.625 137.731 100.459 138.014 100.168C138.297 99.8768 138.454 99.4853 138.449 99.0793L138.445 98.9674L138.449 98.9404C138.311 97.6414 137.748 96.4243 136.847 95.4788C135.739 94.2998 134.342 93.7074 132.656 93.7074C131.008 93.7074 129.613 94.2959 128.432 95.4633C127.859 96.0147 127.406 96.6783 127.101 97.4126C126.796 98.147 126.645 98.9364 126.659 99.7315C126.659 101.445 127.232 102.859 128.37 103.977C129.513 105.096 130.962 105.655 132.718 105.655H133.299C134.915 105.66 136.474 105.059 137.669 103.971L137.628 104.009Z" fill="#339933"/>
</svg>
