<svg width="155" height="136" viewBox="0 0 155 136" fill="none" xmlns="http://www.w3.org/2000/svg">
<rect width="155" height="136" fill="white"/>
<path d="M118 68.5C118 90.9238 99.8094 109 77.5 109C55.0763 109 37 90.8094 37 68.5C37 46.0763 55.1907 28 77.5 28C99.9238 28 118 46.0763 118 68.5Z" fill="#2C9942"/>
<path d="M57.25 84.9746C57.25 85.5466 57.1356 86.1187 56.4492 86.1187C56.106 86.1187 56.5636 86.1187 56.2204 86.1187C54.161 86.1187 52.7882 85.6611 51.8729 84.7458C51.0721 83.8305 50.6144 82.3433 50.6144 80.1695V72.8475C50.6144 71.7034 50.5 70.7882 50.1568 70.3305C49.8136 69.7585 49.2416 69.4153 48.4407 69.0721C47.9831 68.9576 47.7543 68.5 47.7543 68.0424C47.7543 67.5848 48.0975 67.1271 48.4407 67.0127C49.928 66.5551 50.7289 65.411 50.7289 63.4661V55.6864C50.7289 53.7415 51.1865 52.3687 51.9873 51.5678C52.9026 50.767 54.2754 50.3093 56.2204 50.3093H56.4492C57.0212 50.3093 57.25 50.767 57.25 51.4534C57.25 52.0254 57.1356 52.2542 56.4492 52.2542C54.9619 52.2542 53.9322 52.4831 53.4746 53.0551C52.9026 53.5127 52.6738 54.428 52.6738 55.8009V63.6949C52.6738 64.6102 52.5594 65.411 52.3305 66.2119C52.1017 67.0127 51.4153 67.6992 50.2712 68.2712C51.1865 68.7288 51.7585 69.3009 52.1017 69.9873C52.445 70.6737 52.6738 71.589 52.6738 72.8475V80.5127C52.6738 82 52.9026 82.9153 53.3602 83.4873C53.8178 83.9449 54.8475 84.1738 56.4492 84.2882C57.1356 84.1738 57.25 84.2882 57.25 84.9746Z" fill="#9ED8B3"/>
<path d="M98.4365 84.1737C99.9238 84.1737 100.953 83.9449 101.525 83.3728C101.983 82.9152 102.212 81.8855 102.212 80.3982V72.733C102.212 71.4745 102.441 70.5592 102.784 69.8728C103.127 69.1864 103.814 68.6143 104.614 68.1567C103.47 67.5847 102.784 66.8982 102.555 66.0974C102.326 65.2965 102.212 64.4957 102.212 63.5804V55.6864C102.212 54.3135 101.983 53.3982 101.411 52.9406C100.839 52.483 99.9238 52.2541 98.4365 52.1397C97.8645 52.1397 97.2924 52.0253 97.2924 51.3389C97.2924 50.7669 97.7501 50.1948 98.4365 50.1948H98.6653C100.61 50.1948 102.098 50.6525 102.898 51.4533C103.814 52.2541 104.157 53.7414 104.157 55.5719V63.3516C104.157 65.2965 104.958 66.555 106.445 66.8982C106.903 67.127 107.131 67.4703 107.131 67.9279C107.131 68.3855 106.788 68.8431 106.445 68.9576C105.644 69.1864 105.072 69.644 104.729 70.216C104.386 70.7881 104.271 71.5889 104.271 72.733V80.055C104.271 82.2287 103.814 83.716 103.013 84.6313C102.212 85.5466 100.725 86.0042 98.6653 86.0042C98.4365 86.0042 98.7797 86.0042 98.4365 86.0042C97.8645 86.0042 97.4068 85.5466 97.4068 84.8601C97.4068 84.2881 97.8645 84.1737 98.4365 84.1737Z" fill="#9ED8B3"/>
<path d="M72.0085 64.7247C73.1526 64.7247 74.1823 64.267 74.9831 63.4662C75.7839 62.6653 76.2416 61.6357 76.2416 60.4916C76.2416 59.3475 75.7839 58.3179 74.9831 57.517C74.1823 56.7162 73.1526 56.2586 72.0085 56.2586C70.8644 56.2586 69.8348 56.7162 69.0339 57.517C68.2331 58.3179 67.7755 59.3475 67.7755 60.4916C67.7755 61.6357 68.2331 62.6653 69.0339 63.4662C69.8348 64.267 70.8644 64.7247 72.0085 64.7247ZM70.2924 58.7755C70.75 58.3179 71.3221 58.0891 72.0085 58.0891C72.695 58.0891 73.267 58.3179 73.7246 58.7755C74.1822 59.2331 74.4111 59.8052 74.4111 60.4916C74.4111 61.1781 74.1822 61.7501 73.7246 62.2077C73.267 62.6653 72.695 62.8942 72.0085 62.8942C71.3221 62.8942 70.75 62.6653 70.2924 62.2077C69.8348 61.7501 69.606 61.1781 69.606 60.4916C69.606 59.8052 69.8348 59.2331 70.2924 58.7755ZM92.6018 58.2035C93.7458 58.2035 94.5467 58.6611 94.7755 59.6908H90.428C90.7712 58.6611 91.4577 58.2035 92.6018 58.2035ZM95.4619 73.0764C94.6611 72.2755 93.7458 71.9323 92.6018 71.9323C91.8009 71.9323 91.1145 72.1611 90.5424 72.6187C90.428 72.7331 90.3136 72.8476 90.1992 72.962V70.1018C90.1992 69.6442 89.7416 69.1865 89.284 69.1865C88.8263 69.1865 88.3687 69.6442 88.3687 70.1018V79.3687C88.3687 79.8264 88.7119 80.284 89.284 80.284C89.7416 80.284 90.1992 79.9408 90.1992 79.3687V79.1399C90.5424 79.5976 91.0001 79.8264 91.4577 80.0552C91.9153 80.1696 92.3729 80.284 92.8306 80.284C93.9746 80.284 94.8899 79.8264 95.6907 79.0255C96.4916 78.2247 96.8348 77.195 96.8348 76.0509C96.606 74.9069 96.2628 73.8772 95.4619 73.0764ZM93.9746 77.6526C93.517 78.1103 92.945 78.3391 92.3729 78.3391C91.6865 78.3391 91.2289 78.1103 90.7713 77.6526C90.3136 77.195 90.0848 76.623 90.0848 76.0509C90.0848 75.3645 90.3136 74.7925 90.7713 74.3348C91.2289 73.8772 91.8009 73.6484 92.3729 73.6484C93.0594 73.6484 93.517 73.8772 93.9746 74.3348C94.4323 74.7925 94.6611 75.3645 94.6611 75.9365C94.6611 76.7374 94.4323 77.3094 93.9746 77.6526ZM84.9365 72.8476V79.3687C84.9365 79.8264 84.5933 80.284 84.0212 80.284C83.5636 80.284 83.106 79.9408 83.106 79.3687V79.2543V78.9111C82.9916 79.1399 82.7628 79.2543 82.7628 79.3687C82.1907 79.9408 81.5043 80.1696 80.589 80.1696C79.9026 80.1696 79.3306 80.0552 78.8729 79.712C78.3009 79.4832 77.9577 79.0255 77.7289 78.5679C77.5 78.1103 77.3856 77.6526 77.3856 77.0806C77.3856 76.8518 77.3856 76.3942 77.3856 75.4789V72.6187C77.3856 72.1611 77.8433 71.7035 78.3009 71.7035C78.8729 71.7035 79.2162 72.1611 79.2162 72.6187V72.7331V75.4789C79.2162 76.0509 79.2162 76.3942 79.2162 76.5086C79.2162 76.8518 79.3306 77.195 79.445 77.5382C79.6738 78.1103 80.2458 78.3391 80.9323 78.3391C82.4195 78.3391 83.106 77.4238 83.106 75.5933V72.7331C83.106 72.2755 83.5636 71.8179 84.0212 71.8179C84.4789 71.9323 84.9365 72.2755 84.9365 72.8476ZM85.3941 53.6272C84.9365 53.6272 84.4789 54.0848 84.4789 54.5425V57.2882C84.0212 56.945 83.5636 56.6018 83.2204 56.4874C82.8772 56.373 82.534 56.373 82.0763 56.373C80.9323 56.373 80.017 56.7162 79.3306 57.517C78.5297 58.3179 78.1865 59.3475 78.1865 60.4916C78.1865 61.6357 78.5297 62.6653 79.3306 63.4662C80.1314 64.267 81.0467 64.7247 82.0763 64.7247C82.9916 64.7247 83.678 64.4959 84.3645 63.9238C84.4789 63.8094 84.5933 63.695 84.7077 63.5806V63.8094C84.7077 64.267 85.0509 64.7247 85.6229 64.7247C86.0806 64.7247 86.5382 64.3814 86.5382 63.8094V54.5425C86.3094 53.9704 85.9662 53.6272 85.3941 53.6272ZM83.9068 62.2077C83.4492 62.6653 82.9916 62.8942 82.3051 62.8942C81.7331 62.8942 81.1611 62.6653 80.7034 62.2077C80.2458 61.7501 80.017 61.1781 80.017 60.606C80.017 59.9196 80.2458 59.3475 80.7034 58.8899C81.1611 58.4323 81.6187 58.2035 82.3051 58.2035C82.9916 58.2035 83.5636 58.4323 83.9068 58.8899C84.3645 59.3475 84.4789 59.9196 84.4789 60.606C84.5933 61.1781 84.3645 61.7501 83.9068 62.2077ZM74.8687 79.1399C74.8687 79.5976 74.5255 79.9408 74.0678 79.9408H69.3772C68.9195 79.9408 68.5763 79.5976 68.5763 79.1399C68.5763 78.6823 68.9195 78.3391 69.3772 78.3391H70.8644V71.1314H69.3772C68.9195 71.1314 68.5763 70.7882 68.5763 70.3306C68.5763 69.873 68.9195 69.5298 69.3772 69.5298H71.7797C72.2373 69.5298 72.5805 69.873 72.5805 70.3306V78.3391H73.9534C74.5255 78.2247 74.8687 78.6823 74.8687 79.1399ZM60.9111 74.3348C60.4534 74.7925 60.2246 75.3645 60.2246 76.0509C60.2246 76.623 60.4534 77.3094 60.9111 77.767C61.8263 78.6823 63.3136 78.6823 64.2288 77.767C64.5721 77.4238 65.3729 77.4238 65.7161 77.767C66.0594 78.1103 66.0594 78.6823 65.7161 79.0255C64.9153 79.8264 63.7712 80.284 62.6272 80.284C61.4831 80.284 60.4534 79.8264 59.5382 79.0255C57.8221 77.4238 57.8221 74.6781 59.5382 73.0764C61.2543 71.4747 64 71.4747 65.7161 73.0764C66.0594 73.4196 66.0594 73.9916 65.7161 74.3348C65.3729 74.6781 64.5721 74.6781 64.2288 74.3348C63.1992 73.4196 61.8263 73.4196 60.9111 74.3348ZM60.7966 58.7755C60.339 59.2331 60.1102 59.8052 60.1102 60.4916C60.1102 61.0636 60.339 61.7501 60.7966 62.2077C61.7119 63.123 63.1992 63.123 64 62.2077C64.3433 61.8645 65.1441 61.8645 65.4873 62.2077C65.8305 62.5509 65.8305 63.123 65.4873 63.4662C64.6865 64.267 63.5424 64.7247 62.3983 64.7247C61.2543 64.7247 60.2246 64.267 59.3094 63.4662C57.5933 61.8645 57.5933 59.1187 59.3094 57.517C61.0255 55.9153 63.7712 55.9153 65.3729 57.517C65.7161 57.8603 65.7161 58.4323 65.3729 58.7755C65.0297 59.1187 64.2289 59.1187 63.8856 58.7755C63.1992 57.8603 61.7119 57.8603 60.7966 58.7755ZM96.1484 63.5806C96.4916 63.2374 96.4916 62.6653 96.1484 62.2077C95.8052 61.8645 95.1187 61.8645 94.7755 62.2077C94.3179 62.5509 93.7458 62.7797 93.1738 62.7797C93.1738 62.7797 92.945 62.7797 92.8306 62.7797C92.1441 62.7797 91.6865 62.6653 91.2289 62.3221C90.7712 61.9789 90.5424 61.6357 90.428 61.0636H95.6907C96.2628 61.0636 96.7204 60.606 96.7204 59.9196C96.7204 59.9196 96.7204 59.9196 96.7204 59.8052C96.606 58.8899 96.2628 58.0891 95.5763 57.4026C94.7755 56.6018 93.8602 56.1441 92.6018 56.1441C91.4577 56.1441 90.428 56.6018 89.6272 57.4026C88.8263 58.2035 88.3687 59.2331 88.3687 60.3772C88.3687 61.5213 88.7119 62.5509 89.5128 63.3518C90.3136 64.1526 91.3433 64.4959 92.6018 64.4959C92.7162 64.4959 92.945 64.4959 92.945 64.4959C94.2035 64.7247 95.2331 64.267 96.1484 63.5806Z" fill="white"/>
</svg>
