<svg width="155" height="136" viewBox="0 0 155 136" fill="none" xmlns="http://www.w3.org/2000/svg">
<rect width="155" height="136" fill="white"/>
<path d="M118 69.1273C117.884 69.2593 117.95 69.4079 117.934 69.54C117.917 70.6132 117.884 71.6698 117.768 72.743C117.486 75.3021 116.955 77.7952 116.209 80.2553C114.202 86.7108 110.818 92.3409 106.008 97.1124C100.484 102.61 93.8829 106.226 86.2696 107.976C83.8977 108.521 81.5092 108.851 79.071 108.934C78.9217 108.934 78.7558 108.917 78.6065 108.983C77.7606 108.983 76.9147 108.983 76.0522 108.983C75.8366 108.917 75.6043 108.934 75.3887 108.917C69.799 108.653 64.5078 107.25 59.5152 104.773C59.0508 104.542 58.5863 104.278 58.1219 104.03C58.0887 104.014 58.0556 103.981 58.0224 103.948C58.2049 103.964 58.3375 104.047 58.4702 104.113C61.7047 105.582 65.0718 106.606 68.5716 107.217C71.6069 107.745 74.6589 107.943 77.7274 107.762C87.6463 107.2 96.288 103.584 103.553 96.8152C109.358 91.4163 113.14 84.8121 115.064 77.1513C115.512 75.4012 115.827 73.6181 115.993 71.8184C116.209 69.4079 116.292 66.9974 116.093 64.5869C115.894 62.1599 115.495 59.7659 114.882 57.4214C113.555 52.3692 111.332 47.7463 108.214 43.5526C105.112 39.4085 101.38 35.9414 97.0178 33.1511C96.8851 33.0685 96.7358 33.0025 96.6529 32.8374C96.8022 32.92 96.9515 32.986 97.0842 33.0685C99.8376 34.5215 102.359 36.3046 104.681 38.3849C107.716 41.0926 110.271 44.1966 112.344 47.6802C113.969 50.388 115.23 53.2608 116.175 56.2656C116.739 58.0323 117.171 59.8154 117.469 61.648C117.751 63.3651 117.95 65.0657 117.967 66.7993C117.967 66.8818 117.95 66.9809 118.033 67.0634C118 67.7569 118 68.4503 118 69.1273Z" fill="#134395"/>
<path d="M76.5166 92.6382C63.0813 92.5886 52.3663 81.7909 52.3497 68.566C52.3331 55.2091 63.1974 44.4443 76.5498 44.4443C90.0182 44.4443 100.8 55.3742 100.733 68.6486C100.683 81.7248 90.0679 92.6217 76.5166 92.6382ZM63.9604 58.4947C62.6998 58.4947 61.5885 58.9405 60.7426 59.799C59.9962 60.5585 59.5981 61.4831 59.4986 62.5562C59.3991 63.6789 59.6147 64.7356 60.2616 65.6767C61.3563 67.2782 63.5292 67.9551 65.4532 67.2947C66.6807 66.882 67.4768 66.0399 67.9081 64.8347C67.991 64.587 67.991 64.587 67.7422 64.5045C67.3939 64.3889 67.029 64.2898 66.6807 64.1908C66.4153 64.1082 66.3987 64.1082 66.2826 64.3889C65.8679 65.33 65.1381 65.8253 64.1263 65.8748C63.0316 65.9244 62.1525 65.4951 61.6217 64.521C61.1739 63.712 61.1573 62.8204 61.4227 61.9454C61.7544 60.8887 62.6501 60.2118 63.7448 60.1457C64.9888 60.0797 65.7518 60.542 66.2328 61.6812C66.2992 61.8463 66.3821 61.8628 66.5314 61.8133C66.8963 61.6977 67.2612 61.5821 67.6261 61.4666C67.9247 61.3675 67.9247 61.3675 67.8251 61.0868C67.51 60.1622 66.9295 59.4523 66.0504 58.99C65.4035 58.6433 64.7068 58.4947 63.9604 58.4947ZM77.6113 66.7829C77.8767 67.0636 78.1753 67.2947 78.5568 67.3938C79.7344 67.7405 81.2438 67.3277 81.8741 65.8583C82.3054 64.8347 82.3219 63.7945 81.8741 62.7874C81.4428 61.7637 80.6467 61.2354 79.5188 61.1859C78.789 61.1529 78.1421 61.3345 77.5616 61.9288C77.5616 61.7307 77.5616 61.5986 77.5616 61.4666C77.5616 60.5915 77.5616 59.733 77.5616 58.8579C77.5616 58.4947 77.5947 58.4947 77.1966 58.4947C76.8815 58.4947 76.5663 58.4947 76.2346 58.4947C75.9361 58.4947 75.9361 58.4947 75.9195 58.7919C75.9195 58.8414 75.9195 58.8909 75.9195 58.957C75.9195 61.6151 75.9195 64.2568 75.9195 66.915C75.9195 67.3938 75.8697 67.3773 76.3507 67.3773C76.5498 67.3773 76.7488 67.3773 76.9478 67.3773C77.4786 67.3773 77.4786 67.3773 77.5284 66.8655C77.545 66.8324 77.5781 66.8159 77.6113 66.7829ZM59.9796 74.2786C59.9796 75.6325 59.9796 77.0028 59.9796 78.3567C59.9796 78.6374 59.9796 78.6374 60.2616 78.6374C60.6431 78.6374 61.0246 78.6374 61.4227 78.6374C61.7212 78.6374 61.7212 78.6374 61.7212 78.3237C61.7212 77.4651 61.7212 76.6066 61.7212 75.748C61.7212 75.2032 61.6549 75.2692 62.2022 75.2692C63.0647 75.2692 63.9273 75.2692 64.7898 75.2692C65.0717 75.2692 65.0717 75.2692 65.0883 74.9886C65.0883 74.6749 65.0883 74.3612 65.0883 74.031C65.0883 73.7008 65.0883 73.7008 64.7732 73.7008C63.8775 73.7008 62.9984 73.7008 62.1027 73.7008C61.7046 73.7008 61.7046 73.7008 61.7046 73.288C61.7046 72.8587 61.7046 72.4129 61.7046 71.9837C61.7046 71.5214 61.6715 71.5709 62.1027 71.5709C63.0979 71.5709 64.0931 71.5709 65.0883 71.5709C65.503 71.5709 65.503 71.637 65.503 71.1747C65.503 70.8775 65.503 70.5968 65.503 70.2996C65.503 69.9694 65.503 69.9694 65.1547 69.9694C63.5458 69.9694 61.9534 69.9694 60.3445 69.9694C59.9962 69.9694 59.9962 69.9694 59.9962 70.3161C59.9796 71.637 59.9796 72.9578 59.9796 74.2786ZM84.528 64.7851C84.8763 64.7851 85.1914 64.7851 85.5066 64.7851C86.5184 64.7851 87.5302 64.7851 88.5254 64.7851C88.8239 64.7851 88.8239 64.7851 88.8405 64.4714C88.8571 64.0917 88.8239 63.7285 88.741 63.3652C88.5751 62.6058 88.2102 61.9454 87.497 61.5491C85.7388 60.575 83.4996 61.3345 82.9522 63.4313C82.8693 63.7285 82.8527 64.0257 82.8527 64.3394C82.8527 66.4857 84.6109 67.9056 86.7174 67.4433C87.5633 67.2617 88.2102 66.7829 88.5917 65.9904C88.7742 65.6272 88.7576 65.6107 88.3927 65.5116C88.1439 65.4456 87.9117 65.3795 87.6629 65.297C87.4472 65.2144 87.3477 65.2309 87.2316 65.4621C86.9165 66.0234 86.2862 66.2546 85.6227 66.0895C85.009 65.9409 84.6109 65.4951 84.528 64.7851ZM69.716 69.7548C70.1805 69.7548 70.6283 69.7383 71.0761 69.7548C71.3084 69.7713 71.4245 69.6722 71.524 69.4741C72.6851 66.8655 73.8627 64.2733 75.0404 61.6812C75.0901 61.5821 75.1565 61.4996 75.0901 61.351C74.6589 61.351 74.2276 61.3675 73.7964 61.351C73.5144 61.3345 73.3817 61.417 73.2656 61.6812C72.9007 62.6058 72.486 63.5304 72.1045 64.4549C72.0548 64.554 72.0382 64.6696 71.9552 64.7521C71.8391 64.6696 71.8225 64.554 71.7728 64.4384C71.3415 63.4973 70.9103 62.5728 70.4956 61.6317C70.4458 61.5161 70.4127 61.3345 70.2136 61.351C69.6663 61.351 69.1355 61.351 68.5881 61.351C68.555 61.5491 68.6545 61.6647 68.7208 61.7803C69.4506 63.2827 70.1639 64.7686 70.9103 66.2546C71.043 66.5022 71.0264 66.7003 70.9103 66.948C70.5288 67.7405 70.1805 68.533 69.8321 69.3255C69.7658 69.4411 69.6829 69.5566 69.716 69.7548ZM76.301 72.446C75.5214 72.4295 74.8911 72.6441 74.3935 73.1889C73.5641 74.1135 73.8295 75.4343 74.9408 75.9792C75.2062 76.1113 75.4882 76.1773 75.7702 76.2434C76.0522 76.3094 76.3341 76.3589 76.6161 76.458C76.9313 76.5571 77.0971 76.7882 77.0639 77.0359C77.0308 77.3 76.8317 77.4816 76.5332 77.5477C75.9858 77.6633 75.3555 77.4321 75.2062 76.8377C75.1731 76.7056 75.1233 76.6726 74.9906 76.7056C74.6423 76.7882 74.294 76.8542 73.9456 76.9368C73.7964 76.9698 73.7632 77.0359 73.8129 77.1844C73.9788 77.8284 74.3769 78.2741 74.9574 78.5713C75.3721 78.786 75.8199 78.8355 76.2678 78.852C76.7986 78.852 77.3293 78.7694 77.7772 78.4557C78.3743 78.0595 78.6729 77.4816 78.6397 76.7717C78.6065 76.0617 78.225 75.5664 77.5947 75.2527C77.3625 75.1372 77.0971 75.0546 76.8483 75.0051C76.5332 74.939 76.218 74.873 75.9195 74.807C75.6043 74.7244 75.4384 74.5428 75.4384 74.2951C75.4384 74.031 75.6541 73.7998 75.9692 73.7338C76.5 73.6347 76.9644 73.7998 77.1303 74.3116C77.1966 74.4933 77.2796 74.4933 77.4289 74.4602C77.744 74.3777 78.0426 74.3116 78.3577 74.2456C78.5568 74.2126 78.5733 74.1135 78.5236 73.9484C78.3577 73.3871 78.0094 72.9743 77.4786 72.7266C77.0971 72.512 76.6825 72.4295 76.301 72.446ZM83.1347 77.2835C82.9357 77.2835 82.7698 77.2835 82.5873 77.2835C82.1395 77.267 81.9404 77.1019 81.9239 76.6726C81.9073 75.8801 81.9239 75.0876 81.9073 74.2951C81.9073 74.13 81.9736 74.064 82.1395 74.064C82.3883 74.064 82.6371 74.064 82.9025 74.064C83.0683 74.064 83.1347 73.9979 83.1347 73.8328C83.1181 73.5026 83.1181 73.1724 83.1347 72.8422C83.1347 72.6606 83.0518 72.6111 82.9025 72.6276C82.6537 72.6276 82.4049 72.6276 82.1395 72.6276C81.957 72.6276 81.9073 72.5615 81.9073 72.3964C81.9073 71.9672 81.9073 71.5214 81.9073 71.0921C81.9073 70.894 81.8575 70.7949 81.6419 70.8114C81.4428 70.8279 81.2438 70.8114 81.0448 70.8114C80.4145 70.8114 80.3979 70.8114 80.4311 71.4388C80.4642 72.0992 80.2154 72.6771 79.3695 72.6276C79.2368 72.6276 79.1705 72.6771 79.187 72.8092C79.187 73.0238 79.187 73.2385 79.187 73.4366C79.187 74.064 79.1871 74.064 79.8173 74.064C80.3481 74.064 80.2818 74.031 80.2818 74.5263C80.2818 75.3518 80.2652 76.1608 80.2818 76.9863C80.2984 77.5807 80.514 78.0925 81.0448 78.4227C81.6419 78.8025 82.3054 78.786 82.9688 78.6374C83.0683 78.6209 83.1347 78.5548 83.1347 78.4557C83.1347 78.0595 83.1347 77.6632 83.1347 77.2835ZM91.5939 62.0444C91.511 61.8463 91.5442 61.6812 91.5442 61.5326C91.5442 61.384 91.4778 61.318 91.3285 61.3345C90.9636 61.3345 90.6153 61.3345 90.2504 61.3345C89.9352 61.3345 89.9352 61.3345 89.9187 61.6647C89.9187 62.903 89.9187 64.1412 89.9187 65.396C89.9187 65.9574 89.9187 66.5352 89.9187 67.0966C89.9187 67.2947 89.9684 67.3773 90.1841 67.3773C90.5158 67.3608 90.8475 67.3773 91.1793 67.3773C91.5773 67.3773 91.5773 67.4103 91.5773 66.9975C91.5773 66.2381 91.5773 65.4621 91.5773 64.7026C91.5773 64.4549 91.5939 64.2073 91.6603 63.9596C91.8096 63.3818 92.2408 63.002 92.8379 62.9525C93.037 62.936 93.236 62.936 93.435 62.9525C93.5677 62.9525 93.6341 62.936 93.6341 62.7874C93.6341 62.3581 93.6341 61.9123 93.6341 61.4831C93.6341 61.3675 93.5843 61.318 93.4682 61.3014C92.8545 61.2684 92.274 61.3675 91.8096 61.8133C91.7598 61.8628 91.6934 61.9454 91.5939 62.0444ZM71.2088 73.321C71.2088 73.1559 71.2088 73.0073 71.2088 72.8587C71.2254 72.6936 71.1591 72.6276 70.9766 72.6276C70.6283 72.6441 70.28 72.6276 69.9482 72.6276C69.6165 72.6276 69.6165 72.6276 69.6165 72.9743C69.6165 74.4767 69.6165 75.9792 69.6165 77.4816C69.6165 77.7953 69.6165 78.109 69.6165 78.4392C69.6165 78.5878 69.6663 78.6539 69.8155 78.6539C70.2302 78.6539 70.6449 78.6374 71.043 78.6539C71.2254 78.6539 71.2586 78.5548 71.2586 78.4062C71.2586 77.7458 71.2586 77.0854 71.2586 76.425C71.2586 76.1113 71.2586 75.7976 71.2918 75.4839C71.3747 74.7079 71.8889 74.2456 72.6685 74.2126C72.8012 74.2126 72.9339 74.1961 73.0665 74.2126C73.2656 74.2456 73.3153 74.163 73.3153 73.9814C73.2988 73.6017 73.2988 73.222 73.3153 72.8257C73.3153 72.6606 73.2656 72.578 73.0997 72.578C72.486 72.5615 71.9055 72.6606 71.4576 73.1229C71.3913 73.1889 71.3581 73.288 71.2088 73.321ZM68.1735 75.6655C68.1735 74.7409 68.1735 73.8163 68.1735 72.8917C68.1735 72.6936 68.1237 72.6111 67.9081 72.6111C67.5432 72.6276 67.1617 72.6111 66.7968 72.6111C66.5148 72.6111 66.5148 72.6111 66.5148 72.8917C66.5148 74.0475 66.5148 75.2197 66.5148 76.3754C66.5148 77.0359 66.5148 77.6963 66.5148 78.3567C66.5148 78.5548 66.5645 78.6374 66.7802 78.6374C67.1451 78.6209 67.5266 78.6374 67.8915 78.6374C68.1735 78.6374 68.1735 78.6374 68.1735 78.3567C68.1735 77.4651 68.1735 76.5736 68.1735 75.6655ZM67.3275 71.6535C67.8915 71.6535 68.3393 71.2077 68.3393 70.6628C68.3393 70.085 67.8749 69.6227 67.311 69.6227C66.7636 69.6392 66.3157 70.1015 66.3157 70.6463C66.3157 71.2077 66.7802 71.6535 67.3275 71.6535Z" fill="#114294"/>
<path d="M110.32 62.9856C110.868 65.5447 111.1 68.1368 110.984 70.762C110.785 75.3354 109.707 79.6776 107.733 83.8052C105.593 88.2795 102.608 92.1264 98.776 95.2799C96.2382 97.3768 93.4848 99.1599 90.5158 100.613C87.3975 102.148 84.0801 103.122 80.6301 103.618C78.0426 103.981 75.455 104.03 72.8509 103.783C65.8513 103.089 59.6645 100.464 54.3235 95.9073C52.2834 94.1572 50.5418 92.143 48.9826 89.9471C46.9424 87.0578 45.2008 83.9868 44.0066 80.6517C43.1275 78.2082 42.5635 75.6986 42.2816 73.1065C42.0825 71.2903 42.0494 69.4742 42.1489 67.6415C42.1655 67.2618 42.1986 66.882 42.2484 66.5023C42.265 66.3702 42.2318 66.2051 42.3811 66.1061C42.5138 66.2381 42.4474 66.3867 42.464 66.5188C42.5304 70.0851 43.0611 73.5853 44.1725 76.9864C45.2672 80.338 46.8429 83.442 48.8665 86.3313C50.1769 88.2135 51.5536 90.0296 53.1625 91.6807C57.1267 95.6927 61.8042 98.4829 67.2446 100.035C70.5785 100.993 73.9622 101.372 77.4289 101.207C82.0731 101.009 86.452 99.8368 90.5655 97.707C93.518 96.1715 96.3377 94.4049 98.8257 92.176C101.297 89.9801 103.42 87.5035 105.162 84.6968C107.268 81.3286 108.728 77.6964 109.591 73.8329C110.005 72.0003 110.254 70.1511 110.37 68.2689C110.47 66.5849 110.436 64.9173 110.32 63.2498C110.32 63.1672 110.32 63.0847 110.32 62.9856Z" fill="#134395"/>
<path d="M82.6869 40.1353C84.6275 40.3664 86.6013 40.8452 88.4756 41.5882C96.2714 44.7086 101.679 50.1736 104.697 57.9665C105.51 60.0468 106.041 62.2262 106.306 64.4386C106.505 66.0731 106.572 67.6911 106.489 69.3421C106.207 75.0547 104.333 80.206 100.965 84.8124C98.2286 88.5272 94.7288 91.334 90.5158 93.2492C90.2006 93.3978 89.8689 93.5299 89.5372 93.6454C96.288 89.4518 100.849 83.5411 102.939 75.9133C105.046 68.2359 104.051 60.8393 100.086 53.9379C96.1221 47.0366 90.1675 42.5293 82.6869 40.1353Z" fill="#134395"/>
<path d="M52.0014 44.1472C52.8639 43.0906 53.7762 42.0834 54.7714 41.1423C58.802 37.3945 63.496 34.8849 68.8369 33.531C71.9884 32.7385 75.1731 32.4083 78.4241 32.6065C86.6842 33.1018 93.8497 36.1562 99.7878 41.9348C101.977 44.0647 103.785 46.5247 105.195 49.2324C105.245 49.3315 105.295 49.4471 105.344 49.5461C105.361 49.5626 105.344 49.5957 105.328 49.6452C105.162 49.6122 105.112 49.4636 105.029 49.3645C103.072 46.9705 100.882 44.8076 98.4277 42.9089C94.5795 39.9041 90.2836 37.7907 85.5729 36.5029C83.3503 35.892 81.0779 35.5123 78.7724 35.3472C71.6069 34.8519 64.9059 36.3708 58.6029 39.772C56.3969 40.9607 54.3235 42.3641 52.3663 43.9326C52.2668 44.0317 52.1839 44.1802 52.0014 44.1472Z" fill="#134395"/>
<path d="M69.6829 28.1815C64.8064 29.3373 60.2118 31.203 55.9656 33.8941C48.8831 38.4015 43.6749 44.5103 40.258 52.1546C38.815 55.3907 37.8529 58.7588 37.289 62.259C36.7914 65.3299 36.6753 68.4009 36.8909 71.4883C37.3221 77.8778 39.1633 83.8711 42.2318 89.4846C42.2982 89.6167 42.3811 89.7653 42.4143 89.9304C42.2982 89.7818 42.1821 89.6332 42.0825 89.4846C39.3457 85.6212 37.4383 81.3946 36.2938 76.8047C35.6635 74.2951 35.282 71.736 35.1659 69.1438C34.801 60.9052 36.7914 53.2773 41.1703 46.2935C46.4449 37.8897 53.8757 32.2596 63.4131 29.3703C65.2874 28.8089 67.2114 28.4292 69.1687 28.165C69.3014 28.165 69.5004 28.1815 69.6829 28.1815Z" fill="#134395"/>
<path d="M48.9329 59.8816C47.1581 73.7338 51.8521 84.9609 63.0979 93.4802C48.8333 88.3455 43.1773 71.5049 48.9329 59.8816Z" fill="#134395"/>
<path d="M96.5036 32.8046L96.487 32.8211L96.4704 32.8046C96.487 32.8046 96.487 32.7881 96.5036 32.7881C96.487 32.7716 96.487 32.7881 96.5036 32.8046Z" fill="#134395"/>
<path d="M52.018 44.1472V44.1637L52.0014 44.1472H52.018Z" fill="#134395"/>
<path d="M105.411 49.7442C105.411 49.7607 105.394 49.7607 105.394 49.7772C105.378 49.7607 105.361 49.7607 105.361 49.7442C105.378 49.7277 105.378 49.7277 105.394 49.7112C105.394 49.7277 105.411 49.7442 105.411 49.7442Z" fill="#134395"/>
<path d="M42.5635 90.1452L42.547 90.1287H42.5635V90.1452Z" fill="#134395"/>
<path d="M63.9604 58.4946C64.7069 58.4781 65.4035 58.6267 66.067 58.9734C66.9295 59.4357 67.5266 60.1457 67.8417 61.0703C67.9413 61.3509 67.9247 61.3509 67.6427 61.45C67.2778 61.5656 66.9129 61.6811 66.548 61.7967C66.3987 61.8463 66.3158 61.8297 66.2494 61.6646C65.7518 60.5254 64.9888 60.0631 63.7614 60.1292C62.6667 60.1952 61.771 60.8721 61.4393 61.9288C61.1573 62.8039 61.1905 63.6789 61.6383 64.5044C62.1691 65.4785 63.0482 65.9078 64.1429 65.8583C65.1547 65.8087 65.8845 65.3134 66.2992 64.3723C66.4153 64.1082 66.4153 64.1082 66.6973 64.1742C67.0456 64.2733 67.4105 64.3889 67.7588 64.4879C68.0076 64.5705 68.0076 64.5705 67.9247 64.8181C67.4934 66.0234 66.6973 66.8654 65.4698 67.2782C63.5458 67.9386 61.3729 67.2617 60.2782 65.6602C59.6313 64.7191 59.4323 63.6624 59.5152 62.5397C59.5981 61.483 59.9962 60.5419 60.7592 59.7825C61.5885 58.9404 62.6999 58.4946 63.9604 58.4946Z" fill="#FEFEFF"/>
<path d="M77.6113 66.7827C77.5781 66.8157 77.5615 66.8488 77.545 66.8653C77.4952 67.3771 77.4952 67.3771 76.9644 67.3771C76.7654 67.3771 76.5663 67.3771 76.3673 67.3771C75.8697 67.3771 75.9361 67.4101 75.9361 66.9148C75.9361 64.2566 75.9361 61.615 75.9361 58.9568C75.9361 58.9073 75.9361 58.8577 75.9361 58.7917C75.9361 58.4945 75.9361 58.4945 76.2512 58.4945C76.5663 58.4945 76.8815 58.4945 77.2132 58.4945C77.6113 58.4945 77.5781 58.478 77.5781 58.8577C77.5781 59.7328 77.5781 60.5913 77.5781 61.4664C77.5781 61.5984 77.5781 61.714 77.5781 61.9287C78.1587 61.3343 78.8056 61.1527 79.5354 61.1857C80.6467 61.2352 81.4428 61.7636 81.8907 62.7872C82.3219 63.8108 82.3219 64.851 81.8907 65.8581C81.2604 67.3276 79.751 67.7403 78.5733 67.3936C78.1753 67.278 77.8767 67.0634 77.6113 66.7827ZM80.514 64.2401C80.514 64.2236 80.514 64.1245 80.4974 64.009C80.3979 63.233 79.8671 62.6881 79.1373 62.6386C78.4075 62.5891 77.7938 63.0183 77.5947 63.7448C77.4786 64.1576 77.4786 64.5703 77.6113 64.9831C77.8269 65.66 78.3743 66.0563 79.0709 66.0232C79.7344 66.0067 80.2486 65.5775 80.431 64.9005C80.4974 64.7189 80.5306 64.5208 80.514 64.2401Z" fill="#FEFEFF"/>
<path d="M59.9796 74.2787C59.9796 72.9579 59.9796 71.637 59.9796 70.3162C59.9796 69.9695 59.9796 69.9695 60.3279 69.9695C61.9368 69.9695 63.5292 69.9695 65.1381 69.9695C65.4864 69.9695 65.4864 69.9695 65.4864 70.2997C65.4864 70.5969 65.4864 70.8776 65.4864 71.1747C65.4864 71.637 65.4864 71.571 65.0717 71.571C64.0765 71.571 63.0813 71.571 62.0861 71.571C61.6549 71.571 61.688 71.5215 61.688 71.9838C61.688 72.413 61.688 72.8588 61.688 73.2881C61.688 73.7008 61.688 73.7008 62.0861 73.7008C62.9818 73.7008 63.8609 73.7008 64.7566 73.7008C65.0717 73.7008 65.0717 73.7008 65.0717 74.031C65.0717 74.3447 65.0717 74.6584 65.0717 74.9886C65.0717 75.2693 65.0717 75.2693 64.7732 75.2693C63.9107 75.2693 63.0482 75.2693 62.1856 75.2693C61.6217 75.2693 61.7046 75.2033 61.7046 75.7481C61.7046 76.6067 61.7046 77.4652 61.7046 78.3237C61.7046 78.6209 61.7046 78.6374 61.4061 78.6374C61.0246 78.6374 60.6431 78.6374 60.245 78.6374C59.963 78.6374 59.963 78.6374 59.963 78.3568C59.9796 77.0029 59.9796 75.6491 59.9796 74.2787Z" fill="#FEFEFF"/>
<path d="M84.528 64.7853C84.6109 65.4952 85.009 65.941 85.6559 66.1061C86.3193 66.2712 86.9662 66.0401 87.2648 65.4787C87.3809 65.2641 87.497 65.2476 87.696 65.3136C87.9282 65.3961 88.177 65.4622 88.4258 65.5282C88.7907 65.6438 88.8073 65.6438 88.6249 66.007C88.2434 66.7995 87.6131 67.2783 86.7506 67.4599C84.6441 67.9222 82.8859 66.5023 82.8859 64.356C82.8859 64.0588 82.9025 63.7451 82.9854 63.4479C83.5328 61.3346 85.772 60.5751 87.5302 61.5657C88.2268 61.962 88.6083 62.6059 88.7742 63.3819C88.8571 63.7451 88.8903 64.1083 88.8737 64.4881C88.8571 64.7853 88.8571 64.8018 88.5585 64.8018C87.5467 64.8018 86.535 64.8018 85.5398 64.8018C85.1914 64.7853 84.8763 64.7853 84.528 64.7853ZM84.5611 63.646C85.4071 63.646 86.2198 63.646 87.0491 63.646C87.1984 63.646 87.215 63.5635 87.1984 63.4479C87.1487 63.1672 87.016 62.9361 86.7838 62.7545C86.3525 62.4243 85.6061 62.3913 85.1417 62.6884C84.8099 62.9031 84.5943 63.2168 84.5611 63.646Z" fill="#FEFEFF"/>
<path d="M69.716 69.7549C69.6829 69.5567 69.7824 69.4577 69.8322 69.3421C70.1971 68.5496 70.5454 67.7571 70.9103 66.9646C71.0264 66.717 71.0264 66.5188 70.9103 66.2712C70.1639 64.7852 69.4507 63.2828 68.7208 61.7969C68.6545 61.6648 68.555 61.5492 68.5881 61.3676C69.1355 61.3676 69.6663 61.3676 70.2136 61.3676C70.4127 61.3676 70.4293 61.5327 70.4956 61.6483C70.9269 62.5894 71.3581 63.5139 71.7728 64.455C71.8226 64.5541 71.8391 64.6862 71.9553 64.7687C72.0382 64.6862 72.0714 64.5706 72.1045 64.4715C72.5026 63.547 72.9007 62.6224 73.2656 61.6978C73.3817 61.4171 73.5144 61.3511 73.7964 61.3676C74.2276 61.3841 74.6755 61.3676 75.0902 61.3676C75.1565 61.5162 75.0736 61.5987 75.0404 61.6978C73.8627 64.2899 72.6851 66.8986 71.524 69.4907C71.4245 69.7053 71.3084 69.7879 71.0762 69.7714C70.6283 69.7384 70.1805 69.7549 69.716 69.7549Z" fill="#FEFEFF"/>
<path d="M76.301 72.4461C76.6825 72.4296 77.0971 72.5122 77.4786 72.7103C78.0094 72.9745 78.3577 73.3707 78.5236 73.9321C78.5734 74.0972 78.5568 74.1962 78.3577 74.2293C78.0426 74.2788 77.744 74.3613 77.4289 74.4439C77.2796 74.4769 77.1967 74.4769 77.1303 74.2953C76.9644 73.8 76.5 73.6184 75.9692 73.7174C75.6541 73.767 75.4385 74.0146 75.4385 74.2788C75.4385 74.5264 75.5877 74.7081 75.9195 74.7906C76.218 74.8732 76.5332 74.9227 76.8483 74.9887C77.1137 75.0383 77.3625 75.1208 77.5947 75.2364C78.225 75.5501 78.6065 76.0454 78.6397 76.7554C78.6729 77.4653 78.3743 78.0267 77.7772 78.4394C77.3128 78.7531 76.7986 78.8357 76.2678 78.8357C75.82 78.8357 75.3721 78.7696 74.9574 78.555C74.3769 78.2578 73.9788 77.812 73.813 77.1681C73.7798 77.0195 73.813 76.937 73.9457 76.9205C74.294 76.8379 74.6423 76.7719 74.9906 76.6893C75.1233 76.6563 75.1897 76.7058 75.2062 76.8214C75.3389 77.4158 75.9858 77.6469 76.5332 77.5313C76.8483 77.4653 77.0474 77.2837 77.064 77.0195C77.0971 76.7719 76.9313 76.5407 76.6161 76.4417C76.3341 76.3591 76.0522 76.3096 75.7702 76.227C75.4882 76.161 75.2062 76.0949 74.9409 75.9629C73.8296 75.418 73.5642 74.0972 74.3935 73.1726C74.8911 72.6443 75.538 72.4296 76.301 72.4461Z" fill="#FEFEFF"/>
<path d="M83.1347 77.2834C83.1347 77.6632 83.1347 78.0594 83.1347 78.4557C83.1347 78.5712 83.0683 78.6208 82.9688 78.6373C82.3053 78.7859 81.6419 78.8024 81.0448 78.4226C80.514 78.0924 80.2984 77.5806 80.2818 76.9862C80.2652 76.1607 80.2818 75.3517 80.2818 74.5262C80.2818 74.0144 80.3481 74.0639 79.8173 74.0639C79.1871 74.0639 79.187 74.0639 79.187 73.4365C79.187 73.2219 79.187 73.0072 79.187 72.8091C79.187 72.677 79.2368 72.611 79.3695 72.6275C80.2154 72.677 80.4642 72.0992 80.4311 71.4387C80.4145 70.8113 80.4311 70.8113 81.0448 70.8113C81.2438 70.8113 81.4428 70.8279 81.6419 70.8113C81.8575 70.7948 81.9073 70.8939 81.9073 71.092C81.9073 71.5213 81.9073 71.9671 81.9073 72.3963C81.9073 72.5615 81.957 72.6275 82.1395 72.6275C82.3883 72.611 82.6371 72.6275 82.9025 72.6275C83.0683 72.6275 83.1513 72.677 83.1347 72.8421C83.1181 73.1723 83.1181 73.5025 83.1347 73.8328C83.1347 73.9979 83.0849 74.0804 82.9025 74.0639C82.6537 74.0639 82.4049 74.0639 82.1395 74.0639C81.9736 74.0639 81.8907 74.1134 81.9073 74.295C81.9073 75.0875 81.9073 75.88 81.9239 76.6725C81.9404 77.1018 82.1395 77.2669 82.5873 77.2834C82.7532 77.2834 82.9191 77.2834 83.1347 77.2834Z" fill="#FEFEFF"/>
<path d="M91.5939 62.0444C91.6934 61.9453 91.7598 61.8627 91.8261 61.7967C92.2906 61.3509 92.8711 61.2519 93.4848 61.2849C93.6009 61.2849 93.6507 61.3509 93.6507 61.4665C93.6507 61.8958 93.6507 62.3415 93.6507 62.7708C93.6507 62.9194 93.5843 62.9359 93.4516 62.9359C93.2526 62.9194 93.0536 62.9194 92.8545 62.9359C92.2574 62.9854 91.8261 63.3652 91.6769 63.9431C91.6105 64.1907 91.5939 64.4384 91.5939 64.686C91.5939 65.4455 91.5939 66.2215 91.5939 66.981C91.5939 67.3937 91.5939 67.3607 91.1958 67.3607C90.8641 67.3607 90.5324 67.3442 90.2006 67.3607C89.985 67.3772 89.9353 67.2782 89.9353 67.08C89.9518 66.5187 89.9353 65.9408 89.9353 65.3795C89.9353 64.1412 89.9353 62.9029 89.9353 61.6481C89.9353 61.3179 89.9353 61.3179 90.267 61.3179C90.6319 61.3179 90.9802 61.3179 91.3451 61.3179C91.4944 61.3179 91.5608 61.3674 91.5608 61.516C91.5442 61.6976 91.511 61.8462 91.5939 62.0444Z" fill="#FEFEFF"/>
<path d="M71.2088 73.321C71.3581 73.288 71.3913 73.1889 71.4576 73.1229C71.9055 72.6606 72.486 72.545 73.0997 72.578C73.2656 72.578 73.3319 72.6606 73.3153 72.8257C73.2988 73.2054 73.2988 73.5851 73.3153 73.9814C73.3153 74.163 73.2822 74.2456 73.0665 74.2125C72.9338 74.196 72.8012 74.196 72.6685 74.2125C71.8889 74.2456 71.3747 74.7079 71.2918 75.4838C71.2586 75.7975 71.2586 76.1112 71.2586 76.4249C71.2586 77.0853 71.2586 77.7458 71.2586 78.4062C71.2586 78.5548 71.242 78.6538 71.043 78.6538C70.6283 78.6373 70.2136 78.6538 69.8155 78.6538C69.6497 78.6538 69.6165 78.5878 69.6165 78.4392C69.6165 78.1255 69.6165 77.8118 69.6165 77.4816C69.6165 75.9792 69.6165 74.4767 69.6165 72.9743C69.6165 72.6275 69.6165 72.6275 69.9482 72.6275C70.2966 72.6275 70.6449 72.6275 70.9766 72.6275C71.1591 72.6275 71.2088 72.6936 71.2088 72.8587C71.1922 73.0073 71.2088 73.1394 71.2088 73.321Z" fill="#FEFEFF"/>
<path d="M68.1735 75.6655C68.1735 76.5571 68.1735 77.4651 68.1735 78.3567C68.1735 78.6374 68.1735 78.6374 67.8915 78.6374C67.5266 78.6374 67.1451 78.6208 66.7802 78.6374C66.5646 78.6539 66.5148 78.5548 66.5148 78.3567C66.5314 77.6963 66.5148 77.0359 66.5148 76.3754C66.5148 75.2197 66.5148 74.0475 66.5148 72.8918C66.5148 72.6111 66.5148 72.6111 66.7968 72.6111C67.1617 72.6111 67.5432 72.6276 67.9081 72.6111C68.1237 72.6111 68.1735 72.6936 68.1735 72.8918C68.1735 73.8163 68.1735 74.7409 68.1735 75.6655Z" fill="#FEFEFF"/>
<path d="M67.3275 71.6535C66.7802 71.6535 66.3158 71.2077 66.3158 70.6464C66.3158 70.1015 66.7636 69.6392 67.311 69.6227C67.8749 69.6062 68.3393 70.085 68.3393 70.6629C68.3393 71.2077 67.8915 71.6535 67.3275 71.6535Z" fill="#FEFEFF"/>
<path d="M80.514 64.2405C80.514 64.5377 80.4974 64.7193 80.4476 64.9174C80.2652 65.5943 79.7676 66.0236 79.0875 66.0401C78.3909 66.0566 77.8435 65.6769 77.6279 65C77.4952 64.5872 77.4952 64.1744 77.6113 63.7617C77.8104 63.0352 78.4075 62.6059 79.1539 62.6555C79.8671 62.705 80.4145 63.2333 80.514 64.0258C80.514 64.1084 80.514 64.224 80.514 64.2405Z" fill="#134395"/>
<path d="M84.5612 63.646C84.5943 63.2003 84.7934 62.9031 85.1417 62.6884C85.6227 62.3747 86.3525 62.4078 86.7838 62.7545C87.016 62.9361 87.1487 63.1672 87.1984 63.4479C87.215 63.5635 87.1984 63.646 87.0491 63.646C86.2364 63.646 85.4237 63.646 84.5612 63.646Z" fill="#134395"/>
</svg>
