<svg width="83" height="136" viewBox="0 0 83 136" fill="none" xmlns="http://www.w3.org/2000/svg">
<g clip-path="url(#clip0)">
<rect width="83" height="136" fill="white"/>
<path d="M83 69.1273C82.8839 69.2593 82.9503 69.4079 82.9337 69.54C82.9171 70.6132 82.8839 71.6698 82.7678 72.743C82.4859 75.3021 81.9551 77.7952 81.2087 80.2553C79.2017 86.7108 75.818 92.3409 71.0078 97.1124C65.4844 102.61 58.8829 106.226 51.2696 107.976C48.8977 108.521 46.5092 108.851 44.071 108.934C43.9217 108.934 43.7558 108.917 43.6065 108.983C42.7606 108.983 41.9147 108.983 41.0522 108.983C40.8366 108.917 40.6043 108.934 40.3887 108.917C34.799 108.653 29.5078 107.25 24.5152 104.773C24.0508 104.542 23.5863 104.278 23.1219 104.03C23.0887 104.014 23.0556 103.981 23.0224 103.948C23.2049 103.964 23.3375 104.047 23.4702 104.113C26.7047 105.582 30.0718 106.606 33.5716 107.217C36.6069 107.745 39.6589 107.943 42.7274 107.762C52.6463 107.2 61.288 103.584 68.553 96.8152C74.3584 91.4163 78.1401 84.8121 80.0642 77.1513C80.512 75.4012 80.8272 73.6181 80.993 71.8184C81.2087 69.4079 81.2916 66.9974 81.0926 64.5869C80.8935 62.1599 80.4954 59.7659 79.8817 57.4214C78.5548 52.3692 76.3322 47.7463 73.2139 43.5526C70.1121 39.4085 66.3801 35.9414 62.0178 33.1511C61.8851 33.0685 61.7358 33.0025 61.6529 32.8374C61.8022 32.92 61.9515 32.986 62.0842 33.0685C64.8376 34.5215 67.3587 36.3046 69.6809 38.3849C72.7163 41.0926 75.2706 44.1966 77.344 47.6802C78.9695 50.388 80.2301 53.2608 81.1755 56.2656C81.7394 58.0323 82.1707 59.8154 82.4693 61.648C82.7512 63.3651 82.9503 65.0657 82.9669 66.7993C82.9669 66.8818 82.9503 66.9809 83.0332 67.0634C83 67.7569 83 68.4503 83 69.1273Z" fill="#134395"/>
<path d="M41.5166 92.6382C28.0813 92.5886 17.3663 81.7909 17.3497 68.566C17.3331 55.2091 28.1974 44.4443 41.5498 44.4443C55.0182 44.4443 65.7996 55.3742 65.7332 68.6486C65.6834 81.7248 55.0679 92.6217 41.5166 92.6382ZM28.9604 58.4947C27.6998 58.4947 26.5885 58.9405 25.7426 59.799C24.9962 60.5585 24.5981 61.4831 24.4986 62.5562C24.3991 63.6789 24.6147 64.7356 25.2616 65.6767C26.3563 67.2782 28.5292 67.9551 30.4532 67.2947C31.6807 66.882 32.4768 66.0399 32.9081 64.8347C32.991 64.587 32.991 64.587 32.7422 64.5045C32.3939 64.3889 32.029 64.2898 31.6807 64.1908C31.4153 64.1082 31.3987 64.1082 31.2826 64.3889C30.8679 65.33 30.1381 65.8253 29.1263 65.8748C28.0316 65.9244 27.1525 65.4951 26.6217 64.521C26.1739 63.712 26.1573 62.8204 26.4227 61.9454C26.7544 60.8887 27.6501 60.2118 28.7448 60.1457C29.9888 60.0797 30.7518 60.542 31.2328 61.6812C31.2992 61.8463 31.3821 61.8628 31.5314 61.8133C31.8963 61.6977 32.2612 61.5821 32.6261 61.4666C32.9247 61.3675 32.9247 61.3675 32.8251 61.0868C32.51 60.1622 31.9295 59.4523 31.0504 58.99C30.4035 58.6433 29.7068 58.4947 28.9604 58.4947ZM42.6113 66.7829C42.8767 67.0636 43.1753 67.2947 43.5568 67.3938C44.7344 67.7405 46.2438 67.3277 46.8741 65.8583C47.3054 64.8347 47.3219 63.7945 46.8741 62.7874C46.4428 61.7637 45.6467 61.2354 44.5188 61.1859C43.789 61.1529 43.1421 61.3345 42.5616 61.9288C42.5616 61.7307 42.5616 61.5986 42.5616 61.4666C42.5616 60.5915 42.5616 59.733 42.5616 58.8579C42.5616 58.4947 42.5947 58.4947 42.1966 58.4947C41.8815 58.4947 41.5663 58.4947 41.2346 58.4947C40.9361 58.4947 40.9361 58.4947 40.9195 58.7919C40.9195 58.8414 40.9195 58.8909 40.9195 58.957C40.9195 61.6151 40.9195 64.2568 40.9195 66.915C40.9195 67.3938 40.8697 67.3773 41.3507 67.3773C41.5498 67.3773 41.7488 67.3773 41.9478 67.3773C42.4786 67.3773 42.4786 67.3773 42.5284 66.8655C42.545 66.8324 42.5781 66.8159 42.6113 66.7829ZM24.9796 74.2786C24.9796 75.6325 24.9796 77.0028 24.9796 78.3567C24.9796 78.6374 24.9796 78.6374 25.2616 78.6374C25.6431 78.6374 26.0246 78.6374 26.4227 78.6374C26.7212 78.6374 26.7212 78.6374 26.7212 78.3237C26.7212 77.4651 26.7212 76.6066 26.7212 75.748C26.7212 75.2032 26.6549 75.2692 27.2022 75.2692C28.0647 75.2692 28.9273 75.2692 29.7898 75.2692C30.0717 75.2692 30.0717 75.2692 30.0883 74.9886C30.0883 74.6749 30.0883 74.3612 30.0883 74.031C30.0883 73.7008 30.0883 73.7008 29.7732 73.7008C28.8775 73.7008 27.9984 73.7008 27.1027 73.7008C26.7046 73.7008 26.7046 73.7008 26.7046 73.288C26.7046 72.8587 26.7046 72.4129 26.7046 71.9837C26.7046 71.5214 26.6715 71.5709 27.1027 71.5709C28.0979 71.5709 29.0931 71.5709 30.0883 71.5709C30.503 71.5709 30.503 71.637 30.503 71.1747C30.503 70.8775 30.503 70.5968 30.503 70.2996C30.503 69.9694 30.503 69.9694 30.1547 69.9694C28.5458 69.9694 26.9534 69.9694 25.3445 69.9694C24.9962 69.9694 24.9962 69.9694 24.9962 70.3161C24.9796 71.637 24.9796 72.9578 24.9796 74.2786ZM49.528 64.7851C49.8763 64.7851 50.1914 64.7851 50.5066 64.7851C51.5184 64.7851 52.5302 64.7851 53.5254 64.7851C53.8239 64.7851 53.8239 64.7851 53.8405 64.4714C53.8571 64.0917 53.8239 63.7285 53.741 63.3652C53.5751 62.6058 53.2102 61.9454 52.497 61.5491C50.7388 60.575 48.4996 61.3345 47.9522 63.4313C47.8693 63.7285 47.8527 64.0257 47.8527 64.3394C47.8527 66.4857 49.6109 67.9056 51.7174 67.4433C52.5633 67.2617 53.2102 66.7829 53.5917 65.9904C53.7742 65.6272 53.7576 65.6107 53.3927 65.5116C53.1439 65.4456 52.9117 65.3795 52.6629 65.297C52.4472 65.2144 52.3477 65.2309 52.2316 65.4621C51.9165 66.0234 51.2862 66.2546 50.6227 66.0895C50.009 65.9409 49.6109 65.4951 49.528 64.7851ZM34.716 69.7548C35.1805 69.7548 35.6283 69.7383 36.0761 69.7548C36.3084 69.7713 36.4245 69.6722 36.524 69.4741C37.6851 66.8655 38.8627 64.2733 40.0404 61.6812C40.0901 61.5821 40.1565 61.4996 40.0901 61.351C39.6589 61.351 39.2276 61.3675 38.7964 61.351C38.5144 61.3345 38.3817 61.417 38.2656 61.6812C37.9007 62.6058 37.486 63.5304 37.1045 64.4549C37.0548 64.554 37.0382 64.6696 36.9552 64.7521C36.8391 64.6696 36.8225 64.554 36.7728 64.4384C36.3415 63.4973 35.9103 62.5728 35.4956 61.6317C35.4458 61.5161 35.4127 61.3345 35.2136 61.351C34.6663 61.351 34.1355 61.351 33.5881 61.351C33.555 61.5491 33.6545 61.6647 33.7208 61.7803C34.4506 63.2827 35.1639 64.7686 35.9103 66.2546C36.043 66.5022 36.0264 66.7003 35.9103 66.948C35.5288 67.7405 35.1805 68.533 34.8321 69.3255C34.7658 69.4411 34.6829 69.5566 34.716 69.7548ZM41.301 72.446C40.5214 72.4295 39.8911 72.6441 39.3935 73.1889C38.5641 74.1135 38.8295 75.4343 39.9408 75.9792C40.2062 76.1113 40.4882 76.1773 40.7702 76.2434C41.0522 76.3094 41.3341 76.3589 41.6161 76.458C41.9313 76.5571 42.0971 76.7882 42.0639 77.0359C42.0308 77.3 41.8317 77.4816 41.5332 77.5477C40.9858 77.6633 40.3555 77.4321 40.2062 76.8377C40.1731 76.7056 40.1233 76.6726 39.9906 76.7056C39.6423 76.7882 39.294 76.8542 38.9456 76.9368C38.7964 76.9698 38.7632 77.0359 38.8129 77.1844C38.9788 77.8284 39.3769 78.2741 39.9574 78.5713C40.3721 78.786 40.8199 78.8355 41.2678 78.852C41.7986 78.852 42.3293 78.7694 42.7772 78.4557C43.3743 78.0595 43.6729 77.4816 43.6397 76.7717C43.6065 76.0617 43.225 75.5664 42.5947 75.2527C42.3625 75.1372 42.0971 75.0546 41.8483 75.0051C41.5332 74.939 41.218 74.873 40.9195 74.807C40.6043 74.7244 40.4384 74.5428 40.4384 74.2951C40.4384 74.031 40.6541 73.7998 40.9692 73.7338C41.5 73.6347 41.9644 73.7998 42.1303 74.3116C42.1966 74.4933 42.2796 74.4933 42.4289 74.4602C42.744 74.3777 43.0426 74.3116 43.3577 74.2456C43.5568 74.2126 43.5733 74.1135 43.5236 73.9484C43.3577 73.3871 43.0094 72.9743 42.4786 72.7266C42.0971 72.512 41.6825 72.4295 41.301 72.446ZM48.1347 77.2835C47.9357 77.2835 47.7698 77.2835 47.5873 77.2835C47.1395 77.267 46.9404 77.1019 46.9239 76.6726C46.9073 75.8801 46.9239 75.0876 46.9073 74.2951C46.9073 74.13 46.9736 74.064 47.1395 74.064C47.3883 74.064 47.6371 74.064 47.9025 74.064C48.0683 74.064 48.1347 73.9979 48.1347 73.8328C48.1181 73.5026 48.1181 73.1724 48.1347 72.8422C48.1347 72.6606 48.0518 72.6111 47.9025 72.6276C47.6537 72.6276 47.4049 72.6276 47.1395 72.6276C46.957 72.6276 46.9073 72.5615 46.9073 72.3964C46.9073 71.9672 46.9073 71.5214 46.9073 71.0921C46.9073 70.894 46.8575 70.7949 46.6419 70.8114C46.4428 70.8279 46.2438 70.8114 46.0448 70.8114C45.4145 70.8114 45.3979 70.8114 45.4311 71.4388C45.4642 72.0992 45.2154 72.6771 44.3695 72.6276C44.2368 72.6276 44.1705 72.6771 44.187 72.8092C44.187 73.0238 44.187 73.2385 44.187 73.4366C44.187 74.064 44.1871 74.064 44.8173 74.064C45.3481 74.064 45.2818 74.031 45.2818 74.5263C45.2818 75.3518 45.2652 76.1608 45.2818 76.9863C45.2984 77.5807 45.514 78.0925 46.0448 78.4227C46.6419 78.8025 47.3054 78.786 47.9688 78.6374C48.0683 78.6209 48.1347 78.5548 48.1347 78.4557C48.1347 78.0595 48.1347 77.6632 48.1347 77.2835ZM56.5939 62.0444C56.511 61.8463 56.5442 61.6812 56.5442 61.5326C56.5442 61.384 56.4778 61.318 56.3285 61.3345C55.9636 61.3345 55.6153 61.3345 55.2504 61.3345C54.9352 61.3345 54.9352 61.3345 54.9187 61.6647C54.9187 62.903 54.9187 64.1412 54.9187 65.396C54.9187 65.9574 54.9187 66.5352 54.9187 67.0966C54.9187 67.2947 54.9684 67.3773 55.1841 67.3773C55.5158 67.3608 55.8475 67.3773 56.1793 67.3773C56.5773 67.3773 56.5773 67.4103 56.5773 66.9975C56.5773 66.2381 56.5773 65.4621 56.5773 64.7026C56.5773 64.4549 56.5939 64.2073 56.6603 63.9596C56.8096 63.3818 57.2408 63.002 57.8379 62.9525C58.037 62.936 58.236 62.936 58.435 62.9525C58.5677 62.9525 58.6341 62.936 58.6341 62.7874C58.6341 62.3581 58.6341 61.9123 58.6341 61.4831C58.6341 61.3675 58.5843 61.318 58.4682 61.3014C57.8545 61.2684 57.274 61.3675 56.8096 61.8133C56.7598 61.8628 56.6934 61.9454 56.5939 62.0444ZM36.2088 73.321C36.2088 73.1559 36.2088 73.0073 36.2088 72.8587C36.2254 72.6936 36.1591 72.6276 35.9766 72.6276C35.6283 72.6441 35.28 72.6276 34.9482 72.6276C34.6165 72.6276 34.6165 72.6276 34.6165 72.9743C34.6165 74.4767 34.6165 75.9792 34.6165 77.4816C34.6165 77.7953 34.6165 78.109 34.6165 78.4392C34.6165 78.5878 34.6663 78.6539 34.8155 78.6539C35.2302 78.6539 35.6449 78.6374 36.043 78.6539C36.2254 78.6539 36.2586 78.5548 36.2586 78.4062C36.2586 77.7458 36.2586 77.0854 36.2586 76.425C36.2586 76.1113 36.2586 75.7976 36.2918 75.4839C36.3747 74.7079 36.8889 74.2456 37.6685 74.2126C37.8012 74.2126 37.9339 74.1961 38.0665 74.2126C38.2656 74.2456 38.3153 74.163 38.3153 73.9814C38.2988 73.6017 38.2988 73.222 38.3153 72.8257C38.3153 72.6606 38.2656 72.578 38.0997 72.578C37.486 72.5615 36.9055 72.6606 36.4576 73.1229C36.3913 73.1889 36.3581 73.288 36.2088 73.321ZM33.1735 75.6655C33.1735 74.7409 33.1735 73.8163 33.1735 72.8917C33.1735 72.6936 33.1237 72.6111 32.9081 72.6111C32.5432 72.6276 32.1617 72.6111 31.7968 72.6111C31.5148 72.6111 31.5148 72.6111 31.5148 72.8917C31.5148 74.0475 31.5148 75.2197 31.5148 76.3754C31.5148 77.0359 31.5148 77.6963 31.5148 78.3567C31.5148 78.5548 31.5645 78.6374 31.7802 78.6374C32.1451 78.6209 32.5266 78.6374 32.8915 78.6374C33.1735 78.6374 33.1735 78.6374 33.1735 78.3567C33.1735 77.4651 33.1735 76.5736 33.1735 75.6655ZM32.3275 71.6535C32.8915 71.6535 33.3393 71.2077 33.3393 70.6628C33.3393 70.085 32.8749 69.6227 32.311 69.6227C31.7636 69.6392 31.3157 70.1015 31.3157 70.6463C31.3157 71.2077 31.7802 71.6535 32.3275 71.6535Z" fill="#114294"/>
<path d="M75.3203 62.9856C75.8677 65.5447 76.0999 68.1368 75.9838 70.762C75.7848 75.3354 74.7066 79.6776 72.7328 83.8052C70.5931 88.2795 67.6075 92.1264 63.776 95.2799C61.2382 97.3768 58.4848 99.1599 55.5158 100.613C52.3975 102.148 49.0801 103.122 45.6301 103.618C43.0426 103.981 40.455 104.03 37.8509 103.783C30.8513 103.089 24.6645 100.464 19.3235 95.9073C17.2834 94.1572 15.5418 92.143 13.9826 89.9471C11.9424 87.0578 10.2008 83.9868 9.00659 80.6517C8.1275 78.2082 7.56355 75.6986 7.28157 73.1065C7.08253 71.2903 7.04936 69.4742 7.14888 67.6415C7.16547 67.2618 7.19864 66.882 7.2484 66.5023C7.26499 66.3702 7.23181 66.2051 7.38109 66.1061C7.51379 66.2381 7.44744 66.3867 7.46403 66.5188C7.53037 70.0851 8.06115 73.5853 9.17246 76.9864C10.2672 80.338 11.8429 83.442 13.8665 86.3313C15.1769 88.2135 16.5536 90.0296 18.1625 91.6807C22.1267 95.6927 26.8042 98.4829 32.2446 100.035C35.5785 100.993 38.9622 101.372 42.4289 101.207C47.0731 101.009 51.452 99.8368 55.5655 97.707C58.518 96.1715 61.3377 94.4049 63.8257 92.176C66.2971 89.9801 68.4203 87.5035 70.1619 84.6968C72.2684 81.3286 73.728 77.6964 74.5905 73.8329C75.0052 72.0003 75.254 70.1511 75.3701 68.2689C75.4696 66.5849 75.4364 64.9173 75.3203 63.2498C75.3203 63.1672 75.3203 63.0847 75.3203 62.9856Z" fill="#134395"/>
<path d="M47.6869 40.1353C49.6275 40.3664 51.6013 40.8452 53.4756 41.5882C61.2714 44.7086 66.6787 50.1736 69.6975 57.9665C70.5102 60.0468 71.041 62.2262 71.3064 64.4386C71.5054 66.0731 71.5718 67.6911 71.4888 69.3421C71.2069 75.0547 69.3326 80.206 65.9654 84.8124C63.2286 88.5272 59.7288 91.334 55.5158 93.2492C55.2006 93.3978 54.8689 93.5299 54.5372 93.6454C61.288 89.4518 65.8493 83.5411 67.9393 75.9133C70.0458 68.2359 69.0506 60.8393 65.0863 53.9379C61.1221 47.0366 55.1675 42.5293 47.6869 40.1353Z" fill="#134395"/>
<path d="M17.0014 44.1472C17.8639 43.0906 18.7762 42.0834 19.7714 41.1423C23.802 37.3945 28.496 34.8849 33.8369 33.531C36.9884 32.7385 40.1731 32.4083 43.4241 32.6065C51.6842 33.1018 58.8497 36.1562 64.7878 41.9348C66.9772 44.0647 68.7852 46.5247 70.195 49.2324C70.2448 49.3315 70.2946 49.4471 70.3443 49.5461C70.3609 49.5626 70.3443 49.5957 70.3277 49.6452C70.1619 49.6122 70.1121 49.4636 70.0292 49.3645C68.0719 46.9705 65.8825 44.8076 63.4277 42.9089C59.5795 39.9041 55.2836 37.7907 50.5729 36.5029C48.3503 35.892 46.0779 35.5123 43.7724 35.3472C36.6069 34.8519 29.9059 36.3708 23.6029 39.772C21.3969 40.9607 19.3235 42.3641 17.3663 43.9326C17.2668 44.0317 17.1839 44.1802 17.0014 44.1472Z" fill="#134395"/>
<path d="M34.6829 28.1815C29.8064 29.3373 25.2118 31.203 20.9656 33.8941C13.8831 38.4015 8.67487 44.5103 5.258 52.1546C3.81496 55.3907 2.85293 58.7588 2.28898 62.259C1.79137 65.3299 1.67527 68.4009 1.8909 71.4883C2.32215 77.8778 4.16328 83.8711 7.23182 89.4846C7.29817 89.6167 7.3811 89.7653 7.41428 89.9304C7.29817 89.7818 7.18206 89.6332 7.08254 89.4846C4.34573 85.6212 2.43826 81.3946 1.29377 76.8047C0.663477 74.2951 0.281982 71.736 0.165875 69.1438C-0.199033 60.9052 1.79138 53.2773 6.17027 46.2935C11.4449 37.8897 18.8757 32.2596 28.4131 29.3703C30.2874 28.8089 32.2114 28.4292 34.1687 28.165C34.3014 28.165 34.5004 28.1815 34.6829 28.1815Z" fill="#134395"/>
<path d="M13.9329 59.8816C12.1581 73.7338 16.8521 84.9609 28.0979 93.4802C13.8333 88.3455 8.17727 71.5049 13.9329 59.8816Z" fill="#134395"/>
<path d="M61.5036 32.8046L61.487 32.8211L61.4704 32.8046C61.487 32.8046 61.487 32.7881 61.5036 32.7881C61.487 32.7716 61.487 32.7881 61.5036 32.8046Z" fill="#134395"/>
<path d="M17.018 44.1472V44.1637L17.0014 44.1472H17.018Z" fill="#134395"/>
<path d="M70.4107 49.7442C70.4107 49.7607 70.3941 49.7607 70.3941 49.7772C70.3775 49.7607 70.3609 49.7607 70.3609 49.7442C70.3775 49.7277 70.3775 49.7277 70.3941 49.7112C70.3941 49.7277 70.4107 49.7442 70.4107 49.7442Z" fill="#134395"/>
<path d="M7.56355 90.1452L7.54696 90.1287H7.56355V90.1452Z" fill="#134395"/>
<path d="M28.9604 58.4946C29.7069 58.4781 30.4035 58.6267 31.067 58.9734C31.9295 59.4357 32.5266 60.1457 32.8417 61.0703C32.9413 61.3509 32.9247 61.3509 32.6427 61.45C32.2778 61.5656 31.9129 61.6811 31.548 61.7967C31.3987 61.8463 31.3158 61.8297 31.2494 61.6646C30.7518 60.5254 29.9888 60.0631 28.7614 60.1292C27.6667 60.1952 26.771 60.8721 26.4393 61.9288C26.1573 62.8039 26.1905 63.6789 26.6383 64.5044C27.1691 65.4785 28.0482 65.9078 29.1429 65.8583C30.1547 65.8087 30.8845 65.3134 31.2992 64.3723C31.4153 64.1082 31.4153 64.1082 31.6973 64.1742C32.0456 64.2733 32.4105 64.3889 32.7588 64.4879C33.0076 64.5705 33.0076 64.5705 32.9247 64.8181C32.4934 66.0234 31.6973 66.8654 30.4698 67.2782C28.5458 67.9386 26.3729 67.2617 25.2782 65.6602C24.6313 64.7191 24.4323 63.6624 24.5152 62.5397C24.5981 61.483 24.9962 60.5419 25.7592 59.7825C26.5885 58.9404 27.6999 58.4946 28.9604 58.4946Z" fill="#FEFEFF"/>
<path d="M42.6113 66.7827C42.5781 66.8157 42.5615 66.8488 42.545 66.8653C42.4952 67.3771 42.4952 67.3771 41.9644 67.3771C41.7654 67.3771 41.5663 67.3771 41.3673 67.3771C40.8697 67.3771 40.9361 67.4101 40.9361 66.9148C40.9361 64.2566 40.9361 61.615 40.9361 58.9568C40.9361 58.9073 40.9361 58.8577 40.9361 58.7917C40.9361 58.4945 40.9361 58.4945 41.2512 58.4945C41.5663 58.4945 41.8815 58.4945 42.2132 58.4945C42.6113 58.4945 42.5781 58.478 42.5781 58.8577C42.5781 59.7328 42.5781 60.5913 42.5781 61.4664C42.5781 61.5984 42.5781 61.714 42.5781 61.9287C43.1587 61.3343 43.8056 61.1527 44.5354 61.1857C45.6467 61.2352 46.4428 61.7636 46.8907 62.7872C47.3219 63.8108 47.3219 64.851 46.8907 65.8581C46.2604 67.3276 44.751 67.7403 43.5733 67.3936C43.1753 67.278 42.8767 67.0634 42.6113 66.7827ZM45.514 64.2401C45.514 64.2236 45.514 64.1245 45.4974 64.009C45.3979 63.233 44.8671 62.6881 44.1373 62.6386C43.4075 62.5891 42.7938 63.0183 42.5947 63.7448C42.4786 64.1576 42.4786 64.5703 42.6113 64.9831C42.8269 65.66 43.3743 66.0563 44.0709 66.0232C44.7344 66.0067 45.2486 65.5775 45.431 64.9005C45.4974 64.7189 45.5306 64.5208 45.514 64.2401Z" fill="#FEFEFF"/>
<path d="M24.9796 74.2787C24.9796 72.9579 24.9796 71.637 24.9796 70.3162C24.9796 69.9695 24.9796 69.9695 25.3279 69.9695C26.9368 69.9695 28.5292 69.9695 30.1381 69.9695C30.4864 69.9695 30.4864 69.9695 30.4864 70.2997C30.4864 70.5969 30.4864 70.8776 30.4864 71.1747C30.4864 71.637 30.4864 71.571 30.0717 71.571C29.0765 71.571 28.0813 71.571 27.0861 71.571C26.6549 71.571 26.688 71.5215 26.688 71.9838C26.688 72.413 26.688 72.8588 26.688 73.2881C26.688 73.7008 26.688 73.7008 27.0861 73.7008C27.9818 73.7008 28.8609 73.7008 29.7566 73.7008C30.0717 73.7008 30.0717 73.7008 30.0717 74.031C30.0717 74.3447 30.0717 74.6584 30.0717 74.9886C30.0717 75.2693 30.0717 75.2693 29.7732 75.2693C28.9107 75.2693 28.0482 75.2693 27.1856 75.2693C26.6217 75.2693 26.7046 75.2033 26.7046 75.7481C26.7046 76.6067 26.7046 77.4652 26.7046 78.3237C26.7046 78.6209 26.7046 78.6374 26.4061 78.6374C26.0246 78.6374 25.6431 78.6374 25.245 78.6374C24.963 78.6374 24.963 78.6374 24.963 78.3568C24.9796 77.0029 24.9796 75.6491 24.9796 74.2787Z" fill="#FEFEFF"/>
<path d="M49.528 64.7853C49.6109 65.4952 50.009 65.941 50.6559 66.1061C51.3193 66.2712 51.9662 66.0401 52.2648 65.4787C52.3809 65.2641 52.497 65.2476 52.696 65.3136C52.9282 65.3961 53.177 65.4622 53.4258 65.5282C53.7907 65.6438 53.8073 65.6438 53.6249 66.007C53.2434 66.7995 52.6131 67.2783 51.7506 67.4599C49.6441 67.9222 47.8859 66.5023 47.8859 64.356C47.8859 64.0588 47.9025 63.7451 47.9854 63.4479C48.5328 61.3346 50.772 60.5751 52.5302 61.5657C53.2268 61.962 53.6083 62.6059 53.7742 63.3819C53.8571 63.7451 53.8903 64.1083 53.8737 64.4881C53.8571 64.7853 53.8571 64.8018 53.5585 64.8018C52.5467 64.8018 51.535 64.8018 50.5398 64.8018C50.1914 64.7853 49.8763 64.7853 49.528 64.7853ZM49.5611 63.646C50.4071 63.646 51.2198 63.646 52.0491 63.646C52.1984 63.646 52.215 63.5635 52.1984 63.4479C52.1487 63.1672 52.016 62.9361 51.7838 62.7545C51.3525 62.4243 50.6061 62.3913 50.1417 62.6884C49.8099 62.9031 49.5943 63.2168 49.5611 63.646Z" fill="#FEFEFF"/>
<path d="M34.716 69.7549C34.6829 69.5567 34.7824 69.4577 34.8322 69.3421C35.1971 68.5496 35.5454 67.7571 35.9103 66.9646C36.0264 66.717 36.0264 66.5188 35.9103 66.2712C35.1639 64.7852 34.4507 63.2828 33.7208 61.7969C33.6545 61.6648 33.555 61.5492 33.5881 61.3676C34.1355 61.3676 34.6663 61.3676 35.2136 61.3676C35.4127 61.3676 35.4293 61.5327 35.4956 61.6483C35.9269 62.5894 36.3581 63.5139 36.7728 64.455C36.8226 64.5541 36.8392 64.6862 36.9553 64.7687C37.0382 64.6862 37.0714 64.5706 37.1045 64.4715C37.5026 63.547 37.9007 62.6224 38.2656 61.6978C38.3817 61.4171 38.5144 61.3511 38.7964 61.3676C39.2276 61.3841 39.6755 61.3676 40.0902 61.3676C40.1565 61.5162 40.0736 61.5987 40.0404 61.6978C38.8627 64.2899 37.6851 66.8986 36.524 69.4907C36.4245 69.7053 36.3084 69.7879 36.0762 69.7714C35.6283 69.7384 35.1805 69.7549 34.716 69.7549Z" fill="#FEFEFF"/>
<path d="M41.301 72.4461C41.6825 72.4296 42.0971 72.5122 42.4786 72.7103C43.0094 72.9745 43.3577 73.3707 43.5236 73.9321C43.5734 74.0972 43.5568 74.1962 43.3577 74.2293C43.0426 74.2788 42.744 74.3613 42.4289 74.4439C42.2796 74.4769 42.1967 74.4769 42.1303 74.2953C41.9644 73.8 41.5 73.6184 40.9692 73.7174C40.6541 73.767 40.4385 74.0146 40.4385 74.2788C40.4385 74.5264 40.5877 74.7081 40.9195 74.7906C41.218 74.8732 41.5332 74.9227 41.8483 74.9887C42.1137 75.0383 42.3625 75.1208 42.5947 75.2364C43.225 75.5501 43.6065 76.0454 43.6397 76.7554C43.6729 77.4653 43.3743 78.0267 42.7772 78.4394C42.3128 78.7531 41.7986 78.8357 41.2678 78.8357C40.82 78.8357 40.3721 78.7696 39.9574 78.555C39.3769 78.2578 38.9788 77.812 38.813 77.1681C38.7798 77.0195 38.813 76.937 38.9457 76.9205C39.294 76.8379 39.6423 76.7719 39.9906 76.6893C40.1233 76.6563 40.1897 76.7058 40.2062 76.8214C40.3389 77.4158 40.9858 77.6469 41.5332 77.5313C41.8483 77.4653 42.0474 77.2837 42.064 77.0195C42.0971 76.7719 41.9313 76.5407 41.6161 76.4417C41.3341 76.3591 41.0522 76.3096 40.7702 76.227C40.4882 76.161 40.2062 76.0949 39.9409 75.9629C38.8295 75.418 38.5642 74.0972 39.3935 73.1726C39.8911 72.6443 40.538 72.4296 41.301 72.4461Z" fill="#FEFEFF"/>
<path d="M48.1347 77.2834C48.1347 77.6632 48.1347 78.0594 48.1347 78.4557C48.1347 78.5712 48.0683 78.6208 47.9688 78.6373C47.3053 78.7859 46.6419 78.8024 46.0448 78.4226C45.514 78.0924 45.2984 77.5806 45.2818 76.9862C45.2652 76.1607 45.2818 75.3517 45.2818 74.5262C45.2818 74.0144 45.3481 74.0639 44.8173 74.0639C44.1871 74.0639 44.187 74.0639 44.187 73.4365C44.187 73.2219 44.187 73.0072 44.187 72.8091C44.187 72.677 44.2368 72.611 44.3695 72.6275C45.2154 72.677 45.4642 72.0992 45.4311 71.4387C45.4145 70.8113 45.4311 70.8113 46.0448 70.8113C46.2438 70.8113 46.4428 70.8279 46.6419 70.8113C46.8575 70.7948 46.9073 70.8939 46.9073 71.092C46.9073 71.5213 46.9073 71.9671 46.9073 72.3963C46.9073 72.5615 46.957 72.6275 47.1395 72.6275C47.3883 72.611 47.6371 72.6275 47.9025 72.6275C48.0683 72.6275 48.1513 72.677 48.1347 72.8421C48.1181 73.1723 48.1181 73.5025 48.1347 73.8328C48.1347 73.9979 48.0849 74.0804 47.9025 74.0639C47.6537 74.0639 47.4049 74.0639 47.1395 74.0639C46.9736 74.0639 46.8907 74.1134 46.9073 74.295C46.9073 75.0875 46.9073 75.88 46.9239 76.6725C46.9404 77.1018 47.1395 77.2669 47.5873 77.2834C47.7532 77.2834 47.9191 77.2834 48.1347 77.2834Z" fill="#FEFEFF"/>
<path d="M56.5939 62.0444C56.6934 61.9453 56.7598 61.8627 56.8261 61.7967C57.2906 61.3509 57.8711 61.2519 58.4848 61.2849C58.6009 61.2849 58.6507 61.3509 58.6507 61.4665C58.6507 61.8958 58.6507 62.3415 58.6507 62.7708C58.6507 62.9194 58.5843 62.9359 58.4516 62.9359C58.2526 62.9194 58.0536 62.9194 57.8545 62.9359C57.2574 62.9854 56.8261 63.3652 56.6769 63.9431C56.6105 64.1907 56.5939 64.4384 56.5939 64.686C56.5939 65.4455 56.5939 66.2215 56.5939 66.981C56.5939 67.3937 56.5939 67.3607 56.1958 67.3607C55.8641 67.3607 55.5324 67.3442 55.2006 67.3607C54.985 67.3772 54.9353 67.2782 54.9353 67.08C54.9518 66.5187 54.9353 65.9408 54.9353 65.3795C54.9353 64.1412 54.9353 62.9029 54.9353 61.6481C54.9353 61.3179 54.9353 61.3179 55.267 61.3179C55.6319 61.3179 55.9802 61.3179 56.3451 61.3179C56.4944 61.3179 56.5608 61.3674 56.5608 61.516C56.5442 61.6976 56.511 61.8462 56.5939 62.0444Z" fill="#FEFEFF"/>
<path d="M36.2088 73.321C36.3581 73.288 36.3913 73.1889 36.4576 73.1229C36.9055 72.6606 37.486 72.545 38.0997 72.578C38.2656 72.578 38.3319 72.6606 38.3153 72.8257C38.2988 73.2054 38.2988 73.5851 38.3153 73.9814C38.3153 74.163 38.2822 74.2456 38.0665 74.2125C37.9338 74.196 37.8012 74.196 37.6685 74.2125C36.8889 74.2456 36.3747 74.7079 36.2918 75.4838C36.2586 75.7975 36.2586 76.1112 36.2586 76.4249C36.2586 77.0853 36.2586 77.7458 36.2586 78.4062C36.2586 78.5548 36.242 78.6538 36.043 78.6538C35.6283 78.6373 35.2136 78.6538 34.8155 78.6538C34.6497 78.6538 34.6165 78.5878 34.6165 78.4392C34.6165 78.1255 34.6165 77.8118 34.6165 77.4816C34.6165 75.9792 34.6165 74.4767 34.6165 72.9743C34.6165 72.6275 34.6165 72.6275 34.9482 72.6275C35.2966 72.6275 35.6449 72.6275 35.9766 72.6275C36.1591 72.6275 36.2088 72.6936 36.2088 72.8587C36.1922 73.0073 36.2088 73.1394 36.2088 73.321Z" fill="#FEFEFF"/>
<path d="M33.1735 75.6655C33.1735 76.5571 33.1735 77.4651 33.1735 78.3567C33.1735 78.6374 33.1735 78.6374 32.8915 78.6374C32.5266 78.6374 32.1451 78.6208 31.7802 78.6374C31.5645 78.6539 31.5148 78.5548 31.5148 78.3567C31.5314 77.6963 31.5148 77.0359 31.5148 76.3754C31.5148 75.2197 31.5148 74.0475 31.5148 72.8918C31.5148 72.6111 31.5148 72.6111 31.7968 72.6111C32.1617 72.6111 32.5432 72.6276 32.9081 72.6111C33.1237 72.6111 33.1735 72.6936 33.1735 72.8918C33.1735 73.8163 33.1735 74.7409 33.1735 75.6655Z" fill="#FEFEFF"/>
<path d="M32.3276 71.6535C31.7802 71.6535 31.3158 71.2077 31.3158 70.6464C31.3158 70.1015 31.7636 69.6392 32.311 69.6227C32.8749 69.6062 33.3393 70.085 33.3393 70.6629C33.3393 71.2077 32.8915 71.6535 32.3276 71.6535Z" fill="#FEFEFF"/>
<path d="M45.514 64.2405C45.514 64.5377 45.4974 64.7193 45.4476 64.9174C45.2652 65.5943 44.7676 66.0236 44.0875 66.0401C43.3909 66.0566 42.8435 65.6769 42.6279 65C42.4952 64.5872 42.4952 64.1744 42.6113 63.7617C42.8104 63.0352 43.4075 62.6059 44.1539 62.6555C44.8671 62.705 45.4145 63.2333 45.514 64.0258C45.514 64.1084 45.514 64.224 45.514 64.2405Z" fill="#134395"/>
<path d="M49.5612 63.646C49.5943 63.2003 49.7934 62.9031 50.1417 62.6884C50.6227 62.3747 51.3525 62.4078 51.7838 62.7545C52.016 62.9361 52.1487 63.1672 52.1984 63.4479C52.215 63.5635 52.1984 63.646 52.0491 63.646C51.2364 63.646 50.4237 63.646 49.5612 63.646Z" fill="#134395"/>
</g>
<defs>
<clipPath id="clip0">
<rect width="83" height="136" fill="white"/>
</clipPath>
</defs>
</svg>
