<svg width="236" height="136" viewBox="0 0 236 136" fill="none" xmlns="http://www.w3.org/2000/svg">
<rect width="236" height="136" fill="white"/>
<path d="M43.3469 86.1327C29.6102 86.1327 18.0603 74.9396 18.0603 61.1953C18.0603 47.4509 29.6102 36.2578 43.3469 36.2578C50.9455 36.2578 56.3575 39.2398 60.427 43.13L55.6272 47.9367C52.7101 45.1996 48.7588 43.0708 43.3469 43.0708C33.3167 43.0708 25.4774 51.1595 25.4774 61.1953C25.4774 71.231 33.3209 79.3197 43.3469 79.3197C49.8522 79.3197 53.5586 76.7051 55.9311 74.3313C57.8772 72.3842 59.1521 69.5584 59.6376 65.7274H43.3891V58.9693H66.2442C66.489 60.1858 66.6072 61.6176 66.6072 63.2016C66.6072 68.3124 65.231 74.6354 60.7351 79.138C56.3575 83.6998 50.764 86.1327 43.3469 86.1327Z" fill="#0081C6"/>
<path d="M101.202 70.0746C101.202 79.3205 94.0087 86.1293 85.1816 86.1293C76.3545 86.1293 69.1611 79.3163 69.1611 70.0746C69.1611 60.7695 76.3545 54.0156 85.1816 54.0156C94.0087 54.0156 101.202 60.7695 101.202 70.0746ZM94.1902 70.0746C94.1902 64.2964 90.0194 60.3429 85.1816 60.3429C80.3438 60.3429 76.173 64.2964 76.173 70.0746C76.173 75.7936 80.3438 79.8063 85.1816 79.8063C90.0194 79.8063 94.1902 75.7936 94.1902 70.0746Z" fill="#F04931"/>
<path d="M135.818 70.0746C135.818 79.3205 128.625 86.1293 119.798 86.1293C110.971 86.1293 103.777 79.3163 103.777 70.0746C103.777 60.7695 110.971 54.0156 119.798 54.0156C128.625 54.0156 135.818 60.7695 135.818 70.0746ZM128.806 70.0746C128.806 64.2964 124.636 60.3429 119.798 60.3429C114.96 60.3429 110.789 64.2964 110.789 70.0746C110.789 75.7936 114.96 79.8063 119.798 79.8063C124.636 79.8063 128.806 75.7936 128.806 70.0746Z" fill="#FBAB18"/>
<path d="M169.172 54.9518V83.8174C169.172 95.6778 162.181 100.544 153.916 100.544C146.135 100.544 141.454 95.3146 139.689 91.057L145.827 88.5016C146.921 91.1161 149.597 94.2206 153.911 94.2206C159.201 94.2206 162.481 90.9345 162.481 84.7931V82.4826H162.236C160.657 84.4298 157.618 86.132 153.785 86.132C145.76 86.132 138.406 79.1374 138.406 70.1364C138.406 61.0721 145.76 54.0183 153.785 54.0183C157.614 54.0183 160.653 55.7205 162.236 57.6086H162.481V54.956H169.172V54.9518ZM162.971 70.1364C162.971 64.4807 159.201 60.3456 154.401 60.3456C149.538 60.3456 145.464 64.4807 145.464 70.1364C145.464 75.733 149.538 79.809 154.401 79.809C159.205 79.8047 162.971 75.7287 162.971 70.1364Z" fill="#0081C6"/>
<path d="M181.009 37.9603V85.1573H173.959V37.9603H181.009Z" fill="#00AE57"/>
<path d="M207.836 75.3655L213.307 79.0149C211.543 81.6294 207.292 86.132 199.934 86.132C190.815 86.132 184.006 79.0782 184.006 70.0773C184.006 60.5272 190.875 54.0183 199.144 54.0183C207.473 54.0183 211.547 60.6497 212.881 64.2357L213.611 66.0604L192.154 74.9389C193.796 78.1617 196.35 79.8047 199.934 79.8047C203.518 79.8047 206.013 78.0434 207.836 75.3655ZM190.997 69.5873L205.341 63.6275C204.552 61.6212 202.18 60.2231 199.385 60.2231C195.801 60.2189 190.815 63.3825 190.997 69.5873Z" fill="#F04931"/>
</svg>
