<svg width="205" height="136" viewBox="0 0 205 136" fill="none" xmlns="http://www.w3.org/2000/svg">
<rect width="204.287" height="136" fill="white"/>
<path d="M45.3335 87.5112H67.4263V90.6673H45.3335V87.5112ZM45.3335 84.642H67.4263V81.4859H45.3335V84.642ZM51.6457 78.6167H61.1141V75.4606H51.6457V78.6167ZM51.6457 72.5914H61.1141V69.4353H51.6457V72.5914ZM51.6457 66.5661H61.1141V63.4099H51.6457V66.5661ZM61.1141 57.3846H51.6457V60.5407H61.1141V57.3846ZM45.3335 54.5154H67.4263V51.3593H45.3335V54.5154ZM45.3335 48.4901H67.4263V45.334H45.3335V48.4901ZM70.5824 84.642H104.258C104.823 83.6665 105.254 82.6077 105.529 81.4859H70.5824V84.642ZM101.621 69.4353H76.8947V72.5914H104.255C103.561 71.3949 102.669 70.3276 101.621 69.4353ZM76.8947 63.4099V66.5661H101.621C102.669 65.6737 103.561 64.6064 104.255 63.4099H76.8947ZM104.258 51.3593H70.5824V54.5154H105.526C105.254 53.3936 104.821 52.3348 104.258 51.3593ZM93.8229 45.334H70.5824V48.4901H101.951C99.8081 46.5304 96.9561 45.334 93.8229 45.334ZM76.8947 60.5407H86.363V57.3846H76.8947V60.5407ZM95.2575 60.5407H105.452C105.724 59.5336 105.874 58.4778 105.874 57.3846H95.2575V60.5407ZM76.8947 78.6167H86.363V75.4606H76.8947V78.6167ZM95.2575 75.4606V78.6167H105.874C105.874 77.5235 105.724 76.4677 105.452 75.4606H95.2575ZM70.5824 90.6673H93.8229C96.9791 90.6673 99.8081 89.4709 101.951 87.5112H70.5824V90.6673ZM133.699 90.6673L134.801 87.5112H132.606L133.699 90.6673ZM131.602 84.642H135.811L136.918 81.4859H130.491L131.602 84.642ZM129.484 78.6167H137.923L139.03 75.4606H128.374L129.484 78.6167ZM127.37 72.5914H140.04L141.148 69.4353H126.262L127.37 72.5914ZM114.768 60.5407H131.82L130.721 57.3846H114.768V60.5407ZM137.684 54.5154H158.954V51.3593H138.783L137.684 54.5154ZM140.878 45.334L139.782 48.4901H158.954V45.334H140.878ZM108.456 90.6673H124.236V87.5112H108.456V90.6673ZM108.456 84.642H124.236V81.4859H108.456V84.642ZM114.768 78.6167H124.236V75.4606H114.768V78.6167ZM114.768 72.5914H124.236V69.4353H114.768V72.5914ZM152.642 57.3846H136.689L135.59 60.5407H152.642V57.3846ZM143.173 66.5661H152.642V63.4099H134.591L133.705 65.9607L132.818 63.4099H114.768V66.5661H124.236V63.6653L125.255 66.5661H142.155L143.173 63.6653V66.5661ZM152.642 69.4353H143.173V72.5914H152.642V69.4353ZM143.173 78.6167H152.642V75.4606H143.173V78.6167ZM143.173 84.642H158.954V81.4859H143.173V84.642ZM143.173 90.6673H158.954V87.5112H143.173V90.6673ZM129.725 54.5154L128.626 51.3593H108.456V54.5154H129.725ZM127.631 48.4901L126.532 45.334H108.456V48.4901H127.631ZM162.354 88.3117C162.354 86.9029 163.427 85.8299 164.764 85.8299C166.101 85.8299 167.174 86.9029 167.174 88.3117C167.174 89.7234 166.101 90.7936 164.764 90.7936C163.427 90.7964 162.354 89.7234 162.354 88.3117ZM166.609 88.4695V88.1568C166.609 87.144 165.814 86.3492 164.764 86.3492C163.714 86.3492 162.919 87.144 162.919 88.1568V88.4695C162.919 89.4823 163.714 90.2771 164.764 90.2771C165.814 90.2771 166.609 89.4823 166.609 88.4695ZM164.402 89.5914H163.788V87.0722H164.933C165.498 87.0722 165.788 87.4108 165.788 87.867C165.788 88.2658 165.607 88.5183 165.329 88.6273L165.894 89.5914H165.22L164.75 88.7249H164.399V89.5914H164.402ZM164.861 88.2658C165.054 88.2658 165.163 88.1826 165.163 88.0018V87.8211C165.163 87.6403 165.054 87.5571 164.861 87.5571H164.402V88.2687H164.861V88.2658Z" fill="#0062FF"/>
</svg>
