<svg width="222" height="222" viewBox="0 0 222 222" fill="none" xmlns="http://www.w3.org/2000/svg">
<path d="M0 0H222V222H0V0Z" fill="#FEB44C"/>
<path d="M103.952 97.7619C103.953 97.9135 103.894 98.0592 103.788 98.1644C103.688 98.2728 103.548 98.3337 103.403 98.3327H102.648C102.503 98.3337 102.363 98.2728 102.263 98.1644C102.157 98.0596 102.098 97.9146 102.099 97.7635V87.933C102.099 87.7796 102.154 87.646 102.263 87.5321C102.363 87.4237 102.503 87.3628 102.648 87.3639H103.403C103.552 87.3639 103.68 87.42 103.788 87.5321C103.897 87.646 103.952 87.7796 103.952 87.933V97.7635V97.7619ZM104.155 85.1285C104.157 85.2796 104.098 85.4246 103.992 85.5294C103.892 85.6378 103.752 85.6987 103.607 85.6977H102.446C102.301 85.6987 102.161 85.6378 102.061 85.5294C101.955 85.4246 101.896 85.2796 101.897 85.1285V83.9259C101.897 83.7708 101.95 83.6372 102.059 83.525C102.16 83.4166 102.299 83.3557 102.445 83.3568H103.605C103.754 83.3568 103.884 83.4129 103.992 83.525C104.101 83.6372 104.155 83.7725 104.155 83.9259V85.1285ZM113.025 95.2956C113.034 95.0548 112.958 94.8188 112.811 94.6308C112.635 94.4302 112.415 94.2748 112.169 94.1771C111.816 94.028 111.453 93.9083 111.081 93.8191C110.571 93.6901 110.059 93.5702 109.545 93.4595C108.447 93.2203 107.677 92.8244 107.237 92.2684C106.798 91.7192 106.564 91.0274 106.576 90.3168C106.571 89.4673 106.927 88.6579 107.552 88.1013C107.877 87.8076 108.288 87.575 108.783 87.4068C109.279 87.2369 109.858 87.1527 110.522 87.1527C111.187 87.1527 111.766 87.2303 112.262 87.3837C112.757 87.5404 113.174 87.7367 113.513 87.9759C113.851 88.2151 114.11 88.4708 114.286 88.7463C114.463 89.0202 114.557 89.2841 114.57 89.5382C114.585 89.6887 114.528 89.8371 114.418 89.9374C114.313 90.0453 114.17 90.1059 114.021 90.1057H113.351C113.25 90.1025 113.151 90.0847 113.055 90.0529C112.927 90.0088 112.817 89.9238 112.739 89.8104C112.531 89.5464 112.261 89.34 111.956 89.2099C111.611 89.0482 111.132 88.9674 110.522 88.9674C109.898 88.9674 109.393 89.0862 109.007 89.3254C108.621 89.5646 108.426 89.8945 108.426 90.3168C108.426 90.5841 108.481 90.7985 108.59 90.9602C108.728 91.146 108.91 91.2916 109.12 91.3825C109.362 91.5013 109.685 91.6102 110.084 91.7092C110.486 91.8082 110.983 91.9269 111.58 92.0672C112.205 92.209 112.726 92.3872 113.147 92.605C113.567 92.8244 113.906 93.0702 114.164 93.344C114.421 93.6179 114.604 93.9214 114.713 94.2513C114.821 94.5813 114.875 94.9294 114.875 95.2956C114.875 95.7163 114.777 96.1254 114.58 96.518C114.375 96.922 114.087 97.275 113.736 97.5524C113.334 97.8671 112.884 98.1097 112.404 98.27C111.829 98.461 111.228 98.5535 110.624 98.5438C109.959 98.5438 109.37 98.4597 108.853 98.2898C108.388 98.1445 107.943 97.9353 107.532 97.6679C107.204 97.458 106.918 97.1859 106.688 96.8661C106.491 96.5791 106.386 96.3069 106.372 96.0545C106.356 95.9053 106.409 95.7572 106.515 95.6536C106.622 95.542 106.769 95.4811 106.921 95.4853H107.654C107.735 95.4853 107.831 95.4952 107.938 95.5167C108.048 95.5381 108.149 95.6189 108.243 95.7592C108.46 96.0693 108.759 96.3069 109.139 96.4768C109.519 96.6451 110.014 96.7292 110.624 96.7292C110.922 96.7292 111.217 96.6945 111.51 96.6236C111.8 96.5543 112.058 96.4553 112.282 96.3283C112.506 96.2013 112.686 96.0512 112.821 95.8746C112.952 95.7117 113.024 95.5071 113.025 95.2956ZM116.544 95.5695C116.544 95.0069 116.652 94.5136 116.869 94.093C117.087 93.6707 117.384 93.3127 117.764 93.0174C118.145 92.7204 118.588 92.4829 119.096 92.2998C119.605 92.1183 120.144 91.9764 120.714 91.8774L123.582 91.3924V91.1186C123.582 90.401 123.356 89.8648 122.9 89.5052C122.446 89.1472 121.881 88.9674 121.202 88.9674C120.605 88.9674 120.154 89.0796 119.849 89.3039C119.544 89.5299 119.283 89.7972 119.066 90.1057C118.999 90.2058 118.908 90.2861 118.801 90.3383C118.678 90.3851 118.547 90.4064 118.416 90.401H117.806C117.657 90.4016 117.514 90.341 117.408 90.2327C117.297 90.1321 117.241 89.9829 117.255 89.8318C117.283 89.5233 117.402 89.2049 117.612 88.8832C117.822 88.5599 118.106 88.2712 118.466 88.0188C118.825 87.7648 119.239 87.5569 119.708 87.3952C120.175 87.2336 120.674 87.1527 121.202 87.1527C121.812 87.1527 122.379 87.2451 122.9 87.4282C123.423 87.6097 123.871 87.8769 124.244 88.2283C124.616 88.5797 124.908 89.0169 125.118 89.5365C125.329 90.0562 125.433 90.655 125.433 91.3297V97.7635C125.435 97.9141 125.377 98.0591 125.272 98.1644C125.171 98.2737 125.031 98.3346 124.884 98.3327H124.131C123.986 98.3337 123.846 98.2728 123.746 98.1644C123.64 98.0596 123.581 97.9146 123.582 97.7635V96.8975C123.451 97.1772 123.255 97.42 123.013 97.6052C122.741 97.8169 122.444 97.9905 122.128 98.1215C121.796 98.2617 121.449 98.369 121.09 98.4383C120.758 98.5057 120.421 98.5411 120.083 98.5438C119.59 98.5498 119.098 98.4718 118.629 98.3129C118.223 98.1769 117.843 97.9655 117.511 97.6893C116.896 97.1672 116.541 96.3892 116.544 95.5695ZM120.287 96.7292C120.775 96.7292 121.223 96.6516 121.629 96.4982C122.037 96.3432 122.385 96.1287 122.677 95.8548C122.969 95.5793 123.192 95.2527 123.348 94.8733C123.504 94.4939 123.582 94.0715 123.582 93.608V93.0801L121.181 93.4809C120.327 93.6212 119.65 93.8472 119.148 94.1573C118.645 94.4658 118.395 94.8667 118.395 95.3583C118.396 95.5185 118.431 95.6765 118.496 95.8219C118.565 95.9769 118.673 96.1254 118.822 96.2656C118.971 96.4058 119.165 96.518 119.401 96.6022C119.639 96.6879 119.934 96.7292 120.287 96.7292ZM127.651 95.5695C127.651 95.0069 127.76 94.5136 127.977 94.093C128.194 93.6707 128.49 93.3127 128.872 93.0174C129.251 92.7204 129.696 92.4829 130.205 92.2998C130.713 92.1183 131.251 91.9764 131.821 91.8774L134.691 91.3924V91.1186C134.691 90.401 134.463 89.8648 134.008 89.5052C133.554 89.1472 132.988 88.9674 132.31 88.9674C131.713 88.9674 131.262 89.0796 130.957 89.3039C130.652 89.5299 130.391 89.7972 130.174 90.1057C130.107 90.2058 130.016 90.2861 129.909 90.3383C129.786 90.3851 129.655 90.4064 129.524 90.401H128.913C128.764 90.4012 128.621 90.3406 128.516 90.2327C128.406 90.1321 128.349 89.9829 128.364 89.8318C128.391 89.5233 128.508 89.2049 128.718 88.8832C128.929 88.5599 129.214 88.2712 129.574 88.0188C129.933 87.7648 130.346 87.5569 130.814 87.3952C131.283 87.2336 131.781 87.1527 132.31 87.1527C132.92 87.1527 133.487 87.2451 134.008 87.4282C134.53 87.6097 134.978 87.8769 135.35 88.2283C135.724 88.5797 136.016 89.0169 136.225 89.5365C136.435 90.0562 136.541 90.655 136.541 91.3297V97.7635C136.543 97.9144 136.484 98.0593 136.379 98.1644C136.278 98.2732 136.138 98.3342 135.992 98.3327H135.238C135.092 98.3337 134.953 98.2728 134.853 98.1644C134.747 98.0593 134.689 97.9144 134.691 97.7635V96.8975C134.559 97.1772 134.363 97.42 134.121 97.6052C133.849 97.817 133.551 97.9906 133.235 98.1215C132.903 98.2617 132.558 98.369 132.198 98.4383C131.866 98.5058 131.528 98.5412 131.19 98.5438C130.696 98.5498 130.205 98.4718 129.736 98.3129C129.329 98.1769 128.95 97.9655 128.617 97.6893C128.002 97.1672 127.648 96.3892 127.651 95.5695ZM131.394 96.7292C131.882 96.7292 132.33 96.6516 132.737 96.4982C133.143 96.3432 133.492 96.1287 133.785 95.8548C134.076 95.5793 134.299 95.2527 134.456 94.8733C134.612 94.4939 134.691 94.0715 134.691 93.608V93.0801L132.289 93.4809C131.436 93.6212 130.757 93.8472 130.254 94.1573C129.754 94.4658 129.502 94.8667 129.502 95.3583C129.503 95.5186 129.538 95.6767 129.604 95.8219C129.672 95.9769 129.781 96.1254 129.93 96.2656C130.079 96.4058 130.272 96.518 130.508 96.6022C130.747 96.6879 131.042 96.7292 131.394 96.7292ZM140.875 93.5865C140.928 94.1491 141.046 94.6258 141.231 95.0218C141.414 95.4144 141.637 95.7377 141.902 95.9918C142.167 96.2442 142.46 96.4306 142.786 96.5494C143.112 96.6698 143.444 96.7308 143.783 96.7308C144.434 96.7308 144.99 96.6022 145.452 96.3498C145.913 96.0974 146.271 95.6734 146.529 95.0844C146.625 94.8584 146.722 94.7083 146.824 94.6308C146.934 94.5508 147.067 94.5103 147.201 94.5153H147.811C147.961 94.5153 148.092 94.5714 148.208 94.6836C148.323 94.7957 148.373 94.931 148.36 95.0844C148.333 95.4722 148.226 95.8495 148.046 96.1914C147.828 96.6194 147.531 96.9994 147.171 97.3099C146.784 97.6547 146.309 97.945 145.746 98.1842C145.184 98.4234 144.529 98.5438 143.783 98.5438C143.103 98.557 142.428 98.4279 141.799 98.1644C141.247 97.9277 140.748 97.5755 140.335 97.1301C139.929 96.6843 139.611 96.1615 139.4 95.5909C139.172 94.9839 139.045 94.3422 139.022 93.6921C139.007 93.4146 138.997 93.1369 138.992 92.859C138.986 92.5291 138.995 92.2437 139.024 92.0045C139.077 91.3281 139.217 90.6963 139.441 90.1073C139.664 89.5151 139.971 89.002 140.366 88.5665C140.759 88.131 141.241 87.7862 141.81 87.5321C142.38 87.2797 143.037 87.1527 143.784 87.1527C144.529 87.1527 145.184 87.2731 145.746 87.5124C146.309 87.7516 146.784 88.0419 147.171 88.3867C147.556 88.7331 147.848 89.1043 148.046 89.5052C148.242 89.9061 148.347 90.2756 148.36 90.6121C148.375 90.7632 148.318 90.9124 148.208 91.013C148.103 91.1209 147.96 91.1815 147.811 91.1813H147.201C147.067 91.1863 146.934 91.1457 146.824 91.0658C146.723 90.9883 146.624 90.8381 146.529 90.6121C146.272 90.0215 145.913 89.5992 145.452 89.3468C144.99 89.0944 144.434 88.9674 143.783 88.9674C143.444 88.9674 143.109 89.0268 142.777 89.1472C142.443 89.2667 142.138 89.4567 141.881 89.7048C141.616 89.9588 141.393 90.2822 141.21 90.6765C141.012 91.1288 140.898 91.6149 140.873 92.11C140.832 92.6013 140.832 93.0953 140.873 93.5865H140.875ZM103.464 111.319C103.517 111.88 103.635 112.358 103.818 112.754C104.003 113.147 104.226 113.47 104.491 113.724C104.754 113.977 105.049 114.163 105.375 114.282C105.701 114.402 106.033 114.463 106.372 114.463C107.024 114.463 107.579 114.335 108.041 114.082C108.502 113.83 108.86 113.406 109.118 112.817C109.214 112.591 109.311 112.441 109.413 112.363C109.523 112.283 109.656 112.243 109.791 112.248H110.401C110.55 112.248 110.681 112.304 110.797 112.416C110.913 112.528 110.962 112.662 110.949 112.817C110.922 113.205 110.815 113.582 110.635 113.924C110.417 114.352 110.12 114.732 109.76 115.042C109.373 115.387 108.898 115.678 108.335 115.917C107.773 116.156 107.118 116.276 106.372 116.276C105.693 116.29 105.018 116.16 104.388 115.897C103.836 115.66 103.337 115.308 102.924 114.863C102.518 114.417 102.2 113.894 101.989 113.323C101.761 112.716 101.634 112.075 101.612 111.425C101.596 111.147 101.586 110.869 101.581 110.592C101.575 110.262 101.584 109.976 101.613 109.737C101.666 109.061 101.806 108.429 102.03 107.84C102.252 107.248 102.56 106.735 102.955 106.299C103.348 105.864 103.83 105.519 104.399 105.265C104.969 105.012 105.626 104.885 106.374 104.885C107.118 104.885 107.773 105.006 108.335 105.245C108.897 105.484 109.373 105.774 109.76 106.119C110.145 106.466 110.437 106.837 110.635 107.238C110.831 107.639 110.937 108.008 110.949 108.345C110.964 108.496 110.908 108.645 110.797 108.746C110.692 108.853 110.549 108.914 110.401 108.914H109.791C109.656 108.919 109.523 108.878 109.413 108.798C109.312 108.721 109.213 108.571 109.118 108.345C108.861 107.754 108.502 107.332 108.04 107.079C107.579 106.827 107.024 106.7 106.372 106.7C106.033 106.7 105.698 106.759 105.366 106.88C105.033 106.999 104.727 107.189 104.47 107.437C104.205 107.691 103.982 108.015 103.799 108.409C103.602 108.861 103.487 109.347 103.462 109.843C103.421 110.334 103.421 110.828 103.462 111.319H103.464ZM117.877 104.885C118.608 104.885 119.26 105.001 119.83 105.233C120.398 105.464 120.888 105.786 121.294 106.193C121.701 106.601 122.022 107.098 122.26 107.68C122.497 108.264 122.643 108.901 122.698 109.59C122.711 109.716 122.717 109.867 122.717 110.042V111.139C122.717 111.316 122.711 111.459 122.698 111.571C122.64 112.231 122.489 112.878 122.249 113.492C122.019 114.069 121.701 114.561 121.294 114.968C120.873 115.385 120.375 115.712 119.83 115.928C119.26 116.159 118.61 116.275 117.877 116.275C117.143 116.275 116.493 116.159 115.923 115.928C115.377 115.712 114.879 115.386 114.458 114.968C114.043 114.548 113.714 114.046 113.492 113.492C113.247 112.88 113.099 112.232 113.055 111.571C113.039 111.428 113.028 111.284 113.023 111.139C113.009 110.774 113.009 110.408 113.023 110.042C113.029 109.891 113.039 109.74 113.055 109.59C113.101 108.934 113.249 108.289 113.492 107.68C113.712 107.122 114.041 106.616 114.458 106.193C114.879 105.776 115.377 105.45 115.923 105.233C116.493 105.002 117.143 104.887 117.877 104.887V104.885ZM120.846 111.468C120.873 111.228 120.888 110.936 120.888 110.592C120.888 110.247 120.873 109.948 120.846 109.694C120.81 109.29 120.721 108.893 120.583 108.513C120.333 107.797 119.801 107.222 119.117 106.931C118.723 106.769 118.301 106.69 117.877 106.7C117.402 106.7 116.987 106.777 116.636 106.931C115.952 107.222 115.419 107.798 115.171 108.515C115.036 108.879 114.946 109.273 114.906 109.694C114.877 109.992 114.863 110.292 114.866 110.592C114.866 110.936 114.878 111.228 114.906 111.466C114.947 111.888 115.034 112.282 115.171 112.647C115.42 113.363 115.952 113.938 116.636 114.229C116.989 114.384 117.402 114.462 117.877 114.462C118.352 114.462 118.764 114.384 119.117 114.231C119.801 113.939 120.334 113.364 120.583 112.647C120.717 112.282 120.806 111.888 120.846 111.466V111.468ZM127.285 106.32C127.417 106.139 127.56 105.966 127.712 105.802C128.067 105.421 128.518 105.148 129.014 105.012C129.299 104.928 129.632 104.885 130.01 104.885C130.839 104.885 131.522 105.044 132.065 105.36C132.607 105.677 133.036 106.131 133.347 106.721C133.524 106.467 133.71 106.228 133.907 106.004C134.329 105.522 134.881 105.18 135.493 105.022C135.825 104.931 136.215 104.885 136.663 104.885C138.032 104.885 139.03 105.311 139.653 106.162C140.278 107.012 140.589 108.175 140.589 109.653V115.496C140.591 115.647 140.532 115.792 140.427 115.897C140.326 116.006 140.186 116.067 140.04 116.065H139.287C139.142 116.066 139.002 116.005 138.902 115.897C138.796 115.792 138.737 115.647 138.738 115.496V109.864C138.738 108.78 138.535 107.983 138.128 107.47C137.721 106.956 137.124 106.7 136.337 106.7C135.618 106.7 135.039 106.946 134.599 107.437C134.158 107.931 133.938 108.689 133.938 109.716V115.496C133.939 115.647 133.88 115.792 133.774 115.897C133.674 116.005 133.534 116.066 133.389 116.065H132.635C132.489 116.066 132.35 116.005 132.249 115.897C132.143 115.792 132.084 115.647 132.086 115.496V109.864C132.086 108.78 131.882 107.983 131.476 107.47C131.068 106.956 130.473 106.7 129.686 106.7C128.967 106.7 128.386 106.946 127.946 107.437C127.505 107.931 127.285 108.689 127.285 109.716V115.496C127.286 115.647 127.227 115.792 127.121 115.897C127.021 116.005 126.882 116.066 126.736 116.065H125.982C125.836 116.066 125.697 116.005 125.597 115.897C125.491 115.792 125.432 115.647 125.433 115.496V105.664C125.433 105.511 125.487 105.377 125.597 105.263C125.697 105.155 125.836 105.094 125.982 105.095H126.736C126.885 105.095 127.014 105.151 127.121 105.263C127.231 105.377 127.285 105.511 127.285 105.664V106.319V106.32ZM148.696 116.276C147.855 116.276 147.184 116.125 146.681 115.823C146.181 115.521 145.8 115.193 145.542 114.841V119.503C145.544 119.654 145.486 119.799 145.381 119.904C145.28 120.013 145.14 120.074 144.993 120.072H144.24C144.095 120.073 143.955 120.012 143.855 119.904C143.749 119.799 143.69 119.654 143.691 119.503V105.666C143.691 105.512 143.746 105.379 143.855 105.265C143.955 105.156 144.095 105.095 144.24 105.096H144.995C145.142 105.096 145.272 105.153 145.38 105.265C145.489 105.379 145.544 105.512 145.544 105.666V106.32C145.815 105.941 146.202 105.606 146.702 105.317C147.205 105.03 147.869 104.885 148.696 104.885C149.333 104.885 149.927 105.001 150.477 105.233C151.025 105.464 151.504 105.799 151.911 106.236C152.317 106.672 152.642 107.198 152.886 107.817C153.13 108.437 153.273 109.132 153.313 109.905C153.343 110.362 153.343 110.82 153.313 111.276C153.273 112.052 153.13 112.746 152.886 113.365C152.664 113.949 152.333 114.483 151.911 114.937C151.504 115.365 151.015 115.702 150.476 115.927C149.927 116.159 149.333 116.276 148.696 116.276ZM145.544 109.674C145.528 109.952 145.521 110.23 145.523 110.507C145.523 110.852 145.529 111.129 145.544 111.341C145.584 112.339 145.871 113.109 146.407 113.65C146.943 114.191 147.638 114.462 148.494 114.462C149.387 114.462 150.094 114.166 150.609 113.576C151.122 112.985 151.408 112.184 151.463 111.171C151.476 110.778 151.476 110.384 151.463 109.989C151.408 108.978 151.124 108.175 150.609 107.586C150.094 106.995 149.389 106.7 148.492 106.7C147.652 106.7 146.961 106.967 146.418 107.502C145.876 108.036 145.584 108.76 145.544 109.674ZM155.907 105.666C155.907 105.512 155.962 105.379 156.071 105.265C156.171 105.156 156.31 105.095 156.456 105.096H157.21C157.36 105.096 157.488 105.153 157.595 105.265C157.705 105.379 157.759 105.512 157.759 105.666V111.235C157.759 112.317 157.993 113.125 158.461 113.66C158.929 114.194 159.61 114.462 160.505 114.462C161.359 114.462 162.03 114.194 162.52 113.66C163.007 113.125 163.251 112.317 163.251 111.235V105.664C163.251 105.511 163.306 105.377 163.414 105.263C163.514 105.154 163.654 105.093 163.8 105.095H164.555C164.702 105.095 164.831 105.151 164.94 105.263C165.049 105.377 165.102 105.511 165.102 105.664V115.494C165.104 115.645 165.046 115.79 164.942 115.895C164.84 116.005 164.7 116.066 164.553 116.064H163.8C163.655 116.065 163.515 116.004 163.415 115.895C163.309 115.791 163.25 115.646 163.251 115.494V114.84C162.995 115.191 162.627 115.519 162.154 115.821C161.679 116.123 161.027 116.275 160.2 116.275C159.563 116.275 158.981 116.166 158.451 115.948C157.937 115.741 157.472 115.424 157.087 115.019C156.695 114.598 156.397 114.094 156.214 113.543C156.001 112.902 155.898 112.227 155.909 111.55V105.664L155.907 105.666ZM171.074 112.373C171.074 112.64 171.097 112.891 171.145 113.122C171.193 113.353 171.276 113.554 171.398 113.724C171.533 113.902 171.713 114.037 171.918 114.114C172.142 114.206 172.43 114.251 172.782 114.251H173.86C174.01 114.251 174.138 114.307 174.246 114.42C174.355 114.533 174.409 114.666 174.409 114.82V115.496C174.411 115.647 174.353 115.792 174.247 115.897C174.147 116.006 174.007 116.067 173.86 116.065H172.578C171.398 116.065 170.545 115.748 170.015 115.115C169.485 114.483 169.222 113.569 169.222 112.373V106.911H167.717C167.571 106.912 167.431 106.85 167.331 106.741C167.225 106.636 167.166 106.491 167.168 106.34V105.666C167.168 105.512 167.222 105.379 167.33 105.265C167.43 105.156 167.57 105.095 167.717 105.096H169.222V101.658C169.222 101.503 169.277 101.37 169.386 101.258C169.486 101.149 169.625 101.088 169.771 101.089H170.525C170.673 101.089 170.803 101.145 170.91 101.258C171.02 101.37 171.074 101.505 171.074 101.658V105.096H173.658C173.806 105.096 173.934 105.153 174.043 105.265C174.153 105.379 174.206 105.512 174.206 105.666V106.342C174.207 106.492 174.149 106.636 174.045 106.741C173.944 106.851 173.804 106.913 173.657 106.911H171.073V112.373H171.074ZM176.109 109.526C176.162 108.879 176.311 108.275 176.555 107.711C176.801 107.15 177.119 106.657 177.512 106.236C177.905 105.814 178.377 105.484 178.926 105.245C179.51 104.999 180.136 104.876 180.767 104.885C181.499 104.885 182.153 105.009 182.73 105.255C183.307 105.502 183.799 105.855 184.206 106.32C184.612 106.784 184.924 107.347 185.14 108.008C185.357 108.668 185.466 109.407 185.466 110.222V110.791C185.468 110.942 185.409 111.087 185.304 111.192C185.204 111.301 185.064 111.363 184.917 111.362H177.92V111.487C177.947 112.444 178.228 113.178 178.764 113.691C179.298 114.206 179.967 114.462 180.767 114.462C181.513 114.462 182.072 114.353 182.446 114.135C182.818 113.917 183.12 113.673 183.351 113.408C183.433 113.316 183.529 113.238 183.635 113.177C183.751 113.127 183.876 113.104 184.001 113.111H184.611C184.763 113.112 184.909 113.172 185.018 113.281C185.135 113.376 185.19 113.531 185.161 113.681C185.102 113.98 184.984 114.264 184.815 114.515C184.595 114.848 184.316 115.135 183.991 115.359C183.632 115.618 183.184 115.838 182.649 116.012C182.113 116.187 181.486 116.276 180.767 116.276C180.089 116.276 179.478 116.153 178.937 115.907C178.405 115.669 177.924 115.324 177.521 114.894C177.122 114.465 176.799 113.959 176.555 113.376C176.306 112.769 176.155 112.123 176.109 111.466C176.041 110.821 176.041 110.171 176.109 109.526ZM177.92 109.59H183.635V109.526C183.635 108.668 183.375 107.983 182.852 107.47C182.33 106.956 181.635 106.7 180.767 106.7C180.374 106.7 180.008 106.766 179.669 106.9C179.337 107.029 179.033 107.222 178.773 107.47C178.517 107.716 178.313 108.015 178.163 108.366C178.011 108.733 177.928 109.127 177.92 109.526V109.59ZM193.451 105.096C193.6 105.096 193.729 105.153 193.836 105.265C193.945 105.379 194 105.512 194 105.666V106.342C194.001 106.492 193.943 106.636 193.838 106.741C193.738 106.851 193.597 106.912 193.451 106.911H192.271C190.711 106.911 189.931 107.719 189.931 109.336V115.496C189.933 115.647 189.874 115.792 189.769 115.897C189.669 116.006 189.528 116.067 189.382 116.065H188.628C188.483 116.066 188.343 116.005 188.243 115.897C188.138 115.792 188.079 115.647 188.081 115.496V105.664C188.081 105.511 188.135 105.377 188.243 105.263C188.343 105.155 188.483 105.094 188.628 105.095H189.382C189.532 105.095 189.66 105.151 189.768 105.263C189.877 105.377 189.931 105.511 189.931 105.664V106.319C190.204 105.897 190.528 105.586 190.909 105.39C191.288 105.192 191.783 105.095 192.393 105.095H193.451V105.096ZM107.595 131.483C107.603 131.243 107.528 131.008 107.382 130.82C107.205 130.62 106.986 130.464 106.741 130.366C106.388 130.217 106.024 130.097 105.653 130.007C105.143 129.878 104.631 129.759 104.117 129.649C103.019 129.41 102.249 129.012 101.809 128.458C101.37 127.908 101.136 127.217 101.148 126.506C101.143 125.657 101.499 124.847 102.124 124.291C102.449 123.995 102.859 123.763 103.355 123.594C103.849 123.426 104.43 123.342 105.093 123.342C105.759 123.342 106.338 123.42 106.833 123.573C107.329 123.728 107.744 123.926 108.085 124.165C108.422 124.404 108.68 124.66 108.857 124.934C109.033 125.209 109.129 125.472 109.142 125.726C109.157 125.877 109.1 126.026 108.99 126.127C108.885 126.235 108.742 126.295 108.593 126.295H107.921C107.821 126.292 107.722 126.274 107.627 126.242C107.499 126.198 107.388 126.113 107.311 126C107.102 125.736 106.833 125.529 106.528 125.399C106.183 125.238 105.704 125.157 105.093 125.157C104.47 125.157 103.964 125.275 103.578 125.515C103.192 125.754 102.998 126.084 102.998 126.504C102.998 126.773 103.053 126.988 103.16 127.148C103.298 127.334 103.48 127.48 103.69 127.572C103.934 127.691 104.257 127.8 104.656 127.898C105.057 127.997 105.555 128.116 106.152 128.256C106.775 128.397 107.298 128.577 107.719 128.794C108.137 129.012 108.478 129.259 108.735 129.533C108.991 129.807 109.176 130.111 109.285 130.441C109.393 130.771 109.446 131.117 109.446 131.483C109.446 131.906 109.349 132.313 109.152 132.707C108.947 133.111 108.659 133.464 108.308 133.742C107.906 134.056 107.456 134.298 106.975 134.458C106.4 134.649 105.798 134.741 105.194 134.732C104.531 134.732 103.942 134.649 103.425 134.479C102.959 134.334 102.514 134.125 102.103 133.857C101.774 133.647 101.488 133.375 101.258 133.055C101.063 132.767 100.957 132.496 100.944 132.244C100.928 132.095 100.981 131.947 101.087 131.843C101.194 131.731 101.341 131.67 101.493 131.675H102.225C102.307 131.675 102.401 131.685 102.51 131.706C102.618 131.726 102.719 131.807 102.815 131.948C103.032 132.257 103.331 132.496 103.711 132.664C104.09 132.834 104.586 132.918 105.196 132.918C105.494 132.918 105.789 132.884 106.08 132.813C106.372 132.742 106.629 132.645 106.853 132.516C107.078 132.391 107.256 132.24 107.393 132.064C107.524 131.9 107.595 131.695 107.595 131.483ZM113.383 129.776C113.437 130.337 113.556 130.815 113.739 131.211C113.922 131.604 114.147 131.927 114.411 132.179C114.675 132.433 114.97 132.62 115.294 132.74C115.622 132.859 115.952 132.918 116.292 132.918C116.944 132.918 117.499 132.791 117.962 132.539C118.422 132.285 118.78 131.863 119.039 131.274C119.135 131.048 119.231 130.898 119.334 130.82C119.444 130.741 119.575 130.7 119.71 130.705H120.319C120.47 130.705 120.602 130.759 120.717 130.873C120.833 130.985 120.883 131.119 120.87 131.274C120.842 131.661 120.734 132.038 120.554 132.379C120.336 132.808 120.039 133.188 119.679 133.499C119.294 133.842 118.819 134.134 118.255 134.374C117.694 134.613 117.039 134.732 116.292 134.732C115.613 134.745 114.938 134.616 114.309 134.352C113.756 134.116 113.258 133.764 112.845 133.319C112.439 132.873 112.121 132.35 111.909 131.779C111.682 131.172 111.555 130.531 111.532 129.881C111.517 129.604 111.506 129.326 111.502 129.048C111.495 128.718 111.505 128.433 111.534 128.194C111.587 127.517 111.726 126.886 111.949 126.297C112.174 125.704 112.482 125.191 112.875 124.756C113.269 124.319 113.75 123.976 114.32 123.721C114.888 123.469 115.546 123.342 116.292 123.342C117.039 123.342 117.692 123.461 118.255 123.7C118.817 123.939 119.294 124.231 119.679 124.576C120.066 124.921 120.358 125.294 120.554 125.694C120.751 126.095 120.855 126.463 120.87 126.8C120.885 126.951 120.829 127.101 120.717 127.202C120.612 127.31 120.47 127.371 120.321 127.371H119.711C119.576 127.376 119.444 127.335 119.334 127.255C119.233 127.178 119.133 127.026 119.039 126.801C118.782 126.211 118.422 125.789 117.96 125.536C117.499 125.282 116.944 125.157 116.292 125.157C115.954 125.157 115.618 125.216 115.286 125.335C114.953 125.455 114.648 125.646 114.391 125.896C114.126 126.148 113.903 126.472 113.72 126.864C113.522 127.317 113.408 127.804 113.383 128.299C113.342 128.791 113.342 129.285 113.383 129.776ZM125.314 133.951C125.316 134.102 125.257 134.247 125.152 134.352C125.052 134.461 124.913 134.523 124.767 134.522H124.012C123.867 134.523 123.727 134.461 123.627 134.352C123.521 134.247 123.462 134.102 123.464 133.951V124.124C123.464 123.969 123.518 123.835 123.626 123.723C123.726 123.614 123.866 123.553 124.012 123.555H124.767C124.915 123.555 125.043 123.611 125.152 123.723C125.261 123.835 125.314 123.971 125.314 124.124V133.953V133.951ZM125.518 121.318C125.519 121.468 125.461 121.612 125.356 121.717C125.256 121.827 125.115 121.888 124.969 121.887H123.809C123.663 121.888 123.523 121.826 123.423 121.717C123.318 121.613 123.259 121.468 123.26 121.318V120.114C123.26 119.96 123.314 119.827 123.423 119.714C123.524 119.606 123.663 119.545 123.809 119.546H124.969C125.118 119.546 125.247 119.602 125.354 119.714C125.463 119.827 125.518 119.96 125.518 120.115V121.318ZM128.03 127.983C128.084 127.336 128.234 126.731 128.479 126.168C128.722 125.607 129.041 125.114 129.434 124.691C129.827 124.271 130.299 123.939 130.847 123.702C131.431 123.455 132.058 123.333 132.689 123.342C133.421 123.342 134.076 123.466 134.652 123.712C135.23 123.957 135.719 124.312 136.127 124.776C136.533 125.241 136.846 125.803 137.063 126.463C137.279 127.125 137.389 127.862 137.389 128.679V129.248C137.39 129.399 137.331 129.544 137.225 129.649C137.125 129.757 136.985 129.818 136.84 129.817H129.842V129.944C129.868 130.901 130.15 131.635 130.684 132.148C131.221 132.661 131.888 132.918 132.689 132.918C133.435 132.918 133.994 132.81 134.368 132.592C134.74 132.374 135.042 132.13 135.273 131.864C135.356 131.772 135.451 131.694 135.557 131.632C135.673 131.583 135.798 131.562 135.923 131.569H136.533C136.685 131.57 136.831 131.63 136.941 131.737C137.057 131.833 137.112 131.988 137.084 132.138C137.024 132.437 136.906 132.721 136.737 132.971C136.518 133.304 136.238 133.59 135.914 133.814C135.554 134.075 135.106 134.293 134.57 134.469C134.036 134.644 133.408 134.733 132.689 134.733C132.01 134.733 131.4 134.609 130.859 134.364C130.327 134.125 129.846 133.781 129.444 133.351C129.044 132.922 128.722 132.415 128.478 131.833C128.228 131.226 128.076 130.58 128.03 129.923C127.962 129.278 127.962 128.627 128.03 127.983ZM129.84 128.045H135.557V127.983C135.557 127.125 135.296 126.439 134.774 125.925C134.252 125.414 133.557 125.157 132.688 125.157C132.296 125.157 131.93 125.223 131.59 125.356C131.259 125.485 130.955 125.678 130.696 125.925C130.439 126.173 130.235 126.47 130.086 126.823C129.933 127.19 129.849 127.583 129.84 127.983V128.045ZM149.4 133.951C149.402 134.102 149.344 134.247 149.238 134.352C149.138 134.461 148.999 134.523 148.853 134.522H148.099C147.953 134.523 147.813 134.461 147.713 134.352C147.608 134.247 147.548 134.102 147.55 133.951V128.383C147.55 127.301 147.299 126.491 146.797 125.958C146.295 125.424 145.596 125.157 144.701 125.157C143.847 125.157 143.16 125.424 142.637 125.957C142.115 126.491 141.854 127.301 141.854 128.382V133.951C141.855 134.102 141.797 134.247 141.692 134.352C141.591 134.462 141.451 134.523 141.305 134.522H140.55C140.405 134.523 140.265 134.461 140.165 134.352C140.06 134.247 140.001 134.102 140.003 133.951V124.124C140.003 123.969 140.056 123.835 140.164 123.723C140.265 123.614 140.405 123.553 140.552 123.555H141.305C141.454 123.555 141.582 123.611 141.69 123.723C141.799 123.835 141.854 123.971 141.854 124.124V124.777C142.11 124.426 142.496 124.101 143.003 123.797C143.512 123.495 144.179 123.344 145.007 123.344C145.645 123.344 146.234 123.453 146.776 123.67C147.319 123.888 147.784 124.198 148.171 124.599C148.556 125 148.858 125.495 149.076 126.085C149.293 126.676 149.4 127.338 149.4 128.068V133.953V133.951ZM153.865 129.776C153.92 130.337 154.039 130.815 154.222 131.211C154.405 131.604 154.629 131.927 154.894 132.179C155.157 132.433 155.453 132.62 155.777 132.74C156.104 132.859 156.435 132.918 156.775 132.918C157.427 132.918 157.982 132.791 158.444 132.539C158.905 132.285 159.263 131.863 159.521 131.274C159.618 131.048 159.714 130.898 159.817 130.82C159.926 130.741 160.058 130.7 160.192 130.705H160.802C160.953 130.705 161.085 130.759 161.2 130.873C161.316 130.985 161.366 131.119 161.353 131.274C161.325 131.661 161.217 132.038 161.037 132.379C160.819 132.808 160.522 133.188 160.162 133.499C159.777 133.842 159.302 134.134 158.738 134.374C158.176 134.613 157.522 134.732 156.775 134.732C156.096 134.745 155.421 134.616 154.792 134.352C154.239 134.116 153.741 133.764 153.328 133.319C152.921 132.873 152.604 132.35 152.392 131.779C152.165 131.172 152.037 130.531 152.015 129.881C151.999 129.604 151.989 129.326 151.984 129.048C151.978 128.718 151.988 128.433 152.016 128.194C152.069 127.517 152.209 126.886 152.432 126.297C152.657 125.704 152.965 125.191 153.358 124.756C153.751 124.319 154.233 123.976 154.803 123.721C155.371 123.469 156.029 123.342 156.775 123.342C157.522 123.342 158.175 123.461 158.738 123.7C159.3 123.939 159.777 124.231 160.162 124.576C160.549 124.921 160.841 125.294 161.037 125.694C161.234 126.095 161.338 126.463 161.353 126.8C161.368 126.951 161.311 127.101 161.2 127.202C161.095 127.31 160.952 127.371 160.804 127.371H160.194C160.059 127.376 159.927 127.335 159.817 127.255C159.714 127.178 159.616 127.026 159.521 126.801C159.265 126.211 158.905 125.789 158.443 125.536C157.982 125.282 157.427 125.157 156.775 125.157C156.437 125.157 156.101 125.216 155.769 125.335C155.436 125.455 155.13 125.646 154.873 125.896C154.609 126.148 154.385 126.472 154.202 126.864C154.005 127.317 153.89 127.804 153.865 128.299C153.825 128.791 153.825 129.285 153.865 129.776ZM163.458 127.983C163.511 127.336 163.661 126.731 163.906 126.168C164.15 125.607 164.468 125.114 164.861 124.691C165.254 124.271 165.726 123.939 166.275 123.702C166.859 123.455 167.485 123.333 168.116 123.342C168.85 123.342 169.503 123.466 170.079 123.712C170.657 123.957 171.148 124.312 171.556 124.776C171.962 125.241 172.273 125.803 172.49 126.463C172.708 127.125 172.816 127.862 172.816 128.679V129.248C172.817 129.399 172.759 129.544 172.654 129.649C172.553 129.758 172.413 129.819 172.267 129.817H165.269V129.944C165.296 130.901 165.577 131.635 166.113 132.148C166.649 132.661 167.317 132.918 168.116 132.918C168.863 132.918 169.423 132.81 169.795 132.592C170.167 132.374 170.469 132.13 170.7 131.864C170.783 131.772 170.879 131.694 170.984 131.632C171.101 131.583 171.226 131.562 171.352 131.569H171.962C172.113 131.57 172.258 131.63 172.368 131.737C172.484 131.833 172.539 131.988 172.511 132.138C172.452 132.437 172.334 132.72 172.166 132.971C171.946 133.304 171.666 133.59 171.341 133.814C170.981 134.075 170.533 134.293 169.999 134.469C169.463 134.644 168.835 134.733 168.116 134.733C167.439 134.733 166.827 134.609 166.286 134.364C165.755 134.125 165.274 133.781 164.872 133.351C164.471 132.922 164.15 132.415 163.906 131.833C163.656 131.226 163.504 130.58 163.457 129.923C163.389 129.278 163.389 128.627 163.457 127.983H163.458ZM165.269 128.045H170.984V127.983C170.984 127.125 170.724 126.439 170.201 125.925C169.679 125.414 168.984 125.157 168.116 125.157C167.723 125.157 167.357 125.223 167.018 125.356C166.687 125.485 166.383 125.678 166.123 125.925C165.866 126.173 165.662 126.47 165.513 126.823C165.36 127.19 165.278 127.584 165.269 127.983V128.045ZM59.352 148L28.0209 129.271L28 91.7686L59.3119 73L90.6414 91.7306L90.6639 129.231L59.352 148ZM83.3403 98.0968C82.029 98.0968 80.9665 99.1988 80.9665 100.555C80.9665 101.916 82.029 103.018 83.3419 103.018C84.65 103.018 85.7125 101.916 85.7125 100.555C85.7125 99.1988 84.65 98.0968 83.3419 98.0968H83.3403ZM73.8451 98.0968C72.5354 98.0968 71.4745 99.1988 71.4745 100.555C71.4745 101.916 72.5338 103.018 73.8451 103.018C75.158 103.018 76.2189 101.916 76.2189 100.555C76.2189 99.1988 75.158 98.0968 73.8451 98.0968ZM83.3403 108.213C82.029 108.213 80.9681 109.315 80.9681 110.672C80.9681 112.032 82.0274 113.132 83.3403 113.132C84.65 113.132 85.7125 112.032 85.7125 110.674C85.7125 109.315 84.65 108.213 83.3403 108.213ZM54.8596 108.213C53.5483 108.213 52.4842 109.315 52.4842 110.672C52.4842 112.032 53.5483 113.132 54.8596 113.132C56.1709 113.132 57.235 112.032 57.235 110.674C57.235 109.315 56.1709 108.213 54.8596 108.213ZM73.8467 108.213H64.3516C63.0387 108.213 61.9794 109.315 61.9794 110.672C61.9794 112.032 63.0387 113.132 64.3516 113.132H73.8467C75.1548 113.132 76.2173 112.032 76.2173 110.674C76.2173 109.315 75.1548 108.213 73.8467 108.213ZM45.3661 108.213H35.8709C34.5628 108.213 33.4987 109.315 33.4987 110.672C33.4987 112.032 34.5628 113.132 35.8709 113.132H45.3661C46.6757 113.132 47.7382 112.032 47.7382 110.674C47.7382 109.315 46.6757 108.213 45.3661 108.213ZM83.3435 118.327C82.0306 118.327 80.9681 119.429 80.9681 120.787C80.9681 122.148 82.0306 123.248 83.3435 123.248C84.65 123.248 85.7125 122.148 85.7125 120.787C85.7125 119.429 84.65 118.329 83.3435 118.329V118.327ZM73.8467 123.248C75.158 123.248 76.2189 122.148 76.2189 120.787C76.2189 119.429 75.158 118.329 73.8467 118.329C72.5354 118.329 71.4729 119.429 71.4729 120.787C71.4729 122.148 72.5354 123.248 73.8483 123.248H73.8467ZM64.3532 123.248C65.6661 123.248 66.7286 122.148 66.7286 120.787C66.7286 119.429 65.6661 118.329 64.3532 118.329C63.0419 118.329 61.9826 119.429 61.9826 120.787C61.9826 122.148 63.0419 123.248 64.3532 123.248Z" fill="black"/>
</svg>
