<svg width="214" height="46" viewBox="0 0 214 46" fill="none" xmlns="http://www.w3.org/2000/svg">
<g clip-path="url(#clip0)">
<path d="M75.5376 26.4951L74.2621 30.1323H74.1559C73.9433 29.3122 73.5535 28.0641 72.9158 26.5664L66.0777 9.27184H59.3813V36.8362H63.8102V19.8269C63.8102 18.7571 63.8102 17.5447 63.7747 16.047C63.7393 15.2982 63.6684 14.7277 63.633 14.2998H63.7393C63.9519 15.3695 64.1999 16.154 64.377 16.6532L72.5969 36.7649H75.7148L83.8638 16.4749C84.041 16.0114 84.2181 15.0842 84.3953 14.2998H84.5016C84.3953 16.3323 84.3244 18.1509 84.289 19.2563V36.7292H89.0012V9.20053H82.5529L75.5376 26.4951ZM93.4655 16.9742H98.0714V36.7292H93.4655V16.9742ZM95.8039 8.62998C95.0244 8.62998 94.3867 8.91526 93.8552 9.41448C93.3237 9.9137 93.0403 10.5556 93.0403 11.3401C93.0403 12.0889 93.3237 12.7308 93.8552 13.23C94.3867 13.7292 95.0244 13.9788 95.8039 13.9788C96.5833 13.9788 97.2565 13.6935 97.7525 13.23C98.284 12.7308 98.5675 12.0889 98.5675 11.3401C98.5675 10.5912 98.284 9.94936 97.7525 9.41448C97.292 8.91526 96.6188 8.62998 95.8039 8.62998ZM114.405 16.7959C113.555 16.6176 112.669 16.5106 111.818 16.5106C109.728 16.5106 107.815 16.9742 106.22 17.9013C104.626 18.8284 103.351 20.1122 102.536 21.7168C101.685 23.3571 101.26 25.247 101.26 27.4222C101.26 29.3122 101.685 30.9881 102.5 32.5215C103.315 34.0191 104.449 35.2315 105.972 36.0517C107.425 36.8718 109.126 37.2998 111.039 37.2998C113.236 37.2998 115.113 36.8362 116.602 35.9804L116.637 35.9447V31.6656L116.46 31.8083C115.787 32.3075 115.007 32.7354 114.228 32.985C113.413 33.2703 112.669 33.4129 112.031 33.4129C110.189 33.4129 108.736 32.878 107.709 31.7013C106.646 30.5602 106.114 28.9912 106.114 27.03C106.114 24.9974 106.646 23.3928 107.744 22.216C108.842 21.0393 110.295 20.4331 112.066 20.4331C113.555 20.4331 115.078 20.9323 116.46 21.9308L116.637 22.0734V17.5447L116.602 17.5091C115.999 17.2594 115.326 16.9742 114.405 16.7959ZM129.605 16.6532C128.471 16.6532 127.408 17.0098 126.487 17.7587C125.707 18.4005 125.176 19.3277 124.715 20.4331H124.68V16.9742H120.074V36.7292H124.68V26.6377C124.68 24.9261 125.034 23.4998 125.813 22.4656C126.593 21.3959 127.585 20.861 128.79 20.861C129.215 20.861 129.64 20.968 130.171 21.0393C130.667 21.1819 131.022 21.3246 131.27 21.5029L131.447 21.6455V17.0098L131.341 16.9742C131.022 16.7602 130.384 16.6532 129.605 16.6532ZM142.147 16.5463C138.923 16.5463 136.336 17.5091 134.529 19.399C132.687 21.2889 131.801 23.892 131.801 27.1726C131.801 30.2393 132.722 32.7354 134.494 34.554C136.265 36.337 138.675 37.2641 141.686 37.2641C144.84 37.2641 147.355 36.3013 149.162 34.3757C151.005 32.4501 151.89 29.8827 151.89 26.7091C151.89 23.5711 151.04 21.0749 149.304 19.2563C147.639 17.4377 145.194 16.5463 142.147 16.5463ZM145.832 31.737C144.981 32.8424 143.635 33.3773 141.97 33.3773C140.305 33.3773 138.958 32.8424 138.002 31.6656C137.045 30.5602 136.584 28.9556 136.584 26.923C136.584 24.8191 137.08 23.2145 138.002 22.0734C138.958 20.9323 140.269 20.3618 141.934 20.3618C143.564 20.3618 144.84 20.8967 145.761 22.0021C146.682 23.1075 147.178 24.7122 147.178 26.816C147.107 28.9556 146.717 30.6315 145.832 31.737ZM162.165 25.1757C160.713 24.5695 159.791 24.106 159.366 23.7137C159.012 23.3571 158.835 22.8579 158.835 22.216C158.835 21.6811 159.047 21.1463 159.579 20.7897C160.11 20.4331 160.713 20.2548 161.598 20.2548C162.378 20.2548 163.193 20.3974 163.972 20.6114C164.752 20.8253 165.46 21.1463 166.027 21.5742L166.204 21.7168V17.3664L166.098 17.3308C165.566 17.1168 164.858 16.9029 164.008 16.7246C163.157 16.5819 162.378 16.5106 161.74 16.5106C159.543 16.5106 157.736 17.0455 156.319 18.2222C154.902 19.3277 154.229 20.8253 154.229 22.5726C154.229 23.4998 154.37 24.3199 154.689 24.9974C155.008 25.6749 155.469 26.3168 156.107 26.8517C156.744 27.3509 157.665 27.9215 158.941 28.4563C160.004 28.9199 160.819 29.2765 161.315 29.5618C161.811 29.847 162.13 30.168 162.378 30.4176C162.555 30.7029 162.661 31.0594 162.661 31.523C162.661 32.8424 161.669 33.4842 159.65 33.4842C158.87 33.4842 158.055 33.3416 157.099 33.0207C156.142 32.6998 155.256 32.2362 154.512 31.7013L154.335 31.5587V36.0873L154.441 36.123C155.114 36.4439 155.929 36.6579 156.921 36.9075C157.913 37.0858 158.799 37.2284 159.579 37.2284C161.953 37.2284 163.901 36.6936 165.283 35.5168C166.7 34.3757 167.444 32.9137 167.444 31.0238C167.444 29.7044 167.09 28.5277 166.311 27.6362C165.283 26.7804 164.008 25.8889 162.165 25.1757ZM179.597 16.5463C176.373 16.5463 173.786 17.5091 171.979 19.399C170.172 21.2889 169.251 23.892 169.251 27.1726C169.251 30.2393 170.172 32.7354 171.944 34.554C173.715 36.337 176.125 37.2641 179.136 37.2641C182.29 37.2641 184.805 36.3013 186.612 34.3757C188.455 32.4501 189.34 29.8827 189.34 26.7091C189.34 23.5711 188.49 21.0749 186.754 19.2563C185.089 17.4377 182.644 16.5463 179.597 16.5463ZM183.246 31.737C182.396 32.8424 181.05 33.3773 179.384 33.3773C177.684 33.3773 176.373 32.8424 175.416 31.6656C174.46 30.5602 173.999 28.9556 173.999 26.923C173.999 24.8191 174.495 23.2145 175.416 22.0734C176.373 20.9323 177.684 20.3618 179.349 20.3618C180.943 20.3618 182.254 20.8967 183.175 22.0021C184.097 23.1075 184.593 24.7122 184.593 26.816C184.593 28.9556 184.132 30.6315 183.246 31.737ZM213.965 20.7897V16.9742H209.323V11.1261L209.181 11.1618L204.788 12.4811L204.682 12.5168V16.9742H197.737V14.478C197.737 13.337 198.021 12.4455 198.517 11.8749C199.013 11.3044 199.757 11.0191 200.678 11.0191C201.316 11.0191 201.989 11.1618 202.733 11.4827L202.91 11.5897V7.56022L202.804 7.52456C202.166 7.3106 201.316 7.16797 200.217 7.16797C198.836 7.16797 197.631 7.4889 196.533 8.02378C195.434 8.62998 194.619 9.45014 194.017 10.5556C193.415 11.6253 193.096 12.8377 193.096 14.2284V16.9742H189.872V20.754H193.096V36.7292H197.737V20.7897H204.682V30.9525C204.682 35.1246 206.63 37.2284 210.528 37.2284C211.165 37.2284 211.839 37.1215 212.476 37.0145C213.15 36.8718 213.646 36.6936 213.929 36.5509L213.965 36.5153V32.6998L213.787 32.8424C213.504 33.0207 213.256 33.1633 212.831 33.2703C212.476 33.3773 212.158 33.4129 211.91 33.4129C210.988 33.4129 210.351 33.199 209.89 32.6641C209.465 32.1649 209.252 31.3447 209.252 30.1323V20.7897H213.965Z" fill="#737373"/>
<path d="M0 0H21.7189V21.8589H0V0Z" fill="#F25022"/>
<path d="M23.9863 0H45.7052V21.8589H23.9863V0Z" fill="#7FBA00"/>
<path d="M0 24.1406H21.7189V45.9995H0V24.1406Z" fill="#00A4EF"/>
<path d="M23.9863 24.1406H45.7052V45.9995H23.9863V24.1406Z" fill="#FFB900"/>
</g>
<defs>
<clipPath id="clip0">
<rect width="214" height="46" fill="white"/>
</clipPath>
</defs>
</svg>
