<svg width="172" height="81" viewBox="0 0 172 81" fill="none" xmlns="http://www.w3.org/2000/svg">
<path d="M85.8892 39.989H80.1681V40.0474H80.2265H85.8308H85.8892V39.989Z" fill="#00C800"/>
<path d="M112.378 63.5011C110.539 63.5011 109.036 61.9832 109.036 60.1151C109.036 58.2762 110.539 56.7729 112.378 56.7729C114.246 56.7729 115.764 58.2762 115.764 60.1151C115.764 61.9832 114.246 63.5011 112.378 63.5011Z" fill="#00C800"/>
<path d="M97.6816 24.0371C99.9146 24.0371 101.71 22.2274 101.71 19.9944C101.71 17.7614 99.9 15.9663 97.6816 15.9663C95.4486 15.9663 93.6535 17.776 93.6535 19.9944C93.6535 22.2128 95.4486 24.0371 97.6816 24.0371Z" fill="#00C800"/>
<path d="M68.04 15.9663C65.807 15.9663 63.9973 17.776 63.9973 20.009C63.9973 22.242 65.807 24.0517 68.04 24.0517C70.273 24.0517 72.0681 22.242 72.0681 20.009C72.0681 17.776 70.273 15.9663 68.04 15.9663Z" fill="#00C800"/>
<path d="M68.04 7.99784C61.4287 7.99784 56.0432 13.3832 56.0432 19.9946C56.0432 26.6059 61.4287 31.9914 68.04 31.9914H98.0173C104.629 31.9914 110.014 26.6059 110.014 19.9946C110.014 13.3832 104.629 7.99784 98.0173 7.99784H68.04ZM98.0173 39.9892H68.04C57.0211 39.9892 48.0454 31.0281 48.0454 19.9946C48.0454 8.96108 57.0065 0 68.04 0H98.0173C109.036 0 118.012 8.96108 118.012 19.9946C118.012 31.0281 109.051 39.9892 98.0173 39.9892Z" fill="#00C800"/>
<path d="M31.0281 80.2996H26.1827V66.785C26.1827 63.7639 24.4605 61.5747 22.0962 61.5747C19.6735 61.5747 17.9659 63.7201 17.9659 66.785V80.2996H13.0768V66.785C13.0768 63.3698 11.0043 61.5747 8.94649 61.5747C6.52378 61.5747 4.81622 63.7201 4.81622 66.785V80.2996H0V67.0185C0 60.9763 3.69243 56.7439 8.96108 56.7439C11.4714 56.7439 13.6022 57.7801 15.4703 59.8817C17.2508 57.8239 19.5276 56.7439 22.0962 56.7439C27.3503 56.7439 31.0135 60.9617 31.0135 67.0185V80.2996H31.0281Z" fill="#00C800"/>
<path d="M39.8433 80.2995H34.9541V57.3422H39.8433V80.2995ZM37.406 54C35.6546 54 34.2827 52.6136 34.2827 50.833C34.2827 49.0525 35.6254 47.7244 37.406 47.7244C39.1719 47.7244 40.573 49.0963 40.573 50.833C40.573 52.5844 39.1427 54 37.406 54Z" fill="#00C800"/>
<path d="M55.3427 80.898C52.1757 80.898 49.1984 79.6283 46.9508 77.3369C44.7617 75.1477 43.5357 72.1121 43.5357 68.8283C43.5357 65.5445 44.7471 62.5088 46.9508 60.305C49.1546 58.0575 52.2195 56.7585 55.3281 56.7585C58.7579 56.7585 61.633 57.9115 63.8514 60.1883L64.4789 60.8304L60.9908 64.3915L60.3487 63.8077C58.6995 62.3191 57.1525 61.6623 55.3281 61.6623C51.446 61.6623 48.2789 64.8877 48.2789 68.8429C48.2789 72.8272 51.446 76.0672 55.3281 76.0672C57.1525 76.0672 58.7433 75.3812 60.3341 73.9218L60.9616 73.338L64.5519 76.7094L63.8222 77.3661C61.2389 79.7012 58.393 80.898 55.3427 80.898Z" fill="#00C800"/>
<path d="M73.0168 80.2995H67.8649V68.8136C67.8649 61.4433 71.0465 57.9114 78.1978 57.3276L79.1903 57.2546V62.0709L78.373 62.1584C74.4762 62.5963 73.0168 64.3184 73.0168 68.5363V80.2995Z" fill="#00C800"/>
<path d="M92.6027 80.898C89.4357 80.898 86.4584 79.6283 84.2108 77.3369C81.9779 75.0602 80.7519 72.0391 80.7519 68.8283C80.7519 65.6175 81.9779 62.5964 84.2108 60.3196C86.4584 58.0283 89.4357 56.7585 92.6027 56.7585C95.7406 56.7585 98.7033 58.0283 100.951 60.3196C103.169 62.538 104.41 65.5737 104.41 68.8283C104.41 72.0829 103.184 75.1185 100.951 77.3515C98.7033 79.6283 95.7406 80.898 92.6027 80.898ZM92.559 61.5894C88.8227 61.5894 85.7725 64.8294 85.7725 68.8137C85.7725 72.7688 88.8081 75.9942 92.559 75.9942C96.3827 75.9942 99.3892 72.8418 99.3892 68.8137C99.3746 64.8439 96.3098 61.5894 92.559 61.5894Z" fill="#00C800"/>
<path d="M112.378 80.2996C110.539 80.2996 109.036 78.7964 109.036 76.9575C109.036 75.0894 110.539 73.5715 112.378 73.5715C114.246 73.5715 115.764 75.0894 115.764 76.9575C115.764 78.811 114.246 80.2996 112.378 80.2996Z" fill="#00C800"/>
<path d="M132.183 80.8979C125.207 80.8979 120.347 75.4687 120.347 67.7044C120.347 67.2228 120.347 66.712 120.391 66.1866V46.4109H125.236V59.0206C127.323 57.532 129.615 56.8022 132.198 56.8022C135.365 56.8022 138.328 58.0428 140.546 60.3195C142.779 62.5963 144.005 65.6174 144.005 68.8282C144.005 72.0828 142.779 75.1185 140.546 77.3514C138.284 79.6282 135.321 80.8979 132.183 80.8979ZM132.183 61.6331C128.301 61.6331 125.134 64.873 125.134 68.8574C125.134 72.8855 128.228 76.0379 132.183 76.0379C136.065 76.0379 139.232 72.8125 139.232 68.8574C139.232 64.8876 136.065 61.6331 132.183 61.6331Z" fill="#00C800"/>
<path d="M153.039 80.2995H148.15V57.3422H153.039V80.2995ZM150.602 54C148.85 54 147.478 52.6136 147.478 50.833C147.478 49.0525 148.821 47.7244 150.602 47.7244C152.368 47.7244 153.769 49.0963 153.769 50.833C153.754 52.5844 152.338 54 150.602 54Z" fill="#00C800"/>
<path d="M171.311 81.0001L170.231 80.7958C163.036 79.4093 160.365 75.9504 160.365 68.0693V62.3191H158.249V57.6634H160.365V52.5845H165.298V57.6634H171.326V62.3191H165.298V68.8283C165.298 73.1337 166.918 75.2791 170.538 75.7899L171.326 75.9066V81.0001H171.311Z" fill="#00C800"/>
</svg>
