<svg width="258" height="136" viewBox="0 0 258 136" fill="none" xmlns="http://www.w3.org/2000/svg">
<rect width="258" height="136" fill="white"/>
<path d="M128.889 67.989H123.168V68.0474H123.226H128.831H128.889V67.989Z" fill="#00C800"/>
<path d="M155.378 91.5011C153.539 91.5011 152.036 89.9832 152.036 88.1151C152.036 86.2762 153.539 84.7729 155.378 84.7729C157.246 84.7729 158.764 86.2762 158.764 88.1151C158.764 89.9832 157.246 91.5011 155.378 91.5011Z" fill="#00C800"/>
<path d="M140.682 52.0371C142.915 52.0371 144.71 50.2274 144.71 47.9944C144.71 45.7614 142.9 43.9663 140.682 43.9663C138.449 43.9663 136.653 45.776 136.653 47.9944C136.653 50.2128 138.449 52.0371 140.682 52.0371Z" fill="#00C800"/>
<path d="M111.04 43.9663C108.807 43.9663 106.997 45.776 106.997 48.009C106.997 50.242 108.807 52.0517 111.04 52.0517C113.273 52.0517 115.068 50.242 115.068 48.009C115.068 45.776 113.273 43.9663 111.04 43.9663Z" fill="#00C800"/>
<path d="M111.04 35.9978C104.429 35.9978 99.0432 41.3832 99.0432 47.9946C99.0432 54.6059 104.429 59.9914 111.04 59.9914H141.017C147.629 59.9914 153.014 54.6059 153.014 47.9946C153.014 41.3832 147.629 35.9978 141.017 35.9978H111.04ZM141.017 67.9892H111.04C100.021 67.9892 91.0454 59.0281 91.0454 47.9946C91.0454 36.9611 100.006 28 111.04 28H141.017C152.036 28 161.012 36.9611 161.012 47.9946C161.012 59.0281 152.051 67.9892 141.017 67.9892Z" fill="#00C800"/>
<path d="M74.0281 108.3H69.1827V94.785C69.1827 91.7639 67.4605 89.5747 65.0962 89.5747C62.6735 89.5747 60.9659 91.7201 60.9659 94.785V108.3H56.0768V94.785C56.0768 91.3698 54.0043 89.5747 51.9465 89.5747C49.5238 89.5747 47.8162 91.7201 47.8162 94.785V108.3H43V95.0185C43 88.9763 46.6924 84.7439 51.9611 84.7439C54.4714 84.7439 56.6022 85.7801 58.4703 87.8817C60.2508 85.8239 62.5276 84.7439 65.0962 84.7439C70.3503 84.7439 74.0135 88.9617 74.0135 95.0185V108.3H74.0281Z" fill="#00C800"/>
<path d="M82.8432 108.299H77.954V85.3422H82.8432V108.299ZM80.4059 82C78.6546 82 77.2827 80.6136 77.2827 78.833C77.2827 77.0525 78.6254 75.7244 80.4059 75.7244C82.1719 75.7244 83.573 77.0963 83.573 78.833C83.573 80.5844 82.1427 82 80.4059 82Z" fill="#00C800"/>
<path d="M98.3427 108.898C95.1757 108.898 92.1984 107.628 89.9508 105.337C87.7616 103.148 86.5357 100.112 86.5357 96.8283C86.5357 93.5445 87.7471 90.5088 89.9508 88.305C92.1546 86.0575 95.2195 84.7585 98.3281 84.7585C101.758 84.7585 104.633 85.9115 106.851 88.1883L107.479 88.8304L103.991 92.3915L103.349 91.8077C101.699 90.3191 100.152 89.6623 98.3281 89.6623C94.446 89.6623 91.2789 92.8877 91.2789 96.8429C91.2789 100.827 94.446 104.067 98.3281 104.067C100.152 104.067 101.743 103.381 103.334 101.922L103.962 101.338L107.552 104.709L106.822 105.366C104.239 107.701 101.393 108.898 98.3427 108.898Z" fill="#00C800"/>
<path d="M116.017 108.299H110.865V96.8136C110.865 89.4433 114.046 85.9114 121.198 85.3276L122.19 85.2546V90.0709L121.373 90.1584C117.476 90.5963 116.017 92.3184 116.017 96.5363V108.299Z" fill="#00C800"/>
<path d="M135.603 108.898C132.436 108.898 129.458 107.628 127.211 105.337C124.978 103.06 123.752 100.039 123.752 96.8283C123.752 93.6175 124.978 90.5964 127.211 88.3196C129.458 86.0283 132.436 84.7585 135.603 84.7585C138.741 84.7585 141.703 86.0283 143.951 88.3196C146.169 90.538 147.41 93.5737 147.41 96.8283C147.41 100.083 146.184 103.119 143.951 105.352C141.703 107.628 138.741 108.898 135.603 108.898ZM135.559 89.5894C131.823 89.5894 128.772 92.8294 128.772 96.8137C128.772 100.769 131.808 103.994 135.559 103.994C139.383 103.994 142.389 100.842 142.389 96.8137C142.375 92.8439 139.31 89.5894 135.559 89.5894Z" fill="#00C800"/>
<path d="M155.378 108.3C153.539 108.3 152.036 106.796 152.036 104.957C152.036 103.089 153.539 101.572 155.378 101.572C157.246 101.572 158.764 103.089 158.764 104.957C158.764 106.811 157.246 108.3 155.378 108.3Z" fill="#00C800"/>
<path d="M175.183 108.898C168.207 108.898 163.347 103.469 163.347 95.7044C163.347 95.2228 163.347 94.712 163.391 94.1866V74.4109H168.236V87.0206C170.323 85.532 172.615 84.8022 175.198 84.8022C178.365 84.8022 181.328 86.0428 183.546 88.3195C185.779 90.5963 187.005 93.6174 187.005 96.8282C187.005 100.083 185.779 103.118 183.546 105.351C181.284 107.628 178.321 108.898 175.183 108.898ZM175.183 89.6331C171.301 89.6331 168.134 92.873 168.134 96.8574C168.134 100.885 171.228 104.038 175.183 104.038C179.065 104.038 182.232 100.813 182.232 96.8574C182.232 92.8876 179.065 89.6331 175.183 89.6331Z" fill="#00C800"/>
<path d="M196.039 108.299H191.15V85.3422H196.039V108.299ZM193.602 82C191.85 82 190.478 80.6136 190.478 78.833C190.478 77.0525 191.821 75.7244 193.602 75.7244C195.368 75.7244 196.769 77.0963 196.769 78.833C196.754 80.5844 195.338 82 193.602 82Z" fill="#00C800"/>
<path d="M214.311 109L213.231 108.796C206.036 107.409 203.365 103.95 203.365 96.0693V90.3191H201.249V85.6634H203.365V80.5845H208.298V85.6634H214.326V90.3191H208.298V96.8283C208.298 101.134 209.918 103.279 213.538 103.79L214.326 103.907V109H214.311Z" fill="#00C800"/>
</svg>
