<svg width="171" height="136" viewBox="0 0 171 136" fill="none" xmlns="http://www.w3.org/2000/svg">
<g clip-path="url(#clip0)">
<rect width="171" height="136" fill="white"/>
<path d="M85.8892 67.989H80.1681V68.0474H80.2265H85.8308H85.8892V67.989Z" fill="#00C800"/>
<path d="M112.378 91.5011C110.539 91.5011 109.036 89.9832 109.036 88.1151C109.036 86.2762 110.539 84.7729 112.378 84.7729C114.246 84.7729 115.764 86.2762 115.764 88.1151C115.764 89.9832 114.246 91.5011 112.378 91.5011Z" fill="#00C800"/>
<path d="M97.6816 52.0371C99.9146 52.0371 101.71 50.2274 101.71 47.9944C101.71 45.7614 99.9 43.9663 97.6816 43.9663C95.4486 43.9663 93.6535 45.776 93.6535 47.9944C93.6535 50.2128 95.4486 52.0371 97.6816 52.0371Z" fill="#00C800"/>
<path d="M68.04 43.9663C65.807 43.9663 63.9973 45.776 63.9973 48.009C63.9973 50.242 65.807 52.0517 68.04 52.0517C70.2729 52.0517 72.0681 50.242 72.0681 48.009C72.0681 45.776 70.2729 43.9663 68.04 43.9663Z" fill="#00C800"/>
<path d="M68.04 35.9978C61.4286 35.9978 56.0432 41.3832 56.0432 47.9946C56.0432 54.6059 61.4286 59.9914 68.04 59.9914H98.0173C104.629 59.9914 110.014 54.6059 110.014 47.9946C110.014 41.3832 104.629 35.9978 98.0173 35.9978H68.04ZM98.0173 67.9892H68.04C57.0211 67.9892 48.0454 59.0281 48.0454 47.9946C48.0454 36.9611 57.0065 28 68.04 28H98.0173C109.036 28 118.012 36.9611 118.012 47.9946C118.012 59.0281 109.051 67.9892 98.0173 67.9892Z" fill="#00C800"/>
<path d="M31.0281 108.3H26.1827V94.785C26.1827 91.7639 24.4605 89.5747 22.0962 89.5747C19.6735 89.5747 17.9659 91.7201 17.9659 94.785V108.3H13.0768V94.785C13.0768 91.3698 11.0043 89.5747 8.94649 89.5747C6.52378 89.5747 4.81622 91.7201 4.81622 94.785V108.3H0V95.0185C0 88.9763 3.69243 84.7439 8.96108 84.7439C11.4714 84.7439 13.6022 85.7801 15.4703 87.8817C17.2508 85.8239 19.5276 84.7439 22.0962 84.7439C27.3503 84.7439 31.0135 88.9617 31.0135 95.0185V108.3H31.0281Z" fill="#00C800"/>
<path d="M39.8432 108.299H34.954V85.3422H39.8432V108.299ZM37.4059 82C35.6546 82 34.2827 80.6136 34.2827 78.833C34.2827 77.0525 35.6254 75.7244 37.4059 75.7244C39.1719 75.7244 40.573 77.0963 40.573 78.833C40.573 80.5844 39.1427 82 37.4059 82Z" fill="#00C800"/>
<path d="M55.3427 108.898C52.1757 108.898 49.1984 107.628 46.9508 105.337C44.7616 103.148 43.5357 100.112 43.5357 96.8283C43.5357 93.5445 44.7471 90.5088 46.9508 88.305C49.1546 86.0575 52.2195 84.7585 55.3281 84.7585C58.7579 84.7585 61.633 85.9115 63.8514 88.1883L64.4789 88.8304L60.9908 92.3915L60.3487 91.8077C58.6995 90.3191 57.1525 89.6623 55.3281 89.6623C51.446 89.6623 48.2789 92.8877 48.2789 96.8429C48.2789 100.827 51.446 104.067 55.3281 104.067C57.1525 104.067 58.7433 103.381 60.3341 101.922L60.9616 101.338L64.5519 104.709L63.8222 105.366C61.2389 107.701 58.393 108.898 55.3427 108.898Z" fill="#00C800"/>
<path d="M73.0168 108.299H67.8649V96.8136C67.8649 89.4433 71.0465 85.9114 78.1978 85.3276L79.1903 85.2546V90.0709L78.373 90.1584C74.4762 90.5963 73.0168 92.3184 73.0168 96.5363V108.299Z" fill="#00C800"/>
<path d="M92.6027 108.898C89.4357 108.898 86.4584 107.628 84.2108 105.337C81.9779 103.06 80.7519 100.039 80.7519 96.8283C80.7519 93.6175 81.9779 90.5964 84.2108 88.3196C86.4584 86.0283 89.4357 84.7585 92.6027 84.7585C95.7406 84.7585 98.7033 86.0283 100.951 88.3196C103.169 90.538 104.41 93.5737 104.41 96.8283C104.41 100.083 103.184 103.119 100.951 105.352C98.7033 107.628 95.7406 108.898 92.6027 108.898ZM92.5589 89.5894C88.8227 89.5894 85.7725 92.8294 85.7725 96.8137C85.7725 100.769 88.8081 103.994 92.5589 103.994C96.3827 103.994 99.3892 100.842 99.3892 96.8137C99.3746 92.8439 96.3098 89.5894 92.5589 89.5894Z" fill="#00C800"/>
<path d="M112.378 108.3C110.539 108.3 109.036 106.796 109.036 104.957C109.036 103.089 110.539 101.572 112.378 101.572C114.246 101.572 115.764 103.089 115.764 104.957C115.764 106.811 114.246 108.3 112.378 108.3Z" fill="#00C800"/>
<path d="M132.183 108.898C125.207 108.898 120.347 103.469 120.347 95.7044C120.347 95.2228 120.347 94.712 120.391 94.1866V74.4109H125.236V87.0206C127.323 85.532 129.615 84.8022 132.198 84.8022C135.365 84.8022 138.328 86.0428 140.546 88.3195C142.779 90.5963 144.005 93.6174 144.005 96.8282C144.005 100.083 142.779 103.118 140.546 105.351C138.284 107.628 135.321 108.898 132.183 108.898ZM132.183 89.6331C128.301 89.6331 125.134 92.873 125.134 96.8574C125.134 100.885 128.228 104.038 132.183 104.038C136.065 104.038 139.232 100.813 139.232 96.8574C139.232 92.8876 136.065 89.6331 132.183 89.6331Z" fill="#00C800"/>
<path d="M153.039 108.299H148.15V85.3422H153.039V108.299ZM150.602 82C148.85 82 147.478 80.6136 147.478 78.833C147.478 77.0525 148.821 75.7244 150.602 75.7244C152.368 75.7244 153.769 77.0963 153.769 78.833C153.754 80.5844 152.338 82 150.602 82Z" fill="#00C800"/>
<path d="M171.311 109L170.231 108.796C163.036 107.409 160.365 103.95 160.365 96.0693V90.3191H158.249V85.6634H160.365V80.5845H165.298V85.6634H171.326V90.3191H165.298V96.8283C165.298 101.134 166.918 103.279 170.538 103.79L171.326 103.907V109H171.311Z" fill="#00C800"/>
</g>
<defs>
<clipPath id="clip0">
<rect width="171" height="136" fill="white"/>
</clipPath>
</defs>
</svg>
