<?xml version="1.0" encoding="UTF-8" standalone="no"?>
<!-- Generator: Adobe Illustrator 19.0.0, SVG Export Plug-In . SVG Version: 6.00 Build 0)  -->

<svg
   version="1.1"
   id="layer"
   x="0px"
   y="0px"
   viewBox="-153 -46 690.09998 318.39999"
   xml:space="preserve"
   sodipodi:docname="nationwide.svg"
   width="690.09998"
   height="318.39999"
   inkscape:version="1.1 (c4e8f9e, 2021-05-24)"
   xmlns:inkscape="http://www.inkscape.org/namespaces/inkscape"
   xmlns:sodipodi="http://sodipodi.sourceforge.net/DTD/sodipodi-0.dtd"
   xmlns="http://www.w3.org/2000/svg"
   xmlns:svg="http://www.w3.org/2000/svg"><defs
   id="defs152" /><sodipodi:namedview
   id="namedview150"
   pagecolor="#ffffff"
   bordercolor="#666666"
   borderopacity="1.0"
   inkscape:pageshadow="2"
   inkscape:pageopacity="0.0"
   inkscape:pagecheckerboard="0"
   showgrid="false"
   inkscape:zoom="1.3757669"
   inkscape:cx="169.36009"
   inkscape:cy="123.20401"
   inkscape:window-width="2560"
   inkscape:window-height="1387"
   inkscape:window-x="0"
   inkscape:window-y="25"
   inkscape:window-maximized="0"
   inkscape:current-layer="layer"
   width="600.09998px" />
<style
   type="text/css"
   id="style135">
	.st0{fill:#00428D;}
	.st1{fill:#E50012;}
	.st2{fill:#FFFFFF;}
</style>
<path
   class="st0"
   d="M 470.11048,-0.74024575 H -88.389521 c -11.4,0 -20.699999,9.30000005 -20.699999,20.69999975 v 96.299996 h 600 V 19.959754 c 0,-11.2999997 -9.4,-20.69999975 -20.8,-20.69999975"
   id="path137" />
<path
   class="st1"
   d="m -109.08952,134.65975 c 0,11.4 9.299999,20.7 20.699999,20.7 H 470.11048 c 11.4,0 20.7,-9.3 20.7,-20.7 v -18.3 h -600 v 18.3 z"
   id="path139" />
<path
   class="st2"
   d="m 443.31048,76.859754 c 0.1,-10.8 2.2,-13 5.6,-13 4.4,0 4.8,5.3 4.8,13 z m 22.8,5.5 c 0,-16.9 -8.9,-24.4 -17.6,-24.4 -6.6,0 -19.1,5.2 -19.1,25.2 0,23.799996 17.4,24.499996 19.4,24.499996 7.4,0 13,-4.4 16.2,-8.099996 l 0.4,-0.4 -1.8,-3.7 -0.8,0.6 c 0,0 -4.4,3.2 -9,3.2 -8.5,0 -10.3,-5.9 -10.4,-16.1 h 22.7 z m -57.4,-10.9 v 23.1 c 0,1.4 -4.2,5.699996 -6.4,5.699996 -5.5,0 -6.7,-8.899996 -6.7,-16.399996 0,-15.9 3.4,-18 6.9,-18 3.4,-0.2 5.9,4.9 6.2,5.6 m 17.1,30.799996 c -1.9,0 -3.3,-2.1 -3.3,-3.899996 v -60.2 h -0.9 -19.6 v 4.1 h 2.9 c 1.2,0 3.9,1.1 3.9,3.2 v 16.7 c -1.8,-1.8 -5,-4.2 -9.8,-4.2 -7,0 -17.9,6.9 -17.9,25.7 0,18.899996 10.9,23.899996 16.7,23.899996 5.4,0 8.7,-2 10.8,-4.2 v 2.8 h 18.1 v -3.9 z m -47.6,-0.2 c -1.2,0 -3.4,-1 -3.4,-3.099996 v -39.4 h -0.9 -13.1 v 39.3 c 0,1.899996 -2,3.299996 -3.8,3.299996 h -0.8 v 4.1 h 22.9 v -4.2 z m -35.6,-42.399996 v 3.7 h 0.8 c 1,0 2.4,0.4 2.9,1.2 0.2,0.3 0.3,0.7 0.3,1 0,0.3 0,0.5 -0.1,0.8 -0.6,2.2 -4.3,13.2 -6.1,18.4 -1.4,-5.3 -4.4,-17 -4.8,-18.6 0,-0.2 -0.1,-0.4 -0.1,-0.6 0,-0.4 0.1,-0.8 0.4,-1.2 0.5,-0.6 1.5,-1 2.9,-1 h 0.9 v -3.8 h -22 v 3.9 h 0.8 c 0.9,0 2.5,0.2 2.9,1.4 0,0 1.7,5.6 1.9,6.1 -0.2,0.5 -4.2,11.1 -5.3,14.3 -1.6,-4.6 -5.4,-15.3 -6.5,-18.2 -0.2,-0.5 -0.4,-1.2 -0.4,-1.8 0,-0.4 0.2,-0.7 0.3,-1.1 0.4,-0.6 1.3,-0.9 2.2,-0.9 h 0.9 v -3.9 h -0.9 -20 v 3.7 l 0.5,0.2 c 0.5,0.2 1.7,0.8 2.2,1.6 0.5,1.1 9.5,25.7 15.4,41.999996 l 0.2,0.5 h 4.8 c 0,0 8.1,-22.399996 9.5,-26.399996 1.2,4 8.1,26.399996 8.1,26.399996 h 4.6 l 13.9,-39.799996 c 1.1,-3.1 2.2,-4.4 3.6,-4.4 h 0.9 v -3.5 z m -48.2,42.399996 c -2.7,0 -3.2,-1.1 -3.2,-2.699996 v -26.8 c 0,-7 -4.4,-14.3 -12.6,-14.3 -5.6,0 -9.6,1.9 -12.6,5.5 v -4.2 h -18.4 v 3.9 h 2 c 0.1,0 2.5,0.5 2.5,2.6 v 32.6 c 0,2.299996 -2.1,3.499996 -4,3.699996 h -0.8 v 3.8 h 23.2 v -3.9 h -0.8 c -2,0 -3.5,-1.6 -3.5,-3.699996 v -26.8 c 0,-1.4 3.2,-5.6 6.5,-5.6 2.8,0 4.2,2 4.2,6 v 27.2 c 0,1.099996 -1.9,2.699996 -3.3,2.699996 h -0.9 v 4 h 22.5 v -4.1 h -0.8 z m -64.4,-17.899996 c 0,17.299996 -4.3,17.299996 -6.1,17.299996 -2.6,0 -6.5,0 -6.5,-17.699996 0,-18 3.3,-19.5 6.3,-19.5 3,-0.1 6.3,2.2 6.3,19.9 m -6.2,-26.1 c -10.1,0 -21,9.4 -21,24.6 0,19.699996 13.9,24.799996 21.2,24.799996 8.3,0 20.5,-7.499996 20.5,-23.499996 0.1,-14.7 -8.8,-25.9 -20.7,-25.9 m -24.3,43.999996 c -1.3,0 -3.4,-1 -3.4,-3.099996 v -39.4 h -0.9 -13.2 v 39.3 c 0,1.899996 -2,3.299996 -3.8,3.299996 h -0.8 v 4.1 h 22.9 v -4.2 z m -24.7,-36.799996 v -5.7 h -8.4 v -16.5 h -0.8 -2.6 l -0.4,0.6 c -2.8,4.4 -8.1,12.6 -14.3,17.2 l -0.3,0.3 v 4.2 h 4.7 v 31.4 c 0,6.899996 5,10.599996 10.1,10.599996 4.4,0 7.4,-0.8 10.5,-5.1 l 0.1,-0.2 v -3.999996 l -1.2,0.6 c -1.2,0.6 -2.8,0.5 -4,-0.2 -1.1,-0.7 -1.7,-1.7 -1.7,-2.8 v -30.5 h 8.3 z m -52.5,33.7 c -1.4,0 -3.9,-1.2 -3.9,-5.7 0,-4.4 4,-8.8 9.2,-10.5 v 12.7 c -1.3,2.4 -4.1,3.5 -5.3,3.5 m 21.7,0.5 c -0.3,0.4 -0.9,0.3 -1.3,0.1 -0.7,-0.2 -1.3,-0.8 -1.3,-1.5 v -27.1 c 0,-7.6 -7.6,-12.7 -18.8,-12.7 -9.8,0 -14.8,3.6 -17,5.7 l -0.2,0.2 v 14 h 3.8 l 0.2,-0.7 c 2.6,-12.1 9.5,-13.3 12.3,-13.2 2.4,0.1 6,2.3 6,5.1 v 6.7 c -16.1,4.5 -24,11.3 -24,20.8 0,6.499996 4.7,10.799996 11.6,10.799996 4.5,0 8.7,-1.7 12.8,-5.1 0.9,2.8 4.1,4.9 8,4.9 3.7,0 6.9,-1.8 9.1,-5 l 0.2,-0.2 v -4.599996 z m -64.200001,-61.3 v 4.3 h 3 c 1.7,0 4.2,1.9 4.2,4.5 v 29.9 c -2.7,-3.8 -28.1,-38.8 -28.1,-38.8 h -0.5 -19.8 v 3.9 h 1.5 c 0.4,0.5 4.5,5.3 4.9,5.7 v 50.3 c 0,3.599996 -4.5,3.899996 -5.9,3.899996 h -0.8 v 4.1 h 22.8 v -4.3 h -2.3 c -2.4,0 -5,-2.299996 -5,-3.699996 v -40.1 c 2.8,3.8 37.2,49.999996 37.2,49.999996 h 4.7 V 46.859754 c 0,-3.1 1.7,-4.5 5.200001,-4.5 h 0.9 v -4.3 H 79.810479 Z m 109.200001,-0.9 c -4.4,0 -8,3.6 -8,8 0,4.4 3.5,8 8,8 4.4,0 7.9,-3.5 7.9,-8 0,-4.4 -3.5,-8 -7.9,-8 m 178.6,0 c -4.4,0 -8,3.6 -8,8 0,4.4 3.6,8 8,8 4.4,0 8,-3.5 8,-8 0,-4.4 -3.6,-8 -8,-8"
   id="path141" />
<path
   class="st2"
   d="m 7.3104791,116.35975 c 2.8999999,0 5.7999999,-1.2 7.9999999,-3.3 2.3,-2.2 3.6,-5.2 3.6,-8.2 V 77.259754 c 0,-3.3 -1.2,-6.1 -3.5,-8.5 l -15.49999991,-15.5 c -0.6,-0.6 -0.99999999,-1.4 -0.99999999,-2.3 v -16.8 c 0,-2.9 -1.2,-5.6 -3.3,-7.7 -2.1,-2 -4.8,-3.2 -7.7000001,-3.2 h -12.1 c -5.9,0 -10.8,4.9 -10.8,10.9 v 0.9 c 0,0.6 -0.5,1.1 -1.1,1.1 v 0 h -1.7 c -2.1,0 -4.2,0.8 -5.9,2.3 -1,0.8 -1.7,1.8 -2.2,2.9 -1.1,-0.1 -2.4,-0.2 -3.4,-0.2 -17.1,0 -35,13.1 -35,35.6 0,19 15.9,27.399996 16.8,27.999996 0.6,0.4 1.9,1.4 1.9,3.1 v 10.4 c 0,3 1.2,5.8 3.3,7.9 2.1,2 4.9,3.1 7.8,3.1 h 42.7 c 2.9000001,0 5.5000001,-0.9 7.4000001,-2.6 2,-1.9 3.2,-4.6 3.2,-7.6 v -1.7 c 0,-0.6 0.49999999,-1.1 1.09999999,-1.1 H 7.3104791 Z"
   id="path143" />
<path
   class="st0"
   d="m 11.710479,72.559754 -16.1999999,-16.2 c -1,-1 -1.7,-2.4 -1.7,-3.8 v -18.3 c 0,-3.2 -2.7,-5.8 -5.8000001,-5.8 h -11.5 c -3.2,0 -5.7,2.5 -5.7,5.7 v 5.5 c 0,0.7 -0.5,1.8 -1.9,1.8 h -6.1 c -1.7,0 -3.5,1.3 -3.7,3.2 -0.1,1.5 -0.6,2.7 -3.2,2.2 0,0 -0.1,0 -0.1,0 -0.1,0 -0.1,0 -0.2,0 -1.8,-0.3 -3.6,-0.5 -5.5,-0.5 -16.2,0 -29.3,13.1 -29.3,29.3 0,9.8 4.8,18.4 12.1,23.8 v 0 c 0.4,0.3 0.9,0.5 1.4,0.5 0.8,0 1.6,-0.4 2,-1.1 v 0 l 16.6,-24.8 c 0,0 1.7,-2.6 4.9,-2.6 h 19.2 c 1,0 1.8,-0.8 1.8,-1.8 0,-0.2 0,-0.3 -0.1,-0.5 -1.9,-8.1 -7.1,-15 -14.1,-19 -0.6,-0.3 -1,-0.9 -1,-1.7 0,-1 0.8,-1.9 1.9,-1.9 v 0 h 6.2 c 2.3,0 4.2,-1.9 4.2,-4.2 v -7.1 c 0,-1.1 0.9,-1.8 1.8,-1.8 h 9.1 c 0.9,0 1.8,0.8 1.8,1.8 v 39.4 c 0,0.9 0.7,1.8 1.8000001,1.8 h 16.3 c 1.2,0 1.8,1 1.8,1.8 v 25.999996 c 0,0.9 -0.7,1.8 -1.9,1.8 h -14.3 c -2.4000001,0 -4.0000001,2 -4.0000001,4 v 7 c 0,1.1 -0.9,1.8 -1.8,1.8 h -15.8 v -7.8 c 0,-1.4 -1.1,-2.6 -2.6,-2.6 -1.4,0 -2.6,1.1 -2.6,2.6 v 7.8 h -19.3 c -0.9,0 -1.8,-0.7 -1.8,-1.8 v -11.8 c 0,-1.1 0.9,-1.8 1.8,-1.8 h 22.3 c 1.1,0 2,-1.3 2,-1.3 l 15.4,-22.899996 c 0.9,-1.4 -0.3,-2.8 -1.4,-2.8 h -26.2 c -1,0 -1.5,0.7 -2,1.5 l -15.7,23.399996 c 0,0 -1.3,1.8 -1.3,4 v 12.8 c 0,3.3 2.7,5.9 6.1,5.9 h 43.8 c 2.0000001,0 4.2000001,-1.5 4.2000001,-4.2 v -6.9 c 0,-0.8 0.6,-1.8 1.8,-1.8 h 12 c 3.2999999,0 6.4999999,-2.9 6.4999999,-6.3 V 77.259754 c 0.1,-2 -0.8,-3.5 -2,-4.7 m -15.5999999,25.9 v -5.3 c 0,-1.4 -1.1,-2.6 -2.6,-2.6 -1.4,0 -2.6,1.1 -2.6,2.6 v 5.3 c 0,1.4 1.1,2.599996 2.6,2.599996 1.5,0 2.6,-1.199996 2.6,-2.599996"
   id="path145" />
<path
   class="st0"
   d="m 58.310479,225.35975 h -11 c -1.3,0 -1.8,-0.7 -1.8,-1.8 v -41.1 c 0,-1.2 0.5,-1.8 1.8,-1.8 h 11.8 c 7.9,0 14.7,2.6 14.7,10.7 0,5.2 -2.8,8.2 -7.4,9.8 5.4,1.5 9.1,5 9.1,11.3 -0.1,9.8 -7.3,12.9 -17.2,12.9 m 0.9,-39 h -6.8 v 12.3 h 4.1 c 2.6,0 4.6,-0.3 6.2,-0.9 2.1,-0.7 4.3,-2.4 4.3,-5.5 -0.1,-4 -3.1,-5.9 -7.8,-5.9 m 5.7,19.5 c -1.9,-1.1 -4.4,-1.5 -7.2,-1.5 h -5.4 v 15.1 h 5.9 c 5.3,0 9.9,-1 9.9,-7.2 0.1,-2 -0.3,-4.6 -3.2,-6.4 m 39.400001,19.5 c 1.2,0 1.7,-0.6 1.7,-1.9 v -28.8 c 0,-1.2 -0.5,-1.9 -1.9,-1.9 h -2.6 c -1.5,0 -1.900001,0.7 -1.900001,1.9 v 16.8 c 0,2.4 -0.3,3.3 -1.5,4.7 -1.9,2.2 -4.2,4 -6.9,4 -2.6,0 -3.5,-1.9 -3.5,-5 v -20.5 c 0,-1.2 -0.5,-1.9 -1.7,-1.9 h -2.9 c -1.2,0 -1.8,0.6 -1.8,1.8 v 22.2 c 0,5.7 2.6,9.2 8.4,9.2 4.5,0 8,-2.6 10.500001,-5.6 v 3.3 c 0,1.1 0.4,1.8 1.9,1.8 h 2.2 m 14.2,-38.4 c -2.1,0 -3.8,-1.7 -3.8,-3.8 0,-2.1 1.7,-3.8 3.8,-3.8 2.1,0 3.8,1.7 3.8,3.8 0,2.1 -1.7,3.8 -3.8,3.8 m 1.3,38.3 h -2.6 c -1.5,0 -1.9,-0.7 -1.9,-1.9 v -28.8 c 0,-1.3 0.6,-1.9 1.8,-1.9 h 2.8 c 1.5,0 1.9,0.7 1.9,1.8 v 28.9 c 0,1.3 -0.4,1.9 -2,1.9 m 15.8,0 c 1.6,0 2,-0.7 2,-1.9 v -41.9 c 0,-1.1 -0.5,-1.8 -1.9,-1.8 h -2.8 c -1.2,0 -1.8,0.6 -1.8,1.9 v 42 c 0,1.2 0.5,1.9 1.9,1.9 h 2.6 m 34.2,-0.2 h -2.3 c -1.5,0 -2,-0.7 -2,-1.9 v -2.3 c -1.8,2.6 -4.6,4.7 -8.7,4.7 -9.1,0 -12.1,-8.8 -12.1,-16.7 0,-9.2 4,-17 12.1,-17 4.2,0 6.8,2.2 8.3,4.2 v -14.9 c 0,-1.3 0.5,-1.9 2,-1.9 h 2.5 c 1.4,0 1.9,0.7 1.9,1.9 v 41.9 c 0.1,1.4 -0.5,2 -1.7,2 m -11.8,-27.5 c -5.8,0 -6.6,7.1 -6.6,11.4 0,5.3 1.5,11 6.3,11 5,0 7.4,-5 7.4,-10.8 0,-7.3 -2.8,-11.6 -7.1,-11.6 m 26,-10.8 c -2.1,0 -3.8,-1.7 -3.8,-3.8 0,-2.1 1.7,-3.8 3.8,-3.8 2.1,0 3.8,1.7 3.8,3.8 0,2.1 -1.7,3.8 -3.8,3.8 m 1.3,38.3 h -2.5 c -1.5,0 -1.9,-0.7 -1.9,-1.9 v -28.8 c 0,-1.3 0.6,-1.9 1.8,-1.9 h 2.8 c 1.5,0 1.9,0.7 1.9,1.8 v 28.9 c -0.1,1.3 -0.5,1.9 -2.1,1.9 m 34.3,0 c 1.1,0 1.7,-0.6 1.7,-1.8 v -22.1 c 0,-5.7 -2.5,-9.2 -8.3,-9.2 -4.5,0 -8,2.6 -10.5,5.6 v -3.3 c 0,-1.1 -0.5,-1.8 -1.9,-1.8 h -2.4 c -1.2,0 -1.8,0.6 -1.8,1.9 v 28.9 c 0,1.2 0.5,1.9 1.9,1.9 h 2.5 c 1.6,0 2,-0.7 2,-1.9 v -16.9 c 0,-2.4 0.3,-3.3 1.5,-4.7 1.9,-2.2 4.2,-4 6.9,-4 2.5,0 3.5,1.9 3.5,5 v 20.5 c 0,1.2 0.5,1.9 1.7,1.9 h 3.2 m 22.4,12.3 c -4.9,0 -8.9,-1.3 -11.1,-2.4 -0.5,-0.2 -0.9,-0.5 -0.9,-1.1 0,-0.2 0.1,-0.5 0.2,-0.7 l 1.3,-2.9 c 0.4,-0.8 1.1,-1 2.1,-0.5 2,1.1 4.8,2.2 8.2,2.2 4.9,0 6.4,-2.8 6.4,-6.8 v -4.8 c -1.4,1.9 -4.4,4.3 -7.8,4.3 -8.4,0 -12.1,-7.5 -12.1,-16.5 0,-7.5 3.4,-16.1 12.3,-16.1 3.9,0 6.9,2.5 8.1,4.7 v -2.1 c 0,-1.4 0.4,-2.1 1.9,-2.1 h 2.4 c 1.2,0 1.7,0.7 1.7,2 v 30.3 c -0.1,7.6 -2.8,12.5 -12.7,12.5 m -0.7,-39.8 c -4.4,0 -6.4,4.6 -6.4,10.5 0,7.3 2.4,10.9 6.4,10.9 4.3,0 6.8,-5 6.8,-10.5 0,-6.6 -2.8,-10.9 -6.8,-10.9 m 49.9,28.5 c 8.2,0 14.1,-4.6 14.1,-13.3 0,-8 -4.8,-10.7 -11.5,-13.5 -6.8,-2.8 -9.1,-4.4 -9.1,-8.3 0,-3.5 2.8,-5.5 6.9,-5.5 3.4,0 6.1,1.2 9,2.8 0.8,0.4 1.5,0.2 1.9,-0.6 l 1.6,-3.3 c 0.1,-0.3 0.3,-0.6 0.3,-0.9 0,-0.3 -0.2,-0.7 -0.8,-0.9 -3,-1.7 -6.4,-3.2 -12,-3.2 -7.4,0 -13.6,4.3 -13.6,12.3 0,7.4 4.4,10.4 13,14 5.1,2.1 7.6,3.9 7.6,7.9 0,3.7 -2.7,6.3 -7.6,6.3 -3.6,0 -7.5,-2.3 -9.5,-3.4 -0.9,-0.5 -1.6,-0.5 -2.1,0.3 l -1.7,3.4 c -0.2,0.3 -0.3,0.7 -0.3,1 0,0.4 0.4,0.7 0.9,1 3.1,1.9 7.5,3.9 12.9,3.9 m 32.3,-0.4 c -9.7,0 -13.6,-8.5 -13.6,-16.9 0,-8.3 4,-16.8 13.6,-16.8 9.9,0 13.7,8.7 13.7,16.8 0,8.2 -3.8,16.9 -13.7,16.9 m 0,-28 c -5.5,0 -6.8,6 -6.8,11.2 0,5.1 1.4,11.1 6.8,11.1 5.6,0 6.9,-6 6.9,-11.1 0,-5.2 -1.3,-11.2 -6.9,-11.2 m 42.8,25.2 c 0.7,-0.4 0.9,-0.8 0.9,-1.1 0,-0.5 -0.1,-0.7 -0.3,-1.1 l -1.4,-2.6 c -0.4,-0.7 -1.1,-0.7 -2.1,-0.2 -1.7,0.9 -4.2,2.1 -7,2.1 -5.6,0 -7.4,-5.8 -7.4,-11.1 0,-5.2 1.6,-11.2 7.5,-11.2 2.2,0 4.3,1 6.1,1.9 0.7,0.3 1.5,0.3 1.9,-0.5 l 1.3,-2.4 c 0.2,-0.4 0.3,-0.9 0.3,-1.2 0,-0.5 -0.3,-0.8 -0.8,-1.1 -2.4,-1.4 -5.8,-2.4 -9.3,-2.4 -9,0 -13.8,7.3 -13.8,16.4 0,12.5 6.5,17.2 13.6,17.2 4.5,0.1 8.1,-1.2 10.5,-2.7 m 10.6,-36.1 c -2.1,0 -3.8,-1.7 -3.8,-3.8 0,-2.1 1.7,-3.8 3.8,-3.8 2.1,0 3.8,1.7 3.8,3.8 0,2.1 -1.7,3.8 -3.8,3.8 m 1.2,38.3 h -2.6 c -1.5,0 -1.9,-0.7 -1.9,-1.9 v -28.8 c 0,-1.3 0.6,-1.9 1.8,-1.9 h 2.8 c 1.5,0 1.9,0.7 1.9,1.8 v 28.9 c 0.1,1.3 -0.4,1.9 -2,1.9 m 33.7,-14.9 h -17.6 v 0.5 c 0.1,4.1 1.5,9.5 7.2,9.5 3,0 5.6,-1.2 6.8,-1.9 1.1,-0.5 1.9,-0.7 2.4,0.1 l 1.4,2.6 c 0.2,0.4 0.3,0.8 0.3,1.1 0,0.4 -0.3,0.7 -0.9,1.1 -2.4,1.5 -6.3,2.7 -10.2,2.7 -10.3,0 -13.9,-8.3 -13.9,-16.6 0,-8.4 3.7,-17.1 13.6,-17.1 8.5,0 12.3,6.9 12.3,16.5 0.2,0.8 -0.2,1.5 -1.4,1.5 m -10.9,-12.8 c -4.2,0 -6.2,3.4 -6.5,7.9 h 12.3 c -0.1,-4.1 -1.5,-7.9 -5.8,-7.9 m 35.3,27.4 c 0.5,-0.2 0.8,-0.4 0.8,-0.7 0,-0.2 -0.1,-0.5 -0.2,-0.9 l -0.7,-2.9 c -0.3,-0.9 -0.7,-1.1 -1.5,-0.8 -0.7,0.3 -1.9,0.7 -3,0.7 -2.3,0 -2.8,-1.4 -2.8,-4.2 v -18 h 5.2 c 1,0 1.5,-0.6 1.5,-1.5 v -2.6 c 0,-0.9 -0.6,-1.5 -1.5,-1.5 h -5.2 v -8.5 c 0,-1.1 -0.4,-1.8 -1.9,-1.8 h -2.8 c -1.2,0 -1.8,0.6 -1.8,1.9 v 8.5 h -3.5 c -0.9,0 -1.5,0.5 -1.5,1.5 v 2.6 c 0,0.9 0.5,1.5 1.5,1.5 h 3.5 v 18.7 c 0,6.6 3,8.9 7.8,8.9 2.1,0 4.7,-0.4 6.1,-0.9 m 30,-30.3 c 0.1,-0.4 0.3,-1 0.3,-1.3 0,-0.4 -0.4,-0.7 -1.1,-0.7 h -3.8 c -0.9,0 -1.3,0.4 -1.6,1.3 l -7.1,22.6 -7.1,-22.6 c -0.3,-0.9 -0.7,-1.3 -1.6,-1.3 h -4.2 c -0.6,0 -1.1,0.3 -1.1,0.7 0,0.3 0.1,0.8 0.2,1.1 l 10.4,30.8 -0.1,0.3 c -1.3,3.7 -2.3,6.5 -5,6.5 -1,0 -2.2,-0.3 -3,-0.5 -0.5,-0.1 -0.9,0.1 -1.1,0.6 l -0.9,3 c -0.1,0.2 -0.2,0.6 -0.1,0.9 0,0.4 0.2,0.6 0.7,0.7 0.8,0.3 2.4,0.7 4.1,0.7 6.8,0 9.1,-4.1 11.4,-11.1 l 10.7,-31.7"
   id="path147" />
</svg>
