<svg width="276" height="136" viewBox="0 0 276 136" fill="none" xmlns="http://www.w3.org/2000/svg">
<rect width="276" height="136" fill="white"/>
<path d="M237 39.5346C236.483 40.1525 235.759 40.4615 235.035 40.719C234.311 40.9764 233.691 41.2854 233.018 41.6458C231.984 42.2123 231.467 43.0877 231.467 44.3235C231.519 46.5378 231.467 48.752 231.467 50.9148C231.467 51.2752 231.467 51.6357 231.364 51.9446C231.105 53.129 230.123 53.7984 228.881 53.7469C227.796 53.6954 226.916 52.82 226.761 51.6872C226.71 51.4297 226.71 51.1722 226.71 50.9663C226.71 46.9497 226.761 42.8817 226.71 38.8652C226.658 36.8569 228.313 35.8785 230.174 36.3935C231.002 36.5994 231.364 37.2174 231.415 38.0928C233.277 35.5696 236.121 35.827 236.897 37.8353C237 38.4017 237 38.9682 237 39.5346Z" fill="#0792D0"/>
<path d="M75.5077 28.7209C77.6795 29.5449 79.1792 30.9352 79.6963 33.2524C80.1617 35.5696 79.6963 37.6809 77.8864 39.3802C76.3868 40.7705 74.5769 41.131 72.6636 40.5131C70.5952 39.8436 69.3541 38.2473 68.9404 36.1876C68.2165 32.789 69.6644 30.3688 73.1807 28.7209C73.9564 28.7209 74.732 28.7209 75.5077 28.7209Z" fill="#EE7F02"/>
<path d="M110.309 72.5938C110.309 89.6898 98.2087 104.366 81.4027 107.61C61.701 111.42 42.4646 98.0833 39.4654 78.2581C37.6038 66.054 41.327 55.5493 50.6349 47.2072C53.0136 45.0445 55.806 43.4997 58.8052 42.2638C59.3223 42.0579 59.5291 42.0578 59.5808 42.7273C59.8394 45.5594 60.0979 48.3916 60.4082 51.1723C60.5116 51.8932 60.2531 52.2022 59.6843 52.5111C53.9961 56.0127 50.3763 60.9561 49.187 67.5989C46.3946 83.0985 57.047 96.178 70.802 98.1863C85.0225 100.298 98.157 90.6681 100.277 76.4043C101.311 69.4011 100.07 62.8099 95.468 57.0941C93.8133 55.0858 91.8483 53.3865 89.6247 52.0477C89.211 51.7902 88.9525 51.4812 88.8491 50.9148C88.5388 49.164 88.1251 47.3617 87.7631 45.6109C87.6597 45.096 87.7114 44.8385 88.3319 44.684C90.0384 44.3236 91.7448 43.8601 93.3996 43.4482C93.865 43.3452 94.227 43.4482 94.5889 43.6542C103.225 49.1125 108.344 56.8881 109.844 66.9809C110.154 68.8347 110.309 70.6885 110.309 72.5938Z" fill="#EE7F02"/>
<path d="M145.627 43.6541C145.42 43.963 145.524 44.169 145.524 44.375C145.524 46.6922 145.524 49.0094 145.524 51.2752C145.524 52.2536 145.162 53.0775 144.231 53.4894C143.3 53.9014 142.37 53.8499 141.542 53.2319C140.973 52.82 140.767 52.2021 140.767 51.4811C140.767 45.4049 140.767 39.3286 140.767 33.2523C140.767 31.8619 141.801 30.9351 143.197 30.9351C144.645 30.9351 145.524 31.8105 145.524 33.3038C145.524 35.2606 145.524 37.1658 145.524 39.1226C145.524 39.3286 145.524 39.586 145.524 39.792C145.576 39.8435 145.627 39.8435 145.679 39.895C145.938 39.6375 146.196 39.3286 146.455 39.0711C148.73 36.6509 150.953 34.2822 153.229 31.8619C154.108 30.9351 155.039 30.7291 156.073 31.141C157.366 31.656 157.883 33.2008 157.107 34.3852C156.693 35.0546 156.125 35.5695 155.556 36.1359C153.849 37.8352 152.143 39.5345 150.385 41.1824C150.023 41.4913 150.074 41.6973 150.385 42.0063C152.712 44.375 154.987 46.7952 157.314 49.1639C157.779 49.6789 158.296 50.1938 158.503 50.8632C158.814 51.7901 158.503 52.717 157.779 53.2319C156.9 53.8499 155.607 53.9014 154.78 53.2319C153.746 52.408 152.97 51.3782 152.039 50.4513C149.868 48.237 147.747 45.9713 145.627 43.6541Z" fill="#0792D0"/>
<path d="M119.41 39.2772C119.41 37.3204 119.41 35.4151 119.41 33.4583C119.41 31.6046 120.961 30.5232 122.72 31.1411C123.65 31.5016 124.167 32.3255 124.167 33.5613C124.167 37.1659 124.167 40.719 124.167 44.3236C124.167 45.9199 124.581 47.3617 125.822 48.4431C127.27 49.7304 129.028 49.9879 130.786 49.267C132.648 48.4946 133.63 47.0012 133.734 45.0445C133.837 43.1392 133.786 41.1824 133.786 39.2257C133.786 37.3204 133.786 35.4151 133.786 33.4583C133.786 31.6046 135.337 30.5232 137.095 31.1411C137.974 31.4501 138.543 32.274 138.543 33.3039C138.543 37.2174 138.595 41.1824 138.543 45.096C138.44 49.5245 134.82 53.3865 130.373 53.8499C126.339 54.2619 123.081 52.9745 120.806 49.5759C119.824 48.1341 119.41 46.5378 119.41 44.787C119.41 42.9847 119.41 41.1309 119.41 39.2772Z" fill="#0792D0"/>
<path d="M172.931 54.0045C171.069 53.9015 169.259 53.747 167.553 53.0261C166.984 52.7686 166.467 52.5112 166.053 52.0477C165.277 51.2238 165.122 50.091 165.639 49.1641C166.105 48.2887 167.036 47.8767 168.173 48.1342C169.001 48.2887 169.828 48.6491 170.655 48.9066C171.896 49.3186 173.189 49.5245 174.482 49.0611C175.206 48.8036 175.723 48.3402 176.033 47.6192C176.499 46.4349 176.188 45.508 175.051 44.8901C174.016 44.3236 172.879 44.0662 171.793 43.7572C170.552 43.3967 169.362 43.0363 168.225 42.4184C166.105 41.234 165.226 39.3287 165.484 37.0115C165.846 33.5099 168.328 30.9867 171.845 30.4718C173.81 30.1628 175.723 30.4203 177.584 31.0897C178.05 31.2442 178.515 31.5016 178.929 31.8621C179.86 32.583 180.067 33.6129 179.601 34.6943C179.187 35.6726 178.308 36.1361 177.119 35.9301C176.499 35.8271 175.878 35.5697 175.309 35.3637C174.327 35.0547 173.396 34.9002 172.362 35.1577C172 35.2607 171.689 35.4152 171.431 35.6212C170.448 36.3936 170.5 37.6809 171.534 38.3503C172.103 38.7108 172.724 38.9168 173.344 39.1227C174.534 39.4832 175.775 39.7922 176.912 40.2556C180.015 41.4915 181.463 43.4997 181.463 46.5379C181.463 49.576 179.756 52.1507 176.861 53.2836C176.24 53.5411 175.568 53.747 174.896 53.85C174.275 53.953 173.603 54.0045 172.931 54.0045Z" fill="#0792D0"/>
<path d="M118.738 96.6929C118.738 93.3973 119.462 90.7196 121.323 88.4023C123.857 85.2612 127.27 84.1798 131.2 84.5403C132.441 84.6433 133.682 84.9008 134.82 85.4672C135.957 86.0336 136.837 86.806 136.733 88.1964C136.681 89.5352 135.595 90.4621 134.251 90.1531C133.32 89.9472 132.441 89.4837 131.562 89.2777C127.787 88.4538 124.943 90.2561 124.064 94.0152C123.65 95.663 123.65 97.3108 124.116 98.9586C125.098 102.563 128.356 104.262 131.976 103.13C132.596 102.924 133.217 102.615 133.786 102.409C135.027 101.894 136.009 102.151 136.63 103.027C137.302 104.005 137.199 105.241 136.319 106.168C135.285 107.198 133.992 107.558 132.596 107.816C129.752 108.331 127.012 108.176 124.426 106.734C121.22 104.932 119.513 102.048 118.841 98.4952C118.738 97.8772 118.738 97.1048 118.738 96.6929Z" fill="#0792D0"/>
<path d="M194.287 38.0412C194.908 36.6509 195.683 36.136 196.873 36.2389C197.907 36.3419 198.476 36.8054 198.734 37.8353C198.838 38.1957 198.838 38.6077 198.838 39.0196C198.838 42.9846 198.838 46.9497 198.838 50.9662C198.838 51.2237 198.838 51.4812 198.838 51.6871C198.734 52.8715 198.165 53.5409 197.235 53.7469C195.942 54.0044 195.114 53.5409 194.597 52.408C194.494 52.2021 194.442 51.7901 194.132 52.2021C191.65 54.9827 187.254 54.2618 184.979 51.9446C183.531 50.5028 182.756 48.752 182.445 46.7437C182.032 43.7056 182.549 40.8734 184.669 38.5562C186.582 36.3934 188.961 35.5695 191.805 36.3419C192.736 36.5994 193.563 37.2173 194.287 38.0412ZM186.892 45.0444C186.944 46.3318 187.254 47.5676 188.082 48.546C189.426 50.1423 191.908 50.0393 193.098 48.34C194.442 46.4862 194.442 43.4481 193.098 41.5943C191.908 39.998 189.685 39.8435 188.289 41.2339C187.254 42.3152 186.944 43.6541 186.892 45.0444Z" fill="#0792D0"/>
<path d="M146.765 100.812C145.162 100.812 143.559 100.812 142.008 100.812C141.542 100.812 141.542 100.967 141.594 101.327C141.956 102.769 143.3 103.851 145.007 104.057C146.455 104.262 147.799 103.799 149.04 103.13C149.506 102.872 149.971 102.615 150.488 102.409C151.264 102.1 152.039 102.306 152.608 102.975C153.177 103.645 153.229 104.468 152.815 105.138C152.505 105.653 152.039 106.065 151.574 106.374C148.937 108.022 146.093 108.588 143.042 107.816C139.577 106.94 137.147 104.005 136.837 100.4C136.578 97.4653 137.302 94.8906 139.319 92.7278C143.042 88.7628 149.35 89.5867 152.246 94.3756C153.022 95.663 153.487 97.0533 153.487 98.5982C153.487 100.143 152.867 100.761 151.367 100.761C149.764 100.812 148.265 100.812 146.765 100.812ZM145.059 97.6713C146.093 97.6713 147.179 97.6713 148.213 97.6713C148.575 97.6713 148.73 97.5683 148.627 97.1563C148.316 95.4055 146.817 94.1697 145.059 94.1697C143.3 94.1697 141.801 95.4055 141.439 97.1048C141.335 97.5168 141.439 97.6713 141.852 97.6713C142.938 97.6713 144.024 97.6713 145.059 97.6713Z" fill="#0792D0"/>
<path d="M200.803 100.812C199.251 100.812 197.7 100.864 196.149 100.812C195.58 100.812 195.58 101.018 195.683 101.43C196.097 102.821 197.39 103.851 199.044 104.057C200.337 104.211 201.527 103.954 202.664 103.336C203.233 103.027 203.802 102.718 204.371 102.46C205.25 102.048 206.025 102.254 206.646 103.027C207.215 103.748 207.266 104.623 206.749 105.344C206.439 105.756 206.077 106.116 205.612 106.374C202.871 108.073 199.924 108.639 196.769 107.764C193.408 106.837 191.133 103.851 190.822 100.4C190.616 98.0318 191.081 95.8175 192.425 93.8092C195.683 89.1233 202.25 89.0203 205.663 93.5518C206.801 95.0966 207.525 96.7959 207.473 98.7527C207.422 100.092 206.853 100.709 205.508 100.709C203.957 100.812 202.354 100.812 200.803 100.812ZM199.096 97.6713C200.182 97.6713 201.216 97.6713 202.302 97.6713C202.716 97.6713 202.768 97.5168 202.716 97.1564C202.354 95.4056 200.906 94.1697 199.148 94.1697C197.39 94.1697 195.89 95.4056 195.528 97.1564C195.425 97.5683 195.58 97.6713 195.993 97.6713C197.079 97.6713 198.062 97.6713 199.096 97.6713Z" fill="#0792D0"/>
<path d="M213.834 46.5892C214.04 48.34 215.385 49.5244 217.195 49.8333C218.436 50.0393 219.573 49.7818 220.659 49.2669C221.332 48.9579 221.952 48.546 222.624 48.237C223.452 47.8766 224.279 48.0826 224.848 48.8035C225.417 49.5244 225.468 50.3483 225.003 51.0692C224.693 51.5326 224.331 51.8416 223.917 52.1506C221.125 53.9014 218.177 54.5193 214.971 53.5924C212.127 52.7685 210.266 50.8117 209.438 47.9796C208.507 44.7869 208.973 41.8003 211.041 39.1741C214.299 35.0546 220.246 35.0031 223.659 39.0711C224.951 40.6159 225.727 42.4182 225.779 44.478C225.779 45.9713 225.158 46.5892 223.659 46.5892C220.608 46.5892 217.557 46.5892 214.558 46.5892C214.299 46.5892 214.04 46.5892 213.834 46.5892ZM217.247 43.4481C218.332 43.4481 219.418 43.4481 220.504 43.4481C220.918 43.4481 221.021 43.3451 220.918 42.9332C220.556 41.1309 219.108 39.895 217.298 39.895C215.54 39.895 214.04 41.2339 213.678 43.0361C213.627 43.3966 213.73 43.4481 214.04 43.4481C215.178 43.4481 216.212 43.4481 217.247 43.4481Z" fill="#0792D0"/>
<path d="M207.525 73.6751C205.922 73.6751 204.319 73.6751 202.664 73.6751C202.199 73.6751 202.147 73.8296 202.25 74.2416C202.716 75.8379 204.164 76.8678 206.025 77.0222C207.215 77.1252 208.301 76.7648 209.335 76.1983C209.904 75.8894 210.472 75.5804 211.041 75.3229C211.869 74.9625 212.644 75.1685 213.213 75.9409C213.782 76.6103 213.834 77.4342 213.317 78.1551C213.058 78.6186 212.644 78.979 212.231 79.2365C209.18 81.1418 205.87 81.7597 202.457 80.4208C198.993 79.0305 197.441 76.1468 197.286 72.5423C197.131 68.7317 199.303 65.1271 202.561 63.7883C206.801 62.0375 211.61 64.2002 213.368 68.6802C213.782 69.6586 213.989 70.6885 213.989 71.7699C213.937 73.1087 213.368 73.6751 212.024 73.7266C210.628 73.6751 209.076 73.6751 207.525 73.6751ZM205.767 70.534C206.853 70.534 207.939 70.534 209.076 70.534C209.438 70.534 209.49 70.431 209.387 70.122C208.973 68.2168 207.628 67.0839 205.818 67.0839C204.009 67.0839 202.612 68.2683 202.199 70.122C202.095 70.4825 202.199 70.5855 202.561 70.5855C203.647 70.534 204.681 70.534 205.767 70.534Z" fill="#0792D0"/>
<path d="M162.433 73.6751C160.83 73.6751 159.227 73.6751 157.572 73.6751C157.107 73.6751 157.004 73.7781 157.159 74.2416C157.624 75.8379 159.02 76.8678 160.882 77.0222C162.071 77.1252 163.157 76.7648 164.191 76.2498C164.76 75.9409 165.329 75.6319 165.898 75.3744C166.725 75.014 167.501 75.2199 168.07 75.8894C168.69 76.6103 168.742 77.3827 168.277 78.1551C167.915 78.7215 167.449 79.1335 166.88 79.4425C164.347 80.9358 161.606 81.5022 158.71 80.8328C155.711 80.1634 153.694 78.3096 152.712 75.3744C151.626 72.0788 152.091 68.9377 154.263 66.2085C157.624 61.986 163.829 62.1405 167.087 66.466C168.225 67.9078 168.845 69.5556 168.897 71.4094C168.949 73.0057 168.328 73.6236 166.725 73.6236C165.381 73.6751 163.881 73.6751 162.433 73.6751ZM160.623 70.534C161.709 70.534 162.795 70.534 163.933 70.534C164.295 70.534 164.347 70.431 164.295 70.122C163.881 68.2683 162.537 67.0839 160.727 67.0839C158.917 67.0839 157.521 68.2683 157.107 70.122C157.004 70.4825 157.107 70.5855 157.469 70.5855C158.452 70.534 159.537 70.534 160.623 70.534Z" fill="#0792D0"/>
<path d="M81.8681 53.1806C81.8681 55.0859 81.9715 56.8882 81.351 58.5875C81.1442 59.2054 80.9373 59.8233 80.5237 60.2868C79.748 61.1622 79.6446 62.1406 79.6963 63.2219C79.748 66.672 79.6963 70.1221 79.6963 73.5722C79.6963 76.3529 78.145 78.6186 75.818 79.3395C72.4568 80.3694 68.9922 77.6917 68.9405 73.8812C68.8888 70.0706 68.9405 66.2086 68.9405 62.398C68.9405 61.8316 68.7853 61.3682 68.4234 60.9047C67.2857 59.3599 66.6652 57.6091 66.7169 55.7038C66.8203 53.4381 66.4584 51.1209 66.9238 48.8551C67.6994 45.0446 70.9572 42.4184 74.6803 42.6244C78.145 42.7788 81.1959 45.7655 81.713 49.4731C81.9198 50.7604 81.8681 52.0477 81.8681 53.1806Z" fill="#EE7F02"/>
<path d="M185.496 64.9212C186.22 64.0458 187.151 63.4794 188.289 63.3249C190.771 62.9129 193.046 63.2219 194.856 65.1787C195.89 66.3115 196.304 67.7534 196.355 69.2467C196.355 72.2333 196.355 75.2715 196.355 78.2581C196.355 79.8029 195.425 80.8328 194.08 80.8328C192.684 80.8328 191.702 79.8544 191.702 78.2581C191.702 75.5289 191.702 72.7998 191.702 70.1221C191.702 68.6288 190.978 67.5474 189.685 67.1869C187.513 66.5175 185.755 67.8563 185.703 70.2251C185.651 72.9027 185.703 75.5289 185.703 78.2066C185.703 78.5156 185.703 78.8246 185.6 79.1335C185.289 80.2664 184.41 80.8843 183.273 80.8328C182.135 80.7813 181.308 80.0604 181.101 78.9275C181.049 78.7216 181.049 78.5156 181.049 78.3096C181.049 74.1901 181.049 70.0191 181.049 65.8996C181.049 64.2003 182.135 63.2219 183.738 63.3764C184.514 63.4794 185.031 63.8913 185.496 64.9212Z" fill="#0792D0"/>
<path d="M131.303 64.9726C132.027 64.0973 132.907 63.5308 133.992 63.3763C136.526 62.9644 138.853 63.2733 140.663 65.3331C141.646 66.466 142.059 67.8048 142.059 69.2466C142.059 72.2848 142.059 75.3229 142.059 78.3611C142.059 80.1119 140.767 81.1932 139.164 80.8328C138.026 80.5753 137.354 79.5969 137.354 78.2066C137.354 75.4774 137.354 72.7482 137.354 70.0705C137.354 67.8563 135.389 66.569 133.32 67.2384C132.131 67.6503 131.407 68.7317 131.407 70.1735C131.407 72.7482 131.407 75.2714 131.407 77.8461C131.407 78.2581 131.407 78.7215 131.303 79.1335C130.993 80.2664 130.114 80.9358 128.925 80.8843C127.787 80.8328 126.96 80.0604 126.805 78.9275C126.753 78.67 126.753 78.4126 126.753 78.1551C126.753 74.1386 126.753 70.122 126.753 66.1055C126.753 65.7966 126.753 65.4361 126.856 65.1271C127.115 64.1487 127.839 63.4793 128.821 63.3763C130.011 63.2733 130.683 63.6853 131.303 64.9726Z" fill="#0792D0"/>
<path d="M159.072 92.0069C161.192 89.4322 166.777 89.7927 168.69 92.6248C169.466 93.7062 169.88 94.9421 169.88 96.2809C169.88 99.3705 169.931 102.46 169.88 105.55C169.88 107.352 168.328 108.485 166.725 107.919C165.743 107.558 165.174 106.631 165.174 105.395C165.174 102.666 165.174 99.937 165.174 97.2593C165.174 95.0965 163.467 93.8092 161.347 94.3241C160.003 94.6331 159.227 95.8174 159.227 97.4652C159.227 100.091 159.227 102.718 159.227 105.395C159.227 105.704 159.227 106.065 159.124 106.374C158.814 107.455 157.934 108.073 156.797 108.022C155.711 107.97 154.884 107.301 154.625 106.219C154.573 106.013 154.522 105.756 154.522 105.55C154.522 101.379 154.522 97.2078 154.522 92.9853C154.522 91.183 155.918 90.1531 157.572 90.5651C158.296 90.7195 158.607 91.08 159.072 92.0069Z" fill="#0792D0"/>
<path d="M201.992 46.126C201.992 44.4267 201.992 42.7274 201.992 40.9766C201.992 40.5647 201.889 40.4102 201.475 40.4617C201.32 40.4617 201.165 40.4617 200.958 40.4617C199.717 40.4617 198.889 39.6893 198.889 38.5049C198.889 37.2691 199.717 36.3937 200.958 36.3937C201.94 36.3937 201.94 36.3937 201.94 35.4153C201.94 34.3339 201.889 33.2525 202.199 32.1712C202.974 29.339 206.387 27.8457 209.025 29.1845C209.955 29.6479 210.317 30.5233 210.007 31.6562C209.8 32.4801 209.231 32.8406 208.249 32.8406C207.008 32.8406 206.698 33.201 206.646 34.4369C206.646 35.0548 206.439 35.8272 206.698 36.2392C207.008 36.7026 207.835 36.3422 208.456 36.3937C209.697 36.4966 210.421 37.2176 210.472 38.4019C210.472 39.5863 209.8 40.3587 208.559 40.4617C208.146 40.5132 207.732 40.5132 207.318 40.4617C206.801 40.4102 206.646 40.5647 206.646 41.0796C206.698 44.3237 206.646 47.5678 206.646 50.7605C206.646 51.0179 206.646 51.2754 206.594 51.5844C206.387 53.0262 205.405 53.7986 204.06 53.6956C202.819 53.5926 201.992 52.6143 201.992 51.2239C201.992 49.5761 201.992 47.8768 201.992 46.126Z" fill="#0792D0"/>
<path d="M150.023 73.3662C150.023 75.014 150.023 76.7133 150.023 78.3612C149.971 80.3694 148.058 81.5023 146.455 80.5239C145.576 80.009 145.369 79.1336 145.317 78.2067C145.317 74.9111 145.317 71.6669 145.317 68.3713C145.317 67.7534 145.162 67.5989 144.593 67.6504C142.887 67.7019 142.008 66.672 142.318 65.1272C142.525 64.1488 143.3 63.5824 144.335 63.5309C145.317 63.5309 145.317 63.5309 145.317 62.501C145.317 61.7286 145.214 60.9562 145.369 60.2353C145.627 58.8964 146.558 58.124 147.799 58.1755C149.04 58.2785 149.919 59.2054 149.971 60.5442C150.023 61.3681 150.023 62.192 149.971 63.016C149.971 63.4794 150.126 63.5824 150.54 63.5309C151.005 63.4794 151.471 63.4794 151.936 63.5824C152.97 63.7884 153.487 64.4578 153.487 65.5392C153.487 66.6205 152.919 67.3414 151.884 67.4959C151.419 67.5989 150.902 67.5989 150.385 67.5474C150.023 67.5474 149.868 67.6504 149.919 68.0109C150.023 69.8646 150.023 71.6154 150.023 73.3662Z" fill="#0792D0"/>
<path d="M216.419 73.263C216.419 71.5637 216.419 69.8644 216.419 68.1136C216.419 67.7532 216.316 67.5987 215.954 67.5987C215.644 67.5987 215.385 67.5987 215.075 67.5472C213.937 67.3927 213.317 66.6718 213.317 65.5389C213.317 64.4576 214.092 63.6337 215.178 63.5307C215.54 63.4792 216.057 63.6851 216.316 63.4277C216.574 63.1187 216.367 62.6038 216.419 62.1918C216.419 61.7284 216.419 61.2649 216.419 60.75C216.419 59.2052 217.35 58.1753 218.746 58.1753C220.142 58.1753 221.073 59.2052 221.125 60.75C221.125 61.5224 221.125 62.2948 221.125 63.1187C221.125 63.4792 221.228 63.5822 221.59 63.5822C222.107 63.5822 222.573 63.5307 223.09 63.6337C224.176 63.8396 224.693 64.509 224.641 65.6934C224.641 66.7233 224.021 67.4442 222.986 67.5987C222.624 67.6502 222.211 67.7017 221.797 67.6502C221.28 67.5987 221.073 67.7532 221.125 68.3196C221.177 71.5637 221.125 74.8078 221.125 78.052C221.125 78.4639 221.073 78.8759 220.97 79.2878C220.608 80.4207 219.625 81.0386 218.436 80.8326C217.298 80.6782 216.471 79.7513 216.471 78.4124C216.367 76.7131 216.419 75.0138 216.419 73.263Z" fill="#0792D0"/>
<path d="M173.137 100.4C173.137 98.7012 173.137 97.0019 173.137 95.2511C173.137 94.8391 173.034 94.6847 172.62 94.7362C172.413 94.7362 172.258 94.7362 172.051 94.7362C170.81 94.7362 170.086 93.9637 170.035 92.7794C169.983 91.6465 170.81 90.7711 171.948 90.6681C173.086 90.5651 173.086 90.5651 173.086 89.4323C173.086 88.8658 173.086 88.2994 173.086 87.7845C173.137 86.2911 174.068 85.3643 175.413 85.3643C176.809 85.3643 177.688 86.2911 177.74 87.7845C177.791 88.6084 177.74 89.4323 177.74 90.2562C177.74 90.6166 177.843 90.7196 178.205 90.7196C178.619 90.7196 179.084 90.7196 179.498 90.7196C180.584 90.8226 181.204 91.492 181.308 92.5734C181.359 93.7063 180.842 94.4272 179.756 94.6847C179.55 94.7362 179.343 94.7362 179.136 94.7362C177.74 94.7877 177.74 94.7362 177.74 96.178C177.74 99.1131 177.74 102.048 177.74 104.983C177.74 105.138 177.74 105.292 177.74 105.395C177.688 106.94 176.757 107.97 175.413 107.97C174.016 107.97 173.086 106.94 173.086 105.395C173.086 103.748 173.137 102.048 173.137 100.4Z" fill="#0792D0"/>
<path d="M119.617 69.1952C119.617 66.157 119.617 63.1189 119.617 60.0807C119.617 58.2785 121.065 57.1971 122.823 57.712C123.754 57.9695 124.323 58.6904 124.478 59.6688C124.478 59.8748 124.478 60.1322 124.478 60.3382C124.478 66.3115 124.478 72.2333 124.478 78.2066C124.478 78.876 124.426 79.5455 123.961 80.0604C123.34 80.8328 122.151 81.1418 121.168 80.7813C120.237 80.4723 119.617 79.6484 119.617 78.5671C119.617 75.4259 119.617 72.2848 119.617 69.1952Z" fill="#0792D0"/>
<path d="M174.74 65.2301C175.051 64.8696 175.309 64.5607 175.619 64.3032C176.447 63.5308 177.378 63.2733 178.464 63.4278C179.394 63.5823 180.118 64.4062 180.273 65.3846C180.429 66.5689 180.118 67.0839 178.981 67.5473C178.102 67.9078 177.171 68.2682 176.343 68.7317C175.206 69.3496 174.689 70.225 174.689 71.5638C174.74 73.8296 174.689 76.1468 174.689 78.4125C174.689 79.9574 173.706 80.9357 172.31 80.9357C171.172 80.9357 170.293 80.1633 170.086 79.082C170.035 78.773 169.983 78.4125 169.983 78.1036C169.983 74.0871 169.983 70.0705 169.983 66.054C169.983 64.2002 171.224 63.1703 173.034 63.4793C174.12 63.5823 174.585 64.0972 174.74 65.2301Z" fill="#0792D0"/>
<path d="M186.737 92.3674C187.461 91.3375 188.289 90.6166 189.478 90.4621C191.133 90.2561 192.425 91.4405 192.27 93.0883C192.219 93.8092 191.753 94.2726 191.081 94.5301C190.202 94.8906 189.271 95.251 188.444 95.7145C187.254 96.3324 186.634 97.2078 186.686 98.5981C186.737 100.864 186.686 103.078 186.686 105.344C186.686 106.94 185.755 107.97 184.359 107.97C183.014 107.97 182.083 106.992 182.032 105.55C181.98 104.623 182.032 103.748 182.032 102.821C182.032 99.525 182.083 96.2809 182.032 92.9853C181.98 90.9255 183.893 89.8957 185.755 90.6681C186.375 90.977 186.634 91.595 186.737 92.3674Z" fill="#0792D0"/>
</svg>
