<svg width="198" height="136" viewBox="0 0 198 136" fill="none" xmlns="http://www.w3.org/2000/svg">
<rect width="198" height="136" fill="white"/>
<path d="M198 39.5346C197.483 40.1525 196.759 40.4615 196.035 40.719C195.311 40.9764 194.691 41.2854 194.018 41.6458C192.984 42.2123 192.467 43.0877 192.467 44.3235C192.519 46.5378 192.467 48.752 192.467 50.9148C192.467 51.2752 192.467 51.6357 192.364 51.9446C192.105 53.129 191.123 53.7984 189.881 53.7469C188.796 53.6954 187.916 52.82 187.761 51.6872C187.71 51.4297 187.71 51.1722 187.71 50.9663C187.71 46.9497 187.761 42.8817 187.71 38.8652C187.658 36.8569 189.313 35.8785 191.174 36.3935C192.002 36.5994 192.364 37.2174 192.415 38.0928C194.277 35.5696 197.121 35.827 197.897 37.8353C198 38.4017 198 38.9682 198 39.5346Z" fill="#0792D0"/>
<path d="M36.5077 28.7209C38.6795 29.5449 40.1792 30.9352 40.6963 33.2524C41.1617 35.5696 40.6963 37.6809 38.8864 39.3802C37.3868 40.7705 35.5769 41.131 33.6636 40.5131C31.5952 39.8436 30.3541 38.2473 29.9404 36.1876C29.2165 32.789 30.6644 30.3688 34.1807 28.7209C34.9564 28.7209 35.732 28.7209 36.5077 28.7209Z" fill="#EE7F02"/>
<path d="M71.309 72.5938C71.309 89.6898 59.2087 104.366 42.4027 107.61C22.701 111.42 3.46461 98.0833 0.465396 78.2581C-1.39619 66.054 2.32698 55.5493 11.6349 47.2072C14.0136 45.0445 16.806 43.4997 19.8052 42.2638C20.3223 42.0579 20.5291 42.0578 20.5808 42.7273C20.8394 45.5594 21.0979 48.3916 21.4082 51.1723C21.5116 51.8932 21.2531 52.2022 20.6843 52.5111C14.9961 56.0127 11.3763 60.9561 10.187 67.5989C7.39462 83.0985 18.047 96.178 31.802 98.1863C46.0225 100.298 59.157 90.6681 61.2771 76.4043C62.3113 69.4011 61.0703 62.8099 56.468 57.0941C54.8133 55.0858 52.8483 53.3865 50.6247 52.0477C50.211 51.7902 49.9525 51.4812 49.8491 50.9148C49.5388 49.164 49.1251 47.3617 48.7631 45.6109C48.6597 45.096 48.7114 44.8385 49.3319 44.684C51.0384 44.3236 52.7448 43.8601 54.3996 43.4482C54.865 43.3452 55.227 43.4482 55.5889 43.6542C64.2246 49.1125 69.344 56.8881 70.8436 66.9809C71.1538 68.8347 71.309 70.6885 71.309 72.5938Z" fill="#EE7F02"/>
<path d="M106.627 43.6541C106.42 43.963 106.524 44.169 106.524 44.375C106.524 46.6922 106.524 49.0094 106.524 51.2752C106.524 52.2536 106.162 53.0775 105.231 53.4894C104.3 53.9014 103.37 53.8499 102.542 53.2319C101.973 52.82 101.767 52.2021 101.767 51.4811C101.767 45.4049 101.767 39.3286 101.767 33.2523C101.767 31.8619 102.801 30.9351 104.197 30.9351C105.645 30.9351 106.524 31.8105 106.524 33.3038C106.524 35.2606 106.524 37.1658 106.524 39.1226C106.524 39.3286 106.524 39.586 106.524 39.792C106.576 39.8435 106.627 39.8435 106.679 39.895C106.938 39.6375 107.196 39.3286 107.455 39.0711C109.73 36.6509 111.953 34.2822 114.229 31.8619C115.108 30.9351 116.039 30.7291 117.073 31.141C118.366 31.656 118.883 33.2008 118.107 34.3852C117.693 35.0546 117.125 35.5695 116.556 36.1359C114.849 37.8352 113.143 39.5345 111.385 41.1824C111.023 41.4913 111.074 41.6973 111.385 42.0063C113.712 44.375 115.987 46.7952 118.314 49.1639C118.779 49.6789 119.296 50.1938 119.503 50.8632C119.814 51.7901 119.503 52.717 118.779 53.2319C117.9 53.8499 116.607 53.9014 115.78 53.2319C114.746 52.408 113.97 51.3782 113.039 50.4513C110.868 48.237 108.747 45.9713 106.627 43.6541Z" fill="#0792D0"/>
<path d="M80.41 39.2772C80.41 37.3204 80.41 35.4151 80.41 33.4583C80.41 31.6046 81.9613 30.5232 83.7195 31.1411C84.6503 31.5016 85.1674 32.3255 85.1674 33.5613C85.1674 37.1659 85.1674 40.719 85.1674 44.3236C85.1674 45.9199 85.5811 47.3617 86.8221 48.4431C88.27 49.7304 90.0282 49.9879 91.7864 49.267C93.648 48.4946 94.6305 47.0012 94.7339 45.0445C94.8373 43.1392 94.7856 41.1824 94.7856 39.2257C94.7856 37.3204 94.7856 35.4151 94.7856 33.4583C94.7856 31.6046 96.3369 30.5232 98.0951 31.1411C98.9741 31.4501 99.543 32.274 99.543 33.3039C99.543 37.2174 99.5947 41.1824 99.543 45.096C99.4395 49.5245 95.8198 53.3865 91.3727 53.8499C87.3393 54.2619 84.0815 52.9745 81.8062 49.5759C80.8237 48.1341 80.41 46.5378 80.41 44.787C80.41 42.9847 80.41 41.1309 80.41 39.2772Z" fill="#0792D0"/>
<path d="M133.931 54.0045C132.069 53.9015 130.259 53.747 128.553 53.0261C127.984 52.7686 127.467 52.5112 127.053 52.0477C126.277 51.2238 126.122 50.091 126.639 49.1641C127.105 48.2887 128.036 47.8767 129.173 48.1342C130.001 48.2887 130.828 48.6491 131.655 48.9066C132.896 49.3186 134.189 49.5245 135.482 49.0611C136.206 48.8036 136.723 48.3402 137.033 47.6192C137.499 46.4349 137.188 45.508 136.051 44.8901C135.016 44.3236 133.879 44.0662 132.793 43.7572C131.552 43.3967 130.362 43.0363 129.225 42.4184C127.105 41.234 126.226 39.3287 126.484 37.0115C126.846 33.5099 129.328 30.9867 132.845 30.4718C134.81 30.1628 136.723 30.4203 138.584 31.0897C139.05 31.2442 139.515 31.5016 139.929 31.8621C140.86 32.583 141.067 33.6129 140.601 34.6943C140.187 35.6726 139.308 36.1361 138.119 35.9301C137.499 35.8271 136.878 35.5697 136.309 35.3637C135.327 35.0547 134.396 34.9002 133.362 35.1577C133 35.2607 132.689 35.4152 132.431 35.6212C131.448 36.3936 131.5 37.6809 132.534 38.3503C133.103 38.7108 133.724 38.9168 134.344 39.1227C135.534 39.4832 136.775 39.7922 137.912 40.2556C141.015 41.4915 142.463 43.4997 142.463 46.5379C142.463 49.576 140.756 52.1507 137.861 53.2836C137.24 53.5411 136.568 53.747 135.896 53.85C135.275 53.953 134.603 54.0045 133.931 54.0045Z" fill="#0792D0"/>
<path d="M79.7378 96.6929C79.7378 93.3973 80.4618 90.7196 82.3233 88.4023C84.8572 85.2612 88.2701 84.1798 92.2001 84.5403C93.4411 84.6433 94.6822 84.9008 95.8198 85.4672C96.9575 86.0336 97.8365 86.806 97.7331 88.1964C97.6814 89.5352 96.5955 90.4621 95.251 90.1531C94.3202 89.9472 93.4411 89.4837 92.5621 89.2777C88.7872 88.4538 85.9431 90.2561 85.064 94.0152C84.6503 95.663 84.6503 97.3108 85.1157 98.9586C86.0982 102.563 89.356 104.262 92.9757 103.13C93.5963 102.924 94.2168 102.615 94.7856 102.409C96.0267 101.894 97.0092 102.151 97.6297 103.027C98.3019 104.005 98.1985 105.241 97.3194 106.168C96.2852 107.198 94.9925 107.558 93.5963 107.816C90.7522 108.331 88.0115 108.176 85.426 106.734C82.2199 104.932 80.5135 102.048 79.8412 98.4952C79.7378 97.8772 79.7378 97.1048 79.7378 96.6929Z" fill="#0792D0"/>
<path d="M155.287 38.0412C155.908 36.6509 156.683 36.136 157.873 36.2389C158.907 36.3419 159.476 36.8054 159.734 37.8353C159.838 38.1957 159.838 38.6077 159.838 39.0196C159.838 42.9846 159.838 46.9497 159.838 50.9662C159.838 51.2237 159.838 51.4812 159.838 51.6871C159.734 52.8715 159.165 53.5409 158.235 53.7469C156.942 54.0044 156.114 53.5409 155.597 52.408C155.494 52.2021 155.442 51.7901 155.132 52.2021C152.65 54.9827 148.254 54.2618 145.979 51.9446C144.531 50.5028 143.756 48.752 143.445 46.7437C143.032 43.7056 143.549 40.8734 145.669 38.5562C147.582 36.3934 149.961 35.5695 152.805 36.3419C153.736 36.5994 154.563 37.2173 155.287 38.0412ZM147.892 45.0444C147.944 46.3318 148.254 47.5676 149.082 48.546C150.426 50.1423 152.908 50.0393 154.098 48.34C155.442 46.4862 155.442 43.4481 154.098 41.5943C152.908 39.998 150.685 39.8435 149.289 41.2339C148.254 42.3152 147.944 43.6541 147.892 45.0444Z" fill="#0792D0"/>
<path d="M107.765 100.812C106.162 100.812 104.559 100.812 103.008 100.812C102.542 100.812 102.542 100.967 102.594 101.327C102.956 102.769 104.3 103.851 106.007 104.057C107.455 104.262 108.799 103.799 110.04 103.13C110.506 102.872 110.971 102.615 111.488 102.409C112.264 102.1 113.039 102.306 113.608 102.975C114.177 103.645 114.229 104.468 113.815 105.138C113.505 105.653 113.039 106.065 112.574 106.374C109.937 108.022 107.093 108.588 104.042 107.816C100.577 106.94 98.1468 104.005 97.8365 100.4C97.578 97.4653 98.3019 94.8906 100.319 92.7278C104.042 88.7628 110.35 89.5867 113.246 94.3756C114.022 95.663 114.487 97.0533 114.487 98.5982C114.487 100.143 113.867 100.761 112.367 100.761C110.764 100.812 109.265 100.812 107.765 100.812ZM106.059 97.6713C107.093 97.6713 108.179 97.6713 109.213 97.6713C109.575 97.6713 109.73 97.5683 109.627 97.1563C109.316 95.4055 107.817 94.1697 106.059 94.1697C104.3 94.1697 102.801 95.4055 102.439 97.1048C102.335 97.5168 102.439 97.6713 102.852 97.6713C103.938 97.6713 105.024 97.6713 106.059 97.6713Z" fill="#0792D0"/>
<path d="M161.803 100.812C160.251 100.812 158.7 100.864 157.149 100.812C156.58 100.812 156.58 101.018 156.683 101.43C157.097 102.821 158.39 103.851 160.044 104.057C161.337 104.211 162.527 103.954 163.664 103.336C164.233 103.027 164.802 102.718 165.371 102.46C166.25 102.048 167.025 102.254 167.646 103.027C168.215 103.748 168.266 104.623 167.749 105.344C167.439 105.756 167.077 106.116 166.612 106.374C163.871 108.073 160.924 108.639 157.769 107.764C154.408 106.837 152.133 103.851 151.822 100.4C151.616 98.0318 152.081 95.8175 153.425 93.8092C156.683 89.1233 163.25 89.0203 166.663 93.5518C167.801 95.0966 168.525 96.7959 168.473 98.7527C168.422 100.092 167.853 100.709 166.508 100.709C164.957 100.812 163.354 100.812 161.803 100.812ZM160.096 97.6713C161.182 97.6713 162.216 97.6713 163.302 97.6713C163.716 97.6713 163.768 97.5168 163.716 97.1564C163.354 95.4056 161.906 94.1697 160.148 94.1697C158.39 94.1697 156.89 95.4056 156.528 97.1564C156.425 97.5683 156.58 97.6713 156.993 97.6713C158.079 97.6713 159.062 97.6713 160.096 97.6713Z" fill="#0792D0"/>
<path d="M174.834 46.5892C175.04 48.34 176.385 49.5244 178.195 49.8333C179.436 50.0393 180.573 49.7818 181.659 49.2669C182.332 48.9579 182.952 48.546 183.624 48.237C184.452 47.8766 185.279 48.0826 185.848 48.8035C186.417 49.5244 186.468 50.3483 186.003 51.0692C185.693 51.5326 185.331 51.8416 184.917 52.1506C182.125 53.9014 179.177 54.5193 175.971 53.5924C173.127 52.7685 171.266 50.8117 170.438 47.9796C169.507 44.7869 169.973 41.8003 172.041 39.1741C175.299 35.0546 181.246 35.0031 184.659 39.0711C185.951 40.6159 186.727 42.4182 186.779 44.478C186.779 45.9713 186.158 46.5892 184.659 46.5892C181.608 46.5892 178.557 46.5892 175.558 46.5892C175.299 46.5892 175.04 46.5892 174.834 46.5892ZM178.247 43.4481C179.332 43.4481 180.418 43.4481 181.504 43.4481C181.918 43.4481 182.021 43.3451 181.918 42.9332C181.556 41.1309 180.108 39.895 178.298 39.895C176.54 39.895 175.04 41.2339 174.678 43.0361C174.627 43.3966 174.73 43.4481 175.04 43.4481C176.178 43.4481 177.212 43.4481 178.247 43.4481Z" fill="#0792D0"/>
<path d="M168.525 73.6751C166.922 73.6751 165.319 73.6751 163.664 73.6751C163.199 73.6751 163.147 73.8296 163.25 74.2416C163.716 75.8379 165.164 76.8678 167.025 77.0222C168.215 77.1252 169.301 76.7648 170.335 76.1983C170.904 75.8894 171.472 75.5804 172.041 75.3229C172.869 74.9625 173.644 75.1685 174.213 75.9409C174.782 76.6103 174.834 77.4342 174.317 78.1551C174.058 78.6186 173.644 78.979 173.231 79.2365C170.18 81.1418 166.87 81.7597 163.457 80.4208C159.993 79.0305 158.441 76.1468 158.286 72.5423C158.131 68.7317 160.303 65.1271 163.561 63.7883C167.801 62.0375 172.61 64.2002 174.368 68.6802C174.782 69.6586 174.989 70.6885 174.989 71.7699C174.937 73.1087 174.368 73.6751 173.024 73.7266C171.628 73.6751 170.076 73.6751 168.525 73.6751ZM166.767 70.534C167.853 70.534 168.939 70.534 170.076 70.534C170.438 70.534 170.49 70.431 170.387 70.122C169.973 68.2168 168.628 67.0839 166.818 67.0839C165.009 67.0839 163.612 68.2683 163.199 70.122C163.095 70.4825 163.199 70.5855 163.561 70.5855C164.647 70.534 165.681 70.534 166.767 70.534Z" fill="#0792D0"/>
<path d="M123.433 73.6751C121.83 73.6751 120.227 73.6751 118.572 73.6751C118.107 73.6751 118.004 73.7781 118.159 74.2416C118.624 75.8379 120.02 76.8678 121.882 77.0222C123.071 77.1252 124.157 76.7648 125.191 76.2498C125.76 75.9409 126.329 75.6319 126.898 75.3744C127.725 75.014 128.501 75.2199 129.07 75.8894C129.69 76.6103 129.742 77.3827 129.277 78.1551C128.915 78.7215 128.449 79.1335 127.88 79.4425C125.347 80.9358 122.606 81.5022 119.71 80.8328C116.711 80.1634 114.694 78.3096 113.712 75.3744C112.626 72.0788 113.091 68.9377 115.263 66.2085C118.624 61.986 124.829 62.1405 128.087 66.466C129.225 67.9078 129.845 69.5556 129.897 71.4094C129.949 73.0057 129.328 73.6236 127.725 73.6236C126.381 73.6751 124.881 73.6751 123.433 73.6751ZM121.623 70.534C122.709 70.534 123.795 70.534 124.933 70.534C125.295 70.534 125.347 70.431 125.295 70.122C124.881 68.2683 123.537 67.0839 121.727 67.0839C119.917 67.0839 118.521 68.2683 118.107 70.122C118.004 70.4825 118.107 70.5855 118.469 70.5855C119.452 70.534 120.537 70.534 121.623 70.534Z" fill="#0792D0"/>
<path d="M42.8681 53.1806C42.8681 55.0859 42.9715 56.8882 42.351 58.5875C42.1442 59.2054 41.9373 59.8233 41.5237 60.2868C40.748 61.1622 40.6446 62.1406 40.6963 63.2219C40.748 66.672 40.6963 70.1221 40.6963 73.5722C40.6963 76.3529 39.145 78.6186 36.818 79.3395C33.4568 80.3694 29.9922 77.6917 29.9405 73.8812C29.8888 70.0706 29.9405 66.2086 29.9405 62.398C29.9405 61.8316 29.7853 61.3682 29.4234 60.9047C28.2857 59.3599 27.6652 57.6091 27.7169 55.7038C27.8203 53.4381 27.4584 51.1209 27.9238 48.8551C28.6994 45.0446 31.9572 42.4184 35.6803 42.6244C39.145 42.7788 42.1959 45.7655 42.713 49.4731C42.9198 50.7604 42.8681 52.0477 42.8681 53.1806Z" fill="#EE7F02"/>
<path d="M146.496 64.9212C147.22 64.0458 148.151 63.4794 149.289 63.3249C151.771 62.9129 154.046 63.2219 155.856 65.1787C156.89 66.3115 157.304 67.7534 157.355 69.2467C157.355 72.2333 157.355 75.2715 157.355 78.2581C157.355 79.8029 156.425 80.8328 155.08 80.8328C153.684 80.8328 152.702 79.8544 152.702 78.2581C152.702 75.5289 152.702 72.7998 152.702 70.1221C152.702 68.6288 151.978 67.5474 150.685 67.1869C148.513 66.5175 146.755 67.8563 146.703 70.2251C146.651 72.9027 146.703 75.5289 146.703 78.2066C146.703 78.5156 146.703 78.8246 146.6 79.1335C146.289 80.2664 145.41 80.8843 144.273 80.8328C143.135 80.7813 142.308 80.0604 142.101 78.9275C142.049 78.7216 142.049 78.5156 142.049 78.3096C142.049 74.1901 142.049 70.0191 142.049 65.8996C142.049 64.2003 143.135 63.2219 144.738 63.3764C145.514 63.4794 146.031 63.8913 146.496 64.9212Z" fill="#0792D0"/>
<path d="M92.3035 64.9726C93.0274 64.0973 93.9065 63.5308 94.9924 63.3763C97.5263 62.9644 99.8532 63.2733 101.663 65.3331C102.646 66.466 103.059 67.8048 103.059 69.2466C103.059 72.2848 103.059 75.3229 103.059 78.3611C103.059 80.1119 101.767 81.1932 100.164 80.8328C99.0259 80.5753 98.3536 79.5969 98.3536 78.2066C98.3536 75.4774 98.3536 72.7482 98.3536 70.0705C98.3536 67.8563 96.3886 66.569 94.3202 67.2384C93.1309 67.6503 92.4069 68.7317 92.4069 70.1735C92.4069 72.7482 92.4069 75.2714 92.4069 77.8461C92.4069 78.2581 92.4069 78.7215 92.3035 79.1335C91.9932 80.2664 91.1141 80.9358 89.9248 80.8843C88.7872 80.8328 87.9598 80.0604 87.8047 78.9275C87.753 78.67 87.753 78.4126 87.753 78.1551C87.753 74.1386 87.753 70.122 87.753 66.1055C87.753 65.7966 87.753 65.4361 87.8564 65.1271C88.1149 64.1487 88.8389 63.4793 89.8214 63.3763C91.0107 63.2733 91.683 63.6853 92.3035 64.9726Z" fill="#0792D0"/>
<path d="M120.072 92.0069C122.192 89.4322 127.777 89.7927 129.69 92.6248C130.466 93.7062 130.88 94.9421 130.88 96.2809C130.88 99.3705 130.931 102.46 130.88 105.55C130.88 107.352 129.328 108.485 127.725 107.919C126.743 107.558 126.174 106.631 126.174 105.395C126.174 102.666 126.174 99.937 126.174 97.2593C126.174 95.0965 124.467 93.8092 122.347 94.3241C121.003 94.6331 120.227 95.8174 120.227 97.4652C120.227 100.091 120.227 102.718 120.227 105.395C120.227 105.704 120.227 106.065 120.124 106.374C119.814 107.455 118.934 108.073 117.797 108.022C116.711 107.97 115.884 107.301 115.625 106.219C115.573 106.013 115.522 105.756 115.522 105.55C115.522 101.379 115.522 97.2078 115.522 92.9853C115.522 91.183 116.918 90.1531 118.572 90.5651C119.296 90.7195 119.607 91.08 120.072 92.0069Z" fill="#0792D0"/>
<path d="M162.992 46.126C162.992 44.4267 162.992 42.7274 162.992 40.9766C162.992 40.5647 162.889 40.4102 162.475 40.4617C162.32 40.4617 162.165 40.4617 161.958 40.4617C160.717 40.4617 159.889 39.6893 159.889 38.5049C159.889 37.2691 160.717 36.3937 161.958 36.3937C162.94 36.3937 162.94 36.3937 162.94 35.4153C162.94 34.3339 162.889 33.2525 163.199 32.1712C163.974 29.339 167.387 27.8457 170.025 29.1845C170.955 29.6479 171.317 30.5233 171.007 31.6562C170.8 32.4801 170.231 32.8406 169.249 32.8406C168.008 32.8406 167.698 33.201 167.646 34.4369C167.646 35.0548 167.439 35.8272 167.698 36.2392C168.008 36.7026 168.835 36.3422 169.456 36.3937C170.697 36.4966 171.421 37.2176 171.472 38.4019C171.472 39.5863 170.8 40.3587 169.559 40.4617C169.146 40.5132 168.732 40.5132 168.318 40.4617C167.801 40.4102 167.646 40.5647 167.646 41.0796C167.698 44.3237 167.646 47.5678 167.646 50.7605C167.646 51.0179 167.646 51.2754 167.594 51.5844C167.387 53.0262 166.405 53.7986 165.06 53.6956C163.819 53.5926 162.992 52.6143 162.992 51.2239C162.992 49.5761 162.992 47.8768 162.992 46.126Z" fill="#0792D0"/>
<path d="M111.023 73.3662C111.023 75.014 111.023 76.7133 111.023 78.3612C110.971 80.3694 109.058 81.5023 107.455 80.5239C106.576 80.009 106.369 79.1336 106.317 78.2067C106.317 74.9111 106.317 71.6669 106.317 68.3713C106.317 67.7534 106.162 67.5989 105.593 67.6504C103.887 67.7019 103.008 66.672 103.318 65.1272C103.525 64.1488 104.3 63.5824 105.335 63.5309C106.317 63.5309 106.317 63.5309 106.317 62.501C106.317 61.7286 106.214 60.9562 106.369 60.2353C106.627 58.8964 107.558 58.124 108.799 58.1755C110.04 58.2785 110.919 59.2054 110.971 60.5442C111.023 61.3681 111.023 62.192 110.971 63.016C110.971 63.4794 111.126 63.5824 111.54 63.5309C112.005 63.4794 112.471 63.4794 112.936 63.5824C113.97 63.7884 114.487 64.4578 114.487 65.5392C114.487 66.6205 113.919 67.3414 112.884 67.4959C112.419 67.5989 111.902 67.5989 111.385 67.5474C111.023 67.5474 110.868 67.6504 110.919 68.0109C111.023 69.8646 111.023 71.6154 111.023 73.3662Z" fill="#0792D0"/>
<path d="M177.419 73.263C177.419 71.5637 177.419 69.8644 177.419 68.1136C177.419 67.7532 177.316 67.5987 176.954 67.5987C176.644 67.5987 176.385 67.5987 176.075 67.5472C174.937 67.3927 174.317 66.6718 174.317 65.5389C174.317 64.4576 175.092 63.6337 176.178 63.5307C176.54 63.4792 177.057 63.6851 177.316 63.4277C177.574 63.1187 177.367 62.6038 177.419 62.1918C177.419 61.7284 177.419 61.2649 177.419 60.75C177.419 59.2052 178.35 58.1753 179.746 58.1753C181.142 58.1753 182.073 59.2052 182.125 60.75C182.125 61.5224 182.125 62.2948 182.125 63.1187C182.125 63.4792 182.228 63.5822 182.59 63.5822C183.107 63.5822 183.573 63.5307 184.09 63.6337C185.176 63.8396 185.693 64.509 185.641 65.6934C185.641 66.7233 185.021 67.4442 183.986 67.5987C183.624 67.6502 183.211 67.7017 182.797 67.6502C182.28 67.5987 182.073 67.7532 182.125 68.3196C182.177 71.5637 182.125 74.8078 182.125 78.052C182.125 78.4639 182.073 78.8759 181.97 79.2878C181.608 80.4207 180.625 81.0386 179.436 80.8326C178.298 80.6782 177.471 79.7513 177.471 78.4124C177.367 76.7131 177.419 75.0138 177.419 73.263Z" fill="#0792D0"/>
<path d="M134.137 100.4C134.137 98.7012 134.137 97.0019 134.137 95.2511C134.137 94.8391 134.034 94.6847 133.62 94.7362C133.413 94.7362 133.258 94.7362 133.051 94.7362C131.81 94.7362 131.086 93.9637 131.035 92.7794C130.983 91.6465 131.81 90.7711 132.948 90.6681C134.086 90.5651 134.086 90.5651 134.086 89.4323C134.086 88.8658 134.086 88.2994 134.086 87.7845C134.137 86.2911 135.068 85.3643 136.413 85.3643C137.809 85.3643 138.688 86.2911 138.74 87.7845C138.791 88.6084 138.74 89.4323 138.74 90.2562C138.74 90.6166 138.843 90.7196 139.205 90.7196C139.619 90.7196 140.084 90.7196 140.498 90.7196C141.584 90.8226 142.204 91.492 142.308 92.5734C142.359 93.7063 141.842 94.4272 140.756 94.6847C140.55 94.7362 140.343 94.7362 140.136 94.7362C138.74 94.7877 138.74 94.7362 138.74 96.178C138.74 99.1131 138.74 102.048 138.74 104.983C138.74 105.138 138.74 105.292 138.74 105.395C138.688 106.94 137.757 107.97 136.413 107.97C135.016 107.97 134.086 106.94 134.086 105.395C134.086 103.748 134.137 102.048 134.137 100.4Z" fill="#0792D0"/>
<path d="M80.6169 69.1952C80.6169 66.157 80.6169 63.1189 80.6169 60.0807C80.6169 58.2785 82.0648 57.1971 83.8229 57.712C84.7537 57.9695 85.3225 58.6904 85.4777 59.6688C85.4777 59.8748 85.4777 60.1322 85.4777 60.3382C85.4777 66.3115 85.4777 72.2333 85.4777 78.2066C85.4777 78.876 85.426 79.5455 84.9606 80.0604C84.34 80.8328 83.1507 81.1418 82.1682 80.7813C81.2374 80.4723 80.6169 79.6484 80.6169 78.5671C80.6169 75.4259 80.6169 72.2848 80.6169 69.1952Z" fill="#0792D0"/>
<path d="M135.74 65.2301C136.051 64.8696 136.309 64.5607 136.619 64.3032C137.447 63.5308 138.378 63.2733 139.464 63.4278C140.394 63.5823 141.118 64.4062 141.273 65.3846C141.429 66.5689 141.118 67.0839 139.981 67.5473C139.102 67.9078 138.171 68.2682 137.343 68.7317C136.206 69.3496 135.689 70.225 135.689 71.5638C135.74 73.8296 135.689 76.1468 135.689 78.4125C135.689 79.9574 134.706 80.9357 133.31 80.9357C132.172 80.9357 131.293 80.1633 131.086 79.082C131.035 78.773 130.983 78.4125 130.983 78.1036C130.983 74.0871 130.983 70.0705 130.983 66.054C130.983 64.2002 132.224 63.1703 134.034 63.4793C135.12 63.5823 135.585 64.0972 135.74 65.2301Z" fill="#0792D0"/>
<path d="M147.737 92.3674C148.461 91.3375 149.289 90.6166 150.478 90.4621C152.133 90.2561 153.425 91.4405 153.27 93.0883C153.219 93.8092 152.753 94.2726 152.081 94.5301C151.202 94.8906 150.271 95.251 149.444 95.7145C148.254 96.3324 147.634 97.2078 147.686 98.5981C147.737 100.864 147.686 103.078 147.686 105.344C147.686 106.94 146.755 107.97 145.359 107.97C144.014 107.97 143.083 106.992 143.032 105.55C142.98 104.623 143.032 103.748 143.032 102.821C143.032 99.525 143.083 96.2809 143.032 92.9853C142.98 90.9255 144.893 89.8957 146.755 90.6681C147.375 90.977 147.634 91.595 147.737 92.3674Z" fill="#0792D0"/>
</svg>
