<svg width="202" height="136" viewBox="0 0 202 136" fill="none" xmlns="http://www.w3.org/2000/svg">
<rect width="202" height="136" fill="white"/>
<path d="M0 28C67.2256 28 134.451 28 201.677 28C201.941 28 202 28.059 202 28.3242C202 55.1179 202 81.8821 202 108.676C202 108.941 201.941 109 201.677 109C134.569 109 67.4312 109 0.323059 109C0.058738 109 0 108.941 0 108.676C0 81.7937 0 54.8821 0 28ZM183.204 62.7227C183.204 63.4301 183.204 64.167 183.204 64.9039C183.204 70.7991 183.204 76.6649 183.204 82.56C183.204 82.8253 183.263 82.9138 183.527 82.9138C185.113 82.9138 186.669 82.9138 188.255 82.9138C188.52 82.9138 188.549 82.8253 188.549 82.5895C188.549 73.0983 188.549 63.607 188.549 54.1157C188.549 53.8799 188.49 53.7915 188.255 53.7915C186.816 53.7915 185.377 53.7915 183.967 53.7915C183.791 53.7915 183.674 53.8504 183.586 54.0273C183.38 54.3515 183.174 54.6758 182.969 54.9705C180.149 59.4214 177.154 63.7838 174.511 68.3231C174.364 68.559 174.305 68.5 174.188 68.3231C173.541 67.2031 172.807 66.1124 172.073 65.0218C169.547 61.3668 167.022 57.7118 164.496 54.0568C164.378 53.8799 164.261 53.7915 164.055 53.7915C162.646 53.7915 161.236 53.7915 159.826 53.7915C159.532 53.7915 159.503 53.8799 159.503 54.1452C159.503 55 159.503 55.8548 159.503 56.6801C159.503 65.2871 159.503 73.8646 159.503 82.4716C159.503 82.8548 159.621 82.9138 159.944 82.9138C161.412 82.8843 162.91 82.8843 164.378 82.9138C164.731 82.9138 164.819 82.8253 164.819 82.4716C164.819 76.7533 164.819 71.0644 164.819 65.3461C164.819 64.6976 164.789 64.0197 164.76 63.3712C164.76 63.1648 164.76 62.929 164.76 62.7227C165.377 63.7249 166.082 64.6386 166.728 65.5819C168.784 68.559 170.869 71.536 172.925 74.5131C173.072 74.7194 173.218 74.8079 173.483 74.8079C174.07 74.7784 174.687 74.7784 175.274 74.8079C175.509 74.8079 175.627 74.7489 175.744 74.5426C176.831 72.833 177.917 71.1528 179.004 69.4432C180.384 67.1736 181.882 64.9924 183.204 62.7227ZM52.8936 68.3231C52.8936 69.0895 53.0111 69.7969 53.1873 70.5044C53.7159 72.5677 54.6851 74.4542 55.7717 76.2817C57.9744 79.9367 60.647 83.238 63.4664 86.4214C66.6383 90.0175 70.0157 93.4367 73.5106 96.738C75.449 98.5655 77.3873 100.364 79.3844 102.132C79.5606 102.279 79.6781 102.338 79.8249 102.103C80.0012 101.837 80.2067 101.602 80.4417 101.366C80.5885 101.218 80.5885 101.13 80.4417 100.953C77.5342 97.9465 74.7441 94.8221 72.1009 91.5797C69.164 88.0131 66.3446 84.2991 63.907 80.3493C62.3504 77.8439 60.97 75.25 60.0302 72.4498C59.3254 70.3865 59.0611 68.2642 59.5016 66.083C59.9128 64.0491 60.6764 62.1037 61.5868 60.2467C63.2608 56.857 65.3754 53.7031 67.6368 50.6965C71.4254 45.6561 75.6546 41.0284 80.0893 36.5775C80.2949 36.3712 80.6767 36.1648 80.6767 35.8996C80.6767 35.6638 80.3536 35.3985 80.148 35.1627C79.8249 34.7795 79.825 34.7795 79.4432 35.1037C75.9189 38.0513 72.4533 41.0873 69.1346 44.2707C65.581 47.69 62.1742 51.286 59.1492 55.1769C57.2108 57.6528 55.4487 60.2467 54.1858 63.1648C53.4516 64.845 52.9229 66.5251 52.8936 68.3231ZM27.9006 68.7358C27.9006 67.4683 27.5481 65.9945 26.8139 64.3144C25.6098 61.4847 23.9064 58.9793 22.0561 56.5328C18.943 52.4061 15.4481 48.6037 11.8063 44.9192C9.69177 42.7675 7.51846 40.7041 5.28642 38.6408C3.96482 37.4323 2.58447 36.2238 1.26287 35.0153C1.08665 34.8679 0.998546 34.8679 0.88107 35.0448C0.704856 35.2806 0.499273 35.5459 0.29369 35.7522C0.117476 35.9585 0.146845 36.0764 0.323059 36.2828C2.14394 38.1397 3.90608 40.0557 5.60948 42.0011C9.33934 46.2456 12.893 50.6376 15.9767 55.3832C17.6508 57.9771 19.2073 60.6299 20.3527 63.5186C20.9401 65.0513 21.41 66.6135 21.5275 68.2642C21.645 70.2391 21.1751 72.1255 20.4996 73.9531C19.3835 77.048 17.7389 79.8777 15.918 82.5895C12.335 87.9836 8.13521 92.8766 3.72986 97.5633C2.61384 98.7424 1.49782 99.8919 0.352428 101.041C0.176214 101.218 0.176214 101.307 0.323059 101.484C0.499273 101.69 0.675487 101.896 0.851701 102.103C0.998546 102.338 1.11602 102.309 1.32161 102.132C4.78715 99.2435 8.16458 96.2664 11.3952 93.1419C14.9782 89.7227 18.385 86.1266 21.4394 82.2063C23.4071 79.6714 25.228 77.0186 26.5496 74.071C27.3132 72.3908 27.8712 70.6223 27.9006 68.7358ZM40.588 55.9727C41.0285 56.0022 41.7334 55.8548 42.4676 55.6779C44.3178 55.2063 46.0212 54.3515 47.6659 53.4083C51.4839 51.1681 54.8907 48.3679 58.18 45.4203C61.0582 42.8559 63.7895 40.2031 66.4327 37.4323C68.9878 34.7795 71.4842 32.0677 73.9218 29.2675C74.0686 29.1201 74.098 29.0317 73.8924 28.8843C73.6281 28.6779 73.3638 28.4716 73.1288 28.2653C72.982 28.1179 72.8645 28.1179 72.7177 28.2653C69.8982 31.036 66.9613 33.6889 63.907 36.2533C60.1184 39.4367 56.1829 42.4727 51.9538 45.0961C49.3987 46.6878 46.7555 48.1026 43.8479 48.9869C42.3795 49.429 40.911 49.6943 39.3838 49.5469C37.5042 49.3701 35.7127 48.81 33.9799 48.0731C30.5144 46.5993 27.3425 44.595 24.3175 42.3843C18.7081 38.3166 13.5685 33.6889 8.66386 28.8253C8.4289 28.5895 8.22332 28.1769 7.92963 28.2063C7.66531 28.2063 7.43036 28.5895 7.16604 28.7664C6.84298 28.9727 6.87235 29.1201 7.1073 29.3854C10.2792 33.1878 13.5391 36.9017 17.0047 40.4389C20.294 43.7991 23.7008 47.012 27.4306 49.9007C29.8683 51.7576 32.394 53.4672 35.1841 54.7052C36.7994 55.4127 38.4734 55.9432 40.588 55.9727ZM40.7935 81.0568C39.6775 81.0568 38.679 81.2631 37.7098 81.5873C35.1547 82.4127 32.8933 83.798 30.72 85.3013C26.6083 88.131 22.8785 91.4323 19.2661 94.9105C16.8284 97.2686 14.4495 99.6856 12.1294 102.162C10.426 103.989 8.72259 105.876 7.07793 107.762C6.93108 107.939 6.93108 108.027 7.1073 108.175C7.37162 108.352 7.60657 108.558 7.84152 108.794C7.98837 108.941 8.10584 108.941 8.25269 108.794C10.2792 106.848 12.335 104.932 14.4495 103.075C18.5025 99.5087 22.6729 96.1485 27.1957 93.1714C29.8683 91.4028 32.629 89.8111 35.5952 88.6321C38.5321 87.4531 41.4984 87.1583 44.5528 88.131C47.519 89.0742 50.2504 90.4891 52.8642 92.1397C57.5632 95.0873 61.8218 98.5655 65.9334 102.221C68.2829 104.313 70.5737 106.495 72.7764 108.735C72.9526 108.912 73.0701 108.971 73.2757 108.764C73.4225 108.587 73.6281 108.44 73.8337 108.322C74.1274 108.145 74.1274 107.968 73.8924 107.733C73.863 107.703 73.8337 107.674 73.8043 107.615C70.0451 103.075 66.139 98.6834 61.9392 94.5568C59.4135 92.0513 56.7703 89.6638 53.9802 87.4825C51.5132 85.5666 48.9581 83.7686 46.08 82.4716C44.3766 81.6463 42.6144 81.0862 40.7935 81.0568ZM137.535 68.2937C137.535 73.0393 137.535 77.7849 137.535 82.5011C137.535 82.7664 137.564 82.8843 137.887 82.8843C143.027 82.8843 148.167 82.8843 153.306 82.8843C153.541 82.8843 153.6 82.8253 153.6 82.5895C153.6 81.3515 153.571 80.1135 153.6 78.8755C153.6 78.5808 153.512 78.5218 153.218 78.5218C149.87 78.5218 146.522 78.5218 143.174 78.5218C142.88 78.5218 142.792 78.4629 142.792 78.1681C142.792 75.6332 142.792 73.1277 142.792 70.5928C142.792 70.2686 142.91 70.2096 143.203 70.2096C146.023 70.2096 148.871 70.2096 151.691 70.2096C152.014 70.2096 152.102 70.1212 152.102 69.7969C152.073 68.6179 152.073 67.4094 152.102 66.2304C152.102 65.9061 152.014 65.8472 151.72 65.8472C148.871 65.8472 146.023 65.8472 143.145 65.8472C142.851 65.8472 142.792 65.7587 142.792 65.4935C142.792 63.1943 142.792 60.8657 142.792 58.5666C142.792 58.2129 142.851 58.1245 143.233 58.1245C146.081 58.1539 148.93 58.1245 151.75 58.1539C152.043 58.1539 152.161 58.0655 152.249 57.8002C152.631 56.5917 153.042 55.3832 153.424 54.1747C153.541 53.7915 153.541 53.7915 153.13 53.7915C148.079 53.7915 142.998 53.7915 137.946 53.7915C137.623 53.7915 137.506 53.8799 137.506 54.2042C137.535 58.8908 137.535 63.5775 137.535 68.2937ZM106.492 59.8341C106.492 58.3603 106.463 56.9454 106.492 55.5011C106.492 55.059 106.375 54.8526 105.963 54.7052C103.232 53.6146 100.442 53.2609 97.5345 53.6146C95.4199 53.8799 93.5696 54.7052 92.0424 56.238C89.3405 59.0087 89.2524 63.7249 91.8662 66.5841C92.806 67.6157 93.9514 68.3821 95.1849 69.0895C96.624 69.9148 98.1512 70.5633 99.5609 71.4181C100.383 71.9192 101.147 72.4498 101.734 73.1867C102.88 74.631 102.938 77.2249 100.471 78.2566C99.5022 78.6692 98.4743 78.7871 97.417 78.7576C95.2143 78.6987 93.2172 78.0207 91.367 76.8122C91.1614 76.6649 91.0733 76.6943 90.9558 76.9301C90.3684 78.1092 89.781 79.2587 89.1643 80.4083C89.0174 80.6736 89.0762 80.7915 89.3111 80.9389C89.5461 81.0568 89.781 81.2336 90.0454 81.381C92.1012 82.5011 94.3039 83.0611 96.624 83.238C98.8854 83.3854 101.059 83.1201 103.173 82.2358C106.933 80.6146 108.783 77.048 107.931 73.0688C107.491 70.976 106.257 69.4432 104.583 68.2052C103.115 67.1441 101.499 66.3777 99.9134 65.5524C98.8561 65.0218 97.7988 64.4618 96.8883 63.6659C96.1541 63.0175 95.6255 62.2511 95.5961 61.2489C95.5374 59.5983 96.4184 58.4782 98.0925 58.1245C99.649 57.7707 101.176 58.0066 102.703 58.3603C104.025 58.714 105.259 59.2151 106.492 59.8341ZM119.209 70.4749C119.209 74.4836 119.209 78.4629 119.209 82.4716C119.209 82.7959 119.297 82.8843 119.62 82.8843C121.118 82.8548 122.616 82.8548 124.084 82.8843C124.436 82.8843 124.525 82.8253 124.525 82.4421C124.525 74.4836 124.525 66.5251 124.525 58.5666C124.525 58.0655 124.466 58.1245 124.994 58.1245C127.315 58.1245 129.635 58.1245 131.926 58.1245C132.219 58.1245 132.337 58.036 132.395 57.7707C132.777 56.5328 133.159 55.2948 133.57 54.0568C133.658 53.7915 133.6 53.7325 133.335 53.7325C125.934 53.7325 118.504 53.7325 111.103 53.7325C110.809 53.7325 110.78 53.821 110.78 54.0862C110.78 55.2948 110.809 56.5033 110.78 57.7413C110.78 58.036 110.839 58.1245 111.162 58.1245C113.717 58.1245 116.272 58.1245 118.798 58.095C119.121 58.095 119.209 58.1834 119.209 58.5076C119.209 62.5164 119.209 66.4956 119.209 70.4749ZM106.11 97.1507C104.935 95.3232 103.702 93.5841 102.586 91.786C102.175 91.1376 101.734 90.8133 100.971 90.9312C100.677 90.9607 100.589 91.0197 100.589 91.3439C100.589 94.881 100.589 98.4181 100.589 101.955C100.589 102.014 100.589 102.073 100.589 102.132C100.589 102.279 100.648 102.338 100.794 102.338C101.147 102.338 101.47 102.309 101.822 102.338C102.057 102.338 102.145 102.279 102.145 102.014C102.145 99.4203 102.145 96.8264 102.145 94.2325C102.145 94.0557 102.087 93.9083 102.175 93.702C102.233 93.7609 102.234 93.7904 102.263 93.7904C103.379 95.441 104.466 97.0917 105.582 98.7424C105.846 99.1255 106.463 99.0961 106.698 98.7129C107.344 97.6812 107.99 96.6496 108.636 95.5884C109.047 94.94 109.458 94.2915 109.899 93.5546C109.899 93.7609 109.899 93.9083 109.899 94.0262C109.899 96.3843 109.899 98.7129 109.899 101.071C109.899 101.454 109.723 101.955 109.958 102.191C110.192 102.427 110.721 102.221 111.103 102.279C111.397 102.309 111.455 102.191 111.455 101.926C111.455 99.8035 111.455 97.6517 111.455 95.5295C111.455 94.1146 111.455 92.6998 111.455 91.2849C111.455 90.9607 111.367 90.8723 111.074 90.9017C110.809 90.9312 110.545 90.9312 110.31 90.9017C110.104 90.9017 109.987 90.9607 109.899 91.1376C109.517 91.7566 109.106 92.405 108.724 93.024C107.814 94.4094 106.962 95.7358 106.11 97.1507ZM178.123 90.8723C176.39 90.9018 174.716 91.7566 173.659 93.6725C172.954 94.94 172.807 96.2959 173.013 97.7107C173.16 98.8897 173.6 99.9214 174.423 100.806C175.685 102.132 177.242 102.604 179.033 102.456C181.148 102.279 182.705 101.218 183.586 99.2435C184.026 98.2707 184.114 97.2096 184.056 96.1485C183.85 93.0535 181.589 90.9018 178.123 90.8723ZM162.499 96.6201C162.499 98.4181 162.499 100.187 162.499 101.985C162.499 102.25 162.557 102.338 162.822 102.338C163.997 102.309 165.171 102.397 166.346 102.279C167.756 102.132 169.019 101.69 170.047 100.658C171.016 99.6856 171.427 98.4771 171.544 97.1212C171.779 93.9378 170.135 91.3734 166.493 91.0197C165.289 90.9018 164.114 90.9902 162.91 90.9607C162.616 90.9607 162.528 91.0197 162.528 91.3144C162.499 93.083 162.499 94.8515 162.499 96.6201ZM119.268 96.2959C120.413 95.4705 120.853 94.5273 120.648 93.3188C120.413 92.0808 119.414 91.1965 118.034 91.0197C116.889 90.8723 115.714 90.9902 114.539 90.9607C114.304 90.9607 114.334 91.1081 114.334 91.2555C114.334 94.8515 114.334 98.4181 114.334 102.014C114.334 102.25 114.392 102.338 114.657 102.338C115.626 102.338 116.595 102.338 117.535 102.338C118.269 102.338 118.974 102.221 119.62 101.926C120.824 101.366 121.5 100.187 121.382 98.8603C121.265 97.5044 120.56 96.7085 119.268 96.2959ZM190.399 97.0917C190.429 97.0328 190.517 97.0328 190.605 97.0033C192.161 96.3548 192.866 94.9694 192.484 93.3188C192.191 92.0513 191.045 91.167 189.548 91.0197C188.49 90.9312 187.462 90.9902 186.405 90.9607C186.141 90.9607 186.053 91.0197 186.053 91.3144C186.053 93.5546 186.053 95.8242 186.053 98.0644C186.053 99.3908 186.053 100.717 186.053 102.014C186.053 102.25 186.111 102.338 186.376 102.338C186.669 102.309 186.934 102.309 187.227 102.338C187.55 102.368 187.609 102.25 187.609 101.955C187.58 100.629 187.609 99.3024 187.609 97.976C187.609 97.8581 187.521 97.6517 187.756 97.6517C188.373 97.6223 189.019 97.5338 189.401 98.2118C189.548 98.4771 189.753 98.7129 189.9 98.9782C190.34 99.6856 190.752 100.422 191.163 101.13C191.398 101.543 191.574 102.103 191.926 102.279C192.308 102.486 192.866 102.338 193.336 102.338C193.366 102.338 193.395 102.338 193.395 102.338C193.6 102.338 193.659 102.309 193.542 102.103C192.514 100.422 191.662 98.6539 190.399 97.0917ZM98.9148 102.338C98.8561 102.191 98.8267 102.103 98.7973 102.014C97.4464 98.536 96.0954 95.0284 94.7444 91.5502C94.5095 90.9607 94.5095 90.9607 93.8927 90.9312C93.5109 90.9017 93.3641 91.0197 93.2172 91.4028C92.2774 93.9673 91.2789 96.5317 90.3097 99.0961C89.9279 100.069 89.5755 101.071 89.1937 102.044C89.0762 102.338 89.1349 102.368 89.4286 102.368C89.781 102.338 90.1041 102.338 90.4565 102.368C90.6621 102.368 90.7502 102.309 90.809 102.103C91.1026 101.277 91.3963 100.481 91.69 99.6561C91.7781 99.4498 91.8662 99.3614 92.1012 99.3614C93.3347 99.3614 94.5976 99.3614 95.8311 99.3614C96.066 99.3614 96.1835 99.4498 96.2716 99.6561C96.5653 100.452 96.859 101.277 97.182 102.073C97.2408 102.221 97.2701 102.368 97.4757 102.368C97.9163 102.338 98.3862 102.338 98.9148 102.338ZM131.632 102.338C131.749 102.338 131.896 102.338 132.014 102.338C132.484 102.338 132.484 102.338 132.307 101.926C130.986 98.5066 129.664 95.0873 128.343 91.6681C128.078 90.9607 128.078 90.9902 127.315 90.9607C127.05 90.9607 126.933 91.0491 126.845 91.2849C125.993 93.5546 125.141 95.8242 124.26 98.0939C123.761 99.4203 123.262 100.747 122.762 102.044C122.674 102.279 122.704 102.368 122.968 102.368C123.32 102.338 123.644 102.338 123.996 102.368C124.202 102.368 124.29 102.309 124.378 102.103C124.671 101.277 124.965 100.481 125.259 99.6561C125.318 99.4498 125.435 99.3908 125.641 99.3908C126.903 99.3908 128.166 99.3908 129.459 99.3908C129.694 99.3908 129.752 99.4793 129.84 99.6561C130.075 100.305 130.31 100.953 130.575 101.602C130.839 102.338 130.839 102.338 131.632 102.338ZM160.472 102.338C160.413 102.191 160.384 102.073 160.325 101.955C159.004 98.536 157.682 95.0873 156.361 91.6681C156.096 90.9607 156.096 90.9902 155.333 90.9607C155.068 90.9607 154.951 91.0491 154.863 91.2849C153.629 94.5273 152.396 97.7991 151.162 101.041C151.015 101.454 150.839 101.896 150.663 102.338C151.133 102.338 151.544 102.309 151.955 102.338C152.19 102.338 152.337 102.279 152.396 102.044C152.66 101.218 152.983 100.422 153.277 99.6266C153.336 99.4203 153.453 99.3614 153.659 99.3614C154.921 99.3614 156.184 99.3614 157.418 99.3614C157.653 99.3614 157.741 99.4203 157.829 99.6561C158.123 100.481 158.446 101.277 158.739 102.103C158.798 102.221 158.798 102.368 159.004 102.368C159.503 102.338 159.973 102.338 160.472 102.338ZM201.383 92.8472C201.383 92.4345 201.383 92.0808 201.383 91.7271C201.383 91.4913 201.325 91.4028 201.119 91.3144C200.179 90.9607 199.239 90.8133 198.241 90.9312C197.36 91.0197 196.567 91.3439 196.009 92.0513C195.069 93.2304 195.186 94.9694 196.302 95.9716C196.86 96.5022 197.536 96.8264 198.182 97.1801C198.769 97.5044 199.357 97.7991 199.797 98.2707C200.267 98.7718 200.414 99.3614 200.208 100.01C200.032 100.629 199.533 100.924 198.946 101.071C197.859 101.307 196.86 101.1 195.891 100.54C195.715 100.422 195.598 100.422 195.509 100.629C195.392 100.865 195.275 101.1 195.157 101.307C194.981 101.543 195.098 101.66 195.304 101.778C196.684 102.515 198.153 102.692 199.68 102.279C200.767 101.955 201.589 101.277 201.824 100.128C202.088 98.9192 201.765 97.8581 200.825 97.0328C200.297 96.5611 199.65 96.2369 199.034 95.9127C198.505 95.6179 197.976 95.3526 197.536 94.94C197.066 94.4978 196.86 93.9378 197.007 93.3188C197.154 92.6998 197.624 92.405 198.211 92.2871C198.476 92.2282 198.74 92.2282 199.004 92.2282C199.856 92.2282 200.59 92.464 201.383 92.8472ZM146.199 90.8723C145.935 90.8723 145.612 90.8723 145.288 90.9607C144.055 91.226 143.145 91.9039 142.851 93.2009C142.557 94.4683 142.998 95.5 144.026 96.2664C144.525 96.6496 145.083 96.9148 145.612 97.2391C146.17 97.5633 146.757 97.8286 147.197 98.3297C148.137 99.3614 147.697 100.806 146.375 101.1C145.523 101.277 144.701 101.189 143.879 100.865C143.585 100.747 143.291 100.393 143.056 100.54C142.821 100.688 142.733 101.1 142.557 101.366C142.44 101.572 142.44 101.69 142.675 101.808C144.084 102.574 145.582 102.781 147.139 102.309C148.255 101.985 149.048 101.277 149.253 100.098C149.488 98.8603 149.106 97.7991 148.108 97.0033C147.52 96.5317 146.816 96.178 146.17 95.8242C145.7 95.559 145.259 95.3232 144.877 94.94C144.554 94.5863 144.349 94.1736 144.407 93.702C144.466 92.9061 144.995 92.405 145.876 92.3166C146.786 92.2282 147.667 92.405 148.519 92.7882C148.725 92.8766 148.813 92.8766 148.783 92.6114C148.754 92.3461 148.754 92.0808 148.783 91.786C148.813 91.5502 148.725 91.4323 148.49 91.3439C147.755 91.0197 147.021 90.8723 146.199 90.8723ZM137.623 90.8723C137.3 90.8723 136.977 90.8723 136.654 90.9607C135.45 91.226 134.539 91.845 134.216 93.1124C133.893 94.3799 134.304 95.441 135.332 96.2369C136.008 96.7675 136.771 97.0917 137.506 97.5338C137.946 97.7697 138.357 98.0644 138.651 98.4476C139.385 99.3614 139.033 100.629 137.917 101.012C137.682 101.1 137.418 101.13 137.153 101.159C136.243 101.218 135.391 101.012 134.628 100.54C134.451 100.422 134.334 100.452 134.246 100.629C134.128 100.894 134.011 101.13 133.835 101.366C133.717 101.543 133.746 101.631 133.923 101.719C135.479 102.574 137.094 102.781 138.739 102.132C140.795 101.336 141.265 98.8013 139.738 97.2096C139.327 96.797 138.827 96.4727 138.328 96.178C137.682 95.7948 136.977 95.5 136.39 95.0284C135.773 94.5273 135.538 93.8788 135.744 93.2304C135.92 92.6408 136.478 92.2871 137.241 92.2282C138.093 92.1692 138.915 92.3166 139.708 92.6998C140.031 92.8472 140.09 92.7587 140.061 92.464C140.031 92.2282 140.031 91.9629 140.061 91.7271C140.09 91.4913 139.973 91.4028 139.767 91.3144C139.121 91.0197 138.387 90.8723 137.623 90.8723Z" fill="#FEFEFE"/>
<path d="M183.204 62.7227C181.912 65.0219 180.384 67.2031 178.975 69.4433C177.888 71.1529 176.801 72.833 175.715 74.5426C175.597 74.7489 175.45 74.8079 175.245 74.8079C174.657 74.7784 174.041 74.7784 173.453 74.8079C173.189 74.8079 173.042 74.7195 172.895 74.5131C170.839 71.536 168.784 68.559 166.698 65.5819C166.052 64.6387 165.348 63.7249 164.731 62.7227C164.731 62.9291 164.731 63.1649 164.731 63.3712C164.731 64.0197 164.789 64.6976 164.789 65.3461C164.789 71.0644 164.789 76.7533 164.789 82.4716C164.789 82.8253 164.701 82.9138 164.349 82.9138C162.88 82.8843 161.383 82.8843 159.914 82.9138C159.562 82.9138 159.474 82.8253 159.474 82.4716C159.474 73.8646 159.474 65.2871 159.474 56.6802C159.474 55.8253 159.474 54.9705 159.474 54.1452C159.474 53.9094 159.532 53.7915 159.797 53.7915C161.206 53.7915 162.616 53.7915 164.026 53.7915C164.261 53.7915 164.349 53.8799 164.466 54.0568C166.992 57.7118 169.518 61.3668 172.044 65.0219C172.778 66.083 173.512 67.1736 174.158 68.3232C174.276 68.5295 174.334 68.559 174.481 68.3232C177.124 63.7544 180.12 59.4214 182.94 54.9705C183.145 54.6463 183.351 54.3515 183.556 54.0273C183.644 53.8799 183.762 53.7915 183.938 53.7915C185.377 53.7915 186.816 53.7915 188.226 53.7915C188.49 53.7915 188.52 53.8799 188.52 54.1157C188.52 63.607 188.52 73.0983 188.52 82.5895C188.52 82.8253 188.49 82.9138 188.226 82.9138C186.64 82.9138 185.083 82.9138 183.498 82.9138C183.233 82.9138 183.174 82.8253 183.174 82.5601C183.174 76.6649 183.174 70.7991 183.174 64.9039C183.204 64.167 183.204 63.4302 183.204 62.7227Z" fill="#747678"/>
<path d="M52.8936 68.3231C52.923 66.5251 53.4516 64.8155 54.1565 63.1648C55.4193 60.2762 57.2108 57.6823 59.1198 55.1768C62.1448 51.2565 65.5516 47.6899 69.1053 44.2707C72.424 41.0873 75.8601 38.0513 79.4138 35.1037C79.7956 34.7795 79.7956 34.7795 80.1186 35.1627C80.2949 35.3985 80.6179 35.6343 80.6473 35.8996C80.6473 36.1648 80.2655 36.3417 80.0599 36.5775C75.6252 41.0284 71.396 45.6856 67.6075 50.6965C65.3167 53.703 63.2315 56.857 61.5574 60.2467C60.647 62.1037 59.8834 64.0196 59.4722 66.083C59.0317 68.2642 59.296 70.357 60.0009 72.4498C60.9407 75.25 62.321 77.8439 63.8776 80.3493C66.3152 84.2991 69.1053 88.0131 72.0715 91.5797C74.7441 94.822 77.5342 97.9465 80.4123 100.953C80.5592 101.13 80.5592 101.218 80.4123 101.366C80.2067 101.602 80.0012 101.837 79.7956 102.103C79.6487 102.309 79.5313 102.279 79.3551 102.132C77.358 100.364 75.4196 98.5655 73.4812 96.738C69.9863 93.4367 66.6383 90.0175 63.4371 86.4214C60.6176 83.238 57.9451 79.9367 55.7424 76.2816C54.6557 74.4541 53.6865 72.5971 53.1579 70.5044C53.0111 69.8264 52.8936 69.0895 52.8936 68.3231Z" fill="#FDCA01"/>
<path d="M27.9005 68.7358C27.8712 70.6223 27.3132 72.3614 26.5789 74.071C25.2573 77.0186 23.4365 79.6714 21.4687 82.2064C18.4144 86.1267 15.0076 89.6933 11.4245 93.1419C8.19395 96.2664 4.81651 99.2435 1.35097 102.132C1.14538 102.309 1.02791 102.309 0.881064 102.103C0.734218 101.867 0.558004 101.661 0.352421 101.484C0.176207 101.307 0.205576 101.218 0.38179 101.042C1.46844 99.8919 2.61383 98.7424 3.72986 97.5633C8.16458 92.8767 12.335 87.9836 15.918 82.5895C17.7389 79.8483 19.3542 77.0481 20.4996 73.9531C21.175 72.1256 21.645 70.2391 21.5275 68.2642C21.4394 66.6136 20.9695 65.0513 20.3527 63.5186C19.2367 60.6299 17.6801 57.9771 15.9767 55.3832C12.8636 50.6376 9.33934 46.2457 5.60947 42.0011C3.90607 40.0557 2.14393 38.1398 0.323052 36.2828C0.117469 36.0764 0.0881004 35.9585 0.293683 35.7522C0.499266 35.5459 0.704849 35.2806 0.881064 35.0448C0.99854 34.8679 1.08665 34.8679 1.26286 35.0153C2.58447 36.2238 3.96481 37.4323 5.28641 38.6409C7.51846 40.6747 9.69176 42.7675 11.8357 44.9192C15.4775 48.6037 18.9724 52.3767 22.0855 56.5328C23.9064 58.9793 25.6098 61.4847 26.8433 64.3144C27.5481 65.9946 27.9005 67.4684 27.9005 68.7358Z" fill="#CE2553"/>
<path d="M40.588 55.9727C38.4734 55.9433 36.7994 55.4127 35.1841 54.7053C32.3646 53.4673 29.8389 51.7577 27.4306 49.9007C23.7008 47.0415 20.294 43.7992 17.0047 40.4389C13.5391 36.9018 10.2792 33.1878 7.1073 29.3854C6.87235 29.1201 6.84298 28.9727 7.16604 28.7664C7.43036 28.5896 7.66531 28.2064 7.92963 28.2064C8.19395 28.2064 8.39954 28.619 8.63449 28.8254C13.5391 33.7184 18.6787 38.3461 24.2882 42.3843C27.3425 44.595 30.485 46.5994 33.9506 48.0732C35.6833 48.8101 37.4748 49.3701 39.3545 49.547C40.8817 49.6944 42.3795 49.4291 43.8186 48.9869C46.7261 48.1027 49.3693 46.6878 51.9244 45.0961C56.1535 42.5022 60.089 39.4662 63.8776 36.2533C66.9613 33.6889 69.8982 31.0361 72.747 28.2653C72.8939 28.1179 73.0113 28.1179 73.1582 28.2653C73.3931 28.4717 73.6575 28.7075 73.9218 28.8843C74.098 29.0317 74.0686 29.1201 73.9511 29.2675C71.5135 32.0382 69.0172 34.7795 66.4327 37.4324C63.7601 40.2031 61.0288 42.8854 58.18 45.4203C54.8907 48.3679 51.4839 51.1387 47.6659 53.4083C46.0212 54.381 44.3178 55.2064 42.4676 55.678C41.7334 55.8548 41.0285 55.9727 40.588 55.9727Z" fill="#69BE29"/>
<path d="M40.7935 81.0569C42.6144 81.0864 44.3766 81.6759 46.1093 82.4423C48.9581 83.7392 51.5426 85.5372 54.0096 87.4532C56.7996 89.6344 59.4429 92.0219 61.9686 94.5274C66.1684 98.654 70.0744 103.046 73.8337 107.585C73.863 107.615 73.8924 107.674 73.9218 107.703C74.1861 107.909 74.1567 108.116 73.863 108.293C73.6575 108.411 73.4812 108.558 73.305 108.735C73.0994 108.941 72.982 108.882 72.8057 108.705C70.6031 106.465 68.3123 104.284 65.9628 102.191C61.8511 98.5067 57.5632 95.0285 52.8936 92.1104C50.2797 90.4597 47.5484 89.0449 44.5821 88.1016C41.5278 87.1289 38.5615 87.4532 35.6246 88.6027C32.6583 89.7818 29.8976 91.3735 27.2251 93.142C22.6729 96.0896 18.5025 99.4794 14.4495 103.016C12.335 104.873 10.2791 106.789 8.25268 108.735C8.07647 108.912 7.98836 108.882 7.84152 108.735C7.60657 108.528 7.37161 108.322 7.10729 108.116C6.93108 107.968 6.90171 107.88 7.07792 107.703C8.75196 105.817 10.426 103.96 12.1294 102.103C14.4495 99.6267 16.7991 97.2097 19.2661 94.8516C22.8784 91.403 26.6083 88.1016 30.72 85.2425C32.9226 83.7392 35.1841 82.3538 37.7098 81.5285C38.679 81.2632 39.6775 81.0569 40.7935 81.0569Z" fill="#01AFD7"/>
<path d="M137.535 68.2936C137.535 63.5775 137.535 58.8908 137.535 54.1746C137.535 53.8209 137.623 53.762 137.976 53.762C143.027 53.762 148.108 53.762 153.159 53.762C153.6 53.762 153.6 53.762 153.453 54.1451C153.071 55.3537 152.66 56.5622 152.278 57.7707C152.19 58.036 152.073 58.1244 151.779 58.1244C148.93 58.1244 146.081 58.1244 143.262 58.0949C142.88 58.0949 142.821 58.2128 142.821 58.5371C142.851 60.8362 142.821 63.1648 142.821 65.4639C142.821 65.7292 142.88 65.8176 143.174 65.8176C146.023 65.8176 148.871 65.8176 151.75 65.8176C152.073 65.8176 152.131 65.9061 152.131 66.2008C152.102 67.3799 152.102 68.5884 152.131 69.7674C152.131 70.0917 152.043 70.1801 151.72 70.1801C148.901 70.1801 146.052 70.1801 143.233 70.1801C142.939 70.1801 142.821 70.239 142.821 70.5633C142.851 73.0982 142.821 75.6037 142.821 78.1386C142.821 78.4334 142.91 78.4923 143.203 78.4923C146.551 78.4923 149.899 78.4923 153.247 78.4923C153.541 78.4923 153.629 78.5513 153.629 78.846C153.6 80.084 153.629 81.322 153.629 82.56C153.629 82.7958 153.571 82.8548 153.336 82.8548C148.196 82.8548 143.056 82.8548 137.917 82.8548C137.623 82.8548 137.564 82.7368 137.564 82.4716C137.535 77.7554 137.535 73.0393 137.535 68.2936Z" fill="#747678"/>
<path d="M106.492 59.8341C105.259 59.1856 104.025 58.6845 102.733 58.3898C101.206 58.0361 99.6784 57.8003 98.1219 58.154C96.4478 58.5077 95.5667 59.6278 95.6255 61.2784C95.6842 62.2806 96.1835 63.047 96.9177 63.6955C97.8282 64.4913 98.8854 65.0219 99.9427 65.5819C101.529 66.4072 103.173 67.1736 104.612 68.2348C106.286 69.4728 107.491 71.0055 107.96 73.0983C108.812 77.0776 106.962 80.6441 103.203 82.2653C101.117 83.1791 98.9148 83.4149 96.6534 83.2675C94.3332 83.1201 92.1306 82.5601 90.0747 81.4105C89.8398 81.2631 89.6048 81.1158 89.3405 80.9684C89.1056 80.8505 89.0468 80.7031 89.1937 80.4378C89.8104 79.2883 90.3978 78.1092 90.9852 76.9597C91.1026 76.7533 91.1614 76.6944 91.3963 76.8417C93.2172 78.0503 95.2437 78.7577 97.4464 78.7872C98.5036 78.8166 99.5316 78.6987 100.501 78.2861C102.938 77.2544 102.88 74.631 101.764 73.2162C101.176 72.4793 100.413 71.9193 99.5903 71.4476C98.1806 70.5928 96.6534 69.9149 95.2143 69.119C94.0102 68.4411 92.8648 67.6452 91.8956 66.6136C89.2818 63.7544 89.3699 59.0677 92.0718 56.2675C93.5697 54.7053 95.4493 53.9094 97.5638 53.6441C100.442 53.2904 103.261 53.6441 105.993 54.7348C106.404 54.8821 106.521 55.0885 106.521 55.5306C106.492 56.9455 106.492 58.3603 106.492 59.8341Z" fill="#747678"/>
<path d="M119.209 70.4748C119.209 66.4956 119.209 62.5163 119.209 58.5371C119.209 58.2128 119.15 58.1244 118.798 58.1244C116.243 58.1539 113.687 58.1244 111.162 58.1539C110.839 58.1539 110.78 58.0655 110.78 57.7707C110.809 56.5622 110.78 55.3537 110.78 54.1157C110.78 53.8799 110.809 53.762 111.103 53.762C118.504 53.762 125.934 53.762 133.335 53.762C133.6 53.762 133.658 53.8209 133.57 54.0862C133.159 55.3242 132.777 56.5622 132.395 57.8002C132.307 58.0655 132.219 58.1539 131.926 58.1539C129.605 58.1539 127.285 58.1539 124.994 58.1539C124.466 58.1539 124.525 58.0949 124.525 58.596C124.525 66.5545 124.525 74.5131 124.525 82.4716C124.525 82.8253 124.436 82.9137 124.084 82.9137C122.586 82.8842 121.088 82.8842 119.62 82.9137C119.297 82.9137 119.209 82.8547 119.209 82.501C119.209 78.4628 119.209 74.4836 119.209 70.4748Z" fill="#747678"/>
<path d="M106.11 97.1508C106.933 95.7359 107.814 94.4095 108.665 93.0536C109.047 92.4346 109.458 91.8156 109.84 91.1671C109.958 90.9903 110.075 90.9313 110.251 90.9313C110.516 90.9608 110.78 90.9608 111.015 90.9313C111.309 90.9019 111.426 90.9903 111.397 91.3145C111.367 92.7294 111.397 94.1442 111.397 95.5591C111.397 97.6813 111.397 99.8331 111.397 101.955C111.397 102.221 111.338 102.339 111.044 102.309C110.662 102.28 110.134 102.486 109.899 102.221C109.664 101.985 109.84 101.484 109.84 101.101C109.84 98.7425 109.84 96.4139 109.84 94.0558C109.84 93.9379 109.84 93.7905 109.84 93.5842C109.4 94.2916 108.988 94.9401 108.577 95.618C107.931 96.6497 107.285 97.6813 106.639 98.7425C106.404 99.1257 105.758 99.1551 105.523 98.772C104.407 97.1213 103.32 95.4706 102.204 93.82C102.175 93.7905 102.175 93.761 102.116 93.7316C102.028 93.9084 102.087 94.0853 102.087 94.2621C102.087 96.856 102.087 99.4499 102.087 102.044C102.087 102.309 101.999 102.368 101.764 102.368C101.411 102.339 101.088 102.368 100.736 102.368C100.589 102.368 100.53 102.309 100.53 102.162C100.53 102.103 100.53 102.044 100.53 101.985C100.53 98.4477 100.53 94.9106 100.53 91.3735C100.53 91.0787 100.618 91.0198 100.912 90.9608C101.675 90.8429 102.116 91.1671 102.527 91.8156C103.702 93.6137 104.965 95.3233 106.11 97.1508Z" fill="#747678"/>
<path d="M178.123 90.8723C181.589 90.8723 183.85 93.0535 184.056 96.1485C184.114 97.2391 184.026 98.2708 183.586 99.2435C182.705 101.218 181.148 102.28 179.033 102.456C177.271 102.604 175.685 102.132 174.423 100.806C173.6 99.9509 173.16 98.8898 173.013 97.7107C172.807 96.2959 172.954 94.94 173.659 93.6725C174.716 91.7566 176.39 90.9313 178.123 90.8723ZM182.44 96.6791C182.47 95.9127 182.323 95.1463 182 94.4094C180.884 91.8745 177.301 91.4029 175.568 93.5841C174.393 95.0579 174.276 97.7402 175.274 99.4204C176.655 101.749 180.414 101.778 181.794 99.4204C182.235 98.5655 182.44 97.6518 182.44 96.6791Z" fill="#747678"/>
<path d="M162.499 96.6201C162.499 94.8515 162.499 93.083 162.499 91.3144C162.499 91.0196 162.587 90.9312 162.88 90.9607C164.085 90.9902 165.259 90.9017 166.464 91.0196C170.105 91.3734 171.75 93.9378 171.515 97.1212C171.427 98.4771 170.986 99.6856 170.017 100.658C169.019 101.69 167.726 102.132 166.317 102.279C165.142 102.397 163.967 102.309 162.792 102.338C162.528 102.338 162.469 102.25 162.469 101.985C162.499 100.216 162.499 98.4181 162.499 96.6201ZM164.055 96.6496C164.055 98.0054 164.055 99.3908 164.055 100.747C164.055 100.983 164.114 101.071 164.378 101.071C164.995 101.071 165.612 101.071 166.199 101.012C167.315 100.894 168.284 100.481 168.989 99.5677C169.782 98.536 169.929 97.357 169.87 96.119C169.753 94.1736 168.637 92.8177 166.757 92.405C166.023 92.2282 165.289 92.2282 164.555 92.2576C163.997 92.2576 164.055 92.1987 164.055 92.7292C164.055 94.0262 164.055 95.3526 164.055 96.6496Z" fill="#747678"/>
<path d="M119.268 96.2959C120.53 96.7086 121.265 97.5044 121.382 98.8603C121.5 100.187 120.824 101.336 119.62 101.926C118.944 102.25 118.24 102.338 117.535 102.338C116.566 102.338 115.596 102.338 114.657 102.338C114.392 102.338 114.334 102.25 114.334 102.014C114.334 98.4182 114.334 94.8516 114.334 91.2555C114.334 91.1082 114.304 90.9313 114.539 90.9608C115.714 90.9902 116.859 90.9018 118.034 91.0197C119.414 91.1966 120.413 92.0809 120.648 93.3188C120.853 94.5274 120.442 95.4706 119.268 96.2959ZM115.89 99.0961C115.89 99.6562 115.89 100.216 115.89 100.747C115.89 100.924 115.919 101.042 116.125 101.042C116.771 101.012 117.388 101.042 118.034 101.012C119.121 100.924 119.796 100.246 119.826 99.2435C119.855 98.1529 119.297 97.4455 118.152 97.2391C117.447 97.1212 116.742 97.2097 116.037 97.1802C115.861 97.1802 115.89 97.2981 115.861 97.416C115.89 97.976 115.89 98.5361 115.89 99.0961ZM115.89 94.1147C115.89 94.6453 115.89 95.1464 115.89 95.6769C115.89 95.8243 115.919 95.9127 116.096 95.9127C116.624 95.8833 117.124 95.9422 117.652 95.8538C118.563 95.7064 119.121 95.0874 119.15 94.2031C119.179 93.142 118.739 92.5525 117.77 92.3461C117.212 92.2282 116.654 92.2872 116.096 92.2872C115.89 92.2872 115.919 92.4346 115.919 92.5525C115.89 93.083 115.89 93.5841 115.89 94.1147Z" fill="#747678"/>
<path d="M190.399 97.0917C191.662 98.6539 192.514 100.422 193.571 102.103C193.689 102.309 193.63 102.338 193.424 102.338C193.395 102.338 193.366 102.338 193.366 102.338C192.896 102.338 192.308 102.486 191.956 102.279C191.603 102.073 191.427 101.513 191.192 101.13C190.781 100.422 190.341 99.6856 189.929 98.9782C189.783 98.7129 189.577 98.4771 189.43 98.2118C189.048 97.5338 188.402 97.6223 187.785 97.6517C187.55 97.6517 187.639 97.8581 187.639 97.976C187.639 99.3024 187.639 100.629 187.639 101.955C187.639 102.279 187.55 102.368 187.257 102.338C186.992 102.309 186.699 102.309 186.405 102.338C186.141 102.368 186.082 102.279 186.082 102.014C186.082 100.688 186.082 99.3613 186.082 98.0644C186.082 95.8242 186.082 93.5546 186.082 91.3144C186.082 91.0491 186.17 90.9607 186.434 90.9607C187.492 90.9902 188.52 90.9312 189.577 91.0196C191.075 91.167 192.22 92.0513 192.514 93.3188C192.896 94.9694 192.191 96.3548 190.634 97.0033C190.517 97.0327 190.429 97.0327 190.399 97.0917ZM187.609 94.2915C187.609 94.881 187.609 95.4705 187.609 96.06C187.609 96.1779 187.55 96.3548 187.756 96.3548C188.402 96.3548 189.048 96.4432 189.665 96.1779C190.517 95.8537 190.987 95.1463 190.957 94.2031C190.928 93.2598 190.429 92.6408 189.548 92.3755C189.019 92.2282 188.49 92.2576 187.932 92.2282C187.668 92.2282 187.58 92.2871 187.58 92.5524C187.609 93.1419 187.609 93.7314 187.609 94.2915Z" fill="#747678"/>
<path d="M98.9148 102.339C98.3861 102.339 97.9162 102.339 97.4463 102.339C97.2407 102.339 97.2114 102.191 97.1526 102.044C96.859 101.248 96.5359 100.452 96.2422 99.6267C96.1541 99.3909 96.0366 99.332 95.8017 99.332C94.5682 99.332 93.3053 99.332 92.0718 99.332C91.8369 99.332 91.7488 99.3909 91.6607 99.6267C91.367 100.452 91.0733 101.248 90.7796 102.073C90.7209 102.25 90.6327 102.339 90.4272 102.339C90.0747 102.309 89.7517 102.309 89.3992 102.339C89.1349 102.368 89.0468 102.309 89.1643 102.014C89.5461 101.042 89.8985 100.069 90.2803 99.0667C91.2495 96.5023 92.248 93.9379 93.1878 91.3735C93.3347 91.0198 93.4815 90.9019 93.8633 90.9019C94.4801 90.9313 94.4801 90.9019 94.715 91.5209C96.066 94.999 97.417 98.5067 98.7679 101.985C98.8267 102.103 98.856 102.191 98.9148 102.339ZM93.9808 93.2894C93.3934 94.9106 92.8354 96.4728 92.2774 98.094C93.3641 98.094 94.392 98.094 95.4492 98.094C95.6255 98.094 95.6842 98.0645 95.6255 97.8582C95.0675 96.3549 94.5094 94.8516 93.9808 93.2894Z" fill="#747678"/>
<path d="M131.632 102.338C130.839 102.338 130.839 102.338 130.545 101.572C130.31 100.924 130.046 100.275 129.811 99.6266C129.752 99.4498 129.664 99.3319 129.429 99.3613C128.166 99.3613 126.903 99.3613 125.611 99.3613C125.406 99.3613 125.288 99.4498 125.229 99.6266C124.936 100.452 124.642 101.248 124.348 102.073C124.29 102.279 124.202 102.368 123.967 102.338C123.614 102.309 123.291 102.309 122.939 102.338C122.645 102.368 122.645 102.25 122.733 102.014C123.232 100.688 123.732 99.3908 124.231 98.0644C125.083 95.7947 125.964 93.5251 126.815 91.2554C126.903 91.0196 127.021 90.9017 127.285 90.9312C128.049 90.9607 128.049 90.9312 128.313 91.6386C129.635 95.0578 130.956 98.4771 132.278 101.896C132.454 102.309 132.454 102.309 131.984 102.309C131.896 102.338 131.779 102.338 131.632 102.338ZM127.579 93.2598C127.021 94.8515 126.463 96.3548 125.934 97.8875C125.846 98.1528 126.052 98.0939 126.169 98.0939C127.08 98.0939 127.99 98.0939 128.901 98.0939C129.224 98.0939 129.253 98.0054 129.136 97.7402C128.754 96.679 128.372 95.6179 127.99 94.5568C127.873 94.1441 127.726 93.7314 127.579 93.2598Z" fill="#747678"/>
<path d="M160.472 102.338C159.973 102.338 159.474 102.338 159.004 102.338C158.798 102.338 158.798 102.191 158.739 102.073C158.416 101.248 158.123 100.452 157.829 99.6266C157.741 99.4202 157.653 99.3318 157.418 99.3318C156.155 99.3318 154.892 99.3318 153.659 99.3318C153.453 99.3318 153.336 99.3908 153.277 99.5971C152.983 100.393 152.689 101.218 152.396 102.014C152.308 102.25 152.19 102.338 151.955 102.309C151.544 102.279 151.133 102.309 150.663 102.309C150.839 101.837 150.986 101.425 151.162 101.012C152.396 97.7696 153.629 94.4977 154.863 91.2554C154.951 90.9901 155.068 90.9312 155.333 90.9312C156.096 90.9606 156.096 90.9312 156.361 91.6386C157.682 95.0578 159.004 98.5065 160.325 101.926C160.384 102.073 160.443 102.191 160.472 102.338ZM155.597 93.3777C155.479 93.4071 155.48 93.4956 155.48 93.5545C155.215 94.2914 154.98 95.0283 154.716 95.7357C154.452 96.4432 154.217 97.1506 153.952 97.858C153.923 97.9464 153.805 98.0938 154.04 98.0938C155.098 98.0938 156.155 98.0938 157.271 98.0938C156.684 96.5021 156.155 94.9399 155.597 93.3777Z" fill="#747678"/>
<path d="M201.383 92.8473C200.62 92.4641 199.856 92.2283 199.063 92.2283C198.799 92.2283 198.534 92.2283 198.27 92.2872C197.683 92.4051 197.213 92.6999 197.066 93.3189C196.919 93.9674 197.095 94.4979 197.595 94.9401C198.035 95.3527 198.564 95.618 199.092 95.9128C199.709 96.237 200.326 96.5907 200.884 97.0329C201.824 97.8582 202.147 98.9193 201.883 100.128C201.618 101.277 200.825 101.985 199.739 102.28C198.241 102.722 196.772 102.515 195.363 101.779C195.128 101.661 195.04 101.543 195.216 101.307C195.363 101.101 195.48 100.865 195.568 100.629C195.656 100.423 195.774 100.423 195.95 100.541C196.89 101.101 197.918 101.307 199.004 101.071C199.592 100.953 200.091 100.629 200.267 100.01C200.473 99.3615 200.297 98.772 199.856 98.2709C199.386 97.7698 198.799 97.475 198.241 97.1802C197.565 96.8265 196.919 96.4728 196.361 95.9717C195.245 94.9401 195.128 93.201 196.067 92.0514C196.655 91.344 197.418 91.0198 198.299 90.9313C199.269 90.8134 200.238 90.9608 201.178 91.3145C201.383 91.4029 201.471 91.4914 201.442 91.7272C201.354 92.0514 201.383 92.4051 201.383 92.8473Z" fill="#747678"/>
<path d="M146.199 90.8723C147.021 90.8723 147.755 91.0197 148.49 91.285C148.725 91.3734 148.813 91.4913 148.783 91.7271C148.754 91.9924 148.754 92.2577 148.783 92.5524C148.783 92.8177 148.725 92.8177 148.519 92.7293C147.697 92.3166 146.816 92.1693 145.876 92.2577C144.995 92.3461 144.466 92.8177 144.407 93.6431C144.378 94.1147 144.554 94.5273 144.877 94.881C145.259 95.2642 145.7 95.5295 146.17 95.7653C146.845 96.119 147.521 96.4727 148.108 96.9444C149.106 97.7402 149.488 98.8014 149.253 100.039C149.018 101.218 148.255 101.926 147.139 102.25C145.582 102.692 144.114 102.515 142.675 101.749C142.44 101.631 142.44 101.513 142.557 101.307C142.733 101.042 142.821 100.629 143.056 100.481C143.291 100.334 143.585 100.717 143.879 100.806C144.701 101.13 145.523 101.248 146.375 101.042C147.726 100.747 148.137 99.3024 147.197 98.2708C146.757 97.7697 146.17 97.5044 145.612 97.1802C145.054 96.8854 144.525 96.5907 144.026 96.2075C142.998 95.4411 142.557 94.4094 142.851 93.142C143.145 91.845 144.055 91.1671 145.288 90.9018C145.612 90.9018 145.935 90.8723 146.199 90.8723Z" fill="#747678"/>
<path d="M137.623 90.8723C138.387 90.8723 139.121 91.0197 139.826 91.285C140.031 91.3734 140.12 91.4618 140.12 91.6976C140.09 91.9335 140.09 92.1987 140.12 92.4345C140.149 92.7293 140.09 92.8177 139.767 92.6703C139.003 92.2872 138.181 92.1398 137.3 92.1987C136.537 92.2577 135.978 92.6409 135.802 93.2009C135.597 93.8494 135.832 94.4979 136.448 94.999C137.036 95.4706 137.741 95.7948 138.387 96.1485C138.886 96.4433 139.385 96.738 139.796 97.1802C141.353 98.7424 140.854 101.277 138.798 102.103C137.153 102.751 135.538 102.545 133.981 101.69C133.805 101.602 133.776 101.513 133.893 101.336C134.04 101.1 134.187 100.835 134.304 100.599C134.393 100.393 134.481 100.393 134.686 100.511C135.45 100.983 136.302 101.189 137.212 101.13C137.476 101.1 137.711 101.071 137.976 100.983C139.092 100.599 139.444 99.3319 138.71 98.4182C138.387 98.035 137.976 97.7697 137.564 97.5044C136.83 97.0917 136.067 96.738 135.391 96.2075C134.363 95.4116 133.952 94.3505 134.275 93.083C134.598 91.8155 135.509 91.1965 136.713 90.9313C136.977 90.8723 137.3 90.8723 137.623 90.8723Z" fill="#747678"/>
<path d="M182.44 96.6791C182.44 97.6813 182.264 98.5655 181.765 99.4203C180.414 101.778 176.625 101.749 175.245 99.4203C174.246 97.7107 174.364 95.0579 175.539 93.5841C177.271 91.4324 180.854 91.8745 181.97 94.4094C182.293 95.1463 182.44 95.9127 182.44 96.6791Z" fill="#FEFEFE"/>
<path d="M164.055 96.6497C164.055 95.3528 164.055 94.0263 164.055 92.7294C164.055 92.1694 163.997 92.2578 164.555 92.2578C165.289 92.2578 166.023 92.2578 166.757 92.4052C168.637 92.8473 169.753 94.1737 169.87 96.1191C169.929 97.3571 169.782 98.5362 168.989 99.5678C168.284 100.482 167.286 100.865 166.199 101.012C165.582 101.071 164.995 101.071 164.378 101.071C164.143 101.071 164.055 100.983 164.055 100.747C164.055 99.391 164.055 98.0056 164.055 96.6497Z" fill="#FEFEFE"/>
<path d="M115.89 99.096C115.89 98.536 115.89 97.9759 115.89 97.4454C115.89 97.3275 115.861 97.2096 116.066 97.2096C116.771 97.239 117.476 97.1506 118.181 97.2685C119.297 97.4748 119.884 98.1823 119.855 99.2729C119.826 100.275 119.15 100.953 118.063 101.041C117.447 101.1 116.801 101.071 116.154 101.071C115.919 101.071 115.919 100.953 115.919 100.776C115.89 100.187 115.89 99.6266 115.89 99.096Z" fill="#FEFEFE"/>
<path d="M115.89 94.1147C115.89 93.5841 115.89 93.083 115.89 92.5525C115.89 92.4346 115.861 92.2872 116.066 92.2872C116.624 92.2872 117.182 92.2282 117.74 92.3462C118.709 92.5525 119.15 93.142 119.121 94.2031C119.091 95.0579 118.533 95.7064 117.623 95.8538C117.124 95.9422 116.595 95.8833 116.066 95.9127C115.89 95.9127 115.861 95.8243 115.861 95.6769C115.89 95.1464 115.89 94.6158 115.89 94.1147Z" fill="#FEFEFE"/>
<path d="M187.609 94.2916C187.609 93.7021 187.609 93.142 187.609 92.5525C187.609 92.2872 187.697 92.2283 187.962 92.2283C188.49 92.2577 189.048 92.1988 189.577 92.3757C190.487 92.6409 190.957 93.2599 190.987 94.2032C191.016 95.1464 190.575 95.8538 189.694 96.1781C189.078 96.4139 188.432 96.3254 187.785 96.3549C187.58 96.3549 187.639 96.178 187.639 96.0601C187.609 95.4706 187.609 94.8811 187.609 94.2916Z" fill="#FEFEFE"/>
<path d="M93.9808 93.2893C94.5388 94.8515 95.0675 96.3548 95.5961 97.8581C95.6842 98.0644 95.6255 98.0939 95.4199 98.0939C94.392 98.0939 93.3641 98.0939 92.248 98.0939C92.8354 96.4727 93.3934 94.9105 93.9808 93.2893Z" fill="#FEFEFE"/>
<path d="M127.579 93.2598C127.726 93.7314 127.873 94.144 128.019 94.5272C128.401 95.5884 128.754 96.6495 129.165 97.7106C129.282 98.0054 129.224 98.0644 128.93 98.0644C128.019 98.0349 127.109 98.0644 126.199 98.0644C126.081 98.0644 125.876 98.1528 125.964 97.858C126.463 96.3842 126.992 94.8515 127.579 93.2598Z" fill="#FEFEFE"/>
<path d="M155.597 93.3777C156.155 94.9399 156.684 96.5021 157.271 98.0938C156.155 98.0938 155.098 98.0938 154.04 98.0938C153.805 98.0938 153.923 97.9465 153.952 97.858C154.217 97.1506 154.452 96.4432 154.716 95.7358C154.98 94.9989 155.215 94.262 155.48 93.5545C155.48 93.4661 155.479 93.4072 155.597 93.3777Z" fill="#FEFEFE"/>
</svg>
