<svg width="202px" height="136px" viewBox="0 0 202 136" version="1.1" xmlns="http://www.w3.org/2000/svg" xmlns:xlink="http://www.w3.org/1999/xlink">
    <g id="Page-1" stroke="none" stroke-width="1" fill="none" fill-rule="evenodd">
        <g id="stem_learning_logo" fill-rule="nonzero">
            <rect id="Rectangle" fill="#FFFFFF" x="0" y="0" width="202" height="136"></rect>
            <path d="M42.9765376,54.6438929 C51.4264624,54.5861258 67.0965376,39.5717428 78.9548172,26.0181446 C78.5471226,25.6740256 78.1354896,25.3346216 77.72,25 C66.4985806,35.8537099 51.4444731,47.812215 42.9304301,47.8685379 C34.0107849,47.9270271 19.6173118,36.3815565 8.37860215,25.0332161 C7.98249129,25.3476006 7.59195714,25.6689801 7.2071828,25.997204 C18.6166344,39.8605782 33.7377419,54.7067146 42.9743763,54.6462444" id="Path" fill="#489C22"></path>
            <path d="M29.6305699,68.188104 C29.5707742,59.7281169 14.5642151,44.0501348 1.01724731,32.1876674 C0.67,32.5949252 0.331397849,33.0057935 0,33.4224385 C10.8496774,44.6602994 22.8008925,59.7136752 22.8628495,68.2343177 C22.9269677,77.1636622 11.3957634,91.5729351 0.0619569892,102.833903 C0.380387097,103.23394 0.703139785,103.62459 1.02877419,104.005852 C14.8725591,92.5802484 29.6982903,77.4380557 29.6329478,68.1938807 L29.6305699,68.188104 Z" id="Path" fill="#DC0C43"></path>
            <path d="M56.341957,67.8841048 C56.3758172,76.3440919 71.3283441,92.0675656 84.8457742,103.969748 C85.1915806,103.569711 85.5323441,103.159565 85.8666237,102.737865 C75.0486452,91.4805078 63.1356129,76.3801963 63.1096774,67.8581096 C63.0736559,58.9280431 74.6488065,44.5541524 86.0186344,33.3343437 C85.7053368,32.9372246 85.3849336,32.5457893 85.0575806,32.160228 C71.1763333,43.5417846 56.3037742,58.6348752 56.3411659,67.8841048 L56.341957,67.8841048 Z" id="Path" fill="#FFBF00"></path>
            <path d="M43.2279677,81.3618838 C34.7773226,81.4182067 19.1043656,96.4275351 7.24752688,109.981855 C7.64664516,110.327014 8.05873118,110.666395 8.48234409,111 C19.7059247,100.145568 34.7614731,88.2000605 43.2740753,88.1379609 C52.1937204,88.0801938 66.5843118,99.6278306 77.8223011,110.979782 C78.2191959,110.665926 78.6095138,110.343805 78.993,110.013627 C67.5835484,96.1495311 52.4653226,81.3033947 43.2258065,81.3640501" id="Path" fill="#00A3D4"></path>
            <path d="M172.630183,103.228163 C171.291953,103.872359 169.82675,104.207921 168.342183,104.210203 C166.630301,104.316576 164.954403,103.686175 163.735032,102.477191 C162.517019,101.269116 161.872119,99.5969257 161.962774,97.881821 C161.877204,96.084851 162.555509,94.3357228 163.829409,93.0683801 C165.104652,91.7998816 166.855739,91.1312527 168.649806,91.2277769 C169.853821,91.2286574 171.046933,91.4564633 172.166946,91.8993191 L172.166946,93.5001889 C171.105064,92.9677686 169.932942,92.6936686 168.745624,92.700115 C167.386901,92.5979725 166.051826,93.0981286 165.093043,94.0684724 C164.135267,95.03797 163.650836,96.3802841 163.768172,97.7395696 C163.627975,99.0583487 164.070151,100.372631 164.978495,101.337014 C165.887553,102.302074 167.17146,102.821565 168.494194,102.759528 C169.330782,102.780203 170.162224,102.622687 170.93357,102.297391 L170.93357,97.9699158 L172.626581,97.9699158 L172.626581,103.219498 L172.630183,103.228163 L172.630183,103.228163 Z M149.281763,91.3397006 L150.93443,91.3397006 L156.658968,98.8060941 C157.259677,99.5714252 157.830216,100.36007 158.369269,101.170211 L158.409613,101.170211 C158.369269,100.477729 158.369269,99.8617873 158.369269,98.9598989 L158.369269,91.3397006 L160.06228,91.3397006 L160.06228,104.018128 L158.583237,104.018128 L152.649054,96.263621 C152.073479,95.514456 151.515709,94.7517163 150.976215,93.9760451 L150.936591,93.9760451 C150.976215,94.5753785 150.994226,95.1877094 150.994226,96.091764 L150.994226,104.018128 L149.283925,104.018128 L149.283925,91.3397006 L149.281763,91.3397006 L149.281763,91.3397006 Z M145.073731,91.3397006 L146.784032,91.3397006 L146.784032,104.018128 L145.073731,104.018128 L145.073731,91.3397006 Z M131.799806,91.3397006 L133.452473,91.3397006 L139.179172,98.8060941 C139.779021,99.5720765 140.349535,100.360688 140.889473,101.170211 L140.929817,101.170211 C140.889473,100.477729 140.889473,99.8617873 140.889473,98.9598989 L140.889473,91.3397006 L142.582484,91.3397006 L142.582484,104.018128 L141.10128,104.018128 L135.162774,96.2657873 C134.586239,95.5180455 134.029395,94.7552572 133.492817,93.9782114 L133.452473,93.9782114 C133.492817,94.5775447 133.510108,95.1898756 133.510108,96.0939303 L133.510108,104.019572 L131.802688,104.019572 L131.802688,91.3397006 L131.799806,91.3397006 L131.799806,91.3397006 Z M124.692763,97.3597511 C125.264056,97.3803141 125.829864,97.2418481 126.327419,96.9597142 C126.932926,96.5591929 127.315578,95.8968658 127.360752,95.1711277 C127.405927,94.4453897 127.108379,93.7405272 126.557237,93.2676765 C126.016635,92.8949598 125.36812,92.7121449 124.712935,92.7477729 L123.560247,92.7477729 L123.560247,97.3698604 L124.692763,97.3698604 L124.692763,97.3597511 L124.692763,97.3597511 Z M121.847065,91.3397006 L124.712935,91.3397006 C125.683639,91.2871595 126.650336,91.5000628 127.509645,91.9556419 C128.547309,92.536116 129.171613,93.6516771 129.124849,94.8418291 C129.193414,96.419785 128.125803,97.8209063 126.588935,98.1699343 L126.588935,98.2096491 C127.236923,98.7752392 127.760893,99.4693282 128.127774,100.248105 L130.377677,104.017406 L128.379204,104.017406 L126.305086,100.497947 C125.710011,99.4408097 125.229484,98.8638612 124.864226,98.7678234 L123.557366,98.7678234 L123.557366,104.017406 L121.847065,104.017406 L121.847065,91.3404227 L121.847065,91.3397006 Z M117.081419,99.2855608 L115.91072,95.9783961 L115.199656,93.8619552 L115.161473,93.8619552 C115.025312,94.3219255 114.813505,94.9198146 114.430237,95.9978925 L113.231441,99.287727 L117.081419,99.287727 L117.081419,99.2855608 L117.081419,99.2855608 Z M114.545505,91.3035962 L115.774559,91.3035962 L120.694376,104.018128 L118.880333,104.018128 L117.631108,100.6893 L112.732183,100.6893 L111.500247,104.018128 L109.732312,104.018128 L114.546226,91.3035962 L114.545505,91.3035962 Z M102.595011,91.3418669 L108.988828,91.3418669 L108.487409,92.7419962 L104.291624,92.7419962 L104.291624,96.819629 L108.424011,96.819629 L108.424011,98.2435873 L104.313237,98.2435873 L104.313237,102.612222 L109.089688,102.612222 L109.089688,104.011629 L102.613022,104.011629 L102.613022,91.3418669 L102.595011,91.3418669 L102.595011,91.3418669 Z M94.9498065,91.3418669 L96.6586667,91.3418669 L96.6586667,102.613666 L101.296075,102.613666 L101.296075,104.014517 L94.954129,104.014517 L94.954129,91.3418669 L94.9498065,91.3418669 L94.9498065,91.3418669 Z M170.01286,52.3274335 L175.122151,52.3274335 L183.232753,64.0101008 C184.309796,65.6102486 185.106591,66.7800317 185.811892,68.0104703 L185.905548,68.0104703 C186.698607,66.5871217 187.543274,65.1932839 188.43786,63.831745 L195.844602,52.3360985 L201,52.3360985 L201,83.2508669 L195.327333,83.2508669 L195.327333,65.7936591 C195.327333,64.5278382 195.327333,62.9298567 195.420989,61.7116936 L195.329495,61.7116936 C194.688875,62.9059099 193.985218,64.065061 193.221516,65.1842165 L187.126677,74.6637923 L184.547538,74.6637923 L177.797108,64.9502599 C177.024166,63.9349251 176.31947,62.8691766 175.687688,61.7600736 L175.594032,61.7600736 C175.641581,62.9804029 175.641581,64.5762181 175.641581,65.654296 L175.641581,83.2537553 L170.032312,83.2537553 L170.032312,52.3281556 L170.01286,52.3281556 L170.01286,52.3274335 Z M146.47857,52.3274335 L163.544839,52.3274335 L162.044183,56.9278583 L152.102968,56.9278583 L152.102968,65.188549 L161.995914,65.188549 L161.995914,69.7882518 L152.102968,69.7882518 L152.102968,78.6554967 L163.590946,78.6554967 L163.590946,83.2559215 L146.476409,83.2559215 L146.476409,52.3281556 L146.47857,52.3281556 L146.47857,52.3274335 Z M127.258215,56.9278583 L118.25428,56.9278583 L118.25428,52.3281556 L142.632194,52.3281556 L141.176925,56.9278583 L132.881172,56.9278583 L132.881172,83.2537553 L127.271903,83.2537553 L127.271903,56.9264142 L127.258215,56.9278583 Z M97.0664301,76.7275208 C99.1098224,78.1837363 101.552421,78.9711419 104.059645,78.9818806 C106.638785,78.9818806 109.215043,77.99623 109.215043,75.3216148 C109.215043,69.2705144 95.8532258,70.0200421 95.8532258,60.5881242 C95.8532258,56.0360792 99.4640215,52.045819 105.885935,52.045819 C108.485114,51.9942757 111.063165,52.5231096 113.433161,53.5939764 L113.433161,58.7576302 C111.172817,57.517815 108.647889,56.8416632 106.071806,56.786329 C103.914118,56.786329 101.851527,57.6318945 101.851527,60.1180447 C101.851527,65.7958253 115.213344,65.0441314 115.213344,74.8537015 C115.213344,80.3437392 110.525505,83.7216685 104.195806,83.7216685 C100.890127,83.7803642 97.6420074,82.8501938 94.8662366,81.0499416 L97.0635484,76.7318533 L97.0664301,76.7282429 L97.0664301,76.7275208 Z" id="Shape" fill="#3E4042"></path>
        </g>
    </g>
</svg>