<svg width="222" height="222" viewBox="0 0 222 222" fill="none" xmlns="http://www.w3.org/2000/svg">
<rect width="222" height="222" fill="#D02454"/>
<path d="M182.046 110.418C182.293 110.335 182.348 110.143 182.431 110.005C183.97 107.394 185.675 104.892 187.297 102.308C188.342 100.686 189.415 99.0642 190.432 97.4423C190.707 97.0025 191.037 96.81 191.559 96.8375C192.632 96.865 193.704 96.8375 194.804 96.8375C195.409 96.8375 195.464 96.92 195.491 97.5248C195.491 97.6622 195.491 97.7997 195.491 97.9096C195.491 106.267 195.491 114.624 195.491 122.981C195.491 124.053 195.491 124.053 194.391 124.053C193.264 124.053 192.137 124.053 191.037 124.053C190.432 124.053 190.35 123.97 190.35 123.365C190.35 121.441 190.35 119.489 190.35 117.565C190.35 113.744 190.35 109.923 190.35 106.102C190.35 105.964 190.35 105.854 190.35 105.744C190.185 105.662 190.157 105.772 190.13 105.827C188.59 108.356 186.913 110.83 185.345 113.332C184.795 114.211 184.19 115.091 183.64 115.998C183.393 116.383 183.091 116.603 182.623 116.575C182.266 116.548 181.908 116.548 181.578 116.575C181.138 116.603 180.836 116.438 180.588 116.081C179.599 114.624 178.581 113.194 177.591 111.737C176.436 110.088 175.282 108.438 174.099 106.761C173.852 106.404 173.604 106.047 173.329 105.607C173.164 105.882 173.219 106.129 173.219 106.349C173.219 111.902 173.219 117.428 173.219 122.981C173.219 124.08 173.219 124.08 172.092 124.08C171.02 124.08 169.947 124.08 168.848 124.08C168.215 124.08 168.188 123.998 168.16 123.393C168.16 123.256 168.16 123.118 168.16 123.008C168.16 114.651 168.16 106.294 168.16 97.9371C168.16 96.865 168.16 96.865 169.26 96.865C170.14 96.865 171.02 96.8925 171.9 96.865C172.532 96.8375 172.917 97.0849 173.247 97.5798C173.852 98.5144 174.512 99.4216 175.144 100.356C177.206 103.353 179.351 106.322 181.358 109.373C181.578 109.703 181.826 110.06 182.046 110.418Z" fill="white"/>
<path d="M45.0595 111.05C45.0045 112.699 44.4821 114.348 43.7672 115.943C42.5298 118.664 40.8251 121.111 39.0103 123.448C35.7933 127.571 32.1363 131.255 28.3418 134.856C25.8397 137.248 23.2275 139.502 20.5879 141.701C19.873 142.306 19.598 142.223 19.1581 141.426C19.0481 141.234 19.0481 141.041 19.2131 140.876C19.3781 140.711 19.543 140.519 19.708 140.354C24.1349 135.928 28.2868 131.282 31.9713 126.224C33.5936 124.025 35.0784 121.743 36.3432 119.324C37.1956 117.702 37.9105 115.998 38.4604 114.211C39.2578 111.599 39.0103 109.043 38.0755 106.514C37.0031 103.627 35.4908 100.988 33.8136 98.4317C31.4764 94.8855 28.8642 91.5317 26.1146 88.2879C24.0524 85.8688 21.9352 83.4771 19.708 81.1955C19.598 81.058 19.4881 80.9206 19.3506 80.8106C18.8831 80.2883 18.8831 80.2608 19.3506 79.711C19.4331 79.6285 19.4881 79.5461 19.5705 79.4636C19.763 79.2162 19.9555 79.2162 20.1755 79.4086C20.7529 79.9309 21.3853 80.4532 21.9627 80.9755C25.2622 83.972 28.5343 87.0234 31.6139 90.2397C34.6659 93.4285 37.608 96.6724 40.1927 100.246C41.6774 102.308 43.1072 104.452 44.0696 106.816C44.647 108.136 45.0595 109.483 45.0595 111.05Z" fill="white"/>
<path d="M56.2228 98.9816C54.903 98.9267 53.3632 98.4868 51.8509 97.8271C48.8538 96.5075 46.2142 94.6657 43.6845 92.6589C41.5948 90.982 39.6151 89.1677 37.6354 87.3533C35.2432 85.0992 33.016 82.68 30.7888 80.2884C29.0291 78.3641 27.3243 76.3848 25.6471 74.3505C25.4821 74.1581 25.1796 73.9657 25.3996 73.6633C25.6196 73.3609 25.8945 73.086 26.2795 73.031C26.4719 73.0035 26.5819 73.196 26.6919 73.3059C27.5993 74.2131 28.5342 75.0928 29.4415 75.9724C34.1709 80.4808 39.0927 84.7143 44.5919 88.2605C47.0391 89.8274 49.5687 91.2294 52.3458 92.1641C53.6931 92.6314 55.0954 92.9338 56.5527 92.9063C58.3675 92.9063 60.0723 92.384 61.722 91.7243C63.9492 90.8171 66.0389 89.6625 68.0736 88.3705C71.9781 85.8964 75.6351 83.0649 79.1546 80.0685C81.7117 77.8968 84.2139 75.6151 86.661 73.3334C87.1285 72.8936 87.156 72.8936 87.6509 73.3059C88.2833 73.8007 88.3108 73.8282 87.7609 74.4605C86.881 75.4776 86.0011 76.4673 85.0937 77.4569C82.5916 80.1509 80.0894 82.845 77.4223 85.3741C74.0403 88.6179 70.5758 91.7792 66.7538 94.4733C64.8291 95.8478 62.8494 97.1123 60.6772 98.0195C59.2474 98.6243 57.7901 98.9816 56.2228 98.9816Z" fill="white"/>
<path d="M88.2286 147.474C88.1736 147.721 87.9536 147.831 87.7886 147.941C87.2662 148.353 87.2387 148.353 86.7713 147.886C85.4789 146.539 84.1041 145.275 82.7293 144.01C78.6324 140.216 74.3705 136.615 69.6961 133.509C67.2215 131.859 64.6369 130.402 61.8322 129.358C59.9625 128.671 58.0378 128.258 56.0306 128.423C54.6558 128.533 53.3634 128.973 52.0986 129.468C49.8714 130.32 47.8092 131.475 45.7745 132.739C41.8151 135.186 38.1581 138.045 34.6111 141.014C32.5213 142.773 30.4866 144.587 28.5069 146.457C27.957 146.979 27.3796 147.501 26.8296 148.024C26.4722 148.381 26.3897 148.353 25.9773 148.051C25.2349 147.501 25.2074 147.446 25.8398 146.759C27.5995 144.835 29.3318 142.91 31.119 141.041C32.8788 139.172 34.666 137.357 36.5083 135.598C40.0828 132.162 43.7673 128.89 47.8917 126.086C49.624 124.904 51.4387 123.86 53.3634 123.09C55.8656 122.073 58.3127 122.128 60.8149 123.09C63.317 124.052 65.5717 125.454 67.7439 127.021C70.521 129.028 73.1057 131.282 75.6078 133.646C76.5977 134.608 77.615 135.543 78.5774 136.533C80.5846 138.594 82.5643 140.684 84.4341 142.883C85.5889 144.202 86.7163 145.549 87.8711 146.896C88.0086 147.034 88.2011 147.199 88.2286 147.474Z" fill="white"/>
<path d="M68.376 110.418C68.376 108.686 68.8984 107.091 69.5858 105.524C70.8506 102.748 72.5829 100.246 74.4526 97.8547C75.8549 96.0678 77.3397 94.3634 78.8795 92.714C80.1718 91.3395 81.4916 89.965 82.839 88.6455C85.0936 86.4738 87.4033 84.3296 89.7955 82.2953C90.7853 81.4706 91.7752 80.6184 92.7651 79.7662C92.9575 79.6013 93.15 79.4638 93.3425 79.3264C93.4525 79.2439 93.5899 79.1889 93.6999 79.2989C93.9199 79.5188 94.1124 79.7662 94.3048 79.9861C94.3873 80.0961 94.3598 80.2335 94.2774 80.3435C94.1949 80.4535 94.1124 80.5359 94.0024 80.6459C92.875 81.8005 91.7752 82.9551 90.6479 84.1096C88.4207 86.4463 86.276 88.8654 84.2413 91.3945C82.344 93.7312 80.5568 96.1228 78.962 98.6244C77.3947 101.071 75.9924 103.628 75.085 106.404C74.7001 107.586 74.4251 108.768 74.3426 110.005C74.2602 111.27 74.5351 112.507 74.8926 113.716C75.69 116.383 76.9823 118.83 78.4121 121.221C80.9417 125.372 83.9113 129.248 87.0184 132.96C88.9981 135.324 91.0603 137.66 93.2325 139.887C93.5075 140.162 93.7549 140.492 94.0299 140.767C94.2224 140.987 94.2498 141.179 94.0574 141.399C94.0299 141.426 94.0024 141.454 93.9749 141.509C93.3975 142.224 93.425 142.196 92.7101 141.591C88.7781 138.183 85.0661 134.581 81.4641 130.843C78.0821 127.324 74.8651 123.668 72.1155 119.599C70.8781 117.785 69.7508 115.888 68.9809 113.799C68.5959 112.617 68.376 111.627 68.376 110.418Z" fill="white"/>
<path d="M147.593 110.445C147.593 106.24 147.593 102.034 147.593 97.855C147.593 96.8379 147.593 96.8379 148.61 96.8379C152.982 96.8379 157.354 96.8379 161.726 96.8379C162.688 96.8379 162.688 96.8654 162.413 97.7451C162.138 98.5698 161.863 99.422 161.588 100.247C161.341 100.961 161.341 100.961 160.544 100.961C158.289 100.961 156.062 100.961 153.807 100.961C153.642 100.961 153.45 100.961 153.285 100.961C152.68 100.989 152.625 101.016 152.625 101.649C152.625 103.545 152.625 105.442 152.625 107.312C152.625 107.999 152.68 108.026 153.395 108.026C155.649 108.026 157.931 108.026 160.186 108.026C160.351 108.026 160.544 108.026 160.709 108.026C161.204 108.054 161.286 108.136 161.314 108.604C161.341 109.648 161.341 110.665 161.314 111.71C161.314 112.122 161.204 112.205 160.791 112.232C160.626 112.26 160.434 112.232 160.269 112.232C158.096 112.232 155.924 112.232 153.725 112.232C153.56 112.232 153.367 112.232 153.202 112.232C152.707 112.26 152.625 112.315 152.625 112.81C152.625 114.954 152.625 117.126 152.625 119.27C152.625 119.792 152.707 119.847 153.34 119.847C155.979 119.847 158.619 119.847 161.259 119.847C161.588 119.847 161.918 119.847 162.248 119.847C162.578 119.847 162.743 120.012 162.743 120.314C162.743 121.359 162.743 122.431 162.743 123.476C162.743 123.806 162.578 123.971 162.248 123.971C162.083 123.971 161.946 123.971 161.781 123.971C157.354 123.971 152.927 123.971 148.528 123.971C147.565 123.971 147.565 123.971 147.565 123.036C147.593 118.885 147.593 114.679 147.593 110.445Z" fill="white"/>
<path d="M118.667 100.301C118.667 100.878 118.694 101.455 118.667 102.005C118.639 102.5 118.529 102.555 118.089 102.363C117.182 101.923 116.247 101.538 115.257 101.29C114.212 101.016 113.14 100.851 112.068 100.851C111.463 100.851 110.83 100.933 110.253 101.153C108.548 101.813 107.943 103.682 108.906 105.222C109.346 105.909 109.951 106.404 110.638 106.816C111.71 107.476 112.865 108.053 114.02 108.63C115.037 109.153 116.027 109.702 116.962 110.39C119.134 112.012 120.262 114.128 120.179 116.905C120.097 119.159 119.189 120.973 117.43 122.375C116.082 123.447 114.542 124.025 112.865 124.3C109.483 124.822 106.266 124.327 103.214 122.733C102.994 122.623 102.774 122.458 102.527 122.32C102.307 122.183 102.224 122.018 102.362 121.771C102.884 120.726 103.434 119.709 103.956 118.664C104.149 118.279 104.231 118.279 104.644 118.527C105.771 119.214 106.981 119.764 108.301 120.011C109.758 120.286 111.215 120.369 112.673 119.846C113.085 119.709 113.498 119.516 113.828 119.242C115.092 118.197 115.175 116.273 114.048 114.981C113.305 114.128 112.398 113.551 111.408 113.029C110.116 112.341 108.823 111.682 107.558 110.967C106.239 110.225 105.084 109.318 104.231 108.026C102.472 105.387 102.802 101.593 104.974 99.2837C106.321 97.8542 108.026 97.057 109.923 96.7546C112.645 96.3148 115.312 96.6721 117.897 97.6343C118.667 97.9367 118.694 97.9642 118.694 98.7889C118.694 99.2837 118.667 99.806 118.667 100.301Z" fill="white"/>
<path d="M130.435 112.452C130.435 109.016 130.435 105.58 130.435 102.171C130.435 102.006 130.435 101.868 130.435 101.703C130.435 101.044 130.38 100.989 129.72 100.989C127.685 100.989 125.623 100.989 123.588 100.989C122.543 100.989 122.543 100.989 122.543 99.9441C122.543 99.2294 122.543 98.4871 122.543 97.7724C122.543 96.8927 122.571 96.8652 123.478 96.8652C124.523 96.8652 125.596 96.8652 126.64 96.8652C132.112 96.8652 137.584 96.8652 143.056 96.8652C144.1 96.8652 144.1 96.8652 143.798 97.8274C143.523 98.6521 143.276 99.5043 143.001 100.329C142.781 100.961 142.781 100.989 142.121 100.989C140.306 100.989 138.519 100.989 136.704 100.989C136.539 100.989 136.347 100.989 136.182 100.989C135.687 101.016 135.604 101.071 135.577 101.566C135.577 101.786 135.577 102.006 135.577 102.226C135.577 109.126 135.577 116.026 135.577 122.926C135.577 124.053 135.577 124.053 134.449 124.053C133.377 124.053 132.305 124.053 131.205 124.053C130.462 124.053 130.435 123.998 130.435 123.256C130.435 119.655 130.435 116.053 130.435 112.452Z" fill="white"/>
<path d="M114.679 134.636C114.542 134.911 114.597 135.158 114.597 135.406C114.597 137.22 114.597 139.062 114.597 140.876C114.597 141.041 114.597 141.179 114.597 141.343C114.597 142.196 114.157 142.498 113.332 142.223C113.167 142.168 113.057 142.086 113.057 141.893C113.029 141.701 113.029 141.508 113.029 141.288C113.029 138.347 113.029 135.406 113.029 132.464C113.029 132.162 112.892 131.804 113.222 131.612C113.552 131.42 113.964 131.502 114.322 131.584C114.542 131.612 114.624 131.832 114.734 131.997C115.064 132.464 115.367 132.931 115.697 133.426C116.439 134.553 117.181 135.653 117.924 136.78C118.226 137.247 118.254 137.247 118.556 136.753C119.518 135.213 120.508 133.674 121.498 132.134C121.828 131.612 122.433 131.392 123.038 131.612C123.203 131.667 123.285 131.777 123.313 131.942C123.34 132.107 123.34 132.299 123.34 132.464C123.34 135.406 123.34 138.347 123.34 141.288C123.34 142.223 123.038 142.443 122.131 142.251C121.911 142.196 121.773 142.086 121.773 141.866C121.773 141.673 121.773 141.481 121.773 141.261C121.773 139.227 121.773 137.22 121.773 135.186C121.773 134.966 121.828 134.746 121.718 134.553C121.498 134.553 121.498 134.746 121.416 134.856C120.646 136.093 119.876 137.302 119.079 138.539C118.941 138.759 118.831 139.007 118.556 139.089C118.199 139.199 117.896 139.089 117.594 138.704C116.796 137.55 116.026 136.368 115.229 135.213C115.037 135.021 114.954 134.773 114.679 134.636Z" fill="white"/>
<path d="M191.285 137.11C191.202 138.732 190.68 140.271 189.222 141.343C186.583 143.295 181.963 142.498 180.946 138.567C180.561 137.055 180.671 135.598 181.358 134.196C182.403 132.052 184.713 131.199 186.693 131.447C189.58 131.832 191.285 134.168 191.285 137.11ZM182.458 136.917C182.458 137.192 182.431 137.495 182.458 137.769C182.651 139.281 183.531 140.656 185.318 140.986C186.638 141.233 188.48 140.793 189.195 139.062C189.8 137.577 189.827 136.065 189.085 134.608C188.425 133.289 187.243 132.739 185.813 132.821C184.411 132.876 183.366 133.591 182.788 134.883C182.486 135.515 182.376 136.203 182.458 136.917Z" fill="white"/>
<path d="M130.793 136.478C130.93 136.588 131.013 136.643 131.068 136.671C132.057 137.138 132.772 138.155 132.552 139.64C132.387 140.877 131.59 141.619 130.435 142.004C129.94 142.141 129.445 142.251 128.95 142.251C128.153 142.279 127.356 142.251 126.586 142.251C125.953 142.251 125.871 142.141 125.843 141.509C125.843 140.08 125.843 138.65 125.843 137.221C125.843 135.654 125.843 134.114 125.843 132.547C125.843 132.355 125.843 132.162 125.871 131.943C125.898 131.695 126.036 131.53 126.283 131.53C127.521 131.558 128.758 131.365 129.968 131.695C132.03 132.272 132.25 134.362 131.59 135.599C131.397 135.956 131.123 136.203 130.793 136.478ZM127.438 139.117C127.438 139.585 127.438 140.025 127.438 140.492C127.438 140.739 127.576 140.904 127.85 140.904C128.483 140.904 129.115 140.987 129.748 140.794C130.6 140.574 130.985 140.052 130.985 139.172C130.985 138.265 130.545 137.715 129.693 137.523C129.115 137.386 128.51 137.386 127.933 137.413C127.521 137.441 127.466 137.496 127.438 137.935C127.411 138.32 127.438 138.705 127.438 139.117ZM127.438 134.499C127.438 134.884 127.438 135.296 127.438 135.681C127.438 136.011 127.603 136.149 127.933 136.149C128.428 136.149 128.895 136.121 129.363 135.984C130.078 135.764 130.408 135.159 130.325 134.252C130.27 133.509 129.83 133.015 129.088 132.932C128.703 132.877 128.29 132.905 127.905 132.905C127.576 132.905 127.438 133.07 127.438 133.4C127.438 133.757 127.438 134.114 127.438 134.499Z" fill="white"/>
<path d="M170.937 136.863C170.937 135.351 170.937 133.839 170.937 132.327C170.937 131.585 170.992 131.53 171.734 131.558C172.889 131.585 174.072 131.475 175.226 131.668C178.333 132.19 179.846 134.637 179.488 137.605C179.158 140.217 177.426 141.839 174.786 142.169C173.742 142.306 172.669 142.251 171.624 142.279C171.02 142.279 170.937 142.196 170.937 141.592C170.937 139.997 170.937 138.43 170.937 136.863ZM172.532 136.836C172.532 137.633 172.532 138.43 172.532 139.2C172.532 139.585 172.532 139.942 172.532 140.327C172.559 140.822 172.614 140.904 173.109 140.932C173.494 140.932 173.907 140.959 174.292 140.904C176.189 140.767 177.481 139.667 177.756 137.935C177.866 137.248 177.921 136.533 177.784 135.846C177.509 134.527 176.821 133.619 175.556 133.125C174.814 132.85 174.017 132.795 173.219 132.795C172.587 132.795 172.532 132.85 172.532 133.454C172.532 134.582 172.532 135.709 172.532 136.836Z" fill="white"/>
<path d="M192.989 136.891C192.989 135.406 192.989 133.949 192.989 132.465C192.989 132.3 192.989 132.107 193.016 131.942C193.044 131.722 193.154 131.558 193.374 131.558C194.611 131.585 195.849 131.393 197.058 131.722C198.818 132.217 199.643 133.812 199.066 135.544C198.818 136.258 198.351 136.726 197.691 137.083C197.251 137.33 197.251 137.33 197.553 137.743C198.323 138.732 198.873 139.86 199.533 140.932C199.725 141.234 199.89 141.536 200.055 141.839C200.193 142.086 200.11 142.224 199.835 142.224C199.56 142.251 199.313 142.224 199.038 142.224C198.653 142.251 198.378 142.086 198.186 141.729C197.636 140.767 197.058 139.805 196.481 138.842C196.316 138.567 196.151 138.32 195.904 138.128C195.739 137.963 195.519 137.853 195.271 137.798C194.721 137.715 194.556 137.853 194.556 138.43C194.556 139.447 194.556 140.464 194.556 141.454C194.556 141.701 194.639 142.031 194.336 142.169C193.951 142.306 193.566 142.306 193.181 142.169C193.016 142.114 192.989 141.949 192.989 141.784C192.989 141.591 192.989 141.399 192.961 141.179C192.961 141.152 192.961 141.124 192.961 141.124C192.989 139.695 192.989 138.293 192.989 136.891ZM194.584 134.664C194.584 135.131 194.584 135.599 194.584 136.038C194.611 136.451 194.666 136.506 195.106 136.533C195.601 136.561 196.068 136.506 196.536 136.313C197.251 136.011 197.636 135.379 197.608 134.526C197.581 133.757 197.141 133.179 196.426 132.96C196.014 132.822 195.574 132.767 195.134 132.767C194.694 132.767 194.611 132.85 194.611 133.317C194.584 133.784 194.584 134.224 194.584 134.664Z" fill="white"/>
<path d="M142.094 142.252C141.351 142.252 141.324 142.224 141.049 141.509C140.856 140.987 140.664 140.492 140.472 139.97C140.362 139.64 140.142 139.475 139.784 139.475C138.767 139.475 137.749 139.475 136.76 139.475C136.43 139.475 136.237 139.613 136.127 139.942C135.935 140.52 135.715 141.097 135.495 141.674C135.302 142.197 135.247 142.224 134.67 142.252C134.56 142.252 134.45 142.252 134.34 142.252C133.735 142.224 133.68 142.142 133.9 141.564C135.082 138.43 136.292 135.269 137.474 132.135C137.612 131.75 137.804 131.503 138.272 131.503C138.739 131.503 138.932 131.75 139.069 132.108C139.784 134.005 140.527 135.874 141.269 137.771C141.736 138.98 142.204 140.19 142.671 141.399C142.726 141.509 142.781 141.647 142.809 141.757C142.891 142.087 142.836 142.169 142.479 142.224C142.369 142.252 142.231 142.252 142.094 142.252ZM138.382 134.142C138.327 134.142 138.299 134.142 138.244 134.142C137.804 135.324 137.392 136.534 136.952 137.716C136.842 137.991 136.925 138.156 137.254 138.128C137.969 138.128 138.657 138.128 139.372 138.128C139.647 138.128 139.812 138.018 139.702 137.716C139.234 136.534 138.794 135.352 138.382 134.142Z" fill="white"/>
<path d="M168.324 142.251C167.582 142.251 167.554 142.251 167.279 141.537C167.087 141.014 166.867 140.464 166.674 139.942C166.564 139.64 166.372 139.502 166.042 139.502C165.025 139.502 164.007 139.502 163.017 139.502C162.66 139.502 162.44 139.667 162.33 139.997C162.138 140.574 161.918 141.152 161.698 141.729C161.505 142.224 160.57 142.499 160.13 142.196C159.938 142.059 160.02 141.894 160.075 141.729C160.323 141.097 160.543 140.437 160.79 139.805C161.725 137.331 162.66 134.884 163.622 132.41C163.677 132.3 163.732 132.162 163.76 132.052C163.87 131.668 164.117 131.558 164.502 131.558C164.887 131.558 165.107 131.695 165.245 132.052C165.795 133.482 166.344 134.884 166.894 136.286C167.554 138.018 168.242 139.722 168.902 141.454C168.929 141.509 168.957 141.564 168.984 141.646C169.149 142.169 169.094 142.251 168.544 142.279C168.462 142.251 168.407 142.251 168.324 142.251ZM164.612 134.114C164.557 134.114 164.53 134.114 164.475 134.114C164.035 135.324 163.595 136.533 163.182 137.743C163.072 138.045 163.265 138.128 163.54 138.128C164.227 138.128 164.887 138.128 165.575 138.128C165.987 138.128 166.014 138.045 165.877 137.633C165.602 136.863 165.327 136.121 165.052 135.351C164.887 134.939 164.75 134.527 164.612 134.114Z" fill="white"/>
<path d="M110.61 142.251C109.923 142.251 109.896 142.251 109.648 141.592C109.428 141.069 109.236 140.52 109.043 139.997C108.933 139.64 108.686 139.475 108.301 139.475C107.338 139.475 106.376 139.475 105.386 139.475C104.836 139.475 104.781 139.53 104.589 140.08C104.396 140.602 104.204 141.124 104.011 141.619C103.791 142.169 103.736 142.224 103.159 142.251C103.021 142.251 102.884 142.251 102.774 142.251C102.307 142.224 102.252 142.114 102.389 141.647C102.692 140.767 103.049 139.915 103.379 139.063C104.259 136.753 105.139 134.472 106.019 132.163C106.156 131.805 106.266 131.53 106.733 131.53C107.283 131.53 107.393 131.558 107.613 132.135C108.218 133.674 108.823 135.214 109.401 136.753C110.006 138.32 110.61 139.86 111.188 141.427C111.215 141.509 111.27 141.592 111.27 141.674C111.408 142.114 111.353 142.224 110.885 142.279C110.83 142.251 110.72 142.251 110.61 142.251ZM106.926 134.114C106.871 134.114 106.843 134.114 106.788 134.114C106.349 135.324 105.909 136.533 105.496 137.743C105.386 138.045 105.579 138.128 105.854 138.128C106.541 138.128 107.228 138.128 107.888 138.128C108.273 138.128 108.328 138.045 108.218 137.688C107.971 136.973 107.696 136.231 107.448 135.516C107.256 135.076 107.091 134.582 106.926 134.114Z" fill="white"/>
<path d="M204.152 142.388C203.464 142.361 202.639 142.196 201.87 141.756C201.457 141.536 201.43 141.454 201.65 141.041C201.705 140.931 201.787 140.821 201.842 140.711C201.98 140.437 202.199 140.409 202.447 140.547C202.887 140.794 203.327 140.931 203.822 141.014C204.317 141.096 204.784 141.069 205.252 140.931C206.324 140.602 206.681 139.447 205.966 138.567C205.692 138.237 205.362 137.99 205.004 137.798C204.399 137.468 203.794 137.165 203.217 136.78C202.529 136.341 201.98 135.791 201.787 134.966C201.485 133.702 202.062 132.437 203.217 131.86C204.482 131.255 205.774 131.365 207.066 131.86C207.451 131.997 207.644 132.849 207.396 133.179C207.259 133.344 207.121 133.262 206.984 133.207C206.544 133.042 206.104 132.932 205.637 132.849C205.224 132.794 204.812 132.767 204.399 132.877C203.382 133.179 203.024 134.306 203.739 135.131C204.069 135.516 204.482 135.736 204.922 135.956C205.609 136.313 206.296 136.67 206.874 137.165C207.424 137.633 207.809 138.21 207.946 138.925C208.166 140.244 207.561 141.399 206.379 141.976C205.856 142.223 205.059 142.388 204.152 142.388Z" fill="white"/>
<path d="M147.07 142.389C146.245 142.361 145.448 142.196 144.678 141.839C144.458 141.729 144.183 141.646 144.21 141.344C144.265 140.987 144.43 140.657 144.733 140.464C144.87 140.354 145.035 140.492 145.173 140.547C145.558 140.739 145.998 140.877 146.41 140.959C146.933 141.069 147.455 141.042 147.977 140.877C148.912 140.574 149.297 139.64 148.802 138.76C148.637 138.457 148.362 138.21 148.087 138.018C147.537 137.633 146.905 137.358 146.328 137C146.025 136.808 145.723 136.616 145.448 136.396C143.853 135.104 144.155 132.602 146.025 131.75C147.262 131.2 148.527 131.338 149.737 131.805C150.095 131.942 150.287 132.822 150.04 133.124C149.902 133.289 149.765 133.207 149.627 133.152C149.215 132.987 148.802 132.877 148.362 132.822C147.895 132.74 147.455 132.74 146.988 132.904C146.025 133.234 145.723 134.224 146.383 135.021C146.713 135.434 147.18 135.708 147.647 135.956C148.197 136.258 148.747 136.533 149.242 136.891C149.545 137.083 149.792 137.33 150.012 137.605C151.249 139.09 150.727 141.234 148.967 142.031C148.362 142.279 147.73 142.389 147.07 142.389Z" fill="white"/>
<path d="M155.126 142.388C154.246 142.361 153.422 142.196 152.624 141.784C152.432 141.674 152.184 141.564 152.294 141.289C152.404 140.959 152.514 140.602 152.844 140.437C153.009 140.354 153.174 140.519 153.339 140.602C153.944 140.877 154.576 141.041 155.236 141.041C155.539 141.041 155.814 140.986 156.061 140.877C156.969 140.547 157.299 139.639 156.831 138.787C156.639 138.457 156.391 138.183 156.061 137.99C155.566 137.688 155.044 137.385 154.521 137.11C154.109 136.89 153.724 136.643 153.394 136.313C152.597 135.571 152.267 134.691 152.514 133.647C152.789 132.575 153.504 131.915 154.549 131.585C155.594 131.255 156.639 131.392 157.656 131.75C158.096 131.915 158.343 132.712 158.068 133.069C157.958 133.234 157.793 133.179 157.656 133.124C157.244 132.959 156.831 132.849 156.391 132.794C155.924 132.712 155.484 132.712 155.016 132.877C154.109 133.179 153.807 134.004 154.274 134.829C154.466 135.131 154.714 135.379 155.016 135.571C155.539 135.873 156.034 136.176 156.556 136.451C156.969 136.671 157.326 136.945 157.683 137.248C158.536 137.99 158.783 138.925 158.618 139.997C158.481 140.959 157.876 141.564 157.051 141.976C156.474 142.279 155.814 142.361 155.126 142.388Z" fill="white"/>
</svg>
