<svg width="276" height="136" viewBox="0 0 276 136" fill="none" xmlns="http://www.w3.org/2000/svg">
<rect width="276" height="136" fill="white"/>
<path d="M37 28C104.226 28 171.451 28 238.677 28C238.941 28 239 28.059 239 28.3242C239 55.1179 239 81.8821 239 108.676C239 108.941 238.941 109 238.677 109C171.569 109 104.431 109 37.3231 109C37.0587 109 37 108.941 37 108.676C37 81.7937 37 54.8821 37 28ZM220.204 62.7227C220.204 63.4301 220.204 64.167 220.204 64.9039C220.204 70.7991 220.204 76.6649 220.204 82.56C220.204 82.8253 220.263 82.9138 220.527 82.9138C222.113 82.9138 223.669 82.9138 225.255 82.9138C225.52 82.9138 225.549 82.8253 225.549 82.5895C225.549 73.0983 225.549 63.607 225.549 54.1157C225.549 53.8799 225.49 53.7915 225.255 53.7915C223.816 53.7915 222.377 53.7915 220.967 53.7915C220.791 53.7915 220.674 53.8504 220.586 54.0273C220.38 54.3515 220.174 54.6758 219.969 54.9705C217.149 59.4214 214.154 63.7838 211.511 68.3231C211.364 68.559 211.305 68.5 211.188 68.3231C210.541 67.2031 209.807 66.1124 209.073 65.0218C206.547 61.3668 204.022 57.7118 201.496 54.0568C201.378 53.8799 201.261 53.7915 201.055 53.7915C199.646 53.7915 198.236 53.7915 196.826 53.7915C196.532 53.7915 196.503 53.8799 196.503 54.1452C196.503 55 196.503 55.8548 196.503 56.6801C196.503 65.2871 196.503 73.8646 196.503 82.4716C196.503 82.8548 196.621 82.9138 196.944 82.9138C198.412 82.8843 199.91 82.8843 201.378 82.9138C201.731 82.9138 201.819 82.8253 201.819 82.4716C201.819 76.7533 201.819 71.0644 201.819 65.3461C201.819 64.6976 201.789 64.0197 201.76 63.3712C201.76 63.1648 201.76 62.929 201.76 62.7227C202.377 63.7249 203.082 64.6386 203.728 65.5819C205.784 68.559 207.869 71.536 209.925 74.5131C210.072 74.7194 210.218 74.8079 210.483 74.8079C211.07 74.7784 211.687 74.7784 212.274 74.8079C212.509 74.8079 212.627 74.7489 212.744 74.5426C213.831 72.833 214.917 71.1528 216.004 69.4432C217.384 67.1736 218.882 64.9924 220.204 62.7227ZM89.8936 68.3231C89.8936 69.0895 90.0111 69.7969 90.1873 70.5044C90.7159 72.5677 91.6851 74.4542 92.7717 76.2817C94.9744 79.9367 97.647 83.238 100.466 86.4214C103.638 90.0175 107.016 93.4367 110.511 96.738C112.449 98.5655 114.387 100.364 116.384 102.132C116.561 102.279 116.678 102.338 116.825 102.103C117.001 101.837 117.207 101.602 117.442 101.366C117.589 101.218 117.589 101.13 117.442 100.953C114.534 97.9465 111.744 94.8221 109.101 91.5797C106.164 88.0131 103.345 84.2991 100.907 80.3493C99.3504 77.8439 97.97 75.25 97.0302 72.4498C96.3254 70.3865 96.0611 68.2642 96.5016 66.083C96.9128 64.0491 97.6764 62.1037 98.5868 60.2467C100.261 56.857 102.375 53.7031 104.637 50.6965C108.425 45.6561 112.655 41.0284 117.089 36.5775C117.295 36.3712 117.677 36.1648 117.677 35.8996C117.677 35.6638 117.354 35.3985 117.148 35.1627C116.825 34.7795 116.825 34.7795 116.443 35.1037C112.919 38.0513 109.453 41.0873 106.135 44.2707C102.581 47.69 99.1742 51.286 96.1492 55.1769C94.2108 57.6528 92.4487 60.2467 91.1858 63.1648C90.4516 64.845 89.9229 66.5251 89.8936 68.3231ZM64.9006 68.7358C64.9006 67.4683 64.5481 65.9945 63.8139 64.3144C62.6098 61.4847 60.9064 58.9793 59.0561 56.5328C55.943 52.4061 52.4481 48.6037 48.8063 44.9192C46.6918 42.7675 44.5185 40.7041 42.2864 38.6408C40.9648 37.4323 39.5845 36.2238 38.2629 35.0153C38.0867 34.8679 37.9985 34.8679 37.8811 35.0448C37.7049 35.2806 37.4993 35.5459 37.2937 35.7522C37.1175 35.9585 37.1468 36.0764 37.3231 36.2828C39.1439 38.1397 40.9061 40.0557 42.6095 42.0011C46.3393 46.2456 49.893 50.6376 52.9767 55.3832C54.6508 57.9771 56.2073 60.6299 57.3527 63.5186C57.9401 65.0513 58.41 66.6135 58.5275 68.2642C58.645 70.2391 58.1751 72.1255 57.4996 73.9531C56.3835 77.048 54.7389 79.8777 52.918 82.5895C49.335 87.9836 45.1352 92.8766 40.7299 97.5633C39.6138 98.7424 38.4978 99.8919 37.3524 101.041C37.1762 101.218 37.1762 101.307 37.3231 101.484C37.4993 101.69 37.6755 101.896 37.8517 102.103C37.9985 102.338 38.116 102.309 38.3216 102.132C41.7871 99.2435 45.1646 96.2664 48.3952 93.1419C51.9782 89.7227 55.385 86.1266 58.4394 82.2063C60.4071 79.6714 62.228 77.0186 63.5496 74.071C64.3132 72.3908 64.8712 70.6223 64.9006 68.7358ZM77.588 55.9727C78.0285 56.0022 78.7334 55.8548 79.4676 55.6779C81.3178 55.2063 83.0212 54.3515 84.6659 53.4083C88.4839 51.1681 91.8907 48.3679 95.18 45.4203C98.0582 42.8559 100.789 40.2031 103.433 37.4323C105.988 34.7795 108.484 32.0677 110.922 29.2675C111.069 29.1201 111.098 29.0317 110.892 28.8843C110.628 28.6779 110.364 28.4716 110.129 28.2653C109.982 28.1179 109.864 28.1179 109.718 28.2653C106.898 31.036 103.961 33.6889 100.907 36.2533C97.1184 39.4367 93.1829 42.4727 88.9538 45.0961C86.3987 46.6878 83.7555 48.1026 80.8479 48.9869C79.3795 49.429 77.911 49.6943 76.3838 49.5469C74.5042 49.3701 72.7127 48.81 70.9799 48.0731C67.5144 46.5993 64.3425 44.595 61.3175 42.3843C55.7081 38.3166 50.5685 33.6889 45.6639 28.8253C45.4289 28.5895 45.2233 28.1769 44.9296 28.2063C44.6653 28.2063 44.4304 28.5895 44.166 28.7664C43.843 28.9727 43.8723 29.1201 44.1073 29.3854C47.2792 33.1878 50.5391 36.9017 54.0047 40.4389C57.294 43.7991 60.7008 47.012 64.4306 49.9007C66.8683 51.7576 69.394 53.4672 72.1841 54.7052C73.7994 55.4127 75.4734 55.9432 77.588 55.9727ZM77.7935 81.0568C76.6775 81.0568 75.679 81.2631 74.7098 81.5873C72.1547 82.4127 69.8933 83.798 67.72 85.3013C63.6083 88.131 59.8785 91.4323 56.2661 94.9105C53.8284 97.2686 51.4495 99.6856 49.1294 102.162C47.426 103.989 45.7226 105.876 44.0779 107.762C43.9311 107.939 43.9311 108.027 44.1073 108.175C44.3716 108.352 44.6066 108.558 44.8415 108.794C44.9884 108.941 45.1058 108.941 45.2527 108.794C47.2792 106.848 49.335 104.932 51.4495 103.075C55.5025 99.5087 59.6729 96.1485 64.1957 93.1714C66.8683 91.4028 69.629 89.8111 72.5952 88.6321C75.5321 87.4531 78.4984 87.1583 81.5528 88.131C84.519 89.0742 87.2504 90.4891 89.8642 92.1397C94.5632 95.0873 98.8218 98.5655 102.933 102.221C105.283 104.313 107.574 106.495 109.776 108.735C109.953 108.912 110.07 108.971 110.276 108.764C110.423 108.587 110.628 108.44 110.834 108.322C111.127 108.145 111.127 107.968 110.892 107.733C110.863 107.703 110.834 107.674 110.804 107.615C107.045 103.075 103.139 98.6834 98.9392 94.5568C96.4135 92.0513 93.7703 89.6638 90.9802 87.4825C88.5132 85.5666 85.9581 83.7686 83.08 82.4716C81.3766 81.6463 79.6144 81.0862 77.7935 81.0568ZM174.535 68.2937C174.535 73.0393 174.535 77.7849 174.535 82.5011C174.535 82.7664 174.564 82.8843 174.887 82.8843C180.027 82.8843 185.167 82.8843 190.306 82.8843C190.541 82.8843 190.6 82.8253 190.6 82.5895C190.6 81.3515 190.571 80.1135 190.6 78.8755C190.6 78.5808 190.512 78.5218 190.218 78.5218C186.87 78.5218 183.522 78.5218 180.174 78.5218C179.88 78.5218 179.792 78.4629 179.792 78.1681C179.792 75.6332 179.792 73.1277 179.792 70.5928C179.792 70.2686 179.91 70.2096 180.203 70.2096C183.023 70.2096 185.871 70.2096 188.691 70.2096C189.014 70.2096 189.102 70.1212 189.102 69.7969C189.073 68.6179 189.073 67.4094 189.102 66.2304C189.102 65.9061 189.014 65.8472 188.72 65.8472C185.871 65.8472 183.023 65.8472 180.145 65.8472C179.851 65.8472 179.792 65.7587 179.792 65.4935C179.792 63.1943 179.792 60.8657 179.792 58.5666C179.792 58.2129 179.851 58.1245 180.233 58.1245C183.081 58.1539 185.93 58.1245 188.75 58.1539C189.043 58.1539 189.161 58.0655 189.249 57.8002C189.631 56.5917 190.042 55.3832 190.424 54.1747C190.541 53.7915 190.541 53.7915 190.13 53.7915C185.079 53.7915 179.998 53.7915 174.946 53.7915C174.623 53.7915 174.506 53.8799 174.506 54.2042C174.535 58.8908 174.535 63.5775 174.535 68.2937ZM143.492 59.8341C143.492 58.3603 143.463 56.9454 143.492 55.5011C143.492 55.059 143.375 54.8526 142.963 54.7052C140.232 53.6146 137.442 53.2609 134.534 53.6146C132.42 53.8799 130.57 54.7052 129.042 56.238C126.341 59.0087 126.252 63.7249 128.866 66.5841C129.806 67.6157 130.951 68.3821 132.185 69.0895C133.624 69.9148 135.151 70.5633 136.561 71.4181C137.383 71.9192 138.147 72.4498 138.734 73.1867C139.88 74.631 139.938 77.2249 137.471 78.2566C136.502 78.6692 135.474 78.7871 134.417 78.7576C132.214 78.6987 130.217 78.0207 128.367 76.8122C128.161 76.6649 128.073 76.6943 127.956 76.9301C127.368 78.1092 126.781 79.2587 126.164 80.4083C126.017 80.6736 126.076 80.7915 126.311 80.9389C126.546 81.0568 126.781 81.2336 127.045 81.381C129.101 82.5011 131.304 83.0611 133.624 83.238C135.885 83.3854 138.059 83.1201 140.173 82.2358C143.933 80.6146 145.783 77.048 144.931 73.0688C144.491 70.976 143.257 69.4432 141.583 68.2052C140.115 67.1441 138.499 66.3777 136.913 65.5524C135.856 65.0218 134.799 64.4618 133.888 63.6659C133.154 63.0175 132.625 62.2511 132.596 61.2489C132.537 59.5983 133.418 58.4782 135.092 58.1245C136.649 57.7707 138.176 58.0066 139.703 58.3603C141.025 58.714 142.259 59.2151 143.492 59.8341ZM156.209 70.4749C156.209 74.4836 156.209 78.4629 156.209 82.4716C156.209 82.7959 156.297 82.8843 156.62 82.8843C158.118 82.8548 159.616 82.8548 161.084 82.8843C161.436 82.8843 161.525 82.8253 161.525 82.4421C161.525 74.4836 161.525 66.5251 161.525 58.5666C161.525 58.0655 161.466 58.1245 161.994 58.1245C164.315 58.1245 166.635 58.1245 168.926 58.1245C169.219 58.1245 169.337 58.036 169.395 57.7707C169.777 56.5328 170.159 55.2948 170.57 54.0568C170.658 53.7915 170.6 53.7325 170.335 53.7325C162.934 53.7325 155.504 53.7325 148.103 53.7325C147.809 53.7325 147.78 53.821 147.78 54.0862C147.78 55.2948 147.809 56.5033 147.78 57.7413C147.78 58.036 147.839 58.1245 148.162 58.1245C150.717 58.1245 153.272 58.1245 155.798 58.095C156.121 58.095 156.209 58.1834 156.209 58.5076C156.209 62.5164 156.209 66.4956 156.209 70.4749ZM143.11 97.1507C141.935 95.3232 140.702 93.5841 139.586 91.786C139.175 91.1376 138.734 90.8133 137.971 90.9312C137.677 90.9607 137.589 91.0197 137.589 91.3439C137.589 94.881 137.589 98.4181 137.589 101.955C137.589 102.014 137.589 102.073 137.589 102.132C137.589 102.279 137.648 102.338 137.794 102.338C138.147 102.338 138.47 102.309 138.822 102.338C139.057 102.338 139.145 102.279 139.145 102.014C139.145 99.4203 139.145 96.8264 139.145 94.2325C139.145 94.0557 139.087 93.9083 139.175 93.702C139.233 93.7609 139.234 93.7904 139.263 93.7904C140.379 95.441 141.466 97.0917 142.582 98.7424C142.846 99.1255 143.463 99.0961 143.698 98.7129C144.344 97.6812 144.99 96.6496 145.636 95.5884C146.047 94.94 146.458 94.2915 146.899 93.5546C146.899 93.7609 146.899 93.9083 146.899 94.0262C146.899 96.3843 146.899 98.7129 146.899 101.071C146.899 101.454 146.723 101.955 146.958 102.191C147.192 102.427 147.721 102.221 148.103 102.279C148.397 102.309 148.455 102.191 148.455 101.926C148.455 99.8035 148.455 97.6517 148.455 95.5295C148.455 94.1146 148.455 92.6998 148.455 91.2849C148.455 90.9607 148.367 90.8723 148.074 90.9017C147.809 90.9312 147.545 90.9312 147.31 90.9017C147.104 90.9017 146.987 90.9607 146.899 91.1376C146.517 91.7566 146.106 92.405 145.724 93.024C144.814 94.4094 143.962 95.7358 143.11 97.1507ZM215.123 90.8723C213.39 90.9018 211.716 91.7566 210.659 93.6725C209.954 94.94 209.807 96.2959 210.013 97.7107C210.16 98.8897 210.6 99.9214 211.423 100.806C212.685 102.132 214.242 102.604 216.033 102.456C218.148 102.279 219.705 101.218 220.586 99.2435C221.026 98.2707 221.114 97.2096 221.056 96.1485C220.85 93.0535 218.589 90.9018 215.123 90.8723ZM199.499 96.6201C199.499 98.4181 199.499 100.187 199.499 101.985C199.499 102.25 199.557 102.338 199.822 102.338C200.997 102.309 202.171 102.397 203.346 102.279C204.756 102.132 206.019 101.69 207.047 100.658C208.016 99.6856 208.427 98.4771 208.544 97.1212C208.779 93.9378 207.135 91.3734 203.493 91.0197C202.289 90.9018 201.114 90.9902 199.91 90.9607C199.616 90.9607 199.528 91.0197 199.528 91.3144C199.499 93.083 199.499 94.8515 199.499 96.6201ZM156.268 96.2959C157.413 95.4705 157.853 94.5273 157.648 93.3188C157.413 92.0808 156.414 91.1965 155.034 91.0197C153.889 90.8723 152.714 90.9902 151.539 90.9607C151.304 90.9607 151.334 91.1081 151.334 91.2555C151.334 94.8515 151.334 98.4181 151.334 102.014C151.334 102.25 151.392 102.338 151.657 102.338C152.626 102.338 153.595 102.338 154.535 102.338C155.269 102.338 155.974 102.221 156.62 101.926C157.824 101.366 158.5 100.187 158.382 98.8603C158.265 97.5044 157.56 96.7085 156.268 96.2959ZM227.399 97.0917C227.429 97.0328 227.517 97.0328 227.605 97.0033C229.161 96.3548 229.866 94.9694 229.484 93.3188C229.191 92.0513 228.045 91.167 226.548 91.0197C225.49 90.9312 224.462 90.9902 223.405 90.9607C223.141 90.9607 223.053 91.0197 223.053 91.3144C223.053 93.5546 223.053 95.8242 223.053 98.0644C223.053 99.3908 223.053 100.717 223.053 102.014C223.053 102.25 223.111 102.338 223.376 102.338C223.669 102.309 223.934 102.309 224.227 102.338C224.55 102.368 224.609 102.25 224.609 101.955C224.58 100.629 224.609 99.3024 224.609 97.976C224.609 97.8581 224.521 97.6517 224.756 97.6517C225.373 97.6223 226.019 97.5338 226.401 98.2118C226.548 98.4771 226.753 98.7129 226.9 98.9782C227.34 99.6856 227.752 100.422 228.163 101.13C228.398 101.543 228.574 102.103 228.926 102.279C229.308 102.486 229.866 102.338 230.336 102.338C230.366 102.338 230.395 102.338 230.395 102.338C230.6 102.338 230.659 102.309 230.542 102.103C229.514 100.422 228.662 98.6539 227.399 97.0917ZM135.915 102.338C135.856 102.191 135.827 102.103 135.797 102.014C134.446 98.536 133.095 95.0284 131.744 91.5502C131.509 90.9607 131.509 90.9607 130.893 90.9312C130.511 90.9017 130.364 91.0197 130.217 91.4028C129.277 93.9673 128.279 96.5317 127.31 99.0961C126.928 100.069 126.575 101.071 126.194 102.044C126.076 102.338 126.135 102.368 126.429 102.368C126.781 102.338 127.104 102.338 127.457 102.368C127.662 102.368 127.75 102.309 127.809 102.103C128.103 101.277 128.396 100.481 128.69 99.6561C128.778 99.4498 128.866 99.3614 129.101 99.3614C130.335 99.3614 131.598 99.3614 132.831 99.3614C133.066 99.3614 133.183 99.4498 133.272 99.6561C133.565 100.452 133.859 101.277 134.182 102.073C134.241 102.221 134.27 102.368 134.476 102.368C134.916 102.338 135.386 102.338 135.915 102.338ZM168.632 102.338C168.749 102.338 168.896 102.338 169.014 102.338C169.484 102.338 169.484 102.338 169.307 101.926C167.986 98.5066 166.664 95.0873 165.343 91.6681C165.078 90.9607 165.078 90.9902 164.315 90.9607C164.05 90.9607 163.933 91.0491 163.845 91.2849C162.993 93.5546 162.141 95.8242 161.26 98.0939C160.761 99.4203 160.262 100.747 159.762 102.044C159.674 102.279 159.704 102.368 159.968 102.368C160.32 102.338 160.644 102.338 160.996 102.368C161.202 102.368 161.29 102.309 161.378 102.103C161.671 101.277 161.965 100.481 162.259 99.6561C162.318 99.4498 162.435 99.3908 162.641 99.3908C163.903 99.3908 165.166 99.3908 166.459 99.3908C166.694 99.3908 166.752 99.4793 166.84 99.6561C167.075 100.305 167.31 100.953 167.575 101.602C167.839 102.338 167.839 102.338 168.632 102.338ZM197.472 102.338C197.413 102.191 197.384 102.073 197.325 101.955C196.004 98.536 194.682 95.0873 193.361 91.6681C193.096 90.9607 193.096 90.9902 192.333 90.9607C192.068 90.9607 191.951 91.0491 191.863 91.2849C190.629 94.5273 189.396 97.7991 188.162 101.041C188.015 101.454 187.839 101.896 187.663 102.338C188.133 102.338 188.544 102.309 188.955 102.338C189.19 102.338 189.337 102.279 189.396 102.044C189.66 101.218 189.983 100.422 190.277 99.6266C190.336 99.4203 190.453 99.3614 190.659 99.3614C191.921 99.3614 193.184 99.3614 194.418 99.3614C194.653 99.3614 194.741 99.4203 194.829 99.6561C195.123 100.481 195.446 101.277 195.739 102.103C195.798 102.221 195.798 102.368 196.004 102.368C196.503 102.338 196.973 102.338 197.472 102.338ZM238.383 92.8472C238.383 92.4345 238.383 92.0808 238.383 91.7271C238.383 91.4913 238.325 91.4028 238.119 91.3144C237.179 90.9607 236.239 90.8133 235.241 90.9312C234.36 91.0197 233.567 91.3439 233.009 92.0513C232.069 93.2304 232.186 94.9694 233.302 95.9716C233.86 96.5022 234.536 96.8264 235.182 97.1801C235.769 97.5044 236.357 97.7991 236.797 98.2707C237.267 98.7718 237.414 99.3614 237.208 100.01C237.032 100.629 236.533 100.924 235.946 101.071C234.859 101.307 233.86 101.1 232.891 100.54C232.715 100.422 232.598 100.422 232.509 100.629C232.392 100.865 232.275 101.1 232.157 101.307C231.981 101.543 232.098 101.66 232.304 101.778C233.684 102.515 235.153 102.692 236.68 102.279C237.767 101.955 238.589 101.277 238.824 100.128C239.088 98.9192 238.765 97.8581 237.825 97.0328C237.297 96.5611 236.65 96.2369 236.034 95.9127C235.505 95.6179 234.976 95.3526 234.536 94.94C234.066 94.4978 233.86 93.9378 234.007 93.3188C234.154 92.6998 234.624 92.405 235.211 92.2871C235.476 92.2282 235.74 92.2282 236.004 92.2282C236.856 92.2282 237.59 92.464 238.383 92.8472ZM183.199 90.8723C182.935 90.8723 182.612 90.8723 182.288 90.9607C181.055 91.226 180.145 91.9039 179.851 93.2009C179.557 94.4683 179.998 95.5 181.026 96.2664C181.525 96.6496 182.083 96.9148 182.612 97.2391C183.17 97.5633 183.757 97.8286 184.197 98.3297C185.137 99.3614 184.697 100.806 183.375 101.1C182.523 101.277 181.701 101.189 180.879 100.865C180.585 100.747 180.291 100.393 180.056 100.54C179.821 100.688 179.733 101.1 179.557 101.366C179.44 101.572 179.44 101.69 179.675 101.808C181.084 102.574 182.582 102.781 184.139 102.309C185.255 101.985 186.048 101.277 186.253 100.098C186.488 98.8603 186.106 97.7991 185.108 97.0033C184.52 96.5317 183.816 96.178 183.17 95.8242C182.7 95.559 182.259 95.3232 181.877 94.94C181.554 94.5863 181.349 94.1736 181.407 93.702C181.466 92.9061 181.995 92.405 182.876 92.3166C183.786 92.2282 184.667 92.405 185.519 92.7882C185.725 92.8766 185.813 92.8766 185.783 92.6114C185.754 92.3461 185.754 92.0808 185.783 91.786C185.813 91.5502 185.725 91.4323 185.49 91.3439C184.755 91.0197 184.021 90.8723 183.199 90.8723ZM174.623 90.8723C174.3 90.8723 173.977 90.8723 173.654 90.9607C172.45 91.226 171.539 91.845 171.216 93.1124C170.893 94.3799 171.304 95.441 172.332 96.2369C173.008 96.7675 173.771 97.0917 174.506 97.5338C174.946 97.7697 175.357 98.0644 175.651 98.4476C176.385 99.3614 176.033 100.629 174.917 101.012C174.682 101.1 174.418 101.13 174.153 101.159C173.243 101.218 172.391 101.012 171.628 100.54C171.451 100.422 171.334 100.452 171.246 100.629C171.128 100.894 171.011 101.13 170.835 101.366C170.717 101.543 170.746 101.631 170.923 101.719C172.479 102.574 174.094 102.781 175.739 102.132C177.795 101.336 178.265 98.8013 176.738 97.2096C176.327 96.797 175.827 96.4727 175.328 96.178C174.682 95.7948 173.977 95.5 173.39 95.0284C172.773 94.5273 172.538 93.8788 172.744 93.2304C172.92 92.6408 173.478 92.2871 174.241 92.2282C175.093 92.1692 175.915 92.3166 176.708 92.6998C177.031 92.8472 177.09 92.7587 177.061 92.464C177.031 92.2282 177.031 91.9629 177.061 91.7271C177.09 91.4913 176.973 91.4028 176.767 91.3144C176.121 91.0197 175.387 90.8723 174.623 90.8723Z" fill="#FEFEFE"/>
<path d="M220.204 62.7227C218.912 65.0219 217.384 67.2031 215.975 69.4433C214.888 71.1529 213.801 72.833 212.715 74.5426C212.597 74.7489 212.45 74.8079 212.245 74.8079C211.657 74.7784 211.041 74.7784 210.453 74.8079C210.189 74.8079 210.042 74.7195 209.895 74.5131C207.839 71.536 205.784 68.559 203.698 65.5819C203.052 64.6387 202.348 63.7249 201.731 62.7227C201.731 62.9291 201.731 63.1649 201.731 63.3712C201.731 64.0197 201.789 64.6976 201.789 65.3461C201.789 71.0644 201.789 76.7533 201.789 82.4716C201.789 82.8253 201.701 82.9138 201.349 82.9138C199.88 82.8843 198.383 82.8843 196.914 82.9138C196.562 82.9138 196.474 82.8253 196.474 82.4716C196.474 73.8646 196.474 65.2871 196.474 56.6802C196.474 55.8253 196.474 54.9705 196.474 54.1452C196.474 53.9094 196.532 53.7915 196.797 53.7915C198.206 53.7915 199.616 53.7915 201.026 53.7915C201.261 53.7915 201.349 53.8799 201.466 54.0568C203.992 57.7118 206.518 61.3668 209.044 65.0219C209.778 66.083 210.512 67.1736 211.158 68.3232C211.276 68.5295 211.334 68.559 211.481 68.3232C214.124 63.7544 217.12 59.4214 219.94 54.9705C220.145 54.6463 220.351 54.3515 220.556 54.0273C220.644 53.8799 220.762 53.7915 220.938 53.7915C222.377 53.7915 223.816 53.7915 225.226 53.7915C225.49 53.7915 225.52 53.8799 225.52 54.1157C225.52 63.607 225.52 73.0983 225.52 82.5895C225.52 82.8253 225.49 82.9138 225.226 82.9138C223.64 82.9138 222.083 82.9138 220.498 82.9138C220.233 82.9138 220.174 82.8253 220.174 82.5601C220.174 76.6649 220.174 70.7991 220.174 64.9039C220.204 64.167 220.204 63.4302 220.204 62.7227Z" fill="#747678"/>
<path d="M89.8936 68.3231C89.923 66.5251 90.4516 64.8155 91.1565 63.1648C92.4193 60.2762 94.2108 57.6823 96.1198 55.1768C99.1448 51.2565 102.552 47.6899 106.105 44.2707C109.424 41.0873 112.86 38.0513 116.414 35.1037C116.796 34.7795 116.796 34.7795 117.119 35.1627C117.295 35.3985 117.618 35.6343 117.647 35.8996C117.647 36.1648 117.265 36.3417 117.06 36.5775C112.625 41.0284 108.396 45.6856 104.607 50.6965C102.317 53.703 100.231 56.857 98.5574 60.2467C97.647 62.1037 96.8834 64.0196 96.4722 66.083C96.0317 68.2642 96.296 70.357 97.0009 72.4498C97.9407 75.25 99.321 77.8439 100.878 80.3493C103.315 84.2991 106.105 88.0131 109.072 91.5797C111.744 94.822 114.534 97.9465 117.412 100.953C117.559 101.13 117.559 101.218 117.412 101.366C117.207 101.602 117.001 101.837 116.796 102.103C116.649 102.309 116.531 102.279 116.355 102.132C114.358 100.364 112.42 98.5655 110.481 96.738C106.986 93.4367 103.638 90.0175 100.437 86.4214C97.6176 83.238 94.9451 79.9367 92.7424 76.2816C91.6557 74.4541 90.6865 72.5971 90.1579 70.5044C90.0111 69.8264 89.8936 69.0895 89.8936 68.3231Z" fill="#FDCA01"/>
<path d="M64.9005 68.7358C64.8712 70.6223 64.3132 72.3614 63.5789 74.071C62.2573 77.0186 60.4365 79.6714 58.4687 82.2064C55.4144 86.1267 52.0076 89.6933 48.4245 93.1419C45.1939 96.2664 41.8165 99.2435 38.351 102.132C38.1454 102.309 38.0279 102.309 37.8811 102.103C37.7342 101.867 37.558 101.661 37.3524 101.484C37.1762 101.307 37.2056 101.218 37.3818 101.042C38.4684 99.8919 39.6138 98.7424 40.7299 97.5633C45.1646 92.8767 49.335 87.9836 52.918 82.5895C54.7389 79.8483 56.3542 77.0481 57.4996 73.9531C58.175 72.1256 58.645 70.2391 58.5275 68.2642C58.4394 66.6136 57.9695 65.0513 57.3527 63.5186C56.2367 60.6299 54.6801 57.9771 52.9767 55.3832C49.8636 50.6376 46.3393 46.2457 42.6095 42.0011C40.9061 40.0557 39.1439 38.1398 37.3231 36.2828C37.1175 36.0764 37.0881 35.9585 37.2937 35.7522C37.4993 35.5459 37.7048 35.2806 37.8811 35.0448C37.9985 34.8679 38.0866 34.8679 38.2629 35.0153C39.5845 36.2238 40.9648 37.4323 42.2864 38.6409C44.5185 40.6747 46.6918 42.7675 48.8357 44.9192C52.4775 48.6037 55.9724 52.3767 59.0855 56.5328C60.9064 58.9793 62.6098 61.4847 63.8433 64.3144C64.5481 65.9946 64.9005 67.4684 64.9005 68.7358Z" fill="#CE2553"/>
<path d="M77.588 55.9727C75.4734 55.9433 73.7994 55.4127 72.1841 54.7053C69.3646 53.4673 66.8389 51.7577 64.4306 49.9007C60.7008 47.0415 57.294 43.7992 54.0047 40.4389C50.5391 36.9018 47.2791 33.1878 44.1073 29.3854C43.8723 29.1201 43.843 28.9727 44.166 28.7664C44.4304 28.5896 44.6653 28.2064 44.9296 28.2064C45.1939 28.2064 45.3995 28.619 45.6345 28.8254C50.5391 33.7184 55.6787 38.3461 61.2882 42.3843C64.3425 44.595 67.485 46.5994 70.9506 48.0732C72.6833 48.8101 74.4748 49.3701 76.3545 49.547C77.8816 49.6944 79.3795 49.4291 80.8185 48.9869C83.7261 48.1027 86.3693 46.6878 88.9244 45.0961C93.1535 42.5022 97.089 39.4662 100.878 36.2533C103.961 33.6889 106.898 31.0361 109.747 28.2653C109.894 28.1179 110.011 28.1179 110.158 28.2653C110.393 28.4717 110.657 28.7075 110.922 28.8843C111.098 29.0317 111.069 29.1201 110.951 29.2675C108.514 32.0382 106.017 34.7795 103.433 37.4324C100.76 40.2031 98.0288 42.8854 95.18 45.4203C91.8907 48.3679 88.4839 51.1387 84.6659 53.4083C83.0212 54.381 81.3178 55.2064 79.4676 55.678C78.7334 55.8548 78.0285 55.9727 77.588 55.9727Z" fill="#69BE29"/>
<path d="M77.7935 81.0569C79.6144 81.0864 81.3766 81.6759 83.1093 82.4423C85.9581 83.7392 88.5426 85.5372 91.0096 87.4532C93.7996 89.6344 96.4429 92.0219 98.9686 94.5274C103.168 98.654 107.074 103.046 110.834 107.585C110.863 107.615 110.892 107.674 110.922 107.703C111.186 107.909 111.157 108.116 110.863 108.293C110.657 108.411 110.481 108.558 110.305 108.735C110.099 108.941 109.982 108.882 109.806 108.705C107.603 106.465 105.312 104.284 102.963 102.191C98.8511 98.5067 94.5632 95.0285 89.8936 92.1104C87.2797 90.4597 84.5484 89.0449 81.5821 88.1016C78.5278 87.1289 75.5615 87.4532 72.6246 88.6027C69.6583 89.7818 66.8976 91.3735 64.2251 93.142C59.6729 96.0896 55.5025 99.4794 51.4495 103.016C49.335 104.873 47.2791 106.789 45.2527 108.735C45.0765 108.912 44.9884 108.882 44.8415 108.735C44.6066 108.528 44.3716 108.322 44.1073 108.116C43.9311 107.968 43.9017 107.88 44.0779 107.703C45.752 105.817 47.426 103.96 49.1294 102.103C51.4495 99.6267 53.7991 97.2097 56.2661 94.8516C59.8784 91.403 63.6083 88.1016 67.72 85.2425C69.9226 83.7392 72.1841 82.3538 74.7098 81.5285C75.679 81.2632 76.6775 81.0569 77.7935 81.0569Z" fill="#01AFD7"/>
<path d="M174.535 68.2936C174.535 63.5775 174.535 58.8908 174.535 54.1746C174.535 53.8209 174.623 53.762 174.976 53.762C180.027 53.762 185.108 53.762 190.159 53.762C190.6 53.762 190.6 53.762 190.453 54.1451C190.071 55.3537 189.66 56.5622 189.278 57.7707C189.19 58.036 189.073 58.1244 188.779 58.1244C185.93 58.1244 183.081 58.1244 180.262 58.0949C179.88 58.0949 179.821 58.2128 179.821 58.5371C179.851 60.8362 179.821 63.1648 179.821 65.4639C179.821 65.7292 179.88 65.8176 180.174 65.8176C183.023 65.8176 185.871 65.8176 188.75 65.8176C189.073 65.8176 189.131 65.9061 189.131 66.2008C189.102 67.3799 189.102 68.5884 189.131 69.7674C189.131 70.0917 189.043 70.1801 188.72 70.1801C185.901 70.1801 183.052 70.1801 180.233 70.1801C179.939 70.1801 179.821 70.239 179.821 70.5633C179.851 73.0982 179.821 75.6037 179.821 78.1386C179.821 78.4334 179.91 78.4923 180.203 78.4923C183.551 78.4923 186.899 78.4923 190.247 78.4923C190.541 78.4923 190.629 78.5513 190.629 78.846C190.6 80.084 190.629 81.322 190.629 82.56C190.629 82.7958 190.571 82.8548 190.336 82.8548C185.196 82.8548 180.056 82.8548 174.917 82.8548C174.623 82.8548 174.564 82.7368 174.564 82.4716C174.535 77.7554 174.535 73.0393 174.535 68.2936Z" fill="#747678"/>
<path d="M143.492 59.8341C142.259 59.1856 141.025 58.6845 139.733 58.3898C138.206 58.0361 136.678 57.8003 135.122 58.154C133.448 58.5077 132.567 59.6278 132.625 61.2784C132.684 62.2806 133.183 63.047 133.918 63.6955C134.828 64.4913 135.885 65.0219 136.943 65.5819C138.529 66.4072 140.173 67.1736 141.612 68.2348C143.286 69.4728 144.491 71.0055 144.96 73.0983C145.812 77.0776 143.962 80.6441 140.203 82.2653C138.117 83.1791 135.915 83.4149 133.653 83.2675C131.333 83.1201 129.131 82.5601 127.075 81.4105C126.84 81.2631 126.605 81.1158 126.341 80.9684C126.106 80.8505 126.047 80.7031 126.194 80.4378C126.81 79.2883 127.398 78.1092 127.985 76.9597C128.103 76.7533 128.161 76.6944 128.396 76.8417C130.217 78.0503 132.244 78.7577 134.446 78.7872C135.504 78.8166 136.532 78.6987 137.501 78.2861C139.938 77.2544 139.88 74.631 138.764 73.2162C138.176 72.4793 137.413 71.9193 136.59 71.4476C135.181 70.5928 133.653 69.9149 132.214 69.119C131.01 68.4411 129.865 67.6452 128.896 66.6136C126.282 63.7544 126.37 59.0677 129.072 56.2675C130.57 54.7053 132.449 53.9094 134.564 53.6441C137.442 53.2904 140.261 53.6441 142.993 54.7348C143.404 54.8821 143.521 55.0885 143.521 55.5306C143.492 56.9455 143.492 58.3603 143.492 59.8341Z" fill="#747678"/>
<path d="M156.209 70.4748C156.209 66.4956 156.209 62.5163 156.209 58.5371C156.209 58.2128 156.15 58.1244 155.798 58.1244C153.243 58.1539 150.687 58.1244 148.162 58.1539C147.839 58.1539 147.78 58.0655 147.78 57.7707C147.809 56.5622 147.78 55.3537 147.78 54.1157C147.78 53.8799 147.809 53.762 148.103 53.762C155.504 53.762 162.934 53.762 170.335 53.762C170.6 53.762 170.658 53.8209 170.57 54.0862C170.159 55.3242 169.777 56.5622 169.395 57.8002C169.307 58.0655 169.219 58.1539 168.926 58.1539C166.605 58.1539 164.285 58.1539 161.994 58.1539C161.466 58.1539 161.525 58.0949 161.525 58.596C161.525 66.5545 161.525 74.5131 161.525 82.4716C161.525 82.8253 161.436 82.9137 161.084 82.9137C159.586 82.8842 158.088 82.8842 156.62 82.9137C156.297 82.9137 156.209 82.8547 156.209 82.501C156.209 78.4628 156.209 74.4836 156.209 70.4748Z" fill="#747678"/>
<path d="M143.11 97.1508C143.933 95.7359 144.814 94.4095 145.665 93.0536C146.047 92.4346 146.458 91.8156 146.84 91.1671C146.958 90.9903 147.075 90.9313 147.251 90.9313C147.516 90.9608 147.78 90.9608 148.015 90.9313C148.309 90.9019 148.426 90.9903 148.397 91.3145C148.367 92.7294 148.397 94.1442 148.397 95.5591C148.397 97.6813 148.397 99.8331 148.397 101.955C148.397 102.221 148.338 102.339 148.044 102.309C147.662 102.28 147.134 102.486 146.899 102.221C146.664 101.985 146.84 101.484 146.84 101.101C146.84 98.7425 146.84 96.4139 146.84 94.0558C146.84 93.9379 146.84 93.7905 146.84 93.5842C146.4 94.2916 145.988 94.9401 145.577 95.618C144.931 96.6497 144.285 97.6813 143.639 98.7425C143.404 99.1257 142.758 99.1551 142.523 98.772C141.407 97.1213 140.32 95.4706 139.204 93.82C139.175 93.7905 139.175 93.761 139.116 93.7316C139.028 93.9084 139.087 94.0853 139.087 94.2621C139.087 96.856 139.087 99.4499 139.087 102.044C139.087 102.309 138.999 102.368 138.764 102.368C138.411 102.339 138.088 102.368 137.736 102.368C137.589 102.368 137.53 102.309 137.53 102.162C137.53 102.103 137.53 102.044 137.53 101.985C137.53 98.4477 137.53 94.9106 137.53 91.3735C137.53 91.0787 137.618 91.0198 137.912 90.9608C138.675 90.8429 139.116 91.1671 139.527 91.8156C140.702 93.6137 141.965 95.3233 143.11 97.1508Z" fill="#747678"/>
<path d="M215.123 90.8723C218.589 90.8723 220.85 93.0535 221.056 96.1485C221.114 97.2391 221.026 98.2708 220.586 99.2435C219.705 101.218 218.148 102.28 216.033 102.456C214.271 102.604 212.685 102.132 211.423 100.806C210.6 99.9509 210.16 98.8898 210.013 97.7107C209.807 96.2959 209.954 94.94 210.659 93.6725C211.716 91.7566 213.39 90.9313 215.123 90.8723ZM219.44 96.6791C219.47 95.9127 219.323 95.1463 219 94.4094C217.884 91.8745 214.301 91.4029 212.568 93.5841C211.393 95.0579 211.276 97.7402 212.274 99.4204C213.655 101.749 217.414 101.778 218.794 99.4204C219.235 98.5655 219.44 97.6518 219.44 96.6791Z" fill="#747678"/>
<path d="M199.499 96.6201C199.499 94.8515 199.499 93.083 199.499 91.3144C199.499 91.0196 199.587 90.9312 199.88 90.9607C201.085 90.9902 202.259 90.9017 203.464 91.0196C207.105 91.3734 208.75 93.9378 208.515 97.1212C208.427 98.4771 207.986 99.6856 207.017 100.658C206.019 101.69 204.726 102.132 203.317 102.279C202.142 102.397 200.967 102.309 199.792 102.338C199.528 102.338 199.469 102.25 199.469 101.985C199.499 100.216 199.499 98.4181 199.499 96.6201ZM201.055 96.6496C201.055 98.0054 201.055 99.3908 201.055 100.747C201.055 100.983 201.114 101.071 201.378 101.071C201.995 101.071 202.612 101.071 203.199 101.012C204.315 100.894 205.284 100.481 205.989 99.5677C206.782 98.536 206.929 97.357 206.87 96.119C206.753 94.1736 205.637 92.8177 203.757 92.405C203.023 92.2282 202.289 92.2282 201.555 92.2576C200.997 92.2576 201.055 92.1987 201.055 92.7292C201.055 94.0262 201.055 95.3526 201.055 96.6496Z" fill="#747678"/>
<path d="M156.268 96.2959C157.53 96.7086 158.265 97.5044 158.382 98.8603C158.5 100.187 157.824 101.336 156.62 101.926C155.944 102.25 155.24 102.338 154.535 102.338C153.566 102.338 152.596 102.338 151.657 102.338C151.392 102.338 151.334 102.25 151.334 102.014C151.334 98.4182 151.334 94.8516 151.334 91.2555C151.334 91.1082 151.304 90.9313 151.539 90.9608C152.714 90.9902 153.859 90.9018 155.034 91.0197C156.414 91.1966 157.413 92.0809 157.648 93.3188C157.853 94.5274 157.442 95.4706 156.268 96.2959ZM152.89 99.0961C152.89 99.6562 152.89 100.216 152.89 100.747C152.89 100.924 152.919 101.042 153.125 101.042C153.771 101.012 154.388 101.042 155.034 101.012C156.121 100.924 156.796 100.246 156.826 99.2435C156.855 98.1529 156.297 97.4455 155.152 97.2391C154.447 97.1212 153.742 97.2097 153.037 97.1802C152.861 97.1802 152.89 97.2981 152.861 97.416C152.89 97.976 152.89 98.5361 152.89 99.0961ZM152.89 94.1147C152.89 94.6453 152.89 95.1464 152.89 95.6769C152.89 95.8243 152.919 95.9127 153.096 95.9127C153.624 95.8833 154.124 95.9422 154.652 95.8538C155.563 95.7064 156.121 95.0874 156.15 94.2031C156.179 93.142 155.739 92.5525 154.77 92.3461C154.212 92.2282 153.654 92.2872 153.096 92.2872C152.89 92.2872 152.919 92.4346 152.919 92.5525C152.89 93.083 152.89 93.5841 152.89 94.1147Z" fill="#747678"/>
<path d="M227.399 97.0917C228.662 98.6539 229.514 100.422 230.571 102.103C230.689 102.309 230.63 102.338 230.424 102.338C230.395 102.338 230.366 102.338 230.366 102.338C229.896 102.338 229.308 102.486 228.956 102.279C228.603 102.073 228.427 101.513 228.192 101.13C227.781 100.422 227.341 99.6856 226.929 98.9782C226.783 98.7129 226.577 98.4771 226.43 98.2118C226.048 97.5338 225.402 97.6223 224.785 97.6517C224.55 97.6517 224.639 97.8581 224.639 97.976C224.639 99.3024 224.639 100.629 224.639 101.955C224.639 102.279 224.55 102.368 224.257 102.338C223.992 102.309 223.699 102.309 223.405 102.338C223.141 102.368 223.082 102.279 223.082 102.014C223.082 100.688 223.082 99.3613 223.082 98.0644C223.082 95.8242 223.082 93.5546 223.082 91.3144C223.082 91.0491 223.17 90.9607 223.434 90.9607C224.492 90.9902 225.52 90.9312 226.577 91.0196C228.075 91.167 229.22 92.0513 229.514 93.3188C229.896 94.9694 229.191 96.3548 227.634 97.0033C227.517 97.0327 227.429 97.0327 227.399 97.0917ZM224.609 94.2915C224.609 94.881 224.609 95.4705 224.609 96.06C224.609 96.1779 224.55 96.3548 224.756 96.3548C225.402 96.3548 226.048 96.4432 226.665 96.1779C227.517 95.8537 227.987 95.1463 227.957 94.2031C227.928 93.2598 227.429 92.6408 226.548 92.3755C226.019 92.2282 225.49 92.2576 224.932 92.2282C224.668 92.2282 224.58 92.2871 224.58 92.5524C224.609 93.1419 224.609 93.7314 224.609 94.2915Z" fill="#747678"/>
<path d="M135.915 102.339C135.386 102.339 134.916 102.339 134.446 102.339C134.241 102.339 134.211 102.191 134.153 102.044C133.859 101.248 133.536 100.452 133.242 99.6267C133.154 99.3909 133.037 99.332 132.802 99.332C131.568 99.332 130.305 99.332 129.072 99.332C128.837 99.332 128.749 99.3909 128.661 99.6267C128.367 100.452 128.073 101.248 127.78 102.073C127.721 102.25 127.633 102.339 127.427 102.339C127.075 102.309 126.752 102.309 126.399 102.339C126.135 102.368 126.047 102.309 126.164 102.014C126.546 101.042 126.899 100.069 127.28 99.0667C128.249 96.5023 129.248 93.9379 130.188 91.3735C130.335 91.0198 130.482 90.9019 130.863 90.9019C131.48 90.9313 131.48 90.9019 131.715 91.5209C133.066 94.999 134.417 98.5067 135.768 101.985C135.827 102.103 135.856 102.191 135.915 102.339ZM130.981 93.2894C130.393 94.9106 129.835 96.4728 129.277 98.094C130.364 98.094 131.392 98.094 132.449 98.094C132.625 98.094 132.684 98.0645 132.625 97.8582C132.067 96.3549 131.509 94.8516 130.981 93.2894Z" fill="#747678"/>
<path d="M168.632 102.338C167.839 102.338 167.839 102.338 167.545 101.572C167.31 100.924 167.046 100.275 166.811 99.6266C166.752 99.4498 166.664 99.3319 166.429 99.3613C165.166 99.3613 163.903 99.3613 162.611 99.3613C162.406 99.3613 162.288 99.4498 162.229 99.6266C161.936 100.452 161.642 101.248 161.348 102.073C161.29 102.279 161.202 102.368 160.967 102.338C160.614 102.309 160.291 102.309 159.939 102.338C159.645 102.368 159.645 102.25 159.733 102.014C160.232 100.688 160.732 99.3908 161.231 98.0644C162.083 95.7947 162.964 93.5251 163.815 91.2554C163.903 91.0196 164.021 90.9017 164.285 90.9312C165.049 90.9607 165.049 90.9312 165.313 91.6386C166.635 95.0578 167.956 98.4771 169.278 101.896C169.454 102.309 169.454 102.309 168.984 102.309C168.896 102.338 168.779 102.338 168.632 102.338ZM164.579 93.2598C164.021 94.8515 163.463 96.3548 162.934 97.8875C162.846 98.1528 163.052 98.0939 163.169 98.0939C164.08 98.0939 164.99 98.0939 165.901 98.0939C166.224 98.0939 166.253 98.0054 166.136 97.7402C165.754 96.679 165.372 95.6179 164.99 94.5568C164.873 94.1441 164.726 93.7314 164.579 93.2598Z" fill="#747678"/>
<path d="M197.472 102.338C196.973 102.338 196.474 102.338 196.004 102.338C195.798 102.338 195.798 102.191 195.739 102.073C195.416 101.248 195.123 100.452 194.829 99.6266C194.741 99.4202 194.653 99.3318 194.418 99.3318C193.155 99.3318 191.892 99.3318 190.659 99.3318C190.453 99.3318 190.336 99.3908 190.277 99.5971C189.983 100.393 189.689 101.218 189.396 102.014C189.308 102.25 189.19 102.338 188.955 102.309C188.544 102.279 188.133 102.309 187.663 102.309C187.839 101.837 187.986 101.425 188.162 101.012C189.396 97.7696 190.629 94.4977 191.863 91.2554C191.951 90.9901 192.068 90.9312 192.333 90.9312C193.096 90.9606 193.096 90.9312 193.361 91.6386C194.682 95.0578 196.004 98.5065 197.325 101.926C197.384 102.073 197.443 102.191 197.472 102.338ZM192.597 93.3777C192.479 93.4071 192.48 93.4956 192.48 93.5545C192.215 94.2914 191.98 95.0283 191.716 95.7357C191.452 96.4432 191.217 97.1506 190.952 97.858C190.923 97.9464 190.805 98.0938 191.04 98.0938C192.098 98.0938 193.155 98.0938 194.271 98.0938C193.684 96.5021 193.155 94.9399 192.597 93.3777Z" fill="#747678"/>
<path d="M238.383 92.8473C237.62 92.4641 236.856 92.2283 236.063 92.2283C235.799 92.2283 235.534 92.2283 235.27 92.2872C234.683 92.4051 234.213 92.6999 234.066 93.3189C233.919 93.9674 234.095 94.4979 234.595 94.9401C235.035 95.3527 235.564 95.618 236.092 95.9128C236.709 96.237 237.326 96.5907 237.884 97.0329C238.824 97.8582 239.147 98.9193 238.883 100.128C238.618 101.277 237.825 101.985 236.739 102.28C235.241 102.722 233.772 102.515 232.363 101.779C232.128 101.661 232.04 101.543 232.216 101.307C232.363 101.101 232.48 100.865 232.568 100.629C232.656 100.423 232.774 100.423 232.95 100.541C233.89 101.101 234.918 101.307 236.004 101.071C236.592 100.953 237.091 100.629 237.267 100.01C237.473 99.3615 237.297 98.772 236.856 98.2709C236.386 97.7698 235.799 97.475 235.241 97.1802C234.565 96.8265 233.919 96.4728 233.361 95.9717C232.245 94.9401 232.128 93.201 233.067 92.0514C233.655 91.344 234.418 91.0198 235.299 90.9313C236.269 90.8134 237.238 90.9608 238.178 91.3145C238.383 91.4029 238.471 91.4914 238.442 91.7272C238.354 92.0514 238.383 92.4051 238.383 92.8473Z" fill="#747678"/>
<path d="M183.199 90.8723C184.021 90.8723 184.755 91.0197 185.49 91.285C185.725 91.3734 185.813 91.4913 185.783 91.7271C185.754 91.9924 185.754 92.2577 185.783 92.5524C185.783 92.8177 185.725 92.8177 185.519 92.7293C184.697 92.3166 183.816 92.1693 182.876 92.2577C181.995 92.3461 181.466 92.8177 181.407 93.6431C181.378 94.1147 181.554 94.5273 181.877 94.881C182.259 95.2642 182.7 95.5295 183.17 95.7653C183.845 96.119 184.521 96.4727 185.108 96.9444C186.106 97.7402 186.488 98.8014 186.253 100.039C186.018 101.218 185.255 101.926 184.139 102.25C182.582 102.692 181.114 102.515 179.675 101.749C179.44 101.631 179.44 101.513 179.557 101.307C179.733 101.042 179.821 100.629 180.056 100.481C180.291 100.334 180.585 100.717 180.879 100.806C181.701 101.13 182.523 101.248 183.375 101.042C184.726 100.747 185.137 99.3024 184.197 98.2708C183.757 97.7697 183.17 97.5044 182.612 97.1802C182.054 96.8854 181.525 96.5907 181.026 96.2075C179.998 95.4411 179.557 94.4094 179.851 93.142C180.145 91.845 181.055 91.1671 182.288 90.9018C182.612 90.9018 182.935 90.8723 183.199 90.8723Z" fill="#747678"/>
<path d="M174.623 90.8723C175.387 90.8723 176.121 91.0197 176.826 91.285C177.031 91.3734 177.12 91.4618 177.12 91.6976C177.09 91.9335 177.09 92.1987 177.12 92.4345C177.149 92.7293 177.09 92.8177 176.767 92.6703C176.003 92.2872 175.181 92.1398 174.3 92.1987C173.537 92.2577 172.978 92.6409 172.802 93.2009C172.597 93.8494 172.832 94.4979 173.448 94.999C174.036 95.4706 174.741 95.7948 175.387 96.1485C175.886 96.4433 176.385 96.738 176.796 97.1802C178.353 98.7424 177.854 101.277 175.798 102.103C174.153 102.751 172.538 102.545 170.981 101.69C170.805 101.602 170.776 101.513 170.893 101.336C171.04 101.1 171.187 100.835 171.304 100.599C171.393 100.393 171.481 100.393 171.686 100.511C172.45 100.983 173.302 101.189 174.212 101.13C174.476 101.1 174.711 101.071 174.976 100.983C176.092 100.599 176.444 99.3319 175.71 98.4182C175.387 98.035 174.976 97.7697 174.564 97.5044C173.83 97.0917 173.067 96.738 172.391 96.2075C171.363 95.4116 170.952 94.3505 171.275 93.083C171.598 91.8155 172.509 91.1965 173.713 90.9313C173.977 90.8723 174.3 90.8723 174.623 90.8723Z" fill="#747678"/>
<path d="M219.44 96.6791C219.44 97.6813 219.264 98.5655 218.765 99.4203C217.414 101.778 213.625 101.749 212.245 99.4203C211.246 97.7107 211.364 95.0579 212.539 93.5841C214.271 91.4324 217.854 91.8745 218.97 94.4094C219.293 95.1463 219.44 95.9127 219.44 96.6791Z" fill="#FEFEFE"/>
<path d="M201.055 96.6497C201.055 95.3528 201.055 94.0263 201.055 92.7294C201.055 92.1694 200.997 92.2578 201.555 92.2578C202.289 92.2578 203.023 92.2578 203.757 92.4052C205.637 92.8473 206.753 94.1737 206.87 96.1191C206.929 97.3571 206.782 98.5362 205.989 99.5678C205.284 100.482 204.286 100.865 203.199 101.012C202.582 101.071 201.995 101.071 201.378 101.071C201.143 101.071 201.055 100.983 201.055 100.747C201.055 99.391 201.055 98.0056 201.055 96.6497Z" fill="#FEFEFE"/>
<path d="M152.89 99.096C152.89 98.536 152.89 97.9759 152.89 97.4454C152.89 97.3275 152.861 97.2096 153.066 97.2096C153.771 97.239 154.476 97.1506 155.181 97.2685C156.297 97.4748 156.884 98.1823 156.855 99.2729C156.826 100.275 156.15 100.953 155.063 101.041C154.447 101.1 153.801 101.071 153.154 101.071C152.919 101.071 152.919 100.953 152.919 100.776C152.89 100.187 152.89 99.6266 152.89 99.096Z" fill="#FEFEFE"/>
<path d="M152.89 94.1147C152.89 93.5841 152.89 93.083 152.89 92.5525C152.89 92.4346 152.861 92.2872 153.066 92.2872C153.624 92.2872 154.182 92.2282 154.74 92.3462C155.709 92.5525 156.15 93.142 156.121 94.2031C156.091 95.0579 155.533 95.7064 154.623 95.8538C154.124 95.9422 153.595 95.8833 153.066 95.9127C152.89 95.9127 152.861 95.8243 152.861 95.6769C152.89 95.1464 152.89 94.6158 152.89 94.1147Z" fill="#FEFEFE"/>
<path d="M224.609 94.2916C224.609 93.7021 224.609 93.142 224.609 92.5525C224.609 92.2872 224.697 92.2283 224.962 92.2283C225.49 92.2577 226.048 92.1988 226.577 92.3757C227.487 92.6409 227.957 93.2599 227.987 94.2032C228.016 95.1464 227.575 95.8538 226.694 96.1781C226.078 96.4139 225.432 96.3254 224.785 96.3549C224.58 96.3549 224.639 96.178 224.639 96.0601C224.609 95.4706 224.609 94.8811 224.609 94.2916Z" fill="#FEFEFE"/>
<path d="M130.981 93.2893C131.539 94.8515 132.067 96.3548 132.596 97.8581C132.684 98.0644 132.625 98.0939 132.42 98.0939C131.392 98.0939 130.364 98.0939 129.248 98.0939C129.835 96.4727 130.393 94.9105 130.981 93.2893Z" fill="#FEFEFE"/>
<path d="M164.579 93.2598C164.726 93.7314 164.873 94.144 165.019 94.5272C165.401 95.5884 165.754 96.6495 166.165 97.7106C166.282 98.0054 166.224 98.0644 165.93 98.0644C165.019 98.0349 164.109 98.0644 163.199 98.0644C163.081 98.0644 162.876 98.1528 162.964 97.858C163.463 96.3842 163.992 94.8515 164.579 93.2598Z" fill="#FEFEFE"/>
<path d="M192.597 93.3777C193.155 94.9399 193.684 96.5021 194.271 98.0938C193.155 98.0938 192.098 98.0938 191.04 98.0938C190.805 98.0938 190.923 97.9465 190.952 97.858C191.217 97.1506 191.452 96.4432 191.716 95.7358C191.98 94.9989 192.215 94.262 192.48 93.5545C192.48 93.4661 192.479 93.4072 192.597 93.3777Z" fill="#FEFEFE"/>
</svg>
