<svg width="162" height="165" viewBox="0 0 162 165" fill="none" xmlns="http://www.w3.org/2000/svg">
<mask id="mask0_1036_1072" style="mask-type:luminance" maskUnits="userSpaceOnUse" x="0" y="0" width="162" height="165">
<path d="M162 164.149H0V0.820312L162 164.149Z" fill="white"/>
</mask>
<g mask="url(#mask0_1036_1072)">
<path d="M0 164.149H1.9564V-3.80341L0 -5.76807V164.149Z" fill="#59FF69"/>
<path d="M12.1113 164.149H15.8463V10.1101L12.1113 6.36707V164.149Z" fill="#59FF69"/>
<path d="M25.7891 164.149H29.7357V24.0236L25.7891 20.0688V164.141V164.149Z" fill="#59FF69"/>
<path d="M39.4756 164.149H43.634V37.9371L39.4756 33.7792V164.149Z" fill="#59FF69"/>
<path d="M53.1533 164.149H57.515V51.8591L53.1533 47.4894V164.158V164.149Z" fill="#59FF69"/>
<path d="M66.8311 164.149H71.4044V65.7727L66.8311 61.1913V164.149Z" fill="#59FF69"/>
<path d="M80.5088 164.149H85.2939V79.686L80.5088 74.8929V164.149Z" fill="#59FF69"/>
<path d="M94.1865 164.149H99.1834V93.6081L94.1865 88.6033V164.149Z" fill="#59FF69"/>
<path d="M107.864 164.149H113.073V107.522L107.864 102.305V164.149Z" fill="#59FF69"/>
<path d="M121.551 164.149H126.971V121.435L121.551 116.007V164.149Z" fill="#59FF69"/>
<path d="M135.229 164.149H140.861V135.357L135.229 129.717V164.149Z" fill="#59FF69"/>
<path d="M148.906 164.149H154.75V149.271L148.906 143.419V164.149Z" fill="#59FF69"/>
</g>
</svg>
