<svg width="40" height="40" viewBox="0 0 40 40" fill="none" xmlns="http://www.w3.org/2000/svg">
<path d="M14.0325 40L40 14.0425L40 10.7502L10.7483 40L14.0325 40Z" fill="#59FF69"/>
<path d="M8.43441 40L40 8.43598L40 5.22583L5.22486 40L8.43441 40Z" fill="#59FF69"/>
<path d="M2.82888 40L40 2.82941L40 0L-1.74846e-06 40L2.82888 40Z" fill="#59FF69"/>
<path d="M36.4695 40L40 36.4688L40 32.8331L32.8345 40L36.4695 40Z" fill="#59FF69"/>
<path d="M19.6455 39.9999L40 19.6491L40 16.2672L16.2642 39.9999L19.6455 39.9999Z" fill="#59FF69"/>
<path d="M40 39.9999L40 38.3575L38.3579 39.9999L40 39.9999Z" fill="#59FF69"/>
<path d="M30.864 40L40 30.8623L40 27.3162L27.3111 40L30.864 40Z" fill="#59FF69"/>
<path d="M25.251 40L40 25.2557L40 21.7917L21.7876 40L25.251 40Z" fill="#59FF69"/>
</svg>
