<svg width="81" height="81" viewBox="0 0 81 81" fill="none" xmlns="http://www.w3.org/2000/svg">
<path d="M81.0001 40.5C81.0001 62.9238 62.8094 81.0001 40.5 81.0001C18.0763 81.0001 0 62.8094 0 40.5C0 18.0763 18.1907 0 40.5 0C62.9238 0 81.0001 18.0763 81.0001 40.5Z" fill="#2C9942"/>
<path d="M20.25 56.9747C20.25 57.5468 20.1356 58.1188 19.4492 58.1188C19.106 58.1188 19.5636 58.1188 19.2204 58.1188C17.1611 58.1188 15.7882 57.6612 14.8729 56.7459C14.0721 55.8307 13.6144 54.3434 13.6144 52.1696V44.8476C13.6144 43.7035 13.5 42.7883 13.1568 42.3307C12.8136 41.7586 12.2416 41.4154 11.4407 41.0722C10.9831 40.9578 10.7543 40.5001 10.7543 40.0425C10.7543 39.5849 11.0975 39.1273 11.4407 39.0129C12.928 38.5552 13.7289 37.4112 13.7289 35.4662V27.6866C13.7289 25.7417 14.1865 24.3688 14.9873 23.5679C15.9026 22.7671 17.2755 22.3094 19.2204 22.3094H19.4492C20.0212 22.3094 20.25 22.7671 20.25 23.4535C20.25 24.0256 20.1356 24.2544 19.4492 24.2544C17.9619 24.2544 16.9322 24.4832 16.4746 25.0552C15.9026 25.5128 15.6738 26.4281 15.6738 27.801V35.6951C15.6738 36.6103 15.5594 37.4112 15.3305 38.212C15.1017 39.0129 14.4153 39.6993 13.2712 40.2713C14.1865 40.729 14.7585 41.301 15.1017 41.9874C15.445 42.6739 15.6738 43.5891 15.6738 44.8476V52.5129C15.6738 54.0002 15.9026 54.9154 16.3602 55.4874C16.8178 55.9451 17.8475 56.1739 19.4492 56.2883C20.1356 56.1739 20.25 56.2883 20.25 56.9747Z" fill="#9ED8B3"/>
<path d="M61.4365 56.1737C62.9238 56.1737 63.9535 55.9449 64.5255 55.3728C64.9832 54.9152 65.212 53.8855 65.212 52.3982V44.733C65.212 43.4745 65.4408 42.5592 65.784 41.8728C66.1272 41.1864 66.8137 40.6143 67.6145 40.1567C66.4704 39.5847 65.784 38.8982 65.5552 38.0974C65.3264 37.2965 65.212 36.4957 65.212 35.5804V27.6864C65.212 26.3135 64.9832 25.3982 64.4111 24.9406C63.8391 24.483 62.9238 24.2541 61.4365 24.1397C60.8645 24.1397 60.2925 24.0253 60.2925 23.3389C60.2925 22.7669 60.7501 22.1948 61.4365 22.1948H61.6654C63.6103 22.1948 65.0976 22.6525 65.8984 23.4533C66.8137 24.2541 67.1569 25.7414 67.1569 27.5719V35.3516C67.1569 37.2965 67.9577 38.555 69.445 38.8982C69.9027 39.127 70.1315 39.4703 70.1315 39.9279C70.1315 40.3855 69.7883 40.8431 69.445 40.9576C68.6442 41.1864 68.0721 41.644 67.7289 42.216C67.3857 42.7881 67.2713 43.5889 67.2713 44.733V52.055C67.2713 54.2287 66.8137 55.716 66.0128 56.6313C65.212 57.5466 63.7247 58.0042 61.6654 58.0042C61.4365 58.0042 61.7798 58.0042 61.4365 58.0042C60.8645 58.0042 60.4069 57.5466 60.4069 56.8601C60.4069 56.2881 60.8645 56.1737 61.4365 56.1737Z" fill="#9ED8B3"/>
<path d="M35.0086 36.7247C36.1526 36.7247 37.1823 36.2671 37.9832 35.4662C38.784 34.6654 39.2416 33.6357 39.2416 32.4917C39.2416 31.3476 38.784 30.3179 37.9832 29.5171C37.1823 28.7162 36.1526 28.2586 35.0086 28.2586C33.8645 28.2586 32.8348 28.7162 32.034 29.5171C31.2332 30.3179 30.7755 31.3476 30.7755 32.4917C30.7755 33.6357 31.2332 34.6654 32.034 35.4662C32.8348 36.2671 33.8645 36.7247 35.0086 36.7247ZM33.2925 30.7756C33.7501 30.3179 34.3221 30.0891 35.0086 30.0891C35.695 30.0891 36.267 30.3179 36.7247 30.7756C37.1823 31.2332 37.4111 31.8052 37.4111 32.4917C37.4111 33.1781 37.1823 33.7501 36.7247 34.2078C36.267 34.6654 35.695 34.8942 35.0086 34.8942C34.3221 34.8942 33.7501 34.6654 33.2925 34.2078C32.8348 33.7501 32.606 33.1781 32.606 32.4917C32.606 31.8052 32.8348 31.2332 33.2925 30.7756ZM55.6018 30.2035C56.7459 30.2035 57.5467 30.6612 57.7755 31.6908H53.4281C53.7713 30.6612 54.4577 30.2035 55.6018 30.2035ZM58.462 45.0764C57.6611 44.2756 56.7459 43.9324 55.6018 43.9324C54.801 43.9324 54.1145 44.1612 53.5425 44.6188C53.4281 44.7332 53.3137 44.8476 53.1993 44.962V42.1019C53.1993 41.6442 52.7416 41.1866 52.284 41.1866C51.8264 41.1866 51.3688 41.6442 51.3688 42.1019V51.3688C51.3688 51.8264 51.712 52.2841 52.284 52.2841C52.7416 52.2841 53.1993 51.9408 53.1993 51.3688V51.14C53.5425 51.5976 54.0001 51.8264 54.4577 52.0552C54.9154 52.1697 55.373 52.2841 55.8306 52.2841C56.9747 52.2841 57.8899 51.8264 58.6908 51.0256C59.4916 50.2247 59.8349 49.1951 59.8349 48.051C59.606 46.9069 59.2628 45.8773 58.462 45.0764ZM56.9747 49.6527C56.5171 50.1103 55.945 50.3391 55.373 50.3391C54.6866 50.3391 54.2289 50.1103 53.7713 49.6527C53.3137 49.1951 53.0849 48.623 53.0849 48.051C53.0849 47.3646 53.3137 46.7925 53.7713 46.3349C54.2289 45.8773 54.801 45.6485 55.373 45.6485C56.0594 45.6485 56.5171 45.8773 56.9747 46.3349C57.4323 46.7925 57.6611 47.3646 57.6611 47.9366C57.6611 48.7374 57.4323 49.3095 56.9747 49.6527ZM47.9365 44.8476V51.3688C47.9365 51.8264 47.5933 52.2841 47.0213 52.2841C46.5637 52.2841 46.106 51.9408 46.106 51.3688V51.2544V50.9112C45.9916 51.14 45.7628 51.2544 45.7628 51.3688C45.1908 51.9408 44.5043 52.1697 43.5891 52.1697C42.9026 52.1697 42.3306 52.0552 41.873 51.712C41.3009 51.4832 40.9577 51.0256 40.7289 50.568C40.5001 50.1103 40.3857 49.6527 40.3857 49.0807C40.3857 48.8519 40.3857 48.3942 40.3857 47.479V44.6188C40.3857 44.1612 40.8433 43.7035 41.3009 43.7035C41.873 43.7035 42.2162 44.1612 42.2162 44.6188V44.7332V47.479C42.2162 48.051 42.2162 48.3942 42.2162 48.5086C42.2162 48.8519 42.3306 49.1951 42.445 49.5383C42.6738 50.1103 43.2459 50.3391 43.9323 50.3391C45.4196 50.3391 46.106 49.4239 46.106 47.5934V44.7332C46.106 44.2756 46.5637 43.818 47.0213 43.818C47.4789 43.9324 47.9365 44.2756 47.9365 44.8476ZM48.3942 25.6273C47.9365 25.6273 47.4789 26.0849 47.4789 26.5425V29.2883C47.0213 28.9451 46.5637 28.6018 46.2204 28.4874C45.8772 28.373 45.534 28.373 45.0764 28.373C43.9323 28.373 43.0171 28.7162 42.3306 29.5171C41.5298 30.3179 41.1866 31.3476 41.1866 32.4917C41.1866 33.6357 41.5298 34.6654 42.3306 35.4662C43.1315 36.2671 44.0467 36.7247 45.0764 36.7247C45.9916 36.7247 46.6781 36.4959 47.3645 35.9239C47.4789 35.8095 47.5933 35.6951 47.7077 35.5807V35.8095C47.7077 36.2671 48.051 36.7247 48.623 36.7247C49.0806 36.7247 49.5382 36.3815 49.5382 35.8095V26.5425C49.3094 25.9705 48.9662 25.6273 48.3942 25.6273ZM46.9069 34.2078C46.4493 34.6654 45.9916 34.8942 45.3052 34.8942C44.7332 34.8942 44.1611 34.6654 43.7035 34.2078C43.2459 33.7501 43.017 33.1781 43.017 32.6061C43.017 31.9196 43.2459 31.3476 43.7035 30.89C44.1611 30.4323 44.6187 30.2035 45.3052 30.2035C45.9916 30.2035 46.5637 30.4323 46.9069 30.89C47.3645 31.3476 47.4789 31.9196 47.4789 32.6061C47.5933 33.1781 47.3645 33.7501 46.9069 34.2078ZM37.8687 51.14C37.8687 51.5976 37.5255 51.9408 37.0679 51.9408H32.3772C31.9196 51.9408 31.5764 51.5976 31.5764 51.14C31.5764 50.6824 31.9196 50.3391 32.3772 50.3391H33.8645V43.1315H32.3772C31.9196 43.1315 31.5764 42.7883 31.5764 42.3307C31.5764 41.873 31.9196 41.5298 32.3772 41.5298H34.7798C35.2374 41.5298 35.5806 41.873 35.5806 42.3307V50.3391H36.9535C37.5255 50.2247 37.8687 50.6824 37.8687 51.14ZM23.9111 46.3349C23.4535 46.7925 23.2247 47.3646 23.2247 48.051C23.2247 48.623 23.4535 49.3095 23.9111 49.7671C24.8264 50.6824 26.3136 50.6824 27.2289 49.7671C27.5721 49.4239 28.373 49.4239 28.7162 49.7671C29.0594 50.1103 29.0594 50.6824 28.7162 51.0256C27.9153 51.8264 26.7713 52.2841 25.6272 52.2841C24.4831 52.2841 23.4535 51.8264 22.5382 51.0256C20.8221 49.4239 20.8221 46.6781 22.5382 45.0764C24.2543 43.4747 27.0001 43.4747 28.7162 45.0764C29.0594 45.4196 29.0594 45.9917 28.7162 46.3349C28.373 46.6781 27.5721 46.6781 27.2289 46.3349C26.1992 45.4196 24.8264 45.4196 23.9111 46.3349ZM23.7967 30.7756C23.3391 31.2332 23.1103 31.8052 23.1103 32.4917C23.1103 33.0637 23.3391 33.7501 23.7967 34.2078C24.7119 35.123 26.1992 35.123 27.0001 34.2078C27.3433 33.8646 28.1442 33.8646 28.4874 34.2078C28.8306 34.551 28.8306 35.123 28.4874 35.4662C27.6865 36.2671 26.5425 36.7247 25.3984 36.7247C24.2543 36.7247 23.2247 36.2671 22.3094 35.4662C20.5933 33.8646 20.5933 31.1188 22.3094 29.5171C24.0255 27.9154 26.7713 27.9154 28.373 29.5171C28.7162 29.8603 28.7162 30.4323 28.373 30.7756C28.0297 31.1188 27.2289 31.1188 26.8857 30.7756C26.1992 29.8603 24.7119 29.8603 23.7967 30.7756ZM59.1484 35.5807C59.4916 35.2374 59.4916 34.6654 59.1484 34.2078C58.8052 33.8646 58.1188 33.8646 57.7755 34.2078C57.3179 34.551 56.7459 34.7798 56.1738 34.7798C56.1738 34.7798 55.945 34.7798 55.8306 34.7798C55.1442 34.7798 54.6866 34.6654 54.2289 34.3222C53.7713 33.979 53.5425 33.6357 53.4281 33.0637H58.6908C59.2628 33.0637 59.7205 32.6061 59.7205 31.9196C59.7205 31.9196 59.7205 31.9196 59.7205 31.8052C59.6061 30.89 59.2628 30.0891 58.5764 29.4027C57.7755 28.6018 56.8603 28.1442 55.6018 28.1442C54.4577 28.1442 53.4281 28.6018 52.6272 29.4027C51.8264 30.2035 51.3688 31.2332 51.3688 32.3773C51.3688 33.5213 51.712 34.551 52.5128 35.3518C53.3137 36.1527 54.3433 36.4959 55.6018 36.4959C55.7162 36.4959 55.945 36.4959 55.945 36.4959C57.2035 36.7247 58.2332 36.2671 59.1484 35.5807Z" fill="white"/>
</svg>
