
<svg width="238px" height="81px" viewBox="0 0 238 81" version="1.1" xmlns="http://www.w3.org/2000/svg" xmlns:xlink="http://www.w3.org/1999/xlink">
    <g id="Page-1" stroke="none" stroke-width="1" fill="none" fill-rule="evenodd">
        <g id="ICS_Lockup_580px_Purple" fill="#120540" fill-rule="nonzero">
            <path d="M126.782432,37.7753984 L120.401587,37.7753984 C119.747013,37.7753984 119.347274,38.2001218 119.347274,38.8596922 L119.347274,46.4347589 C119.347274,47.0893326 119.747013,47.4890722 120.401587,47.4890722 L125.358359,47.4890722 L127.836745,44.9557221 L127.836745,38.8596922 C127.836745,38.2051185 127.437005,37.7753984 126.782432,37.7753984 L126.782432,37.7753984 Z" id="Path"></path>
            <path d="M91.9701035,27.3771703 L91.9701035,57.7623816 L238,57.7623816 L238,27.3771703 L91.9701035,27.3771703 Z M194.968025,37.1508051 L196.362117,35.7567131 C196.507023,35.6118074 196.646932,35.5568432 196.846801,35.5568432 L200.34952,35.5568432 C200.54939,35.5568432 200.664315,35.7017489 200.664315,35.8716382 L200.664315,37.4656001 C200.664315,37.6354895 200.54939,37.7803951 200.34952,37.7803951 L195.192879,37.7803951 C194.823119,37.7803951 194.678214,37.4406164 194.963028,37.1558019 L194.968025,37.1508051 Z M113.910814,45.0706473 L109.468707,49.5127543 C109.328798,49.6576599 109.183893,49.7126241 108.954043,49.7126241 L101.43394,49.7126241 C101.23407,49.7126241 101.064181,49.6576599 100.919275,49.5127543 L97.8162961,46.4097751 C97.6763872,46.2698663 97.6164263,46.0949802 97.6164263,45.8951103 L97.6164263,35.187084 C97.6164263,34.9572337 97.701371,34.8173249 97.8462766,34.6724192 L102.548214,29.9704814 C102.688123,29.8255758 102.833029,29.7706116 103.062879,29.7706116 L110.013353,29.7706116 C110.213222,29.7706116 110.383112,29.8255758 110.528017,29.9704814 L113.630997,33.0734606 C113.775902,33.2183662 113.830866,33.3882555 113.830866,33.5881254 L113.860847,35.9815666 C113.860847,36.1814365 113.720938,36.2963616 113.546052,36.2963616 L111.95209,36.2963616 C111.782201,36.2963616 111.637295,36.1814365 111.637295,35.9815666 L111.637295,33.0484768 C111.637295,32.3939031 111.212572,31.9941635 110.553001,31.9941635 L103.602528,31.9941635 L99.8449749,35.7517163 L99.8449749,46.4347589 C99.8449749,47.0893326 100.244715,47.4890722 100.929269,47.4890722 L108.419391,47.4890722 L112.35183,43.5566333 C112.496735,43.4117277 112.636644,43.3867439 112.806534,43.5266528 L113.915811,44.6359304 C114.030736,44.7758393 114.030736,44.9507254 113.915811,45.0606538 L113.910814,45.0706473 Z M130.060297,45.5253511 C130.060297,45.7552014 129.975352,45.8951103 129.830447,46.0649997 L126.382692,49.4827738 C126.237786,49.6526632 126.067897,49.7126241 125.843043,49.7126241 L120.946232,49.7126241 C120.746363,49.7126241 120.576473,49.6576599 120.431568,49.5127543 L117.328589,46.4097751 C117.18868,46.2698663 117.128719,46.0949802 117.128719,45.8951103 L117.128719,39.374357 C117.128719,39.1744872 117.183683,39.0045978 117.328589,38.8596922 L120.431568,35.7567131 C120.571477,35.6118074 120.746363,35.5568432 120.946232,35.5568432 L126.242783,35.5568432 C126.442653,35.5568432 126.612542,35.6118074 126.757448,35.7567131 L129.860427,38.8596922 C130.000336,39.0045978 130.060297,39.1445067 130.060297,39.374357 L130.060297,45.5253511 L130.060297,45.5253511 Z M135.586698,49.3978291 C135.586698,49.597699 135.471773,49.7126241 135.301883,49.7126241 L133.707921,49.7126241 C133.508051,49.7126241 133.393126,49.597699 133.393126,49.3978291 L133.393126,35.8666415 C133.393126,35.6967521 133.508051,35.5518465 133.707921,35.5518465 L135.301883,35.5518465 C135.471773,35.5518465 135.586698,35.6967521 135.586698,35.8666415 L135.586698,49.3978291 Z M144.845668,49.3978291 C144.845668,49.597699 144.705759,49.7126241 144.530873,49.7126241 L142.936911,49.7126241 C142.767021,49.7126241 142.622116,49.597699 142.622116,49.3978291 L142.622116,38.8596922 C142.622116,38.2051185 142.222376,37.7753984 141.537822,37.7753984 L136.665995,37.7753984 C136.296236,37.7753984 136.126346,37.4356197 136.411161,37.1508051 L137.805253,35.7567131 C137.975142,35.6118074 138.120048,35.5568432 138.319918,35.5568432 L141.023157,35.5568432 C141.223027,35.5568432 141.392916,35.6118074 141.537822,35.7567131 L144.640801,38.8596922 C144.78071,39.0045978 144.840671,39.1744872 144.840671,39.374357 L144.840671,49.3978291 L144.845668,49.3978291 Z M154.074657,49.3978291 C154.074657,49.597699 153.959732,49.7126241 153.759862,49.7126241 L152.190884,49.7126241 C151.991014,49.7126241 151.876089,49.597699 151.876089,49.3978291 L151.876089,38.8596922 C151.876089,38.2051185 151.451366,37.7753984 150.791795,37.7753984 L144.665785,37.7753984 C144.296026,37.7753984 144.15112,37.4356197 144.435935,37.1508051 L145.830027,35.7567131 C145.974932,35.6118074 146.114841,35.5568432 146.314711,35.5568432 L150.272134,35.5568432 C150.472004,35.5568432 150.611912,35.6118074 150.756818,35.7567131 L153.859797,38.8596922 C154.004703,39.0045978 154.059667,39.1744872 154.059667,39.374357 L154.059667,49.3978291 L154.074657,49.3978291 Z M170.878713,45.8951103 C170.878713,46.1249606 170.823749,46.2648695 170.678844,46.4097751 L167.575864,49.5127543 C167.430959,49.6576599 167.261069,49.7126241 167.0612,49.7126241 L162.189372,49.7126241 C161.959522,49.7126241 161.819613,49.6576599 161.674708,49.5127543 L160.13571,47.9737566 L160.13571,55.0941194 C160.13571,55.2939892 160.020785,55.4089144 159.850895,55.4089144 L158.256934,55.4089144 C158.057064,55.4089144 157.942139,55.2939892 157.942139,55.0941194 L157.942139,35.8716382 C157.942139,35.7017489 158.057064,35.5568432 158.256934,35.5568432 L159.850895,35.5568432 C160.020785,35.5568432 160.13571,35.7017489 160.13571,35.8716382 L160.13571,46.4647394 C160.13571,47.2042577 160.53545,47.4890722 161.220004,47.4890722 L167.570868,47.4890722 C168.255422,47.4890722 168.655162,47.0893326 168.655162,46.4347589 L168.655162,38.8596922 C168.655162,38.2051185 168.255422,37.7753984 167.570868,37.7753984 L161.190023,37.7753984 C160.820264,37.7753984 160.650375,37.4356197 160.935189,37.1508051 L162.329281,35.7567131 C162.499171,35.6118074 162.644076,35.5568432 162.843946,35.5568432 L167.0612,35.5568432 C167.261069,35.5568432 167.430959,35.6118074 167.575864,35.7567131 L170.678844,38.8596922 C170.823749,39.0045978 170.878713,39.1445067 170.878713,39.374357 L170.878713,45.8951103 L170.878713,45.8951103 Z M183.925217,48.1186622 L182.531125,49.5127543 C182.386219,49.6826437 182.24631,49.7126241 182.01646,49.7126241 L178.513741,49.7126241 C178.283891,49.7126241 178.143982,49.6576599 177.999076,49.5127543 L174.896097,46.4097751 C174.751191,46.2698663 174.696227,46.0949802 174.696227,45.8951103 L174.696227,35.8716382 C174.696227,35.7017489 174.811152,35.5568432 175.011022,35.5568432 L176.604984,35.5568432 C176.774874,35.5568432 176.889799,35.7017489 176.889799,35.8716382 L176.889799,46.4397556 C176.889799,47.0943293 177.314522,47.494069 177.974093,47.494069 L183.700363,47.494069 C184.070122,47.494069 184.215028,47.8338477 183.930214,48.1186622 L183.925217,48.1186622 Z M186.943251,49.4028259 C186.943251,49.6026957 186.828326,49.7176209 186.658437,49.7176209 L185.064475,49.7176209 C184.864605,49.7176209 184.74968,49.6026957 184.74968,49.4028259 L184.74968,35.8716382 C184.74968,35.7017489 184.864605,35.5568432 185.064475,35.5568432 L186.658437,35.5568432 C186.828326,35.5568432 186.943251,35.7017489 186.943251,35.8716382 L186.943251,49.4028259 Z M200.954127,46.040016 L197.536352,49.4877706 C197.366463,49.6576599 197.221557,49.7176209 196.996704,49.7176209 L195.802482,49.7176209 C195.572631,49.7176209 195.432722,49.6626567 195.287817,49.517751 L192.184838,46.4147719 C192.014948,46.2448825 191.954987,46.0999769 191.954987,45.9001071 L191.954987,37.7803951 L190.076211,37.7803951 C189.906322,37.7803951 189.761416,37.6404862 189.761416,37.4656001 L189.761416,35.8716382 C189.761416,35.7017489 189.901325,35.5568432 190.076211,35.5568432 L191.954987,35.5568432 L191.954987,32.1940333 C191.954987,32.0241439 192.099893,31.8792383 192.269782,31.8792383 L193.863744,31.8792383 C194.033634,31.8792383 194.178539,32.0241439 194.178539,32.1940333 L194.178539,46.4347589 C194.178539,47.0893326 194.578279,47.4890722 195.232853,47.4890722 L196.457055,47.4890722 L199.420126,44.526002 C199.565031,44.3810963 199.759904,44.3810963 199.874829,44.526002 L200.959123,45.5803153 C201.099032,45.725221 201.099032,45.8951103 200.959123,46.0350192 L200.954127,46.040016 Z M217.448384,39.7641032 C217.448384,39.963973 217.39342,40.1038819 217.218534,40.3037518 L213.83074,43.6665617 C213.690832,43.8364511 213.515945,43.896412 213.291092,43.896412 L209.473578,43.896412 C209.273708,43.896412 209.133799,43.8414478 208.958913,43.6965422 L207.589805,42.3024501 C207.30499,42.0176356 207.444899,41.6778569 207.819655,41.6778569 L213.001281,41.6778569 L215.224833,39.454305 L215.224833,38.8297117 C215.224833,38.175138 214.825093,37.7454179 214.170519,37.7454179 L207.789675,37.7454179 C207.135101,37.7454179 206.735361,38.1701413 206.735361,38.8297117 L206.735361,46.4047784 C206.735361,47.0593521 207.135101,47.4590918 207.789675,47.4590918 L214.085575,47.4590918 C214.740148,47.4590918 215.169868,47.0593521 215.169868,46.4047784 L215.169868,44.8957612 C215.169868,44.7258718 215.284794,44.5809662 215.484663,44.5809662 L217.078625,44.5809662 C217.248515,44.5809662 217.39342,44.7258718 217.39342,44.8957612 L217.39342,45.8651299 C217.39342,46.0649997 217.338456,46.2049086 217.16357,46.3797947 L214.060591,49.4827738 C213.920682,49.6276795 213.775776,49.6826437 213.545926,49.6826437 L208.33432,49.6826437 C208.13445,49.6826437 207.964561,49.6276795 207.819655,49.4827738 L204.716676,46.3797947 C204.576767,46.234889 204.516806,46.0949802 204.516806,45.8951103 L204.516806,39.3443766 C204.516806,39.1445067 204.57177,39.0045978 204.746657,38.8297117 L207.849636,35.7267326 C207.989545,35.581827 208.13445,35.5268628 208.364301,35.5268628 L213.630871,35.5268628 C213.83074,35.5268628 214.00063,35.581827 214.145535,35.7267326 L217.248515,38.8297117 C217.388424,38.9696206 217.448384,39.1145263 217.448384,39.3143961 L217.448384,39.7691 L217.448384,39.7641032 Z M223.344545,49.3628519 C223.344545,49.5627218 223.229619,49.6776469 223.05973,49.6776469 L221.465768,49.6776469 C221.265898,49.6776469 221.150973,49.5627218 221.150973,49.3628519 L221.150973,35.8316643 C221.150973,35.6617749 221.265898,35.5168693 221.465768,35.5168693 L223.05973,35.5168693 C223.229619,35.5168693 223.344545,35.6617749 223.344545,35.8316643 L223.344545,49.3628519 Z M231.719091,41.8427495 C231.719091,42.0126388 231.579182,42.1575445 231.404296,42.1575445 L229.810334,42.1575445 C229.610464,42.1575445 229.495539,42.0176356 229.495539,41.8427495 L229.495539,38.824715 C229.495539,38.1701413 229.065818,37.7404212 228.411245,37.7404212 L224.393861,37.7404212 C224.024102,37.7404212 223.879196,37.4006424 224.164011,37.1158279 L225.533119,35.7217358 C225.703009,35.5768302 225.847914,35.521866 226.047784,35.521866 L227.901577,35.521866 C228.101447,35.521866 228.241355,35.5768302 228.416242,35.7217358 L231.494237,38.824715 C231.664126,38.9646239 231.724087,39.13951 231.724087,39.3393798 L231.724087,41.8477462 L231.719091,41.8427495 Z" id="Shape"></path>
            <path d="M174.87611,71.1136865 C175.095967,68.3404925 176.704919,66.7615209 179.368185,66.7615209 C181.751632,66.7615209 183.250656,68.370473 183.390565,71.1136865 L174.87611,71.1136865 Z M179.368185,79.2134114 C182.725998,79.2134114 184.969537,77.4945309 185.524175,75.0261384 C185.554156,74.91621 185.469211,74.8312654 185.304319,74.8312654 L183.530474,74.8312654 C183.390565,74.8312654 183.310617,74.8862296 183.280637,75.0261384 C182.810942,76.4402175 181.421847,77.3296383 179.368185,77.3296383 C176.649955,77.3296383 175.041003,75.6357414 174.87611,72.8375638 L185.389263,72.8375638 C185.529172,72.8375638 185.60912,72.7526191 185.60912,72.617707 L185.60912,72.0630682 C185.60912,67.5959774 183.250656,64.8777477 179.368185,64.8777477 C175.205895,64.8777477 172.517646,67.6809221 172.517646,72.0630682 C172.517646,76.4452143 175.180912,79.2184082 179.368185,79.2184082 M164.612794,79.2184082 C167.915643,79.2184082 170.214146,77.3895992 170.743801,74.6713695 C170.768785,74.5314606 170.658857,74.4764964 170.523944,74.4764964 L168.7501,74.4764964 C168.610191,74.4764964 168.530243,74.5314606 168.500262,74.6713695 C167.975604,76.4751947 166.671453,77.334635 164.617791,77.334635 C161.789633,77.334635 160.070752,75.3659172 160.070752,72.0630682 C160.070752,68.7602192 161.789633,66.7665176 164.617791,66.7665176 C166.616489,66.7665176 167.945624,67.6809221 168.360354,69.4297831 C168.415318,69.5946757 168.470282,69.6496399 168.610191,69.6496399 L170.414016,69.6496399 C170.553925,69.6496399 170.663853,69.5646953 170.633873,69.3998026 C170.164179,66.6815729 167.830698,64.8777477 164.612794,64.8777477 C160.480485,64.8777477 157.732275,67.76087 157.732275,72.0630682 C157.732275,76.3652663 160.425521,79.2184082 164.612794,79.2184082 M143.701413,79.0784993 L145.585186,79.0784993 C145.695115,79.0784993 145.780059,78.9935546 145.780059,78.8586425 L145.780059,71.063719 C145.780059,68.2905251 147.08421,66.8464655 149.522622,66.8464655 C151.961034,66.8464655 153.100292,68.2055804 153.100292,71.063719 L153.100292,78.8586425 C153.100292,78.9985514 153.185237,79.0784993 153.320149,79.0784993 L155.178938,79.0784993 C155.318847,79.0784993 155.398795,78.9935546 155.398795,78.8586425 L155.398795,71.063719 C155.398795,67.0113581 153.62495,64.8777477 150.377065,64.8777477 C148.323403,64.8777477 146.744431,65.7921522 145.775062,67.4560685 L145.690118,67.4560685 L145.690118,65.2375134 C145.690118,65.0976045 145.605173,65.0176566 145.470261,65.0176566 L143.696416,65.0176566 C143.586488,65.0176566 143.501543,65.1026012 143.501543,65.2375134 L143.501543,78.8586425 C143.501543,78.9985514 143.586488,79.0784993 143.696416,79.0784993 M130.160232,71.1186832 C130.380089,68.3454893 131.989041,66.7665176 134.652306,66.7665176 C137.035754,66.7665176 138.534778,68.3754698 138.674687,71.1186832 L130.160232,71.1186832 Z M134.652306,79.2184082 C138.010119,79.2184082 140.253658,77.4995276 140.808297,75.0311352 C140.838278,74.9212068 140.753333,74.8362621 140.58844,74.8362621 L138.814596,74.8362621 C138.674687,74.8362621 138.594739,74.8912263 138.564758,75.0311352 C138.095064,76.4452143 136.705969,77.334635 134.652306,77.334635 C131.934077,77.334635 130.325124,75.6407382 130.160232,72.8425605 L140.673385,72.8425605 C140.813294,72.8425605 140.893242,72.7576158 140.893242,72.6227037 L140.893242,72.0680649 C140.893242,67.6009742 138.534778,64.8827444 134.652306,64.8827444 C130.490017,64.8827444 127.801768,67.6859188 127.801768,72.0680649 C127.801768,76.450211 130.465033,79.2234049 134.652306,79.2234049 M122.640129,61.9696416 C122.640129,62.07957 122.725074,62.1645147 122.859986,62.1645147 L125.303395,62.1645147 C125.413323,62.1645147 125.498268,62.07957 125.498268,61.9696416 L125.498268,59.5262329 C125.498268,59.386324 125.413323,59.3063761 125.303395,59.3063761 L122.859986,59.3063761 C122.720077,59.3063761 122.640129,59.3913208 122.640129,59.5262329 L122.640129,61.9696416 Z M123.109823,79.083496 L124.993597,79.083496 C125.103525,79.083496 125.18847,78.9985514 125.18847,78.8636392 L125.18847,65.2425101 C125.18847,65.1026012 125.103525,65.0226533 124.993597,65.0226533 L123.109823,65.0226533 C122.999895,65.0226533 122.91495,65.107598 122.91495,65.2425101 L122.91495,78.8636392 C122.91495,79.0035481 122.999895,79.083496 123.109823,79.083496 M114.180639,79.2234049 C117.478491,79.2234049 119.781991,77.394596 120.311646,74.6763662 C120.33663,74.5364573 120.226701,74.4814931 120.086792,74.4814931 L118.312947,74.4814931 C118.173039,74.4814931 118.093091,74.5364573 118.06311,74.6763662 C117.538452,76.4801915 116.234301,77.3396318 114.180639,77.3396318 C111.352481,77.3396318 109.6336,75.3709139 109.6336,72.0680649 C109.6336,68.7652159 111.352481,66.7715143 114.180639,66.7715143 C116.179337,66.7715143 117.508471,67.6859188 117.923201,69.4347799 C117.978165,69.5996725 118.03313,69.6546367 118.173039,69.6546367 L119.976864,69.6546367 C120.116773,69.6546367 120.226701,69.569692 120.196721,69.4047994 C119.727027,66.6865697 117.393546,64.8827444 114.180639,64.8827444 C110.04833,64.8827444 107.30012,67.7658668 107.30012,72.0680649 C107.30012,76.3702631 109.988369,79.2234049 114.180639,79.2234049 M98.5907917,79.2234049 C102.698117,79.2234049 105.276438,77.1447587 105.276438,73.756965 C105.276438,70.6240054 103.832378,69.1249816 99.9249228,68.4054502 L97.8712603,68.0456845 C95.0680859,67.4910457 93.9338246,66.5466608 93.9338246,64.6329071 C93.9338246,62.7191535 95.4028679,61.5249312 98.0111692,61.5249312 C100.619471,61.5249312 102.118494,62.6641893 102.47826,64.9626924 C102.533224,65.1575655 102.618169,65.1825492 102.728097,65.1825492 L104.61187,65.1825492 C104.751779,65.1825492 104.861708,65.0976045 104.831727,64.9626924 C104.416997,61.549915 101.893641,59.5262329 98.0061725,59.5262329 C94.1187042,59.5262329 91.5703638,61.5249312 91.5703638,64.7977998 C91.5703638,67.7908505 93.2892444,69.4597636 97.1167517,70.179295 L99.1704142,70.5390607 C101.998572,71.0936995 102.887993,71.8981756 102.887993,73.8119292 C102.887993,75.9455397 101.254057,77.2247066 98.5907917,77.2247066 C95.5677605,77.2247066 93.9837921,76.0304843 93.514098,73.2572904 C93.4891142,73.0923978 93.4291533,73.0374336 93.2942411,73.0374336 L91.3804875,73.0374336 C91.2405786,73.0374336 91.1606307,73.1223783 91.1856144,73.2872709 C91.685289,77.1147782 94.318574,79.2234049 98.5907917,79.2234049" id="Shape"></path>
            <path d="M149.662531,19.6721883 C152.96538,19.6721883 155.263883,17.8433793 155.793538,15.1251496 C155.818522,14.9852407 155.708593,14.9302765 155.573681,14.9302765 L153.799836,14.9302765 C153.659927,14.9302765 153.579979,14.9852407 153.549999,15.1251496 C153.020344,16.9289748 151.72119,17.7884151 149.667527,17.7884151 C146.839369,17.7884151 145.120489,15.8196973 145.120489,12.5168483 C145.120489,9.21399929 146.839369,7.22029771 149.667527,7.22029771 C151.666226,7.22029771 152.99536,8.13470219 153.41009,9.88356323 C153.465054,10.0484558 153.520018,10.10342 153.659927,10.10342 L155.463753,10.10342 C155.603661,10.10342 155.71359,10.0184754 155.683609,9.85358275 C155.213915,7.13535303 152.880435,5.33152779 149.662531,5.33152779 C145.530222,5.33152779 142.782012,8.21465012 142.782012,12.5168483 C142.782012,16.8190464 145.470261,19.6721883 149.662531,19.6721883 M128.58126,12.5168483 C128.58126,9.27396024 130.300141,7.22029771 133.01837,7.22029771 C135.7366,7.22029771 137.485461,9.29894397 137.485461,12.5168483 C137.485461,15.7347526 135.766581,17.7884151 133.01837,17.7884151 C130.27016,17.7884151 128.58126,15.7647331 128.58126,12.5168483 M132.438748,19.6721883 C134.547375,19.6721883 136.431148,18.6478554 137.405513,16.9239781 L137.490458,16.9239781 L137.490458,17.8383826 C137.490458,18.9476601 138.155025,19.5322794 139.459176,19.5322794 L141.40291,19.5322794 C141.542819,19.5322794 141.622767,19.4473347 141.622767,19.3124226 L141.622767,17.8983435 C141.622767,17.7884151 141.537822,17.7034704 141.40291,17.7034704 L139.709013,17.7034704 L139.709013,5.69129349 C139.709013,5.5513846 139.624068,5.47143667 139.489156,5.47143667 L137.630367,5.47143667 C137.490458,5.47143667 137.41051,5.55638135 137.41051,5.69129349 L137.41051,8.13470219 L137.325565,8.13470219 C136.301232,6.36085742 134.497407,5.33152779 132.443745,5.33152779 C128.671202,5.33152779 126.257773,8.15968592 126.257773,12.5168483 C126.257773,16.8740106 128.671202,19.6721883 132.443745,19.6721883 M112.057022,12.5168483 C112.057022,9.27396024 113.775902,7.22029771 116.494132,7.22029771 C119.212362,7.22029771 120.961223,9.29894397 120.961223,12.5168483 C120.961223,15.7347526 119.242342,17.7884151 116.494132,17.7884151 C113.745922,17.7884151 112.057022,15.7647331 112.057022,12.5168483 M115.914509,19.6721883 C118.023136,19.6721883 119.906909,18.6478554 120.881275,16.9239781 L120.966219,16.9239781 L120.966219,17.8383826 C120.966219,18.9476601 121.630787,19.5322794 122.934937,19.5322794 L124.878671,19.5322794 C125.01858,19.5322794 125.098528,19.4473347 125.098528,19.3124226 L125.098528,17.8983435 C125.098528,17.7884151 125.013584,17.7034704 124.878671,17.7034704 L123.184775,17.7034704 L123.184775,5.69129349 C123.184775,5.5513846 123.09983,5.47143667 122.964918,5.47143667 L121.106128,5.47143667 C120.966219,5.47143667 120.881275,5.55638135 120.881275,5.69129349 L120.881275,8.13470219 L120.79633,8.13470219 C119.771997,6.36085742 117.968172,5.33152779 115.914509,5.33152779 C112.141966,5.33152779 109.728538,8.15968592 109.728538,12.5168483 C109.728538,16.8740106 112.141966,19.6721883 115.914509,19.6721883 M102.848019,19.6721883 C106.120888,19.6721883 107.949697,18.1731645 107.949697,15.5648632 C107.949697,13.2613634 107.060276,12.20705 103.927316,11.6274275 L102.318364,11.322626 C100.434591,10.9328798 99.8199912,10.3532573 99.8199912,9.18401881 C99.8199912,7.90984863 100.81934,7.13035628 102.513237,7.13035628 C104.207134,7.13035628 105.091558,7.76993975 105.371376,9.23898302 C105.39636,9.34891142 105.45632,9.46383658 105.621213,9.46383658 L107.425038,9.46383658 C107.564947,9.46383658 107.649892,9.3788919 107.619911,9.21399929 C107.285129,6.74560685 105.45632,5.33152779 102.518234,5.33152779 C99.5801474,5.33152779 97.5814491,6.91549621 97.5814491,9.32392769 C97.5814491,11.5724633 98.800655,12.7367051 101.658794,13.2913439 L103.157817,13.5661649 C105.101552,13.9559111 105.711155,14.4555856 105.711155,15.6747916 C105.711155,17.0339065 104.626861,17.8633663 102.853016,17.8633663 C100.854318,17.8633663 99.8000042,17.0888707 99.470219,15.3949739 C99.4402385,15.255065 99.4152548,15.175117 99.2503622,15.175117 L97.4765174,15.175117 C97.3366085,15.175117 97.2566606,15.2600617 97.2816443,15.4249543 C97.5864458,18.1731645 99.5551637,19.6671915 102.858013,19.6671915 M92.2049506,19.5272827 L94.1486847,19.5272827 C94.2885936,19.5272827 94.3685415,19.442338 94.3685415,19.3074258 L94.3685415,0.33478197 C94.3685415,0.194873087 94.2835968,0.114925154 94.1486847,0.114925154 L92.2049506,0.114925154 C92.0950221,0.114925154 92.0100775,0.199869833 92.0100775,0.33478197 L92.0100775,19.3074258 C92.0100775,19.4473347 92.0950221,19.5272827 92.2049506,19.5272827" id="Shape"></path>
            <path d="M18.4379921,71.928156 L19.5622599,73.0574206 L26.7375869,65.8820936 L26.7375869,65.6222628 L38.8696857,65.6222628 L38.2800697,65.0326468 L26.7375869,65.0326468 L26.7375869,63.6285612 L18.4329953,71.9331528 L18.4379921,71.928156 Z M0.0649576956,53.4851672 L0.0349772207,53.5151477 L0.879427264,54.3595977 L1.75385778,53.4851672 L0.0649576956,53.4851672 Z M3.74755936,53.4851672 L1.87377968,55.3589469 L2.74321345,56.2283807 L5.48642691,53.4851672 L3.74256262,53.4851672 L3.74755936,53.4851672 Z M7.43016103,53.4851672 L3.71757889,57.1977494 L4.61699313,58.0971636 L9.22898952,53.4851672 L7.43016103,53.4851672 L7.43016103,53.4851672 Z M11.1127627,53.4851672 L5.55638135,59.0415486 L6.48077932,59.9709433 L12.9615586,53.490164 L11.107766,53.490164 L11.1127627,53.4851672 Z M14.7953644,53.4851672 L7.40018055,60.880351 L8.35455901,61.8347295 L16.7041213,53.4851672 L14.7903676,53.4851672 L14.7953644,53.4851672 Z M18.477966,53.4851672 L9.24397976,62.7191535 L10.2283387,63.7035124 L20.4466839,53.4851672 L18.477966,53.4851672 Z M22.1605677,53.4851672 L11.0827822,64.5629527 L12.0971216,65.5772921 L24.1892465,53.4851672 L22.1655644,53.4851672 L22.1605677,53.4851672 Z M53.4951607,53.4851672 L25.8381726,53.4851672 L12.9215847,66.4017552 L13.9609078,67.4410783 L26.7425836,54.6544057 L26.7425836,53.4801705 L27.2922257,54.0298125 L53.4851672,54.0298125 C53.4851672,54.0298125 53.4851672,54.0298125 53.4851672,54.0298125 L54.0348093,54.0298125 L54.4845164,54.4795196 L53.4851672,54.4795196 L53.4851672,54.1097605 L27.3721736,54.1097605 L28.3965065,55.1340933 L26.7425836,55.1340933 L26.7425836,55.8736117 L29.1360249,55.8736117 L29.6906636,56.4282505 L53.4851672,56.4282505 C53.4851672,56.4282505 56.4332473,56.4282505 56.4332473,56.4282505 L56.9229283,56.9179316 L53.4851672,56.9179316 L53.4851672,56.5481724 L29.8105855,56.5481724 L30.8698957,57.6074825 L26.7425836,57.6074825 L26.7425836,56.2583612 L14.7603871,68.2405576 L15.8296907,69.3098612 L26.7425836,58.3969684 L26.7425836,58.3120237 L31.5694401,58.3120237 L32.0891016,58.8316852 L53.4851672,58.8316852 C53.4851672,58.8316852 58.8316852,58.8316852 58.8316852,58.8316852 L59.3563436,59.3563436 L53.4851672,59.3563436 L53.4851672,58.9865844 L32.2440008,58.9865844 L33.3382881,60.0808717 L26.7375869,60.0808717 L26.7375869,59.9409628 L16.5941929,70.0843568 L17.6934769,71.1836409 L26.7375869,62.139531 L26.7375869,60.7504356 L34.0028553,60.7504356 L34.4875396,61.23512 L53.4851672,61.23512 C53.4851672,61.23512 61.2301232,61.23512 61.2301232,61.23512 L61.7947555,61.7947555 L53.4851672,61.7947555 L53.4851672,61.4249963 L34.6824127,61.4249963 L35.8116773,62.5542609 L26.7425836,62.5542609 L26.7425836,63.1838509 L36.4412672,63.1838509 L36.8909744,63.633558 L53.490164,63.633558 C53.490164,63.633558 63.633558,63.633558 63.633558,63.633558 L64.2331675,64.2331675 L53.490164,64.2331675 L53.490164,63.8634083 L37.1208247,63.8634083 L39.2894124,66.031996 L53.4851672,66.031996 C53.4851672,66.031996 66.0269992,66.031996 66.0269992,66.031996 L66.6615859,66.6665827 L53.4801705,66.6665827 L53.4801705,66.2968235 L39.5492431,66.2968235 L40.7534589,67.5010392 L26.7375869,67.5010392 L26.7375869,67.3061662 L20.2767945,73.7669585 L21.4310428,74.9212068 L26.7375869,69.6146627 L26.7375869,68.055678 L41.3031009,68.055678 L41.6778569,68.430434 L53.4751737,68.430434 C53.4751737,68.430434 68.4154437,68.430434 68.4154437,68.430434 L69.0900044,69.1049946 L53.4751737,69.1049946 L53.4751737,68.7352355 L41.9776616,68.7352355 L43.2168546,69.9744284 L26.7425836,69.9744284 L26.7425836,70.4890932 L43.7465096,70.4890932 L44.0862883,70.828872 L53.4851672,70.828872 C53.4851672,70.828872 70.828872,70.828872 70.828872,70.828872 L71.5384099,71.5384099 L53.4851672,71.5384099 L53.4851672,71.1686507 L44.4260671,71.1686507 C44.4260671,71.1686507 45.705234,72.4478176 45.705234,72.4478176 L26.7425836,72.4478176 L26.7425836,70.9887678 L22.1205937,75.6107577 L23.3048225,76.7949865 L26.7425836,73.3572253 L26.7425836,72.9275052 L46.1799248,72.9275052 L46.4847263,73.2323067 L53.4851672,73.2323067 C53.4851672,73.2323067 73.2273099,73.2323067 73.2273099,73.2323067 L73.9718251,73.9768218 L53.4851672,73.9768218 L53.4851672,73.6070626 L46.8594823,73.6070626 L48.1736264,74.9212068 L26.7425836,74.9212068 L26.7425836,74.6713695 L23.9643929,77.4495602 L25.1736054,78.6587726 L26.7425836,77.0897945 L26.7425836,75.3559237 L48.6183368,75.3559237 L48.8881611,75.6257479 L53.490164,75.6257479 C53.490164,75.6257479 75.6307447,75.6257479 75.6307447,75.6257479 L76.4152338,76.410237 L53.490164,76.410237 L53.490164,76.0404778 L49.302891,76.0404778 L50.6520123,77.3895992 L26.7425836,77.3895992 L26.7425836,77.7893389 L51.051752,77.7893389 L51.2865991,78.0241859 L53.490164,78.0241859 C53.490164,78.0241859 78.0291827,78.0241859 78.0291827,78.0241859 L78.848649,78.8436522 L53.490164,78.8436522 L53.490164,78.4738931 L51.7363062,78.4738931 L53.1254015,79.8629884 L26.7425836,79.8629884 L26.7425836,78.3489744 L25.8031954,79.2883626 L26.7425836,80.2277508 L80.2277508,80.2277508 L80.2277508,53.4851672 L53.4851672,53.4851672 L53.4951607,53.4851672 Z M0,44.7508555 L0,45.5553316 L18.8077513,45.5553316 L18.0032752,44.7508555 L0,44.7508555 Z M0,35.0072012 L0,35.9565829 L9.21399929,35.9565829 L8.26461758,35.0072012 L0,35.0072012 Z M0,32.5687892 L0,33.5581449 L6.81556129,33.5581449 L5.82620562,32.5687892 L0,32.5687892 Z M0,30.1303773 L0,31.1547102 L4.4171233,31.1547102 L3.39279041,30.1303773 L0,30.1303773 Z M0,27.6969621 L0,28.7562722 L2.01368856,28.7562722 L0.954378451,27.6969621 L0,27.6969621 Z M25.8931368,25.8931368 L26.7425836,26.7425836 L26.7425836,25.8931368 L25.8931368,25.8931368 Z M79.2184082,25.733241 L80.2277508,26.7425836 L80.2277508,24.7189016 L79.2184082,25.7282442 L79.2184082,25.733241 Z M77.3796057,23.8944385 L78.6487792,25.1636119 L80.2327476,23.5796435 L80.2327476,21.0462934 L77.3796057,23.8994352 L77.3796057,23.8944385 Z M23.5246793,23.5296761 L23.5596565,23.5646533 L20.3767294,26.7475804 L20.306775,26.7475804 L23.5246793,23.5296761 Z M19.7871134,19.7921102 L19.8770549,19.8820516 L13.0115261,26.7475804 L12.8316433,26.7475804 L19.7871134,19.7921102 Z M0,25.0286998 L0,26.7425836 L10.6980328,37.4406164 L0,37.4406164 L0,38.3550209 L11.6124373,38.3550209 L13.5811551,40.3237387 L13.1364448,39.8790284 L0,39.8790284 L0,40.7584556 L14.0108753,40.7584556 L15.56986,42.3174403 L0,42.3174403 L0,43.1568936 L16.4093133,43.1568936 L20.4416871,47.1892675 L0,47.1892675 L0,47.9537696 L21.211186,47.9537696 L22.8800991,49.6226827 L0,49.6226827 L0,50.3522076 L23.609624,50.3522076 L25.3185111,52.0610947 L0,52.0610947 L0,52.7556423 L26.008062,52.7556423 L26.7425836,53.490164 L26.7425836,26.7425836 L25.398459,25.398459 L24.0543344,26.7425836 L24.0443409,26.7425836 L25.3934622,25.3934622 L25.1835989,25.1835989 L26.7425836,25.1835989 L26.7425836,23.4547249 L23.4547249,23.4547249 L21.7158573,21.7158573 L16.6941278,26.7425836 L16.5692091,26.7425836 L21.6558964,21.6558964 L21.7158573,21.7158573 L22.7851609,22.7801642 L26.7425836,22.7801642 L26.7425836,21.0163129 L21.0213097,21.0163129 L20.3867229,20.3817262 L26.7425836,20.3817262 L26.7425836,18.5828977 L18.5828977,18.5828977 L18.0332557,18.0332557 L9.32892444,26.7375869 L9.08908064,26.7375869 L17.9133338,17.9133338 L17.9832882,17.9832882 L26.7375869,17.9832882 L26.7375869,16.1444857 L16.1444857,16.1444857 L16.1894564,16.1894564 L5.65131952,26.7425836 L5.35651152,26.7425836 L16.0495476,16.0495476 L14.3556507,14.3556507 L1.96871785,26.7425836 L1.61894564,26.7425836 L14.1807646,14.1807646 L14.3556507,14.3556507 L15.5848502,15.5898469 L26.7425836,15.5898469 L26.7425836,13.7160673 L13.7110705,13.7160673 L13.1864122,13.191409 L12.5118515,12.5168483 L0,25.0286998 Z M0,17.6634965 L0,20.8814008 L10.4431988,10.438202 L10.6730491,10.6730491 L0,21.3460981 L0,24.6189666 L12.3119817,12.3119817 L12.5168483,12.5168483 L13.191409,13.191409 L26.7475804,13.191409 L26.7475804,11.2826521 L11.2776553,11.2826521 L10.7879742,10.792971 L26.7425836,10.792971 L26.7425836,8.8442401 L8.83924335,8.8442401 L8.82924986,8.8342466 L0,17.6634965 Z M6.40582814,6.40582814 L6.70563289,6.70563289 L6.99544414,6.99544414 L0,13.9858915 L0,17.1438349 L8.56941908,8.56941908 L8.38953623,8.38953623 L26.7425836,8.38953623 L26.7425836,6.40582814 L6.40582814,6.40582814 Z M70.0144024,16.5292352 L71.1686507,17.6834834 L80.2277508,8.62438328 L80.2277508,6.31588671 L70.0144024,16.5292352 Z M3.96741618,3.96741618 L4.8318532,4.8318532 L5.14664819,5.15164494 L0,10.3032899 L0,13.406269 L6.70063614,6.70063614 L5.98610149,5.99109823 L26.7425836,5.99109823 L26.7425836,3.96741618 L3.96741618,3.96741618 Z M0,6.62068821 L0,9.66870316 L4.8318532,4.8318532 L3.30784573,3.30784573 L0,6.62068821 Z M1.53400097,1.53400097 L2.96806702,2.96806702 L3.59765699,3.59266024 L26.7425836,3.59266024 L26.7425836,1.53400097 L1.53400097,1.53400097 Z M0,2.93808654 L0,5.92614054 L2.96307027,2.96307027 L1.53400097,1.53400097 L1.47404002,1.46904327 L0,2.93808654 Z M0,2.18857467 L1.09428733,1.09428733 L0,0 L0,2.18857467 Z M57.087821,0 L55.2839957,1.80382524 L56.2133904,2.73321996 L58.9416137,0.00499674582 L57.087821,0.00499674582 L57.087821,0 Z M71.8132309,0 L62.6491991,9.16403183 L61.8197392,8.33457202 L70.159308,0 L68.135626,0 L60.8103966,7.32522937 L59.9559531,6.47078583 L66.4217421,0 L64.4530243,0 L58.9715941,5.48143016 L58.0871701,4.59700615 L62.6841763,0 L60.7704226,0 L57.1277949,3.6426277 L56.2133904,2.72822322 L54.3446075,0.85944028 L55.2040478,0 L52.3209254,0 L53.4851672,1.16424178 L53.4851672,2.42342172 L51.0617455,0 L48.6383238,0 L53.4851672,4.84684344 L53.4851672,6.16098759 L47.3241796,0 L44.9557221,0 L53.4851672,8.52944511 L53.4851672,9.90355021 L43.5866138,0 L41.2781172,0 L53.4851672,12.20705 L53.4851672,13.6361193 L39.8490479,0 L37.5955155,0 L53.4851672,15.8896517 L53.4851672,17.378682 L36.111482,0 L33.9179106,0 L53.490164,19.5722534 L53.490164,21.1162478 L32.3689194,0 L30.2303122,0 L53.4851672,23.254855 L53.4851672,24.8538137 L28.6313535,0 L0,0 L1.19422225,1.19422225 L26.7425836,1.19422225 L26.7425836,0 L53.4851672,26.7425836 L80.2277508,26.7425836 L79.2184082,25.733241 L77.3796057,23.8944385 L76.7799962,23.294829 L80.2327476,19.8420776 L80.2327476,17.3636917 L75.5408033,22.055636 L74.9112133,21.4260461 L80.2327476,16.1045118 L80.2327476,13.68109 L73.6970041,20.2168336 L73.0374336,19.5572631 L80.2277508,12.3669459 L80.2277508,10.0034851 L71.8532048,18.3780311 L69.2998677,15.824694 L80.2277508,4.8968109 L80.2277508,2.63328505 L68.1706032,14.6904327 L68.7951964,15.3150259 L66.3318007,12.8516302 L64.4929983,11.0128278 L63.6935189,10.2133484 L73.8968739,0 L71.8132309,0 Z M75.4958325,0 L64.4880015,11.007831 L65.5573051,12.0771346 L77.6394365,0 L75.5008293,0 L75.4958325,0 Z M79.1784342,0 L66.3318007,12.8466335 L67.4310848,13.9459176 L80.2277508,1.14425479 L80.2277508,0 L79.1784342,0 Z" id="Shape"></path>
        </g>
    </g>
</svg>