<svg width="186" height="81" viewBox="0 0 186 81" fill="none" xmlns="http://www.w3.org/2000/svg">
<path d="M85.1302 26.7428C85.1322 26.9066 85.0661 27.064 84.9474 27.1776C84.8354 27.2946 84.6797 27.3604 84.5173 27.3593H83.675C83.5126 27.3604 83.3569 27.2946 83.2449 27.1776C83.1267 27.0644 83.0606 26.9078 83.0621 26.7446V16.1277C83.0621 15.962 83.1231 15.8177 83.2449 15.6947C83.3569 15.5777 83.5126 15.5119 83.675 15.513H84.5173C84.6839 15.513 84.8273 15.5736 84.9474 15.6947C85.0692 15.8177 85.1302 15.962 85.1302 16.1277V26.7446V26.7428ZM85.3578 13.0988C85.3593 13.262 85.2932 13.4186 85.175 13.5318C85.063 13.6488 84.9073 13.7146 84.7449 13.7135H83.4492C83.2868 13.7146 83.1311 13.6488 83.0191 13.5318C82.9009 13.4186 82.8348 13.262 82.8363 13.0988V11.8C82.8363 11.6325 82.8955 11.4882 83.0173 11.367C83.1293 11.25 83.285 11.1842 83.4474 11.1853H84.7431C84.9098 11.1853 85.0549 11.2459 85.175 11.367C85.2968 11.4882 85.3578 11.6343 85.3578 11.8V13.0988ZM95.2606 24.0793C95.2705 23.8192 95.1859 23.5643 95.0223 23.3612C94.825 23.1446 94.5795 22.9768 94.3054 22.8713C93.9115 22.7103 93.5052 22.581 93.0904 22.4847C92.5211 22.3453 91.9493 22.2158 91.3755 22.0963C90.1497 21.8379 89.2895 21.4103 88.7985 20.8099C88.3086 20.2167 88.0469 19.4696 88.0602 18.7022C88.0544 17.7846 88.4525 16.9105 89.1497 16.3094C89.5135 15.9923 89.9723 15.741 90.5242 15.5593C91.078 15.3758 91.7249 15.2849 92.4668 15.2849C93.2087 15.2849 93.8557 15.3687 94.4094 15.5344C94.9613 15.7036 95.4273 15.9156 95.8054 16.174C96.1835 16.4323 96.472 16.7085 96.6692 17.006C96.8663 17.3018 96.972 17.5868 96.9864 17.8612C97.0024 18.0238 96.9391 18.1841 96.8161 18.2924C96.6987 18.409 96.5394 18.4743 96.3735 18.4741H95.6244C95.5123 18.4707 95.4013 18.4515 95.2947 18.4171C95.1519 18.3695 95.0282 18.2777 94.9416 18.1552C94.7089 17.8701 94.4083 17.6472 94.0671 17.5067C93.6818 17.3321 93.1478 17.2448 92.4668 17.2448C91.7697 17.2448 91.2052 17.3731 90.7751 17.6314C90.3432 17.8897 90.1264 18.2461 90.1264 18.7022C90.1264 18.9908 90.1873 19.2224 90.3092 19.397C90.4629 19.5977 90.6668 19.755 90.9006 19.8531C91.1712 19.9814 91.5314 20.099 91.9776 20.2059C92.4256 20.3128 92.9811 20.4411 93.6478 20.5925C94.3449 20.7457 94.9273 20.9382 95.3968 21.1733C95.8663 21.4103 96.2444 21.6758 96.533 21.9715C96.8197 22.2673 97.024 22.5951 97.1459 22.9515C97.2659 23.3078 97.3268 23.6837 97.3268 24.0793C97.3268 24.5336 97.2175 24.9754 96.9971 25.3995C96.7686 25.8357 96.4469 26.217 96.0545 26.5166C95.6062 26.8564 95.1033 27.1185 94.5671 27.2916C93.9254 27.4979 93.254 27.5978 92.5797 27.5874C91.8378 27.5874 91.1801 27.4965 90.6031 27.313C90.0833 27.156 89.5872 26.9301 89.1282 26.6413C88.7617 26.4147 88.4418 26.1208 88.1856 25.7754C87.9652 25.4654 87.8487 25.1714 87.8326 24.8988C87.8153 24.7377 87.8742 24.5778 87.9921 24.4659C88.1113 24.3454 88.2755 24.2796 88.4455 24.2841H89.2644C89.354 24.2841 89.4615 24.2948 89.5816 24.318C89.7035 24.3412 89.8164 24.4285 89.9221 24.5799C90.164 24.9149 90.4974 25.1714 90.9221 25.3549C91.3468 25.5367 91.8987 25.6275 92.5797 25.6275C92.913 25.6275 93.2428 25.5901 93.5689 25.5135C93.8933 25.4387 94.1818 25.3318 94.4309 25.1946C94.6818 25.0574 94.8825 24.8953 95.033 24.7046C95.1795 24.5287 95.2599 24.3076 95.2606 24.0793ZM99.1906 24.375C99.1906 23.7675 99.3106 23.2347 99.5526 22.7804C99.7963 22.3243 100.128 21.9377 100.553 21.6188C100.977 21.2981 101.472 21.0415 102.04 20.8437C102.608 20.6478 103.21 20.4945 103.846 20.3876L107.049 19.8638V19.5681C107.049 18.793 106.796 18.214 106.287 17.8256C105.78 17.439 105.149 17.2448 104.391 17.2448C103.724 17.2448 103.221 17.3659 102.88 17.6082C102.54 17.8523 102.248 18.1409 102.006 18.4741C101.931 18.5823 101.829 18.6689 101.71 18.7253C101.573 18.7759 101.427 18.7989 101.28 18.793H100.599C100.433 18.7937 100.273 18.7283 100.155 18.6113C100.031 18.5026 99.9678 18.3415 99.9845 18.1784C100.015 17.8452 100.148 17.5013 100.382 17.1539C100.617 16.8047 100.934 16.4929 101.336 16.2203C101.737 15.9459 102.199 15.7214 102.723 15.5468C103.244 15.3722 103.802 15.2849 104.391 15.2849C105.072 15.2849 105.705 15.3847 106.287 15.5825C106.871 15.7785 107.371 16.0671 107.787 16.4466C108.203 16.8261 108.529 17.2982 108.764 17.8594C108.998 18.4207 109.115 19.0674 109.115 19.7961V26.7446C109.117 26.9073 109.053 27.0638 108.936 27.1776C108.823 27.2956 108.666 27.3614 108.502 27.3593H107.662C107.499 27.3604 107.343 27.2946 107.231 27.1776C107.113 27.0644 107.047 26.9078 107.049 26.7446V25.8092C106.902 26.1113 106.684 26.3736 106.413 26.5736C106.11 26.8022 105.778 26.9898 105.425 27.1312C105.054 27.2827 104.667 27.3985 104.266 27.4733C103.896 27.5462 103.519 27.5844 103.142 27.5874C102.591 27.5938 102.042 27.5095 101.518 27.3379C101.064 27.191 100.641 26.9628 100.269 26.6645C99.5829 26.1006 99.1869 25.2603 99.1906 24.375ZM103.37 25.6275C103.914 25.6275 104.414 25.5438 104.868 25.3781C105.323 25.2106 105.712 24.979 106.038 24.6832C106.364 24.3857 106.613 24.0329 106.787 23.6231C106.961 23.2134 107.049 22.7573 107.049 22.2566V21.6865L104.368 22.1194C103.414 22.2709 102.658 22.5149 102.097 22.8499C101.536 23.1831 101.257 23.616 101.257 24.147C101.258 24.3199 101.297 24.4906 101.37 24.6476C101.447 24.8151 101.567 24.9754 101.733 25.1269C101.9 25.2783 102.117 25.3995 102.38 25.4903C102.646 25.583 102.975 25.6275 103.37 25.6275ZM111.592 24.375C111.592 23.7675 111.713 23.2347 111.955 22.7804C112.197 22.3243 112.529 21.9377 112.955 21.6188C113.378 21.2981 113.875 21.0415 114.443 20.8437C115.011 20.6478 115.611 20.4945 116.247 20.3876L119.451 19.8638V19.5681C119.451 18.793 119.197 18.214 118.69 17.8256C118.183 17.439 117.55 17.2448 116.794 17.2448C116.127 17.2448 115.624 17.3659 115.283 17.6082C114.943 17.8523 114.651 18.1409 114.409 18.4741C114.334 18.5823 114.232 18.6689 114.113 18.7253C113.975 18.7759 113.829 18.7989 113.683 18.793H113C112.834 18.7932 112.675 18.7279 112.557 18.6113C112.434 18.5026 112.371 18.3415 112.387 18.1784C112.418 17.8452 112.549 17.5013 112.783 17.1539C113.018 16.8047 113.337 16.4929 113.738 16.2203C114.14 15.9459 114.6 15.7214 115.124 15.5468C115.647 15.3722 116.202 15.2849 116.794 15.2849C117.475 15.2849 118.107 15.3847 118.69 15.5825C119.272 15.7785 119.772 16.0671 120.188 16.4466C120.606 16.8261 120.932 17.2982 121.165 17.8594C121.399 18.4207 121.518 19.0674 121.518 19.7961V26.7446C121.52 26.9075 121.454 27.0641 121.337 27.1776C121.224 27.2951 121.068 27.3609 120.905 27.3593H120.063C119.9 27.3604 119.744 27.2946 119.632 27.1776C119.515 27.0641 119.449 26.9075 119.451 26.7446V25.8092C119.305 26.1113 119.086 26.3736 118.815 26.5736C118.512 26.8024 118.179 26.9899 117.826 27.1312C117.455 27.2827 117.07 27.3985 116.668 27.4733C116.298 27.5463 115.921 27.5845 115.543 27.5874C114.992 27.5938 114.443 27.5095 113.919 27.3379C113.465 27.191 113.042 26.9628 112.67 26.6645C111.984 26.1006 111.588 25.2603 111.592 24.375ZM115.771 25.6275C116.315 25.6275 116.815 25.5438 117.271 25.3781C117.724 25.2106 118.113 24.979 118.441 24.6832C118.765 24.3857 119.014 24.0329 119.19 23.6231C119.364 23.2134 119.451 22.7573 119.451 22.2566V21.6865L116.771 22.1194C115.817 22.2709 115.059 22.5149 114.498 22.8499C113.939 23.1831 113.658 23.616 113.658 24.147C113.66 24.3201 113.699 24.4908 113.772 24.6476C113.848 24.8151 113.97 24.9754 114.136 25.1269C114.303 25.2783 114.518 25.3995 114.781 25.4903C115.048 25.583 115.378 25.6275 115.771 25.6275ZM126.356 22.2334C126.415 22.841 126.548 23.3559 126.754 23.7835C126.958 24.2075 127.207 24.5567 127.503 24.8311C127.799 25.1037 128.127 25.305 128.491 25.4333C128.854 25.5634 129.225 25.6293 129.603 25.6293C130.331 25.6293 130.951 25.4903 131.467 25.2177C131.981 24.9451 132.381 24.4873 132.67 23.8512C132.777 23.6071 132.885 23.445 132.999 23.3612C133.122 23.2749 133.27 23.2311 133.42 23.2365H134.101C134.268 23.2365 134.415 23.2971 134.544 23.4183C134.673 23.5394 134.729 23.6855 134.714 23.8512C134.684 24.2699 134.564 24.6775 134.363 25.0467C134.12 25.509 133.788 25.9194 133.386 26.2547C132.955 26.627 132.424 26.9406 131.795 27.199C131.168 27.4573 130.437 27.5874 129.603 27.5874C128.845 27.6016 128.091 27.4622 127.388 27.1776C126.772 26.9219 126.215 26.5415 125.754 26.0605C125.301 25.579 124.946 25.0144 124.709 24.3982C124.455 23.7426 124.313 23.0495 124.288 22.3475C124.271 22.0478 124.26 21.7478 124.254 21.4477C124.247 21.0914 124.258 20.7832 124.29 20.5248C124.349 19.7943 124.505 19.112 124.756 18.4759C125.005 17.8363 125.347 17.2822 125.788 16.8118C126.227 16.3415 126.765 15.9691 127.401 15.6947C128.037 15.4221 128.77 15.2849 129.605 15.2849C130.437 15.2849 131.168 15.415 131.795 15.6733C132.424 15.9317 132.955 16.2453 133.386 16.6176C133.817 16.9918 134.143 17.3926 134.363 17.8256C134.582 18.2585 134.7 18.6576 134.714 19.0211C134.731 19.1842 134.668 19.3454 134.544 19.454C134.427 19.5706 134.267 19.636 134.101 19.6358H133.42C133.27 19.6412 133.122 19.5974 132.999 19.5111C132.886 19.4273 132.775 19.2652 132.67 19.0211C132.383 18.3833 131.981 17.9272 131.467 17.6546C130.951 17.382 130.331 17.2448 129.603 17.2448C129.225 17.2448 128.851 17.3089 128.48 17.439C128.108 17.5681 127.767 17.7732 127.48 18.0412C127.184 18.3156 126.935 18.6648 126.731 19.0906C126.51 19.5791 126.382 20.1041 126.354 20.6388C126.309 21.1694 126.309 21.7029 126.354 22.2334H126.356ZM84.5854 41.3846C84.6445 41.9904 84.7771 42.507 84.9814 42.9347C85.1875 43.3587 85.4366 43.7079 85.7323 43.9823C86.0262 44.2549 86.3559 44.4562 86.7197 44.5845C87.0835 44.7145 87.4545 44.7805 87.8326 44.7805C88.5602 44.7805 89.1802 44.6415 89.6963 44.3689C90.2106 44.0963 90.6102 43.6384 90.8988 43.0024C91.0063 42.7583 91.1138 42.5961 91.2285 42.5124C91.3513 42.4261 91.4993 42.3822 91.6496 42.3877H92.3306C92.4973 42.3877 92.6442 42.4483 92.7732 42.5694C92.9023 42.6906 92.9578 42.8349 92.9435 43.0024C92.913 43.4211 92.7933 43.8286 92.5923 44.1979C92.3493 44.6601 92.0175 45.0706 91.6156 45.4058C91.1837 45.7782 90.6533 46.0918 90.0243 46.3501C89.397 46.6084 88.6659 46.7385 87.8326 46.7385C87.0739 46.7528 86.3203 46.6133 85.6176 46.3287C85.0008 46.0731 84.4442 45.6927 83.9833 45.2116C83.5298 44.7302 83.1749 44.1656 82.9385 43.5493C82.6846 42.8937 82.5423 42.2007 82.5174 41.4986C82.5 41.199 82.4887 40.899 82.4833 40.5989C82.4761 40.2425 82.4869 39.9343 82.5192 39.676C82.5783 38.9455 82.7342 38.2631 82.9851 37.6271C83.2324 36.9874 83.5765 36.4333 84.0173 35.963C84.4564 35.4926 84.994 35.1203 85.6301 34.8459C86.2663 34.5733 86.9993 34.4361 87.8344 34.4361C88.6659 34.4361 89.397 34.5662 90.0243 34.8245C90.6515 35.0828 91.1837 35.3964 91.6156 35.7688C92.0457 36.1429 92.3718 36.5438 92.5923 36.9767C92.8109 37.4097 92.9292 37.8088 92.9435 38.1722C92.9601 38.3354 92.8968 38.4965 92.7732 38.6052C92.6558 38.7218 92.4966 38.7871 92.3306 38.7869H91.6496C91.4993 38.7924 91.3513 38.7485 91.2285 38.6622C91.1156 38.5785 91.0045 38.4163 90.8988 38.1722C90.612 37.5344 90.2106 37.0783 89.6945 36.8057C89.1802 36.5331 88.5602 36.3959 87.8326 36.3959C87.4545 36.3959 87.0799 36.4601 86.709 36.5901C86.337 36.7192 85.9964 36.9244 85.709 37.1923C85.4133 37.4667 85.1642 37.8159 84.9599 38.2417C84.7393 38.7302 84.6116 39.2552 84.5836 39.79C84.5381 40.3206 84.5381 40.854 84.5836 41.3846H84.5854ZM100.678 34.4361C101.495 34.4361 102.223 34.5608 102.859 34.812C103.493 35.0615 104.04 35.4089 104.493 35.849C104.948 36.289 105.307 36.8253 105.572 37.4542C105.837 38.0849 106 38.7727 106.061 39.5174C106.076 39.6528 106.083 39.8167 106.083 40.0056V41.1904C106.083 41.381 106.076 41.536 106.061 41.6572C105.997 42.3691 105.828 43.0678 105.56 43.7311C105.303 44.3546 104.948 44.8856 104.493 45.3256C104.023 45.7762 103.468 46.1288 102.859 46.3626C102.223 46.612 101.497 46.7367 100.678 46.7367C99.859 46.7367 99.1332 46.612 98.497 46.3626C97.8875 46.129 97.3312 45.7764 96.8609 45.3256C96.3973 44.8715 96.0304 44.3292 95.7821 43.7311C95.5083 43.0704 95.3437 42.3701 95.2947 41.6572C95.2764 41.5021 95.2644 41.3464 95.2588 41.1904C95.2431 40.7956 95.2431 40.4004 95.2588 40.0056C95.2652 39.8425 95.2771 39.6797 95.2947 39.5174C95.3463 38.8084 95.5108 38.112 95.7821 37.4542C96.0285 36.8519 96.3955 36.3058 96.8609 35.849C97.3312 35.3982 97.8875 35.0456 98.497 34.812C99.1332 34.5626 99.859 34.4379 100.678 34.4379V34.4361ZM103.993 41.5449C104.024 41.2866 104.04 40.9713 104.04 40.5989C104.04 40.2265 104.024 39.904 103.993 39.6297C103.953 39.1933 103.854 38.7643 103.699 38.354C103.421 37.5803 102.827 36.9597 102.063 36.6454C101.623 36.4701 101.152 36.3852 100.678 36.3959C100.148 36.3959 99.6852 36.4797 99.2927 36.6454C98.5288 36.9601 97.9344 37.5814 97.6566 38.3558C97.5061 38.7495 97.4057 39.1753 97.3609 39.6297C97.3284 39.9517 97.3135 40.2752 97.3161 40.5989C97.3161 40.9713 97.3304 41.2866 97.3609 41.5432C97.4075 41.9993 97.5043 42.4251 97.6566 42.8188C97.9348 43.5925 98.5291 44.2132 99.2927 44.5275C99.687 44.6949 100.148 44.7787 100.678 44.7787C101.208 44.7787 101.669 44.6949 102.063 44.5292C102.827 44.2145 103.422 43.5932 103.699 42.8188C103.85 42.4251 103.948 41.9993 103.993 41.5432V41.5449ZM111.183 35.9861C111.33 35.7903 111.49 35.6034 111.66 35.4267C112.056 35.0152 112.559 34.7199 113.113 34.5733C113.432 34.4824 113.803 34.4361 114.226 34.4361C115.151 34.4361 115.914 34.6071 116.52 34.9492C117.125 35.2913 117.604 35.7812 117.952 36.4191C118.149 36.1447 118.357 35.8864 118.577 35.6441C119.048 35.1234 119.664 34.7543 120.347 34.584C120.718 34.486 121.154 34.4361 121.654 34.4361C123.183 34.4361 124.297 34.8958 124.992 35.8151C125.69 36.7327 126.037 37.9887 126.037 39.5851V45.8958C126.039 46.0587 125.974 46.2152 125.856 46.3287C125.744 46.4463 125.587 46.5121 125.424 46.5105H124.584C124.421 46.5116 124.266 46.4458 124.154 46.3287C124.036 46.2155 123.969 46.0589 123.971 45.8958V39.8132C123.971 38.6426 123.743 37.7821 123.29 37.228C122.835 36.6721 122.168 36.3959 121.29 36.3959C120.487 36.3959 119.84 36.6614 119.349 37.1923C118.856 37.7251 118.611 38.5446 118.611 39.6528V45.8958C118.613 46.0589 118.546 46.2155 118.428 46.3287C118.316 46.4458 118.161 46.5116 117.998 46.5105H117.156C116.993 46.5116 116.838 46.4458 116.726 46.3287C116.608 46.2155 116.541 46.0589 116.543 45.8958V39.8132C116.543 38.6426 116.315 37.7821 115.862 37.228C115.407 36.6721 114.742 36.3959 113.864 36.3959C113.061 36.3959 112.412 36.6614 111.921 37.1923C111.428 37.7251 111.183 38.5446 111.183 39.6528V45.8958C111.185 46.0589 111.118 46.2155 111 46.3287C110.888 46.4458 110.733 46.5116 110.57 46.5105H109.728C109.565 46.5116 109.41 46.4458 109.298 46.3287C109.18 46.2155 109.113 46.0589 109.115 45.8958V35.277C109.115 35.1113 109.176 34.967 109.298 34.8441C109.41 34.727 109.565 34.6612 109.728 34.6624H110.57C110.737 34.6624 110.88 34.7229 111 34.8441C111.122 34.967 111.183 35.1113 111.183 35.277V35.9844V35.9861ZM135.089 46.7385C134.15 46.7385 133.401 46.5746 132.84 46.2486C132.281 45.9225 131.856 45.568 131.567 45.1885V50.2235C131.57 50.3861 131.505 50.5426 131.388 50.6564C131.275 50.7744 131.118 50.8402 130.955 50.8381H130.114C129.952 50.8393 129.796 50.7735 129.684 50.6564C129.566 50.5432 129.5 50.3866 129.501 50.2235V35.2788C129.501 35.1131 129.562 34.9688 129.684 34.8459C129.796 34.7288 129.952 34.663 130.114 34.6641H130.956C131.121 34.6641 131.266 34.7247 131.386 34.8459C131.508 34.9688 131.569 35.1131 131.569 35.2788V35.9861C131.872 35.5764 132.304 35.2147 132.863 34.9029C133.424 34.5929 134.166 34.4361 135.089 34.4361C135.8 34.4361 136.463 34.5608 137.078 34.812C137.689 35.0615 138.225 35.4231 138.678 35.8953C139.132 36.3656 139.496 36.934 139.768 37.6021C140.04 38.272 140.2 39.0221 140.245 39.8577C140.277 40.3507 140.277 40.8453 140.245 41.3383C140.2 42.1757 140.04 42.9257 139.768 43.5939C139.52 44.2251 139.15 44.802 138.678 45.2918C138.224 45.7542 137.679 46.1181 137.076 46.3608C136.463 46.612 135.8 46.7385 135.089 46.7385ZM131.569 39.6083C131.552 39.9079 131.544 40.2079 131.546 40.508C131.546 40.8804 131.553 41.1797 131.569 41.4078C131.614 42.4857 131.935 43.3177 132.533 43.9021C133.132 44.4865 133.908 44.7787 134.863 44.7787C135.861 44.7787 136.65 44.4598 137.225 43.8219C137.798 43.1841 138.117 42.3182 138.178 41.2242C138.193 40.8002 138.193 40.3744 138.178 39.9486C138.117 38.8564 137.8 37.9887 137.225 37.3527C136.65 36.7148 135.863 36.3959 134.861 36.3959C133.924 36.3959 133.152 36.6846 132.546 37.2618C131.94 37.8391 131.614 38.6212 131.569 39.6083ZM143.141 35.2788C143.141 35.1131 143.201 34.9688 143.323 34.8459C143.435 34.7288 143.591 34.663 143.753 34.6641H144.596C144.762 34.6641 144.906 34.7247 145.026 34.8459C145.148 34.9688 145.209 35.1131 145.209 35.2788V41.2937C145.209 42.4625 145.47 43.3355 145.992 43.9128C146.515 44.49 147.275 44.7787 148.275 44.7787C149.228 44.7787 149.977 44.49 150.524 43.9128C151.069 43.3355 151.341 42.4625 151.341 41.2937V35.277C151.341 35.1113 151.402 34.967 151.522 34.8441C151.634 34.7266 151.791 34.6607 151.954 34.6624H152.796C152.961 34.6624 153.104 34.7229 153.226 34.8441C153.348 34.967 153.407 35.1113 153.407 35.277V45.894C153.41 46.0566 153.345 46.2132 153.228 46.3269C153.115 46.4449 152.958 46.5108 152.794 46.5087H151.954C151.791 46.5098 151.636 46.444 151.524 46.3269C151.406 46.2138 151.339 46.0572 151.341 45.894V45.1867C151.054 45.5662 150.644 45.9207 150.115 46.2468C149.585 46.5728 148.857 46.7367 147.934 46.7367C147.223 46.7367 146.572 46.6191 145.981 46.384C145.408 46.1603 144.888 45.8184 144.458 45.3809C144.021 44.9257 143.688 44.3816 143.483 43.7863C143.246 43.0937 143.13 42.3656 143.142 41.634V35.277L143.141 35.2788ZM160.075 42.5231C160.075 42.8117 160.1 43.0825 160.154 43.332C160.208 43.5814 160.301 43.7988 160.437 43.9823C160.587 44.174 160.788 44.3198 161.018 44.4027C161.267 44.5025 161.59 44.5506 161.982 44.5506H163.186C163.353 44.5506 163.496 44.6112 163.616 44.7341C163.738 44.8553 163.799 44.9996 163.799 45.1653V45.8958C163.801 46.0587 163.736 46.2152 163.618 46.3287C163.506 46.4463 163.349 46.5121 163.186 46.5105H161.755C160.437 46.5105 159.484 46.1684 158.893 45.4842C158.301 44.8018 158.007 43.8148 158.007 42.5231V36.624H156.326C156.164 36.6246 156.008 36.5582 155.896 36.4405C155.778 36.3273 155.712 36.1707 155.714 36.0075V35.2788C155.714 35.1131 155.774 34.9688 155.895 34.8459C156.007 34.7284 156.163 34.6625 156.326 34.6641H158.007V30.9511C158.007 30.7837 158.068 30.6394 158.19 30.5182C158.302 30.4011 158.458 30.3354 158.62 30.3365H159.462C159.627 30.3365 159.773 30.397 159.893 30.5182C160.014 30.6394 160.075 30.7854 160.075 30.9511V34.6641H162.961C163.125 34.6641 163.269 34.7247 163.391 34.8459C163.513 34.9688 163.572 35.1131 163.572 35.2788V36.0093C163.574 36.1713 163.509 36.3271 163.392 36.4405C163.28 36.5591 163.123 36.6256 162.959 36.624H160.074V42.5231H160.075ZM165.697 39.4479C165.756 38.7495 165.923 38.0974 166.195 37.4881C166.469 36.8823 166.824 36.3496 167.263 35.8953C167.702 35.4392 168.229 35.0828 168.842 34.8245C169.494 34.5585 170.193 34.4264 170.898 34.4361C171.715 34.4361 172.446 34.5697 173.089 34.8352C173.734 35.1024 174.283 35.4837 174.738 35.9861C175.191 36.4868 175.539 37.0943 175.781 37.8088C176.023 38.5215 176.145 39.3196 176.145 40.1998V40.8145C176.147 40.9774 176.081 41.1339 175.964 41.2474C175.852 41.3656 175.695 41.4321 175.532 41.4309H167.718V41.5663C167.749 42.5997 168.063 43.3925 168.661 43.9466C169.258 44.5025 170.005 44.7787 170.898 44.7787C171.731 44.7787 172.354 44.6611 172.772 44.4259C173.188 44.1907 173.525 43.927 173.783 43.6402C173.875 43.5414 173.982 43.4572 174.1 43.3908C174.229 43.3371 174.369 43.3128 174.509 43.3195H175.19C175.359 43.3205 175.522 43.3862 175.645 43.503C175.775 43.6066 175.836 43.7734 175.804 43.9359C175.738 44.2588 175.606 44.5649 175.417 44.8357C175.172 45.1956 174.86 45.5053 174.498 45.7479C174.096 46.0276 173.596 46.2646 173 46.4534C172.401 46.6423 171.7 46.7385 170.898 46.7385C170.141 46.7385 169.459 46.6049 168.855 46.3394C168.26 46.0821 167.723 45.7103 167.274 45.2455C166.828 44.7822 166.468 44.2353 166.195 43.6063C165.917 42.9503 165.749 42.2533 165.697 41.5432C165.621 40.8468 165.621 40.1443 165.697 39.4479ZM167.718 39.5174H174.1V39.4479C174.1 38.5215 173.81 37.7821 173.225 37.228C172.643 36.6721 171.867 36.3959 170.898 36.3959C170.459 36.3959 170.05 36.4672 169.672 36.6115C169.302 36.7508 168.962 36.9602 168.672 37.228C168.385 37.4934 168.158 37.8159 167.991 38.1954C167.821 38.5919 167.728 39.017 167.718 39.4479V39.5174ZM185.06 34.6641C185.227 34.6641 185.37 34.7247 185.49 34.8459C185.612 34.9688 185.673 35.1131 185.673 35.2788V36.0093C185.675 36.1716 185.609 36.3274 185.492 36.4405C185.38 36.5586 185.223 36.6251 185.06 36.624H183.743C182.001 36.624 181.13 37.497 181.13 39.243V45.8958C181.132 46.0587 181.067 46.2152 180.949 46.3287C180.837 46.4463 180.68 46.5121 180.517 46.5105H179.675C179.513 46.5116 179.357 46.4458 179.245 46.3287C179.127 46.2152 179.062 46.0587 179.064 45.8958V35.277C179.064 35.1113 179.125 34.967 179.245 34.8441C179.357 34.727 179.513 34.6612 179.675 34.6624H180.517C180.684 34.6624 180.827 34.7229 180.947 34.8441C181.069 34.967 181.13 35.1113 181.13 35.277V35.9844C181.435 35.5283 181.797 35.1933 182.222 34.9813C182.644 34.7675 183.198 34.6624 183.879 34.6624H185.06V34.6641ZM89.1981 63.1619C89.2076 62.9025 89.123 62.6483 88.9598 62.4457C88.763 62.2293 88.5182 62.0615 88.2448 61.9557C87.8509 61.7941 87.4445 61.6643 87.0297 61.5673C86.4604 61.4286 85.8886 61.2997 85.3148 61.1807C84.089 60.9224 83.2288 60.493 82.7378 59.8944C82.2479 59.3012 81.9862 58.5541 81.9995 57.7866C81.9937 56.8691 82.3918 55.995 83.089 55.3939C83.4528 55.0749 83.9098 54.8237 84.4635 54.642C85.0155 54.4603 85.6642 54.3694 86.4043 54.3694C87.148 54.3694 87.7949 54.4531 88.3469 54.6188C88.9006 54.7863 89.3648 55.0001 89.7447 55.2584C90.121 55.5168 90.4095 55.7929 90.6067 56.0887C90.8038 56.3862 90.9113 56.6695 90.9257 56.9439C90.9423 57.1071 90.8789 57.2682 90.7554 57.3769C90.638 57.4934 90.4787 57.5588 90.3128 57.5586H89.5619C89.4504 57.555 89.34 57.5358 89.234 57.5016C89.0912 57.4539 88.9675 57.3622 88.8809 57.2397C88.6482 56.9546 88.3476 56.7317 88.0064 56.5911C87.6211 56.4165 87.0871 56.3292 86.4043 56.3292C85.709 56.3292 85.1445 56.4575 84.7126 56.7159C84.2825 56.9742 84.0657 57.3305 84.0657 57.7849C84.0657 58.0753 84.1266 58.3069 84.2467 58.4797C84.4002 58.6811 84.6041 58.8389 84.8381 58.9376C85.1105 59.0659 85.4707 59.1835 85.9169 59.2904C86.3649 59.3973 86.9204 59.5256 87.5871 59.677C88.2824 59.8284 88.8666 60.0226 89.3361 60.2578C89.8038 60.493 90.1837 60.7602 90.4705 61.056C90.7572 61.3518 90.9633 61.6796 91.0851 62.0359C91.2052 62.3923 91.2643 62.7664 91.2643 63.1619C91.2643 63.618 91.1568 64.0581 90.9364 64.4839C90.7079 64.9202 90.3862 65.3015 89.9938 65.601C89.5454 65.9403 89.0425 66.2017 88.5064 66.3743C87.8642 66.5808 87.1921 66.6807 86.5172 66.67C85.7771 66.67 85.1194 66.581 84.5424 66.3974C84.022 66.2406 83.5253 66.0147 83.0657 65.7258C82.6992 65.4991 82.3793 65.2053 82.1231 64.8599C81.9045 64.5481 81.7862 64.2559 81.7719 63.9833C81.7546 63.8222 81.8135 63.6622 81.9314 63.5503C82.0506 63.4299 82.2148 63.364 82.3848 63.3686H83.2019C83.2933 63.3686 83.399 63.3793 83.5209 63.4025C83.641 63.4238 83.7539 63.5111 83.8614 63.6644C84.1033 63.9975 84.4366 64.2559 84.8614 64.4376C85.2843 64.6211 85.838 64.712 86.519 64.712C86.8523 64.712 87.1821 64.6746 87.5064 64.598C87.8326 64.5213 88.1193 64.4162 88.3702 64.2773C88.6211 64.1419 88.82 63.9797 88.9723 63.7891C89.1185 63.6124 89.1984 63.3907 89.1981 63.1619ZM95.6602 61.3179C95.7212 61.9237 95.8538 62.4404 96.0581 62.868C96.2624 63.292 96.5133 63.6412 96.8089 63.9138C97.1028 64.1882 97.4326 64.3895 97.7946 64.5196C98.1601 64.6478 98.5293 64.712 98.9092 64.712C99.6368 64.712 100.257 64.5748 100.773 64.3022C101.287 64.0278 101.687 63.5717 101.975 62.9357C102.083 62.6916 102.19 62.5294 102.305 62.4457C102.427 62.3597 102.575 62.3159 102.724 62.321H103.405C103.574 62.321 103.721 62.3798 103.85 62.5027C103.979 62.6239 104.034 62.7682 104.02 62.9357C103.989 63.3539 103.868 63.7608 103.667 64.1294C103.424 64.5923 103.093 65.0033 102.69 65.3391C102.26 65.7097 101.73 66.0251 101.101 66.2834C100.474 66.5418 99.7425 66.67 98.9092 66.67C98.1506 66.6843 97.397 66.5449 96.6943 66.2603C96.0776 66.0051 95.521 65.6253 95.0599 65.1449C94.6062 64.663 94.2514 64.0977 94.0151 63.4809C93.7615 62.8258 93.6192 62.1334 93.594 61.4319C93.5767 61.1323 93.5653 60.8323 93.56 60.5322C93.5528 60.1759 93.5635 59.8676 93.5958 59.6093C93.6549 58.8788 93.8108 58.1964 94.0599 57.5604C94.3108 56.9207 94.6549 56.3667 95.0939 55.8963C95.533 55.4241 96.0706 55.0536 96.7068 54.7792C97.3412 54.5066 98.0759 54.3694 98.9092 54.3694C99.7425 54.3694 100.472 54.4977 101.101 54.756C101.728 55.0144 102.26 55.3297 102.69 55.7021C103.122 56.0745 103.448 56.4771 103.667 56.9101C103.888 57.343 104.004 57.7403 104.02 58.1038C104.037 58.2675 103.974 58.4294 103.85 58.5385C103.732 58.6551 103.573 58.7204 103.407 58.7202H102.726C102.576 58.7257 102.428 58.6819 102.305 58.5955C102.192 58.5118 102.081 58.3479 101.975 58.1056C101.689 57.4677 101.287 57.0116 100.771 56.739C100.257 56.4646 99.6368 56.3292 98.9092 56.3292C98.5311 56.3292 98.1566 56.3934 97.7856 56.5217C97.4133 56.6518 97.0727 56.8582 96.7856 57.1274C96.49 57.4 96.2409 57.7492 96.0366 58.1733C95.8157 58.6623 95.6881 59.1879 95.6602 59.7233C95.6148 60.2539 95.6148 60.7873 95.6602 61.3179ZM108.982 65.8273C108.984 65.9902 108.919 66.1468 108.801 66.2603C108.69 66.378 108.534 66.4444 108.371 66.4438H107.529C107.366 66.4444 107.211 66.378 107.099 66.2603C106.981 66.1471 106.915 65.9905 106.916 65.8273V55.2139C106.916 55.0464 106.977 54.9021 107.097 54.781C107.209 54.6634 107.366 54.5976 107.529 54.5992H108.371C108.536 54.5992 108.679 54.6598 108.801 54.781C108.923 54.9021 108.982 55.0482 108.982 55.2139V65.8291V65.8273ZM109.21 52.1833C109.211 52.3456 109.146 52.5014 109.029 52.6145C108.917 52.7326 108.76 52.7991 108.597 52.798H107.301C107.139 52.7986 106.983 52.7322 106.871 52.6145C106.754 52.5017 106.687 52.3458 106.688 52.1833V50.8827C106.688 50.717 106.749 50.5727 106.871 50.4515C106.983 50.3344 107.139 50.2687 107.301 50.2698H108.597C108.764 50.2698 108.907 50.3304 109.027 50.4515C109.149 50.5727 109.21 50.717 109.21 50.8845V52.1833ZM112.014 59.3812C112.075 58.6828 112.242 58.0289 112.516 57.4214C112.787 56.8156 113.143 56.2829 113.583 55.8268C114.022 55.3725 114.548 55.0144 115.16 54.7578C115.812 54.4916 116.512 54.3594 117.217 54.3694C118.034 54.3694 118.765 54.503 119.408 54.7685C120.054 55.034 120.6 55.417 121.055 55.9177C121.509 56.4201 121.858 57.0276 122.1 57.7403C122.342 58.4548 122.464 59.2512 122.464 60.1331V60.7478C122.465 60.9109 122.399 61.0675 122.281 61.1807C122.169 61.2978 122.013 61.3636 121.851 61.3624H114.038V61.4996C114.066 62.533 114.382 63.3258 114.979 63.8799C115.577 64.434 116.323 64.712 117.217 64.712C118.05 64.712 118.674 64.5944 119.091 64.3592C119.507 64.124 119.844 63.8603 120.102 63.5735C120.194 63.474 120.301 63.3893 120.419 63.3223C120.549 63.2699 120.688 63.2467 120.828 63.2546H121.509C121.678 63.2551 121.841 63.3201 121.964 63.4363C122.094 63.5399 122.155 63.7067 122.123 63.8693C122.057 64.1921 121.925 64.4982 121.736 64.769C121.491 65.1283 121.179 65.4373 120.817 65.6794C120.416 65.9609 119.916 66.1961 119.317 66.3867C118.72 66.5756 118.02 66.6718 117.217 66.6718C116.459 66.6718 115.778 66.5382 115.174 66.2727C114.58 66.0154 114.042 65.6436 113.593 65.1788C113.147 64.7155 112.787 64.1686 112.514 63.5396C112.235 62.8837 112.067 62.1867 112.014 61.4765C111.939 60.7801 111.939 60.0776 112.014 59.3812ZM114.036 59.4489H120.419V59.3812C120.419 58.4548 120.127 57.7136 119.545 57.1595C118.962 56.6072 118.186 56.3292 117.215 56.3292C116.778 56.3292 116.369 56.4005 115.989 56.5448C115.62 56.6838 115.281 56.8926 114.991 57.1595C114.704 57.4267 114.477 57.7474 114.31 58.1287C114.139 58.5251 114.046 58.9502 114.036 59.3812V59.4489ZM135.876 65.8273C135.878 65.9902 135.812 66.1468 135.695 66.2603C135.583 66.378 135.427 66.4444 135.264 66.4438H134.422C134.259 66.4444 134.104 66.378 133.992 66.2603C133.874 66.1471 133.808 65.9905 133.809 65.8273V59.8142C133.809 58.6454 133.53 57.7706 132.969 57.1951C132.408 56.6179 131.628 56.3292 130.628 56.3292C129.675 56.3292 128.908 56.6179 128.324 57.1933C127.741 57.7706 127.449 58.6454 127.449 59.8124V65.8273C127.451 65.9902 127.386 66.1468 127.268 66.2603C127.156 66.3784 127 66.4449 126.836 66.4438H125.994C125.831 66.4444 125.676 66.378 125.564 66.2603C125.447 66.1468 125.381 65.9902 125.383 65.8273V55.2139C125.383 55.0464 125.442 54.9021 125.562 54.781C125.675 54.663 125.832 54.5971 125.996 54.5992H126.836C127.003 54.5992 127.147 54.6598 127.267 54.781C127.388 54.9021 127.449 55.0482 127.449 55.2139V55.9194C127.736 55.54 128.166 55.189 128.732 54.8611C129.301 54.5351 130.046 54.3712 130.971 54.3712C131.682 54.3712 132.34 54.4888 132.946 54.724C133.551 54.9591 134.071 55.2941 134.503 55.727C134.933 56.16 135.27 56.6945 135.514 57.3323C135.756 57.9702 135.876 58.6846 135.876 59.4739V65.8291V65.8273ZM140.861 61.3179C140.922 61.9237 141.055 62.4404 141.259 62.868C141.463 63.292 141.714 63.6412 142.01 63.9138C142.304 64.1882 142.633 64.3895 142.995 64.5196C143.361 64.6478 143.73 64.712 144.11 64.712C144.838 64.712 145.458 64.5748 145.974 64.3022C146.488 64.0278 146.888 63.5717 147.176 62.9357C147.284 62.6916 147.391 62.5294 147.506 62.4457C147.628 62.3597 147.776 62.3159 147.925 62.321H148.606C148.775 62.321 148.922 62.3798 149.051 62.5027C149.18 62.6239 149.235 62.7682 149.221 62.9357C149.19 63.3539 149.069 63.7608 148.868 64.1294C148.625 64.5923 148.293 65.0033 147.891 65.3391C147.461 65.7097 146.931 66.0251 146.302 66.2834C145.674 66.5418 144.943 66.67 144.11 66.67C143.351 66.6843 142.598 66.5449 141.895 66.2603C141.278 66.0051 140.722 65.6253 140.261 65.1449C139.807 64.663 139.452 64.0977 139.216 63.4809C138.962 62.8258 138.82 62.1334 138.795 61.4319C138.777 61.1323 138.766 60.8323 138.761 60.5322C138.754 60.1759 138.764 59.8676 138.797 59.6093C138.856 58.8788 139.012 58.1964 139.261 57.5604C139.512 56.9207 139.856 56.3667 140.295 55.8963C140.734 55.4241 141.271 55.0536 141.908 54.7792C142.542 54.5066 143.277 54.3694 144.11 54.3694C144.943 54.3694 145.673 54.4977 146.302 54.756C146.929 55.0144 147.461 55.3297 147.891 55.7021C148.323 56.0745 148.649 56.4771 148.868 56.9101C149.088 57.343 149.205 57.7403 149.221 58.1038C149.238 58.2675 149.175 58.4294 149.051 58.5385C148.933 58.6551 148.774 58.7204 148.608 58.7202H147.927C147.777 58.7257 147.629 58.6819 147.506 58.5955C147.391 58.5118 147.282 58.3479 147.176 58.1056C146.889 57.4677 146.488 57.0116 145.972 56.739C145.458 56.4646 144.838 56.3292 144.11 56.3292C143.732 56.3292 143.357 56.3934 142.986 56.5217C142.614 56.6518 142.273 56.8582 141.986 57.1274C141.691 57.4 141.442 57.7492 141.237 58.1733C141.016 58.6623 140.889 59.1879 140.861 59.7233C140.816 60.2539 140.816 60.7873 140.861 61.3179ZM151.572 59.3812C151.631 58.6828 151.798 58.0289 152.072 57.4214C152.344 56.8156 152.699 56.2829 153.138 55.8268C153.577 55.3725 154.104 55.0144 154.717 54.7578C155.369 54.4918 156.068 54.3597 156.773 54.3694C157.592 54.3694 158.321 54.503 158.964 54.7685C159.609 55.034 160.158 55.417 160.613 55.9177C161.066 56.4201 161.414 57.0276 161.656 57.7403C161.9 58.4548 162.02 59.2512 162.02 60.1331V60.7478C162.022 60.9107 161.956 61.0672 161.839 61.1807C161.726 61.2982 161.57 61.3641 161.407 61.3624H153.594V61.4996C153.624 62.533 153.938 63.3258 154.536 63.8799C155.135 64.434 155.88 64.712 156.773 64.712C157.606 64.712 158.231 64.5944 158.647 64.3592C159.063 64.124 159.4 63.8603 159.658 63.5735C159.75 63.474 159.857 63.3893 159.975 63.3223C160.105 63.2696 160.245 63.2465 160.385 63.2546H161.066C161.235 63.2555 161.397 63.3205 161.52 63.4363C161.65 63.5399 161.711 63.7067 161.679 63.8693C161.613 64.192 161.482 64.4981 161.294 64.769C161.049 65.1284 160.736 65.4375 160.373 65.6794C159.971 65.9609 159.471 66.1961 158.875 66.3867C158.276 66.5756 157.575 66.6718 156.773 66.6718C156.016 66.6718 155.334 66.5382 154.73 66.2727C154.136 66.0152 153.599 65.6434 153.151 65.1788C152.703 64.7155 152.344 64.1686 152.072 63.5396C151.793 62.8838 151.623 62.1868 151.57 61.4765C151.495 60.7801 151.495 60.0776 151.57 59.3812H151.572ZM153.594 59.4489H159.975V59.3812C159.975 58.4548 159.685 57.7136 159.101 57.1595C158.518 56.6072 157.742 56.3292 156.773 56.3292C156.334 56.3292 155.925 56.4005 155.547 56.5448C155.177 56.6836 154.837 56.8924 154.547 57.1595C154.26 57.4267 154.033 57.7474 153.866 58.1287C153.696 58.5252 153.603 58.9503 153.594 59.3812V59.4489ZM35.3328 81L0.350201 60.7727L0.326904 20.27L35.288 0L70.2687 20.2291L70.2938 60.73L35.3328 81ZM62.1167 27.1045C60.6526 27.1045 59.4663 28.2947 59.4663 29.7592C59.4663 31.2291 60.6526 32.4192 62.1185 32.4192C63.579 32.4192 64.7653 31.2291 64.7653 29.7592C64.7653 28.2947 63.579 27.1045 62.1185 27.1045H62.1167ZM51.5149 27.1045C50.0526 27.1045 48.8681 28.2947 48.8681 29.7592C48.8681 31.2291 50.0508 32.4192 51.5149 32.4192C52.9808 32.4192 54.1654 31.2291 54.1654 29.7592C54.1654 28.2947 52.9808 27.1045 51.5149 27.1045ZM62.1167 38.0297C60.6526 38.0297 59.468 39.2199 59.468 40.6862C59.468 42.1543 60.6508 43.3427 62.1167 43.3427C63.579 43.3427 64.7653 42.1543 64.7653 40.688C64.7653 39.2199 63.579 38.0297 62.1167 38.0297ZM30.3168 38.0297C28.8527 38.0297 27.6646 39.2199 27.6646 40.6862C27.6646 42.1543 28.8527 43.3427 30.3168 43.3427C31.7809 43.3427 32.969 42.1543 32.969 40.688C32.969 39.2199 31.7809 38.0297 30.3168 38.0297ZM51.5167 38.0297H40.915C39.4491 38.0297 38.2663 39.2199 38.2663 40.6862C38.2663 42.1543 39.4491 43.3427 40.915 43.3427H51.5167C52.9773 43.3427 54.1636 42.1543 54.1636 40.688C54.1636 39.2199 52.9773 38.0297 51.5167 38.0297ZM19.7169 38.0297H9.1151C7.65459 38.0297 6.46646 39.2199 6.46646 40.6862C6.46646 42.1543 7.65459 43.3427 9.1151 43.3427H19.7169C21.1792 43.3427 22.3655 42.1543 22.3655 40.688C22.3655 39.2199 21.1792 38.0297 19.7169 38.0297ZM62.1203 48.9531C60.6544 48.9531 59.468 50.1433 59.468 51.6096C59.468 53.0795 60.6544 54.2678 62.1203 54.2678C63.579 54.2678 64.7653 53.0795 64.7653 51.6096C64.7653 50.1433 63.579 48.9549 62.1203 48.9549V48.9531ZM51.5167 54.2678C52.9808 54.2678 54.1654 53.0795 54.1654 51.6096C54.1654 50.1433 52.9808 48.9549 51.5167 48.9549C50.0526 48.9549 48.8663 50.1433 48.8663 51.6096C48.8663 53.0795 50.0526 54.2678 51.5185 54.2678H51.5167ZM40.9168 54.2678C42.3827 54.2678 43.569 53.0795 43.569 51.6096C43.569 50.1433 42.3827 48.9549 40.9168 48.9549C39.4527 48.9549 38.2699 50.1433 38.2699 51.6096C38.2699 53.0795 39.4527 54.2678 40.9168 54.2678Z" fill="black"/>
</svg>
