<svg width="81" height="81" viewBox="0 0 81 81" fill="none" xmlns="http://www.w3.org/2000/svg">
<path d="M40.5637 0.446004C40.864 0.17297 41.2918 0.0910597 41.6922 0.0546552C42.4112 -0.00905267 43.1302 0.0273517 43.831 0.17297C44.9049 0.382296 45.9242 0.828251 46.9982 1.00117C48.0539 1.16499 49.2552 1.02848 50.0288 0.227577C49.8468 0.409599 49.6648 1.04668 49.4919 1.31061C49.1733 1.79297 48.782 2.21162 48.4361 2.67578C48.3815 2.74859 48.336 2.8214 48.3269 2.90331C48.3269 2.97612 48.3542 3.03982 48.3815 3.10353C48.8093 4.08645 49.3098 5.06937 49.6648 6.0705C49.2643 6.31623 48.7092 6.26162 48.2632 6.17061C47.7809 6.0705 47.3258 5.88848 46.8525 5.77016C45.7149 5.47893 44.3588 5.42432 43.1939 5.44252C42.6842 5.45162 42.1655 5.51533 41.7104 5.74286C41.1097 6.03409 40.6456 6.59836 40.4727 7.23544C40.3634 5.36971 40.773 3.48578 40.5364 1.63825C40.4818 1.2105 40.3998 0.746341 40.6183 0.373194" fill="#1C0F5F"/>
<path d="M40.2633 14.9804C39.8811 14.9804 39.5717 14.671 39.5717 14.2888V0.691685C39.5717 0.309438 39.8811 0 40.2633 0C40.6456 0 40.955 0.309438 40.955 0.691685V14.2797C40.955 14.671 40.6456 14.9804 40.2633 14.9804Z" fill="#333448"/>
<path d="M23.4897 26.5753C23.6535 26.5753 23.8264 26.5298 23.972 26.4205L40.4997 14.9258L57.0273 26.4205C57.1729 26.5207 57.3458 26.5753 57.5097 26.5753C57.7736 26.5753 58.0375 26.4478 58.2013 26.2112C58.4653 25.829 58.3743 25.3011 57.992 25.0372L41.1003 13.2967C40.9183 13.1693 40.6999 13.1238 40.4997 13.1602C40.2994 13.1329 40.081 13.1693 39.899 13.2967L23.0073 25.0372C22.6251 25.3011 22.534 25.829 22.798 26.2112C22.9618 26.4478 23.2166 26.5753 23.4897 26.5753Z" fill="#1C0F5F"/>
<path d="M23.7809 35.8767L3.83123 46.7434C3.42168 46.9618 3.27606 47.4806 3.49449 47.8811C3.64921 48.1632 3.94044 48.3179 4.23168 48.3179C4.3682 48.3179 4.50471 48.2815 4.63213 48.2178L24.5909 37.3602C25.0004 37.1417 25.1461 36.623 24.9276 36.2225C24.7001 35.813 24.1904 35.6582 23.7809 35.8767Z" fill="#1C0F5F"/>
<path d="M77.159 46.7433L57.2002 35.8766C56.7907 35.6581 56.281 35.8038 56.0626 36.2133C55.8442 36.6229 55.9898 37.1325 56.3993 37.351L76.349 48.2177C76.4764 48.2905 76.6129 48.3178 76.7495 48.3178C77.0498 48.3178 77.341 48.1631 77.4866 47.881C77.7142 47.4805 77.5686 46.9708 77.159 46.7433Z" fill="#1C0F5F"/>
<path d="M43.5667 64.7272C43.1026 64.7272 42.7203 65.1003 42.7203 65.5736V68.04C42.7203 68.5041 43.0935 68.8864 43.5667 68.8864C44.04 68.8864 44.4131 68.5132 44.4131 68.04V65.5736C44.4131 65.1094 44.04 64.7272 43.5667 64.7272Z" fill="#1C0F5F"/>
<path d="M37.9514 64.7272C37.4872 64.7272 37.105 65.1003 37.105 65.5736V68.04C37.105 68.5041 37.4781 68.8864 37.9514 68.8864C38.4155 68.8864 38.7978 68.5132 38.7978 68.04V65.5736C38.7887 65.1094 38.4155 64.7272 37.9514 64.7272Z" fill="#1C0F5F"/>
<path d="M56.5907 39.6627V28.441L40.509 17.6198V17.6016L40.4999 17.6107L40.4908 17.6016V17.6198L24.391 28.441V39.6627L6.37073 49.4009V74.0376H24.391H31.6081V56.8456H39.5352V74.0376H40.4817H40.4999H41.4465V56.8456H49.3735V74.0376H56.5907H74.6109V49.4009L56.5907 39.6627ZM18.6299 69.032H12.6141V59.7034C12.6141 58.0378 13.9611 56.6909 15.6266 56.6909C17.2921 56.6909 18.639 58.0378 18.639 59.7034V69.032H18.6299ZM37.624 45.8241H31.6081V36.4955C31.6081 34.83 32.9551 33.483 34.6206 33.483C36.2861 33.483 37.6331 34.83 37.6331 36.4955V45.8241H37.624ZM49.3826 45.8241H43.3668V36.4955C43.3668 34.83 44.7138 33.483 46.3793 33.483C48.0448 33.483 49.3917 34.83 49.3917 36.4955V45.8241H49.3826ZM68.3767 69.032H62.3608V59.7034C62.3608 58.0378 63.7078 56.6909 65.3733 56.6909C67.0388 56.6909 68.3858 58.0378 68.3858 59.7034V69.032H68.3767Z" fill="#333448"/>
<path d="M77.5961 74.0377H3.39465V77.3687H77.5961V74.0377Z" fill="#1C0F5F"/>
<path d="M80.9818 77.3687H0V80.6724H80.9818V77.3687Z" fill="#333448"/>
</svg>
