<svg width="70" height="58" viewBox="0 0 70 58" fill="none" xmlns="http://www.w3.org/2000/svg">
<path d="M51.0907 22.6627V11.4411L35.009 0.619826V0.601624L34.9999 0.610725L34.9908 0.601624V0.619826L18.891 11.4411V22.6627L0.870728 32.4009V57.0377H18.891H26.1081V39.8457H34.0352V57.0377H34.9817H34.9999H35.9465V39.8457H43.8735V57.0377H51.0907H69.1109V32.4009L51.0907 22.6627ZM13.1299 52.0321H7.1141V42.7034C7.1141 41.0379 8.46106 39.6909 10.1266 39.6909C11.7921 39.6909 13.139 41.0379 13.139 42.7034V52.0321H13.1299ZM32.124 28.8242H26.1081V19.4956C26.1081 17.83 27.4551 16.4831 29.1206 16.4831C30.7861 16.4831 32.1331 17.83 32.1331 19.4956V28.8242H32.124ZM43.8826 28.8242H37.8668V19.4956C37.8668 17.83 39.2138 16.4831 40.8793 16.4831C42.5448 16.4831 43.8917 17.83 43.8917 19.4956V28.8242H43.8826ZM62.8767 52.0321H56.8608V42.7034C56.8608 41.0379 58.2078 39.6909 59.8733 39.6909C61.5388 39.6909 62.8858 41.0379 62.8858 42.7034V52.0321H62.8767Z" fill="#333448"/>
</svg>
