<svg width="260" height="81" viewBox="0 0 260 81" fill="none" xmlns="http://www.w3.org/2000/svg">
<path d="M29 0C96.2256 0 163.451 0 230.677 0C230.941 0 231 0.058952 231 0.324236C231 27.1179 231 53.8821 231 80.6758C231 80.9411 230.941 81 230.677 81C163.569 81 96.4312 81 29.3231 81C29.0587 81 29 80.9411 29 80.6758C29 53.7937 29 26.8821 29 0ZM212.204 34.7227C212.204 35.4301 212.204 36.167 212.204 36.9039C212.204 42.7991 212.204 48.6649 212.204 54.56C212.204 54.8253 212.263 54.9138 212.527 54.9138C214.113 54.9138 215.669 54.9138 217.255 54.9138C217.52 54.9138 217.549 54.8253 217.549 54.5895C217.549 45.0983 217.549 35.607 217.549 26.1157C217.549 25.8799 217.49 25.7915 217.255 25.7915C215.816 25.7915 214.377 25.7915 212.967 25.7915C212.791 25.7915 212.674 25.8504 212.586 26.0273C212.38 26.3515 212.174 26.6758 211.969 26.9705C209.149 31.4214 206.154 35.7838 203.511 40.3231C203.364 40.559 203.305 40.5 203.188 40.3231C202.541 39.2031 201.807 38.1124 201.073 37.0218C198.547 33.3668 196.022 29.7118 193.496 26.0568C193.378 25.8799 193.261 25.7915 193.055 25.7915C191.646 25.7915 190.236 25.7915 188.826 25.7915C188.532 25.7915 188.503 25.8799 188.503 26.1452C188.503 27 188.503 27.8548 188.503 28.6801C188.503 37.2871 188.503 45.8646 188.503 54.4716C188.503 54.8548 188.621 54.9138 188.944 54.9138C190.412 54.8843 191.91 54.8843 193.378 54.9138C193.731 54.9138 193.819 54.8253 193.819 54.4716C193.819 48.7533 193.819 43.0644 193.819 37.3461C193.819 36.6976 193.789 36.0197 193.76 35.3712C193.76 35.1648 193.76 34.929 193.76 34.7227C194.377 35.7249 195.082 36.6386 195.728 37.5819C197.784 40.559 199.869 43.536 201.925 46.5131C202.072 46.7194 202.218 46.8079 202.483 46.8079C203.07 46.7784 203.687 46.7784 204.274 46.8079C204.509 46.8079 204.627 46.7489 204.744 46.5426C205.831 44.833 206.917 43.1528 208.004 41.4432C209.384 39.1736 210.882 36.9924 212.204 34.7227ZM81.8936 40.3231C81.8936 41.0895 82.0111 41.7969 82.1873 42.5044C82.7159 44.5677 83.6851 46.4542 84.7717 48.2817C86.9744 51.9367 89.647 55.238 92.4664 58.4214C95.6383 62.0175 99.0157 65.4367 102.511 68.738C104.449 70.5655 106.387 72.3635 108.384 74.1321C108.561 74.2795 108.678 74.3384 108.825 74.1026C109.001 73.8373 109.207 73.6015 109.442 73.3657C109.589 73.2183 109.589 73.1299 109.442 72.9531C106.534 69.9465 103.744 66.8221 101.101 63.5797C98.164 60.0131 95.3446 56.2991 92.907 52.3493C91.3504 49.8439 89.97 47.25 89.0302 44.4498C88.3254 42.3865 88.0611 40.2642 88.5016 38.083C88.9128 36.0491 89.6764 34.1037 90.5868 32.2467C92.2608 28.857 94.3754 25.7031 96.6368 22.6965C100.425 17.6561 104.655 13.0284 109.089 8.57751C109.295 8.37118 109.677 8.16485 109.677 7.89956C109.677 7.66376 109.354 7.39847 109.148 7.16266C108.825 6.77948 108.825 6.77948 108.443 7.10371C104.919 10.0513 101.453 13.0873 98.1346 16.2707C94.581 19.69 91.1742 23.286 88.1492 27.1769C86.2108 29.6528 84.4487 32.2467 83.1858 35.1648C82.4516 36.845 81.9229 38.5251 81.8936 40.3231ZM56.9006 40.7358C56.9006 39.4683 56.5481 37.9945 55.8139 36.3144C54.6098 33.4847 52.9064 30.9793 51.0561 28.5328C47.943 24.4061 44.4481 20.6037 40.8063 16.9192C38.6918 14.7675 36.5185 12.7041 34.2864 10.6408C32.9648 9.43231 31.5845 8.2238 30.2629 7.01528C30.0867 6.8679 29.9985 6.8679 29.8811 7.04476C29.7049 7.28057 29.4993 7.54585 29.2937 7.75218C29.1175 7.95852 29.1468 8.07642 29.3231 8.28275C31.1439 10.1397 32.9061 12.0557 34.6095 14.0011C38.3393 18.2456 41.893 22.6376 44.9767 27.3832C46.6508 29.9771 48.2073 32.6299 49.3527 35.5186C49.9401 37.0513 50.41 38.6135 50.5275 40.2642C50.645 42.2391 50.1751 44.1255 49.4996 45.9531C48.3835 49.048 46.7389 51.8777 44.918 54.5895C41.335 59.9836 37.1352 64.8766 32.7299 69.5633C31.6138 70.7424 30.4978 71.8919 29.3524 73.0415C29.1762 73.2183 29.1762 73.3068 29.3231 73.4836C29.4993 73.69 29.6755 73.8963 29.8517 74.1026C29.9985 74.3384 30.116 74.309 30.3216 74.1321C33.7871 71.2435 37.1646 68.2664 40.3952 65.1419C43.9782 61.7227 47.385 58.1266 50.4394 54.2063C52.4071 51.6714 54.228 49.0186 55.5496 46.071C56.3132 44.3908 56.8712 42.6223 56.9006 40.7358ZM69.588 27.9727C70.0285 28.0022 70.7334 27.8548 71.4676 27.6779C73.3178 27.2063 75.0212 26.3515 76.6659 25.4083C80.4839 23.1681 83.8907 20.3679 87.18 17.4203C90.0582 14.8559 92.7895 12.2031 95.4327 9.43231C97.9878 6.77948 100.484 4.06769 102.922 1.26747C103.069 1.12009 103.098 1.03166 102.892 0.884279C102.628 0.677948 102.364 0.471616 102.129 0.265284C101.982 0.117904 101.864 0.117904 101.718 0.265284C98.8982 3.03603 95.9613 5.68887 92.907 8.25328C89.1184 11.4367 85.1829 14.4727 80.9538 17.0961C78.3987 18.6878 75.7555 20.1026 72.8479 20.9869C71.3795 21.429 69.911 21.6943 68.3838 21.5469C66.5042 21.3701 64.7127 20.81 62.9799 20.0731C59.5144 18.5993 56.3425 16.595 53.3175 14.3843C47.7081 10.3166 42.5685 5.68886 37.6639 0.825328C37.4289 0.58952 37.2233 0.176856 36.9296 0.206332C36.6653 0.206332 36.4304 0.58952 36.166 0.766376C35.843 0.972707 35.8723 1.12009 36.1073 1.38537C39.2792 5.18777 42.5391 8.90175 46.0047 12.4389C49.294 15.7991 52.7008 19.012 56.4306 21.9007C58.8683 23.7576 61.394 25.4672 64.1841 26.7052C65.7994 27.4127 67.4734 27.9432 69.588 27.9727ZM69.7935 53.0568C68.6775 53.0568 67.679 53.2631 66.7098 53.5873C64.1547 54.4127 61.8933 55.798 59.72 57.3013C55.6083 60.131 51.8785 63.4323 48.2661 66.9105C45.8284 69.2686 43.4495 71.6856 41.1294 74.1616C39.426 75.9891 37.7226 77.8755 36.0779 79.762C35.9311 79.9389 35.9311 80.0273 36.1073 80.1747C36.3716 80.3515 36.6066 80.5579 36.8415 80.7937C36.9884 80.9411 37.1058 80.9411 37.2527 80.7937C39.2792 78.8483 41.335 76.9323 43.4495 75.0753C47.5025 71.5087 51.6729 68.1485 56.1957 65.1714C58.8683 63.4028 61.629 61.8111 64.5952 60.6321C67.5321 59.4531 70.4984 59.1583 73.5528 60.131C76.519 61.0742 79.2504 62.4891 81.8642 64.1397C86.5632 67.0873 90.8218 70.5655 94.9334 74.2205C97.2829 76.3133 99.5737 78.4945 101.776 80.7347C101.953 80.9116 102.07 80.9705 102.276 80.7642C102.423 80.5873 102.628 80.44 102.834 80.3221C103.127 80.1452 103.127 79.9683 102.892 79.7325C102.863 79.7031 102.834 79.6736 102.804 79.6146C99.0451 75.0753 95.139 70.6834 90.9392 66.5568C88.4135 64.0513 85.7703 61.6638 82.9802 59.4825C80.5132 57.5666 77.9581 55.7686 75.08 54.4716C73.3766 53.6463 71.6144 53.0862 69.7935 53.0568ZM166.535 40.2937C166.535 45.0393 166.535 49.7849 166.535 54.5011C166.535 54.7664 166.564 54.8843 166.887 54.8843C172.027 54.8843 177.167 54.8843 182.306 54.8843C182.541 54.8843 182.6 54.8253 182.6 54.5895C182.6 53.3515 182.571 52.1135 182.6 50.8755C182.6 50.5808 182.512 50.5218 182.218 50.5218C178.87 50.5218 175.522 50.5218 172.174 50.5218C171.88 50.5218 171.792 50.4629 171.792 50.1681C171.792 47.6332 171.792 45.1277 171.792 42.5928C171.792 42.2686 171.91 42.2096 172.203 42.2096C175.023 42.2096 177.871 42.2096 180.691 42.2096C181.014 42.2096 181.102 42.1212 181.102 41.7969C181.073 40.6179 181.073 39.4094 181.102 38.2304C181.102 37.9061 181.014 37.8472 180.72 37.8472C177.871 37.8472 175.023 37.8472 172.145 37.8472C171.851 37.8472 171.792 37.7587 171.792 37.4935C171.792 35.1943 171.792 32.8657 171.792 30.5666C171.792 30.2129 171.851 30.1245 172.233 30.1245C175.081 30.1539 177.93 30.1245 180.75 30.1539C181.043 30.1539 181.161 30.0655 181.249 29.8002C181.631 28.5917 182.042 27.3832 182.424 26.1747C182.541 25.7915 182.541 25.7915 182.13 25.7915C177.079 25.7915 171.998 25.7915 166.946 25.7915C166.623 25.7915 166.506 25.8799 166.506 26.2042C166.535 30.8908 166.535 35.5775 166.535 40.2937ZM135.492 31.8341C135.492 30.3603 135.463 28.9454 135.492 27.5011C135.492 27.059 135.375 26.8526 134.963 26.7052C132.232 25.6146 129.442 25.2609 126.534 25.6146C124.42 25.8799 122.57 26.7052 121.042 28.238C118.341 31.0087 118.252 35.7249 120.866 38.5841C121.806 39.6157 122.951 40.3821 124.185 41.0895C125.624 41.9148 127.151 42.5633 128.561 43.4181C129.383 43.9192 130.147 44.4498 130.734 45.1867C131.88 46.631 131.938 49.2249 129.471 50.2566C128.502 50.6692 127.474 50.7871 126.417 50.7576C124.214 50.6987 122.217 50.0207 120.367 48.8122C120.161 48.6649 120.073 48.6943 119.956 48.9301C119.368 50.1092 118.781 51.2587 118.164 52.4083C118.017 52.6736 118.076 52.7915 118.311 52.9389C118.546 53.0568 118.781 53.2336 119.045 53.381C121.101 54.5011 123.304 55.0611 125.624 55.238C127.885 55.3854 130.059 55.1201 132.173 54.2358C135.933 52.6146 137.783 49.048 136.931 45.0688C136.491 42.976 135.257 41.4432 133.583 40.2052C132.115 39.1441 130.499 38.3777 128.913 37.5524C127.856 37.0218 126.799 36.4618 125.888 35.6659C125.154 35.0175 124.625 34.2511 124.596 33.2489C124.537 31.5983 125.418 30.4782 127.092 30.1245C128.649 29.7707 130.176 30.0066 131.703 30.3603C133.025 30.714 134.259 31.2151 135.492 31.8341ZM148.209 42.4749C148.209 46.4836 148.209 50.4629 148.209 54.4716C148.209 54.7959 148.297 54.8843 148.62 54.8843C150.118 54.8548 151.616 54.8548 153.084 54.8843C153.436 54.8843 153.525 54.8253 153.525 54.4421C153.525 46.4836 153.525 38.5251 153.525 30.5666C153.525 30.0655 153.466 30.1245 153.994 30.1245C156.315 30.1245 158.635 30.1245 160.926 30.1245C161.219 30.1245 161.337 30.036 161.395 29.7707C161.777 28.5328 162.159 27.2948 162.57 26.0568C162.658 25.7915 162.6 25.7325 162.335 25.7325C154.934 25.7325 147.504 25.7325 140.103 25.7325C139.809 25.7325 139.78 25.821 139.78 26.0862C139.78 27.2948 139.809 28.5033 139.78 29.7413C139.78 30.036 139.839 30.1245 140.162 30.1245C142.717 30.1245 145.272 30.1245 147.798 30.095C148.121 30.095 148.209 30.1834 148.209 30.5076C148.209 34.5164 148.209 38.4956 148.209 42.4749ZM135.11 69.1507C133.935 67.3232 132.702 65.5841 131.586 63.786C131.175 63.1376 130.734 62.8133 129.971 62.9312C129.677 62.9607 129.589 63.0197 129.589 63.3439C129.589 66.881 129.589 70.4181 129.589 73.9552C129.589 74.0142 129.589 74.0732 129.589 74.1321C129.589 74.2795 129.648 74.3384 129.794 74.3384C130.147 74.3384 130.47 74.309 130.822 74.3384C131.057 74.3384 131.145 74.2795 131.145 74.0142C131.145 71.4203 131.145 68.8264 131.145 66.2325C131.145 66.0557 131.087 65.9083 131.175 65.702C131.233 65.7609 131.234 65.7904 131.263 65.7904C132.379 67.441 133.466 69.0917 134.582 70.7424C134.846 71.1255 135.463 71.0961 135.698 70.7129C136.344 69.6812 136.99 68.6496 137.636 67.5884C138.047 66.94 138.458 66.2915 138.899 65.5546C138.899 65.7609 138.899 65.9083 138.899 66.0262C138.899 68.3843 138.899 70.7129 138.899 73.071C138.899 73.4541 138.723 73.9552 138.958 74.191C139.192 74.4269 139.721 74.2205 140.103 74.2795C140.397 74.309 140.455 74.1911 140.455 73.9258C140.455 71.8035 140.455 69.6517 140.455 67.5295C140.455 66.1146 140.455 64.6998 140.455 63.2849C140.455 62.9607 140.367 62.8723 140.074 62.9017C139.809 62.9312 139.545 62.9312 139.31 62.9017C139.104 62.9017 138.987 62.9607 138.899 63.1376C138.517 63.7566 138.106 64.405 137.724 65.024C136.814 66.4094 135.962 67.7358 135.11 69.1507ZM207.123 62.8723C205.39 62.9018 203.716 63.7566 202.659 65.6725C201.954 66.94 201.807 68.2959 202.013 69.7107C202.16 70.8897 202.6 71.9214 203.423 72.8057C204.685 74.1321 206.242 74.6037 208.033 74.4563C210.148 74.2795 211.705 73.2183 212.586 71.2435C213.026 70.2707 213.114 69.2096 213.056 68.1485C212.85 65.0535 210.589 62.9018 207.123 62.8723ZM191.499 68.6201C191.499 70.4181 191.499 72.1867 191.499 73.9847C191.499 74.25 191.557 74.3384 191.822 74.3384C192.997 74.309 194.171 74.3974 195.346 74.2795C196.756 74.1321 198.019 73.69 199.047 72.6583C200.016 71.6856 200.427 70.4771 200.544 69.1212C200.779 65.9378 199.135 63.3734 195.493 63.0197C194.289 62.9018 193.114 62.9902 191.91 62.9607C191.616 62.9607 191.528 63.0197 191.528 63.3144C191.499 65.083 191.499 66.8515 191.499 68.6201ZM148.268 68.2959C149.413 67.4705 149.853 66.5273 149.648 65.3188C149.413 64.0808 148.414 63.1965 147.034 63.0197C145.889 62.8723 144.714 62.9902 143.539 62.9607C143.304 62.9607 143.334 63.1081 143.334 63.2555C143.334 66.8515 143.334 70.4181 143.334 74.0142C143.334 74.25 143.392 74.3384 143.657 74.3384C144.626 74.3384 145.595 74.3384 146.535 74.3384C147.269 74.3384 147.974 74.2205 148.62 73.9258C149.824 73.3657 150.5 72.1867 150.382 70.8603C150.265 69.5044 149.56 68.7085 148.268 68.2959ZM219.399 69.0917C219.429 69.0328 219.517 69.0328 219.605 69.0033C221.161 68.3548 221.866 66.9694 221.484 65.3188C221.191 64.0513 220.045 63.167 218.548 63.0197C217.49 62.9312 216.462 62.9902 215.405 62.9607C215.141 62.9607 215.053 63.0197 215.053 63.3144C215.053 65.5546 215.053 67.8242 215.053 70.0644C215.053 71.3908 215.053 72.7173 215.053 74.0142C215.053 74.25 215.111 74.3384 215.376 74.3384C215.669 74.309 215.934 74.309 216.227 74.3384C216.55 74.3679 216.609 74.25 216.609 73.9552C216.58 72.6288 216.609 71.3024 216.609 69.976C216.609 69.8581 216.521 69.6517 216.756 69.6517C217.373 69.6223 218.019 69.5338 218.401 70.2118C218.548 70.4771 218.753 70.7129 218.9 70.9782C219.34 71.6856 219.752 72.4225 220.163 73.1299C220.398 73.5426 220.574 74.1026 220.926 74.2795C221.308 74.4858 221.866 74.3384 222.336 74.3384C222.366 74.3384 222.395 74.3384 222.395 74.3384C222.6 74.3384 222.659 74.309 222.542 74.1026C221.514 72.4225 220.662 70.6539 219.399 69.0917ZM127.915 74.3384C127.856 74.191 127.827 74.1026 127.797 74.0142C126.446 70.536 125.095 67.0284 123.744 63.5502C123.509 62.9607 123.509 62.9607 122.893 62.9312C122.511 62.9017 122.364 63.0197 122.217 63.4028C121.277 65.9673 120.279 68.5317 119.31 71.0961C118.928 72.0688 118.575 73.071 118.194 74.0437C118.076 74.3384 118.135 74.3679 118.429 74.3679C118.781 74.3384 119.104 74.3384 119.457 74.3679C119.662 74.3679 119.75 74.309 119.809 74.1026C120.103 73.2773 120.396 72.4814 120.69 71.6561C120.778 71.4498 120.866 71.3614 121.101 71.3614C122.335 71.3614 123.598 71.3614 124.831 71.3614C125.066 71.3614 125.183 71.4498 125.272 71.6561C125.565 72.452 125.859 73.2773 126.182 74.0732C126.241 74.2205 126.27 74.3679 126.476 74.3679C126.916 74.3384 127.386 74.3384 127.915 74.3384ZM160.632 74.3384C160.749 74.3384 160.896 74.3384 161.014 74.3384C161.484 74.3384 161.484 74.3384 161.307 73.9258C159.986 70.5066 158.664 67.0873 157.343 63.6681C157.078 62.9607 157.078 62.9902 156.315 62.9607C156.05 62.9607 155.933 63.0491 155.845 63.2849C154.993 65.5546 154.141 67.8242 153.26 70.0939C152.761 71.4203 152.262 72.7467 151.762 74.0437C151.674 74.2795 151.704 74.3679 151.968 74.3679C152.32 74.3384 152.644 74.3384 152.996 74.3679C153.202 74.3679 153.29 74.309 153.378 74.1026C153.671 73.2773 153.965 72.4814 154.259 71.6561C154.318 71.4498 154.435 71.3908 154.641 71.3908C155.903 71.3908 157.166 71.3908 158.459 71.3908C158.694 71.3908 158.752 71.4793 158.84 71.6561C159.075 72.3046 159.31 72.9531 159.575 73.6015C159.839 74.3384 159.839 74.3384 160.632 74.3384ZM189.472 74.3384C189.413 74.191 189.384 74.0731 189.325 73.9552C188.004 70.536 186.682 67.0873 185.361 63.6681C185.096 62.9607 185.096 62.9902 184.333 62.9607C184.068 62.9607 183.951 63.0491 183.863 63.2849C182.629 66.5273 181.396 69.7991 180.162 73.0415C180.015 73.4542 179.839 73.8963 179.663 74.3384C180.133 74.3384 180.544 74.309 180.955 74.3384C181.19 74.3384 181.337 74.2795 181.396 74.0437C181.66 73.2183 181.983 72.4225 182.277 71.6266C182.336 71.4203 182.453 71.3614 182.659 71.3614C183.921 71.3614 185.184 71.3614 186.418 71.3614C186.653 71.3614 186.741 71.4203 186.829 71.6561C187.123 72.4814 187.446 73.2773 187.739 74.1026C187.798 74.2205 187.798 74.3679 188.004 74.3679C188.503 74.3384 188.973 74.3384 189.472 74.3384ZM230.383 64.8472C230.383 64.4345 230.383 64.0808 230.383 63.7271C230.383 63.4913 230.325 63.4028 230.119 63.3144C229.179 62.9607 228.239 62.8133 227.241 62.9312C226.36 63.0197 225.567 63.3439 225.009 64.0513C224.069 65.2304 224.186 66.9694 225.302 67.9716C225.86 68.5022 226.536 68.8264 227.182 69.1801C227.769 69.5044 228.357 69.7991 228.797 70.2707C229.267 70.7718 229.414 71.3614 229.208 72.0098C229.032 72.6288 228.533 72.9236 227.946 73.071C226.859 73.3068 225.86 73.1004 224.891 72.5404C224.715 72.4225 224.598 72.4225 224.509 72.6288C224.392 72.8646 224.275 73.1004 224.157 73.3068C223.981 73.5426 224.098 73.6605 224.304 73.7784C225.684 74.5153 227.153 74.6921 228.68 74.2795C229.767 73.9552 230.589 73.2773 230.824 72.1277C231.088 70.9192 230.765 69.8581 229.825 69.0328C229.297 68.5611 228.65 68.2369 228.034 67.9127C227.505 67.6179 226.976 67.3526 226.536 66.94C226.066 66.4978 225.86 65.9378 226.007 65.3188C226.154 64.6998 226.624 64.405 227.211 64.2871C227.476 64.2282 227.74 64.2282 228.004 64.2282C228.856 64.2282 229.59 64.464 230.383 64.8472ZM175.199 62.8723C174.935 62.8723 174.612 62.8723 174.288 62.9607C173.055 63.226 172.145 63.9039 171.851 65.2009C171.557 66.4683 171.998 67.5 173.026 68.2664C173.525 68.6496 174.083 68.9148 174.612 69.2391C175.17 69.5633 175.757 69.8286 176.197 70.3297C177.137 71.3614 176.697 72.8057 175.375 73.1004C174.523 73.2773 173.701 73.1889 172.879 72.8646C172.585 72.7467 172.291 72.393 172.056 72.5404C171.821 72.6878 171.733 73.1004 171.557 73.3657C171.44 73.5721 171.44 73.69 171.675 73.8079C173.084 74.5742 174.582 74.7806 176.139 74.309C177.255 73.9847 178.048 73.2773 178.253 72.0983C178.488 70.8603 178.106 69.7991 177.108 69.0033C176.52 68.5317 175.816 68.178 175.17 67.8242C174.7 67.559 174.259 67.3232 173.877 66.94C173.554 66.5863 173.349 66.1736 173.407 65.702C173.466 64.9061 173.995 64.405 174.876 64.3166C175.786 64.2282 176.667 64.405 177.519 64.7882C177.725 64.8766 177.813 64.8766 177.783 64.6114C177.754 64.3461 177.754 64.0808 177.783 63.786C177.813 63.5502 177.725 63.4323 177.49 63.3439C176.755 63.0197 176.021 62.8723 175.199 62.8723ZM166.623 62.8723C166.3 62.8723 165.977 62.8723 165.654 62.9607C164.45 63.226 163.539 63.845 163.216 65.1124C162.893 66.3799 163.304 67.441 164.332 68.2369C165.008 68.7675 165.771 69.0917 166.506 69.5338C166.946 69.7697 167.357 70.0644 167.651 70.4476C168.385 71.3614 168.033 72.6288 166.917 73.012C166.682 73.1004 166.418 73.1299 166.153 73.1594C165.243 73.2183 164.391 73.012 163.628 72.5404C163.451 72.4225 163.334 72.452 163.246 72.6288C163.128 72.8941 163.011 73.1299 162.835 73.3657C162.717 73.5426 162.746 73.631 162.923 73.7194C164.479 74.5742 166.094 74.7806 167.739 74.1321C169.795 73.3363 170.265 70.8013 168.738 69.2096C168.327 68.797 167.827 68.4727 167.328 68.178C166.682 67.7948 165.977 67.5 165.39 67.0284C164.773 66.5273 164.538 65.8788 164.744 65.2304C164.92 64.6408 165.478 64.2871 166.241 64.2282C167.093 64.1692 167.915 64.3166 168.708 64.6998C169.031 64.8472 169.09 64.7587 169.061 64.464C169.031 64.2282 169.031 63.9629 169.061 63.7271C169.09 63.4913 168.973 63.4028 168.767 63.3144C168.121 63.0197 167.387 62.8723 166.623 62.8723Z" fill="#FEFEFE"/>
<path d="M212.204 34.7227C210.912 37.0218 209.384 39.203 207.975 41.4432C206.888 43.1528 205.801 44.833 204.715 46.5426C204.597 46.7489 204.45 46.8078 204.245 46.8078C203.657 46.7784 203.041 46.7784 202.453 46.8078C202.189 46.8078 202.042 46.7194 201.895 46.5131C199.839 43.536 197.784 40.5589 195.698 37.5819C195.052 36.6386 194.347 35.7249 193.731 34.7227C193.731 34.929 193.731 35.1648 193.731 35.3712C193.731 36.0196 193.789 36.6976 193.789 37.3461C193.789 43.0644 193.789 48.7533 193.789 54.4716C193.789 54.8253 193.701 54.9137 193.349 54.9137C191.88 54.8843 190.383 54.8843 188.914 54.9137C188.562 54.9137 188.474 54.8253 188.474 54.4716C188.474 45.8646 188.474 37.2871 188.474 28.6801C188.474 27.8253 188.474 26.9705 188.474 26.1452C188.474 25.9094 188.532 25.7915 188.797 25.7915C190.206 25.7915 191.616 25.7915 193.026 25.7915C193.261 25.7915 193.349 25.8799 193.466 26.0568C195.992 29.7118 198.518 33.3668 201.044 37.0218C201.778 38.083 202.512 39.1736 203.158 40.3231C203.276 40.5295 203.334 40.5589 203.481 40.3231C206.124 35.7544 209.12 31.4214 211.939 26.9705C212.145 26.6463 212.351 26.3515 212.556 26.0273C212.644 25.8799 212.762 25.7915 212.938 25.7915C214.377 25.7915 215.816 25.7915 217.226 25.7915C217.49 25.7915 217.52 25.8799 217.52 26.1157C217.52 35.607 217.52 45.0982 217.52 54.5895C217.52 54.8253 217.49 54.9137 217.226 54.9137C215.64 54.9137 214.083 54.9137 212.497 54.9137C212.233 54.9137 212.174 54.8253 212.174 54.56C212.174 48.6648 212.174 42.7991 212.174 36.9039C212.204 36.167 212.204 35.4301 212.204 34.7227Z" fill="#747678"/>
<path d="M81.8936 40.3232C81.9229 38.5252 82.4516 36.8156 83.1564 35.1649C84.4193 32.2763 86.2108 29.6824 88.1198 27.1769C91.1448 23.2566 94.5516 19.69 98.1052 16.2708C101.424 13.0874 104.86 10.0514 108.414 7.10379C108.796 6.77956 108.796 6.77956 109.119 7.16274C109.295 7.39855 109.618 7.63436 109.647 7.89964C109.647 8.16493 109.265 8.34178 109.06 8.57759C104.625 13.0285 100.396 17.6857 96.6074 22.6966C94.3166 25.7031 92.2314 28.8571 90.5574 32.2468C89.647 34.1038 88.8834 36.0197 88.4722 38.083C88.0317 40.2643 88.296 42.3571 89.0008 44.4499C89.9407 47.2501 91.321 49.844 92.8776 52.3494C95.3152 56.2992 98.1052 60.0132 101.072 63.5798C103.744 66.8221 106.534 69.9466 109.412 72.9531C109.559 73.13 109.559 73.2184 109.412 73.3658C109.207 73.6016 109.001 73.8374 108.796 74.1027C108.649 74.309 108.531 74.2796 108.355 74.1322C106.358 72.3636 104.42 70.5656 102.481 68.7381C98.9863 65.4368 95.6382 62.0175 92.437 58.4215C89.6176 55.2381 86.945 51.9368 84.7423 48.2817C83.6557 46.4542 82.6865 44.5972 82.1579 42.5044C82.011 41.8265 81.8936 41.0896 81.8936 40.3232Z" fill="#FDCA01"/>
<path d="M56.9006 40.7359C56.8712 42.6224 56.3132 44.3614 55.579 46.071C54.2574 49.0186 52.4365 51.6715 50.4688 54.2064C47.4144 58.1267 44.0076 61.6933 40.4246 65.142C37.194 68.2665 33.8166 71.2435 30.351 74.1322C30.1454 74.309 30.028 74.309 29.8811 74.1027C29.7343 73.8669 29.5581 73.6606 29.3525 73.4837C29.1763 73.3069 29.2056 73.2184 29.3818 73.0416C30.4685 71.892 31.6139 70.7424 32.7299 69.5634C37.1646 64.8767 41.335 59.9837 44.918 54.5896C46.7389 51.8483 48.3542 49.0481 49.4996 45.9531C50.1751 44.1256 50.645 42.2392 50.5275 40.2643C50.4394 38.6136 49.9695 37.0514 49.3528 35.5186C48.2367 32.63 46.6802 29.9772 44.9768 27.3833C41.8637 22.6376 38.3394 18.2457 34.6095 14.0012C32.9061 12.0558 31.144 10.1398 29.3231 8.28283C29.1175 8.0765 29.0881 7.9586 29.2937 7.75227C29.4993 7.54593 29.7049 7.28065 29.8811 7.04484C29.9986 6.86799 30.0867 6.86799 30.2629 7.01537C31.5845 8.22388 32.9649 9.4324 34.2865 10.6409C36.5185 12.6748 38.6918 14.7676 40.8357 16.9193C44.4775 20.6038 47.9724 24.3767 51.0855 28.5328C52.9064 30.9793 54.6098 33.4848 55.8433 36.3145C56.5482 37.9946 56.9006 39.4684 56.9006 40.7359Z" fill="#CE2553"/>
<path d="M69.5879 27.9728C67.4734 27.9433 65.7993 27.4127 64.184 26.7053C61.3646 25.4673 58.8389 23.7577 56.4306 21.9007C52.7008 19.0416 49.294 15.7992 46.0046 12.4389C42.5391 8.90182 39.2791 5.18784 36.1073 1.38544C35.8723 1.12015 35.843 0.972774 36.166 0.766442C36.4303 0.589586 36.6653 0.206399 36.9296 0.206399C37.1939 0.206399 37.3995 0.619063 37.6345 0.825394C42.5391 5.71841 47.6787 10.3461 53.2881 14.3843C56.3425 16.595 59.485 18.5994 62.9505 20.0732C64.6833 20.8101 66.4748 21.3702 68.3544 21.547C69.8816 21.6944 71.3794 21.4291 72.8185 20.987C75.7261 20.1027 78.3693 18.6878 80.9244 17.0961C85.1535 14.5023 89.089 11.4662 92.8776 8.25334C95.9613 5.68893 98.8982 3.03609 101.747 0.265351C101.894 0.117971 102.011 0.117971 102.158 0.265351C102.393 0.471683 102.657 0.70749 102.922 0.884346C103.098 1.03173 103.069 1.12015 102.951 1.26753C100.513 4.03828 98.0171 6.77954 95.4327 9.43238C92.7601 12.2031 90.0288 14.8854 87.18 17.4204C83.8906 20.368 80.4838 23.1387 76.6659 25.4084C75.0212 26.3811 73.3178 27.2064 71.4676 27.678C70.7333 27.8549 70.0285 27.9728 69.5879 27.9728Z" fill="#69BE29"/>
<path d="M69.7935 53.0568C71.6144 53.0862 73.3765 53.6758 75.1093 54.4421C77.9581 55.7391 80.5425 57.5371 83.0095 59.453C85.7996 61.6343 88.4428 64.0218 90.9685 66.5273C95.1683 70.6539 99.0744 75.0458 102.834 79.5851C102.863 79.6146 102.892 79.6736 102.922 79.703C103.186 79.9094 103.157 80.1157 102.863 80.2926C102.657 80.4105 102.481 80.5578 102.305 80.7347C102.099 80.941 101.982 80.8821 101.806 80.7052C99.603 78.465 97.3122 76.2838 94.9627 74.191C90.8511 70.5065 86.5632 67.0284 81.8935 64.1103C79.2797 62.4596 76.5484 61.0447 73.5821 60.1015C70.5277 59.1288 67.5614 59.4531 64.6245 60.6026C61.6583 61.7817 58.8976 63.3734 56.225 65.1419C51.6728 68.0895 47.5024 71.4792 43.4495 75.0164C41.3349 76.8733 39.2791 78.7893 37.2526 80.7347C37.0764 80.9116 36.9883 80.8821 36.8415 80.7347C36.6065 80.5284 36.3716 80.322 36.1072 80.1157C35.931 79.9683 35.9016 79.8799 36.0779 79.703C37.7519 77.8166 39.4259 75.9596 41.1293 74.1026C43.4495 71.6266 45.799 69.2096 48.266 66.8515C51.8784 63.4028 55.6082 60.1015 59.7199 57.2423C61.9226 55.7391 64.184 54.3537 66.7097 53.5284C67.6789 53.2631 68.6775 53.0568 69.7935 53.0568Z" fill="#01AFD7"/>
<path d="M166.535 40.2937C166.535 35.5776 166.535 30.8909 166.535 26.1747C166.535 25.821 166.623 25.7621 166.976 25.7621C172.027 25.7621 177.108 25.7621 182.159 25.7621C182.6 25.7621 182.6 25.7621 182.453 26.1453C182.071 27.3538 181.66 28.5623 181.278 29.7708C181.19 30.0361 181.073 30.1245 180.779 30.1245C177.93 30.1245 175.081 30.1245 172.262 30.0951C171.88 30.0951 171.821 30.213 171.821 30.5372C171.851 32.8363 171.821 35.1649 171.821 37.464C171.821 37.7293 171.88 37.8178 172.174 37.8178C175.023 37.8178 177.871 37.8178 180.75 37.8178C181.073 37.8178 181.131 37.9062 181.131 38.2009C181.102 39.38 181.102 40.5885 181.131 41.7675C181.131 42.0918 181.043 42.1802 180.72 42.1802C177.901 42.1802 175.052 42.1802 172.233 42.1802C171.939 42.1802 171.821 42.2392 171.821 42.5634C171.851 45.0983 171.821 47.6038 171.821 50.1387C171.821 50.4335 171.91 50.4924 172.203 50.4924C175.551 50.4924 178.899 50.4924 182.247 50.4924C182.541 50.4924 182.629 50.5514 182.629 50.8461C182.6 52.0841 182.629 53.3221 182.629 54.5601C182.629 54.7959 182.571 54.8549 182.336 54.8549C177.196 54.8549 172.056 54.8549 166.917 54.8549C166.623 54.8549 166.564 54.737 166.564 54.4717C166.535 49.7555 166.535 45.0394 166.535 40.2937Z" fill="#747678"/>
<path d="M135.492 31.8341C134.259 31.1856 133.025 30.6845 131.733 30.3898C130.206 30.0361 128.678 29.8003 127.122 30.154C125.448 30.5077 124.567 31.6278 124.626 33.2784C124.684 34.2806 125.184 35.047 125.918 35.6955C126.828 36.4913 127.885 37.0219 128.943 37.5819C130.529 38.4072 132.173 39.1736 133.612 40.2348C135.286 41.4728 136.491 43.0055 136.961 45.0983C137.812 49.0776 135.962 52.6441 132.203 54.2653C130.118 55.1791 127.915 55.4149 125.653 55.2675C123.333 55.1201 121.131 54.5601 119.075 53.4105C118.84 53.2631 118.605 53.1158 118.341 52.9684C118.106 52.8505 118.047 52.7031 118.194 52.4378C118.81 51.2883 119.398 50.1092 119.985 48.9597C120.103 48.7533 120.161 48.6944 120.396 48.8417C122.217 50.0503 124.244 50.7577 126.446 50.7872C127.504 50.8166 128.532 50.6987 129.501 50.2861C131.938 49.2544 131.88 46.631 130.764 45.2162C130.176 44.4793 129.413 43.9193 128.59 43.4476C127.181 42.5928 125.653 41.9149 124.214 41.119C123.01 40.4411 121.865 39.6452 120.896 38.6136C118.282 35.7544 118.37 31.0677 121.072 28.2675C122.57 26.7053 124.449 25.9094 126.564 25.6441C129.442 25.2904 132.261 25.6441 134.993 26.7348C135.404 26.8821 135.521 27.0885 135.521 27.5306C135.492 28.9455 135.492 30.3603 135.492 31.8341Z" fill="#747678"/>
<path d="M148.209 42.475C148.209 38.4957 148.209 34.5164 148.209 30.5372C148.209 30.213 148.15 30.1245 147.798 30.1245C145.243 30.154 142.687 30.1245 140.162 30.154C139.839 30.154 139.78 30.0656 139.78 29.7708C139.809 28.5623 139.78 27.3538 139.78 26.1158C139.78 25.88 139.809 25.7621 140.103 25.7621C147.504 25.7621 154.934 25.7621 162.335 25.7621C162.6 25.7621 162.658 25.821 162.57 26.0863C162.159 27.3243 161.777 28.5623 161.395 29.8003C161.307 30.0656 161.219 30.154 160.926 30.154C158.605 30.154 156.285 30.154 153.995 30.154C153.466 30.154 153.525 30.0951 153.525 30.5961C153.525 38.5547 153.525 46.5132 153.525 54.4717C153.525 54.8254 153.436 54.9138 153.084 54.9138C151.586 54.8843 150.088 54.8843 148.62 54.9138C148.297 54.9138 148.209 54.8549 148.209 54.5012C148.209 50.4629 148.209 46.4837 148.209 42.475Z" fill="#747678"/>
<path d="M135.11 69.1507C135.932 67.7358 136.814 66.4094 137.665 65.0535C138.047 64.4345 138.458 63.8155 138.84 63.1671C138.957 62.9902 139.075 62.9312 139.251 62.9312C139.515 62.9607 139.78 62.9607 140.015 62.9312C140.308 62.9018 140.426 62.9902 140.397 63.3144C140.367 64.7293 140.397 66.1441 140.397 67.559C140.397 69.6813 140.397 71.833 140.397 73.9553C140.397 74.2206 140.338 74.3385 140.044 74.309C139.662 74.2795 139.134 74.4858 138.899 74.2206C138.664 73.9848 138.84 73.4837 138.84 73.1005C138.84 70.7424 138.84 68.4138 138.84 66.0557C138.84 65.9378 138.84 65.7904 138.84 65.5841C138.399 66.2915 137.988 66.94 137.577 67.6179C136.931 68.6496 136.285 69.6813 135.639 70.7424C135.404 71.1256 134.758 71.1551 134.523 70.7719C133.407 69.1212 132.32 67.4706 131.204 65.8199C131.175 65.7904 131.175 65.7609 131.116 65.7315C131.028 65.9083 131.087 66.0852 131.087 66.262C131.087 68.8559 131.087 71.4498 131.087 74.0437C131.087 74.309 130.998 74.3679 130.764 74.3679C130.411 74.3385 130.088 74.3679 129.736 74.3679C129.589 74.3679 129.53 74.309 129.53 74.1616C129.53 74.1027 129.53 74.0437 129.53 73.9847C129.53 70.4476 129.53 66.9105 129.53 63.3734C129.53 63.0786 129.618 63.0197 129.912 62.9607C130.675 62.8428 131.116 63.1671 131.527 63.8155C132.702 65.6136 133.965 67.3232 135.11 69.1507Z" fill="#747678"/>
<path d="M207.123 62.8723C210.589 62.8723 212.85 65.0535 213.056 68.1485C213.114 69.2391 213.026 70.2707 212.586 71.2434C211.705 73.2183 210.148 74.2795 208.033 74.4563C206.271 74.6037 204.685 74.1321 203.422 72.8057C202.6 71.9509 202.16 70.8897 202.013 69.7107C201.807 68.2958 201.954 66.9399 202.659 65.6725C203.716 63.7565 205.39 62.9312 207.123 62.8723ZM211.44 68.679C211.47 67.9126 211.323 67.1463 211 66.4094C209.884 63.8744 206.301 63.4028 204.568 65.584C203.393 67.0578 203.276 69.7402 204.274 71.4203C205.655 73.7489 209.414 73.7784 210.794 71.4203C211.235 70.5655 211.44 69.6517 211.44 68.679Z" fill="#747678"/>
<path d="M191.499 68.6201C191.499 66.8515 191.499 65.083 191.499 63.3144C191.499 63.0197 191.587 62.9312 191.881 62.9607C193.085 62.9902 194.259 62.9018 195.464 63.0197C199.105 63.3734 200.75 65.9378 200.515 69.1212C200.427 70.4771 199.986 71.6856 199.017 72.6583C198.019 73.69 196.726 74.1321 195.317 74.2795C194.142 74.3974 192.967 74.309 191.792 74.3384C191.528 74.3384 191.469 74.25 191.469 73.9847C191.499 72.2162 191.499 70.4181 191.499 68.6201ZM193.055 68.6496C193.055 70.0055 193.055 71.3909 193.055 72.7467C193.055 72.9826 193.114 73.071 193.378 73.071C193.995 73.071 194.612 73.071 195.199 73.012C196.315 72.8941 197.284 72.4815 197.989 71.5677C198.782 70.536 198.929 69.357 198.87 68.119C198.753 66.1736 197.637 64.8177 195.757 64.405C195.023 64.2282 194.289 64.2282 193.555 64.2577C192.997 64.2577 193.055 64.1987 193.055 64.7293C193.055 66.0262 193.055 67.3526 193.055 68.6496Z" fill="#747678"/>
<path d="M148.268 68.2959C149.53 68.7086 150.265 69.5044 150.382 70.8603C150.5 72.1867 149.824 73.3363 148.62 73.9258C147.944 74.2501 147.24 74.3385 146.535 74.3385C145.566 74.3385 144.596 74.3385 143.657 74.3385C143.392 74.3385 143.334 74.2501 143.334 74.0143C143.334 70.4182 143.334 66.8516 143.334 63.2555C143.334 63.1082 143.304 62.9313 143.539 62.9608C144.714 62.9902 145.859 62.9018 147.034 63.0197C148.414 63.1966 149.413 64.0809 149.648 65.3188C149.853 66.5274 149.442 67.4706 148.268 68.2959ZM144.89 71.0961C144.89 71.6562 144.89 72.2162 144.89 72.7468C144.89 72.9236 144.919 73.0415 145.125 73.0415C145.771 73.0121 146.388 73.0415 147.034 73.0121C148.121 72.9236 148.796 72.2457 148.826 71.2435C148.855 70.1529 148.297 69.4455 147.152 69.2391C146.447 69.1212 145.742 69.2097 145.037 69.1802C144.861 69.1802 144.89 69.2981 144.861 69.416C144.89 69.976 144.89 70.5361 144.89 71.0961ZM144.89 66.1147C144.89 66.6453 144.89 67.1464 144.89 67.6769C144.89 67.8243 144.919 67.9127 145.096 67.9127C145.624 67.8833 146.124 67.9422 146.652 67.8538C147.563 67.7064 148.121 67.0874 148.15 66.2031C148.179 65.142 147.739 64.5525 146.77 64.3461C146.212 64.2282 145.654 64.2872 145.096 64.2872C144.89 64.2872 144.92 64.4346 144.92 64.5525C144.89 65.083 144.89 65.5841 144.89 66.1147Z" fill="#747678"/>
<path d="M219.399 69.0916C220.662 70.6539 221.514 72.4224 222.571 74.1026C222.689 74.3089 222.63 74.3384 222.424 74.3384C222.395 74.3384 222.366 74.3384 222.366 74.3384C221.896 74.3384 221.308 74.4857 220.956 74.2794C220.603 74.0731 220.427 73.513 220.192 73.1298C219.781 72.4224 219.341 71.6855 218.929 70.9781C218.783 70.7128 218.577 70.477 218.43 70.2117C218.048 69.5338 217.402 69.6222 216.785 69.6517C216.55 69.6517 216.639 69.858 216.639 69.9759C216.639 71.3023 216.639 72.6288 216.639 73.9552C216.639 74.2794 216.55 74.3678 216.257 74.3384C215.992 74.3089 215.699 74.3089 215.405 74.3384C215.141 74.3678 215.082 74.2794 215.082 74.0141C215.082 72.6877 215.082 71.3613 215.082 70.0643C215.082 67.8242 215.082 65.5545 215.082 63.3143C215.082 63.0491 215.17 62.9606 215.434 62.9606C216.492 62.9901 217.52 62.9312 218.577 63.0196C220.075 63.167 221.22 64.0512 221.514 65.3187C221.896 66.9694 221.191 68.3547 219.634 69.0032C219.517 69.0327 219.429 69.0327 219.399 69.0916ZM216.609 66.2914C216.609 66.8809 216.609 67.4705 216.609 68.06C216.609 68.1779 216.55 68.3547 216.756 68.3547C217.402 68.3547 218.048 68.4432 218.665 68.1779C219.517 67.8536 219.987 67.1462 219.957 66.203C219.928 65.2598 219.429 64.6408 218.548 64.3755C218.019 64.2281 217.49 64.2576 216.932 64.2281C216.668 64.2281 216.58 64.2871 216.58 64.5523C216.609 65.1419 216.609 65.7314 216.609 66.2914Z" fill="#747678"/>
<path d="M127.915 74.3385C127.386 74.3385 126.916 74.3385 126.446 74.3385C126.241 74.3385 126.211 74.1911 126.153 74.0437C125.859 73.2479 125.536 72.452 125.242 71.6267C125.154 71.3909 125.037 71.332 124.802 71.332C123.568 71.332 122.305 71.332 121.072 71.332C120.837 71.332 120.749 71.3909 120.661 71.6267C120.367 72.452 120.073 73.2479 119.78 74.0732C119.721 74.2501 119.633 74.3385 119.427 74.3385C119.075 74.309 118.752 74.309 118.399 74.3385C118.135 74.368 118.047 74.309 118.164 74.0143C118.546 73.0416 118.899 72.0689 119.28 71.0667C120.25 68.5023 121.248 65.9379 122.188 63.3734C122.335 63.0197 122.482 62.9018 122.863 62.9018C123.48 62.9313 123.48 62.9018 123.715 63.5208C125.066 66.999 126.417 70.5066 127.768 73.9848C127.827 74.1027 127.856 74.1911 127.915 74.3385ZM122.981 65.2894C122.393 66.9106 121.835 68.4728 121.277 70.094C122.364 70.094 123.392 70.094 124.449 70.094C124.625 70.094 124.684 70.0645 124.626 69.8582C124.067 68.3549 123.509 66.8516 122.981 65.2894Z" fill="#747678"/>
<path d="M160.632 74.3384C159.839 74.3384 159.839 74.3384 159.545 73.5721C159.31 72.9236 159.046 72.2751 158.811 71.6267C158.752 71.4498 158.664 71.3319 158.429 71.3614C157.166 71.3614 155.903 71.3614 154.611 71.3614C154.406 71.3614 154.288 71.4498 154.229 71.6267C153.936 72.452 153.642 73.2478 153.348 74.0732C153.29 74.2795 153.202 74.3679 152.967 74.3384C152.614 74.309 152.291 74.309 151.939 74.3384C151.645 74.3679 151.645 74.25 151.733 74.0142C152.232 72.6878 152.732 71.3908 153.231 70.0644C154.083 67.7948 154.964 65.5251 155.815 63.2555C155.903 63.0197 156.021 62.9018 156.285 62.9312C157.049 62.9607 157.049 62.9312 157.313 63.6387C158.635 67.0579 159.956 70.4771 161.278 73.8963C161.454 74.309 161.454 74.309 160.984 74.309C160.896 74.3384 160.779 74.3384 160.632 74.3384ZM156.579 65.2598C156.021 66.8515 155.463 68.3548 154.934 69.8876C154.846 70.1529 155.052 70.0939 155.169 70.0939C156.08 70.0939 156.99 70.0939 157.901 70.0939C158.224 70.0939 158.253 70.0055 158.136 69.7402C157.754 68.6791 157.372 67.6179 156.99 66.5568C156.873 66.1441 156.726 65.7315 156.579 65.2598Z" fill="#747678"/>
<path d="M189.472 74.3384C188.973 74.3384 188.474 74.3384 188.004 74.3384C187.798 74.3384 187.798 74.191 187.739 74.0731C187.416 73.2478 187.123 72.452 186.829 71.6266C186.741 71.4203 186.653 71.3319 186.418 71.3319C185.155 71.3319 183.892 71.3319 182.659 71.3319C182.453 71.3319 182.336 71.3908 182.277 71.5972C181.983 72.393 181.689 73.2183 181.396 74.0142C181.308 74.25 181.19 74.3384 180.955 74.3089C180.544 74.2795 180.133 74.3089 179.663 74.3089C179.839 73.8373 179.986 73.4247 180.162 73.012C181.396 69.7696 182.629 66.4978 183.863 63.2555C183.951 62.9902 184.068 62.9312 184.333 62.9312C185.096 62.9607 185.096 62.9312 185.361 63.6386C186.682 67.0579 188.004 70.5065 189.325 73.9258C189.384 74.0731 189.443 74.191 189.472 74.3384ZM184.597 65.3777C184.479 65.4072 184.479 65.4956 184.479 65.5546C184.215 66.2915 183.98 67.0284 183.716 67.7358C183.452 68.4432 183.217 69.1506 182.952 69.8581C182.923 69.9465 182.805 70.0939 183.04 70.0939C184.098 70.0939 185.155 70.0939 186.271 70.0939C185.684 68.5022 185.155 66.9399 184.597 65.3777Z" fill="#747678"/>
<path d="M230.383 64.8472C229.62 64.4641 228.856 64.2282 228.063 64.2282C227.799 64.2282 227.534 64.2282 227.27 64.2872C226.683 64.4051 226.213 64.6999 226.066 65.3189C225.919 65.9673 226.095 66.4979 226.595 66.94C227.035 67.3527 227.564 67.618 228.092 67.9127C228.709 68.237 229.326 68.5907 229.884 69.0328C230.824 69.8582 231.147 70.9193 230.882 72.1278C230.618 73.2774 229.825 73.9848 228.739 74.2796C227.241 74.7217 225.772 74.5154 224.363 73.7785C224.128 73.6606 224.039 73.5427 224.216 73.3069C224.363 73.1005 224.48 72.8647 224.568 72.6289C224.656 72.4226 224.774 72.4226 224.95 72.5405C225.89 73.1005 226.918 73.3069 228.004 73.071C228.592 72.9531 229.091 72.6289 229.267 72.0099C229.473 71.3614 229.297 70.7719 228.856 70.2708C228.386 69.7697 227.799 69.475 227.241 69.1802C226.565 68.8265 225.919 68.4728 225.361 67.9717C224.245 66.94 224.128 65.201 225.067 64.0514C225.655 63.344 226.418 63.0197 227.299 62.9313C228.269 62.8134 229.238 62.9608 230.178 63.3145C230.383 63.4029 230.471 63.4913 230.442 63.7272C230.354 64.0514 230.383 64.4051 230.383 64.8472Z" fill="#747678"/>
<path d="M175.199 62.8723C176.021 62.8723 176.755 63.0196 177.49 63.2849C177.725 63.3733 177.813 63.4912 177.783 63.7271C177.754 63.9923 177.754 64.2576 177.783 64.5524C177.783 64.8177 177.725 64.8177 177.519 64.7292C176.697 64.3166 175.816 64.1692 174.876 64.2576C173.995 64.3461 173.466 64.8177 173.407 65.643C173.378 66.1146 173.554 66.5273 173.877 66.881C174.259 67.2642 174.7 67.5295 175.17 67.7653C175.845 68.119 176.521 68.4727 177.108 68.9443C178.106 69.7402 178.488 70.8013 178.253 72.0393C178.018 73.2183 177.255 73.9257 176.139 74.25C174.582 74.6921 173.114 74.5153 171.675 73.7489C171.44 73.631 171.44 73.5131 171.557 73.3068C171.733 73.0415 171.821 72.6288 172.056 72.4814C172.291 72.334 172.585 72.7172 172.879 72.8057C173.701 73.1299 174.523 73.2478 175.375 73.0415C176.726 72.7467 177.137 71.3024 176.197 70.2707C175.757 69.7696 175.17 69.5043 174.612 69.1801C174.054 68.8854 173.525 68.5906 173.026 68.2074C171.998 67.441 171.557 66.4094 171.851 65.1419C172.145 63.845 173.055 63.167 174.288 62.9017C174.612 62.9017 174.935 62.8723 175.199 62.8723Z" fill="#747678"/>
<path d="M166.623 62.8723C167.387 62.8723 168.121 63.0196 168.826 63.2849C169.031 63.3733 169.119 63.4618 169.119 63.6976C169.09 63.9334 169.09 64.1987 169.119 64.4345C169.149 64.7292 169.09 64.8177 168.767 64.6703C168.003 64.2871 167.181 64.1397 166.3 64.1987C165.536 64.2576 164.978 64.6408 164.802 65.2009C164.597 65.8493 164.832 66.4978 165.448 66.9989C166.036 67.4705 166.741 67.7947 167.387 68.1485C167.886 68.4432 168.385 68.738 168.796 69.1801C170.353 70.7423 169.854 73.2773 167.798 74.1026C166.153 74.7511 164.538 74.5447 162.981 73.6899C162.805 73.6015 162.776 73.5131 162.893 73.3362C163.04 73.1004 163.187 72.8351 163.304 72.5993C163.393 72.393 163.481 72.393 163.686 72.5109C164.45 72.9825 165.302 73.1888 166.212 73.1299C166.476 73.1004 166.711 73.0709 166.976 72.9825C168.092 72.5993 168.444 71.3319 167.71 70.4181C167.387 70.0349 166.976 69.7696 166.564 69.5043C165.83 69.0917 165.067 68.738 164.391 68.2074C163.363 67.4116 162.952 66.3504 163.275 65.083C163.598 63.8155 164.509 63.1965 165.713 62.9312C165.977 62.8723 166.3 62.8723 166.623 62.8723Z" fill="#747678"/>
<path d="M211.44 68.679C211.44 69.6811 211.264 70.5654 210.765 71.4202C209.414 73.7783 205.625 73.7488 204.245 71.4202C203.246 69.7106 203.364 67.0578 204.539 65.584C206.271 63.4322 209.854 63.8744 210.97 66.4093C211.293 67.1462 211.44 67.9126 211.44 68.679Z" fill="#FEFEFE"/>
<path d="M193.055 68.6496C193.055 67.3527 193.055 66.0262 193.055 64.7293C193.055 64.1693 192.997 64.2577 193.555 64.2577C194.289 64.2577 195.023 64.2577 195.757 64.4051C197.637 64.8472 198.753 66.1736 198.87 68.119C198.929 69.357 198.782 70.5361 197.989 71.5677C197.284 72.4815 196.286 72.8647 195.199 73.012C194.582 73.071 193.995 73.071 193.378 73.071C193.143 73.071 193.055 72.9826 193.055 72.7468C193.055 71.3909 193.055 70.0055 193.055 68.6496Z" fill="#FEFEFE"/>
<path d="M144.89 71.096C144.89 70.536 144.89 69.9759 144.89 69.4454C144.89 69.3275 144.861 69.2096 145.066 69.2096C145.771 69.239 146.476 69.1506 147.181 69.2685C148.297 69.4748 148.884 70.1823 148.855 71.2729C148.826 72.2751 148.15 72.953 147.063 73.0414C146.447 73.1004 145.801 73.0709 145.154 73.0709C144.919 73.0709 144.919 72.953 144.919 72.7762C144.89 72.1866 144.89 71.6266 144.89 71.096Z" fill="#FEFEFE"/>
<path d="M144.89 66.1146C144.89 65.584 144.89 65.083 144.89 64.5524C144.89 64.4345 144.861 64.2871 145.066 64.2871C145.624 64.2871 146.182 64.2282 146.74 64.3461C147.709 64.5524 148.15 65.1419 148.121 66.203C148.091 67.0578 147.533 67.7063 146.623 67.8537C146.124 67.9421 145.595 67.8832 145.066 67.9126C144.89 67.9126 144.861 67.8242 144.861 67.6768C144.89 67.1463 144.89 66.6157 144.89 66.1146Z" fill="#FEFEFE"/>
<path d="M216.609 66.2916C216.609 65.702 216.609 65.142 216.609 64.5525C216.609 64.2872 216.697 64.2282 216.962 64.2282C217.49 64.2577 218.048 64.1988 218.577 64.3756C219.487 64.6409 219.957 65.2599 219.987 66.2031C220.016 67.1464 219.575 67.8538 218.694 68.178C218.078 68.4138 217.431 68.3254 216.785 68.3549C216.58 68.3549 216.639 68.178 216.639 68.0601C216.609 67.4706 216.609 66.8811 216.609 66.2916Z" fill="#FEFEFE"/>
<path d="M122.981 65.2893C123.539 66.8515 124.067 68.3548 124.596 69.8581C124.684 70.0644 124.625 70.0939 124.42 70.0939C123.392 70.0939 122.364 70.0939 121.248 70.0939C121.835 68.4727 122.393 66.9105 122.981 65.2893Z" fill="#FEFEFE"/>
<path d="M156.579 65.2599C156.726 65.7315 156.873 66.1442 157.019 66.5274C157.401 67.5885 157.754 68.6496 158.165 69.7108C158.282 70.0055 158.224 70.0645 157.93 70.0645C157.019 70.035 156.109 70.0645 155.199 70.0645C155.081 70.0645 154.876 70.1529 154.964 69.8581C155.463 68.3843 155.992 66.8516 156.579 65.2599Z" fill="#FEFEFE"/>
<path d="M184.597 65.3777C185.155 66.9399 185.684 68.5021 186.271 70.0938C185.155 70.0938 184.098 70.0938 183.04 70.0938C182.805 70.0938 182.923 69.9465 182.952 69.858C183.217 69.1506 183.452 68.4432 183.716 67.7358C183.98 66.9989 184.215 66.262 184.48 65.5545C184.48 65.4661 184.48 65.4072 184.597 65.3777Z" fill="#FEFEFE"/>
</svg>
