<svg xmlns="http://www.w3.org/2000/svg" width="202" height="87" viewBox="0 0 202 87"><g fill="none" fill-rule="nonzero"><path fill="#489C22" d="M43.19 29.723c8.493-.058 24.24-15.113 36.158-28.701-.41-.346-.823-.686-1.24-1.022C66.83 10.882 51.7 22.872 43.144 22.93 34.178 22.988 19.715 11.413 8.421.035 8.017.352 7.63.672 7.243 1 18.708 14.9 33.907 29.786 43.188 29.726"/><path fill="#DC0C43" d="M29.78 43.303c-.063-8.484-15.144-24.202-28.758-36.094-.347.404-.687.82-1.022 1.235 10.905 11.268 22.913 26.363 22.976 34.905.064 8.955-11.523 23.403-22.913 34.692.318.404.644.794.97 1.175 13.912-11.457 28.814-26.638 28.748-35.907v-.006Z"/><path fill="#FFBF00" d="M56.623 42.997c.032 8.484 15.061 24.249 28.644 36.184.346-.404.693-.814 1.027-1.235-10.873-11.289-22.843-26.43-22.872-34.975-.034-8.951 11.6-23.365 23.025-34.614-.317-.404-.64-.794-.966-1.177-13.95 11.413-28.898 26.548-28.858 35.817Z"/><path fill="#00A3D4" d="M43.444 56.51c-8.492.059-24.245 15.108-36.16 28.7.404.346.813.686 1.24 1.018 11.28-10.88 26.41-22.86 34.967-22.921 8.963-.058 23.426 11.52 34.718 22.9.404-.317.793-.637 1.177-.966-11.465-13.9-26.658-28.788-35.944-28.727"/><path fill="#3E4042" d="M173.49 78.437a9.986 9.986 0 0 1-4.31.984 6.051 6.051 0 0 1-6.411-6.346 6.372 6.372 0 0 1 6.72-6.672c1.213 0 2.41.231 3.536.675v1.605a7.592 7.592 0 0 0-3.44-.802 4.675 4.675 0 0 0-5.001 5.053 4.554 4.554 0 0 0 4.75 5.032 5.945 5.945 0 0 0 2.453-.461v-4.34h1.7v5.263l.002.009Zm-23.465-11.918h1.66l5.754 7.485a37.154 37.154 0 0 1 1.72 2.366h.037c-.037-.692-.037-1.31-.037-2.213v-7.641h1.7v12.711h-1.487l-5.965-7.774a59.906 59.906 0 0 1-1.679-2.294h-.04c.04.603.057 1.215.057 2.124v7.944h-1.72V66.516v.003Zm-4.23 0h1.72v12.708h-1.72V66.516v.003Zm-13.338 0h1.66l5.754 7.485a37.154 37.154 0 0 1 1.72 2.366h.04c-.04-.692-.04-1.31-.04-2.213v-7.641h1.702v12.711h-1.489l-5.968-7.77c-.58-.751-1.14-1.516-1.68-2.295h-.04c.04.6.058 1.215.058 2.12v7.948h-1.717V66.516v.003Zm-7.145 6.034a3.093 3.093 0 0 0 1.645-.401 2.32 2.32 0 0 0 .23-3.703 2.984 2.984 0 0 0-1.855-.52h-1.157v4.635h1.137v-.011Zm-2.857-6.037h2.877a5.404 5.404 0 0 1 2.811.617 3.168 3.168 0 0 1 1.625 2.895 3.275 3.275 0 0 1-2.548 3.338v.038a6.246 6.246 0 0 1 1.543 2.046l2.263 3.78h-2.009l-2.083-3.532c-.6-1.059-1.082-1.636-1.449-1.731h-1.313v5.26h-1.72V66.52l.003-.003Zm-4.79 7.967-1.177-3.318-.716-2.119h-.038c-.135.462-.349 1.06-.735 2.142l-1.204 3.298h3.867l.003-.003Zm-2.548-8.002h1.235l4.943 12.746h-1.826l-1.256-3.336h-4.92l-1.238 3.336h-1.777l4.839-12.746Zm-12.01.038h6.423l-.502 1.405h-4.219v4.086h4.156v1.429h-4.133v4.38h4.8v1.403h-6.508V66.519h-.017Zm-7.685 0h1.717v11.303h4.66v1.402h-6.368V66.52H95.422Zm75.435-39.12h5.137l8.15 11.717c1.081 1.601 1.884 2.776 2.593 4.011h.093a65.827 65.827 0 0 1 2.545-4.19l7.445-11.528H202v30.998h-5.702V40.902c0-1.27 0-2.871.095-4.092h-.092a38.182 38.182 0 0 1-2.118 3.48l-6.124 9.506h-2.594l-6.782-9.74a28.682 28.682 0 0 1-2.12-3.197h-.096c.05 1.22.05 2.822.05 3.905V58.41h-5.64V27.4h-.02Zm-23.65 0h17.152l-1.51 4.615h-9.99v8.282h9.944v4.611h-9.947v8.891H164.4v4.615H147.2V27.4h.006Zm-19.315 4.615h-9.05V27.4h24.5l-1.463 4.614h-8.337V58.41h-5.636V32.01h-.014v.003ZM97.549 51.868a12.222 12.222 0 0 0 7.03 2.256c2.59 0 5.18-.986 5.18-3.667 0-6.069-13.428-5.316-13.428-14.775 0-4.562 3.627-8.565 10.083-8.565a17.609 17.609 0 0 1 7.583 1.553v5.18a16.131 16.131 0 0 0-7.399-1.98c-2.167 0-4.242.848-4.242 3.341 0 5.694 13.43 4.94 13.43 14.775 0 5.506-4.71 8.891-11.072 8.891a16.714 16.714 0 0 1-9.376-2.678l2.208-4.328.003-.006v.003Z"/></g></svg>