<?xml version="1.0" encoding="UTF-8"?>
<svg width="30px" height="17px" viewBox="0 0 30 17" version="1.1" xmlns="http://www.w3.org/2000/svg" xmlns:xlink="http://www.w3.org/1999/xlink">
    <!-- Generator: Sketch 51.3 (57544) - http://www.bohemiancoding.com/sketch -->
    <title>arrow-pink</title>
    <desc>Created with Sketch.</desc>
    <defs></defs>
    <g id="arrow-pink" stroke="none" stroke-width="1" fill="none" fill-rule="evenodd">
        <path d="M8.87854996e-16,6.22245585 C7.22736725,6.70077482 14.2881285,7.136002 21.325565,5.0719048 C19.0230704,4.23592389 16.6905867,3.4387256 15.6343048,0 C16.8172072,0.508483234 17.870157,1.02989401 18.9664243,1.4177202 C21.5421527,2.33988471 24.1345417,3.1801748 26.7136022,4.09372095 C28.3130196,4.66253271 29.1993634,6.29571191 29.9790794,8.01938389 C30.0590502,8.19606027 29.8957764,8.7260894 29.7258383,8.88121988 C28.0597785,10.5402542 26.3937188,12.1303416 24.727659,13.7893758 C23.1896188,15.2722497 21.4400217,16.3471784 19.5795343,16.9523139 C19.3384451,17.0416582 19.0798402,17.0044988 18.8597965,16.8488936 C17.7652039,15.8853238 16.8768567,14.5793604 16.2774039,13.0525061 C18.2766756,12.0096845 20.1993086,10.8979161 21.8753647,8.93723922 C19.9493996,9.14407986 18.1567193,9.42848573 16.3573747,9.51036015 C11.9423164,9.70427325 7.52392589,9.81631193 3.1055354,9.94127815 C2.72926501,9.92724942 2.36578792,9.76152398 2.06591411,9.46726835 C1.17664437,8.62835608 0.46595475,7.51211676 8.87854996e-16,6.22245585 Z" id="Shape" fill="#F161CE" fill-rule="nonzero"></path>
    </g>
</svg>