<?xml version="1.0" encoding="UTF-8"?>
<svg width="123" height="71" viewBox="0 0 123 71" xmlns="http://www.w3.org/2000/svg" xmlns:xlink="http://www.w3.org/1999/xlink">
  <style>
    .a{
      fill:#FFF;
    }
    .b{
      fill:white;
    }
  </style>
  <defs>
    <polygon id="path-1" points="0.3 1.1 3.7 1.1 3.7 3.5 0.3 3.5"/>
    <polygon id="path-3" points="0.4 0.2 3.8 0.2 3.8 3.5 0.4 3.5"/>
    <polygon id="path-5" points="0.8 0.2 4.2 0.2 4.2 3.4 0.8 3.4"/>
    <polygon id="path-7" points="0 72 121.8 72 121.8 1.1 0 1.1"/>
  </defs>
  <g id="Symbols" fill="none">
    <g id="global/footer/desktop">
      <g id="Group-160" transform="translate(-224 -68)translate(224 67)">
        <polygon id="Fill-1" points="1 1 1 72 3 72 3 1" class="a"/>
        <g id="Group-159" transform="translate(1 0)">
          <path d="M23.6 5.7C23.5 6.1 23.3 6.2 23.3 6.5 23.4 6.7 23.6 6.9 23.7 7.1 23.8 6.8 24 6.6 24 6.4 24 6.2 23.7 5.9 23.6 5.7" id="Fill-2" class="a"/>
          <path d="M27.8 5.7C28 6.1 28.1 6.2 28.1 6.5 28.1 6.7 27.8 6.9 27.7 7.1 27.6 6.8 27.4 6.6 27.5 6.4 27.5 6.2 27.8 5.9 27.8 5.7" id="Fill-4" class="a"/>
          <path d="M21.2 5.6C21.4 5.6 21.5 5.4 21.5 5.3 21.5 5.1 21.4 5 21.2 5 21 5 20.9 5.1 20.9 5.3 20.9 5.4 21 5.6 21.2 5.6" id="Fill-6" class="a"/>
          <path d="M21.4 6C21.4 5.8 21.3 5.7 21.1 5.7 20.9 5.7 20.8 5.8 20.8 6 20.8 6.1 20.9 6.2 21.1 6.2 21.3 6.2 21.4 6.1 21.4 6" id="Fill-8" class="a"/>
          <path d="M21.5 6.7C21.5 6.5 21.4 6.4 21.2 6.4 21.1 6.4 20.9 6.5 20.9 6.7 20.9 6.8 21.1 6.9 21.2 6.9 21.4 6.9 21.5 6.8 21.5 6.7" id="Fill-10" class="a"/>
          <path d="M22.8 4.2C22.9 4.2 23.1 4.1 23.1 3.9 23.1 3.8 22.9 3.7 22.8 3.7 22.6 3.7 22.5 3.8 22.5 3.9 22.5 4.1 22.6 4.2 22.8 4.2" id="Fill-12" class="a"/>
          <path d="M22.1 4.4C22.2 4.4 22.3 4.3 22.3 4.2 22.3 4 22.2 3.9 22.1 3.9 21.9 3.9 21.8 4 21.8 4.2 21.8 4.3 21.9 4.4 22.1 4.4" id="Fill-14" class="a"/>
          <path d="M21.5 4.9C21.7 4.9 21.8 4.8 21.8 4.6 21.8 4.5 21.7 4.4 21.5 4.4 21.3 4.4 21.2 4.5 21.2 4.6 21.2 4.8 21.3 4.9 21.5 4.9" id="Fill-16" class="a"/>
          <path d="M23.5 4.3C23.7 4.3 23.8 4.2 23.8 4 23.8 3.8 23.7 3.7 23.5 3.7 23.4 3.7 23.2 3.8 23.2 4 23.2 4.2 23.4 4.3 23.5 4.3" id="Fill-18" class="a"/>
          <path d="M24.2 4.5C24.4 4.5 24.5 4.4 24.5 4.2 24.5 4 24.4 3.9 24.2 3.9 24.1 3.9 23.9 4 23.9 4.2 23.9 4.4 24.1 4.5 24.2 4.5" id="Fill-20" class="a"/>
          <path d="M24.9 4.8C25 4.8 25.2 4.7 25.2 4.5 25.2 4.4 25 4.2 24.9 4.2 24.7 4.2 24.6 4.4 24.6 4.5 24.6 4.7 24.7 4.8 24.9 4.8" id="Fill-22" class="a"/>
          <path d="M30 5.3C30 5.4 30.1 5.6 30.3 5.6 30.4 5.6 30.5 5.4 30.5 5.3 30.5 5.1 30.4 5 30.3 5 30.1 5 30 5.1 30 5.3" id="Fill-24" class="a"/>
          <path d="M30.3 5.7C30.2 5.7 30.1 5.8 30.1 6 30.1 6.1 30.2 6.2 30.3 6.2 30.5 6.2 30.6 6.1 30.6 6 30.6 5.8 30.5 5.7 30.3 5.7" id="Fill-26" class="a"/>
          <path d="M30.2 6.4C30 6.4 29.9 6.5 29.9 6.7 29.9 6.8 30 6.9 30.2 6.9 30.4 6.9 30.5 6.8 30.5 6.7 30.5 6.5 30.4 6.4 30.2 6.4" id="Fill-28" class="a"/>
          <path d="M28.7 4.2C28.8 4.2 29 4.1 29 3.9 29 3.8 28.8 3.7 28.7 3.7 28.5 3.7 28.4 3.8 28.4 3.9 28.4 4.1 28.5 4.2 28.7 4.2" id="Fill-30" class="a"/>
          <path d="M29.4 4.4C29.5 4.4 29.7 4.3 29.7 4.2 29.7 4 29.5 3.9 29.4 3.9 29.2 3.9 29.1 4 29.1 4.2 29.1 4.3 29.2 4.4 29.4 4.4" id="Fill-32" class="a"/>
          <path d="M29.9 4.9C30.1 4.9 30.2 4.8 30.2 4.6 30.2 4.5 30.1 4.4 29.9 4.4 29.8 4.4 29.7 4.5 29.7 4.6 29.7 4.8 29.8 4.9 29.9 4.9" id="Fill-34" class="a"/>
          <path d="M27.9 4.3C28.1 4.3 28.2 4.2 28.2 4 28.2 3.8 28.1 3.7 27.9 3.7 27.8 3.7 27.6 3.8 27.6 4 27.6 4.2 27.8 4.3 27.9 4.3" id="Fill-36" class="a"/>
          <path d="M27.2 4.5C27.4 4.5 27.5 4.4 27.5 4.2 27.5 4 27.4 3.9 27.2 3.9 27.1 3.9 26.9 4 26.9 4.2 26.9 4.4 27.1 4.5 27.2 4.5" id="Fill-38" class="a"/>
          <path d="M26.3 4.5C26.3 4.7 26.4 4.8 26.6 4.8 26.7 4.8 26.8 4.7 26.8 4.5 26.8 4.4 26.7 4.2 26.6 4.2 26.4 4.2 26.3 4.4 26.3 4.5" id="Fill-40" class="a"/>
          <path d="M25.2 6L25.6 6 25.6 4.8C25.4 4.8 25.3 4.8 25.2 4.7L25.2 6Z" id="Fill-42" class="a"/>
          <path d="M26.2 4.7C26.1 4.8 26 4.8 25.9 4.8L25.9 6 26.2 6 26.2 4.7Z" id="Fill-44" class="a"/>
          <path d="M25.5 3.4L25.5 2.7C25.2 2.8 24.9 3 24.8 3.4L25.5 3.4Z" id="Fill-46" class="a"/>
          <path d="M25.9 3.4L26.6 3.4C26.5 3 26.3 2.8 25.9 2.7L25.9 3.4Z" id="Fill-48" class="a"/>
          <path d="M24.8 3.7C24.9 4.1 25.3 4.4 25.7 4.4 26.1 4.4 26.5 4.1 26.6 3.7L24.8 3.7Z" id="Fill-50" class="a"/>
          <g id="Group-54" transform="translate(23.722222 0)">
            <mask id="mask-2" class="b">
              <use xlink:href="#path-1"/>
            </mask>
            <path d="M2.5 2.6C2.3 2.4 2.1 2.2 2.1 1.9 2.3 2 2.6 2.2 2.7 2.4L2.7 1.4C2.6 1.6 2.3 1.7 2.1 1.8 2.1 1.6 2.3 1.3 2.5 1.1L1.5 1.1C1.7 1.3 1.9 1.6 1.9 1.8 1.7 1.7 1.4 1.6 1.3 1.4L1.3 2.4C1.4 2.2 1.7 2 1.9 1.9 1.9 2.2 1.7 2.4 1.5 2.6L2.5 2.6Z" id="Fill-52" mask="url(#mask-2)" class="a"/>
          </g>
          <path d="M27.3 22C26.4 21.7 25.3 21.4 24.3 20.9L24.3 20.9C24.3 20.7 24.3 20.5 24.1 20.3 23.9 20.1 23.7 20 23.5 20 23.4 20 23.3 20 23.3 20.1 23.1 20 23 19.8 22.8 19.7 22.5 19.2 22.2 18.7 22 18.1 21.8 17.8 21.8 17.5 21.7 17.1 21.7 17.4 21.3 17.8 20.8 17.8 20.8 17.8 20.8 17.6 20.7 17.6 20.6 17.8 20.4 17.9 19.8 17.8 19.9 18.1 20 18.5 20.2 18.9 20.5 19.7 20.9 20.4 21.5 21.1 21.6 21.3 21.8 21.4 22 21.6 22 21.7 22 21.7 22 21.7 22 21.9 22.2 22.3 22.5 22.4 22.8 22.5 23 22.5 23.3 22.3 23.7 22.6 24.2 22.8 24.8 22.9 25.5 23.1 26.2 23.2 26.7 23.2 27.1 23.2 27.7 23 28.3 22.7 28.5 22.5 28.7 22.4 28.9 22.2 28.9 22.2 28.9 22.2 28.9 22.2 28.5 22.2 27.8 22.1 27.3 22M24 20.6L23.9 20.6C23.7 20.4 23.6 20.4 23.4 20.6 23.3 20.6 23.3 20.7 23.2 20.8L23.1 20.9 23.2 20.9C23.3 21.1 23.4 21.2 23.3 21.3 23.3 21.4 23.3 21.4 23.2 21.4 23.1 21.4 23 21.4 22.9 21.3L22.8 21.3 22.8 21.4C22.8 21.4 22.7 21.4 22.7 21.4 22.7 21.4 22.7 21.5 22.7 21.5 22.6 21.6 22.6 21.7 22.6 21.8 22.6 21.8 22.6 21.9 22.6 21.9 22.6 22 22.7 22 22.8 22.1L22.8 22.1C22.9 22.1 23 22.2 23.1 22.2 22.9 22.3 22.8 22.3 22.6 22.3 22.3 22.2 22.2 21.9 22.2 21.7 22.2 21.5 22.3 21.3 22.5 21L22.5 20.9 22.5 20.9C22.4 20.8 22.4 20.7 22.3 20.7 22.4 20.7 22.5 20.7 22.6 20.7L22.7 20.7 22.7 20.7C22.8 20.6 23.2 20.2 23.5 20.2 23.7 20.2 23.9 20.3 24 20.4 24.1 20.5 24.1 20.6 24.1 20.7 24.1 20.7 24 20.7 24 20.6M24.6 22.3C24.3 22.3 24.2 22.2 24.2 21.9 24.2 21.7 24.3 21.6 24.6 21.6 24.8 21.6 24.9 21.7 24.9 21.9 24.9 22.2 24.8 22.3 24.6 22.3M26.2 22.8C26 22.8 25.9 22.7 25.9 22.5 25.9 22.3 26 22.1 26.2 22.1 26.4 22.1 26.6 22.3 26.6 22.5 26.6 22.7 26.4 22.8 26.2 22.8" id="Fill-55" class="a"/>
          <path d="M26.7 24.6C26.6 24.6 26.6 24.6 26.5 24.6L26.5 23.6C26.1 23.5 25.5 23.5 25 23.3L25 24.6C24.9 24.6 24.8 24.6 24.8 24.6 24.4 24.6 24.2 24.9 24.2 25.2 24.2 25.5 24.3 25.7 24.5 25.9 24.5 25.7 24.6 25.6 24.7 25.6 24.9 25.6 24.8 26.5 25.3 26.5 25.3 26.6 25.3 26.6 25.3 26.7 25.3 26.9 25.5 27.1 25.7 27.1 26 27.1 26.2 26.9 26.2 26.7 26.2 26.6 26.1 26.6 26.1 26.5 26.7 26.5 26.6 25.6 26.8 25.6 26.9 25.6 26.9 25.7 27 25.9 27.1 25.7 27.3 25.5 27.3 25.2 27.3 24.9 27.1 24.6 26.7 24.6M25.7 26.9C25.6 26.9 25.5 26.8 25.5 26.7 25.5 26.5 25.6 26.4 25.7 26.4 25.9 26.4 26 26.5 26 26.7 26 26.8 25.9 26.9 25.7 26.9M27 25.6C26.9 25.5 26.9 25.4 26.8 25.4 26.4 25.4 26.5 26.3 26.1 26.3 25.9 26.3 25.8 26.2 25.8 26.1 25.8 25.9 25.9 25.9 25.9 25.8 25.9 25.7 25.8 25.7 25.7 25.7 25.6 25.7 25.6 25.7 25.6 25.8 25.6 25.9 25.6 25.9 25.6 26.1 25.6 26.2 25.5 26.3 25.4 26.3 24.9 26.3 25.1 25.4 24.7 25.4 24.6 25.4 24.5 25.5 24.5 25.6 24.4 25.4 24.3 25.3 24.3 25.2 24.3 25 24.5 24.8 24.8 24.8 25.3 24.8 25.1 25.4 25.4 25.4 25.5 25.4 25.6 25.4 25.6 25.3 25.6 25.1 25.2 24.9 25.2 24.6 25.2 24.4 25.5 24.1 25.7 23.9 26 24.1 26.3 24.4 26.3 24.6 26.3 24.9 25.9 25.1 25.9 25.3 25.9 25.4 26 25.4 26.1 25.4 26.3 25.4 26.2 24.8 26.7 24.8 27 24.8 27.1 25 27.1 25.2 27.1 25.3 27.1 25.4 27 25.6" id="Fill-57" class="a"/>
          <path d="M39.3 25.9C39.3 25.8 39.2 25.8 39.2 25.8 37.9 26.2 36.3 25.1 34.8 24.1 33.6 23.3 32.4 22.5 31.3 22.5 31 22.5 30.6 22.6 30.3 22.7 30 22.9 29.7 23.3 29.5 23.7 29.4 24.1 29.2 24.4 29 24.6 28.9 24.9 28.7 25.1 28.7 25.3 28.7 25.5 28.8 25.7 29 25.9 29.1 26 29.3 26.2 29.7 26.3 29.7 26.3 29.8 26.4 29.8 26.4 30.1 26.5 30.3 26.6 30.3 26.7 29.8 27 29.1 27.1 28.4 27.3 27.6 27.4 26.7 27.5 25.7 27.5 24.8 27.5 23.9 27.4 23 27.3 22.3 27.1 21.7 27 21.2 26.7 21.2 26.5 21.3 26.5 21.6 26.3 21.7 26.3 21.7 26.3 21.8 26.2 22.1 26.1 22.3 26 22.5 25.8 22.6 25.7 22.7 25.5 22.7 25.3 22.7 25.1 22.6 24.9 22.4 24.6 22.3 24.4 22.1 24.1 21.9 23.7 21.7 23.3 21.5 22.9 21.1 22.7 20.8 22.6 20.5 22.5 20.1 22.5 19.1 22.5 17.9 23.3 16.6 24.1 15.1 25.1 13.5 26.2 12.3 25.8 12.2 25.8 12.2 25.8 12.1 25.9 12.1 25.9 12.2 26 12.2 26 12.6 26.2 12.9 26.4 13.3 26.7 13.7 27 14.1 27.4 14.6 27.4 15.1 27.4 15.5 27.2 16.1 26.9 16.6 26.7 17.2 26.3 17.7 26 18.7 25.3 19.7 24.6 20.7 24.5 20.5 24.6 20.5 24.7 20.4 24.8 20.1 25.1 19.8 25.3 19.8 25.7 19.8 26.1 19.9 26.3 20.1 26.7 20.2 26.8 20.2 26.9 20.3 27 20.4 27.3 20.4 27.5 20.5 27.7 20.5 27.8 20.6 28 20.6 28.1 20.7 28.3 20.8 28.8 21.5 29.1 22.3 29.5 23.7 29.8 25.7 29.8 27.7 29.8 29.1 29.5 30 29.1 30.7 28.8 30.8 28.3 30.9 28.1 30.9 28 30.9 27.8 31 27.7 31 27.5 31.1 27.3 31.2 27 31.3 26.8 31.3 26.7 31.4 26.6 31.5 26.3 31.7 26.1 31.7 25.8 31.7 25.3 31.4 25.1 31.1 24.8 31 24.7 30.9 24.6 30.8 24.5 31.8 24.6 32.8 25.3 33.8 26 34.3 26.3 34.8 26.7 35.3 26.9 35.9 27.2 36.4 27.4 36.8 27.4 37.3 27.4 37.7 27 38.2 26.7 38.5 26.4 38.9 26.2 39.2 26 39.3 26 39.3 25.9 39.3 25.9" id="Fill-59" class="a"/>
          <path d="M31.8 15.9C31.6 15.8 31.4 15.6 31.3 15.3 31.1 15 30.5 13.8 30.4 13.7 30.3 13.5 30.3 13.4 30.3 13.3 30.3 13.2 30.3 13.1 30.4 13 30.5 12.9 30.6 12.8 30.6 12.7 30.7 12.6 30.7 12.6 30.8 12.6 30.5 12.2 30.3 11.9 30 11.5 29.6 11.1 29.2 10.8 28.8 10.5 29 10.3 29.3 10.1 29.3 9.8 29.3 9.5 29.2 9.4 29 9.2 29.3 8.4 29.7 7.5 30.1 7L29.3 6.7C29.5 7 29.5 7.4 29.5 7.6 29.3 7.5 29.1 7.3 29 7 29 7.2 28.8 7.6 28.7 7.9 29 7.8 29.1 7.7 29.4 7.8 29.2 8 28.9 8.3 28.4 8.1 28.1 8.1 27.8 7.9 27.8 7.7 27.8 7.6 27.9 7.4 28.1 7.4 28.3 7.5 28.3 7.7 28.2 7.8 28.4 7.7 28.7 7 28.3 6.9 28 6.9 27.8 7.2 27.7 7.5 27.6 7.2 27.5 6.8 27.2 6.9 26.8 6.9 26.9 7.6 27.1 7.7 27.1 7.5 27.2 7.4 27.3 7.4 27.4 7.4 27.6 7.5 27.6 7.7 27.5 7.9 27.2 8 26.9 8 26.5 8 25.9 7.9 25.9 7.3 26.1 7.3 26.4 7.5 26.6 7.7 26.5 7.3 26.5 7 26.6 6.6 26.4 6.9 26.1 7 25.9 7 25.9 6.8 26.2 6.5 26.5 6.3L25 6.3C25.3 6.5 25.5 6.8 25.6 7 25.4 7 25.1 6.9 24.9 6.6 24.9 7 24.9 7.3 24.9 7.7 25 7.5 25.4 7.3 25.6 7.3 25.5 7.9 24.9 8 24.6 8 24.2 8 23.9 7.9 23.9 7.7 23.9 7.5 24 7.4 24.1 7.4 24.2 7.4 24.3 7.5 24.4 7.7 24.5 7.6 24.6 6.9 24.3 6.9 24 6.8 23.8 7.2 23.8 7.5 23.7 7.2 23.4 6.9 23.1 6.9 22.8 7 23 7.7 23.2 7.8 23.2 7.7 23.2 7.5 23.4 7.4 23.5 7.4 23.6 7.6 23.6 7.7 23.7 7.9 23.4 8.1 23.1 8.1 22.6 8.3 22.2 8 22.1 7.8 22.3 7.7 22.5 7.8 22.7 7.9 22.6 7.6 22.5 7.2 22.4 7 22.4 7.3 22.2 7.5 22 7.6 21.9 7.4 22 7 22.2 6.7L21.4 7C21.7 7.5 22.2 8.4 22.4 9.2 22.3 9.4 22.2 9.5 22.2 9.8 22.2 10.1 22.4 10.3 22.7 10.5 22.2 10.8 21.8 11.1 21.5 11.5 20.9 12.2 20.5 12.9 20.2 13.7 20.3 13.8 20.8 14.3 20.9 14.5 21.1 14.7 21.2 15 21.2 15.2 21.2 15.5 21.3 15.7 21.5 15.9 21.6 16 21.6 16.3 21.7 16.4L25.7 16.4 25.7 20.8C25.5 20.8 25.3 20.8 25.2 21 25.7 21.2 26.1 21.3 26.5 21.5 26.6 21.2 26.6 21 26.8 20.8 26.8 20.8 26.2 20.8 25.9 20.8L25.9 16.4 29.8 16.4C29.8 17 29.7 17.6 29.5 18.1 29.3 18.7 29 19.2 28.6 19.7 28.2 20.1 27.8 20.4 27.3 20.7 27.2 20.7 27.2 20.8 27.2 20.8 27.1 20.9 27 21 27 21.2 26.9 21.3 26.9 21.4 26.9 21.6 27.1 21.6 27.2 21.6 27.3 21.7 28.7 22 29.1 21.9 29.1 21.9L29.1 21.9C29.4 21.6 29.7 21.4 30 21 30.6 20.4 31 19.7 31.3 18.9 31.6 18.1 31.8 17.2 31.8 16.3 31.8 16.1 31.8 16.1 31.8 15.9L31.8 15.9ZM25.7 16.2L21.6 16.2C21.7 15.6 21.8 15 22 14.4 22.2 13.9 22.5 13.3 22.8 12.9 23.2 12.5 23.7 12.1 24.1 11.9 24.6 11.7 25.1 11.5 25.7 11.5L25.7 16.2ZM25.7 9.6C24.4 9.6 23.5 10 22.9 10.3 22.6 10.1 22.5 10 22.5 9.8 22.5 9 24.6 8.9 25.7 8.9L25.7 8.9C26.8 8.9 29 9 29 9.8 29 10 28.8 10.1 28.5 10.3 28 10 27.1 9.6 25.7 9.6L25.7 9.6ZM25.9 16.2L25.9 11.5C26.4 11.6 26.9 11.7 27.3 11.9 27.8 12.1 28.2 12.5 28.6 12.9 29 13.3 29.3 13.9 29.5 14.4 29.7 15 29.8 15.6 29.8 16.2L25.9 16.2Z" id="Fill-61" class="a"/>
          <path d="M29.2 15.4C29.3 15.5 29.2 15.6 29.2 15.6 29.1 14.9 28.8 14.2 28.4 13.6 28.4 13.6 28.4 13.6 28.4 13.6 28.5 13.6 28.6 13.5 28.6 13.4 28.5 13.4 28.4 13.4 28.3 13.5 28.3 13.5 28.3 13.4 28.2 13.4 28 13.1 27.7 12.8 27.4 12.6 27.1 12.4 26.8 12.3 26.4 12.2 26.4 12.1 26.6 12.1 26.6 12.2 26.6 12 26.5 12 26.4 12 26.4 12 26.4 12 26.4 12.1 26.3 12 26.3 12 26.2 12 26.2 12.1 26.2 12.1 26.2 12.2 26.2 12.2 26.2 12.2 26.1 12.2 26.1 12.3 26.1 12.4 26.3 12.4 26.2 12.4 26.2 12.3 26.3 12.3L26.3 13.8C26.2 13.8 26.1 13.8 26.1 13.9 26.1 13.9 26.2 14 26.3 13.9L26.3 15.6C26.2 15.6 26.2 15.5 26.3 15.4 26.1 15.4 26.1 15.5 26.1 15.6 26.1 15.6 26.2 15.7 26.3 15.7 26.2 15.7 26.2 15.8 26.2 15.8 26.3 15.8 26.3 15.8 26.4 15.8 26.4 15.8 26.4 15.9 26.4 15.9 26.5 15.9 26.6 15.9 26.6 15.8 26.5 15.8 26.4 15.8 26.4 15.7L27.6 15.7C27.6 15.8 27.6 15.9 27.7 16 27.7 15.9 27.8 15.8 27.7 15.7L29 15.7C29 15.8 28.9 15.8 28.9 15.8 28.9 15.9 29 15.9 29.1 15.9 29.1 15.9 29.1 15.8 29.1 15.8 29.2 15.8 29.2 15.8 29.3 15.8 29.3 15.8 29.3 15.7 29.2 15.7 29.3 15.7 29.3 15.6 29.4 15.6 29.4 15.5 29.3 15.4 29.2 15.4M28.1 13.4C28.1 13.5 28 13.5 28 13.5 28.1 13.6 28.1 13.6 28.2 13.6 28.1 13.6 28.1 13.7 28.1 13.8 28.1 13.8 28.2 13.8 28.3 13.7 28.2 13.8 28.3 13.8 28.3 13.9 28.3 13.9 28.4 13.9 28.4 13.9 28.7 14.3 28.9 14.9 29 15.4 29 15.4 28.9 15.4 28.8 15.4 28.8 15.5 28.9 15.5 28.9 15.6L27.9 15.6C28 15.5 27.9 15.5 27.9 15.5 27.8 15.4 27.8 15.4 27.7 15.5 27.7 15.4 27.7 15.4 27.7 15.3 27.6 15.4 27.6 15.4 27.6 15.5 27.5 15.4 27.5 15.4 27.5 15.5 27.4 15.5 27.4 15.5 27.4 15.6L26.6 15.6C26.6 15.5 26.6 15.5 26.6 15.4 26.5 15.4 26.5 15.4 26.5 15.5L26.5 14.1C26.5 14.1 26.6 14.1 26.6 14.1 26.6 14 26.6 14 26.5 13.9 26.6 13.9 26.7 13.9 26.7 13.9 26.7 13.8 26.6 13.8 26.5 13.8 26.6 13.7 26.6 13.7 26.6 13.7 26.6 13.6 26.5 13.6 26.5 13.6L26.5 12.5C26.5 12.5 26.5 12.5 26.6 12.5 26.6 12.4 26.6 12.4 26.6 12.4 26.8 12.4 27.1 12.6 27.3 12.7 27.6 12.9 27.9 13.1 28.1 13.4" id="Fill-63" class="a"/>
          <path d="M28.5 15C28.6 15 28.6 15 28.6 14.9 28.6 14.9 28.5 14.9 28.5 14.9 28.5 14.9 28.6 14.9 28.5 14.8 28.5 14.8 28.5 14.8 28.4 14.8 28.4 14.9 28.1 14.8 28.1 14.6 28.1 14.6 28.1 14.6 28.2 14.7 28.2 14.7 28.2 14.7 28.2 14.7 28.2 14.7 28.2 14.7 28.2 14.7 28.3 14.7 28.3 14.7 28.3 14.7L28.4 14.7 28.4 14.7C28.4 14.7 28.5 14.6 28.5 14.6 28.5 14.4 28.4 14.4 28.2 14.3 28.2 14.2 28.1 14.2 28.1 14.2 28.1 14.1 28.1 14 28 13.8 28 13.8 28 13.7 27.9 13.7 27.9 13.8 27.8 14 28 14.2 28.1 14.3 28.4 14.4 28.4 14.6 28.4 14.6 28.4 14.6 28.3 14.6 28.3 14.6 28.3 14.6 28.3 14.6 28.3 14.6 28.3 14.6 28.3 14.6 28.2 14.6 28.2 14.6 28.2 14.6 28.2 14.6 28.2 14.5 28.1 14.5 28 14.4 27.9 14.2 27.8 14.2 27.7 14 27.8 13.8 27.8 13.7 27.9 13.6 27.7 13.3 27.6 13.3 27.6 13.3 27.7 13.2 27.6 13.1 27.6 13.1 27.6 13.1 27.5 13.1 27.5 13.1 27.5 13.1 27.5 13.1 27.4 13.1 27.4 13 27.4 13 27.4 13 27.4 13.1 27.3 13.1 27.3 13.1 27.3 13.1 27.3 13.1 27.2 13.1 27.2 13.1 27.2 13.1 27.1 13.1 27.1 13.1 27.1 13.2 27.1 13.2 27.1 13.2 27.2 13.3 27.2 13.3 27.2 13.3 27.2 13.3L27.2 13.3 27.2 13.3C27.3 13.2 27.3 13.2 27.3 13.3 27.4 13.3 27.4 13.3 27.3 13.3 27.3 13.3 27.2 13.3 27.2 13.3 27.2 13.3 27.2 13.4 27.2 13.4 27.2 13.4 27.2 13.4 27.3 13.4 27.3 13.4 27.5 13.4 27.5 13.5 27.5 13.6 27.3 13.6 27.3 13.8 27.2 13.7 27.2 13.7 27.2 13.7 27.1 13.6 27.1 13.6 27 13.5 27 13.5 27 13.5 26.9 13.4 26.9 13.4 26.9 13.4 26.9 13.3 26.9 13.3 26.9 13.2 26.9 13.2 26.9 13.2 26.9 13.1 26.9 13.1 26.9 13.1 26.8 13.1 26.8 13.1 26.8 13.1 26.8 13.1 26.8 13.1 26.8 13.1 26.8 13.2 26.8 13.2 26.8 13.2 26.8 13.2 26.8 13.2 26.8 13.2 26.8 13.2 26.8 13.2 26.8 13.2 26.8 13.2 26.8 13.2 26.8 13.2 26.8 13.2 26.8 13.2 26.8 13.2 26.8 13.2 26.7 13.1L26.7 13.1C26.7 13.1 26.7 13.1 26.7 13.1 26.7 13.1 26.7 13.1 26.6 13.1 26.6 13.1 26.7 13.1 26.7 13.1 26.7 13.1 26.7 13.2 26.7 13.2 26.7 13.2 26.7 13.2 26.7 13.2 26.7 13.2 26.7 13.2 26.7 13.2 26.7 13.2 26.7 13.2 26.7 13.2 26.7 13.3 26.7 13.3 26.7 13.3 26.7 13.2 26.6 13.3 26.6 13.3 26.6 13.3 26.6 13.3 26.6 13.3 26.6 13.3 26.6 13.4 26.7 13.4 26.7 13.4 26.7 13.3 26.7 13.3 26.7 13.3 26.7 13.3 26.7 13.3 26.7 13.3 26.7 13.4 26.7 13.4 26.7 13.4 26.7 13.4 26.7 13.3 26.7 13.3 26.7 13.3 26.7 13.3 26.8 13.3 26.8 13.4 26.8 13.4 26.8 13.4 26.8 13.4 26.8 13.4 26.7 13.4 26.7 13.4 26.8 13.4 26.8 13.5 26.7 13.5 26.7 13.4 26.6 13.5 26.7 13.6 26.8 13.5 26.8 13.6 26.8 13.6 26.8 13.6 26.8 13.6 26.8 13.6 26.8 13.6 26.8 13.6 26.8 13.6 26.8 13.6 26.8 13.6 26.8 13.7 26.9 13.7 26.9 13.7 26.9 13.6 26.9 13.6 26.9 13.7 26.9 13.7 26.9 13.7 27 13.8 27 13.9 27.2 14 27.1 14 27.1 14.1 27 14.2 26.9 14.2 26.9 14.3 26.8 14.3 26.8 14.2 26.8 14.2 26.8 14.2 26.8 14.2 26.7 14.2 26.7 14.2 26.7 14.2 26.7 14.2 26.7 14.2 26.7 14.2 26.6 14.2 26.6 14.2 26.6 14.2 26.7 14.2 26.7 14.2L26.7 14.3C26.7 14.3 26.7 14.3 26.8 14.3 26.8 14.3 26.8 14.3 26.8 14.3 26.8 14.3 26.8 14.3 26.7 14.3 26.7 14.3 26.7 14.3 26.7 14.3 26.7 14.3 26.7 14.3 26.6 14.3L26.6 14.3C26.6 14.3 26.6 14.4 26.6 14.4 26.6 14.4 26.6 14.4 26.6 14.4L26.7 14.4C26.7 14.4 26.7 14.5 26.8 14.4 26.8 14.4 26.8 14.4 26.8 14.4 26.8 14.4 26.7 14.5 26.8 14.5 26.8 14.5 26.8 14.5 26.8 14.5L26.8 14.5C26.8 14.5 26.9 14.6 26.9 14.5 26.9 14.5 26.9 14.5 26.8 14.5 26.9 14.5 26.9 14.5 26.9 14.5 26.9 14.5 26.9 14.4 26.9 14.4 26.9 14.4 26.9 14.4 26.9 14.4 26.9 14.4 26.9 14.5 27 14.4 27 14.4 27 14.4 27 14.4 27.1 14.4 27.1 14.3 27.2 14.3 27.2 14.3 27.2 14.3 27.3 14.3 27.3 14.2 27.3 14.3 27.4 14.3 27.4 14.3 27.4 14.2 27.4 14.2 27.4 14.4 27.7 14.4 27.8 14.6 27.7 14.5 27.6 14.5 27.6 14.5 27.5 14.5 27.3 14.6 27.3 14.7 27.3 14.8 27.4 14.9 27.5 14.9 27.4 15 27.3 14.9 27.2 14.9L27.2 14.9C27.2 15 27.1 14.8 27.1 14.9 27.1 14.9 27 14.9 27 14.9 27 14.9 26.9 14.9 27 15 27 14.9 27 14.9 27 14.9 27 14.9 27 14.9 27 14.9 27 15 27 15 27 15 27.1 15 27.1 15 27.1 15 27.1 15 27.1 15 27.1 15 27.1 15 27 14.9 27 15 27 15.1 27 15.1 27 15.1 27 15.1 27 15.1 27.1 15.1 27.1 15.1 27.1 15.1 27.1 15.1 27.1 15.1 27.1 15.1 27.1 15.1 27.1 15.1 27.1 15.1 27.1 15.1 27.1 15.1 27.1 15.1 27.1 15.1 27.1 15.1 27.1 15.1 27.1 15.1 27.1 15.1 27.1 15.1 27.1 15.1 27.1 15.1 27.1 15.1 27.1 15.1 27.1 15.2 27.2 15.2 27.2 15.2 27.2 15.2 27.2 15.1 27.2 15.1 27.2 15.1 27.2 15.1 27.2 15.1 27.2 15.1 27.2 15.1 27.2 15.1 27.2 15.1 27.2 15.1 27.2 15.1 27.2 15.1 27.2 15.1 27.2 15.1 27.2 15.1 27.2 15.1 27.2 15.1 27.3 15.1 27.3 15.1 27.3 15.1 27.3 15.1 27.3 15.1 27.3 15.1 27.4 15.1 27.4 15.1 27.4 15.1 27.4 15.1 27.4 15.1 27.5 15.1L27.5 15.1C27.5 15.1 27.6 15.1 27.6 15.1 27.7 15 27.6 15 27.6 15 27.6 14.9 27.6 14.9 27.6 14.8 27.6 14.7 27.7 14.7 27.8 14.7 27.8 14.7 28 14.9 28.1 15 28.2 15 28.3 14.9 28.3 14.9 28.3 14.9 28.3 15 28.3 15 28.3 15 28.4 15.1 28.3 15.1 28.3 15.1 28.3 15.1 28.2 15.1 28.2 15.1 28.2 15.1 28.2 15.1 28.1 15.1 28.1 15.2 28.1 15.2 28.1 15.2 28.1 15.2 28.2 15.2 28.2 15.2 28.2 15.2 28.2 15.2 28.2 15.2 28.2 15.2 28.3 15.2 28.3 15.2 28.3 15.2 28.3 15.2 28.2 15.2 28.2 15.3 28.2 15.3 28.2 15.3 28.3 15.3 28.3 15.3 28.3 15.3 28.3 15.4 28.3 15.4 28.3 15.4 28.3 15.4 28.3 15.3L28.3 15.3C28.4 15.3 28.3 15.3 28.4 15.2 28.4 15.2 28.4 15.2 28.4 15.2 28.4 15.3 28.4 15.3 28.4 15.3 28.4 15.3 28.4 15.3 28.4 15.3 28.4 15.4 28.5 15.4 28.5 15.4 28.5 15.4 28.5 15.4 28.5 15.3 28.5 15.3 28.5 15.3 28.5 15.3 28.5 15.2 28.5 15.2 28.5 15.2 28.5 15.2 28.5 15.2 28.5 15.1 28.5 15.1 28.5 15.1 28.5 15.1 28.6 15.1 28.6 15.1 28.6 15 28.6 15 28.5 15 28.5 15L28.5 15Z" id="Fill-65" class="a"/>
          <path d="M25.2 17.2L25.1 17.2 25.1 17.1C25.1 16.9 25 16.7 24.8 16.7 24.5 16.7 24.1 17 23.5 17 23.2 17 22.9 16.9 22.7 16.8L22.6 17 22.6 17C22.6 16.9 22.6 16.8 22.5 16.8 22.4 16.8 22.3 16.9 22.3 17 22.3 17 22.4 17.1 22.5 17.1 22.5 17.1 22.6 17.1 22.6 17L22.5 17.2C22.6 17.2 22.6 17.2 22.6 17.3 22.5 18.2 23.2 19.3 24.4 19.7 24.6 19.6 24.8 19.7 24.8 19.9 24.8 20 24.7 20 24.6 20 24.5 20 24.5 20 24.5 19.9 24.5 19.9 24.6 19.9 24.6 19.9 24.7 19.8 24.6 19.8 24.5 19.8 24.5 19.8 24.3 19.8 24.3 19.9 24.3 20.1 24.5 20.2 24.6 20.2 24.7 20.2 25 20.1 25 19.8 25 19.8 25.1 19.8 25.1 19.7L25.1 19.6 25.1 19.5 25.1 17.4 25.2 17.4C25.3 17.5 25.3 17.4 25.3 17.3 25.3 17.3 25.3 17.2 25.2 17.2M23 17.4L24.5 19.5C23.7 19.2 22.9 18.5 23 17.4M24.5 19.3L23.2 17.4 23.3 17.4C23.4 17.4 23.5 17.4 23.5 17.3L24.6 18.9C24.6 19 24.6 19.2 24.5 19.3M24.6 18.7L23.7 17.3C23.8 17.3 23.9 17.3 24 17.2L24.7 18.2C24.7 18.4 24.7 18.5 24.6 18.7M24.9 17.2L24.8 17.2C24.7 17.2 24.7 17.2 24.7 17.3 24.6 17.4 24.7 17.4 24.8 17.4L24.8 17.4C24.8 17.4 24.8 17.5 24.8 17.5 24.8 17.6 24.8 17.8 24.7 18L24.1 17.2C24.4 17.1 24.6 16.9 24.8 16.9 24.9 16.9 24.9 17 24.9 17.2" id="Fill-67" class="a"/>
          <path d="M24.9 13C25.2 13 25.4 12.9 25.4 12.8 25.4 12.5 24.6 12.7 24.6 12.5 24.6 12.5 24.6 12.4 24.6 12.4L24.7 12.4C25.1 12.4 25.1 12.1 25.3 12.1 25 12 25 12.3 24.8 12.3 24.9 12.2 24.9 12.2 24.9 12.1 24.8 12.2 24.7 12.2 24.6 12.3 24.6 12.3 24.6 12.4 24.6 12.4 24.5 12.4 24.5 12.4 24.5 12.5 24.5 12.8 25.3 12.6 25.3 12.8 25.3 12.9 25.2 12.9 24.9 12.9 24.8 12.9 24.7 12.8 24.4 12.9 24.4 12.8 24.5 12.7 24.4 12.7 24.5 12.7 24.5 12.7 24.5 12.6 24.5 12.6 24.4 12.6 24.4 12.6 24.4 12.6 24.4 12.6 24.4 12.6 24.4 12.6 24.4 12.5 24.4 12.5 24.4 12.5 24.3 12.5 24.3 12.5 24.3 12.5 24.3 12.5 24.2 12.5 24.2 12.5 24.2 12.5 24.2 12.5 24.2 12.5 24.2 12.5 24.2 12.5 24.1 12.5 24.1 12.5 24.1 12.5 24.1 12.5 24.1 12.5 24.1 12.5 24.1 12.5 24 12.6 24 12.6 24 12.6 24 12.6 24 12.6 24 12.7 24 12.7 24 12.7 24 12.7 24 12.8 24 12.8 24 12.8 24 12.9 24 12.9L23.9 12.9C23.9 12.9 23.9 12.9 23.9 12.9 23.8 12.9 23.8 12.8 23.9 12.8 23.9 12.8 23.9 12.7 23.9 12.7 23.9 12.7 23.9 12.7 23.9 12.7 23.9 12.6 23.8 12.6 23.8 12.6 23.8 12.6 23.8 12.6 23.8 12.7 23.8 12.7 23.8 12.7 23.8 12.7 23.8 12.7 23.8 12.7 23.8 12.7 23.8 12.7 23.8 12.7 23.8 12.7 23.8 12.7 23.8 12.7 23.8 12.7 23.8 12.7 23.8 12.7 23.8 12.7 23.8 12.7 23.8 12.7 23.8 12.7L23.7 12.7C23.7 12.7 23.7 12.7 23.7 12.7 23.7 12.6 23.7 12.6 23.7 12.6 23.7 12.6 23.7 12.6 23.7 12.7 23.7 12.7 23.7 12.7 23.7 12.7 23.7 12.7 23.7 12.7 23.7 12.7 23.7 12.7 23.7 12.7 23.7 12.7 23.7 12.7 23.7 12.7 23.7 12.7 23.7 12.7 23.7 12.7 23.7 12.7 23.7 12.7 23.7 12.7 23.7 12.8 23.7 12.8 23.6 12.8 23.6 12.8 23.6 12.8 23.6 12.8 23.7 12.8 23.7 12.8 23.7 12.8 23.7 12.8L23.7 12.8C23.7 12.8 23.7 12.8 23.7 12.8 23.7 12.8 23.7 12.8 23.7 12.8 23.7 12.8 23.7 12.8 23.7 12.8 23.7 12.8 23.8 12.8 23.8 12.8 23.8 12.8 23.8 12.8 23.8 12.8 23.7 12.9 23.7 12.9 23.8 12.9 23.8 12.9 23.8 12.9 23.8 12.9 23.8 13 23.7 13 23.7 12.9 23.6 13 23.7 13 23.8 13 23.8 13 23.8 13 23.8 13 23.8 13 23.8 13 23.8 13 23.8 13 23.8 13 23.8 13 23.8 13 23.8 13 23.8 13 23.8 13 23.8 13.1 23.9 13.1 23.8 13.1 23.9 13 23.9 13 23.9 13 23.9 13.1 23.9 13.1 23.9 13.2 23.8 13.2 23.8 13.2 23.7 13.2 23.6 13.2 23.6 13.2 23.6 13.2 23.5 13.3 23.4 13.2 23.4 13.2 23.4 13.2 23.4 13.2 23.4 13.1 23.4 13.1 23.4 13.1L23.3 13.1C23.3 13.1 23.3 13.1 23.3 13.1 23.3 13.1 23.3 13.1 23.3 13.1 23.3 13.2 23.3 13.2 23.3 13.2 23.3 13.2 23.3 13.2 23.4 13.2 23.4 13.2 23.4 13.2 23.4 13.2 23.4 13.2 23.3 13.3 23.3 13.2 23.3 13.2 23.3 13.2 23.3 13.2 23.3 13.2 23.3 13.2 23.2 13.2 23.2 13.2 23.2 13.2 23.2 13.2 23.2 13.2 23.2 13.2 23.2 13.3 23.2 13.3 23.2 13.3 23.2 13.3 23.2 13.3 23.2 13.3 23.2 13.3 23.2 13.3 23.2 13.3 23.3 13.3 23.3 13.3 23.3 13.3 23.3 13.3 23.3 13.3 23.3 13.4 23.3 13.4 23.3 13.4 23.3 13.4 23.3 13.4 23.3 13.4 23.3 13.4 23.3 13.4 23.3 13.4 23.4 13.5 23.4 13.5 23.4 13.5 23.3 13.4 23.4 13.4 23.4 13.4 23.4 13.4 23.4 13.4 23.4 13.4 23.4 13.4 23.4 13.3 23.4 13.3 23.4 13.3 23.4 13.3 23.4 13.4 23.4 13.4 23.5 13.4 23.5 13.4 23.5 13.4 23.5 13.3 23.5 13.3 23.5 13.3 23.5 13.3 23.6 13.3 23.6 13.4 23.6 13.4 23.6 13.4 23.6 13.4 23.6 13.4 23.6 13.4 23.6 13.4 23.6 13.4 23.6 13.4 23.6 13.4 23.6 13.4 23.6 13.4 23.6 13.4 23.6 13.4 23.6 13.4 23.7 13.4 23.7 13.4 23.7 13.4 23.7 13.4 23.7 13.4 23.7 13.4 23.7 13.4 23.7 13.4 23.7 13.4 23.7 13.4 23.7 13.4 23.7 13.4 23.8 13.4 23.8 13.4 23.8 13.4 23.8 13.4 23.8 13.5 23.8 13.4 23.9 13.4 23.9 13.4 23.9 13.4 23.9 13.4 23.9 13.4 23.9 13.4 23.9 13.4 23.9 13.4 23.9 13.4 24 13.4 24 13.3 24 13.3 24 13.3 24 13.3 24 13.3 24.1 13.3 24.1 13.3 24.1 13.3 24.1 13.3 24.1 13.3 24.2 13.3 24.2 13.2 24.3 13.2 24.4 13.2 24.2 13.1 24.5 13.1 24.5 13.1 24.6 13.1 24.6 13.1 24.6 13.1 24.6 13.2 24.6 13.2 24.6 13.2 24.7 13.2 24.7 13.3 24.7 13.3 24.7 13.3 24.7 13.3 24.6 13.3 24.6 13.3 24.6 13.3 24.5 13.3 24.5 13.2 24.5 13.2 24.5 13.2 24.4 13.2 24.4 13.2 24.4 13.2 24.4 13.3 24.4 13.3 24.4 13.3 24.4 13.3 24.4 13.3L24.4 13.3C24.4 13.3 24.4 13.3 24.4 13.3 24.5 13.3 24.5 13.3 24.5 13.3 24.5 13.3 24.5 13.3 24.5 13.3 24.5 13.3 24.4 13.3 24.4 13.4 24.4 13.4 24.4 13.4 24.4 13.4 24.4 13.4 24.4 13.4 24.5 13.4 24.5 13.4 24.5 13.4 24.5 13.4L24.5 13.4C24.5 13.4 24.5 13.4 24.5 13.4 24.5 13.4 24.5 13.4 24.5 13.4 24.5 13.4 24.5 13.4 24.5 13.4 24.5 13.4 24.5 13.4 24.5 13.4 24.5 13.4 24.5 13.4 24.5 13.4 24.5 13.5 24.5 13.5 24.6 13.5 24.6 13.5 24.6 13.4 24.5 13.4 24.6 13.4 24.6 13.4 24.6 13.4 24.6 13.4 24.6 13.4 24.6 13.4 24.6 13.4 24.6 13.4 24.6 13.4 24.6 13.4 24.6 13.4 24.6 13.4 24.6 13.4 24.6 13.4 24.6 13.4 24.6 13.4 24.6 13.4 24.7 13.4 24.7 13.4 24.7 13.4 24.7 13.4 24.7 13.3 24.7 13.3 24.8 13.4 24.8 13.4 24.9 13.4 24.9 13.3 24.9 13.3 24.9 13.2 24.8 13.2 24.8 13.2 24.8 13.2 24.8 13.1 24.8 13.2 24.9 13.2 25 13.2 25.1 13.2 25 13.2 25 13.1 25.1 13.1 25.1 13.1 25.1 13.1 25.2 13.1 25.2 13.1 25.2 13.1 25.2 13.2 25.2 13.2 25.2 13.2 25.1 13.3 25.1 13.2 25.1 13.2 25 13.2 25 13.2 25 13.3 25 13.3 25 13.3 25 13.3 25 13.3 25 13.3 25 13.3L25 13.3C25 13.3 25.1 13.4 25.1 13.3 25.1 13.3 25.1 13.3 25.1 13.3 25.1 13.4 25 13.4 25.1 13.4 25.1 13.4 25.1 13.4 25.1 13.4 25.1 13.4 25.1 13.5 25.1 13.5 25.1 13.4 25.1 13.4 25.1 13.4L25.2 13.4C25.2 13.4 25.2 13.4 25.2 13.4 25.2 13.4 25.2 13.4 25.2 13.4 25.2 13.4 25.2 13.4 25.2 13.4 25.2 13.4 25.2 13.4 25.2 13.4 25.2 13.4 25.3 13.5 25.3 13.4 25.3 13.4 25.3 13.4 25.3 13.4 25.3 13.4 25.3 13.4 25.3 13.4 25.3 13.3 25.3 13.3 25.3 13.3 25.3 13.3 25.3 13.3 25.3 13.2 25.3 13.2 25.3 13.2 25.3 13.2 25.3 13.2 25.3 13.2 25.3 13.2L25.3 13.2C25.3 13.2 25.3 13.2 25.3 13.2 25.3 13.2 25.3 13.2 25.3 13.1 25.3 13.1 25.3 13.1 25.3 13.1 25.3 13.1 25.3 13.1 25.3 13.1 25.3 13.1 25.2 13.1 25.2 13.1 25.2 13.1 25.2 13 25.2 13 25.1 13.1 25.1 13 24.9 13 24.9 13 24.9 13 24.9 13" id="Fill-69" class="a"/>
          <path d="M25.3 14C25.3 14 25.2 13.9 25 13.9 24.7 13.9 24.1 14 24.1 13.9 24.1 13.8 24.2 13.8 24.3 13.8 24.3 13.8 24.4 13.8 24.4 13.8 24.8 13.9 25.2 13.7 25.4 13.8 25.1 13.6 24.9 13.8 24.6 13.7 24.8 13.7 24.9 13.7 24.9 13.7 24.7 13.7 24.5 13.6 24.4 13.7 24.4 13.7 24.3 13.7 24.3 13.7 24.1 13.7 24 13.7 24 13.9 24 14.1 24.7 14 25 14 25.2 14 25.3 14 25.3 14 25.3 14.1 25 14.1 24.9 14.1 24.7 14.1 24.1 14 23.7 14.1 23.7 14 23.8 13.9 23.8 13.9 23.8 13.9 23.8 13.9 23.8 13.8 23.8 13.8 23.8 13.8 23.7 13.8 23.8 13.8 23.7 13.8 23.7 13.8 23.7 13.8 23.7 13.7 23.7 13.7 23.7 13.7 23.7 13.7 23.6 13.7 23.6 13.6 23.6 13.6 23.5 13.6 23.5 13.6 23.5 13.6 23.5 13.6 23.5 13.6 23.4 13.6 23.4 13.7 23.4 13.6 23.4 13.6 23.4 13.6 23.4 13.7 23.4 13.7 23.4 13.7 23.3 13.7 23.3 13.8 23.3 13.8 23.3 13.8 23.3 13.8 23.3 13.8 23.3 13.9 23.3 13.9 23.2 13.9 23.2 14 23.3 14 23.3 14 23.3 14 23.3 14.1 23.3 14.1L23.2 14.1C23.2 14.1 23.2 14.1 23.2 14.1 23.2 14.1 23.2 14.1 23.2 14.1 23.2 14.1 23.2 14.1 23.2 14.1L23.2 14.1C23.1 14 23.1 14 23 14 23 13.9 23 13.9 23 13.8 23 13.8 23 13.7 23 13.7 23 13.7 23 13.7 23 13.7 23 13.6 23 13.6 22.9 13.6 22.9 13.6 23 13.6 23 13.7 22.9 13.7 22.9 13.7 22.9 13.7 22.9 13.7 22.9 13.7 22.9 13.7 22.9 13.7 22.9 13.7 22.9 13.7 22.9 13.8 22.9 13.8 22.9 13.8 22.9 13.8 22.9 13.8 22.9 13.8 22.9 13.7 22.9 13.7 22.9 13.7 22.9 13.7 22.8 13.7 22.8 13.7L22.8 13.7C22.8 13.6 22.8 13.6 22.8 13.7 22.8 13.7 22.8 13.7 22.8 13.7 22.8 13.7 22.8 13.7 22.8 13.7 22.8 13.7 22.8 13.8 22.8 13.8 22.9 13.8 22.9 13.8 22.9 13.8 22.9 13.8 22.9 13.8 22.9 13.8 22.9 13.8 22.9 13.8 22.9 13.8 22.8 13.8 22.8 13.8 22.8 13.8 22.8 13.8 22.8 13.8 22.8 13.8 22.7 13.9 22.7 13.9 22.8 13.9 22.8 13.9 22.8 13.9 22.8 13.9 22.8 13.9 22.8 13.9 22.8 13.9 22.8 13.9 22.8 13.9 22.8 13.9 22.8 13.9 22.8 13.9 22.9 13.9 22.9 13.9 22.9 13.9 22.9 13.9 22.9 13.9 22.9 13.9 22.9 13.9 22.9 13.9 22.9 13.9 22.9 13.9 22.8 13.9 22.8 14 22.9 14 22.9 14 22.9 14 22.9 14 22.9 14.1 22.8 14.1 22.8 14 22.7 14.1 22.8 14.1 22.9 14.1 22.9 14.1 22.9 14.1 22.9 14.1 22.9 14.1 22.9 14.1 23 14.1 23 14.1 23 14.1 23 14.1 23 14.1 23 14.1 23 14.1 23 14.1 23 14.2 23 14.2 23 14.2 23 14.1 23 14.1 23 14.1 23.1 14.2 23.1 14.2 23.2 14.3 23.2 14.3 23.3 14.3 23.3 14.3 23.3 14.4 23.3 14.4 23.3 14.4 23.1 14.4 23.1 14.4 23 14.4 22.9 14.5 22.9 14.4 22.9 14.4 22.9 14.4 22.8 14.4 22.8 14.3 22.8 14.3 22.8 14.3L22.8 14.3C22.8 14.3 22.7 14.3 22.7 14.3 22.7 14.3 22.7 14.3 22.7 14.3 22.7 14.4 22.7 14.4 22.7 14.4 22.7 14.4 22.7 14.4 22.8 14.4 22.8 14.4 22.8 14.5 22.8 14.5 22.8 14.5 22.8 14.5 22.8 14.5 22.7 14.4 22.7 14.4 22.7 14.4 22.7 14.4 22.7 14.4 22.7 14.4 22.7 14.4 22.7 14.4 22.7 14.4 22.6 14.4 22.6 14.5 22.6 14.5 22.6 14.5 22.6 14.5 22.6 14.5 22.6 14.5 22.6 14.5 22.6 14.5 22.6 14.5 22.7 14.6 22.8 14.5 22.8 14.5 22.8 14.5 22.8 14.5 22.7 14.6 22.7 14.6 22.7 14.6 22.7 14.6 22.7 14.6 22.7 14.6 22.7 14.6 22.7 14.6 22.7 14.6 22.7 14.7 22.8 14.7 22.8 14.7 22.8 14.7 22.8 14.7 22.8 14.7 22.8 14.7 22.8 14.7 22.8 14.7 22.8 14.6 22.8 14.6 22.9 14.6 22.9 14.6 22.9 14.6 22.9 14.6 22.9 14.6 22.9 14.6 22.9 14.6 23 14.6 23 14.6 23 14.6L23 14.6C23 14.6 23 14.6 23 14.6 23 14.6 23 14.6 23.1 14.6 23.1 14.6 23.1 14.6 23 14.7 23.1 14.7 23.1 14.6 23.1 14.6 23.1 14.6 23.1 14.6 23.1 14.6 23.1 14.6 23.1 14.6 23.1 14.6 23.2 14.6 23.2 14.6 23.2 14.6 23.2 14.6 23.2 14.6 23.2 14.6 23.2 14.6 23.2 14.7 23.2 14.7 23.2 14.7 23.3 14.6 23.3 14.6 23.3 14.6 23.3 14.7 23.3 14.7 23.3 14.6 23.4 14.6 23.4 14.6 23.5 14.6 23.5 14.6 23.5 14.6 23.5 14.6 23.4 14.6 23.4 14.6 23.5 14.7 23.6 14.5 23.7 14.5 23.7 14.5 23.7 14.5 23.7 14.5 24 14.5 23.8 14.2 24.2 14.3 24.2 14.3 24.3 14.3 24.3 14.3 24.3 14.3 24.3 14.4 24.3 14.4 24.4 14.4 24.4 14.5 24.4 14.5 24.4 14.5 24.4 14.5 24.4 14.5 24.4 14.5 24.4 14.5 24.4 14.5 24.3 14.6 24.3 14.4 24.2 14.4 24.2 14.4 24.2 14.4 24.2 14.4 24.1 14.4 24.1 14.5 24.1 14.5 24.1 14.5 24.1 14.5 24.1 14.5L24.1 14.5C24.1 14.5 24.1 14.5 24.2 14.5 24.2 14.5 24.2 14.5 24.2 14.5 24.2 14.5 24.2 14.5 24.2 14.5 24.2 14.6 24.1 14.5 24.1 14.6 24.1 14.6 24.1 14.6 24.1 14.6 24.1 14.7 24.2 14.7 24.2 14.7 24.2 14.7 24.2 14.6 24.2 14.6 24.2 14.6 24.2 14.6 24.2 14.6 24.2 14.6 24.2 14.6 24.2 14.6 24.2 14.6 24.2 14.6 24.2 14.6 24.2 14.6 24.2 14.6 24.2 14.6 24.2 14.6 24.2 14.6 24.2 14.6 24.2 14.6 24.2 14.7 24.2 14.7 24.2 14.7 24.3 14.7 24.3 14.7 24.3 14.7 24.3 14.7 24.3 14.7 24.3 14.7 24.3 14.7 24.3 14.7 24.3 14.7 24.3 14.7 24.3 14.6 24.3 14.6 24.3 14.6 24.3 14.6L24.3 14.6C24.4 14.6 24.4 14.6 24.4 14.6 24.4 14.7 24.4 14.7 24.4 14.7 24.5 14.6 24.4 14.6 24.5 14.6 24.5 14.6 24.5 14.6 24.5 14.6 24.6 14.6 24.6 14.6 24.7 14.6 24.7 14.5 24.7 14.5 24.6 14.4 24.6 14.4 24.6 14.4 24.6 14.3 24.6 14.4 24.7 14.4 24.8 14.4 24.9 14.4 24.9 14.4 25 14.3 25 14.3 25.1 14.3 25.1 14.3 25.1 14.3 25.2 14.3 25.2 14.3 25.1 14.4 25.2 14.4 25.1 14.4 25.1 14.5 25.1 14.5 25 14.5 25 14.4 25 14.5 25 14.5 25 14.5 24.9 14.5 24.9 14.5 24.9 14.5 25 14.5 25 14.5L25 14.5C25 14.6 25 14.6 25.1 14.6 25.1 14.6 25.1 14.6 25.1 14.6 25.1 14.6 25 14.6 25.1 14.6 25.1 14.6 25.1 14.6 25.1 14.7 25.1 14.7 25.1 14.7 25.1 14.7 25.1 14.7 25.1 14.7 25.1 14.7L25.1 14.7C25.2 14.7 25.2 14.6 25.2 14.6 25.2 14.6 25.2 14.6 25.2 14.6 25.2 14.6 25.2 14.7 25.2 14.7 25.2 14.7 25.2 14.7 25.2 14.7 25.2 14.7 25.3 14.7 25.3 14.7 25.3 14.7 25.3 14.7 25.3 14.7 25.3 14.7 25.3 14.6 25.3 14.6 25.3 14.6 25.3 14.6 25.3 14.5 25.3 14.5 25.3 14.5 25.3 14.5 25.3 14.4 25.3 14.4 25.3 14.4 25.3 14.4 25.3 14.4 25.3 14.4L25.3 14.4C25.3 14.4 25.3 14.4 25.3 14.4 25.3 14.4 25.3 14.4 25.3 14.3 25.3 14.3 25.3 14.3 25.3 14.3 25.3 14.3 25.3 14.3 25.3 14.2 25.3 14.3 25.3 14.3 25.2 14.2 25.2 14.2 25.2 14.2 25.2 14.2 25.1 14.2 25 14.2 24.9 14.2 25.1 14.2 25.3 14.1 25.3 14" id="Fill-71" class="a"/>
          <path d="M25.2 15.3C25.2 15.2 25.1 15.1 24.9 15.1 24.6 15.1 23.8 15.2 23.8 15.1 23.8 15 24.1 15 24.3 15 24.3 15 24.3 15.1 24.3 15.1 24.7 15.2 25 14.9 25.3 15 25.1 14.8 24.8 15 24.6 15 24.7 15 24.9 15 24.9 14.9 24.8 15 24.4 14.9 24.3 14.9 24.3 15 24.3 15 24.3 15 24 15 23.7 14.9 23.7 15.1 23.7 15.3 24.6 15.2 24.9 15.2 25.1 15.2 25.1 15.2 25.1 15.3 25.1 15.3 24.9 15.3 24.8 15.3 24.6 15.3 23.7 15.2 23.4 15.3 23.4 15.3 23.5 15.2 23.4 15.1 23.5 15.1 23.5 15.1 23.5 15.1 23.5 15 23.4 15 23.4 15 23.4 15 23.4 15 23.4 15 23.4 15 23.4 14.9 23.4 14.9 23.4 14.9 23.3 14.9 23.3 14.9 23.3 14.9 23.2 14.9 23.2 14.9 23.2 14.9 23.2 14.9 23.2 14.9 23.2 14.9 23.1 14.9 23.1 14.9 23.1 14.9 23.1 14.9 23.1 14.9 23 14.9 23 14.9 23.1 15 23 15 23 15 23 15 23 15.1 23 15.1 23 15.1 23 15.1 23 15.2 22.9 15.2 22.9 15.2 22.9 15.2 22.9 15.2L22.9 15.3 22.9 15.3C22.9 15.3 22.9 15.3 22.9 15.3 22.9 15.3 22.8 15.3 22.8 15.3 22.8 15.3 22.8 15.2 22.7 15.2 22.6 15.1 22.6 15.1 22.6 15 22.6 15 22.6 15 22.6 14.9 22.6 14.9 22.6 14.9 22.6 14.9 22.6 14.8 22.6 14.8 22.6 14.8 22.6 14.8 22.6 14.8 22.6 14.9 22.6 14.9 22.6 14.9 22.6 14.9 22.6 14.9 22.6 14.9 22.6 14.9 22.6 14.9 22.6 15 22.6 15 22.6 15 22.6 15 22.6 15 22.6 15 22.6 15 22.6 15 22.6 14.9 22.5 14.9 22.5 14.9L22.5 14.9 22.5 14.9C22.5 14.9 22.5 14.8 22.4 14.9 22.4 14.9 22.4 14.9 22.4 14.9 22.4 14.9 22.4 14.9 22.4 14.9 22.4 14.9 22.5 15 22.5 15 22.5 15 22.5 15 22.5 15 22.5 15 22.5 15 22.5 15 22.5 15 22.5 15 22.5 15 22.4 15 22.4 15 22.4 15L22.4 15C22.4 15.1 22.4 15.1 22.4 15.1 22.4 15.1 22.4 15.1 22.4 15.1 22.4 15.1 22.4 15.1 22.5 15.1 22.5 15.1 22.5 15.1 22.5 15.1 22.5 15.1 22.5 15.1 22.5 15.1 22.5 15.1 22.5 15.1 22.5 15.1 22.5 15.1 22.5 15.1 22.5 15.1 22.5 15.1 22.5 15.1 22.5 15.1 22.5 15.1 22.5 15.2 22.6 15.2 22.6 15.2 22.6 15.2 22.6 15.2 22.6 15.3 22.5 15.3 22.5 15.2 22.4 15.3 22.5 15.3 22.6 15.3 22.6 15.3 22.6 15.3 22.6 15.3 22.6 15.3 22.6 15.3 22.6 15.3 22.6 15.3 22.6 15.3 22.6 15.3 22.6 15.3 22.6 15.3 22.6 15.3 22.6 15.3 22.6 15.4 22.7 15.4 22.7 15.3 22.7 15.3 22.7 15.3 22.7 15.3 22.7 15.4 22.9 15.5 22.9 15.5 22.9 15.5 22.9 15.5 22.9 15.5 22.9 15.5 22.9 15.5 22.9 15.5 23 15.6 23 15.6 23 15.6 22.8 15.6 22.7 15.6 22.7 15.6 22.6 15.7 22.5 15.6 22.5 15.6 22.5 15.6 22.5 15.6 22.5 15.5 22.5 15.5 22.5 15.5L22.4 15.5C22.4 15.5 22.4 15.5 22.4 15.5 22.4 15.5 22.4 15.5 22.4 15.6 22.4 15.6 22.4 15.6 22.4 15.6 22.4 15.6 22.4 15.6 22.5 15.6 22.5 15.6 22.5 15.7 22.5 15.7 22.5 15.7 22.4 15.7 22.4 15.6 22.4 15.6 22.4 15.6 22.4 15.6 22.4 15.6 22.3 15.6 22.3 15.6 22.3 15.6 22.3 15.6 22.3 15.6 22.3 15.6 22.2 15.7 22.3 15.7 22.3 15.7 22.3 15.7 22.3 15.7 22.3 15.7 22.3 15.7 22.3 15.7 22.3 15.7 22.3 15.8 22.4 15.7 22.4 15.7 22.4 15.7 22.4 15.7 22.4 15.7 22.4 15.8 22.4 15.8 22.4 15.8 22.4 15.8 22.4 15.8L22.4 15.8C22.4 15.9 22.4 15.9 22.5 15.9 22.5 15.9 22.4 15.9 22.5 15.8 22.5 15.8 22.5 15.8 22.5 15.8 22.5 15.8 22.5 15.8 22.5 15.8 22.5 15.8 22.5 15.8 22.5 15.8 22.5 15.8 22.5 15.8 22.6 15.8 22.6 15.8 22.6 15.8 22.6 15.8 22.6 15.8 22.6 15.8 22.6 15.8 22.7 15.8 22.7 15.8 22.7 15.8 22.7 15.8 22.7 15.8 22.7 15.8 22.7 15.8 22.7 15.8 22.7 15.9 22.7 15.9 22.8 15.8 22.8 15.8 22.8 15.8 22.8 15.8 22.8 15.8L22.8 15.8C22.8 15.8 22.8 15.8 22.9 15.8 22.9 15.8 22.9 15.8 22.9 15.8 22.9 15.8 22.9 15.8 22.9 15.8 22.9 15.8 22.9 15.8 22.9 15.8 22.9 15.8 22.9 15.9 22.9 15.9 22.9 15.8 23.1 15.8 23.2 15.8 23.2 15.8 23.2 15.8 23.2 15.8 23.2 15.8 23.2 15.8 23.1 15.8 23.2 15.8 23.2 15.8 23.2 15.8L23.2 15.8 23.3 15.8C23.3 15.7 23.3 15.7 23.3 15.7 23.4 15.7 23.4 15.7 23.4 15.7 23.4 15.7 23.4 15.7 23.4 15.7 23.5 15.7 23.5 15.7 23.5 15.7 23.9 15.7 23.7 15.5 24.2 15.5 24.2 15.5 24.2 15.5 24.2 15.5 24.2 15.5 24.2 15.6 24.3 15.6 24.3 15.6 24.3 15.7 24.4 15.7 24.4 15.7 24.4 15.7 24.3 15.7 24.3 15.7 24.3 15.7 24.3 15.7 24.2 15.7 24.2 15.6 24.1 15.6 24.1 15.6 24.1 15.6 24.1 15.6 24.1 15.6 24 15.7 24 15.7 24 15.7 24 15.7 24.1 15.7L24.1 15.7C24.1 15.7 24.1 15.7 24.1 15.7 24.1 15.7 24.1 15.7 24.1 15.7 24.1 15.7 24.1 15.7 24.1 15.7 24.1 15.7 24 15.7 24.1 15.8 24.1 15.8 24.1 15.8 24.1 15.8 24.1 15.8 24.1 15.9 24.1 15.9 24.1 15.8 24.1 15.8 24.1 15.8L24.1 15.8C24.1 15.8 24.1 15.8 24.2 15.8L24.2 15.8C24.2 15.8 24.2 15.8 24.2 15.8 24.2 15.8 24.2 15.8 24.2 15.8 24.2 15.8 24.2 15.9 24.2 15.9 24.2 15.9 24.2 15.9 24.3 15.9 24.2 15.9 24.2 15.9 24.2 15.9 24.2 15.9 24.2 15.9 24.2 15.9 24.2 15.9 24.2 15.8 24.2 15.8 24.2 15.8 24.2 15.8 24.3 15.8 24.3 15.8 24.3 15.8 24.3 15.8 24.3 15.8 24.3 15.8 24.3 15.8 24.3 15.8 24.3 15.9 24.4 15.9 24.4 15.8 24.4 15.8 24.4 15.8 24.4 15.8 24.4 15.8 24.4 15.8 24.5 15.8 24.6 15.8 24.6 15.8 24.6 15.7 24.6 15.7 24.5 15.6 24.5 15.6 24.5 15.6 24.5 15.5 24.5 15.6 24.6 15.6 24.7 15.6 24.8 15.6 24.8 15.6 24.9 15.5 24.9 15.5 25 15.5 25 15.5 25 15.5 25 15.5 25 15.5 25 15.6 25 15.6 25 15.6 25 15.7 25 15.7 24.9 15.6 24.9 15.6 24.9 15.7 24.9 15.7 24.9 15.7 24.8 15.7 24.8 15.7 24.8 15.7 24.9 15.7 24.9 15.7L24.9 15.7C24.9 15.8 24.9 15.8 25 15.7 25 15.7 25 15.7 25 15.8 25 15.8 24.9 15.8 24.9 15.8L25 15.8C25 15.9 25 15.9 25 15.9 25 15.9 25 15.9 25 15.8 25 15.8 25 15.8 25 15.8 25.1 15.8 25 15.8 25.1 15.8 25.1 15.8 25.1 15.8 25.1 15.8 25.1 15.8 25.1 15.8 25.1 15.9 25.1 15.9 25.1 15.9 25.1 15.9 25.1 15.9 25.2 15.9 25.2 15.9 25.2 15.9 25.2 15.9 25.2 15.9 25.2 15.8 25.2 15.8 25.2 15.8 25.2 15.8 25.1 15.8 25.1 15.7 25.1 15.7 25.2 15.7 25.2 15.7 25.2 15.6 25.2 15.6 25.2 15.6 25.2 15.6 25.2 15.6 25.2 15.6 25.2 15.6 25.2 15.6 25.2 15.6 25.2 15.6 25.2 15.6 25.2 15.5 25.2 15.5 25.2 15.5 25.2 15.5 25.2 15.5 25.2 15.5 25.2 15.5 25.2 15.5 25.1 15.5 25.1 15.5 25.1 15.5 25.1 15.4 25.1 15.4 25 15.4 24.9 15.4 24.8 15.4 24.9 15.4 25.2 15.4 25.2 15.3" id="Fill-73" class="a"/>
          <path d="M29 17.3C29 17.3 29 17.3 29 17.3 29 17.3 29.1 17.3 29 17.2 29 17.2 29 17.3 29 17.2 29 17.2 29 17.2 28.9 17.2 28.8 17.2 28.8 17.2 28.6 17.2 28.6 17.2 28.6 17.2 28.6 17.2 28.8 17.2 29 17.1 29 17 29 17 29 16.9 28.7 16.9 28.4 16.9 27.6 17 27.6 16.8 27.6 16.8 27.9 16.8 28.1 16.8 28.1 16.8 28.1 16.8 28.1 16.8 28.5 16.9 28.9 16.7 29.1 16.7 28.8 16.6 28.6 16.8 28.4 16.8 28.5 16.8 28.7 16.7 28.7 16.7 28.6 16.8 28.3 16.6 28.1 16.7 28.1 16.7 28.1 16.7 28.1 16.7 27.8 16.7 27.5 16.7 27.5 16.8 27.5 17.1 28.5 17 28.7 17 28.9 17 29 17 29 17 29 17.1 28.7 17.1 28.6 17.1 28.4 17.1 27.5 17 27.2 17.1 27.2 17 27.3 16.9 27.2 16.9 27.3 16.9 27.3 16.9 27.3 16.8 27.3 16.8 27.3 16.8 27.2 16.8 27.2 16.8 27.2 16.8 27.2 16.8 27.2 16.8 27.2 16.7 27.2 16.7 27.2 16.7 27.2 16.7 27.1 16.7 27.1 16.6 27.1 16.6 27 16.6 27 16.6 27 16.6 27 16.6 27 16.6 27 16.6 27 16.7 26.9 16.7 26.9 16.6 26.9 16.6 26.9 16.7 26.9 16.7 26.9 16.7 26.8 16.7 26.8 16.8 26.8 16.8 26.8 16.8 26.8 16.8 26.8 16.8 26.8 16.9 26.8 16.9 26.7 16.9 26.8 17 26.8 17 26.8 17 26.8 17 26.8 17 26.8 17.1L26.7 17 26.7 17C26.7 17 26.7 17 26.7 17 26.6 17 26.6 17 26.5 16.9 26.5 16.9 26.5 16.9 26.5 16.8 26.5 16.8 26.5 16.7 26.5 16.7 26.5 16.7 26.5 16.7 26.5 16.6 26.5 16.6 26.4 16.6 26.4 16.6 26.4 16.6 26.4 16.6 26.4 16.6 26.4 16.7 26.4 16.7 26.4 16.7 26.4 16.7 26.4 16.7 26.4 16.7 26.4 16.7 26.4 16.7 26.4 16.7 26.4 16.7 26.4 16.7 26.4 16.7 26.4 16.8 26.4 16.8 26.4 16.7 26.4 16.7 26.4 16.7 26.3 16.7 26.3 16.7 26.3 16.7 26.3 16.7L26.3 16.7C26.3 16.6 26.3 16.6 26.2 16.6 26.2 16.6 26.3 16.6 26.3 16.7 26.3 16.7 26.3 16.7 26.3 16.7 26.3 16.7 26.3 16.7 26.3 16.7 26.3 16.7 26.3 16.7 26.3 16.7 26.3 16.7 26.3 16.8 26.3 16.8 26.3 16.8 26.3 16.8 26.3 16.8 26.3 16.7 26.2 16.8 26.2 16.8L26.2 16.8C26.2 16.8 26.2 16.9 26.3 16.9 26.3 16.9 26.3 16.8 26.3 16.8L26.3 16.8C26.3 16.8 26.3 16.9 26.3 16.9 26.3 16.9 26.3 16.9 26.3 16.8L26.3 16.8C26.4 16.8 26.4 16.8 26.4 16.9 26.4 16.9 26.4 16.9 26.4 16.9 26.3 16.9 26.3 16.9 26.4 17 26.4 17 26.4 17 26.4 17 26.4 17 26.3 17 26.3 16.9 26.2 17 26.3 17.1 26.4 17.1 26.4 17.1 26.4 17.1 26.4 17.1 26.4 17.1 26.4 17.1 26.4 17.1 26.4 17.1 26.4 17.1 26.5 17.1 26.5 17.1 26.5 17.1 26.5 17.1 26.5 17.1 26.5 17.1 26.5 17.1 26.5 17.1 26.5 17.1 26.5 17.1 26.5 17.1 26.6 17.2 26.7 17.3 26.7 17.3 26.7 17.2 26.7 17.2 26.8 17.2 26.8 17.3 26.8 17.3L26.8 17.3C26.8 17.3 26.9 17.4 26.8 17.4 26.8 17.4 26.7 17.4 26.7 17.4 26.6 17.4 26.5 17.4 26.5 17.4 26.5 17.4 26.5 17.4 26.5 17.3 26.4 17.3 26.4 17.3 26.4 17.3 26.4 17.3 26.4 17.3 26.4 17.3 26.4 17.3 26.3 17.3 26.3 17.3 26.3 17.3 26.3 17.3 26.4 17.3 26.3 17.3 26.3 17.3 26.3 17.3 26.3 17.4 26.3 17.4 26.4 17.4 26.4 17.4 26.4 17.4 26.4 17.4 26.4 17.4 26.4 17.4 26.4 17.4 26.3 17.4 26.3 17.4 26.3 17.4 26.3 17.4 26.3 17.4 26.3 17.4L26.3 17.4C26.2 17.4 26.2 17.4 26.2 17.5 26.2 17.5 26.2 17.4 26.3 17.4 26.3 17.4 26.3 17.5 26.3 17.5 26.3 17.5 26.3 17.5 26.4 17.5 26.4 17.5 26.4 17.5 26.4 17.5 26.4 17.5 26.3 17.5 26.3 17.6 26.3 17.6 26.3 17.6 26.4 17.6 26.4 17.6 26.4 17.6 26.4 17.6 26.3 17.6 26.4 17.7 26.4 17.7 26.4 17.7 26.4 17.6 26.4 17.6 26.4 17.6 26.4 17.6 26.4 17.6 26.5 17.6 26.4 17.5 26.5 17.5 26.5 17.5 26.5 17.5 26.5 17.5 26.5 17.6 26.5 17.6 26.5 17.6 26.6 17.6 26.6 17.6 26.6 17.5 26.6 17.5 26.6 17.5 26.6 17.5 26.6 17.5 26.6 17.6 26.6 17.6 26.6 17.6 26.6 17.6 26.7 17.5 26.7 17.6 26.7 17.6 26.6 17.6 26.7 17.6 26.7 17.6 26.7 17.5 26.7 17.6 26.7 17.6 26.7 17.6L26.7 17.6C26.7 17.6 26.8 17.6 26.8 17.6 26.8 17.6 26.8 17.6 26.8 17.6 26.8 17.6 26.8 17.6 26.8 17.6 26.8 17.6 26.8 17.6 26.9 17.6 26.9 17.6 26.8 17.6 26.9 17.7 26.9 17.6 27 17.6 27 17.6 27 17.5 27 17.5 27 17.6 27 17.6 27 17.6 27 17.6 27 17.6 27.1 17.5 27.1 17.5 27.1 17.5 27.2 17.5 27.2 17.5 27.3 17.5 27.3 17.4 27.3 17.4 27.7 17.5 27.5 17.2 28 17.3 28 17.3 28 17.3 28.1 17.2 28 17.3 28 17.4 28.1 17.4 28.1 17.4 28.2 17.4 28.2 17.4 28.2 17.4 28.2 17.5 28.2 17.5 28.1 17.5 28.1 17.5 28.1 17.5 28 17.5 28 17.4 27.9 17.4 27.9 17.4 27.9 17.4 27.9 17.4 27.9 17.4 27.8 17.4 27.8 17.5 27.9 17.5 27.9 17.4 27.9 17.4L27.9 17.5C27.9 17.5 27.9 17.5 27.9 17.5 28 17.5 28 17.5 28 17.5 28 17.5 28 17.5 28 17.5 28 17.5 27.9 17.5 27.9 17.6 27.9 17.6 27.9 17.6 27.9 17.6 27.9 17.6 27.9 17.6 28 17.6 28 17.6 27.9 17.6 27.9 17.6 28 17.6 28 17.6 28 17.6 28 17.6 28 17.6 28 17.6 28 17.6 28 17.6 28 17.6 28 17.6 28 17.6 28 17.6 28 17.6 28 17.6 28 17.6 28 17.6 28 17.6 28 17.6 28 17.7 28 17.7 28.1 17.7 28.1 17.7 28 17.7 28 17.6 28 17.6 28.1 17.6 28.1 17.6 28.1 17.6 28.1 17.6 28.1 17.6 28.1 17.6 28.1 17.6 28.1 17.6L28.1 17.6C28.1 17.6 28.1 17.6 28.1 17.6 28.1 17.6 28.1 17.6 28.2 17.6 28.2 17.6 28.2 17.6 28.2 17.5 28.2 17.5 28.3 17.5 28.3 17.5 28.3 17.6 28.4 17.6 28.4 17.5 28.4 17.5 28.4 17.4 28.3 17.4 28.3 17.4 28.3 17.4 28.3 17.3 28.4 17.3 28.4 17.4 28.5 17.4 28.6 17.4 28.7 17.3 28.7 17.3 28.8 17.3 28.8 17.3 28.9 17.3 28.9 17.3 28.9 17.3 28.9 17.3 28.9 17.4 28.9 17.4 28.9 17.4 28.8 17.4 28.8 17.4 28.8 17.4 28.7 17.4 28.7 17.4 28.7 17.4 28.7 17.4 28.7 17.5 28.7 17.5 28.7 17.5 28.7 17.5 28.7 17.5L28.7 17.5C28.7 17.5 28.8 17.5 28.8 17.5 28.8 17.5 28.8 17.5 28.8 17.5 28.8 17.5 28.7 17.6 28.8 17.6 28.8 17.6 28.8 17.6 28.8 17.6 28.8 17.6 28.8 17.7 28.8 17.7 28.8 17.7 28.8 17.6 28.8 17.6L28.8 17.6C28.9 17.6 28.9 17.6 28.9 17.5 28.9 17.5 28.9 17.5 28.9 17.5 28.9 17.6 28.9 17.6 28.9 17.6 28.9 17.6 28.9 17.6 28.9 17.6 28.9 17.7 29 17.7 29 17.7 29 17.6 29 17.6 29 17.6 29 17.6 29 17.6 29 17.6 29 17.5 29 17.5 29 17.5 29 17.5 29 17.5 29 17.4 29 17.4 29 17.4 29 17.4L29 17.4C29 17.4 29 17.4 29.1 17.4 29 17.4 29 17.3 29 17.3L29 17.3Z" id="Fill-75" class="a"/>
          <path d="M27.8 18C27.8 18 27.8 18 27.9 18 28.2 18.1 28.6 17.9 28.8 17.9 28.5 17.8 28.4 18 28.1 17.9 28.3 17.9 28.4 17.9 28.4 17.9 28.3 17.9 28 17.8 27.9 17.9 27.8 17.9 27.8 17.9 27.8 17.9 27.6 17.9 27.5 17.9 27.5 18 27.5 18.3 28.2 18.1 28.4 18.1 28.6 18.1 28.6 18.2 28.6 18.2 28.6 18.3 28.3 18.3 28.2 18.3 28 18.3 27.5 18.2 27.1 18.3 27.2 18.2 27.2 18.1 27.2 18.1 27.2 18.1 27.3 18 27.3 18 27.2 18 27.2 18 27.2 18 27.2 18 27.2 18 27.2 17.9 27.2 17.9 27.2 17.9 27.2 17.9 27.1 17.9 27.1 17.9 27.1 17.8 27 17.8 27 17.8 27 17.8 27 17.8 27 17.8 27 17.8 26.9 17.8 26.9 17.8 26.9 17.8 26.9 17.8 26.9 17.8 26.9 17.8 26.8 17.9 26.8 17.9 26.9 17.9 26.8 17.9 26.8 18 26.8 18 26.8 18 26.8 18 26.8 18 26.8 18.1 26.8 18.1 26.7 18.1 26.7 18.1 26.7 18.2 26.8 18.2 26.7 18.2 26.7 18.2 26.7 18.3L26.7 18.2 26.7 18.2C26.7 18.2 26.6 18.2 26.6 18.2 26.5 18.2 26.5 18.1 26.5 18.1 26.5 18.1 26.5 18 26.5 18 26.5 18 26.5 17.9 26.5 17.9 26.5 17.9 26.5 17.9 26.4 17.9 26.5 17.9 26.5 17.9 26.5 17.9 26.5 17.9 26.5 17.9 26.5 17.9 26.4 18 26.4 18 26.5 18 26.5 18 26.5 18 26.5 18 26.5 18 26.5 18 26.5 18 26.5 18 26.5 18 26.4 18 26.4 18 26.4 17.9 26.4 17.9L26.4 17.9C26.4 17.9 26.4 17.9 26.4 17.9 26.4 17.9 26.3 17.9 26.3 17.9 26.3 17.9 26.3 17.9 26.3 17.9 26.3 17.9 26.3 18 26.3 18 26.3 18 26.3 18 26.4 18 26.4 18 26.4 18 26.4 18 26.4 18 26.4 18 26.4 18 26.4 18 26.4 18 26.4 18 26.3 18 26.3 18 26.3 18.1 26.3 18.1 26.3 18.1 26.3 18.1 26.3 18.1 26.3 18.1 26.3 18.2 26.3 18.2 26.3 18.1 26.3 18.1 26.3 18.1 26.3 18.1 26.3 18.1 26.3 18.1 26.4 18.1 26.4 18.1 26.4 18.1 26.4 18.1 26.4 18.1 26.4 18.1 26.4 18.1 26.4 18.1 26.4 18.1 26.4 18.1 26.4 18.1 26.4 18.1 26.4 18.1 26.4 18.1 26.4 18.2 26.4 18.2 26.4 18.2 26.4 18.2 26.4 18.2 26.4 18.2 26.4 18.3 26.3 18.3 26.4 18.2 26.3 18.3 26.4 18.4 26.5 18.3 26.5 18.3 26.5 18.3 26.5 18.3 26.5 18.4 26.5 18.4 26.5 18.4 26.5 18.4 26.5 18.4 26.5 18.4 26.5 18.4 26.5 18.4 26.5 18.4 26.5 18.4 26.5 18.4 26.5 18.4 26.5 18.4 26.5 18.4 26.6 18.4 26.6 18.4 26.6 18.3 26.7 18.4 26.7 18.4 26.7 18.4 26.7 18.4L26.8 18.4C26.7 18.5 26.8 18.5 26.8 18.5 26.7 18.5 26.6 18.5 26.6 18.6 26.6 18.6 26.4 18.6 26.4 18.6 26.4 18.6 26.4 18.5 26.4 18.5 26.4 18.5 26.4 18.5 26.3 18.5L26.3 18.5C26.3 18.5 26.3 18.5 26.2 18.5 26.3 18.5 26.3 18.5 26.3 18.5 26.3 18.5 26.3 18.5 26.3 18.5 26.3 18.5 26.3 18.6 26.3 18.6 26.3 18.6 26.3 18.6 26.3 18.6 26.3 18.6 26.3 18.6 26.3 18.6 26.3 18.6 26.3 18.5 26.2 18.6 26.2 18.6 26.2 18.6 26.2 18.6 26.2 18.6 26.2 18.6 26.2 18.6 26.2 18.6 26.1 18.6 26.1 18.7 26.1 18.6 26.2 18.6 26.2 18.6 26.2 18.6 26.2 18.6 26.2 18.6 26.2 18.7 26.2 18.7 26.3 18.7 26.3 18.7 26.3 18.7 26.3 18.7 26.3 18.7 26.2 18.7 26.3 18.8 26.3 18.8 26.3 18.8 26.3 18.8 26.3 18.8 26.3 18.8 26.3 18.8 26.3 18.8 26.3 18.9 26.3 18.9 26.3 18.9 26.3 18.8 26.3 18.8 26.3 18.8 26.3 18.8 26.3 18.8 26.4 18.8 26.4 18.7 26.4 18.7 26.4 18.7 26.4 18.7 26.4 18.7 26.4 18.7 26.4 18.8 26.5 18.8 26.5 18.8 26.5 18.7 26.5 18.7 26.5 18.7 26.5 18.7 26.5 18.7 26.5 18.7 26.5 18.7 26.5 18.8 26.5 18.8 26.6 18.8 26.6 18.7 26.6 18.8 26.6 18.8 26.5 18.8 26.6 18.8 26.6 18.8 26.6 18.7 26.6 18.7 26.6 18.8 26.6 18.8 26.6 18.8 26.6 18.8 26.6 18.8 26.7 18.8 26.7 18.8 26.7 18.8 26.7 18.8 26.7 18.8 26.7 18.8 26.7 18.8 26.7 18.8 26.7 18.8 26.7 18.8 26.8 18.8 26.8 18.8 26.8 18.8 26.8 18.8 26.8 18.9 26.8 18.7 26.9 18.8 27 18.7 27 18.7 27 18.7 27 18.7 27 18.7 26.9 18.8 26.9 18.8 27 18.8 27.1 18.7 27.1 18.6L27.1 18.6C27.1 18.6 27.1 18.6 27.1 18.7 27.2 18.7 27.2 18.6 27.2 18.6 27.4 18.6 27.3 18.4 27.6 18.5 27.6 18.5 27.7 18.5 27.7 18.4 27.7 18.5 27.7 18.6 27.7 18.6 27.8 18.6 27.8 18.6 27.8 18.6 27.8 18.6 27.8 18.6 27.8 18.6 27.8 18.6 27.8 18.6 27.7 18.7 27.7 18.7 27.7 18.5 27.6 18.6 27.6 18.6 27.6 18.6 27.6 18.6 27.5 18.6 27.5 18.6 27.5 18.7 27.5 18.6 27.5 18.6 27.5 18.6 27.5 18.6 27.5 18.6 27.5 18.6 27.5 18.7 27.5 18.7 27.6 18.7 27.6 18.7 27.6 18.7 27.6 18.7 27.6 18.7 27.6 18.7 27.6 18.7 27.6 18.7 27.5 18.7 27.5 18.7 27.5 18.7 27.5 18.8 27.5 18.8 27.5 18.8 27.6 18.8 27.6 18.8 27.6 18.8 27.6 18.8 27.6 18.8 27.6 18.8 27.6 18.8 27.6 18.8 27.6 18.8 27.6 18.8 27.6 18.8 27.6 18.8 27.6 18.8 27.6 18.8 27.6 18.8 27.6 18.8 27.6 18.8 27.6 18.8 27.6 18.8 27.6 18.8 27.6 18.8 27.6 18.8 27.6 18.8 27.6 18.8 27.7 18.9 27.7 18.9 27.7 18.8 27.7 18.8 27.7 18.8 27.7 18.8 27.7 18.8 27.7 18.8 27.7 18.8 27.7 18.8 27.7 18.8 27.7 18.8 27.7 18.8 27.7 18.8L27.7 18.8C27.7 18.8 27.7 18.8 27.8 18.8 27.8 18.8 27.8 18.8 27.8 18.8 27.9 18.8 27.8 18.7 27.9 18.7 27.9 18.7 27.9 18.7 27.9 18.7 27.9 18.7 28 18.7 28 18.7 28 18.7 28 18.6 28 18.6 27.9 18.6 28 18.5 27.9 18.5 28 18.5 28 18.5 28.1 18.5 28.2 18.5 28.3 18.5 28.3 18.5 28.4 18.5 28.5 18.5 28.5 18.5 28.5 18.5 28.5 18.5 28.5 18.5 28.5 18.6 28.5 18.6 28.5 18.6 28.4 18.6 28.4 18.6 28.4 18.6 28.3 18.6 28.3 18.6 28.3 18.6 28.3 18.6 28.3 18.7 28.3 18.7 28.3 18.7 28.3 18.7 28.3 18.7L28.3 18.7C28.3 18.7 28.3 18.7 28.4 18.7 28.4 18.7 28.4 18.7 28.4 18.7 28.4 18.7 28.3 18.8 28.3 18.8 28.3 18.8 28.3 18.8 28.4 18.8 28.3 18.8 28.4 18.9 28.4 18.9 28.4 18.8 28.4 18.8 28.4 18.8L28.4 18.8C28.4 18.8 28.4 18.7 28.5 18.7 28.5 18.7 28.5 18.7 28.5 18.7 28.5 18.8 28.4 18.8 28.5 18.8 28.5 18.8 28.5 18.8 28.5 18.8 28.5 18.8 28.5 18.9 28.6 18.8 28.5 18.8 28.5 18.8 28.5 18.8 28.5 18.8 28.6 18.8 28.6 18.8 28.6 18.7 28.5 18.7 28.5 18.7 28.6 18.7 28.6 18.7 28.6 18.6 28.6 18.6 28.6 18.6 28.6 18.6 28.6 18.6 28.6 18.6 28.6 18.6L28.6 18.6C28.6 18.6 28.6 18.6 28.7 18.5 28.6 18.6 28.6 18.5 28.6 18.5 28.6 18.5 28.6 18.5 28.6 18.5 28.7 18.5 28.7 18.4 28.7 18.4 28.7 18.4 28.6 18.5 28.6 18.4 28.6 18.4 28.6 18.4 28.6 18.4 28.5 18.4 28.4 18.4 28.2 18.4 28.2 18.4 28.2 18.4 28.2 18.3 28.4 18.3 28.7 18.3 28.7 18.2 28.7 18.1 28.7 18.1 28.4 18.1 28.1 18.1 27.6 18.2 27.6 18 27.6 18 27.7 18 27.8 18" id="Fill-77" class="a"/>
          <path d="M27.6 19.1C27.6 19.2 27.6 19.2 27.6 19.2 27.9 19.3 28.3 19 28.5 19.1 28.3 19 28.1 19.1 27.8 19.1 28 19.1 28.1 19.1 28.1 19 28 19.1 27.7 19 27.6 19.1 27.6 19.1 27.6 19.1 27.6 19.1 27.5 19.1 27.4 19.2 27.4 19.2 27.4 19.4 28.2 19.3 28.2 19.3 28.2 19.4 28 19.5 27.8 19.5 27.7 19.5 27.4 19.4 27 19.4L27 19.4C27 19.4 27.1 19.3 27.1 19.2 27.1 19.2 27.1 19.2 27.1 19.2 27.1 19.2 27.1 19.2 27.1 19.2 27.1 19.1 27.1 19.1 27.1 19.1 27 19.1 27 19.1 27 19.1 27 19.1 27 19 27 19 26.9 19 26.9 19 26.9 19 26.9 19 26.9 19 26.8 19 26.8 19 26.8 19 26.8 19 26.8 19 26.8 19 26.8 19 26.7 19 26.7 19.1 26.7 19.1 26.7 19.1 26.7 19.2 26.7 19.2 26.7 19.2 26.7 19.2 26.7 19.2 26.7 19.2 26.7 19.3 26.6 19.3 26.6 19.3 26.6 19.3 26.7 19.3 26.6 19.4 26.6 19.5 26.6 19.5 26.6 19.5 26.5 19.3 26.5 19.3 26.4 19.3 26.4 19.3 26.4 19.2 26.4 19.2 26.4 19.1 26.4 19.1 26.4 19.1 26.4 19.1 26.4 19.1 26.4 19 26.4 19 26.4 19 26.4 19 26.4 19 26.4 19.1 26.4 19.1 26.4 19.1 26.4 19.1 26.4 19.1 26.3 19.1 26.4 19.1 26.4 19.1 26.4 19.1 26.4 19.1 26.4 19.1 26.4 19.1 26.4 19.2 26.4 19.2 26.4 19.2 26.4 19.2 26.3 19.1 26.3 19.1 26.3 19.1L26.3 19.1C26.3 19.1 26.3 19.1 26.3 19.1 26.3 19 26.3 19 26.2 19.1 26.2 19.1 26.2 19.1 26.2 19.1 26.2 19.1 26.2 19.1 26.2 19.1 26.2 19.1 26.3 19.1 26.3 19.1 26.3 19.1 26.3 19.1 26.3 19.1 26.3 19.2 26.3 19.2 26.3 19.2 26.3 19.2 26.3 19.2 26.3 19.2 26.2 19.1 26.2 19.2 26.2 19.2 26.2 19.2 26.2 19.2 26.2 19.2 26.2 19.2 26.2 19.3 26.2 19.3 26.2 19.3 26.2 19.2 26.2 19.2 26.2 19.2 26.3 19.2 26.3 19.2L26.3 19.3C26.3 19.3 26.3 19.3 26.3 19.2 26.3 19.2 26.3 19.2 26.3 19.2 26.3 19.2 26.3 19.2 26.3 19.3 26.3 19.3 26.3 19.3 26.3 19.3 26.3 19.3 26.3 19.3 26.3 19.3 26.4 19.3 26.4 19.3 26.4 19.3 26.4 19.4 26.3 19.4 26.3 19.3 26.2 19.4 26.3 19.5 26.4 19.4 26.4 19.4 26.4 19.4 26.4 19.4 26.4 19.5 26.4 19.5 26.4 19.5 26.4 19.5 26.4 19.4 26.4 19.4 26.4 19.4 26.4 19.5 26.4 19.5 26.4 19.5 26.4 19.5 26.5 19.5 26.4 19.5 26.5 19.5 26.5 19.5 26.5 19.5 26.5 19.6 26.6 19.6 26.6 19.7 26.6 19.7 26.7 19.7 26.7 19.8 26.7 19.8 26.7 19.8 26.7 19.8 26.6 19.8 26.5 19.8 26.5 19.8 26.5 19.8 26.4 19.8L26.4 19.8C26.4 19.8 26.4 19.8 26.4 19.8 26.4 19.8 26.4 19.8 26.4 19.8 26.3 19.8 26.4 19.8 26.3 19.8 26.3 19.7 26.3 19.7 26.3 19.7L26.3 19.7C26.3 19.7 26.2 19.7 26.2 19.7 26.2 19.7 26.2 19.7 26.2 19.7L26.2 19.8C26.2 19.8 26.2 19.8 26.3 19.8 26.3 19.8 26.3 19.8 26.3 19.8 26.3 19.8 26.3 19.9 26.3 19.8 26.2 19.8 26.2 19.8 26.2 19.8L26.2 19.8C26.2 19.8 26.2 19.8 26.2 19.8 26.1 19.8 26.1 19.9 26.1 19.9 26.1 19.9 26.1 19.9 26.2 19.9 26.2 19.9 26.2 19.9 26.2 19.9 26.2 19.9 26.2 19.9 26.3 19.9 26.3 19.9 26.3 19.9 26.3 19.9 26.2 19.9 26.2 20 26.2 20 26.2 20 26.2 20 26.2 20 26.2 20 26.2 20 26.2 20 26.2 20 26.3 20.1 26.3 20.1 26.3 20.1 26.3 20 26.3 20 26.3 20 26.3 20 26.3 20 26.3 20 26.3 20 26.3 19.9 26.3 19.9 26.4 19.9 26.4 19.9 26.4 20 26.4 20 26.4 20 26.4 20 26.5 20 26.5 19.9 26.5 19.9 26.5 19.9 26.5 19.9 26.5 19.9 26.5 20 26.5 20 26.5 20 26.5 20 26.5 20 26.5 20 26.5 20 26.5 20 26.5 20 26.6 20 26.6 20 26.6 20 26.6 20 26.6 20 26.6 20 26.6 20 26.6 20 26.6 20 26.6 20 26.7 20 26.7 20 26.7 20 26.7 20 26.7 20 26.7 20 26.7 20 26.7 20 26.7 20 26.7 20 26.7 20 26.7 20 26.7 20.1 26.7 20 26.8 20 26.9 20 26.9 20 26.9 20 26.9 20 26.9 20 26.8 20 26.8 20 26.9 20 26.9 20 26.9 19.9 26.9 19.9 27 19.9 27 19.7L27 19.7C27.1 19.7 27.1 19.7 27.2 19.7 27.2 19.7 27.2 19.8 27.2 19.8 27.2 19.8 27.3 19.9 27.3 19.9 27.3 19.9 27.3 19.9 27.3 19.9 27.3 19.9 27.2 19.9 27.2 19.9 27.2 20 27.2 19.8 27.1 19.9 27.1 19.9 27.1 19.9 27.1 19.9 27 19.9 27 19.9 27 19.9 27 19.9 27 19.9 27 19.9L27 19.9C27 19.9 27 20 27.1 20 27.1 20 27.1 19.9 27.1 19.9 27.1 19.9 27.1 19.9 27.1 20 27.1 20 27 19.9 27 20 27 20 27 20 27 20 27 20.1 27.1 20.1 27.1 20.1 27.1 20.1 27.1 20.1 27.1 20 27.1 20 27.1 20 27.1 20 27.1 20 27.1 20 27.1 20L27.1 20C27.1 20 27.1 20 27.1 20 27.1 20 27.1 20 27.1 20.1 27.1 20.1 27.1 20.1 27.1 20.1 27.1 20.1 27.2 20.1 27.2 20.1 27.2 20.1 27.2 20.1 27.2 20.1 27.2 20.1 27.2 20.1 27.2 20.1 27.2 20.1 27.2 20.1 27.2 20 27.2 20 27.2 20 27.2 20L27.2 20C27.2 20 27.2 20 27.2 20 27.2 20.1 27.3 20.1 27.3 20.1 27.3 20.1 27.3 20 27.3 20 27.3 20 27.4 20 27.4 20 27.4 20 27.4 20 27.5 20 27.5 20 27.5 19.9 27.4 19.9 27.4 19.9 27.5 19.7 27.3 19.6 27.4 19.7 27.6 19.7 27.6 19.6 27.7 19.6 27.7 19.7 27.7 19.7 27.7 19.7 27.7 19.7 27.7 19.7 27.7 19.8 27.7 19.8 27.7 19.8L27.7 19.8C27.6 19.8 27.6 19.7 27.6 19.7 27.6 19.7 27.6 19.7 27.6 19.7 27.5 19.7 27.5 19.7 27.5 19.8 27.5 19.8 27.5 19.8 27.5 19.8 27.5 19.8 27.5 19.8 27.5 19.8 27.5 19.8 27.5 19.8 27.6 19.8 27.6 19.8 27.6 19.8 27.6 19.8 27.6 19.8 27.6 19.8 27.6 19.8 27.5 19.8 27.5 19.8 27.5 19.8 27.5 19.8 27.5 19.9 27.5 19.9 27.5 19.9 27.5 19.9 27.5 19.9 27.5 19.9 27.5 19.9 27.5 19.9 27.5 19.9 27.5 19.9 27.5 19.9 27.5 19.9 27.6 19.9 27.6 19.9 27.6 19.9 27.6 19.9 27.6 19.9 27.6 19.9 27.5 19.9 27.6 19.9 27.6 20 27.6 20 27.6 20 27.6 20 27.6 20 27.6 20 27.6 20 27.6 20 27.6 20 27.6 20 27.6 20 27.6 20 27.7 20 27.6 19.9 27.7 19.9 27.7 19.9 27.7 19.9 27.8 19.9 27.8 19.9 27.8 19.9 27.8 19.9 27.8 19.9 27.8 19.9 27.8 19.9 27.8 19.9 27.8 19.9 27.8 19.9 27.8 19.8 27.8 19.8 27.8 19.8 27.8 19.8 27.8 19.8 27.8 19.8 27.8 19.8 27.9 19.8 27.9 19.8 27.9 19.8 27.8 19.7 27.8 19.7 27.9 19.7 27.9 19.7 27.9 19.6 27.8 19.6 27.8 19.6 27.7 19.5 27.8 19.5 27.8 19.5 27.8 19.5 28.1 19.5 28.3 19.4 28.3 19.4 28.3 19.2 27.4 19.4 27.4 19.2 27.4 19.2 27.5 19.2 27.6 19.1" id="Fill-79" class="a"/>
          <path d="M13.9 4.5C13.9 4.4 13.8 4.3 13.6 4.3 13.5 4.3 13.4 4.4 13.4 4.5 13.4 4.6 13.5 4.7 13.6 4.7 13.8 4.7 13.9 4.6 13.9 4.5" id="Fill-81" class="a"/>
          <path d="M13.8 4C13.8 3.9 13.7 3.8 13.6 3.8 13.5 3.8 13.4 3.9 13.4 4 13.4 4.1 13.5 4.2 13.6 4.2 13.7 4.2 13.8 4.1 13.8 4" id="Fill-83" class="a"/>
          <path d="M13.9 3.8C14 3.8 14.1 3.7 14.1 3.5 14.1 3.4 14 3.3 13.9 3.3 13.8 3.3 13.7 3.4 13.7 3.5 13.7 3.7 13.8 3.8 13.9 3.8" id="Fill-85" class="a"/>
          <path d="M14.4 3.7C14.6 3.7 14.7 3.6 14.7 3.5 14.7 3.4 14.6 3.3 14.4 3.3 14.3 3.3 14.2 3.4 14.2 3.5 14.2 3.6 14.3 3.7 14.4 3.7" id="Fill-87" class="a"/>
          <path d="M16.8 3.3C16.9 3.4 17 3.4 17.1 3.3 17.1 3.3 17.1 3.1 17.1 3.1 17 3 16.9 3 16.8 3.1 16.7 3.1 16.7 3.3 16.8 3.3" id="Fill-89" class="a"/>
          <g id="Group-93" transform="translate(14.494017 0.935065)">
            <mask id="mask-4" class="b">
              <use xlink:href="#path-3"/>
            </mask>
            <path d="M2.2 2C2.3 1.9 2.3 1.8 2.2 1.7 2.2 1.6 2 1.6 1.9 1.7 1.9 1.8 1.9 1.9 1.9 2 2 2.1 2.2 2.1 2.2 2" id="Fill-91" mask="url(#mask-4)" class="a"/>
          </g>
          <g id="Group-96" transform="translate(13.555556 0.935065)">
            <mask id="mask-6" class="b">
              <use xlink:href="#path-5"/>
            </mask>
            <path d="M2.6 1.9C2.7 1.8 2.7 1.7 2.6 1.6 2.6 1.5 2.4 1.5 2.3 1.6 2.3 1.7 2.3 1.8 2.3 1.9 2.4 2 2.6 2 2.6 1.9" id="Fill-94" mask="url(#mask-6)" class="a"/>
          </g>
          <path d="M15.7 3.2C15.8 3.1 15.8 3 15.7 2.9 15.6 2.8 15.5 2.8 15.4 2.9 15.4 3 15.4 3.1 15.4 3.2 15.5 3.2 15.6 3.2 15.7 3.2" id="Fill-97" class="a"/>
          <path d="M14.4 2.9L14.6 3.2 14.8 3C14.8 3 14.8 3 14.8 3 14.8 3.1 14.8 3.3 14.8 3.4 14.8 3.6 15 3.7 15.1 3.7 15.2 3.7 15.4 3.6 15.4 3.4 15.4 3.3 15.3 3.3 15.2 3.2 15.1 3.1 15 3 14.9 2.9 14.9 2.9 14.9 2.9 14.9 2.9L15.3 2.9 15.2 2.6 14.9 2.8C14.9 2.8 14.9 2.8 14.9 2.8L14.9 2.4 14.5 2.5 14.7 2.8C14.7 2.8 14.7 2.8 14.7 2.9L14.4 2.9Z" id="Fill-99" class="a"/>
          <path d="M16.8 3.5C16.9 3.6 16.9 3.7 16.9 3.8 16.8 3.8 16.8 3.7 16.7 3.6L16.7 4.1C16.8 4 16.8 3.9 16.9 3.9 16.9 4.2 16.8 4.3 16.7 4.4 16.5 4.4 16.4 4.3 16.4 4.2 16.4 4.1 16.5 4 16.6 4.1 16.7 3.8 16.4 3.8 16.3 3.9 16.4 3.7 16.4 3.5 16.1 3.3 16 3.6 16.1 3.8 16.3 4 16.1 3.9 15.9 4 16.1 4.2 16.1 4.1 16.3 4.1 16.3 4.2 16.3 4.4 16.2 4.5 16 4.6 15.7 4.7 15.6 4.5 15.5 4.3 15.6 4.3 15.8 4.3 15.9 4.4L15.8 3.9C15.7 4.1 15.6 4.2 15.5 4.2 15.5 4.1 15.6 3.8 15.6 3.8L15 4C15 4 15.3 4.2 15.4 4.3 15.3 4.3 15.1 4.3 15 4.3L15.2 4.7C15.2 4.5 15.3 4.4 15.4 4.4 15.5 4.5 15.5 4.7 15.3 4.9 15.1 5 14.9 4.9 14.8 4.8 14.7 4.7 14.8 4.6 15 4.7 15 4.4 14.7 4.4 14.6 4.6 14.7 4.3 14.6 4.2 14.3 4.1 14.2 4.4 14.3 4.5 14.6 4.6 14.4 4.6 14.3 4.8 14.5 5 14.5 4.8 14.6 4.8 14.7 4.9 14.8 5 14.7 5.1 14.6 5.2 14.5 5.2 14.4 5.2 14.1 5 14.2 5 14.3 5 14.4 5L14.1 4.7C14.1 4.8 14.1 4.9 14.1 4.9 14 4.9 14 4.8 13.9 4.7L13.7 4.9C13.9 5 14.2 5.2 14.5 5.6 14.8 5.4 15.4 5.1 15.7 5 16.1 4.9 16.7 4.7 17.1 4.6 17 4.1 17 3.7 17.1 3.5L16.8 3.5Z" id="Fill-101" class="a"/>
          <path d="M21.3 16.4C21.4 16.2 21 16 20.9 15.7 20.9 15.3 20.9 15.1 20.5 14.6 20.2 14.2 19 12.9 18.6 12.5 18.7 12.5 18.9 12.5 19.1 12.7 19.3 12.8 19.5 13 19.8 13.3 20.1 12.5 20.5 11.8 21.1 11.2 21.1 11.1 21.2 11 21.3 11 21.1 11 20.8 11.1 20.6 11.2 20.6 10.8 20.6 10.6 20.3 10.3 20.4 9.8 20.4 9.2 19.2 8.5 19.8 8.6 20.1 9.1 20.6 8.7 20.2 8.7 20.2 7.9 18.8 7.2 19.3 7.2 19.7 8 20.4 7.5 19.8 7.5 19.6 6.4 18.5 6.1 18.9 6.1 19.2 6.3 19.6 5.9 19.2 6 19 5.6 18.6 5.6 18.7 5.1 18.7 4.8 18.5 4.5 18.2 4.5 18 4.6 17.7 4.8 17.7 4.5 17.4 4.5 17.2 4.5 17.2 4.6 17.3 4.8 17.2 4.8 17 4.9 16.3 5 15.8 5.2 15.3 5.4 14.8 5.8 14.6 5.9 14.5 5.9 14.4 5.8 14.4 5.7 14.2 5.8 14 6 14.1 6.2 13.9 6.3 13.6 6.3 13.3 6.5 13.3 6.8 13.6 7.1 14 7.3 13.3 8 13.9 8.6 13.3 9.1 14.1 9.2 14 8 14.4 7.9 14.4 8.7 13.9 8.8 13.9 9.7 13.9 10.1 14.2 10.6 14 10.9 14.6 10.8 14.5 9.3 14.9 8.8 15 9.1 14.9 9.3 14.8 9.6 14.6 10.3 14.9 11.2 14.5 11.5 15.2 11.5 15.3 10.4 15.8 9.9 15.3 11 14.8 13.1 14.1 14.2 12.9 15.8 12.2 17.7 11.1 17.7 10.6 17.7 10.3 17.4 10.3 16.8 10.3 15 13.4 13.7 13.4 11.8 13.4 10.9 12.7 10.6 12.2 10.6 11.9 10.6 11.6 10.8 11.3 11 11.2 11 11 10.9 10.9 10.9 9.8 10.9 10.1 12.9 9.1 12.9 9.5 13.1 10.2 12.7 10.6 12.1 10.4 13.4 8.5 13.1 8.7 14.6 8.9 13.4 11.9 13.6 11.9 11.8 11.9 11.5 11.8 11.4 11.7 11.2 11.9 11.1 12.1 11 12.3 11 12.6 11 13 11.3 13 11.8 13 13.5 9.8 14.8 9.8 16.8 9.8 17.1 9.9 17.4 10.1 17.6 9.9 17.7 9.6 17.7 9.5 17.5 9.4 18 10.2 18.3 10.6 18.1 10.8 18.1 10.9 18.1 11 18.1 10.8 18.5 10.4 18.6 10.1 18.6 10.9 19.2 12.2 18.4 12.1 17.7 12.7 17.3 13.1 16.4 13.6 15.9 13.5 16 13.5 16.1 13.5 16.2 13.1 17.1 12.6 17.8 12.5 18.8 12.4 19.7 12 20.5 11.3 20.5 11.2 20.5 11 20.4 10.9 20.4 10.7 20.6 10.8 20.8 10.8 21 10.8 21.2 10.4 21.5 10.4 22.2 10.4 22.6 10.6 23 10.5 23.3 10.7 23.2 11 22.8 11.1 22.4 11.3 23.4 10.6 23.4 11.1 24.3 11.2 24 11.5 23.9 11.6 24 11.8 24.1 11.7 24.2 11.6 24.3 11.5 24.5 11.3 25.2 12 25.1 11.9 25 11.8 24.9 12.2 24.8 12.6 24.7 12.7 24.9 13.2 24.9 13.5 24.9 13.6 24.5 13.8 24.5 14 24.5 14 24.7 13.9 24.8 14.3 24.8 14.4 24.6 14.4 24.3 14.4 24.1 14.2 24 14.3 23.9 14.4 23.9 14.9 23.9 14.7 24.3 14.9 24.2 15 24.1 15 23.8 15 23.6 14.7 23.4 14.4 23.5 14.4 23.3 14.2 23.2 13.9 23.2 13.4 23.2 13.5 23.6 13.1 23.6 12.6 23.6 12 22.9 12 21.7 12 21 12.7 20.8 13.2 20.6 13.7 20.4 14.6 19.9 15.2 19 15.6 18.3 15.6 17.5 15.5 16.7 16.2 17.1 16.3 17.6 16.3 18.1 16.3 18.6 16 18.8 15.8 18.9 15.6 19 15.6 19 15.5 19.1 15.5 19.2 15.6 19.3 15.7 19.4 15.9 19.5 15.9 19.7 16 20 16 20.3 16.3 20.7 16.7 21 16.7 20.8 16.7 20.6 16.7 20.2 17.2 20.5 16.8 21.6 17.8 21.6 17.7 21.4 17.7 21.2 17.8 21.1 17.9 21.1 18.1 21.2 18.3 21.5 18.5 21.8 18.4 21.7 18.9 21.7 19.4 21.7 19.2 21.6 19.5 21.6 19.7 21.6 19.7 21.9 19.6 22.1 20 22 20.1 21.6 20 21.3 20.4 21.1 20.6 21.4 20.7 21.6 21 21.2 20.7 20.7 20.4 20.7 20.4 20.6 20.2 20.4 20.1 20.4 19.9 20.4 19.7 20.4 19.6 20.4 19.4 20.4 19.3 20.7 19.1 20.7 18.4 20.7 17.1 19.5 17.1 18.9 17.1 18.4 18.3 18.1 18.3 17.3 18.3 16.3 17.3 15.9 16.4 15.2 16.7 14.9 17.7 14.8 18.2 15.1 18.2 14.8 18.4 14.8 18.5 14.3 18.7 14.8 18.5 15.2 18.7 15.4 18.8 15.1 19.2 15.2 19.2 14.6 19.3 15 19 15.5 19.3 15.7 19.3 15.4 19.5 15.4 19.6 15.4 19.7 15.4 19.8 15.5 19.8 15.6 19.8 16 19.3 15.9 19.3 16.3 19.3 16.5 19.5 16.6 19.5 16.7 19.5 16.8 19.3 17 19.1 16.9 19.2 17.1 19.3 17.2 19.5 17.2 19.8 17.2 20 17 20.1 16.8 20.2 17.1 20.1 17.4 19.9 17.5 20.2 17.6 20.7 17.5 20.6 16.8 20.9 16.8 21.1 17.1 20.9 17.4 21.2 17.4 21.4 17.2 21.4 17 21.4 16.8 21.2 16.7 21.3 16.4M15.3 7C15.1 7 15.1 6.8 14.6 6.6 14.9 6.6 15.4 6.4 15.8 6.2 15.8 6.6 15.7 7 15.3 7M17.4 9.2C17 9.3 16.7 9 16.6 8.8 16.6 8.5 16.5 8.4 16.6 8.3 16.8 8.1 16.8 8 16.7 7.8 16.6 7.6 16.4 7.7 16.1 7.8 16.2 7.5 16.2 7.4 16.1 7.4 15.9 7.4 15.9 7.7 15.8 7.7 15.7 7.7 15.7 7.5 15.7 7.4 15.7 7.3 15.8 7.2 15.9 7.2L17 6.8C17.1 6.7 17.2 6.7 17.3 6.8 17.4 6.8 17.6 6.9 17.5 7 17.5 7.1 17.2 6.9 17.1 7 17 7.1 17.1 7.2 17.3 7.3 17.1 7.4 16.8 7.5 16.9 7.8 17 8 17.1 8 17.3 8 17.4 8 17.5 8.2 17.6 8.4 17.7 8.6 17.8 9 17.4 9.2M17.4 6.2C17.1 6.4 16.8 6.2 16.6 5.9 17 5.8 17.4 5.6 17.8 5.4 17.5 5.8 17.7 6 17.4 6.2" id="Fill-103" class="a"/>
          <path d="M41.3 21.4C41.3 21.9 41.7 22.3 42.2 22.3 42.7 22.3 43.1 21.9 43.1 21.4 43.1 21 42.7 20.6 42.2 20.6 41.7 20.6 41.3 21 41.3 21.4M41.6 21.4C41.6 21.1 41.9 20.8 42.2 20.8 42.6 20.8 42.9 21.1 42.9 21.4 42.9 21.8 42.6 22.1 42.2 22.1 41.9 22.1 41.6 21.8 41.6 21.4" id="Fill-105" class="a"/>
          <path d="M38 22.3C37.9 22.3 37.8 22.4 37.8 22.6 37.8 22.7 37.8 22.9 38 23 38.1 23.1 38.2 23.2 38.4 23.3 38.6 23.3 38.8 23.3 38.9 23.2 39 23.1 39.1 23 39.2 22.8 39.2 22.5 39 22.2 38.6 22.1 38.4 22.1 38.2 22.1 38 22.3M38.4 23C38.2 23 38 22.8 38 22.6 38.1 22.5 38.1 22.5 38.2 22.4 38.3 22.4 38.4 22.3 38.6 22.4 38.8 22.4 39 22.6 39 22.7 39 22.8 39 22.8 39 22.8 38.9 23 38.7 23.1 38.4 23" id="Fill-107" class="a"/>
          <path d="M33.2 10C32.9 10.2 32.8 10.5 33 10.7 33.2 11 33.5 11 33.8 10.8 34 10.7 34.1 10.5 34.1 10.3 34.1 10.2 34.1 10.1 34 10 33.9 9.9 33.8 9.8 33.7 9.8 33.5 9.8 33.3 9.8 33.2 10M33.1 10.5C33.1 10.4 33.2 10.2 33.3 10.1 33.4 10.1 33.5 10 33.6 10 33.7 10 33.8 10.1 33.8 10.1 33.9 10.2 33.9 10.3 33.8 10.3 33.8 10.4 33.8 10.5 33.7 10.6 33.5 10.7 33.3 10.7 33.2 10.6 33.1 10.6 33.1 10.5 33.1 10.5" id="Fill-109" class="a"/>
          <path d="M37 20.8C36.9 20.9 36.8 21.1 36.8 21.3L36.8 21.3C36.8 21.5 36.9 21.7 37 21.9 37.1 22 37.2 22 37.3 22 37.5 22 37.6 22 37.7 21.9 37.8 21.7 37.9 21.6 37.9 21.3 37.9 21.2 37.9 21 37.8 20.9 37.7 20.7 37.5 20.7 37.4 20.6 37.2 20.6 37.1 20.7 37 20.8L37 20.8ZM37.3 21.8L37.3 21.8C37.2 21.8 37.2 21.7 37.1 21.7 37.1 21.6 37 21.5 37 21.3 37 21.2 37.1 21 37.2 21 37.2 20.9 37.3 20.9 37.4 20.9 37.5 20.9 37.7 21.1 37.7 21.3 37.7 21.5 37.6 21.6 37.5 21.7 37.5 21.7 37.4 21.8 37.3 21.8L37.3 21.8Z" id="Fill-111" class="a"/>
          <path d="M32.7 13.7C32.5 13.8 32.4 13.9 32.4 14 32.2 14.3 32.4 14.6 32.7 14.8 32.9 14.9 33.1 14.9 33.3 14.8 33.5 14.8 33.6 14.7 33.6 14.6 33.7 14.5 33.7 14.3 33.6 14.2 33.6 14 33.4 13.9 33.2 13.8 33.1 13.7 32.8 13.7 32.7 13.7M32.8 14.6C32.6 14.5 32.5 14.2 32.6 14.1 32.6 14 32.7 13.9 32.7 13.9 32.9 13.9 33 13.9 33.1 14 33.3 14 33.4 14.1 33.4 14.2 33.4 14.3 33.5 14.4 33.4 14.5 33.4 14.6 33.3 14.6 33.2 14.6 33.1 14.6 33 14.6 32.8 14.6" id="Fill-113" class="a"/>
          <path d="M42 12.8C42.3 13.6 42.8 13.9 43.3 13.7 42.3 13.6 43.1 11.9 41.8 11.9 41.7 11.9 41.7 11.9 41.6 11.9 41.4 11.7 41.2 11.6 40.8 11.6 40.3 11.6 39.4 12.1 39.4 13.2 39.4 15.4 42 15.6 42 17.6 42 18.2 41.6 18.6 41.1 18.6 40.6 18.6 40.3 18.1 39.9 17.3 39.7 16.9 39.3 16.4 38.9 15.9 39 16 39.2 16 39.3 16 39.4 16.1 39.6 16 39.7 15.9 39.8 15.8 39.8 15.7 39.8 15.6L39.8 15.5C39.8 15.4 39.7 15.2 39.6 15 39.5 14.9 39.3 14.8 39.1 14.8 38.9 14.8 38.8 14.8 38.7 14.9 38.6 15 38.6 15.1 38.6 15.3L38.6 15.3C38.6 15.4 38.6 15.4 38.6 15.5 38 14.8 37.5 14.1 37.5 13.7 37.5 13.3 37.8 13 38.1 12.6 38.1 12.6 38.2 12.7 38.2 12.7L38.2 12.6C38.3 12.5 38.6 12.2 39 11.8L39 11.7 39.2 11.6 38.9 11.4C38.9 11.2 39 11 39.1 10.8 39.2 11.2 39.3 11.4 39.6 11.4 39.4 11 39.8 10.5 39.5 9.6 39.8 9.9 40.1 10.1 40.3 10 39.7 9.5 40.5 8.8 39.7 7.7 40 7.8 40.1 7.7 40.2 7.6 39.5 7.5 39.9 6.6 38.6 6.3 38.9 6.3 39.1 6.1 39.1 5.9 38.7 6.1 38.5 5.5 37.4 5.5 37.3 5.1 37 4.7 36.6 4.5 36.6 4.8 36.6 5.1 36.5 5.3L33 1.9C32.9 1.9 32.9 1.8 32.8 1.9 32.8 1.9 32.8 2 32.9 2L35.8 5.7C35.6 5.8 35.4 5.9 35.2 6 35 6 34.9 6.2 34.9 6.3 34.4 6.6 33.9 7 33.6 7.2 33.5 7.3 33.3 7.4 33.5 7.7 33.5 7.9 33.3 8.2 33.8 8 34.1 7.8 34.7 7.5 34.8 7.7 34.8 7.8 34.5 7.9 34.3 8 34.1 8.1 33.9 8.3 33.9 8.4 33.9 8.4 34.1 8.4 34.1 8.4 34.1 8.5 34.2 8.6 34.3 8.6 34.4 8.6 34.5 8.4 34.5 8.5 34.6 8.6 34.5 9 34.4 9.1 34.8 9 35 8.7 35 8.5 35 8.2 35.1 8.2 35.1 8.1 35.2 8.1 35.2 8.4 35.2 8.6 35.3 8.5 35.5 8.3 35.5 7.9 35.6 7.8 35.7 7.7 35.8 7.7 35.9 7.7 36.1 8.1 36.4 8.1 37 8.1 37.3 7.6 37.4 7.4 37.4 7.2 37.4 7 37.3 6.9 37.5 7 37.6 7.3 37.6 7.5 37.6 8.3 36.1 8.7 35.5 9.3 35.5 9.3 35.4 9.3 35.4 9.3L34.7 9.1 34.7 9.2C34.7 9.2 34.7 9.3 34.6 9.4 34.6 9.6 34.4 10.1 34.3 10.4L34.3 10.5 34.3 10.5C33.9 11.1 33.6 11.7 33.5 12.3 33.4 12.1 33.2 12 33 11.8 33 11.8 33.1 11.7 33.1 11.6 33.1 11.5 33 11.3 32.9 11.2 32.8 11.1 32.7 11 32.6 11 32.5 11 32.3 11 32.3 11.1 32.2 11.1 32.2 11.2 32.2 11.2 32.2 11.2 32.1 11.1 32.1 11.1 31.9 11 31.6 10.7 31.4 10.6 31.4 10.5 31.3 10.4 31.1 10.4 31.1 10.4 30.9 10.4 30.8 10.4 30.7 10.4 30.7 10.5 30.6 10.6 30.5 10.7 30.3 10.8 30.2 10.9 30.2 11 30.3 11.1 30.4 11.2 30.5 11.2 30.5 11.3 30.5 11.3 30.6 11.3 30.6 11.3 30.7 11.2 30.7 11.2 30.8 11.2 30.9 11.2 31 11.2 31.1 11.2 31.2 11.4 31.3 11.5 31.8 12.2 32.3 12.7 32.3 12.7 32.2 12.7 32.2 12.7 32 12.8 31.5 12.8 31.3 12.8 31.1 12.8 31.1 12.7 30.9 12.9 30.9 13 30.8 13.1 30.8 13.2 30.7 13.3 30.6 13.4 30.8 13.6 31 13.9 31.5 14.8 31.7 15.2 31.8 15.7 32 15.7 32.3 15.8 32.7 16 33.2 16.3 33.3 16.4L33.3 16.1C33.2 16 32.9 15.8 32.8 15.8 32.7 15.8 32.6 15.7 32.8 15.7 32.9 15.7 33.3 15.8 33.6 16 33.5 15.7 33.2 15.3 33 15.1 32.8 15.1 32.6 15.1 32.5 15.1 32.5 15.2 32.4 15.3 32.3 15.3 32.2 15.3 32.2 15.2 32.2 15.1 32.2 15 32.4 15 32.3 14.8 32.3 14.7 32.1 14.6 32 14.6 31.8 14.3 31.5 13.9 31.4 13.7 31.3 13.6 31.4 13.5 31.5 13.4 31.6 13.3 32 13.5 32.7 13.5 32.9 13.6 33.2 13.6 33.6 13.6 33.6 14.4 34 15.2 35.1 15.4 35.7 15.6 36.2 16 36.4 16.5 34.2 16.5 33.8 17.3 33.8 18.2 33.8 19.1 34.6 19.1 34.6 19.8 34.6 20.4 32.7 20.6 32.1 20.7 31.6 20.8 31.4 20.9 31.1 21.1 30.9 21.4 30.7 21.6 30.2 22 30.2 22 30.4 22 30.6 22L30.9 21.6C31 21.5 31.1 21.4 31.1 21.4 31.2 21.4 31.2 21.5 31.1 21.6L30.8 22.1C31.9 22.2 32 21.8 32 21.6 32 21.4 31.7 21.3 31.9 21.2 32.1 21.1 32.2 21.2 32.3 21.3 32.4 21.5 32.5 21.6 32.8 21.5 32.8 21.5 35.2 20.5 35.5 20.3 35.8 20.2 35.7 20.1 35.6 19.9 35.4 19.8 35.4 19.6 35.4 19.3 35.4 18.6 35.8 18.3 36.6 18.4 36.6 18.5 36.6 18.6 36.6 18.7 36.6 19.9 38.3 21 38.8 21 39 21 39.3 20.8 39.3 21.5 39.3 22 39.4 22.4 39.3 23 39.2 23.5 39.1 23.6 38.7 23.9 38.4 24.1 38 24.9 37.9 25.1 38 25.2 38.2 25.2 38.3 24.8 38.4 24.5 38.6 24.3 38.7 24.2 38.6 24.5 38.5 25 38.4 25.2 38.8 25.3 39.6 24.9 39.6 24.5 39.6 24.2 39.3 24.3 39.3 24.1 39.3 24 39.4 23.9 39.6 23.9 39.7 23.9 39.9 24 39.9 24.1 40.1 24 40.2 23.8 40.2 23.3 40.2 23.1 40.2 23 40.2 22.8 40.2 22.8 40.2 22.8 40.2 22.8 40.3 23 40.5 23 40.6 23.1 40.8 23.1 41 23 41.1 22.9 41.3 22.8 41.4 22.6 41.4 22.5 41.5 22.4 41.5 22.4 41.5 22.4 41.5 22.3 41.4 22.2 41.4 22.1 41.3 22 41.2 21.9 41 21.9 40.9 21.8 40.7 21.9 40.5 22 40.3 22.1 40.2 22.2 40.2 22.4 40.1 21.8 40.1 21.2 40.1 21 40.1 20.6 40.1 20.5 40 20.4 39.9 20.4 39.8 20.6 39.6 20.6 39.4 20.6 38.9 20.1 38.9 19.6 38.9 19.1 39.5 18.5 39.4 17.8 39.4 17.6 39.6 17.5 39.6 17.7 39.7 17.9 39.9 18.2 40.1 18.5 40 19.3 40.9 20.1 41.7 19.5 41.3 19.6 41.1 19.2 40.9 18.9 41 18.9 41 18.9 41.1 18.9 41.1 18.9 41.2 18.9 41.2 18.9 41.5 19.3 42.4 19.2 42.6 18.4 42.4 18.6 42.1 18.7 41.9 18.7 42.2 18.4 42.4 18 42.4 17.6 42.4 15.4 39.7 15.2 39.7 13.2 39.7 12.5 40.4 12 40.8 12 41 12 41.1 12.1 41.2 12.1 41.1 12.3 41 12.6 41 12.9 41.1 14.4 43.6 14.4 43.6 15.1 43.9 14 42 14.3 42 12.8L42 12.8ZM35.2 6.9C35.3 6.6 35.2 6.3 35.6 6.3 35.8 6.3 36 6.5 36.3 6.6 35.8 6.6 35.5 6.7 35.2 6.9L35.2 6.9ZM32.8 11.6C32.8 11.7 32.8 11.9 32.7 11.9 32.7 12 32.6 12 32.5 12 32.4 12 32.3 11.8 32.3 11.6L32.3 11.6C32.3 11.5 32.3 11.3 32.4 11.3 32.4 11.3 32.5 11.2 32.6 11.2 32.7 11.2 32.7 11.3 32.7 11.3 32.8 11.4 32.8 11.5 32.8 11.6L32.8 11.6ZM40.4 22.5C40.4 22.4 40.5 22.3 40.6 22.2 40.7 22.1 40.9 22.1 41 22.1 41.1 22.1 41.1 22.1 41.2 22.2L41.2 22.2C41.2 22.3 41.2 22.4 41.2 22.4 41.2 22.5 41.1 22.7 41 22.7 40.8 22.9 40.5 22.9 40.4 22.7 40.4 22.6 40.4 22.6 40.4 22.5L40.4 22.5ZM38.8 15.3C38.8 15.2 38.8 15.1 38.9 15.1 38.9 15 39 15 39.1 15 39.2 15 39.3 15.1 39.4 15.2 39.5 15.3 39.6 15.4 39.6 15.5 39.6 15.6 39.6 15.7 39.5 15.7L39.5 15.8C39.4 15.8 39.4 15.8 39.3 15.8 39.2 15.8 39 15.8 38.9 15.6 38.8 15.5 38.8 15.4 38.8 15.3L38.8 15.3ZM34.5 10.4C34.6 10 34.8 9.3 34.8 9.3L35.2 9.4C35.1 9.5 35 9.6 34.8 9.7 34.9 9.7 35.1 9.8 35.2 9.7L35 10.1C35 10 34.9 9.9 34.8 9.8 34.7 10.2 34.9 10.3 35 10.4 35.3 10.5 35.5 10.5 35.5 10.4 35.6 10.3 35.4 10.1 35.2 10.1 35.2 9.9 35.3 9.8 35.5 9.8 35.6 9.8 35.7 9.9 35.7 10.1 35.7 9.7 35.8 9.5 36.1 9.4 36.3 9.7 36.2 9.9 35.9 10.2 36.1 10.1 36.2 10.1 36.3 10.2 36.3 10.3 36.3 10.5 36.1 10.6 36.1 10.4 35.8 10.3 35.8 10.5 35.7 10.6 35.8 10.7 36 10.9 36.3 11 36.5 10.9 36.6 10.7 36.5 10.7 36.4 10.7 36.3 10.8L36.5 10.3C36.5 10.4 36.6 10.5 36.7 10.6 36.7 10.5 36.8 10.3 36.7 10.1L37.3 10.4C37.1 10.4 36.9 10.6 36.9 10.7 37 10.7 37.1 10.7 37.2 10.7L36.9 11.2C36.9 11 36.9 10.9 36.8 10.8 36.7 11 36.7 11.3 36.9 11.4 37.2 11.5 37.3 11.6 37.4 11.4 37.5 11.3 37.4 11.1 37.2 11.2 37.1 11 37.3 10.8 37.4 10.9 37.5 10.9 37.6 11 37.6 11.1 37.7 10.8 37.9 10.6 38.2 10.5 38.3 10.9 38.1 11.1 37.8 11.3 38 11.2 38.1 11.3 38.1 11.4 38.2 11.5 38.2 11.6 38 11.7 37.9 11.5 37.7 11.5 37.6 11.6 37.6 11.7 37.7 11.8 37.9 12 38 12.1 38.2 12.2 38.5 12 38.4 11.9 38.2 11.8 38.1 11.8L38.4 11.5C38.4 11.6 38.5 11.8 38.6 11.8 38.6 11.7 38.6 11.5 38.6 11.4L38.9 11.6C38.9 11.6 38.4 12.2 38.1 12.5L34.5 10.4ZM38 19.3C37.9 19.5 37.6 19.6 37.5 19.5 37.3 19.4 37.3 19.1 37.5 18.9 37.6 18.7 37.8 18.7 38 18.8 38.2 18.9 38.2 19.1 38 19.3L38 19.3ZM39.1 17.7C38.9 17.9 38.7 18 38.5 17.9 38.4 17.8 38.4 17.5 38.5 17.3 38.6 17.1 38.9 17 39.1 17.1 39.2 17.2 39.2 17.5 39.1 17.7L39.1 17.7Z" id="Fill-115" class="a"/>
          <path d="M12.1 49.2L15.3 49.2C16.6 49.2 20.1 48.8 20.1 43.6 20.1 40.2 18.8 38.1 15.3 38.1L12.1 38.1 12.1 49.2ZM10.2 36.5L15.1 36.5C19.5 36.5 22 38.7 22 43.3 22 48.1 19.9 50.8 15.1 50.8L10.2 50.8 10.2 36.5Z" id="Fill-117" class="a"/>
          <path d="M30.9 44.6C30.8 43 29.6 41.7 27.9 41.7 26.1 41.7 25 43 24.9 44.6L30.9 44.6ZM32.5 47.5C32.1 49.8 30.4 51 28.1 51 24.8 51 23.2 48.7 23.1 45.6 23.1 42.5 25.2 40.2 28 40.2 31.7 40.2 32.8 43.6 32.7 46.1L24.9 46.1C24.9 47.9 25.9 49.5 28.2 49.5 29.6 49.5 30.5 48.8 30.9 47.5L32.5 47.5Z" id="Fill-119" class="a"/>
          <path d="M39 41.7C36.7 41.7 35.8 43.7 35.8 45.6 35.8 47.6 36.7 49.5 39.1 49.5 41.4 49.5 42.2 47.5 42.2 45.5 42.2 43.6 41.2 41.7 39 41.7L39 41.7ZM34.1 40.4L35.8 40.4 35.8 41.8 35.9 41.8C36.5 40.7 37.8 40.2 39.2 40.2 42.4 40.2 44 42.7 44 45.6 44 48.5 42.4 51 39.3 51 38.2 51 36.7 50.6 35.9 49.4L35.8 49.4 35.8 54.7 34.1 54.7 34.1 40.4Z" id="Fill-121" class="a"/>
          <path d="M51.9 45.4C51.3 45.9 50 45.9 48.8 46.1 47.7 46.3 46.8 46.7 46.8 48 46.8 49.1 47.7 49.5 48.8 49.5 51 49.5 51.9 48.1 51.9 47.2L51.9 45.4ZM54.7 50.7C54.4 50.9 54 51 53.5 51 52.6 51 52 50.5 52 49.4 51.1 50.5 49.8 51 48.4 51 46.5 51 44.9 50.2 44.9 48.1 44.9 45.8 46.7 45.3 48.5 44.9 50.4 44.6 52 44.7 52 43.4 52 41.9 50.7 41.7 49.6 41.7 48.2 41.7 47.1 42.1 47.1 43.7L45.3 43.7C45.4 41.1 47.4 40.2 49.7 40.2 51.6 40.2 53.7 40.6 53.7 43L53.7 48.3C53.7 49.1 53.7 49.5 54.2 49.5 54.3 49.5 54.5 49.5 54.7 49.4L54.7 50.7Z" id="Fill-123" class="a"/>
          <path d="M55.9 40.4L57.5 40.4 57.5 42.6 57.5 42.6C58.4 41 59.5 40.1 61.4 40.2L61.4 42C58.6 42 57.6 43.6 57.6 46.2L57.6 50.8 55.9 50.8 55.9 40.4Z" id="Fill-125" class="a"/>
          <path d="M65.7 40.4L67.8 40.4 67.8 41.9 65.7 41.9 65.7 48.3C65.7 49.1 65.9 49.3 67 49.3L67.8 49.3 67.8 50.8 66.5 50.8C64.7 50.8 64 50.4 64 48.5L64 41.9 62.2 41.9 62.2 40.4 64 40.4 64 37.4 65.7 37.4 65.7 40.4Z" id="Fill-127" class="a"/>
          <path d="M69.2 40.4L70.8 40.4 70.8 42 70.9 42C71.6 40.8 72.8 40.2 74.2 40.2 75.5 40.2 76.7 40.7 77.1 42 77.8 40.9 79 40.2 80.4 40.2 82.4 40.2 83.8 41.1 83.8 43.2L83.8 50.8 82.1 50.8 82.1 44C82.1 42.7 81.8 41.7 80.1 41.7 78.4 41.7 77.4 42.7 77.4 44.3L77.4 50.8 75.7 50.8 75.7 44C75.7 42.7 75.2 41.7 73.7 41.7 71.7 41.7 70.9 43.6 70.9 44.3L70.9 50.8 69.2 50.8 69.2 40.4Z" id="Fill-129" class="a"/>
          <path d="M93.1 44.6C93.1 43 91.8 41.7 90.1 41.7 88.3 41.7 87.3 43 87.2 44.6L93.1 44.6ZM94.8 47.5C94.3 49.8 92.7 51 90.3 51 87 51 85.4 48.7 85.3 45.6 85.3 42.5 87.4 40.2 90.2 40.2 93.9 40.2 95 43.6 94.9 46.1L87.2 46.1C87.1 47.9 88.1 49.5 90.4 49.5 91.8 49.5 92.8 48.8 93.1 47.5L94.8 47.5Z" id="Fill-131" class="a"/>
          <path d="M96.4 40.4L98 40.4 98 42.1 98 42.1C98.7 40.8 99.9 40.2 101.4 40.2 104.1 40.2 105 41.8 105 44L105 50.8 103.3 50.8 103.3 43.8C103.3 42.5 102.5 41.7 101.1 41.7 99.1 41.7 98.1 43.1 98.1 44.9L98.1 50.8 96.4 50.8 96.4 40.4Z" id="Fill-133" class="a"/>
          <path d="M109.4 40.4L111.4 40.4 111.4 41.9 109.4 41.9 109.4 48.3C109.4 49.1 109.6 49.3 110.7 49.3L111.4 49.3 111.4 50.8 110.1 50.8C108.4 50.8 107.7 50.4 107.7 48.5L107.7 41.9 105.9 41.9 105.9 40.4 107.7 40.4 107.7 37.4 109.4 37.4 109.4 40.4Z" id="Fill-135" class="a"/>
          <path d="M10.6 62.9L8.8 62.9 8.8 61.4 10.6 61.4 10.6 59.9C10.6 58.2 11.6 57.3 13.5 57.3 13.8 57.3 14.3 57.4 14.6 57.5L14.6 58.9C14.3 58.8 13.9 58.8 13.6 58.8 12.8 58.8 12.3 59.1 12.3 60L12.3 61.4 14.3 61.4 14.3 62.9 12.3 62.9 12.3 71.7 10.6 71.7 10.6 62.9Z" id="Fill-137" class="a"/>
          <path d="M19.7 70.4C21.5 70.4 22.9 69.1 22.9 66.6 22.9 64 21.5 62.7 19.7 62.7 17.9 62.7 16.4 64 16.4 66.6 16.4 69.1 17.9 70.4 19.7 70.4M19.7 61.2C23 61.2 24.7 63.5 24.7 66.6 24.7 69.6 23 71.9 19.7 71.9 16.4 71.9 14.6 69.6 14.6 66.6 14.6 63.5 16.4 61.2 19.7 61.2" id="Fill-139" class="a"/>
          <path d="M26.1 61.4L27.7 61.4 27.7 63.6 27.8 63.6C28.6 61.9 29.8 61.1 31.6 61.2L31.6 63C28.8 63 27.8 64.5 27.8 67.1L27.8 71.7 26.1 71.7 26.1 61.4Z" id="Fill-141" class="a"/>
          <polygon id="Fill-143" points="38.4 57.5 48.3 57.5 48.3 59.1 40.3 59.1 40.3 63.6 47.8 63.6 47.8 65.2 40.3 65.2 40.3 70.1 48.4 70.1 48.4 71.7 38.4 71.7" class="a"/>
          <path d="M54.1 70.4C56.4 70.4 57.3 68.5 57.3 66.6 57.3 64.5 56.3 62.7 54 62.7 51.6 62.7 50.9 64.6 50.9 66.6 50.9 68.6 51.9 70.4 54.1 70.4L54.1 70.4ZM58.9 71.7L57.2 71.7 57.2 70.3 57.2 70.3C56.6 71.4 55.3 71.9 53.8 71.9 50.6 71.9 49.1 69.4 49.1 66.5 49.1 63.6 50.6 61.2 53.8 61.2 54.9 61.2 56.4 61.6 57.2 62.8L57.2 62.8 57.2 57.5 58.9 57.5 58.9 71.7Z" id="Fill-145" class="a"/>
          <path d="M69.6 71.7L68 71.7 68 70.1 68 70.1C67.2 71.3 66.1 71.9 64.6 71.9 61.8 71.9 61 70.4 61 68.2L61 61.4 62.7 61.4 62.7 68.4C62.7 69.6 63.5 70.5 64.8 70.5 66.9 70.5 67.9 69.1 67.9 67.2L67.9 61.4 69.6 61.4 69.6 71.7Z" id="Fill-147" class="a"/>
          <path d="M78.8 64.7C78.6 63.4 77.7 62.7 76.2 62.7 73.8 62.7 73 64.6 73 66.7 73 68.6 73.9 70.5 76 70.5 77.7 70.5 78.7 69.5 78.9 67.9L80.7 67.9C80.3 70.5 78.7 71.9 76.1 71.9 72.9 71.9 71.2 69.8 71.2 66.7 71.2 63.6 72.8 61.2 76.1 61.2 78.5 61.2 80.4 62.3 80.6 64.7L78.8 64.7Z" id="Fill-149" class="a"/>
          <path d="M88.6 66.4C87.9 66.9 86.7 66.9 85.5 67.1 84.4 67.3 83.4 67.7 83.4 68.9 83.4 70.1 84.4 70.5 85.4 70.5 87.7 70.5 88.6 69.1 88.6 68.1L88.6 66.4ZM91.4 71.7C91.1 71.8 90.7 71.9 90.2 71.9 89.3 71.9 88.7 71.5 88.7 70.4 87.8 71.5 86.5 71.9 85 71.9 83.2 71.9 81.6 71.1 81.6 69.1 81.6 66.7 83.4 66.2 85.1 65.9 87 65.5 88.6 65.6 88.6 64.4 88.6 62.9 87.4 62.7 86.3 62.7 84.9 62.7 83.8 63.1 83.7 64.6L82 64.6C82.1 62.1 84.1 61.2 86.4 61.2 88.3 61.2 90.3 61.6 90.3 64L90.3 69.3C90.3 70.1 90.3 70.5 90.9 70.5 91 70.5 91.2 70.4 91.4 70.4L91.4 71.7Z" id="Fill-151" class="a"/>
          <path d="M94.8 61.4L96.9 61.4 96.9 62.9 94.8 62.9 94.8 69.3C94.8 70.1 95 70.2 96.1 70.2L96.9 70.2 96.9 71.7 95.6 71.7C93.8 71.7 93.1 71.3 93.1 69.5L93.1 62.9 91.3 62.9 91.3 61.4 93.1 61.4 93.1 58.3 94.8 58.3 94.8 61.4Z" id="Fill-153" class="a"/>
          <mask id="mask-8" class="b">
            <use xlink:href="#path-7"/>
          </mask>
          <path d="M98.3 71.7L100 71.7 100 61.4 98.3 61.4 98.3 71.7ZM98.3 59.5L100 59.5 100 57.5 98.3 57.5 98.3 59.5Z" id="Fill-155" mask="url(#mask-8)" class="a"/>
          <path d="M106.6 70.4C108.4 70.4 109.8 69.1 109.8 66.6 109.8 64 108.4 62.7 106.6 62.7 104.8 62.7 103.4 64 103.4 66.6 103.4 69.1 104.8 70.4 106.6 70.4M106.6 61.2C109.9 61.2 111.7 63.5 111.7 66.6 111.7 69.6 109.9 71.9 106.6 71.9 103.3 71.9 101.6 69.6 101.6 66.6 101.6 63.5 103.3 61.2 106.6 61.2" id="Fill-157" mask="url(#mask-8)" class="a"/>
          <path d="M113.2 61.4L114.8 61.4 114.8 63 114.8 63C115.6 61.8 116.7 61.2 118.2 61.2 121 61.2 121.8 62.7 121.8 64.9L121.8 71.7 120.1 71.7 120.1 64.7C120.1 63.5 119.3 62.7 118 62.7 115.9 62.7 114.9 64 114.9 65.9L114.9 71.7 113.2 71.7 113.2 61.4Z" id="Fill-158" mask="url(#mask-8)" class="a"/>
        </g>
      </g>
    </g>
  </g>
</svg>
