<?xml version="1.0" encoding="UTF-8"?>
<svg width="93px" height="186px" viewBox="0 0 93 186" version="1.1" xmlns="http://www.w3.org/2000/svg" xmlns:xlink="http://www.w3.org/1999/xlink">
    <!-- Generator: Sketch 51.3 (57544) - http://www.bohemiancoding.com/sketch -->
    <title>polka-teal-bg</title>
    <desc>Created with Sketch.</desc>
    <defs></defs>
    <g id="polka-teal-bg" stroke="none" stroke-width="1" fill="none" fill-rule="evenodd">
        <path d="M63.0319834,16.6902826 C66.9284336,12.8720041 66.9284336,6.68198732 63.0319834,2.86370885 C59.1340345,-0.954569617 52.8187879,-0.954569617 48.9223377,2.86370885 C45.0258874,6.68198732 45.0258874,12.8720041 48.9223377,16.6902826 C52.8187879,20.5085611 59.1340345,20.5085611 63.0319834,16.6902826" id="Fill-64" fill="#97CBC7"></path>
        <path d="M17.0319834,62.6902826 C20.9284336,58.8720041 20.9284336,52.6819873 17.0319834,48.8637089 C13.1340345,45.0454304 6.8187879,45.0454304 2.92233767,48.8637089 C-0.974112558,52.6819873 -0.974112558,58.8720041 2.92233767,62.6902826 C6.8187879,66.5085611 13.1340345,66.5085611 17.0319834,62.6902826" id="Fill-64-Copy" fill="#97CBC7"></path>
        <path d="M63.0319834,109.690283 C66.9284336,105.872004 66.9284336,99.6819873 63.0319834,95.8637089 C59.1340345,92.0454304 52.8187879,92.0454304 48.9223377,95.8637089 C45.0258874,99.6819873 45.0258874,105.872004 48.9223377,109.690283 C52.8187879,113.508561 59.1340345,113.508561 63.0319834,109.690283" id="Fill-64" fill="#97CBC7"></path>
        <path d="M17.0319834,155.690283 C20.9284336,151.872004 20.9284336,145.681987 17.0319834,141.863709 C13.1340345,138.04543 6.8187879,138.04543 2.92233767,141.863709 C-0.974112558,145.681987 -0.974112558,151.872004 2.92233767,155.690283 C6.8187879,159.508561 13.1340345,159.508561 17.0319834,155.690283" id="Fill-64-Copy" fill="#97CBC7"></path>
    </g>
</svg>