<?xml version="1.0" standalone="no"?>
<!DOCTYPE svg PUBLIC "-//W3C//DTD SVG 20010904//EN"
 "http://www.w3.org/TR/2001/REC-SVG-20010904/DTD/svg10.dtd">
<svg version="1.0" xmlns="http://www.w3.org/2000/svg"
 width="700.000000pt" height="700.000000pt" viewBox="0 0 700.000000 700.000000"
 preserveAspectRatio="xMidYMid meet">
<metadata>
Created by potrace 1.11, written by Peter Selinger 2001-2013
</metadata>
<g transform="translate(0.000000,700.000000) scale(0.100000,-0.100000)"
fill="#000000" stroke="none">
<path d="M6295 6984 c-72 -26 -229 -159 -365 -310 -98 -109 -245 -278 -350
-404 -131 -157 -341 -393 -510 -574 -114 -122 -121 -130 -189 -206 -36 -41
-76 -84 -88 -97 -47 -49 -262 -303 -328 -388 -97 -124 -321 -430 -395 -538
-19 -29 -633 -842 -725 -962 -328 -425 -726 -1011 -927 -1365 -23 -41 -47 -83
-53 -92 -5 -10 -57 -101 -115 -203 -58 -103 -120 -204 -138 -225 -37 -44 -117
-87 -179 -96 -58 -8 -142 11 -195 45 -85 54 -81 46 -323 681 -42 113 -83 219
-90 235 -7 17 -43 107 -80 200 -37 94 -78 194 -91 223 -13 29 -24 56 -24 60 0
16 -77 124 -119 167 -70 72 -96 85 -251 120 -135 31 -208 46 -238 51 -20 3
-41 8 -46 11 -4 3 -46 7 -92 8 -152 5 -223 -49 -324 -249 -55 -107 -61 -123
-56 -165 3 -25 10 -89 15 -141 6 -52 13 -122 17 -155 3 -33 9 -62 14 -65 16
-10 209 -308 250 -385 35 -67 119 -258 276 -630 30 -70 37 -86 99 -225 188
-421 415 -772 588 -910 49 -38 244 -163 385 -245 10 -5 33 -20 52 -31 19 -12
115 -45 212 -73 l177 -52 68 27 c195 77 345 206 485 419 44 66 148 242 148
250 0 14 383 669 516 882 22 34 57 90 78 125 54 87 274 419 330 498 25 36 51
73 58 83 70 101 510 696 627 847 278 361 364 472 376 486 6 6 37 46 70 89 33
43 125 160 205 260 80 101 157 198 172 216 14 19 35 44 45 55 10 12 29 36 43
54 14 19 74 95 134 169 406 506 581 689 901 940 385 303 558 515 626 766 26
99 39 434 20 528 -25 118 -121 203 -295 262 -88 30 -120 34 -256 39 -74 3
-117 0 -145 -10z"/>
</g>
</svg>
