<?xml version="1.0" standalone="no"?>
<!DOCTYPE svg PUBLIC "-//W3C//DTD SVG 20010904//EN"
 "http://www.w3.org/TR/2001/REC-SVG-20010904/DTD/svg10.dtd">
<svg version="1.0" xmlns="http://www.w3.org/2000/svg"
 width="1768.000000pt" height="1768.000000pt" viewBox="0 0 1768.000000 1768.000000"
 preserveAspectRatio="xMidYMid meet">
<metadata>
Created by potrace 1.11, written by Peter Selinger 2001-2013
</metadata>
<g transform="translate(0.000000,1768.000000) scale(0.100000,-0.100000)"
fill="#000000" stroke="none">
<path d="M1202 12393 l-1201 -1208 0 -1867 -1 -1868 540 0 540 0 0 -1685 0
-1685 7098 0 7097 0 1202 1207 1202 1208 0 1868 1 1867 -3295 0 -3295 0 0
1685 0 1685 -4343 0 -4344 0 -1201 -1207z m9526 -655 l-3 -1503 -3977 -3
-3978 -2 0 1505 0 1505 3980 0 3980 0 -2 -1502z m6592 -3373 l0 -1495 -6730 0
-6730 0 0 1495 0 1495 6730 0 6730 0 0 -1495z"/>
<path d="M8770 11860 l0 -810 165 0 164 0 3 353 3 354 30 49 c96 154 313 148
386 -11 17 -36 19 -72 19 -392 l0 -353 165 0 165 0 0 393 c0 323 -3 403 -15
452 -23 88 -54 143 -112 201 -158 159 -427 161 -594 4 l-49 -46 0 308 0 308
-165 0 -165 0 0 -810z"/>
<path d="M3542 12458 l3 -153 233 -3 232 -2 0 -625 0 -625 185 0 185 0 0 625
0 625 230 0 230 0 0 155 0 155 -650 0 -651 0 3 -152z"/>
<path d="M5245 12210 c-143 -22 -251 -76 -350 -175 -114 -113 -165 -243 -165
-421 0 -178 56 -320 175 -440 124 -125 276 -181 470 -171 225 11 416 121 500
289 19 39 35 76 35 82 0 8 -46 18 -127 29 -169 23 -168 23 -183 -13 -19 -45
-87 -99 -149 -117 -110 -32 -228 -5 -298 69 -35 37 -72 111 -73 145 l0 23 433
2 432 3 3 92 c12 388 -307 662 -703 603z m181 -265 c27 -8 69 -31 93 -52 44
-38 91 -120 91 -160 l0 -23 -265 0 -265 0 0 23 c0 36 45 119 83 156 39 37 122
70 178 71 19 0 58 -7 85 -15z"/>
<path d="M6474 12205 c-99 -21 -172 -62 -250 -140 -117 -116 -174 -266 -174
-460 0 -353 222 -605 533 -605 129 0 242 47 333 139 l54 54 0 -71 0 -72 165 0
165 0 0 560 0 560 -165 0 -165 0 0 -70 c0 -38 -1 -70 -3 -70 -1 0 -27 24 -58
53 -71 66 -140 104 -226 122 -82 18 -129 18 -209 0z m323 -313 c56 -29 103
-80 132 -142 32 -69 36 -187 8 -267 -22 -62 -85 -136 -141 -165 -105 -53 -246
-27 -328 60 -129 138 -116 364 26 482 73 61 217 76 303 32z"/>
<path d="M7950 12210 c-229 -36 -411 -188 -481 -401 -34 -105 -35 -290 -1
-397 29 -93 110 -213 185 -273 296 -238 761 -158 920 158 41 81 58 153 36 153
-8 1 -75 9 -149 20 -74 10 -135 18 -136 17 0 -1 -14 -26 -30 -56 -36 -67 -94
-117 -158 -136 -138 -41 -261 16 -328 153 -30 61 -33 74 -33 162 0 82 4 103
26 151 32 68 87 125 146 151 61 27 160 26 218 -2 51 -25 120 -96 141 -146 17
-39 10 -39 156 -19 180 24 173 19 142 112 -52 155 -207 291 -387 339 -68 18
-198 25 -267 14z"/>
<path d="M13465 9414 c-45 -23 -66 -45 -86 -89 -43 -93 -5 -205 85 -252 16 -8
55 -15 86 -15 103 0 167 55 185 158 13 82 -32 171 -102 200 -43 19 -131 18
-168 -2z"/>
<path d="M5428 9390 c-198 -34 -388 -142 -503 -288 -66 -82 -100 -145 -134
-247 -53 -159 -61 -314 -26 -486 66 -319 310 -559 634 -624 114 -23 314 -16
421 15 252 73 453 263 516 488 9 34 15 65 12 68 -9 8 -330 54 -340 48 -4 -3
-8 -9 -8 -15 0 -25 -48 -106 -92 -154 -139 -152 -366 -188 -550 -88 -61 33
-148 124 -181 189 -111 219 -75 495 85 657 172 174 463 176 630 5 44 -45 88
-121 112 -191 4 -14 13 -17 33 -13 16 3 75 10 133 16 156 15 180 20 180 35 0
8 -11 49 -25 92 -78 246 -295 430 -577 487 -81 17 -239 19 -320 6z"/>
<path d="M12670 9185 c0 -7 -28 -202 -35 -242 l-6 -33 -85 0 -85 0 3 -127 3
-128 73 0 72 0 0 -250 c1 -137 5 -279 9 -315 25 -185 130 -306 295 -340 61
-12 156 -8 249 12 l47 10 0 134 0 135 -37 -7 c-100 -19 -162 -2 -200 55 -23
33 -23 40 -23 297 l0 263 123 3 122 3 3 128 3 127 -125 0 -125 0 -3 138 -3
137 -137 3 c-76 1 -138 0 -138 -3z"/>
<path d="M6900 8929 c-272 -71 -434 -286 -434 -579 0 -251 111 -441 314 -538
113 -53 174 -67 305 -66 131 1 208 19 317 76 139 72 252 220 288 377 18 77 15
233 -5 311 -56 215 -223 376 -442 424 -99 22 -249 20 -343 -5z m285 -285 c69
-24 137 -94 165 -169 18 -50 21 -75 18 -150 -6 -134 -52 -211 -156 -262 -80
-39 -184 -39 -258 0 -103 53 -158 151 -158 282 0 91 25 161 77 221 77 87 196
117 312 78z"/>
<path d="M8368 8931 c-74 -24 -120 -53 -163 -104 l-35 -41 0 62 0 62 -160 0
-160 0 0 -565 0 -565 163 2 162 3 5 365 c5 349 6 367 26 405 38 70 97 105 178
105 80 0 129 -30 169 -105 21 -38 22 -55 27 -405 l5 -365 163 -3 162 -2 0 329
c0 197 4 350 11 380 35 165 223 227 342 113 62 -59 62 -54 67 -452 l5 -365
165 0 165 0 0 395 c0 353 -2 401 -19 455 -60 201 -211 315 -416 315 -133 0
-251 -49 -330 -138 l-47 -53 -26 40 c-33 49 -76 82 -152 117 -79 37 -221 44
-307 15z"/>
<path d="M10401 8934 c-71 -19 -142 -59 -197 -109 l-44 -41 0 63 0 63 -160 0
-160 0 0 -815 0 -815 165 0 165 0 0 316 0 317 50 -47 c106 -100 261 -143 407
-114 112 22 186 61 263 138 118 118 170 256 170 455 0 245 -97 443 -264 540
-105 61 -273 82 -395 49z m195 -320 c53 -33 108 -106 124 -166 16 -59 14 -162
-6 -221 -25 -74 -100 -147 -178 -171 -104 -33 -210 -9 -291 65 -62 57 -88 124
-89 225 0 72 4 89 32 147 58 117 131 158 274 154 75 -3 92 -7 134 -33z"/>
<path d="M14480 8931 c-71 -23 -125 -57 -177 -114 l-43 -47 0 70 0 70 -165 0
-165 0 2 -562 3 -563 165 0 165 0 5 360 c6 397 4 387 72 452 44 42 96 63 158
63 87 0 145 -33 184 -105 20 -38 21 -56 26 -405 l5 -365 163 -3 162 -2 0 387
c0 307 -3 401 -15 451 -49 207 -205 333 -412 331 -46 0 -101 -7 -133 -18z"/>
<path d="M15557 8935 c-241 -66 -397 -299 -397 -593 0 -158 56 -305 156 -412
103 -109 225 -160 381 -160 128 0 228 38 320 123 l43 40 0 -95 c0 -112 -18
-181 -63 -240 -70 -91 -220 -126 -329 -76 -65 30 -128 92 -153 150 -10 24 -20
44 -21 46 -2 3 -224 -25 -263 -34 -21 -4 -22 -9 -17 -42 13 -73 72 -175 138
-238 76 -73 128 -104 233 -140 70 -24 95 -28 205 -28 90 0 143 5 190 18 153
42 287 145 348 268 62 127 62 122 62 785 l0 603 -165 0 -165 0 0 -61 0 -61
-52 47 c-61 55 -107 80 -185 100 -69 18 -200 18 -266 0z m329 -292 c68 -23
145 -101 170 -173 27 -78 25 -190 -5 -255 -61 -136 -213 -204 -357 -159 -83
25 -163 105 -188 188 -53 170 37 359 194 407 44 13 135 9 186 -8z"/>
<path d="M11242 8498 c4 -399 5 -415 26 -473 47 -126 128 -212 237 -254 156
-59 337 -20 457 100 27 27 51 49 53 49 3 0 5 -32 5 -70 l0 -71 158 3 157 3 3
563 2 562 -165 0 -165 0 0 -320 c0 -193 -4 -339 -11 -370 -14 -64 -61 -127
-119 -160 -98 -54 -227 -22 -280 72 l-25 43 -3 368 -3 367 -165 0 -165 0 3
-412z"/>
<path d="M13382 8348 l3 -563 163 -3 162 -2 0 565 0 565 -165 0 -165 0 2 -562z"/>
</g>
</svg>
