<?xml version="1.0" encoding="UTF-8"?>
<svg width="126px" height="55px" viewBox="0 0 126 55" version="1.1" xmlns="http://www.w3.org/2000/svg" xmlns:xlink="http://www.w3.org/1999/xlink">
    <!-- Generator: Sketch 51.3 (57544) - http://www.bohemiancoding.com/sketch -->
    <title>Group 34</title>
    <desc>Created with Sketch.</desc>
    <defs></defs>
    <g id="Wireframes" stroke="none" stroke-width="1" fill="none" fill-rule="evenodd">
        <g id="Log-in" transform="translate(-404.000000, -33.000000)" fill="#FFFFFF">
            <g id="Group-34" transform="translate(404.000000, 33.000000)">
                <g id="Group-12">
                    <path d="M27.5057661,19.1574462 C32.8179973,19.1219624 42.6706855,9.69212366 50.1252554,1.17599462 C49.8679973,0.960134409 49.6107392,0.747231183 49.3490457,0.537284946 C42.2951478,7.35758065 32.8283468,14.8668548 27.4761962,14.9008602 C21.8682661,14.9393011 12.8184005,7.68580645 5.75267473,0.557983871 C5.50280914,0.757580645 5.25885753,0.958655914 5.01490591,1.16268817 C12.1915188,9.86954301 21.6967608,19.1958871 27.5057661,19.1574462" id="Fill-4"></path>
                    <path d="M19.1141263,27.6645565 C19.0756855,22.3508468 9.64141129,12.5025941 1.12380376,5.05245968 C0.907943548,5.30823925 0.693561828,5.56697581 0.485094086,5.82866935 C7.30538978,12.8796102 14.820578,22.3419758 14.8590188,27.6956048 C14.8989382,33.3035349 7.64840054,42.3563575 0.523534946,49.4265188 C0.72313172,49.6749059 0.924206989,49.920336 1.12971774,50.1628091 C9.83361559,42.9832392 19.1555242,33.4735618 19.1141263,27.6645565" id="Fill-6"></path>
                    <path d="M35.9089382,27.475457 C35.9296371,32.7891667 45.3343414,42.6655108 53.8297715,50.1437366 C54.0471102,49.8864785 54.2600134,49.6292204 54.4699597,49.3690054 C47.6718414,42.2958871 40.1862231,32.8098656 40.1655242,27.4577151 C40.1403898,21.8483065 47.4190188,12.8206183 54.5675403,5.77115591 C54.3664651,5.52276882 54.1668683,5.27586022 53.962836,5.0333871 C45.2367608,12.1848656 35.8838038,21.6664516 35.9089382,27.475457" id="Fill-8"></path>
                    <path d="M27.6645565,35.9407258 C22.3493683,35.9747312 12.4966801,45.4045699 5.04063172,53.9177419 C5.29788978,54.1365591 5.55662634,54.3479839 5.81831989,54.5594086 C12.8736962,47.7405914 22.3390188,40.2313172 27.6926478,40.1973118 C33.3020565,40.1603495 42.3489651,47.4153226 49.4146909,54.5446237 C49.663078,54.3450269 49.9085081,54.1454301 50.1509812,53.9384409 C42.9758468,45.228629 33.4720833,35.9037634 27.6645565,35.9407258" id="Fill-10"></path>
                </g>
                <polygon id="Fill-13" points="61 42 61.8076473 42 61.8076473 49.1140625 64 49.1140625 64 50 61 50"></polygon>
                <polygon id="Fill-14" points="66 42 69.9526356 42 69.6440031 42.8859375 67.0557678 42.8859375 67.0557678 45.459375 69.6088617 45.459375 69.6088617 46.3578125 67.0557678 46.3578125 67.0557678 49.1140625 70 49.1140625 70 50 66 50"></polygon>
                <g id="Group-21" transform="translate(70.000000, 42.000000)">
                    <path d="M3.10238056,0.255285714 L3.80599722,0.255285714 L6.66938611,7.59242857 L5.60460833,7.59242857 L4.87796944,5.671 L2.02896944,5.671 L1.32535278,7.59242857 L0.285036111,7.59242857 L3.10238056,0.255285714 Z M4.57724167,4.861 L3.88513611,2.95242857 C3.67218056,2.331 3.55994722,1.99814286 3.47073611,1.731 L3.44771389,1.731 C3.37001389,1.99814286 3.24770833,2.341 3.02324167,2.96385714 L2.33113611,4.861 L4.57724167,4.861 Z" id="Fill-15"></path>
                    <path d="M7.99805611,0.277571429 L9.66428944,0.277571429 C10.4125117,0.277571429 10.9146839,0.410428571 11.2959894,0.631857143 C11.9550006,0.999 12.234145,1.63185714 12.234145,2.29757143 C12.234145,3.30757143 11.6758561,3.94042857 10.7592839,4.21757143 L10.7592839,4.24042857 C10.9837506,4.36185714 11.262895,4.76185714 11.6542728,5.41614286 L12.9622228,7.59185714 L11.7996006,7.59185714 L10.5923728,5.56042857 C10.2456006,4.95042857 9.96501722,4.61757143 9.75350056,4.56185714 L8.99088944,4.56185714 L8.99088944,7.59185714 L7.99805611,7.59185714 L7.99805611,0.277571429 Z M9.65133944,3.75185714 C10.0441561,3.75185714 10.3348117,3.67328571 10.602445,3.519 C10.9708006,3.319 11.2053394,2.93042857 11.2053394,2.39757143 C11.2053394,1.97614286 11.0499394,1.62042857 10.7362617,1.38757143 C10.5132339,1.22042857 10.188045,1.08757143 9.66428944,1.08757143 L8.99088944,1.08757143 L8.99088944,3.75185714 L9.65133944,3.75185714 Z" id="Fill-17"></path>
                    <path d="M14.3619739,0.277571429 L15.3231517,0.277571429 L18.6541794,4.58471429 C19.0916017,5.139 19.4038406,5.58328571 19.6498906,5.949 L19.6714739,5.949 C19.6498906,5.549 19.6498906,5.19471429 19.6498906,4.67328571 L19.6498906,0.277571429 L20.6456017,0.277571429 L20.6456017,7.59185714 L19.7721961,7.59185714 L16.3174239,3.119 C15.9030239,2.58614286 15.6008572,2.16471429 15.3461739,1.79757143 L15.3231517,1.79757143 C15.3461739,2.14185714 15.3548072,2.49757143 15.3548072,3.019 L15.3548072,7.59185714 L14.3619739,7.59185714 L14.3619739,0.277571429 Z" id="Fill-19"></path>
                </g>
                <polygon id="Fill-22" points="94 50 95 50 95 42 94 42"></polygon>
                <g id="Group-29" transform="translate(60.000000, 17.000000)">
                    <path d="M37.080236,25.1106198 L38.0559663,25.1106198 L41.4388876,29.513737 C41.8814719,30.0803737 42.1984382,30.5345592 42.4496742,30.9084226 L42.4715843,30.9084226 C42.4496742,30.4995095 42.4496742,30.1373294 42.4496742,29.6042821 L42.4496742,25.1106198 L43.459,25.1106198 L43.459,32.5878869 L42.5752921,32.5878869 L39.0667528,28.0153628 C38.6460787,27.4706322 38.3393371,27.0398131 38.0807978,26.6644894 L38.0559663,26.6644894 C38.0807978,27.0164467 38.0895618,27.3800872 38.0895618,27.9131345 L38.0895618,32.5878869 L37.080236,32.5878869 L37.080236,25.1106198 Z" id="Fill-23"></path>
                    <path d="M51.5301011,32.1231864 C50.9735843,32.4065047 50.0314494,32.7015063 48.9987528,32.7015063 C46.693809,32.7015063 45.2316742,31.1476367 45.2316742,28.9687144 C45.2316742,26.6758805 46.8092022,25.0416887 49.1813371,25.0416887 C50.0416742,25.0416887 50.7807753,25.2461453 51.2569551,25.4389186 L51.2569551,26.380879 C50.7121236,26.1092439 50.0416742,25.9047873 49.2383034,25.9047873 C47.3540337,25.9047873 46.2979663,27.1300661 46.2979663,28.8781693 C46.2979663,30.6934512 47.3759438,31.8398681 49.101,31.8398681 C49.679427,31.8398681 50.2023483,31.7259566 50.5295393,31.5667726 L50.5295393,29.0256701 L51.5301011,29.0256701 L51.5301011,32.1231864 Z" id="Fill-25"></path>
                    <path d="M1.52202247,15.6864885 C2.65696629,16.4721857 4.11179775,17.0840949 5.86168539,17.0840949 C7.4611236,17.0840949 9.06348315,16.4721857 9.06348315,14.8131671 C9.06348315,11.0570087 0.763932584,11.5228775 0.763932584,5.67103975 C0.763932584,2.84661894 3.00752809,0.371234627 6.99662921,0.371234627 C8.97730337,0.371234627 10.6351685,0.807895342 11.6853933,1.33218028 L11.6853933,4.53484565 C10.1721348,3.74914845 8.62674157,3.31102733 7.11202247,3.31102733 C5.77258427,3.31102733 4.49157303,3.83531227 4.49157303,5.37895901 C4.49157303,8.9029132 12.7925843,8.43704441 12.7925843,14.5210863 C12.7925843,17.9282082 9.88,20.0268084 5.94640449,20.0268084 C3.70573034,20.0268084 1.60966292,19.3842307 0.153370787,18.3648689 L1.52202247,15.6864885 Z" id="Fill-27"></path>
                </g>
                <polygon id="Fill-30" points="79.5381944 19.8256336 74 19.8256336 74 17 89 17 88.104456 19.8256336 83.0002894 19.8256336 83.0002894 36 79.5381944 36"></polygon>
                <polygon id="Fill-31" points="92 17 101.972516 17 101.095781 19.8256336 95.2898172 19.8256336 95.2898172 24.8999163 101.069672 24.8999163 101.069672 27.7255499 95.2898172 27.7255499 95.2898172 33.1743664 102 33.1743664 102 36 92 36"></polygon>
                <path d="M107,17 L110.132549,17 L115.104552,24.1783241 C115.766237,25.158764 116.254932,25.8803562 116.687405,26.6294239 L116.745068,26.6294239 C117.145827,25.9092777 117.634522,25.0719994 118.294765,24.064084 L122.835736,17 L126,17 L126,36 L122.521472,36 L122.521472,25.2744501 C122.521472,24.4964609 122.521472,23.516021 122.579135,22.7655073 L122.521472,22.7655073 C122.261988,23.3135703 121.571472,24.3807748 121.226935,24.8999163 L117.490364,30.7232666 L115.911836,30.7232666 L111.773065,24.7538625 C111.367982,24.1783241 110.851897,23.516021 110.477086,22.7958749 L110.419423,22.7958749 C110.449697,23.5434965 110.449697,24.5253824 110.449697,25.1876855 L110.449697,36 L107,36 L107,17 Z" id="Fill-32"></path>
            </g>
        </g>
    </g>
</svg>