<?xml version="1.0" encoding="UTF-8"?>
<svg width="312px" height="6px" viewBox="0 0 312 6" version="1.1" xmlns="http://www.w3.org/2000/svg" xmlns:xlink="http://www.w3.org/1999/xlink">
    <!-- Generator: Sketch 51.3 (57544) - http://www.bohemiancoding.com/sketch -->
    <title>underline-pink</title>
    <desc>Created with Sketch.</desc>
    <defs></defs>
    <g id="underline-pink" stroke="none" stroke-width="1" fill="none" fill-rule="evenodd" stroke-linecap="round" stroke-linejoin="round">
        <g id="Group-2" transform="translate(2.000000, 2.000000)" stroke="#EF65CC" stroke-width="3">
            <path d="M0,1.65614147 L5.50758308,0.343667357 C7.43072635,-0.114513303 10.2054216,-0.114513303 12.1285649,0.343667357 L17.636588,1.65626892 C19.5597313,2.11457703 22.3339865,2.11457703 24.2571298,1.65626892 L29.7651529,0.343667357 C31.6878561,-0.114513303 34.4625514,-0.114513303 36.3856947,0.343667357 L41.8937178,1.65626892 C43.8173012,2.11457703 46.5915564,2.11457703 48.5146996,1.65626892 L54.0222827,0.343667357 C55.945426,-0.114513303 58.7196812,-0.114513303 60.6432645,0.343667357 L66.1517278,1.65626892 C68.074871,2.11457703 70.8486861,2.11457703 72.7718294,1.65626892 L78.2798526,0.343667357 C80.2029958,-0.114513303 82.9776911,-0.114513303 84.9008344,0.343667357 L90.4088575,1.65626892 C92.3320008,2.11457703 95.1058159,2.11457703 97.0293993,1.65626892 L102.537863,0.343667357 C104.461006,-0.114513303 107.235261,-0.114513303 109.158404,0.343667357 L114.666427,1.65626892 C116.589571,2.11457703 119.364266,2.11457703 121.287409,1.65626892 L126.795432,0.343667357 C128.718136,-0.114513303 131.492391,-0.114513303 133.415534,0.343667357 L138.924877,1.65626892 C140.848021,2.11457703 143.622276,2.11457703 145.545419,1.65626892 L151.053442,0.343667357 C152.976586,-0.114513303 155.750841,-0.114513303 157.673984,0.343667357 L163.182447,1.65626892 C165.105591,2.11457703 167.879846,2.11457703 169.802989,1.65626892 L175.311012,0.343667357 C177.234596,-0.114513303 180.008411,-0.114513303 181.931554,0.343667357 L187.440457,1.65626892 C189.3636,2.11457703 192.137856,2.11457703 194.060999,1.65626892 L199.569902,0.343539908 C201.493486,-0.114513303 204.266861,-0.114513303 206.190004,0.343539908 L211.698907,1.65626892 C213.62205,2.11457703 216.396746,2.11444958 218.319889,1.65614147 L223.826152,0.343794806 C225.749295,-0.114513303 228.52311,-0.114513303 230.447134,0.343667357 L235.954717,1.65626892 C237.8783,2.11457703 240.652555,2.11457703 242.575699,1.65614147 L248.082402,0.343794806 C250.005545,-0.114513303 252.7798,-0.114513303 254.703383,0.343794806 L260.210526,1.65614147" id="Page-1-Copy-10" transform="translate(130.105263, 1.000000) scale(1, -1) translate(-130.105263, -1.000000) "></path>
            <path d="M241.914474,1.65610961 L247.422057,0.343635495 C249.3452,-0.114545165 252.119895,-0.114545165 254.043039,0.343635495 L259.551062,1.65623706 C261.474205,2.11454516 264.24846,2.11454516 266.171603,1.65623706 L271.679627,0.343635495 C273.60233,-0.114545165 276.377025,-0.114545165 278.300168,0.343635495 L283.808192,1.65623706 C285.731775,2.11454516 288.50603,2.11454516 290.429173,1.65623706 L295.936756,0.343635495 C297.8599,-0.114545165 300.634155,-0.114545165 302.557738,0.343635495 L308.066201,1.65623706" id="Page-1-Copy-11" transform="translate(274.990338, 0.999984) scale(1, -1) translate(-274.990338, -0.999984) "></path>
        </g>
    </g>
</svg>