<svg id="Layer_1" data-name="Layer 1" xmlns="http://www.w3.org/2000/svg" xmlns:xlink="http://www.w3.org/1999/xlink" viewBox="0 0 595.28 841.89"><defs><style>.cls-1{fill:none;}.cls-2{fill:#483e9a;}.cls-3{fill:#b71f8c;}.cls-4,.cls-6,.cls-7{fill:#1b182d;}.cls-5{clip-path:url(#clip-path);}.cls-6{font-size:24px;}.cls-6,.cls-7{font-family:Roboto-Light, Roboto;}.cls-7{font-size:10px;}.cls-8{letter-spacing:-0.1em;}</style><clipPath id="clip-path"><rect class="cls-1" x="26.22" y="156.34" width="111.9" height="111.9"/></clipPath></defs><title>Artboard 1</title><path class="cls-2" d="M52.09,931a135,135,0,1,0-135-135,135,135,0,0,0,135,135"/><path class="cls-3" d="M470.39,261.19a25.05,25.05,0,1,0-25.05-25.05,25.05,25.05,0,0,0,25.05,25.05"/><path class="cls-2" d="M532.42,385.88a44.83,44.83,0,1,0-44.83-44.83,44.83,44.83,0,0,0,44.83,44.83"/><path class="cls-3" d="M460.37,815.92a53.1,53.1,0,1,0-53.1-53.1,53.1,53.1,0,0,0,53.1,53.1"/><path class="cls-3" d="M53.2,203.7c146.5,0,265.26-119,265.26-265.8S199.69-327.9,53.2-327.9s-265.26,119-265.26,265.8S-93.3,203.7,53.2,203.7"/><path class="cls-3" d="M190.91,722a1.21,1.21,0,1,1,1.21-1.21,1.21,1.21,0,0,1-1.21,1.21"/><path class="cls-3" d="M181.95,722a1.21,1.21,0,1,1,1.21-1.21,1.21,1.21,0,0,1-1.21,1.21"/><path class="cls-3" d="M173,722a1.21,1.21,0,1,1,1.21-1.21A1.21,1.21,0,0,1,173,722"/><path class="cls-3" d="M164,722a1.21,1.21,0,1,1,1.21-1.21A1.21,1.21,0,0,1,164,722"/><path class="cls-3" d="M155.06,722a1.21,1.21,0,1,1,1.21-1.21,1.21,1.21,0,0,1-1.21,1.21"/><path class="cls-3" d="M146.1,722a1.21,1.21,0,1,1,1.21-1.21A1.21,1.21,0,0,1,146.1,722"/><path class="cls-3" d="M137.13,722a1.21,1.21,0,1,1,1.21-1.21,1.21,1.21,0,0,1-1.21,1.21"/><path class="cls-3" d="M208.84,734.09a1.21,1.21,0,1,1,1.21-1.21,1.21,1.21,0,0,1-1.21,1.21"/><path class="cls-3" d="M199.87,734.09a1.21,1.21,0,1,1,1.21-1.21,1.21,1.21,0,0,1-1.21,1.21"/><path class="cls-3" d="M190.91,734.09a1.21,1.21,0,1,1,1.21-1.21,1.21,1.21,0,0,1-1.21,1.21"/><path class="cls-3" d="M181.95,734.09a1.21,1.21,0,1,1,1.21-1.21,1.21,1.21,0,0,1-1.21,1.21"/><path class="cls-3" d="M173,734.09a1.21,1.21,0,1,1,1.21-1.21,1.21,1.21,0,0,1-1.21,1.21"/><path class="cls-3" d="M164,734.09a1.21,1.21,0,1,1,1.21-1.21,1.21,1.21,0,0,1-1.21,1.21"/><path class="cls-3" d="M155.06,734.09a1.21,1.21,0,1,1,1.21-1.21,1.21,1.21,0,0,1-1.21,1.21"/><path class="cls-3" d="M146.1,734.09a1.21,1.21,0,1,1,1.21-1.21,1.21,1.21,0,0,1-1.21,1.21"/><path class="cls-3" d="M137.13,734.09a1.21,1.21,0,1,1,1.21-1.21,1.21,1.21,0,0,1-1.21,1.21"/><path class="cls-3" d="M226.76,746.14a1.21,1.21,0,1,1,1.21-1.21,1.21,1.21,0,0,1-1.21,1.21"/><path class="cls-3" d="M217.8,746.14a1.21,1.21,0,1,1,1.21-1.21,1.21,1.21,0,0,1-1.21,1.21"/><path class="cls-3" d="M208.84,746.14a1.21,1.21,0,1,1,1.21-1.21,1.21,1.21,0,0,1-1.21,1.21"/><path class="cls-3" d="M199.87,746.14a1.21,1.21,0,1,1,1.21-1.21,1.21,1.21,0,0,1-1.21,1.21"/><path class="cls-3" d="M190.91,746.14a1.21,1.21,0,1,1,1.21-1.21,1.21,1.21,0,0,1-1.21,1.21"/><path class="cls-3" d="M181.95,746.14a1.21,1.21,0,1,1,1.21-1.21,1.21,1.21,0,0,1-1.21,1.21"/><path class="cls-3" d="M173,746.14a1.21,1.21,0,1,1,1.21-1.21,1.21,1.21,0,0,1-1.21,1.21"/><path class="cls-3" d="M164,746.14a1.21,1.21,0,1,1,1.21-1.21,1.21,1.21,0,0,1-1.21,1.21"/><path class="cls-3" d="M155.06,746.14a1.21,1.21,0,1,1,1.21-1.21,1.21,1.21,0,0,1-1.21,1.21"/><path class="cls-3" d="M146.1,746.14a1.21,1.21,0,1,1,1.21-1.21,1.21,1.21,0,0,1-1.21,1.21"/><path class="cls-3" d="M137.13,746.14a1.21,1.21,0,1,1,1.21-1.21,1.21,1.21,0,0,1-1.21,1.21"/><path class="cls-3" d="M235.73,758.2a1.21,1.21,0,1,1,1.21-1.21,1.21,1.21,0,0,1-1.21,1.21"/><path class="cls-3" d="M226.76,758.2A1.21,1.21,0,1,1,228,757a1.21,1.21,0,0,1-1.21,1.21"/><path class="cls-3" d="M217.8,758.2A1.21,1.21,0,1,1,219,757a1.21,1.21,0,0,1-1.21,1.21"/><path class="cls-3" d="M208.84,758.2A1.21,1.21,0,1,1,210,757a1.21,1.21,0,0,1-1.21,1.21"/><path class="cls-3" d="M199.87,758.2a1.21,1.21,0,1,1,1.21-1.21,1.21,1.21,0,0,1-1.21,1.21"/><path class="cls-3" d="M190.91,758.2a1.21,1.21,0,1,1,1.21-1.21,1.21,1.21,0,0,1-1.21,1.21"/><path class="cls-3" d="M181.95,758.2a1.21,1.21,0,1,1,1.21-1.21,1.21,1.21,0,0,1-1.21,1.21"/><path class="cls-3" d="M173,758.2a1.21,1.21,0,1,1,1.21-1.21A1.21,1.21,0,0,1,173,758.2"/><path class="cls-3" d="M164,758.2a1.21,1.21,0,1,1,1.21-1.21A1.21,1.21,0,0,1,164,758.2"/><path class="cls-3" d="M155.06,758.2a1.21,1.21,0,1,1,1.21-1.21,1.21,1.21,0,0,1-1.21,1.21"/><path class="cls-3" d="M146.1,758.2a1.21,1.21,0,1,1,1.21-1.21,1.21,1.21,0,0,1-1.21,1.21"/><path class="cls-3" d="M137.13,758.2a1.21,1.21,0,1,1,1.21-1.21,1.21,1.21,0,0,1-1.21,1.21"/><path class="cls-3" d="M244.69,770.25A1.21,1.21,0,1,1,245.9,769a1.21,1.21,0,0,1-1.21,1.21"/><path class="cls-3" d="M235.73,770.25a1.21,1.21,0,1,1,1.21-1.21,1.21,1.21,0,0,1-1.21,1.21"/><path class="cls-3" d="M226.76,770.25A1.21,1.21,0,1,1,228,769a1.21,1.21,0,0,1-1.21,1.21"/><path class="cls-3" d="M217.8,770.25A1.21,1.21,0,1,1,219,769a1.21,1.21,0,0,1-1.21,1.21"/><path class="cls-3" d="M208.84,770.25A1.21,1.21,0,1,1,210,769a1.21,1.21,0,0,1-1.21,1.21"/><path class="cls-3" d="M199.87,770.25a1.21,1.21,0,1,1,1.21-1.21,1.21,1.21,0,0,1-1.21,1.21"/><path class="cls-3" d="M190.91,770.25a1.21,1.21,0,1,1,1.21-1.21,1.21,1.21,0,0,1-1.21,1.21"/><path class="cls-3" d="M181.95,770.25a1.21,1.21,0,1,1,1.21-1.21,1.21,1.21,0,0,1-1.21,1.21"/><path class="cls-3" d="M173,770.25a1.21,1.21,0,1,1,1.21-1.21,1.21,1.21,0,0,1-1.21,1.21"/><path class="cls-3" d="M164,770.25a1.21,1.21,0,1,1,1.21-1.21,1.21,1.21,0,0,1-1.21,1.21"/><path class="cls-3" d="M155.06,770.25a1.21,1.21,0,1,1,1.21-1.21,1.21,1.21,0,0,1-1.21,1.21"/><path class="cls-3" d="M146.1,770.25a1.21,1.21,0,1,1,1.21-1.21,1.21,1.21,0,0,1-1.21,1.21"/><path class="cls-3" d="M137.13,770.25a1.21,1.21,0,1,1,1.21-1.21,1.21,1.21,0,0,1-1.21,1.21"/><path class="cls-3" d="M253.65,782.31a1.21,1.21,0,1,1,1.21-1.21,1.21,1.21,0,0,1-1.21,1.21"/><path class="cls-3" d="M244.69,782.31a1.21,1.21,0,1,1,1.21-1.21,1.21,1.21,0,0,1-1.21,1.21"/><path class="cls-3" d="M235.73,782.31a1.21,1.21,0,1,1,1.21-1.21,1.21,1.21,0,0,1-1.21,1.21"/><path class="cls-3" d="M226.76,782.31A1.21,1.21,0,1,1,228,781.1a1.21,1.21,0,0,1-1.21,1.21"/><path class="cls-3" d="M217.8,782.31A1.21,1.21,0,1,1,219,781.1a1.21,1.21,0,0,1-1.21,1.21"/><path class="cls-3" d="M208.84,782.31A1.21,1.21,0,1,1,210,781.1a1.21,1.21,0,0,1-1.21,1.21"/><path class="cls-3" d="M199.87,782.31a1.21,1.21,0,1,1,1.21-1.21,1.21,1.21,0,0,1-1.21,1.21"/><path class="cls-3" d="M190.91,782.31a1.21,1.21,0,1,1,1.21-1.21,1.21,1.21,0,0,1-1.21,1.21"/><path class="cls-3" d="M181.95,782.31a1.21,1.21,0,1,1,1.21-1.21,1.21,1.21,0,0,1-1.21,1.21"/><path class="cls-3" d="M173,782.31a1.21,1.21,0,1,1,1.21-1.21,1.21,1.21,0,0,1-1.21,1.21"/><path class="cls-3" d="M164,782.31a1.21,1.21,0,1,1,1.21-1.21,1.21,1.21,0,0,1-1.21,1.21"/><path class="cls-3" d="M155.06,782.31a1.21,1.21,0,1,1,1.21-1.21,1.21,1.21,0,0,1-1.21,1.21"/><path class="cls-3" d="M146.1,782.31a1.21,1.21,0,1,1,1.21-1.21,1.21,1.21,0,0,1-1.21,1.21"/><path class="cls-3" d="M137.13,782.31a1.21,1.21,0,1,1,1.21-1.21,1.21,1.21,0,0,1-1.21,1.21"/><path class="cls-3" d="M253.65,794.36a1.21,1.21,0,1,1,1.21-1.21,1.21,1.21,0,0,1-1.21,1.21"/><path class="cls-3" d="M244.69,794.36a1.21,1.21,0,1,1,1.21-1.21,1.21,1.21,0,0,1-1.21,1.21"/><path class="cls-3" d="M235.73,794.36a1.21,1.21,0,1,1,1.21-1.21,1.21,1.21,0,0,1-1.21,1.21"/><path class="cls-3" d="M226.76,794.36a1.21,1.21,0,1,1,1.21-1.21,1.21,1.21,0,0,1-1.21,1.21"/><path class="cls-3" d="M217.8,794.36a1.21,1.21,0,1,1,1.21-1.21,1.21,1.21,0,0,1-1.21,1.21"/><path class="cls-3" d="M208.84,794.36a1.21,1.21,0,1,1,1.21-1.21,1.21,1.21,0,0,1-1.21,1.21"/><path class="cls-3" d="M199.87,794.36a1.21,1.21,0,1,1,1.21-1.21,1.21,1.21,0,0,1-1.21,1.21"/><path class="cls-3" d="M190.91,794.36a1.21,1.21,0,1,1,1.21-1.21,1.21,1.21,0,0,1-1.21,1.21"/><path class="cls-3" d="M181.95,794.36a1.21,1.21,0,1,1,1.21-1.21,1.21,1.21,0,0,1-1.21,1.21"/><path class="cls-3" d="M173,794.36a1.21,1.21,0,1,1,1.21-1.21,1.21,1.21,0,0,1-1.21,1.21"/><path class="cls-3" d="M164,794.36a1.21,1.21,0,1,1,1.21-1.21,1.21,1.21,0,0,1-1.21,1.21"/><path class="cls-3" d="M155.06,794.36a1.21,1.21,0,1,1,1.21-1.21,1.21,1.21,0,0,1-1.21,1.21"/><path class="cls-3" d="M146.1,794.36a1.21,1.21,0,1,1,1.21-1.21,1.21,1.21,0,0,1-1.21,1.21"/><path class="cls-3" d="M137.13,794.36a1.21,1.21,0,1,1,1.21-1.21,1.21,1.21,0,0,1-1.21,1.21"/><path class="cls-3" d="M262.61,818.47a1.21,1.21,0,1,1,1.21-1.21,1.21,1.21,0,0,1-1.21,1.21"/><path class="cls-3" d="M253.65,818.47a1.21,1.21,0,1,1,1.21-1.21,1.21,1.21,0,0,1-1.21,1.21"/><path class="cls-3" d="M244.69,818.47a1.21,1.21,0,1,1,1.21-1.21,1.21,1.21,0,0,1-1.21,1.21"/><path class="cls-3" d="M235.73,818.47a1.21,1.21,0,1,1,1.21-1.21,1.21,1.21,0,0,1-1.21,1.21"/><path class="cls-3" d="M226.76,818.47a1.21,1.21,0,1,1,1.21-1.21,1.21,1.21,0,0,1-1.21,1.21"/><path class="cls-3" d="M217.8,818.47a1.21,1.21,0,1,1,1.21-1.21,1.21,1.21,0,0,1-1.21,1.21"/><path class="cls-3" d="M208.84,818.47a1.21,1.21,0,1,1,1.21-1.21,1.21,1.21,0,0,1-1.21,1.21"/><path class="cls-3" d="M199.87,818.47a1.21,1.21,0,1,1,1.21-1.21,1.21,1.21,0,0,1-1.21,1.21"/><path class="cls-3" d="M190.91,818.47a1.21,1.21,0,1,1,1.21-1.21,1.21,1.21,0,0,1-1.21,1.21"/><path class="cls-3" d="M181.95,818.47a1.21,1.21,0,1,1,1.21-1.21,1.21,1.21,0,0,1-1.21,1.21"/><path class="cls-3" d="M173,818.47a1.21,1.21,0,1,1,1.21-1.21,1.21,1.21,0,0,1-1.21,1.21"/><path class="cls-3" d="M164,818.47a1.21,1.21,0,1,1,1.21-1.21,1.21,1.21,0,0,1-1.21,1.21"/><path class="cls-3" d="M155.06,818.47a1.21,1.21,0,1,1,1.21-1.21,1.21,1.21,0,0,1-1.21,1.21"/><path class="cls-3" d="M146.1,818.47a1.21,1.21,0,1,1,1.21-1.21,1.21,1.21,0,0,1-1.21,1.21"/><path class="cls-3" d="M137.13,818.47a1.21,1.21,0,1,1,1.21-1.21,1.21,1.21,0,0,1-1.21,1.21"/><path class="cls-3" d="M262.61,806.42a1.21,1.21,0,1,1,1.21-1.21,1.21,1.21,0,0,1-1.21,1.21"/><path class="cls-3" d="M253.65,806.42a1.21,1.21,0,1,1,1.21-1.21,1.21,1.21,0,0,1-1.21,1.21"/><path class="cls-3" d="M244.69,806.42a1.21,1.21,0,1,1,1.21-1.21,1.21,1.21,0,0,1-1.21,1.21"/><path class="cls-3" d="M235.73,806.42a1.21,1.21,0,1,1,1.21-1.21,1.21,1.21,0,0,1-1.21,1.21"/><path class="cls-3" d="M226.76,806.42a1.21,1.21,0,1,1,1.21-1.21,1.21,1.21,0,0,1-1.21,1.21"/><path class="cls-3" d="M217.8,806.42a1.21,1.21,0,1,1,1.21-1.21,1.21,1.21,0,0,1-1.21,1.21"/><path class="cls-3" d="M208.84,806.42a1.21,1.21,0,1,1,1.21-1.21,1.21,1.21,0,0,1-1.21,1.21"/><path class="cls-3" d="M199.87,806.42a1.21,1.21,0,1,1,1.21-1.21,1.21,1.21,0,0,1-1.21,1.21"/><path class="cls-3" d="M190.91,806.42a1.21,1.21,0,1,1,1.21-1.21,1.21,1.21,0,0,1-1.21,1.21"/><path class="cls-3" d="M181.95,806.42a1.21,1.21,0,1,1,1.21-1.21,1.21,1.21,0,0,1-1.21,1.21"/><path class="cls-3" d="M173,806.42a1.21,1.21,0,1,1,1.21-1.21,1.21,1.21,0,0,1-1.21,1.21"/><path class="cls-3" d="M164,806.42a1.21,1.21,0,1,1,1.21-1.21,1.21,1.21,0,0,1-1.21,1.21"/><path class="cls-3" d="M155.06,806.42a1.21,1.21,0,1,1,1.21-1.21,1.21,1.21,0,0,1-1.21,1.21"/><path class="cls-3" d="M146.1,806.42a1.21,1.21,0,1,1,1.21-1.21,1.21,1.21,0,0,1-1.21,1.21"/><path class="cls-3" d="M137.13,806.42a1.21,1.21,0,1,1,1.21-1.21,1.21,1.21,0,0,1-1.21,1.21"/><path class="cls-3" d="M262.61,830.53a1.21,1.21,0,1,1,1.21-1.21,1.21,1.21,0,0,1-1.21,1.21"/><path class="cls-3" d="M253.65,830.53a1.21,1.21,0,1,1,1.21-1.21,1.21,1.21,0,0,1-1.21,1.21"/><path class="cls-3" d="M244.69,830.53a1.21,1.21,0,1,1,1.21-1.21,1.21,1.21,0,0,1-1.21,1.21"/><path class="cls-3" d="M235.73,830.53a1.21,1.21,0,1,1,1.21-1.21,1.21,1.21,0,0,1-1.21,1.21"/><path class="cls-3" d="M226.76,830.53a1.21,1.21,0,1,1,1.21-1.21,1.21,1.21,0,0,1-1.21,1.21"/><path class="cls-3" d="M217.8,830.53a1.21,1.21,0,1,1,1.21-1.21,1.21,1.21,0,0,1-1.21,1.21"/><path class="cls-3" d="M208.84,830.53a1.21,1.21,0,1,1,1.21-1.21,1.21,1.21,0,0,1-1.21,1.21"/><path class="cls-3" d="M199.87,830.53a1.21,1.21,0,1,1,1.21-1.21,1.21,1.21,0,0,1-1.21,1.21"/><path class="cls-3" d="M190.91,830.53a1.21,1.21,0,1,1,1.21-1.21,1.21,1.21,0,0,1-1.21,1.21"/><path class="cls-3" d="M181.95,830.53a1.21,1.21,0,1,1,1.21-1.21,1.21,1.21,0,0,1-1.21,1.21"/><path class="cls-3" d="M173,830.53a1.21,1.21,0,1,1,1.21-1.21,1.21,1.21,0,0,1-1.21,1.21"/><path class="cls-3" d="M164,830.53a1.21,1.21,0,1,1,1.21-1.21,1.21,1.21,0,0,1-1.21,1.21"/><path class="cls-3" d="M155.06,830.53a1.21,1.21,0,1,1,1.21-1.21,1.21,1.21,0,0,1-1.21,1.21"/><path class="cls-3" d="M146.1,830.53a1.21,1.21,0,1,1,1.21-1.21,1.21,1.21,0,0,1-1.21,1.21"/><path class="cls-3" d="M137.13,830.53a1.21,1.21,0,1,1,1.21-1.21,1.21,1.21,0,0,1-1.21,1.21"/><path class="cls-3" d="M262.61,842.58a1.21,1.21,0,1,1,1.21-1.21,1.21,1.21,0,0,1-1.21,1.21"/><path class="cls-3" d="M253.65,842.58a1.21,1.21,0,1,1,1.21-1.21,1.21,1.21,0,0,1-1.21,1.21"/><path class="cls-3" d="M244.69,842.58a1.21,1.21,0,1,1,1.21-1.21,1.21,1.21,0,0,1-1.21,1.21"/><path class="cls-3" d="M235.73,842.58a1.21,1.21,0,1,1,1.21-1.21,1.21,1.21,0,0,1-1.21,1.21"/><path class="cls-3" d="M226.76,842.58a1.21,1.21,0,1,1,1.21-1.21,1.21,1.21,0,0,1-1.21,1.21"/><path class="cls-3" d="M217.8,842.58a1.21,1.21,0,1,1,1.21-1.21,1.21,1.21,0,0,1-1.21,1.21"/><path class="cls-3" d="M208.84,842.58a1.21,1.21,0,1,1,1.21-1.21,1.21,1.21,0,0,1-1.21,1.21"/><path class="cls-3" d="M199.87,842.58a1.21,1.21,0,1,1,1.21-1.21,1.21,1.21,0,0,1-1.21,1.21"/><path class="cls-3" d="M190.91,842.58a1.21,1.21,0,1,1,1.21-1.21,1.21,1.21,0,0,1-1.21,1.21"/><path class="cls-3" d="M181.95,842.58a1.21,1.21,0,1,1,1.21-1.21,1.21,1.21,0,0,1-1.21,1.21"/><path class="cls-3" d="M173,842.58a1.21,1.21,0,1,1,1.21-1.21,1.21,1.21,0,0,1-1.21,1.21"/><path class="cls-3" d="M164,842.58a1.21,1.21,0,1,1,1.21-1.21,1.21,1.21,0,0,1-1.21,1.21"/><path class="cls-3" d="M155.06,842.58a1.21,1.21,0,1,1,1.21-1.21,1.21,1.21,0,0,1-1.21,1.21"/><path class="cls-3" d="M146.1,842.58a1.21,1.21,0,1,1,1.21-1.21,1.21,1.21,0,0,1-1.21,1.21"/><path class="cls-3" d="M137.13,842.58a1.21,1.21,0,1,1,1.21-1.21,1.21,1.21,0,0,1-1.21,1.21"/><path class="cls-3" d="M128.17,722a1.21,1.21,0,1,1,1.21-1.21,1.21,1.21,0,0,1-1.21,1.21"/><path class="cls-3" d="M119.21,722a1.21,1.21,0,1,1,1.21-1.21,1.21,1.21,0,0,1-1.21,1.21"/><path class="cls-3" d="M128.17,734.09a1.21,1.21,0,1,1,1.21-1.21,1.21,1.21,0,0,1-1.21,1.21"/><path class="cls-3" d="M119.21,734.09a1.21,1.21,0,1,1,1.21-1.21,1.21,1.21,0,0,1-1.21,1.21"/><path class="cls-3" d="M110.25,734.09a1.21,1.21,0,1,1,1.21-1.21,1.21,1.21,0,0,1-1.21,1.21"/><path class="cls-3" d="M101.28,734.09a1.21,1.21,0,1,1,1.21-1.21,1.21,1.21,0,0,1-1.21,1.21"/><path class="cls-3" d="M128.17,746.14a1.21,1.21,0,1,1,1.21-1.21,1.21,1.21,0,0,1-1.21,1.21"/><path class="cls-3" d="M119.21,746.14a1.21,1.21,0,1,1,1.21-1.21,1.21,1.21,0,0,1-1.21,1.21"/><path class="cls-3" d="M110.25,746.14a1.21,1.21,0,1,1,1.21-1.21,1.21,1.21,0,0,1-1.21,1.21"/><path class="cls-3" d="M101.28,746.14a1.21,1.21,0,1,1,1.21-1.21,1.21,1.21,0,0,1-1.21,1.21"/><path class="cls-3" d="M92.32,746.14a1.21,1.21,0,1,1,1.21-1.21,1.21,1.21,0,0,1-1.21,1.21"/><path class="cls-3" d="M83.36,746.14a1.21,1.21,0,1,1,1.21-1.21,1.21,1.21,0,0,1-1.21,1.21"/><path class="cls-3" d="M128.17,758.2a1.21,1.21,0,1,1,1.21-1.21,1.21,1.21,0,0,1-1.21,1.21"/><path class="cls-3" d="M119.21,758.2a1.21,1.21,0,1,1,1.21-1.21,1.21,1.21,0,0,1-1.21,1.21"/><path class="cls-3" d="M110.25,758.2a1.21,1.21,0,1,1,1.21-1.21,1.21,1.21,0,0,1-1.21,1.21"/><path class="cls-3" d="M101.28,758.2a1.21,1.21,0,1,1,1.21-1.21,1.21,1.21,0,0,1-1.21,1.21"/><path class="cls-3" d="M92.32,758.2A1.21,1.21,0,1,1,93.53,757a1.21,1.21,0,0,1-1.21,1.21"/><path class="cls-3" d="M83.36,758.2A1.21,1.21,0,1,1,84.57,757a1.21,1.21,0,0,1-1.21,1.21"/><path class="cls-3" d="M74.4,758.2A1.21,1.21,0,1,1,75.6,757a1.21,1.21,0,0,1-1.21,1.21"/><path class="cls-3" d="M128.17,770.25a1.21,1.21,0,1,1,1.21-1.21,1.21,1.21,0,0,1-1.21,1.21"/><path class="cls-3" d="M119.21,770.25a1.21,1.21,0,1,1,1.21-1.21,1.21,1.21,0,0,1-1.21,1.21"/><path class="cls-3" d="M110.25,770.25a1.21,1.21,0,1,1,1.21-1.21,1.21,1.21,0,0,1-1.21,1.21"/><path class="cls-3" d="M101.28,770.25a1.21,1.21,0,1,1,1.21-1.21,1.21,1.21,0,0,1-1.21,1.21"/><path class="cls-3" d="M92.32,770.25A1.21,1.21,0,1,1,93.53,769a1.21,1.21,0,0,1-1.21,1.21"/><path class="cls-3" d="M83.36,770.25A1.21,1.21,0,1,1,84.57,769a1.21,1.21,0,0,1-1.21,1.21"/><path class="cls-3" d="M74.4,770.25A1.21,1.21,0,1,1,75.6,769a1.21,1.21,0,0,1-1.21,1.21"/><path class="cls-3" d="M65.43,770.25A1.21,1.21,0,1,1,66.64,769a1.21,1.21,0,0,1-1.21,1.21"/><path class="cls-3" d="M128.17,782.31a1.21,1.21,0,1,1,1.21-1.21,1.21,1.21,0,0,1-1.21,1.21"/><path class="cls-3" d="M119.21,782.31a1.21,1.21,0,1,1,1.21-1.21,1.21,1.21,0,0,1-1.21,1.21"/><path class="cls-3" d="M110.25,782.31a1.21,1.21,0,1,1,1.21-1.21,1.21,1.21,0,0,1-1.21,1.21"/><path class="cls-3" d="M101.28,782.31a1.21,1.21,0,1,1,1.21-1.21,1.21,1.21,0,0,1-1.21,1.21"/><path class="cls-3" d="M92.32,782.31a1.21,1.21,0,1,1,1.21-1.21,1.21,1.21,0,0,1-1.21,1.21"/><path class="cls-3" d="M83.36,782.31a1.21,1.21,0,1,1,1.21-1.21,1.21,1.21,0,0,1-1.21,1.21"/><path class="cls-3" d="M74.4,782.31a1.21,1.21,0,1,1,1.21-1.21,1.21,1.21,0,0,1-1.21,1.21"/><path class="cls-3" d="M65.43,782.31a1.21,1.21,0,1,1,1.21-1.21,1.21,1.21,0,0,1-1.21,1.21"/><path class="cls-3" d="M56.47,782.31a1.21,1.21,0,1,1,1.21-1.21,1.21,1.21,0,0,1-1.21,1.21"/><path class="cls-3" d="M128.17,794.36a1.21,1.21,0,1,1,1.21-1.21,1.21,1.21,0,0,1-1.21,1.21"/><path class="cls-3" d="M119.21,794.36a1.21,1.21,0,1,1,1.21-1.21,1.21,1.21,0,0,1-1.21,1.21"/><path class="cls-3" d="M110.25,794.36a1.21,1.21,0,1,1,1.21-1.21,1.21,1.21,0,0,1-1.21,1.21"/><path class="cls-3" d="M101.28,794.36a1.21,1.21,0,1,1,1.21-1.21,1.21,1.21,0,0,1-1.21,1.21"/><path class="cls-3" d="M92.32,794.36a1.21,1.21,0,1,1,1.21-1.21,1.21,1.21,0,0,1-1.21,1.21"/><path class="cls-3" d="M83.36,794.36a1.21,1.21,0,1,1,1.21-1.21,1.21,1.21,0,0,1-1.21,1.21"/><path class="cls-3" d="M74.4,794.36a1.21,1.21,0,1,1,1.21-1.21,1.21,1.21,0,0,1-1.21,1.21"/><path class="cls-3" d="M65.43,794.36a1.21,1.21,0,1,1,1.21-1.21,1.21,1.21,0,0,1-1.21,1.21"/><path class="cls-3" d="M56.47,794.36a1.21,1.21,0,1,1,1.21-1.21,1.21,1.21,0,0,1-1.21,1.21"/><path class="cls-3" d="M119.21,818.47a1.21,1.21,0,1,1,1.21-1.21,1.21,1.21,0,0,1-1.21,1.21"/><path class="cls-3" d="M110.25,818.47a1.21,1.21,0,1,1,1.21-1.21,1.21,1.21,0,0,1-1.21,1.21"/><path class="cls-3" d="M101.28,818.47a1.21,1.21,0,1,1,1.21-1.21,1.21,1.21,0,0,1-1.21,1.21"/><path class="cls-3" d="M92.32,818.47a1.21,1.21,0,1,1,1.21-1.21,1.21,1.21,0,0,1-1.21,1.21"/><path class="cls-3" d="M83.36,818.47a1.21,1.21,0,1,1,1.21-1.21,1.21,1.21,0,0,1-1.21,1.21"/><path class="cls-3" d="M74.4,818.47a1.21,1.21,0,1,1,1.21-1.21,1.21,1.21,0,0,1-1.21,1.21"/><path class="cls-3" d="M65.43,818.47a1.21,1.21,0,1,1,1.21-1.21,1.21,1.21,0,0,1-1.21,1.21"/><path class="cls-3" d="M56.47,818.47a1.21,1.21,0,1,1,1.21-1.21,1.21,1.21,0,0,1-1.21,1.21"/><path class="cls-3" d="M47.51,818.47a1.21,1.21,0,1,1,1.21-1.21,1.21,1.21,0,0,1-1.21,1.21"/><path class="cls-3" d="M128.17,806.42a1.21,1.21,0,1,1,1.21-1.21,1.21,1.21,0,0,1-1.21,1.21"/><path class="cls-3" d="M128.17,818.47a1.21,1.21,0,1,1,1.21-1.21,1.21,1.21,0,0,1-1.21,1.21"/><path class="cls-3" d="M119.21,806.42a1.21,1.21,0,1,1,1.21-1.21,1.21,1.21,0,0,1-1.21,1.21"/><path class="cls-3" d="M110.25,806.42a1.21,1.21,0,1,1,1.21-1.21,1.21,1.21,0,0,1-1.21,1.21"/><path class="cls-3" d="M101.28,806.42a1.21,1.21,0,1,1,1.21-1.21,1.21,1.21,0,0,1-1.21,1.21"/><path class="cls-3" d="M92.32,806.42a1.21,1.21,0,1,1,1.21-1.21,1.21,1.21,0,0,1-1.21,1.21"/><path class="cls-3" d="M83.36,806.42a1.21,1.21,0,1,1,1.21-1.21,1.21,1.21,0,0,1-1.21,1.21"/><path class="cls-3" d="M74.4,806.42a1.21,1.21,0,1,1,1.21-1.21,1.21,1.21,0,0,1-1.21,1.21"/><path class="cls-3" d="M65.43,806.42a1.21,1.21,0,1,1,1.21-1.21,1.21,1.21,0,0,1-1.21,1.21"/><path class="cls-3" d="M56.47,806.42a1.21,1.21,0,1,1,1.21-1.21,1.21,1.21,0,0,1-1.21,1.21"/><path class="cls-3" d="M47.51,806.42a1.21,1.21,0,1,1,1.21-1.21,1.21,1.21,0,0,1-1.21,1.21"/><path class="cls-3" d="M128.17,830.53a1.21,1.21,0,1,1,1.21-1.21,1.21,1.21,0,0,1-1.21,1.21"/><path class="cls-3" d="M119.21,830.53a1.21,1.21,0,1,1,1.21-1.21,1.21,1.21,0,0,1-1.21,1.21"/><path class="cls-3" d="M110.25,830.53a1.21,1.21,0,1,1,1.21-1.21,1.21,1.21,0,0,1-1.21,1.21"/><path class="cls-3" d="M101.28,830.53a1.21,1.21,0,1,1,1.21-1.21,1.21,1.21,0,0,1-1.21,1.21"/><path class="cls-3" d="M92.32,830.53a1.21,1.21,0,1,1,1.21-1.21,1.21,1.21,0,0,1-1.21,1.21"/><path class="cls-3" d="M83.36,830.53a1.21,1.21,0,1,1,1.21-1.21,1.21,1.21,0,0,1-1.21,1.21"/><path class="cls-3" d="M74.4,830.53a1.21,1.21,0,1,1,1.21-1.21,1.21,1.21,0,0,1-1.21,1.21"/><path class="cls-3" d="M65.43,830.53a1.21,1.21,0,1,1,1.21-1.21,1.21,1.21,0,0,1-1.21,1.21"/><path class="cls-3" d="M56.47,830.53a1.21,1.21,0,1,1,1.21-1.21,1.21,1.21,0,0,1-1.21,1.21"/><path class="cls-3" d="M47.51,830.53a1.21,1.21,0,1,1,1.21-1.21,1.21,1.21,0,0,1-1.21,1.21"/><path class="cls-3" d="M128.17,842.58a1.21,1.21,0,1,1,1.21-1.21,1.21,1.21,0,0,1-1.21,1.21"/><path class="cls-3" d="M119.21,842.58a1.21,1.21,0,1,1,1.21-1.21,1.21,1.21,0,0,1-1.21,1.21"/><path class="cls-3" d="M110.25,842.58a1.21,1.21,0,1,1,1.21-1.21,1.21,1.21,0,0,1-1.21,1.21"/><path class="cls-3" d="M101.28,842.58a1.21,1.21,0,1,1,1.21-1.21,1.21,1.21,0,0,1-1.21,1.21"/><path class="cls-3" d="M92.32,842.58a1.21,1.21,0,1,1,1.21-1.21,1.21,1.21,0,0,1-1.21,1.21"/><path class="cls-3" d="M83.36,842.58a1.21,1.21,0,1,1,1.21-1.21,1.21,1.21,0,0,1-1.21,1.21"/><path class="cls-3" d="M74.4,842.58a1.21,1.21,0,1,1,1.21-1.21,1.21,1.21,0,0,1-1.21,1.21"/><path class="cls-3" d="M65.43,842.58a1.21,1.21,0,1,1,1.21-1.21,1.21,1.21,0,0,1-1.21,1.21"/><path class="cls-3" d="M56.47,842.58a1.21,1.21,0,1,1,1.21-1.21,1.21,1.21,0,0,1-1.21,1.21"/><path class="cls-3" d="M47.51,842.58a1.21,1.21,0,1,1,1.21-1.21,1.21,1.21,0,0,1-1.21,1.21"/><path class="cls-3" d="M586.21,327.07a1.53,1.53,0,1,1,1.53-1.53,1.53,1.53,0,0,1-1.53,1.53"/><path class="cls-3" d="M574.83,327.07a1.53,1.53,0,1,1,1.53-1.53,1.53,1.53,0,0,1-1.53,1.53"/><path class="cls-3" d="M586.21,342.38a1.53,1.53,0,1,1,1.53-1.53,1.53,1.53,0,0,1-1.53,1.53"/><path class="cls-3" d="M574.83,342.38a1.53,1.53,0,1,1,1.53-1.53,1.53,1.53,0,0,1-1.53,1.53"/><path class="cls-3" d="M586.21,357.69a1.53,1.53,0,1,1,1.53-1.53,1.53,1.53,0,0,1-1.53,1.53"/><path class="cls-3" d="M574.83,357.69a1.53,1.53,0,1,1,1.53-1.53,1.53,1.53,0,0,1-1.53,1.53"/><path class="cls-3" d="M586.21,373a1.53,1.53,0,1,1,1.53-1.53,1.53,1.53,0,0,1-1.53,1.53"/><path class="cls-3" d="M574.83,373a1.53,1.53,0,1,1,1.53-1.53,1.53,1.53,0,0,1-1.53,1.53"/><path class="cls-3" d="M586.21,388.31a1.53,1.53,0,1,1,1.53-1.53,1.53,1.53,0,0,1-1.53,1.53"/><path class="cls-3" d="M574.83,388.31a1.53,1.53,0,1,1,1.53-1.53,1.53,1.53,0,0,1-1.53,1.53"/><path class="cls-3" d="M586.21,403.62a1.53,1.53,0,1,1,1.53-1.53,1.53,1.53,0,0,1-1.53,1.53"/><path class="cls-3" d="M574.83,403.62a1.53,1.53,0,1,1,1.53-1.53,1.53,1.53,0,0,1-1.53,1.53"/><path class="cls-3" d="M586.21,418.94a1.53,1.53,0,1,1,1.53-1.53,1.53,1.53,0,0,1-1.53,1.53"/><path class="cls-3" d="M574.83,418.94a1.53,1.53,0,1,1,1.53-1.53,1.53,1.53,0,0,1-1.53,1.53"/><path class="cls-3" d="M586.21,449.56a1.53,1.53,0,1,1,1.53-1.53,1.53,1.53,0,0,1-1.53,1.53"/><path class="cls-3" d="M574.83,449.56a1.53,1.53,0,1,1,1.53-1.53,1.53,1.53,0,0,1-1.53,1.53"/><path class="cls-3" d="M586.21,434.25a1.53,1.53,0,1,1,1.53-1.53,1.53,1.53,0,0,1-1.53,1.53"/><path class="cls-3" d="M574.83,434.25a1.53,1.53,0,1,1,1.53-1.53,1.53,1.53,0,0,1-1.53,1.53"/><path class="cls-3" d="M586.21,464.87a1.53,1.53,0,1,1,1.53-1.53,1.53,1.53,0,0,1-1.53,1.53"/><path class="cls-3" d="M574.83,464.87a1.53,1.53,0,1,1,1.53-1.53,1.53,1.53,0,0,1-1.53,1.53"/><path class="cls-3" d="M586.21,480.18a1.53,1.53,0,1,1,1.53-1.53,1.53,1.53,0,0,1-1.53,1.53"/><path class="cls-3" d="M574.83,480.18a1.53,1.53,0,1,1,1.53-1.53,1.53,1.53,0,0,1-1.53,1.53"/><path class="cls-3" d="M586.21,495.49a1.53,1.53,0,1,1,1.53-1.53,1.53,1.53,0,0,1-1.53,1.53"/><path class="cls-3" d="M574.83,495.49a1.53,1.53,0,1,1,1.53-1.53,1.53,1.53,0,0,1-1.53,1.53"/><path class="cls-3" d="M586.21,510.8a1.53,1.53,0,1,1,1.53-1.53,1.53,1.53,0,0,1-1.53,1.53"/><path class="cls-3" d="M574.83,510.8a1.53,1.53,0,1,1,1.53-1.53,1.53,1.53,0,0,1-1.53,1.53"/><path class="cls-3" d="M586.21,526.11a1.53,1.53,0,1,1,1.53-1.53,1.53,1.53,0,0,1-1.53,1.53"/><path class="cls-3" d="M574.83,526.11a1.53,1.53,0,1,1,1.53-1.53,1.53,1.53,0,0,1-1.53,1.53"/><path class="cls-3" d="M586.21,541.43a1.53,1.53,0,1,1,1.53-1.53,1.53,1.53,0,0,1-1.53,1.53"/><path class="cls-3" d="M574.83,541.43a1.53,1.53,0,1,1,1.53-1.53,1.53,1.53,0,0,1-1.53,1.53"/><path class="cls-3" d="M586.21,556.74a1.53,1.53,0,1,1,1.53-1.53,1.53,1.53,0,0,1-1.53,1.53"/><path class="cls-3" d="M574.83,556.74a1.53,1.53,0,1,1,1.53-1.53,1.53,1.53,0,0,1-1.53,1.53"/><path class="cls-3" d="M586.21,587.36a1.53,1.53,0,1,1,1.53-1.53,1.53,1.53,0,0,1-1.53,1.53"/><path class="cls-3" d="M574.83,587.36a1.53,1.53,0,1,1,1.53-1.53,1.53,1.53,0,0,1-1.53,1.53"/><path class="cls-3" d="M563.44,327.07a1.53,1.53,0,1,1,1.53-1.53,1.53,1.53,0,0,1-1.53,1.53"/><path class="cls-3" d="M552.06,327.07a1.53,1.53,0,1,1,1.53-1.53,1.53,1.53,0,0,1-1.53,1.53"/><path class="cls-3" d="M563.44,342.38a1.53,1.53,0,1,1,1.53-1.53,1.53,1.53,0,0,1-1.53,1.53"/><path class="cls-3" d="M552.06,342.38a1.53,1.53,0,1,1,1.53-1.53,1.53,1.53,0,0,1-1.53,1.53"/><path class="cls-3" d="M540.67,342.38a1.53,1.53,0,1,1,1.53-1.53,1.53,1.53,0,0,1-1.53,1.53"/><path class="cls-3" d="M529.29,342.38a1.53,1.53,0,1,1,1.53-1.53,1.53,1.53,0,0,1-1.53,1.53"/><path class="cls-3" d="M563.44,357.69a1.53,1.53,0,1,1,1.53-1.53,1.53,1.53,0,0,1-1.53,1.53"/><path class="cls-3" d="M552.06,357.69a1.53,1.53,0,1,1,1.53-1.53,1.53,1.53,0,0,1-1.53,1.53"/><path class="cls-3" d="M540.67,357.69a1.53,1.53,0,1,1,1.53-1.53,1.53,1.53,0,0,1-1.53,1.53"/><path class="cls-3" d="M529.29,357.69a1.53,1.53,0,1,1,1.53-1.53,1.53,1.53,0,0,1-1.53,1.53"/><path class="cls-3" d="M517.91,357.69a1.53,1.53,0,1,1,1.53-1.53,1.53,1.53,0,0,1-1.53,1.53"/><path class="cls-3" d="M506.53,357.69a1.53,1.53,0,1,1,1.53-1.53,1.53,1.53,0,0,1-1.53,1.53"/><path class="cls-3" d="M563.44,373a1.53,1.53,0,1,1,1.53-1.53,1.53,1.53,0,0,1-1.53,1.53"/><path class="cls-3" d="M552.06,373a1.53,1.53,0,1,1,1.53-1.53,1.53,1.53,0,0,1-1.53,1.53"/><path class="cls-3" d="M540.67,373a1.53,1.53,0,1,1,1.53-1.53,1.53,1.53,0,0,1-1.53,1.53"/><path class="cls-3" d="M529.29,373a1.53,1.53,0,1,1,1.53-1.53,1.53,1.53,0,0,1-1.53,1.53"/><path class="cls-3" d="M517.91,373a1.53,1.53,0,1,1,1.53-1.53,1.53,1.53,0,0,1-1.53,1.53"/><path class="cls-3" d="M506.53,373a1.53,1.53,0,1,1,1.53-1.53,1.53,1.53,0,0,1-1.53,1.53"/><path class="cls-3" d="M495.14,373a1.53,1.53,0,1,1,1.53-1.53,1.53,1.53,0,0,1-1.53,1.53"/><path class="cls-3" d="M563.44,388.31a1.53,1.53,0,1,1,1.53-1.53,1.53,1.53,0,0,1-1.53,1.53"/><path class="cls-3" d="M552.06,388.31a1.53,1.53,0,1,1,1.53-1.53,1.53,1.53,0,0,1-1.53,1.53"/><path class="cls-3" d="M540.67,388.31a1.53,1.53,0,1,1,1.53-1.53,1.53,1.53,0,0,1-1.53,1.53"/><path class="cls-3" d="M529.29,388.31a1.53,1.53,0,1,1,1.53-1.53,1.53,1.53,0,0,1-1.53,1.53"/><path class="cls-3" d="M517.91,388.31a1.53,1.53,0,1,1,1.53-1.53,1.53,1.53,0,0,1-1.53,1.53"/><path class="cls-3" d="M506.53,388.31a1.53,1.53,0,1,1,1.53-1.53,1.53,1.53,0,0,1-1.53,1.53"/><path class="cls-3" d="M495.14,388.31a1.53,1.53,0,1,1,1.53-1.53,1.53,1.53,0,0,1-1.53,1.53"/><path class="cls-3" d="M483.76,388.31a1.53,1.53,0,1,1,1.53-1.53,1.53,1.53,0,0,1-1.53,1.53"/><path class="cls-3" d="M563.44,403.62a1.53,1.53,0,1,1,1.53-1.53,1.53,1.53,0,0,1-1.53,1.53"/><path class="cls-3" d="M552.06,403.62a1.53,1.53,0,1,1,1.53-1.53,1.53,1.53,0,0,1-1.53,1.53"/><path class="cls-3" d="M540.67,403.62a1.53,1.53,0,1,1,1.53-1.53,1.53,1.53,0,0,1-1.53,1.53"/><path class="cls-3" d="M529.29,403.62a1.53,1.53,0,1,1,1.53-1.53,1.53,1.53,0,0,1-1.53,1.53"/><path class="cls-3" d="M517.91,403.62a1.53,1.53,0,1,1,1.53-1.53,1.53,1.53,0,0,1-1.53,1.53"/><path class="cls-3" d="M506.53,403.62a1.53,1.53,0,1,1,1.53-1.53,1.53,1.53,0,0,1-1.53,1.53"/><path class="cls-3" d="M495.14,403.62a1.53,1.53,0,1,1,1.53-1.53,1.53,1.53,0,0,1-1.53,1.53"/><path class="cls-3" d="M483.76,403.62a1.53,1.53,0,1,1,1.53-1.53,1.53,1.53,0,0,1-1.53,1.53"/><path class="cls-3" d="M472.38,403.62a1.53,1.53,0,1,1,1.53-1.53,1.53,1.53,0,0,1-1.53,1.53"/><path class="cls-3" d="M563.44,418.94A1.53,1.53,0,1,1,565,417.4a1.53,1.53,0,0,1-1.53,1.53"/><path class="cls-3" d="M552.06,418.94a1.53,1.53,0,1,1,1.53-1.53,1.53,1.53,0,0,1-1.53,1.53"/><path class="cls-3" d="M540.67,418.94a1.53,1.53,0,1,1,1.53-1.53,1.53,1.53,0,0,1-1.53,1.53"/><path class="cls-3" d="M529.29,418.94a1.53,1.53,0,1,1,1.53-1.53,1.53,1.53,0,0,1-1.53,1.53"/><path class="cls-3" d="M517.91,418.94a1.53,1.53,0,1,1,1.53-1.53,1.53,1.53,0,0,1-1.53,1.53"/><path class="cls-3" d="M506.53,418.94a1.53,1.53,0,1,1,1.53-1.53,1.53,1.53,0,0,1-1.53,1.53"/><path class="cls-3" d="M495.14,418.94a1.53,1.53,0,1,1,1.53-1.53,1.53,1.53,0,0,1-1.53,1.53"/><path class="cls-3" d="M483.76,418.94a1.53,1.53,0,1,1,1.53-1.53,1.53,1.53,0,0,1-1.53,1.53"/><path class="cls-3" d="M472.38,418.94a1.53,1.53,0,1,1,1.53-1.53,1.53,1.53,0,0,1-1.53,1.53"/><path class="cls-3" d="M552.06,449.56a1.53,1.53,0,1,1,1.53-1.53,1.53,1.53,0,0,1-1.53,1.53"/><path class="cls-3" d="M540.67,449.56a1.53,1.53,0,1,1,1.53-1.53,1.53,1.53,0,0,1-1.53,1.53"/><path class="cls-3" d="M529.29,449.56a1.53,1.53,0,1,1,1.53-1.53,1.53,1.53,0,0,1-1.53,1.53"/><path class="cls-3" d="M517.91,449.56a1.53,1.53,0,1,1,1.53-1.53,1.53,1.53,0,0,1-1.53,1.53"/><path class="cls-3" d="M506.53,449.56a1.53,1.53,0,1,1,1.53-1.53,1.53,1.53,0,0,1-1.53,1.53"/><path class="cls-3" d="M495.14,449.56a1.53,1.53,0,1,1,1.53-1.53,1.53,1.53,0,0,1-1.53,1.53"/><path class="cls-3" d="M483.76,449.56a1.53,1.53,0,1,1,1.53-1.53,1.53,1.53,0,0,1-1.53,1.53"/><path class="cls-3" d="M472.38,449.56a1.53,1.53,0,1,1,1.53-1.53,1.53,1.53,0,0,1-1.53,1.53"/><path class="cls-3" d="M461,449.56a1.53,1.53,0,1,1,1.53-1.53,1.53,1.53,0,0,1-1.53,1.53"/><path class="cls-3" d="M563.44,434.25a1.53,1.53,0,1,1,1.53-1.53,1.53,1.53,0,0,1-1.53,1.53"/><path class="cls-3" d="M563.44,449.56A1.53,1.53,0,1,1,565,448a1.53,1.53,0,0,1-1.53,1.53"/><path class="cls-3" d="M552.06,434.25a1.53,1.53,0,1,1,1.53-1.53,1.53,1.53,0,0,1-1.53,1.53"/><path class="cls-3" d="M540.67,434.25a1.53,1.53,0,1,1,1.53-1.53,1.53,1.53,0,0,1-1.53,1.53"/><path class="cls-3" d="M529.29,434.25a1.53,1.53,0,1,1,1.53-1.53,1.53,1.53,0,0,1-1.53,1.53"/><path class="cls-3" d="M517.91,434.25a1.53,1.53,0,1,1,1.53-1.53,1.53,1.53,0,0,1-1.53,1.53"/><path class="cls-3" d="M506.53,434.25a1.53,1.53,0,1,1,1.53-1.53,1.53,1.53,0,0,1-1.53,1.53"/><path class="cls-3" d="M495.14,434.25a1.53,1.53,0,1,1,1.53-1.53,1.53,1.53,0,0,1-1.53,1.53"/><path class="cls-3" d="M483.76,434.25a1.53,1.53,0,1,1,1.53-1.53,1.53,1.53,0,0,1-1.53,1.53"/><path class="cls-3" d="M472.38,434.25a1.53,1.53,0,1,1,1.53-1.53,1.53,1.53,0,0,1-1.53,1.53"/><path class="cls-3" d="M461,434.25a1.53,1.53,0,1,1,1.53-1.53,1.53,1.53,0,0,1-1.53,1.53"/><path class="cls-3" d="M563.44,464.87a1.53,1.53,0,1,1,1.53-1.53,1.53,1.53,0,0,1-1.53,1.53"/><path class="cls-3" d="M552.06,464.87a1.53,1.53,0,1,1,1.53-1.53,1.53,1.53,0,0,1-1.53,1.53"/><path class="cls-3" d="M540.67,464.87a1.53,1.53,0,1,1,1.53-1.53,1.53,1.53,0,0,1-1.53,1.53"/><path class="cls-3" d="M529.29,464.87a1.53,1.53,0,1,1,1.53-1.53,1.53,1.53,0,0,1-1.53,1.53"/><path class="cls-3" d="M517.91,464.87a1.53,1.53,0,1,1,1.53-1.53,1.53,1.53,0,0,1-1.53,1.53"/><path class="cls-3" d="M506.53,464.87a1.53,1.53,0,1,1,1.53-1.53,1.53,1.53,0,0,1-1.53,1.53"/><path class="cls-3" d="M495.14,464.87a1.53,1.53,0,1,1,1.53-1.53,1.53,1.53,0,0,1-1.53,1.53"/><path class="cls-3" d="M483.76,464.87a1.53,1.53,0,1,1,1.53-1.53,1.53,1.53,0,0,1-1.53,1.53"/><path class="cls-3" d="M472.38,464.87a1.53,1.53,0,1,1,1.53-1.53,1.53,1.53,0,0,1-1.53,1.53"/><path class="cls-3" d="M461,464.87a1.53,1.53,0,1,1,1.53-1.53,1.53,1.53,0,0,1-1.53,1.53"/><path class="cls-3" d="M563.44,480.18a1.53,1.53,0,1,1,1.53-1.53,1.53,1.53,0,0,1-1.53,1.53"/><path class="cls-3" d="M552.06,480.18a1.53,1.53,0,1,1,1.53-1.53,1.53,1.53,0,0,1-1.53,1.53"/><path class="cls-3" d="M540.67,480.18a1.53,1.53,0,1,1,1.53-1.53,1.53,1.53,0,0,1-1.53,1.53"/><path class="cls-3" d="M529.29,480.18a1.53,1.53,0,1,1,1.53-1.53,1.53,1.53,0,0,1-1.53,1.53"/><path class="cls-3" d="M517.91,480.18a1.53,1.53,0,1,1,1.53-1.53,1.53,1.53,0,0,1-1.53,1.53"/><path class="cls-3" d="M506.53,480.18a1.53,1.53,0,1,1,1.53-1.53,1.53,1.53,0,0,1-1.53,1.53"/><path class="cls-3" d="M495.14,480.18a1.53,1.53,0,1,1,1.53-1.53,1.53,1.53,0,0,1-1.53,1.53"/><path class="cls-3" d="M483.76,480.18a1.53,1.53,0,1,1,1.53-1.53,1.53,1.53,0,0,1-1.53,1.53"/><path class="cls-3" d="M472.38,480.18a1.53,1.53,0,1,1,1.53-1.53,1.53,1.53,0,0,1-1.53,1.53"/><path class="cls-3" d="M461,480.18a1.53,1.53,0,1,1,1.53-1.53,1.53,1.53,0,0,1-1.53,1.53"/><path class="cls-3" d="M563.44,495.49A1.53,1.53,0,1,1,565,494a1.53,1.53,0,0,1-1.53,1.53"/><path class="cls-3" d="M552.06,495.49a1.53,1.53,0,1,1,1.53-1.53,1.53,1.53,0,0,1-1.53,1.53"/><path class="cls-3" d="M540.67,495.49a1.53,1.53,0,1,1,1.53-1.53,1.53,1.53,0,0,1-1.53,1.53"/><path class="cls-3" d="M529.29,495.49a1.53,1.53,0,1,1,1.53-1.53,1.53,1.53,0,0,1-1.53,1.53"/><path class="cls-3" d="M517.91,495.49a1.53,1.53,0,1,1,1.53-1.53,1.53,1.53,0,0,1-1.53,1.53"/><path class="cls-3" d="M506.53,495.49a1.53,1.53,0,1,1,1.53-1.53,1.53,1.53,0,0,1-1.53,1.53"/><path class="cls-3" d="M495.14,495.49a1.53,1.53,0,1,1,1.53-1.53,1.53,1.53,0,0,1-1.53,1.53"/><path class="cls-3" d="M483.76,495.49a1.53,1.53,0,1,1,1.53-1.53,1.53,1.53,0,0,1-1.53,1.53"/><path class="cls-3" d="M472.38,495.49a1.53,1.53,0,1,1,1.53-1.53,1.53,1.53,0,0,1-1.53,1.53"/><path class="cls-3" d="M563.44,510.8a1.53,1.53,0,1,1,1.53-1.53,1.53,1.53,0,0,1-1.53,1.53"/><path class="cls-3" d="M552.06,510.8a1.53,1.53,0,1,1,1.53-1.53,1.53,1.53,0,0,1-1.53,1.53"/><path class="cls-3" d="M540.67,510.8a1.53,1.53,0,1,1,1.53-1.53,1.53,1.53,0,0,1-1.53,1.53"/><path class="cls-3" d="M529.29,510.8a1.53,1.53,0,1,1,1.53-1.53,1.53,1.53,0,0,1-1.53,1.53"/><path class="cls-3" d="M517.91,510.8a1.53,1.53,0,1,1,1.53-1.53,1.53,1.53,0,0,1-1.53,1.53"/><path class="cls-3" d="M506.53,510.8a1.53,1.53,0,1,1,1.53-1.53,1.53,1.53,0,0,1-1.53,1.53"/><path class="cls-3" d="M495.14,510.8a1.53,1.53,0,1,1,1.53-1.53,1.53,1.53,0,0,1-1.53,1.53"/><path class="cls-3" d="M483.76,510.8a1.53,1.53,0,1,1,1.53-1.53,1.53,1.53,0,0,1-1.53,1.53"/><path class="cls-3" d="M472.38,510.8a1.53,1.53,0,1,1,1.53-1.53,1.53,1.53,0,0,1-1.53,1.53"/><path class="cls-3" d="M563.44,526.11a1.53,1.53,0,1,1,1.53-1.53,1.53,1.53,0,0,1-1.53,1.53"/><path class="cls-3" d="M552.06,526.11a1.53,1.53,0,1,1,1.53-1.53,1.53,1.53,0,0,1-1.53,1.53"/><path class="cls-3" d="M540.67,526.11a1.53,1.53,0,1,1,1.53-1.53,1.53,1.53,0,0,1-1.53,1.53"/><path class="cls-3" d="M529.29,526.11a1.53,1.53,0,1,1,1.53-1.53,1.53,1.53,0,0,1-1.53,1.53"/><path class="cls-3" d="M517.91,526.11a1.53,1.53,0,1,1,1.53-1.53,1.53,1.53,0,0,1-1.53,1.53"/><path class="cls-3" d="M506.53,526.11a1.53,1.53,0,1,1,1.53-1.53,1.53,1.53,0,0,1-1.53,1.53"/><path class="cls-3" d="M495.14,526.11a1.53,1.53,0,1,1,1.53-1.53,1.53,1.53,0,0,1-1.53,1.53"/><path class="cls-3" d="M483.76,526.11a1.53,1.53,0,1,1,1.53-1.53,1.53,1.53,0,0,1-1.53,1.53"/><path class="cls-3" d="M563.44,541.43a1.53,1.53,0,1,1,1.53-1.53,1.53,1.53,0,0,1-1.53,1.53"/><path class="cls-3" d="M552.06,541.43a1.53,1.53,0,1,1,1.53-1.53,1.53,1.53,0,0,1-1.53,1.53"/><path class="cls-3" d="M540.67,541.43a1.53,1.53,0,1,1,1.53-1.53,1.53,1.53,0,0,1-1.53,1.53"/><path class="cls-3" d="M529.29,541.43a1.53,1.53,0,1,1,1.53-1.53,1.53,1.53,0,0,1-1.53,1.53"/><path class="cls-3" d="M517.91,541.43a1.53,1.53,0,1,1,1.53-1.53,1.53,1.53,0,0,1-1.53,1.53"/><path class="cls-3" d="M506.53,541.43a1.53,1.53,0,1,1,1.53-1.53,1.53,1.53,0,0,1-1.53,1.53"/><path class="cls-3" d="M495.14,541.43a1.53,1.53,0,1,1,1.53-1.53,1.53,1.53,0,0,1-1.53,1.53"/><path class="cls-3" d="M563.44,556.74A1.53,1.53,0,1,1,565,555.2a1.53,1.53,0,0,1-1.53,1.53"/><path class="cls-3" d="M552.06,556.74a1.53,1.53,0,1,1,1.53-1.53,1.53,1.53,0,0,1-1.53,1.53"/><path class="cls-3" d="M540.67,556.74a1.53,1.53,0,1,1,1.53-1.53,1.53,1.53,0,0,1-1.53,1.53"/><path class="cls-3" d="M529.29,556.74a1.53,1.53,0,1,1,1.53-1.53,1.53,1.53,0,0,1-1.53,1.53"/><path class="cls-3" d="M517.91,556.74a1.53,1.53,0,1,1,1.53-1.53,1.53,1.53,0,0,1-1.53,1.53"/><path class="cls-3" d="M506.53,556.74a1.53,1.53,0,1,1,1.53-1.53,1.53,1.53,0,0,1-1.53,1.53"/><path class="cls-3" d="M552.06,587.36a1.53,1.53,0,1,1,1.53-1.53,1.53,1.53,0,0,1-1.53,1.53"/><path class="cls-3" d="M563.44,572a1.53,1.53,0,1,1,1.53-1.53,1.53,1.53,0,0,1-1.53,1.53"/><path class="cls-3" d="M563.44,587.36a1.53,1.53,0,1,1,1.53-1.53,1.53,1.53,0,0,1-1.53,1.53"/><path class="cls-3" d="M552.06,572a1.53,1.53,0,1,1,1.53-1.53,1.53,1.53,0,0,1-1.53,1.53"/><path class="cls-3" d="M540.67,572a1.53,1.53,0,1,1,1.53-1.53,1.53,1.53,0,0,1-1.53,1.53"/><path class="cls-3" d="M529.29,572a1.53,1.53,0,1,1,1.53-1.53,1.53,1.53,0,0,1-1.53,1.53"/><path class="cls-3" d="M586.21,572a1.53,1.53,0,1,1,1.53-1.53,1.53,1.53,0,0,1-1.53,1.53"/><path class="cls-3" d="M574.83,572a1.53,1.53,0,1,1,1.53-1.53,1.53,1.53,0,0,1-1.53,1.53"/><path class="cls-4" d="M417.68,8.36A1.35,1.35,0,1,1,419,7a1.35,1.35,0,0,1-1.35,1.35"/><path class="cls-4" d="M407.67,8.36A1.35,1.35,0,1,1,409,7a1.35,1.35,0,0,1-1.35,1.35"/><path class="cls-4" d="M397.67,8.36A1.35,1.35,0,1,1,399,7a1.35,1.35,0,0,1-1.35,1.35"/><path class="cls-4" d="M387.67,8.36A1.35,1.35,0,1,1,389,7a1.35,1.35,0,0,1-1.35,1.35"/><path class="cls-4" d="M377.66,8.36A1.35,1.35,0,1,1,379,7a1.35,1.35,0,0,1-1.35,1.35"/><path class="cls-4" d="M367.66,8.36A1.35,1.35,0,1,1,369,7a1.35,1.35,0,0,1-1.35,1.35"/><path class="cls-4" d="M357.66,8.36A1.35,1.35,0,1,1,359,7a1.35,1.35,0,0,1-1.35,1.35"/><path class="cls-4" d="M347.65,8.36A1.35,1.35,0,1,1,349,7a1.35,1.35,0,0,1-1.35,1.35"/><path class="cls-4" d="M337.65,8.36A1.35,1.35,0,1,1,339,7a1.35,1.35,0,0,1-1.35,1.35"/><path class="cls-4" d="M327.65,8.36A1.35,1.35,0,1,1,329,7a1.35,1.35,0,0,1-1.35,1.35"/><path class="cls-4" d="M317.64,8.36A1.35,1.35,0,1,1,319,7a1.35,1.35,0,0,1-1.35,1.35"/><path class="cls-4" d="M307.64,8.36A1.35,1.35,0,1,1,309,7a1.35,1.35,0,0,1-1.35,1.35"/><path class="cls-4" d="M297.64,8.36A1.35,1.35,0,1,1,299,7a1.35,1.35,0,0,1-1.35,1.35"/><path class="cls-4" d="M287.63,8.36A1.35,1.35,0,1,1,289,7a1.35,1.35,0,0,1-1.35,1.35"/><path class="cls-4" d="M277.63,8.36A1.35,1.35,0,1,1,279,7a1.35,1.35,0,0,1-1.35,1.35"/><path class="cls-4" d="M417.68,21.81A1.35,1.35,0,1,1,419,20.47a1.35,1.35,0,0,1-1.35,1.35"/><path class="cls-4" d="M407.67,21.81A1.35,1.35,0,1,1,409,20.47a1.35,1.35,0,0,1-1.35,1.35"/><path class="cls-4" d="M397.67,21.81A1.35,1.35,0,1,1,399,20.47a1.35,1.35,0,0,1-1.35,1.35"/><path class="cls-4" d="M387.67,21.81A1.35,1.35,0,1,1,389,20.47a1.35,1.35,0,0,1-1.35,1.35"/><path class="cls-4" d="M377.66,21.81A1.35,1.35,0,1,1,379,20.47a1.35,1.35,0,0,1-1.35,1.35"/><path class="cls-4" d="M367.66,21.81A1.35,1.35,0,1,1,369,20.47a1.35,1.35,0,0,1-1.35,1.35"/><path class="cls-4" d="M357.66,21.81A1.35,1.35,0,1,1,359,20.47a1.35,1.35,0,0,1-1.35,1.35"/><path class="cls-4" d="M347.65,21.81A1.35,1.35,0,1,1,349,20.47a1.35,1.35,0,0,1-1.35,1.35"/><path class="cls-4" d="M337.65,21.81A1.35,1.35,0,1,1,339,20.47a1.35,1.35,0,0,1-1.35,1.35"/><path class="cls-4" d="M327.65,21.81A1.35,1.35,0,1,1,329,20.47a1.35,1.35,0,0,1-1.35,1.35"/><path class="cls-4" d="M317.64,21.81A1.35,1.35,0,1,1,319,20.47a1.35,1.35,0,0,1-1.35,1.35"/><path class="cls-4" d="M307.64,21.81A1.35,1.35,0,1,1,309,20.47a1.35,1.35,0,0,1-1.35,1.35"/><path class="cls-4" d="M297.64,21.81A1.35,1.35,0,1,1,299,20.47a1.35,1.35,0,0,1-1.35,1.35"/><path class="cls-4" d="M287.63,21.81A1.35,1.35,0,1,1,289,20.47a1.35,1.35,0,0,1-1.35,1.35"/><path class="cls-4" d="M277.63,21.81A1.35,1.35,0,1,1,279,20.47a1.35,1.35,0,0,1-1.35,1.35"/><path class="cls-4" d="M407.67,35.27A1.35,1.35,0,1,1,409,33.92a1.35,1.35,0,0,1-1.35,1.35"/><path class="cls-4" d="M397.67,35.27A1.35,1.35,0,1,1,399,33.92a1.35,1.35,0,0,1-1.35,1.35"/><path class="cls-4" d="M387.67,35.27A1.35,1.35,0,1,1,389,33.92a1.35,1.35,0,0,1-1.35,1.35"/><path class="cls-4" d="M377.66,35.27A1.35,1.35,0,1,1,379,33.92a1.35,1.35,0,0,1-1.35,1.35"/><path class="cls-4" d="M367.66,35.27A1.35,1.35,0,1,1,369,33.92a1.35,1.35,0,0,1-1.35,1.35"/><path class="cls-4" d="M357.66,35.27A1.35,1.35,0,1,1,359,33.92a1.35,1.35,0,0,1-1.35,1.35"/><path class="cls-4" d="M347.65,35.27A1.35,1.35,0,1,1,349,33.92a1.35,1.35,0,0,1-1.35,1.35"/><path class="cls-4" d="M337.65,35.27A1.35,1.35,0,1,1,339,33.92a1.35,1.35,0,0,1-1.35,1.35"/><path class="cls-4" d="M327.65,35.27A1.35,1.35,0,1,1,329,33.92a1.35,1.35,0,0,1-1.35,1.35"/><path class="cls-4" d="M317.64,35.27A1.35,1.35,0,1,1,319,33.92a1.35,1.35,0,0,1-1.35,1.35"/><path class="cls-4" d="M307.64,35.27A1.35,1.35,0,1,1,309,33.92a1.35,1.35,0,0,1-1.35,1.35"/><path class="cls-4" d="M297.64,35.27A1.35,1.35,0,1,1,299,33.92a1.35,1.35,0,0,1-1.35,1.35"/><path class="cls-4" d="M287.63,35.27A1.35,1.35,0,1,1,289,33.92a1.35,1.35,0,0,1-1.35,1.35"/><path class="cls-4" d="M277.63,35.27A1.35,1.35,0,1,1,279,33.92a1.35,1.35,0,0,1-1.35,1.35"/><path class="cls-4" d="M407.67,48.72A1.35,1.35,0,1,1,409,47.38a1.35,1.35,0,0,1-1.35,1.35"/><path class="cls-4" d="M397.67,48.72A1.35,1.35,0,1,1,399,47.38a1.35,1.35,0,0,1-1.35,1.35"/><path class="cls-4" d="M387.67,48.72A1.35,1.35,0,1,1,389,47.38a1.35,1.35,0,0,1-1.35,1.35"/><path class="cls-4" d="M377.66,48.72A1.35,1.35,0,1,1,379,47.38a1.35,1.35,0,0,1-1.35,1.35"/><path class="cls-4" d="M367.66,48.72A1.35,1.35,0,1,1,369,47.38a1.35,1.35,0,0,1-1.35,1.35"/><path class="cls-4" d="M357.66,48.72A1.35,1.35,0,1,1,359,47.38a1.35,1.35,0,0,1-1.35,1.35"/><path class="cls-4" d="M347.65,48.72A1.35,1.35,0,1,1,349,47.38a1.35,1.35,0,0,1-1.35,1.35"/><path class="cls-4" d="M337.65,48.72A1.35,1.35,0,1,1,339,47.38a1.35,1.35,0,0,1-1.35,1.35"/><path class="cls-4" d="M327.65,48.72A1.35,1.35,0,1,1,329,47.38a1.35,1.35,0,0,1-1.35,1.35"/><path class="cls-4" d="M317.64,48.72A1.35,1.35,0,1,1,319,47.38a1.35,1.35,0,0,1-1.35,1.35"/><path class="cls-4" d="M307.64,48.72A1.35,1.35,0,1,1,309,47.38a1.35,1.35,0,0,1-1.35,1.35"/><path class="cls-4" d="M297.64,48.72A1.35,1.35,0,1,1,299,47.38a1.35,1.35,0,0,1-1.35,1.35"/><path class="cls-4" d="M287.63,48.72A1.35,1.35,0,1,1,289,47.38a1.35,1.35,0,0,1-1.35,1.35"/><path class="cls-4" d="M277.63,48.72A1.35,1.35,0,1,1,279,47.38a1.35,1.35,0,0,1-1.35,1.35"/><path class="cls-4" d="M397.67,62.18A1.35,1.35,0,1,1,399,60.83a1.35,1.35,0,0,1-1.35,1.35"/><path class="cls-4" d="M387.67,62.18A1.35,1.35,0,1,1,389,60.83a1.35,1.35,0,0,1-1.35,1.35"/><path class="cls-4" d="M377.66,62.18A1.35,1.35,0,1,1,379,60.83a1.35,1.35,0,0,1-1.35,1.35"/><path class="cls-4" d="M367.66,62.18A1.35,1.35,0,1,1,369,60.83a1.35,1.35,0,0,1-1.35,1.35"/><path class="cls-4" d="M357.66,62.18A1.35,1.35,0,1,1,359,60.83a1.35,1.35,0,0,1-1.35,1.35"/><path class="cls-4" d="M347.65,62.18A1.35,1.35,0,1,1,349,60.83a1.35,1.35,0,0,1-1.35,1.35"/><path class="cls-4" d="M337.65,62.18A1.35,1.35,0,1,1,339,60.83a1.35,1.35,0,0,1-1.35,1.35"/><path class="cls-4" d="M327.65,62.18A1.35,1.35,0,1,1,329,60.83a1.35,1.35,0,0,1-1.35,1.35"/><path class="cls-4" d="M317.64,62.18A1.35,1.35,0,1,1,319,60.83a1.35,1.35,0,0,1-1.35,1.35"/><path class="cls-4" d="M307.64,62.18A1.35,1.35,0,1,1,309,60.83a1.35,1.35,0,0,1-1.35,1.35"/><path class="cls-4" d="M297.64,62.18A1.35,1.35,0,1,1,299,60.83a1.35,1.35,0,0,1-1.35,1.35"/><path class="cls-4" d="M287.63,62.18A1.35,1.35,0,1,1,289,60.83a1.35,1.35,0,0,1-1.35,1.35"/><path class="cls-4" d="M277.63,62.18A1.35,1.35,0,1,1,279,60.83a1.35,1.35,0,0,1-1.35,1.35"/><path class="cls-4" d="M387.67,75.63A1.35,1.35,0,1,1,389,74.29a1.35,1.35,0,0,1-1.35,1.35"/><path class="cls-4" d="M377.66,75.63A1.35,1.35,0,1,1,379,74.29a1.35,1.35,0,0,1-1.35,1.35"/><path class="cls-4" d="M367.66,75.63A1.35,1.35,0,1,1,369,74.29a1.35,1.35,0,0,1-1.35,1.35"/><path class="cls-4" d="M357.66,75.63A1.35,1.35,0,1,1,359,74.29a1.35,1.35,0,0,1-1.35,1.35"/><path class="cls-4" d="M347.65,75.63A1.35,1.35,0,1,1,349,74.29a1.35,1.35,0,0,1-1.35,1.35"/><path class="cls-4" d="M337.65,75.63A1.35,1.35,0,1,1,339,74.29a1.35,1.35,0,0,1-1.35,1.35"/><path class="cls-4" d="M327.65,75.63A1.35,1.35,0,1,1,329,74.29a1.35,1.35,0,0,1-1.35,1.35"/><path class="cls-4" d="M317.64,75.63A1.35,1.35,0,1,1,319,74.29a1.35,1.35,0,0,1-1.35,1.35"/><path class="cls-4" d="M307.64,75.63A1.35,1.35,0,1,1,309,74.29a1.35,1.35,0,0,1-1.35,1.35"/><path class="cls-4" d="M297.64,75.63A1.35,1.35,0,1,1,299,74.29a1.35,1.35,0,0,1-1.35,1.35"/><path class="cls-4" d="M287.63,75.63A1.35,1.35,0,1,1,289,74.29a1.35,1.35,0,0,1-1.35,1.35"/><path class="cls-4" d="M277.63,75.63A1.35,1.35,0,1,1,279,74.29a1.35,1.35,0,0,1-1.35,1.35"/><path class="cls-4" d="M377.66,89.09A1.35,1.35,0,1,1,379,87.74a1.35,1.35,0,0,1-1.35,1.35"/><path class="cls-4" d="M367.66,89.09A1.35,1.35,0,1,1,369,87.74a1.35,1.35,0,0,1-1.35,1.35"/><path class="cls-4" d="M357.66,89.09A1.35,1.35,0,1,1,359,87.74a1.35,1.35,0,0,1-1.35,1.35"/><path class="cls-4" d="M347.65,89.09A1.35,1.35,0,1,1,349,87.74a1.35,1.35,0,0,1-1.35,1.35"/><path class="cls-4" d="M337.65,89.09A1.35,1.35,0,1,1,339,87.74a1.35,1.35,0,0,1-1.35,1.35"/><path class="cls-4" d="M327.65,89.09A1.35,1.35,0,1,1,329,87.74a1.35,1.35,0,0,1-1.35,1.35"/><path class="cls-4" d="M317.64,89.09A1.35,1.35,0,1,1,319,87.74a1.35,1.35,0,0,1-1.35,1.35"/><path class="cls-4" d="M307.64,89.09A1.35,1.35,0,1,1,309,87.74a1.35,1.35,0,0,1-1.35,1.35"/><path class="cls-4" d="M297.64,89.09A1.35,1.35,0,1,1,299,87.74a1.35,1.35,0,0,1-1.35,1.35"/><path class="cls-4" d="M287.63,89.09A1.35,1.35,0,1,1,289,87.74a1.35,1.35,0,0,1-1.35,1.35"/><path class="cls-4" d="M277.63,89.09A1.35,1.35,0,1,1,279,87.74a1.35,1.35,0,0,1-1.35,1.35"/><path class="cls-4" d="M337.65,116a1.35,1.35,0,1,1,1.35-1.35,1.35,1.35,0,0,1-1.35,1.35"/><path class="cls-4" d="M327.65,116a1.35,1.35,0,1,1,1.35-1.35,1.35,1.35,0,0,1-1.35,1.35"/><path class="cls-4" d="M317.64,116a1.35,1.35,0,1,1,1.35-1.35,1.35,1.35,0,0,1-1.35,1.35"/><path class="cls-4" d="M307.64,116a1.35,1.35,0,1,1,1.35-1.35,1.35,1.35,0,0,1-1.35,1.35"/><path class="cls-4" d="M297.64,116a1.35,1.35,0,1,1,1.35-1.35,1.35,1.35,0,0,1-1.35,1.35"/><path class="cls-4" d="M287.63,116a1.35,1.35,0,1,1,1.35-1.35,1.35,1.35,0,0,1-1.35,1.35"/><path class="cls-4" d="M277.63,116a1.35,1.35,0,1,1,1.35-1.35,1.35,1.35,0,0,1-1.35,1.35"/><path class="cls-4" d="M357.66,102.55A1.35,1.35,0,1,1,359,101.2a1.35,1.35,0,0,1-1.35,1.35"/><path class="cls-4" d="M347.65,102.55A1.35,1.35,0,1,1,349,101.2a1.35,1.35,0,0,1-1.35,1.35"/><path class="cls-4" d="M337.65,102.55A1.35,1.35,0,1,1,339,101.2a1.35,1.35,0,0,1-1.35,1.35"/><path class="cls-4" d="M327.65,102.55A1.35,1.35,0,1,1,329,101.2a1.35,1.35,0,0,1-1.35,1.35"/><path class="cls-4" d="M267.63,8.36A1.35,1.35,0,1,1,269,7a1.35,1.35,0,0,1-1.35,1.35"/><path class="cls-4" d="M257.62,8.36A1.35,1.35,0,1,1,259,7a1.35,1.35,0,0,1-1.35,1.35"/><path class="cls-4" d="M247.62,8.36A1.35,1.35,0,1,1,249,7a1.35,1.35,0,0,1-1.35,1.35"/><path class="cls-4" d="M237.62,8.36A1.35,1.35,0,1,1,239,7a1.35,1.35,0,0,1-1.35,1.35"/><path class="cls-4" d="M227.61,8.36A1.35,1.35,0,1,1,229,7a1.35,1.35,0,0,1-1.35,1.35"/><path class="cls-4" d="M217.61,8.36A1.35,1.35,0,1,1,219,7a1.35,1.35,0,0,1-1.35,1.35"/><path class="cls-4" d="M207.61,8.36A1.35,1.35,0,1,1,209,7a1.35,1.35,0,0,1-1.35,1.35"/><path class="cls-4" d="M197.6,8.36A1.35,1.35,0,1,1,199,7a1.35,1.35,0,0,1-1.35,1.35"/><path class="cls-4" d="M187.6,8.36A1.35,1.35,0,1,1,188.95,7a1.35,1.35,0,0,1-1.35,1.35"/><path class="cls-4" d="M177.6,8.36A1.35,1.35,0,1,1,178.95,7a1.35,1.35,0,0,1-1.35,1.35"/><path class="cls-4" d="M267.63,21.81A1.35,1.35,0,1,1,269,20.47a1.35,1.35,0,0,1-1.35,1.35"/><path class="cls-4" d="M257.62,21.81A1.35,1.35,0,1,1,259,20.47a1.35,1.35,0,0,1-1.35,1.35"/><path class="cls-4" d="M247.62,21.81A1.35,1.35,0,1,1,249,20.47a1.35,1.35,0,0,1-1.35,1.35"/><path class="cls-4" d="M237.62,21.81A1.35,1.35,0,1,1,239,20.47a1.35,1.35,0,0,1-1.35,1.35"/><path class="cls-4" d="M227.61,21.81A1.35,1.35,0,1,1,229,20.47a1.35,1.35,0,0,1-1.35,1.35"/><path class="cls-4" d="M217.61,21.81A1.35,1.35,0,1,1,219,20.47a1.35,1.35,0,0,1-1.35,1.35"/><path class="cls-4" d="M207.61,21.81A1.35,1.35,0,1,1,209,20.47a1.35,1.35,0,0,1-1.35,1.35"/><path class="cls-4" d="M197.6,21.81A1.35,1.35,0,1,1,199,20.47a1.35,1.35,0,0,1-1.35,1.35"/><path class="cls-4" d="M187.6,21.81a1.35,1.35,0,1,1,1.35-1.35,1.35,1.35,0,0,1-1.35,1.35"/><path class="cls-4" d="M177.6,21.81a1.35,1.35,0,1,1,1.35-1.35,1.35,1.35,0,0,1-1.35,1.35"/><path class="cls-4" d="M267.63,35.27A1.35,1.35,0,1,1,269,33.92a1.35,1.35,0,0,1-1.35,1.35"/><path class="cls-4" d="M257.62,35.27A1.35,1.35,0,1,1,259,33.92a1.35,1.35,0,0,1-1.35,1.35"/><path class="cls-4" d="M247.62,35.27A1.35,1.35,0,1,1,249,33.92a1.35,1.35,0,0,1-1.35,1.35"/><path class="cls-4" d="M237.62,35.27A1.35,1.35,0,1,1,239,33.92a1.35,1.35,0,0,1-1.35,1.35"/><path class="cls-4" d="M227.61,35.27A1.35,1.35,0,1,1,229,33.92a1.35,1.35,0,0,1-1.35,1.35"/><path class="cls-4" d="M217.61,35.27A1.35,1.35,0,1,1,219,33.92a1.35,1.35,0,0,1-1.35,1.35"/><path class="cls-4" d="M207.61,35.27A1.35,1.35,0,1,1,209,33.92a1.35,1.35,0,0,1-1.35,1.35"/><path class="cls-4" d="M197.6,35.27A1.35,1.35,0,1,1,199,33.92a1.35,1.35,0,0,1-1.35,1.35"/><path class="cls-4" d="M187.6,35.27a1.35,1.35,0,1,1,1.35-1.35,1.35,1.35,0,0,1-1.35,1.35"/><path class="cls-4" d="M267.63,48.72A1.35,1.35,0,1,1,269,47.38a1.35,1.35,0,0,1-1.35,1.35"/><path class="cls-4" d="M257.62,48.72A1.35,1.35,0,1,1,259,47.38a1.35,1.35,0,0,1-1.35,1.35"/><path class="cls-4" d="M247.62,48.72A1.35,1.35,0,1,1,249,47.38a1.35,1.35,0,0,1-1.35,1.35"/><path class="cls-4" d="M237.62,48.72A1.35,1.35,0,1,1,239,47.38a1.35,1.35,0,0,1-1.35,1.35"/><path class="cls-4" d="M227.61,48.72A1.35,1.35,0,1,1,229,47.38a1.35,1.35,0,0,1-1.35,1.35"/><path class="cls-4" d="M217.61,48.72A1.35,1.35,0,1,1,219,47.38a1.35,1.35,0,0,1-1.35,1.35"/><path class="cls-4" d="M207.61,48.72A1.35,1.35,0,1,1,209,47.38a1.35,1.35,0,0,1-1.35,1.35"/><path class="cls-4" d="M197.6,48.72A1.35,1.35,0,1,1,199,47.38a1.35,1.35,0,0,1-1.35,1.35"/><path class="cls-4" d="M187.6,48.72a1.35,1.35,0,1,1,1.35-1.35,1.35,1.35,0,0,1-1.35,1.35"/><path class="cls-4" d="M267.63,62.18A1.35,1.35,0,1,1,269,60.83a1.35,1.35,0,0,1-1.35,1.35"/><path class="cls-4" d="M257.62,62.18A1.35,1.35,0,1,1,259,60.83a1.35,1.35,0,0,1-1.35,1.35"/><path class="cls-4" d="M247.62,62.18A1.35,1.35,0,1,1,249,60.83a1.35,1.35,0,0,1-1.35,1.35"/><path class="cls-4" d="M237.62,62.18A1.35,1.35,0,1,1,239,60.83a1.35,1.35,0,0,1-1.35,1.35"/><path class="cls-4" d="M227.61,62.18A1.35,1.35,0,1,1,229,60.83a1.35,1.35,0,0,1-1.35,1.35"/><path class="cls-4" d="M217.61,62.18A1.35,1.35,0,1,1,219,60.83a1.35,1.35,0,0,1-1.35,1.35"/><path class="cls-4" d="M207.61,62.18A1.35,1.35,0,1,1,209,60.83a1.35,1.35,0,0,1-1.35,1.35"/><path class="cls-4" d="M197.6,62.18A1.35,1.35,0,1,1,199,60.83a1.35,1.35,0,0,1-1.35,1.35"/><path class="cls-4" d="M267.63,75.63A1.35,1.35,0,1,1,269,74.29a1.35,1.35,0,0,1-1.35,1.35"/><path class="cls-4" d="M257.62,75.63A1.35,1.35,0,1,1,259,74.29a1.35,1.35,0,0,1-1.35,1.35"/><path class="cls-4" d="M247.62,75.63A1.35,1.35,0,1,1,249,74.29a1.35,1.35,0,0,1-1.35,1.35"/><path class="cls-4" d="M237.62,75.63A1.35,1.35,0,1,1,239,74.29a1.35,1.35,0,0,1-1.35,1.35"/><path class="cls-4" d="M227.61,75.63A1.35,1.35,0,1,1,229,74.29a1.35,1.35,0,0,1-1.35,1.35"/><path class="cls-4" d="M217.61,75.63A1.35,1.35,0,1,1,219,74.29a1.35,1.35,0,0,1-1.35,1.35"/><path class="cls-4" d="M207.61,75.63A1.35,1.35,0,1,1,209,74.29a1.35,1.35,0,0,1-1.35,1.35"/><path class="cls-4" d="M267.63,89.09A1.35,1.35,0,1,1,269,87.74a1.35,1.35,0,0,1-1.35,1.35"/><path class="cls-4" d="M257.62,89.09A1.35,1.35,0,1,1,259,87.74a1.35,1.35,0,0,1-1.35,1.35"/><path class="cls-4" d="M247.62,89.09A1.35,1.35,0,1,1,249,87.74a1.35,1.35,0,0,1-1.35,1.35"/><path class="cls-4" d="M237.62,89.09A1.35,1.35,0,1,1,239,87.74a1.35,1.35,0,0,1-1.35,1.35"/><path class="cls-4" d="M227.61,89.09A1.35,1.35,0,1,1,229,87.74a1.35,1.35,0,0,1-1.35,1.35"/><path class="cls-4" d="M217.61,89.09A1.35,1.35,0,1,1,219,87.74a1.35,1.35,0,0,1-1.35,1.35"/><path class="cls-4" d="M257.62,116a1.35,1.35,0,1,1,1.35-1.35,1.35,1.35,0,0,1-1.35,1.35"/><path class="cls-4" d="M267.63,102.55A1.35,1.35,0,1,1,269,101.2a1.35,1.35,0,0,1-1.35,1.35"/><path class="cls-4" d="M267.63,116a1.35,1.35,0,1,1,1.35-1.35,1.35,1.35,0,0,1-1.35,1.35"/><path class="cls-4" d="M257.62,102.55A1.35,1.35,0,1,1,259,101.2a1.35,1.35,0,0,1-1.35,1.35"/><path class="cls-4" d="M247.62,102.55A1.35,1.35,0,1,1,249,101.2a1.35,1.35,0,0,1-1.35,1.35"/><path class="cls-4" d="M237.62,102.55A1.35,1.35,0,1,1,239,101.2a1.35,1.35,0,0,1-1.35,1.35"/><path class="cls-4" d="M317.64,102.55A1.35,1.35,0,1,1,319,101.2a1.35,1.35,0,0,1-1.35,1.35"/><path class="cls-4" d="M307.64,102.55A1.35,1.35,0,1,1,309,101.2a1.35,1.35,0,0,1-1.35,1.35"/><path class="cls-4" d="M297.64,102.55A1.35,1.35,0,1,1,299,101.2a1.35,1.35,0,0,1-1.35,1.35"/><path class="cls-4" d="M287.63,102.55A1.35,1.35,0,1,1,289,101.2a1.35,1.35,0,0,1-1.35,1.35"/><path class="cls-4" d="M277.63,102.55A1.35,1.35,0,1,1,279,101.2a1.35,1.35,0,0,1-1.35,1.35"/><g class="cls-5"><path class="cls-2" d="M82.17,267.23a54.95,54.95,0,1,0-54.95-54.95,54.95,54.95,0,0,0,54.95,54.95"/></g><rect class="cls-1" width="595.28" height="841.89"/><text class="cls-6" transform="translate(426.96 388.79)"> </text><text class="cls-7" transform="translate(464.3 728.36)"><tspan class="cls-8" xml:space="preserve">                                                                     </tspan><tspan x="95.33" y="0"> </tspan></text><rect class="cls-1" width="595.28" height="841.89"/></svg>