<?xml version="1.0" encoding="UTF-8"?>
<svg width="100px" height="100px" viewBox="0 0 83 83" version="1.1" xmlns="http://www.w3.org/2000/svg" xmlns:xlink="http://www.w3.org/1999/xlink">
    <g id="Page-1" stroke="none" stroke-width="1" fill="none" fill-rule="evenodd">
        <g id="Group-1221" transform="translate(-524.000000, -62.000000)">
            <g id="Group-1214" transform="translate(524.000000, 62.000000)">
                <polygon id="Fill-1175" fill="#525B99" points="0.689 82.645 82.649 82.645 82.649 0.685 0.689 0.685"></polygon>
                <path d="M21.938,15.2618 L21.938,14.8928 L20.949,15.0358 C20.293,15.1188 20.031,15.3688 20.031,15.7268 C20.031,16.1078 20.318,16.3578 20.806,16.3578 C21.473,16.3578 21.938,15.8928 21.938,15.2618 M17.888,15.9408 C17.888,14.7498 18.853,14.1178 20.865,13.8448 L21.938,13.7128 L21.938,13.4388 C21.938,12.9868 21.64,12.6768 21.127,12.6768 C20.639,12.6768 20.293,12.9868 20.293,13.5108 L18.137,13.5108 C18.137,12.1418 19.318,11.2598 21.152,11.2598 C22.975,11.2598 24.178,12.1418 24.178,13.5228 L24.178,17.5608 L21.938,17.5608 L21.938,16.8338 L21.819,16.8338 C21.473,17.4068 20.735,17.7038 19.937,17.7038 C18.722,17.7038 17.888,17.0598 17.888,15.9408" id="Fill-1177" fill="#FFFFFF"></path>
                <path d="M25.5718,15.3458 L25.5718,12.9988 L24.7858,12.9988 L24.7858,11.4148 L25.6558,11.4148 L26.0598,9.4968 L27.8118,9.4968 L27.8118,11.4148 L29.0978,11.4148 L29.0978,12.9988 L27.8118,12.9988 L27.8118,15.2388 C27.8118,15.7148 28.0958,16.0368 28.5388,16.0368 C28.7048,16.0368 28.9428,16.0018 29.1338,15.9538 L29.1338,17.5018 C28.7398,17.6448 28.1688,17.7158 27.7868,17.7158 C26.4418,17.7158 25.5718,16.7628 25.5718,15.3458" id="Fill-1179" fill="#FFFFFF"></path>
                <path d="M29.957,17.563 L32.185,17.563 L32.185,11.415 L29.957,11.415 L29.957,17.563 Z M29.801,9.52 C29.801,8.806 30.338,8.306 31.063,8.306 C31.814,8.306 32.339,8.806 32.339,9.52 C32.339,10.234 31.814,10.748 31.063,10.748 C30.338,10.748 29.801,10.234 29.801,9.52 Z" id="Fill-1181" fill="#FFFFFF"></path>
                <path d="M37.7231,14.4879 C37.7231,13.6899 37.2091,13.1299 36.4841,13.1299 C35.7441,13.1299 35.2441,13.6899 35.2441,14.4879 C35.2441,15.2859 35.7441,15.8459 36.4841,15.8459 C37.2091,15.8459 37.7231,15.2859 37.7231,14.4879 M33.0041,14.4879 C33.0041,12.4739 34.3521,11.2589 36.4841,11.2589 C38.5921,11.2589 39.9511,12.4869 39.9511,14.4879 C39.9511,16.5009 38.5921,17.7169 36.4841,17.7169 C34.3641,17.7169 33.0041,16.4889 33.0041,14.4879" id="Fill-1183" fill="#FFFFFF"></path>
                <path d="M40.7368,11.4147 L42.9648,11.4147 L42.9648,12.3197 L43.0838,12.3197 C43.5718,11.6057 44.0848,11.2717 44.8098,11.2717 C46.0858,11.2717 46.9778,12.3077 46.9778,13.7257 L46.9778,17.5627 L44.7518,17.5627 L44.7518,14.1427 C44.7518,13.5477 44.4178,13.1417 43.8928,13.1417 C43.3698,13.1417 42.9648,13.5707 42.9648,14.1787 L42.9648,17.5627 L40.7368,17.5627 L40.7368,11.4147 Z" id="Fill-1184" fill="#FFFFFF"></path>
                <path d="M51.6968,15.2618 L51.6968,14.8928 L50.7078,15.0358 C50.0508,15.1188 49.7898,15.3688 49.7898,15.7268 C49.7898,16.1078 50.0768,16.3578 50.5648,16.3578 C51.2318,16.3578 51.6968,15.8928 51.6968,15.2618 M47.6468,15.9408 C47.6468,14.7498 48.6118,14.1178 50.6238,13.8448 L51.6968,13.7128 L51.6968,13.4388 C51.6968,12.9868 51.3988,12.6768 50.8848,12.6768 C50.3978,12.6768 50.0508,12.9868 50.0508,13.5108 L47.8958,13.5108 C47.8958,12.1418 49.0758,11.2598 50.9108,11.2598 C52.7338,11.2598 53.9368,12.1418 53.9368,13.5228 L53.9368,17.5608 L51.6968,17.5608 L51.6968,16.8338 L51.5778,16.8338 C51.2318,17.4068 50.4938,17.7038 49.6958,17.7038 C48.4808,17.7038 47.6468,17.0598 47.6468,15.9408" id="Fill-1185" fill="#FFFFFF"></path>
                <polygon id="Fill-1186" fill="#FFFFFF" points="54.913 17.562 57.142 17.562 57.142 8.675 54.913 8.675"></polygon>
                <path d="M8.4331,25.2096 C8.4331,22.5656 10.3851,20.7776 13.0791,20.7776 C15.3671,20.7776 17.1641,22.1356 17.4261,24.1366 L15.0911,24.3876 C14.9021,23.4826 14.0901,22.8266 13.1501,22.8266 C11.8391,22.8266 10.9471,23.7806 10.9471,25.2096 C10.9571,26.6386 11.8511,27.5926 13.1381,27.5926 C14.0681,27.5926 14.9021,26.9486 15.1031,26.0556 L17.4391,26.3286 C17.2241,28.3066 15.4121,29.6526 13.0791,29.6526 C10.3851,29.6526 8.4331,27.8546 8.4331,25.2096" id="Fill-1187" fill="#FFFFFF"></path>
                <path d="M22.645,25.8175 C22.584,25.2095 22.121,24.7095 21.489,24.7095 C20.87,24.7095 20.465,25.1385 20.346,25.8175 L22.645,25.8175 Z M18.071,26.3775 C18.071,24.4235 19.499,23.1725 21.537,23.1725 C23.561,23.1725 24.896,24.4365 24.896,26.4005 C24.896,26.5805 24.884,26.8905 24.86,27.0095 L20.369,27.0095 C20.512,27.6765 20.965,28.0935 21.633,28.0935 C22.169,28.0935 22.549,27.8185 22.74,27.4255 L24.658,27.7705 C24.349,28.9265 23.084,29.6295 21.513,29.6295 C19.477,29.6295 18.071,28.3545 18.071,26.3775 Z" id="Fill-1188" fill="#FFFFFF"></path>
                <path d="M25.6831,23.3273 L27.9111,23.3273 L27.9111,24.2323 L28.0301,24.2323 C28.5181,23.5183 29.0311,23.1843 29.7561,23.1843 C31.0321,23.1843 31.9241,24.2203 31.9241,25.6383 L31.9241,29.4753 L29.6981,29.4753 L29.6981,26.0553 C29.6981,25.4603 29.3641,25.0543 28.8391,25.0543 C28.3161,25.0543 27.9111,25.4833 27.9111,26.0913 L27.9111,29.4753 L25.6831,29.4753 L25.6831,23.3273 Z" id="Fill-1189" fill="#FFFFFF"></path>
                <path d="M33.3188,27.2589 L33.3188,24.9119 L32.5328,24.9119 L32.5328,23.3279 L33.4028,23.3279 L33.8058,21.4099 L35.5578,21.4099 L35.5578,23.3279 L36.8438,23.3279 L36.8438,24.9119 L35.5578,24.9119 L35.5578,27.1519 C35.5578,27.6279 35.8428,27.9499 36.2858,27.9499 C36.4518,27.9499 36.6898,27.9149 36.8808,27.8669 L36.8808,29.4149 C36.4868,29.5579 35.9158,29.6289 35.5338,29.6289 C34.1888,29.6289 33.3188,28.6769 33.3188,27.2589" id="Fill-1190" fill="#FFFFFF"></path>
                <path d="M37.6665,23.3273 L39.8835,23.3273 L39.8835,24.1973 L40.0145,24.1973 C40.2755,23.5893 40.8235,23.2083 41.4425,23.2083 C41.6825,23.2083 41.9315,23.2683 42.1215,23.3633 L42.1215,25.3413 C41.7655,25.1863 41.3355,25.0913 41.0515,25.0913 C40.3715,25.0913 39.8955,25.6263 39.8955,26.4243 L39.8955,29.4753 L37.6665,29.4753 L37.6665,23.3273 Z" id="Fill-1191" fill="#FFFFFF"></path>
                <path d="M47.1021,25.8175 C47.0421,25.2095 46.5781,24.7095 45.9461,24.7095 C45.3271,24.7095 44.9221,25.1385 44.8031,25.8175 L47.1021,25.8175 Z M42.5281,26.3775 C42.5281,24.4235 43.9571,23.1725 45.9941,23.1725 C48.0201,23.1725 49.3531,24.4365 49.3531,26.4005 C49.3531,26.5805 49.3411,26.8905 49.3171,27.0095 L44.8261,27.0095 C44.9691,27.6765 45.4221,28.0935 46.0901,28.0935 C46.6261,28.0935 47.0061,27.8185 47.1971,27.4255 L49.1151,27.7705 C48.8061,28.9265 47.5421,29.6295 45.9701,29.6295 C43.9331,29.6295 42.5281,28.3545 42.5281,26.3775 Z" id="Fill-1192" fill="#FFFFFF"></path>
                <path d="M53.5347,24.9117 L52.7487,24.9117 L52.7487,23.3277 L53.5347,23.3277 L53.5347,22.8987 C53.5347,21.4207 54.4047,20.4317 55.7017,20.4317 C56.1557,20.4317 56.6437,20.5157 57.0497,20.6477 L57.0497,22.3747 C56.8707,22.3387 56.6687,22.3027 56.4887,22.3027 C56.0487,22.3027 55.7637,22.5527 55.7637,22.9227 L55.7637,23.3277 L57.0497,23.3277 L57.0497,24.9117 L55.7637,24.9117 L55.7637,29.4737 L53.5347,29.4737 L53.5347,24.9117 Z" id="Fill-1193" fill="#FFFFFF"></path>
                <path d="M62.1597,26.4015 C62.1597,25.6035 61.6477,25.0435 60.9217,25.0435 C60.1817,25.0435 59.6817,25.6035 59.6817,26.4015 C59.6817,27.1995 60.1817,27.7595 60.9217,27.7595 C61.6477,27.7595 62.1597,27.1995 62.1597,26.4015 M57.4427,26.4015 C57.4427,24.3885 58.7887,23.1725 60.9217,23.1725 C63.0297,23.1725 64.3887,24.4005 64.3887,26.4015 C64.3887,28.4145 63.0297,29.6305 60.9217,29.6305 C58.8017,29.6305 57.4427,28.4025 57.4427,26.4015" id="Fill-1194" fill="#FFFFFF"></path>
                <path d="M65.1733,23.3273 L67.3893,23.3273 L67.3893,24.1973 L67.5213,24.1973 C67.7823,23.5893 68.3303,23.2083 68.9493,23.2083 C69.1893,23.2083 69.4383,23.2683 69.6283,23.3633 L69.6283,25.3413 C69.2723,25.1863 68.8423,25.0913 68.5583,25.0913 C67.8783,25.0913 67.4023,25.6263 67.4023,26.4243 L67.4023,29.4753 L65.1733,29.4753 L65.1733,23.3273 Z" id="Fill-1195" fill="#FFFFFF"></path>
                <path d="M8.4331,37.1232 C8.4331,34.4782 10.3851,32.6912 13.0791,32.6912 C15.3671,32.6912 17.1641,34.0492 17.4261,36.0502 L15.0911,36.3012 C14.9021,35.3962 14.0901,34.7402 13.1501,34.7402 C11.8391,34.7402 10.9471,35.6942 10.9471,37.1232 C10.9571,38.5522 11.8511,39.5062 13.1381,39.5062 C14.0681,39.5062 14.9021,38.8622 15.1031,37.9692 L17.4391,38.2422 C17.2241,40.2202 15.4121,41.5662 13.0791,41.5662 C10.3851,41.5662 8.4331,39.7672 8.4331,37.1232" id="Fill-1196" fill="#FFFFFF"></path>
                <path d="M22.7759,38.3146 C22.7759,37.5166 22.2639,36.9566 21.5369,36.9566 C20.7969,36.9566 20.2969,37.5166 20.2969,38.3146 C20.2969,39.1126 20.7969,39.6726 21.5369,39.6726 C22.2639,39.6726 22.7759,39.1126 22.7759,38.3146 M18.0589,38.3146 C18.0589,36.3016 19.4049,35.0856 21.5369,35.0856 C23.6459,35.0856 25.0039,36.3136 25.0039,38.3146 C25.0039,40.3286 23.6459,41.5436 21.5369,41.5436 C19.4169,41.5436 18.0589,40.3156 18.0589,38.3146" id="Fill-1197" fill="#FFFFFF"></path>
                <path d="M25.7896,35.2408 L28.0056,35.2408 L28.0056,36.2298 L28.1366,36.2298 C28.4946,35.5388 29.1376,35.0858 29.9116,35.0858 C30.6976,35.0858 31.4366,35.5628 31.7346,36.2658 L31.8536,36.2658 C32.1746,35.5388 32.8426,35.0978 33.7246,35.0978 C35.0096,35.0978 35.9396,36.0628 35.9396,37.4808 L35.9396,41.3888 L33.6996,41.3888 L33.6996,37.9808 C33.6996,37.4218 33.3666,36.9798 32.8176,36.9568 C32.2816,36.9568 31.9376,37.3738 31.9376,37.9808 L31.9376,41.3888 L29.6976,41.3888 L29.6976,37.9808 C29.6976,37.3608 29.3636,36.9568 28.8636,36.9568 C28.3396,36.9568 28.0186,37.3608 28.0186,37.9808 L28.0186,41.3888 L25.7896,41.3888 L25.7896,35.2408 Z" id="Fill-1198" fill="#FFFFFF"></path>
                <path d="M39.0483,38.3146 C39.0483,39.0886 39.5723,39.6726 40.2873,39.6726 C41.0153,39.6726 41.5273,39.0886 41.5273,38.3146 C41.5273,37.5406 41.0153,36.9566 40.2873,36.9566 C39.5723,36.9566 39.0483,37.5406 39.0483,38.3146 M43.7673,38.3146 C43.7673,40.2676 42.6583,41.5436 41.0493,41.5436 C40.2643,41.5436 39.6683,41.2336 39.2643,40.6726 L39.1453,40.6726 L39.1453,44.1276 L36.9153,44.1276 L36.9153,35.2406 L39.1453,35.2406 L39.1453,35.9556 L39.2643,35.9556 C39.6683,35.3956 40.2403,35.0856 41.0373,35.0856 C42.6693,35.0856 43.7673,36.3366 43.7673,38.3146" id="Fill-1199" fill="#FFFFFF"></path>
                <path d="M50.7349,41.3878 L48.5079,41.3878 L48.5079,40.4828 L48.3879,40.4828 C47.8999,41.2098 47.3869,41.5308 46.6609,41.5308 C45.3859,41.5308 44.4929,40.5058 44.4929,39.0768 L44.4929,35.2398 L46.7199,35.2398 L46.7199,38.6598 C46.7199,39.2548 47.0539,39.6718 47.5779,39.6718 C48.1029,39.6718 48.5079,39.2438 48.5079,38.6238 L48.5079,35.2398 L50.7349,35.2398 L50.7349,41.3878 Z" id="Fill-1200" fill="#FFFFFF"></path>
                <path d="M52.2007,39.1715 L52.2007,36.8245 L51.4147,36.8245 L51.4147,35.2405 L52.2847,35.2405 L52.6877,33.3225 L54.4407,33.3225 L54.4407,35.2405 L55.7257,35.2405 L55.7257,36.8245 L54.4407,36.8245 L54.4407,39.0645 C54.4407,39.5405 54.7247,39.8625 55.1677,39.8625 C55.3347,39.8625 55.5717,39.8275 55.7627,39.7795 L55.7627,41.3275 C55.3687,41.4705 54.7977,41.5415 54.4167,41.5415 C53.0707,41.5415 52.2007,40.5885 52.2007,39.1715" id="Fill-1201" fill="#FFFFFF"></path>
                <path d="M56.585,41.389 L58.813,41.389 L58.813,35.241 L56.585,35.241 L56.585,41.389 Z M56.43,33.347 C56.43,32.632 56.966,32.131 57.693,32.131 C58.443,32.131 58.967,32.632 58.967,33.347 C58.967,34.061 58.443,34.574 57.693,34.574 C56.966,34.574 56.43,34.061 56.43,33.347 Z" id="Fill-1202" fill="#FFFFFF"></path>
                <path d="M59.896,35.2408 L62.125,35.2408 L62.125,36.1458 L62.244,36.1458 C62.731,35.4318 63.244,35.0978 63.97,35.0978 C65.246,35.0978 66.138,36.1338 66.138,37.5518 L66.138,41.3888 L63.912,41.3888 L63.912,37.9688 C63.912,37.3738 63.578,36.9678 63.053,36.9678 C62.528,36.9678 62.125,37.3968 62.125,38.0048 L62.125,41.3888 L59.896,41.3888 L59.896,35.2408 Z" id="Fill-1203" fill="#FFFFFF"></path>
                <path d="M71.5825,38.3146 C71.5825,37.5286 71.0585,36.9566 70.3435,36.9566 C69.6165,36.9566 69.1035,37.5286 69.1035,38.3146 C69.1035,39.0886 69.6165,39.6496 70.3435,39.6496 C71.0585,39.6496 71.5825,39.0886 71.5825,38.3146 M66.8885,42.0316 L69.0325,41.7336 C69.1765,42.2566 69.6295,42.5786 70.2245,42.5786 C70.9985,42.5786 71.4865,42.0546 71.4865,41.2686 L71.4865,40.6366 L71.3675,40.6366 C70.9155,41.1496 70.3535,41.4356 69.5815,41.4356 C67.9725,41.4356 66.8655,40.2326 66.8655,38.3146 C66.8655,36.2776 67.9615,35.0986 69.5695,35.0986 C70.4155,35.0986 70.9985,35.4196 71.4505,36.0036 L71.5705,36.0036 L71.5705,35.2406 L73.7155,35.2406 L73.7155,41.3526 C73.7155,43.2096 72.4165,44.2826 70.3315,44.2826 C68.4015,44.2826 67.1155,43.4846 66.8885,42.0316" id="Fill-1204" fill="#FFFFFF"></path>
                <polygon id="Fill-1205" fill="#FFFFFF" points="9.7271 44.7706 16.2921 44.7706 16.2921 46.7486 12.1571 46.7486 12.1571 48.1786 16.0641 48.1786 16.0641 49.8096 12.1571 49.8096 12.1571 51.3226 16.4101 51.3226 16.4101 53.3006 9.7271 53.3006"></polygon>
                <path d="M21.7466,50.2272 C21.7466,49.4532 21.2236,48.8692 20.5086,48.8692 C19.7806,48.8692 19.2686,49.4532 19.2686,50.2272 C19.2686,51.0022 19.7806,51.5852 20.5086,51.5852 C21.2236,51.5852 21.7466,51.0022 21.7466,50.2272 M17.0296,50.2272 C17.0296,48.2742 18.1376,46.9982 19.7456,46.9982 C20.5316,46.9982 21.1276,47.3082 21.5316,47.8682 L21.6516,47.8682 L21.6516,44.4142 L23.8806,44.4142 L23.8806,53.3012 L21.6516,53.3012 L21.6516,52.5862 L21.5316,52.5862 C21.1276,53.1462 20.5566,53.4562 19.7586,53.4562 C18.1266,53.4562 17.0296,52.2052 17.0296,50.2272" id="Fill-1206" fill="#FFFFFF"></path>
                <path d="M31.0991,53.3009 L28.8701,53.3009 L28.8701,52.3959 L28.7511,52.3959 C28.2641,53.1229 27.7501,53.4439 27.0251,53.4439 C25.7491,53.4439 24.8571,52.4189 24.8571,50.9899 L24.8571,47.1529 L27.0831,47.1529 L27.0831,50.5729 C27.0831,51.1679 27.4171,51.5849 27.9421,51.5849 C28.4661,51.5849 28.8701,51.1569 28.8701,50.5369 L28.8701,47.1529 L31.0991,47.1529 L31.0991,53.3009 Z" id="Fill-1207" fill="#FFFFFF"></path>
                <path d="M31.897,50.2272 C31.897,48.2492 33.267,46.9982 35.315,46.9982 C37.079,46.9982 38.366,47.9162 38.556,49.4532 L36.495,49.7142 C36.376,49.1672 35.887,48.7852 35.351,48.7852 C34.649,48.7852 34.126,49.3812 34.126,50.2272 C34.126,51.0732 34.637,51.6692 35.34,51.6692 C35.899,51.6692 36.376,51.2872 36.495,50.7512 L38.556,51.0022 C38.353,52.5382 37.067,53.4562 35.315,53.4562 C33.303,53.4562 31.897,52.1802 31.897,50.2272" id="Fill-1208" fill="#FFFFFF"></path>
                <path d="M43.0952,51.0011 L43.0952,50.6321 L42.1062,50.7751 C41.4502,50.8581 41.1892,51.1081 41.1892,51.4661 C41.1892,51.8471 41.4752,52.0971 41.9632,52.0971 C42.6302,52.0971 43.0952,51.6321 43.0952,51.0011 M39.0452,51.6801 C39.0452,50.4881 40.0102,49.8571 42.0222,49.5841 L43.0952,49.4521 L43.0952,49.1781 C43.0952,48.7261 42.7972,48.4161 42.2832,48.4161 C41.7962,48.4161 41.4502,48.7261 41.4502,49.2491 L39.2932,49.2491 C39.2932,47.8791 40.4752,46.9991 42.3092,46.9991 C44.1322,46.9991 45.3342,47.8791 45.3342,49.2621 L45.3342,53.3001 L43.0952,53.3001 L43.0952,52.5731 L42.9762,52.5731 C42.6302,53.1451 41.8922,53.4431 41.0942,53.4431 C39.8792,53.4431 39.0452,52.7991 39.0452,51.6801" id="Fill-1209" fill="#FFFFFF"></path>
                <path d="M46.728,51.0846 L46.728,48.7376 L45.943,48.7376 L45.943,47.1536 L46.812,47.1536 L47.216,45.2356 L48.968,45.2356 L48.968,47.1536 L50.254,47.1536 L50.254,48.7376 L48.968,48.7376 L48.968,50.9776 C48.968,51.4536 49.253,51.7756 49.696,51.7756 C49.862,51.7756 50.099,51.7406 50.291,51.6926 L50.291,53.2406 C49.897,53.3836 49.326,53.4546 48.944,53.4546 C47.598,53.4546 46.728,52.5026 46.728,51.0846" id="Fill-1210" fill="#FFFFFF"></path>
                <path d="M51.112,53.301 L53.341,53.301 L53.341,47.153 L51.112,47.153 L51.112,53.301 Z M50.958,45.26 C50.958,44.545 51.494,44.044 52.22,44.044 C52.971,44.044 53.495,44.545 53.495,45.26 C53.495,45.975 52.971,46.487 52.22,46.487 C51.494,46.487 50.958,45.975 50.958,45.26 Z" id="Fill-1211" fill="#FFFFFF"></path>
                <path d="M58.8794,50.2272 C58.8794,49.4292 58.3664,48.8692 57.6404,48.8692 C56.9014,48.8692 56.4014,49.4292 56.4014,50.2272 C56.4014,51.0252 56.9014,51.5852 57.6404,51.5852 C58.3664,51.5852 58.8794,51.0252 58.8794,50.2272 M54.1614,50.2272 C54.1614,48.2142 55.5084,46.9982 57.6404,46.9982 C59.7494,46.9982 61.1084,48.2262 61.1084,50.2272 C61.1084,52.2412 59.7494,53.4562 57.6404,53.4562 C55.5214,53.4562 54.1614,52.2282 54.1614,50.2272" id="Fill-1212" fill="#FFFFFF"></path>
                <path d="M61.894,47.1539 L64.122,47.1539 L64.122,48.0589 L64.241,48.0589 C64.729,47.3449 65.241,47.0109 65.968,47.0109 C67.243,47.0109 68.136,48.0469 68.136,49.4649 L68.136,53.3019 L65.909,53.3019 L65.909,49.8819 C65.909,49.2869 65.575,48.8809 65.049,48.8809 C64.526,48.8809 64.122,49.3099 64.122,49.9179 L64.122,53.3019 L61.894,53.3019 L61.894,47.1539 Z" id="Fill-1213" fill="#FFFFFF"></path>
                <polygon id="Fill-1176" fill="#FFFFFF" points="9.0366 9.0323 11.7276 9.0323 14.5276 14.3213 14.6466 14.3213 14.6466 9.0323 16.9946 9.0323 16.9946 17.5613 14.3026 17.5613 11.5026 12.2843 11.3836 12.2843 11.3836 17.5613 9.0366 17.5613"></polygon>
            </g>
        </g>
    </g>
</svg>
