<svg xmlns="http://www.w3.org/2000/svg" width="271px" height="97px" viewBox="0 0 271 97" version="1.1"><title>logo</title><description>Created with Sketch (http://www.bohemiancoding.com/sketch)</description><defs><linearGradient x1="13.9000339%" y1="69.4210132%" x2="106.615699%" y2="23.5862735%" id="linearGradient-1"><stop stop-color="#0099DA" offset="0%"/><stop stop-color="#0079B5" offset="22.14%"/><stop stop-color="#004F8A" offset="59.78%"/><stop stop-color="#1D3473" offset="86.67%"/><stop stop-color="#22296C" offset="100%"/></linearGradient><linearGradient x1="117.418963%" y1="27.7255636%" x2="12.9077022%" y2="65.040729%" id="linearGradient-2"><stop stop-color="#A6CE39" offset="0%"/><stop stop-color="#A1C939" offset="20.97%"/><stop stop-color="#93BE39" offset="37.85%"/><stop stop-color="#7EAE3A" offset="53.3%"/><stop stop-color="#619B3A" offset="67.91%"/><stop stop-color="#3B8438" offset="81.91%"/><stop stop-color="#006C33" offset="95.28%"/><stop stop-color="#006330" offset="100%"/></linearGradient></defs><g id="Page-1" stroke="none" stroke-width="1" fill="none" fill-rule="evenodd"><g id="logo" transform="translate(-1.000000, -1.000000)"><path d="M96.566 40.166L91.545 32.441C90.948 32.466 90.189 32.466 89.646 32.466 88.642 32.466 87.502 32.466 86.689 32.441L86.689 40.166 84.87 40.166 84.87 21.222C86.797 21.145 87.909 21.119 89.592 21.119 94.341 21.119 97.542 22.292 97.542 26.601L97.542 26.805C97.542 29.865 96.104 31.394 93.473 32.082L98.71 40.165 96.566 40.165 96.566 40.165 96.566 40.166 96.566 40.166ZM95.699 26.602C95.699 23.492 93.69 22.65 89.593 22.65 88.698 22.65 87.613 22.7 86.69 22.726L86.69 30.936C87.586 30.962 88.643 30.962 89.647 30.962 93.798 30.962 95.699 29.916 95.699 26.806L95.699 26.602 95.699 26.602 95.699 26.602 95.699 26.602ZM95.699 26.602" id="Shape" fill="#000000"/><path d="M108.345 40.497C103.515 40.497 100.72 37.693 100.72 31.701L100.72 29.712C100.72 23.72 103.515 20.917 108.345 20.917 113.148 20.917 115.943 23.721 115.943 29.712L115.943 31.701C115.942 37.693 113.147 40.497 108.345 40.497L108.345 40.497 108.345 40.497 108.345 40.497ZM114.125 29.712C114.125 24.231 111.709 22.446 108.345 22.446 104.952 22.446 102.538 24.231 102.538 29.712L102.538 31.701C102.538 37.182 104.98 38.968 108.345 38.968 111.71 38.968 114.125 37.183 114.125 31.701L114.125 29.712 114.125 29.712 114.125 29.712 114.125 29.712ZM114.125 29.712" id="Shape" fill="#000000"/><path d="M125.269 32.517L125.269 40.166 123.45 40.166 123.45 32.517 116.938 21.223 118.919 21.223 122.99 28.285C123.423 29.076 123.967 30.019 124.345 30.886L124.454 30.886C124.834 30.044 125.431 29.076 125.866 28.285L129.908 21.223 131.78 21.223 125.269 32.517 125.269 32.517 125.269 32.517 125.269 32.517ZM125.269 32.517" id="Shape" fill="#000000"/><path d="M144.834 40.166L142.475 33.46 134.823 33.46 132.436 40.166 130.591 40.166 137.428 21.222 139.951 21.222 146.763 40.166 144.834 40.166 144.834 40.166 144.834 40.166 144.834 40.166ZM139.625 25.556C139.272 24.588 139.001 23.669 138.758 22.625L138.567 22.625C138.296 23.669 138.026 24.588 137.699 25.556L135.366 31.906 141.905 31.906 139.625 25.556 139.625 25.556 139.625 25.556 139.625 25.556ZM139.625 25.556" id="Shape" fill="#000000"/><path d="M149.588 40.166L149.588 21.222 151.403 21.222 151.403 38.661 161.008 38.661 161.008 40.165 149.588 40.165 149.588 40.165 149.588 40.166 149.588 40.166ZM149.588 40.166" id="Shape" fill="#000000"/><path d="M97.759 64.016L95.398 57.311 87.747 57.311 85.359 64.016 83.514 64.016 90.352 45.073 92.874 45.073 99.684 64.016 97.759 64.016 97.759 64.016 97.759 64.016 97.759 64.016ZM92.549 49.408C92.196 48.439 91.926 47.52 91.681 46.476L91.491 46.476C91.22 47.52 90.949 48.439 90.623 49.408L88.289 55.756 94.829 55.756 92.549 49.408 92.549 49.408 92.549 49.408 92.549 49.408ZM92.549 49.408" id="Shape" fill="#000000"/><path d="M109.168 64.349C104.365 64.349 101.245 62.309 101.245 55.628L101.245 53.461C101.245 46.806 104.365 44.766 109.168 44.766 111.177 44.766 113.075 45.047 113.862 45.175L113.862 46.577C112.342 46.399 110.904 46.297 109.168 46.297 105.017 46.297 103.064 48.183 103.064 53.461L103.064 55.628C103.064 60.906 105.018 62.819 109.168 62.819 110.959 62.819 112.505 62.715 113.862 62.538L113.862 63.965C113.184 64.067 111.258 64.349 109.168 64.349L109.168 64.349 109.168 64.349 109.168 64.349ZM109.168 64.349" id="Shape" fill="#000000"/><path d="M129.836 64.016L127.475 57.311 119.824 57.311 117.436 64.016 115.591 64.016 122.428 45.073 124.952 45.073 131.762 64.016 129.836 64.016 129.836 64.016 129.836 64.016 129.836 64.016ZM124.625 49.408C124.272 48.439 124.001 47.52 123.757 46.476L123.568 46.476C123.297 47.52 123.026 48.439 122.7 49.408L120.366 55.756 126.906 55.756 124.625 49.408 124.625 49.408 124.625 49.408 124.625 49.408ZM124.625 49.408" id="Shape" fill="#000000"/><path d="M140.015 64.119C137.736 64.119 136.567 64.067 134.588 64.015L134.588 45.072C136.759 45.022 137.52 44.996 140.015 44.996 146.067 44.996 148.671 47.929 148.671 53.409L148.671 55.654C148.671 61.136 146.202 64.119 140.015 64.119L140.015 64.119 140.015 64.119 140.015 64.119ZM146.853 53.409C146.853 48.285 144.466 46.526 139.879 46.526 138.524 46.526 137.464 46.551 136.405 46.576L136.405 62.51C137.438 62.562 138.605 62.614 139.879 62.614 144.466 62.614 146.853 60.779 146.853 55.654L146.853 53.409 146.853 53.409 146.853 53.409 146.853 53.409ZM146.853 53.409" id="Shape" fill="#000000"/><path d="M152.207 64.016L152.207 45.072 163.821 45.072 163.821 46.603 154.025 46.603 154.025 53.359 163.17 53.359 163.17 54.914 154.025 54.914 154.025 62.511 163.821 62.511 163.821 64.016 152.207 64.016 152.207 64.016 152.207 64.016 152.207 64.016ZM152.207 64.016" id="Shape" fill="#000000"/><path d="M182.676 64.016L182.676 50.274C182.676 49.152 182.731 48.387 182.784 47.315L182.73 47.315C182.294 48.208 181.834 48.998 181.374 49.84L177.167 57.284 174.888 57.284 170.738 49.84C170.301 48.998 169.842 48.156 169.381 47.315L169.327 47.315C169.381 48.387 169.408 49.126 169.408 50.274L169.408 64.015 167.616 64.015 167.616 45.072 170.005 45.072 174.809 53.766C175.215 54.507 175.622 55.295 176.002 56.036L176.056 56.036C176.436 55.271 176.869 54.48 177.25 53.742L182.107 45.072 184.466 45.072 184.466 64.015 182.676 64.015 182.676 64.015 182.676 64.016 182.676 64.016ZM182.676 64.016" id="Shape" fill="#000000"/><path d="M195.833 56.368L195.833 64.015 194.015 64.015 194.015 56.368 187.505 45.072 189.485 45.072 193.553 52.135C193.989 52.925 194.531 53.868 194.911 54.735L195.018 54.735C195.399 53.893 195.996 52.925 196.428 52.135L200.472 45.072 202.345 45.072 195.833 56.368 195.833 56.368 195.833 56.368 195.833 56.368ZM195.833 56.368" id="Shape" fill="#000000"/><path d="M217.646 64.349C212.816 64.349 210.022 61.544 210.022 55.552L210.022 53.564C210.022 47.572 212.816 44.767 217.646 44.767 222.449 44.767 225.243 47.572 225.243 53.564L225.243 55.552C225.243 61.544 222.449 64.349 217.646 64.349L217.646 64.349 217.646 64.349 217.646 64.349ZM223.425 53.563C223.425 48.081 221.009 46.296 217.646 46.296 214.254 46.296 211.838 48.08 211.838 53.563L211.838 55.551C211.838 61.033 214.28 62.819 217.646 62.819 221.009 62.819 223.425 61.034 223.425 55.551L223.425 53.563 223.425 53.563 223.425 53.563 223.425 53.563ZM223.425 53.563" id="Shape" fill="#000000"/><path d="M230.825 46.604L230.825 53.36 239.97 53.36 239.97 54.915 230.825 54.915 230.825 64.017 229.006 64.017 229.006 45.072 240.62 45.072 240.62 46.603 230.825 46.603 230.825 46.603 230.825 46.604 230.825 46.604ZM230.825 46.604" id="Shape" fill="#000000"/><path d="M84.87 89.091L84.87 68.93 98.6 68.93 98.6 72.62 89.944 72.62 89.944 77.017 98.03 77.017 98.03 80.516 89.944 80.516 89.944 85.427 98.6 85.427 98.6 89.09 84.87 89.09 84.87 89.09 84.87 89.091 84.87 89.091ZM84.87 89.091" id="Shape" fill="#000000"/><path d="M113.964 89.091L108.131 78.617C107.641 77.748 107.127 76.746 106.72 75.848L106.666 75.848C106.693 76.907 106.746 78.02 106.746 79.105L106.746 89.09 102.133 89.09 102.133 68.93 107.317 68.93 113.204 79.215C113.693 80.081 114.237 81.167 114.642 82.062L114.697 82.062C114.642 81.115 114.615 79.838 114.615 78.618L114.615 68.93 119.228 68.93 119.228 89.091 113.964 89.091 113.964 89.091 113.964 89.091 113.964 89.091ZM113.964 89.091" id="Shape" fill="#000000"/><path d="M131.435 89.553C126.634 89.553 122.536 87.869 122.536 80.192L122.536 77.804C122.536 69.718 127.149 68.496 131.545 68.496 134.529 68.496 137.651 68.984 138.602 69.229L138.602 72.673C137.19 72.593 134.123 72.429 132.495 72.429 129.348 72.429 127.557 73.082 127.557 77.803L127.557 80.191C127.557 84.504 128.859 85.617 131.654 85.617 132.467 85.617 133.308 85.617 133.959 85.563L133.959 78.209 138.682 78.209 138.682 88.901C137.271 89.171 134.447 89.553 131.435 89.553L131.435 89.553 131.435 89.553 131.435 89.553ZM131.435 89.553" id="Shape" fill="#000000"/><path d="M142.316 89.091L142.316 68.93 147.389 68.93 147.389 89.091 142.316 89.091 142.316 89.091 142.316 89.091 142.316 89.091ZM142.316 89.091" id="Shape" fill="#000000"/><path d="M162.951 89.091L157.119 78.617C156.631 77.748 156.114 76.746 155.708 75.848L155.652 75.848C155.68 76.907 155.734 78.02 155.734 79.105L155.734 89.09 151.122 89.09 151.122 68.93 156.305 68.93 162.193 79.215C162.68 80.081 163.223 81.167 163.631 82.062L163.684 82.062C163.631 81.115 163.604 79.838 163.604 78.618L163.604 68.93 168.217 68.93 168.217 89.091 162.951 89.091 162.951 89.091 162.951 89.091 162.951 89.091ZM162.951 89.091" id="Shape" fill="#000000"/><path d="M171.912 89.091L171.912 68.93 185.642 68.93 185.642 72.62 176.987 72.62 176.987 77.017 185.073 77.017 185.073 80.516 176.987 80.516 176.987 85.427 185.642 85.427 185.642 89.09 171.912 89.09 171.912 89.09 171.912 89.091 171.912 89.091ZM171.912 89.091" id="Shape" fill="#000000"/><path d="M189.212 89.091L189.212 68.93 202.941 68.93 202.941 72.62 194.286 72.62 194.286 77.017 202.371 77.017 202.371 80.516 194.286 80.516 194.286 85.427 202.941 85.427 202.941 89.09 189.212 89.09 189.212 89.09 189.212 89.091 189.212 89.091ZM189.212 89.091" id="Shape" fill="#000000"/><path d="M218.625 89.091L214.5 81.9 211.459 81.9 211.459 89.09 206.575 89.09 206.575 68.93C208.584 68.824 210.592 68.687 213.088 68.687 218.162 68.687 222.449 69.663 222.449 75.2L222.449 75.389C222.449 78.374 221.255 79.974 219.248 80.95L223.752 89.092 218.625 89.092 218.625 89.092 218.625 89.091 218.625 89.091ZM217.54 75.279C217.54 73 216.237 72.484 213.252 72.484 212.601 72.484 212.112 72.484 211.46 72.512L211.46 78.373 213.305 78.373C216.319 78.373 217.54 77.667 217.54 75.47L217.54 75.279 217.54 75.279 217.54 75.279 217.54 75.279ZM217.54 75.279" id="Shape" fill="#000000"/><path d="M225.729 89.091L225.729 68.93 230.804 68.93 230.804 89.091 225.729 89.091 225.729 89.091 225.729 89.091 225.729 89.091ZM225.729 89.091" id="Shape" fill="#000000"/><path d="M246.365 89.091L240.531 78.617C240.044 77.748 239.527 76.746 239.12 75.848L239.068 75.848C239.093 76.907 239.147 78.02 239.147 79.105L239.147 89.09 234.534 89.09 234.534 68.93 239.717 68.93 245.606 79.215C246.095 80.081 246.637 81.167 247.045 82.062L247.098 82.062C247.045 81.115 247.017 79.838 247.017 78.618L247.017 68.93 251.63 68.93 251.63 89.091 246.365 89.091 246.365 89.091 246.365 89.091 246.365 89.091ZM246.365 89.091" id="Shape" fill="#000000"/><path d="M263.902 89.553C259.1 89.553 255.002 87.869 255.002 80.192L255.002 77.804C255.002 69.718 259.614 68.496 264.01 68.496 266.995 68.496 270.115 68.984 271.065 69.229L271.065 72.673C269.656 72.593 266.588 72.429 264.96 72.429 261.814 72.429 260.022 73.082 260.022 77.803L260.022 80.191C260.022 84.504 261.325 85.617 264.12 85.617 264.933 85.617 265.775 85.617 266.426 85.563L266.426 78.209 271.148 78.209 271.148 88.901C269.736 89.171 266.914 89.553 263.902 89.553L263.902 89.553 263.902 89.553 263.902 89.553ZM263.902 89.553" id="Shape" fill="#000000"/><path d="M69.333 23.858C68.958 16.185 65.783 10.156 60.24 6.304 54.896 2.593 47.297 0.634 38.418 1.056 28.186 1.547 19.62 4.946 13.068 9.969 4.886 16.242 0.744 25.365 1.012 36.086 1.523 56.397 14.415 74.488 21.041 82.448 26.024 88.436 36.407 98.414 45.593 97.862 53.056 97.413 56.092 90.713 59.06 81.927 64.379 66.187 70.096 39.429 69.333 23.858 69.333 23.858 70.096 39.429 69.333 23.858L69.333 23.858 69.333 23.858ZM51.513 72.167C49.861 77.515 48.21 82.199 44.964 82.592 40.669 83.113 35.577 77.418 32.627 72.783 29.175 67.363 23.445 56.674 22.498 41.826 21.479 25.914 32.79 17.696 41.41 16.75 50.36 15.768 57.319 21.818 57.984 32.214 58.566 41.328 54.871 61.283 51.513 72.167 51.513 72.167 54.871 61.283 51.513 72.167L51.513 72.167 51.513 72.167ZM51.513 72.167" id="Shape" fill="url(#linearGradient-1)"/><g id="Group" transform="translate(17.000000, 4.000000)"><path d="M44.337 18.226C43.367-3.224 11.492-4.503 3.67 10.813 -5.266 28.309 6.223 53.954 15.428 69.356 28.686 91.531 38.115 94.862 41.558 67.39 43.566 51.375 45.074 34.547 44.337 18.226M34.292 67.726C32.672 72.968 31.054 77.561 27.872 77.946 23.661 78.456 18.669 72.874 15.776 68.33 12.392 63.017 6.775 52.537 5.846 37.98 4.846 22.379 15.935 14.323 24.387 13.396 33.161 12.433 39.984 18.365 40.636 28.557 41.207 37.491 37.584 57.055 34.292 67.726" id="Shape" fill="#A6CE39"/><path d="M5.783 36.032C5.784 21.707 16.294 14.282 24.387 13.395 25.008 13.327 25.619 13.293 26.219 13.293 34.096 13.293 40.03 19.085 40.636 28.556 40.676 29.189 40.696 29.874 40.696 30.607 40.696 40.217 37.351 57.811 34.292 67.726 32.672 72.968 31.054 77.561 27.872 77.946 27.691 77.968 27.509 77.979 27.326 77.979 23.237 77.979 18.545 72.678 15.777 68.33 12.393 63.017 6.776 52.537 5.847 37.98 5.804 37.317 5.783 36.668 5.783 36.032M23.313 0.539C15.23 0.539 7.115 4.065 3.669 10.813 1.391 15.272 0.44 20.261 0.441 25.475 0.441 40.717 8.568 57.88 15.427 69.356 22.147 80.595 27.884 86.995 32.355 86.995 36.706 86.995 39.859 80.939 41.557 67.391 43.212 54.192 44.528 40.44 44.526 26.874 44.526 23.98 44.465 21.096 44.336 18.227 43.794 6.226 33.579 0.539 23.313 0.539" id="Shape" fill="url(#linearGradient-2)"/></g></g></g></svg>