<?xml version="1.0" encoding="utf-8"?>
<!-- Generator: Adobe Illustrator 25.4.1, SVG Export Plug-In . SVG Version: 6.00 Build 0)  -->
<svg version="1.1" xmlns="http://www.w3.org/2000/svg" xmlns:xlink="http://www.w3.org/1999/xlink" x="0px" y="0px"
	 viewBox="0 0 410 410" style="enable-background:new 0 0 410 410;" xml:space="preserve">
<style type="text/css">
	.st0{fill:#007FA2;}
	.st1{fill:#E7E5E5;}
	.st2{fill:#CECECD;}
	.st3{fill:#A94F91;}
	.st4{fill:#EA5645;}
	.st5{fill:#FFC23A;}
	.st6{fill:#D13431;}
	.st7{fill:#F9A431;}
	.st8{fill:#22B1B6;}
	.st9{fill:#EF3054;}
	.st10{fill:#933E81;}
	.st11{opacity:0.2;fill:#334078;}
	.st12{fill:#C7CFE0;}
	.st13{fill:#A3A7C1;}
	.st14{fill:#F4F7F9;}
	.st15{opacity:0.4;fill:none;stroke:#000000;stroke-width:0.5152;stroke-miterlimit:10;}
	.st16{opacity:0.7;}
	.st17{fill:none;stroke:#C7CFE0;stroke-width:2.2902;stroke-miterlimit:10;}
	.st18{opacity:0.1;}
	.st19{fill:#333448;}
	.st20{fill:#767893;}
	.st21{opacity:0;clip-path:url(#SVGID_00000032638911581437926250000001375631879681060024_);fill:#5A5CA6;}
	.st22{opacity:0;clip-path:url(#SVGID_00000032638911581437926250000001375631879681060024_);fill:#B24B8C;}
	.st23{opacity:0.1;fill:#FFFFFF;}
	.st24{fill:#232533;}
	.st25{fill:#4FA88B;}
	.st26{fill:#F5F5F5;}
	.st27{opacity:0.25;clip-path:url(#SVGID_00000093172550204872701170000007769095239586707841_);}
	.st28{fill:#606060;}
	.st29{opacity:0.15;}
	.st30{fill:#FFFFFF;}
	.st31{fill:#A3A5B5;}
	.st32{fill:#DB2835;}
	.st33{fill:#E6A614;}
	.st34{opacity:0.25;}
	.st35{fill:none;stroke:#A94F91;stroke-width:0.32;stroke-miterlimit:10;}
	.st36{fill:#616162;}
	.st37{opacity:0.5;}
	.st38{fill:#B24B8C;}
	.st39{fill:#5A5CA6;}
	.st40{clip-path:url(#SVGID_00000106120588754596823300000010547689969938823846_);fill:#B24B8C;}
	.st41{clip-path:url(#SVGID_00000145747739456496057840000005491698089663977885_);fill:#5A5CA6;}
	.st42{clip-path:url(#SVGID_00000096061095668718412280000002162540208298764459_);}
	.st43{clip-path:url(#SVGID_00000023268900259930202540000000708094643448427164_);}
	.st44{clip-path:url(#SVGID_00000013169334118636041540000007343840642676813442_);fill:#221E20;}
	.st45{clip-path:url(#SVGID_00000122717229060089491990000004900498563330434975_);}
	
		.st46{clip-path:url(#SVGID_00000027606432971533252190000005129706225256302259_);fill-rule:evenodd;clip-rule:evenodd;fill:#5A5CA6;}
	.st47{fill:#D2D2DB;}
	.st48{clip-path:url(#SVGID_00000169521695568860279770000002793684477421348240_);}
	.st49{clip-path:url(#SVGID_00000139282391160250708510000014089189218276279703_);}
	.st50{clip-path:url(#SVGID_00000134250345433438377710000012111810214207163809_);}
	.st51{fill-rule:evenodd;clip-rule:evenodd;fill:#A5C73F;}
	.st52{clip-path:url(#SVGID_00000113335764750544602290000013689555134795198375_);}
	.st53{clip-path:url(#SVGID_00000170239165892416219160000016212744407298588346_);}
	.st54{clip-path:url(#SVGID_00000178895890286620794550000004302983267586655388_);}
	.st55{fill:#FAF6F1;}
	.st56{fill:#FCFBFA;}
	.st57{fill:#FAFCF6;}
	.st58{fill:#FCFDFD;}
	.st59{fill:#FCFDFB;}
	.st60{fill:#FFFFFE;}
	.st61{fill:#FDFDFB;}
	.st62{fill:#F9F8F3;}
	.st63{opacity:0.2;fill:none;stroke:#FFFFFF;stroke-width:15.6277;stroke-miterlimit:10;}
	.st64{fill:#F47D30;}
	.st65{fill:#F57D30;}
	.st66{fill:#F57E32;}
	.st67{filter:url(#Adobe_OpacityMaskFilter);}
	.st68{mask:url(#SVGID_00000175294334394247965410000005288022009422753677_);}
	.st69{fill:#261B1B;}
	.st70{fill:#5F76C1;}
	.st71{fill:#7C4848;}
	.st72{fill:#D33C39;}
	.st73{fill:#E0E0E0;}
	.st74{fill:#A1C2D6;}
	.st75{fill:#4E5A82;}
	.st76{fill:#935858;}
	.st77{fill:none;stroke:#1F0000;stroke-width:1.198;stroke-linecap:round;stroke-linejoin:round;stroke-miterlimit:10;}
	.st78{clip-path:url(#SVGID_00000080194877699671327580000010263338455560707974_);fill:#261B1B;}
	.st79{fill:#111111;}
	.st80{fill:none;stroke:#E0E0E0;stroke-width:1.5034;stroke-linecap:round;stroke-linejoin:round;stroke-miterlimit:10;}
	.st81{fill:#FF8F76;}
	.st82{fill:#AD4C32;}
	.st83{fill:#1C1E26;}
	.st84{fill:#F76A52;}
	.st85{fill:#EDEEEF;}
	.st86{fill:#D4DADD;}
	.st87{fill:#8C3726;}
	.st88{fill:#101011;}
	.st89{fill:none;stroke:#000000;stroke-width:0.8645;stroke-linecap:round;stroke-linejoin:round;stroke-miterlimit:10;}
	.st90{fill:none;stroke:#D4DADD;stroke-width:1.2445;stroke-linecap:round;stroke-linejoin:round;stroke-miterlimit:10;}
	.st91{fill:none;stroke:#D4DADD;stroke-width:2.5;stroke-miterlimit:10;}
	.st92{filter:url(#Adobe_OpacityMaskFilter_00000063598697881897618510000011237909885921512326_);}
	.st93{mask:url(#SVGID_00000128484082592664675570000017466855949852838078_);}
	.st94{fill:url(#SVGID_00000045604129458132800170000011214601381140325768_);}
	.st95{fill:#FCFCFC;}
	.st96{fill:#5F2D1C;}
	.st97{fill:#FEA899;}
	.st98{clip-path:url(#SVGID_00000139991829508645882050000014409599757914062752_);fill:#EA7E73;}
	.st99{fill:#D1736B;}
	.st100{fill:#262222;}
	.st101{clip-path:url(#SVGID_00000148635791654896580420000000063118010300016522_);}
	.st102{fill:#B24653;}
	.st103{fill:none;stroke:#222226;stroke-width:1.4237;stroke-linecap:round;stroke-miterlimit:10;}
	.st104{fill:none;stroke:#222226;stroke-width:2.0339;stroke-linecap:round;stroke-linejoin:round;stroke-miterlimit:10;}
	.st105{fill:#32170E;}
	.st106{fill:#DECCC3;}
	.st107{fill:#EA7E73;}
	.st108{fill:#FFFCFF;}
	.st109{fill:#D1CDD3;}
	.st110{opacity:0.5;fill:#6D6D6D;}
	.st111{fill:#6D6D6D;}
	.st112{clip-path:url(#SVGID_00000144303578672211077650000007072143436563115193_);}
	.st113{fill-rule:evenodd;clip-rule:evenodd;fill:#036789;}
	.st114{fill-rule:evenodd;clip-rule:evenodd;fill:#FFFFFF;}
	.st115{fill-rule:evenodd;clip-rule:evenodd;fill:#C0384F;}
	.st116{fill-rule:evenodd;clip-rule:evenodd;fill:#FDBF08;}
	.st117{fill-rule:evenodd;clip-rule:evenodd;fill:#73D6D9;}
	.st118{fill-rule:evenodd;clip-rule:evenodd;fill:#9DE8EB;}
	.st119{fill-rule:evenodd;clip-rule:evenodd;fill:#FDDE80;}
	.st120{fill:#AFAEB4;}
	.st121{fill:#C2C3CA;}
	.st122{fill:#FD354D;}
	.st123{fill:#86D008;}
	.st124{filter:url(#Adobe_OpacityMaskFilter_00000007391710885467582170000006452392005371637436_);}
	.st125{mask:url(#SVGID_00000157289447240998273500000002687590769400245423_);}
	.st126{fill:#1F2021;}
	.st127{fill:#754646;}
	.st128{fill:#F2EEED;}
	.st129{fill:none;stroke:#D1CAC9;stroke-width:3.1019;stroke-linecap:round;stroke-linejoin:round;stroke-miterlimit:10;}
	.st130{fill:#442A28;}
	.st131{fill:none;stroke:#1F0000;stroke-width:1.8095;stroke-linecap:round;stroke-linejoin:round;stroke-miterlimit:10;}
	.st132{clip-path:url(#SVGID_00000078035953138710239880000018296876866752780455_);fill:#442A28;}
	.st133{fill:none;stroke:#1F0000;stroke-width:3.5087;stroke-linecap:round;stroke-linejoin:round;stroke-miterlimit:10;}
	.st134{filter:url(#Adobe_OpacityMaskFilter_00000093868600967717818390000004182352055542436224_);}
	.st135{mask:url(#SVGID_00000098197597757433504410000010761345437995021470_);}
	.st136{fill:#EFB09A;}
	.st137{fill:#F2AB8F;}
	.st138{fill:none;}
	.st139{fill:#A56358;}
	.st140{fill:#A56055;}
	.st141{fill:#BA7263;}
	.st142{fill:#F7C1B2;}
	.st143{fill:#435277;}
	.st144{fill:#95A4B1;}
	.st145{fill:#797D9B;}
	.st146{fill:#C3D2D7;}
	.st147{fill:#A3A8BD;}
	.st148{fill:#C971B6;}
	.st149{fill:#4794BA;}
	.st150{fill:#D8877C;}
	.st151{fill:#111114;}
	.st152{fill:#006BFF;}
	.st153{fill:#FF9283;}
	.st154{fill:#525E6D;}
	.st155{fill:none;stroke:#ADBFC4;stroke-width:0.5729;stroke-linecap:round;stroke-linejoin:round;stroke-miterlimit:10;}
	.st156{fill:none;stroke:#39424C;stroke-width:0.5729;stroke-linecap:round;stroke-linejoin:round;stroke-miterlimit:10;}
	.st157{fill:none;stroke:#1C1C1B;stroke-width:0.5729;stroke-linecap:round;stroke-linejoin:round;stroke-miterlimit:10;}
	.st158{fill:#252633;}
	.st159{fill:#365E9E;}
	.st160{fill:none;stroke:#D1CAC9;stroke-width:0.6374;stroke-linecap:round;stroke-linejoin:round;stroke-miterlimit:10;}
	.st161{fill:none;stroke:#274672;stroke-width:0.5729;stroke-linecap:round;stroke-linejoin:round;stroke-miterlimit:10;}
	.st162{fill:none;stroke:#1F0000;stroke-width:0.3718;stroke-linecap:round;stroke-linejoin:round;stroke-miterlimit:10;}
	.st163{clip-path:url(#SVGID_00000027577885243369388700000016845380605420312507_);fill:#261B1B;}
	.st164{fill:none;stroke:#1F0000;stroke-width:0.721;stroke-linecap:round;stroke-linejoin:round;stroke-miterlimit:10;}
	.st165{fill:#1B1B21;}
	.st166{fill:#C6726A;}
	.st167{fill:none;stroke:#1F0000;stroke-width:0.3349;stroke-linecap:round;stroke-linejoin:round;stroke-miterlimit:10;}
	.st168{fill:#A04F4D;}
	.st169{fill:none;stroke:#7C3939;stroke-width:0.4156;stroke-linecap:round;stroke-linejoin:round;stroke-miterlimit:10;}
	.st170{fill:none;stroke:#1F0000;stroke-width:0.4263;stroke-linecap:round;stroke-linejoin:round;stroke-miterlimit:10;}
	.st171{fill:#FFCC00;}
	.st172{fill:#FCDC59;}
	.st173{fill:#DA8100;}
	.st174{fill:#F0AA00;}
	.st175{fill:#FFDD4D;}
	.st176{fill:none;stroke:#FFCC00;stroke-linecap:round;stroke-miterlimit:10;}
	.st177{filter:url(#Adobe_OpacityMaskFilter_00000170249334720507067090000001051166662983846026_);}
	.st178{mask:url(#SVGID_00000098206814163154807700000014548531016943863980_);}
	.st179{fill:#F2B1A7;}
	.st180{fill:#E09992;}
	.st181{fill:#394351;}
	.st182{fill:#B4B8BD;}
	.st183{fill:#485666;}
	.st184{fill:#0B8CAA;}
	.st185{fill:#F9EEED;}
	.st186{fill:#141419;}
	.st187{fill:none;stroke:#1F0000;stroke-width:1.1938;stroke-linecap:round;stroke-linejoin:round;stroke-miterlimit:10;}
	.st188{clip-path:url(#SVGID_00000123416509901268267120000010866229833207771315_);fill:#141419;}
	.st189{fill:none;stroke:#111010;stroke-width:1.1938;stroke-linecap:round;stroke-linejoin:round;stroke-miterlimit:10;}
	.st190{clip-path:url(#SVGID_00000114046752877868599710000007448495974867921566_);}
	.st191{fill:#F74962;}
	.st192{fill:#D6A099;}
	.st193{fill:#209AB7;}
	.st194{fill:#C1684D;}
	.st195{fill:#EACDCC;}
	.st196{fill:#C8CACE;}
	.st197{fill:#D0D2D6;}
	.st198{fill:#C1C4C9;}
	.st199{fill:#AEB2B8;}
	.st200{fill:#F2C7C4;}
	.st201{fill:#A55341;}
	.st202{opacity:0.4;clip-path:url(#SVGID_00000154387223335368319130000015878768739107189914_);}
	.st203{fill:#9E453C;}
	.st204{fill:none;stroke:#000000;stroke-width:0.8988;stroke-linecap:round;stroke-linejoin:round;stroke-miterlimit:10;}
	.st205{fill:#281D1B;}
	.st206{fill:#352826;}
	.st207{fill:#7C5B50;}
	.st208{fill:#0F4088;}
	.st209{fill:none;stroke:#E0E0E0;stroke-width:1.563;stroke-linecap:round;stroke-linejoin:round;stroke-miterlimit:10;}
	.st210{fill:#FBB087;}
	.st211{fill:#EE896C;}
	.st212{fill:none;stroke:#000000;stroke-width:0.9073;stroke-linecap:round;stroke-linejoin:round;stroke-miterlimit:10;}
	.st213{opacity:0.22;fill:#FFFFFF;}
	.st214{fill:none;stroke:#000000;stroke-width:2.0467;stroke-linecap:round;stroke-linejoin:round;stroke-miterlimit:10;}
	.st215{filter:url(#Adobe_OpacityMaskFilter_00000132074116926948708710000008317776425420837549_);}
	.st216{mask:url(#SVGID_00000036970465482825766270000001575027647348484522_);}
	.st217{fill:#F2F5F7;}
	.st218{fill:#004ACC;}
	.st219{fill:#331917;}
	.st220{fill:#698DB7;}
	.st221{fill:none;stroke:#000000;stroke-width:1.0622;stroke-linecap:round;stroke-linejoin:round;stroke-miterlimit:10;}
	.st222{fill:#5B322C;}
	.st223{fill:#DB856E;}
	.st224{fill:#CE7563;}
	.st225{fill:none;stroke:#000000;stroke-width:1.0445;stroke-linecap:round;stroke-linejoin:round;stroke-miterlimit:10;}
	.st226{fill:none;stroke:#D86539;stroke-width:1.6667;stroke-miterlimit:10;}
	.st227{fill:#E08C9B;}
	.st228{fill:none;stroke:#000000;stroke-width:1.3171;stroke-linecap:round;stroke-linejoin:round;stroke-miterlimit:10;}
	.st229{fill:#537AA0;}
	.st230{fill:none;stroke:#101011;stroke-width:3.7318;stroke-linecap:round;stroke-linejoin:round;stroke-miterlimit:10;}
	.st231{fill:#2A3544;}
	.st232{fill:#FF6E7A;}
	.st233{fill:none;stroke:#000000;stroke-width:0.9484;stroke-linecap:round;stroke-linejoin:round;stroke-miterlimit:10;}
</style>
<g id="Teaching_Resources__x28_Option_B_x29_">
	<g>
		<g>
			<circle class="st0" cx="205" cy="205" r="203.8"/>
		</g>
		<g>
			<g>
				<path class="st1" d="M154.5,255.1c0,0,9.6,13.5-0.6,24h117.4l0.6-25.6L154.5,255.1z"/>
			</g>
			<g>
				<path class="st2" d="M271.8,269.4c-1.6-1.3-19.8-15.8-115-10c0,0-0.3-2.3-2.5-4.4l115.9-2.8L271.8,269.4z"/>
			</g>
			<g>
				<g>
					<path class="st3" d="M270.3,263.9c0-1,0-2.1,0-3.3c0-5.9-4.3-5.4-4.3-5.4H152.1v-6.8h115c2.4,0,4.1,0.8,5.3,1.9l0,0l0,0
						c0.1,0.1,0.2,0.2,0.3,0.3c0,0,0,0,0,0c0.1,0.1,0.1,0.1,0.2,0.2c2.2,2.4,10.6,13.6,0.9,29.3c-1.1,2.1-3,3.8-6.6,3.8h-115v-6.8
						h113.8c0,0,4.3,0.5,4.3-5.4c0-1.2,0-2.3,0-3.3C270.3,268.1,270.3,266.4,270.3,263.9z"/>
				</g>
			</g>
			<g>
				<path class="st1" d="M133.9,221.4c0,0,9.1,12.8-0.5,22.7h111.2l0.6-24.3L133.9,221.4z"/>
			</g>
			<g>
				<path class="st2" d="M245.1,234.9c-1.5-1.2-18.8-15-109-9.4c0,0-0.3-2.2-2.3-4.1l109.8-2.7L245.1,234.9z"/>
			</g>
			<g>
				<path class="st4" d="M243.6,229.7c0-0.9,0-2,0-3.2c0-5.6-4.1-5.2-4.1-5.2H131.7v-6.4h108.9c2.3,0,3.9,0.7,5,1.8v0l0,0
					c0.1,0.1,0.2,0.2,0.3,0.3c0,0,0,0,0,0c0.1,0.1,0.1,0.1,0.1,0.2c2.1,2.3,10,12.8,0.9,27.7c-1,1.9-2.9,3.6-6.3,3.6H131.7v-6.4
					h107.8c0,0,4.1,0.5,4.1-5.2c0-1.2,0-2.2,0-3.2C243.6,233.7,243.6,232.1,243.6,229.7z"/>
			</g>
			<g>
				<path class="st1" d="M149.9,186.3c0,0,9.6,13.5-0.6,24h117.4l0.6-25.6L149.9,186.3z"/>
			</g>
			<g>
				<path class="st2" d="M267.3,200.6c-1.6-1.3-19.8-15.8-115-10c0,0-0.3-2.3-2.5-4.3l115.9-2.8L267.3,200.6z"/>
			</g>
			<g>
				<path class="st5" d="M265.7,195c0-1,0-2.1,0-3.3c0-5.9-4.3-5.4-4.3-5.4H147.6v-6.8h115c2.4,0,4.1,0.8,5.3,1.9v0l0,0
					c0.1,0.1,0.2,0.2,0.3,0.3c0,0,0,0,0,0c0.1,0.1,0.1,0.1,0.2,0.2c2.2,2.5,10.6,13.6,0.9,29.3c-1.1,2-3,3.8-6.6,3.8h-115v-6.8
					h113.8c0,0,4.3,0.5,4.3-5.4c0-1.2,0-2.3,0-3.3C265.7,199.3,265.7,197.6,265.7,195z"/>
			</g>
			<g>
				<rect x="166.6" y="214.9" class="st6" width="48.7" height="6.4"/>
			</g>
			<g>
				<rect x="167" y="242.1" class="st6" width="48.7" height="6.4"/>
			</g>
			<g>
				<path class="st7" d="M261.4,208.1c0,0,4.3,0.5,4.3-5.4c0-1.2,0-2.3,0-3.3c0,0,0-1.7,0-4.3c0-1,0-2.1,0-3.3
					c0-5.9-4.3-5.4-4.3-5.4h-19.8v-6.8h21c2.4,0,4.1,0.8,5.3,1.9v0l0,0c0.1,0.1,0.2,0.2,0.3,0.3c0,0,0,0,0,0
					c0.1,0.1,0.1,0.1,0.2,0.2c2.2,2.5,10.6,13.6,0.9,29.3c-1.1,2-3,3.8-6.6,3.8h-21v-6.8H261.4z"/>
			</g>
			<g>
				<path class="st8" d="M171.2,232.3c4.3-0.9,9.6-0.5,9.6-0.5s-6.1,4.3-5.8,13.8l-4.6-6.5l-6.4,4.7
					C164,243.8,166,234.3,171.2,232.3z"/>
			</g>
			<g>
				<path class="st9" d="M227.2,197.8c4.3-0.9,9.6-0.5,9.6-0.5s-6.1,4.3-5.8,13.8l-4.6-6.5l-6.4,4.7
					C220.1,209.2,222.1,199.8,227.2,197.8z"/>
			</g>
			<g>
				<g>
					<path class="st10" d="M265.9,276.9c0,0,4.3,0.5,4.3-5.4c0-1.2,0-2.3,0-3.3c0,0,0-1.7,0-4.3c0-1,0-2.1,0-3.3
						c0-5.9-4.3-5.4-4.3-5.4h-19.8v-6.8h21c2.4,0,4.1,0.8,5.3,1.9v0l0,0c0.1,0.1,0.2,0.2,0.3,0.3c0,0,0,0,0,0
						c0.1,0.1,0.1,0.1,0.2,0.2c2.2,2.5,10.6,13.6,0.9,29.3c-1.1,2-3,3.8-6.6,3.8h-21v-6.8H265.9z"/>
				</g>
			</g>
		</g>
		<g>
			<g>
				<path class="st11" d="M206.5,293.2L206.5,293.2c-38.6-8-78.5-8.3-117.4-1.1h0l2.7-159.9l4.4-0.8c37.5-6.5,75.8-5.9,113,1.8l0,0
					L206.5,293.2z"/>
				<path class="st11" d="M206.5,293.2L206.5,293.2c38.9-7.3,78.8-6.9,117.4,1.1l0,0l2.7-159.9l-4.4-0.8c-37.2-7.2-75.6-7.3-113-0.2
					l0,0L206.5,293.2z"/>
			</g>
			<g>
				<path class="st12" d="M200.1,288.7L200.1,288.7c-36.9-8.1-75-8.6-112.1-1.5l0,0l-4.6-9.3l6.7-150.5l4.2-0.8
					c35.8-6.4,72.4-5.6,107.9,2.2l0,0L200.1,288.7z"/>
				<path class="st12" d="M200.1,288.7L200.1,288.7c39.9-7.1,80.9-6.6,120.7,1.6l0,0l2.1-159.8c0,0-7.8-9.3-8.4-9.4
					c-37.7-7-74.5,1-112.3,7.8h0L200.1,288.7z"/>
				<g>
					<g>
						<g>
							<path class="st13" d="M199.2,285.5c9.8-1.8,19.8-3.1,29.7-3.9c10-0.8,20-1.2,30-1c20,0.3,40,2.6,59.6,6.6l-0.1,0l-0.2,0.2
								l1.1-79.9l1.2-79.9l-0.9,79.9l-1,79.9l0,0.3l-0.3-0.1c-19.6-4-39.5-6.3-59.5-6.7C238.9,280.6,218.9,282.1,199.2,285.5z"/>
						</g>
						<g>
							<path class="st13" d="M198.7,283.8c9.8-1.8,19.6-3.1,29.5-3.9c9.9-0.8,19.8-1.1,29.7-1c19.8,0.3,39.6,2.7,59.1,6.7l-0.1,0
								l-0.2,0.2l1.1-79.9l1.2-79.9l-0.9,79.9l-1,79.9l0,0.3l-0.3-0.1c-19.4-4-39.2-6.4-59-6.8C238.1,278.9,218.3,280.4,198.7,283.8
								z"/>
						</g>
						<g>
							<path class="st13" d="M198.1,282.1c9.7-1.8,19.4-3.1,29.2-3.9c9.8-0.8,19.6-1.1,29.5-0.9c19.7,0.4,39.3,2.8,58.6,6.7l-0.1,0
								l-0.2,0.2l1.1-79.9l1.2-79.9l-0.9,79.9l-1,79.9l0,0.3l-0.3-0.1c-19.2-4-38.8-6.4-58.5-6.9
								C237.2,277.2,217.5,278.7,198.1,282.1z"/>
						</g>
						<g>
							<path class="st13" d="M197.6,280.4c9.6-1.7,19.2-3.1,28.9-3.9c9.7-0.9,19.4-1.2,29.1-1c19.4,0.3,38.8,2.7,57.9,6.6l0.1,0l0,0
								l-0.4,0.2l1.1-79.9l1.2-79.9l-0.9,79.9l-1,79.9l-0.4,0.2l0.1,0c-19-3.9-38.4-6.4-57.8-6.7C236.2,275.4,216.8,277,197.6,280.4
								z"/>
						</g>
					</g>
					<g>
						<g>
							<path class="st13" d="M199.2,285.5l-6.9-1.4l-7-1.2l-7-1l-7-0.8c-9.4-0.9-18.8-1.4-28.2-1.4c-9.4,0-18.8,0.4-28.2,1.3l-7,0.7
								l-7,0.9l-7,1.1l-6.9,1.3l6.9-1.4l7-1.2l7-1l7-0.8c9.4-0.9,18.8-1.4,28.2-1.4c9.4,0,18.8,0.5,28.2,1.5l7,0.8l7,1l7,1.3
								L199.2,285.5z"/>
						</g>
						<g>
							<path class="st13" d="M198.7,283.8l-6.9-1.4l-7-1.1l-7-1l-7-0.8c-9.4-0.9-18.8-1.3-28.3-1.3c-9.4,0-18.9,0.4-28.3,1.3l-7,0.8
								l-7,0.9l-7,1.1l-7,1.3l6.9-1.4l7-1.2l7-1l7-0.8c9.4-1,18.8-1.4,28.3-1.5c9.4,0,18.9,0.5,28.3,1.5l7,0.8l7,1l7,1.3
								L198.7,283.8z"/>
						</g>
						<g>
							<path class="st13" d="M198.1,282.1l-7-1.4l-7-1.1l-7-1l-7-0.8c-9.4-0.9-18.9-1.3-28.3-1.2c-9.4,0-18.9,0.5-28.3,1.4l-7,0.8
								l-7,1l-7,1.1l-7,1.3l7-1.4l7-1.2l7-1l7-0.8c9.4-1,18.9-1.5,28.3-1.6c9.5,0,18.9,0.4,28.3,1.4l7,0.8l7,1l7,1.3L198.1,282.1z"
								/>
						</g>
						<g>
							<path class="st13" d="M197.6,280.4l-7-1.4l-7-1.1l-7-1l-7.1-0.8c-9.4-0.9-18.9-1.3-28.4-1.2c-9.5,0-18.9,0.5-28.4,1.4
								l-7.1,0.8l-7,0.9l-7,1.1l-7,1.3l7-1.4l7-1.2l7-1l7.1-0.8c9.4-1,18.9-1.5,28.4-1.6c9.5,0,19,0.4,28.4,1.4l7.1,0.8l7,1l7,1.3
								L197.6,280.4z"/>
						</g>
					</g>
				</g>
				<polygon class="st9" points="230.2,241.8 229.3,306.2 224,299.4 218.6,306 219.4,241.7 				"/>
				<path class="st14" d="M197.3,279.4L197.3,279.4c-37.5-8.1-76.2-8.6-113.9-1.5l0,0l2.1-159.8l4.3-0.7
					c36.4-6.4,73.6-5.6,109.7,2.2l0,0L197.3,279.4z"/>
				<path class="st14" d="M197.3,279.4L197.3,279.4c37.7-7.1,76.4-6.6,113.9,1.5l0,0l2.1-159.8l-4.3-0.9
					c-36.2-7.3-73.4-7.5-109.7-0.6l0,0L197.3,279.4z"/>
				<polyline class="st15" points="199.4,119.6 197.3,279.4 200.1,288.7 				"/>
				<g class="st16">
					<path class="st17" d="M306.6,145.3l-3.8-0.8c-32.2-6.5-65.3-6.7-97.5-0.6l0,0"/>
					<path class="st17" d="M306.8,137l-3.8-0.8c-32.2-6.5-65.3-6.7-97.5-0.6h0"/>
					<path class="st17" d="M306.9,128.8l-3.8-0.8c-32.2-6.5-65.3-6.7-97.5-0.6l0,0"/>
					<path class="st17" d="M306.5,153l-3.8-0.8c-32.2-6.5-65.3-6.7-97.5-0.6l0,0"/>
					<path class="st17" d="M306.4,160.7l-3.8-0.8c-32.2-6.5-65.3-6.7-97.5-0.6l0,0"/>
					<path class="st17" d="M307.3,191.6l-3.8-0.8c-32.2-6.5-65.3-6.7-97.5-0.6h0"/>
					<path class="st17" d="M306.8,198.8L303,198c-32.2-6.5-65.3-6.7-97.5-0.6h0"/>
					<path class="st17" d="M244.1,200.2c-12.8,0.5-25.7,1.9-38.4,4.3h0"/>
					<path class="st17" d="M306.8,213.1l-3.8-0.8c-32.2-6.5-65.3-6.7-97.5-0.6h0"/>
					<path class="st17" d="M306.8,220.7l-3.8-0.8c-32.2-6.5-65.3-6.7-97.5-0.6h0"/>
					<path class="st17" d="M247.3,222c-13.9,0.3-27.9,1.8-41.6,4.4l0,0"/>
					<path class="st17" d="M276.5,230.9c-23.6-2.2-47.5-1.1-70.9,3.4h0"/>
					<path class="st17" d="M244.1,163.4c-12.8,0.5-25.6,1.9-38.2,4.3h0"/>
				</g>
				<g class="st16">
					<path class="st17" d="M305.3,250.9l-3.8-0.8c-32.2-6.5-65.3-6.7-97.5-0.6l0,0"/>
					<path class="st17" d="M305.2,258.6l-3.8-0.8c-32.2-6.5-65.3-6.7-97.5-0.6l0,0"/>
					<path class="st17" d="M305.1,266.3l-3.8-0.8c-32.2-6.5-65.3-6.7-97.5-0.6h0"/>
				</g>
				<g class="st16">
					<path class="st17" d="M192.9,249.4l-3.8-0.8c-32.2-6.5-65.3-6.7-97.5-0.6l0,0"/>
					<path class="st17" d="M193,241.5l-3.8-0.8c-32.2-6.5-65.3-6.7-97.5-0.6h0"/>
					<path class="st17" d="M193.1,233.7l-3.8-0.8c-32.2-6.5-65.3-6.7-97.5-0.6l0,0"/>
					<path class="st17" d="M194.4,135.8l-3.8-0.8c-32.2-6.5-65.3-6.7-97.5-0.6h0"/>
					<path class="st17" d="M194.3,151.8l-3.8-0.8c-32.2-6.5-65.3-6.7-97.5-0.6h0"/>
					<path class="st17" d="M195.2,159.4l-3.8-0.8c-32.2-6.5-65.3-6.7-97.5-0.6h0"/>
					<path class="st17" d="M194.6,180.7l-3.8-0.8c-32.2-6.5-65.3-6.7-97.5-0.6h0"/>
					<path class="st17" d="M142.2,181.9c-16.1,0-32.2,1.4-48.1,4.5h0"/>
					<path class="st17" d="M195,194.8l-3.8-0.8c-32.2-6.5-65.3-6.7-97.5-0.6l0,0"/>
					<path class="st17" d="M114.1,197.5c-6.8,0.7-13.5,1.7-20.2,3l0,0"/>
					<path class="st17" d="M194.5,128l-3.8-0.8c-32.2-6.5-65.3-6.7-97.5-0.6l0,0"/>
					<path class="st17" d="M192.8,257.1l-3.8-0.8c-32.2-6.5-65.3-6.7-97.5-0.6l0,0"/>
					<path class="st17" d="M192.7,264.8l-3.8-0.8c-32.2-6.5-65.3-6.7-97.5-0.6h0"/>
				</g>
				<g class="st18">
					<path class="st13" d="M209.6,117.9c-3.4,0.5-6.8,1.1-10.2,1.7l0,0l-2.1,159.8l0,0c37.7-7.1,76.4-6.6,113.9,1.5l0,0l0.2-13.9
						c-14.7-3.6-36.4-11.1-61-27.3C215.6,216.9,210.2,148.7,209.6,117.9z"/>
				</g>
				<g class="st18">
					<path class="st13" d="M199.4,119.6c-3.8-0.8-7.6-1.6-11.4-2.2c-0.5,18.3-4.5,90.7-39.5,118.5c-20.5,16.3-45.4,18.2-64.8,16.2
						l-0.3,25.8l0,0c37.7-7.1,76.4-6.6,113.9,1.5l0,0L199.4,119.6L199.4,119.6z"/>
				</g>
			</g>
		</g>
	</g>
</g>
<g id="Teaching_Resources__x28_option_A_x29_">
</g>
<g id="Certificates">
</g>
<g id="Badge_3">
</g>
<g id="Bagde_2">
</g>
<g id="Badge_1">
</g>
<g id="School_Governors_and_Trustees">
</g>
<g id="Senior_Leaders">
</g>
<g id="Testimonials">
</g>
<g id="Reports">
</g>
<g id="News">
</g>
<g id="Assessments">
</g>
<g id="Teachers">
	<defs>
		<filter id="Adobe_OpacityMaskFilter" filterUnits="userSpaceOnUse" x="-82.2" y="405.4" width="548.5" height="617.2">
			<feColorMatrix  type="matrix" values="1 0 0 0 0  0 1 0 0 0  0 0 1 0 0  0 0 0 1 0"/>
		</filter>
	</defs>
	
		<mask maskUnits="userSpaceOnUse" x="-82.2" y="405.4" width="548.5" height="617.2" id="SVGID_00000081608830309750465760000003954140968816310431_">
	</mask>
	<g style="mask:url(#SVGID_00000081608830309750465760000003954140968816310431_);">
		
			<rect x="-82.2" y="405.4" transform="matrix(-1 -6.002056e-11 6.002056e-11 -1 384.0696 1233.9514)" class="st126" width="548.5" height="423.1"/>
	</g>
</g>
<g id="Partnerships__x28_Sponsors_x29_">
</g>
<g id="Gender_Balance">
</g>
<g id="Partnerships">
</g>
<g id="Bursaries">
</g>
<g id="Support">
</g>
<g id="Courses">
</g>
</svg>
