<svg width="106" height="106" viewBox="0 0 106 106" fill="none" xmlns="http://www.w3.org/2000/svg">
<path d="M106 53C106 82.271 82.271 106 53 106C23.729 106 0 82.271 0 53C0 23.729 23.729 0 53 0C82.271 0 106 23.729 106 53Z" fill="#120540"/>
<path fill-rule="evenodd" clip-rule="evenodd" d="M51.9599 74.7449C52.1198 74.5457 52.4588 74.5015 52.6922 74.4669C53.2133 74.3892 53.7471 74.3904 54.2726 74.4006C54.626 74.4077 54.9795 74.4234 55.3323 74.4442C55.5335 74.4558 55.7347 74.4694 55.9356 74.484C56.0894 74.4954 56.0486 74.5627 56.0641 74.7042C56.0739 74.794 56.0693 74.7785 56.1477 74.7792L58.156 74.7959C61.2145 74.8212 64.2732 74.8465 67.3321 74.872C70.5916 74.8989 73.8512 74.9259 77.1108 74.9532C78.0312 74.9606 78.9518 74.9684 79.8722 74.9759C80.0177 74.9771 80.1633 74.9784 80.309 74.9795C80.3676 74.9801 80.5213 75.261 80.5537 75.3116C80.6839 75.513 80.7946 75.7267 80.8894 75.9466C81.1036 76.4431 81.2397 76.9708 81.3324 77.5022C81.5878 78.9675 81.5051 80.4443 81.4258 81.9203C81.3905 82.5804 81.3295 83.2538 81.1456 83.8914C81.0417 84.2518 80.8876 84.6658 80.569 84.8924C80.3435 85.0526 80.0934 85.0197 79.8361 85.0171C79.5508 85.0139 79.2652 85.0107 78.9797 85.0077C76.2163 84.9775 73.4528 84.9474 70.6892 84.9172C67.3017 84.8803 63.914 84.8434 60.5265 84.8065C59.1157 84.7912 57.7046 84.7756 56.2938 84.7603C56.4217 85.2473 56.5494 85.7343 56.6772 86.2209C56.7381 86.4521 56.7986 86.6831 56.8592 86.9141C56.9035 87.0821 57.0603 87.2324 57.1595 87.3725C56.8307 87.3557 56.502 87.3391 56.1732 87.3222C56.0118 87.314 55.8508 87.3057 55.6892 87.2974C55.6015 87.2929 55.5086 87.3711 55.4332 87.4103C55.3436 87.4574 54.6312 87.8832 54.5876 87.829C54.4712 87.6835 54.3545 87.5383 54.2383 87.3929C54.1552 87.2894 54.15 87.1073 54.1197 86.9799C54.0336 87.666 53.9474 88.3522 53.8614 89.0383C53.0842 88.4588 52.0843 88.1225 51.2775 88.8375C51.2811 88.225 51.2785 87.6319 51.3543 87.0252C51.4512 86.2462 51.5486 85.4674 51.6455 84.6886C49.9193 84.6707 48.1928 84.6526 46.4665 84.6345C43.0225 84.5987 39.5784 84.5628 36.1346 84.527C33.5754 84.5004 31.0164 84.4738 28.4571 84.447C28.2605 84.445 28.064 84.4429 27.8675 84.4409C27.3365 84.4352 27.1067 83.8467 26.973 83.4168C26.4623 81.7736 26.6146 79.9893 26.6203 78.294C26.6231 77.3919 26.7814 76.4794 27.1014 75.6325C27.2383 75.2703 27.5383 74.5623 28.0215 74.5659C28.6717 74.571 29.3221 74.5756 29.9721 74.5805C33.0244 74.6035 36.0768 74.6262 39.1288 74.6489C42.38 74.6733 45.6309 74.6977 48.8819 74.7219C49.9079 74.7296 50.9339 74.7373 51.9599 74.7449Z" fill="#3B3F56"/>
<path d="M76.6437 56.4902C76.6437 56.4902 70.8433 61.9767 53.8424 61.9767C37.2414 61.9767 31.041 56.4902 31.041 56.4902V36.9688H76.6437V56.4902Z" fill="#3B3F56"/>
<mask id="path-4-inside-1" fill="white">
<path d="M68.5527 43.6616V64.9174L70.0238 63.0259L71.4948 64.241V42.8516"/>
</mask>
<path d="M68.5527 43.6616V64.9174L70.0238 63.0259L71.4948 64.241V42.8516" fill="#3B3F56"/>
<path d="M68.5527 64.9174H66.5527V70.7467L70.1315 66.1452L68.5527 64.9174ZM70.0238 63.0259L71.2975 61.4839L69.7095 60.1723L68.445 61.7981L70.0238 63.0259ZM71.4948 64.241L70.2212 65.783L73.4948 68.487V64.241H71.4948ZM66.5527 43.6616V64.9174H70.5527V43.6616H66.5527ZM70.1315 66.1452L71.6025 64.2537L68.445 61.7981L66.974 63.6895L70.1315 66.1452ZM68.7501 64.5679L70.2212 65.783L72.7685 62.699L71.2975 61.4839L68.7501 64.5679ZM73.4948 64.241V42.8516H69.4948V64.241H73.4948Z" fill="#3B3F56" mask="url(#path-4-inside-1)"/>
<path d="M67.8174 67.124V43.6542H69.4222V52.9811V62.308L69.8956 61.6779L70.6258 62.3V42.8516H72.2305V65.7915L70.1523 64.0096L67.8174 67.124Z" fill="#3B3F56"/>
<path d="M53.8426 49.47L17.8018 36.5979L53.8426 23.7266L89.8834 36.5979L53.8426 49.47Z" fill="#3B3F56"/>
<path fill-rule="evenodd" clip-rule="evenodd" d="M50.4892 73.2703C50.6491 73.0711 50.9881 73.0269 51.2215 72.9922C51.7426 72.9146 52.2764 72.9157 52.8019 72.9259C53.1553 72.9331 53.5087 72.9488 53.8616 72.9696C54.0628 72.9812 54.264 72.9948 54.4649 73.0093C54.6187 73.0208 54.5779 73.0881 54.5934 73.2296C54.6032 73.3194 54.5986 73.3039 54.677 73.3046L56.6853 73.3213C59.7438 73.3466 62.8024 73.3719 65.8614 73.3974C69.1209 73.4243 72.3805 73.4513 75.6401 73.4786C76.5605 73.486 77.4811 73.4938 78.4015 73.5012C78.547 73.5025 78.6926 73.5038 78.8383 73.5049C78.8969 73.5055 79.0506 73.7864 79.083 73.837C79.2132 74.0384 79.3239 74.2521 79.4187 74.472C79.6329 74.9685 79.769 75.4962 79.8617 76.0276C80.1171 77.4929 80.0344 78.9697 79.9551 80.4457C79.9197 81.1058 79.8588 81.7791 79.6749 82.4168C79.571 82.7772 79.4169 83.1912 79.0983 83.4178C78.8728 83.578 78.6227 83.5451 78.3654 83.5425C78.0801 83.5392 77.7945 83.5361 77.509 83.5331C74.7456 83.5029 71.982 83.4728 69.2185 83.4426C65.831 83.4057 62.4433 83.3688 59.0558 83.3319C57.645 83.3166 56.2339 83.301 54.8231 83.2857C54.951 83.7727 55.0787 84.2597 55.2065 84.7463C55.2674 84.9774 55.3279 85.2085 55.3885 85.4395C55.4328 85.6075 55.5896 85.7578 55.6888 85.8979C55.36 85.8811 55.0313 85.8645 54.7025 85.8476C54.5411 85.8394 54.3801 85.8311 54.2185 85.8228C54.1308 85.8183 54.0379 85.8965 53.9625 85.9357C53.8729 85.9828 53.1605 86.4086 53.1169 86.3544C53.0005 86.2089 52.8838 86.0637 52.7676 85.9183C52.6845 85.8148 52.6793 85.6327 52.6489 85.5053C52.5629 86.1914 52.4767 86.8776 52.3907 87.5637C51.6135 86.9842 50.6136 86.6479 49.8068 87.3629C49.8104 86.7504 49.8078 86.1573 49.8836 85.5506C49.9805 84.7716 50.0779 83.9928 50.1748 83.214C48.4486 83.1961 46.7221 83.178 44.9958 83.1599C41.5518 83.1241 38.1077 83.0882 34.6639 83.0524C32.1047 83.0258 29.5457 82.9992 26.9864 82.9724C26.7898 82.9703 26.5933 82.9682 26.3968 82.9663C25.8658 82.9606 25.636 82.372 25.5023 81.9421C24.9916 80.299 25.1439 78.5147 25.1495 76.8194C25.1524 75.9173 25.3107 75.0048 25.6307 74.1579C25.7676 73.7956 26.0676 73.0877 26.5508 73.0913C27.201 73.0963 27.8514 73.101 28.5014 73.1059C31.5537 73.1288 34.6061 73.1516 37.6581 73.1743C40.9093 73.1987 44.1602 73.2231 47.4112 73.2473C48.4372 73.255 49.4632 73.2627 50.4892 73.2703Z" fill="#E5E5E5"/>
<path d="M51.2725 73.3049L51.2717 73.305C51.2627 73.3063 51.2541 73.3076 51.2457 73.3089C51.188 73.3177 51.1437 73.3244 51.0978 73.3329C51.074 73.3373 51.0539 73.3415 51.0369 73.3454L51.0203 73.3665C50.9864 73.6009 50.9673 73.964 50.9682 74.4554C50.97 75.5217 51.0621 76.9595 51.1577 78.445L51.1595 78.472C51.2531 79.9256 51.3495 81.4237 51.3515 82.56C51.3524 83.123 51.331 83.6574 51.2574 84.0716C51.2223 84.2689 51.1616 84.5241 51.0339 84.7552C51.0065 84.8049 50.9693 84.8641 50.9217 84.9261C50.8838 85.1683 50.8467 85.3462 50.8114 85.5152L50.8108 85.5177C50.7635 85.7442 50.7201 85.9519 50.6729 86.341L50.6728 86.3414C50.6548 86.4893 50.6413 86.6367 50.6312 86.7852C50.8095 86.7789 50.9874 86.7902 51.1626 86.8171C51.3026 86.8386 51.4396 86.8697 51.5733 86.9087L51.6774 86.0585L53.2857 85.9643C53.3294 85.9392 53.3718 85.9145 53.4111 85.8915C53.4246 85.8836 53.4392 85.875 53.4543 85.8662C53.5095 85.8338 53.5715 85.7974 53.609 85.7767C53.6118 85.775 53.6161 85.7723 53.6223 85.7683C53.6236 85.7675 53.6251 85.7665 53.6269 85.7655C53.6462 85.7532 53.6898 85.7255 53.737 85.699C53.7895 85.6696 53.8737 85.6257 53.9794 85.5901C54.0859 85.5541 54.2394 85.518 54.4231 85.5276L51.2725 73.3049ZM51.2725 73.3049C51.7425 73.233 52.2433 73.2314 52.8087 73.2427L51.2725 73.3049ZM54.6319 72.3347L54.6112 72.5966L54.6056 72.6667L54.7883 72.6573C54.7775 72.6491 54.7761 72.6286 54.7708 72.5787C54.7672 72.5447 54.7664 72.5145 54.7657 72.488C54.7633 72.3924 54.7621 72.3446 54.6319 72.3347ZM54.6319 72.3347L54.6107 72.5966L54.605 72.6667M54.6319 72.3347L54.605 72.6667M54.605 72.6667L53.9549 72.6794L53.9545 72.6794L53.8618 72.6812L53.8643 72.8527C53.8338 72.7942 53.8133 72.7394 53.7995 72.6929C53.799 72.6912 53.7985 72.6894 53.798 72.6877C53.762 72.5639 53.765 72.4603 53.7664 72.5094C53.7664 72.5104 53.7664 72.5121 53.7665 72.5143C53.7669 72.536 53.7685 72.6105 53.777 72.6901L53.7775 72.6945C53.7784 72.7029 53.78 72.7187 53.7814 72.7308C53.7831 72.7453 53.7874 72.7821 53.7956 72.8252C53.7958 72.8263 53.7961 72.8277 53.7964 72.8295L54.605 72.6667ZM54.4502 85.5291L54.4235 85.5277L52.8089 73.2427C53.1602 73.25 53.5138 73.2657 53.8705 73.2868L54.0197 83.7362L54.0214 83.855L54.0508 83.97C54.1109 84.2042 54.1709 84.4388 54.231 84.6733C54.3041 84.9587 54.3771 85.2441 54.4502 85.5291ZM52.9022 86.1706C52.9023 86.1706 52.9036 86.17 52.906 86.169C52.9034 86.1702 52.9022 86.1707 52.9022 86.1706Z" stroke="#F47D30" stroke-width="2"/>
<rect x="50.4863" y="73.9141" width="2.97447" height="12.0347" fill="#F47D30" stroke="#F47D30"/>
<path d="M75.3305 55.1445C75.3305 55.1445 69.5598 60.7785 52.6457 60.7785C36.1296 60.7785 29.9609 55.1445 29.9609 55.1445V35.0977H75.3305V55.1445Z" fill="#CCCCCC"/>
<path d="M66.7705 41.9069V63.3466L68.4826 61.4388L70.1946 62.6644V41.0898" fill="#A94F91"/>
<path d="M66.7705 65.9147V41.9108H68.3269V51.4499V60.9891L68.7861 60.3447L69.4942 60.9809V41.0898H71.0507V64.5519L69.0351 62.7295L66.7705 65.9147Z" fill="#A94F91"/>
<path d="M52.2179 47.9387L16.2646 35.0978L52.2179 22.2578L88.1711 35.0978L52.2179 47.9387Z" fill="#E5E5E5"/>
</svg>
