<svg width="304" height="186" viewBox="0 0 304 186" fill="none" xmlns="http://www.w3.org/2000/svg">
<rect width="304" height="186" fill="#1C0F5F"/>
<mask id="mask0_1_355" style="mask-type:alpha" maskUnits="userSpaceOnUse" x="0" y="0" width="304" height="186">
<rect width="304" height="186" fill="#1C0F5F"/>
</mask>
<g mask="url(#mask0_1_355)">
<path d="M272.22 224.226L303.905 192.643L303.905 163.489L257.688 209.697L272.22 224.226Z" fill="#1C0F5F"/>
<path d="M62.913 14.9103L79.4461 31.4402L78.4931 30.4399L108.939 -3.05176e-05L73.8239 -3.35874e-05L60.9119 12.9095L62.913 14.9103Z" fill="#1C0F5F"/>
<path d="M78.4931 30.4399L108.939 3.05176e-05L73.8239 2.74477e-05L60.9119 12.9096L79.4461 31.4403L78.4931 30.4399Z" fill="#1C0F5F"/>
<path d="M184.219 136.194L304 16.4347L304 0.0476685L303.952 0.0476685L252.829 1.07852e-05L150.486 102.324M166.733 118.568L285.18 0.0476668L288.563 0.0476671L168.353 120.188" fill="#1C0F5F"/>
<path d="M96.1221 48.0655L144.244 -6.16467e-06L109.606 -9.19285e-06L78.8268 30.7734M131.428 83.3167L214.76 0L145.435 -6.06053e-06L96.7415 48.6848M113.703 65.7864L179.407 0.0952728L181.122 0.0952729L114.561 66.6438" fill="#1C0F5F"/>
<path d="M149.104 100.895L250.017 3.8147e-05L217.047 3.52646e-05L132.571 84.46L131.904 83.7931L149.104 100.895Z" fill="#1C0F5F"/>
<path d="M254.639 206.648L303.905 157.392L303.905 157.344L303.905 127.667L239.774 191.786L254.639 206.648Z" fill="#1C0F5F"/>
<path d="M223.622 175.684L237.01 189.023L303.905 122.141L303.905 91.8913L221.859 173.922L223.622 175.684Z" fill="#1C0F5F"/>
<path d="M201.705 153.819L303.905 51.6859L303.905 20.3409L186.077 138.147L201.705 153.819Z" fill="#1C0F5F"/>
<path d="M219.238 171.349L219.286 171.349L219.381 171.445L303.905 86.9371L303.905 86.8895L303.905 56.1162L203.944 156.058L219.238 171.349Z" fill="#1C0F5F"/>
<path d="M73.7286 9.53674e-06L48 7.28747e-06L60.8643 12.8619L73.7286 9.53674e-06Z" fill="#1C0F5F"/>
</g>
<path d="M212.384 93.998C212.384 126.026 186.435 151.976 154.406 151.976C122.378 151.976 96.4288 126.026 96.4288 93.998C96.4288 61.9697 122.378 36.0204 154.406 36.0204C186.389 36.0204 212.384 61.9697 212.384 93.998Z" fill="#D4A01A"/>
<path d="M210.116 91.2761C210.116 123.304 184.166 149.254 152.138 149.254C120.11 149.254 94.1605 123.304 94.1605 91.2761C94.1605 59.2478 120.11 33.2985 152.138 33.2985C184.121 33.2985 210.116 59.2478 210.116 91.2761Z" fill="#F6B400"/>
<path d="M196.46 53.94C185.845 41.3283 169.921 33.2985 152.093 33.2985C120.064 33.2985 94.1151 59.2478 94.1151 91.2761C94.1151 97.9902 95.2946 104.478 97.3815 110.466C130.09 91.0493 163.071 72.1771 196.46 53.94Z" fill="#FFCD33"/>
<path d="M195.281 90.3687C195.281 114.73 175.547 134.464 151.185 134.464C126.824 134.464 107.09 114.73 107.09 90.3687C107.09 66.0073 126.824 46.2731 151.185 46.2731C175.547 46.2731 195.281 66.0073 195.281 90.3687Z" fill="#D5A01A"/>
<path d="M196.506 92.1834C196.506 116.182 177.044 135.689 153 135.689C129.001 135.689 109.494 116.227 109.494 92.1834C109.494 68.1849 128.956 48.6776 153 48.6776C177.044 48.7229 196.506 68.1849 196.506 92.1834Z" fill="#FFC000"/>
<path d="M189.247 87.0571H118.114V112.462H189.247V87.0571Z" fill="#D5A01A"/>
<path d="M188.612 87.0571H117.479V112.462H188.612V87.0571Z" fill="#D5A01A"/>
<path d="M169.332 112.462H138.755V78.7097L153.59 66.098L169.332 78.7097V112.462Z" fill="#FFC000"/>
<path d="M168.334 112.462H137.757V78.7097L153.045 66.4156L168.334 78.7097V112.462Z" fill="#D5A01A"/>
<path d="M153.635 59.7468H153.045V67.0054H153.635V59.7468Z" fill="#F6B400"/>
<path d="M162.209 61.6976H155.586V60.4273H162.209L160.939 61.0624L162.209 61.6976Z" fill="#D5A01A"/>
<path d="M159.941 59.7468H153.318V61.0624H159.941V59.7468Z" fill="#D5A01A"/>
<path d="M155.586 61.6976V61.0624H159.941L155.586 61.6976Z" fill="#F6B400"/>
<path d="M153.318 59.7468H152.728V67.0054H153.318V59.7468Z" fill="#D5A01A"/>
<path d="M137.757 87.0571H136.441V112.462H137.757V87.0571Z" fill="#FFC000"/>
<path d="M153.454 84.6981C151.548 84.6981 149.96 83.1103 149.96 81.2049C149.96 79.2995 151.548 77.7117 153.454 77.7117C155.359 77.7117 156.947 79.2995 156.947 81.2049C156.947 83.1556 155.359 84.6981 153.454 84.6981Z" fill="#F6B400"/>
<path d="M152.955 84.2898C151.049 84.2898 149.461 82.7019 149.461 80.7966C149.461 78.8912 151.049 77.3034 152.955 77.3034C154.86 77.3034 156.448 78.8912 156.448 80.7966C156.448 82.7019 154.86 84.2898 152.955 84.2898Z" fill="#FFC000"/>
<path fill-rule="evenodd" clip-rule="evenodd" d="M152.955 78.3468C153.08 78.3468 153.181 78.4484 153.181 78.5736V80.7966C153.181 80.9218 153.08 81.0234 152.955 81.0234C152.829 81.0234 152.728 80.9218 152.728 80.7966V78.5736C152.728 78.4484 152.829 78.3468 152.955 78.3468Z" fill="#D5A01A"/>
<path fill-rule="evenodd" clip-rule="evenodd" d="M152.728 80.7966C152.728 80.6713 152.829 80.5698 152.955 80.5698H154.27C154.396 80.5698 154.497 80.6713 154.497 80.7966C154.497 80.9219 154.396 81.0234 154.27 81.0234H152.955C152.829 81.0234 152.728 80.9219 152.728 80.7966Z" fill="#D5A01A"/>
<path d="M158.262 100.667H157.491V112.462H158.262V100.667Z" fill="#FFC000"/>
<path d="M122.514 89.4615H121.743V98.3078H122.514V89.4615Z" fill="#FFC000"/>
<path d="M127.051 89.4615H126.28V98.3078H127.051V89.4615Z" fill="#FFC000"/>
<path d="M131.587 89.4615H130.816V98.3078H131.587V89.4615Z" fill="#FFC000"/>
<path d="M174.64 89.4615H173.868V98.3078H174.64V89.4615Z" fill="#FFC000"/>
<path d="M179.176 89.4615H178.405V98.3078H179.176V89.4615Z" fill="#FFC000"/>
<path d="M183.713 89.4615H182.941V98.3078H183.713V89.4615Z" fill="#FFC000"/>
</svg>
