<svg width="106" height="106" viewBox="0 0 106 106" fill="none" xmlns="http://www.w3.org/2000/svg">
<path d="M106 53C106 82.271 82.271 106 53 106C23.729 106 0 82.271 0 53C0 23.729 23.729 0 53 0C82.271 0 106 23.729 106 53Z" fill="#1C0F5F"/>
<path d="M82.3591 70.6003C82.3591 69.5495 82.2054 68.535 81.9234 67.5755V40.3695V30.113H71.9676V26.5718H67.6941V30.113H41.4119V26.5718H37.1384V30.113H27.1826V40.3695V81.3125H81.9234V73.6248C82.2054 72.6653 82.3591 71.6508 82.3591 70.6003Z" fill="#3B3F56"/>
<path d="M80.4224 38.6211H25.6816V28.3646H80.4224V38.6211Z" fill="#A94F91"/>
<path d="M39.9132 31.7852H35.6396V24.8252H39.9132V31.7852Z" fill="white"/>
<path d="M70.4678 31.7852H66.1943V24.8252H70.4678V31.7852Z" fill="white"/>
<path d="M48.7804 64.5781H40.2334V56.0311H48.7804V64.5781Z" stroke="#EF7C33" stroke-width="3" stroke-miterlimit="10"/>
<path d="M80.4214 79.5664H25.6807V38.6234H80.4214V79.5664Z" fill="white"/>
<path d="M40.2316 56.0312H31.6846V47.4843H40.2316V56.0312Z" stroke="#979797" stroke-width="2" stroke-miterlimit="10"/>
<path d="M48.7794 56.0312H40.2324V47.4843H48.7794V56.0312Z" stroke="#979797" stroke-width="2" stroke-miterlimit="10"/>
<path d="M57.3253 56.0312H48.7783V47.4843H57.3253V56.0312Z" stroke="#979797" stroke-width="2" stroke-miterlimit="10"/>
<path d="M65.8742 56.0312H57.3271V47.4843H65.8742V56.0312Z" stroke="#979797" stroke-width="2" stroke-miterlimit="10"/>
<path d="M74.42 56.0312H65.873V47.4843H74.42V56.0312Z" stroke="#979797" stroke-width="2" stroke-miterlimit="10"/>
<path d="M40.2316 64.5781H31.6846V56.0311H40.2316V64.5781Z" stroke="#979797" stroke-width="2" stroke-miterlimit="10"/>
<path d="M57.3253 64.5781H48.7783V56.0311H57.3253V64.5781Z" stroke="#979797" stroke-width="2" stroke-miterlimit="10"/>
<path d="M65.8742 64.5781H57.3271V56.0311H65.8742V64.5781Z" stroke="#979797" stroke-width="2" stroke-miterlimit="10"/>
<path d="M74.42 64.5781H65.873V56.0311H74.42V64.5781Z" stroke="#979797" stroke-width="2" stroke-miterlimit="10"/>
<path d="M40.2316 73.125H31.6846V64.578H40.2316V73.125Z" stroke="#979797" stroke-width="2" stroke-miterlimit="10"/>
<path d="M48.7794 73.125H40.2324V64.578H48.7794V73.125Z" stroke="#979797" stroke-width="2" stroke-miterlimit="10"/>
<path d="M57.3253 73.125H48.7783V64.578H57.3253V73.125Z" stroke="#979797" stroke-width="2" stroke-miterlimit="10"/>
<path d="M65.8742 73.125H57.3271V64.578H65.8742V73.125Z" stroke="#979797" stroke-width="2" stroke-miterlimit="10"/>
<path d="M80.8598 68.8542C80.8598 74.7702 76.0638 79.5664 70.1475 79.5664C64.2313 79.5664 59.4355 74.7702 59.4355 68.8542C59.4355 62.9379 64.2313 58.1419 70.1475 58.1419C76.0638 58.1419 80.8598 62.9379 80.8598 68.8542Z" fill="#F47D30"/>
<path d="M76.8328 65.5909C76.6093 65.3672 76.2468 65.3672 76.0235 65.5909L68.047 73.5672L64.2733 69.7934C64.0495 69.5697 63.687 69.5697 63.4635 69.7934C63.24 70.0167 63.24 70.3789 63.4635 70.6027L67.5105 74.6492C67.5375 74.7052 67.572 74.7587 67.6185 74.8049C67.7303 74.9169 67.8768 74.9727 68.0233 74.9727C68.0318 74.9727 68.0403 74.9709 68.0488 74.9704C68.0563 74.9707 68.0633 74.9724 68.0705 74.9724C68.217 74.9724 68.3635 74.9167 68.4753 74.8047C68.5213 74.7587 68.5555 74.7059 68.5825 74.6504L76.8328 66.4002C77.0565 66.1769 77.0565 65.8144 76.8328 65.5909Z" fill="white"/>
</svg>
