<svg width="304" height="186" viewBox="0 0 304 186" fill="none" xmlns="http://www.w3.org/2000/svg">
<rect width="304" height="186" fill="#1C0F5F"/>
<g clip-path="url(#clip0_1_1551)">
<path d="M303.896 80.3845V70.6188L246.404 128.379V128.309L254.222 136.164L303.896 86.2578V84.4854" fill="#1C0F5F"/>
<path d="M119.208 0L119 0.243274L124.846 6.11659L130.9 0H119.208Z" fill="#1C0F5F"/>
<path d="M144.702 0L131.73 13.0673L137.749 19.1143L156.74 0H144.668H144.702Z" fill="#1C0F5F"/>
<path d="M170.197 0L144.495 25.8565L150.721 32.1121L182.65 0H170.197Z" fill="#1C0F5F"/>
<path d="M195.691 0L157.225 38.6805L163.659 45.1446L208.525 0.0695067H195.691V0Z" fill="#1C0F5F"/>
<path d="M221.186 0L169.989 51.4697L176.596 58.1076L234.4 0H221.151H221.186Z" fill="#1C0F5F"/>
<path d="M246.68 0L182.754 64.259L189.568 71.1054L260.31 0H246.68Z" fill="#1C0F5F"/>
<path d="M272.175 0L195.484 77.083L202.506 84.1379L286.185 0H272.175Z" fill="#1C0F5F"/>
<path d="M303.965 183.463V172.933L297.462 179.466L303.965 186" fill="#1C0F5F"/>
<path d="M303.931 149.127V147.389L284.697 166.712L293.069 175.122L303.931 164.21V152.15" fill="#1C0F5F"/>
<path d="M303.965 131.924V121.776L271.967 153.923L280.166 162.159L303.965 138.249V135.26" fill="#1C0F5F"/>
<path d="M304 97.5179V96.1625L259.272 141.099L267.263 149.127L304 112.219V101.376" fill="#1C0F5F"/>
<path d="M303.965 45.8745V44.9014L233.743 115.451L241.353 123.096L303.965 60.1928V50.5314" fill="#1C0F5F"/>
<path d="M304 28.7063V19.3229L221.047 102.661L228.45 110.099L304 34.1626V33.5718" fill="#1C0F5F"/>
<path d="M297.67 0L208.248 89.8722L215.444 97.1009L303.965 8.16704V0" fill="#1C0F5F"/>
</g>
<path d="M178.516 129.904C178.516 129.904 184.534 138.366 178.14 144.948H251.73L252.106 128.901L178.516 129.904Z" fill="#FAFCFC"/>
<path d="M252.043 138.868C251.04 138.053 239.632 128.964 179.958 132.6C179.958 132.6 179.77 131.158 178.391 129.842L251.04 128.086L252.043 138.868Z" fill="#F0F5F4"/>
<path d="M251.103 135.42C251.103 134.793 251.103 134.104 251.103 133.352C251.103 129.653 248.408 129.967 248.408 129.967H177.012V125.704H249.097C250.602 125.704 251.667 126.206 252.42 126.895C252.482 126.958 252.545 127.021 252.608 127.083C252.67 127.146 252.67 127.146 252.733 127.209C254.112 128.713 259.377 135.734 253.297 145.575C252.608 146.891 251.417 147.957 249.16 147.957H177.075V143.694H248.408C248.408 143.694 251.103 144.008 251.103 140.31C251.103 139.557 251.103 138.868 251.103 138.241C251.103 138.053 251.103 136.987 251.103 135.42Z" fill="#8BFF96"/>
<path d="M165.604 108.78C165.604 108.78 171.308 116.804 165.29 123.009H234.994L235.37 107.777L165.604 108.78Z" fill="#FAFCFC"/>
<path d="M235.307 117.242C234.367 116.49 223.523 107.84 166.983 111.35C166.983 111.35 166.795 109.971 165.541 108.78L234.367 107.088L235.307 117.242Z" fill="#F0F5F4"/>
<path d="M234.367 113.983C234.367 113.419 234.367 112.729 234.367 111.977C234.367 108.467 231.797 108.717 231.797 108.717H164.225V104.706H232.486C233.928 104.706 234.931 105.144 235.621 105.834C235.683 105.897 235.746 105.959 235.809 106.022C235.871 106.085 235.871 106.085 235.871 106.147C237.188 107.589 242.14 114.171 236.435 123.511C235.809 124.702 234.618 125.767 232.486 125.767H164.225V121.755H231.797C231.797 121.755 234.367 122.069 234.367 118.496C234.367 117.744 234.367 117.117 234.367 116.49C234.367 116.49 234.367 115.487 234.367 113.983Z" fill="#E61B7C"/>
<path d="M175.696 86.7784C175.696 86.7784 181.713 95.2406 175.32 101.822H248.909L249.285 85.7755L175.696 86.7784Z" fill="#FAFCFC"/>
<path d="M249.223 95.742C248.22 94.9272 236.811 85.8381 177.137 89.4737C177.137 89.4737 176.949 88.032 175.57 86.7784L248.22 85.0233L249.223 95.742Z" fill="#F0F5F4"/>
<path d="M248.282 92.2318C248.282 91.605 248.282 90.9154 248.282 90.1632C248.282 86.465 245.587 86.7784 245.587 86.7784H174.191V82.5159H246.277C247.781 82.5159 248.847 83.0174 249.599 83.7069C249.661 83.7696 249.724 83.8323 249.787 83.895C249.85 83.9576 249.85 83.9576 249.912 84.0203C251.291 85.5874 256.557 92.5452 250.476 102.386C249.787 103.64 248.596 104.768 246.339 104.768H174.254V100.506H245.524C245.524 100.506 248.22 100.819 248.22 97.1211C248.22 96.3689 248.22 95.6793 248.22 95.0525C248.282 94.9271 248.282 93.8615 248.282 92.2318Z" fill="#FFCD33"/>
<path d="M216.628 104.706H186.101V108.717H216.628V104.706Z" fill="#FF4BA1"/>
<path d="M216.878 121.755H186.352V125.767H216.878V121.755Z" fill="#FF4BA1"/>
<path d="M245.524 100.443C245.524 100.443 248.22 100.757 248.22 97.0584C248.22 96.3062 248.22 95.6167 248.22 94.9898C248.22 94.9898 248.22 93.9242 248.22 92.2945C248.22 91.6676 248.22 90.9781 248.22 90.2259C248.22 86.5276 245.524 86.841 245.524 86.841H233.113V82.5786H246.277C247.781 82.5786 248.847 83.0801 249.599 83.7696C249.662 83.8323 249.724 83.895 249.787 83.9576C249.85 84.0203 249.85 84.0203 249.912 84.083C251.291 85.6501 256.557 92.6079 250.476 102.449C249.787 103.703 248.596 104.831 246.339 104.831H233.176V100.569H245.524V100.443Z" fill="#FFC000"/>
<path d="M188.984 115.613C191.68 115.048 195.002 115.299 195.002 115.299C195.002 115.299 191.178 117.994 191.366 123.949L188.483 119.875L184.471 122.821C184.471 122.821 185.788 116.866 188.984 115.613Z" fill="#22B1B6"/>
<path d="M248.408 143.569C248.408 143.569 251.103 143.883 251.103 140.184C251.103 139.432 251.103 138.743 251.103 138.116C251.103 138.116 251.103 137.05 251.103 135.42C251.103 134.793 251.103 134.104 251.103 133.352C251.103 129.653 248.408 129.967 248.408 129.967H235.997V125.704H249.16C250.664 125.704 251.73 126.206 252.482 126.895C252.545 126.958 252.608 127.021 252.67 127.083C252.733 127.146 252.733 127.146 252.796 127.209C254.175 128.776 259.44 135.734 253.36 145.575C252.67 146.829 251.479 147.957 249.223 147.957H236.059V143.694H248.408V143.569Z" fill="#50E65F"/>
<path d="M198.512 136.549C198.512 139.056 196.506 141.062 193.999 141.062H66.502C63.9947 141.062 61.9888 139.056 61.9888 136.549V53.4937C61.9888 50.9864 63.9947 48.9805 66.502 48.9805H193.999C196.506 48.9805 198.512 50.9864 198.512 53.4937V136.549Z" fill="#130019"/>
<path d="M194.124 53.9325H66.4393V136.047H194.124V53.9325Z" fill="#554759"/>
<path opacity="0.1" d="M76.2805 48.9805H66.502C63.9947 48.9805 61.9888 50.9864 61.9888 53.4937V136.549C61.9888 139.056 63.9947 141.062 66.502 141.062H193.999C195.378 141.062 196.632 140.435 197.509 139.432L76.2805 48.9805Z" fill="white"/>
<path d="M131.379 51.2998C131.379 52.1774 130.627 52.9296 129.749 52.9296C128.872 52.9296 128.119 52.1774 128.119 51.2998C128.119 50.4222 128.872 49.67 129.749 49.67C130.627 49.67 131.379 50.3596 131.379 51.2998Z" fill="#232533"/>
<path d="M133.385 51.2998C133.385 51.5505 133.197 51.8013 132.883 51.8013C132.57 51.8013 132.382 51.6132 132.382 51.2998C132.382 50.9864 132.57 50.7983 132.883 50.7983C133.197 50.7983 133.385 50.9864 133.385 51.2998Z" fill="#4FA88B"/>
<path d="M206.661 148.709H56.0966C53.5893 148.709 51.5834 146.703 51.5834 144.196V143.068C51.5834 141.814 52.5864 140.748 53.9027 140.748H208.855C210.109 140.748 211.174 141.751 211.174 143.068V144.196C211.174 146.703 209.168 148.709 206.661 148.709Z" fill="#F0F5F4"/>
<path d="M148.303 140.748H114.517V142.002H148.303V140.748Z" fill="#554759"/>
<g opacity="0.15">
<path d="M167.798 126.206H95.9629C95.2734 126.206 94.7093 125.642 94.7093 124.952V48.9178H169.051V124.952C169.051 125.642 168.487 126.206 167.798 126.206Z" fill="#333448"/>
</g>
<path d="M165.102 123.636H93.3929C92.6407 123.636 92.0766 123.072 92.0766 122.32V36.632H166.419V122.32C166.419 123.009 165.792 123.636 165.102 123.636Z" fill="#FAFCFC"/>
<path d="M166.419 37.2588H92.0766V32.9964C92.0766 32.1815 92.7034 31.5547 93.5183 31.5547H164.914C165.729 31.5547 166.356 32.1815 166.356 32.9964V37.2588H166.419Z" fill="#1C0F5F"/>
<path d="M95.2734 35.441C95.862 35.441 96.339 34.9639 96.339 34.3754C96.339 33.7869 95.862 33.3098 95.2734 33.3098C94.6849 33.3098 94.2078 33.7869 94.2078 34.3754C94.2078 34.9639 94.6849 35.441 95.2734 35.441Z" fill="#FF1E8A"/>
<path d="M98.4703 35.441C99.0588 35.441 99.5359 34.9639 99.5359 34.3754C99.5359 33.7869 99.0588 33.3098 98.4703 33.3098C97.8818 33.3098 97.4047 33.7869 97.4047 34.3754C97.4047 34.9639 97.8818 35.441 98.4703 35.441Z" fill="#FFC000"/>
<path d="M101.667 35.441C102.256 35.441 102.733 34.9639 102.733 34.3754C102.733 33.7869 102.256 33.3098 101.667 33.3098C101.079 33.3098 100.602 33.7869 100.602 34.3754C100.602 34.9639 101.079 35.441 101.667 35.441Z" fill="#59FF69"/>
<path d="M100.475 98.5642V91.3528H107.686V98.5642H100.475Z" stroke="#120540"/>
<path d="M108.186 76.6238H99.9747V84.8352H108.186V76.6238Z" fill="#1C0F5F"/>
<path d="M108.186 61.2037H99.9747V69.4152H108.186V61.2037Z" fill="#1C0F5F"/>
<path d="M152.628 63.6484H111.822V65.2154H152.628V63.6484Z" fill="#130019"/>
<path d="M141.157 43.9033H100.351V45.4703H141.157V43.9033Z" fill="#130019"/>
<g opacity="0.5">
<path d="M135.955 66.9706H111.822V68.5377H135.955V66.9706Z" fill="#554759"/>
</g>
<g opacity="0.5">
<path d="M124.484 47.0374H100.351V48.6045H124.484V47.0374Z" fill="#554759"/>
</g>
<g opacity="0.5">
<path d="M152.628 50.1089H100.351V51.676H152.628V50.1089Z" fill="#554759"/>
</g>
<path d="M148.805 93.6108H111.822V95.1779H148.805V93.6108Z" fill="#130019"/>
<g opacity="0.5">
<path d="M158.52 96.933H111.822V98.5001H158.52V96.933Z" fill="#554759"/>
</g>
<path d="M141.533 79.131H111.822V80.6981H141.533V79.131Z" fill="#130019"/>
<g opacity="0.5">
<path d="M125.487 82.4532H111.822V84.0203H125.487V82.4532Z" fill="#554759"/>
</g>
<path d="M108.186 106.273H99.9747V114.484H108.186V106.273Z" fill="#1C0F5F"/>
<path d="M130.062 108.717H111.822V110.284H130.062V108.717Z" fill="#130019"/>
<g opacity="0.5">
<path d="M143.289 112.04H111.822V113.607H143.289V112.04Z" fill="#554759"/>
</g>
<defs>
<clipPath id="clip0_1_1551">
<rect width="185" height="186" fill="white" transform="translate(119)"/>
</clipPath>
</defs>
</svg>
