<svg width="304" height="186" viewBox="0 0 304 186" fill="none" xmlns="http://www.w3.org/2000/svg">
<rect width="304" height="186" fill="#120540"/>
<g clip-path="url(#clip0_1_1454)">
<path d="M2.15894e-05 65.251L120.702 186L136.011 186L2.29245e-05 49.9795L2.15894e-05 65.251Z" fill="#1C0F5F"/>
<path d="M-6.53123e-05 39.22L146.773 186L161.7 186L-6.40076e-05 24.2956L-6.53123e-05 39.22Z" fill="#1C0F5F"/>
<path d="M-6.05155e-06 13.1543L172.843 186L186 186L-4.90156e-06 -5.78484e-06L-6.05155e-06 13.1543Z" fill="#1C0F5F"/>
<path d="M5.07102e-05 169.583L16.42 186L33.3259 186L5.21878e-05 152.68L5.07102e-05 169.583Z" fill="#1C0F5F"/>
<path d="M-4.87983e-05 91.3514L94.6315 186L110.357 186L-4.74238e-05 75.6287L-4.87983e-05 91.3514Z" fill="#1C0F5F"/>
<path d="M2.62478e-05 186L7.63721 186L2.69154e-05 178.364L2.62478e-05 186Z" fill="#1C0F5F"/>
<path d="M1.24165e-05 143.517L42.4905 186L58.9799 186L1.38608e-05 126.996L1.24165e-05 143.517Z" fill="#1C0F5F"/>
<path d="M4.66354e-05 117.417L68.5611 186L84.6686 186L4.80433e-05 101.313L4.66354e-05 117.417Z" fill="#1C0F5F"/>
</g>
<mask id="mask0_1_1454" style="mask-type:alpha" maskUnits="userSpaceOnUse" x="0" y="0" width="304" height="186">
<rect width="304" height="186" fill="#120540"/>
</mask>
<g mask="url(#mask0_1_1454)">
<path d="M229 6H33V130H229V6Z" fill="#FAFCFC"/>
<path d="M88.2098 50.913C88.0738 50.913 87.9377 50.913 87.8017 50.913C87.8017 50.913 87.7677 50.913 87.7336 50.913C82.0875 50.6366 89.2982 50.7057 83.6181 50.7057C77.8359 50.7057 81.4753 50.7057 75.6591 50.7057C73.2442 50.7057 70.7952 50.7057 68.3803 50.7057C68.7885 50.5675 69.1966 50.4294 69.6048 50.2566C71.9517 49.1858 73.8224 47.2167 75.455 45.2823C77.9039 42.3805 80.0127 38.857 82.6997 36.0244C90.8628 36.0244 99.0259 35.9553 107.189 35.8517C106.577 36.4389 105.965 37.0262 105.352 37.6134C105.284 37.6825 105.352 37.7516 105.42 37.7171C106.305 37.2334 107.223 36.7153 107.937 35.9898C107.971 35.9553 108.005 35.8862 108.005 35.8517C108.039 35.8517 108.039 35.8171 108.039 35.7826C108.039 35.748 108.039 35.748 108.005 35.7135C108.005 35.6444 107.937 35.5753 107.869 35.5408C107.189 35.1262 105.965 34.8153 105.556 34.1245C105.522 34.0899 105.454 34.0899 105.454 34.159C105.488 34.9535 106.271 35.368 106.985 35.7135C99.0599 35.6099 91.1689 35.5753 83.2439 35.5408C84.2983 34.5044 85.4208 33.6063 86.7133 32.8463C89.7744 31.0846 93.5498 31.3264 96.9171 31.81C96.9851 31.81 97.0191 31.7064 96.9511 31.7064C93.2097 30.9118 89.2982 30.5664 85.931 32.6736C84.6725 33.4681 83.5501 34.4353 82.5297 35.5408C72.4959 35.5062 62.4961 35.5408 52.4623 35.5408C51.544 30.5318 51.714 25.212 52.0202 20.2376C52.1222 18.4413 52.2582 16.645 52.3603 14.8487C52.3603 14.8142 52.2923 14.8142 52.2923 14.8487C51.3059 21.5158 50.8977 28.4937 51.8841 35.1608C51.9181 35.299 51.9181 35.4026 51.9521 35.5408C50.4896 35.5408 48.993 35.5408 47.5305 35.5408C47.5305 28.8046 47.5305 22.0685 47.5305 15.3324C47.9046 16.0923 48.4488 16.7487 48.891 17.4741C48.925 17.5432 48.993 17.5087 48.993 17.4396C48.7209 16.2651 48.0066 15.3324 47.6665 14.1924C47.5985 14.0197 47.3604 13.916 47.2244 14.0888C47.1903 14.0888 47.1903 14.0888 47.1563 14.0888C46.9863 14.0888 46.8162 14.1924 46.8502 14.3997V14.5378C46.5441 14.9178 46.272 15.3324 46.0339 15.7469C45.7958 16.1614 45.3196 16.7487 45.3877 17.2323C45.3877 17.2668 45.4217 17.2668 45.4217 17.2668C45.7958 17.025 46.0339 16.5069 46.306 16.1614C46.4761 15.9196 46.6461 15.6433 46.8502 15.3669C46.8502 22.103 46.8502 28.8392 46.8502 35.5753C45.8298 35.5753 44.7754 35.5753 43.755 35.5753C43.687 35.5753 43.619 35.5753 43.551 35.5753C43.4829 35.5753 43.3809 35.5753 43.3129 35.5753H42.7347C42.5646 35.5753 42.4966 35.7135 42.4966 35.8517C42.4966 35.9898 42.5646 36.128 42.7347 36.128H43.3129C43.3809 36.128 43.4829 36.128 43.551 36.128C43.619 36.128 43.687 36.128 43.755 36.128C44.7754 36.128 45.8298 36.128 46.8502 36.128C46.8502 40.4461 46.8502 44.7295 46.8502 49.0476C46.8502 49.6348 46.8502 50.2221 46.8502 50.8093C45.0135 50.8093 43.1428 50.8093 41.3061 50.8093C41.102 50.8093 41 50.9475 41 51.1202C41 51.2584 41.102 51.4311 41.3061 51.4311C43.1428 51.4311 45.0135 51.4311 46.8502 51.4311C46.8502 51.5693 46.8502 51.7075 46.8502 51.8457C46.8842 52.7438 47.0543 53.6074 47.0543 54.5056C47.0543 54.5401 47.0883 54.5747 47.1223 54.5747C47.1563 54.5747 47.1903 54.5401 47.1903 54.5056C47.2244 53.7456 47.2924 52.9856 47.3944 52.2257C48.5509 52.6402 49.7073 53.1238 50.8297 53.6765C50.8977 53.7111 50.9658 53.642 50.8977 53.5729C49.9454 52.7438 48.857 52.0529 47.6325 51.7075C47.7345 51.6039 47.8366 51.5348 47.9046 51.4657C53.7208 51.4657 59.537 51.4657 65.3532 51.4657C64.6049 52.1911 63.7546 52.882 63.1424 53.7111C63.1083 53.7456 63.1764 53.8147 63.2104 53.7802C64.3668 53.3311 65.1491 52.2257 66.1355 51.5002C66.1695 51.4657 66.1695 51.4657 66.2035 51.4311C69.2307 51.4311 72.2578 51.4311 75.319 51.4311C81.1011 51.4311 77.4618 51.4311 83.278 51.4311C89.0601 51.4311 81.9515 51.5002 87.7336 51.2239C87.7677 51.2239 87.7677 51.2239 87.8017 51.2239C87.9377 51.2239 88.0738 51.2239 88.2098 51.2239C88.2778 51.2239 88.2778 51.1893 88.2778 51.1202C88.2778 50.9475 88.2438 50.913 88.2098 50.913ZM65.8974 35.9898C65.5573 36.6807 65.1151 37.3371 65.0471 38.097C65.0471 38.2352 65.2512 38.2698 65.3192 38.1661C65.5913 37.7861 65.8294 37.3371 66.0675 36.9225C66.0334 37.0953 65.9994 37.268 65.9994 37.4752C65.9654 38.1661 65.9994 38.857 65.9994 39.5825C65.9994 40.8606 65.9994 42.1387 65.9994 43.4514C65.9994 45.7659 65.7954 48.2185 66.1695 50.4984H66.1355C65.9654 50.2566 65.7954 50.0148 65.6253 49.8076C65.3532 49.4621 65.1491 49.013 64.843 48.7367C64.809 48.7021 64.741 48.7367 64.741 48.7712C64.6729 49.393 65.1831 49.9457 65.5913 50.4984C63.8906 50.4294 62.19 49.8766 60.6594 49.0476C57.6663 47.4585 55.5915 44.6605 54.265 41.586C53.5167 39.8243 52.9725 37.9589 52.5984 36.0244C56.952 35.9898 61.4417 35.9898 65.8974 35.9898ZM48.7209 50.7057C48.823 50.6366 48.891 50.5675 48.993 50.4984C49.2311 50.2912 49.8774 49.7385 49.7413 49.3585C49.7413 49.3239 49.7073 49.3239 49.7073 49.3239C49.3331 49.4276 48.993 49.9457 48.6869 50.1875C48.4828 50.3603 48.2787 50.533 48.0747 50.7057C47.8706 50.7057 47.6665 50.7057 47.4624 50.7057C47.4624 50.0839 47.4624 49.4621 47.4624 48.8749C47.4624 44.5914 47.4624 40.3079 47.4624 36.0244C48.959 36.0244 50.4896 36.0244 51.9861 36.0244C53.1086 42.2424 56.1357 48.184 62.292 50.4639C62.5301 50.5675 62.7682 50.6366 63.0063 50.7057C58.2445 50.6712 53.4827 50.6712 48.7209 50.7057ZM68.2783 47.6658C67.7341 48.564 67.0198 49.3239 66.4076 50.1185C66.7137 47.9422 66.5096 45.6277 66.5096 43.4169C66.5096 42.1387 66.5096 40.8606 66.5096 39.5479C66.5096 38.9606 66.5096 38.3734 66.5096 37.7861C66.5096 37.268 66.4076 36.8534 66.3396 36.4044C66.9858 36.9571 67.564 37.648 68.0742 38.3389C68.1082 38.3734 68.2103 38.3734 68.1763 38.3043C67.8021 37.4062 67.428 36.6116 66.7477 35.9898C71.8156 35.9898 76.9176 35.9898 81.9855 35.9898C81.3392 36.7153 80.727 37.4407 80.1148 38.2007C78.3121 40.4806 76.6795 42.8642 74.8088 45.075C73.1081 47.044 71.1694 48.9785 68.7205 49.9457C68.1422 50.153 67.564 50.3257 66.9858 50.3948C67.564 49.5657 68.0742 48.6331 68.3803 47.7004C68.4143 47.6313 68.3123 47.6313 68.2783 47.6658Z" fill="#370C84"/>
<path d="M54.7409 54.7819C54.2988 54.3328 53.9586 53.8492 53.8566 53.2274C53.8226 53.0547 53.6185 53.0547 53.5165 53.1929C53.0743 53.7801 52.8362 54.3674 52.5641 55.0583C52.5301 55.1274 52.6321 55.1619 52.6661 55.1274C52.7342 55.0583 52.7682 54.9892 52.8362 54.9201C52.8022 54.9892 52.8022 55.0583 52.9042 55.0928C53.4144 55.3346 54.0607 55.1619 54.6049 55.1619C54.7749 55.0928 54.843 54.8855 54.7409 54.7819ZM52.9723 54.7474C52.9382 54.7474 52.9042 54.7474 52.8702 54.7819C53.1083 54.4365 53.3464 54.0565 53.5845 53.6765C53.7205 54.0565 53.9246 54.4019 54.1627 54.7128C53.7545 54.7128 53.3464 54.7474 52.9723 54.7474Z" fill="#370C84"/>
<path d="M58.6188 54.8855C58.4148 55.1619 58.1086 55.5764 57.8365 55.1964C57.6665 54.9546 57.5304 54.6437 57.4284 54.3674C57.4964 54.2983 57.5644 54.1947 57.6325 54.091C57.9726 53.642 58.3467 53.1929 58.6188 52.7093C58.6528 52.6402 58.5508 52.5711 58.5168 52.6056C58.0746 52.9511 57.7345 53.4001 57.3944 53.8147C57.3604 53.8492 57.3263 53.8838 57.2923 53.9529C57.0883 53.5038 56.5781 52.4674 56.0679 52.9511C56.0339 52.9856 56.0339 53.0547 56.1019 53.0892C56.5781 53.2274 56.8502 53.7456 57.0542 54.2637C56.8162 54.5746 56.6121 54.8855 56.442 55.231C56.408 55.2655 56.476 55.3346 56.51 55.3001C56.7821 55.1274 56.9862 54.8855 57.2243 54.6437C57.2923 54.8165 57.3604 55.0237 57.4284 55.1619C57.5644 55.4383 57.7685 55.7492 58.1086 55.7837C58.5508 55.8182 58.6529 55.231 58.7549 54.9201C58.7549 54.851 58.6528 54.851 58.6188 54.8855Z" fill="#370C84"/>
<path d="M102.155 49.013C101.576 47.1476 99.2294 45.5241 97.4948 46.3186C95.9982 46.3186 94.9098 47.9767 94.7397 49.4276C94.4676 51.6729 95.7261 53.7456 98.039 54.022C100.59 54.3329 102.903 51.4657 102.155 49.013ZM97.4268 53.3311C95.6921 52.882 95.0459 50.9475 95.2499 49.3239C95.386 48.3221 95.8282 47.5622 96.5084 47.1476C96.4744 47.1822 96.5424 47.2513 96.5764 47.2167C97.0186 46.9749 97.4608 46.7677 97.937 46.6986C98.073 46.6986 98.175 46.6986 98.3111 46.6986C98.3451 46.6986 98.3791 46.6986 98.3791 46.664C98.7873 46.664 99.1954 46.7331 99.6376 46.9058C100.624 47.3549 101.372 48.3221 101.712 49.3239C102.495 51.8111 99.6036 53.9183 97.4268 53.3311Z" fill="#370C84"/>
<path d="M99.7392 49.8421C99.263 49.8421 98.7529 49.8421 98.2767 49.8421C97.9365 49.8421 97.4944 49.773 97.1883 49.9803C97.1883 49.9803 97.1883 49.9803 97.1542 50.0148C97.1542 50.0148 97.1543 50.0148 97.1202 50.0494V50.0839V50.1185V50.153V50.1876C97.1202 50.1876 97.1202 50.1876 97.1542 50.2221C97.1542 50.2221 97.1543 50.2221 97.1883 50.2566C97.4944 50.4639 97.9365 50.3948 98.2767 50.3948C98.7529 50.3948 99.263 50.3948 99.7392 50.3948C99.9093 50.3948 100.011 50.2566 100.011 50.1185C100.011 49.9803 99.9093 49.8421 99.7392 49.8421Z" fill="#370C84"/>
<path d="M112.153 49.013C111.575 47.1476 109.228 45.5241 107.494 46.3186C105.997 46.3186 104.909 47.9767 104.739 49.4276C104.466 51.6729 105.725 53.7456 108.038 54.022C110.589 54.3329 112.936 51.4657 112.153 49.013ZM107.46 53.3311C105.725 52.882 105.079 50.9475 105.283 49.3239C105.419 48.3221 105.861 47.5622 106.541 47.1476C106.507 47.1822 106.575 47.2513 106.609 47.2167C107.051 46.9749 107.494 46.7677 107.97 46.6986C108.106 46.6986 108.208 46.6986 108.344 46.6986C108.378 46.6986 108.412 46.6986 108.412 46.664C108.82 46.664 109.228 46.7331 109.67 46.9058C110.657 47.3549 111.405 48.3221 111.745 49.3239C112.493 51.8111 109.602 53.9183 107.46 53.3311Z" fill="#370C84"/>
<path d="M109.738 49.8421C109.5 49.8421 109.228 49.8421 108.99 49.8421C108.99 49.6694 108.956 49.4621 108.922 49.2894C108.922 49.2549 108.922 49.2203 108.922 49.1858C108.922 49.0131 108.82 48.944 108.684 48.944C108.548 48.944 108.446 49.0131 108.446 49.1858C108.446 49.2203 108.446 49.2549 108.446 49.2894C108.412 49.4621 108.378 49.6349 108.378 49.8421C108.344 49.8421 108.31 49.8421 108.276 49.8421C107.935 49.8421 107.493 49.773 107.187 49.9803C107.187 49.9803 107.187 49.9803 107.153 50.0148C107.153 50.0148 107.153 50.0148 107.119 50.0494V50.0839V50.1185V50.153V50.1876C107.119 50.1876 107.119 50.1876 107.153 50.2221C107.153 50.2221 107.153 50.2221 107.187 50.2567C107.493 50.4639 107.935 50.3948 108.276 50.3948C108.31 50.3948 108.344 50.3948 108.378 50.3948C108.378 50.6712 108.412 50.913 108.412 51.1893C108.412 51.2584 108.446 51.3275 108.48 51.3621C108.514 51.4657 108.582 51.5002 108.684 51.5002C108.786 51.5002 108.854 51.4657 108.888 51.3621C108.922 51.3275 108.956 51.2584 108.956 51.1893C108.956 50.9475 108.99 50.6712 108.99 50.3948C109.262 50.3948 109.5 50.3948 109.772 50.3948C109.942 50.3948 110.044 50.2567 110.044 50.1185C110.01 49.9803 109.908 49.8421 109.738 49.8421Z" fill="#370C84"/>
<path d="M68.7466 75.8888C67.7942 76.1652 66.8419 76.0616 66.3997 75.0598C66.2636 74.7489 66.2296 74.438 66.2977 74.1616C66.5698 73.8853 66.9439 73.7471 67.3861 73.7816C67.6242 73.7816 67.6582 73.4362 67.4541 73.3671C66.6038 73.0217 65.9915 73.4017 65.8215 74.0926C65.4133 74.6107 65.1752 75.3361 65.0052 76.027C64.9712 76.0961 65.1072 76.1652 65.1412 76.0961C65.3113 75.7161 65.5154 75.2325 65.7875 74.818C65.7875 74.9216 65.8215 74.9907 65.8215 75.0943C65.9575 75.647 66.3657 76.1997 66.8759 76.4416C67.5901 76.787 68.2024 76.5106 68.7806 76.027C68.8486 75.9579 68.8146 75.8888 68.7466 75.8888Z" fill="#370C84"/>
<path d="M74.3927 73.9889C74.1887 73.5743 73.3724 73.678 72.9982 73.7125C72.6581 73.7125 72.284 73.7125 71.9438 73.7471C71.8078 73.7471 71.5017 73.8507 71.3656 73.7816C71.3316 73.7816 71.2976 73.8162 71.3316 73.8507C71.7057 74.058 72.0119 74.1271 72.488 74.1271C72.8622 74.1271 73.2363 74.1271 73.5764 74.1616C73.8145 74.1616 74.0866 74.2652 74.3247 74.1271C74.3927 74.1271 74.3927 74.058 74.3927 73.9889Z" fill="#370C84"/>
<path d="M74.3589 74.6452C73.8487 74.4034 73.3725 74.3689 72.7943 74.4034C72.5222 74.4034 72.2501 74.438 71.978 74.438C71.8759 74.438 71.6379 74.5071 71.5698 74.438C71.5358 74.4034 71.5018 74.4725 71.5358 74.5071C71.8419 74.7489 72.08 74.818 72.4882 74.8525C73.1004 74.8525 73.7467 74.7143 74.3589 74.7489C74.4269 74.7489 74.4269 74.6798 74.3589 74.6452Z" fill="#370C84"/>
<path d="M79.3585 73.9543C79.2224 72.8144 78.134 71.6053 76.9095 72.1235C75.2769 72.8144 75.549 74.2307 76.2293 75.5434C76.2293 75.5779 76.2633 75.5779 76.2973 75.5779C76.5014 76.027 76.8755 76.3724 77.3517 76.5106C78.7462 76.8561 79.4945 75.0252 79.3585 73.9543ZM77.4537 75.9579C76.9095 75.9234 76.5694 75.3016 76.3993 74.6107C76.3993 74.5416 76.3653 74.438 76.3653 74.3689C76.2633 73.7816 76.1953 73.298 76.7395 72.918C77.6238 72.2962 78.4401 72.8835 78.7462 73.8162C78.9843 74.6798 78.5081 75.9925 77.4537 75.9579Z" fill="#370C84"/>
<path d="M191.069 44.9147C191.069 43.982 191.069 43.0148 191.069 42.0821C191.069 40.1821 191.069 38.2822 191.069 36.4168C191.069 32.6169 191.069 28.8516 191.069 25.0517C191.069 24.879 190.933 24.8099 190.797 24.8099C190.661 24.8099 190.525 24.879 190.525 25.0517C190.525 25.1208 190.525 25.2245 190.525 25.2936C190.457 25.259 190.389 25.259 190.321 25.2936C188.688 26.2953 186.783 26.8481 185.015 27.5389C182.77 28.4025 180.593 29.4389 178.382 30.4061C175.797 31.5115 173.178 32.6169 170.593 33.7224C170.287 32.8242 169.947 31.9606 169.607 31.0625C171.001 30.6479 172.294 29.7843 173.62 29.2316C174.369 28.9207 175.117 28.6444 175.831 28.3335C176.239 28.1607 176.682 28.0226 177.056 27.7807C176.852 28.1953 176.716 28.6098 176.647 29.0934C176.647 29.128 176.716 29.1971 176.716 29.128C177.056 28.4716 177.362 27.8153 177.77 27.1935C177.838 27.0553 177.736 26.9517 177.634 26.9171C177.158 26.848 176.716 26.9171 176.239 26.9517C175.831 26.9862 175.423 26.9517 175.015 27.0208C174.947 27.0208 174.981 27.0899 175.015 27.1244C175.491 27.4353 176.137 27.3662 176.784 27.2971C176.341 27.4698 175.899 27.7117 175.457 27.9189C174.709 28.2298 173.994 28.5062 173.246 28.8171C171.988 29.3352 170.661 29.9225 169.471 30.6134C169.165 29.7498 168.859 28.8862 168.688 27.9535C168.654 27.7807 168.484 27.7462 168.348 27.8153C167.26 28.4025 166.172 28.8862 165.049 29.3352C165.049 29.3007 165.049 29.2662 165.049 29.2662C165.049 29.2316 165.015 29.2316 164.981 29.2662C164.981 29.3007 164.981 29.3352 164.947 29.3698C163.961 29.7843 162.94 30.1988 161.954 30.6479C161.92 30.6825 161.886 30.6825 161.852 30.717V30.6825C161.852 30.6479 161.784 30.6134 161.784 30.6825C161.784 30.717 161.784 30.7516 161.784 30.7861C161.308 31.0279 160.832 31.2352 160.355 31.477V31.4424C160.355 31.3734 160.287 31.3734 160.253 31.4424C160.253 31.477 160.253 31.5115 160.253 31.5115C159.743 31.7879 159.233 32.0297 158.723 32.306C158.723 32.2715 158.723 32.2715 158.723 32.237C158.723 32.2024 158.655 32.1679 158.655 32.237C158.655 32.2715 158.621 32.306 158.621 32.3751C158.281 32.5479 157.906 32.7206 157.532 32.8933C157.498 32.8588 157.464 32.8588 157.43 32.8933V32.9278C157.09 33.1006 156.716 33.2387 156.376 33.3769C156.342 33.3769 156.308 33.3769 156.308 33.4115C155.934 33.5496 155.526 33.7224 155.117 33.826C155.015 33.8605 154.913 33.9987 154.947 34.1024C155.151 34.6205 155.355 35.1041 155.56 35.6223C155.389 35.5532 155.219 35.5187 155.049 35.4496C154.981 35.4496 154.981 35.5187 155.015 35.5532C155.219 35.6568 155.457 35.795 155.662 35.8987C156.138 37.0041 156.58 38.144 156.92 39.3185C154.573 40.2858 152.192 41.253 149.845 42.2203C147.532 43.1875 145.22 44.1202 142.873 44.9838C141.002 45.6747 138.927 45.951 137.261 47.0565C137.057 47.1946 137.227 47.471 137.397 47.4019C137.431 47.471 137.465 47.5401 137.567 47.5401C139.744 47.7128 141.988 47.5746 144.165 47.5746C146.376 47.5746 148.553 47.5746 150.764 47.5746C155.287 47.5746 159.811 47.5746 164.335 47.5746C173.11 47.5746 181.919 47.7473 190.695 47.3674C190.729 47.3674 190.729 47.3328 190.729 47.3328C190.763 47.4019 190.831 47.4019 190.865 47.3328C190.967 47.2983 191.069 47.2292 191.069 47.091V46.4347C191.137 45.9856 191.069 45.4329 191.069 44.9147ZM169.267 32.9969C169.301 32.9969 169.335 32.9278 169.301 32.8933C169.301 32.8933 169.301 32.8933 169.267 32.8933C169.301 32.4788 169.335 32.0297 169.301 31.6152C169.607 32.3751 169.913 33.1351 170.151 33.8951C169.777 34.0678 169.403 34.206 169.029 34.3787C169.131 34.0333 169.165 33.6878 169.199 33.3424C169.233 33.2387 169.233 33.1351 169.267 32.9969ZM168.28 28.4371C168.45 29.3007 168.722 30.1298 169.029 30.9243C168.927 31.0279 168.995 31.2352 169.131 31.2006C169.131 31.2352 169.165 31.2697 169.165 31.3043C169.165 31.3043 169.165 31.3043 169.165 31.3388C169.063 31.7879 168.995 32.2715 168.927 32.7206C168.62 32.5479 168.28 32.3751 167.94 32.2024C167.94 32.1333 167.974 32.0297 167.974 31.9606C168.042 31.6152 168.144 31.2352 168.212 30.8552C168.382 30.9243 168.552 31.0279 168.722 31.1315C168.791 31.1661 168.825 31.097 168.791 31.0279C168.62 30.8897 168.45 30.717 168.28 30.5788C168.416 29.957 168.45 29.3352 168.246 28.7825C168.212 28.748 168.144 28.748 168.144 28.7825C168.178 29.3352 168.11 29.8534 168.008 30.3716C167.566 30.0607 167.124 29.8189 166.648 29.6116C166.648 29.4389 166.648 29.3007 166.648 29.128C167.226 28.9207 167.77 28.6789 168.28 28.4371ZM166.138 34.7932C166.069 34.7587 165.967 34.7241 165.899 34.6896C165.899 34.6551 165.899 34.6205 165.899 34.586C165.933 34.206 166.001 33.8605 166.069 33.4806C166.478 33.6533 166.852 33.826 167.26 33.9642C167.192 34.3787 167.124 34.7932 167.158 35.1732C166.716 35.3459 166.274 35.5532 165.831 35.7259C165.865 35.4496 165.865 35.1732 165.899 34.8623C165.967 34.8623 166.069 34.8969 166.138 34.8969C166.172 34.9314 166.172 34.8278 166.138 34.7932ZM166.104 33.2042C166.138 32.9278 166.206 32.686 166.24 32.4097C166.274 32.2024 166.308 31.9952 166.376 31.7879C166.41 31.7879 166.41 31.8224 166.444 31.8224C166.818 32.0297 167.192 32.237 167.6 32.4442C167.498 32.8242 167.396 33.2733 167.328 33.7224C166.92 33.5496 166.512 33.3769 166.104 33.2042ZM166.648 29.9916C167.09 30.2334 167.532 30.4752 167.974 30.717C167.872 31.1661 167.77 31.6152 167.668 32.0642C167.26 31.857 166.852 31.6497 166.444 31.4424C166.546 30.9588 166.614 30.4752 166.648 29.9916ZM167.668 34.1024C167.838 34.1369 168.008 34.1714 168.212 34.206C168.246 34.206 168.28 34.1369 168.246 34.1369C168.076 34.0678 167.906 33.9642 167.702 33.8951C167.702 33.8605 167.702 33.7915 167.702 33.7569C167.77 33.3769 167.804 32.9969 167.872 32.5824C168.212 32.7206 168.552 32.8588 168.893 32.9278C168.893 33.0315 168.859 33.1351 168.859 33.2387C168.791 33.6878 168.688 34.1024 168.654 34.5169C168.28 34.6551 167.94 34.8278 167.566 34.966C167.634 34.6896 167.634 34.3787 167.668 34.1024ZM166.478 29.577C166.342 29.5425 166.206 29.4734 166.035 29.4389C166.206 29.3698 166.376 29.3007 166.546 29.2316C166.512 29.3352 166.512 29.4734 166.478 29.577ZM165.015 29.8879C165.321 29.7498 165.627 29.6461 165.899 29.508C165.899 29.5425 165.899 29.6116 165.933 29.6116C166.104 29.7152 166.24 29.7843 166.41 29.8534C166.308 30.337 166.24 30.7861 166.138 31.2697C165.729 31.0625 165.321 30.8552 164.913 30.6825C164.981 30.4061 165.015 30.1643 165.015 29.8879ZM166.069 31.6152C166.001 31.9606 165.933 32.306 165.865 32.6515C165.831 32.7897 165.797 32.9278 165.763 33.066C165.559 32.9624 165.355 32.8933 165.185 32.7897C165.015 32.686 164.811 32.5824 164.641 32.4788C164.743 31.9952 164.811 31.5115 164.913 30.9934C165.287 31.2006 165.695 31.4079 166.069 31.6152ZM159.573 37.2459C159.573 37.2113 159.573 37.1768 159.573 37.1422C159.607 36.8314 159.641 36.5205 159.709 36.2096C160.049 36.3823 160.355 36.555 160.695 36.6932C160.627 37.0732 160.593 37.4186 160.593 37.764C160.287 37.5568 159.947 37.4186 159.573 37.2459ZM160.389 37.9368C160.083 38.0749 159.777 38.1786 159.471 38.3168C159.505 38.1095 159.539 37.8677 159.539 37.6259C159.811 37.764 160.083 37.8677 160.389 37.9368ZM159.777 35.8296C159.845 35.5532 159.879 35.2769 159.947 35.0005C159.981 34.8623 160.015 34.6896 160.049 34.5169C160.355 34.6551 160.627 34.8278 160.934 35.0005C160.968 35.035 161.002 35.035 161.036 35.0696C160.968 35.4841 160.866 35.8987 160.798 36.3132C160.457 36.1405 160.117 35.9677 159.777 35.8296ZM161.138 36.8659C161.41 36.9695 161.716 37.0732 161.988 37.1077C161.988 37.1768 161.988 37.2113 161.988 37.2804C161.648 37.4186 161.274 37.5568 160.934 37.695C161.036 37.4531 161.104 37.1422 161.138 36.8659ZM162.022 36.9695C161.75 36.7968 161.478 36.6586 161.206 36.5205C161.274 36.1059 161.308 35.6568 161.342 35.2423C161.614 35.3805 161.852 35.5187 162.124 35.6223C162.09 36.0714 162.022 36.5205 162.022 36.9695ZM161.41 34.8278C161.41 34.7241 161.444 34.586 161.444 34.4823C161.512 34.0678 161.546 33.6187 161.614 33.2042C161.92 33.3424 162.192 33.4806 162.498 33.6187C162.464 33.826 162.43 34.0678 162.396 34.2751C162.362 34.5514 162.294 34.8623 162.226 35.2078C161.954 35.0696 161.682 34.9314 161.41 34.8278ZM162.566 35.795C162.974 35.9332 163.348 36.0714 163.791 36.1059C163.757 36.2786 163.723 36.4514 163.723 36.6241C163.28 36.7968 162.872 36.9695 162.43 37.1422C162.498 36.6932 162.532 36.2441 162.566 35.795ZM162.6 35.3459C162.634 34.8969 162.668 34.4478 162.736 34.0333C162.736 33.9296 162.77 33.8605 162.77 33.7569C163.178 33.9642 163.587 34.1369 163.995 34.3442C163.961 34.6896 163.927 35.035 163.893 35.3805C163.893 35.5187 163.859 35.6568 163.825 35.795C163.416 35.6223 163.008 35.4841 162.6 35.3459ZM162.838 33.3769C162.906 32.8588 163.008 32.3406 163.076 31.8224C163.485 32.0642 163.893 32.306 164.301 32.5133C164.199 32.9624 164.131 33.4115 164.063 33.826C164.063 33.8605 164.063 33.8605 164.063 33.8951C163.655 33.7569 163.246 33.5496 162.838 33.3769ZM164.233 36.1059C164.369 36.1059 164.471 36.1059 164.607 36.0714C164.675 36.0714 164.675 36.0023 164.607 35.9677C164.505 35.9332 164.403 35.8987 164.267 35.8641C164.335 35.3805 164.335 34.7932 164.335 34.4133C164.675 34.5514 165.049 34.6551 165.389 34.7587C165.355 35.1387 165.355 35.5187 165.389 35.8641C164.947 36.0368 164.539 36.2096 164.097 36.3823C164.199 36.3132 164.233 36.2096 164.233 36.1059ZM164.403 34.0678C164.437 33.6187 164.505 33.1697 164.607 32.686C164.777 32.7551 164.913 32.8588 165.083 32.9624C165.287 33.066 165.525 33.2042 165.729 33.3078C165.627 33.6878 165.559 34.1024 165.491 34.5169C165.117 34.3787 164.743 34.2405 164.403 34.0678ZM164.845 29.957C164.811 30.1643 164.743 30.3716 164.709 30.5788C164.471 30.4752 164.233 30.4061 163.961 30.3025C164.267 30.1988 164.539 30.0607 164.845 29.957ZM163.246 30.6479C163.416 30.5788 163.621 30.4752 163.791 30.4061C164.063 30.5443 164.369 30.717 164.641 30.8552C164.539 31.3388 164.437 31.8224 164.335 32.306C163.927 32.0642 163.519 31.857 163.11 31.6152C163.144 31.3043 163.212 30.9588 163.246 30.6479ZM163.076 30.717C163.008 30.9934 162.94 31.2352 162.906 31.5115C162.668 31.3734 162.43 31.2697 162.158 31.1315C162.464 30.9934 162.77 30.8552 163.076 30.717ZM161.818 31.3043C161.886 31.2697 161.988 31.2352 162.056 31.2006C162.328 31.3734 162.6 31.5461 162.872 31.7188C162.77 32.237 162.668 32.7551 162.566 33.2733C162.26 33.1351 161.954 32.9969 161.648 32.8588C161.716 32.3406 161.75 31.8224 161.818 31.3043ZM160.321 32.0642C160.763 31.8224 161.206 31.6152 161.648 31.4079C161.648 31.4079 161.648 31.4079 161.682 31.4079C161.614 31.857 161.512 32.3406 161.444 32.7897C161.07 32.6515 160.695 32.5479 160.321 32.5133C160.321 32.3406 160.321 32.2024 160.321 32.0642ZM160.287 32.6515C160.661 32.7551 161.002 32.8933 161.376 33.066C161.308 33.5151 161.24 33.9296 161.138 34.3787C161.138 34.4823 161.104 34.5514 161.07 34.6551C160.9 34.586 160.763 34.4823 160.593 34.4133C160.423 34.3096 160.253 34.2405 160.049 34.1369C160.185 33.6533 160.253 33.1697 160.287 32.6515ZM158.689 32.8933C159.165 32.6515 159.675 32.4097 160.151 32.1333C160.151 32.237 160.117 32.3406 160.083 32.4442C159.981 32.4442 159.913 32.4442 159.811 32.4442C159.777 32.4442 159.777 32.4788 159.811 32.5133C159.879 32.5479 159.981 32.5479 160.049 32.5824C159.981 33.066 159.879 33.5151 159.811 33.9987C159.403 33.7915 159.029 33.6187 158.587 33.4806C158.655 33.2733 158.655 33.1006 158.689 32.8933ZM159.743 34.3787C159.675 34.7587 159.573 35.1387 159.505 35.5187C159.505 35.5532 159.471 35.6223 159.471 35.6568C159.199 35.5187 158.893 35.415 158.621 35.2769C158.519 35.2423 158.417 35.1732 158.315 35.1387C158.383 34.6896 158.485 34.2405 158.553 33.7915C158.961 33.9642 159.369 34.1714 159.743 34.3787ZM158.519 38.0749C158.315 38.0059 158.145 37.9368 157.94 37.8677C157.94 37.8331 157.94 37.7986 157.94 37.764C157.974 37.5222 157.974 37.2459 158.008 37.0041C158.383 37.1768 158.757 37.3495 159.131 37.4877C159.097 37.764 159.097 38.0059 159.131 38.2477C158.961 38.2131 158.757 38.144 158.519 38.0749ZM158.859 38.5586C158.519 38.6967 158.145 38.8349 157.804 38.9731C157.872 38.6967 157.906 38.4549 157.906 38.1786C158.008 38.2131 158.11 38.2477 158.179 38.2822C158.417 38.3858 158.621 38.4895 158.859 38.5586ZM158.213 36.6932C158.179 36.6586 158.11 36.6586 158.076 36.6241C158.145 36.2441 158.179 35.8987 158.247 35.5187C158.247 35.4841 158.247 35.4841 158.247 35.4496C158.485 35.5532 158.757 35.6914 158.995 35.795C159.131 35.8641 159.233 35.9332 159.369 36.0023C159.301 36.3477 159.233 36.6932 159.165 37.0732C158.893 36.9695 158.553 36.8313 158.213 36.6932ZM158.485 32.9969C158.451 33.1351 158.417 33.2733 158.417 33.4115C158.247 33.3424 158.076 33.3078 157.906 33.2733C158.076 33.1697 158.281 33.1006 158.485 32.9969ZM157.532 33.446C157.566 33.446 157.566 33.4115 157.6 33.4115C157.872 33.5151 158.11 33.5842 158.349 33.6878C158.281 34.1369 158.179 34.586 158.11 35.035C157.872 34.9314 157.668 34.8623 157.43 34.7587C157.464 34.3442 157.498 33.8951 157.532 33.446ZM158.008 35.3805C157.974 35.5187 157.94 35.6568 157.94 35.795C157.906 36.0368 157.838 36.2786 157.77 36.5205C157.6 36.4514 157.43 36.3823 157.226 36.3132C157.226 36.2096 157.226 36.1405 157.26 36.0368C157.294 35.7259 157.328 35.415 157.362 35.1041C157.6 35.2078 157.804 35.2769 158.008 35.3805ZM157.6 37.764C157.43 37.7295 157.294 37.6604 157.124 37.6259C157.158 37.315 157.192 37.0041 157.226 36.6586C157.396 36.7277 157.566 36.7968 157.736 36.8659C157.668 37.1422 157.634 37.4531 157.6 37.764ZM157.702 39.0422C157.532 39.1113 157.362 39.1804 157.226 39.2494C157.226 38.8695 157.158 38.4549 157.056 38.0404C157.056 37.9713 157.09 37.9022 157.09 37.8331C157.26 37.9022 157.43 37.9713 157.6 38.0749C157.566 38.4204 157.6 38.7313 157.702 39.0422ZM156.376 33.9296C156.682 33.826 156.988 33.6878 157.294 33.5496C157.226 33.9296 157.192 34.3096 157.158 34.6896C156.886 34.586 156.614 34.5169 156.342 34.4478C156.376 34.2751 156.376 34.1024 156.376 33.9296ZM155.968 35.3805C155.832 35.0696 155.662 34.7587 155.526 34.4478C155.662 34.4823 155.832 34.5514 155.968 34.586C155.968 34.8623 155.968 35.1387 155.968 35.3805ZM156.036 34.3787C155.866 34.3442 155.696 34.3442 155.526 34.3096C155.526 34.2751 155.492 34.2751 155.492 34.2405C155.696 34.1714 155.9 34.1024 156.138 34.0333C156.07 34.1369 156.07 34.2751 156.036 34.3787ZM156.206 35.8641C156.274 35.5532 156.308 35.2423 156.308 34.9314C156.308 34.8623 156.308 34.7932 156.342 34.7241C156.614 34.8278 156.886 34.9314 157.124 35.035C157.124 35.1732 157.09 35.2769 157.09 35.415C157.056 35.6914 157.022 35.9677 156.988 36.2441C156.75 36.1405 156.478 36.0368 156.24 35.9677C156.206 35.8987 156.206 35.8641 156.206 35.8641ZM156.852 37.3841C156.716 37.0041 156.58 36.6586 156.41 36.2786C156.58 36.3477 156.784 36.4514 156.954 36.5205C156.886 36.7968 156.852 37.1077 156.852 37.3841ZM188.824 47.2637C180.661 46.9874 172.498 47.1255 164.335 47.1255C159.913 47.1255 155.526 47.1255 151.104 47.1255C148.893 47.1255 146.716 47.1255 144.505 47.1255C142.363 47.1255 140.152 47.0219 138.009 47.1601C139.71 46.3656 141.58 46.0201 143.315 45.3638C145.662 44.4656 147.975 43.5329 150.288 42.5657C153.451 41.253 156.614 39.9749 159.777 38.6967C159.811 38.6967 159.811 38.6967 159.845 38.6967C159.879 38.6967 159.879 38.6622 159.913 38.6622C160.627 38.3513 161.376 38.0749 162.09 37.764C162.124 37.8677 162.26 37.8677 162.294 37.764C162.294 37.7295 162.294 37.695 162.328 37.6604C163.076 37.3495 163.825 37.0386 164.573 36.7623C165.457 36.4168 166.342 36.0368 167.226 35.6568C167.226 35.6914 167.226 35.7605 167.26 35.795C167.294 35.8987 167.43 35.8987 167.464 35.795C167.498 35.6914 167.532 35.6223 167.532 35.5187C171.137 34.0333 174.777 32.4788 178.348 30.9243C180.695 29.9225 183.042 28.8171 185.423 27.8844C187.157 27.1935 188.994 26.6753 190.593 25.6735C190.593 29.2316 190.593 32.7897 190.593 36.3477C190.593 38.2477 190.593 40.1476 190.593 42.013C190.593 42.9457 190.593 43.9129 190.593 44.8456C190.593 44.9147 190.593 44.9838 190.593 45.0529C190.049 44.9493 189.402 45.0529 188.892 45.1565C188.824 45.1565 188.756 45.2602 188.756 45.3292C188.688 46.0201 188.824 46.6419 188.824 47.2637ZM188.994 47.2983C189.198 46.7456 189.028 46.1238 189.028 45.5711C189.334 45.5711 189.64 45.5365 189.947 45.5365C190.151 45.5365 190.321 45.5365 190.525 45.502C190.525 45.8474 190.525 46.1929 190.525 46.5383V47.1946C190.525 47.2637 190.559 47.3328 190.593 47.3674C190.083 47.3328 189.538 47.2983 188.994 47.2983Z" fill="#370C84"/>
<path d="M190.899 50.8563C190.865 50.7527 190.763 50.6145 190.763 50.5109C190.763 50.4763 190.729 50.4763 190.695 50.5109C190.695 50.58 190.593 50.6836 190.593 50.7872C190.559 50.96 190.559 51.1672 190.525 51.34C181.817 51.1327 173.076 51.2363 164.335 51.2363C159.913 51.2363 155.491 51.2363 151.07 51.2363C146.546 51.2363 142.022 51.1327 137.499 51.2709C137.499 51.0636 137.499 50.8563 137.465 50.6836C137.431 50.6145 137.363 50.58 137.295 50.6491C136.784 51.1672 137.056 52.0308 137.226 52.5836C137.226 52.6526 137.329 52.6526 137.329 52.5836C137.397 52.2727 137.499 51.9618 137.499 51.6509C137.499 51.6163 137.499 51.6163 137.499 51.5818C141.92 51.7199 146.308 51.6163 150.73 51.6163C155.151 51.6163 159.573 51.6163 163.995 51.6163C172.838 51.6163 181.681 51.7199 190.525 51.5127C190.525 51.8927 190.559 52.2381 190.695 52.6181C190.695 52.6526 190.763 52.6526 190.763 52.6181C190.899 52.2381 190.933 51.8927 190.933 51.4781C190.933 51.2709 190.933 51.0636 190.899 50.8563Z" fill="#370C84"/>
<path d="M193.926 48.5764C194.062 48.4037 194.13 48.231 193.994 47.9892C193.79 47.5401 193.246 47.3328 192.804 47.2983C192.702 47.2983 192.566 47.4019 192.6 47.5055C192.634 48.1619 192.6 48.8528 192.702 49.5091C192.736 49.6473 192.94 49.6473 192.94 49.5091C193.008 48.9564 193.008 48.3692 193.008 47.8164C193.178 47.851 193.314 47.9201 193.45 48.0583C193.722 48.3001 193.348 48.5073 193.11 48.5764C192.872 48.68 193.042 49.0255 193.28 48.991C193.518 48.9564 194.028 48.8873 193.79 49.2673C193.62 49.5437 193.212 49.5091 192.94 49.5091C192.906 49.5091 192.872 49.5437 192.872 49.6127C193.212 50.1655 193.994 49.8891 194.198 49.3709C194.436 48.9219 194.232 48.68 193.926 48.5764Z" fill="#370C84"/>
<path d="M194.232 24.8445C193.722 24.7754 192.803 24.8445 192.735 24.1191C192.701 23.7045 192.973 23.1864 193.449 23.2209C193.483 23.2209 193.517 23.1864 193.483 23.1518C192.905 22.6337 192.395 23.5664 192.395 24.0845C192.395 24.4645 192.531 24.7754 192.837 25.0172C193.279 25.3281 193.858 25.2245 194.266 24.9481C194.266 24.9136 194.266 24.8445 194.232 24.8445Z" fill="#370C84"/>
<path d="M165.729 55.2089C165.049 55.658 164.743 54.6217 164.709 54.1035C164.709 53.9999 164.641 53.9653 164.607 53.9308C164.675 53.9308 164.743 53.9308 164.811 53.9653C164.845 53.9999 164.879 53.9308 164.879 53.8963C164.709 53.5508 164.233 53.7581 163.995 53.8963C163.519 54.1381 163.076 54.6217 163.042 55.1744C163.042 55.2435 163.11 55.3126 163.144 55.3126C163.655 55.4162 164.097 55.2089 164.403 54.829C164.437 55.0708 164.539 55.278 164.709 55.4508C165.049 55.8307 165.525 55.5544 165.831 55.278C165.797 55.2435 165.763 55.1744 165.729 55.2089ZM163.314 55.0017C163.416 54.6562 163.689 54.3799 163.995 54.1726C164.097 54.1035 164.267 53.9999 164.437 53.9653C164.403 53.9999 164.403 53.9999 164.403 54.0344C164.403 54.069 164.403 54.069 164.403 54.1035C164.267 54.6217 163.791 55.0362 163.314 55.0017Z" fill="#370C84"/>
<path d="M197.293 25.7081C196.647 25.6045 196.035 25.3972 195.355 25.6045C195.185 25.639 195.185 25.8808 195.355 25.9499C195.525 26.019 195.695 26.019 195.865 26.019C195.661 29.5425 195.763 33.1006 195.763 36.6241C195.763 38.4204 195.763 40.2513 195.763 42.0476C195.763 43.6366 195.627 45.3638 195.831 46.9529C195.593 46.9529 195.321 46.9529 195.151 47.1256V47.1601C195.355 47.3329 195.627 47.3329 195.899 47.3329C195.899 47.3674 195.899 47.4019 195.899 47.4365C195.899 47.471 195.967 47.471 196.001 47.4365C196.001 47.4019 196.001 47.3674 196.001 47.3329C196.409 47.3329 196.749 47.2638 197.157 47.1947C197.225 47.1947 197.225 47.091 197.157 47.091C196.783 47.0565 196.443 46.9529 196.069 46.9529C196.273 45.4675 196.137 43.8784 196.137 42.393C196.137 40.4585 196.137 38.5586 196.137 36.6241C196.137 33.1006 196.239 29.5425 196.035 26.019C196.443 26.019 196.851 25.8808 197.259 25.8118C197.361 25.8118 197.361 25.7081 197.293 25.7081Z" fill="#370C84"/>
<path d="M200.252 35.6568C200.048 35.6223 199.81 35.7259 199.674 35.5878C199.538 35.4496 199.334 35.5532 199.334 35.7259C199.3 36.7968 198.586 36.2096 198.416 35.6568C198.858 34.6896 199.062 33.5496 198.892 32.5824C198.892 32.4788 198.756 32.4442 198.654 32.4788C197.735 32.9969 197.871 34.6896 198.075 35.5532C197.939 35.9332 197.769 36.3477 197.667 36.7623C197.667 36.7968 197.701 36.8314 197.735 36.7968C197.905 36.555 198.075 36.3132 198.245 36.0023C198.382 36.3132 198.62 36.6241 198.892 36.6932C199.368 36.7968 199.538 36.4514 199.64 36.0714C199.844 36.1405 199.98 35.9332 200.252 35.7605C200.32 35.7259 200.32 35.6568 200.252 35.6568ZM198.279 34.6205C198.245 34.1369 198.279 33.3078 198.62 32.8933C198.688 33.6187 198.518 34.2751 198.279 34.9314C198.313 34.8623 198.313 34.7242 198.279 34.6205Z" fill="#370C84"/>
<path d="M171.035 23.6009C171.613 23.6355 172.191 23.67 172.702 23.3937C172.736 23.3591 172.736 23.29 172.702 23.29C172.089 23.1518 171.477 23.1864 170.865 23.1864C170.763 23.1864 170.661 23.29 170.661 23.3937C170.627 23.9464 170.661 24.4991 170.695 25.0518C170.695 25.3972 170.627 26.019 170.899 26.2608H170.933C171.171 26.019 171.069 25.5354 171.069 25.2591C171.069 25.19 171.069 25.0863 171.069 25.0172C171.375 25.0863 171.715 24.9827 171.987 24.9482C172.021 24.9482 172.021 24.8791 171.987 24.8445C171.749 24.7063 171.375 24.5682 171.069 24.6718C171.035 24.2573 171.035 23.9118 171.035 23.6009Z" fill="#370C84"/>
<path d="M156.102 78.0721C156.034 77.5885 154.809 75.7231 155.184 75.4467C155.218 75.4467 155.218 75.4122 155.252 75.4122C155.456 75.2395 155.184 74.894 154.98 74.9977C154.911 75.0322 154.843 75.0668 154.809 75.1358C154.061 75.7231 153.279 76.3104 152.497 76.8631C152.224 77.0358 151.884 77.2085 151.646 77.4503C151.578 77.5194 151.136 78.0376 151.102 78.003C151.102 77.9685 151.068 77.9685 151.034 78.003C151 78.1067 151 78.1067 151 78.1757C151 78.2103 151.034 78.2448 151.068 78.2448C151.204 78.3139 151.306 78.2448 151.408 78.1757C151.782 77.9339 152.054 77.6576 152.463 77.4158C153.245 76.9667 153.959 76.414 154.673 75.8613C154.741 76.1722 154.911 76.5176 155.048 76.794C155.252 77.2085 155.524 77.623 155.626 78.1067C155.762 78.763 154.605 78.4521 154.265 78.5557C154.129 78.5903 154.095 78.763 154.231 78.8321C154.877 79.2466 156.238 79.0739 156.102 78.0721Z" fill="#370C84"/>
<path d="M159.945 76.5522C159.571 76.414 159.095 76.4485 158.721 76.414C158.245 76.3794 157.836 76.5176 157.394 76.5176C157.36 76.5176 157.36 76.5867 157.394 76.5867C157.836 76.6558 158.279 76.8285 158.721 76.8631C159.095 76.8976 159.571 77.0012 159.945 76.8976C160.115 76.8631 160.115 76.6213 159.945 76.5522Z" fill="#370C84"/>
<path d="M160.183 77.8303C159.741 77.6921 159.333 77.623 158.857 77.5885C158.483 77.5539 157.666 77.3812 157.428 77.6921C157.394 77.7267 157.394 77.7266 157.428 77.7612C157.666 78.1066 158.347 78.003 158.721 78.0375C159.231 78.0721 159.707 78.0721 160.217 77.9685C160.251 77.9685 160.251 77.8648 160.183 77.8303Z" fill="#370C84"/>
<path d="M167.53 77.9685C167.02 78.3485 166.238 78.9357 165.625 78.2794C165.183 77.8303 165.149 76.8976 165.115 76.3449C165.115 75.9995 164.605 75.9649 164.605 76.3103C164.605 76.6558 164.537 78.8666 163.721 78.1412C163.142 77.6576 163.21 76.7249 163.346 76.034C163.381 75.8958 163.415 75.7576 163.449 75.6195C163.483 75.4467 163.244 75.3777 163.176 75.5158C163.108 75.6885 163.074 75.8958 163.006 76.1722C162.768 77.0703 162.496 77.9685 162.462 78.9012C162.462 78.9703 162.53 78.9703 162.564 78.9357C162.734 78.4866 162.836 78.003 162.972 77.5539C163.04 78.0376 163.278 78.4866 163.755 78.6939C164.367 78.9357 164.707 78.5903 164.877 78.0721C165.013 78.4176 165.217 78.7284 165.523 78.9703C166.34 79.6611 167.224 78.6248 167.632 78.0721C167.666 78.003 167.598 77.9339 167.53 77.9685Z" fill="#370C84"/>
<path d="M170.456 74.445C169.707 74.3068 168.959 74.2377 168.211 74.2031C168.211 73.7541 168.211 73.305 168.211 72.8214C168.211 72.5796 167.871 72.545 167.837 72.7868C167.803 73.2705 167.7 73.7195 167.598 74.1686C167.122 74.1686 166.646 74.1686 166.17 74.2031C166.102 74.2031 166.136 74.3068 166.17 74.3413C166.578 74.5486 167.02 74.6177 167.496 74.6522C167.326 75.274 167.088 75.8958 166.884 76.5176C166.884 76.5522 166.918 76.5522 166.918 76.5522C167.394 76.3104 167.564 75.7576 167.734 75.274C167.768 75.1704 167.803 75.0668 167.837 74.9631C167.837 75.7922 167.905 76.6212 168.041 77.4158C168.143 78.003 168.313 78.6939 168.823 79.0739C169.299 79.4193 169.843 79.0393 170.081 78.6248C170.115 78.5903 170.047 78.5212 170.013 78.5212C169.537 78.6594 169.129 78.8666 168.789 78.3139C168.449 77.7267 168.381 76.9321 168.279 76.3104C168.211 75.7576 168.211 75.2049 168.177 74.6868C168.959 74.6868 169.707 74.5486 170.421 74.514C170.524 74.514 170.524 74.445 170.456 74.445Z" fill="#370C84"/>
<path d="M173.754 76.3103C173.584 76.1376 173.414 76.1376 173.21 76.1376C173.21 75.9303 173.244 75.7231 173.21 75.5158C173.21 75.4813 173.176 75.4813 173.142 75.4813C172.904 75.5849 172.802 75.8612 172.768 76.1376C172.462 76.1376 172.122 76.1721 171.816 76.2758C171.782 76.2758 171.782 76.3449 171.816 76.3794C172.122 76.5176 172.462 76.5176 172.768 76.5176C172.802 76.8285 172.904 77.1739 173.006 77.3812C173.04 77.4157 173.074 77.4157 173.074 77.3812C173.108 77.1048 173.142 76.8285 173.142 76.5521C173.346 76.5521 173.55 76.5521 173.72 76.414C173.788 76.3794 173.788 76.3449 173.754 76.3103Z" fill="#370C84"/>
<path d="M177.258 72.2341C177.292 71.9923 176.952 71.9232 176.816 72.0959C176.442 72.6141 176.067 73.0977 175.761 73.6159C175.727 73.6504 175.761 73.7195 175.829 73.685C176.135 73.6159 176.374 73.3741 176.612 73.1323C176.544 73.7195 176.578 74.3413 176.884 74.7559C176.918 74.8249 177.02 74.7904 177.054 74.7213C177.19 74.3759 177.122 73.9959 177.122 73.6504C177.088 73.1668 177.19 72.7177 177.258 72.2341Z" fill="#370C84"/>
<path d="M179.231 75.4122C178.584 75.274 177.938 75.274 177.292 75.274C176.578 75.274 175.795 75.1358 175.081 75.274C175.047 75.274 175.047 75.3431 175.081 75.3431C175.761 75.654 176.544 75.654 177.292 75.7231C177.972 75.7576 178.619 75.7922 179.231 75.5158C179.265 75.5158 179.265 75.4122 179.231 75.4122Z" fill="#370C84"/>
<path d="M178.346 79.3502C178.006 79.3157 177.632 79.1775 177.258 79.0739C177.054 79.0393 176.884 79.0048 176.68 78.9702C176.986 78.6593 177.224 78.2103 177.122 77.7612C177.02 77.1049 176.306 77.3467 176.102 77.7267C176.068 77.7612 176.136 77.8648 176.17 77.8303C176.442 77.7612 176.816 77.4848 176.748 78.003C176.68 78.383 176.408 78.763 176.102 78.9702C175.965 79.0739 176.102 79.2811 176.238 79.2811C176.612 79.3157 177.02 79.523 177.394 79.592C177.768 79.6957 178.04 79.592 178.38 79.4539C178.414 79.4539 178.38 79.3502 178.346 79.3502Z" fill="#370C84"/>
<path d="M187.019 77.7612C186.543 78.2448 186.101 78.2103 185.727 77.5539C185.523 77.2085 185.421 76.8285 185.353 76.4485C185.421 76.1722 185.489 75.8613 185.523 75.5504C186.033 75.5158 186.543 75.4467 186.985 75.3776C187.053 75.3776 187.053 75.274 186.985 75.274C186.543 75.1704 186.101 75.1013 185.625 75.0667C185.591 75.0667 185.557 75.0667 185.557 75.0667C185.625 74.4449 185.591 73.7886 185.557 73.2704C185.557 73.1323 185.421 73.0632 185.319 73.1323C184.911 73.5123 184.877 74.4104 184.843 74.9631C184.843 74.9977 184.843 74.9977 184.843 75.0322C184.57 75.0322 184.332 75.0322 184.094 75.0667C184.026 75.0667 184.026 75.1704 184.094 75.2049C184.332 75.3776 184.57 75.4467 184.843 75.5158C184.843 75.7922 184.843 76.1031 184.877 76.3794C184.741 76.7594 184.57 77.1049 184.366 77.4503C184.094 77.8994 183.414 78.3139 182.972 77.6576C182.836 77.4503 182.768 77.2085 182.768 76.9667C182.802 76.794 182.802 76.6212 182.768 76.414C182.768 76.3794 182.768 76.3794 182.768 76.3449C182.734 76.1376 182.496 76.1722 182.428 76.2758C181.373 75.8958 179.911 77.623 180.863 78.3485C181.271 78.6594 181.849 78.2794 182.156 78.0721C182.292 77.9685 182.428 77.8303 182.53 77.6921C182.632 77.8994 182.734 78.1066 182.938 78.2448C183.55 78.6939 184.264 78.4175 184.707 77.8994C184.877 77.6921 185.013 77.4848 185.115 77.243C185.149 77.3121 185.149 77.3467 185.183 77.4158C185.625 78.4175 186.917 79.4539 187.223 77.8648C187.155 77.7957 187.087 77.7267 187.019 77.7612ZM182.326 77.0358C182.19 77.4848 181.849 77.8648 181.373 78.0376C180.931 78.1757 180.829 77.8648 180.965 77.5194C181.169 76.863 181.713 76.5867 182.326 76.5867C182.292 76.6903 182.292 76.8631 182.326 77.0358ZM185.285 73.8232C185.285 74.2377 185.251 74.6522 185.183 75.0667C185.183 74.6177 185.183 74.1686 185.285 73.8232Z" fill="#370C84"/>
<path d="M190.285 74.8595C189.707 74.9977 188.958 74.7904 188.312 74.5831C188.686 74.3759 188.924 73.9613 188.924 73.5123C188.958 72.8905 188.176 72.6141 187.802 73.0287C187.768 73.0632 187.768 73.1323 187.836 73.1668C188.176 73.2705 188.584 73.1323 188.482 73.6504C188.414 73.9959 188.176 74.3759 187.87 74.5141C187.802 74.5486 187.802 74.6868 187.87 74.7213C188.754 75.2049 189.469 75.5849 190.319 74.9977C190.387 74.9286 190.353 74.8595 190.285 74.8595Z" fill="#370C84"/>
<path d="M166.34 84.1174C165.932 84.4628 165.286 84.4974 164.98 84.0137C164.81 83.7374 164.47 83.8756 164.435 84.1519C164.333 84.8428 164.231 85.4991 163.959 86.1555C163.891 85.361 163.823 84.601 163.551 83.841C163.483 83.6683 163.279 83.5647 163.143 83.7374C162.735 84.1865 162.395 84.7046 162.361 85.3264C162.361 85.4646 162.565 85.5337 162.633 85.3955C162.803 85.0501 163.007 84.7392 163.211 84.4283C163.415 85.2919 163.449 86.19 163.517 87.0882C163.551 87.3645 163.857 87.4682 164.027 87.2264C164.538 86.4664 164.776 85.6373 164.912 84.7392C165.422 85.0501 165.966 84.7392 166.408 84.1519C166.476 84.1174 166.374 84.0828 166.34 84.1174Z" fill="#370C84"/>
<path d="M171.51 84.6701C170.966 84.4974 170.456 84.4974 169.878 84.4974C169.436 84.4974 168.687 84.3937 168.347 84.7046V84.7392C168.687 85.0846 169.47 84.9464 169.878 84.9464C170.456 84.9464 170.966 84.9464 171.51 84.7737C171.578 84.7737 171.578 84.7046 171.51 84.6701Z" fill="#370C84"/>
<path d="M171.408 85.8791C170.456 85.5336 169.197 85.6373 168.245 85.9136C168.211 85.9136 168.211 85.9827 168.245 85.9827C169.197 86.2591 170.456 86.3627 171.408 86.0173C171.442 85.9482 171.442 85.8791 171.408 85.8791Z" fill="#370C84"/>
<path d="M178.925 85.9482C178.415 86.1554 177.666 86.3627 177.292 85.81C177.054 85.4646 177.088 85.0155 177.19 84.6009C177.258 84.4282 177.292 84.2555 177.326 84.1173C177.428 83.7719 176.952 83.6682 176.816 83.9791C176.748 84.1864 176.68 84.4282 176.612 84.6355C176.408 85.2573 176.034 85.8791 175.422 86.0518C174.877 86.2245 174.775 85.6373 174.809 85.0155C174.911 84.6355 174.979 84.221 175.013 83.8064C175.013 83.5992 174.707 83.5646 174.639 83.7719C174.537 84.1519 174.367 84.7391 174.367 85.2573C174.231 85.7754 174.027 86.2591 173.823 86.7427C173.789 86.7772 173.857 86.8118 173.891 86.7772C174.095 86.5009 174.265 86.19 174.435 85.8791C174.537 86.2245 174.775 86.4663 175.184 86.5354C175.762 86.6391 176.238 86.2245 176.578 85.7064C176.646 85.9482 176.782 86.19 176.986 86.4318C177.598 87.0881 178.449 86.6045 178.925 86.1209C179.061 86.0518 179.027 85.9136 178.925 85.9482Z" fill="#370C84"/>
<path d="M183.142 84.2901C183.006 84.1174 182.7 84.1173 182.462 84.1519C182.496 83.9792 182.53 83.841 182.632 83.7374C182.7 83.7028 182.632 83.5646 182.564 83.5992C182.292 83.7028 182.156 83.9446 182.088 84.1864C181.782 84.2555 181.51 84.3592 181.271 84.5664C181.237 84.601 181.237 84.7046 181.306 84.7046C181.578 84.6701 181.816 84.6355 182.088 84.601C182.122 84.981 182.258 85.3264 182.428 85.6028C182.462 85.6373 182.53 85.6373 182.53 85.5682C182.53 85.2573 182.496 84.9119 182.462 84.601V84.5664C182.7 84.5664 182.938 84.601 183.142 84.4973C183.176 84.4628 183.176 84.3592 183.142 84.2901Z" fill="#370C84"/>
<path d="M191.612 84.9119C191.272 85.1191 190.863 85.5682 190.455 85.3264C190.081 85.0846 189.877 84.4628 189.741 84.0828C189.639 83.8064 189.571 83.4955 189.503 83.1846C189.537 83.1156 189.537 83.0465 189.537 82.9428C190.149 82.9428 190.727 82.8392 191.306 82.7701C191.34 82.7701 191.34 82.701 191.306 82.701C190.761 82.5974 190.183 82.5283 189.605 82.5283C189.673 81.9756 189.605 81.4229 189.401 80.9738C189.333 80.8011 189.027 80.8356 188.993 81.0429C188.891 81.5265 188.891 82.0447 188.925 82.5628C188.619 82.5974 188.313 82.6319 188.04 82.7356C188.006 82.7356 188.006 82.8047 188.04 82.8047C188.347 82.9083 188.653 82.9428 188.993 82.9774C188.993 83.0465 189.027 83.1156 189.027 83.2192C188.823 84.0483 188.415 84.8428 187.972 85.3955C187.836 85.1537 187.734 84.8773 187.7 84.601C187.7 84.5319 187.666 84.4973 187.632 84.4628C187.734 84.3592 187.7 84.1864 187.598 84.1173C186.748 83.5646 185.455 84.0137 185.319 84.9809C184.945 85.3609 184.673 85.8446 184.605 86.4318C184.571 86.57 184.775 86.6391 184.843 86.5009C184.979 86.1555 185.149 85.8446 185.387 85.5682C185.523 86.1209 186 86.5009 186.544 86.3627C186.952 86.2591 187.292 85.8791 187.53 85.43C187.632 85.6027 187.7 85.81 187.802 85.9827C187.87 86.1209 188.074 86.1555 188.176 86.0173C188.619 85.5337 189.027 84.8428 189.333 84.0482C189.435 84.3937 189.571 84.7046 189.707 85.0155C190.183 85.9827 191.442 86.3282 191.782 85.05C191.714 84.9464 191.68 84.9119 191.612 84.9119ZM187.224 84.5664C187.122 85.05 186.272 86.6391 185.728 85.3264C185.694 85.2573 185.694 85.1882 185.66 85.1191C186.102 84.7737 186.646 84.5319 187.224 84.4973C187.258 84.4973 187.224 84.5319 187.224 84.5664Z" fill="#370C84"/>
<path d="M167.973 93.0297C167.497 92.9261 166.987 92.9261 166.511 92.7879C166.307 92.7188 166.137 92.8915 166.137 93.0643C166.103 93.8588 165.797 94.5497 165.422 95.206C165.218 94.6533 165.218 94.0315 165.218 93.4443C165.218 93.0988 164.776 93.0643 164.64 93.3752C164.402 93.997 164.266 94.6533 164.062 95.2751C163.892 94.3769 163.96 93.4442 163.79 92.5461C163.756 92.3734 163.484 92.2697 163.382 92.4425C163.246 92.6152 163.109 92.8224 163.007 93.0297C162.973 93.0988 162.939 93.1679 162.905 93.237C162.905 93.2715 162.905 93.2715 162.871 93.3061C162.837 93.2715 162.803 93.3061 162.803 93.3406C162.769 93.7206 163.075 93.5133 163.348 93.237C163.416 94.2733 163.382 95.3096 163.722 96.2769C163.79 96.4841 164.13 96.5878 164.232 96.346C164.436 95.9314 164.606 95.4824 164.742 94.9987C164.81 95.3442 164.946 95.6551 165.15 95.966C165.286 96.1732 165.524 96.1387 165.66 95.966C166.205 95.1715 166.613 94.3769 166.715 93.4443C167.157 93.4788 167.497 93.3061 167.973 93.1679C168.007 93.1334 168.041 93.0297 167.973 93.0297Z" fill="#370C84"/>
<path d="M173.007 94.3079C172.871 94.2388 172.871 94.1351 172.701 94.1351C172.429 94.1006 172.123 94.1006 171.851 94.1006C171.136 94.1006 170.354 94.0315 169.674 94.2388C169.538 94.2733 169.538 94.4806 169.674 94.5151C170.32 94.7224 171.034 94.6533 171.68 94.6533C171.987 94.6533 172.327 94.6533 172.633 94.6533C172.837 94.6533 172.871 94.5497 173.007 94.446C173.041 94.446 173.041 94.3424 173.007 94.3079Z" fill="#370C84"/>
<path d="M172.871 95.5169C171.851 95.3442 170.831 94.9988 169.81 95.2751C169.742 95.2751 169.776 95.3788 169.81 95.3788C170.831 95.6897 171.817 95.7933 172.871 95.6206C172.905 95.6206 172.905 95.5515 172.871 95.5169Z" fill="#370C84"/>
<path d="M177.939 90.8534C178.518 90.9225 179.13 91.1298 179.742 91.0262C179.776 91.0262 179.81 90.9571 179.776 90.9225C179.164 89.9898 177.361 90.3007 176.409 90.128C176.239 90.0935 176.103 90.1971 176.103 90.3698C176.103 91.3371 176.069 92.2698 176.001 93.237C175.933 94.2042 175.797 95.2406 176.001 96.2078C176.035 96.3114 176.171 96.3114 176.205 96.2078C176.409 95.3442 176.375 94.4461 176.443 93.5479C176.477 93.2715 176.477 92.9606 176.511 92.6843C176.885 92.7188 177.259 92.6843 177.633 92.6498C178.28 92.6152 178.96 92.5807 179.606 92.6843C179.674 92.6843 179.708 92.6152 179.64 92.5807C178.756 92.0625 177.531 91.9934 176.511 92.2698C176.545 91.7516 176.579 91.1989 176.579 90.6807C177.021 90.7498 177.463 90.7844 177.939 90.8534Z" fill="#370C84"/>
<path d="M181.17 93.9279C181.17 93.8934 181.136 93.8243 181.102 93.7897C181.068 93.7552 181.034 93.7552 180.966 93.7206C180.966 93.6861 180.966 93.6861 180.966 93.6516C180.966 93.4443 180.66 93.3061 180.524 93.5479C180.456 93.6516 180.354 93.8588 180.456 93.997C180.49 94.1352 180.592 94.2734 180.762 94.3424C181.034 94.4461 181.238 94.1697 181.17 93.9279Z" fill="#370C84"/>
<path d="M188.551 92.7879C187.735 93.1334 186.987 93.7206 186.34 94.3424C185.626 93.7897 184.606 93.0298 184.81 92.7189C184.81 92.6843 184.844 92.6843 184.844 92.6498C184.946 92.3734 184.538 92.2352 184.402 92.4425C184.368 92.5116 184.334 92.5807 184.334 92.6498C184.062 93.3752 183.517 93.997 183.109 94.6188C182.973 94.8261 182.497 95.3788 182.735 95.6551C182.735 95.6897 182.769 95.6551 182.803 95.6551C183.041 95.2061 183.517 94.757 183.823 94.3424C184.062 93.997 184.334 93.6516 184.538 93.3061C184.878 93.7897 185.558 94.2388 186.068 94.6188C186.034 94.6533 186 94.6879 185.966 94.7224C185.66 95.0333 184.742 96.1733 185.762 96.2078C186.476 96.2424 187.497 95.6897 187.021 94.8952C186.987 94.8261 186.885 94.7224 186.749 94.6188C187.361 94.0315 187.973 93.3752 188.619 92.8225C188.653 92.857 188.585 92.7879 188.551 92.7879ZM186.613 95.4479C186.476 95.586 185.626 96.0006 185.864 95.6206C186 95.3788 186.204 95.1715 186.408 94.9642C186.613 95.1715 186.715 95.3442 186.613 95.4479Z" fill="#370C84"/>
<path d="M123.812 104.222C123.812 104.187 123.812 104.153 123.778 104.118C123.744 104.049 123.676 104.014 123.608 104.014C123.539 104.014 123.471 104.049 123.437 104.118C123.403 104.153 123.403 104.187 123.403 104.222C123.233 105.5 123.369 106.882 123.403 108.194C123.403 108.332 123.505 108.401 123.608 108.401C123.71 108.401 123.812 108.332 123.812 108.194C123.846 106.882 123.982 105.5 123.812 104.222Z" fill="#370C84"/>
<path d="M132.485 109.576C132.485 108.505 132.553 107.469 132.485 106.398C132.485 106.225 132.383 106.156 132.246 106.156C132.212 106.156 132.212 106.156 132.178 106.156C131.328 106.018 130.512 105.983 129.627 105.983C128.743 105.983 127.621 105.811 126.736 106.087C126.736 105.5 126.736 104.878 126.668 104.325V104.291V104.256C126.668 104.222 126.634 104.152 126.6 104.118L126.566 104.083C126.532 104.049 126.498 104.049 126.43 104.049C126.396 104.049 126.362 104.014 126.328 104.014C125.954 104.014 125.546 103.98 125.172 104.049C125.104 104.014 125.002 103.98 124.9 104.014C124.866 104.014 124.866 104.049 124.832 104.049C124.798 104.049 124.73 104.083 124.73 104.118C124.696 104.152 124.696 104.187 124.696 104.222C124.662 104.256 124.662 104.325 124.696 104.36C124.56 105.603 124.696 106.951 124.73 108.194C124.73 108.332 124.832 108.401 124.934 108.401C124.934 108.401 124.934 108.401 124.968 108.401C125.002 108.471 125.07 108.505 125.172 108.505H125.206C125.41 108.505 125.58 108.505 125.784 108.505C125.988 108.54 126.192 108.54 126.396 108.505C126.532 108.505 126.634 108.436 126.668 108.332C126.702 108.298 126.736 108.263 126.736 108.194C126.736 107.607 126.77 107.02 126.804 106.432C127.587 106.674 128.505 106.536 129.321 106.536C130.274 106.536 131.158 106.536 132.076 106.363V106.398C132.008 107.331 132.042 108.298 132.076 109.23C132.076 109.852 132.042 110.509 132.178 111.13C132.178 112.719 132.178 114.309 132.144 115.898H132.11C129.049 115.794 126.022 115.863 122.995 116.07C122.995 115.759 122.995 115.448 122.995 115.138C122.995 114.999 122.893 114.93 122.825 114.93C122.791 114.896 122.757 114.896 122.689 114.896C120.07 114.861 117.485 114.792 114.866 115.034C114.832 115.034 114.798 115.068 114.832 115.103C114.764 115.138 114.73 115.172 114.73 115.276C114.73 115.518 114.73 115.759 114.73 116.001C112.179 115.967 109.594 116.001 107.043 116.001C104.968 116.001 102.791 115.794 100.751 116.139C100.819 115.241 100.819 114.343 100.819 113.445C100.921 113.376 101.023 113.272 100.921 113.134C100.921 113.099 100.887 113.099 100.887 113.065C101.091 112.823 101.295 112.512 101.465 112.27C101.669 111.994 102.009 111.683 102.009 111.303C102.111 111.13 102.009 110.923 101.805 110.923C101.465 110.923 101.125 110.889 100.785 110.889C100.785 110.647 100.785 110.44 100.785 110.198C100.887 109.023 100.819 107.814 100.785 106.674C102.451 106.812 104.152 106.709 105.784 106.709C107.723 106.709 109.662 106.709 111.635 106.709C115.546 106.709 119.424 106.778 123.301 106.501C123.403 106.501 123.403 106.363 123.301 106.363C119.526 106.122 115.784 106.156 112.009 106.156C110.07 106.156 108.131 106.156 106.159 106.156C104.356 106.156 102.485 106.018 100.683 106.191C100.512 106.191 100.444 106.294 100.444 106.432C100.342 106.467 100.274 106.536 100.274 106.64C100.274 107.78 100.172 108.954 100.274 110.129C100.274 110.198 100.274 110.232 100.274 110.301C100.274 110.509 100.274 110.716 100.274 110.958C99.9003 110.958 99.5261 110.992 99.152 111.061C99.118 111.027 99.084 111.061 99.084 111.096C98.9479 111.165 98.9819 111.407 99.152 111.441C99.186 111.441 99.186 111.441 99.22 111.441C99.3561 111.718 99.5261 111.959 99.7302 112.167C99.9343 112.443 100.104 112.719 100.308 112.996C100.274 114.205 100.308 115.448 100.41 116.658C100.41 116.796 100.478 116.83 100.581 116.83C100.683 116.83 100.785 116.796 100.751 116.658C100.751 116.554 100.751 116.485 100.785 116.381C102.825 116.727 105.002 116.519 107.077 116.519C109.628 116.519 112.213 116.519 114.764 116.519C114.764 116.727 114.73 116.934 114.798 117.107C114.798 117.141 114.798 117.176 114.832 117.21C114.832 117.245 114.866 117.245 114.866 117.279C114.866 117.314 114.9 117.314 114.934 117.314C116.056 117.59 117.281 117.452 118.403 117.452C119.832 117.452 121.26 117.452 122.655 117.452C122.689 117.452 122.723 117.452 122.757 117.417C122.791 117.417 122.859 117.417 122.893 117.417C123.029 117.417 123.097 117.314 123.097 117.21C123.097 117.141 123.097 117.107 123.063 117.072C123.063 116.796 123.063 116.519 123.063 116.243C126.09 116.416 129.151 116.519 132.178 116.416C132.212 116.416 132.246 116.416 132.246 116.416C132.314 116.416 132.349 116.416 132.417 116.416C132.519 116.416 132.553 116.381 132.587 116.278C132.621 116.243 132.621 116.208 132.621 116.174C132.621 114.205 132.621 112.201 132.587 110.232C132.485 109.921 132.485 109.749 132.485 109.576Z" fill="#370C84"/>
<path d="M104.764 112.685C104.56 112.616 104.288 112.547 104.05 112.547C104.084 112.339 104.084 112.132 104.084 111.925C104.084 111.614 104.084 111.2 104.016 110.82C104.186 110.785 104.322 110.716 104.458 110.681C104.492 110.681 104.492 110.612 104.458 110.612C104.288 110.543 104.084 110.474 103.88 110.474C103.88 110.474 103.88 110.44 103.846 110.44C103.812 110.405 103.744 110.405 103.71 110.44V110.474C103.506 110.474 103.302 110.474 103.132 110.543C103.098 110.578 103.064 110.612 103.098 110.681C103.234 110.82 103.404 110.889 103.608 110.889C103.574 111.13 103.608 111.407 103.642 111.649C103.642 111.959 103.574 112.305 103.608 112.616C103.506 112.65 103.404 112.65 103.302 112.719C103.268 112.719 103.268 112.754 103.268 112.789C103.574 113.272 104.322 112.961 104.73 112.823C104.798 112.754 104.798 112.719 104.764 112.685Z" fill="#370C84"/>
<path d="M120.07 114.067C119.424 113.756 118.743 113.376 118.165 112.927C118.403 112.685 118.777 112.409 118.777 112.098C118.777 111.649 118.199 111.614 117.893 111.58C117.825 111.58 117.723 111.649 117.723 111.718C117.655 112.132 117.655 112.581 117.689 112.996C117.723 113.341 117.689 113.79 117.859 114.136C117.893 114.17 117.927 114.17 117.961 114.136C118.097 113.894 118.063 113.583 118.063 113.307C118.641 113.79 119.254 114.309 120.07 114.205C120.104 114.17 120.138 114.101 120.07 114.067ZM118.267 112.305C118.199 112.409 118.097 112.478 118.029 112.581C118.029 112.374 118.029 112.167 118.063 111.96C118.301 111.96 118.505 112.029 118.267 112.305Z" fill="#370C84"/>
<path d="M125.784 110.094C125.818 110.06 125.818 110.025 125.75 110.025C125.58 110.025 125.444 109.99 125.308 109.887C125.274 109.818 125.24 109.749 125.206 109.714C125.138 109.61 124.968 109.68 124.968 109.783C124.968 109.783 124.968 109.749 125.002 109.749C124.934 109.783 124.9 109.887 124.934 109.956C125.002 110.025 125.036 110.094 125.104 110.129C125.172 110.37 125.138 110.647 125.07 110.82C124.968 111.061 124.832 110.474 124.832 110.474C124.798 110.336 124.764 110.198 124.696 110.06C124.628 109.887 124.355 109.749 124.151 109.818C123.879 109.956 123.777 110.336 123.777 110.612C123.777 110.647 123.845 110.681 123.845 110.647C123.913 110.509 124.185 109.714 124.457 110.163C124.56 110.301 124.526 110.509 124.56 110.681C124.594 110.889 124.73 111.2 125.002 111.13C125.342 111.061 125.41 110.612 125.342 110.232C125.512 110.198 125.648 110.163 125.784 110.094Z" fill="#370C84"/>
<path d="M280.286 40.2543C281.647 38.3543 283.28 36.4889 285.49 35.9017C293.143 33.7599 300.252 41.7051 300.252 49.7885C300.252 53.9338 297.973 57.7337 296.204 61.4645C294.946 64.0898 293.551 66.7497 293.211 69.686C292.463 75.524 295.932 80.982 297.395 86.6818C297.667 87.7181 297.871 88.789 297.735 89.8599C297.429 92.0707 295.762 93.7634 294.13 95.2833C293.041 96.2851 291.817 97.356 290.354 97.5287C289.198 97.6669 288.041 97.2523 286.953 96.7342C284.64 95.6288 282.497 94.0397 280.763 92.1398C280.354 91.6907 279.98 91.2416 279.436 90.9998C278.79 90.7235 278.076 90.8271 277.361 90.758C275.831 90.5853 274.436 89.5835 273.586 88.3054C272.736 86.9927 272.327 85.4382 272.123 83.8837C271.409 77.6657 274.096 71.655 276.103 65.7479C278.654 58.3555 280.286 50.4448 279.334 42.6724" fill="#40211C"/>
<path d="M256.787 187.897C259.576 188 262.365 188.104 265.154 188.242L263.929 138.084H246.957C246.957 138.084 241.379 151.832 240.699 187.551C246.039 187.62 251.413 187.689 256.787 187.897Z" fill="#130019"/>
<path d="M288.247 189.071C289.302 189.106 290.356 189.106 291.411 189.14C291.275 188.587 291.104 188.069 290.968 187.517C281.343 152.834 275.867 138.049 275.867 138.049H252.398L247.16 151.66L259.337 187.966C268.962 188.38 278.588 188.829 288.247 189.071Z" fill="#130019"/>
<path d="M290.959 55.7007C292.155 46.7777 285.444 38.4822 275.97 37.1722C266.496 35.8622 257.845 42.0338 256.649 50.9568C255.453 59.8798 262.164 68.1752 271.639 69.4852C281.113 70.7952 289.763 64.6237 290.959 55.7007Z" fill="#5B322C"/>
<path d="M275.662 62.7771L275.322 89.5489L262.601 87.8563L266.547 64.3316L275.662 62.7771Z" fill="#DB856E"/>
<path d="M264.234 78.0111C264.234 78.0111 271.343 79.0129 275.527 72.0004C279.744 64.9879 266.275 65.9897 266.275 65.9897L264.234 78.0111Z" fill="#CE7563"/>
<path d="M261.751 64.8843C261.819 63.2262 261.581 61.5681 261.003 59.9445C260.221 57.7337 258.86 55.5574 256.309 56.3864C251.921 57.8027 255.085 65.1607 259.234 66.3006C260.459 66.6461 261.717 65.9552 261.751 64.8843Z" fill="#CE7563"/>
<path d="M278.18 41.1869C275.391 39.9779 272.329 39.3561 269.302 39.5979C265.187 39.9088 259.745 41.7396 258.112 49.063C255.391 61.2572 256.003 69.3751 261.241 73.5204C264.915 76.4566 269.03 76.733 274.744 74.3494C276.887 73.4513 280.05 69.5478 280.901 67.2679L283.35 60.8772C283.384 60.8772 291.547 46.9558 278.18 41.1869Z" fill="#DB856E"/>
<path fill-rule="evenodd" clip-rule="evenodd" d="M263.902 59.6168C263.988 59.6771 264.008 59.7955 263.948 59.8811L262.258 62.2775L263.455 63.0679C263.543 63.1256 263.567 63.2433 263.509 63.3307C263.452 63.4181 263.334 63.4422 263.246 63.3845L261.886 62.4863C261.843 62.4581 261.814 62.4136 261.804 62.3632C261.795 62.3128 261.806 62.2607 261.835 62.2187L263.638 59.6625C263.698 59.5769 263.817 59.5564 263.902 59.6168Z" fill="#130019"/>
<path d="M271.413 86.0254C271.413 86.0254 266.005 104.679 227.434 133.42L217.4 120.121L250.393 84.5055L271.413 86.0254Z" fill="#370C84"/>
<path d="M196.993 92.658L204.102 88.9272L214.646 104.472C212.163 106.165 208.863 108.03 206.346 109.688L196.993 92.658Z" fill="#DB856E"/>
<path d="M205.258 88.0636L205.735 86.3709C206.347 84.1255 206.449 81.742 206.007 79.4275L205.224 75.3858C205.02 74.4186 204.034 73.8659 203.15 74.2113C202.401 74.4877 201.891 75.2476 201.857 76.0767L201.755 80.4638L195.327 68.6497C194.987 67.9933 194.17 67.7861 193.558 68.2006L193.15 68.477C192.674 68.8224 192.504 69.4442 192.708 69.9624L197.197 79.0475L190.633 69.3406C190.259 68.7188 189.408 68.546 188.864 68.9951L188.592 69.2024C188.116 69.5824 187.98 70.2733 188.286 70.7914L193.626 79.7039L188.116 73.8313C187.606 73.2441 186.687 73.3132 186.245 73.935L186.143 74.0731C185.837 74.5222 185.837 75.1095 186.177 75.524L191.483 82.0183L187.98 79.393C187.368 78.7366 186.279 78.9784 185.973 79.842C185.837 80.2566 185.905 80.7056 186.177 81.0165L199.034 95.8015L202.537 92.5543C203.864 91.3798 204.782 89.7908 205.258 88.0636Z" fill="#DB856E"/>
<path fill-rule="evenodd" clip-rule="evenodd" d="M201.894 80.3814C201.958 80.4581 201.949 80.5725 201.872 80.6371C201.872 80.6372 201.872 80.6372 201.872 80.6373L201.761 80.5052C201.872 80.6373 201.872 80.6372 201.872 80.6372L201.872 80.6372" fill="#CE7563"/>
<path d="M231.212 122.781L207.982 91.898L198.73 99.7396L214.682 129.344C217.403 134.111 221.417 136.529 225.872 134.387C229.92 132.453 233.083 126.857 231.212 122.781Z" fill="#370C84"/>
<path fill-rule="evenodd" clip-rule="evenodd" d="M223.737 112.858C223.818 112.789 223.94 112.798 224.009 112.879L229.009 118.717C229.078 118.798 229.069 118.92 228.988 118.989C228.907 119.058 228.785 119.049 228.716 118.968L223.716 113.13C223.647 113.049 223.656 112.927 223.737 112.858Z" fill="#130019"/>
<path d="M251.448 88.1326L267.264 99.3941L266.277 154.872L244.509 151.141C244.543 151.141 234.237 104.023 251.448 88.1326Z" fill="white"/>
<path d="M242.808 150.969L264.338 155.218L263.862 149.691L242.808 146.063V150.969Z" fill="#554759"/>
<path d="M275.256 98.1159C275.256 98.1159 249.169 106.994 250.427 90.758L263.284 82.4673L270.937 85.8872L275.222 89.5144L279.542 96.8378L275.256 98.1159Z" fill="#DB856E"/>
<path d="M263.488 82.5365C263.488 82.5365 252.23 90.7926 246.039 106.683C242.604 115.457 244.713 133.006 245.291 144.751C245.869 156.461 246.618 178.88 246.618 178.88L238.114 174.044C238.114 174.044 237.91 122.608 239.169 115.872C240.393 109.101 244.441 85.0928 254.407 81.9147C254.407 81.9147 257.434 80.3947 262.468 82.191L263.488 82.5365Z" fill="#370C84"/>
<path fill-rule="evenodd" clip-rule="evenodd" d="M242.911 99.9217C243.001 99.9784 243.028 100.097 242.972 100.188C240.413 104.256 239.352 110.364 238.936 115.481C238.728 118.035 238.682 120.333 238.687 121.993C238.69 122.823 238.705 123.493 238.72 123.955C238.728 124.186 238.735 124.365 238.74 124.486C238.743 124.547 238.745 124.593 238.747 124.624L238.749 124.658L238.749 124.667L238.749 124.67C238.749 124.67 238.749 124.67 238.557 124.681C238.364 124.691 238.364 124.691 238.364 124.691L238.364 124.688L238.364 124.679L238.362 124.643C238.36 124.611 238.358 124.565 238.355 124.503C238.35 124.381 238.342 124.2 238.335 123.967C238.32 123.502 238.304 122.828 238.301 121.994C238.296 120.327 238.343 118.017 238.552 115.45C238.969 110.325 240.033 104.135 242.645 99.9823C242.702 99.8921 242.821 99.865 242.911 99.9217ZM238.568 124.873C238.461 124.879 238.37 124.797 238.364 124.691L238.557 124.681L238.749 124.67C238.755 124.776 238.674 124.867 238.568 124.873Z" fill="#130019"/>
<path d="M279.982 87.0273C279.982 87.0273 276.138 83.6419 270.594 87.9945C265.05 92.3471 258.418 110.172 258.418 128.066C258.418 145.96 263.656 180.055 263.656 180.055C263.656 180.055 282.771 187.517 296.104 177.844L275.934 143.404L285.696 115.872L279.982 87.0273Z" fill="#370C84"/>
<path d="M279.984 87.0272C279.984 87.0272 292.943 91.9671 318.486 133.075L304.711 142.333L278.045 111.692L279.984 87.0272Z" fill="#370C84"/>
<path fill-rule="evenodd" clip-rule="evenodd" d="M277.885 111.547C277.965 111.477 278.087 111.485 278.157 111.565L284.415 118.715C284.485 118.796 284.477 118.917 284.397 118.988C284.317 119.058 284.195 119.05 284.125 118.97L277.866 111.819C277.796 111.739 277.804 111.617 277.885 111.547Z" fill="#130019"/>
<path d="M261.584 139.604L270.767 137.496L270.461 135.424C270.359 134.664 270.733 133.938 271.413 133.593C272.094 133.247 272.91 133.455 273.352 134.077L279.542 142.782L284.236 149.483C278.862 152.212 273.828 151.763 272.366 150.554C272.162 150.554 265.223 151.107 265.223 151.107C264.543 151.211 263.897 150.761 263.76 150.036C263.658 149.518 263.794 148.758 265.257 148.412L263.794 148.758C263.046 148.861 262.366 148.378 262.264 147.618C262.128 146.927 262.706 146.236 263.59 145.925L262.502 146.063C261.72 146.202 260.971 145.58 260.903 144.716C260.869 143.956 261.414 143.3 262.094 143.127L263.726 142.747L261.924 142.713C261.073 142.782 260.325 142.125 260.291 141.193C260.257 140.467 260.869 139.776 261.584 139.604Z" fill="#DB856E"/>
<path d="M279.576 142.816L294.814 138.671L297.297 147.998L281.617 150.623L279.576 142.816Z" fill="#DB856E"/>
<path d="M308.859 130L282.159 139.293L287.805 151.556L313.553 145.718C318.383 144.578 321.07 139.396 319.301 134.733C317.669 130.519 313.043 128.411 308.859 130Z" fill="#370C84"/>
<path fill-rule="evenodd" clip-rule="evenodd" d="M306.424 130.87C306.458 130.97 306.405 131.08 306.305 131.115L297.359 134.224C297.259 134.259 297.149 134.206 297.114 134.105C297.079 134.005 297.132 133.895 297.233 133.86L306.178 130.751C306.279 130.716 306.389 130.769 306.424 130.87Z" fill="#130019"/>
<path fill-rule="evenodd" clip-rule="evenodd" d="M258.932 50.5525C259.843 50.2526 261.113 50.1637 262.57 50.9132C262.903 51.0844 263.034 51.493 262.862 51.8257C262.691 52.1585 262.283 52.2894 261.95 52.1182C260.855 51.555 259.966 51.6388 259.355 51.8398C259.042 51.9428 258.795 52.0797 258.628 52.1891C258.545 52.2436 258.483 52.2903 258.445 52.3211C258.426 52.3364 258.413 52.3477 258.406 52.3538L258.4 52.3588C258.127 52.6113 257.701 52.5964 257.446 52.3246C257.19 52.0516 257.204 51.6227 257.477 51.3668L257.94 51.8611C257.477 51.3668 257.477 51.3665 257.477 51.3663L257.478 51.3657L257.479 51.3645L257.482 51.3615L257.491 51.3539C257.497 51.348 257.506 51.3406 257.516 51.3318C257.536 51.3143 257.563 51.2912 257.597 51.2638C257.666 51.209 257.762 51.1365 257.885 51.056C258.129 50.8956 258.483 50.6999 258.932 50.5525Z" fill="#40211C"/>
<path d="M269.505 58.9082C270.087 58.9082 270.559 58.1967 270.559 57.3191C270.559 56.4415 270.087 55.7301 269.505 55.7301C268.922 55.7301 268.45 56.4415 268.45 57.3191C268.45 58.1967 268.922 58.9082 269.505 58.9082Z" fill="#130019"/>
<path d="M260.049 58.2173C260.631 58.2173 261.104 57.5058 261.104 56.6282C261.104 55.7506 260.631 55.0392 260.049 55.0392C259.467 55.0392 258.995 55.7506 258.995 56.6282C258.995 57.5058 259.467 58.2173 260.049 58.2173Z" fill="#130019"/>
<path d="M259.845 55.9719C259.913 56.0064 259.981 56.0064 260.049 56.0064C260.117 56.0064 260.151 56.0064 260.219 56.0064C260.355 56.0064 260.457 56.0064 260.593 55.9719C260.865 55.9028 261.103 55.73 261.239 55.4882C261.307 55.4192 261.341 55.3155 261.375 55.2119C261.409 55.1083 261.443 54.9355 261.409 54.7974C261.375 54.6937 261.273 54.5901 261.171 54.5901C261.069 54.5901 260.933 54.6246 260.865 54.7283C260.831 54.7974 260.797 54.901 260.797 55.0046C260.797 54.9701 260.797 54.901 260.797 55.0046C260.797 55.0392 260.797 55.0392 260.797 55.0737C260.797 55.1083 260.763 55.1428 260.763 55.1773C260.763 55.2119 260.763 55.2119 260.729 55.2464C260.763 55.2119 260.695 55.3155 260.729 55.2464C260.729 55.281 260.695 55.3155 260.695 55.3501L260.661 55.3846C260.695 55.3501 260.695 55.3501 260.661 55.3501C260.661 55.3501 260.661 55.3501 260.661 55.3846C260.661 55.3846 260.661 55.3846 260.661 55.4192C260.627 55.4192 260.661 55.4192 260.695 55.4192L260.661 55.4537C260.627 55.4537 260.627 55.4882 260.593 55.4882C260.593 55.4882 260.559 55.4882 260.559 55.5228C260.593 55.5228 260.593 55.4882 260.593 55.5228C260.593 55.5228 260.593 55.5228 260.559 55.5228C260.525 55.5228 260.491 55.5573 260.457 55.5573C260.423 55.5573 260.389 55.5573 260.355 55.5919C260.389 55.5919 260.287 55.5919 260.355 55.5919H260.321C260.253 55.5919 260.185 55.5919 260.117 55.5919C260.049 55.5919 259.981 55.5919 259.947 55.5919C259.845 55.5919 259.743 55.661 259.743 55.7646C259.675 55.8682 259.743 55.9373 259.845 55.9719Z" fill="#130019"/>
<path d="M269.029 56.5936C269.097 56.6282 269.165 56.6282 269.233 56.6282C269.301 56.6282 269.335 56.6282 269.403 56.6282C269.54 56.6282 269.642 56.6282 269.778 56.5936C270.05 56.5245 270.288 56.3518 270.424 56.11C270.492 56.0409 270.526 55.9373 270.56 55.8337C270.594 55.73 270.628 55.5573 270.594 55.4191C270.56 55.3155 270.458 55.2119 270.356 55.2119C270.254 55.2119 270.118 55.2464 270.05 55.35C270.016 55.4191 269.982 55.5228 269.982 55.6264C269.982 55.5918 269.982 55.5228 269.982 55.6264C269.982 55.6609 269.982 55.6609 269.982 55.6955C269.982 55.73 269.948 55.7646 269.948 55.7991C269.948 55.8337 269.948 55.8337 269.914 55.8682C269.948 55.8337 269.88 55.9373 269.914 55.8682C269.914 55.9027 269.88 55.9373 269.88 55.9718L269.846 56.0064C269.88 55.9718 269.88 55.9718 269.846 55.9718C269.846 55.9718 269.846 55.9718 269.846 56.0064C269.846 56.0064 269.846 56.0064 269.846 56.0409C269.812 56.0409 269.846 56.0409 269.88 56.0409L269.846 56.0755C269.812 56.0755 269.812 56.11 269.778 56.11C269.778 56.11 269.744 56.11 269.744 56.1446C269.778 56.1446 269.778 56.11 269.778 56.1446C269.778 56.1446 269.778 56.1446 269.744 56.1446C269.71 56.1446 269.676 56.1791 269.642 56.1791C269.608 56.1791 269.574 56.1791 269.54 56.2136C269.574 56.2136 269.471 56.2136 269.54 56.2136H269.506C269.437 56.2136 269.369 56.2136 269.301 56.2136C269.233 56.2136 269.165 56.2136 269.131 56.2136C269.029 56.2136 268.927 56.2827 268.927 56.3864C268.859 56.4554 268.927 56.5591 269.029 56.5936Z" fill="#130019"/>
<path d="M268.212 65.3334C268.212 65.3334 261.206 64.4353 261.07 64.6771C260.934 64.9189 261.274 68.7533 264.505 68.546C267.736 68.3733 268.212 65.3334 268.212 65.3334Z" fill="#130019"/>
<path d="M264.199 65.5061C264.743 65.5407 265.321 65.4716 265.831 65.2643C265.933 65.2298 266.069 65.1607 266.171 65.1261C264.743 64.9534 262.94 64.7462 261.92 64.7116C262.09 64.8498 262.26 64.988 262.464 65.0916C263.008 65.3334 263.586 65.437 264.199 65.5061Z" fill="white"/>
<path d="M266.409 67.4406C266.035 67.406 265.627 67.406 265.253 67.4406C264.675 67.5442 264.165 67.8206 263.688 68.166C263.552 68.2351 263.45 68.3387 263.348 68.4424C263.688 68.546 264.063 68.6151 264.505 68.5805C265.661 68.5114 266.443 68.0624 267.022 67.5442C266.818 67.5097 266.613 67.4751 266.409 67.4406Z" fill="#FF4BA1"/>
<path d="M265.117 39.5979C263.723 50.1339 272.328 52.9665 275.049 55.3501C277.77 57.7336 277.124 61.5335 281.001 62.2589C286.512 63.2953 286.784 49.063 285.831 42.9487C283.654 38.0779 277.702 39.1143 273.451 39.667C270.832 39.6324 268.009 37.8016 265.458 39.1143" fill="#5B322C"/>
<path fill-rule="evenodd" clip-rule="evenodd" d="M271.327 52.9377C270.587 52.5804 269.547 52.3303 268.289 52.7463C267.934 52.8638 267.55 52.671 267.433 52.3157C267.315 51.9603 267.508 51.5771 267.863 51.4596C269.531 50.9083 270.939 51.2454 271.917 51.7172C272.402 51.9515 272.783 52.2195 273.045 52.4301C273.176 52.5357 273.279 52.628 273.35 52.696C273.386 52.7301 273.414 52.7582 273.435 52.779C273.445 52.7894 273.453 52.798 273.459 52.8046L273.467 52.813L273.47 52.8161L273.471 52.8173L273.472 52.8179C273.472 52.8181 273.472 52.8183 272.974 53.2774L273.472 52.8183C273.726 53.0936 273.708 53.5223 273.433 53.7758C273.158 54.0287 272.731 54.0119 272.477 53.7386C272.477 53.7384 272.477 53.7383 272.477 53.738" fill="#40211C"/>
<path d="M279.063 65.9207C279.539 64.5389 280.322 63.2953 281.376 62.1899C282.839 60.7045 284.879 59.4609 287.09 61.119C290.866 63.9516 285.424 68.7187 281.036 68.0279C279.743 67.8551 278.757 66.7843 279.063 65.9207Z" fill="#DB856E"/>
<path fill-rule="evenodd" clip-rule="evenodd" d="M282.024 63.7429C282.926 63.2107 284.228 62.8683 285.804 63.6236C285.89 63.6647 285.926 63.7676 285.885 63.8533C285.844 63.9391 285.741 63.9753 285.655 63.9342C284.204 63.2386 283.024 63.5526 282.199 64.0395C281.784 64.2844 281.459 64.5737 281.238 64.8023C281.127 64.9164 281.043 65.0148 280.987 65.0841C280.959 65.1187 280.938 65.146 280.924 65.1643C280.917 65.1735 280.912 65.1804 280.909 65.1848L280.906 65.1896L280.905 65.1905L280.905 65.1905L280.905 65.1906C280.85 65.2683 280.743 65.2871 280.665 65.2325C280.587 65.1779 280.568 65.0705 280.623 64.9927L280.764 65.0916C280.623 64.9927 280.623 64.9926 280.623 64.9925L280.623 64.9923L280.624 64.9916L280.625 64.9896L280.63 64.9826C280.634 64.9766 280.641 64.9682 280.649 64.9575C280.665 64.936 280.688 64.9054 280.719 64.8673C280.781 64.7911 280.872 64.6849 280.99 64.5626C281.227 64.3184 281.576 64.0075 282.024 63.7429Z" fill="#CE7563"/>
<path d="M265.594 39.5288C265.39 41.7051 263.961 43.5705 262.499 45.194C261.036 46.8176 259.437 48.4067 258.723 50.4793C258.383 51.4811 258.281 52.5174 257.975 53.5192C257.669 54.521 257.669 55.7646 256.75 56.2482C255.662 48.7521 256.512 41.7396 265.152 38.9761" fill="#5B322C"/>
</g>
<defs>
<clipPath id="clip0_1_1454">
<rect width="186" height="186" fill="white" transform="translate(186 186) rotate(-180)"/>
</clipPath>
</defs>
</svg>
