<?xml version="1.0" encoding="utf-8"?>
<!-- Generator: Adobe Illustrator 25.4.1, SVG Export Plug-In . SVG Version: 6.00 Build 0)  -->
<svg version="1.1" xmlns="http://www.w3.org/2000/svg" xmlns:xlink="http://www.w3.org/1999/xlink" x="0px" y="0px"
	 viewBox="0 0 410 410" style="enable-background:new 0 0 410 410;" xml:space="preserve">
<style type="text/css">
	.st0{fill:#007FA2;}
	.st1{fill:#E7E5E5;}
	.st2{fill:#CECECD;}
	.st3{fill:#A94F91;}
	.st4{fill:#EA5645;}
	.st5{fill:#FFC23A;}
	.st6{fill:#D13431;}
	.st7{fill:#F9A431;}
	.st8{fill:#22B1B6;}
	.st9{fill:#EF3054;}
	.st10{fill:#933E81;}
	.st11{opacity:0.2;fill:#334078;}
	.st12{fill:#C7CFE0;}
	.st13{fill:#A3A7C1;}
	.st14{fill:#F4F7F9;}
	.st15{opacity:0.4;fill:none;stroke:#000000;stroke-width:0.5152;stroke-miterlimit:10;}
	.st16{opacity:0.7;}
	.st17{fill:none;stroke:#C7CFE0;stroke-width:2.2902;stroke-miterlimit:10;}
	.st18{opacity:0.1;}
	.st19{fill:#333448;}
	.st20{fill:#767893;}
	.st21{opacity:0;clip-path:url(#SVGID_00000129171851205475683090000008874445815516763064_);fill:#5A5CA6;}
	.st22{opacity:0;clip-path:url(#SVGID_00000129171851205475683090000008874445815516763064_);fill:#B24B8C;}
	.st23{opacity:0.1;fill:#FFFFFF;}
	.st24{fill:#232533;}
	.st25{fill:#4FA88B;}
	.st26{fill:#F5F5F5;}
	.st27{opacity:0.25;clip-path:url(#SVGID_00000062893271643907407780000018371637667513392796_);}
	.st28{fill:#606060;}
	.st29{opacity:0.15;}
	.st30{fill:#FFFFFF;}
	.st31{fill:#A3A5B5;}
	.st32{fill:#DB2835;}
	.st33{fill:#E6A614;}
	.st34{opacity:0.25;}
	.st35{fill:none;stroke:#A94F91;stroke-width:0.32;stroke-miterlimit:10;}
	.st36{fill:#616162;}
	.st37{opacity:0.5;}
	.st38{fill:#B24B8C;}
	.st39{fill:#5A5CA6;}
	.st40{clip-path:url(#SVGID_00000127032851495069933260000004596845823986019740_);fill:#B24B8C;}
	.st41{clip-path:url(#SVGID_00000078044243783078938280000012700551271106496679_);fill:#5A5CA6;}
	.st42{clip-path:url(#SVGID_00000024722729548208594500000005750203090752432024_);}
	.st43{clip-path:url(#SVGID_00000105410884122644869250000008464353688593808294_);}
	.st44{clip-path:url(#SVGID_00000182515223621540797720000018009982803261130165_);fill:#221E20;}
	.st45{clip-path:url(#SVGID_00000132772320238355379810000001490010732290730145_);}

		.st46{clip-path:url(#SVGID_00000067218467634978878060000011050098484254581670_);fill-rule:evenodd;clip-rule:evenodd;fill:#5A5CA6;}
	.st47{fill:#D2D2DB;}
	.st48{clip-path:url(#SVGID_00000072981169695694293110000003878159357286772132_);}
	.st49{clip-path:url(#SVGID_00000114758414407091327340000006730260159298362544_);}
	.st50{clip-path:url(#SVGID_00000149362618922084533840000010454195884858678154_);}
	.st51{fill-rule:evenodd;clip-rule:evenodd;fill:#A5C73F;}
	.st52{clip-path:url(#SVGID_00000023251326621029207650000013762924965364223657_);}
	.st53{clip-path:url(#SVGID_00000176727259643320704430000007709420207375338130_);}
	.st54{clip-path:url(#SVGID_00000108996972782869759450000006582841538781447582_);}
	.st55{fill:#FAF6F1;}
	.st56{fill:#FCFBFA;}
	.st57{fill:#FAFCF6;}
	.st58{fill:#FCFDFD;}
	.st59{fill:#FCFDFB;}
	.st60{fill:#FFFFFE;}
	.st61{fill:#FDFDFB;}
	.st62{fill:#F9F8F3;}
	.st63{opacity:0.2;fill:none;stroke:#FFFFFF;stroke-width:15.6277;stroke-miterlimit:10;}
	.st64{fill:#F47D30;}
	.st65{fill:#F57D30;}
	.st66{fill:#F57E32;}
	.st67{filter:url(#Adobe_OpacityMaskFilter);}
	.st68{mask:url(#SVGID_00000037668450280707919150000010501875373107012796_);}
	.st69{fill:#261B1B;}
	.st70{fill:#5F76C1;}
	.st71{fill:#7C4848;}
	.st72{fill:#D33C39;}
	.st73{fill:#E0E0E0;}
	.st74{fill:#A1C2D6;}
	.st75{fill:#4E5A82;}
	.st76{fill:#935858;}
	.st77{fill:none;stroke:#1F0000;stroke-width:1.198;stroke-linecap:round;stroke-linejoin:round;stroke-miterlimit:10;}
	.st78{clip-path:url(#SVGID_00000136382158749995378810000017668402643803427729_);fill:#261B1B;}
	.st79{fill:#111111;}
	.st80{fill:none;stroke:#E0E0E0;stroke-width:1.5034;stroke-linecap:round;stroke-linejoin:round;stroke-miterlimit:10;}
	.st81{fill:#FF8F76;}
	.st82{fill:#AD4C32;}
	.st83{fill:#1C1E26;}
	.st84{fill:#F76A52;}
	.st85{fill:#EDEEEF;}
	.st86{fill:#D4DADD;}
	.st87{fill:#8C3726;}
	.st88{fill:#101011;}
	.st89{fill:none;stroke:#000000;stroke-width:0.8645;stroke-linecap:round;stroke-linejoin:round;stroke-miterlimit:10;}
	.st90{fill:none;stroke:#D4DADD;stroke-width:1.2445;stroke-linecap:round;stroke-linejoin:round;stroke-miterlimit:10;}
	.st91{fill:none;stroke:#D4DADD;stroke-width:2.5;stroke-miterlimit:10;}
	.st92{filter:url(#Adobe_OpacityMaskFilter_00000027583650306762750100000018062000638074331814_);}
	.st93{mask:url(#SVGID_00000072279361877822051670000018378651509325469852_);}
	.st94{fill:url(#SVGID_00000095299417191498262440000004451726207588905125_);}
	.st95{fill:#FCFCFC;}
	.st96{fill:#5F2D1C;}
	.st97{fill:#FEA899;}
	.st98{clip-path:url(#SVGID_00000112596428940208223880000010874938905006671273_);fill:#EA7E73;}
	.st99{fill:#D1736B;}
	.st100{fill:#262222;}
	.st101{clip-path:url(#SVGID_00000088134510705070027050000012828009688823326605_);}
	.st102{fill:#B24653;}
	.st103{fill:none;stroke:#222226;stroke-width:1.4237;stroke-linecap:round;stroke-miterlimit:10;}
	.st104{fill:none;stroke:#222226;stroke-width:2.0339;stroke-linecap:round;stroke-linejoin:round;stroke-miterlimit:10;}
	.st105{fill:#32170E;}
	.st106{fill:#DECCC3;}
	.st107{fill:#EA7E73;}
	.st108{fill:#FFFCFF;}
	.st109{fill:#D1CDD3;}
	.st110{opacity:0.5;fill:#6D6D6D;}
	.st111{fill:#6D6D6D;}
	.st112{clip-path:url(#SVGID_00000073685969213903969810000003483190868735708842_);}
	.st113{fill-rule:evenodd;clip-rule:evenodd;fill:#036789;}
	.st114{fill-rule:evenodd;clip-rule:evenodd;fill:#FFFFFF;}
	.st115{fill-rule:evenodd;clip-rule:evenodd;fill:#C0384F;}
	.st116{fill-rule:evenodd;clip-rule:evenodd;fill:#FDBF08;}
	.st117{fill-rule:evenodd;clip-rule:evenodd;fill:#73D6D9;}
	.st118{fill-rule:evenodd;clip-rule:evenodd;fill:#9DE8EB;}
	.st119{fill-rule:evenodd;clip-rule:evenodd;fill:#FDDE80;}
	.st120{fill:#AFAEB4;}
	.st121{fill:#C2C3CA;}
	.st122{fill:#FD354D;}
	.st123{fill:#86D008;}
	.st124{filter:url(#Adobe_OpacityMaskFilter_00000178925957929711233450000014681286957787034267_);}
	.st125{mask:url(#SVGID_00000060716728414782959210000008809624067127261117_);}
	.st126{fill:#1F2021;}
	.st127{fill:#754646;}
	.st128{fill:#F2EEED;}
	.st129{fill:none;stroke:#D1CAC9;stroke-width:3.1019;stroke-linecap:round;stroke-linejoin:round;stroke-miterlimit:10;}
	.st130{fill:#442A28;}
	.st131{fill:none;stroke:#1F0000;stroke-width:1.8095;stroke-linecap:round;stroke-linejoin:round;stroke-miterlimit:10;}
	.st132{clip-path:url(#SVGID_00000104669805646976188150000012514362784087734938_);fill:#442A28;}
	.st133{fill:none;stroke:#1F0000;stroke-width:3.5087;stroke-linecap:round;stroke-linejoin:round;stroke-miterlimit:10;}
	.st134{filter:url(#Adobe_OpacityMaskFilter_00000103232014726715193940000009955744843289380501_);}
	.st135{mask:url(#SVGID_00000092434305706476706220000018156824370126796985_);}
	.st136{fill:#EFB09A;}
	.st137{fill:#F2AB8F;}
	.st138{fill:none;}
	.st139{fill:#A56358;}
	.st140{fill:#A56055;}
	.st141{fill:#BA7263;}
	.st142{fill:#F7C1B2;}
	.st143{fill:#435277;}
	.st144{fill:#95A4B1;}
	.st145{fill:#797D9B;}
	.st146{fill:#C3D2D7;}
	.st147{fill:#A3A8BD;}
	.st148{fill:#C971B6;}
	.st149{fill:#4794BA;}
	.st150{fill:#D8877C;}
	.st151{fill:#111114;}
	.st152{fill:#006BFF;}
	.st153{fill:#FF9283;}
	.st154{fill:#525E6D;}
	.st155{fill:none;stroke:#ADBFC4;stroke-width:0.5729;stroke-linecap:round;stroke-linejoin:round;stroke-miterlimit:10;}
	.st156{fill:none;stroke:#39424C;stroke-width:0.5729;stroke-linecap:round;stroke-linejoin:round;stroke-miterlimit:10;}
	.st157{fill:none;stroke:#1C1C1B;stroke-width:0.5729;stroke-linecap:round;stroke-linejoin:round;stroke-miterlimit:10;}
	.st158{fill:#252633;}
	.st159{fill:#365E9E;}
	.st160{fill:none;stroke:#D1CAC9;stroke-width:0.6374;stroke-linecap:round;stroke-linejoin:round;stroke-miterlimit:10;}
	.st161{fill:none;stroke:#274672;stroke-width:0.5729;stroke-linecap:round;stroke-linejoin:round;stroke-miterlimit:10;}
	.st162{fill:none;stroke:#1F0000;stroke-width:0.3718;stroke-linecap:round;stroke-linejoin:round;stroke-miterlimit:10;}
	.st163{clip-path:url(#SVGID_00000178172577801512274230000005116056176247453322_);fill:#261B1B;}
	.st164{fill:none;stroke:#1F0000;stroke-width:0.721;stroke-linecap:round;stroke-linejoin:round;stroke-miterlimit:10;}
	.st165{fill:#1B1B21;}
	.st166{fill:#C6726A;}
	.st167{fill:none;stroke:#1F0000;stroke-width:0.3349;stroke-linecap:round;stroke-linejoin:round;stroke-miterlimit:10;}
	.st168{fill:#A04F4D;}
	.st169{fill:none;stroke:#7C3939;stroke-width:0.4156;stroke-linecap:round;stroke-linejoin:round;stroke-miterlimit:10;}
	.st170{fill:none;stroke:#1F0000;stroke-width:0.4263;stroke-linecap:round;stroke-linejoin:round;stroke-miterlimit:10;}
	.st171{fill:#FFCC00;}
	.st172{fill:#FCDC59;}
	.st173{fill:#DA8100;}
	.st174{fill:#F0AA00;}
	.st175{fill:#FFDD4D;}
	.st176{fill:none;stroke:#FFCC00;stroke-linecap:round;stroke-miterlimit:10;}
	.st177{filter:url(#Adobe_OpacityMaskFilter_00000176029762671180894930000007304353710233172144_);}
	.st178{mask:url(#SVGID_00000045597792538221641000000004814891906158128815_);}
	.st179{fill:#F2B1A7;}
	.st180{fill:#E09992;}
	.st181{fill:#394351;}
	.st182{fill:#B4B8BD;}
	.st183{fill:#485666;}
	.st184{fill:#0B8CAA;}
	.st185{fill:#F9EEED;}
	.st186{fill:#141419;}
	.st187{fill:none;stroke:#1F0000;stroke-width:1.1938;stroke-linecap:round;stroke-linejoin:round;stroke-miterlimit:10;}
	.st188{clip-path:url(#SVGID_00000001632658501888420590000016997521358315796384_);fill:#141419;}
	.st189{fill:none;stroke:#111010;stroke-width:1.1938;stroke-linecap:round;stroke-linejoin:round;stroke-miterlimit:10;}
	.st190{clip-path:url(#SVGID_00000075867258398046369550000001570328273445374102_);}
	.st191{fill:#F74962;}
	.st192{fill:#D6A099;}
	.st193{fill:#209AB7;}
	.st194{fill:#C1684D;}
	.st195{fill:#EACDCC;}
	.st196{fill:#C8CACE;}
	.st197{fill:#D0D2D6;}
	.st198{fill:#C1C4C9;}
	.st199{fill:#AEB2B8;}
	.st200{fill:#F2C7C4;}
	.st201{fill:#A55341;}
	.st202{opacity:0.4;clip-path:url(#SVGID_00000130625112696166815300000012753336922225463171_);}
	.st203{fill:#9E453C;}
	.st204{fill:none;stroke:#000000;stroke-width:0.8988;stroke-linecap:round;stroke-linejoin:round;stroke-miterlimit:10;}
	.st205{fill:#281D1B;}
	.st206{fill:#352826;}
	.st207{fill:#7C5B50;}
	.st208{fill:#0F4088;}
	.st209{fill:none;stroke:#E0E0E0;stroke-width:1.563;stroke-linecap:round;stroke-linejoin:round;stroke-miterlimit:10;}
	.st210{fill:#FBB087;}
	.st211{fill:#EE896C;}
	.st212{fill:none;stroke:#000000;stroke-width:0.9073;stroke-linecap:round;stroke-linejoin:round;stroke-miterlimit:10;}
	.st213{opacity:0.22;fill:#FFFFFF;}
	.st214{fill:none;stroke:#000000;stroke-width:2.0467;stroke-linecap:round;stroke-linejoin:round;stroke-miterlimit:10;}
	.st215{filter:url(#Adobe_OpacityMaskFilter_00000165937268576222781470000000795516379421419678_);}
	.st216{mask:url(#SVGID_00000005982193174238856440000005884216619367481483_);}
	.st217{fill:#F2F5F7;}
	.st218{fill:#004ACC;}
	.st219{fill:#331917;}
	.st220{fill:#698DB7;}
	.st221{fill:none;stroke:#000000;stroke-width:1.0622;stroke-linecap:round;stroke-linejoin:round;stroke-miterlimit:10;}
	.st222{fill:#5B322C;}
	.st223{fill:#DB856E;}
	.st224{fill:#CE7563;}
	.st225{fill:none;stroke:#000000;stroke-width:1.0445;stroke-linecap:round;stroke-linejoin:round;stroke-miterlimit:10;}
	.st226{fill:none;stroke:#D86539;stroke-width:1.6667;stroke-miterlimit:10;}
	.st227{fill:#E08C9B;}
	.st228{fill:none;stroke:#000000;stroke-width:1.3171;stroke-linecap:round;stroke-linejoin:round;stroke-miterlimit:10;}
	.st229{fill:#537AA0;}
	.st230{fill:none;stroke:#101011;stroke-width:3.7318;stroke-linecap:round;stroke-linejoin:round;stroke-miterlimit:10;}
	.st231{fill:#2A3544;}
	.st232{fill:#FF6E7A;}
	.st233{fill:none;stroke:#000000;stroke-width:0.9484;stroke-linecap:round;stroke-linejoin:round;stroke-miterlimit:10;}
</style>
<g id="Teaching_Resources__x28_Option_B_x29_">
</g>
<g id="Teaching_Resources__x28_option_A_x29_">
</g>
<g id="Certificates">
</g>
<g id="Badge_3">
</g>
<g id="Bagde_2">
</g>
<g id="Badge_1">
</g>
<g id="School_Governors_and_Trustees">
</g>
<g id="Senior_Leaders">
</g>
<g id="Testimonials">
</g>
<g id="Reports">
</g>
<g id="News">
</g>
<g id="Assessments">
</g>
<g id="Teachers">
</g>
<g id="Partnerships__x28_Sponsors_x29_">
</g>
<g id="Gender_Balance">
</g>
<g id="Partnerships">
</g>
<g id="Bursaries">
</g>
<g id="Support">
</g>
<g id="Courses">
	<defs>
		<filter id="Adobe_OpacityMaskFilter" filterUnits="userSpaceOnUse" x="-357.6" y="-95.8" width="796.3" height="588.3">
			<feColorMatrix  type="matrix" values="1 0 0 0 0  0 1 0 0 0  0 0 1 0 0  0 0 0 1 0"/>
		</filter>
	</defs>

		<mask maskUnits="userSpaceOnUse" x="-357.6" y="-95.8" width="796.3" height="588.3" id="SVGID_00000146494013134632452390000012936552897354973863_">
		<g class="st67">
			<g>
				<circle class="st30" cx="205.3" cy="205.1" r="203.4"/>
			</g>
		</g>
	</mask>
	<g style="mask:url(#SVGID_00000146494013134632452390000012936552897354973863_);">
		<g>
			<circle class="st0" cx="205.3" cy="205.1" r="203.4"/>
		</g>
		<rect x="-357.6" y="-59.2" class="st217" width="712.5" height="411.3"/>
		<g>
			<g>
				<path class="st218" d="M201.4,11.2c-0.4,0-0.8,0-1.2,0c0,0-0.1,0-0.2,0c-16.6-0.8,4.6-0.6-12.1-0.6c-17,0-6.3,0-23.4,0
					c-7.1,0-14.3,0-21.4,0c1.2-0.4,2.4-0.8,3.6-1.3c6.9-3.1,12.4-8.8,17.2-14.4c7.2-8.4,13.4-18.6,21.3-26.8c24,0,48-0.2,72-0.5
					c-1.8,1.7-3.6,3.4-5.4,5.1c-0.2,0.2,0,0.4,0.2,0.3c2.6-1.4,5.3-2.9,7.4-5c0.1-0.1,0.2-0.3,0.2-0.4c0.1,0,0.1-0.1,0.1-0.2
					c0-0.1,0-0.1-0.1-0.2c0-0.2-0.2-0.4-0.4-0.5c-2-1.2-5.6-2.1-6.8-4.1c-0.1-0.1-0.3-0.1-0.3,0.1c0.1,2.3,2.4,3.5,4.5,4.5
					c-23.3-0.3-46.5-0.4-69.8-0.5c3.1-3,6.4-5.6,10.2-7.8c9-5.1,20.1-4.4,30-3c0.2,0,0.3-0.3,0.1-0.3c-11-2.3-22.5-3.3-32.4,2.8
					c-3.7,2.3-7,5.1-10,8.3c-29.5-0.1-58.9,0-88.4,0c-2.7-14.5-2.2-29.9-1.3-44.3c0.3-5.2,0.7-10.4,1-15.6c0-0.1-0.2-0.1-0.2,0
					c-2.9,19.3-4.1,39.5-1.2,58.8c0.1,0.4,0.1,0.7,0.2,1.1c-4.3,0-8.7,0-13,0c0-19.5,0-39,0-58.5c1.1,2.2,2.7,4.1,4,6.2
					c0.1,0.2,0.3,0.1,0.3-0.1c-0.8-3.4-2.9-6.1-3.9-9.4c-0.2-0.5-0.9-0.8-1.3-0.3c-0.1,0-0.1,0-0.2,0c-0.5,0-1,0.3-0.9,0.9v0.4
					c-0.9,1.1-1.7,2.3-2.4,3.5c-0.7,1.2-2.1,2.9-1.9,4.3c0,0.1,0.1,0.1,0.1,0.1c1.1-0.7,1.8-2.2,2.6-3.2c0.5-0.7,1-1.5,1.6-2.3
					c0,19.5,0,39,0,58.5c-3,0-6.1,0-9.1,0c-0.2,0-0.4,0-0.6,0c0,0,0,0,0,0c-0.2,0-0.5,0-0.7,0c0,0,0,0,0,0l-1.7,0
					c-0.5,0-0.7,0.4-0.7,0.8c0,0.4,0.2,0.8,0.7,0.8l1.7,0c0,0,0,0,0,0c0.2,0,0.5,0,0.7,0c0,0,0,0,0,0c0.2,0,0.4,0,0.6,0
					c3,0,6.1,0,9.1,0c0,12.5,0,24.9,0,37.4c0,1.7,0,3.4,0,5.1c-5.4,0-10.9,0-16.3,0c-0.6,0-0.9,0.4-0.9,0.9c0,0.4,0.3,0.9,0.9,0.9
					c5.4,0,10.9,0,16.3,0c0,0.4,0,0.8,0,1.2c0.1,2.6,0.6,5.1,0.6,7.7c0,0.1,0.1,0.2,0.2,0.2c0.1,0,0.2-0.1,0.2-0.2
					c0.1-2.2,0.3-4.4,0.6-6.6c3.4,1.2,6.8,2.6,10.1,4.2c0.2,0.1,0.4-0.1,0.2-0.3c-2.8-2.4-6-4.4-9.6-5.4c0.3-0.3,0.6-0.5,0.8-0.7
					c17.1,0,34.2,0,51.3,0c-2.2,2.1-4.7,4.1-6.5,6.5c-0.1,0.1,0.1,0.3,0.2,0.2c3.4-1.3,5.7-4.5,8.6-6.6c0.1-0.1,0.1-0.1,0.2-0.2
					c8.9,0,17.8,0,26.8,0c17,0,6.3,0,23.4,0c17,0-3.9,0.2,13.1-0.6c0.1,0,0.1,0,0.2,0c0.4,0,0.8,0,1.2,0c0.2,0,0.2-0.1,0.2-0.3
					C201.6,11.3,201.5,11.2,201.4,11.2z M135.8-32c-1,2-2.3,3.9-2.5,6.1c0,0.4,0.6,0.5,0.8,0.2c0.8-1.1,1.5-2.4,2.2-3.6
					c-0.1,0.5-0.2,1-0.2,1.6c-0.1,2,0,4,0,6.1c0,3.7,0,7.4,0,11.2c0,6.7-0.6,13.8,0.5,20.4c0,0-0.1,0-0.1,0c-0.5-0.7-1-1.4-1.5-2
					c-0.8-1-1.4-2.3-2.3-3.1c-0.1-0.1-0.3,0-0.3,0.1c-0.2,1.8,1.3,3.4,2.5,5c-5-0.2-10-1.8-14.5-4.2c-8.8-4.6-14.9-12.7-18.8-21.6
					c-2.2-5.1-3.8-10.5-4.9-16.1C109.5-32,122.7-32,135.8-32z M85.3,10.6c0.3-0.2,0.5-0.4,0.8-0.6c0.7-0.6,2.6-2.2,2.2-3.3
					c0-0.1-0.1-0.1-0.1-0.1c-1.1,0.3-2.1,1.8-3,2.5c-0.6,0.5-1.2,1-1.8,1.5c-0.6,0-1.2,0-1.8,0c0-1.8,0-3.6,0-5.3
					c0-12.4,0-24.8,0-37.2c4.4,0,8.9,0,13.3,0c3.3,18,12.2,35.2,30.3,41.8c0.7,0.3,1.4,0.5,2.1,0.7C113.3,10.5,99.3,10.5,85.3,10.6z
					 M142.8,1.8c-1.6,2.6-3.7,4.8-5.5,7.1c0.9-6.3,0.3-13,0.3-19.4c0-3.7,0-7.4,0-11.2c0-1.7,0-3.4,0-5.1c0-1.5-0.3-2.7-0.5-4
					c1.9,1.6,3.6,3.6,5.1,5.6c0.1,0.1,0.4,0.1,0.3-0.1c-1.1-2.6-2.2-4.9-4.2-6.7c14.9,0,29.9,0,44.8,0c-1.9,2.1-3.7,4.2-5.5,6.4
					c-5.3,6.6-10.1,13.5-15.6,19.9C157,0,151.3,5.6,144.1,8.4c-1.7,0.6-3.4,1.1-5.1,1.3c1.7-2.4,3.2-5.1,4.1-7.8
					C143.2,1.7,142.9,1.7,142.8,1.8z"/>
				<path class="st218" d="M103,22.4c-1.3-1.3-2.3-2.7-2.6-4.5c-0.1-0.5-0.7-0.5-1-0.1c-1.3,1.7-2,3.4-2.8,5.4
					c-0.1,0.2,0.2,0.3,0.3,0.2c0.2-0.2,0.3-0.4,0.5-0.6c-0.1,0.2-0.1,0.4,0.2,0.5c1.5,0.7,3.4,0.2,5,0.2
					C103.1,23.3,103.3,22.7,103,22.4z M97.8,22.3c-0.1,0-0.2,0-0.3,0.1c0.7-1,1.4-2.1,2.1-3.2c0.4,1.1,1,2.1,1.7,3
					C100.1,22.2,98.9,22.3,97.8,22.3z"/>
				<path class="st218" d="M114.4,22.7c-0.6,0.8-1.5,2-2.3,0.9c-0.5-0.7-0.9-1.6-1.2-2.4c0.2-0.2,0.4-0.5,0.6-0.8
					c1-1.3,2.1-2.6,2.9-4c0.1-0.2-0.2-0.4-0.3-0.3c-1.3,1-2.3,2.3-3.3,3.5c-0.1,0.1-0.2,0.2-0.3,0.4c-0.6-1.3-2.1-4.3-3.6-2.9
					c-0.1,0.1-0.1,0.3,0.1,0.4c1.4,0.4,2.2,1.9,2.8,3.4c-0.7,0.9-1.3,1.8-1.8,2.8c-0.1,0.1,0.1,0.3,0.2,0.2c0.8-0.5,1.4-1.2,2.1-1.9
					c0.2,0.5,0.4,1.1,0.6,1.5c0.4,0.8,1,1.7,2,1.8c1.3,0.1,1.6-1.6,1.9-2.5C114.8,22.6,114.5,22.6,114.4,22.7z"/>
			</g>
			<g>
				<g>
					<path class="st218" d="M242.4,5.7c-1.7-5.4-8.6-10.1-13.7-7.8c-4.4,0-7.6,4.8-8.1,9c-0.8,6.5,2.9,12.5,9.7,13.3
						C237.8,21.1,244.6,12.8,242.4,5.7z M228.5,18.2c-5.1-1.3-7-6.9-6.4-11.6c0.4-2.9,1.7-5.1,3.7-6.3c-0.1,0.1,0.1,0.3,0.2,0.2
						c1.3-0.7,2.6-1.3,4-1.5c0.4,0,0.7,0,1.1,0c0.1,0,0.2,0,0.2-0.1c1.2,0,2.4,0.2,3.7,0.7c2.9,1.3,5.1,4.1,6.1,7
						C243.4,13.8,234.9,19.9,228.5,18.2z"/>
					<path class="st218" d="M235.3,8.1c-1.4,0-2.9,0-4.3,0c-1,0-2.3-0.2-3.2,0.4c0,0,0,0,0,0c0,0,0,0-0.1,0.1c0,0,0,0-0.1,0.1
						c0,0,0,0,0,0c0,0,0,0.1,0,0.1c0,0,0,0,0,0c0,0,0,0.1,0,0.1c0,0,0,0.1,0,0.1c0,0,0,0,0,0c0,0,0,0.1,0,0.1c0,0,0,0,0,0
						c0,0,0,0,0.1,0.1c0,0,0,0,0.1,0.1c0,0,0,0,0,0c0.9,0.6,2.2,0.4,3.2,0.4c1.4,0,2.9,0,4.3,0c0.5,0,0.8-0.4,0.8-0.8
						C236.1,8.5,235.8,8.1,235.3,8.1z"/>
				</g>
				<g>
					<path class="st218" d="M271.8,5.7c-1.7-5.4-8.6-10.1-13.7-7.8c-4.4,0-7.6,4.8-8.1,9c-0.8,6.5,2.9,12.5,9.7,13.3
						C267.2,21.1,274.1,12.8,271.8,5.7z M258,18.2c-5.1-1.3-7-6.9-6.4-11.6c0.4-2.9,1.7-5.1,3.7-6.3c-0.1,0.1,0.1,0.3,0.2,0.2
						c1.3-0.7,2.6-1.3,4-1.5c0.4,0,0.7,0,1.1,0c0.1,0,0.2,0,0.2-0.1c1.2,0,2.4,0.2,3.7,0.7c2.9,1.3,5.1,4.1,6.1,7
						C272.8,13.8,264.3,19.9,258,18.2z"/>
					<path class="st218" d="M264.7,8.1c-0.7,0-1.5,0-2.2,0c0-0.5-0.1-1.1-0.2-1.6c0-0.1,0-0.2,0-0.3c0-0.5-0.3-0.7-0.7-0.7
						c-0.4,0-0.7,0.2-0.7,0.7c0,0.1,0,0.2,0,0.3c-0.1,0.5-0.2,1-0.2,1.6c-0.1,0-0.2,0-0.3,0c-1,0-2.3-0.2-3.2,0.4c0,0,0,0,0,0
						c0,0,0,0-0.1,0.1c0,0,0,0-0.1,0.1c0,0,0,0,0,0c0,0,0,0.1,0,0.1c0,0,0,0,0,0c0,0,0,0.1,0,0.1c0,0,0,0.1,0,0.1c0,0,0,0,0,0
						c0,0,0,0.1,0,0.1c0,0,0,0,0,0c0,0,0,0,0.1,0.1c0,0,0,0,0.1,0.1c0,0,0,0,0,0c0.9,0.6,2.2,0.4,3.2,0.4c0.1,0,0.2,0,0.3,0
						c0,0.8,0.1,1.5,0.1,2.3c0,0.2,0.1,0.4,0.2,0.5c0.1,0.3,0.3,0.4,0.6,0.4c0.3,0,0.5-0.1,0.6-0.4c0.1-0.1,0.2-0.3,0.2-0.5
						c0-0.7,0.1-1.5,0.1-2.3c0.8,0,1.5,0,2.3,0c0.5,0,0.8-0.4,0.8-0.8C265.5,8.5,265.2,8.1,264.7,8.1z"/>
				</g>
			</g>
			<g>
				<path class="st218" d="M4.1,277.4c-2.8,0.8-5.6,0.5-6.9-2.4c-0.4-0.9-0.5-1.8-0.3-2.6c0.8-0.8,1.9-1.2,3.2-1.1
					c0.7,0,0.8-1,0.2-1.2c-2.5-1-4.3,0.1-4.8,2.1c-1.2,1.5-1.9,3.6-2.4,5.6c-0.1,0.2,0.3,0.4,0.4,0.2c0.5-1.1,1.1-2.5,1.9-3.7
					c0,0.3,0.1,0.5,0.1,0.8c0.4,1.6,1.6,3.2,3.1,3.9c2.1,1,3.9,0.2,5.6-1.2C4.4,277.6,4.3,277.4,4.1,277.4z"/>
				<path class="st218" d="M20.7,271.9c-0.6-1.2-3-0.9-4.1-0.8c-1,0-2.1,0-3.1,0.1c-0.4,0-1.3,0.3-1.7,0.1c-0.1,0-0.2,0.1-0.1,0.2
					c1.1,0.6,2,0.8,3.4,0.8c1.1,0,2.2,0,3.2,0.1c0.7,0,1.5,0.3,2.2-0.1C20.7,272.3,20.7,272.1,20.7,271.9z"/>
				<path class="st218" d="M20.6,273.8c-1.5-0.7-2.9-0.8-4.6-0.7c-0.8,0-1.6,0.1-2.4,0.1c-0.3,0-1,0.2-1.2,0
					c-0.1-0.1-0.2,0.1-0.1,0.2c0.9,0.7,1.6,0.9,2.8,1c1.8,0,3.7-0.4,5.5-0.3C20.8,274.1,20.8,273.9,20.6,273.8z"/>
				<path class="st218" d="M35.3,271.8c-0.4-3.3-3.6-6.8-7.2-5.3c-4.8,2-4,6.1-2,9.9c0,0.1,0.1,0.1,0.2,0.1c0.6,1.3,1.7,2.3,3.1,2.7
					C33.5,280.2,35.7,274.9,35.3,271.8z M29.7,277.6c-1.6-0.1-2.6-1.9-3.1-3.9c0-0.2-0.1-0.5-0.1-0.7c-0.3-1.7-0.5-3.1,1.1-4.2
					c2.6-1.8,5-0.1,5.9,2.6C34.2,273.9,32.8,277.7,29.7,277.6z"/>
			</g>
			<g>
				<path class="st218" d="M108.9,136.8c0-2.7,0-5.5,0-8.2c0-5.5,0-11,0-16.4c0-11,0-21.9,0-32.9c0-0.5-0.4-0.7-0.8-0.7
					c-0.4,0-0.8,0.2-0.8,0.7c0,0.2,0,0.5,0,0.7c-0.2-0.1-0.4-0.1-0.6,0c-4.8,2.9-10.4,4.5-15.6,6.5c-6.6,2.5-13,5.5-19.5,8.3
					c-7.6,3.2-15.3,6.4-22.9,9.6c-0.9-2.6-1.9-5.1-2.9-7.7c4.1-1.2,7.9-3.7,11.8-5.3c2.2-0.9,4.4-1.7,6.5-2.6
					c1.2-0.5,2.5-0.9,3.6-1.6c-0.6,1.2-1,2.4-1.2,3.8c0,0.1,0.2,0.3,0.2,0.1c1-1.9,1.9-3.8,3.1-5.6c0.2-0.4-0.1-0.7-0.4-0.8
					c-1.4-0.2-2.7,0-4.1,0.1c-1.2,0.1-2.4,0-3.6,0.2c-0.2,0-0.1,0.2,0,0.3c1.4,0.9,3.3,0.7,5.2,0.5c-1.3,0.5-2.6,1.2-3.9,1.8
					c-2.2,0.9-4.3,1.7-6.5,2.6c-3.7,1.5-7.6,3.2-11.1,5.2c-0.9-2.5-1.8-5-2.3-7.7c-0.1-0.5-0.6-0.6-1-0.4c-3.2,1.7-6.4,3.1-9.7,4.4
					c0-0.1,0-0.2,0-0.2c0-0.1-0.1-0.1-0.2,0c0,0.1,0,0.2-0.1,0.3c-2.9,1.2-5.9,2.4-8.8,3.7c-0.1,0.1-0.2,0.1-0.3,0.2
					c0,0,0-0.1,0-0.1c0-0.1-0.2-0.2-0.2,0c0,0.1,0,0.2,0,0.3c-1.4,0.7-2.8,1.3-4.2,2c0,0,0-0.1,0-0.1c0-0.2-0.2-0.2-0.3,0
					c0,0.1,0,0.2,0,0.2c-1.5,0.8-3,1.5-4.5,2.3c0-0.1,0-0.1,0-0.2c0-0.1-0.2-0.2-0.2,0c0,0.1-0.1,0.2-0.1,0.4c-1,0.5-2.1,1-3.2,1.5
					c-0.1-0.1-0.2-0.1-0.3,0c0,0,0,0.1,0,0.1c-1,0.5-2.1,0.9-3.1,1.3c-0.1,0-0.2,0-0.2,0.1c0,0,0,0,0,0c-1.1,0.4-2.3,0.9-3.5,1.2
					c-0.3,0.1-0.6,0.5-0.5,0.8c0.6,1.5,1.2,2.9,1.8,4.4c-0.5-0.2-1-0.3-1.5-0.5c-0.2,0-0.2,0.2-0.1,0.3c0.6,0.3,1.3,0.7,1.9,1
					c1.4,3.2,2.7,6.5,3.7,9.9c-6.9,2.8-13.9,5.6-20.8,8.4c-6.8,2.8-13.6,5.5-20.5,8c-5.5,2-11.6,2.8-16.5,6c-0.6,0.4-0.1,1.2,0.4,1
					c0.1,0.2,0.2,0.4,0.5,0.4c6.4,0.5,13,0.1,19.4,0.1c6.5,0,12.9,0,19.4,0c13.3,0,26.6,0,39.9,0c25.8,0,51.7,0.5,77.5-0.6
					c0.1,0,0.1-0.1,0.1-0.1h0c0,0,0,0,0,0c0.1,0.2,0.3,0.2,0.4,0c0,0,0,0,0,0c0.3-0.1,0.6-0.3,0.6-0.7v-1.9
					C109.1,139.9,108.9,138.3,108.9,136.8z M44.8,102.3c0.1,0,0.2-0.2,0.1-0.3c0,0,0,0-0.1,0c0.1-1.2,0.2-2.5,0.1-3.7
					c0.9,2.2,1.8,4.4,2.5,6.6c-1.1,0.5-2.2,0.9-3.3,1.4c0.3-1,0.4-2,0.5-3C44.7,103,44.7,102.7,44.8,102.3z M41.9,89.1
					c0.5,2.5,1.3,4.9,2.2,7.2c-0.3,0.3-0.1,0.9,0.3,0.8c0,0.1,0.1,0.2,0.1,0.3c0,0,0,0,0,0.1c-0.3,1.3-0.5,2.7-0.7,4
					c-0.9-0.5-1.9-1-2.9-1.5c0-0.2,0.1-0.5,0.1-0.7c0.2-1,0.5-2.1,0.7-3.2c0.5,0.2,1,0.5,1.5,0.8c0.2,0.1,0.3-0.1,0.2-0.3
					c-0.5-0.4-1-0.9-1.5-1.3c0.4-1.8,0.5-3.6-0.1-5.2c-0.1-0.1-0.3-0.1-0.3,0c0.1,1.6-0.1,3.1-0.4,4.6c-1.3-0.9-2.6-1.6-4-2.2
					c0-0.5,0-0.9,0-1.4C38.8,90.5,40.4,89.8,41.9,89.1z M35.6,107.5c-0.2-0.1-0.5-0.2-0.7-0.3c0-0.1,0-0.2,0-0.3
					c0.1-1.1,0.3-2.1,0.5-3.2c1.2,0.5,2.3,1,3.5,1.4c-0.2,1.2-0.4,2.4-0.3,3.5c-1.3,0.5-2.6,1.1-3.9,1.6c0.1-0.8,0.1-1.6,0.2-2.5
					c0.2,0,0.5,0.1,0.7,0.1C35.7,107.9,35.7,107.6,35.6,107.5z M35.5,102.9c0.1-0.8,0.3-1.5,0.4-2.3c0.1-0.6,0.2-1.2,0.4-1.8
					c0.1,0,0.1,0.1,0.2,0.1c1.1,0.6,2.2,1.2,3.4,1.8c-0.3,1.1-0.6,2.4-0.8,3.7C37.9,103.9,36.7,103.4,35.5,102.9z M37.1,93.6
					c1.3,0.7,2.6,1.4,3.9,2.1c-0.3,1.3-0.6,2.6-0.9,3.9c-1.2-0.6-2.4-1.2-3.6-1.8C36.8,96.4,37,95,37.1,93.6z M40.1,105.5
					c0.5,0.1,1,0.2,1.6,0.3c0.1,0,0.2-0.2,0.1-0.2c-0.5-0.2-1-0.5-1.6-0.7c0-0.1,0-0.3,0-0.4c0.2-1.1,0.3-2.2,0.5-3.4
					c1,0.4,2,0.8,3,1c0,0.3-0.1,0.6-0.1,0.9c-0.2,1.3-0.5,2.5-0.6,3.7c-1.1,0.4-2.1,0.9-3.2,1.3C40,107.2,40,106.3,40.1,105.5z
					 M36.6,92.4c-0.4-0.1-0.8-0.3-1.3-0.4c0.5-0.2,1-0.4,1.5-0.6C36.7,91.7,36.7,92.1,36.6,92.4z M32.3,93.3
					c0.9-0.4,1.8-0.7,2.6-1.1c0,0.1,0,0.3,0.1,0.3c0.5,0.3,0.9,0.5,1.4,0.7c-0.3,1.4-0.5,2.7-0.8,4.1c-1.2-0.6-2.4-1.2-3.6-1.7
					C32.2,94.8,32.3,94.1,32.3,93.3z M35.4,98.3c-0.2,1-0.4,2-0.6,3c-0.1,0.4-0.2,0.8-0.3,1.2c-0.6-0.3-1.2-0.5-1.7-0.8
					c-0.5-0.3-1.1-0.6-1.6-0.9c0.3-1.4,0.5-2.8,0.8-4.3C33.1,97.1,34.3,97.7,35.4,98.3z M16.3,114.6c0-0.1,0-0.2,0-0.3
					c0.1-0.9,0.2-1.8,0.4-2.7c1,0.5,1.9,1,2.9,1.4c-0.2,1.1-0.3,2.1-0.3,3.1C18.4,115.5,17.4,115.1,16.3,114.6z M18.7,116.6
					c-0.9,0.4-1.8,0.7-2.7,1.1c0.1-0.6,0.2-1.3,0.2-2C17,116.1,17.8,116.4,18.7,116.6z M16.9,110.5c0.2-0.8,0.3-1.6,0.5-2.4
					c0.1-0.4,0.2-0.9,0.3-1.4c0.9,0.4,1.7,0.9,2.6,1.4c0.1,0.1,0.2,0.1,0.3,0.2c-0.2,1.2-0.5,2.4-0.7,3.6
					C18.9,111.4,17.9,110.9,16.9,110.5z M20.9,113.5c0.8,0.3,1.7,0.6,2.5,0.7c0,0.2,0,0.3,0,0.5c-1,0.4-2.1,0.8-3.1,1.2
					C20.6,115.2,20.8,114.3,20.9,113.5z M23.5,113.8c-0.8-0.5-1.6-0.9-2.4-1.3c0.2-1.2,0.3-2.5,0.4-3.7c0.8,0.4,1.5,0.8,2.3,1.1
					C23.7,111.2,23.5,112.5,23.5,113.8z M21.7,107.6c0-0.3,0.1-0.7,0.1-1c0.2-1.2,0.3-2.5,0.5-3.7c0.9,0.4,1.7,0.8,2.6,1.2
					c-0.1,0.6-0.2,1.3-0.3,1.9c-0.1,0.8-0.3,1.7-0.5,2.7C23.3,108.3,22.5,107.9,21.7,107.6z M25.1,110.4c1.2,0.4,2.3,0.8,3.6,0.9
					c-0.1,0.5-0.2,1-0.2,1.5c-1.3,0.5-2.5,1-3.8,1.5C24.9,113,25,111.7,25.1,110.4z M25.2,109.1c0.1-1.3,0.2-2.6,0.4-3.8
					c0-0.3,0.1-0.5,0.1-0.8c1.2,0.6,2.4,1.1,3.6,1.7c-0.1,1-0.2,2-0.3,3c0,0.4-0.1,0.8-0.2,1.2C27.6,109.9,26.4,109.5,25.2,109.1z
					 M25.9,103.4c0.2-1.5,0.5-3,0.7-4.5c1.2,0.7,2.4,1.4,3.6,2c-0.3,1.3-0.5,2.6-0.7,3.8c0,0.1,0,0.1,0,0.2
					C28.3,104.5,27.1,103.9,25.9,103.4z M30,111.3c0.4,0,0.7,0,1.1-0.1c0.2,0,0.2-0.2,0-0.3c-0.3-0.1-0.6-0.2-1-0.3
					c0.2-1.4,0.2-3.1,0.2-4.2c1,0.4,2.1,0.7,3.1,1c-0.1,1.1-0.1,2.2,0,3.2c-1.3,0.5-2.5,1-3.8,1.5C29.9,111.9,30,111.6,30,111.3z
					 M30.5,105.4c0.1-1.3,0.3-2.6,0.6-4c0.5,0.2,0.9,0.5,1.4,0.8c0.6,0.3,1.3,0.7,1.9,1c-0.3,1.1-0.5,2.3-0.7,3.5
					C32.6,106.3,31.5,105.9,30.5,105.4z M31.8,93.5c-0.1,0.6-0.3,1.2-0.4,1.8c-0.7-0.3-1.4-0.5-2.2-0.8
					C30.1,94.2,30.9,93.8,31.8,93.5z M27.1,95.5c0.5-0.2,1.1-0.5,1.6-0.7c0.8,0.4,1.7,0.9,2.5,1.3c-0.3,1.4-0.6,2.8-0.9,4.2
					c-1.2-0.7-2.4-1.3-3.6-2C26.8,97.4,27,96.4,27.1,95.5z M26.6,95.7c-0.2,0.8-0.4,1.5-0.5,2.3c-0.7-0.4-1.4-0.7-2.2-1.1
					C24.8,96.5,25.7,96.1,26.6,95.7z M22.9,97.4c0.2-0.1,0.5-0.2,0.7-0.3c0.8,0.5,1.6,1,2.4,1.5c-0.3,1.5-0.6,3-0.9,4.5
					c-0.9-0.4-1.8-0.8-2.7-1.2C22.6,100.4,22.7,98.9,22.9,97.4z M18.5,99.6c1.3-0.7,2.6-1.3,3.9-1.9c0,0,0,0,0.1,0
					c-0.2,1.3-0.5,2.7-0.7,4c-1.1-0.4-2.2-0.7-3.3-0.8C18.5,100.4,18.5,100,18.5,99.6z M18.4,101.3c1.1,0.3,2.1,0.7,3.2,1.2
					c-0.2,1.3-0.4,2.5-0.7,3.8c0,0.3-0.1,0.5-0.2,0.8c-0.5-0.2-0.9-0.5-1.4-0.7c-0.5-0.3-1-0.5-1.6-0.8
					C18.1,104.2,18.3,102.8,18.4,101.3z M13.7,102c1.4-0.7,2.9-1.4,4.3-2.2c0,0.3-0.1,0.6-0.2,0.9c-0.3,0-0.5,0-0.8,0
					c-0.1,0-0.1,0.1,0,0.2c0.2,0.1,0.5,0.1,0.7,0.2c-0.2,1.4-0.5,2.7-0.7,4.1c-1.2-0.6-2.3-1.1-3.6-1.5
					C13.6,103.1,13.6,102.6,13.7,102z M16.8,106.3c-0.2,1.1-0.5,2.2-0.7,3.3c0,0.1-0.1,0.3-0.1,0.4c-0.8-0.4-1.7-0.7-2.5-1.1
					c-0.3-0.1-0.6-0.3-0.9-0.4c0.2-1.3,0.5-2.6,0.7-3.9C14.5,105.1,15.7,105.7,16.8,106.3z M13.2,117c-0.6-0.2-1.1-0.4-1.7-0.6
					c0-0.1,0-0.2,0-0.3c0.1-0.7,0.1-1.5,0.2-2.2c1.1,0.5,2.2,1,3.3,1.4c-0.1,0.8-0.1,1.5,0,2.2C14.5,117.4,13.9,117.2,13.2,117z
					 M14.2,118.4c-1,0.4-2.1,0.8-3.1,1.2c0.2-0.8,0.3-1.5,0.3-2.3c0.3,0.1,0.6,0.2,0.8,0.3C12.9,117.9,13.5,118.2,14.2,118.4z
					 M12.3,113c-0.1-0.1-0.3-0.1-0.4-0.2c0.2-1.1,0.3-2.1,0.5-3.2c0-0.1,0-0.1,0-0.2c0.7,0.3,1.5,0.7,2.2,1c0.4,0.2,0.7,0.4,1.1,0.6
					c-0.2,1-0.4,2-0.6,3.1C14.3,113.8,13.3,113.4,12.3,113z M13.1,102.3c-0.1,0.4-0.2,0.8-0.2,1.2c-0.5-0.2-1-0.3-1.5-0.4
					C11.9,102.8,12.5,102.6,13.1,102.3z M10.3,103.6c0.1,0,0.1-0.1,0.2-0.1c0.8,0.3,1.5,0.5,2.2,0.8c-0.2,1.3-0.5,2.6-0.7,3.9
					c-0.7-0.3-1.3-0.5-2-0.8C10.1,106.2,10.2,104.9,10.3,103.6z M11.7,109.2c-0.1,0.4-0.2,0.8-0.2,1.2c-0.1,0.7-0.3,1.4-0.5,2.1
					c-0.5-0.2-1-0.4-1.6-0.6c0-0.3,0-0.5,0.1-0.8c0.1-0.9,0.2-1.8,0.3-2.7C10.5,108.7,11.1,108.9,11.7,109.2z M10.5,116.1
					c-0.5-0.1-0.9-0.3-1.4-0.4c0.1-0.9,0.2-1.8,0.3-2.8c0.5,0.2,1,0.4,1.5,0.6C10.7,114.3,10.6,115.2,10.5,116.1z M10.8,119.8
					c-0.5,0.2-1,0.4-1.4,0.6c0-1.1-0.2-2.3-0.5-3.5c0-0.2,0.1-0.4,0.1-0.6c0.5,0.2,1,0.4,1.5,0.7C10.4,118,10.5,118.9,10.8,119.8z
					 M6.9,105c0.9-0.3,1.8-0.7,2.7-1.1c-0.2,1.1-0.3,2.2-0.4,3.3c-0.8-0.3-1.6-0.5-2.4-0.7C6.9,106,6.9,105.5,6.9,105z M5.7,109.2
					c-0.4-0.9-0.9-1.8-1.3-2.7c0.4,0.1,0.9,0.3,1.3,0.4C5.7,107.7,5.7,108.5,5.7,109.2z M5.9,106.3c-0.5-0.1-1-0.1-1.5-0.2
					c0,0,0,0,0,0c0-0.1-0.1-0.1-0.1-0.2c0.6-0.2,1.2-0.4,1.9-0.6C6,105.6,6,106,5.9,106.3z M6.4,110.6c0.2-0.9,0.3-1.8,0.3-2.7
					c0-0.2,0-0.4,0.1-0.6c0.8,0.3,1.6,0.6,2.3,0.9c0,0.4-0.1,0.7-0.1,1.1c-0.1,0.8-0.2,1.6-0.3,2.4c-0.7-0.3-1.5-0.6-2.2-0.8
					C6.4,110.7,6.4,110.6,6.4,110.6z M8.3,115c-0.4-1.1-0.8-2.1-1.3-3.2c0.5,0.2,1.1,0.5,1.6,0.7C8.4,113.3,8.3,114.2,8.3,115z
					 M102.3,143.6c-24-0.8-48-0.4-72-0.4c-13,0-25.9,0-38.9,0c-6.5,0-12.9,0-19.4,0c-6.3,0-12.8-0.3-19.1,0.1
					c5-2.3,10.5-3.3,15.6-5.2c6.9-2.6,13.7-5.3,20.5-8.1c9.3-3.8,18.6-7.5,27.9-11.2c0.1,0,0.1,0,0.2,0c0.1,0,0.1-0.1,0.2-0.1
					c2.1-0.9,4.3-1.7,6.4-2.6c0,0,0,0,0,0c0.1,0.3,0.5,0.3,0.6,0c0-0.1,0-0.2,0.1-0.3c2.2-0.9,4.4-1.8,6.6-2.6
					c2.6-1,5.2-2.1,7.8-3.2c0,0.1,0,0.3,0.1,0.4c0.1,0.3,0.5,0.3,0.6,0c0.1-0.3,0.2-0.5,0.2-0.8c10.6-4.3,21.3-8.8,31.8-13.3
					c6.9-2.9,13.8-6.1,20.8-8.8c5.1-2,10.5-3.5,15.2-6.4c0,10.3,0,20.6,0,30.9c0,5.5,0,11,0,16.4c0,2.7,0,5.5,0,8.2
					c0,0.2,0,0.4,0,0.6c-1.6-0.3-3.5,0-5,0.3c-0.2,0-0.4,0.3-0.4,0.5C101.9,140,102.3,141.8,102.3,143.6z M102.8,143.7
					c0.6-1.6,0.1-3.4,0.1-5c0.9,0,1.8-0.1,2.7-0.1c0.6,0,1.1,0,1.7-0.1c0,1,0,2,0,3v1.9c0,0.2,0.1,0.4,0.2,0.5
					C106,143.8,104.4,143.7,102.8,143.7z"/>
				<path class="st218" d="M108.4,154c-0.1-0.3-0.4-0.7-0.4-1c0-0.1-0.1-0.1-0.2,0c0,0.2-0.3,0.5-0.3,0.8c-0.1,0.5-0.1,1.1-0.2,1.6
					c-25.6-0.6-51.3-0.3-77-0.3c-13,0-26,0-39,0c-13.3,0-26.6-0.3-39.9,0.1c0-0.6,0-1.2-0.1-1.7c-0.1-0.2-0.3-0.3-0.5-0.1
					c-1.5,1.5-0.7,4-0.2,5.6c0,0.2,0.3,0.2,0.3,0c0.2-0.9,0.5-1.8,0.5-2.7c0-0.1,0-0.1,0-0.2c13,0.4,25.9,0.1,38.9,0.1
					c13,0,26,0,39,0c26,0,52,0.3,78-0.3c0,1.1,0.1,2.1,0.5,3.2c0,0.1,0.2,0.1,0.2,0c0.4-1.1,0.5-2.1,0.5-3.3
					C108.5,155.2,108.5,154.6,108.4,154z"/>
				<path class="st218" d="M117.3,147.4c0.4-0.5,0.6-1,0.2-1.7c-0.6-1.3-2.2-1.9-3.5-2c-0.3,0-0.7,0.3-0.6,0.6
					c0.1,1.9,0,3.9,0.3,5.8c0.1,0.4,0.7,0.4,0.7,0c0.2-1.6,0.2-3.3,0.2-4.9c0.5,0.1,0.9,0.3,1.3,0.7c0.8,0.7-0.3,1.3-1,1.5
					c-0.7,0.3-0.2,1.3,0.5,1.2c0.7-0.1,2.2-0.3,1.5,0.8c-0.5,0.8-1.7,0.7-2.5,0.7c-0.1,0-0.2,0.1-0.2,0.3c1,1.6,3.3,0.8,3.9-0.7
					C118.8,148.4,118.2,147.7,117.3,147.4z"/>
				<path class="st218" d="M118.2,78.7c-1.5-0.2-4.2,0-4.4-2.1c-0.1-1.2,0.7-2.7,2.1-2.6c0.1,0,0.2-0.1,0.1-0.2
					c-1.7-1.5-3.2,1.2-3.2,2.7c0,1.1,0.4,2,1.3,2.7c1.3,0.9,3,0.6,4.2-0.2C118.3,78.9,118.3,78.7,118.2,78.7z"/>
				<path class="st218" d="M34.4,166.6c-2,1.3-2.9-1.7-3-3.2c0-0.3-0.2-0.4-0.3-0.5c0.2,0,0.4,0,0.6,0.1c0.1,0.1,0.2-0.1,0.2-0.2
					c-0.5-1-1.9-0.4-2.6,0c-1.4,0.7-2.7,2.1-2.8,3.7c0,0.2,0.2,0.4,0.3,0.4c1.5,0.3,2.8-0.3,3.7-1.4c0.1,0.7,0.4,1.3,0.9,1.8
					c1,1.1,2.4,0.3,3.3-0.5C34.6,166.7,34.5,166.5,34.4,166.6z M27.3,166c0.3-1,1.1-1.8,2-2.4c0.3-0.2,0.8-0.5,1.3-0.6
					c-0.1,0.1-0.1,0.1-0.1,0.2l0,0c0,0.1,0,0.1,0,0.2C30.1,164.9,28.7,166.1,27.3,166z"/>
				<path class="st218" d="M127.2,81.2c-1.9-0.3-3.7-0.9-5.7-0.3c-0.5,0.1-0.5,0.8,0,1c0.5,0.2,1,0.2,1.5,0.2
					c-0.6,10.2-0.3,20.5-0.3,30.7c0,5.2,0,10.5,0,15.7c0,4.6-0.4,9.6,0.2,14.2c-0.7,0-1.5,0-2,0.5c0,0,0,0.1,0,0.1
					c0.6,0.5,1.4,0.5,2.2,0.5c0,0.1,0,0.2,0,0.3c0,0.1,0.2,0.1,0.3,0c0-0.1,0-0.2,0-0.3c1.2,0,2.2-0.2,3.4-0.4c0.2,0,0.2-0.3,0-0.3
					c-1.1-0.1-2.1-0.4-3.2-0.4c0.6-4.3,0.2-8.9,0.2-13.2c0-5.6,0-11.1,0-16.7c0-10.2,0.3-20.5-0.3-30.7c1.2,0,2.4-0.4,3.6-0.6
					C127.4,81.5,127.4,81.2,127.2,81.2z"/>
				<path class="st218" d="M135.9,110c-0.6-0.1-1.3,0.2-1.7-0.2c-0.4-0.4-1-0.1-1,0.4c-0.1,3.1-2.2,1.4-2.7-0.2
					c1.3-2.8,1.9-6.1,1.4-8.9c0-0.3-0.4-0.4-0.7-0.3c-2.7,1.5-2.3,6.4-1.7,8.9c0,0,0,0,0,0c-0.4,1.1-0.9,2.3-1.2,3.5
					c0,0.1,0.1,0.2,0.2,0.1c0.5-0.7,1-1.4,1.5-2.3c0.4,0.9,1.1,1.8,1.9,2c1.4,0.3,1.9-0.7,2.2-1.8c0.6,0.2,1-0.4,1.8-0.9
					C136.1,110.2,136.1,110,135.9,110z M130.1,107c-0.1-1.4,0-3.8,1-5c0.2,2.1-0.3,4-1,5.9C130.2,107.7,130.2,107.3,130.1,107z"/>
				<path class="st218" d="M50,75.1c1.7,0.1,3.4,0.2,4.9-0.6c0.1-0.1,0.1-0.3,0-0.3c-1.8-0.4-3.6-0.3-5.4-0.3
					c-0.3,0-0.6,0.3-0.6,0.6c-0.1,1.6,0,3.2,0.1,4.8c0,1-0.2,2.8,0.6,3.5c0,0,0.1,0,0.1,0c0.7-0.7,0.4-2.1,0.4-2.9
					c0-0.2,0-0.5,0-0.7c0.9,0.2,1.9-0.1,2.7-0.2c0.1,0,0.1-0.2,0-0.3c-0.7-0.4-1.8-0.8-2.7-0.5C50,77,50,76,50,75.1z"/>
			</g>
			<g>
				<g>
					<path class="st218" d="M215.4,148.1c-0.2-1.4-3.8-6.8-2.7-7.6c0.1,0,0.1-0.1,0.2-0.1c0.6-0.5-0.2-1.5-0.8-1.2
						c-0.2,0.1-0.4,0.2-0.5,0.4c-2.2,1.7-4.5,3.4-6.8,5c-0.8,0.5-1.8,1-2.5,1.7c-0.2,0.2-1.5,1.7-1.6,1.6c0-0.1-0.1-0.1-0.2,0
						c-0.1,0.3-0.1,0.3-0.1,0.5c0,0.1,0.1,0.2,0.2,0.2c0.4,0.2,0.7,0,1-0.2c1.1-0.7,1.9-1.5,3.1-2.2c2.3-1.3,4.4-2.9,6.5-4.5
						c0.2,0.9,0.7,1.9,1.1,2.7c0.6,1.2,1.4,2.4,1.7,3.8c0.4,1.9-3,1-4,1.3c-0.4,0.1-0.5,0.6-0.1,0.8
						C211.8,151.5,215.8,151,215.4,148.1z"/>
					<path class="st218" d="M226.7,143.7c-1.1-0.4-2.5-0.3-3.6-0.4c-1.4-0.1-2.6,0.3-3.9,0.3c-0.1,0-0.1,0.2,0,0.2
						c1.3,0.2,2.6,0.7,3.9,0.8c1.1,0.1,2.5,0.4,3.6,0.1C227.2,144.6,227.2,143.9,226.7,143.7z"/>
					<path class="st218" d="M227.4,147.4c-1.3-0.4-2.5-0.6-3.9-0.7c-1.1-0.1-3.5-0.6-4.2,0.3c-0.1,0.1-0.1,0.1,0,0.2
						c0.7,1,2.7,0.7,3.8,0.8c1.5,0.1,2.9,0.1,4.4-0.2C227.6,147.8,227.6,147.5,227.4,147.4z"/>
					<path class="st218" d="M249,147.8c-1.5,1.1-3.8,2.8-5.6,0.9c-1.3-1.3-1.4-4-1.5-5.6c0-1-1.5-1.1-1.5-0.1c0,1-0.2,7.4-2.6,5.3
						c-1.7-1.4-1.5-4.1-1.1-6.1c0.1-0.4,0.2-0.8,0.3-1.2c0.1-0.5-0.6-0.7-0.8-0.3c-0.2,0.5-0.3,1.1-0.5,1.9
						c-0.7,2.6-1.5,5.2-1.6,7.9c0,0.2,0.2,0.2,0.3,0.1c0.5-1.3,0.8-2.7,1.2-4c0.2,1.4,0.9,2.7,2.3,3.3c1.8,0.7,2.8-0.3,3.3-1.8
						c0.4,1,1,1.9,1.9,2.6c2.4,2,5-1,6.2-2.6C249.4,147.9,249.2,147.7,249,147.8z"/>
					<path class="st218" d="M257.6,137.6c-2.2-0.4-4.4-0.6-6.6-0.7c0-1.3,0-2.6,0-4c0-0.7-1-0.8-1.1-0.1c-0.1,1.4-0.4,2.7-0.7,4
						c-1.4,0-2.8,0-4.2,0.1c-0.2,0-0.1,0.3,0,0.4c1.2,0.6,2.5,0.8,3.9,0.9c-0.5,1.8-1.2,3.6-1.8,5.4c0,0.1,0.1,0.1,0.1,0.1
						c1.4-0.7,1.9-2.3,2.4-3.7c0.1-0.3,0.2-0.6,0.3-0.9c0,2.4,0.2,4.8,0.6,7.1c0.3,1.7,0.8,3.7,2.3,4.8c1.4,1,3-0.1,3.7-1.3
						c0.1-0.1-0.1-0.3-0.2-0.3c-1.4,0.4-2.6,1-3.6-0.6c-1-1.7-1.2-4-1.5-5.8c-0.2-1.6-0.2-3.2-0.3-4.7c2.3,0,4.5-0.4,6.6-0.5
						C257.8,137.8,257.8,137.6,257.6,137.6z"/>
					<path class="st218" d="M267.3,143c-0.5-0.5-1-0.5-1.6-0.5c0-0.6,0.1-1.2,0-1.8c0-0.1-0.1-0.1-0.2-0.1c-0.7,0.3-1,1.1-1.1,1.9
						c-0.9,0-1.9,0.1-2.8,0.4c-0.1,0-0.1,0.2,0,0.3c0.9,0.4,1.9,0.4,2.8,0.4c0.1,0.9,0.4,1.9,0.7,2.5c0.1,0.1,0.2,0.1,0.2,0
						c0.1-0.8,0.2-1.6,0.2-2.4c0.6,0,1.2,0,1.7-0.4C267.4,143.2,267.4,143.1,267.3,143z"/>
					<path class="st218" d="M277.6,131.2c0.1-0.7-0.9-0.9-1.3-0.4c-1.1,1.5-2.2,2.9-3.1,4.4c-0.1,0.1,0,0.3,0.2,0.2
						c0.9-0.2,1.6-0.9,2.3-1.6c-0.2,1.7-0.1,3.5,0.8,4.7c0.1,0.2,0.4,0.1,0.5-0.1c0.4-1,0.2-2.1,0.2-3.1
						C277.1,133.9,277.4,132.6,277.6,131.2z"/>
					<path class="st218" d="M283.4,140.4c-1.9-0.4-3.8-0.4-5.7-0.4c-2.1,0-4.4-0.4-6.5,0c-0.1,0-0.1,0.2,0,0.2
						c2,0.9,4.3,0.9,6.5,1.1c2,0.1,3.9,0.2,5.7-0.6C283.5,140.7,283.5,140.4,283.4,140.4z"/>
					<path class="st218" d="M280.8,151.8c-1-0.1-2.1-0.5-3.2-0.8c-0.6-0.1-1.1-0.2-1.7-0.3c0.9-0.9,1.6-2.2,1.3-3.5
						c-0.3-1.9-2.4-1.2-3-0.1c-0.1,0.1,0.1,0.4,0.2,0.3c0.8-0.2,1.9-1,1.7,0.5c-0.2,1.1-1,2.2-1.9,2.8c-0.4,0.3,0,0.9,0.4,0.9
						c1.1,0.1,2.3,0.7,3.4,0.9c1.1,0.3,1.9,0,2.9-0.4C281,152.1,280.9,151.8,280.8,151.8z"/>
					<path class="st218" d="M306.3,147.2c-1.4,1.4-2.7,1.3-3.8-0.6c-0.6-1-0.9-2.1-1.1-3.2c0.2-0.8,0.4-1.7,0.5-2.6
						c1.5-0.1,3-0.3,4.3-0.5c0.2,0,0.2-0.3,0-0.3c-1.3-0.3-2.6-0.5-4-0.6c-0.1,0-0.2,0-0.2,0c0.2-1.8,0.1-3.7,0-5.2
						c0-0.4-0.4-0.6-0.7-0.4c-1.2,1.1-1.3,3.7-1.4,5.3c0,0.1,0,0.1,0,0.2c-0.8,0-1.5,0-2.2,0.1c-0.2,0-0.2,0.3,0,0.4
						c0.7,0.5,1.4,0.7,2.2,0.9c0,0.8,0,1.7,0.1,2.5c-0.4,1.1-0.9,2.1-1.5,3.1c-0.8,1.3-2.8,2.5-4.1,0.6c-0.4-0.6-0.6-1.3-0.6-2
						c0.1-0.5,0.1-1,0-1.6c0,0,0,0,0,0c0,0,0,0,0,0c0-0.1,0-0.1,0-0.2c-0.1-0.6-0.8-0.5-1-0.2c-3.1-1.1-7.4,3.9-4.6,6
						c1.2,0.9,2.9-0.2,3.8-0.8c0.4-0.3,0.8-0.7,1.1-1.1c0.3,0.6,0.6,1.2,1.2,1.6c1.8,1.3,3.9,0.5,5.2-1c0.5-0.6,0.9-1.2,1.2-1.9
						c0.1,0.2,0.1,0.3,0.2,0.5c1.3,2.9,5.1,5.9,6,1.3C306.7,147.3,306.5,147.1,306.3,147.2z M292.5,145.1c-0.4,1.3-1.4,2.4-2.8,2.9
						c-1.3,0.4-1.6-0.5-1.2-1.5c0.6-1.9,2.2-2.7,4-2.7C292.4,144.1,292.4,144.6,292.5,145.1z M301.2,135.8c0,1.2-0.1,2.4-0.3,3.6
						C300.9,138.1,300.9,136.8,301.2,135.8z"/>
					<path class="st218" d="M315.9,138.8c-1.7,0.4-3.9-0.2-5.8-0.8c1.1-0.6,1.8-1.8,1.8-3.1c0.1-1.8-2.2-2.6-3.3-1.4
						c-0.1,0.1-0.1,0.3,0.1,0.4c1,0.3,2.2-0.1,1.9,1.4c-0.2,1-0.9,2.1-1.8,2.5c-0.2,0.1-0.2,0.5,0,0.6c2.6,1.4,4.7,2.5,7.2,0.8
						C316.2,139,316.1,138.8,315.9,138.8z"/>
				</g>
				<g>
					<path class="st218" d="M245.5,165.6c-1.2,1-3.1,1.1-4-0.3c-0.5-0.8-1.5-0.4-1.6,0.4c-0.3,2-0.6,3.9-1.4,5.8
						c-0.2-2.3-0.4-4.5-1.2-6.7c-0.2-0.5-0.8-0.8-1.2-0.3c-1.2,1.3-2.2,2.8-2.3,4.6c0,0.4,0.6,0.6,0.8,0.2c0.5-1,1.1-1.9,1.7-2.8
						c0.6,2.5,0.7,5.1,0.9,7.7c0.1,0.8,1,1.1,1.5,0.4c1.5-2.2,2.2-4.6,2.6-7.2c1.5,0.9,3.1,0,4.4-1.7
						C245.9,165.6,245.6,165.5,245.5,165.6z"/>
					<path class="st218" d="M260.7,167.2c-1.6-0.5-3.1-0.5-4.8-0.5c-1.3,0-3.5-0.3-4.5,0.6c0,0,0,0.1,0,0.1c1,1,3.3,0.6,4.5,0.6
						c1.7,0,3.2,0,4.8-0.5C260.9,167.5,260.9,167.3,260.7,167.2z"/>
					<path class="st218" d="M260.4,170.7c-2.8-1-6.5-0.7-9.3,0.1c-0.1,0-0.1,0.2,0,0.2c2.8,0.8,6.5,1.1,9.3,0.1
						C260.5,170.9,260.5,170.7,260.4,170.7z"/>
					<path class="st218" d="M282.5,170.9c-1.5,0.6-3.7,1.2-4.8-0.4c-0.7-1-0.6-2.3-0.3-3.5c0.2-0.5,0.3-1,0.4-1.4
						c0.3-1-1.1-1.3-1.5-0.4c-0.2,0.6-0.4,1.3-0.6,1.9c-0.6,1.8-1.7,3.6-3.5,4.1c-1.6,0.5-1.9-1.2-1.8-3c0.3-1.1,0.5-2.3,0.6-3.5
						c0-0.6-0.9-0.7-1.1-0.1c-0.3,1.1-0.8,2.8-0.8,4.3c-0.4,1.5-1,2.9-1.6,4.3c-0.1,0.1,0.1,0.2,0.2,0.1c0.6-0.8,1.1-1.7,1.6-2.6
						c0.3,1,1,1.7,2.2,1.9c1.7,0.3,3.1-0.9,4.1-2.4c0.2,0.7,0.6,1.4,1.2,2.1c1.8,1.9,4.3,0.5,5.7-0.9
						C282.9,171.2,282.8,170.8,282.5,170.9z"/>
					<path class="st218" d="M294.9,166.1c-0.4-0.5-1.3-0.5-2-0.4c0.1-0.5,0.2-0.9,0.5-1.2c0.2-0.1,0-0.5-0.2-0.4
						c-0.8,0.3-1.2,1-1.4,1.7c-0.9,0.2-1.7,0.5-2.4,1.1c-0.1,0.1-0.1,0.4,0.1,0.4c0.8-0.1,1.5-0.2,2.3-0.3c0.1,1.1,0.5,2.1,1,2.9
						c0.1,0.1,0.3,0.1,0.3-0.1c0-0.9-0.1-1.9-0.2-2.8c0,0,0-0.1,0-0.1c0.7,0,1.4,0.1,2-0.2C295,166.6,295,166.3,294.9,166.1z"/>
					<path class="st218" d="M319.8,167.9c-1,0.6-2.2,1.9-3.4,1.2c-1.1-0.7-1.7-2.5-2.1-3.6c-0.3-0.8-0.5-1.7-0.7-2.6
						c0.1-0.2,0.1-0.4,0.1-0.7c1.8,0,3.5-0.3,5.2-0.5c0.1,0,0.1-0.2,0-0.2c-1.6-0.3-3.3-0.5-5-0.5c0.2-1.6,0-3.2-0.6-4.5
						c-0.2-0.5-1.1-0.4-1.2,0.2c-0.3,1.4-0.3,2.9-0.2,4.4c-0.9,0.1-1.8,0.2-2.6,0.5c-0.1,0-0.1,0.2,0,0.2c0.9,0.3,1.8,0.4,2.8,0.5
						c0,0.2,0.1,0.4,0.1,0.7c-0.6,2.4-1.8,4.7-3.1,6.3c-0.4-0.7-0.7-1.5-0.8-2.3c0-0.2-0.1-0.3-0.2-0.4c0.3-0.3,0.2-0.8-0.1-1
						c-2.5-1.6-6.3-0.3-6.7,2.5c-1.1,1.1-1.9,2.5-2.1,4.2c-0.1,0.4,0.5,0.6,0.7,0.2c0.4-1,0.9-1.9,1.6-2.7c0.4,1.6,1.8,2.7,3.4,2.3
						c1.2-0.3,2.2-1.4,2.9-2.7c0.3,0.5,0.5,1.1,0.8,1.6c0.2,0.4,0.8,0.5,1.1,0.1c1.3-1.4,2.5-3.4,3.4-5.7c0.3,1,0.7,1.9,1.1,2.8
						c1.4,2.8,5.1,3.8,6.1,0.1C320.1,168,320,167.9,319.8,167.9z M306.9,166.9c-0.3,1.4-2.8,6-4.4,2.2c-0.1-0.2-0.1-0.4-0.2-0.6
						c1.3-1,2.9-1.7,4.6-1.8C307,166.7,306.9,166.8,306.9,166.9z"/>
				</g>
				<g>
					<path class="st218" d="M250.3,191.4c-1.4-0.3-2.9-0.3-4.3-0.7c-0.6-0.2-1.1,0.3-1.1,0.8c-0.1,2.3-1,4.3-2.1,6.2
						c-0.6-1.6-0.6-3.4-0.6-5.1c0-1-1.3-1.1-1.7-0.2c-0.7,1.8-1.1,3.7-1.7,5.5c-0.5-2.6-0.3-5.3-0.8-7.9c-0.1-0.5-0.9-0.8-1.2-0.3
						c-0.4,0.5-0.8,1.1-1.1,1.7c-0.1,0.2-0.2,0.4-0.3,0.6c0,0.1,0,0.1-0.1,0.2c-0.1-0.1-0.2,0-0.2,0.1c-0.1,1.1,0.8,0.5,1.6-0.3
						c0.2,3,0.1,6,1.1,8.8c0.2,0.6,1.2,0.9,1.5,0.2c0.6-1.2,1.1-2.5,1.5-3.9c0.2,1,0.6,1.9,1.2,2.8c0.4,0.6,1.1,0.5,1.5,0
						c1.6-2.3,2.8-4.6,3.1-7.3c1.3,0.1,2.3-0.4,3.7-0.8C250.4,191.7,250.5,191.4,250.3,191.4z"/>
					<path class="st218" d="M265.1,195.1c-0.4-0.2-0.4-0.5-0.9-0.5c-0.8-0.1-1.7-0.1-2.5-0.1c-2.1,0-4.4-0.2-6.4,0.4
						c-0.4,0.1-0.4,0.7,0,0.8c1.9,0.6,4,0.4,5.9,0.4c0.9,0,1.9,0,2.8,0c0.6,0,0.7-0.3,1.1-0.6C265.2,195.5,265.2,195.2,265.1,195.1z
						"/>
					<path class="st218" d="M264.7,198.6c-3-0.5-6-1.5-9-0.7c-0.2,0-0.1,0.3,0,0.3c3,0.9,5.9,1.2,9,0.7
						C264.8,198.9,264.8,198.7,264.7,198.6z"/>
					<path class="st218" d="M279.6,185.1c1.7,0.2,3.5,0.8,5.3,0.5c0.1,0,0.2-0.2,0.1-0.3c-1.8-2.7-7.1-1.8-9.9-2.3
						c-0.5-0.1-0.9,0.2-0.9,0.7c0,2.8-0.1,5.5-0.3,8.3c-0.2,2.8-0.6,5.8,0,8.6c0.1,0.3,0.5,0.3,0.6,0c0.6-2.5,0.5-5.1,0.7-7.7
						c0.1-0.8,0.1-1.7,0.2-2.5c1.1,0.1,2.2,0,3.3-0.1c1.9-0.1,3.9-0.2,5.8,0.1c0.2,0,0.3-0.2,0.1-0.3c-2.6-1.5-6.2-1.7-9.2-0.9
						c0.1-1.5,0.2-3.1,0.2-4.6C276.9,184.8,278.2,184.9,279.6,185.1z"/>
					<path class="st218" d="M289.1,194c0-0.1-0.1-0.3-0.2-0.4c0,0,0,0,0,0c0,0,0,0,0,0c-0.1-0.1-0.2-0.1-0.4-0.2c0-0.1,0-0.1,0-0.2
						c0-0.6-0.9-1-1.3-0.3c-0.2,0.3-0.5,0.9-0.2,1.3c0,0,0,0,0,0c0.1,0.4,0.4,0.8,0.9,1C288.7,195.5,289.3,194.7,289.1,194z"/>
					<path class="st218" d="M310.8,190.7c-2.4,1-4.6,2.7-6.5,4.5c-2.1-1.6-5.1-3.8-4.5-4.7c0,0,0,0,0,0c0-0.1,0.1-0.1,0.1-0.2
						c0.3-0.8-0.9-1.2-1.3-0.6c-0.1,0.2-0.2,0.4-0.2,0.6c-0.8,2.1-2.4,3.9-3.6,5.7c-0.4,0.6-1.8,2.2-1.1,3c0,0.1,0.1,0,0.2,0
						c0.7-1.3,2.1-2.6,3-3.8c0.7-1,1.5-2,2.1-3c1,1.4,3,2.7,4.5,3.8c-0.1,0.1-0.2,0.2-0.3,0.3c-0.9,0.9-3.6,4.2-0.6,4.3
						c2.1,0.1,5.1-1.5,3.7-3.8c-0.1-0.2-0.4-0.5-0.8-0.8c1.8-1.7,3.6-3.6,5.5-5.2C311.1,190.9,310.9,190.7,310.8,190.7z
						 M305.1,198.4c-0.4,0.4-2.9,1.6-2.2,0.5c0.4-0.7,1-1.3,1.6-1.9C305.1,197.6,305.4,198.1,305.1,198.4z"/>
				</g>
			</g>
			<g>
				<path class="st218" d="M215,209.9c0-0.1,0-0.2-0.1-0.3c-0.1-0.2-0.3-0.3-0.5-0.3c-0.2,0-0.4,0.1-0.5,0.3
					c-0.1,0.1-0.1,0.2-0.1,0.3c-0.5,3.7-0.1,7.7,0,11.5c0,0.4,0.3,0.6,0.6,0.6c0.3,0,0.6-0.2,0.6-0.6
					C215.1,217.6,215.5,213.6,215,209.9z"/>
				<path class="st218" d="M240.5,225.4c0-3.1,0.2-6.1,0-9.2c0-0.5-0.3-0.7-0.7-0.7c-0.1,0-0.1,0-0.2,0c-2.5-0.4-4.9-0.5-7.5-0.5
					c-2.6,0-5.9-0.5-8.5,0.3c0-1.7,0-3.5-0.2-5.1c0,0,0,0,0,0c0,0,0-0.1,0-0.1s0-0.1,0-0.1c0-0.1-0.1-0.3-0.2-0.4
					c0,0-0.1-0.1-0.1-0.1c0,0,0,0,0,0c-0.1-0.1-0.2-0.1-0.4-0.1c-0.1,0-0.2-0.1-0.3-0.1c-1.1,0-2.3-0.1-3.4,0.1
					c-0.2-0.1-0.5-0.2-0.8-0.1c-0.1,0-0.1,0.1-0.2,0.1c-0.1,0-0.3,0.1-0.3,0.2c-0.1,0.1-0.1,0.2-0.1,0.3c-0.1,0.1-0.1,0.3,0,0.4
					c-0.4,3.6,0,7.5,0.1,11.1c0,0.4,0.3,0.6,0.6,0.6c0,0,0,0,0.1,0c0.1,0.2,0.3,0.3,0.6,0.3h0.1c0,0,0,0,0,0c0.6,0,1.1,0,1.7,0
					c0,0,0,0,0,0c0.6,0.1,1.2,0.1,1.8,0c0.4,0,0.7-0.2,0.8-0.5c0.1-0.1,0.2-0.2,0.2-0.4c0-1.7,0.1-3.4,0.2-5.1
					c2.3,0.7,5,0.3,7.4,0.3c2.8,0,5.4,0,8.1-0.5c0,0,0,0.1,0,0.1c-0.2,2.7-0.1,5.5,0,8.2c0,1.8-0.1,3.7,0.3,5.5
					c0,4.6,0,9.2-0.1,13.8c0,0-0.1,0-0.1,0c-9-0.3-17.9-0.1-26.8,0.5c0-0.9,0-1.8,0-2.7c0-0.4-0.3-0.6-0.5-0.6
					c-0.1-0.1-0.2-0.1-0.4-0.1c-7.7-0.1-15.3-0.3-23,0.4c-0.1,0-0.2,0.1-0.1,0.2c-0.2,0.1-0.3,0.2-0.3,0.5c0,0.7,0,1.4,0,2.1
					c-7.5-0.1-15.1,0-22.6,0c-6.1,0-12.5-0.6-18.5,0.4c0,0,0,0,0,0c0.2-2.6,0.2-5.2,0.2-7.8c0.3-0.2,0.6-0.5,0.3-0.9
					c0-0.1-0.1-0.1-0.1-0.2c0.6-0.7,1.2-1.6,1.7-2.3c0.6-0.8,1.6-1.7,1.6-2.8c0.3-0.5,0-1.1-0.6-1.1c-1,0-2-0.1-3-0.1
					c0-0.7,0-1.3,0-2c0.3-3.4,0.1-6.9,0-10.2c4.9,0.4,9.9,0.1,14.7,0.1c5.7,0,11.4,0,17.2,0c11.5,0,22.9,0.2,34.3-0.6
					c0.3,0,0.3-0.4,0-0.4c-11.1-0.7-22.1-0.6-33.2-0.6c-5.7,0-11.4,0-17.2,0c-5.3,0-10.8-0.4-16.1,0.1c-0.5,0-0.7,0.3-0.7,0.7
					c-0.3,0.1-0.5,0.3-0.5,0.6c0,3.3-0.3,6.7,0,10.1c0,0.2,0,0.3,0,0.5c0,0.6,0,1.2,0,1.9c-1.1,0-2.2,0.1-3.3,0.3c0,0,0,0,0,0
					c-0.1-0.1-0.2,0-0.2,0.1c-0.4,0.2-0.3,0.9,0.2,1c0.1,0,0.1,0,0.2,0c0.4,0.8,0.9,1.5,1.5,2.1c0.6,0.8,1.1,1.6,1.7,2.4
					c-0.1,3.5,0,7.1,0.3,10.6c0,0.4,0.2,0.5,0.5,0.5c0.3,0,0.6-0.1,0.5-0.5c0-0.3,0-0.5,0.1-0.8c0,0,0,0,0,0c6,1,12.4,0.4,18.5,0.4
					c7.5,0,15.1,0,22.6,0c0,0.6-0.1,1.2,0.1,1.7c0,0.1,0,0.2,0.1,0.3c0,0.1,0.1,0.1,0.1,0.2c0,0.1,0.1,0.1,0.2,0.1
					c3.3,0.8,6.9,0.4,10.2,0.4c4.2,0,8.4,0,12.5,0c0.1,0,0.2,0,0.3-0.1c0.1,0,0.3,0,0.4,0c0.4,0,0.6-0.3,0.6-0.6
					c0-0.2,0-0.3-0.1-0.4c0-0.8,0-1.6,0-2.4c8.9,0.5,17.9,0.8,26.8,0.5c0.1,0,0.2,0,0.2,0c0.2,0,0.3,0,0.5,0c0.3,0,0.4-0.1,0.5-0.4
					c0.1-0.1,0.1-0.2,0.1-0.3c0-5.7,0-11.5-0.1-17.2C240.5,226.4,240.5,225.9,240.5,225.4z"/>
				<path class="st218" d="M159,234.4c-0.6-0.2-1.4-0.4-2.1-0.4c0.1-0.6,0.1-1.2,0.1-1.8c0-0.9,0-2.1-0.2-3.2
					c0.5-0.1,0.9-0.3,1.3-0.4c0.1,0,0.1-0.2,0-0.2c-0.5-0.2-1.1-0.4-1.7-0.4c0,0,0-0.1-0.1-0.1c-0.1-0.1-0.3-0.1-0.4,0
					c0,0,0,0.1,0,0.1c-0.6,0-1.2,0-1.7,0.2c-0.1,0.1-0.2,0.2-0.1,0.4c0.4,0.4,0.9,0.6,1.5,0.6c-0.1,0.7,0,1.5,0.1,2.2
					c0,0.9-0.2,1.9-0.1,2.8c-0.3,0.1-0.6,0.1-0.9,0.3c-0.1,0-0.1,0.1-0.1,0.2c0.9,1.4,3.1,0.5,4.3,0.1
					C159.1,234.6,159.1,234.5,159,234.4z"/>
				<path class="st218" d="M204,238.4c-1.9-0.9-3.9-2-5.6-3.3c0.7-0.7,1.8-1.5,1.8-2.4c0-1.3-1.7-1.4-2.6-1.5
					c-0.2,0-0.5,0.2-0.5,0.4c-0.2,1.2-0.2,2.5-0.1,3.7c0.1,1,0,2.3,0.5,3.3c0.1,0.1,0.2,0.1,0.3,0c0.4-0.7,0.3-1.6,0.3-2.4
					c1.7,1.4,3.5,2.9,5.9,2.6C204.1,238.7,204.2,238.5,204,238.4z M198.7,233.3c-0.2,0.3-0.5,0.5-0.7,0.8c0-0.6,0-1.2,0.1-1.8
					C198.8,232.3,199.4,232.5,198.7,233.3z"/>
				<path class="st218" d="M220.8,226.9c0.1-0.1,0.1-0.2-0.1-0.2c-0.5,0-0.9-0.1-1.3-0.4c-0.1-0.2-0.2-0.4-0.3-0.5
					c-0.2-0.3-0.7-0.1-0.7,0.2c0,0,0-0.1,0.1-0.1c-0.2,0.1-0.3,0.4-0.2,0.6c0.2,0.2,0.3,0.4,0.5,0.5c0.2,0.7,0.1,1.5-0.1,2
					c-0.3,0.7-0.7-1-0.7-1c-0.1-0.4-0.2-0.8-0.4-1.2c-0.2-0.5-1-0.9-1.6-0.7c-0.8,0.4-1.1,1.5-1.1,2.3c0,0.1,0.2,0.2,0.2,0.1
					c0.2-0.4,1-2.7,1.8-1.4c0.3,0.4,0.2,1,0.3,1.5c0.1,0.6,0.5,1.5,1.3,1.3c1-0.2,1.2-1.5,1-2.6C220,227.2,220.4,227.1,220.8,226.9z
					"/>
			</g>
		</g>
		<g>
			<path class="st219" d="M322.4,61.4c4-5.5,8.8-10.9,15.3-12.6c22.5-6.2,43.4,16.8,43.4,40.2c0,12-6.7,23-11.9,33.8
				c-3.7,7.6-7.8,15.3-8.8,23.8c-2.2,16.9,8,32.7,12.3,49.2c0.8,3,1.4,6.1,1,9.2c-0.9,6.4-5.8,11.3-10.6,15.7
				c-3.2,2.9-6.8,6-11.1,6.5c-3.4,0.4-6.8-0.8-10-2.3c-6.8-3.2-13.1-7.8-18.2-13.3c-1.2-1.3-2.3-2.6-3.9-3.3c-1.9-0.8-4-0.5-6.1-0.7
				c-4.5-0.5-8.6-3.4-11.1-7.1c-2.5-3.8-3.7-8.3-4.3-12.8c-2.1-18,5.8-35.4,11.7-52.5c7.5-21.4,12.3-44.3,9.5-66.8"/>
		</g>
		<g>
			<g>
				<g>
					<g>
						<path class="st220" d="M253.3,488.8c8.2,0.3,16.4,0.6,24.6,1l-3.6-145.2h-49.9c0,0-16.4,39.8-18.4,143.2
							C221.7,488,237.5,488.2,253.3,488.8z"/>
					</g>
				</g>
				<g>
					<g>
						<g>
							<g>
								<path class="st220" d="M345.8,492.2c3.1,0.1,6.2,0.1,9.3,0.2c-0.4-1.6-0.9-3.1-1.3-4.7c-28.3-100.4-44.4-143.2-44.4-143.2
									h-69l-15.4,39.4l35.8,105.1C289.1,490.2,317.4,491.5,345.8,492.2z"/>
							</g>
						</g>
					</g>
				</g>
			</g>
			<g>

					<ellipse transform="matrix(0.1349 -0.9909 0.9909 0.1349 164.1247 386.4063)" class="st222" cx="303.3" cy="99.2" rx="47.2" ry="50.9"/>
				<polygon class="st223" points="308.8,126.6 307.8,204.1 270.4,199.2 282,131.1 				"/>
				<path class="st224" d="M275.2,170.7c0,0,20.9,2.9,33.2-17.4c12.4-20.3-27.2-17.4-27.2-17.4L275.2,170.7z"/>
				<path class="st224" d="M267.9,132.7c0.2-4.8-0.5-9.6-2.2-14.3c-2.3-6.4-6.3-12.7-13.8-10.3c-12.9,4.1-3.6,25.4,8.6,28.7
					C264.1,137.8,267.8,135.8,267.9,132.7L267.9,132.7z"/>
				<path class="st223" d="M316.2,64.1c-8.2-3.5-17.2-5.3-26.1-4.6c-12.1,0.9-28.1,6.2-32.9,27.4c-8,35.3-6.2,58.8,9.2,70.8
					c10.8,8.5,22.9,9.3,39.7,2.4c6.3-2.6,15.6-13.9,18.1-20.5l7.2-18.5C331.5,121.1,355.5,80.8,316.2,64.1z"/>
				<g>
					<g>
						<g>
							<polyline class="st225" points="273.9,117.9 268.6,125.3 272.6,127.9 							"/>
						</g>
					</g>
					<g>
					</g>
				</g>
			</g>
			<g>
				<g>
					<g>
						<g>
							<path class="st227" d="M296.3,193.9c0,0-15.9,54-129.3,137.2l-29.5-38.5l97-103.1L296.3,193.9z"/>
						</g>
						<g>
							<g>
								<path class="st223" d="M77.5,213.1l20.9-10.8l31,45c-7.3,4.9-17,10.3-24.4,15.1L77.5,213.1z"/>
								<g>
									<path class="st223" d="M101.8,199.8l1.4-4.9c1.8-6.5,2.1-13.4,0.8-20.1l-2.3-11.7c-0.6-2.8-3.5-4.4-6.1-3.4v0
										c-2.2,0.8-3.7,3-3.8,5.4l-0.3,12.7l-18.9-34.2c-1-1.9-3.4-2.5-5.2-1.3l-1.2,0.8c-1.4,1-1.9,2.8-1.3,4.3l13.2,26.3
										l-19.3-28.1c-1.1-1.8-3.6-2.3-5.2-1l-0.8,0.6c-1.4,1.1-1.8,3.1-0.9,4.6l15.7,25.8l-16.2-17c-1.5-1.7-4.2-1.5-5.5,0.3
										l-0.3,0.4c-0.9,1.3-0.9,3,0.1,4.2l15.6,18.8L51,174.7c-1.8-1.9-5-1.2-5.9,1.3l0,0c-0.4,1.2-0.2,2.5,0.6,3.4l37.8,42.8
										l10.3-9.4C97.7,209.4,100.4,204.8,101.8,199.8z"/>
									<path class="st228" d="M91.5,177.9c0,0-7.6,6.3-7,18.6"/>
								</g>
							</g>
							<g>
								<g>
									<g>
										<g>
											<path class="st227" d="M178.1,300.3l-68.3-89.4l-27.2,22.7l46.9,85.7c8,13.8,19.8,20.8,32.9,14.6h0
												C174.3,328.3,183.6,312.1,178.1,300.3z"/>
										</g>
									</g>
								</g>
								<line class="st221" x1="156.5" y1="272" x2="171.2" y2="288.9"/>
							</g>
						</g>
					</g>
					<g>
						<g>
							<path class="st30" d="M237.6,200l46.5,32.6l-2.9,160.6l-64-10.8C217.3,382.4,187,246,237.6,200z"/>
							<polygon class="st229" points="212.2,381.9 275.5,394.2 274.1,378.2 212.2,367.7 							"/>
							<path class="st223" d="M307.6,228.9c0,0-76.7,25.7-73-21.3l37.8-24l22.5,9.9l12.6,10.5l12.7,21.2L307.6,228.9z"/>
						</g>
						<g>
							<path class="st227" d="M273,183.8c0,0-33.1,23.9-51.3,69.9c-10.1,25.4-3.9,76.2-2.2,110.2c1.7,33.9,3.9,98.8,3.9,98.8l-25-14
								c0,0-0.6-148.9,3.1-168.4c3.6-19.6,15.5-89.1,44.8-98.3c0,0,8.9-4.4,23.7,0.8L273,183.8z"/>
							<path class="st221" d="M199.7,305.8c0,0-2.7-47.4,12.5-71.2"/>
						</g>
					</g>
				</g>
				<g>
					<path class="st227" d="M321.5,196.8c0,0-11.3-9.8-27.6,2.8c-16.3,12.6-35.8,64.2-35.8,116s15.4,150.5,15.4,150.5
						s56.2,21.6,95.4-6.4L309.6,360l28.7-79.7L321.5,196.8z"/>
					<g>
						<g>
							<g>
								<path class="st227" d="M321.5,196.8c0,0,38.1,14.3,113.2,133.3l-40.5,26.8l-78.4-88.7L321.5,196.8z"/>
							</g>
							<line class="st221" x1="334.1" y1="288.9" x2="315.7" y2="268.2"/>
						</g>
						<g>
							<g>
								<path class="st223" d="M267.4,349l27-6.1l-0.9-6c-0.3-2.2,0.8-4.3,2.8-5.3c2-1,4.4-0.4,5.7,1.4l18.2,25.2l13.8,19.4
									c-15.8,7.9-30.6,6.6-34.9,3.1c-0.6,0-21,1.6-21,1.6c-2,0.3-3.9-1-4.3-3.1c-0.3-1.5,0.1-3.7,4.4-4.7l-4.3,1
									c-2.2,0.3-4.2-1.1-4.5-3.3c-0.4-2,1.3-4,3.9-4.9l-3.2,0.4c-2.3,0.4-4.5-1.4-4.7-3.9c-0.1-2.2,1.5-4.1,3.5-4.6l4.8-1.1
									l-5.3-0.1c-2.5,0.2-4.7-1.7-4.8-4.4C263.5,351.5,265.3,349.5,267.4,349z"/>
								<polygon class="st223" points="320.3,358.3 365.1,346.3 372.4,373.3 326.3,380.9 								"/>
							</g>
							<g>
								<g>
									<g>
										<path class="st227" d="M406.4,321.2l-78.5,26.9l16.6,35.5l75.7-16.9c14.2-3.3,22.1-18.3,16.9-31.8l0,0
											C432.3,322.7,418.7,316.6,406.4,321.2z"/>
									</g>
								</g>
								<line class="st221" x1="372.4" y1="332.9" x2="398.7" y2="323.9"/>
							</g>
						</g>
					</g>
				</g>
			</g>
		</g>
		<path class="st230" d="M269.4,94c-7.5-3.8-12.7,1-12.7,1"/>
		<ellipse cx="290.7" cy="110.8" rx="3.1" ry="4.6"/>
		<g>
			<ellipse cx="262.9" cy="108.8" rx="3.1" ry="4.6"/>
			<g>
				<g>
					<path d="M262.3,106.9c0.2,0.1,0.4,0.1,0.6,0.1c0.2,0,0.3,0,0.5,0c0.4,0,0.7,0,1.1-0.1c0.8-0.2,1.5-0.7,1.9-1.4
						c0.2-0.2,0.3-0.5,0.4-0.8c0.1-0.3,0.2-0.8,0.1-1.2c-0.1-0.3-0.4-0.6-0.7-0.6c-0.3,0-0.7,0.1-0.9,0.4c-0.1,0.2-0.2,0.5-0.2,0.8
						c0-0.3,0-0.1,0,0c0,0.1,0,0.1,0,0.2c0,0.1-0.1,0.2-0.1,0.3c0,0.1,0,0.1-0.1,0.2c-0.1,0.2,0.1-0.1,0,0c0,0.1-0.1,0.2-0.1,0.3
						c0,0-0.1,0.1-0.1,0.1c0.1-0.1,0.1-0.1,0-0.1c0,0,0,0,0,0.1c0,0,0,0,0,0.1c-0.1,0,0,0,0.1,0c0,0-0.1,0.1-0.1,0.1
						c-0.1,0-0.1,0.1-0.2,0.1c0,0-0.1,0-0.1,0.1c0.1,0,0.1-0.1,0.1,0c0,0,0,0-0.1,0c-0.1,0-0.2,0.1-0.3,0.1c-0.1,0-0.2,0-0.3,0.1
						c-0.2,0,0.1,0,0,0c0,0-0.1,0-0.1,0c-0.2,0-0.4,0-0.6,0c-0.2,0-0.4,0-0.5,0c-0.3,0-0.6,0.2-0.6,0.5
						C261.8,106.6,262,106.8,262.3,106.9L262.3,106.9z"/>
				</g>
			</g>
		</g>
		<g>
			<g>
				<path d="M289.3,108.7c0.2,0.1,0.4,0.1,0.6,0.1c0.2,0,0.3,0,0.5,0c0.4,0,0.7,0,1.1-0.1c0.8-0.2,1.5-0.7,1.9-1.4
					c0.2-0.2,0.3-0.5,0.4-0.8c0.1-0.3,0.2-0.8,0.1-1.2c-0.1-0.3-0.4-0.6-0.7-0.6c-0.3,0-0.7,0.1-0.9,0.4c-0.1,0.2-0.2,0.5-0.2,0.8
					c0-0.3,0-0.1,0,0c0,0.1,0,0.1,0,0.2c0,0.1-0.1,0.2-0.1,0.3c0,0.1,0,0.1-0.1,0.2c-0.1,0.2,0.1-0.1,0,0c0,0.1-0.1,0.2-0.1,0.3
					c0,0-0.1,0.1-0.1,0.1c0.1-0.1,0.1-0.1,0-0.1c0,0,0,0,0,0.1c0,0,0,0,0,0.1c-0.1,0,0,0,0.1,0c0,0-0.1,0.1-0.1,0.1
					c-0.1,0-0.1,0.1-0.2,0.1c0,0-0.1,0-0.1,0.1c0.1,0,0.1-0.1,0.1,0c0,0,0,0-0.1,0c-0.1,0-0.2,0.1-0.3,0.1c-0.1,0-0.2,0-0.3,0.1
					c-0.2,0,0.1,0,0,0c0,0-0.1,0-0.1,0c-0.2,0-0.4,0-0.6,0c-0.2,0-0.4,0-0.5,0c-0.3,0-0.6,0.2-0.6,0.5
					C288.8,108.3,289,108.6,289.3,108.7L289.3,108.7z"/>
			</g>
		</g>
		<path class="st231" d="M286.9,134c0,0-20.6-2.6-21-1.9c-0.4,0.7,0.6,11.8,10.1,11.2C285.5,142.8,286.9,134,286.9,134z"/>
		<path class="st30" d="M275.1,134.5c1.6,0.1,3.3-0.1,4.8-0.7c0.3-0.1,0.7-0.3,1-0.4c-4.2-0.5-9.5-1.1-12.5-1.2
			c0.5,0.4,1,0.8,1.6,1.1C271.6,134,273.3,134.3,275.1,134.5z"/>
		<path class="st232" d="M281.6,140.1c-1.1-0.1-2.3-0.1-3.4,0c-1.7,0.3-3.2,1.1-4.6,2.1c-0.4,0.2-0.7,0.5-1,0.8
			c1,0.3,2.1,0.5,3.4,0.4c3.4-0.2,5.7-1.5,7.4-3C282.8,140.3,282.2,140.2,281.6,140.1z"/>
		<g>
			<path class="st222" d="M277.8,59.5C273.7,90,299,98.2,307,105.1s6.1,17.9,17.5,20c16.2,3,17-38.2,14.2-55.9
				c-6.4-14.1-23.9-11.1-36.4-9.5c-7.7-0.1-16-5.4-23.5-1.6"/>
		</g>
		<path class="st230" d="M286.5,95.7c8.6-2.8,14.4,3.4,14.4,3.4"/>
		<g>
			<path class="st223" d="M318.8,135.7c1.4-4,3.7-7.6,6.8-10.8c4.3-4.3,10.3-7.9,16.8-3.1c11.1,8.2-4.9,22-17.8,20
				C320.8,141.3,317.9,138.2,318.8,135.7L318.8,135.7z"/>
			<path class="st233" d="M338.4,129.5c-8.9-4.2-14.6,3.8-14.6,3.8"/>
		</g>
		<g>
			<path class="st222" d="M279.2,59.3c-0.6,6.3-4.8,11.7-9.1,16.4c-4.3,4.7-9,9.3-11.1,15.3c-1,2.9-1.3,5.9-2.2,8.8
				c-0.9,2.9-0.9,6.5-3.6,7.9c-3.2-21.7-0.7-42,24.7-50"/>
		</g>
	</g>
</g>
</svg>
