<svg width="294" height="179" viewBox="0 0 294 179" fill="none" xmlns="http://www.w3.org/2000/svg">
<rect y="3.05176e-05" width="294" height="179" fill="#120540"/>
<mask id="mask0_1386_205" style="mask-type:alpha" maskUnits="userSpaceOnUse" x="0" y="0" width="294" height="179">
<rect y="3.05176e-05" width="294" height="179" fill="#120540"/>
</mask>
<g mask="url(#mask0_1386_205)">
<path d="M263.266 215.788L293.908 185.393L293.908 157.337L249.212 201.805L263.266 215.788Z" fill="#1C0F5F"/>
<path d="M60.8438 14.3486L76.833 30.2565L75.9114 29.2938L105.355 -0.000514984L71.3957 -0.000517953L58.9085 12.4232L60.8438 14.3486Z" fill="#1C0F5F"/>
<path d="M75.9109 29.2941L105.355 -0.000255585L71.3952 -0.000258554L58.908 12.4235L76.8325 30.2568L75.9109 29.2941Z" fill="#1C0F5F"/>
<path d="M178.159 131.068L294 15.816L294 0.0457153L293.954 0.0457153L244.512 -0.000141655L145.536 98.4727M161.248 114.106L275.799 0.0457137L279.071 0.045714L162.815 115.664" fill="#1C0F5F"/>
<path d="M92.9602 46.2569L139.499 0.000322102L106 0.000319174L76.2338 29.6155M127.104 80.1814L207.695 0.000328064L140.651 0.000322203L93.5592 46.8529M109.963 63.3108L173.505 0.0920151L175.164 0.0920153L110.793 64.136" fill="#1C0F5F"/>
<path d="M144.199 97.0977L241.793 0.000167847L209.907 0.000165059L128.21 81.2815L127.565 80.6397L144.199 97.0977Z" fill="#1C0F5F"/>
<path d="M246.263 198.871L293.908 151.469L293.908 151.423L293.908 122.862L231.887 184.568L246.263 198.871Z" fill="#1C0F5F"/>
<path d="M216.266 169.073L229.214 181.909L293.908 117.544L293.908 88.4332L214.561 167.377L216.266 169.073Z" fill="#1C0F5F"/>
<path d="M195.07 148.03L293.908 49.7404L293.908 19.5751L179.956 132.947L195.07 148.03Z" fill="#1C0F5F"/>
<path d="M212.027 164.9L212.073 164.9L212.165 164.992L293.908 83.6649L293.908 83.6191L293.908 54.0039L197.236 150.185L212.027 164.9Z" fill="#1C0F5F"/>
<path d="M71.3032 -0.000357628L46.4209 -0.000359803L58.8621 12.3775L71.3032 -0.000357628Z" fill="#1C0F5F"/>
</g>
<rect y="175" width="294" height="4" fill="#FF8300"/>
<path d="M149.321 146.894C124.619 141.79 99.0858 141.599 74.1921 146.192L75.92 44.177L78.7357 43.6666C102.733 39.5196 127.243 39.9024 151.049 44.815L149.321 146.894Z" fill="#120540"/>
<path d="M149.143 146.827C174.037 142.167 199.57 142.422 224.272 147.529L226 45.4526L223.184 44.9419C199.379 40.3456 174.805 40.2818 150.871 44.8142L149.143 146.827Z" fill="#120540"/>
<path d="M144.125 143.527C120.687 138.383 96.487 138.065 72.9218 142.575L70 136.668L74.2557 41.0731L76.9235 40.565C99.6629 36.4998 122.91 37.008 145.459 41.9624L144.125 143.527Z" fill="#C7CFE0"/>
<path d="M144.125 143.528C169.469 139.018 195.511 139.335 220.792 144.544L222.125 43.0423C222.125 43.0423 217.171 37.1351 216.79 37.0716C192.844 32.6253 169.469 37.7068 145.459 42.026L144.125 143.528Z" fill="#C7CFE0"/>
<path d="M143.554 141.495C149.779 140.352 156.131 139.526 162.419 139.018C168.771 138.51 175.123 138.256 181.475 138.383C194.178 138.573 206.882 140.034 219.331 142.575H219.268L219.141 142.702L219.839 91.9512L220.602 41.2004L220.03 91.9512L219.395 142.702V142.893L219.204 142.829C206.755 140.288 194.115 138.827 181.411 138.573C168.771 138.383 156.067 139.336 143.554 141.495Z" fill="#554759"/>
<path d="M143.237 140.415C149.462 139.272 155.686 138.446 161.975 137.938C168.263 137.43 174.551 137.239 180.839 137.303C193.416 137.493 205.992 139.018 218.378 141.559H218.315L218.188 141.686L218.887 90.9349L219.649 40.1841L219.077 90.9349L218.442 141.686V141.876L218.251 141.813C205.929 139.272 193.352 137.748 180.776 137.494C168.263 137.303 155.686 138.256 143.237 140.415Z" fill="#554759"/>
<path d="M142.856 139.335C149.017 138.192 155.178 137.366 161.403 136.858C167.628 136.35 173.852 136.16 180.141 136.287C192.654 136.541 205.103 138.065 217.362 140.542H217.299L217.172 140.669L217.87 89.9185L218.633 39.1678L218.061 89.9185L217.426 140.669V140.86L217.235 140.796C205.04 138.256 192.59 136.731 180.077 136.414C167.691 136.223 155.178 137.176 142.856 139.335Z" fill="#554759"/>
<path d="M142.538 138.256C148.636 137.176 154.733 136.287 160.895 135.778C167.056 135.207 173.217 135.016 179.378 135.143C191.701 135.334 204.023 136.858 216.155 139.335H216.219L215.965 139.462L216.663 88.7117L217.425 37.9609L216.854 88.7117L216.219 139.462L215.965 139.589H216.028C203.96 137.112 191.637 135.524 179.315 135.334C167.056 135.08 154.733 136.096 142.538 138.256Z" fill="#554759"/>
<path d="M143.554 141.495L139.172 140.606L134.725 139.843L130.279 139.208L125.833 138.7C119.862 138.128 113.892 137.811 107.921 137.811C101.95 137.811 95.9795 138.065 90.0088 138.637L85.5626 139.081L81.1163 139.653L76.6701 140.352L72.2874 141.177L76.6701 140.288L81.1163 139.526L85.5626 138.891L90.0088 138.383C95.9795 137.811 101.95 137.493 107.921 137.493C113.892 137.493 119.862 137.811 125.833 138.446L130.279 138.954L134.725 139.589L139.172 140.415L143.554 141.495Z" fill="#554759"/>
<path d="M143.237 140.415L138.854 139.526L134.408 138.827L129.961 138.192L125.515 137.684C119.545 137.112 113.574 136.858 107.54 136.858C101.569 136.858 95.5347 137.112 89.5641 137.684L85.1178 138.192L80.6716 138.764L76.2253 139.462L71.7791 140.288L76.1618 139.399L80.608 138.637L85.0543 138.001L89.5005 137.493C95.4712 136.858 101.442 136.604 107.476 136.541C113.447 136.541 119.481 136.858 125.452 137.493L129.898 138.001L134.344 138.637L138.79 139.462L143.237 140.415Z" fill="#554759"/>
<path d="M138.409 138.446L133.963 137.747L129.517 137.112L125.071 136.604C119.1 136.032 113.066 135.778 107.095 135.842C101.124 135.842 95.0902 136.159 89.1195 136.731L84.6732 137.239L80.227 137.874L75.7807 138.573L71.3345 139.399L75.7807 138.51L80.227 137.747L84.6732 137.112L89.1195 136.604C95.0902 135.969 101.124 135.651 107.095 135.588C113.129 135.588 119.1 135.842 125.071 136.477L129.517 136.985L133.963 137.62L138.409 138.446Z" fill="#554759"/>
<path d="M142.538 138.256L138.092 137.366L133.645 136.668L129.199 136.032L124.689 135.524C118.719 134.953 112.685 134.699 106.65 134.762C100.616 134.762 94.6454 135.08 88.6112 135.651L84.1015 136.159L79.6552 136.731L75.2089 137.43L70.7627 138.256L75.2089 137.366L79.6552 136.604L84.1015 135.969L88.6112 135.461C94.5819 134.826 100.616 134.508 106.65 134.444C112.685 134.444 118.719 134.699 124.689 135.334L129.199 135.842L133.645 136.477L138.092 137.303L142.538 138.256Z" fill="#554759"/>
<path d="M163.244 113.738L162.673 154.643L159.306 150.324L155.876 154.516L156.384 113.674L163.244 113.738Z" fill="#FF8300"/>
<path d="M142.347 137.62C118.528 132.475 93.9462 132.158 70 136.668L71.3339 35.166L74.0651 34.7214C97.1857 30.6562 120.814 31.1644 143.744 36.1188L142.347 137.62Z" fill="#FAFCFC"/>
<path d="M142.347 137.62C166.293 133.111 190.874 133.428 214.694 138.573L216.027 37.0715L213.296 36.4998C190.303 31.863 166.674 31.736 143.617 36.1187L142.347 137.62Z" fill="#FAFCFC"/>
<path fill-rule="evenodd" clip-rule="evenodd" d="M143.198 36.1124L144.164 36.1251L142.831 137.552L144.588 143.388L143.663 143.667L141.863 137.688L143.198 36.1124Z" fill="#554759"/>
<g opacity="0.7">
<path fill-rule="evenodd" clip-rule="evenodd" d="M147.293 50.839C167.838 46.9469 188.957 47.0746 209.502 51.2218L209.508 51.223L211.922 51.7312L211.622 53.1546L209.214 52.6477C209.213 52.6475 209.212 52.6473 209.211 52.6471C188.852 48.5376 167.923 48.4114 147.564 52.2683L147.293 50.839Z" fill="#130019"/>
<path fill-rule="evenodd" clip-rule="evenodd" d="M147.42 45.567C167.965 41.6749 189.084 41.8025 209.629 45.9497L209.635 45.9509L212.049 46.4591L211.749 47.8826L209.341 47.3757C209.34 47.3755 209.339 47.3753 209.338 47.3751C188.979 43.2656 168.05 43.1393 147.691 46.9962L147.42 45.567Z" fill="#130019"/>
<path fill-rule="evenodd" clip-rule="evenodd" d="M147.483 40.3585C168.029 36.4664 189.148 36.5941 209.693 40.7413L209.699 40.7425L212.112 41.2507L211.813 42.6742L209.405 42.1672C209.404 42.167 209.403 42.1669 209.402 42.1667C189.042 38.0571 168.113 37.9309 147.754 41.7878L147.483 40.3585Z" fill="#130019"/>
<path fill-rule="evenodd" clip-rule="evenodd" d="M147.229 55.7298C167.775 51.8377 188.894 51.9654 209.439 56.1126L209.445 56.1138L211.858 56.622L211.559 58.0455L209.151 57.5385C209.15 57.5384 209.149 57.5382 209.148 57.538C188.788 53.4284 167.86 53.3022 147.5 57.1591L147.229 55.7298Z" fill="#130019"/>
<path fill-rule="evenodd" clip-rule="evenodd" d="M147.166 60.6207C167.711 56.7286 188.83 56.8562 209.375 61.0035L209.381 61.0047L211.795 61.5128L211.495 62.9363L209.087 62.4294C209.086 62.4292 209.085 62.429 209.084 62.4288C188.724 58.3193 167.796 58.1931 147.437 62.05L147.166 60.6207Z" fill="#130019"/>
<path fill-rule="evenodd" clip-rule="evenodd" d="M147.737 80.2478C168.283 76.3557 189.402 76.4834 209.947 80.6306L209.952 80.6318L212.366 81.14L212.066 82.5634L209.659 82.0565C209.658 82.0563 209.657 82.0561 209.656 82.0559C189.296 77.9464 168.367 77.8202 148.008 81.6771L147.737 80.2478Z" fill="#130019"/>
<path fill-rule="evenodd" clip-rule="evenodd" d="M147.42 84.8211C167.965 80.929 189.084 81.0566 209.629 85.2039L209.635 85.2051L212.049 85.7132L211.749 87.1367L209.341 86.6298C209.34 86.6296 209.339 86.6294 209.338 86.6292C188.979 82.5197 168.05 82.3934 147.691 86.2503L147.42 84.8211Z" fill="#130019"/>
<path fill-rule="evenodd" clip-rule="evenodd" d="M147.547 89.3308C155.651 87.7993 163.881 86.9064 172.045 86.5875L172.102 88.041C164.005 88.3573 155.847 89.2428 147.817 90.7602L147.547 89.3308Z" fill="#130019"/>
<path fill-rule="evenodd" clip-rule="evenodd" d="M147.42 93.9042C167.965 90.012 189.084 90.1397 209.629 94.2869L209.635 94.2881L212.049 94.7963L211.749 96.2198L209.341 95.7129C209.34 95.7127 209.339 95.7125 209.338 95.7123C188.979 91.6028 168.05 91.4765 147.691 95.3334L147.42 93.9042Z" fill="#130019"/>
<path fill-rule="evenodd" clip-rule="evenodd" d="M147.42 98.7314C167.965 94.8393 189.084 94.967 209.629 99.1142L209.635 99.1154L212.049 99.6236L211.749 101.047L209.341 100.54C209.34 100.54 209.339 100.54 209.338 100.54C188.979 96.43 168.05 96.3038 147.691 100.161L147.42 98.7314Z" fill="#130019"/>
<path fill-rule="evenodd" clip-rule="evenodd" d="M147.547 103.241C156.287 101.583 165.22 100.625 174.09 100.434L174.121 101.888C165.334 102.078 156.481 103.026 147.818 104.67L147.547 103.241Z" fill="#130019"/>
<path fill-rule="evenodd" clip-rule="evenodd" d="M147.481 108.26C162.413 105.388 177.663 104.686 192.72 106.09L192.585 107.538C177.663 106.147 162.551 106.843 147.756 109.688L147.481 108.26Z" fill="#130019"/>
<path fill-rule="evenodd" clip-rule="evenodd" d="M147.673 65.9564C155.714 64.4248 163.88 63.5318 172.045 63.2128L172.101 64.6664C164.005 64.9827 155.911 65.8682 147.945 67.3854L147.673 65.9564Z" fill="#130019"/>
</g>
<g opacity="0.7">
<path fill-rule="evenodd" clip-rule="evenodd" d="M146.467 117.914C167.013 114.022 188.132 114.149 208.677 118.297L208.682 118.298L211.096 118.806L210.796 120.229L208.389 119.723C208.388 119.722 208.387 119.722 208.386 119.722C188.026 115.612 167.097 115.486 146.738 119.343L146.467 117.914Z" fill="#130019"/>
<path fill-rule="evenodd" clip-rule="evenodd" d="M146.404 122.805C166.949 118.913 188.068 119.04 208.613 123.187L208.619 123.189L211.033 123.697L210.733 125.12L208.325 124.613C208.324 124.613 208.323 124.613 208.322 124.613C187.962 120.503 167.034 120.377 146.675 124.234L146.404 122.805Z" fill="#130019"/>
<path fill-rule="evenodd" clip-rule="evenodd" d="M146.34 127.695C166.885 123.803 188.004 123.931 208.549 128.078L208.555 128.079L210.969 128.588L210.669 130.011L208.261 129.504C208.26 129.504 208.259 129.504 208.258 129.504C187.898 125.394 166.97 125.268 146.611 129.125L146.34 127.695Z" fill="#130019"/>
</g>
<g opacity="0.7">
<path fill-rule="evenodd" clip-rule="evenodd" d="M75.073 116.961C95.6182 113.069 116.738 113.197 137.282 117.344L137.288 117.345L139.702 117.853L139.402 119.277L136.994 118.77C136.993 118.77 136.992 118.769 136.991 118.769C116.632 114.66 95.7031 114.533 75.3438 118.39L75.073 116.961Z" fill="#130019"/>
<path fill-rule="evenodd" clip-rule="evenodd" d="M75.136 111.943C95.6812 108.051 116.8 108.179 137.345 112.326L137.351 112.327L139.765 112.835L139.465 114.259L137.057 113.752C137.056 113.752 137.055 113.752 137.054 113.751C116.695 109.642 95.7661 109.516 75.4067 113.372L75.136 111.943Z" fill="#130019"/>
<path fill-rule="evenodd" clip-rule="evenodd" d="M75.1995 106.989C95.7447 103.097 116.864 103.224 137.409 107.372L137.415 107.373L139.828 107.881L139.529 109.304L137.121 108.797C137.12 108.797 137.119 108.797 137.118 108.797C116.758 104.687 95.8295 104.561 75.4702 108.418L75.1995 106.989Z" fill="#130019"/>
<path fill-rule="evenodd" clip-rule="evenodd" d="M76.0256 44.8048C96.5709 40.9127 117.69 41.0404 138.235 45.1876L138.241 45.1888L140.654 45.697L140.355 47.1205L137.947 46.6135C137.946 46.6134 137.945 46.6132 137.944 46.613C117.584 42.5034 96.6557 42.3772 76.2964 46.2341L76.0256 44.8048Z" fill="#130019"/>
<path fill-rule="evenodd" clip-rule="evenodd" d="M75.9619 54.9677C96.5071 51.0756 117.626 51.2033 138.171 55.3505L138.177 55.3517L140.591 55.8599L140.291 57.2833L137.883 56.7764C137.882 56.7762 137.881 56.776 137.88 56.7758C117.521 52.6663 96.592 52.5401 76.2327 56.397L75.9619 54.9677Z" fill="#130019"/>
<path fill-rule="evenodd" clip-rule="evenodd" d="M76.5334 59.795C97.0787 55.9029 118.198 56.0305 138.743 60.1777L138.749 60.1789L141.162 60.6871L140.863 62.1106L138.455 61.6037C138.454 61.6035 138.453 61.6033 138.452 61.6031C118.092 57.4936 97.1635 57.3673 76.8042 61.2242L76.5334 59.795Z" fill="#130019"/>
<path fill-rule="evenodd" clip-rule="evenodd" d="M76.1523 73.3243C96.6976 69.4322 117.817 69.5599 138.362 73.7071L138.368 73.7083L140.781 74.2165L140.482 75.6399L138.074 75.133C138.073 75.1328 138.072 75.1326 138.071 75.1324C117.711 71.0229 96.7824 70.8967 76.4231 74.7536L76.1523 73.3243Z" fill="#130019"/>
<path fill-rule="evenodd" clip-rule="evenodd" d="M76.6567 77.8348C86.8063 75.856 97.0796 74.9631 107.348 74.9631V76.4178C97.1637 76.4178 86.9843 77.3034 76.9351 79.2626L76.6567 77.8348Z" fill="#130019"/>
<path fill-rule="evenodd" clip-rule="evenodd" d="M76.4065 82.2804C96.9517 78.3883 118.071 78.5159 138.616 82.6632L138.622 82.6644L141.035 83.1725L140.736 84.596L138.328 84.0891C138.327 84.0889 138.326 84.0887 138.325 84.0885C117.965 79.979 97.0366 79.8528 76.6773 83.7097L76.4065 82.2804Z" fill="#130019"/>
<path fill-rule="evenodd" clip-rule="evenodd" d="M76.5305 86.7907C80.8069 85.9609 85.084 85.3226 89.4252 84.8757L89.5742 86.3227C85.2769 86.7651 81.0426 87.397 76.8076 88.2187L76.5305 86.7907Z" fill="#130019"/>
<path fill-rule="evenodd" clip-rule="evenodd" d="M76.0889 39.8504C96.6341 35.9583 117.753 36.086 138.298 40.2332L138.304 40.2344L140.718 40.7425L140.418 42.166L138.01 41.6591C138.009 41.6589 138.008 41.6587 138.007 41.6585C117.648 37.549 96.719 37.4228 76.3596 41.2797L76.0889 39.8504Z" fill="#130019"/>
<path fill-rule="evenodd" clip-rule="evenodd" d="M75.009 121.852C95.5543 117.96 116.674 118.088 137.218 122.235L137.224 122.236L139.638 122.744L139.338 124.168L136.93 123.661C136.929 123.661 136.928 123.66 136.927 123.66C116.568 119.551 95.6391 119.424 75.2798 123.281L75.009 121.852Z" fill="#130019"/>
<path fill-rule="evenodd" clip-rule="evenodd" d="M74.9456 126.743C95.4908 122.851 116.61 122.978 137.155 127.126L137.161 127.127L139.574 127.635L139.275 129.059L136.867 128.552C136.866 128.551 136.865 128.551 136.864 128.551C116.504 124.442 95.5756 124.315 75.2163 128.172L74.9456 126.743Z" fill="#130019"/>
</g>
<g opacity="0.05">
<path d="M150.159 35.039C148 35.3566 145.84 35.7377 143.681 36.1188L142.347 137.62C166.293 133.111 190.874 133.428 214.694 138.573L214.821 129.744C205.483 127.458 191.7 122.694 176.075 112.404C153.97 97.9217 150.54 54.6025 150.159 35.039Z" fill="#120540"/>
</g>
<g opacity="0.05">
<path d="M143.681 36.1188C141.267 35.6106 138.853 35.1025 136.44 34.7214C136.122 46.3452 133.581 92.3321 111.35 109.99C98.329 120.343 82.513 121.55 70.1906 120.28L70 136.668C93.9462 132.158 118.528 132.475 142.347 137.62L143.681 36.1188Z" fill="#120540"/>
</g>
</svg>
