<?xml version="1.0" encoding="UTF-8"?>
<svg width="116px" height="114px" viewBox="0 0 116 114" version="1.1" xmlns="http://www.w3.org/2000/svg" xmlns:xlink="http://www.w3.org/1999/xlink">
    <title>Artboard Copy</title>
    <g id="Artboard-Copy" stroke="none" stroke-width="1" fill="none" fill-rule="evenodd">
        <rect fill="#FF8300" x="0" y="0" width="116" height="114"></rect>
        <g id="i_belong_flag" transform="translate(-8, -17)">
            <rect id="Rectangle" fill="#FFFFFF" x="6" y="11" width="121" height="126"></rect>
            <path d="M46.3952,81.4681152 C46.4025,81.4095152 46.366,81.3252152 46.3222,81.2812152 C45.7486,80.7316152 45.6317,79.9768152 45.4125,79.2696152 C45.3541,79.0791152 45.2445,78.8958152 45.1166,78.7383152 C44.6454,78.1557152 44.1193,77.6097152 43.9951,76.8219152 C43.9841,76.7596152 43.9476,76.6827152 43.9001,76.6424152 C43.1366,76.0048152 42.8772,75.0558152 42.4023,74.2423152 C42.1904,73.8832152 42.0845,73.4911152 41.9055,73.1284152 C41.8178,72.9488152 41.6863,72.7803152 41.5365,72.6520152 C41.4525,72.5824152 41.2881,72.5898152 41.1639,72.5934152 C41.0068,72.5934152 40.9264,72.6960152 40.9082,72.8609152 C40.8789,73.1321152 40.8461,73.4032152 40.8168,73.6707152 C40.7072,74.4438152 40.9228,75.1584152 41.1602,75.8802152 C41.4781,76.8512152 41.774,77.8296152 42.0589,78.8116152 C42.1904,79.2696152 42.3804,79.7130152 42.3475,80.2076152 C42.3037,80.8928152 42.5484,81.4095152 43.2097,81.6806152 C44.1851,82.4391152 45.3175,82.9228152 46.4025,83.4908152 C46.4829,83.5311152 46.6509,83.4431152 46.7605,83.3808152 C46.8884,83.3039152 46.9213,83.1610152 46.8701,83.0144152 C46.6911,82.5051152 46.3404,82.0544152 46.3989,81.4681152 L46.3952,81.4681152 Z" id="Vector" fill="#FF8300" fill-rule="nonzero"></path>
            <path d="M131.686,104.992615 C132.223,103.354615 132.00106,101.749615 131.565,100.133615 C131.445,99.6866152 131.51,99.2065152 131.485,98.7412152 C131.39,96.9897152 131.291,95.2382152 131.193,93.4867152 C130.699,92.4607152 130.798,91.4458152 131.163,90.4051152 C131.269,90.1010152 131.204,89.6943152 131.068,89.3828152 C130.535,88.1370152 130.356,86.8985152 130.842,85.6050152 C130.962,85.2826152 131.025,84.8868152 130.926,84.5717152 C130.418,82.9631152 130.612,81.3142152 130.542,79.6873152 C130.44,77.3496152 130.341,75.0045152 130.411,72.6667152 C130.513,69.1601152 130.539,65.6571152 130.393,62.1505152 C130.349,61.0988152 130.418,60.0435152 130.455,58.9883152 C130.477,58.2884152 130.601,57.5812152 130.557,56.8850152 C130.506,56.0606152 130.418,55.2691152 130.864,54.4813152 C131.017,54.2101152 130.886,53.8034152 130.853,53.4626152 C130.798,52.8837152 130.601,52.2974152 130.67,51.7331152 C130.813,50.5569152 130.634,49.3954152 130.553,48.2302152 C130.473,47.0246152 131.182,45.9620152 131.182,44.7748152 C131.182,43.6059152 131.386,42.4371152 131.372,41.2682152 C131.357,40.0920152 131.295,38.9268152 131.759,37.7945152 C132.259,36.5743152 131.302,35.5264152 131.244,34.3722152 C131.226,34.0204152 131.244,33.6686152 131.247,33.3169152 C131.273,32.1480152 131.368,30.9828152 130.911,29.8395152 C130.791,29.5354152 130.831,29.1250152 130.955,28.8136152 C131.222,28.1503152 131.101,27.5641152 130.857,27.0071152 C130.889,26.4575152 130.871,25.9042152 130.805,25.3289152 C130.615,23.7093152 130.751,22.0641152 130.74,20.4262152 C130.736,19.7227152 130.846,18.9898152 130.663,18.3266152 C130.338,17.1541152 130.265,16.0328152 130.74,14.8823152 C130.871,14.5635152 130.93,14.1751152 130.868,13.8416152 C130.455,11.6248152 130.992,9.4042952 130.769,7.1874452 C130.732,6.8393452 130.663,6.4949152 130.597,6.1504752 C130.52,5.7657352 130.188,5.5202352 129.841,5.3883252 C129.359,5.2087752 128.822,5.0951852 128.299,5.0548852 C124.325,4.7397652 120.343,4.4576152 116.368,4.1498252 C115.575,4.0875352 114.783,3.9885952 113.994,3.8860052 C112.01,3.6368352 110.044,3.5232452 108.057,3.9629552 C107.169,4.1608152 106.209,4.1534852 105.281,4.1718052 C104.525,4.1864652 103.768,4.1974552 103.012,4.2121152 C101.697,4.0179152 100.382,3.8750052 99.0228,3.9776052 C97.7077,4.0765452 96.3524,4.2597552 95.0445,3.9592852 C92.6955,3.4169852 90.3137,3.4389652 87.9135,3.4059952 C84.7207,3.3583552 81.5314,3.4866052 78.3349,3.3070552 C75.5549,3.1494952 72.7492,3.3180552 69.9582,3.3986652 C68.7673,3.4353052 67.5763,3.7430952 66.3964,3.7101152 C65.0776,3.6734752 63.7661,3.3876752 62.4509,3.2117852 C60.6097,2.9662852 58.7722,2.7097952 56.9091,2.5962052 C55.9885,2.5412352 55.0825,2.2884052 54.1619,2.1858152 C51.7873,1.9219852 49.4128,1.6141952 47.0273,1.4822852 C45.9934,1.4236552 44.9303,1.7571052 43.8782,1.8963452 C43.4837,1.9476352 43.0818,1.9842852 42.6836,1.9696252 C41.0909,1.9036652 39.4798,1.9256552 37.9163,1.7021352 C35.9362,1.4163252 33.9526,1.3173952 31.9616,1.1928152 C31.4319,1.1598352 30.8583,1.2074752 30.3761,1.0499052 C28.6957,0.503943201 26.9641,0.632190201 25.2361,0.639519201 C23.9027,0.646847201 22.5656,0.723796201 21.2432,0.639519201 C19.128,0.503943201 16.9726,0.709139201 14.9086,0.0679036011 C14.4045,-0.0896570989 13.8492,0.0459184011 13.3706,0.280427201 C12.7897,0.562571201 12.2235,0.877692201 11.639,1.1525052 C9.85625,1.9989352 9.48728,2.0905452 7.44516,1.9439752 C6.52091,1.8780152 5.593,1.7461052 4.69798,1.5372452 C3.52531,1.2624352 2.35264,1.1561752 1.15075,1.2294552 C0.895027,1.2441152 0.321479,1.6581652 0.259375,1.8706952 C0.197271,2.0978752 0.0767166,2.3213852 0.0730634,2.5485652 C0.0292254,4.6664752 0.00365317,6.7733952 0,8.8803052 C0,9.2247452 0.0328785,9.5984952 0.179005,9.9136152 C0.902333,11.4855152 0.807351,13.1344152 0.836576,14.7687152 C0.862148,16.2893152 0.807351,17.8100152 0.789085,19.3306152 C0.774472,20.6204152 0.803697,21.9065152 1.17632,23.1707152 C1.27496,23.5078152 1.35167,23.8596152 1.36629,24.2077152 C1.47588,26.8972152 1.63662,29.5904152 1.65123,32.2799152 C1.66219,34.6250152 1.60374,36.9627152 2.1298,39.2785152 C2.28688,39.9711152 2.27958,40.6819152 1.98367,41.3598152 C1.68776,42.0340152 1.5526,42.7485152 1.75352,43.4301152 C2.06404,44.4780152 1.99098,45.4893152 1.81197,46.5446152 C1.6147,47.7025152 1.67315,48.8751152 1.99828,50.0329152 C2.44762,51.6489152 2.51703,53.2721152 1.92157,54.8880152 C1.80467,55.2031152 1.77909,55.6025152 1.89234,55.9140152 C2.36725,57.1891152 2.25766,58.4533152 1.96541,59.7321152 C1.72795,60.7801152 1.70968,61.8207152 2.11884,62.8540152 C2.56453,63.9789152 2.62298,65.1844152 2.51703,66.3313152 C2.27592,68.9036152 2.60106,71.4832152 2.33438,74.0518152 C2.28688,74.5135152 2.30515,74.9862152 2.32707,75.4515152 C2.4257,77.3239152 2.49512,79.1853152 2.37091,81.0651152 C2.2467,82.9302152 2.49146,84.8099152 2.40744,86.6786152 C2.33803,88.2139152 2.42936,89.7199152 2.75449,91.2149152 C2.90792,91.9184152 3.01387,92.6036152 2.78372,93.2925152 C2.39648,94.4467152 2.38187,95.5973152 2.71431,96.7625152 C3.07597,98.0303152 3.12711,99.3055152 2.77641,100.591615 C2.65585,101.042615 2.53165,101.533615 2.60471,101.976615 C2.89696,103.728615 2.78372,105.472615 2.60471,107.220615 C2.55722,107.681615 2.5353,108.180615 2.68143,108.616615 C2.9956,109.539615 2.89696,110.466615 2.95907,111.397615 C3.13807,114.083615 3.07597,116.787615 3.66778,119.447615 C3.81756,120.121615 3.8614,120.825615 3.56549,121.525615 C3.13807,122.540615 3.23671,123.602615 3.4011,124.654615 C4.02945,128.651615 4.05137,130.436615 3.42667,134.430615 C3.26228,135.489615 3.21479,136.544615 3.55453,137.563615 C3.8614,138.479615 3.92716,139.399615 3.93446,140.340615 C3.95638,143.030615 4.02945,145.719615 3.42667,148.383615 C3.29881,148.951615 3.35361,149.548615 3.3463,150.135615 C3.339,150.721615 3.43398,151.315615 3.3463,151.890615 C3.23671,152.623615 2.9956,156.030615 3.33169,159.233615 C3.63125,162.098615 4.50436,164.824615 4.50436,164.824615 C4.50436,164.824615 4.89525,167.789615 5.09617,167.888615 C5.39573,168.034615 6.14463,168.049615 6.38574,167.902615 C7.06523,167.485615 7.97852,167.140615 8.42056,166.649615 C8.86624,166.155615 9.81972,165.821615 10.7805,165.510615 C11.2591,165.356615 11.8144,165.242615 12.3331,165.110615 C13.082,164.920615 13.6482,164.671615 13.9953,164.326615 C14.8538,163.472615 16.0118,162.692615 17.7106,162.087615 C18.7773,161.710615 19.4714,161.256615 19.8952,160.710615 C20.1984,160.321615 20.6185,159.962615 21.2395,159.632615 C22.0834,159.185615 23.0332,158.790615 24.2315,158.529615 C26.9567,157.932615 29.3532,157.166615 31.3953,156.206615 C31.6365,156.093615 31.9068,155.986615 32.1917,155.891615 C32.758,155.701615 33.295,155.473615 33.9343,155.338615 C35.2494,155.059615 36.3454,154.649615 37.5948,154.338615 C39.4287,153.883615 40.8096,153.235615 41.9749,152.531615 C43.586,151.560615 45.3943,150.681615 47.5825,149.940615 C48.5324,149.618615 49.3653,149.252615 50.1873,148.874615 C52.1563,147.976615 53.782,146.954615 55.9227,146.115615 C56.5328,145.877615 57.0004,145.562615 57.4278,145.258615 C58.1219,144.759615 59.0462,144.375615 60.2298,144.085615 C60.8582,143.931615 61.4207,143.722615 62.0674,143.590615 C63.1852,143.360615 64.0693,143.019615 64.9461,142.663615 C66.4877,142.040615 68.0293,141.418615 69.571,140.795615 C70.3564,141.066615 71.1491,141.344615 71.6752,141.718615 C72.7931,142.520615 74.3493,143.154615 75.8763,143.818615 C77.9039,144.693615 80.0592,145.518615 81.9918,146.438615 C83.6722,147.236615 85.6084,147.943615 87.4715,148.673615 C88.2679,148.984615 89.2616,149.211615 90.0032,149.541615 C90.8288,149.908615 91.4644,150.351615 92.1841,150.761615 C93.1924,151.333615 94.1897,151.912615 95.3112,152.447615 C95.8665,152.714615 96.2647,153.037615 96.7834,153.315615 C98.1241,154.037615 99.432,154.774615 100.875,155.459615 C101.5,155.756615 102.431,155.942615 103.213,156.184615 C103.505,156.276615 103.794,156.371615 104.039,156.485615 C105.018,156.935615 106.077,157.364615 106.921,157.855615 C107.991,158.478615 109.201,159.046615 110.395,159.621615 C110.713,159.775615 111.118,159.914615 111.312,160.094615 C111.999,160.717615 113.208,161.146615 114.333,161.607615 C115.199,161.966615 116.12,162.304615 116.912,162.688615 C118.18,163.300615 119.725,163.820615 120.584,164.575615 C120.792,164.759615 121.249,164.868615 121.735,164.927615 C122.319,164.997615 122.915,165.055615 123.495,165.125615 C125.271,165.348615 125.574,165.418615 126.787,166.015615 C127.335,166.286615 127.839,166.576615 128.263,166.884615 C128.818,167.283615 129.498,167.635615 130.331,167.935615 C130.363,167.946615 130.422,167.957615 130.488,167.968615 C130.488,167.968615 130.656,166.034615 130.908,165.279615 C131.16,164.524615 131.127,162.674615 131.16,162.325615 C131.383,160.112615 130.846,157.888615 131.258,155.671615 C131.321,155.338615 131.262,154.953615 131.131,154.631615 C130.656,153.480615 130.729,152.359615 131.054,151.186615 C131.24,150.519615 131.127,149.787615 131.131,149.087615 C131.142,147.452615 131.01,145.804615 131.196,144.184615 C131.335,142.986615 131.269,141.861615 130.944,140.714615 C130.82,140.274615 130.696,139.761615 130.827,139.344615 C131.448,137.380615 131.145,135.379615 131.167,133.397615 C131.178,132.253615 130.641,131.117615 131.222,129.960615 C131.361,129.681615 131.258,129.256615 131.127,128.941615 C130.656,127.801615 130.597,126.669615 130.944,125.493615 C131.109,124.936615 131.12,124.335615 131.131,123.752615 C131.152,122.701615 131.003,121.653615 131.156,120.598615 C131.222,120.147615 131.167,119.649615 131.017,119.212615 C130.78,118.509615 130.736,117.846615 131.061,117.161615 C131.321,116.611615 131.434,116.021615 131.321,115.438615 C130.959,113.555615 131.288,111.694615 131.649,109.858615 C131.905,108.564615 131.985,107.311615 131.711,106.025615 C131.638,105.688615 131.569,105.307615 131.675,104.992615 L131.686,104.992615 Z M60.1787,106.941615 C60.3248,107.571615 60.2371,108.176615 60.0545,108.766615 C59.6453,110.078615 59.7038,111.477615 59.291,112.793615 C59.1923,113.108615 59.2581,113.474615 59.2325,113.815615 C59.1777,114.636615 59.174,115.464615 59.0389,116.270615 C58.9147,117.021615 58.8124,117.747615 59.0133,118.502615 C59.0827,118.754615 59.0352,119.048615 58.9987,119.315615 C58.7503,121.089615 58.7503,122.866615 58.8124,124.650615 C58.827,125.057615 58.8343,125.493615 58.9841,125.859615 C59.1777,126.339615 59.196,126.775615 59.0316,127.248615 C58.8526,127.765615 58.6991,128.292615 58.5201,128.809615 C58.3594,129.267615 58.1037,129.666615 57.7712,130.022615 C57.5922,130.216615 57.2561,130.337615 57.0369,130.176615 C56.5438,129.809615 56.0177,129.890615 55.4697,129.934615 C55.1994,129.956615 54.9546,129.791615 54.8122,129.524615 C54.582,129.091615 54.4615,128.637615 54.4505,128.146615 C54.4286,127.186615 54.3774,126.229615 54.3738,125.269615 C54.3738,124.584615 54.3921,123.899615 54.2204,123.225615 C54.1729,123.031615 54.1765,122.811615 54.2094,122.613615 C54.5272,120.576615 54.414,118.516615 54.5163,116.468615 C54.5637,115.512615 54.5455,114.559615 54.7683,113.610615 C54.8925,113.082615 54.8304,112.514615 54.94,111.983615 C55.0496,111.444615 55.1848,110.917615 55.2213,110.367615 C55.2396,110.096615 55.2542,109.814615 55.3346,109.557615 C55.5465,108.898615 55.7255,108.235615 55.6451,107.542615 C55.5647,106.864615 55.7182,106.172615 55.4442,105.508615 C55.3455,105.267615 55.3528,104.970615 55.3601,104.699615 C55.393,103.325615 55.2542,101.969615 55.0423,100.617615 C55.0204,100.485615 55.0094,100.335615 55.0496,100.210615 C55.214,99.7049152 55.0277,99.2762152 54.8049,98.8401152 C54.4943,98.2319152 54.2094,97.6126152 53.8916,97.0080152 C53.8002,96.8321152 53.6322,96.6966152 53.5043,96.5390152 C53.2084,96.1653152 52.8431,95.8208152 52.6385,95.3994152 C52.138,94.3661152 51.2467,93.7286152 50.4028,93.0360152 C49.4274,92.6293152 48.7443,91.8488152 47.9953,91.1526152 C47.1405,90.3575152 46.2236,89.6466152 45.1678,89.1410152 C44.123,88.6426152 43.1549,87.9941152 42.0918,87.5214152 C41.7229,87.3565152 41.3831,87.1110152 41.047,86.8765152 C40.3164,86.3672152 39.5931,85.8542152 38.877,85.3265152 C37.613,84.3922152 36.3162,83.5201152 34.9353,82.7579152 C33.6713,82.0581152 32.6155,81.0614152 31.8118,79.8669152 C31.0118,78.6833152 30.1715,77.5035152 29.788,76.0854152 C29.6089,75.4259152 29.0317,74.9312152 28.9879,74.2094152 C28.6153,73.5205152 28.5166,72.7693152 28.5861,72.0145152 C28.6518,71.3036152 28.4765,70.6881152 28.228,70.0358152 C27.9833,69.4019152 27.8627,68.7204152 27.5741,68.0938152 C27.4901,67.9106152 27.417,67.7017152 27.4207,67.5039152 C27.4426,66.3460152 26.8873,65.3933152 26.3503,64.4406152 C26.1165,64.0265152 25.8425,63.6235152 25.543,63.2534152 C25.0242,62.6085152 24.3374,62.3923152 23.5264,62.5755152 C23.289,62.6305152 23.0552,62.9639152 23.1173,63.1838152 C23.2305,63.5795152 23.3365,63.9752152 23.457,64.3673152 C23.5374,64.6275152 23.636,64.8803152 23.8515,65.0708152 C24.3301,65.4959152 24.553,66.0492152 24.7027,66.6684152 C25.0279,67.9985152 25.4188,69.3140152 25.9412,70.5781152 C26.1311,71.0362152 26.2444,71.4942152 26.1896,71.9742152 C26.1238,72.5421152 26.2736,73.0405152 26.4928,73.5608152 C26.9714,74.6930152 27.4097,75.8436152 27.8189,77.0051152 C27.9541,77.3826152 27.9614,77.8113152 27.9942,78.2217152 C28.0344,78.7053152 28.1075,79.1927152 28.3523,79.6067152 C28.8126,80.3872152 28.8893,81.3033152 29.2838,82.1021152 C29.313,82.1607152 29.3459,82.2340152 29.3386,82.2962152 C29.2436,83.0401152 29.2692,83.8059152 28.9952,84.5168152 C28.7979,85.0297152 28.5276,85.5061152 28.1586,85.9201152 C27.8043,86.3195152 27.3769,86.4368152 26.8691,86.2426152 C26.4855,86.0997152 26.1056,85.9421152 25.7183,85.8139152 C25.2324,85.6527152 24.8708,85.3339152 24.6808,84.8832152 C24.2534,83.8755152 23.8625,82.8532152 23.4862,81.8272152 C23.3949,81.5781152 23.4168,81.2886152 23.373,81.0211152 C23.3401,80.8196152 23.3365,80.5924152 23.2378,80.4275152 C22.7775,79.6544152 22.6716,78.7420152 22.2442,77.9542152 C22.0834,77.6574152 21.9811,77.3203152 21.8971,76.9941152 C21.7108,76.2686152 21.6158,75.5285152 21.3784,74.8103152 C21.1665,74.1690152 21.1446,73.4655152 20.9034,72.8170152 C20.8815,72.7547152 20.8706,72.6851152 20.8559,72.6154152 C20.7464,72.0805152 20.9765,71.5052152 20.7171,70.9922152 C20.4687,70.5048152 20.0851,70.0798152 19.8988,69.5778152 C19.5664,68.6801152 19.2412,67.7823152 18.7335,66.9652152 C18.664,66.8553152 18.5508,66.7674152 18.4485,66.6831152 C18.401,66.6428152 18.3316,66.6208152 18.2695,66.6025152 C18.0211,66.5219152 17.6667,66.7820152 17.7142,67.0165152 C17.7836,67.3500152 17.8238,67.6981152 17.959,68.0022152 C18.5545,69.3286152 18.8321,70.7320152 19.044,72.1574152 C19.1024,72.5605152 19.1682,72.9745152 19.2924,73.3593152 C19.8294,74.9972152 20.1253,76.6754152 20.2313,78.3902152 C20.2422,78.5954152 20.2422,78.8079152 20.3007,79.0021152 C20.6769,80.3176152 20.9254,81.6623152 21.1701,83.0071152 C21.2724,83.5604152 21.5902,84.0148152 21.8788,84.4801152 C22.3099,85.1800152 22.7702,85.8579152 23.194,86.5577152 C23.3328,86.7886152 23.4095,87.0560152 23.5045,87.3125152 C23.5776,87.5067152 23.6433,87.6900152 23.8296,87.8145152 C24.3666,88.1810152 24.6662,88.7306152 24.8306,89.3242152 C25.0571,90.1303152 25.4845,90.8302152 25.8571,91.5557152 C26.2334,92.2812152 26.7047,92.9481152 27.3257,93.5124152 C28.2865,94.3845152 29.0391,95.4654152 30.051,96.2862152 C30.6501,97.1546152 31.5269,97.6822152 32.4182,98.1879152 C32.7762,98.3894152 33.1379,98.5800152 33.4923,98.7888152 C33.6676,98.8914152 33.8576,98.9940152 33.9891,99.1442152 C34.5261,99.7635152 35.0449,100.400615 35.5709,101.031615 C35.6148,101.082615 35.6586,101.148615 35.6659,101.210615 C35.7865,102.024615 36.3819,102.537615 36.897,103.061615 C37.7007,103.881615 38.1391,104.849615 38.3364,105.948615 C38.4569,106.622615 38.5008,107.311615 38.6359,107.982615 C38.8222,108.931615 38.9318,109.869615 38.7273,110.829615 C38.6578,111.162615 38.6725,111.510615 38.6578,111.679615 C38.6578,112.122615 38.6578,112.397615 38.6578,112.672615 C38.6505,113.496615 38.6469,114.317615 38.4569,115.127615 C38.3802,115.457615 38.3473,115.805615 38.3291,116.146615 C38.2779,117.186615 38.0003,118.183615 37.6459,119.139615 C37.3317,119.978615 37.1966,120.861615 36.8751,121.693615 C36.802,121.884615 36.7144,122.096615 36.7399,122.287615 C36.8568,123.159615 36.4258,123.881615 36.1481,124.646615 C36.0093,125.031615 35.8887,125.427615 35.7499,125.812615 C35.5819,126.277615 35.275,126.640615 34.8585,126.904615 C34.7453,126.977615 34.6138,127.076615 34.4969,127.072615 C33.7516,127.050615 32.9991,127.094615 32.2685,126.878615 C32.02,126.805615 31.7826,126.497615 31.8155,126.270615 C31.8447,126.068615 31.8593,125.859615 31.9104,125.661615 C32.1808,124.603615 32.5023,123.555615 32.5826,122.452615 C32.6009,122.184615 32.7068,121.920615 32.7872,121.660615 C32.8457,121.462615 32.9626,121.275615 32.9845,121.078615 C33.116,119.912615 33.485,118.806615 33.7882,117.681615 C34.0768,116.618615 34.2594,115.548615 34.2448,114.442615 C34.2375,113.826615 34.3252,113.211615 34.3398,112.595615 C34.3763,110.865615 34.1389,109.180615 33.4886,107.564615 C33.39,107.315615 33.2731,107.062615 33.1123,106.849615 C32.4986,106.025615 31.8812,105.204615 31.3771,104.310615 C31.1688,103.944615 30.862,103.665615 30.5222,103.438615 C29.8427,102.980615 29.1633,102.507615 28.4363,102.141615 C27.87,101.855615 27.4134,101.478615 26.9823,101.031615 C26.2699,100.294615 25.543,99.5766152 24.805,98.8658152 C24.5128,98.5836152 24.1621,98.3601152 23.8625,98.0780152 C23.6652,97.8948152 23.4534,97.6859152 23.362,97.4477152 C23.1794,96.9860152 22.9419,96.6086152 22.5072,96.3411152 C22.2149,96.1616152 22.0104,95.8721152 21.9154,95.5277152 C21.6743,94.6666152 21.298,93.8605152 20.8596,93.0837152 C20.8267,93.0250152 20.8085,92.9554152 20.7683,92.9005152 C20.3007,92.2262152 19.7673,91.5923152 19.3801,90.8741152 C19.0221,90.2109152 18.6458,89.5660152 18.2111,88.9541152 C18.1307,88.8442152 18.054,88.7269152 17.9517,88.6390152 C17.1809,87.9758152 16.9288,87.0927152 16.7279,86.1253152 C16.5379,85.1946152 16.2858,84.2676152 16.0374,83.3442152 C15.8255,82.5564152 15.4931,81.7943152 15.5771,80.9368152 C15.6027,80.6840152 15.4346,80.4165152 15.3616,80.1527152 C15.3068,79.9548152 15.2008,79.7570152 15.2081,79.5628152 C15.2483,78.0971152 14.7807,76.7303152 14.4008,75.3489152 C14.2912,74.9495152 14.2145,74.5501152 14.2875,74.1324152 C14.3752,73.6304152 14.0026,73.2090152 14.0063,72.7364152 C14.0099,71.8753152 13.6665,71.1388152 13.3195,70.3949152 C13.1733,70.0835152 13.0236,69.7757152 12.8774,69.4679152 C12.5559,68.7900152 12.1395,68.1378152 11.9386,67.4269152 C11.7559,66.7820152 11.8034,66.0675152 11.7522,65.3860152 C11.7267,65.0379152 11.6061,64.7227152 11.4746,64.4040152 C10.9814,63.1911152 10.6746,61.9306152 10.565,60.6262152 C10.5138,59.9996152 10.3312,59.4280152 10.0681,58.8600152 C9.66629,57.9916152 9.30462,57.1012152 8.96853,56.2071152 C8.70916,55.5183152 8.77857,54.8147152 9.28271,54.2761152 C9.9074,53.6055152 10.3421,52.8580152 10.6052,51.9896152 C10.733,51.5682152 11.0728,51.3227152 11.4454,51.1359152 C12.2272,50.7438152 13.0418,50.7621152 13.8382,51.0479152 C14.4154,51.2568152 14.9926,51.4950152 15.5077,51.8211152 C17.1261,52.8507152 18.6312,54.0196152 19.8696,55.5109152 C20.1399,55.8370152 20.2568,56.2291152 20.476,56.5736152 C20.8377,57.1525152 21.1555,57.7571152 21.4953,58.3507152 C21.561,58.4679152 21.9154,58.5522152 22.0578,58.4826152 C22.6752,58.1858152 23.278,57.8670152 23.826,57.4530152 C24.0561,57.2807152 24.3265,57.2551152 24.6041,57.2478152 C25.5795,57.2221152 26.4964,57.5152152 27.3915,57.8304152 C28.0308,58.0539152 28.6226,58.4203152 29.2254,58.7428152 C29.7185,59.0066152 30.1277,59.4133152 30.3652,59.8970152 C30.7597,60.6884152 31.3186,61.4030152 31.5378,62.2824152 C31.5853,62.4802152 31.6145,62.7257152 31.746,62.8540152 C32.3963,63.4916152 32.3488,64.3307152 32.5169,65.1331152 C32.6813,65.9283152 32.7836,66.7380152 33.0247,67.5295152 C33.3206,68.5042152 33.4338,69.5338152 33.642,70.5378152 C33.9818,72.1574152 34.5407,73.6964152 35.4979,75.0594152 C35.5563,75.1437152 35.7572,75.2024152 35.8486,75.1657152 C35.9435,75.1254152 36.0203,74.9642152 36.0422,74.8433152 C36.0787,74.6417152 36.0751,74.4329152 36.0604,74.2277152 C36.0495,74.0225152 35.9801,73.8209152 35.9837,73.6158152 C35.991,73.1394152 35.9691,72.6484152 36.0641,72.1867152 C36.2029,71.5235152 36.4075,70.8676152 36.6376,70.2264152 C36.7509,69.9112152 36.9883,69.6474152 37.16,69.3543152 C37.4012,68.9439152 37.6898,68.5482152 37.8615,68.1085152 C38.0258,67.6944152 38.3181,67.4452152 38.6359,67.1851152 C39.0232,66.8663152 39.4579,66.7014152 39.9547,66.6941152 C40.6379,66.6831152 41.321,66.6684152 42.0042,66.6684152 C42.4243,66.6684152 42.7932,66.8297152 43.1622,67.0312152 C44.3495,67.6797152 45.1203,68.7094152 45.7596,69.8526152 C46.0263,70.3290152 46.2893,70.8273152 46.4354,71.3476152 C46.5889,71.8972152 46.7679,72.3663152 47.2538,72.7144152 C47.462,72.8646152 47.6118,73.1321152 47.725,73.3776152 C48.2766,74.5575152 49.0438,75.6127152 49.6575,76.7596152 C50.0448,77.4815152 50.4868,78.1740152 50.8448,78.9105152 C51.2028,79.6470152 51.4841,80.4202152 51.802,81.1750152 C51.8275,81.2373152 51.8494,81.3032152 51.875,81.3655152 C52.2403,82.2486152 52.3244,83.2160152 52.7993,84.0807152 C53.2559,84.9162152 53.5336,85.8469152 53.9208,86.7226152 C54.0669,87.0487152 54.0925,87.3785152 54.129,87.7156152 C54.1619,88.0564152 54.224,88.3935152 54.2605,88.7306152 C54.2898,89.0201152 54.4067,89.2876152 54.6295,89.4378152 C55.2615,89.8702152 55.656,90.5187152 56.1565,91.0647152 C56.6168,91.5667152 56.9785,92.1530152 57.395,92.6916152 C57.6872,93.0690152 58.0306,93.4134152 58.2863,93.8128152 C58.7686,94.5603152 59.1083,95.3884152 59.4334,96.2166152 C59.5796,96.5866152 59.627,97.0227152 59.6161,97.4257152 C59.5869,98.4041152 59.7914,99.3348152 60.1312,100.232615 C60.3321,100.763615 60.3979,101.295615 60.3248,101.844615 C60.186,102.870615 60.2846,103.892615 60.3723,104.915615 C60.4088,105.336615 60.3577,105.721615 60.2298,106.120615 C60.1494,106.369615 60.1202,106.670615 60.1787,106.923615 L60.1787,106.941615 Z M71.7994,79.4382152 C71.3903,79.6690152 71.0578,80.0391152 70.6888,80.3432152 C70.371,80.6034152 70.0678,80.8929152 69.7208,81.1017152 C69.2422,81.3875152 68.7307,81.6147152 68.2449,81.0724152 C68.1609,80.9771152 68.0184,80.9038152 67.8942,80.8855152 C67.6932,80.8526152 67.485,80.8782152 67.2804,80.8635152 C66.0627,80.7756152 64.9607,80.3286152 63.9743,79.5224152 C63.8136,79.3942152 63.6382,79.2806152 63.4921,79.1377152 C62.9551,78.6101152 62.4509,78.0494152 61.8957,77.5474152 C61.3915,77.0931152 60.7449,76.8146152 60.2846,76.2870152 C60.1093,76.0854152 59.8901,75.8876152 59.649,75.7740152 C58.7759,75.3636152 58.0014,74.8249152 57.2781,74.1874152 C57.026,73.9675152 56.6936,73.8356152 56.3867,73.6854152 C55.8241,73.4106152 55.3492,73.0112152 54.9218,72.5751152 C54.1582,71.7946152 53.3472,71.0728152 52.4961,70.3949152 C52.1234,70.0981152 51.7216,69.8050152 51.4439,69.4276152 C51.1553,69.0318152 50.7791,68.7534152 50.4503,68.4126152 C50.0229,67.9729152 49.6393,67.4892152 49.2447,67.0202152 C49.1132,66.8626152 48.9671,66.7087152 48.8831,66.5255152 C48.6529,66.0162152 48.3351,65.5618152 47.9259,65.2064152 C47.2574,64.6238152 46.8008,63.8177152 46.0117,63.3633152 C45.4564,63.0445152 45.0801,62.5682152 44.7623,62.0332152 C44.5906,61.7401152 44.3824,61.4616152 44.2362,61.1575152 C43.8527,60.3367152 43.2681,59.6881152 42.6325,59.0542152 C41.763,58.1895152 40.8278,57.3723152 40.2068,56.2877152 C39.6369,55.7528152 39.5127,54.9613152 39.078,54.3457152 C38.6834,53.7888152 38.2122,53.2868152 37.9089,52.6638152 C37.2843,51.3704152 36.7217,50.0513152 36.2869,48.6845152 C36.1408,48.2228152 35.9034,47.8271152 35.6184,47.4314152 C34.9024,46.4384152 34.1681,45.4417152 33.8868,44.1995152 C33.8137,43.8771152 33.6128,43.5656152 33.4082,43.2945152 C32.7214,42.3748152 32.5571,41.2902152 32.4146,40.2056152 C32.3415,39.6633152 32.3598,39.1136152 32.3232,38.5640152 C32.305,38.2928152 32.2648,38.0217152 32.21,37.7542152 C32.1296,37.3548152 31.9908,36.9591152 31.9397,36.5560152 C31.8629,35.9441152 31.8447,35.3285152 31.8008,34.7129152 C31.6803,33.1776152 32.1223,31.7229152 32.4036,30.2426152 C32.4292,30.1107152 32.4657,29.9678152 32.5388,29.8579152 C33.485,28.3629152 34.1023,26.6517152 35.5125,25.4681152 C35.9801,25.0761152 36.3783,24.5887152 36.7436,24.0941152 C37.1199,23.5847152 37.5363,23.2037152 38.1501,22.9728152 C39.0414,22.6357152 39.889,22.1997152 40.605,21.5255152 C40.9995,21.1554152 41.4964,20.8915152 41.953,20.5947152 C42.1211,20.4848152 42.3074,20.3676152 42.501,20.3346152 C43.4179,20.1770152 44.1376,19.6714152 44.8134,19.0778152 C45.0217,18.8946152 45.2518,18.7297152 45.5331,18.7113152 C46.7898,18.6344152 47.915,18.1177152 49.0438,17.6451152 C49.7087,17.3666152 50.3589,17.3373152 51.0457,17.4655152 C53.2048,17.8686152 55.2834,18.5098152 57.2634,19.4772152 C58.0598,19.8656152 58.9147,20.1221152 59.6928,20.5654152 C60.4161,20.9795152 61.1102,21.3972152 61.4573,22.2070152 C62.1404,23.0608152 62.8309,23.9145152 63.525,24.7573152 C64.1825,25.5561152 64.5369,26.5234152 65.1799,27.3186152 C65.3041,27.4725152 65.3223,27.7143152 65.4429,27.8719152 C65.9215,28.4874152 66.1443,29.1946152 66.232,29.9568152 C66.2649,30.2316152 66.3562,30.4844152 66.5206,30.7116152 C66.6156,30.8399152 66.9736,30.8838152 67.0649,30.7556152 C67.2987,30.4185152 67.5508,30.0924152 67.7553,29.7369152 C68.2997,28.7879152 68.8184,27.8279152 69.5965,27.0401152 C70.1153,26.0507152 70.9446,25.3289152 71.7227,24.5594152 C72.5008,23.7899152 73.2607,23.0168152 74.152,22.3646152 C75.3686,21.4705152 76.6618,20.7157152 77.944,19.9352152 C78.3568,19.6824152 78.8135,19.5395152 79.2848,19.4405152 C79.6866,19.3562152 80.0884,19.2537152 80.4939,19.2097152 C81.1844,19.1327152 81.8164,18.9092152 82.452,18.6381152 C83.1461,18.3449152 83.8622,18.1287152 84.6403,18.1947152 C84.9033,18.2167152 85.1883,18.1581152 85.444,18.0774152 C85.8495,17.9492152 86.244,17.9455152 86.6569,18.0042152 C86.9235,18.0445152 87.2121,18.0848152 87.4678,18.0225152 C88.0231,17.8832152 88.5382,17.9822152 89.0826,18.0811152 C90.1712,18.2826152 91.1868,18.6161152 92.1256,19.2280152 C92.922,19.7483152 93.8463,20.0781152 94.5002,20.8146152 C95.545,21.4009152 96.1916,22.3939152 96.9624,23.2513152 C97.3278,23.6580152 97.631,24.1087152 97.7881,24.6547152 C97.9415,25.1933152 98.3068,25.6184152 98.705,25.9994152 C99.0082,26.2926152 99.1726,26.6517152 99.3553,27.0254152 C99.8083,27.9488152 100.163,28.9088152 100.495,29.8798152 C100.718,30.5247152 100.959,31.1696152 100.952,31.8695152 C100.952,32.0051152 100.963,32.1553152 101.017,32.2726152 C101.62,33.5770152 101.554,34.9657152 101.368,36.3142152 C101.142,37.9338152 101.167,39.5936152 100.667,41.1729152 C100.605,41.3671152 100.594,41.5760152 100.575,41.7812152 C100.513,42.3931152 100.586,43.0087152 100.382,43.6133152 C99.9215,44.9727152 99.8411,46.4384152 99.2274,47.7575152 C99.0849,48.0616152 98.9753,48.4134152 98.9717,48.7431152 C98.968,49.3184152 98.7635,49.8094152 98.5114,50.3004152 C98.0401,51.2128152 97.5469,52.1179152 97.1122,53.0486152 C96.8565,53.6019152 96.7542,54.2285152 96.3268,54.7011152 C95.7642,56.0422152 94.8765,57.1708152 93.9961,58.3067152 C93.1558,59.3840152 92.2462,60.4063152 91.4571,61.5239152 C91.3402,61.6924152 91.2087,61.8537152 91.0662,61.9966152 C90.2954,62.7697152 89.5173,63.5355152 88.7392,64.3050152 C88.0085,65.0269152 87.2962,65.7670152 86.5363,66.4559152 C85.7764,67.1448152 85.0093,67.8336152 84.1763,68.4272152 C81.8237,70.1054152 79.7999,72.1427152 77.7796,74.1874152 C77.7322,74.2350152 77.6774,74.2826152 77.6408,74.3376152 C76.9175,75.4588152 75.8179,76.1734152 74.806,76.9795152 C74.3785,77.3203152 73.9548,77.6574152 73.5602,78.0421152 C73.0269,78.5698152 72.4643,79.0608152 71.7958,79.4382152 L71.7994,79.4382152 Z M123.156,59.7101152 C122.944,61.1318152 122.827,62.5682152 122.593,63.9826152 C122.505,64.5212152 122.432,65.0635152 122.359,65.6058152 C122.268,66.2837152 122.268,66.9762152 121.99,67.6211152 C121.91,67.8043152 121.851,68.0205152 121.862,68.2184152 C121.91,69.1198152 121.705,69.9882152 121.537,70.8639152 C121.523,70.9299152 121.526,70.9995152 121.512,71.0691152 C121.34,71.9449152 121.603,72.8499152 121.329,73.7257152 C121.062,74.5831152 121.084,75.4845152 121.03,76.3749152 C121.004,76.7853152 121.011,77.2140152 120.883,77.5951152 C120.617,78.3755152 120.321,79.1377152 120.314,79.9768152 C119.769,81.3949152 119.649,82.9118152 119.276,84.3665152 C119.243,84.4984152 119.218,84.6340152 119.188,84.7696152 C118.933,85.9091152 118.556,87.0011152 118.056,88.0600152 C117.205,89.8628152 116.222,91.5777152 115.075,93.2082152 C114.636,93.8312152 114.037,94.3038152 113.646,94.9524152 C113.259,95.5973152 112.887,96.2532152 112.492,96.8944152 C112.13,97.4844152 111.688,98.0047152 111.064,98.3308152 C110.194,98.7815152 109.548,99.4740152 108.912,100.199615 C108.101,101.126615 107.242,102.005615 106.084,102.518615 C105.445,102.801615 104.926,103.270615 104.546,103.841615 C104.156,104.424615 103.655,104.874615 103.111,105.292615 C102.073,106.091615 101.156,107.003615 100.444,108.110615 C100.29,108.348615 100.221,108.605615 100.254,108.887615 C100.294,109.228615 100.422,109.579615 100.36,109.902615 C100.217,110.671615 100.345,111.408615 100.517,112.137615 C100.864,113.614615 100.941,115.112615 100.926,116.618615 C100.926,116.966615 100.959,117.303615 101.076,117.626615 C101.266,118.146615 101.328,118.685615 101.39,119.231615 C101.511,120.249615 101.704,121.261615 101.865,122.276615 C101.931,122.682615 101.986,123.089615 102.044,123.496615 C102.252,124.929615 102.329,126.361615 101.978,127.783615 C101.861,128.256615 101.865,128.732615 101.832,129.208615 C101.785,129.857615 101.375,130.070615 100.879,129.721615 C100.824,129.681615 100.765,129.644615 100.722,129.593615 C100.356,129.175615 99.7206,129.117615 99.4247,128.611615 C98.9096,127.728615 98.2264,126.940615 97.9744,125.914615 C97.894,125.585615 97.8392,125.207615 97.6456,124.947615 C96.8821,123.910615 96.8528,122.628615 96.4181,121.488615 C96.2683,119.923615 95.8153,118.392615 95.8446,116.805615 C95.8555,116.182615 95.8117,115.578615 95.6583,114.973615 C95.5925,114.709615 95.5377,114.434615 95.5341,114.163615 C95.5267,113.544615 95.4866,112.936615 95.2308,112.360615 C95.187,111.540615 95.1139,110.719615 95.1139,109.898615 C95.1139,109.217615 95.2272,108.557615 95.6181,107.941615 C96.0199,107.311615 96.261,106.578615 96.6337,105.930615 C97.1086,105.102615 97.6018,104.277615 98.4128,103.702615 C98.7452,103.467615 99.0374,103.167615 99.3005,102.852615 C99.611,102.482615 99.9544,102.167615 100.353,101.884615 C101.255,101.251615 101.949,100.389615 102.727,99.6243152 C103.019,99.3348152 103.286,99.0233152 103.56,98.7155152 C104.024,98.1952152 104.554,97.7848152 105.241,97.5943152 C105.715,97.4624152 106.081,97.1363152 106.402,96.7772152 C106.855,96.2715152 107.199,95.6449152 107.761,95.2602152 C108.338,94.8645152 108.711,94.2819152 109.237,93.8458152 C109.661,93.4940152 109.946,93.0250152 110.271,92.5817152 C111.082,91.4787152 111.754,90.2805152 112.649,89.2363152 C113.088,88.7233152 113.402,88.0967152 113.749,87.5104152 C113.851,87.3382152 113.888,87.1257152 113.931,86.9278152 C114.22,85.5904152 114.498,84.2493152 114.783,82.9118152 C114.812,82.7799152 114.834,82.6334152 114.9,82.5198152 C115.648,81.2410152 115.539,79.7313152 116.003,78.3756152 C116.065,78.1887152 116.058,77.9688152 116.043,77.7673152 C115.981,76.9392152 116.076,76.1331152 116.277,75.3233152 C116.39,74.8652152 116.379,74.3706152 116.364,73.8942152 C116.332,72.7217152 116.437,71.5711152 116.686,70.4242152 C116.887,69.4899152 116.949,68.5262152 117.241,67.6028152 C117.322,67.3463152 117.373,67.0458152 117.318,66.7930152 C117.179,66.1591152 117.314,65.5655152 117.468,64.9682152 C117.654,64.2354152 117.731,63.4879152 117.709,62.7331152 C117.709,62.6048152 117.65,62.4473152 117.563,62.3630152 C117.482,62.2860152 117.267,62.2237152 117.212,62.2714152 C116.953,62.4876152 116.66,62.7111152 116.507,63.0006152 C115.667,64.5688152 114.867,66.1554152 114.048,67.7347152 C113.698,69.1308152 112.923,70.3839152 112.704,71.8203152 C112.602,72.4982152 112.174,73.0661152 112.123,73.7806152 C112.083,74.3852152 111.813,74.9715152 111.703,75.5761152 C111.568,76.3309152 111.148,76.9905152 111.002,77.7123152 C110.797,78.7273152 110.406,79.6763152 110.118,80.6583152 C109.789,81.7796152 109.248,82.8166152 108.616,83.7949152 C108.474,84.0148152 108.24,84.1833152 108.035,84.3555152 C107.834,84.5241152 107.44,84.4581152 107.308,84.2419152 C107.133,83.9525152 106.968,83.6520152 106.789,83.3589152 C106.581,83.0108152 106.578,83.0108152 105.993,83.3405152 C105.792,83.4541152 105.54,83.3552152 105.525,83.1647152 C105.522,83.0987152 105.478,83.0328152 105.482,82.9668152 C105.518,82.2156152 105.558,81.4608152 105.602,80.7096152 C105.613,80.5045152 105.595,80.2809152 105.668,80.0977152 C106.055,79.1414152 106.117,78.1007152 106.479,77.1371152 C106.72,76.4958152 106.943,75.8473152 107.1,75.1804152 C107.242,74.5794152 107.381,73.9895152 107.659,73.4289152 C107.838,73.0661152 107.991,72.6447152 107.988,72.2490152 C107.98,71.3256152 108.525,70.5598152 108.623,69.6731152 C109.325,68.4163152 109.624,66.9836152 110.337,65.7267152 C110.37,65.6718152 110.373,65.5948152 110.381,65.5289152 C110.395,65.3860152 110.337,65.2724152 110.205,65.2174152 C110.147,65.1918152 110.059,65.1954152 110.004,65.2211152 C109.825,65.3127152 109.621,65.3933152 109.482,65.5325152 C108.331,66.6794152 107.619,68.0645152 107.407,69.6767152 C107.319,70.3546152 107.221,71.0252152 107.067,71.6957152 C106.914,72.3589152 106.87,73.0515152 106.534,73.6634152 C106.358,75.1071152 105.715,76.4079152 105.241,77.7563152 C104.992,78.4635152 104.733,79.1743152 104.24,79.7679152 C104.152,79.8705152 104.079,79.9951152 104.031,80.1197152 C103.461,81.6330152 102.398,82.7909152 101.313,83.9378152 C100.985,84.2859152 100.619,84.6120152 100.353,85.0041152 C99.4831,86.2866152 98.2264,87.1147152 96.988,87.9648152 C96.5387,88.2726152 96.1076,88.6060152 95.64,88.8845152 C95.1724,89.1666152 94.6682,89.3865152 94.1897,89.6540152 C93.7732,89.8885152 93.375,90.1560152 92.9659,90.4051152 C92.2681,90.8302152 91.5959,91.3285152 90.7082,91.2369152 C89.331,91.6510152 87.9208,91.9038152 86.5071,92.1566152 C86.3756,92.1823152 86.2331,92.2152152 86.1198,92.2812152 C85.3052,92.7795152 84.4576,93.2376152 83.6941,93.8092152 C82.4301,94.7582152 81.4328,95.9930152 80.3661,97.1473152 C79.2373,98.8548152 78.5212,100.672615 78.9815,102.768615 C79.1459,103.515615 79.2153,104.252615 79.0071,105.003615 C78.956,105.193615 78.9231,105.424615 78.9779,105.607615 C79.2446,106.549615 79.1569,107.513615 79.208,108.469615 C79.2555,109.359615 79.3432,110.235615 79.5807,111.100615 C79.8327,112.023615 79.9862,112.972615 80.22,113.903615 C80.3405,114.379615 80.3624,114.841615 80.2784,115.325615 C80.2346,115.585615 80.2565,115.874615 80.3186,116.131615 C80.7022,117.688615 80.6547,119.256615 80.4465,120.828615 C80.3296,121.711615 80.1725,122.587615 80.0592,123.474615 C79.8839,124.866615 79.2409,126.076615 78.5907,127.281615 C78.3934,127.647615 78.1486,127.974615 77.8491,128.256615 C77.7504,128.351615 77.6445,128.439615 77.5349,128.516615 C77.3632,128.640615 77.1403,128.717615 76.9613,128.622615 C76.5376,128.391615 76.1284,128.204615 75.6243,128.204615 C75.3247,128.204615 75.0215,127.794615 75.0179,127.472615 C75.0105,127.204615 74.985,126.900615 75.0909,126.669615 C75.3613,126.083615 75.4014,125.489615 75.3612,124.863615 C75.3064,124.038615 75.2991,123.217615 75.6425,122.433615 C75.7229,122.254615 75.7339,122.027615 75.7193,121.825615 C75.6791,121.151615 75.4416,120.477615 75.7302,119.802615 C75.6608,119.121615 75.6133,118.439615 75.511,117.765615 C75.4087,117.091615 75.3028,116.417615 75.1457,115.746615 C74.9631,114.955615 74.879,114.138615 74.6708,113.339615 C74.4662,112.551615 74.3785,111.727615 74.2945,110.909615 C74.2141,110.092615 74.1922,109.272615 74.1667,108.451615 C74.1228,107.014615 74.0973,105.578615 74.0607,104.142615 C74.0607,104.006615 74.068,103.859615 74.0242,103.731615 C73.6443,102.614615 73.9,101.573615 74.3785,100.554615 C74.8206,98.8181152 75.5037,97.1839152 76.4755,95.6779152 C76.6581,95.3921152 76.8152,95.0807152 77.0271,94.8205152 C77.4143,94.3441152 77.8162,93.8788152 78.1742,93.3731152 C78.4884,92.9298152 78.9085,92.5633152 79.2884,92.1713152 C79.9058,91.5300152 80.5305,90.8998152 81.1515,90.2622152 C81.4146,89.9947152 81.4803,89.6906152 81.3634,89.3242152 C81.3013,89.1337152 81.2355,88.8991152 81.2976,88.7269152 C81.4328,88.3312152 81.4949,87.9318152 81.5388,87.5214152 C81.5534,87.3895152 81.5972,87.2503152 81.6557,87.1293152 C81.915,86.5834152 82.4155,86.1363152 82.3169,85.4475152 C82.5069,84.8612152 82.7078,84.2822152 83.0073,83.7399152 C83.1023,83.5641152 83.1535,83.3552152 83.179,83.1537152 C83.3288,82.0288152 83.9681,81.1274152 84.4978,80.1747152 C84.9545,79.8302152 85.1152,79.2916152 85.4002,78.8299152 C86.4048,77.1993152 87.3911,75.5614152 88.3629,73.9126152 C88.8122,73.1541152 89.2652,72.3773152 89.9995,71.8313152 C90.1091,71.7507152 90.2114,71.6481152 90.2844,71.5345152 C91.1502,70.1458152 92.575,69.4092152 93.839,68.4932152 C94.0691,68.3283152 94.365,68.3173152 94.6317,68.3869152 C95.6363,68.6434152 96.546,69.1124152 97.3862,69.7061152 C97.8428,70.0285152 98.1278,70.5158152 98.3872,70.9922152 C98.6137,71.4099152 98.7452,71.8789152 98.8913,72.3333152 C98.9534,72.5238152 98.9863,72.7400152 98.968,72.9379152 C98.8548,74.0958152 99.0046,75.2646152 98.8,76.4152152 C98.6429,77.2909152 98.4822,78.1667152 98.3251,79.0461152 C98.3032,79.1780152 98.2922,79.3173152 98.3105,79.4492152 C98.336,79.6507152 98.4054,79.8339152 98.6064,79.9402152 C98.7379,80.0098152 99.0703,79.9548152 99.169,79.8302152 C99.885,78.9105152 100.502,77.9322152 100.981,76.8659152 C101.036,76.7413152 101.109,76.6131152 101.12,76.4812152 C101.182,75.6494152 101.496,74.8872152 101.723,74.0994152 C101.949,73.3116152 102.194,72.5092152 102.263,71.6994152 C102.406,70.1055152 102.789,68.5995152 103.542,67.1924152 C103.692,66.3570152 104.137,65.6791152 104.634,65.0159152 C105.127,64.3600152 105.555,63.6564152 106.048,63.0042152 C106.336,62.6231152 106.669,62.2714152 107.031,61.9599152 C107.6,61.4689152 108.2,61.0146152 108.806,60.5675152 C109.522,60.0435152 110.318,59.9483152 111.137,60.2671152 C111.579,60.4393152 111.992,60.6884152 112.419,60.9046152 C112.551,60.9706152 112.854,60.8570152 112.963,60.7104152 C113.325,60.2084152 113.654,59.6991152 113.895,59.1202152 C114.293,58.1711152 114.779,57.2734152 115.616,56.6065152 C115.875,56.4013152 116.058,56.0862152 116.229,55.7931152 C116.591,55.1921152 117.095,54.7268152 117.621,54.2907152 C119.108,53.0632152 120.803,53.1182152 122.315,54.2504152 C122.586,54.4520152 122.82,54.7085152 123.021,54.8917152 C123.137,55.6575152 123.189,56.3390152 123.148,57.0242152 C123.108,57.7095152 123.05,58.3910152 123.148,59.0762152 C123.178,59.2777152 123.178,59.4903152 123.148,59.6918152 L123.156,59.7101152 Z" id="Vector_2" fill="#FF8300" fill-rule="nonzero"></path>
            <path d="M77.7249,68.4199152 C78.4226,67.8666152 79.1021,67.2950152 79.7268,66.6648152 C80.6437,65.7377152 81.6301,64.8986152 82.7516,64.2281152 C83.2229,63.9459152 83.643,63.6015152 83.9937,63.1691152 C84.2056,62.9053152 84.4832,62.6928152 84.7207,62.4473152 C86.4413,60.6921152 88.2825,59.0432152 89.7146,57.0206152 C90.4233,56.3574152 90.8872,55.5293152 91.3402,54.6792152 C92.4325,52.6235152 93.5212,50.5679152 94.1897,48.3254152 C94.5915,47.6622152 94.5477,46.8707152 94.7925,46.1672152 C95.0628,45.3867152 95.3879,44.6136152 95.4025,43.7891152 C95.4172,42.8914152 95.7788,42.0596152 95.7788,41.1583152 C95.7788,40.1359152 95.8409,39.0990152 96.0346,38.0986152 C96.2099,37.1972152 96.1624,36.3325152 96.0492,35.4494152 C95.998,35.0427152 95.8811,34.6433152 95.8373,34.2366152 C95.7058,33.0640152 95.3587,31.9648152 94.8327,30.9131152 C94.4052,30.0557152 93.9888,29.1946152 93.5687,28.3335152 C93.2654,27.7106152 92.9001,27.1390152 92.3668,26.6883152 C92.0489,26.4208152 91.8078,26.0984152 91.5996,25.7393152 C91.4681,25.5121152 91.2525,25.3216152 91.048,25.1457152 C90.2698,24.4715152 89.3566,23.9915152 88.4761,23.4748152 C88.2423,23.3392152 87.9793,23.2147152 87.7163,23.1817152 C86.5655,23.0388152 85.4002,22.8959152 84.2567,23.2183152 C83.4055,23.4565152 82.5178,23.5811152 81.7324,24.0318152 C81.3707,24.2406152 80.9689,24.3212152 80.5524,24.3286152 C79.9314,24.3432152 79.3067,24.4312152 78.7624,24.7060152 C76.9833,25.6001152 75.2992,26.6297152 74.068,28.2603152 C73.8635,28.5314152 73.6552,28.8172152 73.3922,29.0261152 C72.8917,29.4218152 72.6141,29.9568152 72.2853,30.4808152 C71.3866,31.9208152 70.8021,33.5770152 69.4577,34.7239152 C69.3554,34.8119152 69.2714,34.9291152 69.2166,35.0537152 C68.8659,35.8122152 68.201,36.3472152 67.7736,37.0397152 C67.2585,37.8751152 66.4914,38.4467152 65.8301,39.1283152 C65.6146,39.3481152 65.3114,39.3445152 65.1324,39.1026152 C64.9241,38.8132152 64.705,38.5420152 64.325,38.5677152 C62.9478,38.6483152 63.1195,38.2745152 62.7396,37.4171152 C62.4035,36.6549152 62.2427,35.8562152 62.2281,35.0244152 C62.2208,34.6836152 62.1989,34.3392152 62.1587,33.9984152 C62.1368,33.7969152 62.0929,33.5917152 62.0053,33.4085152 C61.7422,32.8552152 61.5048,32.2799152 61.1687,31.7742152 C60.8582,31.3089152 60.6317,30.8362152 60.4782,30.3012152 C60.365,29.9128152 60.1933,29.5244152 59.9631,29.1946152 C59.6563,28.7513152 59.2983,28.3262152 58.9074,27.9561152 C58.6042,27.6667152 58.3265,27.3699152 58.1439,27.0034152 C57.9904,26.6883152 57.7968,26.4428152 57.5119,26.2266152 C57.1319,25.9408152 56.7995,25.5891152 56.4524,25.2593152 C56.0981,24.9258152 55.6962,24.6730152 55.2469,24.4971152 C53.8514,23.9402152 52.4559,23.3832152 51.0531,22.8372152 C50.527,22.6320152 49.99,22.6284152 49.4457,22.8006152 C48.6675,23.0461152 47.8894,23.3063152 47.0967,23.4931152 C46.4829,23.6360152 45.9204,23.8412152 45.4418,24.2553152 C45.0728,24.5741152 44.6564,24.8122152 44.1961,24.9442152 C43.1184,25.2519152 42.2014,25.8309152 41.405,26.6040152 C41.0032,26.9961152 40.5502,27.3296152 40.0315,27.4761152 C39.1912,27.7180152 38.5884,28.2126152 38.0916,28.9015152 C37.9345,29.1213152 37.7153,29.2972152 37.5363,29.5061152 C37.4048,29.6600152 37.266,29.8212152 37.182,30.0044152 C36.718,31.0157152 36.4988,32.0784152 36.6559,33.5147152 C36.7107,33.9434152 36.8094,34.6909152 36.9007,35.4384152 C36.9482,35.8452152 37.0103,36.2519152 37.0176,36.6623152 C37.0322,37.2852152 37.1491,37.8751152 37.3646,38.4651152 C37.6459,39.2345152 37.8103,40.0407152 38.2889,40.7332152 C38.4387,40.9494152 38.541,41.2389152 38.5629,41.5027152 C38.614,42.0816152 38.9209,42.5397152 39.2204,42.9867152 C40.4844,44.8738152 41.2954,46.9917152 42.2745,49.0216152 C42.3804,49.6519152 42.7348,50.1685152 43.0892,50.6632152 C43.4508,51.1689152 43.754,51.7002152 44.0426,52.2425152 C44.2362,52.6089152 44.4737,52.9313152 44.7623,53.2281152 C45.6245,54.1075152 46.472,55.0016152 47.3159,55.8957152 C47.5022,56.0935152 47.6593,56.3207152 47.809,56.5479152 C48.0757,56.9473152 48.3388,57.3467152 48.5762,57.7607152 C48.9854,58.4789152 49.5114,59.0652152 50.1727,59.5819152 C51.0348,60.2524152 51.7545,61.0878152 52.4486,61.9379152 C52.6166,62.1431152 52.7079,62.4143152 52.8322,62.6598152 C52.9564,62.9016152 53.0294,63.1984152 53.2121,63.3816152 C53.603,63.7737152 53.9025,64.2171152 54.1875,64.6824152 C54.2825,64.8363152 54.5017,64.9499152 54.688,65.0085152 C54.951,65.0928152 55.2579,65.1368152 55.4076,65.3640152 C55.8278,66.0015152 56.5657,66.3203152 56.9456,66.9945152 C57.0735,67.2181152 57.3292,67.3756152 57.5411,67.5478152 C57.8589,67.8043152 58.2242,68.0132152 58.5019,68.3063152 C58.9403,68.7680152 59.4407,69.0685152 60.0435,69.2663152 C60.354,69.3689152 60.6536,69.5888152 60.8837,69.8306152 C61.4573,70.4242152 62.0601,70.9665152 62.7688,71.3916152 C62.9989,71.5308152 63.2035,71.7250152 63.3935,71.9192152 C64.5808,73.1467152 65.8228,74.3229152 66.7434,75.7850152 C66.8896,76.0158152 67.0466,76.2393152 67.211,76.4592152 C67.2914,76.5654152 67.4047,76.6534152 67.4996,76.7523152 C67.6786,76.9355152 68.0586,76.9722152 68.2449,76.8109152 C68.4495,76.6314152 68.6212,76.4042152 68.844,76.2540152 C70.3747,75.2207152 71.8359,74.1031152 73.1694,72.8206152 C73.2168,72.7730152 73.2753,72.7327152 73.3264,72.6887152 C73.805,72.3040152 74.3201,71.9522152 74.7475,71.5198152 C75.1749,71.0838152 75.4818,70.5268152 75.9056,70.0871152 C76.4755,69.5009152 77.0783,68.9366152 77.7176,68.4309152 L77.7249,68.4199152 Z" id="Vector_3" fill="#FF8300" fill-rule="nonzero"></path>
            <path d="M94.04,75.0485152 C94.04,74.9019152 93.8317,74.6344152 93.6783,74.5904152 C93.4774,74.5355152 93.2764,74.5355152 93.1011,74.6674152 C92.9367,74.7883152 92.7577,74.9019152 92.6371,75.0631152 C92.228,75.6054152 91.8042,76.1441152 91.5558,76.7926152 C91.3074,77.4339152 90.9603,78.0165152 90.5293,78.5514152 C90.3576,78.7640152 90.2078,78.9948152 90.0763,79.2330152 C89.5867,80.1380152 89.0095,80.9808152 88.3848,81.7906152 C88.1766,82.0617152 88.0524,82.3805152 87.9026,82.6847152 C87.362,83.7839152 87.0076,84.9675152 86.4377,86.0521152 C86.4085,86.1107152 86.4121,86.1876152 86.3939,86.2499152 C86.3208,86.4734152 86.5838,86.7922152 86.8396,86.8179152 C87.2524,86.8545152 87.6652,86.8289152 88.0524,86.6970152 C88.509,86.5431152 88.9584,86.4112152 89.4443,86.4002152 C90.4233,86.3782152 91.2964,85.9898152 92.1476,85.5574152 C92.396,85.4291152 92.5568,85.1983152 92.6262,84.9235152 C92.7942,84.2603152 92.9586,83.5970152 93.123,82.9375152 C93.2399,82.4721152 93.3385,82.0104152 93.3312,81.5231152 C93.3166,80.4935152 93.5029,79.4895152 93.6892,78.4782152 C93.85,77.6171152 94.2482,76.7743152 94.0473,76.1221152 C94.0473,75.5871152 94.0473,75.3159152 94.0473,75.0448152 L94.04,75.0485152 Z" id="Vector_4" fill="#FF8300" fill-rule="nonzero"></path>
            <path d="M35.9983,75.8986152 C35.9983,75.9425152 36.0677,75.9938152 36.1042,76.0415152 C36.1481,75.9975152 36.2284,75.9572152 36.2284,75.9132152 C36.2284,75.8692152 36.159,75.8179152 36.1225,75.7703152 C36.0787,75.8143152 36.0019,75.8509152 35.9983,75.8986152 Z" id="Vector_5" fill="#FF8300" fill-rule="nonzero"></path>
        </g>
    </g>
</svg>