<svg width="294" height="181" viewBox="0 0 294 181" fill="none" xmlns="http://www.w3.org/2000/svg">
<rect width="294" height="179" fill="#120540"/>
<mask id="mask0_1386_205" style="mask-type:alpha" maskUnits="userSpaceOnUse" x="0" y="0" width="294" height="179">
<rect width="294" height="179" fill="#120540"/>
</mask>
<g mask="url(#mask0_1386_205)">
<path d="M263.266 215.787L293.908 185.393L293.908 157.336L249.212 201.805L263.266 215.787Z" fill="#1C0F5F"/>
<path d="M60.8445 14.3487L76.8337 30.2566L75.9121 29.2939L105.356 -0.000431061L71.3965 -0.000434098L58.9092 12.4233L60.8445 14.3487Z" fill="#1C0F5F"/>
<path d="M75.9119 29.2941L105.356 -0.000156403L71.3962 -0.000159439L58.909 12.4236L76.8335 30.2569L75.9119 29.2941Z" fill="#1C0F5F"/>
<path d="M178.16 131.068L294 15.8161L294 0.0457382L293.954 0.0457382L244.512 -0.000118866L145.536 98.4727M161.249 114.106L275.8 0.0457366L279.071 0.0457369L162.815 115.664" fill="#1C0F5F"/>
<path d="M92.9607 46.2569L139.5 0.000306707L106.001 0.000303711L76.2343 29.6155M127.105 80.1814L207.696 0.000312805L140.652 0.00030681L93.5597 46.8528M109.964 63.3108L173.506 0.0919998L175.164 0.092L110.793 64.136" fill="#1C0F5F"/>
<path d="M144.2 97.0977L241.794 0.000183105L209.907 0.000180254L128.211 81.2815L127.565 80.6397L144.2 97.0977Z" fill="#1C0F5F"/>
<path d="M246.263 198.871L293.908 151.468L293.908 151.422L293.908 122.862L231.887 184.568L246.263 198.871Z" fill="#1C0F5F"/>
<path d="M216.266 169.073L229.214 181.909L293.908 117.544L293.908 88.433L214.562 167.376L216.266 169.073Z" fill="#1C0F5F"/>
<path d="M195.07 148.03L293.908 49.7404L293.908 19.5751L179.957 132.947L195.07 148.03Z" fill="#1C0F5F"/>
<path d="M212.027 164.9L212.073 164.9L212.165 164.992L293.908 83.6649L293.908 83.6191L293.908 54.0039L197.236 150.185L212.027 164.9Z" fill="#1C0F5F"/>
<path d="M71.304 -0.000403404L46.4217 -0.000405629L58.8628 12.3775L71.304 -0.000403404Z" fill="#1C0F5F"/>
</g>
<path d="M209.656 46.0472H75.1885C69.9903 46.0472 65.7632 50.3711 65.7632 55.6883V138.31C65.7632 143.627 69.9903 147.951 75.1885 147.951H94.1533L89.2979 161.214C88.441 163.026 90.4403 164.896 92.0398 163.844C100.494 158.234 107.977 152.917 115.289 147.951H209.656C214.854 147.951 219.081 143.627 219.081 138.31V55.6883C219.081 50.3711 214.854 46.0472 209.656 46.0472Z" fill="#FAFCFC"/>
<path d="M138.309 64.8033H77.5874V67.608H138.309V64.8033Z" fill="#130019"/>
<path d="M141.908 103.543H77.5874V106.347H141.908V103.543Z" fill="#130019"/>
<g opacity="0.5">
<path d="M154.189 70.8801H77.5874V73.6848H154.189V70.8801Z" fill="#554759"/>
</g>
<g opacity="0.5">
<path d="M188.406 76.6646H77.5874V79.4693H188.406V76.6646Z" fill="#554759"/>
</g>
<g opacity="0.5">
<path d="M111.576 82.4491H77.5874V85.2538H111.576V82.4491Z" fill="#554759"/>
</g>
<g opacity="0.5">
<path d="M121.001 109.561H77.5874V112.366H121.001V109.561Z" fill="#554759"/>
</g>
<g opacity="0.5">
<path d="M159.045 115.696H77.5874V118.501H159.045V115.696Z" fill="#554759"/>
</g>
<g opacity="0.5">
<path d="M159.045 127.967H77.5874V130.771H159.045V127.967Z" fill="#554759"/>
</g>
<g opacity="0.5">
<path d="M128.884 121.832H77.5874V124.636H128.884V121.832Z" fill="#554759"/>
</g>
<g opacity="0.5">
<path d="M207.314 88.2334H77.5874V91.0381H207.314V88.2334Z" fill="#554759"/>
</g>
<path d="M212.969 64.8038C217.995 63.2262 222.451 59.6619 226.278 54.111C230.163 48.56 232.105 43.6518 232.105 39.3864C232.105 35.1209 231.019 31.9657 228.906 30.0374C226.735 28.1092 224.05 27.1159 220.737 27.1159C217.424 27.1159 214.568 28.4598 212.169 31.2061C209.77 33.9523 208.57 36.9907 208.57 40.2628C208.57 43.5934 209.655 46.1644 211.769 47.9757C213.883 49.7871 215.653 50.722 217.139 50.722C217.024 51.6569 216.339 53.1761 214.968 55.338C213.654 57.4415 212.055 59.2529 210.227 60.6552C210.398 62.5834 211.312 63.9273 212.969 64.8038Z" fill="#FF8300"/>
<path d="M186.749 64.8037C190.12 63.7519 193.261 61.7653 196.232 58.7269C199.202 55.7469 201.544 52.4164 203.258 48.6768C204.972 44.9956 205.828 41.4314 205.828 38.0424C205.828 34.6534 204.743 31.9656 202.629 30.0373C200.516 28.1091 197.774 27.1158 194.461 27.1158C191.148 27.1158 188.292 28.4597 185.892 31.206C183.493 33.9522 182.294 36.9906 182.294 40.2627C182.294 43.5933 183.379 46.1643 185.493 47.9756C187.606 49.787 189.377 50.7219 190.862 50.7219C190.748 51.6568 190.062 53.176 188.691 55.3379C187.378 57.4414 185.778 59.2528 183.893 60.6551C184.179 62.5249 185.093 63.8688 186.749 64.8037Z" fill="#FF8300"/>
<rect y="177" width="294" height="4" fill="#FF8300"/>
</svg>
