<svg width="280" height="283" viewBox="0 0 280 283" fill="none" xmlns="http://www.w3.org/2000/svg">
<path d="M0 282.297H3.38143V-7.99167L0 -11.3874V282.297Z" fill="#59FF69"/>
<path d="M20.9326 282.297H27.3881V16.0564L20.9326 9.58696V282.297Z" fill="#59FF69"/>
<path d="M44.5734 282.297H51.3948V40.1045L44.5734 33.2691V282.283V282.297Z" fill="#59FF69"/>
<path d="M68.2288 282.297H75.4162V64.1525L68.2288 56.9659V282.297Z" fill="#59FF69"/>
<path d="M91.8696 282.297H99.4083V88.2151L91.8696 80.6626V282.312V282.297Z" fill="#59FF69"/>
<path d="M115.51 282.297H123.415V112.263L115.51 104.345V282.297Z" fill="#59FF69"/>
<path d="M139.151 282.297H147.422V136.311L139.151 128.027V282.297Z" fill="#59FF69"/>
<path d="M162.792 282.297H171.428V160.374L162.792 151.724V282.297Z" fill="#59FF69"/>
<path d="M186.432 282.297H195.435V184.422L186.432 175.406V282.297Z" fill="#59FF69"/>
<path d="M210.088 282.297H219.456V208.47L210.088 199.088V282.297Z" fill="#59FF69"/>
<path d="M233.729 282.297H243.463V232.533L233.729 222.785V282.297Z" fill="#59FF69"/>
<path d="M257.369 282.297H267.47V256.581L257.369 246.467V282.297Z" fill="#59FF69"/>
</svg>
