<svg width="782" height="294" viewBox="0 0 782 294" fill="none" xmlns="http://www.w3.org/2000/svg">
<path d="M581.826 2.52472H580.463L583.228 5.28359L583.909 4.6089L581.826 2.52472Z" fill="#50E65F" fill-opacity="0.15"/>
<path d="M568.703 2.52472H567.147L576.57 11.9503L577.345 11.1687L568.703 2.52472Z" fill="#50E65F" fill-opacity="0.15"/>
<path d="M555.588 2.52472H553.825L569.905 18.6103L570.787 17.7286L555.588 2.52472Z" fill="#50E65F" fill-opacity="0.15"/>
<path d="M542.467 2.52472H540.503L563.248 25.2704L564.23 24.2884L542.467 2.52472Z" fill="#50E65F" fill-opacity="0.15"/>
<path d="M529.351 2.52472H527.188L556.59 31.9371L557.672 30.8483L529.351 2.52472Z" fill="#50E65F" fill-opacity="0.15"/>
<path d="M516.236 2.52472H513.865L549.925 38.5971L551.114 37.4148L516.236 2.52472Z" fill="#50E65F" fill-opacity="0.15"/>
<path d="M503.114 2.52472H500.543L543.268 45.2572L544.55 43.9746L503.114 2.52472Z" fill="#50E65F" fill-opacity="0.15"/>
<path d="M489.999 2.52515H488.143V3.44032L536.61 51.9243L537.993 50.5349L489.999 2.52515Z" fill="#50E65F" fill-opacity="0.15"/>
<path d="M488.143 13.7875V16.7669L529.946 58.5841L531.435 57.0945L488.143 13.7875Z" fill="#50E65F" fill-opacity="0.15"/>
<path d="M488.143 26.914V30.087L523.288 65.2443L524.877 63.6611L488.143 26.914Z" fill="#50E65F" fill-opacity="0.15"/>
<path d="M488.143 40.0333V43.4134L516.63 71.9107L518.313 70.2206L488.143 40.0333Z" fill="#50E65F" fill-opacity="0.15"/>
<path d="M488.143 53.1595V56.74L509.966 78.5705L511.755 76.7802L488.143 53.1595Z" fill="#50E65F" fill-opacity="0.15"/>
<path d="M488.143 66.2796V70.0605L503.308 85.231L505.198 83.3405L488.143 66.2796Z" fill="#50E65F" fill-opacity="0.15"/>
<path d="M488.143 79.4059V83.3872L496.643 91.8976L498.64 89.9003L488.143 79.4059Z" fill="#50E65F" fill-opacity="0.15"/>
<path d="M488.143 92.5251V96.7135L489.986 98.5572L492.083 96.4663L488.143 92.5251Z" fill="#50E65F" fill-opacity="0.15"/>
<path d="M484.336 0L482.98 0L485.738 2.76555L486.42 2.08418L484.336 0Z" fill="#50E65F" fill-opacity="0.15"/>
<path d="M471.22 0L469.658 0L479.08 9.42559L479.861 8.64402L471.22 0Z" fill="#50E65F" fill-opacity="0.15"/>
<path d="M458.098 0L456.335 0L472.422 16.0856L473.297 15.2039L458.098 0Z" fill="#50E65F" fill-opacity="0.15"/>
<path d="M444.983 0L443.02 0L465.758 22.7523L466.739 21.7704L444.983 0Z" fill="#50E65F" fill-opacity="0.15"/>
<path d="M431.861 0L429.698 0L459.1 29.4124L460.182 28.3302L431.861 0Z" fill="#50E65F" fill-opacity="0.15"/>
<path d="M418.746 0L416.375 0L452.442 36.0724L453.624 34.8901L418.746 0Z" fill="#50E65F" fill-opacity="0.15"/>
<path d="M405.624 0L403.06 0L445.778 42.7391L447.067 41.4499L405.624 0Z" fill="#50E65F" fill-opacity="0.15"/>
<path d="M392.509 0L390.652 0V0.915171L439.12 49.3992L440.502 48.0164L392.509 0Z" fill="#50E65F" fill-opacity="0.15"/>
<path d="M390.652 11.2692V14.2418L432.456 56.0591L433.945 54.5761L390.652 11.2692Z" fill="#50E65F" fill-opacity="0.15"/>
<path d="M390.652 24.3889V27.5686L425.798 62.7259L427.387 61.136L390.652 24.3889Z" fill="#50E65F" fill-opacity="0.15"/>
<path d="M390.652 37.5154V40.8888L419.14 69.386L420.829 67.696L390.652 37.5154Z" fill="#50E65F" fill-opacity="0.15"/>
<path d="M390.652 50.6355V54.216L412.475 76.0465L414.265 74.2563L390.652 50.6355Z" fill="#50E65F" fill-opacity="0.15"/>
<path d="M390.652 63.7538V67.5414L405.818 82.7118L407.707 80.8214L390.652 63.7538Z" fill="#50E65F" fill-opacity="0.15"/>
<path d="M390.652 76.8809V80.8623L399.16 89.3727L401.15 87.382L390.652 76.8809Z" fill="#50E65F" fill-opacity="0.15"/>
<path d="M390.652 90.0011V94.1895L392.495 96.0332L394.592 93.9424L390.652 90.0011Z" fill="#50E65F" fill-opacity="0.15"/>
<path d="M386.246 0L384.883 0L387.648 2.76555L388.322 2.08418L386.246 0Z" fill="#50E65F" fill-opacity="0.15"/>
<path d="M373.123 0L371.567 0L380.983 9.42559L381.764 8.64402L373.123 0Z" fill="#50E65F" fill-opacity="0.15"/>
<path d="M360.008 0L358.245 0L374.325 16.0856L375.207 15.2039L360.008 0Z" fill="#50E65F" fill-opacity="0.15"/>
<path d="M346.886 0L344.923 0L367.668 22.7523L368.649 21.7704L346.886 0Z" fill="#50E65F" fill-opacity="0.15"/>
<path d="M333.771 0L331.607 0L361.003 29.4124L362.092 28.3302L333.771 0Z" fill="#50E65F" fill-opacity="0.15"/>
<path d="M320.649 0L318.285 0L354.345 36.0724L355.527 34.8901L320.649 0Z" fill="#50E65F" fill-opacity="0.15"/>
<path d="M307.534 0L304.963 0L347.688 42.7391L348.97 41.4499L307.534 0Z" fill="#50E65F" fill-opacity="0.15"/>
<path d="M294.412 0L292.562 0V0.915171L341.023 49.3992L342.412 48.0164L294.412 0Z" fill="#50E65F" fill-opacity="0.15"/>
<path d="M292.562 11.2692V14.2418L334.365 56.0591L335.854 54.5761L292.562 11.2692Z" fill="#50E65F" fill-opacity="0.15"/>
<path d="M292.562 24.3889V27.5686L327.707 62.7259L329.29 61.136L292.562 24.3889Z" fill="#50E65F" fill-opacity="0.15"/>
<path d="M292.562 37.5154V40.8888L321.043 69.386L322.732 67.696L292.562 37.5154Z" fill="#50E65F" fill-opacity="0.15"/>
<path d="M292.562 50.6355V54.216L314.385 76.0465L316.175 74.2563L292.562 50.6355Z" fill="#50E65F" fill-opacity="0.15"/>
<path d="M292.562 63.7546V67.5422L307.727 82.7127L309.617 80.8222L292.562 63.7546Z" fill="#50E65F" fill-opacity="0.15"/>
<path d="M292.562 76.8809V80.8623L301.063 89.3727L303.06 87.382L292.562 76.8809Z" fill="#50E65F" fill-opacity="0.15"/>
<path d="M292.562 90.0011V94.1895L294.405 96.0332L296.495 93.9424L292.562 90.0011Z" fill="#50E65F" fill-opacity="0.15"/>
<path d="M191.179 0L189.824 0L192.582 2.76555L193.263 2.08418L191.179 0Z" fill="#50E65F" fill-opacity="0.15"/>
<path d="M178.064 0L176.501 0L185.924 9.42559L186.705 8.64402L178.064 0Z" fill="#50E65F" fill-opacity="0.15"/>
<path d="M164.942 0L163.179 0L179.266 16.0856L180.14 15.2039L164.942 0Z" fill="#50E65F" fill-opacity="0.15"/>
<path d="M151.827 0L149.864 0L172.602 22.7523L173.583 21.7704L151.827 0Z" fill="#50E65F" fill-opacity="0.15"/>
<path d="M138.705 0L136.541 0L165.943 29.4124L167.025 28.3302L138.705 0Z" fill="#50E65F" fill-opacity="0.15"/>
<path d="M125.589 0L123.219 0L159.286 36.0724L160.468 34.8901L125.589 0Z" fill="#50E65F" fill-opacity="0.15"/>
<path d="M112.468 0L109.904 0L152.622 42.7391L153.911 41.4499L112.468 0Z" fill="#50E65F" fill-opacity="0.15"/>
<path d="M99.3525 0L97.4961 0V0.915171L145.964 49.3992L147.346 48.0164L99.3525 0Z" fill="#50E65F" fill-opacity="0.15"/>
<path d="M97.4961 11.2692V14.2418L139.299 56.0591L140.788 54.5761L97.4961 11.2692Z" fill="#50E65F" fill-opacity="0.15"/>
<path d="M97.4961 24.3889V27.5686L132.641 62.7259L134.231 61.136L97.4961 24.3889Z" fill="#50E65F" fill-opacity="0.15"/>
<path d="M97.4961 37.5154V40.8888L125.984 69.386L127.673 67.696L97.4961 37.5154Z" fill="#50E65F" fill-opacity="0.15"/>
<path d="M97.4961 50.6355V54.216L119.319 76.0465L121.109 74.2563L97.4961 50.6355Z" fill="#50E65F" fill-opacity="0.15"/>
<path d="M97.4961 63.7546V67.5422L112.661 82.7127L114.551 80.8222L97.4961 63.7546Z" fill="#50E65F" fill-opacity="0.15"/>
<path d="M97.4961 76.8809V80.8623L106.004 89.3727L107.994 87.382L97.4961 76.8809Z" fill="#50E65F" fill-opacity="0.15"/>
<path d="M97.4961 90.0011V94.1895L99.3392 96.0332L101.436 93.9424L97.4961 90.0011Z" fill="#50E65F" fill-opacity="0.15"/>
<path d="M97.4961 100.615V101.978L100.261 99.2126L99.5796 98.5312L97.4961 100.615Z" fill="#50E65F" fill-opacity="0.15"/>
<path d="M97.4961 113.742V115.298L106.919 105.873L106.137 105.098L97.4961 113.742Z" fill="#50E65F" fill-opacity="0.15"/>
<path d="M97.4961 126.862V128.625L113.576 112.539L112.695 111.658L97.4961 126.862Z" fill="#50E65F" fill-opacity="0.15"/>
<path d="M97.4961 139.988V141.951L120.241 119.199L119.259 118.217L97.4961 139.988Z" fill="#50E65F" fill-opacity="0.15"/>
<path d="M97.4961 153.108V155.272L126.899 125.86L125.817 124.777L97.4961 153.108Z" fill="#50E65F" fill-opacity="0.15"/>
<path d="M97.4961 166.227V168.599L133.556 132.526L132.374 131.337L97.4961 166.227Z" fill="#50E65F" fill-opacity="0.15"/>
<path d="M97.4961 179.354V181.926L140.221 139.187L138.932 137.904L97.4961 179.354Z" fill="#50E65F" fill-opacity="0.15"/>
<path d="M97.4961 192.473V194.33H98.411L146.879 145.846L145.496 144.464L97.4961 192.473Z" fill="#50E65F" fill-opacity="0.15"/>
<path d="M108.761 194.33H111.733L153.536 152.513L152.054 151.023L108.761 194.33Z" fill="#50E65F" fill-opacity="0.15"/>
<path d="M121.876 194.331H125.055L160.2 159.174L158.611 157.584L121.876 194.331Z" fill="#50E65F" fill-opacity="0.15"/>
<path d="M134.999 194.33H138.371L166.858 165.833L165.169 164.149L134.999 194.33Z" fill="#50E65F" fill-opacity="0.15"/>
<path d="M148.114 194.33H151.694L173.517 172.499L171.727 170.709L148.114 194.33Z" fill="#50E65F" fill-opacity="0.15"/>
<path d="M161.229 194.33H165.015L180.181 179.159L178.291 177.269L161.229 194.33Z" fill="#50E65F" fill-opacity="0.15"/>
<path d="M174.351 194.33H178.331L186.839 185.826L184.849 183.829L174.351 194.33Z" fill="#50E65F" fill-opacity="0.15"/>
<path d="M187.466 194.33H191.653L193.496 192.487L191.406 190.396L187.466 194.33Z" fill="#50E65F" fill-opacity="0.15"/>
<path d="M679.996 196.935H678.641L681.399 199.694L682.08 199.013L679.996 196.935Z" fill="#50E65F" fill-opacity="0.15"/>
<path d="M666.881 196.935H665.318L674.741 206.354L675.522 205.579L666.881 196.935Z" fill="#50E65F" fill-opacity="0.15"/>
<path d="M653.759 196.935H651.996L668.083 213.021L668.958 212.139L653.759 196.935Z" fill="#50E65F" fill-opacity="0.15"/>
<path d="M640.644 196.935H638.681L661.419 219.681L662.4 218.699L640.644 196.935Z" fill="#50E65F" fill-opacity="0.15"/>
<path d="M627.522 196.935H625.358L654.761 226.347L655.843 225.259L627.522 196.935Z" fill="#50E65F" fill-opacity="0.15"/>
<path d="M614.407 196.935H612.036L648.103 233.007L649.285 231.825L614.407 196.935Z" fill="#50E65F" fill-opacity="0.15"/>
<path d="M601.285 196.935H598.721L641.439 239.667L642.728 238.385L601.285 196.935Z" fill="#50E65F" fill-opacity="0.15"/>
<path d="M588.169 196.935H586.313V197.85L634.781 246.334L636.163 244.945L588.169 196.935Z" fill="#50E65F" fill-opacity="0.15"/>
<path d="M586.313 208.198V211.177L628.116 252.994L629.605 251.505L586.313 208.198Z" fill="#50E65F" fill-opacity="0.15"/>
<path d="M586.313 221.324V224.497L621.458 259.654L623.048 258.071L586.313 221.324Z" fill="#50E65F" fill-opacity="0.15"/>
<path d="M586.313 234.443V237.823L614.801 266.321L616.49 264.631L586.313 234.443Z" fill="#50E65F" fill-opacity="0.15"/>
<path d="M586.313 247.57V251.15L608.136 272.981L609.926 271.19L586.313 247.57Z" fill="#50E65F" fill-opacity="0.15"/>
<path d="M586.313 260.689V264.47L601.478 279.641L603.368 277.75L586.313 260.689Z" fill="#50E65F" fill-opacity="0.15"/>
<path d="M586.313 273.81V277.798L594.821 286.308L596.811 284.311L586.313 273.81Z" fill="#50E65F" fill-opacity="0.15"/>
<path d="M586.313 286.936V291.124L588.156 292.968L590.253 290.877L586.313 286.936Z" fill="#50E65F" fill-opacity="0.15"/>
<path d="M197.076 292.36H198.432L195.674 289.595L194.993 290.276L197.076 292.36Z" fill="#50E65F" fill-opacity="0.15"/>
<path d="M210.191 292.36H211.754L202.331 282.934L201.55 283.709L210.191 292.36Z" fill="#50E65F" fill-opacity="0.15"/>
<path d="M223.313 292.36H225.076L208.989 276.268L208.108 277.149L223.313 292.36Z" fill="#50E65F" fill-opacity="0.15"/>
<path d="M236.429 292.361H238.392L215.654 269.608L214.672 270.59L236.429 292.361Z" fill="#50E65F" fill-opacity="0.15"/>
<path d="M249.55 292.36H251.714L222.311 262.948L221.229 264.03L249.55 292.36Z" fill="#50E65F" fill-opacity="0.15"/>
<path d="M262.666 292.361H265.037L228.97 256.281L227.788 257.47L262.666 292.361Z" fill="#50E65F" fill-opacity="0.15"/>
<path d="M275.787 292.36H278.352L235.634 249.621L234.345 250.904L275.787 292.36Z" fill="#50E65F" fill-opacity="0.15"/>
<path d="M288.903 292.36H290.759V291.438L242.291 242.961L240.909 244.344L288.903 292.36Z" fill="#50E65F" fill-opacity="0.15"/>
<path d="M290.76 281.091V278.118L248.95 236.294L247.467 237.784L290.76 281.091Z" fill="#50E65F" fill-opacity="0.15"/>
<path d="M290.759 267.971V264.791L255.614 229.634L254.024 231.224L290.759 267.971Z" fill="#50E65F" fill-opacity="0.15"/>
<path d="M290.759 254.844V251.464L262.272 222.974L260.582 224.657L290.759 254.844Z" fill="#50E65F" fill-opacity="0.15"/>
<path d="M290.759 241.726V238.145L268.929 216.308L267.14 218.098L290.759 241.726Z" fill="#50E65F" fill-opacity="0.15"/>
<path d="M290.759 228.599V224.818L275.594 209.648L273.704 211.538L290.759 228.599Z" fill="#50E65F" fill-opacity="0.15"/>
<path d="M290.759 215.479V211.491L282.252 202.988L280.262 204.978L290.759 215.479Z" fill="#50E65F" fill-opacity="0.15"/>
<path d="M290.759 202.353V198.171L288.916 196.321L286.819 198.418L290.759 202.353Z" fill="#50E65F" fill-opacity="0.15"/>
<path d="M93.6832 0L92.3276 0L95.0856 2.76555L95.7667 2.08418L93.6832 0Z" fill="#50E65F" fill-opacity="0.15"/>
<path d="M80.568 0L79.0054 0L88.4278 9.42559L89.2091 8.64402L80.568 0Z" fill="#50E65F" fill-opacity="0.15"/>
<path d="M67.4461 0L65.6831 0L81.77 16.0856L82.6448 15.2039L67.4461 0Z" fill="#50E65F" fill-opacity="0.15"/>
<path d="M54.331 0L52.3677 0L75.1057 22.7523L76.0873 21.7704L54.331 0Z" fill="#50E65F" fill-opacity="0.15"/>
<path d="M41.209 0L39.0454 0L68.4479 29.4124L69.5297 28.3302L41.209 0Z" fill="#50E65F" fill-opacity="0.15"/>
<path d="M28.0933 0L25.7227 0L61.7896 36.0724L62.9716 34.8901L28.0933 0Z" fill="#50E65F" fill-opacity="0.15"/>
<path d="M14.972 0L12.4077 0L55.1258 42.7391L56.4146 41.4499L14.972 0Z" fill="#50E65F" fill-opacity="0.15"/>
<path d="M1.85643 0L0 0L0 0.915171L48.4676 49.3992L49.85 48.0164L1.85643 0Z" fill="#50E65F" fill-opacity="0.15"/>
<path d="M0 11.2692L0 14.2418L41.8032 56.0591L43.2923 54.5761L0 11.2692Z" fill="#50E65F" fill-opacity="0.15"/>
<path d="M0 24.3889L0 27.5686L35.1454 62.7259L36.7347 61.136L0 24.3889Z" fill="#50E65F" fill-opacity="0.15"/>
<path d="M0 37.5154L0 40.8888L28.4876 69.386L30.1771 67.696L0 37.5154Z" fill="#50E65F" fill-opacity="0.15"/>
<path d="M0 50.6355L0 54.216L21.8231 76.0465L23.6128 74.2563L0 50.6355Z" fill="#50E65F" fill-opacity="0.15"/>
<path d="M0 63.7546L0 67.5422L15.1653 82.7127L17.0552 80.8222L0 63.7546Z" fill="#50E65F" fill-opacity="0.15"/>
<path d="M0 76.8809L0 80.8623L8.50755 89.3727L10.4975 87.382L0 76.8809Z" fill="#50E65F" fill-opacity="0.15"/>
<path d="M0 90.0011L0 94.1895L1.84308 96.0332L3.93992 93.9424L0 90.0011Z" fill="#50E65F" fill-opacity="0.15"/>
<path d="M488.149 196.08L390.652 98.5312V196.08H488.149Z" fill="#50E65F" fill-opacity="0.15"/>
<path d="M781.305 196.08L683.809 98.5312V196.08H781.305Z" fill="#50E65F" fill-opacity="0.15"/>
<path d="M292.489 196.08L194.993 98.5312V196.08H292.489Z" fill="#50E65F" fill-opacity="0.15"/>
<path d="M194.993 98.5312L292.489 196.08V98.5312H194.993Z" fill="#59FF69" fill-opacity="0.2"/>
<path d="M194.993 293.85L292.509 196.321H194.993V293.85Z" fill="#59FF69" fill-opacity="0.2"/>
<path d="M0 98.5312L97.4962 196.08V98.5312H0Z" fill="#50E65F" fill-opacity="0.15"/>
<path d="M97.4961 98.5312L194.992 196.08V98.5312H97.4961Z" fill="#59FF69" fill-opacity="0.2"/>
<path d="M383.08 105.465H292.562V98.5312H390.078L383.08 105.465Z" fill="#50E65F" fill-opacity="0.15"/>
<path d="M372.95 115.606H292.562V107.957H380.589L372.95 115.606Z" fill="#50E65F" fill-opacity="0.15"/>
<path d="M362.813 125.739H292.562V117.944H370.606L362.813 125.739Z" fill="#50E65F" fill-opacity="0.15"/>
<path d="M352.676 135.88H292.562V127.924H360.629L352.676 135.88Z" fill="#50E65F" fill-opacity="0.15"/>
<path d="M342.546 146.02H292.562V137.91H350.646L342.546 146.02Z" fill="#50E65F" fill-opacity="0.15"/>
<path d="M332.409 156.153H292.562V147.897H340.669L332.409 156.153Z" fill="#50E65F" fill-opacity="0.15"/>
<path d="M322.272 166.294H292.562V157.877H330.686L322.272 166.294Z" fill="#50E65F" fill-opacity="0.15"/>
<path d="M312.141 176.427H292.562V167.863H320.702L312.141 176.427Z" fill="#50E65F" fill-opacity="0.15"/>
<path d="M302.004 186.569H292.562V177.844H310.726L302.004 186.569Z" fill="#50E65F" fill-opacity="0.15"/>
<path d="M292.562 196.02V196.708V187.83H300.742L292.562 196.02Z" fill="#50E65F" fill-opacity="0.15"/>
<path d="M383.08 105.465H292.562V98.5312H390.078L383.08 105.465Z" fill="#50E65F" fill-opacity="0.15"/>
<path d="M372.95 115.606H292.562V107.957H380.589L372.95 115.606Z" fill="#50E65F" fill-opacity="0.15"/>
<path d="M362.813 125.739H292.562V117.944H370.606L362.813 125.739Z" fill="#50E65F" fill-opacity="0.15"/>
<path d="M352.676 135.88H292.562V127.924H360.629L352.676 135.88Z" fill="#50E65F" fill-opacity="0.15"/>
<path d="M342.546 146.02H292.562V137.91H350.646L342.546 146.02Z" fill="#50E65F" fill-opacity="0.15"/>
<path d="M332.409 156.153H292.562V147.897H340.669L332.409 156.153Z" fill="#50E65F" fill-opacity="0.15"/>
<path d="M322.272 166.294H292.562V157.877H330.686L322.272 166.294Z" fill="#50E65F" fill-opacity="0.15"/>
<path d="M312.141 176.427H292.562V167.863H320.702L312.141 176.427Z" fill="#50E65F" fill-opacity="0.15"/>
<path d="M302.004 186.569H292.562V177.844H310.726L302.004 186.569Z" fill="#50E65F" fill-opacity="0.15"/>
<path d="M292.562 196.02V196.708V187.83H300.742L292.562 196.02Z" fill="#50E65F" fill-opacity="0.15"/>
<path d="M488.143 293.85L585.659 196.321H488.143V293.85Z" fill="#50E65F" fill-opacity="0.15"/>
<mask id="mask0_756_1568" style="mask-type:luminance" maskUnits="userSpaceOnUse" x="488" y="196" width="98" height="98">
<path d="M488.143 293.85L585.659 196.321H488.143V293.85Z" fill="white"/>
</mask>
<g mask="url(#mask0_756_1568)">
<path d="M588.684 194.884H583.174L583.154 208.879L588.67 203.942L588.684 194.884Z" fill="#50E65F" fill-opacity="0.15"/>
<path d="M580.858 194.872H575.228L575.195 216.001L580.831 210.957L580.858 194.878V194.872Z" fill="#50E65F" fill-opacity="0.15"/>
<path d="M573.038 194.858H567.288L567.248 223.114L573.004 217.957L573.038 194.851V194.858Z" fill="#50E65F" fill-opacity="0.15"/>
<path d="M565.218 194.845H559.348L559.294 230.236L565.171 224.972L565.218 194.845Z" fill="#50E65F" fill-opacity="0.15"/>
<path d="M557.391 194.838H551.401L551.334 237.363L557.331 231.992L557.385 194.838H557.391Z" fill="#50E65F" fill-opacity="0.15"/>
<path d="M549.571 194.824H543.461L543.388 244.477L549.505 239L549.571 194.824Z" fill="#50E65F" fill-opacity="0.15"/>
<path d="M541.752 194.811H535.521L535.435 251.598L541.672 246.014L541.745 194.811H541.752Z" fill="#50E65F" fill-opacity="0.15"/>
<path d="M533.926 194.798H527.575L527.482 258.719L533.839 253.028L533.926 194.804V194.798Z" fill="#50E65F" fill-opacity="0.15"/>
<path d="M526.106 194.791H519.635L519.528 265.847L526.006 260.042L526.106 194.791Z" fill="#50E65F" fill-opacity="0.15"/>
<path d="M518.286 194.777H511.695L511.582 272.961L518.179 267.049L518.286 194.771V194.777Z" fill="#50E65F" fill-opacity="0.15"/>
<path d="M510.46 194.765L503.748 194.751L503.622 280.083L510.346 274.064L510.466 194.765H510.46Z" fill="#50E65F" fill-opacity="0.15"/>
<path d="M502.64 194.751L495.809 194.738L495.668 287.197L502.513 281.071L502.64 194.745V194.751Z" fill="#50E65F" fill-opacity="0.15"/>
<path d="M487.862 194.731L487.715 294.324L494.68 288.092L494.82 194.744L487.862 194.731Z" fill="#50E65F" fill-opacity="0.15"/>
</g>
<path d="M390.078 293.85L292.562 196.321H390.078V293.85Z" fill="#50E65F" fill-opacity="0.15"/>
<mask id="mask1_756_1568" style="mask-type:luminance" maskUnits="userSpaceOnUse" x="292" y="196" width="99" height="98">
<path d="M390.078 293.85L292.562 196.321H390.078V293.85Z" fill="white"/>
</mask>
<g mask="url(#mask1_756_1568)">
<path d="M289.55 203.936L295.066 208.873L295.046 194.872H289.537L289.55 203.936Z" fill="#50E65F" fill-opacity="0.15"/>
<path d="M297.383 210.95L303.019 215.993L302.986 194.857H297.356L297.383 210.95Z" fill="#50E65F" fill-opacity="0.15"/>
<path d="M305.21 217.964L310.966 223.121L310.926 194.851H305.176L305.21 217.964Z" fill="#50E65F" fill-opacity="0.15"/>
<path d="M313.043 224.978L318.919 230.242L318.866 194.845H312.996L313.043 224.985V224.978Z" fill="#50E65F" fill-opacity="0.15"/>
<path d="M320.876 231.986L326.873 237.356L326.806 194.824H320.816L320.869 231.986H320.876Z" fill="#50E65F" fill-opacity="0.15"/>
<path d="M328.709 239L334.826 244.477L334.753 194.811H328.643L328.709 239Z" fill="#50E65F" fill-opacity="0.15"/>
<path d="M336.542 246.014L342.779 251.598L342.692 194.798H336.462L336.535 246.007L336.542 246.014Z" fill="#50E65F" fill-opacity="0.15"/>
<path d="M344.376 253.028L350.733 258.72L350.64 194.791H344.289L344.376 253.028Z" fill="#50E65F" fill-opacity="0.15"/>
<path d="M352.209 260.042L358.686 265.847L358.579 194.784H352.108L352.209 260.042Z" fill="#50E65F" fill-opacity="0.15"/>
<path d="M360.041 267.05L366.639 272.961L366.526 194.764H359.935L360.041 267.05Z" fill="#50E65F" fill-opacity="0.15"/>
<path d="M367.874 274.064L374.599 280.083L374.472 194.751L367.761 194.765L367.881 274.064H367.874Z" fill="#50E65F" fill-opacity="0.15"/>
<path d="M375.707 281.078L382.552 287.203L382.412 194.744L375.581 194.758L375.707 281.084V281.078Z" fill="#50E65F" fill-opacity="0.15"/>
<path d="M390.352 194.731L383.4 194.744L383.534 288.091L390.499 294.324L390.352 194.731Z" fill="#50E65F" fill-opacity="0.15"/>
</g>
<path d="M194.992 196.321L97.4961 293.87V196.321H194.992Z" fill="#50E65F" fill-opacity="0.15"/>
<mask id="mask2_756_1568" style="mask-type:luminance" maskUnits="userSpaceOnUse" x="97" y="196" width="98" height="98">
<path d="M194.992 196.321L97.4961 293.87V196.321H194.992Z" fill="white"/>
</mask>
<g mask="url(#mask2_756_1568)">
<path d="M105.109 296.882L110.044 291.365L96.0469 291.385V296.896L105.109 296.882Z" fill="#50E65F" fill-opacity="0.15"/>
<path d="M112.121 289.047L117.162 283.409L96.0337 283.443V289.074L112.121 289.047Z" fill="#50E65F" fill-opacity="0.15"/>
<path d="M119.132 281.211L124.287 275.453L96.0269 275.493V281.245L119.132 281.211Z" fill="#50E65F" fill-opacity="0.15"/>
<path d="M126.137 273.376L131.399 267.497L96.0137 267.551V273.422L126.144 273.376H126.137Z" fill="#50E65F" fill-opacity="0.15"/>
<path d="M133.149 265.547L138.518 259.548L96 259.615V265.607L133.149 265.553V265.547Z" fill="#50E65F" fill-opacity="0.15"/>
<path d="M140.161 257.711L145.636 251.592L95.9868 251.665V257.777L140.161 257.711Z" fill="#50E65F" fill-opacity="0.15"/>
<path d="M147.172 249.876L152.755 243.636L95.9731 243.723V249.956L147.165 249.882L147.172 249.876Z" fill="#50E65F" fill-opacity="0.15"/>
<path d="M154.184 242.039L159.874 235.68L95.9668 235.773V242.126L154.184 242.039Z" fill="#50E65F" fill-opacity="0.15"/>
<path d="M161.189 234.204L166.992 227.724L95.9531 227.831V234.304L161.189 234.204Z" fill="#50E65F" fill-opacity="0.15"/>
<path d="M168.201 226.368L174.111 219.768L95.9399 219.881V226.474L168.201 226.368Z" fill="#50E65F" fill-opacity="0.15"/>
<path d="M175.213 218.532L181.229 211.805L95.9268 211.932L95.9401 218.646L175.213 218.525V218.532Z" fill="#50E65F" fill-opacity="0.15"/>
<path d="M182.224 210.696L188.348 203.849L95.9199 203.99L95.9333 210.823L182.231 210.696H182.224Z" fill="#50E65F" fill-opacity="0.15"/>
<path d="M95.9062 196.047L95.9129 203.001L189.236 202.861L195.466 195.9L95.9062 196.047Z" fill="#50E65F" fill-opacity="0.15"/>
</g>
<path d="M285.517 6.93392L194.993 6.93392V0L292.509 0L285.517 6.93392Z" fill="#50E65F" fill-opacity="0.15"/>
<path d="M275.38 17.067L194.993 17.067V9.42499L283.02 9.42499L275.38 17.067Z" fill="#50E65F" fill-opacity="0.15"/>
<path d="M265.243 27.2084L194.993 27.2084V19.4061L273.043 19.4061L265.243 27.2084Z" fill="#50E65F" fill-opacity="0.15"/>
<path d="M255.113 37.3484H194.993V29.3924L263.06 29.3924L255.113 37.3484Z" fill="#50E65F" fill-opacity="0.15"/>
<path d="M244.976 47.482H194.993V39.3791L253.083 39.3791L244.976 47.482Z" fill="#50E65F" fill-opacity="0.15"/>
<path d="M234.846 57.6223H194.993V49.359H243.1L234.846 57.6223Z" fill="#50E65F" fill-opacity="0.15"/>
<path d="M224.709 67.756H194.993V59.3458H233.116L224.709 67.756Z" fill="#50E65F" fill-opacity="0.15"/>
<path d="M214.572 77.8963H194.993V69.3257H223.14L214.572 77.8963Z" fill="#50E65F" fill-opacity="0.15"/>
<path d="M204.442 88.0374H194.993V79.3132H213.156L204.442 88.0374Z" fill="#50E65F" fill-opacity="0.15"/>
<path d="M194.993 97.4819V98.1699V89.2988H203.18L194.993 97.4819Z" fill="#50E65F" fill-opacity="0.15"/>
<path d="M684.41 98.5581L586.914 1.00891V98.5581H684.41Z" fill="#50E65F" fill-opacity="0.15"/>
<path d="M775.001 7.3207L684.483 7.3207V0.38678L782 0.38678L775.001 7.3207Z" fill="#50E65F" fill-opacity="0.15"/>
<path d="M764.871 17.4544L684.483 17.4544V9.81244L772.51 9.81244L764.871 17.4544Z" fill="#50E65F" fill-opacity="0.15"/>
<path d="M754.734 27.5952L684.483 27.5952V19.7928L762.534 19.7928L754.734 27.5952Z" fill="#50E65F" fill-opacity="0.15"/>
<path d="M744.604 37.7284H684.483V29.7791L752.55 29.7791L744.604 37.7284Z" fill="#50E65F" fill-opacity="0.15"/>
<path d="M734.467 47.8691H684.483V39.7595L742.574 39.7595L734.467 47.8691Z" fill="#50E65F" fill-opacity="0.15"/>
<path d="M724.33 58.0092H684.483V49.746H732.59L724.33 58.0092Z" fill="#50E65F" fill-opacity="0.15"/>
<path d="M714.2 68.1427H684.483V59.7325H722.607L714.2 68.1427Z" fill="#50E65F" fill-opacity="0.15"/>
<path d="M704.063 78.2831H684.483V69.7126H712.63L704.063 78.2831Z" fill="#50E65F" fill-opacity="0.15"/>
<path d="M693.933 88.4175H684.483V79.7H702.647L693.933 88.4175Z" fill="#50E65F" fill-opacity="0.15"/>
<path d="M684.483 97.869V98.5571V89.6793H692.67L684.483 97.869Z" fill="#50E65F" fill-opacity="0.15"/>
</svg>
