<?xml version="1.0" encoding="UTF-8"?>
<svg width="526px" height="206px" viewBox="0 0 526 206" version="1.1" xmlns="http://www.w3.org/2000/svg" xmlns:xlink="http://www.w3.org/1999/xlink">
    <defs></defs>
    <g id="Teacher-pages" stroke="none" stroke-width="1" fill="none" fill-rule="evenodd">
        <g id="Pri" transform="translate(-561.000000, -164.000000)" fill="#EEC44F">
            <g id="Combined-Shape-Copy-9" transform="translate(0.000000, 153.000000)">
                <path d="M992.007743,-17.3313333 C988.19441,-13.518 982.01241,-13.518 978.199077,-17.3313333 C974.385743,-21.1446667 974.385743,-27.3266667 978.199077,-31.14 C982.01241,-34.9533333 988.19441,-34.9533333 992.007743,-31.14 C995.821077,-27.3266667 995.821077,-21.1446667 992.007743,-17.3313333 Z M1038.07024,29.6267459 C1034.1648,33.5321158 1027.83648,33.5321158 1023.92953,29.6267459 C1020.02409,25.721376 1020.02409,19.3901706 1023.92953,15.4848007 C1027.83648,11.5794309 1034.1648,11.5794309 1038.07024,15.4848007 C1041.97719,19.3901706 1041.97719,25.721376 1038.07024,29.6267459 Z M1084.07142,75.6267459 C1080.16455,79.5321158 1073.83635,79.5321158 1069.92948,75.6267459 C1066.02411,71.721376 1066.02411,65.3901706 1069.92948,61.4848007 C1073.83635,57.5794309 1080.16455,57.5794309 1084.07142,61.4848007 C1087.97679,65.3901706 1087.97679,71.721376 1084.07142,75.6267459 Z M899.7798,-17.3313333 C895.8783,-13.518 889.5573,-13.518 885.6573,-17.3313333 C881.7558,-21.1446667 881.7558,-27.3266667 885.6573,-31.14 C889.5573,-34.9533333 895.8783,-34.9533333 899.7798,-31.14 C903.6798,-27.3266667 903.6798,-21.1446667 899.7798,-17.3313333 Z M946.070461,29.6267459 C942.165311,33.5321158 935.835964,33.5321158 931.929312,29.6267459 C928.024163,25.721376 928.024163,19.3901706 931.929312,15.4848007 C935.835964,11.5794309 942.165311,11.5794309 946.070461,15.4848007 C949.977113,19.3901706 949.977113,25.721376 946.070461,29.6267459 Z M992.071423,75.6267459 C988.166053,79.5321158 981.834847,79.5321158 977.929477,75.6267459 C974.024108,71.721376 974.024108,65.3901706 977.929477,61.4848007 C981.834847,57.5794309 988.166053,57.5794309 992.071423,61.4848007 C995.976792,65.3901706 995.976792,71.721376 992.071423,75.6267459 Z M1038.07024,121.626746 C1034.1648,125.532116 1027.83648,125.532116 1023.92953,121.626746 C1020.02409,117.721376 1020.02409,111.390171 1023.92953,107.484801 C1027.83648,103.579431 1034.1648,103.579431 1038.07024,107.484801 C1041.97719,111.390171 1041.97719,117.721376 1038.07024,121.626746 Z M1084.07142,167.626526 C1080.16455,171.532189 1073.83635,171.532189 1069.92948,167.626526 C1066.02411,163.720863 1066.02411,157.390684 1069.92948,153.485021 C1073.83635,149.579358 1080.16455,149.579358 1084.07142,153.485021 C1087.97679,157.390684 1087.97679,163.720863 1084.07142,167.626526 Z M808.14125,-17.3313333 C804.24125,-13.518 797.92025,-13.518 794.01875,-17.3313333 C790.11875,-21.1446667 790.11875,-27.3266667 794.01875,-31.14 C797.92025,-34.9533333 804.24125,-34.9533333 808.14125,-31.14 C812.04275,-27.3266667 812.04275,-21.1446667 808.14125,-17.3313333 Z M854.071423,29.6267459 C850.164551,33.5321158 843.834847,33.5321158 839.929477,29.6267459 C836.024108,25.721376 836.024108,19.3901706 839.929477,15.4848007 C843.834847,11.5794309 850.164551,11.5794309 854.071423,15.4848007 C857.976792,19.3901706 857.976792,25.721376 854.071423,29.6267459 Z M900.071588,75.6267459 C896.164936,79.5321158 889.835589,79.5321158 885.930439,75.6267459 C882.023787,71.721376 882.023787,65.3901706 885.930439,61.4848007 C889.835589,57.5794309 896.164936,57.5794309 900.071588,61.4848007 C903.976737,65.3901706 903.976737,71.721376 900.071588,75.6267459 Z M946.070461,121.626746 C942.165311,125.532116 935.835964,125.532116 931.929312,121.626746 C928.024163,117.721376 928.024163,111.390171 931.929312,107.484801 C935.835964,103.579431 942.165311,103.579431 946.070461,107.484801 C949.977113,111.390171 949.977113,117.721376 946.070461,121.626746 Z M992.071423,167.626526 C988.166053,171.532189 981.834847,171.532189 977.929477,167.626526 C974.024108,163.720863 974.024108,157.390684 977.929477,153.485021 C981.834847,149.579358 988.166053,149.579358 992.071423,153.485021 C995.976792,157.390684 995.976792,163.720863 992.071423,167.626526 Z M1038.07024,213.626746 C1034.1648,217.532116 1027.83648,217.532116 1023.92953,213.626746 C1020.02409,209.721376 1020.02409,203.390171 1023.92953,199.484801 C1027.83648,195.579431 1034.1648,195.579431 1038.07024,199.484801 C1041.97719,203.390171 1041.97719,209.721376 1038.07024,213.626746 Z M1084.07142,259.626746 C1080.16455,263.532116 1073.83635,263.532116 1069.92948,259.626746 C1066.02411,255.721376 1066.02411,249.390171 1069.92948,245.484801 C1073.83635,241.579431 1080.16455,241.579431 1084.07142,245.484801 C1087.97679,249.390171 1087.97679,255.721376 1084.07142,259.626746 Z M716.0039,-17.3313333 C712.1039,-13.518 705.7829,-13.518 701.8814,-17.3313333 C697.9814,-21.1446667 697.9814,-27.3266667 701.8814,-31.14 C705.7829,-34.9533333 712.1039,-34.9533333 716.0039,-31.14 C719.9054,-27.3266667 719.9054,-21.1446667 716.0039,-17.3313333 Z M762.071533,29.6267459 C758.164807,33.5321158 751.836844,33.5321158 747.93162,29.6267459 C744.023393,25.721376 744.023393,19.3901706 747.93162,15.4848007 C751.836844,11.5794309 758.164807,11.5794309 762.071533,15.4848007 C765.976756,19.3901706 765.976756,25.721376 762.071533,29.6267459 Z M808.070461,75.6267459 C804.165311,79.5321158 797.835964,79.5321158 793.929312,75.6267459 C790.024163,71.721376 790.024163,65.3901706 793.929312,61.4848007 C797.835964,57.5794309 804.165311,57.5794309 808.070461,61.4848007 C811.977113,65.3901706 811.977113,71.721376 808.070461,75.6267459 Z M854.071423,121.626746 C850.164551,125.532116 843.834847,125.532116 839.929477,121.626746 C836.024108,117.721376 836.024108,111.390171 839.929477,107.484801 C843.834847,103.579431 850.164551,103.579431 854.071423,107.484801 C857.976792,111.390171 857.976792,117.721376 854.071423,121.626746 Z M900.071588,167.626526 C896.164936,171.532189 889.835589,171.532189 885.930439,167.626526 C882.023787,163.720863 882.023787,157.390684 885.930439,153.485021 C889.835589,149.579358 896.164936,149.579358 900.071588,153.485021 C903.976737,157.390684 903.976737,163.720863 900.071588,167.626526 Z M946.070461,213.626746 C942.165311,217.532116 935.835964,217.532116 931.929312,213.626746 C928.024163,209.721376 928.024163,203.390171 931.929312,199.484801 C935.835964,195.579431 942.165311,195.579431 946.070461,199.484801 C949.977113,203.390171 949.977113,209.721376 946.070461,213.626746 Z M992.071423,259.626746 C988.166053,263.532116 981.834847,263.532116 977.929477,259.626746 C974.024108,255.721376 974.024108,249.390171 977.929477,245.484801 C981.834847,241.579431 988.166053,241.579431 992.071423,245.484801 C995.976792,249.390171 995.976792,255.721376 992.071423,259.626746 Z M1038.07024,305.626746 C1034.1648,309.532116 1027.83648,309.532116 1023.92953,305.626746 C1020.02409,301.721376 1020.02409,295.390171 1023.92953,291.484801 C1027.83648,287.579431 1034.1648,287.579431 1038.07024,291.484801 C1041.97719,295.390171 1041.97719,301.721376 1038.07024,305.626746 Z M624.3667,-17.3313333 C620.4652,-13.518 614.1442,-13.518 610.2442,-17.3313333 C606.3442,-21.1446667 606.3442,-27.3266667 610.2442,-31.14 C614.1442,-34.9533333 620.4652,-34.9533333 624.3667,-31.14 C628.2667,-27.3266667 628.2667,-21.1446667 624.3667,-17.3313333 Z M670.071588,29.6267459 C666.164936,33.5321158 659.835589,33.5321158 655.930439,29.6267459 C652.023787,25.721376 652.023787,19.3901706 655.930439,15.4848007 C659.835589,11.5794309 666.164936,11.5794309 670.071588,15.4848007 C673.976737,19.3901706 673.976737,25.721376 670.071588,29.6267459 Z M716.070461,75.6267459 C712.165311,79.5321158 705.835964,79.5321158 701.929312,75.6267459 C698.024163,71.721376 698.024163,65.3901706 701.929312,61.4848007 C705.835964,57.5794309 712.165311,57.5794309 716.070461,61.4848007 C719.977113,65.3901706 719.977113,71.721376 716.070461,75.6267459 Z M762.071533,121.626746 C758.164807,125.532116 751.836844,125.532116 747.93162,121.626746 C744.023393,117.721376 744.023393,111.390171 747.93162,107.484801 C751.836844,103.579431 758.164807,103.579431 762.071533,107.484801 C765.976756,111.390171 765.976756,117.721376 762.071533,121.626746 Z M808.070461,167.626526 C804.165311,171.532189 797.835964,171.532189 793.929312,167.626526 C790.024163,163.720863 790.024163,157.390684 793.929312,153.485021 C797.835964,149.579358 804.165311,149.579358 808.070461,153.485021 C811.977113,157.390684 811.977113,163.720863 808.070461,167.626526 Z M854.071423,213.626746 C850.164551,217.532116 843.834847,217.532116 839.929477,213.626746 C836.024108,209.721376 836.024108,203.390171 839.929477,199.484801 C843.834847,195.579431 850.164551,195.579431 854.071423,199.484801 C857.976792,203.390171 857.976792,209.721376 854.071423,213.626746 Z M900.071588,259.626746 C896.164936,263.532116 889.835589,263.532116 885.930439,259.626746 C882.023787,255.721376 882.023787,249.390171 885.930439,245.484801 C889.835589,241.579431 896.164936,241.579431 900.071588,245.484801 C903.976737,249.390171 903.976737,255.721376 900.071588,259.626746 Z M946.070461,305.626746 C942.165311,309.532116 935.835964,309.532116 931.929312,305.626746 C928.024163,301.721376 928.024163,295.390171 931.929312,291.484801 C935.835964,287.579431 942.165311,287.579431 946.070461,291.484801 C949.977113,295.390171 949.977113,301.721376 946.070461,305.626746 Z M578.0475,28.8996733 C574.1475,32.7996733 567.8265,32.7996733 563.925,28.8996733 C560.025,24.9996733 560.025,18.6771733 563.925,14.7771733 C567.8265,10.8771733 574.1475,10.8771733 578.0475,14.7771733 C581.949,18.6771733 581.949,24.9996733 578.0475,28.8996733 Z M624.071423,75.6267459 C620.164551,79.5321158 613.834847,79.5321158 609.929477,75.6267459 C606.024108,71.721376 606.024108,65.3901706 609.929477,61.4848007 C613.834847,57.5794309 620.164551,57.5794309 624.071423,61.4848007 C627.976792,65.3901706 627.976792,71.721376 624.071423,75.6267459 Z M670.071588,121.626746 C666.164936,125.532116 659.835589,125.532116 655.930439,121.626746 C652.023787,117.721376 652.023787,111.390171 655.930439,107.484801 C659.835589,103.579431 666.164936,103.579431 670.071588,107.484801 C673.976737,111.390171 673.976737,117.721376 670.071588,121.626746 Z M716.070461,167.626526 C712.165311,171.532189 705.835964,171.532189 701.929312,167.626526 C698.024163,163.720863 698.024163,157.390684 701.929312,153.485021 C705.835964,149.579358 712.165311,149.579358 716.070461,153.485021 C719.977113,157.390684 719.977113,163.720863 716.070461,167.626526 Z M762.071533,213.626746 C758.164807,217.532116 751.836844,217.532116 747.93162,213.626746 C744.023393,209.721376 744.023393,203.390171 747.93162,199.484801 C751.836844,195.579431 758.164807,195.579431 762.071533,199.484801 C765.976756,203.390171 765.976756,209.721376 762.071533,213.626746 Z M808.070461,259.626746 C804.165311,263.532116 797.835964,263.532116 793.929312,259.626746 C790.024163,255.721376 790.024163,249.390171 793.929312,245.484801 C797.835964,241.579431 804.165311,241.579431 808.070461,245.484801 C811.977113,249.390171 811.977113,255.721376 808.070461,259.626746 Z M854.071423,305.626746 C850.164551,309.532116 843.834847,309.532116 839.929477,305.626746 C836.024108,301.721376 836.024108,295.390171 839.929477,291.484801 C843.834847,287.579431 850.164551,287.579431 854.071423,291.484801 C857.976792,295.390171 857.976792,301.721376 854.071423,305.626746 Z M716.070461,259.626746 C712.165311,263.532116 705.835964,263.532116 701.929312,259.626746 C698.024163,255.721376 698.024163,249.390171 701.929312,245.484801 C705.835964,241.579431 712.165311,241.579431 716.070461,245.484801 C719.977113,249.390171 719.977113,255.721376 716.070461,259.626746 Z M762.071533,305.626746 C758.164807,309.532116 751.836844,309.532116 747.93162,305.626746 C744.023393,301.721376 744.023393,295.390171 747.93162,291.484801 C751.836844,287.579431 758.164807,287.579431 762.071533,291.484801 C765.976756,295.390171 765.976756,301.721376 762.071533,305.626746 Z M624.071423,259.626746 C620.164551,263.532116 613.834847,263.532116 609.929477,259.626746 C606.024108,255.721376 606.024108,249.390171 609.929477,245.484801 C613.834847,241.579431 620.164551,241.579431 624.071423,245.484801 C627.976792,249.390171 627.976792,255.721376 624.071423,259.626746 Z M670.071588,305.626746 C666.164936,309.532116 659.835589,309.532116 655.930439,305.626746 C652.023787,301.721376 652.023787,295.390171 655.930439,291.484801 C659.835589,287.579431 666.164936,287.579431 670.071588,291.484801 C673.976737,295.390171 673.976737,301.721376 670.071588,305.626746 Z M578.0475,305.312023 C574.1475,309.212023 567.8265,309.212023 563.925,305.312023 C560.025,301.412023 560.025,295.089523 563.925,291.189523 C567.8265,287.289523 574.1475,287.289523 578.0475,291.189523 C581.949,295.089523 581.949,301.412023 578.0475,305.312023 Z M1084.5542,-17.3313333 C1080.6527,-13.518 1074.3332,-13.518 1070.4317,-17.3313333 C1066.5317,-21.1446667 1066.5317,-27.3266667 1070.4317,-31.14 C1074.3332,-34.9533333 1080.6527,-34.9533333 1084.5542,-31.14 C1088.4542,-27.3266667 1088.4542,-21.1446667 1084.5542,-17.3313333 Z"></path>
            </g>
        </g>
    </g>
</svg>
