<svg width="110" height="30" viewBox="0 0 110 30" fill="none" xmlns="http://www.w3.org/2000/svg">
<path d="M6.51609 0.0179306C6.33762 0.0179306 6.21865 0.0774184 5.98069 0.196395C5.50479 0.0179301 5.08837 -0.0415588 4.67195 0.315371C4.07707 0.255882 3.83911 0.374859 3.72014 0.612812C3.60116 0.612812 2.70884 0.493837 2.29242 1.08872C1.28112 0.969743 0.983679 1.6836 1.34061 2.33797C1.16214 2.63541 0.924191 2.99234 1.4001 3.58722C1.22163 3.94415 1.34061 4.30108 1.75703 4.7175C1.63805 5.19341 1.876 5.49085 2.23293 5.78829C2.17344 6.44266 2.82782 6.79959 3.00628 6.91857C3.06577 7.2755 3.24423 7.63242 4.01758 7.81089C4.13656 8.34628 4.61246 8.46526 5.02888 8.58424C3.54167 9.41707 2.29242 10.5473 2.29242 13.2243L2.05447 13.5812C0.388797 14.5925 -1.1579 17.8049 1.22163 20.4819C1.4001 21.3147 1.63805 21.9096 1.876 22.564C2.23293 25.1815 4.49349 26.4307 5.08837 26.6092C5.98069 27.2635 6.87301 27.8584 8.12227 28.3343C9.31203 29.5241 10.5613 30 11.87 30H11.9295C13.2383 30 14.4875 29.5241 15.6773 28.3343C16.9265 27.9179 17.8783 27.2635 18.7112 26.6092C19.3061 26.4902 21.5666 25.2409 21.9235 22.564C22.1615 21.9096 22.3994 21.3147 22.5779 20.4819C24.9574 17.8644 23.4107 14.5925 21.7451 13.5812L21.5071 13.2243C21.5071 10.4879 20.2579 9.41707 18.7707 8.58424C19.1871 8.46526 19.663 8.34628 19.782 7.81089C20.5553 7.63242 20.6743 7.2755 20.7933 6.91857C20.9717 6.79959 21.6856 6.38317 21.5666 5.78829C21.9235 5.55034 22.1615 5.19341 22.0425 4.7175C22.4589 4.30108 22.5779 3.94415 22.3994 3.58722C22.8754 2.99234 22.6969 2.6949 22.4589 2.33797C22.8159 1.6836 22.5184 0.969743 21.5071 1.08872C21.0907 0.493837 20.2579 0.612812 20.0794 0.612812C19.9009 0.434347 19.7225 0.255882 19.1276 0.315371C18.7112 -0.0415588 18.2948 0.0179301 17.8189 0.196395C17.2835 -0.220023 16.9265 0.136907 16.5101 0.255883C15.8557 0.0179304 15.6773 0.315371 15.3798 0.434348C14.666 0.255883 14.428 0.612813 14.0711 0.969742H13.6547C12.5839 1.62411 12.0485 2.87337 11.8105 3.52774C11.6321 2.87337 11.0967 1.56462 9.9664 0.969742H9.54999C9.19306 0.612813 9.01459 0.315371 8.24124 0.434348C7.9438 0.315371 7.76534 0.0179304 7.11097 0.255883C7.05148 0.136907 6.81353 -0.0415576 6.51609 0.0179306Z" fill="black"/>
<path d="M4.37418 2.75445C7.22961 4.24166 8.95477 5.43142 9.8471 6.38323C9.37119 8.22737 6.93217 8.34634 6.03985 8.28686C6.21831 8.22737 6.39678 8.10839 6.45627 7.92993C6.21831 7.75146 5.44497 7.92993 4.85008 7.63249C5.08804 7.573 5.14753 7.573 5.2665 7.39453C4.73111 7.21607 4.19571 7.09709 3.83878 6.79965C4.01725 6.79965 4.19571 6.85914 4.43367 6.68067C3.95776 6.44272 3.48185 6.20477 3.06544 5.84784C3.30339 5.84784 3.60083 5.84784 3.66032 5.72886C3.2439 5.49091 2.88697 5.19347 2.58953 4.83654C2.94646 4.89603 3.06544 4.83654 3.18441 4.77705C2.88697 4.42012 2.47056 4.18217 2.2326 3.76575C2.47056 3.82524 2.70851 3.88473 2.88697 3.76575C2.768 3.5278 2.29209 3.34933 2.05414 2.81394C2.29209 2.81394 2.58953 2.87343 2.64902 2.81394C2.53004 2.33803 2.29209 2.04059 2.11363 1.74315C2.70851 1.74315 3.54134 1.74315 3.48186 1.68366L3.12493 1.32673C3.66032 1.20776 4.2552 1.32673 4.67162 1.5052C4.85008 1.38622 4.67162 1.20776 4.43367 0.969804C4.90957 1.02929 5.32599 1.14827 5.74241 1.26725C5.92087 1.08878 5.62343 0.910315 5.44497 0.731851C6.15882 0.850827 6.51575 1.08878 6.8132 1.26725C7.05115 1.02929 6.8132 0.850828 6.69422 0.672363C7.22961 0.850828 7.52705 1.14827 7.82449 1.38622C7.94347 1.26725 8.06245 1.14827 7.88398 0.850828C8.3004 1.08878 8.59784 1.32673 8.77631 1.62417C9.01426 1.44571 8.89528 1.26725 8.89528 1.08878C9.3117 1.38622 9.54965 1.74315 9.90658 2.10008C9.96607 2.04059 10.0256 1.92162 10.085 1.68366C11.0369 2.63548 12.4051 4.95552 10.442 5.84784C8.65733 4.5391 6.63473 3.5278 4.37418 2.75445Z" fill="#6CC64A"/>
<path d="M19.6631 2.75445C16.8076 4.24166 15.0825 5.43142 14.1901 6.38323C14.666 8.22737 17.1051 8.34634 17.9974 8.28686C17.8189 8.22737 17.6405 8.10839 17.581 7.92993C17.8189 7.75146 18.5923 7.92993 19.1872 7.63249C18.9492 7.573 18.8897 7.573 18.7707 7.39453C19.3061 7.21607 19.8415 7.09709 20.1984 6.79965C20.02 6.79965 19.8415 6.85914 19.6036 6.68067C20.0795 6.44272 20.5554 6.20477 20.9718 5.84784C20.7338 5.84784 20.4364 5.84784 20.3769 5.72886C20.7933 5.49091 21.1503 5.19347 21.4477 4.83654C21.0908 4.89603 20.9718 4.83654 20.8528 4.77705C21.1503 4.42012 21.5667 4.18217 21.8046 3.76575C21.5667 3.82524 21.3287 3.88473 21.1503 3.76575C21.2692 3.5278 21.7451 3.34933 21.9831 2.81394C21.7451 2.81394 21.4477 2.87343 21.3882 2.81394C21.5072 2.33803 21.7451 2.04059 21.9236 1.74315C21.3287 1.74315 20.4959 1.74315 20.5554 1.68366L20.9123 1.32673C20.3769 1.20776 19.782 1.32673 19.3656 1.5052C19.1872 1.38622 19.3656 1.14827 19.6036 0.969804C19.1277 1.02929 18.7112 1.14827 18.2948 1.26725C18.1164 1.08878 18.4138 0.910315 18.5923 0.731851C17.8784 0.850827 17.5215 1.08878 17.224 1.26725C16.9861 1.02929 17.224 0.850828 17.343 0.672363C16.8076 0.850828 16.5102 1.14827 16.2127 1.38622C16.0938 1.26725 15.9748 1.14827 16.1533 0.850828C15.7368 1.08878 15.4394 1.32673 15.2609 1.62417C15.023 1.44571 15.142 1.26725 15.142 1.08878C14.785 1.44571 14.5471 1.80264 14.1901 2.15957C14.1307 2.10008 14.0712 1.9811 14.0117 1.74315C13.0599 2.69496 11.6916 5.015 13.6547 5.90733C15.3799 4.5391 17.4025 3.5278 19.6631 2.75445Z" fill="#6CC64A"/>
<path d="M15.4981 21.6717C15.4981 23.3968 13.9514 24.8246 12.0478 24.8246C10.1442 24.8246 8.59747 23.4563 8.59747 21.7312C8.59747 21.7312 8.59747 21.7312 8.59747 21.6717C8.59747 19.9465 10.1442 18.5188 12.0478 18.5188C13.9514 18.5188 15.4981 19.887 15.4981 21.6717Z" fill="#C51A4A"/>
<path d="M10.0856 12.689C11.5133 13.6409 11.7513 15.7229 10.6805 17.3886C9.55019 19.0543 7.52759 19.6492 6.09988 18.6974C4.67216 17.7455 4.43421 15.6635 5.50499 13.9978C6.63527 12.3916 8.65787 11.7967 10.0856 12.689Z" fill="#C51A4A"/>
<path d="M13.952 12.57C12.5243 13.5218 12.2863 15.6039 13.3571 17.2695C14.4874 18.9352 16.51 19.5301 17.9377 18.5783C19.3654 17.6265 19.6034 15.5444 18.5326 13.8787C17.4618 12.213 15.3797 11.6182 13.952 12.57Z" fill="#C51A4A"/>
<path d="M3.06546 14.2356C4.61215 13.8192 3.60085 20.5414 2.3516 20.006C0.923881 18.8757 0.507463 15.6634 3.06546 14.2356Z" fill="#C51A4A"/>
<path d="M20.9116 14.1167C19.3649 13.7003 20.3762 20.4224 21.6254 19.887C22.9937 18.8162 23.4696 15.6039 20.9116 14.1167Z" fill="#C51A4A"/>
<path d="M15.7368 9.11966C18.4138 8.70325 20.6149 10.2499 20.5554 13.1054C20.4364 14.1762 14.7255 9.29813 15.7368 9.11966Z" fill="#C51A4A"/>
<path d="M8.36007 9.06021C5.6831 8.6438 3.48203 10.1905 3.54152 13.0459C3.6605 14.1167 9.31188 9.23868 8.36007 9.06021Z" fill="#C51A4A"/>
<path d="M12.048 8.4058C10.4419 8.34631 8.95465 9.59556 8.95465 10.2499C8.95465 11.0828 10.2039 11.9751 12.1075 11.9751C14.0111 11.9751 15.2604 11.2612 15.2604 10.4284C15.2009 9.4171 13.4163 8.4058 12.048 8.4058Z" fill="#C51A4A"/>
<path d="M12.1673 25.7764C13.5355 25.7169 15.4391 26.1928 15.4391 26.9066C15.4391 27.561 13.7735 28.9887 12.1078 28.9887C10.3826 29.0482 8.71697 27.6205 8.71697 27.0851C8.65748 26.3118 10.7991 25.7764 12.1673 25.7764Z" fill="#C51A4A"/>
<path d="M6.99158 21.8502C8.00288 23.04 8.4193 25.0626 7.58646 25.6575C6.81311 26.1334 4.90949 25.9549 3.54126 24.0513C2.64894 22.4451 2.76791 20.8389 3.3628 20.363C4.43359 19.7681 5.8613 20.5415 6.99158 21.8502Z" fill="#C51A4A"/>
<path d="M16.9857 21.4932C15.9149 22.7425 15.32 25.0031 16.0934 25.7169C16.8667 26.2523 18.8298 26.1928 20.317 24.1702C21.3878 22.802 21.0309 20.5414 20.436 19.9465C19.4842 19.2327 18.1754 20.125 16.9857 21.4932Z" fill="#C51A4A"/>
<path d="M31.5606 17.5669V21.6121H29.538V11.4991H33.3453C34.4755 11.4991 35.4274 11.7371 36.0817 12.2725C36.7361 12.8079 37.0335 13.5217 37.0335 14.4736C37.0335 15.009 36.9146 15.4254 36.6171 15.8418C36.3197 16.1987 35.9628 16.4962 35.4274 16.7341C36.0222 16.9126 36.4387 17.21 36.7361 17.6264C36.9741 18.0429 37.1525 18.5782 37.1525 19.1731V19.9465C37.1525 20.2439 37.212 20.5414 37.2715 20.8388C37.331 21.1362 37.45 21.3742 37.6879 21.5527V21.6716H35.6058C35.4274 21.5527 35.3084 21.2552 35.2489 20.8983C35.1894 20.5414 35.1894 20.2439 35.1894 19.887V19.1731C35.1894 18.6377 35.0704 18.2808 34.773 17.9834C34.4755 17.6859 34.1186 17.5669 33.5832 17.5669H31.5606ZM31.5606 16.0203H33.2858C33.8807 16.0203 34.2971 15.9013 34.535 15.6633C34.8325 15.4254 34.9515 15.0684 34.9515 14.5925C34.9515 14.1166 34.8325 13.7597 34.535 13.4623C34.2376 13.1648 33.8212 13.0458 33.2858 13.0458H31.5011V16.0203H31.5606Z" fill="black"/>
<path d="M43.2198 21.6123C43.1603 21.4338 43.1008 21.2553 43.0413 21.0769C42.9818 20.8984 42.9223 20.7199 42.9223 20.482C42.6844 20.8389 42.4464 21.1363 42.0895 21.3743C41.7326 21.6123 41.3161 21.7312 40.8402 21.7312C40.0669 21.7312 39.472 21.5528 38.9961 21.1363C38.5797 20.7199 38.3417 20.1845 38.3417 19.4707C38.3417 18.7568 38.6392 18.1619 39.1746 17.7455C39.7695 17.3291 40.5428 17.1506 41.6731 17.1506H42.8034V16.5558C42.8034 16.1988 42.6844 15.9014 42.5059 15.7229C42.3274 15.5445 42.03 15.4255 41.6731 15.4255C41.3161 15.4255 41.0782 15.485 40.8997 15.6634C40.7213 15.8419 40.6023 16.0204 40.6023 16.3178H38.6392V16.2583C38.5797 15.6039 38.8771 15.0685 39.472 14.5926C40.0669 14.1167 40.8402 13.8788 41.7921 13.8788C42.6844 13.8788 43.3982 14.1167 43.9931 14.5926C44.5285 15.0685 44.826 15.7229 44.826 16.5558V19.6491C44.826 20.0061 44.826 20.363 44.8854 20.6604C44.9449 20.9579 45.0044 21.2553 45.1234 21.6123H43.2198ZM41.3161 20.3035C41.6731 20.3035 41.9705 20.244 42.268 20.0656C42.5654 19.8871 42.7439 19.7086 42.8034 19.4707V18.3999H41.6731C41.2567 18.3999 40.8997 18.5189 40.7213 18.6973C40.4833 18.9353 40.3643 19.1732 40.3643 19.4707C40.3643 19.7086 40.4238 19.9466 40.6023 20.0656C40.8402 20.1845 41.0187 20.3035 41.3161 20.3035Z" fill="black"/>
<path d="M50.4779 19.5895C50.4779 19.3516 50.3589 19.1731 50.1805 18.9946C49.9425 18.8162 49.5856 18.6972 48.9907 18.5782C48.0984 18.3997 47.444 18.1023 46.9681 17.7454C46.4922 17.3885 46.3137 16.9125 46.3137 16.3177C46.3137 15.6633 46.6112 15.1279 47.1466 14.652C47.682 14.1761 48.3958 13.9976 49.3476 13.9976C50.2994 13.9976 51.0728 14.2356 51.6677 14.652C52.2625 15.1279 52.5005 15.6633 52.5005 16.3771V16.4366H50.5374C50.5374 16.1392 50.4184 15.9012 50.2399 15.7228C50.0615 15.5443 49.764 15.4253 49.4071 15.4253C49.0502 15.4253 48.8122 15.4848 48.6338 15.6633C48.4553 15.8418 48.3363 16.0202 48.3363 16.2582C48.3363 16.4961 48.4553 16.6746 48.6338 16.8531C48.8122 16.972 49.2286 17.1505 49.8235 17.2695C50.7753 17.4479 51.4297 17.7454 51.9056 18.1023C52.3815 18.4592 52.56 18.9351 52.56 19.5895C52.56 20.2439 52.2625 20.8388 51.6677 21.2552C51.0728 21.6716 50.2994 21.9096 49.3476 21.9096C48.3363 21.9096 47.563 21.6716 46.9681 21.1362C46.3732 20.6008 46.1353 20.0654 46.1353 19.411V19.3516H47.9794C47.9794 19.768 48.0984 20.0654 48.3958 20.2439C48.6338 20.4223 48.9907 20.5413 49.3476 20.5413C49.7045 20.5413 50.002 20.4818 50.1805 20.3034C50.4184 20.0059 50.4779 19.8275 50.4779 19.5895Z" fill="black"/>
<path d="M60.5904 18.1023C60.5904 19.2326 60.3525 20.1249 59.8171 20.7793C59.2817 21.4336 58.5678 21.7906 57.6755 21.7906C57.2591 21.7906 56.9022 21.7311 56.6047 21.5526C56.3073 21.4336 56.0098 21.1957 55.8314 20.8982V24.527H53.8088V14.1166H55.6529L55.7719 15.0089C56.0098 14.652 56.2478 14.414 56.6047 14.2356C56.9022 14.0571 57.2591 13.9381 57.6755 13.9381C58.6273 13.9381 59.3412 14.295 59.8171 15.0089C60.3525 15.7228 60.5904 16.6746 60.5904 17.8643V18.1023ZM58.5083 17.9238C58.5083 17.21 58.3894 16.6151 58.1514 16.1987C57.9135 15.7822 57.5565 15.5443 57.0806 15.5443C56.7832 15.5443 56.4857 15.6038 56.3073 15.7228C56.0693 15.8417 55.9504 16.0202 55.7719 16.2582V19.5895C55.8909 19.8274 56.0693 19.9464 56.3073 20.0654C56.5452 20.1844 56.7832 20.2439 57.0806 20.2439C57.5565 20.2439 57.9135 20.0654 58.1514 19.649C58.3894 19.292 58.5083 18.7567 58.5083 18.1023V17.9238Z" fill="black"/>
<path d="M68.6223 18.1023C68.6223 19.2326 68.3843 20.1249 67.8489 20.7793C67.373 21.4337 66.5997 21.7906 65.7074 21.7906C65.291 21.7906 64.8745 21.6716 64.5771 21.4932C64.2797 21.3147 63.9822 21.0173 63.7443 20.6603L63.5658 21.6121H61.8406V10.7853H63.8632V14.89C64.1012 14.5925 64.3391 14.3546 64.6366 14.1761C64.934 13.9976 65.291 13.9382 65.7074 13.9382C66.6592 13.9382 67.373 14.2951 67.9084 15.0089C68.3843 15.7228 68.6818 16.6746 68.6818 17.8644V18.1023H68.6223ZM66.5997 17.9239C66.5997 17.21 66.4807 16.6151 66.3023 16.1987C66.0643 15.7823 65.7074 15.5443 65.172 15.5443C64.8745 15.5443 64.5771 15.6038 64.3986 15.7228C64.1607 15.8418 63.9822 16.0202 63.8632 16.3177V19.53C63.9822 19.768 64.1607 19.9465 64.3986 20.0654C64.6366 20.1844 64.8745 20.2439 65.2315 20.2439C65.7669 20.2439 66.1238 20.0654 66.3023 19.7085C66.5402 19.3516 66.5997 18.8162 66.5997 18.1023V17.9239Z" fill="black"/>
<path d="M73.2029 21.7906C72.1321 21.7906 71.2398 21.4336 70.5854 20.7198C69.9311 20.0059 69.6336 19.1136 69.6336 18.0428V17.7454C69.6336 16.6151 69.931 15.7228 70.5259 15.0089C71.1208 14.295 71.9536 13.9381 73.0244 13.9381C74.0357 13.9381 74.8091 14.2356 75.404 14.8304C75.9394 15.4253 76.2368 16.2582 76.2368 17.3289V18.4592H71.7157V18.5187C71.7752 18.9946 71.8942 19.411 72.1916 19.768C72.489 20.0654 72.9055 20.2439 73.3814 20.2439C73.8573 20.2439 74.2142 20.1844 74.5116 20.1249C74.8091 20.0059 75.1065 19.8869 75.4635 19.7085L75.9988 20.9577C75.7014 21.1957 75.285 21.4336 74.8091 21.6121C74.3332 21.6716 73.7978 21.7906 73.2029 21.7906ZM73.0244 15.5443C72.6675 15.5443 72.3701 15.6633 72.1321 15.9607C71.8942 16.2582 71.7752 16.6151 71.7157 17.091V17.1505H74.2142V16.972C74.2142 16.5556 74.0952 16.1987 73.9168 15.9607C73.7383 15.6633 73.4409 15.5443 73.0244 15.5443Z" fill="black"/>
<path d="M81.3526 15.8418H80.5792C80.2818 15.8418 80.0438 15.9012 79.8059 16.0202C79.6274 16.1392 79.4489 16.3177 79.3895 16.5556V21.6121H77.3669V14.1166H79.2705L79.3895 15.2469C79.5679 14.8305 79.8059 14.533 80.1033 14.3546C80.4008 14.1166 80.6982 13.9976 81.0551 13.9976H81.3526C81.412 13.9976 81.531 14.0571 81.5905 14.0571L81.3526 15.8418Z" fill="black"/>
<path d="M86.3494 15.8418H85.576C85.2786 15.8418 85.0406 15.9012 84.8027 16.0202C84.6242 16.1392 84.4457 16.3177 84.3862 16.5556V21.6121H82.3636V14.1166H84.2673L84.3862 15.2469C84.5647 14.8305 84.8027 14.533 85.1001 14.3546C85.3975 14.1166 85.695 13.9976 86.0519 13.9976H86.3494C86.4088 13.9976 86.5278 14.0571 86.5873 14.0571L86.3494 15.8418Z" fill="black"/>
<path d="M90.2759 18.4594L90.3354 18.8759H90.3949L91.8226 14.1168H94.0236L90.9898 22.7426C90.7518 23.278 90.5138 23.7539 90.0974 24.1108C89.7405 24.4678 89.2051 24.6462 88.4318 24.6462C88.2533 24.6462 88.0748 24.6462 87.9558 24.5867C87.8369 24.5867 87.6584 24.5272 87.4205 24.4678L87.6584 22.9805H87.8369H88.0153C88.3723 22.9805 88.6102 22.9211 88.7887 22.7426C88.9671 22.5641 89.0861 22.3857 89.2051 22.1477L89.4431 21.5528L86.7661 14.0573H88.9671L90.2759 18.4594Z" fill="black"/>
<path d="M100.567 17.9833V21.6716H98.5446V11.5586H102.59C103.78 11.5586 104.672 11.856 105.326 12.4509C105.981 13.0458 106.338 13.8191 106.338 14.771C106.338 15.7228 105.981 16.4961 105.326 17.091C104.672 17.6859 103.72 17.9833 102.59 17.9833H100.567ZM100.567 16.3771H102.59C103.185 16.3771 103.601 16.1987 103.898 15.9012C104.196 15.6038 104.315 15.1874 104.315 14.7115C104.315 14.2356 104.196 13.8191 103.898 13.5217C103.601 13.2243 103.185 13.0458 102.59 13.0458H100.567V16.3771Z" fill="black"/>
<path d="M109.788 12.332H107.765V10.7853H109.788V12.332ZM109.788 21.6121H107.765V14.1166H109.788V21.6121Z" fill="black"/>
</svg>
