<svg width="113" height="59" viewBox="0 0 113 59" fill="none" xmlns="http://www.w3.org/2000/svg">
<path d="M90.6437 13.68V5.605H89.2188V4.256H90.6437V2.622C90.6437 1.71 90.8718 1.045 91.3278 0.627C91.7838 0.209 92.4487 0 93.3227 0H94.2728V1.368H93.5697C93.0884 1.368 92.7464 1.46933 92.5437 1.672C92.3411 1.862 92.2397 2.19133 92.2397 2.66V4.256H94.5577V5.605H92.2397V13.68H90.6437Z" fill="white"/>
<path d="M82.6803 13.908C81.7936 13.908 80.9956 13.7053 80.2863 13.3C79.577 12.8946 79.0133 12.3246 78.5953 11.59C78.19 10.8426 77.9873 9.96862 77.9873 8.96795C77.9873 7.96729 78.1963 7.09962 78.6143 6.36495C79.0323 5.61762 79.596 5.04129 80.3053 4.63595C81.0273 4.23062 81.8316 4.02795 82.7183 4.02795C83.605 4.02795 84.403 4.23062 85.1123 4.63595C85.8216 5.04129 86.379 5.61762 86.7843 6.36495C87.2023 7.09962 87.4113 7.96729 87.4113 8.96795C87.4113 9.96862 87.2023 10.8426 86.7843 11.59C86.3663 12.3246 85.7963 12.8946 85.0743 13.3C84.365 13.7053 83.567 13.908 82.6803 13.908ZM82.6803 12.54C83.225 12.54 83.7316 12.407 84.2003 12.141C84.669 11.875 85.049 11.476 85.3403 10.944C85.6316 10.412 85.7773 9.75329 85.7773 8.96795C85.7773 8.18262 85.6316 7.52395 85.3403 6.99195C85.0616 6.45995 84.688 6.06095 84.2193 5.79495C83.7506 5.52895 83.2503 5.39595 82.7183 5.39595C82.1736 5.39595 81.667 5.52895 81.1983 5.79495C80.7296 6.06095 80.3496 6.45995 80.0583 6.99195C79.767 7.52395 79.6213 8.18262 79.6213 8.96795C79.6213 9.75329 79.767 10.412 80.0583 10.944C80.3496 11.476 80.7233 11.875 81.1793 12.141C81.648 12.407 82.1483 12.54 82.6803 12.54Z" fill="white"/>
<path d="M65.7776 13.908C64.8783 13.908 64.0803 13.7053 63.3836 13.3C62.6869 12.882 62.1359 12.3056 61.7306 11.571C61.3379 10.8363 61.1416 9.96862 61.1416 8.96795C61.1416 7.97995 61.3379 7.11862 61.7306 6.38395C62.1233 5.63662 62.6679 5.06029 63.3646 4.65495C64.0739 4.23695 64.8909 4.02795 65.8156 4.02795C66.7276 4.02795 67.5129 4.23695 68.1716 4.65495C68.8429 5.06029 69.3559 5.59862 69.7106 6.26995C70.0653 6.94129 70.2426 7.66329 70.2426 8.43595C70.2426 8.57529 70.2363 8.71462 70.2236 8.85395C70.2236 8.99329 70.2236 9.15162 70.2236 9.32895H62.7186C62.7566 10.051 62.9213 10.6526 63.2126 11.134C63.5166 11.6026 63.8903 11.9573 64.3336 12.198C64.7896 12.4386 65.2709 12.559 65.7776 12.559C66.4363 12.559 66.9873 12.407 67.4306 12.103C67.8739 11.799 68.1969 11.3873 68.3996 10.868H69.9766C69.7233 11.742 69.2356 12.4703 68.5136 13.053C67.8043 13.623 66.8923 13.908 65.7776 13.908ZM65.7776 5.37695C65.0176 5.37695 64.3399 5.61129 63.7446 6.07995C63.1619 6.53595 62.8263 7.20729 62.7376 8.09395H68.6656C68.6276 7.24529 68.3363 6.58029 67.7916 6.09895C67.2469 5.61762 66.5756 5.37695 65.7776 5.37695Z" fill="white"/>
<path d="M44.0449 13.68V4.25595H45.4889L45.6029 5.62395C45.9069 5.11729 46.3123 4.72462 46.8189 4.44595C47.3256 4.16729 47.8956 4.02795 48.5289 4.02795C49.2763 4.02795 49.9159 4.17995 50.4479 4.48395C50.9926 4.78795 51.4106 5.25029 51.7019 5.87095C52.0313 5.30095 52.4809 4.85129 53.0509 4.52195C53.6336 4.19262 54.2606 4.02795 54.9319 4.02795C56.0593 4.02795 56.9586 4.36995 57.6299 5.05395C58.3013 5.72529 58.6369 6.76395 58.6369 8.16995V13.68H57.0599V8.34095C57.0599 7.36562 56.8636 6.63095 56.4709 6.13695C56.0783 5.64295 55.5146 5.39595 54.7799 5.39595C54.0199 5.39595 53.3866 5.69362 52.8799 6.28895C52.3859 6.87162 52.1389 7.70762 52.1389 8.79695V13.68H50.5429V8.34095C50.5429 7.36562 50.3466 6.63095 49.9539 6.13695C49.5613 5.64295 48.9976 5.39595 48.2629 5.39595C47.5156 5.39595 46.8886 5.69362 46.3819 6.28895C45.8879 6.87162 45.6409 7.70762 45.6409 8.79695V13.68H44.0449Z" fill="white"/>
<path d="M36.5944 13.908C35.7077 13.908 34.9097 13.7053 34.2004 13.3C33.491 12.8946 32.9274 12.3246 32.5094 11.59C32.104 10.8426 31.9014 9.96862 31.9014 8.96795C31.9014 7.96729 32.1104 7.09962 32.5284 6.36495C32.9464 5.61762 33.51 5.04129 34.2194 4.63595C34.9414 4.23062 35.7457 4.02795 36.6324 4.02795C37.519 4.02795 38.317 4.23062 39.0264 4.63595C39.7357 5.04129 40.293 5.61762 40.6984 6.36495C41.1164 7.09962 41.3254 7.96729 41.3254 8.96795C41.3254 9.96862 41.1164 10.8426 40.6984 11.59C40.2804 12.3246 39.7104 12.8946 38.9884 13.3C38.279 13.7053 37.481 13.908 36.5944 13.908ZM36.5944 12.54C37.139 12.54 37.6457 12.407 38.1144 12.141C38.583 11.875 38.963 11.476 39.2544 10.944C39.5457 10.412 39.6914 9.75329 39.6914 8.96795C39.6914 8.18262 39.5457 7.52395 39.2544 6.99195C38.9757 6.45995 38.602 6.06095 38.1334 5.79495C37.6647 5.52895 37.1644 5.39595 36.6324 5.39595C36.0877 5.39595 35.581 5.52895 35.1124 5.79495C34.6437 6.06095 34.2637 6.45995 33.9724 6.99195C33.681 7.52395 33.5354 8.18262 33.5354 8.96795C33.5354 9.75329 33.681 10.412 33.9724 10.944C34.2637 11.476 34.6374 11.875 35.0934 12.141C35.562 12.407 36.0624 12.54 36.5944 12.54Z" fill="white"/>
<path d="M19 13.68V0.380005H20.596V6.25101H27.493V0.380005H29.089V13.68H27.493V7.56201H20.596V13.68H19Z" fill="white"/>
<path d="M93.4268 58.68V49.256H94.8708L94.9658 50.947C95.2698 50.3516 95.7068 49.883 96.2768 49.541C96.8468 49.199 97.4928 49.028 98.2148 49.028C99.3294 49.028 100.216 49.37 100.875 50.054C101.546 50.7253 101.882 51.764 101.882 53.17V58.68H100.286V53.341C100.286 51.3776 99.4751 50.396 97.8538 50.396C97.0431 50.396 96.3654 50.6936 95.8208 51.289C95.2888 51.8716 95.0228 52.7076 95.0228 53.797V58.68H93.4268Z" fill="white"/>
<path d="M85.9762 58.908C85.0895 58.908 84.2915 58.7053 83.5822 58.3C82.8729 57.8946 82.3092 57.3246 81.8912 56.59C81.4859 55.8426 81.2832 54.9686 81.2832 53.968C81.2832 52.9673 81.4922 52.0996 81.9102 51.365C82.3282 50.6176 82.8919 50.0413 83.6012 49.636C84.3232 49.2306 85.1275 49.028 86.0142 49.028C86.9009 49.028 87.6989 49.2306 88.4082 49.636C89.1175 50.0413 89.6749 50.6176 90.0802 51.365C90.4982 52.0996 90.7072 52.9673 90.7072 53.968C90.7072 54.9686 90.4982 55.8426 90.0802 56.59C89.6622 57.3246 89.0922 57.8946 88.3702 58.3C87.6609 58.7053 86.8629 58.908 85.9762 58.908ZM85.9762 57.54C86.5209 57.54 87.0275 57.407 87.4962 57.141C87.9649 56.875 88.3449 56.476 88.6362 55.944C88.9275 55.412 89.0732 54.7533 89.0732 53.968C89.0732 53.1826 88.9275 52.524 88.6362 51.992C88.3575 51.46 87.9839 51.061 87.5152 50.795C87.0465 50.529 86.5462 50.396 86.0142 50.396C85.4695 50.396 84.9629 50.529 84.4942 50.795C84.0255 51.061 83.6455 51.46 83.3542 51.992C83.0629 52.524 82.9172 53.1826 82.9172 53.968C82.9172 54.7533 83.0629 55.412 83.3542 55.944C83.6455 56.476 84.0192 56.875 84.4752 57.141C84.9439 57.407 85.4442 57.54 85.9762 57.54Z" fill="white"/>
<path d="M77.6059 47.166C77.2892 47.166 77.0232 47.0647 76.8079 46.862C76.6052 46.6467 76.5039 46.3807 76.5039 46.064C76.5039 45.76 76.6052 45.5067 76.8079 45.304C77.0232 45.1013 77.2892 45 77.6059 45C77.9099 45 78.1696 45.1013 78.3849 45.304C78.6002 45.5067 78.7079 45.76 78.7079 46.064C78.7079 46.3807 78.6002 46.6467 78.3849 46.862C78.1696 47.0647 77.9099 47.166 77.6059 47.166ZM76.8079 58.68V49.256H78.4039V58.68H76.8079Z" fill="white"/>
<path d="M72.5125 58.68C71.6512 58.68 70.9735 58.471 70.4795 58.053C69.9855 57.635 69.7385 56.8813 69.7385 55.792V50.605H68.1045V49.256H69.7385L69.9475 46.995H71.3345V49.256H74.1085V50.605H71.3345V55.792C71.3345 56.3873 71.4548 56.7927 71.6955 57.008C71.9362 57.2107 72.3605 57.312 72.9685 57.312H73.9565V58.68H72.5125Z" fill="white"/>
<path d="M61.4042 58.908C60.6189 58.908 59.9665 58.775 59.4472 58.509C58.9279 58.243 58.5415 57.8883 58.2882 57.445C58.0349 57.0016 57.9082 56.5203 57.9082 56.001C57.9082 55.0383 58.2755 54.2973 59.0102 53.778C59.7449 53.2586 60.7455 52.999 62.0122 52.999H64.5582V52.885C64.5582 52.0616 64.3429 51.441 63.9122 51.023C63.4815 50.5923 62.9052 50.377 62.1832 50.377C61.5625 50.377 61.0242 50.5353 60.5682 50.852C60.1249 51.156 59.8462 51.6056 59.7322 52.201H58.0982C58.1615 51.517 58.3895 50.9406 58.7822 50.472C59.1875 50.0033 59.6879 49.6486 60.2832 49.408C60.8785 49.1546 61.5119 49.028 62.1832 49.028C63.5005 49.028 64.4885 49.3826 65.1472 50.092C65.8185 50.7886 66.1542 51.7196 66.1542 52.885V58.68H64.7292L64.6342 56.989C64.3682 57.521 63.9755 57.977 63.4562 58.357C62.9495 58.7243 62.2655 58.908 61.4042 58.908ZM61.6512 57.559C62.2592 57.559 62.7785 57.4006 63.2092 57.084C63.6525 56.7673 63.9882 56.3556 64.2162 55.849C64.4442 55.3423 64.5582 54.8103 64.5582 54.253V54.234H62.1452C61.2079 54.234 60.5429 54.3986 60.1502 54.728C59.7702 55.0446 59.5802 55.4436 59.5802 55.925C59.5802 56.419 59.7575 56.818 60.1122 57.122C60.4795 57.4133 60.9925 57.559 61.6512 57.559Z" fill="white"/>
<path d="M51.2652 58.908C50.3658 58.908 49.5552 58.7053 48.8332 58.3C48.1238 57.882 47.5602 57.3056 47.1422 56.571C46.7368 55.8236 46.5342 54.956 46.5342 53.968C46.5342 52.98 46.7368 52.1186 47.1422 51.384C47.5602 50.6366 48.1238 50.0603 48.8332 49.655C49.5552 49.237 50.3658 49.028 51.2652 49.028C52.3798 49.028 53.3172 49.3193 54.0772 49.902C54.8498 50.4846 55.3375 51.2636 55.5402 52.239H53.9062C53.7795 51.6563 53.4692 51.2066 52.9752 50.89C52.4812 50.5606 51.9048 50.396 51.2462 50.396C50.7142 50.396 50.2138 50.529 49.7452 50.795C49.2765 51.061 48.8965 51.46 48.6052 51.992C48.3138 52.524 48.1682 53.1826 48.1682 53.968C48.1682 54.7533 48.3138 55.412 48.6052 55.944C48.8965 56.476 49.2765 56.8813 49.7452 57.16C50.2138 57.426 50.7142 57.559 51.2462 57.559C51.9048 57.559 52.4812 57.4006 52.9752 57.084C53.4692 56.7546 53.7795 56.2923 53.9062 55.697H55.5402C55.3502 56.647 54.8688 57.4196 54.0962 58.015C53.3235 58.6103 52.3798 58.908 51.2652 58.908Z" fill="white"/>
<path d="M38.9996 58.908C37.8849 58.908 36.9982 58.5723 36.3396 57.901C35.6809 57.217 35.3516 56.172 35.3516 54.766V49.256H36.9476V54.595C36.9476 56.5583 37.7519 57.54 39.3606 57.54C40.1839 57.54 40.8616 57.2486 41.3936 56.666C41.9382 56.0706 42.2106 55.2283 42.2106 54.139V49.256H43.8066V58.68H42.3626L42.2486 56.989C41.9572 57.5843 41.5202 58.053 40.9376 58.395C40.3676 58.737 39.7216 58.908 38.9996 58.908Z" fill="white"/>
<path d="M27.4045 58.908C26.4671 58.908 25.6438 58.6927 24.9345 58.262C24.2378 57.8313 23.6931 57.2423 23.3005 56.495C22.9205 55.7477 22.7305 54.899 22.7305 53.949C22.7305 52.999 22.9268 52.1567 23.3195 51.422C23.7121 50.6747 24.2568 50.092 24.9535 49.674C25.6501 49.2433 26.4735 49.028 27.4235 49.028C28.1961 49.028 28.8801 49.1863 29.4755 49.503C30.0708 49.8197 30.5331 50.263 30.8625 50.833V45H32.4585V58.68H31.0145L30.8625 57.122C30.5585 57.578 30.1215 57.9897 29.5515 58.357C28.9815 58.7243 28.2658 58.908 27.4045 58.908ZM27.5755 57.521C28.2088 57.521 28.7661 57.3753 29.2475 57.084C29.7415 56.78 30.1215 56.362 30.3875 55.83C30.6661 55.298 30.8055 54.6773 30.8055 53.968C30.8055 53.2587 30.6661 52.638 30.3875 52.106C30.1215 51.574 29.7415 51.1623 29.2475 50.871C28.7661 50.567 28.2088 50.415 27.5755 50.415C26.9548 50.415 26.3975 50.567 25.9035 50.871C25.4221 51.1623 25.0421 51.574 24.7635 52.106C24.4975 52.638 24.3645 53.2587 24.3645 53.968C24.3645 54.6773 24.4975 55.298 24.7635 55.83C25.0421 56.362 25.4221 56.78 25.9035 57.084C26.3975 57.3753 26.9548 57.521 27.5755 57.521Z" fill="white"/>
<path d="M12 58.68V45.38H20.227V46.691H13.596V51.327H19.657V52.619H13.596V57.369H20.227V58.68H12Z" fill="white"/>
<path d="M113 17H0V42H113V17Z" fill="#59FF69"/>
<path d="M109.776 25.1447H108.606C108.48 25.1447 108.375 25.2468 108.375 25.37V26.3666L107.267 25.2855C107.162 25.1834 107.057 25.1447 106.891 25.1447H103.32C103.176 25.1447 103.049 25.1869 102.945 25.2855L100.666 27.5075C100.562 27.6096 100.522 27.7117 100.522 27.8737V32.5396C100.522 32.7015 100.565 32.8037 100.666 32.9058L102.945 35.1278C103.049 35.2299 103.176 35.2686 103.32 35.2686H106.411C106.555 35.2686 106.66 35.2475 106.786 35.1278L107.79 34.1312C108 33.927 107.895 33.684 107.624 33.684H102.923C102.443 33.684 102.15 33.3988 102.15 32.9304V27.511C102.15 27.0427 102.443 26.7363 102.923 26.7363H107.603C108.104 26.7363 108.375 26.9406 108.375 27.4688V37.0011C108.375 37.4695 108.083 37.7547 107.603 37.7547H102.923C102.443 37.7547 102.15 37.4695 102.15 37.0011V35.9835C102.15 35.8426 102.046 35.7581 101.919 35.7581H100.749C100.623 35.7581 100.518 35.8391 100.518 35.9835V36.6138C100.518 36.7546 100.562 36.8568 100.684 36.98L102.963 39.202C103.067 39.3041 103.172 39.3429 103.338 39.3429H107.202C107.346 39.3429 107.451 39.3006 107.556 39.202L109.834 36.98C109.96 36.8568 110 36.7546 110 36.6138V25.37C110 25.2468 109.917 25.1447 109.769 25.1447M96.7559 35.2686H97.9258C98.0522 35.2686 98.1569 35.1876 98.1569 35.0433V27.8737C98.1569 27.7329 98.1135 27.6096 97.9908 27.5075L95.7341 25.2855C95.6077 25.1834 95.503 25.1447 95.3585 25.1447H92.5602C92.4158 25.1447 92.3111 25.1869 92.1847 25.2855L91.1809 26.2821C90.9715 26.4863 91.0762 26.7293 91.347 26.7293H95.7341C96.2143 26.7293 96.5284 27.0356 96.5284 27.504V35.0397C96.5284 35.1806 96.6115 35.2651 96.7595 35.2651M89.1987 35.2651H90.3685C90.4949 35.2651 90.578 35.1841 90.578 35.0397V25.363C90.578 25.2397 90.4949 25.1376 90.3685 25.1376H89.1987C89.0542 25.1376 88.9676 25.2397 88.9676 25.363V35.0397C88.9676 35.1806 89.0506 35.2651 89.1987 35.2651ZM81.0926 35.2651H83.306C83.4324 35.2651 83.5371 35.1841 83.5371 35.0397V33.8988C83.5371 33.7756 83.4324 33.6734 83.306 33.6734H81.0926C80.9482 33.6734 80.8615 33.7756 80.8615 33.8988V35.0397C80.8615 35.1806 80.9446 35.2651 81.0926 35.2651ZM85.8551 35.2651H86.6495C86.7759 35.2651 86.8806 35.1841 86.8806 35.0397V33.8988C86.8806 33.7756 86.7759 33.6734 86.6495 33.6734H85.458C84.9777 33.6734 84.6853 33.3882 84.6853 32.9199V27.8667C84.6853 27.7258 84.6419 27.6237 84.5192 27.5005L82.2408 25.2785C82.1361 25.1764 82.0314 25.1376 81.8653 25.1376H81.0926C80.9482 25.1376 80.8615 25.2397 80.8615 25.363V26.5039C80.8615 26.6272 80.9446 26.7293 81.0926 26.7293H82.2625C82.7427 26.7293 83.0568 27.0356 83.0568 27.504V32.536C83.0568 32.6769 83.1002 32.779 83.2229 32.9023L85.5013 35.1242C85.606 35.2264 85.6891 35.2651 85.8551 35.2651ZM83.1399 21.6162C82.9954 21.6162 82.8907 21.7184 82.8907 21.8592V23.2255C82.8907 23.3664 82.9954 23.4685 83.1399 23.4685H84.5192C84.6636 23.4685 84.7503 23.3664 84.7503 23.2255V21.8592C84.7503 21.7184 84.6672 21.6162 84.5192 21.6162H83.1399ZM74.5536 26.7293H78.334C78.4784 26.7293 78.5651 26.6272 78.5651 26.5039V25.363C78.5651 25.2397 78.4821 25.1376 78.334 25.1376H75.7632C75.6188 25.1376 75.5141 25.1799 75.4093 25.2785L74.3875 26.275C74.1781 26.4793 74.2828 26.7222 74.5536 26.7222M78.7745 32.3036L77.9802 31.55C77.8971 31.4479 77.7491 31.4479 77.6444 31.55L75.4707 33.6699H74.5717C74.0914 33.6699 73.799 33.3847 73.799 32.9163V22.7325C73.799 22.6093 73.6942 22.5071 73.5679 22.5071H72.398C72.2716 22.5071 72.1669 22.6093 72.1669 22.7325V25.1376H70.7876C70.6612 25.1376 70.5565 25.2397 70.5565 25.363V26.5039C70.5565 26.6272 70.6612 26.7293 70.7876 26.7293H72.1669V32.536C72.1669 32.6769 72.2102 32.779 72.333 32.9023L74.6114 35.1242C74.7161 35.2264 74.8208 35.2651 74.9869 35.2651H75.8643C76.0304 35.2651 76.1351 35.2228 76.2615 35.1031L78.7673 32.6382C78.872 32.536 78.872 32.4128 78.7673 32.3107M67.1119 35.2651H68.2818C68.4082 35.2651 68.4912 35.1841 68.4912 35.0397V25.363C68.4912 25.2397 68.4082 25.1376 68.2818 25.1376H67.1119C66.9675 25.1376 66.8808 25.2397 66.8808 25.363V35.0397C66.8808 35.1806 66.9639 35.2651 67.1119 35.2651ZM62.306 35.2651H64.8769C65.043 35.2651 65.1477 35.244 65.2524 35.1242L66.2742 34.1277C66.4836 33.9235 66.3789 33.6805 66.1081 33.6805H61.9089C61.4286 33.6805 61.1145 33.3952 61.1145 32.9269V25.37C61.1145 25.2468 61.0315 25.1447 60.9051 25.1447H59.7352C59.5908 25.1447 59.5041 25.2468 59.5041 25.37V32.5396C59.5041 32.6804 59.5474 32.8037 59.6485 32.9058L61.9269 35.1278C62.0316 35.2299 62.1363 35.2686 62.3024 35.2686M56.5578 27.5075L54.2794 25.2855C54.1747 25.1834 54.0483 25.1447 53.9039 25.1447H50.8131C50.6687 25.1447 50.564 25.1869 50.4376 25.2855L49.4158 26.2821C49.2064 26.4863 49.3327 26.7293 49.6035 26.7293H54.283C54.7849 26.7293 55.0774 27.0356 55.0774 27.504V32.9234C55.0774 33.3917 54.7849 33.677 54.283 33.677H49.6252C49.1233 33.677 48.8308 33.4727 48.8308 32.9445V25.3665C48.8308 25.2433 48.7478 25.1411 48.6214 25.1411H47.4515C47.3071 25.1411 47.2205 25.2433 47.2205 25.3665V39.1175C47.2205 39.2583 47.3035 39.3429 47.4515 39.3429H48.6214C48.7478 39.3429 48.8308 39.2619 48.8308 39.1175V34.0256L49.9574 35.1242C50.0621 35.2264 50.1668 35.2651 50.3329 35.2651H53.9039C54.0483 35.2651 54.1747 35.2228 54.2794 35.1242L56.5578 32.9023C56.6625 32.8001 56.7022 32.698 56.7022 32.536V27.8702C56.7022 27.7082 56.6589 27.6061 56.5578 27.504M43.0031 35.2651H44.1514C44.2958 35.2651 44.3824 35.1841 44.3824 35.0397V27.8702C44.3824 27.7294 44.3391 27.6061 44.238 27.504L41.9596 25.282C41.8549 25.1799 41.7502 25.1411 41.6058 25.1411H38.7028C38.5584 25.1411 38.4536 25.1834 38.3489 25.282L37.3271 26.2785C37.1177 26.4828 37.2224 26.7258 37.4932 26.7258H41.9849C42.4651 26.7258 42.7793 27.0321 42.7793 27.5005V35.0362C42.7793 35.1771 42.8623 35.2616 43.0104 35.2616M36.2222 35.2616H37.3921C37.5185 35.2616 37.6232 35.1806 37.6232 35.0362V27.8667C37.6232 27.7258 37.5798 27.6026 37.4787 27.5005L35.2004 25.2785C35.0957 25.1764 34.9693 25.1376 34.8249 25.1376H32.839C32.6945 25.1376 32.5898 25.1799 32.4635 25.2785L31.4416 26.275C31.2322 26.4793 31.3586 26.7222 31.6294 26.7222H35.2004C35.7023 26.7222 35.9947 27.0286 35.9947 27.4969V35.0327C35.9947 35.1735 36.0994 35.2581 36.2258 35.2581M29.4593 35.2581H30.6292C30.7556 35.2581 30.8386 35.1771 30.8386 35.0327V25.3559C30.8386 25.2327 30.7556 25.1306 30.6292 25.1306H29.4593C29.3149 25.1306 29.2282 25.2327 29.2282 25.3559V35.0327C29.2282 35.1735 29.3113 35.2581 29.4593 35.2581ZM19.7032 33.6699C19.223 33.6699 18.9305 33.3847 18.9305 32.9163V27.4969C18.9305 27.0286 19.223 26.7222 19.7032 26.7222H24.3827C24.8629 26.7222 25.1554 27.0286 25.1554 27.4969V31.8564L23.3392 33.6699H19.7032ZM20.1004 35.2581H23.693C23.8591 35.2581 23.9855 35.2158 24.0902 35.0961L26.6177 32.6522C26.7224 32.529 26.7838 32.4269 26.7838 32.2649V27.8632C26.7838 27.7012 26.7405 27.5991 26.6394 27.4969L24.361 25.275C24.2563 25.1728 24.1299 25.1341 23.9855 25.1341H20.1004C19.9559 25.1341 19.8296 25.1764 19.7248 25.275L17.4465 27.4969C17.3418 27.5991 17.302 27.7223 17.302 27.8632V32.529C17.302 32.6698 17.3454 32.7931 17.4465 32.8952L19.7248 35.1172C19.8296 35.2193 19.9559 35.2581 20.1004 35.2581ZM5.79469 35.2581H11.3083C11.4744 35.2581 11.5791 35.2158 11.6838 35.1172L14.9406 31.9409C15.0237 31.8599 15.0237 31.7367 14.9406 31.6346L14.1246 30.8387C13.9982 30.7366 13.8935 30.7577 13.7888 30.8599L10.9075 33.6699H5.41557C4.91368 33.6699 4.62121 33.3847 4.62121 32.9163V25.2785L7.3798 22.5881H12.4745C12.9547 22.5881 13.2689 22.8734 13.2689 23.3417V25.4405C13.2689 25.5813 13.3736 25.6658 13.5 25.6658H14.6698C14.7962 25.6658 14.9009 25.5848 14.9009 25.4405L14.8793 23.7291C14.8793 23.5882 14.8359 23.465 14.7348 23.3628L12.4565 21.1409C12.3518 21.0387 12.2254 21 12.081 21H6.98624C6.82014 21 6.71543 21.0423 6.61072 21.1409L3.16609 24.5002C3.06138 24.6024 3 24.7045 3 24.8665V32.5255C3 32.6663 3.04333 32.7896 3.14443 32.8917L5.42279 35.1137C5.5275 35.2158 5.65388 35.2545 5.79831 35.2545" fill="#120540"/>
<path d="M109.776 25.1365H108.606C108.48 25.1365 108.375 25.2387 108.375 25.362V26.3591L107.267 25.2774C107.162 25.1752 107.057 25.1365 106.891 25.1365H103.32C103.176 25.1365 103.049 25.1788 102.944 25.2774L100.666 27.5007C100.561 27.6029 100.522 27.705 100.522 27.8671V32.5356C100.522 32.6977 100.565 32.7999 100.666 32.9021L102.944 35.1253C103.049 35.2275 103.176 35.2663 103.32 35.2663H106.411C106.555 35.2663 106.66 35.2451 106.786 35.1253L107.79 34.1282C108 33.9239 107.895 33.6807 107.624 33.6807H102.923C102.443 33.6807 102.15 33.3953 102.15 32.9267V27.5042C102.15 27.0356 102.443 26.7291 102.923 26.7291H107.602C108.104 26.7291 108.375 26.9334 108.375 27.4619V36.9998C108.375 37.4684 108.083 37.7538 107.602 37.7538H102.923C102.443 37.7538 102.15 37.4684 102.15 36.9998V35.9815C102.15 35.8406 102.045 35.756 101.919 35.756H100.749C100.623 35.756 100.518 35.8371 100.518 35.9815V36.6122C100.518 36.7532 100.561 36.8553 100.684 36.9787L102.962 39.2019C103.067 39.3041 103.172 39.3429 103.338 39.3429H107.202C107.346 39.3429 107.451 39.3006 107.555 39.2019L109.834 36.9787C109.96 36.8553 110 36.7532 110 36.6122V25.362C110 25.2387 109.917 25.1365 109.769 25.1365H109.776ZM96.7627 35.2663H97.9326C98.059 35.2663 98.1637 35.1852 98.1637 35.0408V27.8671C98.1637 27.7262 98.1203 27.6029 97.9976 27.5007L95.7408 25.2774C95.6144 25.1752 95.5097 25.1365 95.3653 25.1365H92.5669C92.4224 25.1365 92.3177 25.1788 92.1914 25.2774L91.1875 26.2745C90.9781 26.4789 91.0828 26.722 91.3536 26.722H95.7408C96.221 26.722 96.5352 27.0286 96.5352 27.4972V35.0373C96.5352 35.1782 96.6182 35.2628 96.7663 35.2628L96.7627 35.2663ZM89.2016 35.2663H90.3715C90.4979 35.2663 90.5809 35.1852 90.5809 35.0408V25.3585C90.5809 25.2351 90.4979 25.133 90.3715 25.133H89.2016C89.0571 25.133 88.9705 25.2351 88.9705 25.3585V35.0408C88.9705 35.1817 89.0535 35.2663 89.2016 35.2663ZM81.0952 35.2663H83.3087C83.4351 35.2663 83.5398 35.1852 83.5398 35.0408V33.8992C83.5398 33.7759 83.4351 33.6737 83.3087 33.6737H81.0952C80.9508 33.6737 80.8641 33.7759 80.8641 33.8992V35.0408C80.8641 35.1817 80.9472 35.2663 81.0952 35.2663ZM85.8579 35.2663H86.6523C86.7787 35.2663 86.8834 35.1852 86.8834 35.0408V33.8992C86.8834 33.7759 86.7787 33.6737 86.6523 33.6737H85.4607C84.9805 33.6737 84.688 33.3883 84.688 32.9197V27.8636C84.688 27.7227 84.6447 27.6205 84.5219 27.4972L82.2435 25.2739C82.1388 25.1717 82.0341 25.133 81.868 25.133H81.0952C80.9508 25.133 80.8641 25.2351 80.8641 25.3585V26.5C80.8641 26.6234 80.9472 26.7255 81.0952 26.7255H82.2652C82.7454 26.7255 83.0595 27.0321 83.0595 27.5007V32.5356C83.0595 32.6766 83.1029 32.7788 83.2256 32.9021L85.5041 35.1253C85.6088 35.2275 85.6918 35.2663 85.8579 35.2663ZM83.1426 21.6095C82.9982 21.6095 82.8934 21.7117 82.8934 21.8527V23.2197C82.8934 23.3607 82.9982 23.4629 83.1426 23.4629H84.5219C84.6664 23.4629 84.753 23.3607 84.753 23.2197V21.8527C84.753 21.7117 84.67 21.6095 84.5219 21.6095H83.1426ZM74.556 26.7255H78.3366C78.481 26.7255 78.5677 26.6234 78.5677 26.5V25.3585C78.5677 25.2351 78.4846 25.133 78.3366 25.133H75.7656C75.6212 25.133 75.5165 25.1752 75.4118 25.2739L74.3899 26.271C74.1805 26.4754 74.2852 26.7185 74.556 26.7185V26.7255ZM78.7771 32.3101L77.9827 31.5561C77.8996 31.4539 77.7516 31.4539 77.6469 31.5561L75.4732 33.6772H74.5741C74.0938 33.6772 73.8013 33.3918 73.8013 32.9232V22.7335C73.8013 22.6102 73.6966 22.508 73.5702 22.508H72.4003C72.274 22.508 72.1692 22.6102 72.1692 22.7335V25.14H70.7899C70.6635 25.14 70.5588 25.2422 70.5588 25.3655V26.5071C70.5588 26.6304 70.6635 26.7326 70.7899 26.7326H72.1692V32.5427C72.1692 32.6836 72.2126 32.7858 72.3353 32.9091L74.6138 35.1324C74.7185 35.2346 74.8232 35.2733 74.9893 35.2733H75.8667C76.0328 35.2733 76.1376 35.231 76.2639 35.1112L78.7699 32.6449C78.8746 32.5427 78.8746 32.4194 78.7699 32.3172L78.7771 32.3101ZM67.1213 35.2663H68.2912C68.4176 35.2663 68.5006 35.1852 68.5006 35.0408V25.3585C68.5006 25.2351 68.4176 25.133 68.2912 25.133H67.1213C66.9769 25.133 66.8902 25.2351 66.8902 25.3585V35.0408C66.8902 35.1817 66.9732 35.2663 67.1213 35.2663ZM62.3153 35.2663H64.8862C65.0523 35.2663 65.157 35.2451 65.2617 35.1253L66.2836 34.1282C66.493 33.9239 66.3883 33.6807 66.1175 33.6807H61.9181C61.4378 33.6807 61.1237 33.3953 61.1237 32.9267V25.3655C61.1237 25.2422 61.0406 25.14 60.9143 25.14H59.7443C59.5999 25.14 59.5132 25.2422 59.5132 25.3655V32.5392C59.5132 32.6801 59.5566 32.8034 59.6577 32.9056L61.9361 35.1289C62.0408 35.231 62.1455 35.2698 62.3116 35.2698L62.3153 35.2663ZM56.5704 27.5007L54.292 25.2774C54.1873 25.1752 54.0609 25.1365 53.9164 25.1365H50.8256C50.6811 25.1365 50.5764 25.1788 50.45 25.2774L49.4282 26.2745C49.2187 26.4789 49.3451 26.722 49.6159 26.722H54.2956C54.7975 26.722 55.09 27.0286 55.09 27.4972V32.9197C55.09 33.3883 54.7975 33.6737 54.2956 33.6737H49.6376C49.1357 33.6737 48.8432 33.4693 48.8432 32.9408V25.3585C48.8432 25.2351 48.7602 25.133 48.6338 25.133H47.4639C47.3194 25.133 47.2328 25.2351 47.2328 25.3585V39.1174C47.2328 39.2583 47.3158 39.3429 47.4639 39.3429H48.6338C48.7602 39.3429 48.8432 39.2618 48.8432 39.1174V34.0225L49.9698 35.1218C50.0745 35.224 50.1792 35.2628 50.3453 35.2628H53.9164C54.0609 35.2628 54.1873 35.2205 54.292 35.1218L56.5704 32.8985C56.6751 32.7964 56.7148 32.6942 56.7148 32.5321V27.8636C56.7148 27.7015 56.6715 27.5993 56.5704 27.4972V27.5007ZM43.0153 35.2663H44.1636C44.308 35.2663 44.3947 35.1852 44.3947 35.0408V27.8671C44.3947 27.7262 44.3513 27.6029 44.2502 27.5007L41.9718 25.2774C41.8671 25.1752 41.7624 25.1365 41.6179 25.1365H38.7148C38.5704 25.1365 38.4657 25.1788 38.361 25.2774L37.3391 26.2745C37.1296 26.4789 37.2344 26.722 37.5052 26.722H41.9971C42.4773 26.722 42.7914 27.0286 42.7914 27.4972V35.0373C42.7914 35.1782 42.8745 35.2628 43.0225 35.2628L43.0153 35.2663ZM36.2269 35.2663H37.3969C37.5232 35.2663 37.628 35.1852 37.628 35.0408V27.8671C37.628 27.7262 37.5846 27.6029 37.4835 27.5007L35.2051 25.2774C35.1004 25.1752 34.974 25.1365 34.8296 25.1365H32.8436C32.6992 25.1365 32.5944 25.1788 32.4681 25.2774L31.4462 26.2745C31.2368 26.4789 31.3631 26.722 31.634 26.722H35.2051C35.707 26.722 35.9995 27.0286 35.9995 27.4972V35.0373C35.9995 35.1782 36.1042 35.2628 36.2306 35.2628L36.2269 35.2663ZM29.4602 35.2663H30.6301C30.7565 35.2663 30.8396 35.1852 30.8396 35.0408V25.3585C30.8396 25.2351 30.7565 25.133 30.6301 25.133H29.4602C29.3158 25.133 29.2291 25.2351 29.2291 25.3585V35.0408C29.2291 35.1817 29.3122 35.2663 29.4602 35.2663ZM19.7037 33.6772C19.2235 33.6772 18.931 33.3918 18.931 32.9232V27.5007C18.931 27.0321 19.2235 26.7255 19.7037 26.7255H24.3834C24.8636 26.7255 25.1561 27.0321 25.1561 27.5007V31.8627L23.3399 33.6772H19.7037ZM20.1009 35.2663H23.6937C23.8598 35.2663 23.9862 35.224 24.0909 35.1042L26.6185 32.659C26.7232 32.5356 26.7846 32.4335 26.7846 32.2714V27.8671C26.7846 27.705 26.7413 27.6029 26.6402 27.5007L24.3617 25.2774C24.257 25.1752 24.1306 25.1365 23.9862 25.1365H20.1009C19.9565 25.1365 19.8301 25.1788 19.7254 25.2774L17.447 27.5007C17.3422 27.6029 17.3025 27.7262 17.3025 27.8671V32.5356C17.3025 32.6766 17.3459 32.7999 17.447 32.9021L19.7254 35.1253C19.8301 35.2275 19.9565 35.2663 20.1009 35.2663ZM5.79479 35.2663H11.3085C11.4746 35.2663 11.5794 35.224 11.6841 35.1253L14.941 31.9472C15.0241 31.8662 15.0241 31.7429 14.941 31.6407L14.125 30.8444C13.9986 30.7422 13.8939 30.7634 13.7892 30.8655L10.9077 33.6772H5.41564C4.91373 33.6772 4.62126 33.3918 4.62126 32.9232V25.2809L7.37994 22.5891H12.4748C12.9551 22.5891 13.2692 22.8745 13.2692 23.3431V25.443C13.2692 25.584 13.3739 25.6685 13.5003 25.6685H14.6702C14.7966 25.6685 14.9013 25.5875 14.9013 25.443L14.8797 23.7306C14.8797 23.5897 14.8363 23.4664 14.7352 23.3642L12.4568 21.1409C12.3521 21.0388 12.2257 21 12.0813 21H6.98636C6.82026 21 6.71555 21.0423 6.61084 21.1409L3.1661 24.5023C3.06138 24.6044 3 24.7066 3 24.8687V32.5321C3 32.673 3.04333 32.7964 3.14443 32.8985L5.42287 35.1218C5.52758 35.224 5.65397 35.2628 5.7984 35.2628L5.79479 35.2663Z" stroke="#120540" stroke-width="0.36" stroke-miterlimit="1.34"/>
</svg>
