<svg width="69" height="68" viewBox="0 0 69 68" fill="none" xmlns="http://www.w3.org/2000/svg">
<g clip-path="url(#clip0_1995_391)">
<path d="M66.8203 67.49L67.0003 67.67L69.2203 65.46V65.09L66.8203 67.49Z" fill="#08034F"/>
<path d="M64.7305 65.4L64.9505 65.61L69.2205 61.34V60.91L64.7305 65.4Z" fill="#08034F"/>
<path d="M62.6504 63.31L62.8904 63.55L69.2204 57.22V56.73L62.6504 63.31Z" fill="#08034F"/>
<path d="M60.5605 61.2201L60.8305 61.5001L69.2205 53.1101V52.5601L60.5605 61.2201Z" fill="#08034F"/>
<path d="M58.4707 59.13L58.7807 59.44L69.2207 48.99V48.38L58.4707 59.13Z" fill="#08034F"/>
<path d="M56.3809 57.04L56.7209 57.38L69.2209 44.88V44.2L56.3809 57.04Z" fill="#08034F"/>
<path d="M54.2891 54.95L54.6691 55.32L69.2191 40.76V40.02L54.2891 54.95Z" fill="#08034F"/>
<path d="M52.2109 52.86L52.6109 53.26L69.2209 36.65V35.84L52.2109 52.86Z" fill="#08034F"/>
<path d="M50.1191 50.77L50.5491 51.21L69.2191 32.53V31.66L50.1191 50.77Z" fill="#08034F"/>
<path d="M48.0293 48.68L48.4993 49.15L69.2193 28.42V27.48L48.0293 48.68Z" fill="#08034F"/>
<path d="M45.9395 46.5901L46.4395 47.0901L69.2195 24.3001V23.3101L45.9395 46.5901Z" fill="#08034F"/>
<path d="M43.8496 44.5L44.3796 45.03L69.2196 20.19V19.13L43.8496 44.5Z" fill="#08034F"/>
<path d="M41.7598 42.4199L42.3298 42.9799L69.2198 16.07V14.95L41.7598 42.4199Z" fill="#08034F"/>
<path d="M39.6797 40.33L40.2697 40.92L69.2197 11.96V10.77L39.6797 40.33Z" fill="#08034F"/>
<path d="M37.5898 38.24L38.2098 38.86L69.2198 7.83997V6.58997L37.5898 38.24Z" fill="#08034F"/>
<path d="M35.5 36.15L36.16 36.8L69.22 3.73003V2.41003L35.5 36.15Z" fill="#08034F"/>
<path d="M67.4502 0L33.4102 34.06L34.1002 34.75L68.8302 0H67.4502Z" fill="#08034F"/>
<path d="M63.2803 0L31.3203 31.97L32.0403 32.69L64.7103 0H63.2803Z" fill="#08034F"/>
<path d="M59.1005 0L29.2305 29.88L29.9905 30.63L60.6005 0H59.1005Z" fill="#08034F"/>
<path d="M54.9204 0L27.1504 27.79L27.9304 28.57L56.4904 0H54.9204Z" fill="#08034F"/>
<path d="M50.7505 0L25.0605 25.7L25.8705 26.52L52.3805 0H50.7505Z" fill="#08034F"/>
<path d="M46.5707 0L22.9707 23.61L23.8207 24.46L48.2607 0H46.5707Z" fill="#08034F"/>
<path d="M42.3909 0L20.8809 21.52L21.7609 22.4L44.1509 0H42.3909Z" fill="#08034F"/>
<path d="M38.2191 0L18.7891 19.43L19.6991 20.34L40.0391 0H38.2191Z" fill="#08034F"/>
<path d="M34.0392 0L16.6992 17.34L17.6492 18.29L35.9192 0H34.0392Z" fill="#08034F"/>
<path d="M29.8591 0L14.6191 15.26L15.5891 16.23L31.8091 0H29.8591Z" fill="#08034F"/>
<path d="M25.6893 0L12.5293 13.17L13.5293 14.17L27.6993 0H25.6893Z" fill="#08034F"/>
<path d="M21.5095 0L10.4395 11.08L11.4795 12.11L23.5795 0H21.5095Z" fill="#08034F"/>
<path d="M17.3296 0L8.34961 8.99L9.41961 10.06L19.4696 0H17.3296Z" fill="#08034F"/>
<path d="M13.1598 0L6.25977 6.9L7.35977 8L15.3598 0H13.1598Z" fill="#08034F"/>
<path d="M8.97969 0L4.17969 4.81L5.30969 5.94L11.2397 0H8.97969Z" fill="#08034F"/>
<path d="M4.79984 0L2.08984 2.72L3.24984 3.88L7.12984 0H4.79984Z" fill="#08034F"/>
<path d="M0.63 0L0 0.63L1.19 1.82L3.02 0H0.63Z" fill="#08034F"/>
</g>
<defs>
<clipPath id="clip0_1995_391">
<rect width="69.22" height="67.67" fill="white"/>
</clipPath>
</defs>
</svg>
