<?xml version="1.0" encoding="UTF-8"?>
<svg id="Layer_2" data-name="Layer 2" xmlns="http://www.w3.org/2000/svg" version="1.1" viewBox="0 0 69.2 67.7">
  <defs>
    <style>
      .cls-1 {
        fill: #59ff69;
        stroke-width: 0px;
      }
    </style>
  </defs>
  <g id="Layer_1-2" data-name="Layer 1-2">
    <polygon class="cls-1" points="0 65.1 0 65.5 2.2 67.7 2.4 67.5 0 65.1"/>
    <polygon class="cls-1" points="0 60.9 0 61.3 4.3 65.6 4.5 65.4 0 60.9"/>
    <polygon class="cls-1" points="0 56.7 0 57.2 6.3 63.6 6.6 63.3 0 56.7"/>
    <polygon class="cls-1" points="0 52.6 0 53.1 8.4 61.5 8.7 61.2 0 52.6"/>
    <polygon class="cls-1" points="0 48.4 0 49 10.4 59.4 10.7 59.1 0 48.4"/>
    <polygon class="cls-1" points="0 44.2 0 44.9 12.5 57.4 12.8 57 0 44.2"/>
    <polygon class="cls-1" points="0 40 0 40.8 14.5 55.3 14.9 55 0 40"/>
    <polygon class="cls-1" points="0 35.8 0 36.7 16.6 53.3 17 52.9 0 35.8"/>
    <polygon class="cls-1" points="0 31.7 0 32.5 18.7 51.2 19.1 50.8 0 31.7"/>
    <polygon class="cls-1" points="0 27.5 0 28.4 20.7 49.2 21.2 48.7 0 27.5"/>
    <polygon class="cls-1" points="0 23.3 0 24.3 22.8 47.1 23.3 46.6 0 23.3"/>
    <polygon class="cls-1" points="0 19.1 0 20.2 24.8 45 25.4 44.5 0 19.1"/>
    <polygon class="cls-1" points="0 15 0 16.1 26.9 43 27.5 42.4 0 15"/>
    <polygon class="cls-1" points="0 10.8 0 12 28.9 40.9 29.5 40.3 0 10.8"/>
    <polygon class="cls-1" points="0 6.6 0 7.8 31 38.9 31.6 38.2 0 6.6"/>
    <polygon class="cls-1" points="0 2.4 0 3.7 33.1 36.8 33.7 36.2 0 2.4"/>
    <polygon class="cls-1" points=".4 0 35.1 34.8 35.8 34.1 1.8 0 .4 0"/>
    <polygon class="cls-1" points="4.5 0 37.2 32.7 37.9 32 5.9 0 4.5 0"/>
    <polygon class="cls-1" points="8.6 0 39.2 30.6 40 29.9 10.1 0 8.6 0"/>
    <polygon class="cls-1" points="12.7 0 41.3 28.6 42.1 27.8 14.3 0 12.7 0"/>
    <polygon class="cls-1" points="16.8 0 43.3 26.5 44.2 25.7 18.5 0 16.8 0"/>
    <polygon class="cls-1" points="21 0 45.4 24.5 46.2 23.6 22.6 0 21 0"/>
    <polygon class="cls-1" points="25.1 0 47.5 22.4 48.3 21.5 26.8 0 25.1 0"/>
    <polygon class="cls-1" points="29.2 0 49.5 20.3 50.4 19.4 31 0 29.2 0"/>
    <polygon class="cls-1" points="33.3 0 51.6 18.3 52.5 17.3 35.2 0 33.3 0"/>
    <polygon class="cls-1" points="37.4 0 53.6 16.2 54.6 15.3 39.4 0 37.4 0"/>
    <polygon class="cls-1" points="41.5 0 55.7 14.2 56.7 13.2 43.5 0 41.5 0"/>
    <polygon class="cls-1" points="45.6 0 57.7 12.1 58.8 11.1 47.7 0 45.6 0"/>
    <polygon class="cls-1" points="49.7 0 59.8 10.1 60.9 9 51.9 0 49.7 0"/>
    <polygon class="cls-1" points="53.9 0 61.9 8 63 6.9 56.1 0 53.9 0"/>
    <polygon class="cls-1" points="58 0 63.9 5.9 65 4.8 60.2 0 58 0"/>
    <polygon class="cls-1" points="62.1 0 66 3.9 67.1 2.7 64.4 0 62.1 0"/>
    <polygon class="cls-1" points="66.2 0 68 1.8 69.2 .6 68.6 0 66.2 0"/>
  </g>
</svg>