<?xml version="1.0" encoding="UTF-8"?><svg id="Layer_2" xmlns="http://www.w3.org/2000/svg" viewBox="0 0 199.91 200.01"><defs><style>.cls-1{fill:#5eff6e;stroke-width:0px;}</style></defs><g id="Layer_1-2"><polygon class="cls-1" points="0 200.01 .45 200.01 199.9 .45 199.9 0 0 200.01"/><polygon class="cls-1" points="10.74 200.01 11.35 200.01 199.91 11.35 199.91 10.74 10.74 200.01"/><polygon class="cls-1" points="21.47 200.01 22.25 200.01 199.91 22.26 199.91 21.48 21.47 200.01"/><polygon class="cls-1" points="32.2 200.01 33.15 200.01 199.91 33.16 199.91 32.22 32.2 200.01"/><polygon class="cls-1" points="42.94 200.01 44.05 200.01 199.9 44.07 199.9 42.96 42.94 200.01"/><polygon class="cls-1" points="53.67 200.01 54.95 200.01 199.9 54.97 199.9 53.7 53.67 200.01"/><polygon class="cls-1" points="64.4 200.01 65.85 200.01 199.91 65.88 199.91 64.44 64.4 200.01"/><polygon class="cls-1" points="75.14 200.01 76.74 200.01 199.91 76.79 199.91 75.17 75.14 200.01"/><polygon class="cls-1" points="85.87 200.01 87.64 200.01 199.91 87.69 199.91 85.91 85.87 200.01"/><polygon class="cls-1" points="96.61 200.01 98.54 200.01 199.9 98.59 199.9 96.65 96.61 200.01"/><polygon class="cls-1" points="107.34 200.01 109.44 200.01 199.91 109.5 199.91 107.39 107.34 200.01"/><polygon class="cls-1" points="118.07 200.01 120.34 200.01 199.9 120.4 199.9 118.13 118.07 200.01"/><polygon class="cls-1" points="128.8 200.01 131.24 200.01 199.9 131.31 199.9 128.87 128.8 200.01"/><polygon class="cls-1" points="139.54 200.01 142.14 200.01 199.9 142.21 199.9 139.61 139.54 200.01"/><polygon class="cls-1" points="150.27 200.01 153.04 200.01 199.91 153.12 199.91 150.35 150.27 200.01"/><polygon class="cls-1" points="161.01 200.01 163.94 200.01 199.91 164.02 199.91 161.09 161.01 200.01"/><polygon class="cls-1" points="171.74 200.01 174.84 200.01 199.91 174.93 199.91 171.83 171.74 200.01"/><polygon class="cls-1" points="182.47 200.01 185.73 200.01 199.9 185.83 199.9 182.57 182.47 200.01"/><polygon class="cls-1" points="193.21 200.01 196.63 200.01 199.9 196.74 199.9 193.31 193.21 200.01"/></g></svg>