<svg width="72" height="68" viewBox="0 0 72 68" fill="none" xmlns="http://www.w3.org/2000/svg">
<path d="M36.1785 58.4755C33.7922 58.5242 31.4029 58.5525 29.0244 58.2991C27.9073 58.1802 27.4176 57.7338 27.2019 56.617C26.9298 55.2126 26.919 53.778 26.719 52.3639C26.4293 50.3232 25.92 48.3555 24.8673 46.5574C24.5776 46.0623 24.1776 45.6549 23.8254 45.2105C21.3005 42.0237 19.922 38.447 20.1922 34.3401C20.4205 30.8852 21.6205 27.788 23.8585 25.1314C26.7493 21.6999 30.4449 19.7497 34.9249 19.3775C39.2429 19.0188 43.0898 20.2809 46.4176 23.0272C49.5668 25.6255 51.439 28.9799 52.0507 33.0186C52.6117 36.7191 51.8478 40.1496 49.8878 43.3237C49.3327 44.2233 48.6839 45.0536 48.0195 45.8762C46.8888 47.2757 46.3727 48.9539 45.9707 50.6711C45.559 52.4321 45.5122 54.24 45.2849 56.0254C45.2458 56.3304 45.1912 56.6355 45.1112 56.9317C44.8927 57.7377 44.3766 58.2123 43.5268 58.2864C42.7834 58.3507 42.039 58.454 41.2946 58.4667C39.5902 58.494 37.8839 58.4755 36.1785 58.4755ZM36.158 56.4142C38.2712 56.4279 40.3815 56.387 42.4917 56.2651C43.0693 56.232 43.1717 55.9494 43.2137 55.4699C43.3405 54.0324 43.4273 52.589 43.6898 51.1662C44.1863 48.4812 45.0166 45.9444 46.8898 43.8578C47.3795 43.313 47.7639 42.6883 48.1473 42.0646C49.718 39.5073 50.3463 36.7268 49.9902 33.7593C49.5415 30.0276 47.84 26.9382 44.9132 24.5749C41.798 22.0595 38.2137 21.0323 34.2429 21.6073C30.2956 22.1784 27.1483 24.1461 24.8419 27.3933C22.7668 30.3141 21.9805 33.5868 22.4439 37.1342C22.7659 39.596 23.8556 41.7391 25.3561 43.6921C25.84 44.3217 26.3971 44.8909 26.7912 45.5945C27.7639 47.3312 28.3512 49.1926 28.6985 51.1408C28.958 52.5968 29.0507 54.0714 29.1854 55.541C29.2234 55.9513 29.3063 56.2193 29.8263 56.2544C31.9346 56.3967 34.0458 56.424 36.158 56.4142Z" fill="black"/>
<path d="M36.1541 65.1202C34.1239 65.1202 32.0936 65.129 30.0634 65.1163C29.0693 65.1095 28.4263 64.211 28.7483 63.3231C28.9522 62.7608 29.401 62.4528 30.0722 62.4499C31.7454 62.4441 33.4175 62.4489 35.0907 62.4489C37.5112 62.4489 39.9307 62.448 42.3512 62.448C42.9249 62.448 43.358 62.6906 43.5971 63.2188C43.8351 63.7432 43.7454 64.2344 43.3795 64.6719C43.0849 65.0247 42.6888 65.1232 42.2449 65.1222C40.2146 65.1183 38.1844 65.1202 36.1541 65.1202Z" fill="black"/>
<path d="M34.0605 24.4774C34.0507 25.0085 33.7493 25.3457 33.0907 25.5358C31.7785 25.9139 30.5854 26.5182 29.5171 27.3719C27.9532 28.6223 26.8439 30.1894 26.1893 32.0791C26.0937 32.3549 26.0146 32.6404 25.7902 32.848C25.4351 33.1765 24.921 33.2359 24.5249 32.9981C24.079 32.7311 23.8956 32.2721 24.0546 31.737C24.4751 30.321 25.1493 29.0306 26.0498 27.8611C27.6761 25.7492 29.7824 24.3244 32.322 23.5301C32.4917 23.4765 32.6654 23.4258 32.842 23.4005C33.4976 23.3079 34.0732 23.8205 34.0605 24.4774Z" fill="black"/>
<path d="M36.1258 67.7311C34.8 67.7311 33.4732 67.7379 32.1473 67.7282C31.4985 67.7233 31.078 67.048 31.2878 66.3814C31.4215 65.9584 31.7141 65.7274 32.1522 65.7255C33.2449 65.7206 34.3376 65.7245 35.4302 65.7245C37.0107 65.7245 38.5922 65.7235 40.1727 65.7235C40.5473 65.7235 40.8302 65.9058 40.9863 66.3024C41.1414 66.6961 41.0829 67.0655 40.8439 67.3939C40.6517 67.659 40.3922 67.7331 40.1024 67.7321C38.7775 67.7292 37.4517 67.7311 36.1258 67.7311Z" fill="black"/>
<path d="M36.1464 61.7852C33.8322 61.7852 31.5181 61.794 29.2039 61.7813C28.0712 61.7745 27.3376 60.8886 27.7044 60.0125C27.9366 59.4579 28.4488 59.1539 29.2137 59.1519C31.121 59.1461 33.0273 59.151 34.9347 59.151C37.6937 59.151 40.4517 59.15 43.2107 59.15C43.8644 59.15 44.3581 59.3887 44.6312 59.9101C44.9025 60.4267 44.8 60.912 44.3834 61.3438C44.0478 61.6917 43.5961 61.7891 43.0908 61.7882C40.7747 61.7833 38.4605 61.7862 36.1464 61.7852Z" fill="black"/>
<path d="M14.4732 53.4731C13.119 54.5665 11.7698 55.6668 10.4098 56.7525C9.7444 57.2837 8.87123 57.0829 8.64684 56.3676C8.50538 55.9144 8.65172 55.4846 9.09855 55.122C10.2107 54.2167 11.3288 53.3181 12.4439 52.4166C14.0576 51.1126 15.6703 49.8077 17.2839 48.5037C17.6664 48.1948 18.0751 48.109 18.4956 48.302C18.9132 48.494 19.0956 48.8419 19.0683 49.3058C19.0459 49.679 18.8303 49.9539 18.5346 50.1917C17.1795 51.2842 15.8273 52.3796 14.4732 53.4731Z" fill="black"/>
<path d="M8.04001 29.4176C6.3483 29.0073 4.65367 28.6048 2.96391 28.1857C2.13659 27.9801 1.76684 27.1653 2.19903 26.5533C2.47318 26.1654 2.9044 26.0212 3.46342 26.1547C4.85854 26.487 6.25269 26.8291 7.64684 27.1663C9.6644 27.6546 11.681 28.1419 13.6985 28.6301C14.1766 28.7461 14.4927 29.018 14.5951 29.4692C14.6966 29.9166 14.5307 30.2732 14.1454 30.5335C13.8351 30.743 13.4859 30.7381 13.1161 30.6485C11.4254 30.2352 9.73269 29.8269 8.04001 29.4176Z" fill="black"/>
<path d="M57.9659 53.4936C59.32 54.587 60.6693 55.6873 62.0293 56.773C62.6947 57.3042 63.5678 57.1034 63.7922 56.3881C63.9337 55.9349 63.7874 55.5061 63.3405 55.1425C62.2283 54.2372 61.1103 53.3386 59.9951 52.4371C58.3815 51.1331 56.7688 49.8282 55.1551 48.5242C54.7727 48.2153 54.3639 48.1295 53.9434 48.3225C53.5259 48.5145 53.3434 48.8624 53.3707 49.3263C53.3932 49.6995 53.6088 49.9744 53.9044 50.2122C55.2605 51.3047 56.6127 52.4001 57.9659 53.4936Z" fill="black"/>
<path d="M64.2703 29.3972C65.962 28.9869 67.6566 28.5844 69.3463 28.1653C70.1737 27.9597 70.5434 27.1449 70.1112 26.5329C69.8371 26.145 69.4059 26.0008 68.8468 26.1343C67.4517 26.4666 66.0576 26.8087 64.6634 27.1459C62.6459 27.6342 60.6293 28.1215 58.6117 28.6097C58.1337 28.7257 57.8176 28.9976 57.7151 29.4488C57.6137 29.8962 57.7795 30.2529 58.1649 30.5131C58.4751 30.7226 58.8244 30.7177 59.1942 30.6281C60.8849 30.2149 62.5776 29.8075 64.2703 29.3972Z" fill="black"/>
<path d="M22.599 9.39974C21.8654 7.8219 21.1249 6.24797 20.401 4.66623C20.0468 3.89242 20.4537 3.09521 21.2029 3.05136C21.6771 3.02407 22.0585 3.27063 22.3025 3.79106C22.9112 5.08919 23.5122 6.39025 24.1171 7.69034C24.9922 9.57029 25.8673 11.4503 26.7415 13.3312C26.9483 13.7766 26.9327 14.1937 26.643 14.5543C26.3551 14.9119 25.9737 15.0045 25.5298 14.8661C25.1727 14.7541 24.9581 14.4783 24.799 14.1342C24.0683 12.5535 23.3327 10.9776 22.599 9.39974Z" fill="black"/>
<path d="M49.6644 9.37057C50.398 7.79273 51.1385 6.21879 51.8624 4.63705C52.2166 3.86324 51.8097 3.06604 51.0605 3.02218C50.5863 2.99489 50.2049 3.24146 49.961 3.76189C49.3522 5.06002 48.7512 6.36108 48.1463 7.66116C47.2712 9.54112 46.3961 11.4211 45.5219 13.302C45.3151 13.7474 45.3307 14.1645 45.6205 14.5251C45.9083 14.8828 46.2897 14.9754 46.7336 14.837C47.0907 14.7249 47.3053 14.4491 47.4644 14.1051C48.1951 12.5243 48.9307 10.9474 49.6644 9.37057Z" fill="black"/>
</svg>
