<?xml version="1.0" encoding="UTF-8"?>
<svg width="30" height="30" viewBox="0 0 30 30" xmlns="http://www.w3.org/2000/svg">
  <title>
    Calendar
  </title>
  <g fill="none">
      <path d="M8.7 1C9.8 1 10.7 1.9 10.7 3L10.7 5.4 19.3 5.4 19.3 3C19.3 1.9 20.2 1 21.3 1L21.6 1C22.7 1 23.6 1.9 23.6 3L23.6 5.4 26 5.4C28.2 5.4 30 7.2 30 9.5L30 24.9C30 27.2 28.2 29 26 29L4 29C1.8 29 0 27.2 0 24.9L0 9.5C0 7.2 1.8 5.4 4 5.4L6.4 5.4 6.4 3C6.4 1.9 7.3 1 8.4 1L8.7 1Z" fill="#333448"/>
      <path d="M6.1 13L23.9 13C25.1 13 26 13.8 26 14.9L26 23.1C26 24.2 25.1 25 23.9 25L6.1 25C4.9 25 4 24.2 4 23.1L4 14.9C4 13.8 4.9 13 6.1 13Z" fill="#FFF"/>
  </g>
</svg>
