<?xml version="1.0" encoding="UTF-8"?>
<svg width="30px" height="30px" viewBox="0 0 30 30" version="1.1" xmlns="http://www.w3.org/2000/svg" xmlns:xlink="http://www.w3.org/1999/xlink">
    <!-- Generator: Sketch 61 (89581) - https://sketch.com -->
    <title>icon/calendar</title>
    <desc>Created with Sketch.</desc>
    <g id="icon/calendar" stroke="none" stroke-width="1" fill="none" fill-rule="evenodd">
        <g id="Group-5" transform="translate(0.000000, 1.000000)">
            <path d="M8.71428571,2.62012634e-14 C9.81885521,2.62012634e-14 10.7142857,0.911612979 10.7142857,2.03614458 L10.714,4.385 L19.285,4.385 L19.2857143,2.03614458 C19.2857143,0.911612979 20.1811448,2.62012634e-14 21.2857143,2.62012634e-14 L21.5714286,2.62012634e-14 C22.6759981,2.62012634e-14 23.5714286,0.911612979 23.5714286,2.03614458 L23.571,4.385 L26,4.38554217 C28.209139,4.38554217 30,6.20876813 30,8.45783133 L30,23.9277108 C30,26.176774 28.209139,28 26,28 L4,28 C1.790861,28 0,26.176774 0,23.9277108 L0,8.45783133 C0,6.20876813 1.790861,4.38554217 4,4.38554217 L6.428,4.385 L6.42857143,2.03614458 C6.42857143,0.911612979 7.32400193,2.62012634e-14 8.42857143,2.62012634e-14 L8.71428571,2.62012634e-14 Z" id="Combined-Shape" fill="#333448"></path>
            <path d="M6.05333333,12 L23.9466667,12 C25.0806914,12 26,12.8314712 26,13.8571429 L26,22.1428571 C26,23.1685288 25.0806914,24 23.9466667,24 L6.05333333,24 C4.91930865,24 4,23.1685288 4,22.1428571 L4,13.8571429 C4,12.8314712 4.91930865,12 6.05333333,12 Z" id="Rectangle-4" fill="#FFFFFF"></path>
        </g>
    </g>
</svg>