<svg xmlns="http://www.w3.org/2000/svg" width="13" height="12" viewBox="0 0 13 12"><title>  Close the section icon</title><g fill="none"><g fill="#FFF"><path d="M10.9-2.4C11.1-2.2 11.3-1.9 11.3-1.6L11.3 5.2C11.3 5.8 10.7 6.3 10.1 6.3 9.4 6.3 8.8 5.8 8.8 5.2L8.8-0.3 3.4-0.3C2.8-0.3 2.3-0.8 2.3-1.5 2.3-2.2 2.8-2.7 3.4-2.7L10.2-2.7C10.5-2.7 10.7-2.6 10.9-2.4Z"/><path d="M10.9 6.6C11.1 6.8 11.3 7.1 11.3 7.4L11.3 14.2C11.3 14.8 10.7 15.3 10.1 15.3 9.4 15.3 8.8 14.8 8.8 14.2L8.8 8.7 3.4 8.7C2.8 8.7 2.3 8.2 2.3 7.5 2.3 6.8 2.8 6.3 3.4 6.3L10.2 6.3C10.5 6.3 10.7 6.4 10.9 6.6Z"/></g></g></svg>