<?xml version="1.0" encoding="UTF-8"?>
<svg width="13px" height="12px" viewBox="0 0 13 12" version="1.1" xmlns="http://www.w3.org/2000/svg" xmlns:xlink="http://www.w3.org/1999/xlink">
    <!-- Generator: Sketch 51.3 (57544) - http://www.bohemiancoding.com/sketch -->
    <title>Close the section</title>
    <g id="Primary-certification" stroke="none" stroke-width="1" fill="none" fill-rule="evenodd">
        <g id="pri-enrolled" transform="translate(-989.000000, -1116.000000)" fill="#FFFFFF">
            <g id="button/small-copy-7" transform="translate(639.000000, 1106.000000)">
                <g id="Group-3" transform="translate(350.000000, 5.000000)">
                    <path d="M10.9342095,2.62213965 C11.1471789,2.82448073 11.2781746,3.09980464 11.2781746,3.40317459 L11.2781746,10.1531746 C11.2781746,10.7744949 10.7287059,11.2781746 10.0509019,11.2781746 C9.37309785,11.2781746 8.82362914,10.7744949 8.82362914,10.1531746 L8.82362914,4.73272005 L3.40317459,4.73272005 C2.78185425,4.73272005 2.27817459,4.18325133 2.27817459,3.50544732 C2.27817459,2.82764331 2.78185425,2.27817459 3.40317459,2.27817459 L10.1531746,2.27817459 C10.4565445,2.27817459 10.7318685,2.40917027 10.9342095,2.62213965 Z" id="Combined-Shape" transform="translate(6.778175, 6.778175) rotate(-225.000000) translate(-6.778175, -6.778175) "></path>
                    <path d="M10.9342095,11.6221397 C11.1471789,11.8244807 11.2781746,12.0998046 11.2781746,12.4031746 L11.2781746,19.1531746 C11.2781746,19.7744949 10.7287059,20.2781746 10.0509019,20.2781746 C9.37309785,20.2781746 8.82362914,19.7744949 8.82362914,19.1531746 L8.82362914,13.73272 L3.40317459,13.73272 C2.78185425,13.73272 2.27817459,13.1832513 2.27817459,12.5054473 C2.27817459,11.8276433 2.78185425,11.2781746 3.40317459,11.2781746 L10.1531746,11.2781746 C10.4565445,11.2781746 10.7318685,11.4091703 10.9342095,11.6221397 Z" id="Combined-Shape" transform="translate(6.778175, 15.778175) rotate(-45.000000) translate(-6.778175, -15.778175) "></path>
                </g>
            </g>
        </g>
    </g>
</svg>