<svg width="64" height="64" viewBox="0 0 64 64" fill="none" xmlns="http://www.w3.org/2000/svg">
<path fill-rule="evenodd" clip-rule="evenodd" d="M0 5C0 2.23858 2.23857 0 5 0H59C61.7614 0 64 2.23858 64 5V45.7783C64 48.5398 61.7614 50.7784 59 50.7784H29.5488L21.3827 62.592C20.1549 64.3682 17.4327 64.012 16.7032 61.9797C16.6533 61.8406 16.6151 61.6976 16.589 61.5521L14.6554 50.7784H5C2.23857 50.7784 0 48.5398 0 45.7784V5ZM5 4C4.44772 4 4 4.44772 4 5V45.7784C4 46.3306 4.44771 46.7784 5 46.7784H18.0014L19.9492 57.6312L27.4512 46.7784H59C59.5523 46.7784 60 46.3306 60 45.7783V5C60 4.44772 59.5523 4 59 4H5Z" fill="#333448"/>
<path d="M10 19C10 17.8954 10.8954 17 12 17H52C53.1046 17 54 17.8954 54 19C54 20.1046 53.1046 21 52 21H12C10.8954 21 10 20.1046 10 19Z" fill="#333448"/>
<path d="M10 31C10 29.8954 10.8954 29 12 29H52C53.1046 29 54 29.8954 54 31C54 32.1046 53.1046 33 52 33H12C10.8954 33 10 32.1046 10 31Z" fill="#333448"/>
</svg>
