<?xml version="1.0" encoding="UTF-8"?>
<svg width="750px" height="190px" viewBox="0 0 750 190" version="1.1" xmlns="http://www.w3.org/2000/svg" xmlns:xlink="http://www.w3.org/1999/xlink">
    <!-- Generator: Sketch 51.3 (57544) - http://www.bohemiancoding.com/sketch -->
    <title>dots</title>
    <desc>Created with Sketch.</desc>
    <defs></defs>
    <g id="static-site-design" stroke="none" stroke-width="1" fill="none" fill-rule="evenodd">
        <g id="Assets" transform="translate(-1260.000000, -855.000000)" fill="#E3E2F3">
            <path d="M2009.6782,998.959307 C2009.6782,1003.27092 2006.18249,1006.76663 2001.87264,1006.76663 C1997.55927,1006.76663 1994.06356,1003.27092 1994.06356,998.959307 C1994.06356,994.647697 1997.55927,991.151987 2001.87264,991.151987 C2006.18249,991.151987 2009.6782,994.647697 2009.6782,998.959307 Z M1964.59497,998.959307 C1964.59497,1003.27092 1961.09926,1006.76663 1956.78765,1006.76663 C1952.47604,1006.76663 1948.98033,1003.27092 1948.98033,998.959307 C1948.98033,994.647697 1952.47604,991.151987 1956.78765,991.151987 C1961.09926,991.151987 1964.59497,994.647697 1964.59497,998.959307 Z M1919.51174,998.959307 C1919.51174,1003.27092 1916.01602,1006.76663 1911.70441,1006.76663 C1907.39105,1006.76663 1903.89709,1003.27092 1903.89709,998.959307 C1903.89709,994.647697 1907.39105,991.151987 1911.70441,991.151987 C1916.01602,991.151987 1919.51174,994.647697 1919.51174,998.959307 Z M1874.4285,998.959307 C1874.4285,1003.27092 1870.93279,1006.76663 1866.62118,1006.76663 C1862.30781,1006.76663 1858.81386,1003.27092 1858.81386,998.959307 C1858.81386,994.647697 1862.30781,991.151987 1866.62118,991.151987 C1870.93279,991.151987 1874.4285,994.647697 1874.4285,998.959307 Z M1829.34545,998.959307 C1829.34545,1003.27092 1825.84974,1006.76663 1821.53813,1006.76663 C1817.22476,1006.76663 1813.73081,1003.27092 1813.73081,998.959307 C1813.73081,994.647697 1817.22476,991.151987 1821.53813,991.151987 C1825.84974,991.151987 1829.34545,994.647697 1829.34545,998.959307 Z M1784.26222,998.959307 C1784.26222,1003.27092 1780.76651,1006.76663 1776.4549,1006.76663 C1772.14153,1006.76663 1768.64758,1003.27092 1768.64758,998.959307 C1768.64758,994.647697 1772.14153,991.151987 1776.4549,991.151987 C1780.76651,991.151987 1784.26222,994.647697 1784.26222,998.959307 Z M1739.17899,998.959307 C1739.17899,1003.27092 1735.68328,1006.76663 1731.37166,1006.76663 C1727.0583,1006.76663 1723.56434,1003.27092 1723.56434,998.959307 C1723.56434,994.647697 1727.0583,991.151987 1731.37166,991.151987 C1735.68328,991.151987 1739.17899,994.647697 1739.17899,998.959307 Z M1694.09417,998.959307 C1694.09417,1003.27092 1690.60022,1006.76663 1686.28861,1006.76663 C1681.97524,1006.76663 1678.48129,1003.27092 1678.48129,998.959307 C1678.48129,994.647697 1681.97524,991.151987 1686.28861,991.151987 C1690.60022,991.151987 1694.09417,994.647697 1694.09417,998.959307 Z M1649.01094,998.959307 C1649.01094,1003.27092 1645.51699,1006.76663 1641.20538,1006.76663 C1636.89201,1006.76663 1633.39806,1003.27092 1633.39806,998.959307 C1633.39806,994.647697 1636.89201,991.151987 1641.20538,991.151987 C1645.51699,991.151987 1649.01094,994.647697 1649.01094,998.959307 Z M1649.01094,1036.64756 C1649.01094,1040.95917 1645.51699,1044.45488 1641.20538,1044.45488 C1636.89201,1044.45488 1633.39806,1040.95917 1633.39806,1036.64756 C1633.39806,1032.33595 1636.89201,1028.84024 1641.20538,1028.84024 C1645.51699,1028.84024 1649.01094,1032.33595 1649.01094,1036.64756 Z M1603.92771,998.959307 C1603.92771,1003.27092 1600.43376,1006.76663 1596.12215,1006.76663 C1591.80878,1006.76663 1588.31483,1003.27092 1588.31483,998.959307 C1588.31483,994.647697 1591.80878,991.151987 1596.12215,991.151987 C1600.43376,991.151987 1603.92771,994.647697 1603.92771,998.959307 Z M1558.84465,998.959307 C1558.84465,1003.27092 1555.3507,1006.76663 1551.03909,1006.76663 C1546.72572,1006.76663 1543.23177,1003.27092 1543.23177,998.959307 C1543.23177,994.647697 1546.72572,991.151987 1551.03909,991.151987 C1555.3507,991.151987 1558.84465,994.647697 1558.84465,998.959307 Z M1513.76142,998.959307 C1513.76142,1003.27092 1510.26747,1006.76663 1505.95586,1006.76663 C1501.64249,1006.76663 1498.14678,1003.27092 1498.14678,998.959307 C1498.14678,994.647697 1501.64249,991.151987 1505.95586,991.151987 C1510.26747,991.151987 1513.76142,994.647697 1513.76142,998.959307 Z M2009.6782,953.876252 C2009.6782,958.187862 2006.18249,961.681814 2001.87264,961.681814 C1997.55927,961.681814 1994.06356,958.187862 1994.06356,953.876252 C1994.06356,949.564641 1997.55927,946.068931 2001.87264,946.068931 C2006.18249,946.068931 2009.6782,949.564641 2009.6782,953.876252 Z M1964.59497,953.876252 C1964.59497,958.187862 1961.09926,961.681814 1956.78765,961.681814 C1952.47604,961.681814 1948.98033,958.187862 1948.98033,953.876252 C1948.98033,949.564641 1952.47604,946.068931 1956.78765,946.068931 C1961.09926,946.068931 1964.59497,949.564641 1964.59497,953.876252 Z M1919.51174,953.876252 C1919.51174,958.187862 1916.01602,961.681814 1911.70441,961.681814 C1907.39105,961.681814 1903.89709,958.187862 1903.89709,953.876252 C1903.89709,949.564641 1907.39105,946.068931 1911.70441,946.068931 C1916.01602,946.068931 1919.51174,949.564641 1919.51174,953.876252 Z M1874.4285,953.876252 C1874.4285,958.187862 1870.93279,961.681814 1866.62118,961.681814 C1862.30781,961.681814 1858.81386,958.187862 1858.81386,953.876252 C1858.81386,949.564641 1862.30781,946.068931 1866.62118,946.068931 C1870.93279,946.068931 1874.4285,949.564641 1874.4285,953.876252 Z M1829.34545,953.876252 C1829.34545,958.187862 1825.84974,961.681814 1821.53813,961.681814 C1817.22476,961.681814 1813.73081,958.187862 1813.73081,953.876252 C1813.73081,949.564641 1817.22476,946.068931 1821.53813,946.068931 C1825.84974,946.068931 1829.34545,949.564641 1829.34545,953.876252 Z M1784.26222,953.876252 C1784.26222,958.187862 1780.76651,961.681814 1776.4549,961.681814 C1772.14153,961.681814 1768.64758,958.187862 1768.64758,953.876252 C1768.64758,949.564641 1772.14153,946.068931 1776.4549,946.068931 C1780.76651,946.068931 1784.26222,949.564641 1784.26222,953.876252 Z M1739.17899,953.876252 C1739.17899,958.187862 1735.68328,961.681814 1731.37166,961.681814 C1727.0583,961.681814 1723.56434,958.187862 1723.56434,953.876252 C1723.56434,949.564641 1727.0583,946.068931 1731.37166,946.068931 C1735.68328,946.068931 1739.17899,949.564641 1739.17899,953.876252 Z M1694.09417,953.876252 C1694.09417,958.187862 1690.60022,961.681814 1686.28861,961.681814 C1681.97524,961.681814 1678.48129,958.187862 1678.48129,953.876252 C1678.48129,949.564641 1681.97524,946.068931 1686.28861,946.068931 C1690.60022,946.068931 1694.09417,949.564641 1694.09417,953.876252 Z M1649.01094,953.876252 C1649.01094,958.187862 1645.51699,961.681814 1641.20538,961.681814 C1636.89201,961.681814 1633.39806,958.187862 1633.39806,953.876252 C1633.39806,949.564641 1636.89201,946.068931 1641.20538,946.068931 C1645.51699,946.068931 1649.01094,949.564641 1649.01094,953.876252 Z M1603.92771,953.876252 C1603.92771,958.187862 1600.43376,961.681814 1596.12215,961.681814 C1591.80878,961.681814 1588.31483,958.187862 1588.31483,953.876252 C1588.31483,949.564641 1591.80878,946.068931 1596.12215,946.068931 C1600.43376,946.068931 1603.92771,949.564641 1603.92771,953.876252 Z M1558.84465,953.876252 C1558.84465,958.187862 1555.3507,961.681814 1551.03909,961.681814 C1546.72572,961.681814 1543.23177,958.187862 1543.23177,953.876252 C1543.23177,949.564641 1546.72572,946.068931 1551.03909,946.068931 C1555.3507,946.068931 1558.84465,949.564641 1558.84465,953.876252 Z M1513.76142,953.876252 C1513.76142,958.187862 1510.26747,961.681814 1505.95586,961.681814 C1501.64249,961.681814 1498.14678,958.187862 1498.14678,953.876252 C1498.14678,949.564641 1501.64249,946.068931 1505.95586,946.068931 C1510.26747,946.068931 1513.76142,949.564641 1513.76142,953.876252 Z M2009.6782,908.79302 C2009.6782,913.10463 2006.18249,916.598582 2001.87264,916.598582 C1997.55927,916.598582 1994.06356,913.10463 1994.06356,908.79302 C1994.06356,904.48141 1997.55927,900.9857 2001.87264,900.9857 C2006.18249,900.9857 2009.6782,904.48141 2009.6782,908.79302 Z M1964.59497,908.79302 C1964.59497,913.10463 1961.09926,916.598582 1956.78765,916.598582 C1952.47604,916.598582 1948.98033,913.10463 1948.98033,908.79302 C1948.98033,904.48141 1952.47604,900.9857 1956.78765,900.9857 C1961.09926,900.9857 1964.59497,904.48141 1964.59497,908.79302 Z M1919.51174,908.79302 C1919.51174,913.10463 1916.01602,916.598582 1911.70441,916.598582 C1907.39105,916.598582 1903.89709,913.10463 1903.89709,908.79302 C1903.89709,904.48141 1907.39105,900.9857 1911.70441,900.9857 C1916.01602,900.9857 1919.51174,904.48141 1919.51174,908.79302 Z M1874.4285,908.79302 C1874.4285,913.10463 1870.93279,916.598582 1866.62118,916.598582 C1862.30781,916.598582 1858.81386,913.10463 1858.81386,908.79302 C1858.81386,904.48141 1862.30781,900.9857 1866.62118,900.9857 C1870.93279,900.9857 1874.4285,904.48141 1874.4285,908.79302 Z M1829.34545,908.79302 C1829.34545,913.10463 1825.84974,916.598582 1821.53813,916.598582 C1817.22476,916.598582 1813.73081,913.10463 1813.73081,908.79302 C1813.73081,904.48141 1817.22476,900.9857 1821.53813,900.9857 C1825.84974,900.9857 1829.34545,904.48141 1829.34545,908.79302 Z M1784.26222,908.79302 C1784.26222,913.10463 1780.76651,916.598582 1776.4549,916.598582 C1772.14153,916.598582 1768.64758,913.10463 1768.64758,908.79302 C1768.64758,904.48141 1772.14153,900.9857 1776.4549,900.9857 C1780.76651,900.9857 1784.26222,904.48141 1784.26222,908.79302 Z M1739.17899,908.79302 C1739.17899,913.10463 1735.68328,916.598582 1731.37166,916.598582 C1727.0583,916.598582 1723.56434,913.10463 1723.56434,908.79302 C1723.56434,904.48141 1727.0583,900.9857 1731.37166,900.9857 C1735.68328,900.9857 1739.17899,904.48141 1739.17899,908.79302 Z M1694.09417,908.79302 C1694.09417,913.10463 1690.60022,916.598582 1686.28861,916.598582 C1681.97524,916.598582 1678.48129,913.10463 1678.48129,908.79302 C1678.48129,904.48141 1681.97524,900.9857 1686.28861,900.9857 C1690.60022,900.9857 1694.09417,904.48141 1694.09417,908.79302 Z M1649.01094,908.79302 C1649.01094,913.10463 1645.51699,916.598582 1641.20538,916.598582 C1636.89201,916.598582 1633.39806,913.10463 1633.39806,908.79302 C1633.39806,904.48141 1636.89201,900.9857 1641.20538,900.9857 C1645.51699,900.9857 1649.01094,904.48141 1649.01094,908.79302 Z M1603.92771,908.79302 C1603.92771,913.10463 1600.43376,916.598582 1596.12215,916.598582 C1591.80878,916.598582 1588.31483,913.10463 1588.31483,908.79302 C1588.31483,904.48141 1591.80878,900.9857 1596.12215,900.9857 C1600.43376,900.9857 1603.92771,904.48141 1603.92771,908.79302 Z M1558.84465,908.79302 C1558.84465,913.10463 1555.3507,916.598582 1551.03909,916.598582 C1546.72572,916.598582 1543.23177,913.10463 1543.23177,908.79302 C1543.23177,904.48141 1546.72572,900.9857 1551.03909,900.9857 C1555.3507,900.9857 1558.84465,904.48141 1558.84465,908.79302 Z M1513.76142,908.79302 C1513.76142,913.10463 1510.26747,916.598582 1505.95586,916.598582 C1501.64249,916.598582 1498.14678,913.10463 1498.14678,908.79302 C1498.14678,904.48141 1501.64249,900.9857 1505.95586,900.9857 C1510.26747,900.9857 1513.76142,904.48141 1513.76142,908.79302 Z M1468.67819,908.79302 C1468.67819,913.10463 1465.18424,916.598582 1460.87263,916.598582 C1456.55926,916.598582 1453.06355,913.10463 1453.06355,908.79302 C1453.06355,904.48141 1456.55926,900.9857 1460.87263,900.9857 C1465.18424,900.9857 1468.67819,904.48141 1468.67819,908.79302 Z M2009.6782,863.708909 C2009.6782,868.02052 2006.18249,871.51623 2001.87264,871.51623 C1997.55927,871.51623 1994.06356,868.02052 1994.06356,863.708909 C1994.06356,859.397299 1997.55927,855.903347 2001.87264,855.903347 C2006.18249,855.903347 2009.6782,859.397299 2009.6782,863.708909 Z M1964.59497,863.708909 C1964.59497,868.02052 1961.09926,871.51623 1956.78765,871.51623 C1952.47604,871.51623 1948.98033,868.02052 1948.98033,863.708909 C1948.98033,859.397299 1952.47604,855.903347 1956.78765,855.903347 C1961.09926,855.903347 1964.59497,859.397299 1964.59497,863.708909 Z M1919.51174,863.708909 C1919.51174,868.02052 1916.01602,871.51623 1911.70441,871.51623 C1907.39105,871.51623 1903.89709,868.02052 1903.89709,863.708909 C1903.89709,859.397299 1907.39105,855.903347 1911.70441,855.903347 C1916.01602,855.903347 1919.51174,859.397299 1919.51174,863.708909 Z M1874.4285,863.708909 C1874.4285,868.02052 1870.93279,871.51623 1866.62118,871.51623 C1862.30781,871.51623 1858.81386,868.02052 1858.81386,863.708909 C1858.81386,859.397299 1862.30781,855.903347 1866.62118,855.903347 C1870.93279,855.903347 1874.4285,859.397299 1874.4285,863.708909 Z M1829.34545,863.708909 C1829.34545,868.02052 1825.84974,871.51623 1821.53813,871.51623 C1817.22476,871.51623 1813.73081,868.02052 1813.73081,863.708909 C1813.73081,859.397299 1817.22476,855.903347 1821.53813,855.903347 C1825.84974,855.903347 1829.34545,859.397299 1829.34545,863.708909 Z M1784.26222,863.708909 C1784.26222,868.02052 1780.76651,871.51623 1776.4549,871.51623 C1772.14153,871.51623 1768.64758,868.02052 1768.64758,863.708909 C1768.64758,859.397299 1772.14153,855.903347 1776.4549,855.903347 C1780.76651,855.903347 1784.26222,859.397299 1784.26222,863.708909 Z M1739.17899,863.708909 C1739.17899,868.02052 1735.68328,871.51623 1731.37166,871.51623 C1727.0583,871.51623 1723.56434,868.02052 1723.56434,863.708909 C1723.56434,859.397299 1727.0583,855.903347 1731.37166,855.903347 C1735.68328,855.903347 1739.17899,859.397299 1739.17899,863.708909 Z M1694.09417,863.708909 C1694.09417,868.02052 1690.60022,871.51623 1686.28861,871.51623 C1681.97524,871.51623 1678.48129,868.02052 1678.48129,863.708909 C1678.48129,859.397299 1681.97524,855.903347 1686.28861,855.903347 C1690.60022,855.903347 1694.09417,859.397299 1694.09417,863.708909 Z M1649.01094,863.708909 C1649.01094,868.02052 1645.51699,871.51623 1641.20538,871.51623 C1636.89201,871.51623 1633.39806,868.02052 1633.39806,863.708909 C1633.39806,859.397299 1636.89201,855.903347 1641.20538,855.903347 C1645.51699,855.903347 1649.01094,859.397299 1649.01094,863.708909 Z M1603.92771,863.708909 C1603.92771,868.02052 1600.43376,871.51623 1596.12215,871.51623 C1591.80878,871.51623 1588.31483,868.02052 1588.31483,863.708909 C1588.31483,859.397299 1591.80878,855.903347 1596.12215,855.903347 C1600.43376,855.903347 1603.92771,859.397299 1603.92771,863.708909 Z M1558.84465,863.708909 C1558.84465,868.02052 1555.3507,871.51623 1551.03909,871.51623 C1546.72572,871.51623 1543.23177,868.02052 1543.23177,863.708909 C1543.23177,859.397299 1546.72572,855.903347 1551.03909,855.903347 C1555.3507,855.903347 1558.84465,859.397299 1558.84465,863.708909 Z M1513.76142,863.708909 C1513.76142,868.02052 1510.26747,871.51623 1505.95586,871.51623 C1501.64249,871.51623 1498.14678,868.02052 1498.14678,863.708909 C1498.14678,859.397299 1501.64249,855.903347 1505.95586,855.903347 C1510.26747,855.903347 1513.76142,859.397299 1513.76142,863.708909 Z M1468.67819,863.708909 C1468.67819,868.02052 1465.18424,871.51623 1460.87263,871.51623 C1456.55926,871.51623 1453.06355,868.02052 1453.06355,863.708909 C1453.06355,859.397299 1456.55926,855.903347 1460.87263,855.903347 C1465.18424,855.903347 1468.67819,859.397299 1468.67819,863.708909 Z M1423.59513,863.708909 C1423.59513,868.02052 1420.10118,871.51623 1415.78957,871.51623 C1411.4762,871.51623 1407.98049,868.02052 1407.98049,863.708909 C1407.98049,859.397299 1411.4762,855.903347 1415.78957,855.903347 C1420.10118,855.903347 1423.59513,859.397299 1423.59513,863.708909 Z M1423.59513,908.791262 C1423.59513,913.102872 1420.10118,916.598582 1415.78957,916.598582 C1411.4762,916.598582 1407.98049,913.102872 1407.98049,908.791262 C1407.98049,904.479651 1411.4762,900.9857 1415.78957,900.9857 C1420.10118,900.9857 1423.59513,904.479651 1423.59513,908.791262 Z M1378.51208,863.708909 C1378.51208,868.02052 1375.01813,871.51623 1370.70652,871.51623 C1366.39315,871.51623 1362.89744,868.02052 1362.89744,863.708909 C1362.89744,859.397299 1366.39315,855.903347 1370.70652,855.903347 C1375.01813,855.903347 1378.51208,859.397299 1378.51208,863.708909 Z M1327.14332,863.708909 C1327.14332,868.02052 1323.64936,871.51623 1319.33775,871.51623 C1315.02438,871.51623 1311.52867,868.02052 1311.52867,863.708909 C1311.52867,859.397299 1315.02438,855.903347 1319.33775,855.903347 C1323.64936,855.903347 1327.14332,859.397299 1327.14332,863.708909 Z M1327.14332,893.178379 C1327.14332,897.489989 1323.64936,900.9857 1319.33775,900.9857 C1315.02438,900.9857 1311.52867,897.489989 1311.52867,893.178379 C1311.52867,888.866769 1315.02438,885.372817 1319.33775,885.372817 C1323.64936,885.372817 1327.14332,888.866769 1327.14332,893.178379 Z M1275.77455,863.708909 C1275.77455,868.02052 1272.2806,871.51623 1267.96899,871.51623 C1263.65562,871.51623 1260.15991,868.02052 1260.15991,863.708909 C1260.15991,859.397299 1263.65562,855.903347 1267.96899,855.903347 C1272.2806,855.903347 1275.77455,859.397299 1275.77455,863.708909 Z" id="dots"></path>
        </g>
    </g>
</svg>