<?xml version="1.0" encoding="UTF-8"?>
<svg width="26px" height="36px" viewBox="0 0 26 36" version="1.1" xmlns="http://www.w3.org/2000/svg" xmlns:xlink="http://www.w3.org/1999/xlink">
    <!-- Generator: Sketch 61 (89581) - https://sketch.com -->
    <title>£</title>
    <desc>Created with Sketch.</desc>
    <g id="Primary-certification" stroke="none" stroke-width="1" fill="none" fill-rule="evenodd">
        <g id="certificate---primary-tasks-copy" transform="translate(-91.000000, -604.000000)" fill="#007FA2" fill-rule="nonzero">
            <path d="M116.5625,640 L116.5625,634.640625 L99.503418,634.640625 C100.396647,633.731445 101.08252,632.702637 101.561035,631.554199 C102.039551,630.405762 102.278809,629.209473 102.278809,627.965332 L102.183105,625.931641 L110.4375,625.931641 L110.4375,620.54834 L101.943848,620.54834 L101.70459,615.428223 C101.70459,613.705566 102.0236,612.377686 102.661621,611.44458 C103.299642,610.511475 104.176921,610.044922 105.293457,610.044922 C106.425944,610.044922 107.359049,610.407796 108.092773,611.133545 C108.826497,611.859294 109.193359,612.987793 109.193359,614.519043 L115.988281,614.519043 L116.036133,614.375488 C116.099935,611.456543 115.186768,609.107829 113.296631,607.329346 C111.406494,605.550863 108.746745,604.661621 105.317383,604.661621 C102.095378,604.661621 99.5233561,605.618652 97.6013184,607.532715 C95.6792806,609.446777 94.7182617,612.078613 94.7182617,615.428223 L94.909668,620.54834 L91.2011719,620.54834 L91.2011719,625.931641 L95.125,625.931641 L95.2207031,628.276367 C95.2207031,629.680013 95.0332845,631.043783 94.6584473,632.367676 C94.28361,633.691569 93.7213542,634.449219 92.9716797,634.640625 L92.7324219,634.640625 L92.7324219,640 L116.5625,640 Z" id="£"></path>
        </g>
    </g>
</svg>