<?xml version="1.0" encoding="UTF-8"?>
<svg width="31px" height="30px" viewBox="0 0 31 30" version="1.1" xmlns="http://www.w3.org/2000/svg" xmlns:xlink="http://www.w3.org/1999/xlink">
    <!-- Generator: Sketch 61 (89581) - https://sketch.com -->
    <title>icon/laptop</title>
    <desc>Created with Sketch.</desc>
    <g id="icon/laptop" stroke="none" stroke-width="1" fill="none" fill-rule="evenodd">
        <rect id="Rectangle" fill="#FFFFFF" x="7" y="8" width="17" height="11"></rect>
        <path d="M25.1875,5 C26.2575517,5 27.125,5.85472911 27.125,6.90909091 L27.125,22.1818182 L29.0625,22.1818182 C30.1325517,22.1818182 31,23.0365473 31,24.0909091 C31,25.1452709 30.1325517,26 29.0625,26 L1.9375,26 C0.867448297,26 0,25.1452709 0,24.0909091 C0,23.0365473 0.867448297,22.1818182 1.9375,22.1818182 L3.875,22.1818182 L3.875,6.90909091 C3.875,5.85472911 4.7424483,5 5.8125,5 L25.1875,5 Z M21.3125,8.81818182 L9.6875,8.81818182 C8.6174483,8.81818182 7.75,9.67291093 7.75,10.7272727 L7.75,10.7272727 L7.75,16.4545455 C7.75,17.5089072 8.6174483,18.3636364 9.6875,18.3636364 L9.6875,18.3636364 L21.3125,18.3636364 C22.3825517,18.3636364 23.25,17.5089072 23.25,16.4545455 L23.25,16.4545455 L23.25,10.7272727 C23.25,9.67291093 22.3825517,8.81818182 21.3125,8.81818182 L21.3125,8.81818182 Z" id="Combined-Shape" fill="#333448"></path>
    </g>
</svg>