<?xml version="1.0" encoding="UTF-8"?>
<svg width="31" height="30" viewBox="0 0 31 30" xmlns="http://www.w3.org/2000/svg">
  <title>
    Laptop
  </title>
  <g fill="none">
    <rect x="7" y="8" width="17" height="11" fill="#FFF"/>
    <path d="M25.2 5C26.3 5 27.1 5.9 27.1 6.9L27.1 22.2 29.1 22.2C30.1 22.2 31 23 31 24.1 31 25.1 30.1 26 29.1 26L1.9 26C0.9 26 0 25.1 0 24.1 0 23 0.9 22.2 1.9 22.2L3.9 22.2 3.9 6.9C3.9 5.9 4.7 5 5.8 5L25.2 5ZM21.3 8.8L9.7 8.8C8.6 8.8 7.8 9.7 7.8 10.7L7.8 10.7 7.8 16.5C7.8 17.5 8.6 18.4 9.7 18.4L9.7 18.4 21.3 18.4C22.4 18.4 23.3 17.5 23.3 16.5L23.3 16.5 23.3 10.7C23.3 9.7 22.4 8.8 21.3 8.8L21.3 8.8Z" fill="#333448"/>
  </g>
</svg>
