<?xml version="1.0" encoding="UTF-8"?>
<svg width="30" height="30" viewBox="0 0 30 30" xmlns="http://www.w3.org/2000/svg">
  <title>
    Map pin
  </title>
  <g fill="none">
    <circle cx="15" cy="10" r="5" fill="#FFF"/>
    <path d="M8.2 3.3C12-0.6 18-0.6 21.8 3.3 25 6.5 25.5 11.5 23.3 15.2L23.3 15.2 16.5 27.8C15.7 29.3 14.3 29.3 13.5 27.8L13.5 27.8 6.7 15.2C4.5 11.5 5 6.5 8.2 3.3ZM15 5C12.2 5 10 7.2 10 10 10 12.8 12.2 15 15 15 17.8 15 20 12.8 20 10 20 7.2 17.8 5 15 5Z" fill="#333448"/>
  </g>
</svg>
