<svg width="29" height="12" viewBox="0 0 29 12" fill="none" xmlns="http://www.w3.org/2000/svg">
<path d="M2.35938 7.99219V12H0.015625V0.625H4.45312C5.30729 0.625 6.05729 0.78125 6.70312 1.09375C7.35417 1.40625 7.85417 1.85156 8.20312 2.42969C8.55208 3.0026 8.72656 3.65625 8.72656 4.39062C8.72656 5.50521 8.34375 6.38542 7.57812 7.03125C6.81771 7.67188 5.76302 7.99219 4.41406 7.99219H2.35938ZM2.35938 6.09375H4.45312C5.07292 6.09375 5.54427 5.94792 5.86719 5.65625C6.19531 5.36458 6.35938 4.94792 6.35938 4.40625C6.35938 3.84896 6.19531 3.39844 5.86719 3.05469C5.53906 2.71094 5.08594 2.53385 4.50781 2.52344H2.35938V6.09375ZM10.3438 12V0.625H13.8438C14.8438 0.625 15.737 0.851562 16.5234 1.30469C17.3151 1.7526 17.9323 2.39323 18.375 3.22656C18.8177 4.05469 19.0391 4.9974 19.0391 6.05469V6.57812C19.0391 7.63542 18.8203 8.57552 18.3828 9.39844C17.9505 10.2214 17.3385 10.8594 16.5469 11.3125C15.7552 11.7656 14.862 11.9948 13.8672 12H10.3438ZM12.6875 2.52344V10.1172H13.8203C14.737 10.1172 15.4375 9.81771 15.9219 9.21875C16.4062 8.61979 16.6536 7.76302 16.6641 6.64844V6.04688C16.6641 4.89062 16.4245 4.01562 15.9453 3.42188C15.4661 2.82292 14.7656 2.52344 13.8438 2.52344H12.6875ZM27.5938 7.35156H23.0938V12H20.75V0.625H28.1562V2.52344H23.0938V5.46094H27.5938V7.35156Z" fill="#333448"/>
</svg>
