<?xml version="1.0" encoding="UTF-8"?>
<svg width="30px" height="30px" viewBox="0 0 30 30" version="1.1" xmlns="http://www.w3.org/2000/svg" xmlns:xlink="http://www.w3.org/1999/xlink">
    <defs></defs>
    <g id="icon/question" stroke="none" stroke-width="1" fill="none" fill-rule="evenodd">
        <path d="M14.5967062,25.975 C12.7199605,25.975 11.3578063,24.673386 11.3578063,22.8571805 C11.3578063,21.040975 12.7199605,19.739361 14.5967062,19.739361 C16.503722,19.739361 17.8356061,21.040975 17.8356061,22.8571805 C17.8356061,24.673386 16.503722,25.975 14.5967062,25.975 Z M17.1999341,18.6193676 L12.0237484,18.6193676 C12.0237484,15.5923584 12.9318511,14.0183136 15.0507576,12.6258893 C16.0194005,11.9902174 17.1393939,11.2940053 17.1393939,10.0529315 C17.1393939,8.81185771 16.1404809,7.90375494 14.8388669,7.90375494 C13.2042819,7.90375494 12.0540184,9.32644928 11.8421278,11.2637352 L6,10.2042819 C6.36324111,5.99673913 9.99565217,3 15.0810277,3 C19.8939723,3 23.4961133,5.66376812 23.4961133,9.44752964 C23.4961133,11.9902174 21.9220685,13.7761528 19.8031621,14.8658762 C18.2291173,15.6831686 17.1999341,16.5004611 17.1999341,18.6193676 Z" id="?" fill="#007fa2"></path>
    </g>
</svg>
