<?xml version="1.0" encoding="UTF-8"?>
<svg width="30px" height="30px" viewBox="0 0 30 30" version="1.1" xmlns="http://www.w3.org/2000/svg" xmlns:xlink="http://www.w3.org/1999/xlink">
    <!-- Generator: Sketch 61 (89581) - https://sketch.com -->
    <title>icon/document</title>
    <desc>Created with Sketch.</desc>
    <g id="icon/document" stroke="none" stroke-width="1" fill="none" fill-rule="evenodd">
        <rect id="Rectangle" fill="#FFFFFF" x="5" y="2" width="16" height="20"></rect>
        <rect id="Rectangle" fill="#FFFFFF" x="10" y="7" width="16" height="20"></rect>
        <g id="Group" transform="translate(3.000000, 0.000000)" fill="#333448">
            <path d="M17,0 C18.6568542,0 20,1.34314575 20,3 L20,21 C20,22.6568542 18.6568542,24 17,24 L3,24 C1.34314575,24 0,22.6568542 0,21 L0,3 C0,1.34314575 1.34314575,0 3,0 L17,0 Z M17,2 L3,2 C2.44771525,2 2,2.44771525 2,3 L2,21 C2,21.5522847 2.44771525,22 3,22 L17,22 C17.5522847,22 18,21.5522847 18,21 L18,3 C18,2.44771525 17.5522847,2 17,2 Z" id="Rectangle" fill-rule="nonzero"></path>
            <path d="M7,24 L7,26 C7,26.5522847 7.44771525,27 8,27 L22,27 C22.5522847,27 23,26.5522847 23,26 L23,8 C23,7.44771525 22.5522847,7 22,7 L20,7 L20,5 L22,5 C23.6568542,5 25,6.34314575 25,8 L25,26 C25,27.6568542 23.6568542,29 22,29 L8,29 C6.34314575,29 5,27.6568542 5,26 L5,24 L7,24 Z" id="Combined-Shape" fill-rule="nonzero"></path>
            <path d="M5,6 L15,6 C15.5522847,6 16,6.44771525 16,7 C16,7.55228475 15.5522847,8 15,8 L5,8 C4.44771525,8 4,7.55228475 4,7 C4,6.44771525 4.44771525,6 5,6 Z" id="Rectangle"></path>
            <path d="M5,11 L15,11 C15.5522847,11 16,11.4477153 16,12 C16,12.5522847 15.5522847,13 15,13 L5,13 C4.44771525,13 4,12.5522847 4,12 C4,11.4477153 4.44771525,11 5,11 Z" id="Rectangle-Copy"></path>
            <path d="M5,16 L15,16 C15.5522847,16 16,16.4477153 16,17 C16,17.5522847 15.5522847,18 15,18 L5,18 C4.44771525,18 4,17.5522847 4,17 C4,16.4477153 4.44771525,16 5,16 Z" id="Rectangle-Copy-2"></path>
        </g>
    </g>
</svg>