<?xml version="1.0" encoding="UTF-8"?>
<svg width="30" height="30" viewBox="0 0 30 30" xmlns="http://www.w3.org/2000/svg">
  <title>
    Document
  </title>
  <g fill="none">
    <rect x="5" y="2" width="16" height="20" fill="#FFF"/>
    <rect x="10" y="7" width="16" height="20" fill="#FFF"/>
    <g fill="#333448">
      <path d="M20 0C21.7 0 23 1.3 23 3L23 21C23 22.7 21.7 24 20 24L6 24C4.3 24 3 22.7 3 21L3 3C3 1.3 4.3 0 6 0L20 0ZM20 2L6 2C5.4 2 5 2.4 5 3L5 21C5 21.6 5.4 22 6 22L20 22C20.6 22 21 21.6 21 21L21 3C21 2.4 20.6 2 20 2Z"/>
      <path d="M10 24L10 26C10 26.6 10.4 27 11 27L25 27C25.6 27 26 26.6 26 26L26 8C26 7.4 25.6 7 25 7L23 7 23 5 25 5C26.7 5 28 6.3 28 8L28 26C28 27.7 26.7 29 25 29L11 29C9.3 29 8 27.7 8 26L8 24 10 24Z"/>
      <path d="M8 6L18 6C18.6 6 19 6.4 19 7 19 7.6 18.6 8 18 8L8 8C7.4 8 7 7.6 7 7 7 6.4 7.4 6 8 6Z"/>
      <path d="M8 11L18 11C18.6 11 19 11.4 19 12 19 12.6 18.6 13 18 13L8 13C7.4 13 7 12.6 7 12 7 11.4 7.4 11 8 11Z"/>
      <path d="M8 16L18 16C18.6 16 19 16.4 19 17 19 17.6 18.6 18 18 18L8 18C7.4 18 7 17.6 7 17 7 16.4 7.4 16 8 16Z"/>
    </g>
  </g>
</svg>

