<?xml version="1.0" standalone="no"?>
<!DOCTYPE svg PUBLIC "-//W3C//DTD SVG 20010904//EN"
 "http://www.w3.org/TR/2001/REC-SVG-20010904/DTD/svg10.dtd">
<svg version="1.0" xmlns="http://www.w3.org/2000/svg"
 width="128.000000pt" height="128.000000pt" viewBox="0 0 128.000000 128.000000"
 preserveAspectRatio="xMidYMid meet">
<metadata>
Created by potrace 1.11, written by Peter Selinger 2001-2013
</metadata>
<g transform="translate(0.000000,128.000000) scale(0.100000,-0.100000)"
fill="#000000" stroke="none">
<path d="M1064 1177 c-32 -34 -95 -102 -139 -151 -44 -49 -85 -94 -90 -100 -6
-6 -72 -92 -147 -191 -143 -190 -230 -315 -263 -378 -37 -71 -68 -91 -104 -68
-8 5 -37 67 -65 138 -46 117 -54 129 -86 145 -96 46 -156 18 -152 -69 1 -25 8
-53 17 -62 8 -9 33 -57 56 -106 93 -203 127 -252 200 -290 108 -55 147 -35
235 119 50 87 185 292 212 322 9 11 37 46 61 79 116 156 247 308 334 388 115
106 129 133 119 238 -2 21 -60 49 -99 49 -24 0 -42 -13 -89 -63z"/>
</g>
</svg>
