<?xml version="1.0" encoding="UTF-8"?>
<svg width="17px" height="17px" viewBox="0 0 17 17" version="1.1" xmlns="http://www.w3.org/2000/svg" xmlns:xlink="http://www.w3.org/1999/xlink">
    <!-- Generator: Sketch 51.3 (57544) - http://www.bohemiancoding.com/sketch -->
    <title>Combined Shape</title>
    <desc>Created with Sketch.</desc>
    <defs></defs>
    <g id="2-Register,-choose-course" stroke="none" stroke-width="1" fill="none" fill-rule="evenodd">
        <g id="Dashboard---desktop-2" transform="translate(-305.000000, -863.000000)" fill="#E3E2F3">
            <path d="M312.8,874.374977 C310.061312,873.795889 308,871.273697 308,868.25 C308,864.79822 310.686292,862 314,862 C317.313708,862 320,864.79822 320,868.25 C320,871.273697 317.938688,873.795889 315.2,874.374977 L315.2,882 L312.8,882 L312.8,874.374977 Z M314,872 C315.988225,872 317.6,870.321068 317.6,868.25 C317.6,866.178932 315.988225,864.5 314,864.5 C312.011775,864.5 310.4,866.178932 310.4,868.25 C310.4,870.321068 312.011775,872 314,872 Z" id="Combined-Shape" transform="translate(314.000000, 872.000000) rotate(-45.000000) translate(-314.000000, -872.000000) "></path>
        </g>
    </g>
</svg>