<?xml version="1.0" encoding="UTF-8"?>
<svg width="17px" height="17px" viewBox="0 0 17 17" version="1.1" xmlns="http://www.w3.org/2000/svg" xmlns:xlink="http://www.w3.org/1999/xlink">
    <!-- Generator: Sketch 51.3 (57544) - http://www.bohemiancoding.com/sketch -->
    <title>Combined Shape</title>
    <desc>Created with Sketch.</desc>
    <defs></defs>
    <g id="Pages" stroke="none" stroke-width="1" fill="none" fill-rule="evenodd">
        <g id="Dashboard-(enrolled)" transform="translate(-352.000000, -1152.000000)" fill="#2012CD">
            <g id="Group" transform="translate(349.000000, 1148.000000)">
                <path d="M10.8,15.3749774 C8.06131161,14.7958894 6,12.2736974 6,9.25 C6,5.79822031 8.6862915,3 12,3 C15.3137085,3 18,5.79822031 18,9.25 C18,12.2736974 15.9386884,14.7958894 13.2,15.3749774 L13.2,23 L10.8,23 L10.8,15.3749774 Z M12,13 C13.9882251,13 15.6,11.3210678 15.6,9.25 C15.6,7.17893219 13.9882251,5.5 12,5.5 C10.0117749,5.5 8.4,7.17893219 8.4,9.25 C8.4,11.3210678 10.0117749,13 12,13 Z" id="Combined-Shape" transform="translate(12.000000, 13.000000) rotate(-45.000000) translate(-12.000000, -13.000000) "></path>
            </g>
        </g>
    </g>
</svg>