<svg width="106" height="44" viewBox="0 0 106 44" fill="none" xmlns="http://www.w3.org/2000/svg">
<path d="M20.1697 0C20.6697 0 21.0697 0 21.5697 0C26.7697 1.9 27.6697 6.6 26.6697 10.5C26.4697 11.3 26.2697 12 26.1697 12.8C25.7697 14.9 26.3697 15.8 28.2697 16.7C30.0697 17.6 31.9697 18 34.0697 17.7C35.3697 17.5 36.6697 17.7 37.9697 18C39.4697 18.3 40.3697 19.3 40.7697 20.7C41.1697 22.1 40.7697 23.3 39.5697 24.1C38.7697 24.7 38.9697 24.9 39.6697 25.5C41.5697 27 41.6697 29.6 39.6697 31C38.7697 31.6 38.8697 32.1 39.2697 32.9C40.4697 35 39.8697 36.8 37.6697 37.8C36.7697 38.2 36.8697 38.6 37.0697 39.4C37.6697 41.3 36.9697 42.8 35.0697 43.4C34.1697 43.7 33.2697 43.8 32.3697 43.8C29.3697 44.1 26.5697 42.9 23.5697 42.8C20.1697 42.7 17.0697 41.5 14.3697 39.4C13.8697 39 13.2697 39 12.6697 39.1C10.6697 39.5 8.76969 39.8 6.76969 40.2C5.46969 40.5 4.46969 40.2 3.46969 39.5C2.36969 38.7 1.56969 37.6 1.06969 36.3C0.0696938 33.7 -0.130306 31 0.0696938 28.3C0.269694 26 0.569694 23.6 1.76969 21.6C2.56969 20.2 3.56969 19.5 5.26969 19.7C6.76969 19.9 8.26969 19.9 9.86969 20C10.4697 20 10.9697 20 11.3697 19.5C12.8697 17.9 14.5697 16.4 15.8697 14.6C17.6697 12.2 18.4697 9.7 17.7697 6.7C17.4697 5.6 17.2697 4.5 17.0697 3.3C16.7697 1.9 17.3697 0.8 18.6697 0.2C19.3697 0.3 19.7697 0.2 20.1697 0Z" fill="#E6A614"/>
<path d="M85.8303 44C85.3303 44 84.9303 44 84.4303 44C79.2303 42.1 78.3303 37.4 79.3303 33.5C79.5303 32.7 79.7303 32 79.8303 31.2C80.2303 29.1 79.6303 28.2 77.7303 27.3C75.9303 26.4 74.0303 26 71.9303 26.3C70.6303 26.5 69.3303 26.3 68.0303 26C66.5303 25.7 65.6303 24.7 65.2303 23.3C64.8303 21.9 65.2303 20.7 66.4303 19.9C67.2303 19.3 67.0303 19.1 66.3303 18.5C64.4303 17 64.3303 14.4 66.3303 13C67.2303 12.4 67.1303 11.9 66.7303 11.1C65.5303 9 66.1303 7.2 68.3303 6.2C69.2303 5.8 69.1303 5.4 68.9303 4.6C68.3303 2.7 69.0303 1.2 70.9303 0.600002C71.8303 0.300003 72.7303 0.200001 73.6303 0.200001C76.6303 -0.0999985 79.4303 1.1 82.4303 1.2C85.8303 1.3 88.9303 2.5 91.6303 4.6C92.1303 5 92.7303 5 93.3303 4.9C95.3303 4.5 97.2303 4.2 99.2303 3.8C100.53 3.5 101.53 3.8 102.53 4.5C103.63 5.3 104.43 6.4 104.93 7.7C105.93 10.3 106.13 13 105.93 15.7C105.73 18 105.43 20.4 104.23 22.4C103.43 23.8 102.43 24.5 100.73 24.3C99.2303 24.1 97.7303 24.1 96.1303 24C95.5303 24 95.0303 24 94.6303 24.5C93.1303 26.1 91.4303 27.6 90.1303 29.4C88.3303 31.8 87.5303 34.3 88.2303 37.3C88.5303 38.4 88.7303 39.5 88.9303 40.7C89.2303 42.1 88.6303 43.2 87.3303 43.8C86.6303 43.7 86.2303 43.8 85.8303 44Z" fill="#E6A614"/>
</svg>
