<?xml version="1.0" encoding="UTF-8"?>
<svg width="23px" height="23px" viewBox="0 0 23 23" version="1.1" xmlns="http://www.w3.org/2000/svg" xmlns:xlink="http://www.w3.org/1999/xlink">
    <!-- Generator: Sketch 51.3 (57544) - http://www.bohemiancoding.com/sketch -->
    <title>Fill 1</title>
    <desc>Created with Sketch.</desc>
    <defs></defs>
    <g id="Symbols" stroke="none" stroke-width="1" fill="none" fill-rule="evenodd">
        <g id="component/test" transform="translate(-673.000000, -74.000000)" fill="#DE01A5">
            <path d="M678.653538,96.6467258 C678.02569,96.2064768 677.252302,95.8971786 676.778696,95.3293991 C675.52179,93.823464 674.930689,91.9351816 674.127081,90.1675891 C673.869124,89.6000538 673.494397,89.0867557 673.131517,88.5678384 C673.090176,88.169611 673.041341,87.7005332 673,87.30255 C673.68442,85.6827658 673.987103,85.9786269 675.857593,86.3898029 C676.215397,86.4682268 676.596651,86.9583153 676.756212,87.3467704 C677.288324,88.6411318 677.784897,89.9503963 678.322812,91.3737542 C678.613164,92.142602 679.658531,92.2251792 680.063478,91.5110571 C680.771832,90.2611603 681.411527,89.1297545 682.135837,88.0567391 C683.382831,86.2092568 684.784792,84.4692714 686.115677,82.6799352 C686.722976,81.8627137 687.285066,81.0073797 687.93298,80.2248505 C688.701774,79.2962231 689.535602,78.4220771 690.352022,77.5344941 C691.34251,76.4573254 692.669284,74.6758071 693.489573,74.1458958 C693.650343,74.0420635 693.839882,73.9958886 694.03063,74.0002862 C694.67516,74.0154335 695.051095,74.1094934 695.507537,74.3762814 C695.809494,74.5526742 696,74.8751651 696,75.2277064 L696,75.9755434 C696,76.4895745 695.881296,77.002384 695.618504,77.442633 C695.151667,78.2246736 694.449115,78.7975837 693.687815,79.3844195 C692.621416,80.2065272 691.733434,81.2964001 690.878574,82.3606202 C689.083512,84.5950918 687.308274,86.8500854 685.627323,89.172509 C684.497824,90.7329255 683.486062,92.3896007 682.530388,94.0665538 C681.844759,95.2692985 681.331021,96.5675689 679.84251,97" id="Fill-1"></path>
        </g>
    </g>
</svg>