<?xml version="1.0" encoding="UTF-8"?>
<svg width="30px" height="30px" viewBox="0 0 30 30" version="1.1" xmlns="http://www.w3.org/2000/svg" xmlns:xlink="http://www.w3.org/1999/xlink">
    <!-- Generator: Sketch 51.3 (57544) - http://www.bohemiancoding.com/sketch -->
    <title>icon/checkbox</title>
    <desc>Created with Sketch.</desc>
    <defs></defs>
    <g id="2-Register,-choose-course" stroke="none" stroke-width="1" fill="none" fill-rule="evenodd">
        <g id="Dashboard---desktop-2" transform="translate(-85.000000, -732.000000)">
            <g id="icon/checkbox" transform="translate(85.000000, 732.000000)">
                <rect id="Rectangle-7-Copy" stroke="#E3E2F3" stroke-width="3" x="1.5" y="1.5" width="27" height="27" rx="5"></rect>
                <path d="M12.6535381,22.6467258 C12.0256895,22.2064768 11.252302,21.8971786 10.7786958,21.3293991 C9.52178986,19.823464 8.9306887,17.9351816 8.12708123,16.1675891 C7.8691242,15.6000538 7.49439749,15.0867557 7.13151699,14.5678384 C7.09017617,14.169611 7.04134082,13.7005332 7,13.30255 C7.6844202,11.6827658 7.98710267,11.9786269 9.85759334,12.3898029 C10.2153969,12.4682268 10.5966511,12.9583153 10.7562122,13.3467704 C11.2883241,14.6411318 11.7848974,15.9503963 12.3228116,17.3737542 C12.6131643,18.142602 13.6585309,18.2251792 14.0634775,17.5110571 C14.7718319,16.2611603 15.4115267,15.1297545 16.1358371,14.0567391 C17.3828309,12.2092568 18.7847923,10.4692714 20.1156765,8.67993517 C20.7229755,7.86271374 21.2850656,7.00737974 21.9329802,6.22485052 C22.7017743,5.29622312 23.5356017,4.42207715 24.3520224,3.53449405 C25.3425097,2.45732536 26.669284,0.675807073 27.4895728,0.145895779 C27.6503427,0.0420634596 27.8398819,-0.00411138351 28.0306298,0.000286220597 C28.6751598,0.0154335236 29.0510953,0.109493389 29.5075366,0.376281372 C29.8094938,0.552674158 30,0.875165126 30,1.22770639 L30,1.9755434 C30,2.48957446 29.8812962,3.00238396 29.618504,3.44263299 C29.1516671,4.22467359 28.449115,4.79758368 27.6878153,5.38441951 C26.6214157,6.20652717 25.7334342,7.29640005 24.8785738,8.36062025 C23.083512,10.5950918 21.3082745,12.8500854 19.627323,15.172509 C18.4978242,16.7329255 17.4860621,18.3896007 16.5303881,20.0665538 C15.8447591,21.2692985 15.3310209,22.5675689 13.8425097,23" id="Fill-1" fill="#DE01A5"></path>
            </g>
        </g>
    </g>
</svg>