<?xml version="1.0" encoding="UTF-8"?>
<svg width="30px" height="30px" viewBox="0 0 30 30" version="1.1" xmlns="http://www.w3.org/2000/svg" xmlns:xlink="http://www.w3.org/1999/xlink">
    <defs></defs>
    <g id="icon/tick" stroke="none" stroke-width="1" fill="none" fill-rule="evenodd">
        <path d="M9.1451501,27.6160063 C8.46270602,27.1374748 7.62206736,26.8012811 7.107278,26.1841294 C5.74107593,24.5472434 5.09857467,22.4947626 4.22508829,20.5734664 C3.94470022,19.9565803 3.53738858,19.3986475 3.14295325,18.834607 C3.09801757,18.401751 3.04493567,17.8918839 3,17.4592935 C3.743935,15.6986585 4.07293769,16.0202466 6.10607972,16.467177 C6.49499664,16.5524204 6.90940338,17.0851254 7.0828393,17.5073591 C7.66122183,18.9142737 8.20097545,20.3373873 8.78566473,21.8845154 C9.10126556,22.7202195 10.2375336,22.8099774 10.677693,22.0337578 C11.4476434,20.6751743 12.1429638,19.4453853 12.9302577,18.2790643 C14.2856858,16.2709313 15.8095568,14.3796428 17.2561701,12.4347121 C17.9162777,11.546428 18.5272452,10.6167171 19.2315002,9.76614187 C20.067146,8.75676426 20.9734801,7.8066056 21.8608939,6.84184136 C22.9375105,5.67100582 24.3796565,3.73457291 25.2712748,3.15858237 C25.4460246,3.04572115 25.6520455,2.9955311 25.8593803,3.00031111 C26.5599563,3.01677557 26.9685818,3.11901455 27.4647137,3.40900149 C27.792928,3.60073278 28,3.95126644 28,4.33446347 L28,5.14732978 C28,5.70605919 27.8709742,6.26346082 27.5853305,6.74199238 C27.077899,7.59203651 26.3142554,8.21476487 25.4867558,8.85262991 C24.3276257,9.74622518 23.3624285,10.9308696 22.4332324,12.0876307 C20.4820783,14.5164041 18.5524723,16.9674841 16.7253511,19.4918576 C15.497635,21.1879625 14.3978935,22.9886964 13.3591175,24.8114715 C12.6138686,26.1188027 12.0554575,27.5299662 10.4375105,28" id="Fill-1" fill="#007fa2"></path>
    </g>
</svg>
