<svg width="63" height="63" viewBox="0 0 63 63" fill="none" xmlns="http://www.w3.org/2000/svg">
<rect x="10.5" y="4.19995" width="33.6" height="42" fill="white"/>
<rect x="21" y="14.7" width="33.6" height="42" fill="white"/>
<path fill-rule="evenodd" clip-rule="evenodd" d="M48.2998 6.3C48.2998 2.82061 45.4792 0 41.9998 0H12.5998C9.12041 0 6.2998 2.82061 6.2998 6.3V44.1C6.2998 47.5794 9.12041 50.4 12.5998 50.4H41.9998C45.4792 50.4 48.2998 47.5794 48.2998 44.1V6.3ZM12.5998 4.2H41.9998C43.1596 4.2 44.0998 5.1402 44.0998 6.3V44.1C44.0998 45.2598 43.1596 46.2 41.9998 46.2H12.5998C11.44 46.2 10.4998 45.2598 10.4998 44.1V6.3C10.4998 5.1402 11.44 4.2 12.5998 4.2Z" fill="#333448"/>
<path fill-rule="evenodd" clip-rule="evenodd" d="M52.4998 10.5C55.9792 10.5 58.7998 13.3206 58.7998 16.8V54.6C58.7998 58.0794 55.9792 60.9 52.4998 60.9H23.0998C19.6204 60.9 16.7998 58.0794 16.7998 54.6V50.4H20.9998V54.6C20.9998 55.7598 21.94 56.7 23.0998 56.7H52.4998C53.6596 56.7 54.5998 55.7598 54.5998 54.6V16.8C54.5998 15.6402 53.6596 14.7 52.4998 14.7H48.2998V10.5H52.4998Z" fill="#333448"/>
<path d="M16.9983 21.81C18.2863 21.81 19.1823 22.538 19.1823 23.588C19.1823 24.624 18.2863 25.366 16.9983 25.366H15.4023V21.81H16.9983ZM17.4183 27.144C19.8543 27.144 21.5343 25.688 21.5343 23.588C21.5343 21.502 19.8543 20.032 17.4463 20.032H13.1343V30H15.4023V27.144H17.4183Z" fill="#333448"/>
<path d="M23.1968 30H26.9348C30.3788 30 32.6748 28.012 32.6748 25.016C32.6748 22.02 30.3788 20.032 26.9348 20.032H23.1968V30ZM30.3368 25.016C30.3368 26.948 28.9648 28.166 26.9348 28.166H25.4928V21.866H26.9348C28.9648 21.866 30.3368 23.084 30.3368 25.016Z" fill="#333448"/>
<path d="M40.4401 26.43V24.638H36.8281V22.048H41.2661V20.032H34.4761V30H36.8281V26.43H40.4401Z" fill="#333448"/>
</svg>
