<svg width="53" height="61" viewBox="0 0 53 61" fill="none" xmlns="http://www.w3.org/2000/svg">
<path fill-rule="evenodd" clip-rule="evenodd" d="M42.2998 6.3C42.2998 2.82061 39.4792 0 35.9998 0H6.5998C3.12041 0 0.299805 2.82061 0.299805 6.3V44.1C0.299805 47.5794 3.12041 50.4 6.5998 50.4H35.9998C39.4792 50.4 42.2998 47.5794 42.2998 44.1V6.3ZM6.5998 4.2H35.9998C37.1596 4.2 38.0998 5.1402 38.0998 6.3V44.1C38.0998 45.2598 37.1596 46.2 35.9998 46.2H6.5998C5.44001 46.2 4.4998 45.2598 4.4998 44.1V6.3C4.4998 5.1402 5.44001 4.2 6.5998 4.2Z" fill="#333448"/>
<path fill-rule="evenodd" clip-rule="evenodd" d="M46.4998 10.5C49.9792 10.5 52.7998 13.3206 52.7998 16.8V54.6C52.7998 58.0794 49.9792 60.9 46.4998 60.9H17.0998C13.6204 60.9 10.7998 58.0794 10.7998 54.6V50.4H14.9998V54.6C14.9998 55.7598 15.94 56.7 17.0998 56.7H46.4998C47.6596 56.7 48.5998 55.7598 48.5998 54.6V16.8C48.5998 15.6402 47.6596 14.7 46.4998 14.7H42.2998V10.5H46.4998Z" fill="#333448"/>
<path fill-rule="evenodd" clip-rule="evenodd" d="M10.7997 12.6H31.7997C32.9595 12.6 33.8997 13.5402 33.8997 14.7C33.8997 15.8598 32.9595 16.8 31.7997 16.8H10.7997C9.63991 16.8 8.69971 15.8598 8.69971 14.7C8.69971 13.5402 9.63991 12.6 10.7997 12.6Z" fill="#333448"/>
<path fill-rule="evenodd" clip-rule="evenodd" d="M10.7997 23.1H31.7997C32.9595 23.1 33.8997 24.0402 33.8997 25.2C33.8997 26.3598 32.9595 27.3 31.7997 27.3H10.7997C9.63991 27.3 8.69971 26.3598 8.69971 25.2C8.69971 24.0402 9.63991 23.1 10.7997 23.1Z" fill="#333448"/>
<path fill-rule="evenodd" clip-rule="evenodd" d="M10.7997 33.6H31.7997C32.9595 33.6 33.8997 34.5402 33.8997 35.7C33.8997 36.8598 32.9595 37.8 31.7997 37.8H10.7997C9.63991 37.8 8.69971 36.8598 8.69971 35.7C8.69971 34.5402 9.63991 33.6 10.7997 33.6Z" fill="#333448"/>
</svg>
