
<svg width="53" height="61" viewBox="0 0 53 61" fill="none" xmlns="http://www.w3.org/2000/svg">
<path fill-rule="evenodd" clip-rule="evenodd" d="M42.3 6.3C42.3 2.82061 39.4794 0 36 0H6.60005C3.12065 0 0.300049 2.82061 0.300049 6.3V44.1C0.300049 47.5794 3.12065 50.4 6.60005 50.4H36C39.4794 50.4 42.3 47.5794 42.3 44.1V6.3ZM6.60005 4.2H36C37.1598 4.2 38.1 5.1402 38.1 6.3V44.1C38.1 45.2598 37.1598 46.2 36 46.2H6.60005C5.44025 46.2 4.50005 45.2598 4.50005 44.1V6.3C4.50005 5.1402 5.44025 4.2 6.60005 4.2Z" fill="#333448"/>
<path fill-rule="evenodd" clip-rule="evenodd" d="M46.5 10.5C49.9794 10.5 52.8 13.3206 52.8 16.8V54.6C52.8 58.0794 49.9794 60.9 46.5 60.9H17.1C13.6207 60.9 10.8 58.0794 10.8 54.6V50.4H15V54.6C15 55.7598 15.9402 56.7 17.1 56.7H46.5C47.6598 56.7 48.6001 55.7598 48.6001 54.6V16.8C48.6001 15.6402 47.6598 14.7 46.5 14.7H42.3V10.5H46.5Z" fill="#333448"/>
<path fill-rule="evenodd" clip-rule="evenodd" d="M10.8 12.6016H31.7999C32.9597 12.6016 33.8999 13.5418 33.8999 14.7016C33.8999 15.8614 32.9597 16.8016 31.7999 16.8016H10.8C9.64015 16.8016 8.69995 15.8614 8.69995 14.7016C8.69995 13.5418 9.64015 12.6016 10.8 12.6016Z" fill="#333448"/>
<path fill-rule="evenodd" clip-rule="evenodd" d="M10.8 23.1016H31.7999C32.9597 23.1016 33.8999 24.0418 33.8999 25.2016C33.8999 26.3614 32.9597 27.3016 31.7999 27.3016H10.8C9.64015 27.3016 8.69995 26.3614 8.69995 25.2016C8.69995 24.0418 9.64015 23.1016 10.8 23.1016Z" fill="#333448"/>
<path fill-rule="evenodd" clip-rule="evenodd" d="M10.8 33.6016H31.7999C32.9597 33.6016 33.8999 34.5418 33.8999 35.7016C33.8999 36.8614 32.9597 37.8016 31.7999 37.8016H10.8C9.64015 37.8016 8.69995 36.8614 8.69995 35.7016C8.69995 34.5418 9.64015 33.6016 10.8 33.6016Z" fill="#333448"/>
</svg>
