<?xml version="1.0" encoding="UTF-8"?>
<svg version="1.1" viewBox="0 0 13 12" xmlns="http://www.w3.org/2000/svg">
<title>Close the section icon</title>
<g fill="none" fill-rule="evenodd">
<g transform="translate(-989 -1116)" fill="#fff">
<g transform="translate(639 1106)">
<g transform="translate(350 5)">
<path transform="translate(6.7782 6.7782) rotate(135) translate(-6.7782 -6.7782)" d="m10.934 2.6221c0.21297 0.20234 0.34397 0.47766 0.34397 0.78103v6.75c0 0.62132-0.54947 1.125-1.2273 1.125-0.6778 0-1.2273-0.50368-1.2273-1.125v-5.4205h-5.4205c-0.62132 0-1.125-0.54947-1.125-1.2273s0.50368-1.2273 1.125-1.2273h6.75c0.30337 0 0.57869 0.131 0.78103 0.34397z"/>
<path transform="translate(6.7782 15.778) rotate(-45) translate(-6.7782 -15.778)" d="m10.934 11.622c0.21297 0.20234 0.34397 0.47766 0.34397 0.78103v6.75c0 0.62132-0.54947 1.125-1.2273 1.125-0.6778 0-1.2273-0.50368-1.2273-1.125v-5.4205h-5.4205c-0.62132 0-1.125-0.54947-1.125-1.2273s0.50368-1.2273 1.125-1.2273h6.75c0.30337 0 0.57869 0.131 0.78103 0.34397z"/>
</g>
</g>
</g>
</g>
</svg>
