<svg width="238" height="104" viewBox="0 0 238 104" fill="none" xmlns="http://www.w3.org/2000/svg">
<path d="M108.895 34.3365C108.897 34.5468 108.812 34.7488 108.66 34.8947C108.516 35.045 108.316 35.1294 108.108 35.128H107.026C106.817 35.1294 106.617 35.045 106.474 34.8947C106.322 34.7493 106.237 34.5483 106.239 34.3388V20.7071C106.239 20.4944 106.317 20.3091 106.474 20.1512C106.617 20.0009 106.817 19.9165 107.026 19.9179H108.108C108.322 19.9179 108.506 19.9957 108.66 20.1512C108.816 20.3091 108.895 20.4944 108.895 20.7071V34.3388V34.3365ZM109.187 16.8182C109.189 17.0277 109.104 17.2288 108.952 17.3741C108.808 17.5244 108.608 17.6089 108.4 17.6075H106.736C106.527 17.6089 106.328 17.5244 106.184 17.3741C106.032 17.2288 105.947 17.0277 105.949 16.8182V15.1506C105.949 14.9356 106.025 14.7503 106.181 14.5947C106.325 14.4444 106.525 14.36 106.734 14.3614H108.397C108.611 14.3614 108.798 14.4392 108.952 14.5947C109.109 14.7503 109.187 14.9379 109.187 15.1506V16.8182ZM121.903 30.9166C121.916 30.5827 121.807 30.2555 121.597 29.9947C121.344 29.7165 121.028 29.5011 120.676 29.3656C120.17 29.1589 119.649 28.9929 119.116 28.8692C118.385 28.6903 117.651 28.524 116.914 28.3705C115.34 28.0388 114.235 27.4898 113.605 26.7189C112.976 25.9572 112.64 24.998 112.657 24.0127C112.649 22.8346 113.161 21.7122 114.056 20.9405C114.523 20.5333 115.112 20.2107 115.821 19.9774C116.532 19.7418 117.363 19.6251 118.315 19.6251C119.268 19.6251 120.099 19.7326 120.81 19.9454C121.519 20.1627 122.117 20.4349 122.602 20.7666C123.088 21.0983 123.458 21.4529 123.712 21.8349C123.965 22.2146 124.1 22.5806 124.119 22.9329C124.139 23.1416 124.058 23.3475 123.9 23.4865C123.749 23.6362 123.545 23.7201 123.332 23.7199H122.37C122.226 23.7154 122.084 23.6908 121.947 23.6467C121.763 23.5855 121.604 23.4677 121.493 23.3104C121.194 22.9444 120.808 22.6582 120.37 22.4777C119.876 22.2535 119.19 22.1414 118.315 22.1414C117.42 22.1414 116.695 22.3061 116.143 22.6378C115.589 22.9695 115.31 23.427 115.31 24.0127C115.31 24.3833 115.388 24.6806 115.545 24.9048C115.742 25.1625 116.004 25.3644 116.304 25.4904C116.652 25.6551 117.114 25.8061 117.687 25.9434C118.262 26.0806 118.976 26.2453 119.832 26.4398C120.727 26.6365 121.475 26.8836 122.078 27.1855C122.681 27.4898 123.166 27.8306 123.537 28.2104C123.905 28.5901 124.167 29.011 124.324 29.4685C124.478 29.926 124.556 30.4087 124.556 30.9166C124.556 31.4999 124.416 32.0672 124.133 32.6117C123.839 33.1718 123.426 33.6614 122.922 34.046C122.347 34.4823 121.701 34.8188 121.012 35.0411C120.188 35.306 119.326 35.4342 118.46 35.4208C117.508 35.4208 116.663 35.3041 115.922 35.0685C115.255 34.867 114.618 34.5769 114.028 34.2061C113.558 33.9151 113.147 33.5378 112.818 33.0943C112.535 32.6963 112.385 32.3189 112.365 31.9689C112.342 31.762 112.418 31.5566 112.569 31.413C112.723 31.2583 112.933 31.1738 113.152 31.1796H114.203C114.318 31.1796 114.456 31.1934 114.611 31.2231C114.767 31.2528 114.912 31.3649 115.048 31.5594C115.358 31.9894 115.786 32.3189 116.332 32.5545C116.877 32.7878 117.586 32.9045 118.46 32.9045C118.888 32.9045 119.312 32.8564 119.731 32.7581C120.147 32.662 120.518 32.5247 120.837 32.3486C121.16 32.1724 121.417 31.9643 121.611 31.7195C121.799 31.4936 121.902 31.2098 121.903 30.9166ZM126.949 31.2963C126.949 30.5162 127.103 29.8323 127.414 29.2489C127.727 28.6633 128.153 28.1669 128.698 27.7574C129.243 27.3457 129.879 27.0163 130.608 26.7623C131.338 26.5107 132.111 26.314 132.928 26.1767L137.04 25.5042V25.1244C137.04 24.1293 136.715 23.3859 136.062 22.8872C135.411 22.3908 134.601 22.1414 133.627 22.1414C132.771 22.1414 132.125 22.297 131.687 22.6081C131.25 22.9215 130.875 23.2921 130.564 23.7199C130.469 23.8587 130.338 23.97 130.185 24.0424C130.008 24.1073 129.82 24.1369 129.632 24.1293H128.758C128.544 24.1302 128.339 24.0462 128.187 23.896C128.029 23.7565 127.947 23.5496 127.969 23.3401C128.008 22.9123 128.178 22.4708 128.48 22.0248C128.781 21.5764 129.188 21.1761 129.704 20.8261C130.219 20.4738 130.813 20.1856 131.485 19.9614C132.154 19.7372 132.87 19.6251 133.627 19.6251C134.502 19.6251 135.314 19.7532 136.062 20.0071C136.812 20.2588 137.454 20.6293 137.988 21.1166C138.522 21.6039 138.941 22.2101 139.242 22.9306C139.543 23.6512 139.693 24.4816 139.693 25.4172V34.3388C139.696 34.5476 139.613 34.7486 139.463 34.8947C139.318 35.0461 139.116 35.1307 138.906 35.128H137.827C137.618 35.1294 137.418 35.045 137.274 34.8947C137.123 34.7493 137.038 34.5483 137.04 34.3388V33.1378C136.851 33.5257 136.571 33.8624 136.223 34.1192C135.834 34.4127 135.408 34.6535 134.955 34.8352C134.479 35.0296 133.982 35.1783 133.466 35.2744C132.991 35.3679 132.508 35.417 132.023 35.4208C131.315 35.4291 130.611 35.3208 129.938 35.1005C129.355 34.9119 128.812 34.6189 128.335 34.2358C127.453 33.5119 126.945 32.433 126.949 31.2963ZM132.316 32.9045C133.015 32.9045 133.657 32.797 134.239 32.5842C134.824 32.3692 135.323 32.0718 135.742 31.6921C136.161 31.31 136.481 30.8571 136.704 30.3309C136.927 29.8048 137.04 29.2192 137.04 28.5764V27.8444L133.597 28.4002C132.373 28.5947 131.402 28.9081 130.682 29.3381C129.961 29.7659 129.602 30.3218 129.602 31.0035C129.604 31.2256 129.654 31.4448 129.747 31.6463C129.846 31.8613 130.001 32.0672 130.215 32.2617C130.429 32.4561 130.707 32.6117 131.045 32.7283C131.386 32.8473 131.809 32.9045 132.316 32.9045ZM142.873 31.2963C142.873 30.5162 143.03 29.8323 143.34 29.2489C143.651 28.6633 144.077 28.1669 144.624 27.7574C145.167 27.3457 145.805 27.0163 146.534 26.7623C147.264 26.5107 148.035 26.314 148.852 26.1767L152.966 25.5042V25.1244C152.966 24.1293 152.639 23.3859 151.988 22.8872C151.337 22.3908 150.524 22.1414 149.553 22.1414C148.697 22.1414 148.051 22.297 147.614 22.6081C147.176 22.9215 146.801 23.2921 146.491 23.7199C146.395 23.8587 146.264 23.97 146.111 24.0424C145.934 24.1073 145.747 24.1369 145.559 24.1293H144.682C144.469 24.1296 144.264 24.0457 144.113 23.896C143.955 23.7565 143.874 23.5496 143.895 23.3401C143.934 22.9123 144.102 22.4708 144.403 22.0248C144.705 21.5764 145.114 21.1761 145.63 20.8261C146.145 20.4738 146.737 20.1856 147.409 19.9614C148.081 19.7372 148.794 19.6251 149.553 19.6251C150.428 19.6251 151.24 19.7532 151.988 20.0071C152.736 20.2588 153.378 20.6293 153.912 21.1166C154.448 21.6039 154.867 22.2101 155.166 22.9306C155.467 23.6512 155.619 24.4816 155.619 25.4172V34.3388C155.622 34.5479 155.538 34.7489 155.387 34.8947C155.242 35.0456 155.042 35.1301 154.832 35.128H153.751C153.542 35.1294 153.342 35.045 153.198 34.8947C153.047 34.7489 152.963 34.5479 152.966 34.3388V33.1378C152.777 33.5257 152.497 33.8624 152.149 34.1192C151.76 34.4129 151.332 34.6537 150.879 34.8352C150.402 35.0296 149.908 35.1783 149.392 35.2744C148.916 35.3681 148.432 35.4171 147.947 35.4208C147.239 35.4291 146.535 35.3208 145.862 35.1005C145.279 34.9119 144.736 34.6189 144.258 34.2358C143.377 33.5119 142.868 32.433 142.873 31.2963ZM148.239 32.9045C148.939 32.9045 149.581 32.797 150.165 32.5842C150.748 32.3692 151.247 32.0718 151.668 31.6921C152.085 31.31 152.404 30.8571 152.63 30.3309C152.853 29.8048 152.966 29.2192 152.966 28.5764V27.8444L149.523 28.4002C148.299 28.5947 147.326 28.9081 146.606 29.3381C145.888 29.7659 145.526 30.3218 145.526 31.0035C145.529 31.2258 145.579 31.445 145.674 31.6463C145.77 31.8613 145.927 32.0672 146.141 32.2617C146.355 32.4561 146.631 32.6117 146.969 32.7283C147.312 32.8473 147.735 32.9045 148.239 32.9045ZM161.832 28.5466C161.908 29.3267 162.078 29.9878 162.343 30.5368C162.605 31.0813 162.925 31.5296 163.305 31.8819C163.685 32.2319 164.106 32.4904 164.573 32.6551C165.04 32.8221 165.516 32.9068 166.002 32.9068C166.936 32.9068 167.732 32.7283 168.395 32.3783C169.056 32.0283 169.569 31.4404 169.939 30.6238C170.077 30.3104 170.215 30.1022 170.363 29.9947C170.52 29.8838 170.71 29.8276 170.903 29.8345H171.778C171.992 29.8345 172.18 29.9123 172.346 30.0679C172.512 30.2234 172.583 30.411 172.565 30.6238C172.526 31.1614 172.372 31.6846 172.114 32.1587C171.802 32.7523 171.376 33.2792 170.86 33.7097C170.305 34.1878 169.624 34.5904 168.816 34.9221C168.011 35.2538 167.072 35.4208 166.002 35.4208C165.028 35.4391 164.06 35.2601 163.158 34.8947C162.366 34.5664 161.651 34.078 161.059 33.4604C160.477 32.8422 160.021 32.1173 159.718 31.326C159.392 30.4843 159.209 29.5945 159.177 28.693C159.154 28.3083 159.14 27.9231 159.133 27.5378C159.124 27.0803 159.138 26.6846 159.179 26.3529C159.255 25.415 159.455 24.5388 159.777 23.7221C160.097 22.9009 160.537 22.1895 161.103 21.5856C161.667 20.9816 162.357 20.5035 163.174 20.1512C163.991 19.8012 164.932 19.6251 166.004 19.6251C167.072 19.6251 168.011 19.7921 168.816 20.1238C169.624 20.4555 170.305 20.8581 170.86 21.3362C171.412 21.8166 171.831 22.3313 172.114 22.8872C172.394 23.4431 172.546 23.9555 172.565 24.4221C172.586 24.6316 172.505 24.8385 172.346 24.978C172.195 25.1277 171.991 25.2116 171.778 25.2114H170.903C170.71 25.2183 170.52 25.1621 170.363 25.0512C170.218 24.9437 170.075 24.7355 169.939 24.4221C169.571 23.6032 169.056 23.0176 168.395 22.6676C167.732 22.3176 166.936 22.1414 166.002 22.1414C165.516 22.1414 165.035 22.2238 164.559 22.3908C164.081 22.5565 163.644 22.8199 163.275 23.164C162.895 23.5163 162.576 23.9646 162.313 24.5114C162.03 25.1386 161.866 25.8126 161.83 26.4993C161.772 27.1805 161.772 27.8654 161.83 28.5466H161.832ZM108.195 53.1358C108.271 53.9136 108.441 54.577 108.704 55.126C108.968 55.6704 109.288 56.1188 109.668 56.4711C110.045 56.8211 110.469 57.0796 110.936 57.2443C111.403 57.4113 111.879 57.4959 112.365 57.4959C113.299 57.4959 114.095 57.3175 114.758 56.9675C115.418 56.6175 115.931 56.0296 116.302 55.2129C116.44 54.8995 116.578 54.6913 116.725 54.5838C116.883 54.473 117.073 54.4167 117.266 54.4237H118.141C118.355 54.4237 118.543 54.5015 118.709 54.657C118.875 54.8126 118.946 54.9979 118.927 55.2129C118.888 55.7505 118.735 56.2738 118.476 56.7479C118.164 57.3414 117.738 57.8684 117.222 58.2988C116.668 58.7769 115.987 59.1795 115.179 59.5112C114.374 59.8429 113.435 60.0099 112.365 60.0099C111.39 60.0282 110.423 59.8492 109.52 59.4838C108.728 59.1556 108.014 58.6671 107.422 58.0495C106.84 57.4314 106.384 56.7064 106.08 55.9152C105.754 55.0734 105.572 54.1836 105.539 53.2822C105.517 52.8974 105.503 52.5123 105.496 52.127C105.487 51.6694 105.5 51.2737 105.542 50.942C105.618 50.0041 105.818 49.1279 106.14 48.3113C106.458 47.49 106.899 46.7786 107.466 46.1747C108.029 45.5708 108.72 45.0927 109.537 44.7404C110.353 44.3904 111.295 44.2142 112.367 44.2142C113.435 44.2142 114.374 44.3812 115.179 44.7129C115.984 45.0446 116.668 45.4472 117.222 45.9253C117.775 46.4057 118.193 46.9204 118.476 47.4763C118.757 48.0322 118.909 48.5446 118.927 49.0113C118.949 49.2207 118.867 49.4276 118.709 49.5672C118.558 49.7168 118.354 49.8008 118.141 49.8005H117.266C117.073 49.8075 116.883 49.7512 116.725 49.6404C116.58 49.5328 116.438 49.3247 116.302 49.0113C115.934 48.1923 115.418 47.6067 114.756 47.2567C114.095 46.9067 113.299 46.7306 112.365 46.7306C111.879 46.7306 111.398 46.8129 110.922 46.9799C110.444 47.1457 110.007 47.4091 109.638 47.7531C109.258 48.1054 108.938 48.5538 108.676 49.1005C108.393 49.7277 108.229 50.4018 108.193 51.0884C108.134 51.7696 108.134 52.4546 108.193 53.1358H108.195ZM128.859 44.2142C129.909 44.2142 130.843 44.3744 131.66 44.6969C132.474 45.0172 133.176 45.4633 133.758 46.0283C134.343 46.5933 134.803 47.2819 135.144 48.0894C135.484 48.8992 135.694 49.7822 135.772 50.7384C135.79 50.9123 135.799 51.1227 135.799 51.3652V52.8864C135.799 53.1312 135.79 53.3302 135.772 53.4858C135.689 54.3998 135.472 55.2969 135.128 56.1485C134.798 56.9492 134.343 57.6309 133.758 58.1959C133.155 58.7744 132.442 59.2271 131.66 59.5273C130.843 59.8475 129.911 60.0077 128.859 60.0077C127.808 60.0077 126.876 59.8475 126.059 59.5273C125.276 59.2274 124.562 58.7747 123.958 58.1959C123.362 57.6128 122.891 56.9165 122.573 56.1485C122.221 55.3002 122.01 54.4011 121.947 53.4858C121.923 53.2867 121.908 53.0867 121.901 52.8864C121.88 52.3796 121.88 51.8721 121.901 51.3652C121.909 51.1558 121.924 50.9468 121.947 50.7384C122.013 49.828 122.224 48.9339 122.573 48.0894C122.889 47.3161 123.36 46.6148 123.958 46.0283C124.562 45.4495 125.276 44.9968 126.059 44.6969C126.876 44.3767 127.808 44.2165 128.859 44.2165V44.2142ZM133.116 53.3417C133.155 53.01 133.176 52.6051 133.176 52.127C133.176 51.6489 133.155 51.2348 133.116 50.8825C133.064 50.3223 132.937 49.7715 132.739 49.2446C132.382 48.2513 131.618 47.4544 130.638 47.0508C130.073 46.8258 129.468 46.7168 128.859 46.7306C128.178 46.7306 127.584 46.8381 127.08 47.0508C126.099 47.4549 125.336 48.2527 124.979 49.2469C124.786 49.7525 124.657 50.2992 124.6 50.8825C124.558 51.296 124.539 51.7114 124.542 52.127C124.542 52.6051 124.561 53.01 124.6 53.3394C124.66 53.925 124.784 54.4717 124.979 54.9773C125.337 55.9706 126.1 56.7675 127.08 57.1711C127.587 57.3861 128.178 57.4936 128.859 57.4936C129.54 57.4936 130.132 57.3861 130.638 57.1733C131.619 56.7693 132.382 55.9715 132.739 54.9773C132.932 54.4717 133.059 53.925 133.116 53.3394V53.3417ZM142.348 46.2044C142.538 45.9529 142.742 45.7131 142.961 45.4861C143.47 44.9577 144.115 44.5787 144.827 44.3904C145.236 44.2737 145.713 44.2142 146.256 44.2142C147.443 44.2142 148.424 44.4338 149.201 44.8731C149.979 45.3123 150.593 45.9414 151.04 46.7603C151.293 46.408 151.56 46.0763 151.843 45.7652C152.448 45.0967 153.239 44.6228 154.117 44.4041C154.593 44.2783 155.152 44.2142 155.794 44.2142C157.757 44.2142 159.188 44.8044 160.081 45.9848C160.976 47.1629 161.423 48.7757 161.423 50.8253V58.9279C161.425 59.1371 161.341 59.3381 161.19 59.4838C161.046 59.6347 160.845 59.7192 160.636 59.7171H159.556C159.348 59.7186 159.148 59.6341 159.004 59.4838C158.852 59.3385 158.767 59.1374 158.769 58.9279V51.1181C158.769 49.6152 158.477 48.5103 157.895 47.7989C157.311 47.0851 156.454 46.7306 155.327 46.7306C154.296 46.7306 153.465 47.0714 152.835 47.7531C152.202 48.4371 151.887 49.4894 151.887 50.9123V58.9279C151.889 59.1374 151.804 59.3385 151.652 59.4838C151.508 59.6341 151.308 59.7186 151.1 59.7171H150.018C149.81 59.7186 149.61 59.6341 149.466 59.4838C149.314 59.3385 149.229 59.1374 149.231 58.9279V51.1181C149.231 49.6152 148.939 48.5103 148.357 47.7989C147.772 47.0851 146.919 46.7306 145.791 46.7306C144.76 46.7306 143.927 47.0714 143.297 47.7531C142.664 48.4371 142.348 49.4894 142.348 50.9123V58.9279C142.35 59.1374 142.266 59.3385 142.114 59.4838C141.97 59.6341 141.77 59.7186 141.562 59.7171H140.48C140.271 59.7186 140.071 59.6341 139.928 59.4838C139.776 59.3385 139.691 59.1374 139.693 58.9279V45.294C139.693 45.0812 139.771 44.8959 139.928 44.7381C140.071 44.5878 140.271 44.5033 140.48 44.5048H141.562C141.776 44.5048 141.96 44.5825 142.114 44.7381C142.27 44.8959 142.348 45.0812 142.348 45.294V46.2021V46.2044ZM173.046 60.0099C171.84 60.0099 170.878 59.7995 170.158 59.3809C169.44 58.9622 168.894 58.507 168.524 58.0197V64.4844C168.527 64.6933 168.444 64.8942 168.294 65.0403C168.149 65.1918 167.947 65.2764 167.737 65.2736H166.658C166.449 65.2751 166.249 65.1906 166.105 65.0403C165.954 64.895 165.869 64.6939 165.871 64.4844V45.2963C165.871 45.0835 165.949 44.8982 166.105 44.7404C166.249 44.5901 166.449 44.5056 166.658 44.507H167.739C167.951 44.507 168.137 44.5848 168.292 44.7404C168.448 44.8982 168.526 45.0835 168.526 45.2963V46.2044C168.915 45.6783 169.47 45.2139 170.188 44.8136C170.908 44.4155 171.861 44.2142 173.046 44.2142C173.959 44.2142 174.811 44.3744 175.6 44.6969C176.385 45.0172 177.073 45.4816 177.655 46.0878C178.237 46.6917 178.704 47.4214 179.054 48.2793C179.404 49.1394 179.609 50.1025 179.666 51.1753C179.708 51.8083 179.708 52.4433 179.666 53.0763C179.609 54.1515 179.404 55.1145 179.054 55.9724C178.735 56.7829 178.26 57.5235 177.655 58.1524C177.072 58.7461 176.371 59.2134 175.598 59.525C174.811 59.8475 173.959 60.0099 173.046 60.0099ZM168.526 50.8551C168.504 51.2397 168.494 51.625 168.496 52.0103C168.496 52.4884 168.506 52.8727 168.526 53.1655C168.584 54.5495 168.996 55.6178 169.764 56.3681C170.533 57.1184 171.529 57.4936 172.756 57.4936C174.037 57.4936 175.05 57.0841 175.789 56.2652C176.525 55.4462 176.935 54.3345 177.013 52.9299C177.031 52.3855 177.031 51.8387 177.013 51.292C176.935 49.8897 176.527 48.7757 175.789 47.959C175.05 47.14 174.04 46.7306 172.753 46.7306C171.55 46.7306 170.558 47.1012 169.78 47.8423C169.003 48.5835 168.584 49.5877 168.526 50.8551ZM183.385 45.2963C183.385 45.0835 183.463 44.8982 183.619 44.7404C183.763 44.5901 183.963 44.5056 184.172 44.507H185.253C185.467 44.507 185.651 44.5848 185.806 44.7404C185.962 44.8982 186.04 45.0835 186.04 45.2963V53.0191C186.04 54.5198 186.376 55.6407 187.046 56.3818C187.718 57.123 188.693 57.4936 189.977 57.4936C191.202 57.4936 192.164 57.123 192.865 56.3818C193.565 55.6407 193.915 54.5198 193.915 53.0191V45.294C193.915 45.0812 193.993 44.8959 194.147 44.7381C194.291 44.5872 194.492 44.5027 194.702 44.5048H195.783C195.995 44.5048 196.179 44.5825 196.336 44.7381C196.492 44.8959 196.568 45.0812 196.568 45.294V58.9256C196.571 59.1344 196.488 59.3354 196.338 59.4815C196.193 59.633 195.991 59.7176 195.781 59.7148H194.702C194.493 59.7163 194.293 59.6318 194.149 59.4815C193.998 59.3362 193.913 59.1351 193.915 58.9256V58.0175C193.547 58.5047 193.02 58.9599 192.341 59.3786C191.66 59.7972 190.725 60.0077 189.54 60.0077C188.627 60.0077 187.791 59.8567 187.032 59.5547C186.296 59.2676 185.629 58.8286 185.076 58.2668C184.515 57.6823 184.088 56.9838 183.824 56.2194C183.52 55.3302 183.372 54.3953 183.387 53.456V45.294L183.385 45.2963ZM205.13 54.5975C205.13 54.9681 205.163 55.3158 205.232 55.6361C205.301 55.9564 205.42 56.2354 205.595 56.4711C205.788 56.7173 206.046 56.9044 206.341 57.0109C206.661 57.139 207.075 57.2008 207.579 57.2008H209.125C209.339 57.2008 209.523 57.2786 209.678 57.4364C209.834 57.592 209.912 57.7773 209.912 57.99V58.9279C209.915 59.1371 209.831 59.3381 209.68 59.4838C209.536 59.6347 209.335 59.7192 209.125 59.7171H207.287C205.595 59.7171 204.371 59.2779 203.612 58.3995C202.852 57.5233 202.475 56.256 202.475 54.5975V47.0234H200.317C200.108 47.0242 199.908 46.9389 199.764 46.7878C199.612 46.6424 199.528 46.4414 199.53 46.2319V45.2963C199.53 45.0835 199.608 44.8982 199.762 44.7404C199.906 44.5895 200.107 44.505 200.317 44.507H202.475V39.7397C202.475 39.5247 202.553 39.3394 202.71 39.1839C202.853 39.0336 203.053 38.9491 203.262 38.9505H204.344C204.555 38.9505 204.742 39.0283 204.896 39.1839C205.052 39.3394 205.13 39.527 205.13 39.7397V44.507H208.835C209.047 44.507 209.231 44.5848 209.388 44.7404C209.544 44.8982 209.62 45.0835 209.62 45.2963V46.2342C209.623 46.4422 209.539 46.6422 209.39 46.7878C209.245 46.9401 209.044 47.0255 208.833 47.0234H205.128V54.5975H205.13ZM212.349 50.6492C212.425 49.7525 212.639 48.9152 212.989 48.1329C213.341 47.3551 213.797 46.6711 214.36 46.0878C214.924 45.5021 215.601 45.0446 216.388 44.7129C217.225 44.3714 218.122 44.2018 219.027 44.2142C220.076 44.2142 221.015 44.3858 221.841 44.7267C222.67 45.0698 223.374 45.5593 223.958 46.2044C224.541 46.8472 224.987 47.6273 225.298 48.5446C225.608 49.4596 225.765 50.4845 225.765 51.6145V52.4038C225.767 52.6129 225.683 52.8139 225.532 52.9596C225.389 53.1114 225.188 53.1967 224.978 53.1953H214.945V53.3691C214.984 54.6959 215.387 55.7139 216.155 56.4253C216.922 57.139 217.881 57.4936 219.027 57.4936C220.097 57.4936 220.898 57.3426 221.434 57.0407C221.968 56.7387 222.401 56.4001 222.732 56.0318C222.85 55.905 222.988 55.7969 223.139 55.7116C223.305 55.6427 223.484 55.6115 223.664 55.6201H224.538C224.756 55.6213 224.965 55.7057 225.123 55.8557C225.29 55.9887 225.369 56.2028 225.328 56.4116C225.242 56.8261 225.073 57.2192 224.831 57.5668C224.516 58.0289 224.115 58.4266 223.65 58.738C223.135 59.0972 222.493 59.4014 221.726 59.6439C220.958 59.8864 220.058 60.0099 219.027 60.0099C218.056 60.0099 217.179 59.8384 216.404 59.4975C215.641 59.1671 214.951 58.6897 214.374 58.0929C213.801 57.4982 213.339 56.7959 212.989 55.9884C212.631 55.1461 212.415 54.2512 212.349 53.3394C212.252 52.4452 212.252 51.5433 212.349 50.6492ZM214.945 50.7384H223.139V50.6492C223.139 49.4596 222.766 48.5103 222.016 47.7989C221.268 47.0851 220.272 46.7306 219.027 46.7306C218.463 46.7306 217.939 46.8221 217.453 47.0074C216.978 47.1863 216.542 47.4551 216.169 47.7989C215.801 48.1397 215.509 48.5538 215.295 49.041C215.076 49.55 214.957 50.0959 214.945 50.6492V50.7384ZM237.213 44.507C237.427 44.507 237.611 44.5848 237.765 44.7404C237.922 44.8982 238 45.0835 238 45.2963V46.2342C238.002 46.4425 237.918 46.6426 237.768 46.7878C237.624 46.9395 237.423 47.0249 237.213 47.0234H235.522C233.285 47.0234 232.167 48.1443 232.167 50.3861V58.9279C232.169 59.1371 232.085 59.3381 231.934 59.4838C231.79 59.6347 231.589 59.7192 231.38 59.7171H230.298C230.089 59.7186 229.89 59.6341 229.746 59.4838C229.595 59.3381 229.511 59.1371 229.513 58.9279V45.294C229.513 45.0812 229.592 44.8959 229.746 44.7381C229.89 44.5878 230.089 44.5033 230.298 44.5048H231.38C231.594 44.5048 231.778 44.5825 231.932 44.7381C232.088 44.8959 232.167 45.0812 232.167 45.294V46.2021C232.558 45.6165 233.023 45.1865 233.568 44.9142C234.111 44.6397 234.822 44.5048 235.697 44.5048H237.213V44.507ZM114.118 81.0968C114.13 80.7637 114.022 80.4374 113.812 80.1772C113.559 79.8993 113.245 79.6839 112.894 79.5481C112.388 79.3406 111.866 79.1739 111.334 79.0494C110.603 78.8713 109.868 78.7058 109.132 78.553C107.558 78.2213 106.453 77.67 105.823 76.9014C105.193 76.1398 104.857 75.1805 104.874 74.1952C104.867 73.0171 105.378 71.8948 106.274 71.123C106.741 70.7135 107.327 70.391 108.039 70.1576C108.747 69.9243 109.58 69.8076 110.531 69.8076C111.486 69.8076 112.316 69.9151 113.025 70.1279C113.736 70.3429 114.332 70.6174 114.82 70.9491C115.303 71.2808 115.674 71.6354 115.927 72.0151C116.18 72.3972 116.318 72.7609 116.336 73.1132C116.358 73.3226 116.276 73.5295 116.118 73.669C115.967 73.8187 115.763 73.9026 115.549 73.9024H114.585C114.442 73.8977 114.3 73.8731 114.164 73.8292C113.981 73.768 113.822 73.6502 113.711 73.4929C113.412 73.1269 113.026 72.8407 112.588 72.6602C112.093 72.436 111.407 72.324 110.531 72.324C109.638 72.324 108.913 72.4887 108.358 72.8204C107.806 73.152 107.528 73.6096 107.528 74.1929C107.528 74.5658 107.606 74.8632 107.76 75.0851C107.957 75.3436 108.219 75.5463 108.519 75.673C108.869 75.8377 109.332 75.9886 109.905 76.1259C110.48 76.2632 111.193 76.4279 112.049 76.6223C112.942 76.8167 113.692 77.0661 114.295 77.368C114.896 77.67 115.384 78.0131 115.752 78.3929C116.12 78.7726 116.385 79.1935 116.541 79.651C116.695 80.1086 116.771 80.589 116.771 81.0968C116.771 81.6824 116.633 82.2475 116.35 82.7942C116.057 83.3543 115.644 83.8439 115.14 84.2285C114.564 84.6641 113.918 84.9997 113.23 85.2213C112.405 85.4864 111.542 85.6147 110.676 85.601C109.725 85.601 108.881 85.4867 108.14 85.251C107.472 85.0497 106.834 84.7596 106.244 84.3886C105.773 84.0977 105.362 83.7204 105.033 83.2769C104.752 82.8765 104.601 82.5014 104.582 82.1514C104.56 81.9445 104.636 81.7392 104.787 81.5955C104.94 81.4408 105.151 81.3563 105.369 81.3622H106.419C106.536 81.3622 106.672 81.3759 106.828 81.4056C106.982 81.4331 107.127 81.5452 107.265 81.7419C107.576 82.1697 108.004 82.5014 108.549 82.7347C109.092 82.9703 109.803 83.087 110.678 83.087C111.106 83.087 111.529 83.039 111.946 82.9406C112.365 82.8422 112.733 82.7073 113.055 82.5288C113.377 82.355 113.633 82.1468 113.828 81.902C114.016 81.6752 114.118 81.3905 114.118 81.0968ZM122.416 78.7292C122.494 79.5069 122.665 80.1703 122.927 80.7194C123.189 81.2638 123.511 81.7122 123.891 82.0622C124.268 82.4144 124.692 82.6729 125.157 82.8399C125.626 83.0046 126.1 83.087 126.588 83.087C127.522 83.087 128.318 82.9109 128.981 82.5609C129.642 82.2086 130.155 81.6229 130.525 80.8063C130.663 80.4929 130.801 80.2847 130.949 80.1772C131.106 80.0668 131.295 80.0106 131.487 80.0171H132.362C132.578 80.0171 132.767 80.0926 132.932 80.2504C133.098 80.4059 133.169 80.5912 133.151 80.8063C133.111 81.3433 132.956 81.8658 132.698 82.339C132.386 82.9333 131.96 83.4611 131.443 83.8922C130.891 84.368 130.21 84.7729 129.402 85.1046C128.597 85.4363 127.658 85.601 126.588 85.601C125.614 85.6193 124.646 85.4403 123.744 85.0749C122.952 84.7473 122.237 84.2597 121.645 83.6429C121.063 83.0241 120.607 82.2983 120.304 81.5063C119.978 80.6652 119.795 79.7762 119.763 78.8756C119.741 78.4908 119.726 78.1057 119.719 77.7203C119.71 77.2628 119.724 76.8671 119.765 76.5354C119.841 75.5975 120.041 74.7213 120.361 73.9047C120.683 73.0834 121.125 72.372 121.689 71.7681C122.253 71.1619 122.943 70.6861 123.76 70.3338C124.574 69.9838 125.518 69.8076 126.588 69.8076C127.658 69.8076 128.595 69.9723 129.402 70.304C130.208 70.6357 130.891 71.0406 131.443 71.5187C131.998 71.9968 132.417 72.5138 132.698 73.0697C132.981 73.6256 133.13 74.1357 133.151 74.6024C133.173 74.8126 133.092 75.0205 132.932 75.1605C132.781 75.3102 132.577 75.3941 132.364 75.3939H131.489C131.296 75.4008 131.106 75.3446 130.949 75.2337C130.804 75.1262 130.661 74.9158 130.525 74.6047C130.157 73.7857 129.642 73.2001 128.979 72.8501C128.318 72.4978 127.522 72.324 126.588 72.324C126.102 72.324 125.622 72.4063 125.145 72.571C124.667 72.7381 124.23 73.0031 123.861 73.3488C123.481 73.6988 123.162 74.1471 122.899 74.6916C122.616 75.3195 122.452 75.9944 122.416 76.6818C122.358 77.363 122.358 78.0479 122.416 78.7292ZM139.523 84.519C139.525 84.7282 139.441 84.9292 139.29 85.0749C139.147 85.226 138.947 85.3114 138.738 85.3105H137.656C137.448 85.3114 137.248 85.226 137.104 85.0749C136.952 84.9296 136.867 84.7285 136.869 84.519V70.8919C136.869 70.6769 136.948 70.4916 137.102 70.336C137.246 70.1852 137.447 70.1006 137.656 70.1027H138.738C138.95 70.1027 139.134 70.1805 139.29 70.336C139.447 70.4916 139.523 70.6792 139.523 70.8919V84.5213V84.519ZM139.815 67.0008C139.817 67.2091 139.733 67.4092 139.583 67.5544C139.439 67.7061 139.238 67.7915 139.028 67.79H137.364C137.155 67.7908 136.955 67.7055 136.812 67.5544C136.661 67.4096 136.576 67.2095 136.577 67.0008V65.3308C136.577 65.1181 136.655 64.9328 136.812 64.7772C136.956 64.6269 137.156 64.5425 137.364 64.5439H139.028C139.242 64.5439 139.426 64.6217 139.58 64.7772C139.737 64.9328 139.815 65.1181 139.815 65.3331V67.0008ZM143.416 76.2426C143.494 75.3458 143.708 74.5063 144.061 73.7262C144.408 72.9485 144.866 72.2645 145.43 71.6789C145.993 71.0955 146.67 70.6357 147.455 70.3063C148.292 69.9645 149.191 69.7948 150.096 69.8076C151.146 69.8076 152.085 69.9792 152.911 70.32C153.739 70.6609 154.441 71.1527 155.025 71.7955C155.608 72.4406 156.056 73.2207 156.367 74.1357C156.678 75.053 156.834 76.0756 156.834 77.2079V77.9971C156.836 78.2066 156.751 78.4077 156.599 78.553C156.456 78.7033 156.256 78.7878 156.047 78.7863H146.014V78.9625C146.051 80.2893 146.456 81.3073 147.222 82.0187C147.991 82.7301 148.948 83.087 150.096 83.087C151.166 83.087 151.967 82.936 152.503 82.634C153.037 82.3321 153.47 81.9935 153.801 81.6252C153.92 81.4975 154.057 81.3887 154.209 81.3027C154.375 81.2354 154.554 81.2057 154.733 81.2158H155.608C155.825 81.2164 156.034 81.2999 156.192 81.4491C156.359 81.5821 156.438 81.7962 156.397 82.005C156.312 82.4195 156.143 82.8125 155.9 83.1602C155.585 83.6215 155.185 84.0183 154.719 84.3291C154.204 84.6906 153.562 84.9925 152.793 85.2373C152.027 85.4798 151.127 85.6033 150.096 85.6033C149.123 85.6033 148.249 85.4317 147.473 85.0909C146.71 84.7605 146.02 84.2831 145.444 83.6863C144.871 83.0916 144.408 82.3893 144.058 81.5818C143.7 80.7396 143.483 79.8447 143.416 78.9328C143.319 78.0386 143.319 77.1367 143.416 76.2426ZM146.012 76.3295H154.209V76.2426C154.209 75.053 153.833 74.1014 153.086 73.39C152.338 72.6808 151.341 72.324 150.094 72.324C149.533 72.324 149.008 72.4155 148.52 72.6007C148.046 72.7792 147.61 73.0472 147.238 73.39C146.87 73.7331 146.578 74.1449 146.364 74.6344C146.145 75.1433 146.025 75.6891 146.012 76.2426V76.3295ZM174.056 84.519C174.058 84.7282 173.974 84.9292 173.823 85.0749C173.68 85.226 173.48 85.3114 173.271 85.3105H172.19C171.981 85.3114 171.781 85.226 171.637 85.0749C171.486 84.9296 171.401 84.7285 171.403 84.519V76.7984C171.403 75.2978 171.044 74.1746 170.323 73.4357C169.603 72.6945 168.602 72.324 167.318 72.324C166.094 72.324 165.109 72.6945 164.359 73.4334C163.611 74.1746 163.236 75.2978 163.236 76.7962V84.519C163.239 84.7282 163.154 84.9292 163.004 85.0749C162.86 85.2266 162.659 85.312 162.449 85.3105H161.367C161.158 85.3114 160.958 85.226 160.815 85.0749C160.664 84.9292 160.58 84.7282 160.583 84.519V70.8919C160.583 70.6769 160.659 70.4916 160.813 70.336C160.958 70.1846 161.16 70.1 161.37 70.1027H162.449C162.663 70.1027 162.847 70.1805 163.001 70.336C163.158 70.4916 163.236 70.6792 163.236 70.8919V71.7978C163.604 71.3106 164.156 70.8599 164.884 70.439C165.613 70.0204 166.57 69.8099 167.758 69.8099C168.671 69.8099 169.516 69.9609 170.294 70.2628C171.071 70.5648 171.739 70.9949 172.293 71.5508C172.845 72.1066 173.278 72.7929 173.591 73.6119C173.902 74.4308 174.056 75.3481 174.056 76.3615V84.5213V84.519ZM180.458 78.7292C180.536 79.5069 180.706 80.1703 180.969 80.7194C181.231 81.2638 181.553 81.7122 181.933 82.0622C182.31 82.4144 182.734 82.6729 183.198 82.8399C183.668 83.0046 184.142 83.087 184.63 83.087C185.564 83.087 186.36 82.9109 187.023 82.5609C187.683 82.2086 188.196 81.6229 188.567 80.8063C188.705 80.4929 188.843 80.2847 188.99 80.1772C189.147 80.0668 189.337 80.0106 189.529 80.0171H190.403C190.62 80.0171 190.808 80.0926 190.974 80.2504C191.14 80.4059 191.211 80.5912 191.192 80.8063C191.152 81.3433 190.998 81.8658 190.739 82.339C190.427 82.9333 190.001 83.4611 189.485 83.8922C188.933 84.368 188.252 84.7729 187.444 85.1046C186.639 85.4363 185.7 85.601 184.63 85.601C183.655 85.6193 182.688 85.4403 181.785 85.0749C180.994 84.7473 180.279 84.2597 179.687 83.6429C179.104 83.0241 178.649 82.2983 178.345 81.5063C178.02 80.6652 177.837 79.7762 177.804 78.8756C177.782 78.4908 177.768 78.1057 177.761 77.7203C177.752 77.2628 177.765 76.8671 177.807 76.5354C177.883 75.5975 178.083 74.7213 178.403 73.9047C178.725 73.0834 179.167 72.372 179.73 71.7681C180.294 71.1619 180.985 70.6861 181.802 70.3338C182.616 69.9838 183.56 69.8076 184.63 69.8076C185.7 69.8076 186.636 69.9723 187.444 70.304C188.249 70.6357 188.933 71.0406 189.485 71.5187C190.04 71.9968 190.458 72.5138 190.739 73.0697C191.022 73.6256 191.172 74.1357 191.192 74.6024C191.215 74.8126 191.133 75.0205 190.974 75.1605C190.823 75.3102 190.619 75.3941 190.405 75.3939H189.531C189.338 75.4008 189.148 75.3446 188.99 75.2337C188.843 75.1262 188.703 74.9158 188.567 74.6047C188.199 73.7857 187.683 73.2001 187.021 72.8501C186.36 72.4978 185.564 72.324 184.63 72.324C184.144 72.324 183.663 72.4063 183.187 72.571C182.709 72.7381 182.271 73.0031 181.903 73.3488C181.523 73.6988 181.203 74.1471 180.941 74.6916C180.657 75.3195 180.493 75.9944 180.458 76.6818C180.399 77.363 180.399 78.0479 180.458 78.7292ZM194.212 76.2426C194.288 75.3458 194.502 74.5063 194.854 73.7262C195.203 72.9485 195.659 72.2645 196.223 71.6789C196.787 71.0955 197.463 70.6357 198.25 70.3063C199.087 69.9648 199.985 69.7951 200.889 69.8076C201.941 69.8076 202.878 69.9792 203.704 70.32C204.532 70.6609 205.236 71.1527 205.821 71.7955C206.403 72.4406 206.849 73.2207 207.16 74.1357C207.473 75.053 207.627 76.0756 207.627 77.2079V77.9971C207.63 78.2063 207.546 78.4073 207.395 78.553C207.251 78.7039 207.05 78.7884 206.84 78.7863H196.807V78.9625C196.846 80.2893 197.249 81.3073 198.018 82.0187C198.786 82.7301 199.744 83.087 200.889 83.087C201.96 83.087 202.763 82.936 203.296 82.634C203.83 82.3321 204.263 81.9935 204.594 81.6252C204.713 81.4975 204.85 81.3887 205.002 81.3027C205.169 81.2351 205.349 81.2054 205.529 81.2158H206.403C206.62 81.217 206.828 81.3004 206.985 81.4491C207.152 81.5821 207.231 81.7962 207.19 82.005C207.105 82.4193 206.937 82.8124 206.695 83.1602C206.38 83.6217 205.979 84.0185 205.512 84.3291C204.997 84.6906 204.355 84.9925 203.589 85.2373C202.82 85.4798 201.92 85.6033 200.889 85.6033C199.918 85.6033 199.042 85.4317 198.266 85.0909C197.504 84.7602 196.815 84.2829 196.239 83.6863C195.664 83.0916 195.203 82.3893 194.854 81.5818C194.495 80.7397 194.277 79.8448 194.209 78.9328C194.112 78.0386 194.112 77.1367 194.209 76.2426H194.212ZM196.807 76.3295H205.002V76.2426C205.002 75.053 204.629 74.1014 203.879 73.39C203.131 72.6808 202.134 72.324 200.889 72.324C200.326 72.324 199.801 72.4155 199.316 72.6007C198.84 72.779 198.404 73.047 198.031 73.39C197.663 73.7331 197.371 74.1449 197.157 74.6344C196.939 75.1434 196.82 75.6893 196.807 76.2426V76.3295ZM44.9505 104L0.0299148 78.0292L0 26.0257L44.8929 0L89.8112 25.9731L89.8434 77.9743L44.9505 104ZM79.3433 34.8009C77.4633 34.8009 75.9399 36.329 75.9399 38.2094C75.9399 40.0966 77.4633 41.6247 79.3456 41.6247C81.221 41.6247 82.7444 40.0966 82.7444 38.2094C82.7444 36.329 81.221 34.8009 79.3456 34.8009H79.3433ZM65.7298 34.8009C63.852 34.8009 62.331 36.329 62.331 38.2094C62.331 40.0966 63.8497 41.6247 65.7298 41.6247C67.6121 41.6247 69.1331 40.0966 69.1331 38.2094C69.1331 36.329 67.6121 34.8009 65.7298 34.8009ZM79.3433 48.8283C77.4633 48.8283 75.9422 50.3564 75.9422 52.239C75.9422 54.124 77.461 55.6498 79.3433 55.6498C81.221 55.6498 82.7444 54.124 82.7444 52.2413C82.7444 50.3564 81.221 48.8283 79.3433 48.8283ZM38.5096 48.8283C36.6295 48.8283 35.1039 50.3564 35.1039 52.239C35.1039 54.124 36.6295 55.6498 38.5096 55.6498C40.3896 55.6498 41.9153 54.124 41.9153 52.2413C41.9153 50.3564 40.3896 48.8283 38.5096 48.8283ZM65.7321 48.8283H52.1185C50.2362 48.8283 48.7174 50.3564 48.7174 52.239C48.7174 54.124 50.2362 55.6498 52.1185 55.6498H65.7321C67.6075 55.6498 69.1308 54.124 69.1308 52.2413C69.1308 50.3564 67.6075 48.8283 65.7321 48.8283ZM24.8983 48.8283H11.2848C9.40936 48.8283 7.8837 50.3564 7.8837 52.239C7.8837 54.124 9.40936 55.6498 11.2848 55.6498H24.8983C26.7761 55.6498 28.2994 54.124 28.2994 52.2413C28.2994 50.3564 26.7761 48.8283 24.8983 48.8283ZM79.3479 62.8534C77.4656 62.8534 75.9422 64.3815 75.9422 66.2642C75.9422 68.1514 77.4656 69.6772 79.3479 69.6772C81.221 69.6772 82.7444 68.1514 82.7444 66.2642C82.7444 64.3815 81.221 62.8557 79.3479 62.8557V62.8534ZM65.7321 69.6772C67.6121 69.6772 69.1331 68.1514 69.1331 66.2642C69.1331 64.3815 67.6121 62.8557 65.7321 62.8557C63.852 62.8557 62.3287 64.3815 62.3287 66.2642C62.3287 68.1514 63.852 69.6772 65.7344 69.6772H65.7321ZM52.1208 69.6772C54.0031 69.6772 55.5265 68.1514 55.5265 66.2642C55.5265 64.3815 54.0031 62.8557 52.1208 62.8557C50.2408 62.8557 48.722 64.3815 48.722 66.2642C48.722 68.1514 50.2408 69.6772 52.1208 69.6772Z" fill="black"/>
</svg>
