<?xml version="1.0" encoding="UTF-8"?>
<svg width="123" height="124" viewBox="0 0 123 124" xmlns="http://www.w3.org/2000/svg">
  <title>
    National Centre for Computing Education
  </title>
  <g fill="none">
      <g transform="translate(-59 -34)translate(59 34)">
        <polygon points="0 124 123 124 123 0 0 0" fill="#5761AC"/>
        <g transform="translate(10 11)" fill="#FFF">
          <path d="M21.3 10.4L21.3 9.9 19.8 10.1C18.8 10.2 18.4 10.6 18.4 11.1 18.4 11.7 18.8 12 19.6 12 20.6 12 21.3 11.4 21.3 10.4M15.2 11.4C15.2 9.7 16.6 8.7 19.7 8.3L21.3 8.1 21.3 7.7C21.3 7.1 20.8 6.6 20 6.6 19.3 6.6 18.8 7.1 18.8 7.8L15.6 7.8C15.6 5.8 17.3 4.5 20.1 4.5 22.8 4.5 24.6 5.8 24.6 7.9L24.6 13.8 21.3 13.8 21.3 12.7 21.1 12.7C20.6 13.6 19.5 14 18.3 14 16.4 14 15.2 13.1 15.2 11.4"/>
          <path d="M26.7 10.6L26.7 7.1 25.5 7.1 25.5 4.8 26.8 4.8 27.5 1.9 30.1 1.9 30.1 4.8 32 4.8 32 7.1 30.1 7.1 30.1 10.4C30.1 11.1 30.5 11.6 31.2 11.6 31.4 11.6 31.8 11.5 32.1 11.4L32.1 13.7C31.5 13.9 30.6 14 30 14 28 14 26.7 12.6 26.7 10.6"/>
          <path d="M33.3 13.8L36.6 13.8 36.6 4.8 33.3 4.8 33.3 13.8ZM33.1 2C33.1 0.9 33.9 0.2 35 0.2 36.1 0.2 36.9 0.9 36.9 2 36.9 3 36.1 3.8 35 3.8 33.9 3.8 33.1 3 33.1 2L33.1 2Z"/>
          <path d="M45 9.3C45 8.1 44.2 7.3 43.1 7.3 42 7.3 41.2 8.1 41.2 9.3 41.2 10.5 42 11.3 43.1 11.3 44.2 11.3 45 10.5 45 9.3M37.9 9.3C37.9 6.3 39.9 4.5 43.1 4.5 46.3 4.5 48.3 6.3 48.3 9.3 48.3 12.3 46.3 14 43.1 14 39.9 14 37.9 12.2 37.9 9.3"/>
          <path d="M49.5 4.8L52.8 4.8 52.8 6.1 53 6.1C53.7 5 54.5 4.5 55.6 4.5 57.5 4.5 58.9 6.1 58.9 8.2L58.9 13.8 55.5 13.8 55.5 8.8C55.5 7.9 55 7.3 54.2 7.3 53.4 7.3 52.8 7.9 52.8 8.8L52.8 13.8 49.5 13.8 49.5 4.8Z"/>
          <path d="M65.9 10.4L65.9 9.9 64.4 10.1C63.5 10.2 63.1 10.6 63.1 11.1 63.1 11.7 63.5 12 64.2 12 65.2 12 65.9 11.4 65.9 10.4M59.8 11.4C59.8 9.7 61.3 8.7 64.3 8.3L65.9 8.1 65.9 7.7C65.9 7.1 65.5 6.6 64.7 6.6 64 6.6 63.5 7.1 63.5 7.8L60.2 7.8C60.2 5.8 62 4.5 64.7 4.5 67.5 4.5 69.3 5.8 69.3 7.9L69.3 13.8 65.9 13.8 65.9 12.7 65.8 12.7C65.2 13.6 64.1 14 62.9 14 61.1 14 59.8 13.1 59.8 11.4"/>
          <polygon points="70.8 13.8 74.1 13.8 74.1 0.7 70.8 0.7"/>
          <path d="M1 25.1C1 21.2 3.9 18.6 8 18.6 11.4 18.6 14.1 20.6 14.5 23.5L11 23.9C10.7 22.6 9.5 21.6 8.1 21.6 6.1 21.6 4.8 23 4.8 25.1 4.8 27.2 6.1 28.6 8.1 28.6 9.4 28.6 10.7 27.7 11 26.3L14.5 26.7C14.2 29.7 11.5 31.6 8 31.6 3.9 31.6 1 29 1 25.1"/>
          <path d="M22.3 26C22.2 25.1 21.5 24.4 20.6 24.4 19.7 24.4 19.1 25 18.9 26L22.3 26ZM15.5 26.8C15.5 23.9 17.6 22.1 20.7 22.1 23.7 22.1 25.7 24 25.7 26.9 25.7 27.1 25.7 27.6 25.7 27.8L18.9 27.8C19.1 28.7 19.8 29.3 20.8 29.3 21.6 29.3 22.2 28.9 22.5 28.4L25.3 28.9C24.9 30.6 23 31.6 20.6 31.6 17.6 31.6 15.5 29.7 15.5 26.8L15.5 26.8Z"/>
          <path d="M26.9 22.3L30.2 22.3 30.2 23.7 30.4 23.7C31.1 22.6 31.9 22.1 33 22.1 34.9 22.1 36.3 23.6 36.3 25.7L36.3 31.4 32.9 31.4 32.9 26.3C32.9 25.5 32.4 24.9 31.6 24.9 30.8 24.9 30.2 25.5 30.2 26.4L30.2 31.4 26.9 31.4 26.9 22.3Z"/>
          <path d="M38.3 28.1L38.3 24.7 37.2 24.7 37.2 22.3 38.5 22.3 39.1 19.5 41.7 19.5 41.7 22.3 43.6 22.3 43.6 24.7 41.7 24.7 41.7 28C41.7 28.7 42.1 29.1 42.8 29.1 43 29.1 43.4 29.1 43.7 29L43.7 31.3C43.1 31.5 42.2 31.6 41.7 31.6 39.7 31.6 38.3 30.2 38.3 28.1"/>
          <path d="M44.9 22.3L48.2 22.3 48.2 23.6 48.4 23.6C48.8 22.7 49.6 22.1 50.5 22.1 50.9 22.1 51.3 22.2 51.6 22.4L51.6 25.3C51 25.1 50.4 24.9 50 24.9 48.9 24.9 48.2 25.7 48.2 26.9L48.2 31.4 44.9 31.4 44.9 22.3Z"/>
          <path d="M59 26C58.9 25.1 58.2 24.4 57.3 24.4 56.4 24.4 55.8 25 55.6 26L59 26ZM52.2 26.8C52.2 23.9 54.3 22.1 57.4 22.1 60.4 22.1 62.4 24 62.4 26.9 62.4 27.1 62.4 27.6 62.4 27.8L55.6 27.8C55.8 28.7 56.5 29.3 57.5 29.3 58.3 29.3 58.9 28.9 59.2 28.4L62.1 28.9C61.6 30.6 59.7 31.6 57.3 31.6 54.3 31.6 52.2 29.7 52.2 26.8L52.2 26.8Z"/>
          <path d="M68.7 24.7L67.5 24.7 67.5 22.3 68.7 22.3 68.7 21.7C68.7 19.5 70 18.1 71.9 18.1 72.6 18.1 73.4 18.2 74 18.4L74 20.9C73.7 20.9 73.4 20.8 73.1 20.8 72.5 20.8 72 21.2 72 21.7L72 22.3 74 22.3 74 24.7 72 24.7 72 31.4 68.7 31.4 68.7 24.7Z"/>
          <path d="M81.6 26.9C81.6 25.7 80.9 24.9 79.8 24.9 78.7 24.9 77.9 25.7 77.9 26.9 77.9 28 78.7 28.9 79.8 28.9 80.9 28.9 81.6 28 81.6 26.9M74.6 26.9C74.6 23.9 76.6 22.1 79.8 22.1 82.9 22.1 85 23.9 85 26.9 85 29.8 82.9 31.6 79.8 31.6 76.6 31.6 74.6 29.8 74.6 26.9"/>
          <path d="M86.2 22.3L89.5 22.3 89.5 23.6 89.7 23.6C90.1 22.7 90.9 22.1 91.8 22.1 92.2 22.1 92.6 22.2 92.8 22.4L92.8 25.3C92.3 25.1 91.7 24.9 91.2 24.9 90.2 24.9 89.5 25.7 89.5 26.9L89.5 31.4 86.2 31.4 86.2 22.3Z"/>
          <path d="M1 42.7C1 38.8 3.9 36.1 8 36.1 11.4 36.1 14.1 38.1 14.5 41.1L11 41.5C10.7 40.1 9.5 39.2 8.1 39.2 6.1 39.2 4.8 40.6 4.8 42.7 4.8 44.8 6.1 46.2 8.1 46.2 9.4 46.2 10.7 45.2 11 43.9L14.5 44.3C14.2 47.2 11.5 49.2 8 49.2 3.9 49.2 1 46.6 1 42.7"/>
          <path d="M22.5 44.4C22.5 43.2 21.8 42.4 20.7 42.4 19.6 42.4 18.8 43.2 18.8 44.4 18.8 45.6 19.6 46.4 20.7 46.4 21.8 46.4 22.5 45.6 22.5 44.4M15.4 44.4C15.4 41.5 17.5 39.7 20.7 39.7 23.8 39.7 25.9 41.5 25.9 44.4 25.9 47.4 23.8 49.2 20.7 49.2 17.5 49.2 15.4 47.4 15.4 44.4"/>
          <path d="M27 39.9L30.4 39.9 30.4 41.3 30.6 41.3C31.1 40.3 32.1 39.7 33.2 39.7 34.4 39.7 35.5 40.4 36 41.4L36.1 41.4C36.6 40.3 37.6 39.7 39 39.7 40.9 39.7 42.3 41.1 42.3 43.2L42.3 49 38.9 49 38.9 43.9C38.9 43.1 38.4 42.5 37.6 42.4 36.8 42.4 36.3 43 36.3 43.9L36.3 49 32.9 49 32.9 43.9C32.9 43 32.4 42.4 31.7 42.4 30.9 42.4 30.4 43 30.4 43.9L30.4 49 27 49 27 39.9Z"/>
          <path d="M46.9 44.4C46.9 45.6 47.7 46.4 48.8 46.4 49.9 46.4 50.7 45.6 50.7 44.4 50.7 43.3 49.9 42.4 48.8 42.4 47.7 42.4 46.9 43.3 46.9 44.4M54 44.4C54 47.3 52.4 49.2 50 49.2 48.8 49.2 47.9 48.7 47.3 47.9L47.1 47.9 47.1 53 43.7 53 43.7 39.9 47.1 39.9 47.1 40.9 47.3 40.9C47.9 40.1 48.7 39.7 49.9 39.7 52.4 39.7 54 41.5 54 44.4"/>
          <path d="M64.5 49L61.1 49 61.1 47.6 61 47.6C60.2 48.7 59.5 49.2 58.4 49.2 56.5 49.2 55.1 47.7 55.1 45.5L55.1 39.9 58.5 39.9 58.5 44.9C58.5 45.8 59 46.4 59.7 46.4 60.5 46.4 61.1 45.8 61.1 44.9L61.1 39.9 64.5 39.9 64.5 49Z"/>
          <path d="M66.7 45.7L66.7 42.2 65.5 42.2 65.5 39.9 66.8 39.9 67.4 37.1 70 37.1 70 39.9 72 39.9 72 42.2 70 42.2 70 45.5C70 46.2 70.5 46.7 71.1 46.7 71.4 46.7 71.7 46.6 72 46.6L72 48.9C71.4 49.1 70.6 49.2 70 49.2 68 49.2 66.7 47.8 66.7 45.7"/>
          <path d="M73.3 49L76.6 49 76.6 39.9 73.3 39.9 73.3 49ZM73 37.1C73 36 73.8 35.3 74.9 35.3 76.1 35.3 76.8 36 76.8 37.1 76.8 38.1 76.1 38.9 74.9 38.9 73.8 38.9 73 38.1 73 37.1L73 37.1Z"/>
          <path d="M78.2 39.9L81.6 39.9 81.6 41.2 81.8 41.2C82.5 40.2 83.3 39.7 84.4 39.7 86.3 39.7 87.6 41.2 87.6 43.3L87.6 49 84.3 49 84.3 43.9C84.3 43 83.8 42.4 83 42.4 82.2 42.4 81.6 43.1 81.6 44L81.6 49 78.2 49 78.2 39.9Z"/>
          <path d="M95.8 44.4C95.8 43.3 95 42.4 93.9 42.4 92.8 42.4 92.1 43.3 92.1 44.4 92.1 45.6 92.8 46.4 93.9 46.4 95 46.4 95.8 45.6 95.8 44.4M88.7 49.9L92 49.5C92.2 50.2 92.8 50.7 93.7 50.7 94.9 50.7 95.6 49.9 95.6 48.8L95.6 47.8 95.5 47.8C94.8 48.6 93.9 49 92.8 49 90.4 49 88.7 47.2 88.7 44.4 88.7 41.4 90.3 39.7 92.8 39.7 94 39.7 94.9 40.2 95.6 41L95.8 41 95.8 39.9 99 39.9 99 48.9C99 51.6 97 53.2 93.9 53.2 91 53.2 89.1 52 88.7 49.9"/>
          <polygon points="2.9 53.9 12.8 53.9 12.8 56.9 6.6 56.9 6.6 59 12.4 59 12.4 61.4 6.6 61.4 6.6 63.6 13 63.6 13 66.5 2.9 66.5"/>
          <path d="M21 62C21 60.8 20.2 60 19.1 60 18 60 17.3 60.8 17.3 62 17.3 63.1 18 64 19.1 64 20.2 64 21 63.1 21 62M13.9 62C13.9 59.1 15.6 57.2 18 57.2 19.2 57.2 20 57.7 20.7 58.5L20.8 58.5 20.8 53.4 24.2 53.4 24.2 66.5 20.8 66.5 20.8 65.5 20.7 65.5C20 66.3 19.2 66.7 18 66.7 15.5 66.7 13.9 64.9 13.9 62"/>
          <path d="M35 66.5L31.7 66.5 31.7 65.2 31.5 65.2C30.8 66.3 30 66.7 28.9 66.7 27 66.7 25.6 65.2 25.6 63.1L25.6 57.5 29 57.5 29 62.5C29 63.4 29.5 64 30.3 64 31.1 64 31.7 63.4 31.7 62.4L31.7 57.5 35 57.5 35 66.5Z"/>
          <path d="M36.2 62C36.2 59.1 38.3 57.2 41.3 57.2 44 57.2 45.9 58.6 46.2 60.8L43.1 61.2C42.9 60.4 42.2 59.9 41.4 59.9 40.3 59.9 39.6 60.7 39.6 62 39.6 63.2 40.3 64.1 41.4 64.1 42.2 64.1 42.9 63.5 43.1 62.8L46.2 63.1C45.9 65.4 44 66.7 41.3 66.7 38.3 66.7 36.2 64.9 36.2 62"/>
          <path d="M53 63.1L53 62.6 51.5 62.8C50.6 62.9 50.2 63.3 50.2 63.8 50.2 64.4 50.6 64.7 51.3 64.7 52.3 64.7 53 64.1 53 63.1M46.9 64.1C46.9 62.4 48.4 61.4 51.4 61L53 60.8 53 60.4C53 59.8 52.6 59.3 51.8 59.3 51.1 59.3 50.6 59.8 50.6 60.5L47.3 60.5C47.3 58.5 49.1 57.2 51.8 57.2 54.6 57.2 56.4 58.5 56.4 60.6L56.4 66.5 53 66.5 53 65.4 52.8 65.4C52.3 66.3 51.2 66.7 50 66.7 48.2 66.7 46.9 65.8 46.9 64.1"/>
          <path d="M58.5 63.3L58.5 59.8 57.3 59.8 57.3 57.5 58.6 57.5 59.2 54.6 61.8 54.6 61.8 57.5 63.8 57.5 63.8 59.8 61.8 59.8 61.8 63.1C61.8 63.8 62.3 64.3 62.9 64.3 63.2 64.3 63.5 64.2 63.8 64.1L63.8 66.4C63.2 66.6 62.4 66.7 61.8 66.7 59.8 66.7 58.5 65.3 58.5 63.3"/>
          <path d="M65.1 66.5L68.4 66.5 68.4 57.5 65.1 57.5 65.1 66.5ZM64.8 54.7C64.8 53.6 65.6 52.9 66.7 52.9 67.8 52.9 68.6 53.6 68.6 54.7 68.6 55.7 67.8 56.5 66.7 56.5 65.6 56.5 64.8 55.7 64.8 54.7L64.8 54.7Z"/>
          <path d="M76.7 62C76.7 60.8 75.9 60 74.9 60 73.7 60 73 60.8 73 62 73 63.2 73.7 64 74.9 64 75.9 64 76.7 63.2 76.7 62M69.6 62C69.6 59 71.7 57.2 74.9 57.2 78 57.2 80.1 59 80.1 62 80.1 65 78 66.7 74.9 66.7 71.7 66.7 69.6 64.9 69.6 62"/>
          <path d="M81.2 57.5L84.6 57.5 84.6 58.8 84.8 58.8C85.5 57.7 86.3 57.2 87.4 57.2 89.3 57.2 90.6 58.8 90.6 60.9L90.6 66.5 87.3 66.5 87.3 61.5C87.3 60.6 86.8 60 86 60 85.2 60 84.6 60.6 84.6 61.5L84.6 66.5 81.2 66.5 81.2 57.5Z"/>
          <polygon points="1.7 1.2 5.7 1.2 9.9 9 10.1 9 10.1 1.2 13.6 1.2 13.6 13.8 9.6 13.8 5.4 6 5.2 6 5.2 13.8 1.7 13.8"/>
        </g>
      </g>
  </g>
</svg>
