<?xml version="1.0" encoding="utf-8"?>
<!-- Generator: Adobe Illustrator 25.2.3, SVG Export Plug-In . SVG Version: 6.00 Build 0)  -->
<svg version="1.1" id="STEM_Learning" xmlns="http://www.w3.org/2000/svg" xmlns:xlink="http://www.w3.org/1999/xlink" x="0px"
	 y="0px" viewBox="0 0 279.43 134.1" enable-background="new 0 0 279.43 134.1" xml:space="preserve">
<g>
	<g>
		<g>
			<path fill="#747678" d="M134.71,97.14h2.05v13.47h5.54v1.68h-7.59V97.14z"/>
			<path fill="#747678" d="M145.1,97.14h7.66l-0.6,1.68h-5.01v4.87h4.94v1.7h-4.94v5.22h5.7v1.68h-7.75V97.14z"/>
			<path fill="#747678" d="M161.06,97.1h1.45l5.89,15.2h-2.18l-1.49-3.98h-5.86l-1.45,3.98h-2.14L161.06,97.1z M164.09,106.64
				l-1.43-3.96c-0.44-1.29-0.67-1.98-0.85-2.53h-0.05c-0.16,0.55-0.41,1.26-0.87,2.55l-1.43,3.93H164.09z"/>
			<path fill="#747678" d="M171.13,97.14h3.43c1.54,0,2.58,0.28,3.36,0.74c1.36,0.76,1.93,2.07,1.93,3.45c0,2.09-1.15,3.4-3.04,3.98
				v0.05c0.46,0.25,1.03,1.08,1.84,2.44l2.69,4.51h-2.39l-2.48-4.21c-0.71-1.26-1.29-1.96-1.72-2.07h-1.56v6.28h-2.05V97.14z
				 M174.53,104.34c0.8,0,1.4-0.16,1.95-0.48c0.76-0.41,1.24-1.22,1.24-2.32c0-0.87-0.32-1.61-0.97-2.09
				c-0.46-0.34-1.13-0.62-2.21-0.62h-1.38v5.52H174.53z"/>
			<path fill="#747678" d="M184.22,97.14h1.98l6.85,8.92c0.9,1.15,1.54,2.07,2.05,2.83h0.05c-0.05-0.83-0.05-1.56-0.05-2.64v-9.11
				h2.05v15.15h-1.79l-7.11-9.27c-0.85-1.1-1.47-1.98-2-2.74h-0.05c0.05,0.71,0.07,1.45,0.07,2.53v9.47h-2.05V97.14z"/>
			<path fill="#747678" d="M201.5,97.14h2.05v15.15h-2.05V97.14z"/>
			<path fill="#747678" d="M207.89,97.14h1.98l6.85,8.92c0.9,1.15,1.54,2.07,2.05,2.83h0.05c-0.05-0.83-0.05-1.56-0.05-2.64v-9.11
				h2.05v15.15h-1.79l-7.11-9.27c-0.85-1.1-1.47-1.98-2-2.74h-0.05c0.05,0.71,0.07,1.45,0.07,2.53v9.47h-2.05V97.14z"/>
			<path fill="#747678" d="M237.17,111.35c-1.13,0.57-3.04,1.17-5.13,1.17c-4.67,0-7.63-3.15-7.63-7.56c0-4.65,3.2-7.96,8-7.96
				c1.75,0,3.24,0.41,4.21,0.8v1.91c-1.1-0.55-2.46-0.97-4.09-0.97c-3.82,0-5.96,2.48-5.96,6.02c0,3.68,2.18,6,5.68,6
				c1.17,0,2.23-0.23,2.9-0.55v-5.15h2.02V111.35z"/>
		</g>
	</g>
</g>
<g>
	<path fill="#747678" d="M135.84,78.04c2.3,1.59,5.25,2.83,8.79,2.83c3.25,0,6.49-1.24,6.49-4.6c0-7.61-16.82-6.67-16.82-18.53
		c0-5.72,4.54-10.74,12.63-10.74c4.01,0,7.38,0.89,9.5,1.95v6.49c-3.07-1.59-6.2-2.48-9.26-2.48c-2.71,0-5.31,1.06-5.31,4.19
		c0,7.14,16.82,6.2,16.82,18.53c0,6.9-5.9,11.15-13.87,11.15c-4.54,0-8.79-1.3-11.74-3.36L135.84,78.04z"/>
	<path fill="#747678" d="M173.56,53.14h-11.33v-5.78h30.68l-1.83,5.78h-10.44v33.1h-7.08V53.14z"/>
	<path fill="#747678" d="M198.13,47.36h21.48l-1.89,5.78h-12.51v10.38h12.45v5.78h-12.45v11.15h14.46v5.78h-21.54V47.36z"/>
	<path fill="#747678" d="M227.6,47.36h6.43l10.21,14.69c1.36,2.01,2.36,3.48,3.25,5.02h0.12c0.83-1.48,1.83-3.19,3.19-5.25
		l9.32-14.46h6.49v38.89h-7.14V64.29c0-1.59,0-3.6,0.12-5.13h-0.12c-0.53,1.12-1.95,3.3-2.66,4.37l-7.67,11.92h-3.25l-8.5-12.21
		c-0.83-1.18-1.89-2.54-2.66-4.01h-0.12c0.06,1.53,0.06,3.54,0.06,4.9v22.13h-7.08V47.36z"/>
</g>
<path id="green_arc" fill="#69BE28" d="M67.66,50.27c10.63-0.07,30.36-18.95,45.28-35.99c-0.51-0.43-1.03-0.86-1.55-1.28
	C97.26,26.65,78.32,41.68,67.6,41.75c-11.23,0.08-29.34-14.44-43.48-28.71c-0.5,0.4-0.99,0.8-1.47,1.21
	C37.01,31.68,56.04,50.35,67.66,50.27"/>
<path id="red_arc" fill="#CF2453" d="M50.86,67.3C50.79,56.67,31.9,36.95,14.85,22.04c-0.43,0.51-0.86,1.03-1.28,1.55
	c13.65,14.12,28.7,33.06,28.77,43.77c0.08,11.23-14.43,29.35-28.69,43.5c0.4,0.5,0.8,0.99,1.21,1.47
	C32.29,97.96,50.95,78.93,50.86,67.3"/>
<path id="yellow_arc" fill="#FECB00" d="M84.48,66.92c0.04,10.64,18.87,30.41,35.87,45.37c0.44-0.51,0.86-1.03,1.28-1.55
	C108.03,96.59,93.04,77.6,93,66.89c-0.05-11.23,14.52-29.3,28.83-43.41c-0.4-0.5-0.8-0.99-1.21-1.48
	C103.15,36.32,84.44,55.29,84.48,66.92"/>
<path id="cyan_arc" fill="#00AFD8" d="M67.98,83.87c-10.64,0.07-30.36,18.94-45.28,35.99c0.51,0.43,1.03,0.86,1.55,1.28
	c14.12-13.65,33.07-28.68,43.79-28.75c11.23-0.08,29.34,14.45,43.48,28.72c0.5-0.4,0.99-0.8,1.47-1.21
	C98.63,102.46,79.61,83.79,67.98,83.87"/>
</svg>
