<svg width="209" height="70" viewBox="0 0 209 70" fill="none" xmlns="http://www.w3.org/2000/svg">
<g clip-path="url(#clip0_30_860)">
<path d="M69.95 0.0500488H46.63V23.3701H69.95V0.0500488Z" fill="#FFC000"/>
<path d="M23.32 0.0500488L46.63 23.3701V0.0500488H23.32Z" fill="#FFC000"/>
<path d="M46.64 46.6801H23.32V70.0001H46.64V46.6801Z" fill="#FFC000"/>
<path d="M23.32 0.0500488H0V23.3701H23.32V0.0500488Z" fill="#FFC000"/>
<path d="M0 46.6801L23.32 70.0001V46.6801H0Z" fill="#FFC000"/>
<path d="M23.32 23.37H0V46.69H23.32V23.37Z" fill="#FFC000"/>
<path d="M69.95 46.6801H46.63V70.0001H69.95V46.6801Z" fill="#120540"/>
<path d="M46.63 0.0500488V23.3701H69.95L46.63 0.0500488Z" fill="#120540"/>
<path d="M0 0.0500488V23.3701H23.32L0 0.0500488Z" fill="#120540"/>
<path d="M0 23.37L23.32 46.68V23.37H0Z" fill="#120540"/>
<path d="M23.32 46.6801L46.63 70.0001V46.6801H23.32Z" fill="#120540"/>
<path d="M208.67 23.9301H80.46V50.6101H208.67V23.9301Z" fill="#FFC000"/>
<path d="M171.09 33.07H175.62C175.8 33.07 175.9 32.94 175.9 32.79V31.39C175.9 31.24 175.8 31.11 175.62 31.11H172.54C172.36 31.11 172.24 31.16 172.11 31.29L170.88 32.52C170.63 32.77 170.75 33.07 171.08 33.07M176.13 39.92L175.18 38.99C175.08 38.86 174.9 38.86 174.78 38.99L172.18 41.59H171.1C170.52 41.59 170.17 41.24 170.17 40.66V28.16C170.17 28.01 170.04 27.88 169.89 27.88H168.49C168.34 27.88 168.21 28.01 168.21 28.16V31.11H166.56C166.41 31.11 166.28 31.24 166.28 31.39V32.79C166.28 32.94 166.41 33.07 166.56 33.07H168.21V40.2C168.21 40.38 168.26 40.5 168.41 40.65L171.14 43.38C171.27 43.51 171.39 43.56 171.59 43.56H172.64C172.84 43.56 172.97 43.51 173.12 43.36L176.12 40.33C176.25 40.2 176.25 40.05 176.12 39.93M162.17 43.56H163.57C163.72 43.56 163.82 43.46 163.82 43.28V31.4C163.82 31.25 163.72 31.12 163.57 31.12H162.17C161.99 31.12 161.89 31.25 161.89 31.4V43.28C161.89 43.46 161.99 43.56 162.17 43.56ZM156.42 43.56H159.5C159.7 43.56 159.83 43.53 159.95 43.38L161.18 42.15C161.43 41.9 161.31 41.6 160.98 41.6H155.95C155.37 41.6 155 41.25 155 40.67V31.39C155 31.24 154.9 31.11 154.75 31.11H153.35C153.17 31.11 153.07 31.24 153.07 31.39V40.19C153.07 40.37 153.12 40.52 153.25 40.64L155.98 43.37C156.11 43.5 156.23 43.55 156.43 43.55M149.55 34.02L146.82 31.29C146.69 31.16 146.54 31.11 146.37 31.11H142.67C142.49 31.11 142.37 31.16 142.22 31.29L140.99 32.52C140.74 32.77 140.89 33.07 141.22 33.07H146.82C147.42 33.07 147.77 33.45 147.77 34.02V40.67C147.77 41.25 147.42 41.6 146.82 41.6H141.24C140.64 41.6 140.29 41.35 140.29 40.7V31.4C140.29 31.25 140.19 31.12 140.04 31.12H138.64C138.46 31.12 138.36 31.25 138.36 31.4V48.28C138.36 48.46 138.46 48.56 138.64 48.56H140.04C140.19 48.56 140.29 48.46 140.29 48.28V42.03L141.64 43.38C141.77 43.51 141.89 43.56 142.09 43.56H146.37C146.55 43.56 146.7 43.51 146.82 43.38L149.55 40.65C149.68 40.52 149.73 40.4 149.73 40.2V34.47C149.73 34.27 149.68 34.14 149.55 34.02ZM133.32 43.55H134.7C134.88 43.55 134.98 43.45 134.98 43.27V34.47C134.98 34.29 134.93 34.14 134.8 34.02L132.07 31.29C131.94 31.16 131.82 31.11 131.64 31.11H128.16C127.98 31.11 127.86 31.16 127.73 31.29L126.5 32.52C126.25 32.77 126.37 33.07 126.7 33.07H132.08C132.66 33.07 133.03 33.45 133.03 34.02V43.27C133.03 43.45 133.13 43.55 133.31 43.55M125.18 43.55H126.58C126.73 43.55 126.86 43.45 126.86 43.27V34.47C126.86 34.29 126.81 34.14 126.68 34.02L123.95 31.29C123.82 31.16 123.67 31.11 123.5 31.11H121.12C120.94 31.11 120.82 31.16 120.67 31.29L119.44 32.52C119.19 32.77 119.34 33.07 119.67 33.07H123.95C124.55 33.07 124.9 33.45 124.9 34.02V43.27C124.9 43.45 125.03 43.55 125.18 43.55ZM117.08 43.55H118.48C118.63 43.55 118.73 43.45 118.73 43.27V31.39C118.73 31.24 118.63 31.11 118.48 31.11H117.08C116.9 31.11 116.8 31.24 116.8 31.39V43.27C116.8 43.45 116.9 43.55 117.08 43.55ZM105.4 41.6C104.82 41.6 104.47 41.25 104.47 40.67V34.02C104.47 33.44 104.82 33.07 105.4 33.07H111C111.58 33.07 111.93 33.45 111.93 34.02V39.37L109.75 41.6H105.4ZM105.88 43.55H110.18C110.38 43.55 110.53 43.5 110.66 43.35L113.69 40.35C113.82 40.2 113.89 40.07 113.89 39.87V34.47C113.89 34.27 113.84 34.14 113.71 34.02L110.98 31.29C110.85 31.16 110.7 31.11 110.53 31.11H105.88C105.7 31.11 105.55 31.16 105.43 31.29L102.7 34.02C102.57 34.15 102.52 34.3 102.52 34.47V40.2C102.52 40.38 102.57 40.53 102.7 40.65L105.43 43.38C105.56 43.51 105.71 43.56 105.88 43.56M88.75 43.56H95.35C95.55 43.56 95.68 43.51 95.8 43.38L99.7 39.48C99.8 39.38 99.8 39.23 99.7 39.1L98.72 38.12C98.57 37.99 98.44 38.02 98.32 38.15L94.87 41.6H88.29C87.69 41.6 87.34 41.25 87.34 40.67V31.29L90.64 27.99H96.74C97.32 27.99 97.69 28.34 97.69 28.92V31.5C97.69 31.68 97.82 31.78 97.97 31.78H99.37C99.52 31.78 99.65 31.68 99.65 31.5L99.62 29.4C99.62 29.22 99.57 29.07 99.44 28.95L96.71 26.22C96.58 26.09 96.43 26.04 96.26 26.04H90.16C89.96 26.04 89.83 26.09 89.71 26.22L85.58 30.35C85.45 30.48 85.38 30.6 85.38 30.8V40.2C85.38 40.38 85.43 40.53 85.56 40.65L88.29 43.38C88.42 43.51 88.57 43.56 88.74 43.56" fill="#120540"/>
<path d="M171.09 33.07H175.62C175.8 33.07 175.9 32.94 175.9 32.79V31.39C175.9 31.24 175.8 31.11 175.62 31.11H172.54C172.36 31.11 172.24 31.16 172.11 31.29L170.88 32.52C170.63 32.77 170.75 33.07 171.08 33.07H171.09ZM176.14 39.92L175.19 38.99C175.09 38.86 174.91 38.86 174.79 38.99L172.19 41.59H171.11C170.53 41.59 170.18 41.24 170.18 40.66V28.16C170.18 28.01 170.05 27.88 169.9 27.88H168.5C168.35 27.88 168.22 28.01 168.22 28.16V31.11H166.57C166.42 31.11 166.29 31.24 166.29 31.39V32.79C166.29 32.94 166.42 33.07 166.57 33.07H168.22V40.2C168.22 40.38 168.27 40.5 168.42 40.65L171.15 43.38C171.28 43.51 171.4 43.56 171.6 43.56H172.65C172.85 43.56 172.98 43.51 173.13 43.36L176.13 40.33C176.26 40.2 176.26 40.05 176.13 39.93L176.14 39.92ZM162.19 43.55H163.59C163.74 43.55 163.84 43.45 163.84 43.27V31.39C163.84 31.24 163.74 31.11 163.59 31.11H162.19C162.01 31.11 161.91 31.24 161.91 31.39V43.27C161.91 43.45 162.01 43.55 162.19 43.55ZM156.44 43.55H159.52C159.72 43.55 159.85 43.52 159.97 43.37L161.2 42.14C161.45 41.89 161.33 41.59 161 41.59H155.97C155.39 41.59 155.02 41.24 155.02 40.66V31.38C155.02 31.23 154.92 31.1 154.77 31.1H153.37C153.19 31.1 153.09 31.23 153.09 31.38V40.18C153.09 40.36 153.14 40.51 153.27 40.63L156 43.36C156.13 43.49 156.25 43.54 156.45 43.54L156.44 43.55ZM149.56 34.02L146.83 31.29C146.7 31.16 146.55 31.11 146.38 31.11H142.68C142.5 31.11 142.38 31.16 142.23 31.29L141 32.52C140.75 32.77 140.9 33.07 141.23 33.07H146.83C147.43 33.07 147.78 33.45 147.78 34.02V40.67C147.78 41.25 147.43 41.6 146.83 41.6H141.25C140.65 41.6 140.3 41.35 140.3 40.7V31.4C140.3 31.25 140.2 31.12 140.05 31.12H138.65C138.47 31.12 138.37 31.25 138.37 31.4V48.28C138.37 48.46 138.47 48.56 138.65 48.56H140.05C140.2 48.56 140.3 48.46 140.3 48.28V42.03L141.65 43.38C141.78 43.51 141.9 43.56 142.1 43.56H146.38C146.56 43.56 146.71 43.51 146.83 43.38L149.56 40.65C149.69 40.52 149.74 40.4 149.74 40.2V34.47C149.74 34.27 149.69 34.14 149.56 34.02ZM133.33 43.55H134.71C134.89 43.55 134.99 43.45 134.99 43.27V34.47C134.99 34.29 134.94 34.14 134.81 34.02L132.08 31.29C131.95 31.16 131.83 31.11 131.65 31.11H128.17C127.99 31.11 127.87 31.16 127.74 31.29L126.51 32.52C126.26 32.77 126.38 33.07 126.71 33.07H132.09C132.67 33.07 133.04 33.45 133.04 34.02V43.27C133.04 43.45 133.14 43.55 133.32 43.55H133.33ZM125.2 43.55H126.6C126.75 43.55 126.88 43.45 126.88 43.27V34.47C126.88 34.29 126.83 34.14 126.7 34.02L123.97 31.29C123.84 31.16 123.69 31.11 123.52 31.11H121.14C120.96 31.11 120.84 31.16 120.69 31.29L119.46 32.52C119.21 32.77 119.36 33.07 119.69 33.07H123.97C124.57 33.07 124.92 33.45 124.92 34.02V43.27C124.92 43.45 125.05 43.55 125.2 43.55ZM117.1 43.55H118.5C118.65 43.55 118.75 43.45 118.75 43.27V31.39C118.75 31.24 118.65 31.11 118.5 31.11H117.1C116.92 31.11 116.82 31.24 116.82 31.39V43.27C116.82 43.45 116.92 43.55 117.1 43.55ZM105.42 41.6C104.84 41.6 104.49 41.25 104.49 40.67V34.02C104.49 33.44 104.84 33.07 105.42 33.07H111.02C111.6 33.07 111.95 33.45 111.95 34.02V39.37L109.77 41.6H105.42ZM105.9 43.55H110.2C110.4 43.55 110.55 43.5 110.68 43.35L113.71 40.35C113.84 40.2 113.91 40.07 113.91 39.87V34.47C113.91 34.27 113.86 34.14 113.73 34.02L111 31.29C110.87 31.16 110.72 31.11 110.55 31.11H105.9C105.72 31.11 105.57 31.16 105.45 31.29L102.72 34.02C102.59 34.15 102.54 34.3 102.54 34.47V40.2C102.54 40.38 102.59 40.53 102.72 40.65L105.45 43.38C105.58 43.51 105.73 43.56 105.9 43.56V43.55ZM88.77 43.55H95.37C95.57 43.55 95.7 43.5 95.82 43.37L99.72 39.47C99.82 39.37 99.82 39.22 99.72 39.09L98.74 38.11C98.59 37.98 98.46 38.01 98.34 38.14L94.89 41.59H88.31C87.71 41.59 87.36 41.24 87.36 40.66V31.28L90.66 27.98H96.76C97.34 27.98 97.71 28.33 97.71 28.91V31.49C97.71 31.67 97.84 31.77 97.99 31.77H99.39C99.54 31.77 99.67 31.67 99.67 31.49L99.64 29.39C99.64 29.21 99.59 29.06 99.46 28.94L96.73 26.21C96.6 26.08 96.45 26.03 96.28 26.03H90.18C89.98 26.03 89.85 26.08 89.73 26.21L85.6 30.34C85.47 30.47 85.4 30.59 85.4 30.79V40.19C85.4 40.37 85.45 40.52 85.58 40.64L88.31 43.37C88.44 43.5 88.59 43.55 88.76 43.55H88.77Z" fill="#120540" stroke="#120540" stroke-width="0.15" stroke-miterlimit="1.34"/>
<path d="M201.48 36.9101H202.88C203.03 36.9101 203.16 36.7801 203.16 36.6301V34.4301C203.16 34.2501 203.11 34.1001 202.96 33.9801L200.26 31.2501C200.11 31.1201 199.98 31.0701 199.81 31.0701H198.18C198 31.0701 197.88 31.1201 197.73 31.2501L196.53 32.4801C196.28 32.7301 196.4 33.0301 196.73 33.0301H200.26C200.84 33.0301 201.21 33.4101 201.21 33.9801V36.6301C201.21 36.7801 201.31 36.9101 201.49 36.9101M194.16 43.5101H195.56C195.71 43.5101 195.81 43.4101 195.81 43.2301V31.3501C195.81 31.2001 195.71 31.0701 195.56 31.0701H194.16C193.98 31.0701 193.88 31.2001 193.88 31.3501V43.2301C193.88 43.4101 193.98 43.5101 194.16 43.5101ZM183.63 38.4301H186.98C187.18 38.4301 187.33 38.3801 187.46 38.2301L190.44 35.2801C190.59 35.1001 190.64 34.9801 190.64 34.8001V34.4001C190.64 34.2201 190.59 34.1001 190.46 33.9701L187.73 31.2401C187.6 31.1101 187.45 31.0601 187.28 31.0601H182.65C182.45 31.0601 182.32 31.1101 182.2 31.2401L179.47 33.9701C179.32 34.1201 179.27 34.2501 179.27 34.4201V40.1701C179.27 40.3501 179.32 40.4701 179.45 40.6001L182.18 43.3301C182.31 43.4601 182.46 43.5101 182.63 43.5101H187.21C187.41 43.5101 187.54 43.4601 187.66 43.3301L190.39 40.6001C190.54 40.4501 190.59 40.3201 190.59 40.1501V39.3001C190.59 39.1501 190.46 39.0201 190.31 39.0201H188.91C188.73 39.0201 188.63 39.1501 188.63 39.3001V40.6301C188.63 41.2101 188.25 41.5601 187.68 41.5601H182.15C181.57 41.5601 181.22 41.2101 181.22 40.6301V33.9801C181.22 33.4001 181.57 33.0301 182.15 33.0301H187.75C188.33 33.0301 188.68 33.4101 188.68 33.9801V34.5301L186.73 36.4801H182.18C181.85 36.4801 181.73 36.7801 181.98 37.0301L183.18 38.2601C183.33 38.3901 183.46 38.4401 183.63 38.4401" fill="#120540"/>
<path d="M201.48 36.9101H202.88C203.03 36.9101 203.16 36.7801 203.16 36.6301V34.4301C203.16 34.2501 203.11 34.1001 202.96 33.9801L200.26 31.2501C200.11 31.1201 199.98 31.0701 199.81 31.0701H198.18C198 31.0701 197.88 31.1201 197.73 31.2501L196.53 32.4801C196.28 32.7301 196.4 33.0301 196.73 33.0301H200.26C200.84 33.0301 201.21 33.4101 201.21 33.9801V36.6301C201.21 36.7801 201.31 36.9101 201.49 36.9101H201.48ZM194.15 43.5101H195.55C195.7 43.5101 195.8 43.4101 195.8 43.2301V31.3501C195.8 31.2001 195.7 31.0701 195.55 31.0701H194.15C193.97 31.0701 193.87 31.2001 193.87 31.3501V43.2301C193.87 43.4101 193.97 43.5101 194.15 43.5101ZM183.62 38.4301H186.97C187.17 38.4301 187.32 38.3801 187.45 38.2301L190.43 35.2801C190.58 35.1001 190.63 34.9801 190.63 34.8001V34.4001C190.63 34.2201 190.58 34.1001 190.45 33.9701L187.72 31.2401C187.59 31.1101 187.44 31.0601 187.27 31.0601H182.64C182.44 31.0601 182.31 31.1101 182.19 31.2401L179.46 33.9701C179.31 34.1201 179.26 34.2501 179.26 34.4201V40.1701C179.26 40.3501 179.31 40.4701 179.44 40.6001L182.17 43.3301C182.3 43.4601 182.45 43.5101 182.62 43.5101H187.2C187.4 43.5101 187.53 43.4601 187.65 43.3301L190.38 40.6001C190.53 40.4501 190.58 40.3201 190.58 40.1501V39.3001C190.58 39.1501 190.45 39.0201 190.3 39.0201H188.9C188.72 39.0201 188.62 39.1501 188.62 39.3001V40.6301C188.62 41.2101 188.24 41.5601 187.67 41.5601H182.14C181.56 41.5601 181.21 41.2101 181.21 40.6301V33.9801C181.21 33.4001 181.56 33.0301 182.14 33.0301H187.74C188.32 33.0301 188.67 33.4101 188.67 33.9801V34.5301L186.72 36.4801H182.17C181.84 36.4801 181.72 36.7801 181.97 37.0301L183.17 38.2601C183.32 38.3901 183.45 38.4401 183.62 38.4401V38.4301Z" fill="#120540" stroke="#120540" stroke-width="0.15" stroke-miterlimit="1.34"/>
<path d="M153.26 62.3299C153.45 59.8899 154.87 58.5099 157.21 58.5099C159.3 58.5099 160.62 59.9199 160.74 62.3299H153.26ZM157.21 69.4399C160.16 69.4399 162.13 67.9299 162.62 65.7599C162.64 65.6599 162.57 65.5899 162.43 65.5899H160.87C160.75 65.5899 160.68 65.6399 160.65 65.7599C160.24 66.9999 159.02 67.7799 157.22 67.7799C154.83 67.7799 153.42 66.2899 153.27 63.8299H162.5C162.62 63.8299 162.69 63.7599 162.69 63.6399V63.1499C162.69 59.2299 160.62 56.8399 157.21 56.8399C153.56 56.8399 151.19 59.2999 151.19 63.1499C151.19 66.9999 153.53 69.4299 157.21 69.4299M144.25 69.4299C147.15 69.4299 149.17 67.8199 149.63 65.4399C149.65 65.3199 149.56 65.2699 149.44 65.2699H147.88C147.76 65.2699 147.69 65.3199 147.66 65.4399C147.2 67.0199 146.05 67.7799 144.25 67.7799C141.77 67.7799 140.26 66.0499 140.26 63.1499C140.26 60.2499 141.77 58.4999 144.25 58.4999C146 58.4999 147.17 59.2999 147.54 60.8399C147.59 60.9899 147.64 61.0299 147.76 61.0299H149.34C149.46 61.0299 149.56 60.9599 149.53 60.8099C149.12 58.4199 147.07 56.8399 144.25 56.8399C140.62 56.8399 138.21 59.3699 138.21 63.1499C138.21 66.9299 140.57 69.4299 144.25 69.4299ZM125.89 69.3099H127.55C127.65 69.3099 127.72 69.2399 127.72 69.1199V62.2799C127.72 59.8399 128.86 58.5799 131.01 58.5799C133.16 58.5799 134.15 59.7699 134.15 62.2799V69.1199C134.15 69.2399 134.22 69.3099 134.34 69.3099H135.97C136.09 69.3099 136.16 69.2399 136.16 69.1199V62.2799C136.16 58.7199 134.6 56.8499 131.75 56.8499C129.95 56.8499 128.56 57.6499 127.71 59.1099H127.64V57.1599C127.64 57.0399 127.57 56.9699 127.45 56.9699H125.89C125.79 56.9699 125.72 57.0399 125.72 57.1599V69.1199C125.72 69.2399 125.79 69.3099 125.89 69.3099ZM114.01 62.3199C114.2 59.8799 115.62 58.4999 117.96 58.4999C120.05 58.4999 121.37 59.9099 121.49 62.3199H114.01ZM117.96 69.4299C120.91 69.4299 122.88 67.9199 123.37 65.7499C123.39 65.6499 123.32 65.5799 123.18 65.5799H121.62C121.5 65.5799 121.43 65.6299 121.4 65.7499C120.99 66.9899 119.77 67.7699 117.97 67.7699C115.58 67.7699 114.17 66.2799 114.02 63.8199H123.25C123.37 63.8199 123.44 63.7499 123.44 63.6299V63.1399C123.44 59.2199 121.37 56.8299 117.96 56.8299C114.31 56.8299 111.95 59.2899 111.95 63.1399C111.95 66.9899 114.29 69.4199 117.96 69.4199M107.42 54.2699C107.42 54.3699 107.49 54.4399 107.61 54.4399H109.75C109.85 54.4399 109.92 54.3699 109.92 54.2699V52.1299C109.92 52.0099 109.85 51.9399 109.75 51.9399H107.61C107.49 51.9399 107.42 52.0099 107.42 52.1299V54.2699ZM107.83 69.2999H109.49C109.59 69.2999 109.66 69.2299 109.66 69.1099V57.1499C109.66 57.0299 109.59 56.9599 109.49 56.9599H107.83C107.73 56.9599 107.66 57.0299 107.66 57.1499V69.1099C107.66 69.2299 107.73 69.2999 107.83 69.2999ZM99.99 69.4199C102.89 69.4199 104.91 67.8099 105.37 65.4299C105.39 65.3099 105.3 65.2599 105.17 65.2599H103.61C103.49 65.2599 103.42 65.3099 103.39 65.4299C102.93 67.0099 101.78 67.7699 99.98 67.7699C97.5 67.7699 95.99 66.0399 95.99 63.1399C95.99 60.2399 97.5 58.4899 99.98 58.4899C101.73 58.4899 102.9 59.2899 103.27 60.8299C103.32 60.9799 103.37 61.0199 103.49 61.0199H105.07C105.19 61.0199 105.29 60.9499 105.26 60.7999C104.85 58.4099 102.8 56.8299 99.98 56.8299C96.35 56.8299 93.94 59.3599 93.94 63.1399C93.94 66.9199 96.3 69.4199 99.98 69.4199M86.29 69.4199C89.89 69.4199 92.16 67.5899 92.16 64.6199C92.16 61.8699 90.89 60.5499 87.46 59.9199L85.66 59.5999C83.2 59.1099 82.2 58.2799 82.2 56.5999C82.2 54.9199 83.49 53.8699 85.78 53.8699C88.07 53.8699 89.38 54.8699 89.7 56.8899C89.75 57.0599 89.82 57.0799 89.92 57.0799H91.58C91.7 57.0799 91.8 57.0099 91.77 56.8899C91.4 53.8999 89.19 52.1199 85.78 52.1199C82.37 52.1199 80.13 53.8699 80.13 56.7499C80.13 59.3799 81.64 60.8399 85 61.4699L86.8 61.7899C89.28 62.2799 90.06 62.9799 90.06 64.6599C90.06 66.5399 88.62 67.6599 86.29 67.6599C83.64 67.6599 82.25 66.6099 81.83 64.1799C81.81 64.0299 81.76 63.9899 81.64 63.9899H79.96C79.84 63.9899 79.77 64.0599 79.79 64.2099C80.23 67.5699 82.54 69.4199 86.29 69.4199Z" fill="#120540"/>
<path d="M131.12 17.17C134.02 17.17 136.04 15.56 136.5 13.18C136.52 13.06 136.43 13.01 136.31 13.01H134.75C134.63 13.01 134.56 13.06 134.53 13.18C134.07 14.76 132.92 15.52 131.12 15.52C128.64 15.52 127.13 13.79 127.13 10.89C127.13 7.99 128.64 6.24 131.12 6.24C132.87 6.24 134.04 7.04 134.41 8.58C134.46 8.73 134.51 8.77 134.63 8.77H136.21C136.33 8.77 136.43 8.7 136.4 8.55C135.99 6.16 133.94 4.58 131.12 4.58C127.49 4.58 125.08 7.11 125.08 10.89C125.08 14.67 127.44 17.17 131.12 17.17ZM112.61 10.89C112.61 8.04 114.12 6.24 116.51 6.24C118.9 6.24 120.43 8.07 120.43 10.89C120.43 13.71 118.92 15.52 116.51 15.52C114.1 15.52 112.61 13.74 112.61 10.89ZM115.99 17.17C117.84 17.17 119.5 16.27 120.35 14.76H120.42V15.56C120.42 16.53 121 17.05 122.15 17.05H123.85C123.97 17.05 124.04 16.98 124.04 16.86V15.62C124.04 15.52 123.97 15.45 123.85 15.45H122.36V4.89C122.36 4.77 122.29 4.7 122.17 4.7H120.54C120.42 4.7 120.35 4.77 120.35 4.89V7.03H120.28C119.38 5.47 117.8 4.57 115.99 4.57C112.68 4.57 110.56 7.05 110.56 10.88C110.56 14.71 112.68 17.16 115.99 17.16M98.09 10.88C98.09 8.03 99.6 6.23 101.99 6.23C104.38 6.23 105.91 8.06 105.91 10.88C105.91 13.7 104.4 15.51 101.99 15.51C99.58 15.51 98.09 13.73 98.09 10.88ZM101.47 17.16C103.32 17.16 104.98 16.26 105.83 14.75H105.9V15.55C105.9 16.52 106.48 17.04 107.63 17.04H109.33C109.45 17.04 109.52 16.97 109.52 16.85V15.61C109.52 15.51 109.45 15.44 109.33 15.44H107.84V4.89C107.84 4.77 107.77 4.7 107.65 4.7H106.02C105.9 4.7 105.82 4.77 105.82 4.89V7.03H105.75C104.85 5.47 103.27 4.57 101.46 4.57C98.15 4.57 96.03 7.05 96.03 10.88C96.03 14.71 98.15 17.16 101.46 17.16M89.99 17.16C92.86 17.16 94.47 15.84 94.47 13.56C94.47 11.54 93.69 10.61 90.94 10.1L89.53 9.83C87.87 9.49 87.34 8.98 87.34 7.95C87.34 6.83 88.22 6.15 89.7 6.15C91.18 6.15 91.96 6.71 92.21 8C92.23 8.1 92.28 8.2 92.43 8.2H94.01C94.13 8.2 94.21 8.13 94.18 7.98C93.89 5.81 92.28 4.57 89.7 4.57C87.12 4.57 85.37 5.96 85.37 8.08C85.37 10.05 86.44 11.08 88.95 11.56L90.27 11.8C91.97 12.14 92.51 12.58 92.51 13.65C92.51 14.84 91.56 15.57 90 15.57C88.25 15.57 87.32 14.89 87.03 13.4C87.01 13.28 86.98 13.21 86.84 13.21H85.28C85.16 13.21 85.09 13.28 85.11 13.43C85.38 15.84 87.11 17.16 90 17.16M80.65 17.04H82.35C82.47 17.04 82.54 16.97 82.54 16.85V0.19C82.54 0.07 82.47 0 82.35 0H80.65C80.55 0 80.48 0.07 80.48 0.19V16.85C80.48 16.97 80.55 17.04 80.65 17.04Z" fill="#120540"/>
</g>
<defs>
<clipPath id="clip0_30_860">
<rect width="208.68" height="70" fill="white"/>
</clipPath>
</defs>
</svg>
