<svg width="237" height="239" viewBox="0 0 237 239" fill="none" xmlns="http://www.w3.org/2000/svg">
<path d="M236.211 238.149H233.359V-6.74182L236.211 -9.60648V238.149Z" fill="#59FF69"/>
<path d="M218.552 238.149H213.106V13.5454L218.552 8.08771V238.149Z" fill="#59FF69"/>
<path d="M198.609 238.149H192.854V33.8326L198.609 28.0662V238.137V238.149Z" fill="#59FF69"/>
<path d="M178.652 238.149H172.589V54.1199L178.652 48.0572V238.149Z" fill="#59FF69"/>
<path d="M158.709 238.149H152.349V74.4194L158.709 68.048V238.162V238.149Z" fill="#59FF69"/>
<path d="M138.766 238.15H132.097V94.7067L138.766 88.0266V238.15Z" fill="#59FF69"/>
<path d="M118.822 238.149H111.845V114.994L118.822 108.005V238.149Z" fill="#59FF69"/>
<path d="M98.8787 238.149H91.5928V135.293L98.8787 127.996V238.149Z" fill="#59FF69"/>
<path d="M78.9351 238.149H71.3404V155.581L78.9351 147.974V238.149Z" fill="#59FF69"/>
<path d="M58.9788 238.149H51.0754V175.868L58.9788 167.953V238.149Z" fill="#59FF69"/>
<path d="M39.0352 238.149H30.8231V196.167L39.0352 187.944V238.149Z" fill="#59FF69"/>
<path d="M19.0918 238.149H10.571V216.455L19.0918 207.922V238.149Z" fill="#59FF69"/>
</svg>
