<svg width="314" height="156" viewBox="0 0 314 156" fill="none" xmlns="http://www.w3.org/2000/svg">
<g filter="url(#filter0_d)">
<rect x="5" y="5" width="304" height="146" fill="white"/>
</g>
<path d="M119 30.0004V125.691C153.785 128.821 195.002 108.025 195.002 69.3076C195.002 55.9854 195.002 30.0004 195.002 30.0004" fill="#231F20"/>
<path d="M126.558 83.4026H127.623V76.2332H129.929V75.2624H124.252V76.2332H126.558" fill="white"/>
<path d="M132.112 79.9113C132.123 79.0088 132.6 78.5819 133.381 78.5715C134.163 78.583 134.605 78.9934 134.617 79.9113V83.4026H134.725H135.638V79.7784C135.638 79.1399 135.446 78.6032 135.083 78.2272C134.72 77.8515 134.193 77.645 133.55 77.645C133 77.644 132.508 77.8098 132.112 78.1605V75.2624H131.091V83.4026H132.112" fill="white"/>
<path d="M139.247 78.5373C139.789 78.538 140.238 78.8346 140.435 79.2946H140.435C140.543 79.5601 140.568 79.7003 140.589 80.0609H137.906C137.926 79.7003 137.951 79.5601 138.059 79.2946C138.254 78.8353 138.705 78.538 139.247 78.5373ZM139.392 83.4692C139.398 83.4692 139.404 83.4692 139.41 83.4692C140.362 83.4692 140.92 83.1565 141.483 82.5917L141.564 82.5115L140.854 81.8915L140.783 81.9624C140.352 82.385 140.031 82.5511 139.415 82.5548C138.451 82.5454 137.944 81.978 137.902 80.8755H141.615V80.4015C141.615 79.5713 141.401 78.8827 140.993 78.3984C140.585 77.9136 139.983 77.644 139.247 77.645C138.521 77.644 137.918 77.9178 137.509 78.4236C137.098 78.9288 136.878 79.6555 136.878 80.5571C136.878 81.5421 137.121 82.2728 137.564 82.7582C138.008 83.2444 138.645 83.4702 139.392 83.4692Z" fill="white"/>
<path d="M130.42 91.9589L130.441 91.8347H129.377L129.359 91.9184C129.15 92.848 128.497 93.4341 127.55 93.4379C127.051 93.4379 126.575 93.2464 126.25 92.9131C125.779 92.4358 125.721 91.9376 125.72 90.2716C125.721 88.605 125.779 88.1068 126.249 87.6293C126.575 87.2956 127.051 87.1051 127.55 87.1051C128.496 87.1093 129.127 87.6922 129.336 88.6241L129.355 88.7083H130.442L130.42 88.583C130.149 87.0474 129.028 86.1297 127.55 86.1345C126.74 86.1345 125.994 86.4347 125.436 86.9899C124.651 87.7697 124.654 88.5995 124.655 90.2716C124.654 91.943 124.651 92.7729 125.436 93.5531C125.994 94.1078 126.74 94.4081 127.55 94.4081C127.553 94.4087 127.557 94.4087 127.56 94.4087C129.022 94.4087 130.161 93.4922 130.42 91.9589Z" fill="white"/>
<path d="M135.378 90.8501V94.3413H136.399V90.7167C136.399 90.0784 136.207 89.5419 135.845 89.1663C135.482 88.7903 134.954 88.5834 134.31 88.584C133.761 88.583 133.269 88.7482 132.873 89.0992V86.2015H131.853V94.3413H132.873V90.8501C132.884 89.9472 133.361 89.5205 134.143 89.5098C134.924 89.5215 135.366 89.9321 135.378 90.8501Z" fill="white"/>
<path d="M139.818 93.5041C138.961 93.4864 138.673 93.2518 138.66 92.6764C138.672 92.0983 138.98 91.8293 139.784 91.8139H141.222V92.2977C141.222 92.742 141.132 93.0225 140.976 93.1664C140.659 93.4703 140.287 93.5035 139.818 93.5041ZM137.897 89.4379L137.837 89.5154L138.547 90.165L138.618 90.0662C138.931 89.6347 139.226 89.4939 139.918 89.4874C140.9 89.5068 141.204 89.8245 141.222 90.583V91.0002H139.672C139.039 91.0002 138.536 91.1602 138.189 91.457C137.842 91.7531 137.661 92.1841 137.662 92.6874C137.663 93.1445 137.814 93.5825 138.108 93.8758C138.477 94.257 138.968 94.4101 139.74 94.4081C139.75 94.4087 139.759 94.4087 139.769 94.4087C140.403 94.4087 140.825 94.2853 141.222 93.9554V94.3407H141.329H142.242V90.5164C142.244 89.9004 142.051 89.406 141.656 89.0754C141.261 88.7451 140.683 88.5841 139.93 88.5841C139.024 88.5793 138.407 88.7749 137.897 89.4379Z" fill="white"/>
<path d="M144.794 90.8726C144.801 90.0794 145.266 89.513 146.008 89.5098C146.418 89.5146 146.587 89.5909 146.884 89.8794L146.96 89.9553L147.036 89.8784L147.704 89.2015L147.629 89.127C147.22 88.7174 146.773 88.5813 146.231 88.584C145.679 88.5845 145.148 88.7813 144.794 89.1284V88.6507H143.774V94.3413H144.794" fill="white"/>
<path d="M148.9 92.7653C148.9 93.1915 149.024 93.585 149.28 93.8753C149.536 94.1653 149.923 94.3419 150.418 94.3413H151.096V93.4378H150.564C150.099 93.4245 149.936 93.2121 149.921 92.743V89.5098H151.096V88.6842H149.921V86.9696H148.9V88.6832L148.207 88.6842V89.5098H148.9" fill="white"/>
<path d="M154.291 89.4758C154.833 89.4768 155.282 89.7735 155.479 90.2337C155.587 90.4987 155.612 90.6389 155.633 90.9995H152.949C152.97 90.6389 152.996 90.4987 153.103 90.2337C153.299 89.7739 153.749 89.4768 154.291 89.4758ZM156.608 93.4497L155.898 92.8303L155.827 92.9014C155.397 93.3237 155.075 93.4897 154.459 93.4935C153.494 93.4837 152.988 92.9158 152.946 91.8135H156.66V91.3404C156.66 90.5099 156.445 89.8214 156.037 89.337C155.629 88.8529 155.027 88.583 154.291 88.5841C153.565 88.5825 152.963 88.8566 152.552 89.3627C152.142 89.8678 151.923 90.5941 151.922 91.496C151.922 92.4812 152.165 93.2118 152.608 93.6966C153.052 94.1825 153.689 94.4091 154.437 94.4087C154.442 94.4087 154.448 94.4087 154.454 94.4087C155.406 94.4087 155.964 94.0956 156.527 93.5308" fill="white"/>
<path d="M159.01 90.8726C159.016 90.0794 159.482 89.513 160.224 89.5098C160.633 89.5146 160.803 89.5909 161.099 89.8794L161.175 89.9553L161.252 89.8784L161.919 89.2015L161.844 89.127C161.435 88.7174 160.989 88.5813 160.448 88.584C159.895 88.5845 159.364 88.7813 159.01 89.1284V88.6507H157.99V94.3413H159.01" fill="white"/>
<path d="M165.919 90.9995H163.236C163.258 90.6389 163.282 90.4987 163.39 90.2337C163.586 89.7739 164.036 89.4768 164.578 89.4758C165.119 89.4768 165.57 89.7735 165.766 90.2337C165.874 90.4987 165.899 90.6389 165.919 90.9995ZM164.578 88.5841C163.852 88.5825 163.249 88.8566 162.839 89.3627C162.429 89.8678 162.209 90.5941 162.209 91.496C162.209 92.4812 162.452 93.2118 162.895 93.6966C163.338 94.1825 163.976 94.4091 164.724 94.4087C164.73 94.4087 164.735 94.4087 164.741 94.4087C165.693 94.4087 166.251 94.0956 166.814 93.5308L166.895 93.4497L166.185 92.8303L166.114 92.9014C165.683 93.3237 165.362 93.4897 164.746 93.4935C163.781 93.4837 163.274 92.9158 163.233 91.8135H166.946V91.3404C166.946 90.5099 166.732 89.8214 166.324 89.337C165.916 88.8529 165.314 88.583 164.578 88.5841Z" fill="white"/>
<path d="M171.68 91.496C171.68 92.0245 171.633 92.5349 171.451 92.896C171.267 93.2545 170.978 93.4779 170.41 93.4827C169.304 93.4802 169.141 92.5708 169.129 91.496C169.141 90.4214 169.304 89.512 170.41 89.5099C170.978 89.5147 171.267 89.7376 171.451 90.096C171.633 90.457 171.68 90.9674 171.68 91.496ZM171.68 86.2016V89.1099C171.256 88.6922 170.766 88.5807 170.231 88.5841C169.647 88.5845 169.13 88.7793 168.812 89.0939C168.216 89.6908 168.111 90.631 168.109 91.496C168.111 92.3606 168.216 93.3007 168.812 93.8983C169.13 94.2129 169.647 94.4074 170.231 94.4081C170.239 94.4087 170.245 94.4087 170.253 94.4087C170.781 94.4087 171.27 94.285 171.691 93.8635V94.3407H171.798H172.7V86.2016" fill="white"/>
<path d="M126.258 105.279V97.1403H125.192V105.279H125.3" fill="white"/>
<path d="M128.821 101.8C128.832 100.884 129.298 100.459 130.08 100.448C130.861 100.46 131.314 100.872 131.326 101.8V105.279H131.434H132.347V101.667C132.348 101.013 132.16 100.466 131.743 100.064C131.385 99.7082 130.873 99.5226 130.258 99.5226C129.71 99.5221 129.212 99.6944 128.821 100.038V99.5892H127.8V105.279H128.821" fill="white"/>
<path d="M136.436 101.983L135.551 101.905C134.878 101.836 134.699 101.627 134.686 101.21C134.692 100.721 135.029 100.427 135.811 100.415C136.365 100.416 136.843 100.545 137.212 100.827L137.286 100.884L137.962 100.211L137.871 100.137C137.351 99.7141 136.622 99.5232 135.822 99.5232C134.615 99.5237 133.691 100.158 133.689 101.233C133.679 102.189 134.334 102.73 135.432 102.809L136.339 102.886C136.954 102.954 137.147 103.154 137.159 103.581C137.157 104.146 136.692 104.434 135.8 104.444C135.134 104.443 134.576 104.272 134.164 103.842L134.089 103.762L133.397 104.451L133.475 104.526C134.1 105.126 134.861 105.347 135.8 105.347C135.804 105.347 135.807 105.347 135.811 105.347C137.169 105.345 138.154 104.702 138.156 103.57C138.166 102.486 137.414 102.06 136.436 101.983Z" fill="white"/>
<path d="M141.705 104.376H141.172C140.707 104.364 140.544 104.151 140.529 103.681V100.448L141.705 100.449V99.6229H140.529V97.9088H139.509V99.6229H138.815V100.449H139.509L139.509 103.704C139.509 104.13 139.633 104.524 139.889 104.814C140.143 105.103 140.53 105.28 141.022 105.28C141.024 105.28 141.025 105.28 141.027 105.28H141.705" fill="white"/>
<path d="M143.562 98.2997C143.901 98.2997 144.179 98.0241 144.179 97.6864C144.179 97.3489 143.901 97.073 143.562 97.073C143.223 97.073 142.945 97.3489 142.945 97.6864C142.945 98.0241 143.223 98.2997 143.562 98.2997Z" fill="white"/>
<path d="M144.066 99.5892H143.046V105.279H144.066" fill="white"/>
<path d="M148.152 100.449V99.6229H146.977L146.977 97.9088H145.957V99.6229H145.262V100.449H145.957V103.704C145.957 104.13 146.08 104.524 146.336 104.814C146.591 105.103 146.977 105.28 147.47 105.28C147.472 105.28 147.473 105.28 147.474 105.28H148.152V104.376H147.62C147.155 104.364 146.992 104.151 146.977 103.681V100.448" fill="white"/>
<path d="M152.975 103.07C152.963 103.984 152.486 104.41 151.705 104.421C150.924 104.409 150.482 103.999 150.469 103.07V99.5893H149.449V103.192C149.448 103.844 149.623 104.402 150.041 104.805C150.4 105.162 150.923 105.347 151.537 105.347C151.539 105.347 151.54 105.347 151.542 105.347C152.09 105.347 152.594 105.166 152.986 104.82V105.28H153.093H153.995V99.5893H152.975" fill="white"/>
<path d="M156.895 97.9088H155.874V99.6229H155.181V100.449H155.874V103.704C155.874 104.13 155.997 104.524 156.253 104.814C156.508 105.103 156.895 105.28 157.387 105.28C157.389 105.28 157.39 105.28 157.392 105.28H158.07V104.376H157.537C157.072 104.364 156.91 104.151 156.895 103.681V100.448L158.07 100.449V99.6229H156.895" fill="white"/>
<path d="M162.629 101.938H159.945C159.966 101.578 159.991 101.438 160.099 101.172C160.295 100.713 160.745 100.416 161.287 100.415C161.829 100.416 162.279 100.713 162.475 101.174C162.583 101.438 162.608 101.579 162.629 101.938ZM161.287 99.5226C160.561 99.5211 159.958 99.7951 159.548 100.301C159.138 100.806 158.919 101.533 158.919 102.435C158.918 103.42 159.16 104.15 159.604 104.635C160.048 105.122 160.684 105.348 161.432 105.347C161.438 105.347 161.444 105.347 161.45 105.347C162.402 105.347 162.96 105.034 163.523 104.469L163.604 104.389L162.894 103.769L162.823 103.839C162.393 104.262 162.071 104.428 161.455 104.432C160.49 104.423 159.984 103.855 159.941 102.753H163.655V102.279C163.655 101.449 163.441 100.76 163.033 100.276C162.625 99.7915 162.023 99.5215 161.287 99.5226Z" fill="white"/>
<path d="M125.61 108.523C125.357 108.813 125.237 109.207 125.237 109.633V110.561H124.532V111.387H125.237V116.219H126.258V111.387H127.433V110.561H126.258V109.655C126.273 109.182 126.425 108.973 126.889 108.959H127.433V108.057H126.743C126.249 108.056 125.863 108.233 125.61 108.523Z" fill="white"/>
<path d="M131.785 113.373C131.788 113.983 131.743 114.636 131.38 114.99C131.144 115.224 130.814 115.359 130.449 115.359C130.083 115.358 129.766 115.226 129.528 114.99C129.164 114.635 129.109 113.982 129.112 113.373C129.109 112.764 129.165 112.112 129.528 111.757C129.766 111.521 130.083 111.388 130.449 111.387C130.814 111.387 131.144 111.522 131.38 111.757C131.743 112.111 131.788 112.763 131.785 113.373ZM130.449 110.461C129.75 110.461 129.193 110.718 128.795 111.116C128.203 111.717 128.091 112.521 128.091 113.373C128.091 114.225 128.203 115.03 128.794 115.63C129.193 116.028 129.75 116.286 130.449 116.285C130.449 116.285 130.45 116.285 130.451 116.285C131.148 116.285 131.705 116.028 132.103 115.63L132.027 115.555L132.104 115.63C132.694 115.03 132.806 114.225 132.806 113.373C132.806 112.521 132.694 111.717 132.104 111.117C131.704 110.718 131.146 110.461 130.449 110.461Z" fill="white"/>
<path d="M136.505 110.461C135.952 110.462 135.421 110.659 135.067 111.006V110.527H134.047V116.219H135.067V112.75C135.073 111.956 135.539 111.39 136.281 111.387C136.69 111.392 136.859 111.468 137.156 111.757L137.233 111.833L137.309 111.756L137.976 111.079L137.901 111.004C137.492 110.594 137.046 110.459 136.505 110.461Z" fill="white"/>
<path d="M141.457 116.219H142.522V108.079H141.457" fill="white"/>
<path d="M143.797 109.049H146.102V116.219H147.168V109.049H149.473V108.079H143.797" fill="white"/>
<path d="M165.563 38.9766H154.099C152.278 38.9766 150.538 39.639 149.199 40.8411C147.802 42.0891 147.034 43.7696 147.037 45.5718V52.1104C147.037 53.9712 147.765 55.5638 149.2 56.8432C150.532 58.0443 152.272 58.7056 154.099 58.7056H165.563C166.349 58.7056 166.919 58.1462 166.919 57.375V56.1803C166.919 55.4102 166.349 54.8502 165.563 54.8502H154.143C152.302 54.8214 150.913 53.6432 150.913 52.1104V45.5718C150.913 43.9328 152.57 42.8315 154.118 42.8315H154.143H165.563C166.336 42.8315 166.919 42.2592 166.919 41.5014V40.3067C166.919 39.536 166.349 38.9766 165.563 38.9766Z" fill="white"/>
<path d="M187.767 38.9766H174.196C170.717 38.9766 169.096 40.5883 169.096 44.0486V45.5259C169.096 48.935 170.717 50.5232 174.196 50.5232H184.658C185.355 50.5232 185.843 51.008 185.843 51.7019V53.671C185.843 54.3547 185.345 54.8502 184.658 54.8502H170.814C170.039 54.8502 169.476 55.4102 169.476 56.1803V57.375C169.476 58.1462 170.039 58.7056 170.814 58.7056H184.62C188.099 58.7056 189.719 57.0939 189.719 53.6336V51.7398C189.719 48.2795 188.099 46.6678 184.62 46.6678H174.158C173.471 46.6678 172.972 46.1718 172.972 45.4886V44.0107C172.972 43.3275 173.471 42.8315 174.158 42.8315H187.767C188.53 42.8315 189.105 42.2592 189.105 41.5014V40.3067C189.105 39.536 188.542 38.9766 187.767 38.9766Z" fill="white"/>
<path d="M128.728 42.8315H137.643C139.197 42.8315 140.873 43.8795 140.873 45.5718V52.1104C140.873 53.8027 139.197 54.8502 137.643 54.8502H128.728V42.8315ZM128.728 30H124.852V57.4326C124.852 58.1462 125.448 58.7056 126.208 58.7056H137.673C139.492 58.7056 141.191 58.0619 142.586 56.8438C143.96 55.6427 144.749 53.9179 144.749 52.1104V45.5718C144.749 43.7659 143.981 42.0859 142.586 40.84C141.245 39.6384 139.5 38.9766 137.673 38.9766H128.728" fill="white"/>
<defs>
<filter id="filter0_d" x="0" y="0" width="314" height="156" filterUnits="userSpaceOnUse" color-interpolation-filters="sRGB">
<feFlood flood-opacity="0" result="BackgroundImageFix"/>
<feColorMatrix in="SourceAlpha" type="matrix" values="0 0 0 0 0 0 0 0 0 0 0 0 0 0 0 0 0 0 127 0"/>
<feOffset/>
<feGaussianBlur stdDeviation="2.5"/>
<feColorMatrix type="matrix" values="0 0 0 0 0 0 0 0 0 0 0 0 0 0 0 0 0 0 0.2 0"/>
<feBlend mode="normal" in2="BackgroundImageFix" result="effect1_dropShadow"/>
<feBlend mode="normal" in="SourceGraphic" in2="effect1_dropShadow" result="shape"/>
</filter>
</defs>
</svg>
