<svg width="304" height="146" viewBox="0 0 304 146" fill="none" xmlns="http://www.w3.org/2000/svg">
<rect width="304" height="146" fill="white"/>
<path d="M114 25.0004V120.691C148.785 123.821 190.002 103.025 190.002 64.3076C190.002 50.9854 190.002 25.0004 190.002 25.0004" fill="#231F20"/>
<path d="M121.558 78.4026H122.623V71.2332H124.929V70.2624H119.252V71.2332H121.558" fill="white"/>
<path d="M127.112 74.9113C127.123 74.0088 127.6 73.5819 128.381 73.5715C129.163 73.583 129.605 73.9934 129.617 74.9113V78.4026H129.725H130.638V74.7784C130.638 74.1399 130.446 73.6032 130.083 73.2272C129.72 72.8515 129.193 72.645 128.55 72.645C128 72.644 127.507 72.8098 127.112 73.1605V70.2624H126.091V78.4026H127.112" fill="white"/>
<path d="M134.247 73.5373C134.789 73.538 135.238 73.8346 135.435 74.2946H135.435C135.543 74.5601 135.568 74.7003 135.589 75.0609H132.905C132.926 74.7003 132.951 74.5601 133.059 74.2946C133.254 73.8353 133.705 73.538 134.247 73.5373ZM134.392 78.4692C134.398 78.4692 134.404 78.4692 134.41 78.4692C135.362 78.4692 135.92 78.1565 136.483 77.5917L136.564 77.5115L135.854 76.8915L135.783 76.9624C135.352 77.385 135.031 77.5511 134.415 77.5548C133.45 77.5454 132.944 76.978 132.902 75.8755H136.615V75.4015C136.615 74.5713 136.401 73.8827 135.993 73.3984C135.585 72.9136 134.983 72.644 134.247 72.645C133.521 72.644 132.918 72.9178 132.508 73.4236C132.098 73.9288 131.878 74.6555 131.878 75.5571C131.878 76.5421 132.121 77.2728 132.564 77.7582C133.008 78.2444 133.645 78.4702 134.392 78.4692Z" fill="white"/>
<path d="M125.42 86.9589L125.441 86.8347H124.377L124.359 86.9184C124.15 87.848 123.497 88.4341 122.55 88.4379C122.051 88.4379 121.575 88.2464 121.25 87.9131C120.779 87.4358 120.721 86.9376 120.72 85.2716C120.721 83.605 120.779 83.1068 121.249 82.6293C121.575 82.2956 122.051 82.1051 122.55 82.1051C123.496 82.1093 124.127 82.6922 124.336 83.6241L124.355 83.7083H125.442L125.42 83.583C125.149 82.0474 124.028 81.1297 122.55 81.1345C121.74 81.1345 120.994 81.4347 120.436 81.9899C119.651 82.7697 119.654 83.5995 119.655 85.2716C119.654 86.943 119.651 87.7729 120.436 88.5531C120.994 89.1078 121.74 89.4081 122.55 89.4081C122.553 89.4087 122.557 89.4087 122.56 89.4087C124.022 89.4087 125.161 88.4922 125.42 86.9589Z" fill="white"/>
<path d="M130.378 85.8501V89.3413H131.399V85.7167C131.399 85.0784 131.207 84.5419 130.845 84.1663C130.482 83.7903 129.954 83.5834 129.31 83.584C128.761 83.583 128.269 83.7482 127.873 84.0992V81.2015H126.853V89.3413H127.873V85.8501C127.883 84.9472 128.361 84.5205 129.143 84.5098C129.924 84.5215 130.366 84.9321 130.378 85.8501Z" fill="white"/>
<path d="M134.818 88.5041C133.961 88.4864 133.673 88.2518 133.66 87.6764C133.672 87.0983 133.98 86.8293 134.784 86.8139H136.222V87.2977C136.222 87.742 136.132 88.0225 135.976 88.1664C135.659 88.4703 135.287 88.5035 134.818 88.5041ZM132.897 84.4379L132.837 84.5154L133.547 85.165L133.618 85.0662C133.932 84.6347 134.226 84.4939 134.919 84.4874C135.9 84.5068 136.204 84.8245 136.222 85.583V86.0002H134.672C134.039 86.0002 133.536 86.1602 133.189 86.457C132.842 86.7531 132.661 87.1841 132.662 87.6874C132.663 88.1445 132.814 88.5825 133.108 88.8758C133.477 89.257 133.968 89.4101 134.74 89.4081C134.75 89.4087 134.759 89.4087 134.769 89.4087C135.403 89.4087 135.825 89.2853 136.222 88.9554V89.3407H136.329H137.242V85.5164C137.244 84.9004 137.051 84.406 136.656 84.0754C136.261 83.7451 135.683 83.5841 134.93 83.5841C134.024 83.5793 133.407 83.7749 132.897 84.4379Z" fill="white"/>
<path d="M139.794 85.8726C139.801 85.0794 140.266 84.513 141.008 84.5098C141.418 84.5146 141.587 84.5909 141.884 84.8794L141.96 84.9553L142.036 84.8784L142.704 84.2015L142.629 84.127C142.22 83.7174 141.773 83.5813 141.232 83.584C140.679 83.5845 140.148 83.7813 139.794 84.1284V83.6507H138.774V89.3413H139.794" fill="white"/>
<path d="M143.9 87.7653C143.9 88.1915 144.024 88.585 144.28 88.8753C144.536 89.1653 144.923 89.3419 145.418 89.3413H146.096V88.4378H145.564C145.099 88.4245 144.936 88.2121 144.921 87.743V84.5098H146.096V83.6842H144.921V81.9696H143.9V83.6832L143.207 83.6842V84.5098H143.9" fill="white"/>
<path d="M149.291 84.4758C149.833 84.4768 150.282 84.7735 150.479 85.2337C150.587 85.4987 150.612 85.6389 150.633 85.9995H147.95C147.97 85.6389 147.996 85.4987 148.103 85.2337C148.299 84.7739 148.749 84.4768 149.291 84.4758ZM151.608 88.4497L150.898 87.8303L150.827 87.9014C150.397 88.3237 150.075 88.4897 149.459 88.4935C148.494 88.4837 147.988 87.9158 147.946 86.8135H151.66V86.3404C151.66 85.5099 151.445 84.8214 151.037 84.337C150.629 83.8529 150.027 83.583 149.291 83.5841C148.565 83.5825 147.963 83.8566 147.552 84.3627C147.142 84.8678 146.923 85.5941 146.923 86.496C146.923 87.4812 147.165 88.2118 147.608 88.6966C148.052 89.1825 148.689 89.4091 149.437 89.4087C149.442 89.4087 149.449 89.4087 149.454 89.4087C150.406 89.4087 150.964 89.0956 151.527 88.5308" fill="white"/>
<path d="M154.01 85.8726C154.016 85.0794 154.482 84.513 155.224 84.5098C155.633 84.5146 155.803 84.5909 156.099 84.8794L156.175 84.9553L156.252 84.8784L156.919 84.2015L156.844 84.127C156.435 83.7174 155.989 83.5813 155.448 83.584C154.895 83.5845 154.363 83.7813 154.01 84.1284V83.6507H152.99V89.3413H154.01" fill="white"/>
<path d="M160.919 85.9995H158.236C158.257 85.6389 158.282 85.4987 158.39 85.2337C158.586 84.7739 159.036 84.4768 159.577 84.4758C160.119 84.4768 160.569 84.7735 160.766 85.2337C160.873 85.4987 160.899 85.6389 160.919 85.9995ZM159.577 83.5841C158.852 83.5825 158.249 83.8566 157.839 84.3627C157.429 84.8678 157.209 85.5941 157.209 86.496C157.209 87.4812 157.451 88.2118 157.895 88.6966C158.338 89.1825 158.976 89.4091 159.724 89.4087C159.73 89.4087 159.735 89.4087 159.741 89.4087C160.693 89.4087 161.251 89.0956 161.814 88.5308L161.895 88.4497L161.184 87.8303L161.114 87.9014C160.683 88.3237 160.362 88.4897 159.746 88.4935C158.781 88.4837 158.274 87.9158 158.233 86.8135H161.946V86.3404C161.946 85.5099 161.732 84.8214 161.324 84.337C160.916 83.8529 160.314 83.583 159.577 83.5841Z" fill="white"/>
<path d="M166.68 86.496C166.68 87.0245 166.633 87.5349 166.451 87.896C166.267 88.2545 165.978 88.4779 165.41 88.4827C164.304 88.4802 164.14 87.5708 164.129 86.496C164.14 85.4214 164.304 84.512 165.41 84.5099C165.978 84.5147 166.267 84.7376 166.451 85.096C166.633 85.457 166.68 85.9674 166.68 86.496ZM166.68 81.2016V84.1099C166.256 83.6922 165.766 83.5807 165.231 83.5841C164.647 83.5845 164.13 83.7793 163.812 84.0939C163.216 84.6908 163.111 85.631 163.109 86.496C163.111 87.3606 163.216 88.3007 163.812 88.8983C164.13 89.2129 164.647 89.4074 165.231 89.4081C165.238 89.4087 165.245 89.4087 165.252 89.4087C165.781 89.4087 166.27 89.285 166.69 88.8635V89.3407H166.798H167.7V81.2016" fill="white"/>
<path d="M121.257 100.279V92.1403H120.192V100.279H120.3" fill="white"/>
<path d="M123.821 96.8005C123.833 95.8842 124.298 95.4592 125.08 95.4479C125.861 95.4596 126.314 95.8715 126.326 96.8005V100.279H126.434H127.347V96.6671C127.348 96.0127 127.16 95.4661 126.743 95.0644C126.386 94.7082 125.873 94.5226 125.258 94.5226C124.71 94.5221 124.212 94.6944 123.821 95.0383V94.5892H122.801V100.279H123.821" fill="white"/>
<path d="M131.436 96.9834L130.551 96.9051C129.878 96.8363 129.699 96.6268 129.686 96.2101C129.692 95.7211 130.029 95.4268 130.811 95.4149C131.365 95.4155 131.843 95.5451 132.211 95.8272L132.286 95.8843L132.962 95.2112L132.87 95.1366C132.351 94.7141 131.622 94.5232 130.822 94.5232C129.615 94.5237 128.691 95.1584 128.688 96.2326C128.679 97.1889 129.334 97.7301 130.432 97.8087L131.339 97.8859C131.954 97.9541 132.147 98.1541 132.158 98.5814C132.157 99.1462 131.692 99.4337 130.8 99.4437C130.134 99.4426 129.576 99.272 129.164 98.8416L129.089 98.7616L128.396 99.4507L128.475 99.5259C129.099 100.126 129.861 100.347 130.8 100.347C130.804 100.347 130.807 100.347 130.811 100.347C132.168 100.345 133.154 99.7024 133.156 98.5701C133.166 97.4864 132.414 97.0597 131.436 96.9834Z" fill="white"/>
<path d="M136.705 99.3765H136.172C135.707 99.3636 135.544 99.1509 135.529 98.6815V95.4479L136.705 95.4486V94.6229H135.529V92.9088H134.509V94.6229H133.815V95.4486H134.509L134.509 98.704C134.509 99.13 134.633 99.5242 134.889 99.8138C135.143 100.103 135.53 100.28 136.022 100.28C136.024 100.28 136.025 100.28 136.027 100.28H136.705" fill="white"/>
<path d="M138.562 93.2997C138.901 93.2997 139.179 93.0241 139.179 92.6864C139.179 92.3489 138.901 92.073 138.562 92.073C138.223 92.073 137.945 92.3489 137.945 92.6864C137.945 93.0241 138.223 93.2997 138.562 93.2997Z" fill="white"/>
<path d="M139.066 94.5892H138.046V100.279H139.066" fill="white"/>
<path d="M143.152 95.4486V94.6229H141.977L141.977 92.9088H140.957V94.6229H140.262V95.4486H140.957V98.704C140.957 99.13 141.08 99.5242 141.336 99.8138C141.591 100.103 141.977 100.28 142.47 100.28C142.472 100.28 142.473 100.28 142.475 100.28H143.152V99.3765H142.62C142.155 99.3636 141.992 99.1509 141.977 98.6815V95.4479" fill="white"/>
<path d="M147.975 98.0699C147.963 98.9841 147.486 99.4101 146.705 99.4207C145.924 99.4091 145.482 98.9995 145.469 98.0699V94.5893H144.449V98.1916C144.448 98.8437 144.623 99.4016 145.042 99.8049C145.4 100.162 145.923 100.347 146.538 100.347C146.539 100.347 146.54 100.347 146.542 100.347C147.09 100.347 147.594 100.166 147.986 99.8197V100.28H148.093H148.995V94.5893H147.975" fill="white"/>
<path d="M151.895 92.9088H150.874V94.6229H150.18V95.4486H150.874V98.704C150.874 99.13 150.997 99.5242 151.253 99.8138C151.508 100.103 151.894 100.28 152.387 100.28C152.389 100.28 152.39 100.28 152.392 100.28H153.07V99.3765H152.537C152.072 99.3636 151.91 99.1509 151.895 98.6815V95.4479L153.07 95.4486V94.6229H151.895" fill="white"/>
<path d="M157.629 96.9382H154.945C154.966 96.5776 154.991 96.4378 155.099 96.1721C155.295 95.7126 155.745 95.4159 156.287 95.4148C156.829 95.4159 157.279 95.7126 157.475 96.1738C157.583 96.4384 157.608 96.5786 157.629 96.9382ZM156.287 94.5226C155.561 94.5211 154.958 94.7951 154.548 95.3013C154.138 95.8063 153.919 96.5334 153.919 97.4351C153.918 98.4196 154.16 99.1503 154.604 99.6351C155.048 100.122 155.684 100.348 156.432 100.347C156.438 100.347 156.444 100.347 156.45 100.347C157.402 100.347 157.96 100.034 158.523 99.4692L158.604 99.3892L157.894 98.769L157.823 98.8394C157.393 99.2624 157.071 99.4278 156.455 99.4319C155.49 99.423 154.984 98.8548 154.942 97.753H158.655V97.2788C158.655 96.4486 158.441 95.7601 158.033 95.2757C157.625 94.7915 157.023 94.5215 156.287 94.5226Z" fill="white"/>
<path d="M120.611 103.523C120.357 103.813 120.237 104.207 120.237 104.633V105.561H119.532V106.387H120.237V111.219H121.258V106.387H122.433V105.561H121.258V104.655C121.274 104.182 121.425 103.973 121.89 103.959H122.433V103.057H121.744C121.249 103.056 120.863 103.233 120.611 103.523Z" fill="white"/>
<path d="M126.785 108.373C126.788 108.983 126.743 109.636 126.38 109.99C126.144 110.224 125.814 110.359 125.449 110.359C125.083 110.358 124.766 110.226 124.528 109.99C124.164 109.635 124.109 108.982 124.112 108.373C124.109 107.764 124.165 107.112 124.528 106.757C124.766 106.521 125.083 106.388 125.449 106.387C125.814 106.387 126.143 106.522 126.38 106.757C126.743 107.111 126.788 107.763 126.785 108.373ZM125.449 105.461C124.75 105.461 124.193 105.718 123.794 106.116C123.203 106.717 123.091 107.521 123.091 108.373C123.091 109.225 123.203 110.03 123.794 110.63C124.193 111.028 124.75 111.286 125.449 111.285C125.449 111.285 125.45 111.285 125.451 111.285C126.147 111.285 126.705 111.028 127.103 110.63L127.027 110.555L127.104 110.63C127.694 110.03 127.806 109.225 127.806 108.373C127.806 107.521 127.694 106.717 127.104 106.117C126.704 105.718 126.146 105.461 125.449 105.461Z" fill="white"/>
<path d="M131.505 105.461C130.952 105.462 130.421 105.659 130.067 106.006V105.527H129.047V111.219H130.067V107.75C130.073 106.956 130.539 106.39 131.281 106.387C131.69 106.392 131.859 106.468 132.157 106.757L132.233 106.833L132.309 106.756L132.976 106.079L132.901 106.004C132.492 105.594 132.046 105.459 131.505 105.461Z" fill="white"/>
<path d="M136.457 111.219H137.522V103.079H136.457" fill="white"/>
<path d="M138.796 104.049H141.102V111.219H142.168V104.049H144.473V103.079H138.796" fill="white"/>
<path d="M160.563 33.9765H149.099C147.278 33.9765 145.538 34.6389 144.199 35.841C142.802 37.089 142.034 38.7696 142.037 40.5717V47.1104C142.037 48.9712 142.765 50.5637 144.2 51.8432C145.532 53.0442 147.272 53.7056 149.099 53.7056H160.563C161.349 53.7056 161.919 53.1461 161.919 52.3749V51.1802C161.919 50.4101 161.349 49.8501 160.563 49.8501H149.143C147.302 49.8213 145.913 48.6432 145.913 47.1104V40.5717C145.913 38.9328 147.57 37.8314 149.118 37.8314H149.143H160.563C161.336 37.8314 161.919 37.2592 161.919 36.5013V35.3066C161.919 34.536 161.349 33.9765 160.563 33.9765Z" fill="white"/>
<path d="M182.767 33.9765H169.196C165.717 33.9765 164.096 35.5882 164.096 39.0485V40.5258C164.096 43.9349 165.717 45.5232 169.196 45.5232H179.658C180.355 45.5232 180.843 46.008 180.843 46.7018V48.6709C180.843 49.3546 180.345 49.8501 179.658 49.8501H165.814C165.038 49.8501 164.476 50.4101 164.476 51.1802V52.3749C164.476 53.1461 165.038 53.7056 165.814 53.7056H179.62C183.099 53.7056 184.719 52.0938 184.719 48.6336V46.7397C184.719 43.2794 183.099 41.6677 179.62 41.6677H169.158C168.471 41.6677 167.972 41.1717 167.972 40.4885V39.0106C167.972 38.3274 168.471 37.8314 169.158 37.8314H182.767C183.53 37.8314 184.105 37.2592 184.105 36.5013V35.3066C184.105 34.536 183.542 33.9765 182.767 33.9765Z" fill="white"/>
<path d="M123.728 37.8314H132.643C134.197 37.8314 135.873 38.8794 135.873 40.5717V47.1104C135.873 48.8026 134.197 49.8501 132.643 49.8501H123.728V37.8314ZM123.728 25H119.852V52.4325C119.852 53.1461 120.448 53.7056 121.208 53.7056H132.673C134.492 53.7056 136.191 53.0618 137.586 51.8437C138.961 50.6426 139.749 48.9178 139.749 47.1104V40.5717C139.749 38.7658 138.981 37.0858 137.586 35.84C136.245 34.6384 134.5 33.9765 132.673 33.9765H123.728" fill="white"/>
</svg>
