<svg width="304" height="146" viewBox="0 0 304 146" fill="none" xmlns="http://www.w3.org/2000/svg">
<rect width="304" height="146" fill="#E3F6FC"/>
<path d="M216.938 47.3417C216.938 42.7047 220.713 38.9293 225.35 38.9293C229.987 38.9293 233.763 42.7047 233.763 47.3417C233.763 51.9786 229.987 55.7541 225.35 55.7541C220.713 55.7541 216.938 51.9871 216.938 47.3417ZM233.535 64.6226H228.306V61.3793C234.801 60.011 239.683 54.2422 239.683 47.3417C239.683 39.436 233.247 33 225.342 33C217.436 33 211 39.436 211 47.3417C211 54.2338 215.89 60.0026 222.377 61.3793V64.6226H217.149C215.51 64.6226 214.184 65.9487 214.184 67.5872C214.184 69.2258 215.51 70.5519 217.149 70.5519H222.377V76.9287C222.377 78.5673 223.703 79.8934 225.342 79.8934C226.98 79.8934 228.306 78.5673 228.306 76.9287V70.5519H233.535C235.173 70.5519 236.499 69.2258 236.499 67.5872C236.499 65.9487 235.173 64.6226 233.535 64.6226Z" fill="#33C2AF"/>
<path d="M88.9637 71.1135C86.1089 74.7707 80.8047 75.4211 77.1559 72.5663C73.4987 69.7114 72.8484 64.4157 75.7032 60.7585C78.558 57.1013 83.8622 56.4509 87.511 59.3058C91.1682 62.1521 91.8269 67.4563 88.9637 71.1135ZM104.42 52.3799L103.221 42.5991C103.018 40.9775 101.54 39.8203 99.9184 40.023L90.1377 41.2224C88.516 41.4251 87.3589 42.9032 87.5616 44.5249C87.7643 46.1465 89.2424 47.3037 90.8641 47.101L93.5416 46.7716L88.6427 53.0471C82.6881 50.1331 75.2808 51.6703 71.0324 57.1013C66.1674 63.3346 67.2738 72.3636 73.5071 77.237C76.1255 79.281 79.2337 80.2692 82.3165 80.2692C86.5819 80.2692 90.8134 78.3773 93.6345 74.7623C97.8745 69.3314 97.5788 61.772 93.305 56.6959L98.2038 50.4203L98.5333 53.0978C98.7191 54.6012 99.9944 55.6992 101.473 55.6992C101.591 55.6992 101.717 55.6908 101.836 55.6739C103.466 55.4796 104.623 54.0015 104.42 52.3799Z" fill="#33C2AF"/>
<path d="M133.529 108.368L151.655 83.4518C152.567 82.2018 154.434 82.2018 155.346 83.4518L173.471 108.368C174.569 109.88 173.488 112 171.622 112H135.362C133.504 112 132.423 109.88 133.529 108.368Z" fill="#575756"/>
<path d="M237.679 82.9216C237.653 82.9229 237.62 82.9246 237.594 82.9259L67.7745 82.9567C66.836 82.9615 66.0789 82.196 66.083 81.2656C66.0866 80.3267 66.844 79.5783 67.7741 79.574L237.594 79.5432C238.524 79.5388 239.289 80.3038 239.285 81.2343C239.288 82.1306 238.573 82.8768 237.679 82.9216Z" fill="#706F6F"/>
</svg>
