<svg width="122" height="72" viewBox="0 0 122 72" fill="none" xmlns="http://www.w3.org/2000/svg">
<path d="M1.63652 0.849518H0V72H1.63652V0.849518Z" fill="#005187"/>
<path d="M23.4957 5.5228C23.3789 5.87329 23.1451 5.99012 23.262 6.22379C23.262 6.45745 23.4957 6.69111 23.6126 6.92478C23.7295 6.69111 23.8464 6.45745 23.8464 6.22379C23.8464 5.99012 23.4957 5.63963 23.4957 5.5228Z" fill="white"/>
<path d="M27.704 5.5228C27.8208 5.87329 28.0546 5.99012 27.9377 6.22379C27.9377 6.45745 27.704 6.69111 27.5871 6.92478C27.4702 6.57428 27.2364 6.45745 27.3533 6.22379C27.3533 5.99012 27.5871 5.63963 27.704 5.5228Z" fill="white"/>
<path d="M21.041 5.2891C21.1579 5.2891 21.2748 5.17227 21.2748 5.05544C21.2748 4.93861 21.1579 4.82178 21.041 4.82178C20.9241 4.82178 20.8073 4.93861 20.8073 5.05544C20.8073 5.17227 20.9241 5.2891 21.041 5.2891Z" fill="white"/>
<path d="M21.2748 5.75646C21.2748 5.63963 21.1579 5.5228 21.041 5.5228C20.9241 5.5228 20.8073 5.63963 20.8073 5.75646C20.8073 5.87329 20.8073 5.99012 21.041 5.99012C21.1579 5.99012 21.2748 5.87329 21.2748 5.75646Z" fill="white"/>
<path d="M21.3918 6.45742C21.3918 6.34059 21.2749 6.22375 21.158 6.22375C21.0411 6.22375 20.9242 6.34059 20.9242 6.45742C20.9242 6.57425 21.0411 6.69108 21.158 6.69108C21.2749 6.69108 21.3918 6.57425 21.3918 6.45742Z" fill="white"/>
<path d="M22.6776 4.00398C22.7945 4.00398 22.9114 3.88715 22.9114 3.77031C22.9114 3.65348 22.7945 3.53665 22.6776 3.53665C22.5607 3.53665 22.4438 3.65348 22.4438 3.77031C22.3269 3.88715 22.4438 4.00398 22.6776 4.00398Z" fill="white"/>
<path d="M21.9761 4.23765C22.093 4.23765 22.2098 4.12082 22.2098 4.00399C22.2098 3.88716 22.093 3.77032 21.9761 3.77032C21.8592 3.77032 21.7423 3.88716 21.7423 4.00399C21.6254 4.12082 21.7423 4.23765 21.9761 4.23765Z" fill="white"/>
<path d="M21.3916 4.70497C21.5085 4.70497 21.6254 4.58814 21.6254 4.4713C21.6254 4.35447 21.5085 4.23764 21.3916 4.23764C21.2747 4.23764 21.1578 4.35447 21.1578 4.4713C21.1578 4.58814 21.2747 4.70497 21.3916 4.70497Z" fill="white"/>
<path d="M23.3789 4.00398C23.4958 4.00398 23.6127 3.88715 23.6127 3.77031C23.6127 3.65348 23.4958 3.53665 23.3789 3.53665C23.262 3.53665 23.1451 3.65348 23.1451 3.77031C23.1451 3.88715 23.262 4.00398 23.3789 4.00398Z" fill="white"/>
<path d="M24.0803 4.23765C24.1972 4.23765 24.3141 4.12082 24.3141 4.00399C24.3141 3.88716 24.1972 3.77032 24.0803 3.77032C23.9635 3.77032 23.8466 3.88716 23.8466 4.00399C23.8466 4.12082 23.9635 4.23765 24.0803 4.23765Z" fill="white"/>
<path d="M24.7816 4.58815C24.8985 4.58815 25.0154 4.47131 25.0154 4.35448C25.0154 4.23765 24.8985 4.12082 24.7816 4.12082C24.6647 4.12082 24.5478 4.23765 24.5478 4.35448C24.4309 4.47131 24.5478 4.58815 24.7816 4.58815Z" fill="white"/>
<path d="M29.8081 5.05544C29.8081 5.17227 29.925 5.2891 30.0419 5.2891C30.1588 5.2891 30.2757 5.17227 30.2757 5.05544C30.2757 4.93861 30.1588 4.82178 30.0419 4.82178C29.925 4.82178 29.8081 4.93861 29.8081 5.05544Z" fill="white"/>
<path d="M30.1586 5.40594C30.0417 5.40594 29.9248 5.52278 29.9248 5.63961C29.9248 5.75644 30.0417 5.87327 30.1586 5.87327C30.2755 5.87327 30.3924 5.75644 30.3924 5.63961C30.5093 5.63961 30.3924 5.40594 30.1586 5.40594Z" fill="white"/>
<path d="M30.0419 6.10693C29.925 6.10693 29.8081 6.22377 29.8081 6.3406C29.8081 6.45743 29.925 6.57426 30.0419 6.57426C30.1588 6.57426 30.2757 6.45743 30.2757 6.3406C30.2757 6.22377 30.1588 6.10693 30.0419 6.10693Z" fill="white"/>
<path d="M28.5224 4.00398C28.6393 4.00398 28.7562 3.88715 28.7562 3.77031C28.7562 3.65348 28.6393 3.53665 28.5224 3.53665C28.4055 3.53665 28.2886 3.65348 28.2886 3.77031C28.2886 3.88715 28.4055 4.00398 28.5224 4.00398Z" fill="white"/>
<path d="M29.2235 4.23765C29.3404 4.23765 29.4573 4.12082 29.4573 4.00399C29.4573 3.88716 29.3404 3.77032 29.2235 3.77032C29.1066 3.77032 28.9897 3.88716 28.9897 4.00399C28.9897 4.12082 29.1066 4.23765 29.2235 4.23765Z" fill="white"/>
<path d="M29.8082 4.70497C29.9251 4.70497 30.042 4.58814 30.042 4.4713C30.042 4.35447 29.9251 4.23764 29.8082 4.23764C29.6913 4.23764 29.5744 4.35447 29.5744 4.4713C29.4575 4.58814 29.5744 4.70497 29.8082 4.70497Z" fill="white"/>
<path d="M27.8209 4.00398C27.9378 4.00398 28.0547 3.88715 28.0547 3.77031C28.0547 3.65348 27.9378 3.53665 27.8209 3.53665C27.704 3.53665 27.5871 3.65348 27.5871 3.77031C27.4702 3.88715 27.5871 4.00398 27.8209 4.00398Z" fill="white"/>
<path d="M27.1195 4.23765C27.2364 4.23765 27.3533 4.12082 27.3533 4.00399C27.3533 3.88716 27.2364 3.77032 27.1195 3.77032C27.0026 3.77032 26.8857 3.88716 26.8857 4.00399C26.7688 4.12082 26.8857 4.23765 27.1195 4.23765Z" fill="white"/>
<path d="M26.1844 4.23763C26.1844 4.35446 26.3013 4.47129 26.4182 4.47129C26.5351 4.47129 26.652 4.35446 26.652 4.23763C26.652 4.1208 26.5351 4.00397 26.4182 4.00397C26.3013 4.00397 26.1844 4.1208 26.1844 4.23763Z" fill="white"/>
<path d="M25.1323 5.87325H25.483V4.70494C25.3661 4.70494 25.2492 4.70494 25.1323 4.5881V5.87325Z" fill="white"/>
<path d="M26.0676 4.47128C25.9507 4.47128 25.8338 4.58811 25.7169 4.58811V5.75643H26.0676V4.47128Z" fill="white"/>
<path d="M25.3662 3.18616V2.48517C25.0155 2.48517 24.7817 2.83566 24.6648 3.18616H25.3662Z" fill="white"/>
<path d="M25.7169 3.18616H26.4183C26.4183 2.83566 26.0676 2.48517 25.7169 2.48517V3.18616Z" fill="white"/>
<path d="M24.6648 3.53665C24.7817 3.88715 25.1324 4.23764 25.4831 4.23764C25.9506 4.23764 26.3013 3.88715 26.3013 3.53665H24.6648Z" fill="white"/>
<path d="M26.0675 2.36833C25.8337 2.13467 25.7168 1.901 25.7168 1.66734C25.9506 1.66734 26.1843 1.901 26.4181 2.13467V1.08318C26.1843 1.31684 25.9506 1.55051 25.7168 1.55051C25.7168 1.31684 25.8337 1.08318 26.0675 0.849518H25.1323C25.3661 1.08318 25.483 1.31684 25.483 1.55051C25.2492 1.55051 25.0154 1.31684 24.7816 1.08318V2.01783C24.8985 1.78417 25.2492 1.66734 25.483 1.55051C25.483 1.78417 25.2492 2.01783 25.1323 2.13467H26.0675V2.36833Z" fill="white"/>
<path d="M26.0674 22.697C25.8336 22.697 25.7167 22.5802 25.7167 22.3465C25.7167 22.1129 25.8336 21.996 26.0674 21.996C26.3012 21.996 26.4181 22.1129 26.4181 22.3465C26.4181 22.4633 26.3012 22.697 26.0674 22.697ZM24.4309 22.1129C24.1971 22.1129 24.0802 21.996 24.0802 21.7624C24.0802 21.5287 24.1971 21.4119 24.4309 21.4119C24.6647 21.4119 24.7816 21.5287 24.7816 21.7624C24.7816 21.996 24.6647 22.1129 24.4309 22.1129ZM23.8464 20.4772C23.6126 20.2435 23.3788 20.2435 23.262 20.3604C23.262 20.4772 23.1451 20.4772 23.0282 20.594V20.7109H23.1451C23.3788 20.8277 23.3788 21.0614 23.262 21.0614C23.262 21.0614 23.262 21.1782 23.1451 21.1782C23.0282 21.1782 22.9113 21.1782 22.7944 21.0614H22.6775V21.1782C22.6775 21.1782 22.6775 21.1782 22.6775 21.295C22.4437 21.4119 22.4437 21.5287 22.4437 21.6455C22.4437 21.6455 22.4437 21.6455 22.4437 21.7624C22.4437 21.8792 22.5606 21.8792 22.6775 21.996C22.7944 21.996 22.9113 22.1129 22.9113 22.1129C22.7944 22.2297 22.5606 22.2297 22.4437 22.1129C22.2099 21.996 22.093 21.6455 22.093 21.5287C22.093 21.295 22.2099 21.0614 22.3268 20.8277C22.3268 20.7109 22.2099 20.7109 22.2099 20.594C22.3268 20.594 22.4437 20.594 22.4437 20.594C22.6775 20.3604 23.0282 20.0099 23.3788 20.0099C23.4957 20.0099 23.7295 20.1267 23.8464 20.2435C23.9633 20.3604 23.9633 20.4772 23.9633 20.594L23.8464 20.4772ZM27.1195 21.7624C26.1843 21.5287 25.1323 21.1782 24.1971 20.7109C24.1971 20.4772 24.1971 20.2435 23.9633 20.1267C23.8464 19.8931 23.6126 19.8931 23.3788 19.8931C23.262 19.8931 23.1451 19.8931 23.1451 19.8931C23.0282 19.7762 22.9113 19.6594 22.6775 19.4257C22.3268 19.0752 22.093 18.4911 21.8592 17.9069C21.7423 17.6732 21.6254 17.3228 21.6254 16.9723C21.6254 17.2059 21.2748 17.6733 20.6903 17.6733C20.6903 17.5564 20.6903 17.4396 20.6903 17.4396C20.4565 17.5564 20.2227 17.7901 19.7551 17.5564C19.872 17.9069 19.872 18.3742 20.1058 18.7247C20.3396 19.5426 20.8072 20.2435 21.3916 20.8277C21.6254 21.0614 21.7423 21.1782 21.9761 21.4119V21.5287C21.9761 21.7624 22.2099 22.1129 22.4437 22.2297C22.6775 22.3465 22.9113 22.3465 23.1451 22.1129C23.6126 22.3465 24.0802 22.5802 24.7816 22.697C25.366 22.9307 26.0674 23.0475 26.535 23.0475C27.0026 23.0475 27.587 22.8138 28.0546 22.4633C28.2884 22.3465 28.5222 22.1129 28.6391 21.996C28.6391 21.996 28.6391 21.996 28.756 21.996C28.2884 22.1129 27.7039 21.8792 27.1195 21.7624Z" fill="white"/>
<path d="M26.8857 25.3842C26.7688 25.2673 26.6519 25.2673 26.6519 25.2673C26.3013 25.2673 26.4182 26.202 25.9506 26.202C25.7168 26.202 25.7168 26.0852 25.7168 25.9683C25.7168 25.8515 25.8337 25.8515 25.8337 25.7347C25.8337 25.6178 25.7168 25.6178 25.5999 25.6178C25.483 25.6178 25.3661 25.6178 25.3661 25.7347C25.3661 25.8515 25.483 25.8515 25.483 25.9683C25.483 26.0852 25.3661 26.202 25.2492 26.202C24.7816 26.202 25.0154 25.2673 24.5478 25.2673C24.431 25.2673 24.3141 25.3842 24.3141 25.501C24.1972 25.2673 24.1972 25.1505 24.1972 25.0337C24.1972 24.8 24.3141 24.5663 24.6647 24.5663C25.1323 24.5663 25.0154 25.2673 25.2492 25.2673C25.3661 25.2673 25.483 25.1505 25.483 25.1505C25.483 24.9168 25.1323 24.8 25.1323 24.5663C25.1323 24.3327 25.3661 24.099 25.5999 23.8654C25.8337 23.9822 26.0675 24.2159 26.0675 24.4495C26.0675 24.6832 25.7168 24.9168 25.7168 25.0337C25.7168 25.1505 25.8337 25.1505 25.9506 25.1505C26.1844 25.1505 26.0675 24.4495 26.5351 24.4495C26.7688 24.4495 27.0026 24.6832 27.0026 24.9168C27.0026 25.1505 26.8857 25.2673 26.8857 25.3842ZM25.5999 26.7861C25.483 26.7861 25.3661 26.6693 25.3661 26.5525C25.3661 26.4357 25.483 26.3188 25.5999 26.3188C25.7168 26.3188 25.8337 26.4357 25.8337 26.5525C25.8337 26.6693 25.7168 26.7861 25.5999 26.7861ZM26.5351 24.4495C26.4182 24.4495 26.4182 24.4495 26.3013 24.4495V23.398C25.8337 23.398 25.2492 23.2812 24.7816 23.1644V24.4495C24.6647 24.4495 24.6647 24.4495 24.5478 24.4495C24.1972 24.4495 23.9634 24.8 23.9634 25.0337C23.9634 25.2673 24.0803 25.6178 24.3141 25.7347C24.431 25.501 24.431 25.3842 24.5478 25.3842C24.7816 25.3842 24.6647 26.3188 25.2492 26.3188V26.4357C25.2492 26.6693 25.483 26.903 25.7168 26.903C25.9506 26.903 26.1844 26.6693 26.1844 26.4357V26.3188C26.7688 26.3188 26.6519 25.3842 26.7688 25.3842C26.8857 25.3842 26.8857 25.501 27.0026 25.7347C27.1195 25.6178 27.3533 25.2673 27.3533 25.0337C27.1195 24.8 26.8857 24.4495 26.5351 24.4495Z" fill="white"/>
<path d="M39.0428 25.7346L38.9259 25.6178C37.7569 25.9683 36.1204 24.9168 34.6008 23.9822C33.315 23.1643 32.146 22.3465 31.094 22.3465C30.7433 22.3465 30.3926 22.4634 30.0419 22.5802C29.8081 22.8139 29.5743 23.0475 29.3406 23.5148C29.2237 23.8653 28.9899 24.2158 28.873 24.4495C28.7561 24.6832 28.6392 24.9168 28.6392 25.1505C28.6392 25.3841 28.7561 25.501 28.873 25.7346C28.9899 25.8515 29.2237 25.9683 29.4575 26.202C29.5743 26.202 29.5743 26.3188 29.6912 26.3188C29.925 26.3188 30.0419 26.4356 30.1588 26.5525C29.6912 26.7861 28.9899 26.903 28.2885 27.0198C27.4703 27.2535 26.5351 27.3703 25.5999 27.3703C24.6648 27.3703 23.7296 27.2535 22.9114 27.1366C22.21 27.0198 21.5086 26.7861 21.0411 26.5525C21.0411 26.3188 21.158 26.3188 21.5086 26.0851C21.6255 26.0851 21.6255 25.9683 21.7424 25.9683C21.9762 25.9683 22.21 25.8515 22.3269 25.6178C22.5607 25.501 22.5607 25.3841 22.5607 25.1505C22.5607 24.9168 22.4438 24.6832 22.21 24.4495C22.21 24.2158 21.9762 23.8653 21.8593 23.5148C21.6255 23.0475 21.3918 22.8139 21.0411 22.5802C20.6904 22.4634 20.3397 22.3465 19.989 22.3465C18.937 22.3465 17.768 23.1643 16.4822 23.9822C15.0795 24.9168 13.4429 25.9683 12.274 25.6178C12.274 25.6178 12.1571 25.6178 12.1571 25.7346C12.1571 25.7346 12.1571 25.8515 12.274 25.8515C12.5078 26.0851 12.8585 26.3188 13.2092 26.5525C13.6767 26.903 14.0274 27.2535 14.495 27.2535C14.9626 27.2535 15.4301 27.1366 16.0146 26.7861C16.4822 26.5525 17.0667 26.202 17.5342 25.8515C18.4694 25.1505 19.5214 24.4495 20.4566 24.4495C20.4566 24.4495 20.3397 24.5663 20.2228 24.6832C19.989 24.9168 19.7552 25.1505 19.7552 25.6178C19.7552 25.9683 19.8721 26.202 19.989 26.5525C19.989 26.6693 20.1059 26.7861 20.1059 26.903C20.2228 27.1366 20.2228 27.3703 20.3397 27.604C20.3397 27.7208 20.4566 27.8376 20.4566 27.9544C20.5735 28.1881 20.6904 28.6554 21.3918 29.0059C22.21 29.3564 23.6127 29.5901 25.5999 29.5901C27.5871 29.5901 28.9899 29.3564 29.8081 29.0059C30.5095 28.6554 30.6264 28.1881 30.7433 27.9544C30.7433 27.8376 30.8602 27.7208 30.8602 27.604C30.9771 27.3703 30.9771 27.1366 31.094 26.903C31.094 26.6693 31.2109 26.5525 31.2109 26.4356C31.3278 26.202 31.4447 25.9683 31.4447 25.6178C31.4447 25.1505 31.2109 24.9168 30.8602 24.6832C30.8602 24.5663 30.7433 24.4495 30.6264 24.3327C31.5616 24.4495 32.6136 25.1505 33.6656 25.8515C34.1332 26.202 34.6008 26.5525 35.1853 26.7861C35.7697 27.1366 36.2373 27.2535 36.7049 27.2535C37.1725 27.2535 37.6401 26.903 38.1076 26.5525C38.4583 26.3188 38.809 26.0851 39.1597 25.8515C39.0428 25.8515 39.1597 25.7346 39.0428 25.7346Z" fill="white"/>
<path d="M25.7168 16.0376V11.3644C26.1843 11.3644 26.6519 11.4812 27.1195 11.7149C27.704 11.9485 28.0546 12.299 28.5222 12.6495C28.8729 13.1168 29.1067 13.701 29.3405 14.2851C29.5743 14.8693 29.6912 15.4535 29.6912 16.0376H25.7168ZM25.5999 9.37822C24.314 9.37822 23.3789 9.72871 22.7944 10.0792C22.5606 9.96238 22.3268 9.72871 22.3268 9.49505C22.3268 8.79406 24.4309 8.67723 25.5999 8.67723C26.6519 8.67723 28.8729 8.79406 28.8729 9.49505C28.8729 9.72871 28.756 9.84555 28.4053 10.0792C27.8209 9.72871 26.8857 9.37822 25.5999 9.37822ZM25.483 16.0376H21.5086C21.5086 15.4535 21.6255 14.8693 21.8592 14.2851C22.093 13.701 22.3268 13.1168 22.6775 12.6495C23.0282 12.1822 23.4958 11.8317 23.9633 11.598C24.5478 11.4812 25.0154 11.3644 25.483 11.3644V16.0376ZM31.5615 15.6871C31.4446 15.5703 31.2108 15.4535 31.0939 15.103C30.977 14.8693 30.3925 13.5842 30.2756 13.4673C30.1587 13.3505 30.1587 13.2337 30.1587 13.1168C30.1587 13 30.2756 12.8832 30.2756 12.7663C30.2756 12.7663 30.3925 12.5327 30.5094 12.5327C30.5094 12.4158 30.6263 12.4158 30.6263 12.4158C30.3925 11.9485 30.1587 11.7149 29.8081 11.3644C29.4574 10.897 28.9898 10.5465 28.6391 10.3129C28.8729 10.196 29.1067 9.96238 29.1067 9.61188C29.1067 9.37822 28.9898 9.26139 28.8729 9.02772C29.1067 8.2099 29.5743 7.27525 29.925 6.80792L29.1067 6.45743C29.3405 6.80792 29.3405 7.15842 29.3405 7.39208C29.1067 7.27525 28.8729 7.04159 28.8729 6.80792C28.8729 7.04159 28.756 7.39208 28.5222 7.62574C28.756 7.50891 28.9898 7.50891 29.2236 7.62574C29.1067 7.74258 28.756 8.09307 28.1715 7.97624C27.9377 7.85941 27.5871 7.74258 27.704 7.50891C27.704 7.39208 27.8209 7.27525 27.9378 7.27525C28.0546 7.27525 28.1715 7.50891 28.0546 7.62574C28.2884 7.50891 28.5222 6.80792 28.1715 6.69109C27.9377 6.69109 27.5871 7.04159 27.5871 7.27525C27.5871 6.92476 27.3533 6.57426 27.1195 6.57426C26.7688 6.57426 26.8857 7.27525 27.0026 7.50891C27.0026 7.27525 27.1195 7.15842 27.2364 7.15842C27.3533 7.15842 27.4702 7.27525 27.4702 7.50891C27.4702 7.74258 27.1195 7.85941 26.7688 7.85941C26.4181 7.85941 25.8337 7.74258 25.8337 7.04159C26.0674 7.04159 26.4181 7.27525 26.535 7.50891C26.535 7.15842 26.535 6.80792 26.535 6.45743C26.3012 6.69109 25.9505 6.80792 25.7168 6.80792C25.8337 6.57426 26.0674 6.22377 26.3012 6.10693H24.8985C25.1323 6.3406 25.3661 6.57426 25.483 6.80792C25.2492 6.80792 25.0154 6.69109 24.7816 6.3406C24.7816 6.80792 24.7816 7.04159 24.7816 7.39208C24.8985 7.15842 25.2492 7.04159 25.483 6.92476C25.483 7.62574 24.7816 7.62574 24.5478 7.62574C24.1971 7.62574 23.8465 7.50891 23.8465 7.27525C23.8465 7.04159 23.9633 7.04159 24.0802 6.92476C24.1971 6.92476 24.314 7.04159 24.314 7.27525C24.4309 7.39208 24.5478 6.69109 24.0802 6.69109C23.8464 6.69109 23.6127 7.04159 23.6127 7.39208C23.4958 7.04159 23.262 6.69109 23.0282 6.69109C22.6775 6.80792 22.9113 7.50891 23.1451 7.62574C23.1451 7.50891 23.1451 7.27525 23.262 7.27525C23.4958 7.27525 23.4958 7.39208 23.4958 7.50891C23.4958 7.74258 23.262 7.85941 22.9113 7.97624C22.4437 8.09307 22.093 7.74258 21.9761 7.62574C22.2099 7.50891 22.4437 7.62574 22.6775 7.62574C22.4437 7.39208 22.3268 7.04159 22.3268 6.80792C22.2099 7.04159 22.093 7.27525 21.8592 7.39208C21.8592 7.15842 21.8592 6.80792 22.093 6.45743L21.2748 6.80792C21.6255 7.27525 22.093 8.2099 22.3268 9.02772C22.2099 9.14456 22.093 9.37822 22.093 9.49505C22.093 9.84555 22.3268 10.0792 22.5606 10.196C22.093 10.5465 21.7424 10.897 21.3917 11.3644C20.8072 11.9485 20.3396 12.6495 20.1058 13.4673C20.2227 13.5842 20.6903 14.0515 20.8072 14.2851C20.9241 14.5188 21.041 14.7525 21.041 14.9861C21.041 15.3366 21.1579 15.4535 21.2748 15.6871C21.3917 15.804 21.5086 16.0376 21.5086 16.2713H25.483V20.5941C25.3661 20.5941 25.1323 20.5941 25.0154 20.8277C25.483 21.0614 25.9505 21.1782 26.3012 21.295C26.3012 21.0614 26.4181 20.8277 26.535 20.7109C26.535 20.7109 25.9505 20.7109 25.5999 20.5941V16.2713H29.4574C29.4574 16.8554 29.3405 17.4396 29.1067 18.0238C29.1067 18.4911 28.8729 19.0752 28.5222 19.4257C28.0546 19.8931 27.704 20.2436 27.1195 20.4772C27.0026 20.4772 27.0026 20.5941 27.0026 20.5941C27.0026 20.7109 26.8857 20.8277 26.7688 20.9446C26.7688 21.0614 26.6519 21.1782 26.6519 21.295C26.8857 21.295 26.8857 21.4119 27.1195 21.4119C28.5222 21.8792 28.8729 21.7624 28.9898 21.6455C29.3405 21.4119 29.5743 21.1782 29.8081 20.8277C30.3925 20.2436 30.8601 19.5426 31.0939 18.7248C31.4446 17.9069 31.5615 16.9723 31.5615 16.1545C31.5615 15.9208 31.5615 15.9208 31.5615 15.6871Z" fill="white"/>
<path d="M27.9379 13.2337C27.9379 13.3505 27.9379 13.4673 28.0548 13.4673L27.9379 13.5842C28.0548 13.5842 28.0548 13.5842 28.1717 13.5842C28.1717 13.701 28.1717 13.701 28.1717 13.701H28.2886C28.6393 14.1683 28.7562 14.7525 28.8731 15.3366H28.7562C28.7562 15.4535 28.7562 15.4535 28.8731 15.5703H27.821C27.821 15.4535 27.821 15.4535 27.7041 15.4535H27.5872C27.5872 15.4535 27.5872 15.3366 27.4703 15.3366L27.3534 15.4535C27.3534 15.4535 27.2365 15.3366 27.2365 15.4535L27.1196 15.5703H26.4183C26.4183 15.5703 26.4183 15.4535 26.5352 15.4535C26.4183 15.4535 26.4183 15.4535 26.4183 15.5703V13.9347C26.5352 13.9347 26.5352 13.9347 26.5352 13.8178V13.701C26.5352 13.701 26.6521 13.701 26.6521 13.5842L26.5352 13.4673C26.5352 13.4673 26.6521 13.3505 26.5352 13.3505L26.4183 13.2337V12.0654C26.4183 12.0654 26.5352 12.0654 26.5352 12.1822C26.5352 12.0654 26.5352 12.0654 26.5352 12.0654C26.6521 12.1822 26.8859 12.4158 27.1196 12.5327C27.4703 12.7663 27.7041 13 27.9379 13.2337ZM28.99 15.2198C29.1069 15.2198 28.99 15.3366 28.99 15.3366C28.8731 14.6356 28.6393 13.9347 28.2886 13.4673C28.4055 13.4673 28.4055 13.3505 28.4055 13.2337C28.2886 13.2337 28.1717 13.2337 28.1717 13.3505C28.1717 13.3505 28.1717 13.2337 28.0548 13.2337C27.821 12.8832 27.5872 12.6495 27.2365 12.4158C27.0028 12.1822 26.6521 12.0654 26.3014 11.9485C26.3014 11.8317 26.4183 11.8317 26.4183 11.9485C26.4183 11.8317 26.3014 11.7149 26.3014 11.8317C26.3014 11.8317 26.1845 11.8317 26.1845 11.9485C26.1845 11.9485 26.0676 11.8317 25.9507 11.8317C25.9507 11.9485 25.9507 11.9485 25.9507 12.0654H25.8338C25.8338 12.0654 25.8338 12.1822 25.9507 12.299C25.8338 12.299 25.9507 12.1822 25.9507 12.1822V13.701C25.8338 13.701 25.8338 13.701 25.7169 13.8178C25.9507 13.701 26.0676 13.701 26.1845 13.701V15.3366C26.0676 15.3366 26.0676 15.2198 26.1845 15.2198C26.0676 15.2198 25.9507 15.3366 26.0676 15.3366C26.0676 15.3366 26.0676 15.4535 26.1845 15.4535L26.0676 15.5703C26.1845 15.5703 26.1845 15.5703 26.1845 15.4535C26.1845 15.5703 26.1845 15.5703 26.3014 15.5703C26.3014 15.5703 26.4183 15.5703 26.4183 15.4535C26.4183 15.5703 26.3014 15.4535 26.3014 15.4535H27.4703C27.4703 15.5703 27.4703 15.5703 27.5872 15.6871C27.7041 15.5703 27.7041 15.4535 27.7041 15.4535H28.99C28.99 15.5703 28.8731 15.5703 28.8731 15.4535C28.8731 15.5703 28.99 15.5703 28.99 15.5703L29.1069 15.4535C29.1069 15.4535 29.2237 15.5703 29.3406 15.5703C29.3406 15.4535 29.3406 15.4535 29.2237 15.4535C29.3406 15.4535 29.3406 15.4535 29.3406 15.3366C29.2237 15.3366 29.2237 15.2198 28.99 15.2198Z" fill="white"/>
<path d="M28.4053 14.8693C28.4053 14.7525 28.5222 14.7525 28.4053 14.6356C28.4053 14.5188 28.2884 14.5188 28.2884 14.6356C28.2884 14.6356 27.9378 14.6356 27.9378 14.402L28.0547 14.5188H28.1716C28.2884 14.5188 28.2884 14.5188 28.2884 14.402C28.2884 14.2851 28.1716 14.1683 28.0547 14.0515L27.9378 13.9347C27.9378 13.8178 27.9378 13.8178 27.8209 13.5842V13.4673C27.704 13.5842 27.704 13.8178 27.8209 13.9347C27.9378 14.0515 28.1716 14.1683 28.1716 14.2851C28.1716 14.2851 28.1716 14.2851 28.0547 14.402C28.0547 14.402 27.9378 14.402 27.9378 14.2851C27.8209 14.1683 27.704 14.0515 27.704 13.9347C27.5871 13.8178 27.5871 13.5842 27.704 13.4673C27.8209 13.3505 27.704 13.1168 27.5871 13C27.5871 13 27.5871 13 27.5871 12.8832C27.5871 12.8832 27.5871 12.8832 27.4702 12.8832C27.4702 12.8832 27.4702 12.8832 27.3533 12.7663C27.3533 12.7663 27.3533 12.7663 27.2364 12.6495C27.2364 12.6495 27.2364 12.6495 27.1195 12.7663H27.0026C27.0026 12.7663 27.0026 12.7663 26.8857 12.7663C26.8857 12.7663 26.8857 12.7663 26.8857 12.8832V13C26.8857 13 26.8857 13 26.8857 13.1168C26.8857 13.1168 26.8857 13.1168 27.0026 13.1168C27.1195 13.1168 27.1195 13.1168 27.1195 13.1168C27.1195 13.2337 27.0026 13.2337 26.8857 13.4673C26.8857 13.4673 26.7688 13.4673 26.7688 13.3505L26.6519 13.2337L26.535 13.1168V13V12.8832C26.535 12.8832 26.535 12.8832 26.4181 12.8832C26.4181 12.8832 26.4181 12.7663 26.3012 12.7663C26.3012 12.7663 26.3012 12.6495 26.1843 12.7663C26.1843 12.7663 26.1843 12.7663 26.1843 12.8832V13H26.0675C26.0675 13.1168 26.0675 13.1168 26.1843 13.1168V13.2337C26.1843 13.2337 26.1843 13.2337 26.1843 13.3505C26.1843 13.4673 26.3012 13.5842 26.4181 13.701C26.3012 13.701 26.3012 13.8178 26.1843 13.9347L26.0675 14.0515H25.9506C25.9506 14.0515 25.9506 14.0515 26.0675 14.0515C26.0675 14.0515 26.0675 14.0515 26.1843 14.0515C26.1843 14.0515 26.1843 14.0515 26.0675 14.0515C26.0675 14.0515 25.9506 14.1683 26.0675 14.1683C26.0675 14.1683 26.0675 14.1683 26.1843 14.1683V14.2851C26.1843 14.2851 26.3012 14.402 26.3012 14.2851V14.1683C26.3012 14.1683 26.3012 14.1683 26.4181 14.1683H26.535C26.535 14.1683 26.535 14.0515 26.6519 14.0515C26.7688 14.0515 26.7688 14.0515 26.7688 14.0515C26.7688 14.0515 26.7688 13.9347 26.8857 13.9347C26.8857 14.1683 27.2364 14.1683 27.2364 14.2851C27.1195 14.2851 27.0026 14.1683 27.0026 14.2851C26.8857 14.2851 26.7688 14.402 26.7688 14.5188C26.7688 14.6356 26.8857 14.7525 26.8857 14.7525C26.7688 14.7525 26.7688 14.7525 26.6519 14.7525C26.535 14.7525 26.535 14.6356 26.535 14.6356C26.535 14.6356 26.4181 14.6356 26.4181 14.7525C26.4181 14.7525 26.3012 14.7525 26.3012 14.8693C26.3012 14.8693 26.3012 14.8693 26.4181 14.8693C26.4181 14.8693 26.4181 14.9861 26.535 14.8693C26.535 14.8693 26.535 14.8693 26.6519 14.8693C26.6519 14.8693 26.6519 14.7525 26.7688 14.8693H26.8857C26.8857 14.8693 26.8857 14.8693 26.8857 14.7525C26.8857 14.6356 26.8857 14.6356 26.7688 14.6356C26.7688 14.5188 26.8857 14.402 27.0026 14.5188C27.0026 14.6356 27.1195 14.7525 27.3533 14.8693C27.4702 14.8693 27.4702 14.7525 27.5871 14.7525V14.8693H27.4702C27.4702 14.8693 27.3533 14.8693 27.3533 14.9861C27.3533 14.9861 27.3533 14.9861 27.4702 14.9861C27.4702 14.9861 27.5871 15.103 27.5871 14.9861C27.5871 14.9861 27.4702 15.103 27.5871 15.103V15.2198C27.5871 15.2198 27.5871 15.2198 27.704 15.2198C27.704 15.103 27.704 15.103 27.704 15.103C28.2884 14.9861 28.4053 14.9861 28.4053 14.8693Z" fill="white"/>
<path d="M24.7816 16.9723C24.6647 16.9723 24.5478 16.9723 24.5478 17.0891C24.5478 17.206 24.5478 17.206 24.6647 17.206C24.6647 17.3228 24.6647 17.5565 24.5478 17.7901L23.9633 16.9723C24.314 16.8555 24.5478 16.7386 24.6647 16.7386C24.7816 16.7386 24.7816 16.8555 24.7816 16.9723ZM24.5478 18.4911L23.6126 17.0891C23.7295 17.0891 23.8464 17.0891 23.9633 16.9723L24.5478 18.0238C24.5478 18.1406 24.5478 18.3743 24.5478 18.4911ZM24.4309 19.0753L23.0281 17.206H23.145C23.2619 17.206 23.2619 17.206 23.3788 17.206L24.4309 18.7248C24.4309 18.8416 24.4309 18.9584 24.4309 19.0753ZM22.9113 17.206L24.314 19.3089C23.6126 18.9584 22.7944 18.2574 22.9113 17.206ZM25.0154 16.9723C25.0154 16.6218 24.7816 16.505 24.5478 16.505C24.4309 16.505 23.9633 16.8555 23.3788 16.8555C23.145 16.8555 22.7944 16.7386 22.6775 16.6218L22.5606 16.7386C22.5606 16.6218 22.4437 16.6218 22.4437 16.6218C22.3268 16.6218 22.3268 16.7386 22.3268 16.7386C22.3268 16.8555 22.4437 16.8555 22.4437 16.8555H22.5606L22.4437 17.0891C22.4437 17.0891 22.4437 17.0891 22.5606 17.0891C22.4437 18.0238 23.145 19.1921 24.314 19.5426C24.5478 19.5426 24.6647 19.5426 24.6647 19.6594C24.6647 19.7763 24.5478 19.7763 24.5478 19.7763C24.4309 19.7763 24.4309 19.7763 24.4309 19.6594C24.4309 19.5426 24.5478 19.6594 24.5478 19.5426C24.5478 19.4258 24.5478 19.4258 24.4309 19.4258C24.314 19.4258 24.1971 19.4258 24.1971 19.6594C24.1971 19.7763 24.314 19.8931 24.4309 19.8931C24.5478 19.8931 24.8985 19.7763 24.7816 19.5426C24.8985 19.5426 24.8985 19.5426 24.8985 19.4258V19.1921H24.7816V17.0891C24.8985 17.0891 24.8985 17.0891 24.8985 16.9723C25.2491 17.0891 25.1322 16.9723 25.0154 16.9723Z" fill="white"/>
<path d="M23.9633 12.5327C24.0802 12.5327 24.0802 12.5327 23.9633 12.5327C24.0802 12.4158 24.0802 12.5327 23.9633 12.5327C23.9633 12.4158 23.9633 12.4158 23.9633 12.4158H24.0802C24.0802 12.5327 24.0802 12.5327 23.9633 12.5327C24.0802 12.5327 24.0802 12.5327 23.9633 12.5327C24.0802 12.6495 24.0802 12.5327 23.9633 12.5327C24.0802 12.6495 24.0802 12.6495 23.9633 12.5327C23.9633 12.6495 23.9633 12.6495 23.9633 12.5327ZM24.7815 12.7663C25.0153 12.7663 25.2491 12.6495 25.2491 12.5327C25.2491 12.1822 24.4309 12.4158 24.4309 12.1822V12.0653C24.7815 12.0653 24.7815 11.7148 25.1322 11.7148C24.7815 11.7148 24.7815 11.9485 24.5477 11.9485C24.6646 11.9485 24.6646 11.8317 24.6646 11.8317C24.6646 11.9485 24.5477 12.0653 24.4309 12.0653L24.314 12.1822C24.314 12.5327 25.1322 12.299 25.1322 12.5327C25.1322 12.6495 25.0153 12.7663 24.7815 12.7663C24.6646 12.7663 24.5477 12.6495 24.1971 12.6495C24.1971 12.6495 24.314 12.5327 24.314 12.4158C24.314 12.4158 24.314 12.4158 24.314 12.299C24.314 12.299 24.314 12.299 24.1971 12.299C24.1971 12.299 24.1971 12.299 24.0802 12.299C24.0802 12.299 24.0802 12.299 23.9633 12.299C23.9633 12.299 23.9633 12.299 23.9633 12.4158L23.8464 12.5327C23.8464 12.5327 23.8464 12.6495 23.7295 12.6495C23.7295 12.7663 23.7295 12.7663 23.7295 12.8832C23.7295 12.8832 23.7295 12.8832 23.6126 12.8832C23.6126 12.8832 23.6126 12.8832 23.6126 12.7663V12.6495C23.6126 12.6495 23.6126 12.6495 23.4957 12.6495V12.5327C23.4957 12.5327 23.4957 12.5327 23.3788 12.5327H23.2619C23.2619 12.5327 23.2619 12.5327 23.2619 12.6495V12.7663C23.2619 12.8832 23.145 12.7663 23.145 12.7663C23.0281 12.8832 23.145 12.8832 23.2619 12.8832C23.2619 12.8832 23.2619 12.8832 23.3788 13C23.2619 13 23.2619 13 23.145 13H23.0281C23.0281 13 22.9112 13.1168 22.7943 13H22.6774C22.6774 13 22.6774 13 22.7943 13.1168C22.7943 13.1168 22.7943 13.1168 22.6774 13.1168C22.6774 13.1168 22.5605 13.1168 22.6774 13.2337C22.6774 13.2337 22.6774 13.3505 22.7943 13.2337C22.7943 13.2337 22.6774 13.3505 22.7943 13.3505C22.7943 13.3505 22.7943 13.4673 22.9112 13.4673C22.9112 13.4673 22.9112 13.4673 22.9112 13.3505C22.9112 13.3505 22.9112 13.3505 22.9112 13.2337C22.9112 13.2337 22.9112 13.2337 22.9112 13.1168C22.9112 13.1168 22.9112 13.1168 22.9112 13.2337C22.9112 13.2337 22.9112 13.2337 23.0281 13.1168C23.0281 13.1168 23.0281 13.1168 23.145 13.1168C23.145 13.1168 23.145 13.1168 23.145 13.2337C23.145 13.1168 23.2619 13.1168 23.2619 13.1168C23.2619 13.1168 23.3788 13.1168 23.3788 13H23.4957C23.6126 13 23.6126 12.8832 23.6126 12.8832C23.7295 12.8832 23.4957 12.7663 23.8464 12.7663H23.9633V12.8832H24.0802C24.0802 12.8832 24.0802 12.8832 23.9633 12.8832C23.8464 12.8832 23.8464 12.7663 23.8464 12.7663C23.8464 12.7663 23.7295 12.7663 23.7295 12.8832C23.7295 12.8832 23.6126 12.8832 23.6126 13C23.6126 13 23.6126 13 23.7295 13C23.7295 13 23.7295 13.1168 23.8464 13V12.8832H23.9633V12.7663C23.9633 12.7663 23.9633 12.7663 23.9633 12.6495H24.0802H24.1971C24.1971 12.7663 24.1971 12.7663 24.1971 12.7663C24.1971 12.7663 24.1971 12.7663 24.0802 12.7663C24.0802 12.7663 23.9633 12.7663 24.0802 12.8832C24.0802 12.8832 24.0802 12.8832 24.1971 12.8832C24.1971 12.8832 24.0802 12.8832 24.1971 13C24.1971 13 24.1971 13 24.1971 12.8832V13C24.1971 13 24.1971 13 24.314 13C24.314 12.8832 24.314 12.8832 24.314 12.8832C24.314 12.8832 24.314 12.8832 24.314 12.7663C24.314 12.7663 24.314 12.7663 24.314 12.6495H24.1971C25.0153 12.8832 24.8984 12.7663 24.7815 12.7663Z" fill="white"/>
<path d="M23.2622 13.8178C23.3791 13.8178 23.3791 13.8178 23.2622 13.8178C23.3791 13.701 23.3791 13.701 23.2622 13.8178C23.3791 13.701 23.3791 13.701 23.3791 13.701H23.496C23.3791 13.701 23.3791 13.701 23.2622 13.8178C23.3791 13.9347 23.3791 13.8178 23.2622 13.8178ZM23.496 13.5842C23.496 13.701 23.496 13.701 23.496 13.5842V13.5842ZM25.2494 13.8178C25.2494 13.701 25.1325 13.701 24.8987 13.701C24.6649 13.701 23.9636 13.8178 23.9636 13.701C23.9636 13.5842 24.0805 13.5842 24.1974 13.5842C24.1974 13.5842 24.1974 13.5842 24.3143 13.5842C24.6649 13.701 25.1325 13.4673 25.3663 13.5842C25.1325 13.3505 24.8987 13.5842 24.6649 13.5842C24.7818 13.5842 24.8987 13.5842 24.8987 13.4673C24.7818 13.5842 24.548 13.4673 24.4311 13.4673C24.1974 13.4673 24.0805 13.4673 24.0805 13.5842C24.0805 13.8178 24.7818 13.701 25.0156 13.701C25.0156 13.8178 25.1325 13.8178 25.2494 13.8178C25.1325 13.8178 24.8987 13.9347 24.7818 13.9347C24.548 13.9347 23.9636 13.8178 23.6129 13.9347C23.6129 13.8178 23.7298 13.8178 23.7298 13.701C23.7298 13.701 23.7298 13.701 23.7298 13.5842C23.7298 13.5842 23.7298 13.5842 23.6129 13.5842C23.6129 13.5842 23.6129 13.5842 23.496 13.5842H23.3791C23.3791 13.5842 23.3791 13.5842 23.2622 13.5842C23.2622 13.5842 23.2622 13.5842 23.2622 13.701L23.1453 13.8178C23.1453 13.8178 23.1453 13.9347 23.0284 13.9347V14.0515H22.9115L22.7946 13.9347V13.8178V13.701C22.7946 13.701 22.7946 13.701 22.6777 13.701V13.5842C22.6777 13.5842 22.6777 13.4673 22.5608 13.5842C22.5608 13.5842 22.5608 13.5842 22.5608 13.701V13.8178C22.5608 13.9347 22.4439 13.9347 22.4439 13.8178C22.327 13.9347 22.4439 13.9347 22.5608 13.9347C22.5608 13.9347 22.5608 14.0515 22.6777 14.0515C22.6777 14.0515 22.7946 14.1683 22.7946 14.0515V14.1683C22.7946 14.1683 22.6777 14.1683 22.5608 14.1683C22.5608 14.1683 22.327 14.2852 22.327 14.1683C22.327 14.1683 22.327 14.1683 22.327 14.0515H22.2102C22.2102 14.0515 22.2102 14.0515 22.327 14.1683C22.327 14.1683 22.3271 14.0515 22.2102 14.1683C22.2102 14.1683 22.0933 14.1683 22.0933 14.2852C22.0933 14.2852 22.0933 14.402 22.2102 14.2852C22.2102 14.2852 22.0933 14.402 22.2102 14.402C22.2102 14.402 22.2102 14.5188 22.327 14.5188C22.327 14.5188 22.327 14.5188 22.327 14.402V14.2852C22.327 14.2852 22.327 14.402 22.4439 14.402C22.4439 14.402 22.5608 14.402 22.5608 14.2852C22.5608 14.2852 22.5608 14.2852 22.5608 14.402C22.5608 14.402 22.6777 14.402 22.6777 14.2852C22.6777 14.2852 22.6777 14.2852 22.7946 14.2852C22.7946 14.2852 22.7946 14.2852 22.7946 14.402C22.7946 14.2852 22.9115 14.2852 22.9115 14.2852C23.0284 14.2852 23.1453 14.1683 23.1453 14.1683H23.2622C23.496 14.1683 23.3791 13.9347 23.7298 14.0515H23.8467V14.1683C23.7298 14.1683 23.7298 14.0515 23.7298 14.0515C23.7298 14.0515 23.6129 14.0515 23.6129 14.1683C23.6129 14.1683 23.496 14.1683 23.496 14.2852C23.496 14.2852 23.496 14.2852 23.6129 14.2852C23.6129 14.2852 23.6129 14.402 23.7298 14.2852C23.7298 14.2852 23.7298 14.2852 23.8467 14.2852C23.9636 14.2852 23.8467 14.1683 23.8467 14.1683H23.9636V14.0515C23.9636 14.0515 23.9636 14.0515 23.9636 13.9347H24.0805C24.1974 13.9347 24.1974 13.9347 24.3143 13.9347C24.4311 13.9347 24.4311 13.9347 24.4311 13.9347C24.4311 14.0515 24.4311 14.0515 24.4311 14.0515H24.3143C24.3143 14.0515 24.1974 14.0515 24.1974 14.1683C24.1974 14.1683 24.1974 14.2852 24.3143 14.1683C24.3143 14.1683 24.1974 14.2852 24.3143 14.2852C24.3143 14.2852 24.3143 14.2852 24.3143 14.402C24.3143 14.402 24.3143 14.402 24.3143 14.2852V14.402C24.3143 14.402 24.3143 14.402 24.4311 14.402C24.4311 14.2852 24.4311 14.2852 24.4311 14.2852C24.4311 14.2852 24.548 14.2852 24.548 14.1683C24.548 14.1683 24.548 14.1683 24.548 14.0515C24.548 14.0515 24.548 14.0515 24.548 13.9347H24.4311C24.3143 13.9347 24.3143 13.9347 24.0805 13.9347C24.8987 14.0515 25.2494 13.9347 25.2494 13.8178Z" fill="white"/>
<path d="M23.0283 14.9862C23.0283 14.8693 23.1452 14.8693 23.0283 14.8693H23.1452C23.1452 14.9862 23.0283 14.9862 23.0283 14.9862C23.0283 15.103 23.0283 15.103 23.0283 14.9862C23.0283 15.103 22.9114 15.103 23.0283 14.9862ZM25.1324 15.103C25.1324 14.9862 25.0155 14.9862 24.7817 14.9862C24.5479 14.9862 23.7297 15.103 23.7297 14.9862C23.7297 14.8693 23.9635 14.9862 24.1973 14.9862C24.1973 14.9862 24.1973 14.9862 24.3142 14.9862C24.6648 15.103 25.0155 14.8693 25.2493 14.9862C25.0155 14.7525 24.7817 14.9862 24.5479 14.9862C24.6648 14.9862 24.8986 14.9862 24.8986 14.8693C24.7817 14.9862 24.431 14.8693 24.3142 14.8693C24.0804 14.8693 23.7297 14.8693 23.7297 14.9862C23.7297 15.2198 24.6648 15.103 24.8986 15.103C24.8986 14.9862 25.0155 14.9862 25.1324 15.103C25.0155 15.103 24.7817 15.2198 24.6648 15.2198C24.431 15.2198 23.6128 15.103 23.2621 15.2198C23.2621 15.103 23.379 15.103 23.379 14.9862C23.379 14.9862 23.379 14.9862 23.379 14.8693C23.379 14.8693 23.379 14.8693 23.2621 14.8693C23.2621 14.8693 23.2621 14.8693 23.1452 14.8693H23.0283C23.0283 14.8693 23.0283 14.8693 22.9114 14.8693C22.9114 14.8693 22.9114 14.8693 22.9114 14.9862L22.7945 15.103C22.7945 15.103 22.7945 15.2198 22.6776 15.2198C22.6776 15.2198 22.6776 15.2198 22.6776 15.3367L22.5607 15.2198C22.5607 15.2198 22.5607 15.2198 22.5607 15.103V14.9862C22.5607 14.9862 22.5607 14.9862 22.4438 14.9862V14.8693C22.4438 14.8693 22.4438 14.7525 22.327 14.8693C22.327 14.8693 22.327 14.8693 22.327 14.9862V15.103C22.327 15.2198 22.2101 15.2198 22.2101 15.103C22.2101 15.2198 22.2101 15.2198 22.327 15.2198L22.4438 15.3367C22.4438 15.3367 22.4438 15.3367 22.5607 15.3367V15.4535H22.327C22.327 15.4535 22.2101 15.5703 22.0932 15.4535C22.0932 15.4535 22.0932 15.4535 22.0932 15.3367H21.9763C21.9763 15.3367 21.9763 15.3367 22.0932 15.4535C22.0932 15.4535 22.0932 15.4535 21.9763 15.4535C21.9763 15.4535 21.8594 15.4535 21.8594 15.5703C21.8594 15.5703 21.8594 15.6872 21.9763 15.5703C21.9763 15.5703 21.8594 15.6872 21.9763 15.6872C21.9763 15.6872 21.9763 15.804 22.0932 15.804C22.0932 15.804 22.0932 15.804 22.0932 15.6872V15.5703C22.0932 15.5703 22.2101 15.5703 22.2101 15.4535C22.2101 15.4535 22.2101 15.4535 22.2101 15.5703C22.2101 15.5703 22.327 15.5703 22.327 15.4535C22.327 15.4535 22.327 15.4535 22.4438 15.4535C22.4438 15.4535 22.4438 15.4535 22.4438 15.5703C22.4438 15.4535 22.5607 15.5703 22.6776 15.4535H22.7945H22.9114C23.0283 15.4535 23.0283 15.4535 23.0283 15.4535C23.4959 15.4535 23.2621 15.2198 23.7297 15.3367V15.4535C23.6128 15.4535 23.6128 15.3367 23.6128 15.3367C23.6128 15.3367 23.4959 15.3367 23.4959 15.4535C23.4959 15.4535 23.379 15.4535 23.379 15.5703C23.379 15.5703 23.379 15.5703 23.4959 15.5703C23.4959 15.5703 23.4959 15.6872 23.6128 15.5703C23.6128 15.5703 23.6128 15.5703 23.7297 15.5703V15.4535H23.8466V15.3367C23.8466 15.3367 23.8466 15.3367 23.8466 15.2198H23.9635C24.0804 15.2198 24.0804 15.2198 24.1973 15.2198C24.3142 15.2198 24.3142 15.2198 24.3142 15.2198C24.3142 15.3367 24.3142 15.3367 24.3142 15.3367H24.1973C24.1973 15.3367 24.0804 15.3367 24.0804 15.4535C24.0804 15.4535 24.0804 15.5703 24.1973 15.4535C24.1973 15.4535 24.0804 15.5703 24.1973 15.5703C24.1973 15.5703 24.1973 15.5703 24.1973 15.4535V15.5703C24.1973 15.5703 24.1973 15.5703 24.3142 15.5703C24.3142 15.4535 24.3142 15.4535 24.3142 15.4535C24.3142 15.4535 24.431 15.4535 24.431 15.3367C24.431 15.3367 24.431 15.3367 24.431 15.2198C24.431 15.2198 24.431 15.2198 24.431 15.103H24.3142C24.1973 15.103 24.1973 15.103 24.0804 15.103C24.7817 15.2198 25.1324 15.2198 25.1324 15.103Z" fill="white"/>
<path d="M26.7688 16.8555C26.7688 16.7386 26.7688 16.7386 26.7688 16.8555C26.7688 16.7386 26.8857 16.7386 26.7688 16.7386H26.8857C26.8857 16.7386 26.8857 16.7386 26.7688 16.8555C26.8857 16.7386 26.8857 16.7386 26.7688 16.8555ZM26.8857 16.6218C26.7688 16.6218 26.7688 16.6218 26.8857 16.6218V16.6218ZM28.8729 17.0891C28.6391 16.9723 28.6391 16.9723 28.4053 16.9723C28.5222 16.9723 28.8729 16.9723 28.8729 16.8555C28.8729 16.7386 28.756 16.7386 28.5222 16.7386C28.2884 16.7386 27.4701 16.8555 27.4701 16.7386C27.4701 16.6218 27.7039 16.7386 27.9377 16.7386C27.9377 16.7386 27.9377 16.7386 28.0546 16.7386C28.4053 16.8555 28.756 16.6218 28.9898 16.6218C28.756 16.505 28.5222 16.7386 28.2884 16.6218C28.4053 16.6218 28.6391 16.6218 28.6391 16.505C28.5222 16.6218 28.1715 16.505 28.0546 16.505C27.8208 16.505 27.4701 16.505 27.4701 16.6218C27.4701 16.8555 28.4053 16.7386 28.6391 16.7386C28.8729 16.7386 28.8729 16.7386 28.8729 16.8555C28.8729 16.9723 28.6391 16.9723 28.5222 16.9723C28.2884 16.9723 27.4701 16.8555 27.1195 16.9723C27.1195 16.8555 27.2363 16.8555 27.2363 16.7386C27.2363 16.7386 27.2363 16.7386 27.2363 16.6218C27.2363 16.6218 27.2363 16.6218 27.1195 16.6218C27.1195 16.6218 27.1195 16.6218 27.0026 16.6218H26.8857C26.8857 16.6218 26.8857 16.6218 26.7688 16.6218C26.7688 16.6218 26.7688 16.6218 26.7688 16.7386L26.6519 16.8555C26.6519 16.8555 26.6519 16.9723 26.535 16.9723C26.535 16.9723 26.535 16.9723 26.535 17.0891L26.4181 16.9723C26.4181 16.9723 26.4181 16.9723 26.4181 16.8555V16.7386C26.4181 16.7386 26.4181 16.7386 26.3012 16.7386V16.6218C26.3012 16.6218 26.3012 16.505 26.1843 16.6218C26.1843 16.6218 26.1843 16.6218 26.1843 16.7386V16.8555C26.1843 16.9723 26.0674 16.9723 26.0674 16.8555C26.0674 16.9723 26.0674 16.9723 26.1843 16.9723L26.3012 17.0891C26.3012 17.0891 26.3012 17.0891 26.4181 17.0891V17.206H26.3012C26.3012 17.206 26.1843 17.3228 26.0674 17.206C26.0674 17.206 26.0674 17.206 26.0674 17.0891H25.9505C25.9505 17.0891 25.9505 17.0891 26.0674 17.206C26.0674 17.206 26.0674 17.206 25.9505 17.206C25.9505 17.206 25.8336 17.206 25.8336 17.3228C25.8336 17.3228 25.8336 17.4396 25.9505 17.3228C25.9505 17.3228 25.8336 17.4396 25.9505 17.4396C25.9505 17.4396 25.9505 17.5565 26.0674 17.5565C26.0674 17.5565 26.0674 17.5565 26.0674 17.4396V17.3228C26.0674 17.3228 26.1843 17.3228 26.1843 17.206C26.1843 17.206 26.1843 17.206 26.1843 17.3228C26.1843 17.3228 26.3012 17.3228 26.3012 17.206C26.3012 17.206 26.3012 17.206 26.4181 17.206C26.4181 17.206 26.4181 17.206 26.4181 17.3228C26.4181 17.206 26.535 17.206 26.535 17.206C26.535 17.206 26.6519 17.206 26.6519 17.0891C26.6519 17.0891 26.6519 17.0891 26.7688 17.0891C26.8857 17.0891 26.8857 17.0891 26.8857 17.0891C27.3532 17.206 27.1195 16.8555 27.587 16.9723V17.0891C27.4701 17.0891 27.4701 16.9723 27.4701 16.9723C27.4701 16.9723 27.3532 16.9723 27.3532 17.0891C27.3532 17.0891 27.2363 17.0891 27.2363 17.206C27.2363 17.206 27.2363 17.206 27.3532 17.206C27.3532 17.206 27.3532 17.3228 27.4701 17.206C27.4701 17.206 27.4701 17.206 27.587 17.206V17.0891H27.7039V16.9723C27.7039 16.9723 27.7039 16.9723 27.7039 16.8555H27.8208C27.9377 16.8555 27.9377 16.8555 28.0546 16.8555C28.1715 16.8555 28.1715 16.8555 28.1715 16.8555C28.1715 16.9723 28.1715 16.9723 28.1715 16.9723H28.0546C28.0546 16.9723 27.9377 16.9723 27.9377 17.0891C27.9377 17.0891 27.9377 17.0891 28.0546 17.0891C28.0546 17.0891 27.9377 17.206 28.0546 17.206C28.0546 17.206 28.0546 17.206 28.0546 17.0891V17.206C28.0546 17.206 28.0546 17.206 28.1715 17.206C28.1715 17.0891 28.1715 17.0891 28.1715 17.0891C28.1715 17.0891 28.2884 17.0891 28.2884 16.9723C28.8729 17.206 28.8729 17.206 28.8729 17.0891Z" fill="white"/>
<path d="M27.0026 17.9069C26.8857 17.7901 26.8857 17.9069 27.0026 17.9069C26.8857 17.7901 27.0026 17.7901 27.0026 17.9069ZM26.8857 17.9069C26.7688 17.9069 26.7688 17.9069 26.8857 17.9069C26.8857 18.0238 26.8857 18.0238 26.8857 17.9069C26.7688 18.0238 26.7688 18.0238 26.7688 18.0238C26.7688 18.0238 26.7688 18.0238 26.7688 17.9069C26.7688 17.9069 26.7688 17.9069 26.8857 17.9069C26.7688 17.7901 26.7688 17.9069 26.7688 17.7901C26.7688 17.7901 26.7688 17.7901 26.8857 17.9069C26.7688 17.7901 26.7688 17.7901 26.8857 17.9069ZM26.8857 17.7901C26.7688 17.7901 26.7688 17.7901 26.8857 17.7901V17.7901ZM27.7039 17.7901C28.0546 17.9069 28.4053 17.6733 28.6391 17.7901C28.4053 17.6733 28.1715 17.9069 27.9377 17.7901C28.0546 17.7901 28.2884 17.7901 28.2884 17.6733C28.1715 17.7901 27.8208 17.6733 27.7039 17.7901C27.7039 17.6733 27.7039 17.6733 27.7039 17.7901C27.587 17.6733 27.3532 17.6733 27.3532 17.7901C27.3532 18.0238 28.0546 17.9069 28.2884 17.9069C28.5222 17.9069 28.5222 17.9069 28.5222 18.0238C28.5222 18.1406 28.2884 18.1406 28.1715 18.1406C27.9377 18.1406 27.4701 18.0238 27.1195 18.1406C27.1195 18.1406 27.2363 18.0238 27.1195 18.0238C27.1195 18.0238 27.1195 18.0238 27.1195 17.9069C27.1195 17.9069 27.1195 17.9069 27.0026 17.9069C27.0026 17.9069 27.0026 17.9069 26.8857 17.9069H26.7688C26.7688 17.9069 26.7688 17.9069 26.7688 18.0238L26.6519 18.1406C26.6519 18.1406 26.6519 18.2574 26.535 18.2574V18.3743H26.4181C26.4181 18.3743 26.4181 18.3743 26.4181 18.2574V18.1406C26.4181 18.1406 26.4181 18.1406 26.3012 18.1406V18.0238C26.3012 18.0238 26.3012 17.9069 26.1843 18.0238C26.1843 18.0238 26.1843 18.0238 26.3012 18.0238H26.1843C26.1843 18.0238 26.1843 18.0238 26.1843 18.1406V18.2574C26.1843 18.3743 26.0674 18.2574 26.0674 18.2574C26.0674 18.3743 26.0674 18.3743 26.1843 18.3743C26.1843 18.3743 26.1843 18.3743 26.3012 18.3743H26.4181V18.4911H26.3012C26.3012 18.4911 26.1843 18.6079 26.0674 18.4911H25.9505C25.9505 18.4911 25.9505 18.4911 26.0674 18.6079C26.0674 18.6079 26.0674 18.6079 25.9505 18.6079C25.9505 18.6079 25.8336 18.6079 25.9505 18.7248C25.9505 18.7248 25.9505 18.8416 26.0674 18.7248C26.0674 18.7248 25.9505 18.8416 26.0674 18.8416C26.0674 18.8416 26.0674 18.9584 26.1843 18.9584C26.1843 18.9584 26.1843 18.9584 26.1843 18.8416V18.7248C26.1843 18.7248 26.3012 18.7248 26.1843 18.6079C26.1843 18.6079 26.1843 18.6079 26.1843 18.7248C26.1843 18.7248 26.3012 18.7248 26.3012 18.6079C26.3012 18.6079 26.3012 18.6079 26.4181 18.6079C26.4181 18.6079 26.4181 18.6079 26.4181 18.7248C26.4181 18.6079 26.535 18.6079 26.535 18.6079C26.6519 18.6079 26.6519 18.6079 26.7688 18.4911C26.8857 18.4911 26.8857 18.4911 26.8857 18.4911C27.1195 18.4911 26.8857 18.2574 27.2363 18.3743H27.3532V18.4911C27.2363 18.4911 27.2363 18.3743 27.2363 18.3743C27.2363 18.3743 27.1195 18.3743 27.1195 18.4911C27.1195 18.4911 27.0026 18.4911 27.0026 18.6079C27.0026 18.6079 27.0026 18.6079 27.1195 18.6079C27.1195 18.6079 27.1195 18.7248 27.2363 18.6079C27.2363 18.6079 27.2363 18.6079 27.3532 18.6079V18.4911H27.4701V18.3743C27.4701 18.3743 27.4701 18.3743 27.4701 18.2574H27.587C27.7039 18.2574 27.7039 18.2574 27.8208 18.2574C27.9377 18.2574 27.9377 18.2574 27.9377 18.2574C27.9377 18.3743 27.9377 18.3743 27.9377 18.3743H27.8208C27.8208 18.3743 27.7039 18.3743 27.7039 18.4911C27.7039 18.4911 27.7039 18.4911 27.8208 18.4911C27.8208 18.4911 27.8208 18.4911 27.9377 18.4911C27.9377 18.4911 27.8208 18.4911 27.9377 18.6079C27.9377 18.6079 27.9377 18.6079 28.0546 18.4911V18.6079C28.0546 18.6079 28.0546 18.6079 28.1715 18.6079C28.1715 18.4911 28.1715 18.4911 28.1715 18.4911C28.1715 18.4911 28.2884 18.4911 28.2884 18.3743C28.2884 18.3743 28.2884 18.3743 28.2884 18.2574C28.2884 18.2574 28.2884 18.2574 28.2884 18.1406H28.1715C28.0546 18.1406 27.9377 18.1406 27.8208 18.1406C27.9377 18.1406 28.2884 18.1406 28.2884 18.0238C28.2884 17.9069 28.2884 17.9069 28.0546 17.9069C27.8208 17.9069 27.2363 18.0238 27.2363 17.9069C27.4701 17.7901 27.587 17.7901 27.7039 17.7901Z" fill="white"/>
<path d="M26.652 19.1921C26.652 19.0752 26.652 19.0752 26.652 19.1921C26.652 19.0752 26.652 19.0752 26.652 19.0752H26.7689C26.7689 19.0752 26.7689 19.0752 26.652 19.1921C26.7689 19.0752 26.7689 19.0752 26.652 19.1921C26.7689 19.0752 26.652 19.0752 26.652 19.1921C26.7689 19.1921 26.7689 19.1921 26.652 19.1921ZM26.7689 18.9584C26.652 18.9584 26.652 18.9584 26.7689 18.9584V18.9584ZM26.7689 18.9584C26.8858 19.0752 26.8858 19.0752 26.7689 18.9584V18.9584ZM27.3533 18.9584C27.4702 18.9584 27.4702 18.9584 27.3533 18.9584C27.704 19.0752 28.0547 18.8416 28.2885 18.9584C28.0547 18.8416 27.8209 19.0752 27.5871 18.9584C27.704 18.9584 27.9378 18.9584 27.9378 18.8416C27.9378 18.9584 27.5871 18.8416 27.3533 18.9584C27.4702 18.8416 27.4702 18.8416 27.3533 18.9584C27.2364 18.9584 27.1196 18.9584 27.1196 19.0752C27.1196 19.3089 27.9378 19.0752 27.9378 19.1921C27.9378 19.1921 27.8209 19.3089 27.5871 19.3089C27.4702 19.3089 27.1196 19.1921 26.7689 19.3089C26.7689 19.1921 26.8858 19.1921 26.8858 19.0752C26.8858 19.0752 26.8858 19.0752 26.8858 18.9584C26.8858 18.9584 26.8858 18.9584 26.7689 18.9584C26.7689 18.9584 26.7689 18.9584 26.652 18.9584C26.652 18.9584 26.652 18.9584 26.652 19.0752C26.652 19.0752 26.652 19.1921 26.5351 19.1921C26.5351 19.1921 26.5351 19.3089 26.4182 19.3089C26.4182 19.4257 26.4182 19.4257 26.4182 19.5426C26.4182 19.5426 26.3013 19.4257 26.1844 19.3089C26.1844 19.3089 26.1844 19.3089 26.1844 19.1921V19.0752C26.1844 19.0752 26.1844 19.0752 26.0675 19.0752V18.9584C26.0675 18.9584 26.0675 18.9584 25.9506 18.9584H25.8337C25.8337 18.9584 25.8337 18.9584 25.8337 19.0752V19.1921C25.8337 19.3089 25.7168 19.1921 25.7168 19.1921C25.7168 19.3089 25.7168 19.3089 25.8337 19.3089C25.8337 19.3089 25.8337 19.4257 25.9506 19.4257L26.0675 19.5426V19.6594H25.9506H25.8337H25.7168C25.7168 19.6594 25.7168 19.6594 25.5999 19.6594C25.5999 19.6594 25.5999 19.6594 25.7168 19.7762C25.7168 19.7762 25.7168 19.7762 25.5999 19.7762C25.5999 19.7762 25.483 19.7762 25.5999 19.8931C25.5999 19.8931 25.5999 20.0099 25.7168 19.8931C25.7168 19.8931 25.5999 20.0099 25.7168 20.0099C25.7168 20.0099 25.7168 20.1267 25.8337 20.1267C25.8337 20.1267 25.8337 20.1267 25.8337 20.0099C25.8337 20.0099 25.8337 20.0099 25.8337 19.8931C25.8337 19.8931 25.9506 19.8931 25.8337 19.7762C25.8337 19.7762 25.8337 19.7762 25.8337 19.8931C25.8337 19.8931 25.8337 19.8931 25.9506 19.7762C25.9506 19.7762 25.9506 19.7762 26.0675 19.7762C26.0675 19.7762 26.0675 19.7762 26.0675 19.8931C26.0675 19.7762 26.1844 19.7762 26.1844 19.7762C26.1844 19.7762 26.3013 19.7762 26.3013 19.6594C26.3013 19.6594 26.3013 19.5426 26.4182 19.4257C26.5351 19.4257 26.5351 19.3089 26.652 19.3089V19.4257L26.7689 19.5426C26.7689 19.5426 26.7689 19.5426 26.652 19.5426C26.5351 19.5426 26.5351 19.4257 26.5351 19.4257C26.5351 19.4257 26.4182 19.4257 26.4182 19.5426C26.4182 19.5426 26.3013 19.5426 26.3013 19.6594C26.3013 19.6594 26.3013 19.6594 26.4182 19.6594C26.4182 19.6594 26.4182 19.7762 26.5351 19.6594C26.5351 19.6594 26.5351 19.6594 26.652 19.6594V19.5426H26.7689V19.4257C26.7689 19.4257 26.7689 19.3089 26.652 19.1921H26.8858C26.8858 19.1921 27.0027 19.1921 27.0027 19.3089C27.0027 19.3089 27.0027 19.3089 26.8858 19.3089H26.7689H26.652C26.652 19.3089 26.652 19.3089 26.652 19.4257C26.652 19.4257 26.652 19.4257 26.7689 19.4257C26.7689 19.4257 26.7689 19.4257 26.7689 19.5426V19.4257C26.7689 19.4257 26.7689 19.4257 26.8858 19.4257C26.8858 19.4257 26.8858 19.4257 26.8858 19.3089C26.8858 19.3089 26.8858 19.3089 27.0027 19.3089C27.0027 19.3089 27.1196 19.3089 27.0027 19.1921L26.8858 19.0752H27.0027C27.2364 19.0752 27.4702 18.9584 27.4702 18.9584C27.4702 18.7248 26.652 18.9584 26.652 18.8416C27.2364 18.9584 27.3533 18.9584 27.3533 18.9584Z" fill="white"/>
<path d="M13.7936 4.35448C13.7936 4.23765 13.6767 4.12082 13.5598 4.12082C13.4429 4.12082 13.326 4.23765 13.326 4.35448C13.326 4.47131 13.4429 4.58815 13.5598 4.58815C13.6767 4.47131 13.7936 4.47131 13.7936 4.35448Z" fill="white"/>
<path d="M13.6768 3.77031C13.6768 3.65348 13.5599 3.53665 13.443 3.53665C13.3261 3.53665 13.2092 3.65348 13.2092 3.77031C13.2092 3.88715 13.3261 4.00398 13.443 4.00398C13.6768 4.00398 13.6768 3.88715 13.6768 3.77031Z" fill="white"/>
<path d="M13.7936 3.53663C13.9105 3.53663 14.0274 3.4198 14.0274 3.30297C14.0274 3.18614 13.9105 3.06931 13.7936 3.06931C13.6767 3.06931 13.5598 3.18614 13.5598 3.30297C13.6767 3.4198 13.6767 3.53663 13.7936 3.53663Z" fill="white"/>
<path d="M14.3781 3.53663C14.495 3.53663 14.6119 3.4198 14.6119 3.30297C14.6119 3.18614 14.495 3.06931 14.3781 3.06931C14.2612 3.06931 14.1443 3.18614 14.1443 3.30297C14.1443 3.4198 14.2612 3.53663 14.3781 3.53663Z" fill="white"/>
<path d="M16.716 3.0693C16.8329 3.18613 16.9498 3.18613 16.9498 3.0693C17.0667 2.95247 17.0667 2.83564 16.9498 2.83564C16.8329 2.71881 16.716 2.71881 16.716 2.83564C16.5991 2.95247 16.5991 3.0693 16.716 3.0693Z" fill="white"/>
<path d="M16.599 2.71884C16.7159 2.60201 16.7159 2.48518 16.599 2.48518C16.4822 2.36834 16.3653 2.36834 16.3653 2.48518C16.2484 2.60201 16.2484 2.71884 16.3653 2.71884C16.4822 2.71884 16.599 2.71884 16.599 2.71884Z" fill="white"/>
<path d="M16.1316 2.60199C16.2485 2.48516 16.2485 2.36832 16.1316 2.36832C16.0147 2.25149 15.8979 2.25149 15.8979 2.36832C15.781 2.48516 15.781 2.60199 15.8979 2.60199C15.8979 2.71882 16.0147 2.71882 16.1316 2.60199Z" fill="white"/>
<path d="M15.6639 2.95248C15.7808 2.83565 15.7808 2.71882 15.6639 2.71882C15.547 2.60199 15.4301 2.60199 15.4301 2.71882C15.3132 2.83565 15.3132 2.95248 15.4301 2.95248C15.4301 2.95248 15.547 2.95248 15.6639 2.95248Z" fill="white"/>
<path d="M14.3782 2.60199L14.4951 2.95249L14.7289 2.71882C14.7289 2.83565 14.7289 3.06932 14.7289 3.18615C14.7289 3.30298 14.8458 3.41981 14.9626 3.41981C15.0795 3.41981 15.1964 3.30298 15.1964 3.18615C15.1964 3.06932 15.1964 2.95249 15.0795 2.95249C15.0795 2.95249 14.9626 2.83565 14.8458 2.71882H15.1964L15.0795 2.36833L14.8458 2.60199V2.2515L14.3782 2.36833L14.612 2.60199H14.3782Z" fill="white"/>
<path d="M16.7159 3.30297C16.8328 3.4198 16.8328 3.53663 16.8328 3.53663C16.7159 3.53663 16.7159 3.4198 16.7159 3.30297V3.88713C16.7159 3.7703 16.8328 3.7703 16.8328 3.7703C16.8328 4.12079 16.7159 4.23762 16.599 4.23762C16.4821 4.23762 16.3652 4.12079 16.3652 4.12079C16.3652 4.00396 16.4821 3.88713 16.599 4.00396C16.599 3.7703 16.3652 3.7703 16.2483 3.88713C16.3652 3.4198 16.2483 3.30297 16.0145 3.06931C15.8976 3.4198 16.0145 3.53663 16.1314 3.7703C16.0145 3.65346 15.7807 3.7703 16.0145 4.00396C16.0145 3.7703 16.2483 3.88713 16.2483 4.00396C16.2483 4.12079 16.1314 4.23762 16.0145 4.35445C15.6638 4.47129 15.5469 4.23762 15.4301 4.12079C15.5469 4.12079 15.6638 4.12079 15.7807 4.23762L15.6638 3.7703C15.6638 3.88713 15.5469 4.00396 15.4301 4.00396C15.4301 3.88713 15.5469 3.65346 15.5469 3.65346L14.9625 3.7703C14.9625 3.7703 15.1963 3.88713 15.3132 4.00396C15.1963 4.00396 15.0794 4.12079 14.9625 4.00396L15.1963 4.47129C15.1963 4.23762 15.3132 4.12079 15.4301 4.12079C15.4301 4.35445 15.43 4.47129 15.1963 4.70495C14.9625 4.82178 14.8456 4.82178 14.7287 4.70495C14.6118 4.58812 14.7287 4.47129 14.8456 4.58812C14.8456 4.35445 14.6118 4.35445 14.4949 4.47129C14.4949 4.23762 14.378 4.00396 14.1442 4.00396C14.0273 4.23762 14.1442 4.47129 14.4949 4.58812C14.378 4.58812 14.1442 4.70495 14.378 4.93861C14.378 4.82178 14.4949 4.70495 14.6118 4.82178C14.6118 4.93861 14.6118 5.05544 14.4949 5.05544C14.378 5.17228 14.2611 5.05544 14.0273 4.93861C14.1442 4.93861 14.1442 4.93861 14.2611 4.93861L14.0273 4.47129C14.0273 4.58812 14.0273 4.70495 14.0273 4.70495C13.9104 4.58812 13.9104 4.58812 13.9104 4.47129L13.6766 4.58812C13.9104 4.70495 14.1442 4.93861 14.4949 5.28911C14.8456 5.05544 15.4301 4.82178 15.7807 4.70495C16.0145 4.58812 16.599 4.47129 16.9497 4.35445C16.8328 3.88713 16.9497 3.53663 16.9497 3.30297H16.7159Z" fill="white"/>
<path d="M17.3005 5.9901C17.0667 6.22377 16.5991 5.9901 16.4822 5.75644C16.8329 5.63961 17.3004 5.40595 17.6511 5.17228C17.4173 5.63961 17.5342 5.75644 17.3005 5.9901ZM17.3005 8.9109C16.9498 9.14456 16.5991 8.79406 16.5991 8.5604C16.4822 8.32674 16.4822 8.20991 16.5991 8.09307C16.716 7.85941 16.716 7.74258 16.5991 7.62575C16.4822 7.39208 16.2484 7.50892 16.0146 7.62575C16.1315 7.39208 16.1315 7.27525 16.0146 7.27525C15.7808 7.27525 15.7808 7.62575 15.6639 7.62575C15.547 7.62575 15.6639 7.39208 15.6639 7.27525C15.6639 7.15842 15.7808 7.04159 15.8977 7.04159L16.9498 6.69109C17.0667 6.69109 17.1836 6.57426 17.3005 6.69109C17.3005 6.57426 17.5342 6.69109 17.4173 6.80793C17.4173 6.92476 17.1836 6.69109 16.9498 6.80793C16.8329 6.92476 16.9498 7.04159 17.1836 7.04159C16.9498 7.15842 16.716 7.27525 16.8329 7.50892C16.8329 7.74258 17.0667 7.85941 17.1836 7.85941C17.3005 7.85941 17.4173 7.97624 17.5342 8.20991C17.6511 8.44357 17.6511 8.79406 17.3005 8.9109ZM15.3132 6.80793C15.0795 6.80793 15.0795 6.57426 14.495 6.45743C14.8457 6.3406 15.3132 6.22377 15.6639 6.10694C15.7808 6.3406 15.6639 6.80793 15.3132 6.80793ZM21.158 16.2713C21.2749 16.0376 20.8073 15.804 20.8073 15.4535C20.8073 15.103 20.8073 14.8693 20.4566 14.402C20.1059 14.0515 18.8201 12.7663 18.4694 12.299C18.5863 12.299 18.8201 12.1822 19.0539 12.4158C19.1708 12.5327 19.4045 12.8832 19.6383 13.1168C19.989 12.299 20.3397 11.7149 20.9242 11.0139C21.0411 10.897 21.158 10.7802 21.158 10.7802C20.9242 10.7802 20.6904 10.897 20.4566 11.0139C20.4566 10.6634 20.4566 10.3129 20.2228 10.196C20.3397 9.72872 20.2228 9.14456 19.0539 8.32674C19.6383 8.44357 19.989 9.02773 20.4566 8.5604C20.1059 8.5604 20.1059 7.74258 18.5863 6.92476C19.1708 6.92476 19.5214 7.74258 20.2228 7.27525C19.6383 7.15842 19.4045 6.10694 18.3525 5.87327C18.7032 5.87327 19.0539 6.10694 19.4045 5.63961C19.0539 5.75644 18.8201 5.40595 18.4694 5.40595C18.5863 4.93862 18.5863 4.70496 18.4694 4.35446C18.2356 4.35446 17.8849 4.47129 17.6511 4.58812C17.6511 4.35446 17.3005 4.35446 17.0667 4.35446C17.0667 4.47129 17.1836 4.58812 17.0667 4.58812C16.8329 4.58812 16.2484 4.82179 15.7808 4.93862C15.3132 5.17228 14.7288 5.52278 14.495 5.63961C14.3781 5.75644 14.3781 5.52278 14.2612 5.52278C14.1443 5.63961 13.9105 5.75644 14.0274 5.9901C13.7936 5.9901 13.4429 6.10694 13.2092 6.3406C13.2092 6.69109 13.4429 6.92476 13.9105 7.15842C13.2092 7.74258 13.7936 8.32674 13.2092 8.9109C14.0274 8.9109 13.9105 7.85941 14.2612 7.62575C14.2612 8.44357 13.7936 8.5604 13.7936 9.37822C13.7936 9.84555 14.0274 10.3129 13.7936 10.6634C14.6119 10.5465 14.3781 9.02773 14.8457 8.5604C14.9626 8.79406 14.8457 9.02773 14.8457 9.37822C14.6119 10.0792 14.8457 11.0139 14.495 11.3644C15.0795 11.2475 15.1964 10.196 15.7808 9.72872C15.3132 10.7802 14.7288 12.8832 14.0274 13.9347C12.8585 15.5703 12.1571 17.4396 10.9882 17.4396C10.5206 17.4396 10.1699 17.0891 10.1699 16.505C10.1699 14.6356 13.326 13.4673 13.326 11.4812C13.326 10.6634 12.6247 10.3129 12.1571 10.3129C11.8064 10.3129 11.4557 10.4297 11.2219 10.6634C11.1051 10.6634 10.9882 10.5465 10.8713 10.5465C9.81922 10.5465 10.053 12.5327 9.11785 12.5327C9.46854 12.8832 10.1699 12.5327 10.5206 11.9485C10.4037 13.2337 8.53338 12.8832 8.65028 14.402C8.88406 13.2337 11.9233 13.3505 11.9233 11.4812C11.8064 11.3644 11.6895 11.1307 11.5726 11.0139C11.8064 10.897 12.0402 10.7802 12.1571 10.7802C12.5078 10.7802 12.8585 11.0139 12.8585 11.598C12.8585 13.2337 9.70232 14.6356 9.70232 16.6218C9.70232 16.9723 9.81922 17.2059 9.93611 17.4396C9.70232 17.5564 9.46854 17.4396 9.35164 17.3228C9.35164 17.7901 10.053 18.1406 10.5206 17.9069C10.6375 17.9069 10.7544 17.9069 10.8713 18.0238C10.7544 18.3743 10.2868 18.4911 10.053 18.3743C10.8713 18.9584 12.1571 18.1406 12.0402 17.5564C12.6247 17.0891 12.9754 16.2713 13.4429 15.6871C13.4429 15.804 13.4429 15.9208 13.326 16.0376C12.9754 16.8554 12.6247 17.5564 12.5078 18.7248C12.3909 19.5426 11.9233 20.3604 11.2219 20.3604C11.1051 20.3604 10.8713 20.1267 10.7544 20.2436C10.5206 20.3604 10.7544 20.5941 10.7544 20.7109C10.7544 20.9446 10.2868 21.1782 10.2868 21.996C10.2868 22.3465 10.5206 22.8139 10.4037 23.0475C10.6375 22.9307 10.8713 22.5802 10.9882 22.2297C11.2219 23.2812 10.5206 23.1644 10.9882 24.099C11.1051 23.7485 11.3388 23.6317 11.5726 23.7485C11.8064 23.9822 11.6895 24.099 11.5726 24.2158C11.4557 24.3327 11.3388 25.0337 11.9233 24.9168C11.8064 24.9168 11.8064 24.6832 12.0402 24.6832C12.5078 24.5663 12.6247 24.8 13.0923 24.8C13.326 24.8 13.4429 24.4495 13.6767 24.4495C13.9105 24.4495 13.9105 24.6832 13.7936 24.8C14.2612 24.5663 14.2612 24.3327 14.2612 24.2158C14.2612 23.9822 14.1443 23.8653 14.2612 23.7485C14.3781 23.6317 14.8457 23.7485 14.6119 24.099C14.8457 24.099 14.9626 23.8653 14.9626 23.6317C14.9626 23.398 14.6119 23.1644 14.3781 23.2812C14.3781 23.1644 14.0274 23.0475 13.9105 23.0475C13.4429 23.0475 13.4429 23.398 13.0923 23.398C12.5078 23.398 12.0402 22.697 12.0402 21.4119C12.0402 20.7109 12.7416 20.5941 13.2092 20.3604C13.6767 20.1267 14.6119 19.6594 15.0795 18.7248C15.547 18.0238 15.547 17.3228 15.4301 16.3881C16.1315 16.7386 16.2484 17.3228 16.2484 17.7901C16.2484 18.3743 16.0146 18.6079 15.7808 18.6079C15.547 18.7248 15.547 18.6079 15.547 18.7248C15.547 18.8416 15.6639 18.9584 15.6639 18.9584C15.8977 19.3089 15.7808 19.5426 15.8977 19.7762C16.0146 20.0099 16.2484 20.4772 16.5991 20.7109C16.5991 20.5941 16.5991 20.2436 16.5991 19.8931C17.1836 20.1267 16.716 21.2951 17.768 21.2951C17.5342 21.1782 17.6511 20.9446 17.768 20.8277C17.8849 20.8277 18.0018 20.9446 18.2356 21.1782C18.4694 21.4119 18.3525 21.4119 18.937 21.4119C19.4045 21.4119 19.1708 21.2951 19.5214 21.2951C19.7552 21.2951 19.7552 21.6455 19.6383 21.8792C19.8721 21.7624 19.989 21.4119 19.8721 21.0614C20.2228 20.8277 20.4566 21.1782 20.5735 21.4119C20.9242 21.0614 20.5735 20.5941 20.2228 20.4772C20.2228 20.3604 20.1059 20.1267 19.989 20.1267C19.8721 20.1267 19.6383 20.1267 19.5214 20.1267C19.2877 20.1267 19.2877 20.3604 19.0539 20.3604C18.3525 20.3604 17.0667 19.1921 17.0667 18.6079C17.0667 18.1406 18.3525 17.7901 18.3525 16.9723C18.3525 15.9208 17.3004 15.5703 16.4822 14.8693C16.716 14.7525 17.5342 14.6356 18.1187 14.8693C18.1187 14.6356 18.3525 14.6356 18.4694 14.1683C18.7032 14.6356 18.4694 14.9861 18.7032 15.2198C18.7032 14.9861 19.0539 14.9861 19.0539 14.402C19.1708 14.7525 18.937 15.2198 19.1708 15.4535C19.1708 15.2198 19.4045 15.103 19.5214 15.103C19.6383 15.103 19.7552 15.2198 19.7552 15.3366C19.7552 15.804 19.2877 15.5703 19.2877 16.0376C19.2877 16.2713 19.5214 16.2713 19.5214 16.3881C19.5214 16.505 19.2877 16.7386 19.0539 16.505C19.1708 16.7386 19.2877 16.8554 19.5214 16.8554C19.7552 16.8554 19.989 16.6218 20.1059 16.3881C20.2228 16.7386 20.1059 16.9723 19.8721 17.0891C20.1059 17.2059 20.6904 17.0891 20.5735 16.3881C20.9242 16.3881 21.0411 16.6218 20.8073 16.9723C21.0411 17.2059 21.2749 17.0891 21.2749 16.7386C21.2749 16.6218 21.0411 16.505 21.158 16.2713Z" fill="white"/>
<path d="M41.3806 21.2951C41.3806 20.9446 41.7313 20.5941 42.082 20.5941C42.4327 20.5941 42.7834 20.9446 42.7834 21.2951C42.7834 21.6456 42.5496 21.9961 42.082 21.9961C41.6144 21.8792 41.3806 21.6456 41.3806 21.2951ZM41.1469 21.2951C41.1469 21.7624 41.4975 22.2297 42.082 22.2297C42.5496 22.2297 43.0172 21.8792 43.0172 21.2951C43.0172 20.8277 42.6665 20.3604 42.082 20.3604C41.4975 20.3604 41.1469 20.8277 41.1469 21.2951Z" fill="white"/>
<path d="M38.2244 22.8139C37.9906 22.8139 37.7568 22.5802 37.8737 22.3465C37.8737 22.2297 37.9906 22.2297 37.9906 22.1129C38.1075 21.996 38.2244 21.996 38.3413 21.996C38.575 21.996 38.6919 22.2297 38.6919 22.3465C38.6919 22.8139 38.4582 22.9307 38.2244 22.8139ZM37.8737 22.1129C37.7568 22.1129 37.6399 22.2297 37.6399 22.4634C37.6399 22.5802 37.6399 22.8139 37.7568 22.9307C37.8737 22.9307 37.9906 23.0475 38.2244 23.0475C38.4582 23.0475 38.575 23.0475 38.6919 22.9307C38.8088 22.8139 38.9257 22.697 38.9257 22.5802C38.9257 22.2297 38.6919 21.996 38.3413 21.8792C38.2244 21.996 37.9906 21.996 37.8737 22.1129Z" fill="white"/>
<path d="M32.9642 10.3129C32.9642 10.1961 33.0811 10.0792 33.198 9.9624C33.3149 9.84557 33.4318 9.84557 33.5486 9.84557C33.5486 9.84557 33.6655 9.84557 33.6655 9.9624C33.6655 10.0792 33.6655 10.0792 33.6655 10.1961C33.6655 10.3129 33.5486 10.4297 33.4318 10.5466C33.3149 10.6634 33.0811 10.6634 32.9642 10.5466C32.9642 10.3129 32.9642 10.3129 32.9642 10.3129ZM32.9642 9.72874C32.7304 9.9624 32.6135 10.3129 32.8473 10.5466C33.0811 10.7802 33.4318 10.7802 33.6655 10.5466C33.7824 10.4297 33.8993 10.3129 33.8993 10.0792C33.8993 9.9624 33.8993 9.84557 33.7824 9.72874C33.7824 9.72874 33.6655 9.61191 33.5486 9.61191C33.3149 9.61191 33.198 9.61191 32.9642 9.72874Z" fill="white"/>
<path d="M37.1726 21.6456C37.0557 21.6456 37.0557 21.6456 36.9388 21.5287C36.8219 21.4119 36.8219 21.2951 36.8219 21.1782C36.8219 21.0614 36.8219 20.9446 36.9388 20.8277C36.9388 20.8277 37.0557 20.7109 37.1726 20.7109C37.4064 20.7109 37.5233 20.9446 37.5233 21.1782C37.5233 21.2951 37.5233 21.4119 37.4064 21.5287C37.2895 21.5287 37.2895 21.6456 37.1726 21.6456ZM36.8219 20.5941C36.705 20.7109 36.5881 20.9446 36.5881 21.1782C36.5881 21.4119 36.705 21.5287 36.8219 21.6456C36.9388 21.7624 37.0557 21.8792 37.1726 21.8792C37.2895 21.8792 37.4064 21.8792 37.5233 21.7624C37.6402 21.6456 37.7571 21.4119 37.7571 21.1782C37.7571 20.9446 37.7571 20.8277 37.6402 20.7109C37.5233 20.5941 37.2895 20.4772 37.1726 20.4772C37.0557 20.4772 36.9388 20.4772 36.8219 20.5941Z" fill="white"/>
<path d="M32.7306 14.402C32.4968 14.2852 32.3799 14.0515 32.3799 13.8178C32.3799 13.701 32.4968 13.701 32.4968 13.701C32.6137 13.701 32.7306 13.701 32.8475 13.701C32.9644 13.8178 33.0813 13.8178 33.0813 13.9347C33.0813 13.9347 33.0813 14.0515 33.0813 14.1683C33.0813 14.2852 32.9644 14.2852 32.9644 14.2852C32.9644 14.402 32.8475 14.402 32.7306 14.402ZM32.4968 13.4673C32.3799 13.4673 32.263 13.5842 32.1461 13.701C32.0292 13.9347 32.1461 14.2852 32.4968 14.5188C32.7306 14.6357 32.8475 14.6357 33.0813 14.5188C33.1982 14.5188 33.3151 14.402 33.432 14.2852C33.432 14.1683 33.5489 14.0515 33.432 13.9347C33.432 13.8178 33.1982 13.701 33.0813 13.5842C32.8475 13.4673 32.7306 13.4673 32.4968 13.4673Z" fill="white"/>
<path d="M38.9258 17.5564C38.692 17.6733 38.4583 17.7901 38.3414 17.6733C38.2245 17.5564 38.2245 17.3228 38.3414 17.0891C38.4583 16.8555 38.692 16.8555 38.9258 16.9723C39.0427 17.0891 39.0427 17.3228 38.9258 17.5564ZM37.8738 19.1921C37.64 19.3089 37.4062 19.4258 37.2893 19.3089C37.1724 19.1921 37.1724 18.9584 37.2893 18.7248C37.4062 18.4911 37.64 18.4911 37.7569 18.6079C37.9907 18.7248 37.9907 18.9584 37.8738 19.1921ZM34.2501 10.1961C34.367 9.84556 34.6007 9.02774 34.6007 9.02774L35.0683 9.2614C34.9514 9.2614 34.8345 9.37823 34.7176 9.49506C34.8345 9.49506 34.9514 9.49506 35.0683 9.49506L34.8345 9.84556C34.8345 9.72873 34.7176 9.61189 34.6007 9.61189C34.4839 9.96239 34.7176 10.0792 34.8345 10.1961C35.0683 10.3129 35.3021 10.3129 35.3021 10.1961C35.419 10.0792 35.3021 9.84556 35.0683 9.96239C35.0683 9.72873 35.1852 9.61189 35.3021 9.61189C35.419 9.61189 35.5359 9.72873 35.5359 9.84556C35.5359 9.49506 35.6528 9.2614 36.0035 9.14457C36.1204 9.49506 36.0035 9.72873 35.7697 9.96239C35.8866 9.96239 36.0035 9.96239 36.1204 9.96239C36.2373 10.0792 36.1204 10.1961 36.0035 10.3129C36.0035 10.0792 35.6528 10.0792 35.6528 10.1961C35.5359 10.3129 35.6528 10.4297 35.8866 10.5465C36.1204 10.6634 36.3542 10.6634 36.4711 10.4297C36.3542 10.4297 36.2373 10.4297 36.1204 10.5465L36.3542 10.0792C36.3542 10.1961 36.3542 10.3129 36.4711 10.4297C36.4711 10.3129 36.5879 10.0792 36.4711 9.96239L37.0555 10.1961C36.8217 10.1961 36.7048 10.3129 36.7048 10.4297C36.8217 10.4297 36.9386 10.4297 37.0555 10.4297L36.7048 10.897C36.7048 10.7802 36.7048 10.5465 36.5879 10.5465C36.4711 10.7802 36.4711 11.0139 36.7048 11.2475C36.9386 11.3644 37.0555 11.3644 37.1724 11.2475C37.2893 11.1307 37.1724 10.897 36.9386 11.0139C36.9386 10.7802 37.0555 10.6634 37.1724 10.6634C37.2893 10.6634 37.4062 10.7802 37.4062 10.897C37.5231 10.5465 37.64 10.3129 37.9907 10.3129C38.1076 10.6634 37.8738 10.897 37.64 11.0139C37.7569 11.0139 37.8738 11.0139 37.9907 11.1307C38.1076 11.2475 37.9907 11.3644 37.8738 11.4812C37.8738 11.2475 37.64 11.2475 37.5231 11.3644C37.4062 11.4812 37.5231 11.598 37.7569 11.7149C37.8738 11.8317 38.1076 11.9485 38.3414 11.7149C38.2245 11.7149 37.9907 11.598 37.8738 11.598L38.1076 11.2475C38.1076 11.3644 38.2245 11.4812 38.2245 11.598C38.2245 11.4812 38.3414 11.2475 38.2245 11.1307L38.5751 11.3644C38.5751 11.3644 37.9907 11.9485 37.7569 12.1822L34.2501 10.1961ZM38.5751 15.103C38.5751 15.103 38.5751 14.9862 38.692 14.8693C38.692 14.8693 38.8089 14.8693 38.9258 14.8693C39.0427 14.8693 39.1596 14.9862 39.2765 14.9862C39.3934 15.103 39.3934 15.2198 39.3934 15.3366C39.3934 15.3366 39.3934 15.4535 39.2765 15.5703C39.2765 15.5703 39.1596 15.6871 39.0427 15.6871C38.9258 15.6871 38.8089 15.5703 38.692 15.4535C38.692 15.3366 38.5751 15.2198 38.5751 15.103ZM40.2117 22.3465C40.2117 22.2297 40.3286 22.1129 40.4455 21.996C40.5624 21.8792 40.6792 21.8792 40.7961 21.8792C40.7961 21.8792 40.913 21.8792 41.0299 21.996C41.0299 22.1129 41.0299 22.1129 41.0299 22.2297C41.0299 22.3465 40.913 22.4634 40.7961 22.5802C40.5624 22.697 40.3286 22.697 40.2117 22.5802C40.0948 22.4634 40.2117 22.3465 40.2117 22.3465ZM32.6135 11.3644C32.6135 11.4812 32.6135 11.598 32.4966 11.7149L32.3798 11.8317C32.2629 11.8317 32.146 11.598 32.146 11.4812C32.146 11.3644 32.146 11.2475 32.2629 11.1307L32.3798 11.0139C32.4966 11.0139 32.4966 11.0139 32.4966 11.1307C32.6135 11.1307 32.7304 11.2475 32.6135 11.3644ZM34.9514 6.6911C35.0683 6.45744 34.9514 6.10695 35.419 6.10695C35.6528 6.10695 35.7697 6.34061 36.1204 6.45744C35.6528 6.34061 35.3021 6.45744 34.9514 6.6911ZM41.7313 12.6495C42.082 13.3505 42.5496 13.701 43.0171 13.4673C42.082 13.3505 42.9002 11.7149 41.6144 11.7149C41.4975 11.7149 41.4975 11.7149 41.3806 11.7149C41.1468 11.4812 40.913 11.3644 40.5624 11.3644C39.9779 11.3644 39.1596 11.8317 39.1596 12.8832C39.1596 15.103 41.8482 15.3366 41.8482 17.3228C41.8482 17.9069 41.3806 18.2574 40.913 18.2574C40.4455 18.2574 40.0948 17.7901 39.7441 16.9723C39.5103 16.7386 39.1596 16.2713 38.692 15.6871C38.8089 15.804 38.9258 15.804 39.0427 15.804C39.1596 15.804 39.2765 15.804 39.3934 15.6871C39.5103 15.5703 39.5103 15.4535 39.5103 15.3366C39.5103 15.103 39.3934 14.9862 39.2765 14.8693C39.2765 14.6357 39.0427 14.6357 38.9258 14.6357C38.8089 14.6357 38.692 14.6357 38.5751 14.7525C38.4583 14.8693 38.3414 14.9862 38.3414 15.103C38.3414 15.2198 38.3414 15.2198 38.3414 15.3366C37.8738 14.6357 37.2893 13.8178 37.2893 13.4673C37.2893 13.1168 37.5231 12.7663 37.8738 12.4159H37.9907L38.1076 12.299C38.2245 12.1822 38.4583 11.9485 38.9258 11.4812V11.3644L38.692 11.1307C38.8089 11.0139 38.8089 10.7802 38.9258 10.5465C39.0427 10.897 39.1596 11.1307 39.5103 11.0139C39.3934 10.6634 39.6272 10.0792 39.5103 9.2614C39.7441 9.61189 39.9779 9.84556 40.2117 9.72873C39.6272 9.2614 40.3286 8.44358 39.6272 7.39209C39.861 7.50892 40.0948 7.39209 40.0948 7.27526C39.2765 7.27526 39.6272 6.45744 38.4583 6.10695C38.8089 6.10695 38.9258 5.87328 38.9258 5.75645C38.5751 5.87328 38.2245 5.28912 37.1724 5.28912C37.1724 4.93863 36.8217 4.4713 36.3542 4.23764C36.4711 4.58813 36.3542 4.8218 36.2373 5.05546L32.8473 1.66734C32.7304 1.66734 32.7304 1.55051 32.6135 1.66734V1.78417L35.6528 5.52279C35.419 5.52279 35.1852 5.63962 34.9514 5.75645C34.8345 5.75645 34.7176 5.99011 34.7176 6.10695C34.1332 6.34061 33.6656 6.6911 33.4318 6.92477C33.3149 7.15843 33.0811 7.15843 33.3149 7.50892C33.4318 7.62576 33.198 7.97625 33.6656 7.74259C33.8994 7.62576 34.4839 7.27526 34.6007 7.50892C34.6007 7.62576 34.367 7.74259 34.1332 7.85942C33.8994 7.85942 33.6656 8.09308 33.6656 8.09308C33.6656 8.20991 33.8994 8.09308 33.8994 8.20991C33.8994 8.32675 34.0163 8.44358 34.0163 8.44358C34.1332 8.44358 34.2501 8.20991 34.2501 8.32675C34.367 8.44358 34.2501 8.79407 34.1332 8.9109C34.4839 8.9109 34.7176 8.56041 34.7176 8.32675C34.7176 8.09308 34.8345 7.97625 34.8345 7.97625C34.8345 7.97625 34.9514 8.20991 34.8345 8.44358C35.0683 8.44358 35.1852 8.20991 35.1852 7.74259C35.3021 7.62576 35.419 7.62576 35.419 7.62576C35.5359 7.62576 35.7697 7.97625 36.1204 7.97625C36.7048 7.97625 37.0555 7.50893 37.0555 7.27526C37.0555 7.0416 37.0555 6.92477 36.9386 6.80794C37.2893 6.80794 37.4062 7.0416 37.4062 7.27526C37.4062 8.09308 35.8866 8.44358 35.3021 9.02774C35.3021 9.02774 35.3021 9.02774 35.1852 9.14457L34.4839 8.9109V9.02774C34.4839 9.02774 34.4839 9.02774 34.4839 9.14457C34.367 9.37823 34.2501 9.84556 34.1332 10.1961V10.3129H34.2501C33.8994 10.897 33.5487 11.4812 33.4318 12.0654C33.198 11.9485 33.0811 11.7149 32.8473 11.598C32.8473 11.4812 32.8473 11.4812 32.8473 11.3644C32.8473 11.1307 32.8473 11.0139 32.7304 10.897C32.6135 10.897 32.4966 10.7802 32.3798 10.7802C32.2629 10.7802 32.146 10.7802 32.0291 10.897C32.0291 10.897 32.0291 10.897 31.9122 11.0139C31.9122 11.0139 31.9122 11.0139 31.7953 11.0139C31.6784 10.7802 31.4446 10.5465 31.3277 10.3129C31.2108 10.3129 31.0939 10.1961 30.977 10.1961C30.8601 10.1961 30.7432 10.1961 30.6263 10.1961C30.5094 10.1961 30.5094 10.3129 30.3926 10.4297C30.3926 10.4297 30.1588 10.5465 30.0419 10.7802C30.1588 10.897 30.1588 10.897 30.2757 11.0139L30.3926 11.1307L30.5094 11.0139C30.6263 10.897 30.6263 10.897 30.7432 10.897C30.8601 10.897 30.977 11.0139 31.0939 11.1307C31.0939 11.2475 31.6784 11.9485 32.146 12.5327H32.0291C31.7953 12.6495 31.3277 12.6495 31.0939 12.5327C30.977 12.5327 30.8601 12.5327 30.7432 12.7663C30.7432 12.8832 30.6263 13 30.5094 13C30.3926 13.1168 30.3926 13.1168 30.5094 13.3505C30.8601 13.701 31.3277 14.6357 31.4446 15.103C31.5615 15.4535 31.7953 15.5703 32.146 15.6871C32.4966 15.804 32.9642 16.1545 33.0811 16.1545V15.804C33.0811 15.804 32.7304 15.6871 32.6135 15.5703C32.4966 15.5703 32.4966 15.4535 32.6135 15.4535C32.7304 15.4535 33.0811 15.5703 33.4318 15.6871C33.3149 15.4535 33.0811 15.103 32.8473 14.9862C32.6135 14.8693 32.3798 14.8693 32.2629 14.9862C32.2629 15.103 32.2629 15.103 32.146 15.103C32.0291 15.103 32.0291 14.9862 32.0291 14.9862C32.0291 14.8693 32.146 14.8693 32.146 14.6357C32.146 14.5188 31.9122 14.402 31.7953 14.402C31.5615 14.1683 31.3277 13.701 31.2108 13.5842C31.0939 13.4673 31.2108 13.3505 31.2108 13.2337C31.3277 13.1168 31.6784 13.3505 32.3798 13.3505C32.6135 13.3505 32.9642 13.3505 33.198 13.3505C33.3149 14.1683 33.6656 14.9862 34.7176 15.2198C35.3021 15.3366 35.8866 15.804 36.0035 16.2713C33.7825 16.2713 33.4318 17.0891 33.4318 17.9069C33.4318 18.8416 34.2501 18.8416 34.2501 19.5426C34.2501 20.1267 32.3798 20.3604 31.7953 20.4772C31.4446 20.5941 31.2108 20.7109 30.977 20.9446C30.7432 21.1782 30.5094 21.4119 30.0419 21.8792C30.0419 21.8792 30.2757 21.8792 30.3926 21.8792L30.7432 21.4119C30.8601 21.2951 30.8601 21.1782 30.977 21.1782C31.0939 21.1782 30.977 21.2951 30.977 21.4119L30.6263 21.8792C31.7953 21.996 31.7953 21.5287 31.7953 21.4119C31.7953 21.2951 31.5615 21.1782 31.6784 21.0614C31.7953 20.9446 32.0291 21.0614 32.146 21.1782C32.2629 21.2951 32.2629 21.4119 32.6135 21.2951C32.6135 21.2951 35.0683 20.2436 35.3021 20.1267C35.5359 20.0099 35.5359 19.8931 35.3021 19.7762C35.1852 19.6594 35.1852 19.4258 35.1852 19.0753C35.1852 18.3743 35.6528 18.1406 36.4711 18.1406C36.4711 18.2574 36.4711 18.3743 36.4711 18.4911C36.4711 19.6594 38.2245 20.7109 38.692 20.7109C38.9258 20.7109 39.1596 20.5941 39.1596 21.2951C39.1596 21.7624 39.2765 22.1129 39.1596 22.697C39.0427 23.398 38.8089 23.5149 38.4583 23.7485C38.1076 23.9822 37.7569 24.8 37.64 24.9168C37.7569 25.0337 37.9907 25.0337 38.1076 24.6832C38.2245 24.3327 38.3414 24.099 38.4583 24.099C38.3414 24.3327 38.2245 24.9168 38.2245 25.0337C38.692 25.1505 39.3934 24.6832 39.3934 24.4495C39.3934 24.099 39.1596 24.2159 39.1596 23.9822C39.1596 23.8654 39.2765 23.7485 39.3934 23.7485C39.6272 23.7485 39.7441 23.8654 39.7441 23.9822C39.9779 23.8654 40.0948 23.6317 40.0948 23.2812C40.0948 23.0475 40.0948 22.9307 40.0948 22.697C40.0948 22.697 40.0948 22.697 40.0948 22.8139C40.2117 22.9307 40.3286 23.0475 40.4455 23.0475C40.5624 23.0475 40.7961 23.0475 40.913 22.9307C41.0299 22.8139 41.2637 22.697 41.2637 22.4634V22.3465C41.2637 22.2297 41.2637 22.1129 41.1468 22.1129C41.1468 21.7624 41.0299 21.7624 40.7961 21.6456C40.5624 21.6456 40.4455 21.6456 40.2117 21.7624C40.0948 21.8792 39.9779 22.1129 39.9779 22.2297C39.9779 21.6456 39.861 21.0614 39.861 20.8277C39.861 20.4772 39.861 20.3604 39.7441 20.2436C39.6272 20.2436 39.5103 20.3604 39.2765 20.3604C39.1596 20.3604 38.5751 19.8931 38.5751 19.4258C38.5751 18.9584 39.1596 18.2574 39.0427 17.5564C39.0427 17.3228 39.1596 17.206 39.2765 17.4396C39.5103 17.6733 39.7441 18.0238 39.861 18.2574C39.7441 19.0753 40.6792 20.0099 41.4975 19.3089C41.1468 19.3089 40.7961 19.0753 40.6792 18.7248C40.7961 18.7248 40.7961 18.7248 40.913 18.7248H41.0299C41.2637 19.0753 42.1989 19.0753 42.4327 18.2574C42.1989 18.3743 41.8482 18.4911 41.6144 18.4911C41.9651 18.2574 42.082 17.7901 42.082 17.4396C42.082 15.3366 39.5103 14.9861 39.5103 13.1168C39.5103 12.4159 40.0948 11.9485 40.5624 11.9485C40.6792 11.9485 40.913 11.9485 40.913 12.0654C40.913 12.0654 40.7961 12.4159 40.7961 12.6495C40.7961 14.2852 43.3678 14.1683 43.3678 14.8693C43.7185 13.8178 41.8482 14.1683 41.7313 12.6495Z" fill="white"/>
<path d="M10.1697 36.3664H15.0792C19.5212 36.3664 21.976 38.5862 21.976 43.1426C21.976 47.9327 19.8719 50.6198 15.0792 50.6198H10.1697V36.3664ZM12.04 49.101H15.1961C16.482 49.101 19.9888 48.7505 19.9888 43.4931C19.9888 40.105 18.703 38.002 15.1961 38.002H12.04V49.101Z" fill="white"/>
<path d="M32.3796 47.3485C31.912 49.6852 30.2755 50.8535 27.9376 50.8535C24.6646 50.8535 23.0281 48.5168 23.0281 45.3624C23.0281 42.2079 25.0153 39.9881 27.9376 39.9881C31.5614 39.9881 32.7303 43.3762 32.6134 45.9465H24.7815C24.6646 47.8158 25.7166 49.4515 28.0545 49.4515C29.4573 49.4515 30.3924 48.7505 30.7431 47.4654H32.3796V47.3485ZM30.7431 44.5446C30.6262 42.9089 29.4573 41.6238 27.7038 41.6238C25.9504 41.6238 24.8984 42.9089 24.7815 44.5446H30.7431Z" fill="white"/>
<path d="M34.0161 40.3386H35.7695V41.7406C36.2371 40.5723 37.6398 40.1049 39.0426 40.1049C42.1987 40.1049 43.8352 42.6752 43.8352 45.596C43.8352 48.5168 42.3156 50.9703 39.1595 50.9703C38.1074 50.9703 36.5878 50.6198 35.7695 49.3347V54.5921H34.0161V40.3386ZM38.8088 41.6238C36.4709 41.6238 35.6526 43.6099 35.6526 45.4792C35.6526 47.4653 36.5878 49.4515 38.9257 49.4515C41.2636 49.4515 42.0818 47.4653 42.0818 45.4792C41.9649 43.4931 40.9129 41.6238 38.8088 41.6238Z" fill="white"/>
<path d="M54.4726 50.6198C54.1219 50.8535 53.7712 50.9703 53.1868 50.9703C52.2516 50.9703 51.784 50.503 51.784 49.3347C50.8489 50.3861 49.563 50.9703 48.1603 50.9703C46.29 50.9703 44.7704 50.1525 44.7704 48.0495C44.7704 45.7129 46.5238 45.2455 48.2772 44.895C50.1475 44.5446 51.784 44.6614 51.784 43.3762C51.784 41.8574 50.6151 41.6238 49.4462 41.6238C47.9265 41.6238 46.8745 42.0911 46.7576 43.6099H45.1211C45.238 41.0396 47.2252 40.1049 49.563 40.1049C51.4334 40.1049 53.4206 40.5723 53.4206 42.9089V48.2832C53.4206 49.101 53.4206 49.4515 54.005 49.4515C54.1219 49.4515 54.3557 49.4515 54.4726 49.3347V50.6198ZM51.6671 45.3624C50.9658 45.8297 49.6799 45.8297 48.6279 46.0634C47.459 46.297 46.5238 46.6475 46.5238 47.9327C46.5238 49.101 47.459 49.4515 48.511 49.4515C50.732 49.4515 51.6671 48.0495 51.6671 47.1149V45.3624Z" fill="white"/>
<path d="M55.6416 40.3386H57.2781V42.5584C58.0964 40.9228 59.2653 40.1049 61.1356 40.1049V41.8574C58.4471 41.8574 57.395 43.3762 57.395 46.0634V50.6198H55.6416V40.3386Z" fill="white"/>
<path d="M65.3437 40.3386H67.4478V41.8574H65.3437V48.2832C65.3437 49.101 65.5775 49.2178 66.6296 49.2178H67.4478V50.7366H66.162C64.4086 50.7366 63.7072 50.3862 63.7072 48.5168V41.8574H61.8369V40.3386H63.5903V37.1842H65.3437V40.3386Z" fill="white"/>
<path d="M68.8506 40.3386H70.4871V41.8574C71.3054 40.6891 72.4743 40.1049 73.877 40.1049C75.1629 40.1049 76.3318 40.5723 76.6825 41.8574C77.3839 40.8059 78.5528 40.1049 79.9555 40.1049C82.0596 40.1049 83.3455 40.9228 83.3455 43.1426V50.7366H81.709V43.8436C81.709 42.5584 81.3583 41.5069 79.7218 41.5069C78.0852 41.5069 77.0332 42.5584 77.0332 44.1941V50.6198H75.2798V43.8436C75.2798 42.5584 74.8122 41.5069 73.2926 41.5069C71.3054 41.5069 70.4871 43.3762 70.4871 44.1941V50.6198H68.8506V40.3386Z" fill="white"/>
<path d="M94.3336 47.3485C93.866 49.6852 92.2295 50.8535 89.8916 50.8535C86.6186 50.8535 84.9821 48.5168 84.9821 45.3624C84.9821 42.2079 86.9693 39.9881 89.8916 39.9881C93.5153 39.9881 94.6843 43.3762 94.5674 45.9465H86.7355C86.6186 47.8158 87.6706 49.4515 89.8916 49.4515C91.2943 49.4515 92.2295 48.7505 92.5802 47.4654H94.3336V47.3485ZM92.6971 44.5446C92.5802 42.9089 91.2943 41.6238 89.6578 41.6238C87.9044 41.6238 86.8524 42.9089 86.7355 44.5446H92.6971Z" fill="white"/>
<path d="M95.8531 40.3386H97.4897V41.9743C98.191 40.6891 99.36 40.1049 100.88 40.1049C103.568 40.1049 104.386 41.6238 104.386 43.8436V50.6198H102.75V43.6099C102.75 42.3248 101.932 41.5069 100.646 41.5069C98.5417 41.5069 97.6066 42.9089 97.6066 44.7782V50.6198H95.8531V40.3386Z" fill="white"/>
<path d="M108.828 40.3386H110.933V41.8574H108.828V48.2832C108.828 49.101 109.062 49.2178 110.114 49.2178H110.933V50.7366H109.53C107.776 50.7366 107.075 50.3862 107.075 48.5168V41.8574H105.322V40.3386H107.075V37.1842H108.828V40.3386Z" fill="white"/>
<path d="M10.5204 62.8871H8.76697V61.3683H10.5204V59.8495C10.5204 58.2139 11.5724 57.2792 13.3258 57.2792C13.6765 57.2792 14.1441 57.396 14.3779 57.396V58.9148C14.1441 58.798 13.7934 58.798 13.5596 58.798C12.7414 58.798 12.2738 59.0317 12.2738 59.9663V61.3683H14.261V62.8871H12.2738V71.7663H10.5204V62.8871Z" fill="white"/>
<path d="M19.5213 61.1347C22.7944 61.1347 24.5478 63.4713 24.5478 66.5089C24.5478 69.5466 22.7944 71.8832 19.5213 71.8832C16.2483 71.8832 14.4949 69.5466 14.4949 66.5089C14.4949 63.4713 16.2483 61.1347 19.5213 61.1347ZM19.5213 70.4812C21.2747 70.4812 22.7944 69.0792 22.7944 66.6258C22.7944 64.0555 21.3916 62.6535 19.5213 62.6535C17.7679 62.6535 16.2483 64.0555 16.2483 66.6258C16.3652 69.0792 17.7679 70.4812 19.5213 70.4812Z" fill="white"/>
<path d="M25.9504 61.3683H27.587V63.5881C28.4052 61.9525 29.5742 61.1347 31.4445 61.1347V62.8871C28.7559 62.8871 27.7039 64.406 27.7039 67.0931V71.6495H25.9504V61.3683Z" fill="white"/>
<path d="M38.1074 57.3961H47.9265V59.0317H40.0946V63.5881H47.5759V65.1069H40.0946V70.0139H48.1603V71.6495H38.1074V57.3961Z" fill="white"/>
<path d="M58.5639 71.6495H56.9273V70.2475C56.3429 71.4159 54.9401 72 53.5374 72C50.3813 72 48.7448 69.4297 48.7448 66.5089C48.7448 63.5881 50.2644 61.1347 53.4205 61.1347C54.4726 61.1347 55.9922 61.4852 56.8105 62.7703V57.3961H58.5639V71.6495ZM53.7712 70.4812C56.1091 70.4812 56.9273 68.4951 56.9273 66.6258C56.9273 64.6396 55.9922 62.6535 53.6543 62.6535C51.3164 62.6535 50.4982 64.6396 50.4982 66.6258C50.6151 68.6119 51.5502 70.4812 53.7712 70.4812Z" fill="white"/>
<path d="M69.2013 71.6495H67.6817V70.0139C66.8634 71.299 65.6945 72 64.2917 72C61.6032 72 60.7849 70.4812 60.7849 68.2614V61.3683H62.5383V68.3783C62.5383 69.6634 63.3566 70.4812 64.6424 70.4812C66.7465 70.4812 67.6817 69.0792 67.6817 67.2099V61.3683H69.4351V71.6495H69.2013Z" fill="white"/>
<path d="M78.4359 64.6396C78.2021 63.3545 77.267 62.5366 75.8642 62.5366C73.4094 62.5366 72.5912 64.5228 72.5912 66.6258C72.5912 68.4951 73.4094 70.3644 75.6304 70.3644C77.267 70.3644 78.2021 69.4297 78.4359 67.7941H80.1893C79.8386 70.4812 78.319 72 75.6304 72C72.4743 72 70.8378 69.7802 70.8378 66.7426C70.8378 63.5881 72.4743 61.2515 75.7473 61.2515C78.0852 61.2515 79.9555 62.303 80.1893 64.7564H78.4359V64.6396Z" fill="white"/>
<path d="M90.9437 71.6495C90.593 71.8832 90.2423 71.8832 89.7747 71.8832C88.8396 71.8832 88.372 71.4159 88.372 70.2475C87.32 71.4159 86.0341 72 84.6314 72C82.7611 72 81.2415 71.1822 81.2415 69.0792C81.2415 66.7426 82.9949 66.2753 84.7483 65.9248C86.6186 65.5743 88.2551 65.6911 88.2551 64.406C88.2551 62.8872 87.0862 62.6535 85.9172 62.6535C84.5145 62.6535 83.4624 63.1208 83.3456 64.6396H81.5921C81.709 62.0693 83.6962 61.1347 86.0341 61.1347C87.9044 61.1347 89.8916 61.602 89.8916 63.9386V69.3129C89.8916 70.1307 89.8916 70.4812 90.4761 70.4812C90.593 70.4812 90.8268 70.4812 90.9437 70.3644V71.6495ZM88.1382 66.3921C87.4369 66.8594 86.151 66.8594 85.099 67.0931C83.93 67.2099 82.9949 67.6772 82.9949 68.9624C82.9949 70.1307 83.93 70.4812 84.9821 70.4812C87.2031 70.4812 88.1382 69.0792 88.1382 68.1446V66.3921Z" fill="white"/>
<path d="M94.3336 61.3683H96.4377V62.8871H94.3336V69.3128C94.3336 70.1307 94.5674 70.2475 95.6195 70.2475H96.4377V71.7663H95.035C93.2816 71.7663 92.5802 71.4158 92.5802 69.5465V62.8871H90.8268V61.3683H92.5802V58.2138H94.3336V61.3683Z" fill="white"/>
<path d="M99.4769 59.499H97.7235V57.3961H99.4769V59.499ZM97.7235 61.3683H99.4769V71.7663H97.7235V61.3683Z" fill="white"/>
<path d="M106.023 61.1347C109.296 61.1347 111.049 63.4713 111.049 66.5089C111.049 69.5466 109.296 71.8832 106.023 71.8832C102.75 71.8832 100.997 69.5466 100.997 66.5089C100.997 63.4713 102.75 61.1347 106.023 61.1347ZM106.023 70.4812C107.776 70.4812 109.296 69.0792 109.296 66.6258C109.296 64.0555 107.893 62.6535 106.023 62.6535C104.27 62.6535 102.75 64.0555 102.75 66.6258C102.867 69.0792 104.27 70.4812 106.023 70.4812Z" fill="white"/>
<path d="M112.569 61.3683H114.206V63.004C114.907 61.7188 116.076 61.1347 117.596 61.1347C120.284 61.1347 121.102 62.6535 121.102 64.8733V71.6495H119.349V64.6396C119.349 63.3545 118.531 62.5367 117.245 62.5367C115.141 62.5367 114.206 63.9386 114.206 65.8079V71.6495H112.569V61.3683Z" fill="white"/>
</svg>
