<svg width="86" height="30" viewBox="0 0 86 30" fill="none" xmlns="http://www.w3.org/2000/svg">
<g clip-path="url(#clip0_1241_9539)">
<path d="M38.1651 5.05189H43.0189V7.04718H38.1651V12.3396H36.0566V0.0141602H43.3727V2.00944H38.1793V5.03774H38.1651V5.05189ZM47.7736 12.566C47.3774 12.566 46.9953 12.4953 46.6132 12.3538C46.2453 12.2123 45.9198 12.0142 45.6368 11.7311C45.3538 11.4623 45.1415 11.1226 44.9576 10.7547C44.7736 10.3585 44.7029 9.91982 44.7029 9.41039V4.00473H46.8114V8.84435C46.8114 9.46699 46.9529 9.91982 47.2359 10.2028C47.5189 10.4859 47.9293 10.6132 48.467 10.6132C48.7359 10.6132 48.9623 10.5566 49.1746 10.4576C49.3868 10.3443 49.5425 10.2311 49.6982 10.1038C49.8538 9.96227 49.9953 9.80661 50.1227 9.5802V4.01888H52.2453V12.3679H50.2642V11.151C50.0802 11.4198 49.8963 11.6745 49.6415 11.8585C49.4434 12.0425 49.1746 12.1981 48.8774 12.3396C48.5519 12.4953 48.1982 12.566 47.7736 12.566ZM53.6463 4.00473H55.2878V1.52831H57.4104V4.00473H59.9151V5.9151H57.3963V9.28303C57.3963 9.5519 57.4387 9.75001 57.4812 9.91982C57.5378 10.0755 57.6227 10.217 57.7359 10.3302C57.8491 10.4434 57.9482 10.5142 58.0897 10.5425C58.217 10.5849 58.3585 10.5991 58.5 10.5991C58.6274 10.5991 58.7265 10.5849 58.8397 10.5566C58.9529 10.5142 59.0378 10.5 59.1227 10.4434L59.3916 10.2877L60.1557 12.0142C60 12.1274 59.8161 12.2123 59.6038 12.2972C59.4199 12.3679 59.2076 12.4245 58.9812 12.4811C58.7265 12.5377 58.4576 12.566 58.1604 12.566C57.75 12.566 57.3821 12.4953 57.0142 12.3538C56.6746 12.2123 56.3774 12.0142 56.1227 11.7453C55.868 11.4906 55.6698 11.1793 55.5142 10.8113C55.3727 10.4576 55.3019 10.0472 55.3019 9.59435V5.8868H53.6604V3.97642H53.6463V4.00473ZM64.4859 12.566C64.0897 12.566 63.7076 12.4953 63.3255 12.3538C62.9576 12.2123 62.6321 12.0142 62.3491 11.7311C62.0661 11.4623 61.8538 11.1226 61.6699 10.7547C61.4859 10.3585 61.4151 9.91982 61.4151 9.41039V4.00473H63.5378V8.84435C63.5378 9.46699 63.6793 9.91982 63.9623 10.2028C64.2453 10.4859 64.6557 10.6132 65.1934 10.6132C65.4623 10.6132 65.6887 10.5566 65.901 10.4576C66.1133 10.3443 66.2689 10.2311 66.4246 10.1038C66.5802 9.96227 66.7217 9.80661 66.8491 9.5802V4.01888H68.9717V12.3679H66.9906V11.151C66.8066 11.4198 66.6227 11.6745 66.368 11.8585C66.1699 12.0425 65.901 12.1981 65.6038 12.3396C65.2783 12.4953 64.9104 12.566 64.4859 12.566ZM75.1557 3.77831C75.3538 3.77831 75.5236 3.79246 75.7076 3.82076C75.8916 3.86322 76.0331 3.89152 76.1746 3.90567C76.3302 3.96227 76.4717 3.99057 76.6274 4.03303L75.8774 5.9434C75.8067 5.92925 75.7217 5.8868 75.6085 5.8585C75.5236 5.84435 75.4104 5.80189 75.2831 5.78774C75.1557 5.77359 75.0142 5.74529 74.8727 5.74529C74.5472 5.74529 74.2642 5.80189 74.0378 5.92925C73.8114 6.05661 73.6133 6.18397 73.4717 6.32548C73.2878 6.48114 73.1463 6.67925 73.0048 6.89152V12.3538H70.8963V4.00473H72.9057V5.22171C73.0614 4.96699 73.2453 4.72642 73.4576 4.51416C73.6557 4.3302 73.8821 4.17454 74.1651 4.01888C74.4482 3.87737 74.7878 3.77831 75.1557 3.77831ZM80.8302 3.77831C81.3963 3.77831 81.9482 3.89152 82.4576 4.10378C82.9812 4.31605 83.4199 4.62737 83.8019 4.99529C84.1699 5.36322 84.4812 5.8302 84.7076 6.36793C84.9199 6.90567 85.0472 7.48586 85.0472 8.1368V8.47642C85.0472 8.61793 85.0472 8.75944 85.0331 8.9434H78.8066C78.8491 9.14152 78.9199 9.31133 79.0614 9.53774C79.1887 9.73586 79.3444 9.90567 79.5567 10.0896C79.7548 10.2453 79.9812 10.3868 80.25 10.5C80.5189 10.6132 80.8161 10.6557 81.1416 10.6557C81.4953 10.6557 81.8208 10.6132 82.1038 10.5283C82.3868 10.4434 82.6274 10.3443 82.8114 10.2453C83.0378 10.1179 83.2359 9.97642 83.4199 9.82076L84.467 11.4057C84.1982 11.6179 83.901 11.8302 83.5614 12.0142C83.2783 12.1698 82.9246 12.2972 82.5142 12.4245C82.1038 12.5519 81.6368 12.6085 81.1416 12.6085C80.5048 12.6085 79.9104 12.4953 79.3727 12.2689C78.8208 12.0425 78.3538 11.7311 77.9434 11.3349C77.5331 10.9387 77.2359 10.4717 76.9953 9.94812C76.7689 9.41039 76.6557 8.84435 76.6557 8.23586C76.6557 7.62737 76.7689 7.06133 76.9812 6.52359C77.1934 5.98586 77.4765 5.51888 77.8585 5.1368C78.2265 4.74057 78.6793 4.42925 79.2029 4.20284C79.684 3.90567 80.2359 3.77831 80.8302 3.77831ZM82.9387 7.40095C82.9246 7.21699 82.8821 7.04718 82.7972 6.83491C82.7123 6.6368 82.5849 6.43869 82.401 6.28303C82.2453 6.12737 82.0048 5.98586 81.7642 5.87265C81.4953 5.75944 81.1982 5.71699 80.8585 5.71699C80.5189 5.71699 80.2217 5.77359 79.9812 5.87265C79.7265 5.98586 79.5142 6.12737 79.3585 6.28303C79.2029 6.43869 79.0614 6.6368 78.9623 6.83491C78.8774 7.03303 78.8208 7.23114 78.8208 7.42925H82.9387V7.40095ZM36.0708 16.684H38.1793V27.6793H43.4293V29.6745H36.0566V16.684H36.0708ZM48.2548 21.1132C48.8208 21.1132 49.3727 21.2264 49.8821 21.4387C50.4057 21.651 50.8444 21.934 51.2265 22.3302C51.5944 22.6981 51.9057 23.1651 52.1321 23.7028C52.3444 24.2406 52.4717 24.8208 52.4717 25.4717V25.8113C52.4717 25.9528 52.4717 26.0943 52.4576 26.2783H46.2312C46.2736 26.4764 46.3585 26.6462 46.4859 26.8726C46.6132 27.0708 46.7689 27.2406 46.9812 27.4245C47.1793 27.5802 47.4057 27.7217 47.6746 27.8349C47.9434 27.9481 48.2406 27.9906 48.5661 27.9906C48.9198 27.9906 49.2453 27.9481 49.5283 27.8632C49.8114 27.7783 50.0519 27.6793 50.2359 27.5802C50.4482 27.4528 50.6604 27.3113 50.8444 27.1557L51.8915 28.7406C51.6227 28.9528 51.3255 29.1651 50.9859 29.3491C50.7029 29.5047 50.3491 29.6321 49.9387 29.7594C49.5283 29.8868 49.0614 29.9434 48.5661 29.9434C47.9293 29.9434 47.3349 29.8302 46.7972 29.6038C46.2453 29.3774 45.7783 29.066 45.368 28.6698C44.9576 28.2736 44.6604 27.8066 44.4198 27.283C44.1934 26.7453 44.0802 26.1793 44.0802 25.5708C44.0802 24.9623 44.1934 24.3962 44.4057 23.8585C44.618 23.3208 44.901 22.8538 45.2831 22.4717C45.651 22.0755 46.1038 21.7642 46.6274 21.5377C47.0944 21.2123 47.6463 21.1132 48.2548 21.1132ZM50.3349 24.7076C50.3208 24.5236 50.2783 24.3538 50.1934 24.1415C50.1085 23.9434 49.9812 23.7453 49.7972 23.5896C49.6132 23.4057 49.401 23.2925 49.1604 23.1793C48.8915 23.066 48.5944 23.0236 48.2548 23.0236C47.9151 23.0236 47.6321 23.0802 47.3774 23.1793C47.1227 23.2925 46.9104 23.4057 46.7548 23.5896C46.5991 23.7453 46.4576 23.9293 46.3585 24.1415C46.2736 24.3396 46.217 24.5377 46.217 24.7359H50.3349V24.7076ZM62.1368 21.3113V29.6604H60.1699V28.5708C60.0142 28.8255 59.8302 29.0377 59.5755 29.2359C59.3774 29.3915 59.1085 29.5613 58.7972 29.6887C58.4717 29.8302 58.0897 29.8868 57.6368 29.8868C57.0991 29.8868 56.5897 29.7736 56.0802 29.5613C55.5849 29.3491 55.1463 29.0377 54.7783 28.6557C54.4104 28.2594 54.1132 27.7925 53.8868 27.283C53.6746 26.7453 53.5472 26.1651 53.5472 25.5142C53.5472 24.8774 53.6604 24.283 53.8868 23.7453C54.0991 23.2076 54.4104 22.7406 54.7783 22.3727C55.1463 21.9764 55.5849 21.6793 56.0802 21.467C56.5755 21.2547 57.0991 21.1415 57.6368 21.1415C58.0614 21.1415 58.4576 21.2123 58.7831 21.3396C59.1085 21.4811 59.3774 21.6226 59.5614 21.7925C59.7878 21.9906 59.9859 22.2028 60.1699 22.4576V21.3679H62.1368V21.3113ZM60.0142 24.2264C59.8868 24.0142 59.7312 23.816 59.5331 23.6321C59.3774 23.4906 59.1651 23.3632 58.9246 23.2359C58.6699 23.1085 58.3868 23.0519 58.0472 23.0519C57.6934 23.0519 57.368 23.1227 57.0849 23.2359C56.8019 23.3632 56.5472 23.5189 56.3491 23.7594C56.151 23.9717 55.9953 24.2264 55.8821 24.5236C55.7689 24.8066 55.7265 25.1321 55.7265 25.4717C55.7265 25.8113 55.7831 26.1368 55.8821 26.4198C55.9953 26.7028 56.1368 26.9717 56.3491 27.184C56.5472 27.3962 56.8019 27.5802 57.0849 27.7076C57.368 27.8349 57.6934 27.8915 58.0472 27.8915C58.3868 27.8915 58.684 27.8349 58.9246 27.7076C59.1793 27.5802 59.3774 27.4528 59.5331 27.2972C59.7312 27.1415 59.8727 26.9434 60.0142 26.7028V24.2264ZM68.25 21.1132C68.434 21.1132 68.618 21.1274 68.8019 21.1557C68.9859 21.1981 69.1274 21.2123 69.2689 21.2406C69.4246 21.2972 69.5661 21.3255 69.7217 21.3679L68.9859 23.2783C68.9151 23.2642 68.8302 23.2217 68.717 23.1934C68.6321 23.1793 68.5189 23.1368 68.3915 23.1226C68.2642 23.1085 68.1227 23.0802 67.9812 23.0802C67.6557 23.0802 67.3727 23.1368 67.1463 23.2642C66.9199 23.3915 66.7217 23.5189 66.5802 23.6604C66.3963 23.816 66.2548 24.0142 66.1133 24.2264V29.6887H64.0048V21.3396H66V22.5566C66.1416 22.3019 66.3397 22.0613 66.5519 21.8632C66.7359 21.6793 66.9765 21.5236 67.2595 21.3679C67.5425 21.184 67.8538 21.1132 68.25 21.1132ZM75.2406 21.1132C75.6368 21.1132 76.0189 21.184 76.401 21.3255C76.7689 21.467 77.0944 21.6651 77.3774 21.9481C77.6604 22.217 77.8727 22.5566 78.0566 22.9245C78.2123 23.3208 78.3114 23.7594 78.3114 24.2689V29.6745H76.1887V24.8066C76.1887 24.1981 76.0331 23.7736 75.7076 23.5047C75.3821 23.2359 75 23.0943 74.5331 23.0943C74.2642 23.0943 74.0378 23.151 73.8255 23.2783C73.6133 23.4057 73.4576 23.533 73.3019 23.6462C73.1463 23.8019 73.0048 23.9717 72.8774 24.184V29.7028H70.7831V21.3538H72.75V22.5708C72.9057 22.316 73.0897 22.0755 73.3444 21.8774C73.5425 21.6934 73.8114 21.5377 74.1085 21.3821C74.4199 21.184 74.8019 21.1132 75.2406 21.1132Z" fill="#1D1D1B"/>
<path d="M28.8822 0.0141602V9.86322H19.4718V18.5377H9.9765V27.1698H0.127441V29.6745H12.4529V21.0283H21.9623V12.3538H31.3586V0.0283098H28.8822V0.0141602Z" fill="#DE00A5"/>
</g>
<defs>
<clipPath id="clip0_1241_9539">
<rect width="85.0472" height="30" fill="white"/>
</clipPath>
</defs>
</svg>
