<svg width="304" height="146" viewBox="0 0 304 146" fill="none" xmlns="http://www.w3.org/2000/svg">
<rect width="304" height="146" fill="#FEB44C"/>
<path d="M144.179 58.3841C144.181 58.5641 144.108 58.7369 143.978 58.8618C143.855 58.9904 143.684 59.0627 143.505 59.0615H142.58C142.402 59.0627 142.23 58.9904 142.107 58.8618C141.978 58.7374 141.905 58.5654 141.907 58.3861V46.7205C141.907 46.5385 141.974 46.3799 142.107 46.2448C142.23 46.1162 142.402 46.0439 142.58 46.0451H143.505C143.689 46.0451 143.846 46.1117 143.978 46.2448C144.112 46.3799 144.179 46.5385 144.179 46.7205V58.3861V58.3841ZM144.429 43.3925C144.431 43.5718 144.358 43.7439 144.228 43.8682C144.105 43.9969 143.934 44.0692 143.756 44.0679H142.332C142.153 44.0692 141.982 43.9969 141.859 43.8682C141.729 43.7439 141.657 43.5718 141.659 43.3925V41.9654C141.659 41.7814 141.724 41.6228 141.857 41.4897C141.98 41.3611 142.151 41.2888 142.33 41.29H143.754C143.937 41.29 144.096 41.3566 144.228 41.4897C144.362 41.6228 144.429 41.7834 144.429 41.9654V43.3925ZM155.31 55.4574C155.321 55.1717 155.228 54.8917 155.048 54.6685C154.831 54.4305 154.562 54.2461 154.26 54.1302C153.828 53.9533 153.381 53.8112 152.925 53.7054C152.3 53.5522 151.672 53.41 151.041 53.2786C149.694 52.9947 148.749 52.5249 148.21 51.8652C147.671 51.2134 147.384 50.3925 147.398 49.5493C147.392 48.5412 147.829 47.5807 148.595 46.9202C148.995 46.5717 149.499 46.2957 150.106 46.096C150.714 45.8944 151.425 45.7946 152.24 45.7946C153.055 45.7946 153.766 45.8866 154.375 46.0686C154.981 46.2546 155.493 46.4876 155.908 46.7714C156.324 47.0553 156.641 47.3587 156.858 47.6856C157.074 48.0106 157.19 48.3238 157.206 48.6253C157.224 48.8039 157.154 48.9801 157.019 49.099C156.89 49.2271 156.715 49.299 156.533 49.2987H155.71C155.586 49.2949 155.464 49.2738 155.347 49.2361C155.19 49.1837 155.055 49.0829 154.959 48.9483C154.704 48.6351 154.373 48.3902 153.998 48.2357C153.575 48.0439 152.988 47.948 152.24 47.948C151.474 47.948 150.854 48.0889 150.381 48.3728C149.907 48.6566 149.669 49.0481 149.669 49.5493C149.669 49.8664 149.736 50.1209 149.869 50.3128C150.038 50.5333 150.262 50.7061 150.519 50.8139C150.817 50.9549 151.212 51.0841 151.703 51.2015C152.195 51.319 152.805 51.46 153.538 51.6264C154.304 51.7947 154.944 52.0061 155.46 52.2645C155.975 52.5249 156.391 52.8166 156.708 53.1416C157.023 53.4665 157.247 53.8267 157.381 54.2183C157.513 54.6098 157.58 55.0229 157.58 55.4574C157.58 55.9566 157.46 56.4421 157.218 56.9081C156.967 57.3874 156.613 57.8064 156.182 58.1355C155.69 58.5089 155.137 58.7968 154.548 58.9871C153.843 59.2137 153.105 59.3235 152.364 59.312C151.549 59.312 150.826 59.2122 150.192 59.0106C149.621 58.8381 149.076 58.5899 148.572 58.2725C148.169 58.0235 147.818 57.7007 147.536 57.3211C147.294 56.9805 147.166 56.6575 147.148 56.358C147.129 56.1809 147.194 56.0052 147.323 55.8823C147.454 55.7499 147.635 55.6776 147.822 55.6826H148.721C148.82 55.6826 148.938 55.6943 149.07 55.7198C149.204 55.7452 149.328 55.8411 149.444 56.0075C149.71 56.3756 150.076 56.6575 150.543 56.8591C151.009 57.0588 151.616 57.1586 152.364 57.1586C152.73 57.1586 153.093 57.1175 153.451 57.0333C153.807 56.9511 154.125 56.8337 154.398 56.6829C154.674 56.5322 154.894 56.354 155.06 56.1446C155.221 55.9513 155.309 55.7084 155.31 55.4574ZM159.628 55.7824C159.628 55.1149 159.76 54.5295 160.026 54.0303C160.294 53.5292 160.658 53.1044 161.124 52.754C161.591 52.4016 162.135 52.1197 162.759 51.9024C163.383 51.687 164.045 51.5187 164.744 51.4012L168.262 50.8257V50.5007C168.262 49.6491 167.985 49.0129 167.425 48.5861C166.868 48.1613 166.175 47.948 165.342 47.948C164.61 47.948 164.056 48.0811 163.682 48.3473C163.308 48.6155 162.987 48.9326 162.721 49.2987C162.639 49.4176 162.527 49.5128 162.396 49.5748C162.245 49.6303 162.085 49.6556 161.924 49.6491H161.176C160.993 49.6499 160.817 49.578 160.687 49.4495C160.552 49.3301 160.482 49.153 160.5 48.9738C160.534 48.6077 160.679 48.2299 160.937 47.8481C161.195 47.4644 161.544 47.1218 161.985 46.8223C162.426 46.5208 162.934 46.2742 163.509 46.0823C164.082 45.8905 164.694 45.7946 165.342 45.7946C166.09 45.7946 166.785 45.9042 167.425 46.1215C168.067 46.3368 168.617 46.654 169.073 47.0709C169.53 47.4879 169.889 48.0067 170.147 48.6233C170.405 49.24 170.533 49.9506 170.533 50.7513V58.3861C170.535 58.5648 170.464 58.7367 170.336 58.8618C170.212 58.9914 170.039 59.0638 169.859 59.0615H168.936C168.757 59.0627 168.586 58.9904 168.463 58.8618C168.333 58.7374 168.261 58.5654 168.262 58.3861V57.3583C168.101 57.6902 167.861 57.9784 167.563 58.1981C167.231 58.4494 166.866 58.6554 166.478 58.8109C166.071 58.9773 165.645 59.1045 165.204 59.1867C164.798 59.2668 164.384 59.3087 163.97 59.312C163.364 59.3191 162.761 59.2265 162.186 59.038C161.687 58.8765 161.222 58.6258 160.813 58.298C160.059 57.6784 159.624 56.7552 159.628 55.7824ZM164.22 57.1586C164.818 57.1586 165.368 57.0666 165.866 56.8846C166.366 56.7005 166.793 56.4461 167.152 56.1211C167.51 55.7942 167.784 55.4066 167.975 54.9563C168.166 54.506 168.262 54.0049 168.262 53.4548V52.8283L165.317 53.304C164.269 53.4704 163.438 53.7386 162.822 54.1067C162.205 54.4728 161.898 54.9485 161.898 55.5318C161.9 55.7219 161.942 55.9095 162.022 56.0819C162.107 56.266 162.239 56.4421 162.422 56.6085C162.605 56.7749 162.843 56.9081 163.133 57.0079C163.424 57.1097 163.787 57.1586 164.22 57.1586ZM173.254 55.7824C173.254 55.1149 173.388 54.5295 173.653 54.0303C173.919 53.5292 174.284 53.1044 174.752 52.754C175.217 52.4016 175.762 52.1197 176.386 51.9024C177.011 51.687 177.67 51.5187 178.369 51.4012L181.89 50.8257V50.5007C181.89 49.6491 181.61 49.0129 181.053 48.5861C180.496 48.1613 179.801 47.948 178.97 47.948C178.237 47.948 177.684 48.0811 177.31 48.3473C176.936 48.6155 176.615 48.9326 176.349 49.2987C176.267 49.4176 176.155 49.5128 176.024 49.5748C175.873 49.6303 175.713 49.6556 175.552 49.6491H174.801C174.619 49.6494 174.444 49.5775 174.315 49.4495C174.179 49.3301 174.11 49.153 174.128 48.9738C174.161 48.6077 174.305 48.2299 174.563 47.8481C174.821 47.4644 175.172 47.1218 175.613 46.8223C176.054 46.5208 176.56 46.2742 177.135 46.0823C177.71 45.8905 178.32 45.7946 178.97 45.7946C179.718 45.7946 180.413 45.9042 181.053 46.1215C181.693 46.3368 182.242 46.654 182.699 47.0709C183.158 47.4879 183.516 48.0067 183.772 48.6233C184.03 49.24 184.16 49.9506 184.16 50.7513V58.3861C184.162 58.5651 184.091 58.7371 183.961 58.8618C183.838 58.9909 183.666 59.0632 183.487 59.0615H182.561C182.383 59.0627 182.212 58.9904 182.089 58.8618C181.96 58.7371 181.888 58.5651 181.89 58.3861V57.3583C181.729 57.6902 181.489 57.9784 181.191 58.1981C180.858 58.4495 180.492 58.6556 180.104 58.8109C179.696 58.9773 179.273 59.1045 178.832 59.1867C178.425 59.2669 178.011 59.3089 177.595 59.312C176.99 59.3191 176.387 59.2265 175.812 59.038C175.312 58.8765 174.847 58.6258 174.439 58.298C173.685 57.6784 173.25 56.7552 173.254 55.7824ZM177.846 57.1586C178.444 57.1586 178.993 57.0666 179.494 56.8846C179.992 56.7005 180.419 56.4461 180.779 56.1211C181.136 55.7942 181.41 55.4066 181.602 54.9563C181.793 54.506 181.89 54.0049 181.89 53.4548V52.8283L178.944 53.304C177.897 53.4704 177.064 53.7386 176.448 54.1067C175.833 54.4728 175.524 54.9485 175.524 55.5318C175.526 55.722 175.569 55.9096 175.65 56.0819C175.733 56.266 175.867 56.4421 176.05 56.6085C176.233 56.7749 176.469 56.9081 176.759 57.0079C177.052 57.1097 177.414 57.1586 177.846 57.1586ZM189.477 53.4293C189.542 54.0969 189.687 54.6626 189.914 55.1325C190.138 55.5984 190.412 55.9821 190.737 56.2836C191.062 56.5831 191.422 56.8043 191.822 56.9453C192.221 57.0882 192.629 57.1606 193.045 57.1606C193.844 57.1606 194.525 57.0079 195.092 56.7084C195.657 56.4089 196.097 55.9057 196.414 55.2069C196.532 54.9387 196.65 54.7605 196.776 54.6685C196.911 54.5737 197.073 54.5255 197.239 54.5315H197.987C198.17 54.5315 198.331 54.598 198.473 54.7312C198.615 54.8643 198.676 55.0248 198.66 55.2069C198.627 55.667 198.495 56.1147 198.274 56.5204C198.007 57.0284 197.643 57.4793 197.201 57.8477C196.727 58.2569 196.144 58.6014 195.453 58.8853C194.764 59.1691 193.96 59.312 193.045 59.312C192.211 59.3277 191.383 59.1745 190.611 58.8618C189.933 58.5809 189.322 58.1629 188.815 57.6343C188.317 57.1054 187.927 56.485 187.667 55.8079C187.388 55.0875 187.232 54.326 187.204 53.5546C187.185 53.2254 187.173 52.8958 187.167 52.566C187.159 52.1745 187.171 51.8358 187.206 51.552C187.271 50.7493 187.443 49.9996 187.718 49.3007C187.992 48.5979 188.368 47.9891 188.852 47.4723C189.335 46.9554 189.926 46.5463 190.625 46.2448C191.324 45.9453 192.129 45.7946 193.047 45.7946C193.96 45.7946 194.764 45.9375 195.453 46.2213C196.144 46.5052 196.727 46.8497 197.201 47.2589C197.674 47.67 198.032 48.1104 198.274 48.5861C198.515 49.0619 198.645 49.5004 198.66 49.8997C198.679 50.079 198.609 50.256 198.473 50.3754C198.344 50.5035 198.169 50.5753 197.987 50.5751H197.239C197.073 50.5811 196.911 50.5329 196.776 50.4381C196.652 50.3461 196.53 50.1679 196.414 49.8997C196.099 49.1989 195.657 48.6977 195.092 48.3982C194.525 48.0987 193.844 47.948 193.045 47.948C192.629 47.948 192.218 48.0184 191.81 48.1613C191.401 48.3032 191.027 48.5286 190.711 48.823C190.386 49.1245 190.113 49.5082 189.888 49.9761C189.646 50.5128 189.506 51.0896 189.475 51.6773C189.425 52.2602 189.425 52.8464 189.475 53.4293H189.477ZM143.58 74.472C143.645 75.1376 143.791 75.7053 144.015 76.1751C144.242 76.641 144.516 77.0247 144.84 77.3262C145.163 77.6257 145.526 77.8469 145.925 77.9879C146.325 78.1308 146.733 78.2032 147.148 78.2032C147.948 78.2032 148.629 78.0505 149.196 77.751C149.761 77.4515 150.2 76.9484 150.517 76.2495C150.635 75.9813 150.754 75.8032 150.88 75.7111C151.015 75.6163 151.177 75.5681 151.342 75.5741H152.09C152.274 75.5741 152.435 75.6407 152.577 75.7738C152.719 75.9069 152.78 76.0655 152.764 76.2495C152.73 76.7096 152.599 77.1574 152.378 77.5631C152.111 78.071 151.746 78.522 151.305 78.8904C150.83 79.2995 150.247 79.644 149.556 79.9279C148.867 80.2118 148.064 80.3547 147.148 80.3547C146.315 80.3703 145.487 80.2171 144.714 79.9044C144.037 79.6235 143.425 79.2055 142.919 78.677C142.42 78.148 142.031 77.5276 141.771 76.8505C141.492 76.1301 141.335 75.3687 141.308 74.5973C141.289 74.268 141.277 73.9384 141.271 73.6086C141.263 73.2171 141.275 72.8784 141.31 72.5946C141.375 71.792 141.546 71.0422 141.822 70.3433C142.094 69.6405 142.472 69.0317 142.956 68.5149C143.439 67.9981 144.029 67.5889 144.728 67.2874C145.427 66.9879 146.233 66.8372 147.15 66.8372C148.064 66.8372 148.867 66.9801 149.556 67.264C150.246 67.5478 150.83 67.8923 151.305 68.3015C151.777 68.7126 152.136 69.1531 152.378 69.6288C152.618 70.1045 152.748 70.543 152.764 70.9423C152.782 71.1216 152.713 71.2986 152.577 71.4181C152.448 71.5461 152.273 71.618 152.09 71.6177H151.342C151.177 71.6237 151.015 71.5756 150.88 71.4807C150.755 71.3887 150.633 71.2105 150.517 70.9423C150.202 70.2415 149.761 69.7404 149.194 69.4408C148.629 69.1413 147.948 68.9906 147.148 68.9906C146.733 68.9906 146.321 69.0611 145.914 69.204C145.505 69.3458 145.131 69.5712 144.815 69.8657C144.49 70.1671 144.216 70.5508 143.992 71.0187C143.749 71.5555 143.609 72.1323 143.578 72.7199C143.528 73.3029 143.528 73.889 143.578 74.472H143.58ZM161.262 66.8372C162.16 66.8372 162.96 66.9742 163.659 67.2502C164.356 67.5243 164.956 67.9061 165.454 68.3896C165.954 68.8731 166.348 69.4624 166.64 70.1534C166.931 70.8464 167.11 71.6021 167.177 72.4204C167.193 72.5691 167.201 72.7492 167.201 72.9568V74.2586C167.201 74.4681 167.193 74.6384 167.177 74.7715C167.106 75.5537 166.92 76.3214 166.626 77.0502C166.344 77.7353 165.954 78.3187 165.454 78.8023C164.938 79.2973 164.328 79.6847 163.659 79.9416C162.96 80.2157 162.162 80.3527 161.262 80.3527C160.362 80.3527 159.565 80.2157 158.866 79.9416C158.196 79.685 157.585 79.2976 157.068 78.8023C156.559 78.3032 156.156 77.7074 155.883 77.0502C155.582 76.3242 155.401 75.5548 155.347 74.7715C155.327 74.6011 155.314 74.43 155.308 74.2586C155.291 73.8248 155.291 73.3905 155.308 72.9568C155.315 72.7776 155.328 72.5987 155.347 72.4204C155.404 71.6413 155.585 70.8761 155.883 70.1534C156.154 69.4916 156.557 68.8915 157.068 68.3896C157.585 67.8943 158.196 67.5069 158.866 67.2502C159.565 66.9762 160.362 66.8391 161.262 66.8391V66.8372ZM164.905 74.6482C164.938 74.3643 164.956 74.0178 164.956 73.6086C164.956 73.1995 164.938 72.8452 164.905 72.5437C164.86 72.0643 164.752 71.5929 164.582 71.142C164.276 70.2919 163.623 69.61 162.784 69.2647C162.301 69.0721 161.783 68.9788 161.262 68.9906C160.679 68.9906 160.171 69.0826 159.74 69.2647C158.901 69.6104 158.248 70.2932 157.942 71.144C157.777 71.5766 157.667 72.0445 157.618 72.5437C157.582 72.8975 157.565 73.253 157.568 73.6086C157.568 74.0178 157.584 74.3643 157.618 74.6462C157.669 75.1474 157.775 75.6152 157.942 76.0479C158.248 76.898 158.901 77.5799 159.74 77.9252C160.173 78.1092 160.679 78.2013 161.262 78.2013C161.845 78.2013 162.351 78.1092 162.784 77.9272C163.624 77.5814 164.277 76.8987 164.582 76.0479C164.747 75.6152 164.856 75.1474 164.905 74.6462V74.6482ZM172.805 68.5403C172.967 68.3251 173.142 68.1198 173.329 67.9256C173.764 67.4734 174.317 67.1491 174.925 66.9879C175.276 66.8881 175.684 66.8372 176.148 66.8372C177.164 66.8372 178.003 67.0251 178.669 67.401C179.334 67.7768 179.86 68.3152 180.242 69.016C180.458 68.7146 180.687 68.4307 180.929 68.1645C181.447 67.5924 182.124 67.1868 182.874 66.9997C183.282 66.892 183.761 66.8372 184.31 66.8372C185.989 66.8372 187.214 67.3423 187.978 68.3524C188.744 69.3606 189.126 70.7407 189.126 72.4948V79.4287C189.128 79.6077 189.056 79.7797 188.927 79.9044C188.804 80.0335 188.632 80.1059 188.453 80.1041H187.529C187.351 80.1053 187.18 80.033 187.057 79.9044C186.927 79.78 186.854 79.608 186.856 79.4287V72.7453C186.856 71.4592 186.606 70.5136 186.108 69.9048C185.607 69.294 184.875 68.9906 183.91 68.9906C183.028 68.9906 182.317 69.2823 181.778 69.8657C181.236 70.451 180.966 71.3515 180.966 72.5691V79.4287C180.968 79.608 180.896 79.78 180.766 79.9044C180.643 80.033 180.472 80.1053 180.293 80.1041H179.368C179.189 80.1053 179.018 80.033 178.895 79.9044C178.765 79.78 178.692 79.608 178.694 79.4287V72.7453C178.694 71.4592 178.444 70.5136 177.946 69.9048C177.446 69.294 176.715 68.9906 175.75 68.9906C174.868 68.9906 174.156 69.2823 173.616 69.8657C173.075 70.451 172.805 71.3515 172.805 72.5691V79.4287C172.806 79.608 172.734 79.78 172.604 79.9044C172.481 80.033 172.31 80.1053 172.131 80.1041H171.206C171.027 80.1053 170.856 80.033 170.733 79.9044C170.603 79.78 170.531 79.608 170.533 79.4287V67.7612C170.533 67.5791 170.599 67.4206 170.733 67.2855C170.856 67.1569 171.027 67.0846 171.206 67.0858H172.131C172.314 67.0858 172.472 67.1524 172.604 67.2855C172.738 67.4206 172.805 67.5791 172.805 67.7612V68.5384V68.5403ZM199.072 80.3547C198.04 80.3547 197.217 80.1746 196.601 79.8163C195.986 79.4581 195.52 79.0685 195.203 78.6515V84.1838C195.205 84.3625 195.134 84.5345 195.006 84.6595C194.882 84.7891 194.709 84.8615 194.529 84.8592H193.606C193.427 84.8604 193.256 84.7881 193.133 84.6595C193.003 84.5351 192.931 84.3631 192.932 84.1838V67.7631C192.932 67.5811 192.999 67.4225 193.133 67.2874C193.256 67.1588 193.427 67.0865 193.606 67.0878H194.531C194.712 67.0878 194.872 67.1543 195.004 67.2874C195.138 67.4225 195.205 67.5811 195.205 67.7631V68.5403C195.537 68.0901 196.012 67.6927 196.626 67.3501C197.243 67.0095 198.058 66.8372 199.072 66.8372C199.853 66.8372 200.582 66.9742 201.257 67.2502C201.929 67.5243 202.518 67.9217 203.016 68.4405C203.514 68.9573 203.914 69.5818 204.213 70.3159C204.512 71.052 204.687 71.8761 204.737 72.7943C204.773 73.3359 204.773 73.8794 204.737 74.4211C204.687 75.3412 204.512 76.1653 204.213 76.8994C203.94 77.593 203.533 78.2268 203.016 78.7651C202.517 79.2731 201.917 79.673 201.255 79.9396C200.582 80.2157 199.853 80.3547 199.072 80.3547ZM195.205 72.5202C195.186 72.8494 195.177 73.1791 195.179 73.5088C195.179 73.918 195.187 74.2468 195.205 74.4974C195.254 75.6818 195.606 76.596 196.264 77.2381C196.922 77.8802 197.774 78.2013 198.824 78.2013C199.92 78.2013 200.787 77.8508 201.419 77.15C202.049 76.4492 202.399 75.4978 202.466 74.2958C202.482 73.8299 202.482 73.362 202.466 72.8941C202.399 71.6941 202.051 70.7407 201.419 70.0418C200.787 69.341 199.922 68.9906 198.822 68.9906C197.792 68.9906 196.943 69.3077 196.278 69.942C195.612 70.5763 195.254 71.4357 195.205 72.5202ZM207.919 67.7631C207.919 67.5811 207.986 67.4225 208.12 67.2874C208.243 67.1588 208.414 67.0865 208.592 67.0878H209.518C209.701 67.0878 209.858 67.1543 209.99 67.2874C210.124 67.4225 210.191 67.5811 210.191 67.7631V74.3721C210.191 75.6563 210.478 76.6156 211.051 77.2499C211.626 77.8841 212.461 78.2013 213.56 78.2013C214.607 78.2013 215.431 77.8841 216.031 77.2499C216.63 76.6156 216.929 75.6563 216.929 74.3721V67.7612C216.929 67.5791 216.996 67.4206 217.128 67.2855C217.251 67.1564 217.423 67.084 217.602 67.0858H218.528C218.709 67.0858 218.867 67.1524 219 67.2855C219.134 67.4206 219.199 67.5791 219.199 67.7612V79.4267C219.202 79.6054 219.131 79.7774 219.002 79.9024C218.878 80.0321 218.706 80.1045 218.526 80.1021H217.602C217.424 80.1034 217.253 80.0311 217.13 79.9024C217 79.7781 216.927 79.606 216.929 79.4267V78.6496C216.614 79.0665 216.163 79.4561 215.582 79.8144C214.999 80.1726 214.2 80.3527 213.186 80.3527C212.404 80.3527 211.689 80.2235 211.04 79.9651C210.41 79.7194 209.839 79.3437 209.366 78.8629C208.886 78.3628 208.52 77.765 208.295 77.1109C208.034 76.3498 207.908 75.5498 207.921 74.746V67.7612L207.919 67.7631ZM226.526 75.7229C226.526 76.04 226.554 76.3376 226.613 76.6117C226.672 76.8857 226.774 77.1246 226.924 77.3262C227.088 77.5369 227.31 77.6971 227.562 77.7882C227.836 77.8978 228.19 77.9507 228.621 77.9507H229.944C230.127 77.9507 230.285 78.0172 230.417 78.1523C230.551 78.2854 230.618 78.444 230.618 78.6261V79.4287C230.62 79.6077 230.548 79.7797 230.419 79.9044C230.295 80.0335 230.124 80.1059 229.944 80.1041H228.371C226.924 80.1041 225.876 79.7282 225.227 78.9765C224.577 78.2267 224.254 77.1422 224.254 75.7229V69.2412H222.407C222.228 69.2419 222.057 69.1689 221.934 69.0395C221.804 68.9152 221.732 68.7431 221.733 68.5638V67.7631C221.733 67.5811 221.8 67.4225 221.932 67.2874C222.056 67.1583 222.228 67.086 222.407 67.0878H224.254V63.008C224.254 62.824 224.321 62.6655 224.455 62.5323C224.578 62.4037 224.749 62.3314 224.927 62.3327H225.853C226.034 62.3327 226.193 62.3992 226.325 62.5323C226.459 62.6655 226.526 62.826 226.526 63.008V67.0878H229.696C229.877 67.0878 230.035 67.1543 230.169 67.2874C230.303 67.4225 230.368 67.5811 230.368 67.7631V68.5658C230.37 68.7438 230.299 68.915 230.171 69.0395C230.047 69.1699 229.874 69.243 229.694 69.2412H226.524V75.7229H226.526ZM232.703 72.344C232.768 71.5766 232.951 70.8601 233.25 70.1906C233.552 69.525 233.942 68.9397 234.424 68.4405C234.906 67.9393 235.485 67.5478 236.159 67.264C236.875 66.9717 237.643 66.8265 238.417 66.8372C239.315 66.8372 240.118 66.984 240.825 67.2757C241.534 67.5693 242.137 67.9883 242.637 68.5403C243.135 69.0904 243.517 69.758 243.783 70.543C244.049 71.326 244.182 72.2031 244.182 73.1701V73.8455C244.185 74.0245 244.113 74.1965 243.984 74.3212C243.86 74.4511 243.689 74.5241 243.509 74.5229H234.924V74.6716C234.958 75.8071 235.302 76.6782 235.96 77.287C236.615 77.8978 237.437 78.2013 238.417 78.2013C239.333 78.2013 240.018 78.0721 240.477 77.8136C240.934 77.5552 241.304 77.2655 241.587 76.9503C241.689 76.8418 241.806 76.7493 241.936 76.6763C242.078 76.6173 242.231 76.5906 242.385 76.598H243.133C243.32 76.599 243.499 76.6712 243.633 76.7996C243.776 76.9134 243.843 77.0967 243.808 77.2753C243.735 77.6301 243.591 77.9664 243.383 78.2639C243.114 78.6594 242.771 78.9996 242.373 79.2662C241.932 79.5736 241.383 79.8339 240.727 80.0414C240.069 80.2489 239.299 80.3547 238.417 80.3547C237.586 80.3547 236.836 80.2078 236.172 79.9161C235.519 79.6334 234.929 79.2249 234.436 78.7142C233.945 78.2052 233.55 77.6042 233.25 76.9131C232.945 76.1923 232.76 75.4265 232.703 74.6462C232.62 73.881 232.62 73.1092 232.703 72.344ZM234.924 72.4204H241.936V72.344C241.936 71.326 241.617 70.5136 240.975 69.9048C240.335 69.294 239.482 68.9906 238.417 68.9906C237.935 68.9906 237.486 69.0689 237.07 69.2275C236.663 69.3806 236.29 69.6106 235.972 69.9048C235.657 70.1965 235.406 70.5508 235.223 70.9678C235.036 71.4034 234.935 71.8705 234.924 72.344V72.4204ZM253.978 67.0878C254.162 67.0878 254.319 67.1543 254.451 67.2874C254.585 67.4225 254.652 67.5811 254.652 67.7631V68.5658C254.654 68.7441 254.582 68.9153 254.453 69.0395C254.33 69.1694 254.158 69.2424 253.978 69.2412H252.531C250.617 69.2412 249.66 70.2004 249.66 72.1189V79.4287C249.663 79.6077 249.591 79.7797 249.461 79.9044C249.338 80.0335 249.166 80.1059 248.987 80.1041H248.061C247.883 80.1053 247.712 80.033 247.589 79.9044C247.46 79.7797 247.388 79.6077 247.39 79.4287V67.7612C247.39 67.5791 247.457 67.4206 247.589 67.2855C247.712 67.1569 247.883 67.0846 248.061 67.0858H248.987C249.17 67.0858 249.328 67.1524 249.46 67.2855C249.593 67.4206 249.66 67.5791 249.66 67.7612V68.5384C249.995 68.0372 250.393 67.6692 250.859 67.4362C251.324 67.2013 251.933 67.0858 252.681 67.0858H253.978V67.0878ZM148.649 98.4001C148.659 98.1151 148.566 97.8358 148.387 97.6132C148.171 97.3754 147.902 97.191 147.601 97.0748C147.168 96.8973 146.722 96.7546 146.266 96.6481C145.64 96.4956 145.012 96.354 144.382 96.2233C143.035 95.9394 142.09 95.4676 141.55 94.8098C141.012 94.1581 140.724 93.3372 140.739 92.494C140.733 91.4858 141.17 90.5253 141.936 89.8649C142.336 89.5144 142.838 89.2384 143.446 89.0387C144.053 88.8391 144.766 88.7392 145.579 88.7392C146.396 88.7392 147.107 88.8312 147.713 89.0133C148.322 89.1973 148.832 89.4322 149.249 89.7161C149.663 89.9999 149.98 90.3034 150.196 90.6283C150.413 90.9553 150.531 91.2665 150.547 91.568C150.565 91.7473 150.495 91.9243 150.36 92.0437C150.231 92.1718 150.056 92.2436 149.873 92.2434H149.048C148.926 92.2394 148.805 92.2183 148.688 92.1807C148.531 92.1284 148.395 92.0276 148.3 91.893C148.044 91.5797 147.714 91.3348 147.339 91.1804C146.916 90.9885 146.329 90.8926 145.579 90.8926C144.815 90.8926 144.195 91.0336 143.72 91.3174C143.248 91.6013 143.009 91.9928 143.009 92.492C143.009 92.8111 143.076 93.0656 143.208 93.2555C143.377 93.4767 143.601 93.6502 143.858 93.7586C144.157 93.8995 144.553 94.0287 145.043 94.1462C145.536 94.2637 146.146 94.4046 146.878 94.571C147.642 94.7374 148.284 94.9508 148.8 95.2092C149.314 95.4676 149.732 95.7613 150.047 96.0862C150.362 96.4112 150.588 96.7714 150.722 97.1629C150.854 97.5544 150.919 97.9656 150.919 98.4001C150.919 98.9013 150.801 99.3848 150.559 99.8527C150.308 100.332 149.954 100.751 149.523 101.08C149.03 101.453 148.478 101.74 147.889 101.93C147.183 102.157 146.444 102.266 145.703 102.255C144.89 102.255 144.167 102.157 143.533 101.955C142.961 101.783 142.416 101.535 141.911 101.217C141.508 100.968 141.156 100.645 140.875 100.266C140.635 99.9232 140.505 99.6021 140.489 99.3026C140.47 99.1256 140.535 98.9499 140.664 98.8269C140.795 98.6945 140.976 98.6222 141.162 98.6272H142.06C142.161 98.6272 142.277 98.639 142.411 98.6644C142.543 98.6879 142.667 98.7838 142.785 98.9522C143.051 99.3183 143.417 99.6021 143.884 99.8018C144.348 100.003 144.957 100.103 145.705 100.103C146.071 100.103 146.433 100.062 146.79 99.978C147.148 99.8938 147.463 99.7783 147.739 99.6256C148.015 99.4769 148.233 99.2987 148.401 99.0892C148.561 98.8951 148.649 98.6515 148.649 98.4001ZM155.749 96.374C155.816 97.0396 155.962 97.6073 156.186 98.0771C156.411 98.5431 156.686 98.9268 157.011 99.2263C157.334 99.5277 157.696 99.749 158.094 99.8919C158.496 100.033 158.901 100.103 159.319 100.103C160.118 100.103 160.8 99.9526 161.367 99.653C161.932 99.3516 162.371 98.8504 162.688 98.1515C162.806 97.8833 162.924 97.7052 163.05 97.6132C163.185 97.5187 163.346 97.4706 163.511 97.4761H164.259C164.444 97.4761 164.606 97.5407 164.747 97.6758C164.889 97.8089 164.95 97.9675 164.935 98.1515C164.9 98.6111 164.768 99.0582 164.547 99.4632C164.28 99.9718 163.915 100.423 163.474 100.792C163.001 101.2 162.418 101.546 161.727 101.83C161.038 102.114 160.234 102.255 159.319 102.255C158.485 102.27 157.657 102.117 156.885 101.804C156.208 101.524 155.596 101.107 155.089 100.579C154.591 100.049 154.201 99.4284 153.941 98.7506C153.663 98.0308 153.506 97.27 153.479 96.4993C153.46 96.17 153.447 95.8404 153.441 95.5107C153.433 95.1191 153.445 94.7805 153.481 94.4966C153.546 93.694 153.717 92.9442 153.991 92.2453C154.266 91.5425 154.644 90.9337 155.127 90.4169C155.609 89.8981 156.2 89.4909 156.899 89.1895C157.596 88.89 158.403 88.7392 159.319 88.7392C160.234 88.7392 161.036 88.8802 161.727 89.164C162.416 89.4479 163.001 89.7944 163.474 90.2035C163.948 90.6127 164.306 91.0551 164.547 91.5308C164.789 92.0065 164.917 92.4431 164.935 92.8424C164.953 93.0223 164.884 93.2003 164.747 93.3201C164.618 93.4482 164.443 93.52 164.261 93.5198H163.513C163.348 93.5257 163.185 93.4776 163.05 93.3827C162.926 93.2907 162.804 93.1106 162.688 92.8444C162.373 92.1435 161.932 91.6424 161.365 91.3429C160.8 91.0414 160.118 90.8926 159.319 90.8926C158.903 90.8926 158.492 90.9631 158.084 91.104C157.675 91.247 157.301 91.4738 156.986 91.7696C156.661 92.0692 156.387 92.4529 156.162 92.9188C155.92 93.4561 155.78 94.0336 155.749 94.6219C155.699 95.2049 155.699 95.791 155.749 96.374ZM170.387 101.329C170.389 101.508 170.317 101.68 170.188 101.804C170.065 101.934 169.894 102.007 169.715 102.006H168.79C168.611 102.007 168.44 101.934 168.317 101.804C168.187 101.68 168.115 101.508 168.117 101.329V89.6671C168.117 89.4831 168.183 89.3245 168.315 89.1914C168.439 89.0623 168.611 88.99 168.79 88.9917H169.715C169.897 88.9917 170.054 89.0583 170.188 89.1914C170.322 89.3245 170.387 89.4851 170.387 89.6671V101.331V101.329ZM170.637 86.3372C170.639 86.5155 170.567 86.6867 170.438 86.8109C170.315 86.9408 170.143 87.0138 169.963 87.0126H168.54C168.361 87.0133 168.19 86.9403 168.067 86.8109C167.938 86.687 167.865 86.5158 167.866 86.3372V84.9081C167.866 84.7261 167.933 84.5675 168.067 84.4344C168.19 84.3057 168.361 84.2335 168.54 84.2347H169.963C170.147 84.2347 170.304 84.3013 170.436 84.4344C170.57 84.5675 170.637 84.7261 170.637 84.9101V86.3372ZM173.718 94.246C173.785 93.4786 173.968 92.7602 174.27 92.0926C174.567 91.4271 174.959 90.8417 175.441 90.3406C175.924 89.8414 176.503 89.4479 177.174 89.166C177.891 88.8734 178.66 88.7283 179.435 88.7392C180.332 88.7392 181.136 88.886 181.843 89.1777C182.552 89.4694 183.152 89.8903 183.652 90.4404C184.15 90.9925 184.534 91.66 184.8 92.4431C185.066 93.2281 185.2 94.1031 185.2 95.0722V95.7476C185.202 95.9268 185.129 96.0989 184.999 96.2233C184.876 96.3519 184.705 96.4242 184.526 96.4229H175.941V96.5737C175.973 97.7091 176.32 98.5802 176.975 99.1891C177.633 99.7979 178.452 100.103 179.435 100.103C180.35 100.103 181.035 99.9741 181.494 99.7157C181.951 99.4573 182.321 99.1675 182.605 98.8524C182.706 98.7431 182.823 98.65 182.953 98.5763C183.095 98.5188 183.249 98.4933 183.402 98.5019H184.15C184.337 98.5025 184.516 98.574 184.651 98.7016C184.793 98.8155 184.861 98.9987 184.826 99.1773C184.753 99.5321 184.608 99.8684 184.4 100.166C184.131 100.561 183.788 100.9 183.39 101.166C182.949 101.476 182.4 101.734 181.742 101.943C181.087 102.151 180.317 102.257 179.435 102.257C178.602 102.257 177.853 102.11 177.19 101.818C176.537 101.535 175.947 101.127 175.453 100.616C174.963 100.107 174.567 99.5062 174.268 98.8152C173.961 98.0945 173.776 97.3287 173.718 96.5482C173.635 95.7831 173.635 95.0112 173.718 94.246ZM175.939 94.3204H182.953V94.246C182.953 93.2281 182.632 92.4137 181.992 91.8049C181.352 91.198 180.5 90.8926 179.433 90.8926C178.952 90.8926 178.503 90.9709 178.086 91.1295C177.68 91.2822 177.307 91.5116 176.989 91.8049C176.674 92.0985 176.424 92.4509 176.241 92.8698C176.053 93.3053 175.951 93.7724 175.939 94.246V94.3204ZM199.936 101.329C199.938 101.508 199.866 101.68 199.737 101.804C199.615 101.934 199.444 102.007 199.265 102.006H198.339C198.16 102.007 197.989 101.934 197.867 101.804C197.737 101.68 197.664 101.508 197.666 101.329V94.7217C197.666 93.4375 197.359 92.4763 196.742 91.844C196.126 91.2098 195.27 90.8926 194.171 90.8926C193.123 90.8926 192.281 91.2098 191.639 91.8421C190.999 92.4763 190.678 93.4375 190.678 94.7198V101.329C190.68 101.508 190.608 101.68 190.479 101.804C190.356 101.934 190.184 102.007 190.004 102.006H189.079C188.9 102.007 188.729 101.934 188.606 101.804C188.477 101.68 188.405 101.508 188.407 101.329V89.6671C188.407 89.4831 188.472 89.3245 188.604 89.1914C188.728 89.0618 188.901 88.9894 189.081 88.9917H190.004C190.187 88.9917 190.345 89.0583 190.477 89.1914C190.611 89.3245 190.678 89.4851 190.678 89.6671V90.4424C190.993 90.0254 191.465 89.6397 192.088 89.2795C192.712 88.9213 193.531 88.7412 194.547 88.7412C195.329 88.7412 196.051 88.8704 196.717 89.1288C197.382 89.3872 197.953 89.7552 198.428 90.2309C198.9 90.7066 199.271 91.2939 199.538 91.9948C199.804 92.6956 199.936 93.4806 199.936 94.3478V101.331V101.329ZM205.414 96.374C205.481 97.0396 205.627 97.6073 205.851 98.0771C206.076 98.5431 206.351 98.9268 206.676 99.2263C206.999 99.5277 207.361 99.749 207.759 99.8919C208.161 100.033 208.566 100.103 208.984 100.103C209.783 100.103 210.465 99.9526 211.032 99.653C211.597 99.3516 212.036 98.8504 212.353 98.1515C212.471 97.8833 212.589 97.7052 212.715 97.6132C212.85 97.5187 213.012 97.4706 213.176 97.4761H213.924C214.109 97.4761 214.271 97.5407 214.413 97.6758C214.554 97.8089 214.615 97.9675 214.6 98.1515C214.565 98.6111 214.433 99.0582 214.212 99.4632C213.945 99.9718 213.58 100.423 213.139 100.792C212.666 101.2 212.083 101.546 211.392 101.83C210.703 102.114 209.9 102.255 208.984 102.255C208.15 102.27 207.322 102.117 206.55 101.804C205.873 101.524 205.261 101.107 204.754 100.579C204.256 100.049 203.866 99.4284 203.606 98.7506C203.328 98.0308 203.171 97.27 203.144 96.4993C203.125 96.17 203.112 95.8404 203.106 95.5107C203.098 95.1191 203.11 94.7805 203.146 94.4966C203.211 93.694 203.382 92.9442 203.656 92.2453C203.931 91.5425 204.309 90.9337 204.792 90.4169C205.274 89.8981 205.865 89.4909 206.564 89.1895C207.261 88.89 208.068 88.7392 208.984 88.7392C209.9 88.7392 210.701 88.8802 211.392 89.164C212.081 89.4479 212.666 89.7944 213.139 90.2035C213.613 90.6127 213.971 91.0551 214.212 91.5308C214.454 92.0065 214.582 92.4431 214.6 92.8424C214.619 93.0223 214.549 93.2003 214.413 93.3201C214.284 93.4482 214.109 93.52 213.926 93.5198H213.178C213.013 93.5257 212.85 93.4776 212.715 93.3827C212.589 93.2907 212.469 93.1106 212.353 92.8444C212.038 92.1435 211.597 91.6424 211.03 91.3429C210.465 91.0414 209.783 90.8926 208.984 90.8926C208.568 90.8926 208.157 90.9631 207.749 91.104C207.34 91.247 206.966 91.4738 206.651 91.7696C206.326 92.0692 206.052 92.4529 205.828 92.9188C205.585 93.4561 205.445 94.0336 205.414 94.6219C205.364 95.2049 205.364 95.791 205.414 96.374ZM217.183 94.246C217.248 93.4786 217.431 92.7602 217.732 92.0926C218.032 91.4271 218.422 90.8417 218.904 90.3406C219.386 89.8414 219.965 89.4479 220.639 89.166C221.355 88.8737 222.123 88.7285 222.897 88.7392C223.797 88.7392 224.598 88.886 225.305 89.1777C226.014 89.4694 226.617 89.8903 227.117 90.4404C227.615 90.9925 227.997 91.66 228.263 92.4431C228.531 93.2281 228.663 94.1031 228.663 95.0722V95.7476C228.665 95.9265 228.593 96.0986 228.464 96.2233C228.34 96.3524 228.168 96.4247 227.989 96.4229H219.404V96.5737C219.438 97.7091 219.782 98.5802 220.44 99.1891C221.097 99.7979 221.917 100.103 222.897 100.103C223.813 100.103 224.5 99.9741 224.957 99.7157C225.414 99.4573 225.784 99.1675 226.067 98.8524C226.169 98.7431 226.286 98.65 226.416 98.5763C226.559 98.5185 226.713 98.493 226.867 98.5019H227.615C227.801 98.503 227.979 98.5744 228.113 98.7016C228.256 98.8155 228.323 98.9987 228.288 99.1773C228.216 99.5319 228.072 99.8683 227.865 100.166C227.595 100.561 227.252 100.9 226.853 101.166C226.412 101.476 225.863 101.734 225.207 101.943C224.549 102.151 223.779 102.257 222.897 102.257C222.066 102.257 221.316 102.11 220.652 101.818C220 101.535 219.411 101.127 218.918 100.616C218.425 100.107 218.032 99.5062 217.732 98.8152C217.425 98.0946 217.239 97.3288 217.181 96.5482C217.098 95.7831 217.098 95.0112 217.181 94.246H217.183ZM219.404 94.3204H226.416V94.246C226.416 93.2281 226.097 92.4137 225.455 91.8049C224.815 91.198 223.962 90.8926 222.897 90.8926C222.415 90.8926 221.966 90.9709 221.55 91.1295C221.144 91.282 220.771 91.5114 220.452 91.8049C220.137 92.0985 219.886 92.4509 219.703 92.8698C219.516 93.3054 219.415 93.7725 219.404 94.246V94.3204ZM89.4632 118L51.0256 95.775L51 51.272L89.414 29L127.85 51.227L127.877 95.728L89.4632 118ZM118.892 58.7815C117.284 58.7815 115.98 60.0892 115.98 61.6984C115.98 63.3134 117.284 64.6211 118.894 64.6211C120.499 64.6211 121.803 63.3134 121.803 61.6984C121.803 60.0892 120.499 58.7815 118.894 58.7815H118.892ZM107.244 58.7815C105.637 58.7815 104.335 60.0892 104.335 61.6984C104.335 63.3134 105.635 64.6211 107.244 64.6211C108.854 64.6211 110.156 63.3134 110.156 61.6984C110.156 60.0892 108.854 58.7815 107.244 58.7815ZM118.892 70.7857C117.284 70.7857 115.982 72.0934 115.982 73.7046C115.982 75.3177 117.282 76.6234 118.892 76.6234C120.499 76.6234 121.803 75.3177 121.803 73.7065C121.803 72.0934 120.499 70.7857 118.892 70.7857ZM83.9519 70.7857C82.3432 70.7857 81.0377 72.0934 81.0377 73.7046C81.0377 75.3177 82.3432 76.6234 83.9519 76.6234C85.5606 76.6234 86.8661 75.3177 86.8661 73.7065C86.8661 72.0934 85.5606 70.7857 83.9519 70.7857ZM107.246 70.7857H95.5968C93.9861 70.7857 92.6865 72.0934 92.6865 73.7046C92.6865 75.3177 93.9861 76.6234 95.5968 76.6234H107.246C108.85 76.6234 110.154 75.3177 110.154 73.7065C110.154 72.0934 108.85 70.7857 107.246 70.7857ZM72.305 70.7857H60.6562C59.0514 70.7857 57.7459 72.0934 57.7459 73.7046C57.7459 75.3177 59.0514 76.6234 60.6562 76.6234H72.305C73.9117 76.6234 75.2153 75.3177 75.2153 73.7065C75.2153 72.0934 73.9117 70.7857 72.305 70.7857ZM118.896 82.788C117.286 82.788 115.982 84.0957 115.982 85.7068C115.982 87.3219 117.286 88.6276 118.896 88.6276C120.499 88.6276 121.803 87.3219 121.803 85.7068C121.803 84.0957 120.499 82.79 118.896 82.79V82.788ZM107.246 88.6276C108.854 88.6276 110.156 87.3219 110.156 85.7068C110.156 84.0957 108.854 82.79 107.246 82.79C105.637 82.79 104.333 84.0957 104.333 85.7068C104.333 87.3219 105.637 88.6276 107.248 88.6276H107.246ZM95.5987 88.6276C97.2094 88.6276 98.5129 87.3219 98.5129 85.7068C98.5129 84.0957 97.2094 82.79 95.5987 82.79C93.99 82.79 92.6905 84.0957 92.6905 85.7068C92.6905 87.3219 93.99 88.6276 95.5987 88.6276Z" fill="black"/>
</svg>
