<svg width="304px" height="146px" viewBox="0 0 304 146" version="1.1" xmlns="http://www.w3.org/2000/svg">
  <rect id="Rectangle" fill="#FFC000" x="0" y="0" width="304" height="146"></rect>
  <path d="M159.037365,71.8975497 L153.531737,71.8975497 C152.966946,71.8975497 152.622036,72.2609768 152.622036,72.8253577 L152.622036,79.3071863 C152.622036,79.8672916 152.966946,80.2093406 153.531737,80.2093406 L157.808623,80.2093406 L159.947066,78.041605 L159.947066,72.8253577 C159.947066,72.2652524 159.602156,71.8975497 159.037365,71.8975497 L159.037365,71.8975497 Z" id="Path" fill="#120540"></path>
  <path d="M129,63 L129,89 L255,89 L255,63 L129,63 Z M217.870419,71.3630982 L219.073293,70.1702023 C219.198323,70.0462095 219.319042,69.9991778 219.491497,69.9991778 L222.513772,69.9991778 C222.686228,69.9991778 222.785389,70.1231705 222.785389,70.2685414 L222.785389,71.6324618 C222.785389,71.7778326 222.686228,71.9018254 222.513772,71.9018254 L218.064431,71.9018254 C217.745389,71.9018254 217.620359,71.6110837 217.866108,71.3673738 L217.870419,71.3630982 Z M147.931257,78.1399441 L144.098443,81.9409637 C143.977725,82.0649564 143.852695,82.1119882 143.654371,82.1119882 L137.165749,82.1119882 C136.993293,82.1119882 136.846707,82.0649564 136.721677,81.9409637 L134.044311,79.2858083 C133.923593,79.1660911 133.871856,79.0164447 133.871856,78.8454202 L133.871856,69.6827824 C133.871856,69.4861043 133.94515,69.3663871 134.07018,69.2423943 L138.127186,65.2190429 C138.247904,65.0950502 138.372934,65.0480184 138.571257,65.0480184 L144.568383,65.0480184 C144.740838,65.0480184 144.887425,65.0950502 145.012455,65.2190429 L147.68982,67.8741983 C147.81485,67.9981911 147.862275,68.1435619 147.862275,68.3145864 L147.888144,70.3626048 C147.888144,70.5336293 147.767425,70.6319684 147.616527,70.6319684 L146.241198,70.6319684 C146.094611,70.6319684 145.969581,70.5336293 145.969581,70.3626048 L145.969581,67.8528203 C145.969581,67.292715 145.603114,66.950666 145.034012,66.950666 L139.036886,66.950666 L135.794731,70.1659267 L135.794731,79.3071863 C135.794731,79.8672916 136.139641,80.2093406 136.730299,80.2093406 L143.193054,80.2093406 L146.586108,76.8444335 C146.711138,76.7204407 146.831856,76.6990627 146.978443,76.8187798 L147.935569,77.7679658 C148.034731,77.8876829 148.034731,78.0373294 147.935569,78.1313929 L147.931257,78.1399441 Z M161.865629,78.5290248 C161.865629,78.725703 161.792335,78.8454202 161.667305,78.990791 L158.692455,81.91531 C158.567425,82.0606808 158.420838,82.1119882 158.226826,82.1119882 L154.001677,82.1119882 C153.829222,82.1119882 153.682635,82.0649564 153.557605,81.9409637 L150.88024,79.2858083 C150.759521,79.1660911 150.707784,79.0164447 150.707784,78.8454202 L150.707784,73.2657458 C150.707784,73.0947213 150.75521,72.9493504 150.88024,72.8253577 L153.557605,70.1702023 C153.678323,70.0462095 153.829222,69.9991778 154.001677,69.9991778 L158.571737,69.9991778 C158.744192,69.9991778 158.890778,70.0462095 159.015808,70.1702023 L161.693174,72.8253577 C161.813892,72.9493504 161.865629,73.0690676 161.865629,73.2657458 L161.865629,78.5290248 L161.865629,78.5290248 Z M166.634012,81.8426246 C166.634012,82.0136491 166.53485,82.1119882 166.388263,82.1119882 L165.012934,82.1119882 C164.840479,82.1119882 164.741317,82.0136491 164.741317,81.8426246 L164.741317,70.2642657 C164.741317,70.1188949 164.840479,69.9949022 165.012934,69.9949022 L166.388263,69.9949022 C166.53485,69.9949022 166.634012,70.1188949 166.634012,70.2642657 L166.634012,81.8426246 Z M174.622994,81.8426246 C174.622994,82.0136491 174.502275,82.1119882 174.351377,82.1119882 L172.976048,82.1119882 C172.829461,82.1119882 172.704431,82.0136491 172.704431,81.8426246 L172.704431,72.8253577 C172.704431,72.2652524 172.359521,71.8975497 171.768862,71.8975497 L167.565269,71.8975497 C167.246228,71.8975497 167.099641,71.6068081 167.345389,71.3630982 L168.548263,70.1702023 C168.69485,70.0462095 168.81988,69.9991778 168.992335,69.9991778 L171.32479,69.9991778 C171.497246,69.9991778 171.643832,70.0462095 171.768862,70.1702023 L174.446228,72.8253577 C174.566946,72.9493504 174.618683,73.0947213 174.618683,73.2657458 L174.618683,81.8426246 L174.622994,81.8426246 Z M182.586108,81.8426246 C182.586108,82.0136491 182.486946,82.1119882 182.314491,82.1119882 L180.960719,82.1119882 C180.788263,82.1119882 180.689102,82.0136491 180.689102,81.8426246 L180.689102,72.8253577 C180.689102,72.2652524 180.322635,71.8975497 179.753533,71.8975497 L174.467784,71.8975497 C174.148743,71.8975497 174.023713,71.6068081 174.269461,71.3630982 L175.472335,70.1702023 C175.597365,70.0462095 175.718084,69.9991778 175.890539,69.9991778 L179.30515,69.9991778 C179.477605,69.9991778 179.598323,70.0462095 179.723353,70.1702023 L182.400719,72.8253577 C182.525749,72.9493504 182.573174,73.0947213 182.573174,73.2657458 L182.573174,81.8426246 L182.586108,81.8426246 Z M197.085269,78.8454202 C197.085269,79.0420983 197.037844,79.1618155 196.912814,79.2858083 L194.235449,81.9409637 C194.110419,82.0649564 193.963832,82.1119882 193.791377,82.1119882 L189.587784,82.1119882 C189.389461,82.1119882 189.268743,82.0649564 189.143713,81.9409637 L187.815808,80.624075 L187.815808,86.7168229 C187.815808,86.8878474 187.716647,86.9861865 187.57006,86.9861865 L186.194731,86.9861865 C186.022275,86.9861865 185.923114,86.8878474 185.923114,86.7168229 L185.923114,70.2685414 C185.923114,70.1231705 186.022275,69.9991778 186.194731,69.9991778 L187.57006,69.9991778 C187.716647,69.9991778 187.815808,70.1231705 187.815808,70.2685414 L187.815808,79.33284 C187.815808,79.9656307 188.160719,80.2093406 188.751377,80.2093406 L194.231138,80.2093406 C194.821796,80.2093406 195.166707,79.8672916 195.166707,79.3071863 L195.166707,72.8253577 C195.166707,72.2652524 194.821796,71.8975497 194.231138,71.8975497 L188.725509,71.8975497 C188.406467,71.8975497 188.25988,71.6068081 188.505629,71.3630982 L189.708503,70.1702023 C189.85509,70.0462095 189.98012,69.9991778 190.152575,69.9991778 L193.791377,69.9991778 C193.963832,69.9991778 194.110419,70.0462095 194.235449,70.1702023 L196.912814,72.8253577 C197.037844,72.9493504 197.085269,73.0690676 197.085269,73.2657458 L197.085269,78.8454202 L197.085269,78.8454202 Z M208.342275,80.7480678 L207.139401,81.9409637 C207.014371,82.0863345 206.893653,82.1119882 206.695329,82.1119882 L203.673054,82.1119882 C203.474731,82.1119882 203.354012,82.0649564 203.228982,81.9409637 L200.551617,79.2858083 C200.426587,79.1660911 200.379162,79.0164447 200.379162,78.8454202 L200.379162,70.2685414 C200.379162,70.1231705 200.478323,69.9991778 200.650778,69.9991778 L202.026108,69.9991778 C202.172695,69.9991778 202.271856,70.1231705 202.271856,70.2685414 L202.271856,79.3114619 C202.271856,79.8715672 202.638323,80.2136162 203.207425,80.2136162 L208.148263,80.2136162 C208.467305,80.2136162 208.592335,80.5043578 208.346587,80.7480678 L208.342275,80.7480678 Z M210.946347,81.8469002 C210.946347,82.0179247 210.847186,82.1162638 210.700599,82.1162638 L209.325269,82.1162638 C209.152814,82.1162638 209.053653,82.0179247 209.053653,81.8469002 L209.053653,70.2685414 C209.053653,70.1231705 209.152814,69.9991778 209.325269,69.9991778 L210.700599,69.9991778 C210.847186,69.9991778 210.946347,70.1231705 210.946347,70.2685414 L210.946347,81.8469002 Z M223.035449,78.9694129 L220.086467,81.9195856 C219.93988,82.0649564 219.81485,82.1162638 219.620838,82.1162638 L218.590419,82.1162638 C218.392096,82.1162638 218.271377,82.069232 218.146347,81.9452393 L215.468982,79.2900839 C215.322395,79.144713 215.270659,79.0207203 215.270659,78.8496958 L215.270659,71.9018254 L213.649581,71.9018254 C213.502994,71.9018254 213.377964,71.7821082 213.377964,71.6324618 L213.377964,70.2685414 C213.377964,70.1231705 213.498683,69.9991778 213.649581,69.9991778 L215.270659,69.9991778 L215.270659,67.1216905 C215.270659,66.9763197 215.395689,66.8523269 215.542275,66.8523269 L216.917605,66.8523269 C217.064192,66.8523269 217.189222,66.9763197 217.189222,67.1216905 L217.189222,79.3071863 C217.189222,79.8672916 217.534132,80.2093406 218.098922,80.2093406 L219.15521,80.2093406 L221.711856,77.6739023 C221.836886,77.5499096 222.00503,77.5499096 222.104192,77.6739023 L223.03976,78.5760566 C223.160479,78.7000493 223.160479,78.8454202 223.03976,78.9651373 L223.035449,78.9694129 Z M237.267305,73.5992435 C237.267305,73.770268 237.21988,73.8899852 237.068982,74.0610097 L234.145868,76.938497 C234.02515,77.0838678 233.874251,77.1351751 233.68024,77.1351751 L230.386347,77.1351751 C230.213892,77.1351751 230.093174,77.0881434 229.942275,76.9641506 L228.760958,75.7712547 C228.51521,75.5275448 228.635928,75.2368032 228.959281,75.2368032 L233.43018,75.2368032 L235.348743,73.3341556 L235.348743,72.799704 C235.348743,72.2395988 235.003832,71.8718961 234.439042,71.8718961 L228.933413,71.8718961 C228.368623,71.8718961 228.023713,72.2353231 228.023713,72.799704 L228.023713,79.2815326 C228.023713,79.8416379 228.368623,80.1836869 228.933413,80.1836869 L234.365749,80.1836869 C234.930539,80.1836869 235.301317,79.8416379 235.301317,79.2815326 L235.301317,77.9902976 C235.301317,77.8449268 235.400479,77.7209341 235.572934,77.7209341 L236.948263,77.7209341 C237.09485,77.7209341 237.21988,77.8449268 237.21988,77.9902976 L237.21988,78.8197665 C237.21988,78.990791 237.172455,79.1105081 237.021557,79.2601546 L234.344192,81.91531 C234.223473,82.0393027 234.098443,82.0863345 233.90012,82.0863345 L229.403353,82.0863345 C229.230898,82.0863345 229.084311,82.0393027 228.959281,81.91531 L226.281916,79.2601546 C226.161198,79.1361618 226.109461,79.0164447 226.109461,78.8454202 L226.109461,73.2400921 C226.109461,73.0690676 226.156886,72.9493504 226.307784,72.799704 L228.98515,70.1445486 C229.105868,70.0205558 229.230898,69.9735241 229.429222,69.9735241 L233.973413,69.9735241 C234.145868,69.9735241 234.292455,70.0205558 234.417485,70.1445486 L237.09485,72.799704 C237.215569,72.9194211 237.267305,73.0434139 237.267305,73.2144384 L237.267305,73.6035192 L237.267305,73.5992435 Z M242.354731,81.8126953 C242.354731,81.9837198 242.255569,82.0820589 242.108982,82.0820589 L240.733653,82.0820589 C240.561198,82.0820589 240.462036,81.9837198 240.462036,81.8126953 L240.462036,70.2343365 C240.462036,70.0889656 240.561198,69.9649729 240.733653,69.9649729 L242.108982,69.9649729 C242.255569,69.9649729 242.354731,70.0889656 242.354731,70.2343365 L242.354731,81.8126953 Z M249.580599,75.3778984 C249.580599,75.5232692 249.45988,75.647262 249.308982,75.647262 L247.933653,75.647262 C247.761198,75.647262 247.662036,75.5275448 247.662036,75.3778984 L247.662036,72.7954284 C247.662036,72.2353231 247.291257,71.8676205 246.726467,71.8676205 L243.26012,71.8676205 C242.941078,71.8676205 242.816048,71.5768788 243.061796,71.3331689 L244.243114,70.140273 C244.389701,70.0162802 244.514731,69.9692485 244.687186,69.9692485 L246.286707,69.9692485 C246.459162,69.9692485 246.57988,70.0162802 246.730778,70.140273 L249.386587,72.7954284 C249.533174,72.9151455 249.58491,73.064792 249.58491,73.2358165 L249.58491,75.382174 L249.580599,75.3778984 Z" id="Shape" fill="#120540"></path>
  <path d="M200.793267,100.078023 C200.981859,97.7109885 202.362012,96.3632715 204.64655,96.3632715 C206.691062,96.3632715 207.976919,97.736578 208.096932,100.078023 L200.793267,100.078023 Z M204.64655,106.99147 C207.526869,106.99147 209.451368,105.524335 209.927135,103.417461 C209.952852,103.323633 209.879987,103.251129 209.738542,103.251129 L208.216946,103.251129 C208.096932,103.251129 208.028353,103.298043 208.002636,103.417461 C207.599734,104.624436 206.408174,105.383593 204.64655,105.383593 C202.314864,105.383593 200.934711,103.937782 200.793267,101.549423 L209.811408,101.549423 C209.931421,101.549423 210,101.476919 210,101.361766 L210,100.888359 C210,97.0755143 207.976919,94.7553939 204.64655,94.7553939 C201.076155,94.7553939 198.770186,97.1480181 198.770186,100.888359 C198.770186,104.6287 201.054724,106.995735 204.64655,106.995735 M191.989436,106.995735 C194.822606,106.995735 196.794253,105.434772 197.248589,103.114651 C197.27002,102.995233 197.175724,102.948319 197.059997,102.948319 L195.5384,102.948319 C195.418386,102.948319 195.349807,102.995233 195.32409,103.114651 C194.874041,104.65429 193.755345,105.387858 191.993722,105.387858 C189.567739,105.387858 188.09329,103.707476 188.09329,100.888359 C188.09329,98.0692423 189.567739,96.3675364 191.993722,96.3675364 C193.708197,96.3675364 194.848323,97.1480181 195.204077,98.6407426 C195.251225,98.7814852 195.298373,98.8283994 195.418386,98.8283994 L196.965701,98.8283994 C197.085714,98.8283994 197.18001,98.7558956 197.154293,98.615153 C196.751391,96.2950326 194.749741,94.7553939 191.989436,94.7553939 C188.444758,94.7553939 186.087354,97.2162569 186.087354,100.888359 C186.087354,104.560462 188.39761,106.995735 191.989436,106.995735 M174.051736,106.876317 L175.66763,106.876317 C175.761926,106.876317 175.834791,106.803813 175.834791,106.68866 L175.834791,100.035374 C175.834791,97.6683392 176.953486,96.4357752 179.045146,96.4357752 C181.136806,96.4357752 182.114057,97.5958354 182.114057,100.035374 L182.114057,106.68866 C182.114057,106.808078 182.186922,106.876317 182.302649,106.876317 L183.897112,106.876317 C184.017125,106.876317 184.085704,106.803813 184.085704,106.68866 L184.085704,100.035374 C184.085704,96.5765178 182.564107,94.7553939 179.778084,94.7553939 C178.016461,94.7553939 176.662025,95.5358756 175.830505,96.9560963 L175.75764,96.9560963 L175.75764,95.0624686 C175.75764,94.9430507 175.684774,94.8748118 175.569047,94.8748118 L174.04745,94.8748118 C173.953154,94.8748118 173.880289,94.9473156 173.880289,95.0624686 L173.880289,106.68866 C173.880289,106.808078 173.953154,106.876317 174.04745,106.876317 M162.436165,100.082288 C162.624758,97.7152534 164.00491,96.3675364 166.289449,96.3675364 C168.333961,96.3675364 169.619818,97.740843 169.739831,100.082288 L162.436165,100.082288 Z M166.289449,106.995735 C169.169768,106.995735 171.094266,105.5286 171.570033,103.421726 C171.59575,103.327898 171.522885,103.255394 171.381441,103.255394 L169.859844,103.255394 C169.739831,103.255394 169.671252,103.302308 169.645535,103.421726 C169.242633,104.6287 168.051073,105.387858 166.289449,105.387858 C163.957762,105.387858 162.57761,103.942047 162.436165,101.553688 L171.454306,101.553688 C171.57432,101.553688 171.642899,101.481184 171.642899,101.366031 L171.642899,100.892624 C171.642899,97.0797792 169.619818,94.7596588 166.289449,94.7596588 C162.719054,94.7596588 160.413084,97.152283 160.413084,100.892624 C160.413084,104.632965 162.697623,107 166.289449,107 M155.985452,92.2732062 C155.985452,92.3670346 156.058317,92.4395384 156.174044,92.4395384 L158.26999,92.4395384 C158.364286,92.4395384 158.437152,92.3670346 158.437152,92.2732062 L158.437152,90.1876568 C158.437152,90.0682388 158.364286,90 158.26999,90 L156.174044,90 C156.054031,90 155.985452,90.0725038 155.985452,90.1876568 L155.985452,92.2732062 Z M156.388353,106.880582 L158.004247,106.880582 C158.098543,106.880582 158.171408,106.808078 158.171408,106.692925 L158.171408,95.0667336 C158.171408,94.9473156 158.098543,94.8790768 158.004247,94.8790768 L156.388353,94.8790768 C156.294057,94.8790768 156.221192,94.9515805 156.221192,95.0667336 L156.221192,106.692925 C156.221192,106.812343 156.294057,106.880582 156.388353,106.880582 M148.728934,107 C151.557819,107 153.533752,105.439037 153.988088,103.118916 C154.009519,102.999498 153.915223,102.952584 153.795209,102.952584 L152.273612,102.952584 C152.153599,102.952584 152.08502,102.999498 152.059303,103.118916 C151.609253,104.658555 150.490558,105.392122 148.728934,105.392122 C146.302952,105.392122 144.828503,103.711741 144.828503,100.892624 C144.828503,98.0735073 146.302952,96.3718013 148.728934,96.3718013 C150.44341,96.3718013 151.583536,97.152283 151.93929,98.6450075 C151.986438,98.7857501 152.033586,98.8326643 152.153599,98.8326643 L153.700913,98.8326643 C153.820926,98.8326643 153.915223,98.7601606 153.889505,98.619418 C153.486604,96.2992975 151.484954,94.7596588 148.728934,94.7596588 C145.184257,94.7596588 142.826853,97.2205218 142.826853,100.892624 C142.826853,104.564727 145.132822,107 148.728934,107 M135.356026,107 C138.879273,107 141.090946,105.22579 141.090946,102.33417 C141.090946,99.6600602 139.852238,98.380582 136.500438,97.7664325 L134.738815,97.4593578 C132.334263,96.9859508 131.361298,96.1798796 131.361298,94.5464124 C131.361298,92.9129453 132.621438,91.8936277 134.858828,91.8936277 C137.096219,91.8936277 138.382075,92.8660311 138.690681,94.8278976 C138.737829,94.9942298 138.810694,95.0155544 138.90499,95.0155544 L140.520883,95.0155544 C140.640897,95.0155544 140.735193,94.9430507 140.709476,94.8278976 C140.353722,91.9149523 138.189197,90.1876568 134.854542,90.1876568 C131.519887,90.1876568 129.333931,91.8936277 129.333931,94.687155 C129.333931,97.2418465 130.80838,98.6663322 134.0916,99.2804817 L135.853224,99.5875564 C138.279207,100.060963 139.042148,100.747617 139.042148,102.381084 C139.042148,104.202208 137.640565,105.294029 135.356026,105.294029 C132.762882,105.294029 131.40416,104.274711 131.001259,101.907677 C130.979828,101.766934 130.928393,101.72002 130.812666,101.72002 L129.171056,101.72002 C129.051043,101.72002 128.982464,101.792524 129.003895,101.933266 C129.432514,105.200201 131.691335,107 135.356026,107" id="Shape" fill="#120540"></path>
  <path d="M178.710502,56 C181.558365,56 183.540236,54.4103219 183.996928,52.0475217 C184.01847,51.925907 183.923685,51.8781298 183.807358,51.8781298 L182.27787,51.8781298 C182.157235,51.8781298 182.0883,51.925907 182.062449,52.0475217 C181.605757,53.6154829 180.485569,54.3625447 178.71481,54.3625447 C176.276247,54.3625447 174.794152,52.6512519 174.794152,49.7802759 C174.794152,46.9092999 176.276247,45.1762902 178.71481,45.1762902 C180.438177,45.1762902 181.584215,45.9711293 181.941814,47.4913132 C181.989206,47.6346449 182.036599,47.6824221 182.157235,47.6824221 L183.712573,47.6824221 C183.833208,47.6824221 183.927994,47.6085846 183.902143,47.4652529 C183.497152,45.1024527 181.485122,43.5344916 178.710502,43.5344916 C175.147442,43.5344916 172.777813,46.0406234 172.777813,49.7802759 C172.777813,53.5199285 175.095741,56 178.710502,56 M160.533296,49.7802759 C160.533296,46.9614205 162.015391,45.1762902 164.359169,45.1762902 C166.702947,45.1762902 168.210893,46.9831375 168.210893,49.7802759 C168.210893,52.5774144 166.728798,54.3625447 164.359169,54.3625447 C161.98954,54.3625447 160.533296,52.6034747 160.533296,49.7802759 M163.859393,56 C165.677544,56 167.301817,55.1096065 168.141958,53.6111395 L168.215201,53.6111395 L168.215201,54.4059785 C168.215201,55.3702095 168.78822,55.8783853 169.912717,55.8783853 L171.588691,55.8783853 C171.709326,55.8783853 171.778261,55.8045478 171.778261,55.6872764 L171.778261,54.4580991 C171.778261,54.3625447 171.705018,54.2887072 171.588691,54.2887072 L170.128138,54.2887072 L170.128138,43.8472151 C170.128138,43.7256004 170.054895,43.6561063 169.938567,43.6561063 L168.335837,43.6561063 C168.215201,43.6561063 168.146266,43.7299438 168.146266,43.8472151 L168.146266,45.9711293 L168.073023,45.9711293 C167.189798,44.4292284 165.63446,43.5344916 163.863701,43.5344916 C160.610847,43.5344916 158.529882,45.9928462 158.529882,49.7802759 C158.529882,53.5677057 160.610847,56 163.863701,56 M146.285364,49.7802759 C146.285364,46.9614205 147.767459,45.1762902 150.111238,45.1762902 C152.455016,45.1762902 153.962961,46.9831375 153.962961,49.7802759 C153.962961,52.5774144 152.480866,54.3625447 150.111238,54.3625447 C147.741609,54.3625447 146.285364,52.6034747 146.285364,49.7802759 M149.611461,56 C151.429613,56 153.053886,55.1096065 153.894027,53.6111395 L153.96727,53.6111395 L153.96727,54.4059785 C153.96727,55.3702095 154.540289,55.8783853 155.664786,55.8783853 L157.340759,55.8783853 C157.461395,55.8783853 157.53033,55.8045478 157.53033,55.6872764 L157.53033,54.4580991 C157.53033,54.3625447 157.457087,54.2887072 157.340759,54.2887072 L155.880206,54.2887072 L155.880206,43.8472151 C155.880206,43.7256004 155.806963,43.6561063 155.690636,43.6561063 L154.087905,43.6561063 C153.96727,43.6561063 153.894027,43.7299438 153.894027,43.8472151 L153.894027,45.9711293 L153.820784,45.9711293 C152.937558,44.4292284 151.38222,43.5344916 149.611461,43.5344916 C146.358607,43.5344916 144.277643,45.9928462 144.277643,49.7802759 C144.277643,53.5677057 146.358607,56 149.611461,56 M138.344954,56 C141.166966,56 142.743847,54.6969852 142.743847,52.4297394 C142.743847,50.42744 141.976949,49.5109862 139.275572,49.0071538 L137.888262,48.7422075 C136.263989,48.4034236 135.734054,47.8995912 135.734054,46.8832397 C135.734054,45.7756771 136.595737,45.0981094 138.05629,45.0981094 C139.516843,45.0981094 140.279433,45.6540623 140.520704,46.9310169 C140.542246,47.0265713 140.593947,47.1264691 140.736125,47.1264691 L142.291463,47.1264691 C142.412099,47.1264691 142.485342,47.0526316 142.459491,46.9092999 C142.170827,44.7636689 140.593947,43.5344916 138.060599,43.5344916 C135.52725,43.5344916 133.803884,44.9113439 133.803884,47.0048544 C133.803884,48.9593766 134.855137,49.9713848 137.319551,50.4535003 L138.612076,50.6923863 C140.288049,51.0311702 140.813676,51.4655084 140.813676,52.5252938 C140.813676,53.7066939 139.87875,54.4276955 138.349262,54.4276955 C136.625896,54.4276955 135.71682,53.7544711 135.432465,52.2820644 C135.406614,52.1604497 135.385072,52.0909555 135.242895,52.0909555 L133.713407,52.0909555 C133.592771,52.0909555 133.523837,52.1647931 133.545379,52.3081247 C133.808192,54.6969852 135.505708,55.9956566 138.353571,55.9956566 M129.168028,55.8740419 L130.844002,55.8740419 C130.964638,55.8740419 131.033572,55.8002044 131.033572,55.6829331 L131.033572,39.1911088 C131.033572,39.0694941 130.960329,39 130.844002,39 L129.168028,39 C129.073243,39 129,39.0738375 129,39.1911088 L129,55.6829331 C129,55.8045478 129.073243,55.8740419 129.168028,55.8740419" id="Shape" fill="#120540"></path>
<path d="M65.8566357,100.861921 L66.8235038,101.833146 L72.9942704,95.6619955 L72.9942704,95.4385277 L83.4278508,95.4385277 L82.9207822,94.9314275 L72.9942704,94.9314275 L72.9942704,93.7238416 L65.8523385,100.866218 L65.8566357,100.861921 Z M50.0558635,85 L50.0300803,85.0257848 L50.7563057,85.7520553 L51.5083141,85 L50.0558635,85 Z M53.2228934,85 L51.6114467,86.6115471 L52.359158,87.3593049 L54.718316,85 L53.2185963,85 L53.2228934,85 Z M56.3899234,85 L53.1971103,88.193012 L53.9706047,88.9665546 L57.9369123,85 L56.3899234,85 L56.3899234,85 Z M59.5569534,85 L54.7784767,89.7787743 L55.5734571,90.5781016 L61.1469141,85.0042975 L59.5526562,85.0042975 L59.5569534,85 Z M62.7239833,85 L56.3641403,91.3602392 L57.1849038,92.1810538 L64.3655104,85 L62.7196861,85 L62.7239833,85 Z M65.8910133,85 L57.9498038,92.941704 L58.7963505,93.7883034 L67.5841066,85 L65.8910133,85 Z M69.0580432,85 L59.5311702,94.5274664 L60.4035,95.3998505 L70.8027029,85 L69.0623404,85 L69.0580432,85 Z M96.0057296,85 L72.220776,85 L61.1125366,96.1089312 L62.0063524,97.0028027 L72.9985676,86.0056054 L72.9985676,84.9957025 L73.4712586,85.468423 L95.9971352,85.468423 C95.9971352,85.468423 95.9971352,85.468423 95.9971352,85.468423 L96.4698262,85.468423 L96.8565735,85.8551943 L95.9971352,85.8551943 L95.9971352,85.5371824 L73.5400137,85.5371824 L74.4209379,86.4181614 L72.9985676,86.4181614 L72.9985676,87.0541854 L75.0569222,87.0541854 L75.5339104,87.5312033 L95.9971352,87.5312033 C95.9971352,87.5312033 98.532478,87.5312033 98.532478,87.5312033 L98.9536028,87.9523543 L95.9971352,87.9523543 L95.9971352,87.6343423 L75.637043,87.6343423 L76.5480476,88.5454036 L72.9985676,88.5454036 L72.9985676,87.3850897 L62.693903,97.6903961 L63.6135019,98.6100523 L72.9985676,89.2244021 L72.9985676,89.1513453 L77.1496544,89.1513453 L77.5965622,89.598281 L95.9971352,89.598281 C95.9971352,89.598281 100.59513,89.598281 100.59513,89.598281 L101.046335,90.0495142 L95.9971352,90.0495142 L95.9971352,89.7315022 L77.7297752,89.7315022 L78.6708601,90.6726457 L72.9942704,90.6726457 L72.9942704,90.5523169 L64.2709722,99.2761584 L65.2163542,100.221599 L72.9942704,92.4431988 L72.9942704,91.2485052 L79.2423865,91.2485052 L79.659214,91.6653587 L95.9971352,91.6653587 C95.9971352,91.6653587 102.657782,91.6653587 102.657782,91.6653587 L103.143364,92.1466741 L95.9971352,92.1466741 L95.9971352,91.8286622 L79.8268045,91.8286622 L80.7979697,92.7998879 L72.9985676,92.7998879 L72.9985676,93.3413677 L81.3394158,93.3413677 L81.726163,93.728139 L96.0014324,93.728139 C96.0014324,93.728139 104.724731,93.728139 104.724731,93.728139 L105.240394,94.2438341 L96.0014324,94.2438341 L96.0014324,93.9258221 L81.9238338,93.9258221 L83.7888148,95.7909193 L95.9971352,95.7909193 C95.9971352,95.7909193 106.783085,95.7909193 106.783085,95.7909193 L107.328829,96.3366966 L95.992838,96.3366966 L95.992838,96.0186846 L84.0122688,96.0186846 L85.0478919,97.0543722 L72.9942704,97.0543722 L72.9942704,96.8867713 L67.4380021,102.443386 L68.4306533,103.436099 L72.9942704,98.8721973 L72.9942704,97.5313901 L85.5205829,97.5313901 L85.8428723,97.8536996 L95.9885408,97.8536996 C95.9885408,97.8536996 108.837143,97.8536996 108.837143,97.8536996 L109.417263,98.4338565 L95.9885408,98.4338565 L95.9885408,98.1158445 L86.1007037,98.1158445 L87.1664072,99.1816143 L72.9985676,99.1816143 L72.9985676,99.6242526 L87.6219094,99.6242526 L87.9141185,99.9164798 L95.9971352,99.9164798 C95.9971352,99.9164798 110.912686,99.9164798 110.912686,99.9164798 L111.522887,100.526719 L95.9971352,100.526719 L95.9971352,100.208707 L88.2063275,100.208707 C88.2063275,100.208707 89.3064084,101.308857 89.3064084,101.308857 L72.9985676,101.308857 L72.9985676,100.053999 L69.0236657,104.029148 L70.0421,105.047646 L72.9985676,102.090994 L72.9985676,101.721413 L89.7146416,101.721413 L89.9767703,101.983558 L95.9971352,101.983558 C95.9971352,101.983558 112.975338,101.983558 112.975338,101.983558 L113.615619,102.623879 L95.9971352,102.623879 L95.9971352,102.305867 L90.2990596,102.305867 L91.4292209,103.436099 L72.9985676,103.436099 L72.9985676,103.221226 L70.6093293,105.610613 L71.6492495,106.650598 L72.9985676,105.301196 L72.9985676,103.809978 L91.8116709,103.809978 L92.0437193,104.04204 L96.0014324,104.04204 C96.0014324,104.04204 115.042287,104.04204 115.042287,104.04204 L115.716946,104.716741 L96.0014324,104.716741 L96.0014324,104.398729 L92.4003861,104.398729 L93.5606278,105.559043 L72.9985676,105.559043 L72.9985676,105.90284 L93.9044031,105.90284 L94.1063711,106.104821 L96.0014324,106.104821 C96.0014324,106.104821 117.104939,106.104821 117.104939,106.104821 L117.809678,106.809604 L96.0014324,106.809604 L96.0014324,106.491592 L94.4931183,106.491592 L95.6877374,107.686286 L72.9985676,107.686286 L72.9985676,106.384155 L72.1906956,107.192078 L72.9985676,108 L118.995703,108 L118.995703,85 L95.9971352,85 L96.0057296,85 Z M50,77.4880419 L50,78.1799327 L66.1746279,78.1799327 L65.4827801,77.4880419 L50,77.4880419 Z M50,69.107997 L50,69.9245142 L57.9240207,69.9245142 L57.1075543,69.107997 L50,69.107997 Z M50,67.0108371 L50,67.8617339 L55.8613689,67.8617339 L55.010525,67.0108371 L50,67.0108371 Z M50,64.9136771 L50,65.7946562 L53.7987171,65.7946562 L52.9177929,64.9136771 L50,64.9136771 Z M50,62.8208146 L50,63.7318759 L51.7317681,63.7318759 L50.8207635,62.8208146 L50,62.8208146 Z M72.2680451,61.269432 L72.9985676,62 L72.9985676,61.269432 L72.2680451,61.269432 Z M118.12767,61.1319133 L118.995703,62 L118.995703,60.2595291 L118.12767,61.1276158 L118.12767,61.1319133 Z M116.546304,59.5504484 L117.63779,60.642003 L119,59.2797085 L119,57.1008969 L116.546304,59.5547459 L116.546304,59.5504484 Z M70.2311764,59.2367339 L70.2612568,59.2668161 L67.5239459,62.0042975 L67.4637853,62.0042975 L70.2311764,59.2367339 Z M67.0168774,56.0222347 L67.0942268,56.0995889 L61.189886,62.0042975 L61.0351871,62.0042975 L67.0168774,56.0222347 Z M50,60.5259716 L50,62 L59.2002865,71.2008595 L50,71.2008595 L50,71.9872945 L59.9866725,71.9872945 L61.6797658,73.6804933 L61.2973158,73.2980194 L50,73.2980194 L50,74.0543722 L62.0493243,74.0543722 L63.390048,75.3951794 L50,75.3951794 L50,76.1171525 L64.1119761,76.1171525 L67.5798094,79.5852018 L50,79.5852018 L50,80.242713 L68.2415769,80.242713 L69.6768388,81.6780643 L50,81.6780643 L50,82.3054933 L70.3042287,82.3054933 L71.7738681,83.7752242 L50,83.7752242 L50,84.372571 L72.3668805,84.372571 L72.9985676,85.0042975 L72.9985676,62 L71.8426232,60.8439836 L70.6866787,62 L70.6780843,62 L71.838326,60.8396861 L71.6578439,60.6591928 L72.9985676,60.6591928 L72.9985676,59.172272 L70.1710158,59.172272 L68.6755932,57.6767564 L64.356916,62 L64.2494862,62 L68.6240269,57.6251868 L68.6755932,57.6767564 L69.5951921,58.5921151 L72.9985676,58.5921151 L72.9985676,57.0751121 L68.0782836,57.0751121 L67.5325403,56.5293348 L72.9985676,56.5293348 L72.9985676,54.9822496 L65.9812543,54.9822496 L65.5085632,54.5095291 L58.0228561,61.9957025 L57.8165909,61.9957025 L65.4054307,54.4063901 L65.4655913,54.4665546 L72.9942704,54.4665546 L72.9942704,52.8850897 L63.8842249,52.8850897 L63.9228997,52.9237668 L54.8601233,62 L54.606589,62 L63.8025783,52.803438 L62.3458305,51.3465994 L51.6930934,62 L51.39229,62 L62.1954288,51.1961883 L62.3458305,51.3465994 L63.4029395,52.4080717 L72.9985676,52.4080717 L72.9985676,50.7965247 L61.7914928,50.7965247 L61.3402877,50.3452915 L60.7601669,49.7651345 L50,60.5259716 Z M50,54.1915172 L50,56.9590807 L58.9811297,47.9773916 L59.1788005,48.1793722 L50,57.3587444 L50,60.17358 L60.5882793,49.5889387 L60.7644641,49.7651345 L61.3445849,50.3452915 L73.0028648,50.3452915 L73.0028648,48.7036622 L59.6987607,48.7036622 L59.2776359,48.2825112 L72.9985676,48.2825112 L72.9985676,46.6065022 L57.6017313,46.6065022 L57.5931369,46.5979073 L50,54.1915172 Z M55.5089992,44.5093423 L55.7668307,44.7671898 L56.0160678,45.0164425 L50,51.0285874 L50,53.7445815 L57.369683,46.370142 L57.2149841,46.2154335 L72.9985676,46.2154335 L72.9985676,44.5093423 L55.5089992,44.5093423 Z M110.212244,53.215994 L111.204895,54.208707 L118.995703,46.4174141 L118.995703,44.431988 L110.212244,53.215994 Z M53.4119699,42.4121824 L54.1553839,43.1556428 L54.426107,43.4306801 L50,47.8613602 L50,50.5300822 L55.7625335,44.7628924 L55.1480351,44.1526532 L72.9985676,44.1526532 L72.9985676,42.4121824 L53.4119699,42.4121824 Z M50,44.694133 L50,47.315583 L54.1553839,43.1556428 L52.8447406,41.8449178 L50,44.694133 Z M51.3192377,40.3193199 L52.5525316,41.5526906 L53.0939777,42.0898729 L72.9985676,42.0898729 L72.9985676,40.3193199 L51.3192377,40.3193199 Z M50,41.5269058 L50,44.0967862 L52.5482344,41.5483931 L51.3192377,40.3193199 L51.2676714,40.2634529 L50,41.5269058 Z M50,40.882287 L50.9410849,39.9411435 L50,39 L50,40.882287 Z M99.0954101,39 L97.5441241,40.5513827 L98.3434016,41.35071 L100.689668,39.0042975 L99.0954101,39.0042975 L99.0954101,39 Z M111.759233,39 L103.878184,46.8815396 L103.16485,46.1681614 L110.336862,39 L108.5965,39 L102.296818,45.3000747 L101.561998,44.5652093 L107.122563,39 L105.42947,39 L100.715451,43.7143124 L99.9548484,42.9536622 L103.908264,39 L102.26244,39 L99.1297876,42.1328475 L98.3434016,41.3464126 L96.7362521,39.7391629 L97.475369,39 L94.9958896,39 L95.9971352,40.0013079 L95.9971352,41.0842676 L93.9129974,39 L91.8288597,39 L95.9971352,43.1685351 L95.9971352,44.2987668 L90.6986984,39 L88.6618297,39 L95.9971352,46.3357623 L95.9971352,47.5175635 L87.4843993,39 L85.499097,39 L95.9971352,49.4986921 L95.9971352,50.7277653 L84.2701003,39 L82.332067,39 L95.9971352,52.6659193 L95.9971352,53.946562 L81.0558012,39 L79.1693342,39 L96.0014324,55.8331465 L96.0014324,57.1610613 L77.837205,39 L75.9980071,39 L95.9971352,59.0003737 L95.9971352,60.3755605 L74.6229059,39 L50,39 L51.0270287,40.0270927 L72.9985676,40.0270927 L72.9985676,39 L95.9971352,62 L118.995703,62 L118.12767,61.1319133 L116.546304,59.5504484 L116.030641,59.0347534 L119,56.0652093 L119,53.9336697 L114.964937,57.9689836 L114.423491,57.4275037 L119,52.85071 L119,50.7664425 L113.379274,56.3875187 L112.812045,55.8202541 L118.995703,49.6362108 L118.995703,47.6035127 L111.79361,54.8060538 L109.597746,52.6100523 L118.995703,43.2115097 L118.995703,41.2647608 L108.62658,51.6345291 L109.163729,52.1717115 L107.045214,50.0530643 L105.463848,48.4715994 L104.776297,47.784006 L113.551161,39 L111.759233,39 Z M114.926263,39 L105.45955,48.4673019 L106.379149,49.3869581 L116.769758,39 L114.93056,39 L114.926263,39 Z M118.093293,39 L107.045214,50.0487668 L107.990596,50.9942078 L118.995703,39.9841181 L118.995703,39 L118.093293,39 Z" id="Shape" fill="#120540"></path>
</svg>