<?xml version="1.0" encoding="UTF-8"?>
<svg width="238px" height="81px" viewBox="0 0 238 81" version="1.1" xmlns="http://www.w3.org/2000/svg" xmlns:xlink="http://www.w3.org/1999/xlink">
    <title>Group 2</title>
    <g id="Page-1" stroke="none" stroke-width="1" fill="none" fill-rule="evenodd">
        <g id="Group-2" fill="#1C0F5F" fill-rule="nonzero">
            <path d="M126.589721,38.1932528 L120.197821,38.1932528 C119.542113,38.1932528 119.141681,38.6151828 119.141681,39.2704153 L119.141681,46.7956602 C119.141681,47.4459288 119.542113,47.8430393 120.197821,47.8430393 L125.163182,47.8430393 L127.645862,45.3263512 L127.645862,39.2704153 C127.645862,38.6201467 127.24543,38.1932528 126.589721,38.1932528 L126.589721,38.1932528 Z" id="Path"></path>
            <path d="M91.7170732,27.8634146 L91.7170732,58.0487805 L238,58.0487805 L238,27.8634146 L91.7170732,27.8634146 Z M194.893462,37.5727677 L196.289969,36.1878446 C196.435126,36.043892 196.575278,35.9892893 196.775494,35.9892893 L200.284282,35.9892893 C200.484499,35.9892893 200.599622,36.1332418 200.599622,36.3020139 L200.599622,37.8854922 C200.599622,38.0542642 200.484499,38.1982168 200.284282,38.1982168 L195.118705,38.1982168 C194.748305,38.1982168 194.603148,37.8606728 194.888457,37.5777315 L194.893462,37.5727677 Z M113.695801,45.4405205 L109.245997,49.8534115 C109.105847,49.997364 108.96069,50.0519668 108.73044,50.0519668 L101.197309,50.0519668 C100.997091,50.0519668 100.826909,49.997364 100.681752,49.8534115 L97.5733952,46.7708409 C97.4332446,46.6318521 97.3731792,46.4581163 97.3731792,46.259561 L97.3731792,35.621962 C97.3731792,35.3936235 97.4582717,35.2546348 97.6034285,35.1106822 L102.313514,30.4396693 C102.453664,30.2957168 102.598821,30.241114 102.829069,30.241114 L109.791586,30.241114 C109.991802,30.241114 110.161986,30.2957168 110.307143,30.4396693 L113.415498,33.52224 C113.560655,33.6661926 113.615714,33.8349645 113.615714,34.0335198 L113.645748,36.4112192 C113.645748,36.6097745 113.505596,36.7239438 113.330407,36.7239438 L111.733684,36.7239438 C111.5635,36.7239438 111.418343,36.6097745 111.418343,36.4112192 L111.418343,33.4974206 C111.418343,32.847152 110.992884,32.4500415 110.33217,32.4500415 L103.369653,32.4500415 L99.6055901,36.1828808 L99.6055901,46.7956602 C99.6055901,47.4459288 100.006022,47.8430393 100.691762,47.8430393 L108.194863,47.8430393 L112.134116,43.9364643 C112.279272,43.7925116 112.419423,43.7676923 112.589607,43.9066809 L113.700807,45.0086627 C113.815932,45.1476514 113.815932,45.3213873 113.700807,45.4305927 L113.695801,45.4405205 Z M129.873267,45.8922337 C129.873267,46.1205723 129.788174,46.259561 129.643018,46.428333 L126.189289,49.8236282 C126.044132,49.9924001 125.873949,50.0519668 125.648705,50.0519668 L120.74341,50.0519668 C120.543194,50.0519668 120.37301,49.997364 120.227854,49.8534115 L117.119498,46.7708409 C116.979346,46.6318521 116.919281,46.4581163 116.919281,46.259561 L116.919281,39.7816951 C116.919281,39.5831399 116.974341,39.4143678 117.119498,39.2704153 L120.227854,36.1878446 C120.368004,36.043892 120.543194,35.9892893 120.74341,35.9892893 L126.049139,35.9892893 C126.249355,35.9892893 126.419537,36.043892 126.564694,36.1878446 L129.673051,39.2704153 C129.813201,39.4143678 129.873267,39.5533565 129.873267,39.7816951 L129.873267,45.8922337 L129.873267,45.8922337 Z M135.409243,49.7392422 C135.409243,49.9377975 135.294119,50.0519668 135.123935,50.0519668 L133.527211,50.0519668 C133.326995,50.0519668 133.21187,49.9377975 133.21187,49.7392422 L133.21187,36.2970499 C133.21187,36.128278 133.326995,35.9843255 133.527211,35.9843255 L135.123935,35.9843255 C135.294119,35.9843255 135.409243,36.128278 135.409243,36.2970499 L135.409243,49.7392422 Z M144.684256,49.7392422 C144.684256,49.9377975 144.544105,50.0519668 144.368916,50.0519668 L142.772192,50.0519668 C142.602008,50.0519668 142.456852,49.9377975 142.456852,49.7392422 L142.456852,39.2704153 C142.456852,38.6201467 142.05642,38.1932528 141.370679,38.1932528 L136.49041,38.1932528 C136.120011,38.1932528 135.949827,37.8557089 136.235135,37.5727677 L137.631642,36.1878446 C137.801826,36.043892 137.946983,35.9892893 138.147199,35.9892893 L140.855122,35.9892893 C141.055339,35.9892893 141.225522,36.043892 141.370679,36.1878446 L144.479035,39.2704153 C144.619186,39.4143678 144.679251,39.5831399 144.679251,39.7816951 L144.679251,49.7392422 L144.684256,49.7392422 Z M153.929238,49.7392422 C153.929238,49.9377975 153.814113,50.0519668 153.613897,50.0519668 L152.042201,50.0519668 C151.841983,50.0519668 151.72686,49.9377975 151.72686,49.7392422 L151.72686,39.2704153 C151.72686,38.6201467 151.301401,38.1932528 150.640687,38.1932528 L144.504061,38.1932528 C144.133663,38.1932528 143.988506,37.8557089 144.273813,37.5727677 L145.670321,36.1878446 C145.815477,36.043892 145.955629,35.9892893 146.155845,35.9892893 L150.120125,35.9892893 C150.320341,35.9892893 150.460492,36.043892 150.605649,36.1878446 L153.714005,39.2704153 C153.859162,39.4143678 153.914222,39.5831399 153.914222,39.7816951 L153.914222,49.7392422 L153.929238,49.7392422 Z M170.76241,46.259561 C170.76241,46.4878995 170.707351,46.6268882 170.562194,46.7708409 L167.453838,49.8534115 C167.308682,49.997364 167.138498,50.0519668 166.938282,50.0519668 L162.058013,50.0519668 C161.827764,50.0519668 161.687614,49.997364 161.542457,49.8534115 L160.000792,48.3245359 L160.000792,55.3980676 C160.000792,55.5966228 159.885668,55.7107921 159.715484,55.7107921 L158.118761,55.7107921 C157.918544,55.7107921 157.80342,55.5966228 157.80342,55.3980676 L157.80342,36.3020139 C157.80342,36.1332418 157.918544,35.9892893 158.118761,35.9892893 L159.715484,35.9892893 C159.885668,35.9892893 160.000792,36.1332418 160.000792,36.3020139 L160.000792,46.8254435 C160.000792,47.5600981 160.401225,47.8430393 161.086965,47.8430393 L167.448833,47.8430393 C168.134573,47.8430393 168.535006,47.4459288 168.535006,46.7956602 L168.535006,39.2704153 C168.535006,38.6201467 168.134573,38.1932528 167.448833,38.1932528 L161.056932,38.1932528 C160.686532,38.1932528 160.516348,37.8557089 160.801657,37.5727677 L162.198164,36.1878446 C162.368348,36.043892 162.513505,35.9892893 162.713721,35.9892893 L166.938282,35.9892893 C167.138498,35.9892893 167.308682,36.043892 167.453838,36.1878446 L170.562194,39.2704153 C170.707351,39.4143678 170.76241,39.5533565 170.76241,39.7816951 L170.76241,46.259561 L170.76241,46.259561 Z M183.831519,48.4684885 L182.435012,49.8534115 C182.289855,50.0221835 182.149704,50.0519668 181.919455,50.0519668 L178.410668,50.0519668 C178.180419,50.0519668 178.040268,49.997364 177.895111,49.8534115 L174.786755,46.7708409 C174.641599,46.6318521 174.586539,46.4581163 174.586539,46.259561 L174.586539,36.3020139 C174.586539,36.1332418 174.701663,35.9892893 174.901879,35.9892893 L176.498603,35.9892893 C176.668787,35.9892893 176.783911,36.1332418 176.783911,36.3020139 L176.783911,46.8006241 C176.783911,47.4508927 177.20937,47.8480032 177.870084,47.8480032 L183.606276,47.8480032 C183.976676,47.8480032 184.121833,48.1855471 183.836525,48.4684885 L183.831519,48.4684885 Z M186.854783,49.7442061 C186.854783,49.9427614 186.73966,50.0569307 186.569476,50.0569307 L184.972751,50.0569307 C184.772535,50.0569307 184.657412,49.9427614 184.657412,49.7442061 L184.657412,36.3020139 C184.657412,36.1332418 184.772535,35.9892893 184.972751,35.9892893 L186.569476,35.9892893 C186.73966,35.9892893 186.854783,36.1332418 186.854783,36.3020139 L186.854783,49.7442061 Z M200.889936,46.4035135 L197.46624,49.8285921 C197.296056,49.997364 197.150899,50.0569307 196.925656,50.0569307 L195.729364,50.0569307 C195.499116,50.0569307 195.358965,50.0023279 195.213808,49.8583754 L192.105452,46.7758047 C191.935268,46.6070327 191.875204,46.4630802 191.875204,46.2645249 L191.875204,38.1982168 L189.993172,38.1982168 C189.822988,38.1982168 189.677831,38.0592281 189.677831,37.8854922 L189.677831,36.3020139 C189.677831,36.1332418 189.817983,35.9892893 189.993172,35.9892893 L191.875204,35.9892893 L191.875204,32.6485968 C191.875204,32.4798248 192.020361,32.3358722 192.190544,32.3358722 L193.787268,32.3358722 C193.957452,32.3358722 194.102609,32.4798248 194.102609,32.6485968 L194.102609,46.7956602 C194.102609,47.4459288 194.503041,47.8430393 195.158748,47.8430393 L196.385073,47.8430393 L199.353277,44.8994573 C199.498434,44.7555048 199.693645,44.7555048 199.808769,44.8994573 L200.894941,45.9468364 C201.035093,46.0907889 201.035093,46.259561 200.894941,46.3985496 L200.889936,46.4035135 Z M217.412774,40.1688778 C217.412774,40.3674331 217.357714,40.5064218 217.182525,40.7049771 L213.788861,44.0456697 C213.648711,44.2144416 213.473521,44.2740082 213.248279,44.2740082 L209.424149,44.2740082 C209.223933,44.2740082 209.083782,44.2194055 208.908592,44.0754529 L207.537112,42.6905298 C207.251805,42.4075886 207.391955,42.0700447 207.76736,42.0700447 L212.957965,42.0700447 L215.18537,39.8611172 L215.18537,39.240632 C215.18537,38.5903635 214.784937,38.1634696 214.129229,38.1634696 L207.737328,38.1634696 C207.081621,38.1634696 206.681189,38.5853995 206.681189,39.240632 L206.681189,46.7658769 C206.681189,47.4161455 207.081621,47.813256 207.737328,47.813256 L214.044138,47.813256 C214.699845,47.813256 215.130309,47.4161455 215.130309,46.7658769 L215.130309,45.2667845 C215.130309,45.0980126 215.245434,44.9540601 215.44565,44.9540601 L217.042374,44.9540601 C217.212558,44.9540601 217.357714,45.0980126 217.357714,45.2667845 L217.357714,46.2297777 C217.357714,46.428333 217.302655,46.5673216 217.127466,46.7410575 L214.019111,49.8236282 C213.878959,49.9675807 213.733802,50.0221835 213.503554,50.0221835 L208.282917,50.0221835 C208.082701,50.0221835 207.912517,49.9675807 207.76736,49.8236282 L204.659005,46.7410575 C204.518854,46.5971049 204.458789,46.4581163 204.458789,46.259561 L204.458789,39.7519118 C204.458789,39.5533565 204.513848,39.4143678 204.689037,39.240632 L207.797394,36.1580613 C207.937544,36.0141087 208.082701,35.959506 208.31295,35.959506 L213.588645,35.959506 C213.788861,35.959506 213.959045,36.0141087 214.104202,36.1580613 L217.212558,39.240632 C217.352709,39.3796206 217.412774,39.5235732 217.412774,39.7221285 L217.412774,40.1738418 L217.412774,40.1688778 Z M223.319151,49.704495 C223.319151,49.9030503 223.204026,50.0172196 223.033843,50.0172196 L221.437119,50.0172196 C221.236903,50.0172196 221.121778,49.9030503 221.121778,49.704495 L221.121778,36.2623029 C221.121778,36.0935308 221.236903,35.9495783 221.437119,35.9495783 L223.033843,35.9495783 C223.204026,35.9495783 223.319151,36.0935308 223.319151,36.2623029 L223.319151,49.704495 Z M231.708208,42.2338528 C231.708208,42.4026247 231.568056,42.5465773 231.392867,42.5465773 L229.796143,42.5465773 C229.595927,42.5465773 229.480803,42.4075886 229.480803,42.2338528 L229.480803,39.2356681 C229.480803,38.5853995 229.050337,38.1585058 228.39463,38.1585058 L224.370286,38.1585058 C223.999886,38.1585058 223.854729,37.8209617 224.140036,37.5380205 L225.511518,36.1530974 C225.681702,36.0091448 225.826858,35.9545422 226.027074,35.9545422 L227.884079,35.9545422 C228.084295,35.9545422 228.224446,36.0091448 228.399635,36.1530974 L231.482964,39.2356681 C231.653148,39.3746567 231.713213,39.5483927 231.713213,39.7469479 L231.713213,42.2388166 L231.708208,42.2338528 Z" id="Shape"></path>
            <path d="M175.067305,70.910095 C175.286256,68.1620257 176.88858,66.5973591 179.540873,66.5973591 C181.914501,66.5973591 183.40735,68.1917345 183.546682,70.910095 L175.067305,70.910095 Z M179.540873,78.9364383 C182.884853,78.9364383 185.119149,77.2331304 185.671503,74.7871011 C185.70136,74.678169 185.616765,74.5939937 185.452551,74.5939937 L183.686015,74.5939937 C183.546682,74.5939937 183.467063,74.6484597 183.437207,74.7871011 C182.969447,76.1883696 181.586075,77.0697324 179.540873,77.0697324 C176.833842,77.0697324 175.231518,75.3911811 175.067305,72.6183545 L185.537147,72.6183545 C185.676479,72.6183545 185.756098,72.5341791 185.756098,72.4004893 L185.756098,71.8508753 C185.756098,67.4242556 183.40735,64.7306524 179.540873,64.7306524 C175.395731,64.7306524 172.718557,67.5084308 172.718557,71.8508753 C172.718557,76.19332 175.37085,78.9413899 179.540873,78.9413899 M164.846272,78.9413899 C168.135513,78.9413899 170.424547,77.1291499 170.95202,74.435546 C170.976901,74.2969047 170.867426,74.2424386 170.73307,74.2424386 L168.966533,74.2424386 C168.827199,74.2424386 168.747581,74.2969047 168.717724,74.435546 C168.195228,76.2230294 166.896449,77.0746839 164.851248,77.0746839 C162.034741,77.0746839 160.322942,75.1238014 160.322942,71.8508753 C160.322942,68.5779496 162.034741,66.6023106 164.851248,66.6023106 C166.841712,66.6023106 168.16537,67.5084308 168.578392,69.2414475 C168.63313,69.4048462 168.687867,69.4593125 168.827199,69.4593125 L170.623594,69.4593125 C170.762926,69.4593125 170.872402,69.3751373 170.842545,69.2117386 C170.374786,66.5181354 168.050919,64.7306524 164.846272,64.7306524 C160.730987,64.7306524 157.994099,67.5876544 157.994099,71.8508753 C157.994099,76.1140973 160.67625,78.9413899 164.846272,78.9413899 M144.02104,78.8027485 L145.897053,78.8027485 C146.006529,78.8027485 146.091123,78.7185731 146.091123,78.5848833 L146.091123,70.8605805 C146.091123,68.1125109 147.389901,66.6815341 149.818267,66.6815341 C152.246633,66.6815341 153.381198,68.0283357 153.381198,70.8605805 L153.381198,78.5848833 C153.381198,78.7235247 153.465792,78.8027485 153.600149,78.8027485 L155.451281,78.8027485 C155.590613,78.8027485 155.670232,78.7185731 155.670232,78.5848833 L155.670232,70.8605805 C155.670232,66.8449329 153.903695,64.7306524 150.66919,64.7306524 C148.623989,64.7306524 147.051522,65.6367726 146.086147,67.2856142 L146.001553,67.2856142 L146.001553,65.0871587 C146.001553,64.9485174 145.916957,64.8692937 145.782601,64.8692937 L144.016064,64.8692937 C143.906589,64.8692937 143.821994,64.9534688 143.821994,65.0871587 L143.821994,78.5848833 C143.821994,78.7235247 143.906589,78.8027485 144.016064,78.8027485 M130.535645,70.9150466 C130.754597,68.1669771 132.35692,66.6023106 135.009214,66.6023106 C137.382843,66.6023106 138.875691,68.196686 139.015023,70.9150466 L130.535645,70.9150466 Z M135.009214,78.9413899 C138.353194,78.9413899 140.587489,77.238082 141.139843,74.7920526 C141.1697,74.6831206 141.085106,74.5989452 140.920892,74.5989452 L139.154355,74.5989452 C139.015023,74.5989452 138.935405,74.6534112 138.905548,74.7920526 C138.437789,76.19332 137.054416,77.0746839 135.009214,77.0746839 C132.302182,77.0746839 130.699859,75.3961326 130.535645,72.6233061 L141.005487,72.6233061 C141.14482,72.6233061 141.224439,72.5391307 141.224439,72.4054409 L141.224439,71.8558269 C141.224439,67.4292071 138.875691,64.7356039 135.009214,64.7356039 C130.864072,64.7356039 128.186898,67.5133822 128.186898,71.8558269 C128.186898,76.1982716 130.839192,78.9463415 135.009214,78.9463415 M123.046525,61.8488931 C123.046525,61.9578255 123.131119,62.0420007 123.265475,62.0420007 L125.698818,62.0420007 C125.808293,62.0420007 125.892889,61.9578255 125.892889,61.8488931 L125.892889,59.4276211 C125.892889,59.2889797 125.808293,59.2097561 125.698818,59.2097561 L123.265475,59.2097561 C123.126143,59.2097561 123.046525,59.2939312 123.046525,59.4276211 L123.046525,61.8488931 Z M123.514283,78.8077001 L125.390297,78.8077001 C125.499772,78.8077001 125.584366,78.7235247 125.584366,78.5898349 L125.584366,65.0921102 C125.584366,64.9534688 125.499772,64.8742453 125.390297,64.8742453 L123.514283,64.8742453 C123.404808,64.8742453 123.320213,64.9584203 123.320213,65.0921102 L123.320213,78.5898349 C123.320213,78.7284763 123.404808,78.8077001 123.514283,78.8077001 M114.621884,78.9463415 C117.906151,78.9463415 120.200161,77.1341015 120.727634,74.4404976 C120.752515,74.3018562 120.643039,74.2473902 120.503706,74.2473902 L118.737169,74.2473902 C118.597837,74.2473902 118.518218,74.3018562 118.488362,74.4404976 C117.965864,76.2279809 116.667087,77.0796343 114.621884,77.0796343 C111.805378,77.0796343 110.093579,75.128753 110.093579,71.8558269 C110.093579,68.5829012 111.805378,66.607262 114.621884,66.607262 C116.612349,66.607262 117.936008,67.5133822 118.349029,69.246399 C118.403767,69.4097977 118.458505,69.4642639 118.597837,69.4642639 L120.394231,69.4642639 C120.533563,69.4642639 120.643039,69.3800889 120.613181,69.2166902 C120.145423,66.5230869 117.821556,64.7356039 114.621884,64.7356039 C110.506601,64.7356039 107.769712,67.5926058 107.769712,71.8558269 C107.769712,76.1190489 110.446886,78.9463415 114.621884,78.9463415 M99.0962643,78.9463415 C103.186668,78.9463415 105.754367,76.8865269 105.754367,73.5294266 C105.754367,70.4248504 104.316257,68.9394074 100.424899,68.2263948 L98.3796974,67.8698886 C95.5880712,67.3202746 94.4584826,66.3844456 94.4584826,64.48803 C94.4584826,62.5916145 95.9214744,61.4082117 98.5190296,61.4082117 C101.116586,61.4082117 102.609433,62.5371483 102.967717,64.8148275 C103.022455,65.0079351 103.10705,65.0326924 103.216525,65.0326924 L105.092537,65.0326924 C105.231871,65.0326924 105.341346,64.9485174 105.311489,64.8148275 C104.898467,61.432969 102.385507,59.4276211 98.5140536,59.4276211 C94.6426005,59.4276211 92.1047589,61.4082117 92.1047589,64.6514287 C92.1047589,67.6173633 93.8165582,69.2711564 97.6282966,69.984169 L99.6734991,70.3406752 C102.490006,70.8902888 103.375762,71.6874773 103.375762,73.5838926 C103.375762,75.6981732 101.748558,76.9657507 99.0962643,76.9657507 C96.0856874,76.9657507 94.5082443,75.7823474 94.0404861,73.0342787 C94.0156052,72.8708795 93.9558904,72.8164135 93.8215342,72.8164135 L91.915665,72.8164135 C91.7763328,72.8164135 91.6967143,72.9005888 91.7215952,73.0639869 C92.2192114,76.8568187 94.8416475,78.9463415 99.0962643,78.9463415" id="Shape"></path>
            <path d="M149.429754,19.7365854 C152.736053,19.7365854 155.036957,17.8910079 155.567165,15.1478545 C155.592175,15.0066628 155.482132,14.9511946 155.347079,14.9511946 L153.571381,14.9511946 C153.431326,14.9511946 153.351295,15.0066628 153.321282,15.1478545 C152.791074,16.9682192 151.490563,17.8355397 149.434755,17.8355397 C146.603643,17.8355397 144.882967,15.8487705 144.882967,12.5156374 C144.882967,9.18250427 146.603643,7.17052228 149.434755,7.17052228 C151.435542,7.17052228 152.766064,8.09331109 153.181228,9.85820752 C153.236249,10.0246121 153.291271,10.0800803 153.431326,10.0800803 L155.237036,10.0800803 C155.37709,10.0800803 155.487134,9.99435676 155.457122,9.82795215 C154.986937,7.08479874 152.65102,5.26443415 149.429754,5.26443415 C145.293128,5.26443415 142.542046,8.17399204 142.542046,12.5156374 C142.542046,16.8572828 145.233104,19.7365854 149.429754,19.7365854 M128.326461,12.5156374 C128.326461,9.24301502 130.047137,7.17052228 132.768206,7.17052228 C135.489275,7.17052228 137.239964,9.26822793 137.239964,12.5156374 C137.239964,15.763047 135.519287,17.8355397 132.768206,17.8355397 C130.017124,17.8355397 128.326461,15.7933023 128.326461,12.5156374 M132.187978,19.7365854 C134.298807,19.7365854 136.184549,18.7028602 137.159932,16.9631766 L137.244965,16.9631766 L137.244965,17.8859653 C137.244965,19.005414 137.910226,19.5953937 139.21574,19.5953937 L141.161505,19.5953937 C141.301559,19.5953937 141.381591,19.5096701 141.381591,19.3735209 L141.381591,17.946476 C141.381591,17.8355397 141.296557,17.7498162 141.161505,17.7498162 L139.465838,17.7498162 L139.465838,5.62749851 C139.465838,5.48630681 139.380805,5.40562585 139.245751,5.40562585 L137.385021,5.40562585 C137.244965,5.40562585 137.164933,5.49134939 137.164933,5.62749851 L137.164933,8.09331109 L137.0799,8.09331109 C136.054497,6.30320175 134.248788,5.26443415 132.19298,5.26443415 C128.416496,5.26443415 126.000546,8.11852388 126.000546,12.5156374 C126.000546,16.912751 128.416496,19.7365854 132.19298,19.7365854 M111.784959,12.5156374 C111.784959,9.24301502 113.505635,7.17052228 116.226706,7.17052228 C118.947775,7.17052228 120.698462,9.26822793 120.698462,12.5156374 C120.698462,15.763047 118.977786,17.8355397 116.226706,17.8355397 C113.475624,17.8355397 111.784959,15.7933023 111.784959,12.5156374 M115.646477,19.7365854 C117.757307,19.7365854 119.643048,18.7028602 120.618431,16.9631766 L120.703465,16.9631766 L120.703465,17.8859653 C120.703465,19.005414 121.368726,19.5953937 122.674239,19.5953937 L124.620003,19.5953937 C124.760059,19.5953937 124.84009,19.5096701 124.84009,19.3735209 L124.84009,17.946476 C124.84009,17.8355397 124.755057,17.7498162 124.620003,17.7498162 L122.924337,17.7498162 L122.924337,5.62749851 C122.924337,5.48630681 122.839303,5.40562585 122.704251,5.40562585 L120.843519,5.40562585 C120.703465,5.40562585 120.618431,5.49134939 120.618431,5.62749851 L120.618431,8.09331109 L120.533398,8.09331109 C119.507994,6.30320175 117.702285,5.26443415 115.646477,5.26443415 C111.869993,5.26443415 109.454044,8.11852388 109.454044,12.5156374 C109.454044,16.912751 111.869993,19.7365854 115.646477,19.7365854 M102.566337,19.7365854 C105.842624,19.7365854 107.673344,18.223817 107.673344,15.5915999 C107.673344,13.2669791 106.782994,12.2029986 103.646762,11.6180615 L102.036129,11.3104653 C100.150387,10.9171454 99.5351456,10.3322083 99.5351456,9.15224902 C99.5351456,7.86639585 100.535539,7.07975628 102.231205,7.07975628 C103.926871,7.07975628 104.81222,7.72520404 105.09233,9.20771718 C105.117339,9.31865351 105.177363,9.43463242 105.342428,9.43463242 L107.148138,9.43463242 C107.288193,9.43463242 107.373226,9.34890888 107.343214,9.18250427 C107.008082,6.69147902 105.177363,5.26443415 102.236208,5.26443415 C99.2950512,5.26443415 97.2942653,6.86292609 97.2942653,9.29344072 C97.2942653,11.5625933 98.5147444,12.7375102 101.375869,13.2972345 L102.876459,13.5745753 C104.822223,13.9678952 105.432463,14.4721512 105.432463,15.7025362 C105.432463,17.0741129 104.347037,17.9111782 102.571338,17.9111782 C100.570552,17.9111782 99.5151374,17.1295811 99.1850081,15.4201528 C99.1549958,15.2789611 99.129986,15.19828 98.964922,15.19828 L97.1892237,15.19828 C97.0491683,15.19828 96.9691376,15.2840037 96.9941473,15.4504082 C97.2992668,18.223817 99.2700415,19.7315428 102.576341,19.7315428 M91.9121496,19.5903511 L93.8579145,19.5903511 C93.99797,19.5903511 94.0780007,19.5046275 94.0780007,19.3684784 L94.0780007,0.221872656 C94.0780007,0.0806809551 93.9929673,-1.64984557e-14 93.8579145,-1.64984557e-14 L91.9121496,-1.64984557e-14 C91.8021065,-1.64984557e-14 91.7170732,0.0857235366 91.7170732,0.221872656 L91.7170732,19.3684784 C91.7170732,19.5096701 91.8021065,19.5903511 91.9121496,19.5903511" id="Shape"></path>
            <path d="M18.4091673,71.8201815 L19.5316776,72.94775 L26.6957871,65.7831948 L26.6957871,65.5237541 L38.8089195,65.5237541 L38.2202252,64.9350231 L26.6957871,64.9350231 L26.6957871,63.5330454 L18.4041784,71.8251702 L18.4091673,71.8201815 Z M0.064856161,53.404878 L0.0349224946,53.4348136 L0.878052471,54.2779959 L1.75111588,53.404878 L0.064856161,53.404878 Z M3.74170063,53.404878 L1.87085032,55.2758449 L2.7389249,56.1439735 L5.4778498,53.404878 L3.7367118,53.404878 L3.74170063,53.404878 Z M7.41854522,53.404878 L3.71176708,57.1118871 L4.60977521,58.0099512 L9.2145616,53.404878 L7.41854522,53.404878 L7.41854522,53.404878 Z M11.0953898,53.404878 L5.5476949,58.9529185 L6.47064776,59.880918 L12.9412954,53.4098673 L11.0904009,53.4098673 L11.0953898,53.404878 Z M14.7722343,53.404878 L7.38861167,60.7889606 L8.34149807,61.7419064 L16.6780072,53.404878 L14.7672453,53.404878 L14.7722343,53.404878 Z M18.4490789,53.404878 L9.22952831,62.6250027 L10.2123484,63.6078839 L20.4147189,53.404878 L18.4490789,53.404878 Z M22.1259233,53.404878 L11.0654561,64.4660342 L12.0782098,65.4788508 L24.1514307,53.404878 L22.1309123,53.404878 L22.1259233,53.404878 Z M53.41153,53.404878 L25.797779,53.404878 L12.901384,66.3020762 L13.9390823,67.3398392 L26.700776,54.5723614 L26.700776,53.3998888 L27.2495588,53.9487057 L53.4015521,53.9487057 C53.4015521,53.9487057 53.4015521,53.9487057 53.4015521,53.9487057 L53.9503348,53.9487057 L54.399339,54.3977378 L53.4015521,54.3977378 L53.4015521,54.0285337 L27.3293818,54.0285337 L28.3521133,55.0513288 L26.700776,55.0513288 L26.700776,55.7897372 L29.0904755,55.7897372 L29.6442472,56.3435433 L53.4015521,56.3435433 C53.4015521,56.3435433 56.3450232,56.3435433 56.3450232,56.3435433 L56.8339389,56.8324894 L53.4015521,56.8324894 L53.4015521,56.4632852 L29.7639816,56.4632852 L30.8216358,57.5210052 L26.700776,57.5210052 L26.700776,56.173909 L14.7373118,68.1381184 L15.8049437,69.2058168 L26.700776,58.3093059 L26.700776,58.2244887 L31.5200866,58.2244887 L32.0389356,58.7433701 L53.4015521,58.7433701 C53.4015521,58.7433701 58.7397119,58.7433701 58.7397119,58.7433701 L59.2635499,59.2672409 L53.4015521,59.2672409 L53.4015521,58.8980367 L32.1935927,58.8980367 L33.2861693,59.9906813 L26.6957871,59.9906813 L26.6957871,59.8509825 L16.5682507,69.9791498 L17.6658161,71.0767832 L26.6957871,62.0462503 L26.6957871,60.6592402 L33.9496975,60.6592402 L34.4336241,61.1431969 L53.4015521,61.1431969 C53.4015521,61.1431969 61.1344006,61.1431969 61.1344006,61.1431969 L61.6981494,61.7019924 L53.4015521,61.7019924 L53.4015521,61.3327883 L34.6281925,61.3327883 L35.7556917,62.4603577 L26.700776,62.4603577 L26.700776,63.0890025 L36.3842974,63.0890025 L36.8333014,63.5380345 L53.406541,63.5380345 C53.406541,63.5380345 63.5340779,63.5380345 63.5340779,63.5380345 L64.1327501,64.136744 L53.406541,64.136744 L53.406541,63.7675398 L37.0627924,63.7675398 L39.2279899,65.9328722 L53.4015521,65.9328722 C53.4015521,65.9328722 65.9237767,65.9328722 65.9237767,65.9328722 L66.5573722,66.5665063 L53.3965631,66.5665063 L53.3965631,66.1973021 L39.4874145,66.1973021 L40.6897477,67.3997102 L26.6957871,67.3997102 L26.6957871,67.2051296 L20.2450951,73.6562237 L21.397539,74.8087393 L26.6957871,69.5101608 L26.6957871,67.9535163 L41.2385304,67.9535163 L41.6127005,68.3277098 L53.3915742,68.3277098 C53.3915742,68.3277098 68.308488,68.3277098 68.308488,68.3277098 L68.9819931,69.0012578 L53.3915742,69.0012578 L53.3915742,68.6320536 L41.9120365,68.6320536 L43.1492923,69.8693864 L26.700776,69.8693864 L26.700776,70.3832786 L43.6781192,70.3832786 L44.0173668,70.7225473 L53.4015521,70.7225473 C53.4015521,70.7225473 70.7181428,70.7225473 70.7181428,70.7225473 L71.4265712,71.4310201 L53.4015521,71.4310201 L53.4015521,71.0618159 L44.3566144,71.0618159 C44.3566144,71.0618159 45.6337815,72.3390632 45.6337815,72.3390632 L26.700776,72.3390632 L26.700776,70.8822037 L22.0860119,75.4972548 L23.2683893,76.6797061 L26.700776,73.2471052 L26.700776,72.8180307 L46.1077302,72.8180307 L46.4120553,73.1223747 L53.4015521,73.1223747 C53.4015521,73.1223747 73.1128314,73.1223747 73.1128314,73.1223747 L73.8561821,73.8657717 L53.4015521,73.8657717 L53.4015521,73.4965675 L46.7862253,73.4965675 L48.098315,74.8087393 L26.700776,74.8087393 L26.700776,74.559277 L23.9269287,77.333297 L25.1342506,78.5406943 L26.700776,76.9740715 L26.700776,75.2428037 L48.5423301,75.2428037 L48.8117327,75.512222 L53.406541,75.512222 C53.406541,75.512222 75.5125088,75.512222 75.5125088,75.512222 L76.2957715,76.2955335 L53.406541,76.2955335 L53.406541,75.9263293 L49.2258141,75.9263293 L50.5728264,77.2734255 L26.700776,77.2734255 L26.700776,77.6725655 L50.9719412,77.6725655 L51.2064211,77.9070605 L53.406541,77.9070605 C53.406541,77.9070605 77.9071975,77.9070605 77.9071975,77.9070605 L78.7253823,78.7252964 L53.406541,78.7252964 L53.406541,78.3560922 L51.6554251,78.3560922 L53.0423488,79.7431028 L26.700776,79.7431028 L26.700776,78.2313604 L25.7628564,79.1693393 L26.700776,80.1073171 L80.1023284,80.1073171 L80.1023284,53.404878 L53.4015521,53.404878 L53.41153,53.404878 Z M6.32556338e-16,44.6836779 L6.32556338e-16,45.4869463 L18.7783485,45.4869463 L17.9751301,44.6836779 L6.32556338e-16,44.6836779 Z M-2.55622082e-16,34.9546502 L-2.55622082e-16,35.9026067 L9.19959476,35.9026067 L8.25169719,34.9546502 L-2.55622082e-16,34.9546502 Z M1.88467128e-16,32.5198987 L1.88467128e-16,33.5077691 L6.80490633,33.5077691 L5.81709732,32.5198987 L1.88467128e-16,32.5198987 Z M1.88467128e-16,30.0851471 L1.88467128e-16,31.1079423 L4.4102179,31.1079423 L3.38748639,30.0851471 L1.88467128e-16,30.0851471 Z M-3.35774768e-17,27.6553848 L-3.35774768e-17,28.7131047 L2.01054053,28.7131047 L0.952886405,27.6553848 L-3.35774768e-17,27.6553848 Z M25.8526572,25.8542674 L26.700776,26.702439 L26.700776,25.8542674 L25.8526572,25.8542674 Z M79.0945632,25.6946115 L80.1023284,26.702439 L80.1023284,24.6817948 L79.0945632,25.6896222 L79.0945632,25.6946115 Z M77.2586359,23.8585694 L78.5258245,25.1258376 L80.1073171,23.5442469 L80.1073171,21.0146998 L77.2586359,23.8635587 L77.2586359,23.8585694 Z M23.4879024,23.4943545 L23.522825,23.5292792 L20.3448738,26.7074283 L20.2750288,26.7074283 L23.4879024,23.4943545 Z M19.7561796,19.7623993 L19.8459804,19.8522056 L12.9911847,26.7074283 L12.8115831,26.7074283 L19.7561796,19.7623993 Z M6.32556338e-16,24.991128 L6.32556338e-16,26.702439 L10.6813082,37.3844125 L6.32556338e-16,37.3844125 L6.32556338e-16,38.2974443 L11.5942832,38.2974443 L13.5599232,40.2632069 L13.1159081,39.819164 L6.32556338e-16,39.819164 L6.32556338e-16,40.6972711 L13.9889716,40.6972711 L15.5455191,42.2539156 L6.32556338e-16,42.2539156 L6.32556338e-16,43.0921088 L16.3836601,43.0921088 L20.4097299,47.1184294 L6.32556338e-16,47.1184294 L6.32556338e-16,47.8817839 L21.1780259,47.8817839 L22.8443299,49.5481917 L6.32556338e-16,49.5481917 L6.32556338e-16,50.2766215 L23.5727143,50.2766215 L25.2789298,51.9829432 L6.32556338e-16,51.9829432 L6.32556338e-16,52.6764483 L25.9674027,52.6764483 L26.700776,53.4098673 L26.700776,26.702439 L25.3587528,25.3603322 L24.0167294,26.702439 L24.0067515,26.702439 L25.3537638,25.3553429 L25.1442285,25.1457946 L26.700776,25.1457946 L26.700776,23.4195158 L23.4180574,23.4195158 L21.6819082,21.6832586 L16.6680293,26.702439 L16.5433059,26.702439 L21.622041,21.6233876 L21.6819082,21.6832586 L22.7495401,22.7459678 L26.700776,22.7459678 L26.700776,20.9847643 L20.9884463,20.9847643 L20.3548517,20.3511302 L26.700776,20.3511302 L26.700776,18.555002 L18.5538465,18.555002 L18.0050636,18.006185 L9.31434025,26.6974497 L9.07487139,26.6974497 L17.8853293,17.8864431 L17.9551743,17.9562927 L26.6957871,17.9562927 L26.6957871,16.1202505 L16.1192465,16.1202505 L16.164147,16.1651537 L5.64248461,26.702439 L5.34813747,26.702439 L16.0244568,16.0254548 L14.3332081,14.3341008 L1.96564014,26.702439 L1.61641473,26.702439 L14.1585954,14.1594771 L14.3332081,14.3341008 L15.5604859,15.5664442 L26.700776,15.5664442 L26.700776,13.6954775 L13.6896355,13.6954775 L13.1657974,13.1716067 L12.4922913,12.4980586 L6.32556338e-16,24.991128 Z M6.32556338e-16,17.6369809 L6.32556338e-16,20.8500547 L10.4268725,10.4225327 L10.6563635,10.6570272 L6.32556338e-16,21.3140545 L6.32556338e-16,24.58201 L12.292734,12.2934996 L12.4972803,12.4980586 L13.1707864,13.1716067 L26.705765,13.1716067 L26.705765,11.2657151 L11.2600246,11.2657151 L10.771109,10.7767691 L26.700776,10.7767691 L26.700776,8.83096353 L8.82542463,8.83096353 L8.81544674,8.82098506 L6.32556338e-16,17.6369809 Z M6.39581371,6.39621204 L6.69514979,6.69556669 L6.98450798,6.984943 L6.32556338e-16,13.9648966 L6.32556338e-16,17.1180995 L8.55602221,8.5565551 L8.37642056,8.37694231 L26.700776,8.37694231 L26.700776,6.39621204 L6.39581371,6.39621204 Z M69.9049467,16.5044223 L71.0573903,17.6569379 L80.1023284,8.61143686 L80.1023284,6.30640558 L69.9049467,16.5044223 Z M3.96121384,3.96146054 L4.82429936,4.82459993 L5.13860227,5.14391153 L6.32556338e-16,10.2878231 L6.32556338e-16,13.3861442 L6.69016084,6.69057752 L5.97674319,5.98210469 L26.700776,5.98210469 L26.700776,3.96146054 L3.96121384,3.96146054 Z M1.88467128e-16,6.61074953 L1.88467128e-16,9.65418904 L4.82429936,4.82459993 L3.30267445,3.30288018 L1.88467128e-16,6.61074953 Z M1.53160279,1.53169823 L2.96342693,2.96361153 L3.59203265,3.58726707 L26.700776,3.58726707 L26.700776,1.53169823 L1.53160279,1.53169823 Z M-3.35774768e-17,2.933676 L-3.35774768e-17,5.91724447 L2.95843799,2.95862223 L1.53160279,1.53169823 L1.47173558,1.466838 L-3.35774768e-17,2.933676 Z M-4.16915824e-15,2.1852893 L1.09257662,1.09264465 L-4.16915824e-15,0 L-4.16915824e-15,2.1852893 Z M56.9985737,0 L55.1975685,1.80111748 L56.1255102,2.72911698 L58.8494682,0.00498929268 L56.9985737,0.00498929268 L56.9985737,0 Z M71.7009632,0 L62.5512575,9.15027524 L61.7230941,8.32206055 L70.0496252,0 L68.0291073,0 L60.7153302,7.31423307 L59.8622221,6.46107226 L66.3179024,0 L64.3522627,0 L58.8794016,5.47320171 L57.9963606,4.59010538 L62.5861797,0 L60.6754181,0 L57.0384851,3.63715954 L56.1255102,2.7241278 L54.2596488,0.858150099 L55.1177455,0 L52.2391304,0 L53.4015521,1.16249405 L53.4015521,2.41978385 L50.9819189,0 L48.5622859,0 L53.4015521,4.83956758 L53.4015521,6.15173902 L47.2501962,0 L44.8854413,0 L53.4015521,8.51664111 L53.4015521,9.88868348 L43.5184733,0 L41.2135858,0 L53.4015521,12.1887255 L53.4015521,13.6156495 L39.7867506,0 L37.5367412,0 L53.4015521,15.865799 L53.4015521,17.3525939 L36.0550277,0 L33.8648856,0 L53.406541,19.5428725 L53.406541,21.0845492 L32.318316,0 L30.1830521,0 L53.4015521,23.2199461 L53.4015521,24.8165044 L28.5865932,0 L-1.1438005e-15,0 L1.19235527,1.19242957 L26.700776,1.19242957 L26.700776,0 L53.4015521,26.702439 L80.1023284,26.702439 L79.0945632,25.6946115 L77.2586359,23.8585694 L76.6599637,23.25986 L80.1073171,19.8122918 L80.1073171,17.3376263 L75.4227073,22.0225273 L74.7941017,21.3938823 L80.1073171,16.0803365 L80.1073171,13.6605528 L73.5817913,20.1864851 L72.9232522,19.5279048 L80.1023284,12.3483813 L80.1023284,9.9884684 L71.740874,18.3504429 L69.1915295,15.8009388 L80.1023284,4.88946004 L80.1023284,2.62933205 L68.0640295,14.6683801 L68.6876464,15.2920358 L66.2281021,12.8323381 L64.3921748,10.9962959 L63.5939448,10.1980167 L73.7813479,0 L71.7009632,0 Z M75.3778078,0 L64.3871849,10.9913066 L65.4548169,12.059005 L77.5180605,0 L75.3827965,0 L75.3778078,0 Z M79.0546524,0 L66.2281021,12.8273488 L67.3256676,13.9249827 L80.1023284,1.14253711 L80.1023284,0 L79.0546524,0 Z" id="Shape"></path>
        </g>
    </g>
</svg>