<svg width="238px" height="81px" viewBox="0 0 238 81" version="1.1" xmlns="http://www.w3.org/2000/svg" xmlns:xlink="http://www.w3.org/1999/xlink">
    <g id="Page-1" stroke="none" stroke-width="1" fill="none" fill-rule="evenodd">
        <g id="ICS_Lockup_580px_Purple" fill="#120540" fill-rule="nonzero">
            <g id="Group" transform="translate(91.970104, 27.377170)">
                <path d="M34.8123281,10.398228 L28.4314837,10.398228 C27.77691,10.398228 27.3771703,10.8229514 27.3771703,11.4825219 L27.3771703,19.0575885 C27.3771703,19.7121622 27.77691,20.1119019 28.4314837,20.1119019 L33.3882555,20.1119019 L35.8666415,17.5785518 L35.8666415,11.4825219 C35.8666415,10.8279482 35.4669018,10.398228 34.8123281,10.398228 L34.8123281,10.398228 Z" id="Path"></path>
                <path d="M0,3.55040144e-15 L0,30.3852113 L146.029896,30.3852113 L146.029896,3.55040144e-15 L0,3.55040144e-15 Z M102.997922,9.77363482 L104.392014,8.37954273 C104.536919,8.23463711 104.676828,8.1796729 104.876698,8.1796729 L108.379417,8.1796729 C108.579287,8.1796729 108.694212,8.32457853 108.694212,8.49446789 L108.694212,10.0884298 C108.694212,10.2583192 108.579287,10.4032248 108.379417,10.4032248 L103.222775,10.4032248 C102.853016,10.4032248 102.70811,10.0634461 102.992925,9.77863156 L102.997922,9.77363482 Z M21.9407109,17.6934769 L17.4986039,22.135584 C17.358695,22.2804896 17.2137893,22.3354538 16.983939,22.3354538 L9.46383658,22.3354538 C9.26396674,22.3354538 9.09407739,22.2804896 8.94917176,22.135584 L5.84619261,19.0326048 C5.70628372,18.8926959 5.64632277,18.7178098 5.64632277,18.51794 L5.64632277,7.80991371 C5.64632277,7.5800634 5.73126745,7.44015452 5.87617308,7.29524889 L10.5781109,2.59331108 C10.7180198,2.44840545 10.8629254,2.39344125 11.0927757,2.39344125 L18.0432491,2.39344125 C18.243119,2.39344125 18.4130083,2.44840545 18.557914,2.59331108 L21.6608931,5.69629023 C21.8057987,5.84119586 21.8607629,6.01108522 21.8607629,6.21095505 L21.8907434,8.6043963 C21.8907434,8.80426613 21.7508345,8.91919128 21.5759484,8.91919128 L19.9819865,8.91919128 C19.8120972,8.91919128 19.6671915,8.80426613 19.6671915,8.6043963 L19.6671915,5.6713065 C19.6671915,5.0167328 19.2424681,4.61699313 18.5828977,4.61699313 L11.6324243,4.61699313 L7.87487141,8.37454599 L7.87487141,19.0575885 C7.87487141,19.7121622 8.27461107,20.1119019 8.95916525,20.1119019 L16.4492872,20.1119019 L20.3817262,16.179463 C20.5266318,16.0345573 20.6665407,16.0095736 20.8364301,16.1494825 L21.9457076,17.2587601 C22.0606328,17.3986689 22.0606328,17.573555 21.9457076,17.6834834 L21.9407109,17.6934769 Z M38.0901934,18.1481808 C38.0901934,18.3780311 38.0052487,18.51794 37.8603431,18.6878294 L34.4125884,22.1056035 C34.2676828,22.2754929 34.0977935,22.3354538 33.8729399,22.3354538 L28.976129,22.3354538 C28.7762592,22.3354538 28.6063698,22.2804896 28.4614642,22.135584 L25.358485,19.0326048 C25.2185761,18.8926959 25.1586152,18.7178098 25.1586152,18.51794 L25.1586152,11.9971867 C25.1586152,11.7973169 25.2135794,11.6274275 25.358485,11.4825219 L28.4614642,8.37954273 C28.6013731,8.23463711 28.7762592,8.1796729 28.976129,8.1796729 L34.2726796,8.1796729 C34.4725494,8.1796729 34.6424387,8.23463711 34.7873444,8.37954273 L37.8903235,11.4825219 C38.0302324,11.6274275 38.0901934,11.7673364 38.0901934,11.9971867 L38.0901934,18.1481808 L38.0901934,18.1481808 Z M43.6165942,22.0206588 C43.6165942,22.2205286 43.5016691,22.3354538 43.3317797,22.3354538 L41.7378178,22.3354538 C41.537948,22.3354538 41.4230228,22.2205286 41.4230228,22.0206588 L41.4230228,8.48947114 C41.4230228,8.31958178 41.537948,8.17467616 41.7378178,8.17467616 L43.3317797,8.17467616 C43.5016691,8.17467616 43.6165942,8.31958178 43.6165942,8.48947114 L43.6165942,22.0206588 Z M52.8755642,22.0206588 C52.8755642,22.2205286 52.7356554,22.3354538 52.5607692,22.3354538 L50.9668073,22.3354538 C50.796918,22.3354538 50.6520123,22.2205286 50.6520123,22.0206588 L50.6520123,11.4825219 C50.6520123,10.8279482 50.2522727,10.398228 49.5677185,10.398228 L44.6958913,10.398228 C44.3261321,10.398228 44.1562428,10.0584493 44.4410573,9.77363482 L45.8351494,8.37954273 C46.0050387,8.23463711 46.1499444,8.1796729 46.3498142,8.1796729 L49.0530537,8.1796729 C49.2529235,8.1796729 49.4228129,8.23463711 49.5677185,8.37954273 L52.6706977,11.4825219 C52.8106065,11.6274275 52.8705675,11.7973169 52.8705675,11.9971867 L52.8705675,22.0206588 L52.8755642,22.0206588 Z M62.1045538,22.0206588 C62.1045538,22.2205286 61.9896286,22.3354538 61.7897588,22.3354538 L60.2207806,22.3354538 C60.0209108,22.3354538 59.9059856,22.2205286 59.9059856,22.0206588 L59.9059856,11.4825219 C59.9059856,10.8279482 59.4812622,10.398228 58.8216918,10.398228 L52.6956814,10.398228 C52.3259222,10.398228 52.1810166,10.0584493 52.4658311,9.77363482 L53.8599232,8.37954273 C54.0048288,8.23463711 54.1447377,8.1796729 54.3446075,8.1796729 L58.3020302,8.1796729 C58.5019,8.1796729 58.6418089,8.23463711 58.7867145,8.37954273 L61.8896937,11.4825219 C62.0345993,11.6274275 62.0895635,11.7973169 62.0895635,11.9971867 L62.0895635,22.0206588 L62.1045538,22.0206588 Z M78.9086099,18.51794 C78.9086099,18.7477903 78.8536457,18.8876992 78.7087401,19.0326048 L75.605761,22.135584 C75.4608553,22.2804896 75.290966,22.3354538 75.0910961,22.3354538 L70.219269,22.3354538 C69.9894187,22.3354538 69.8495098,22.2804896 69.7046041,22.135584 L68.1656064,20.5965863 L68.1656064,27.716949 C68.1656064,27.9168189 68.0506813,28.031744 67.8807919,28.031744 L66.28683,28.031744 C66.0869602,28.031744 65.972035,27.9168189 65.972035,27.716949 L65.972035,8.49446789 C65.972035,8.32457853 66.0869602,8.1796729 66.28683,8.1796729 L67.8807919,8.1796729 C68.0506813,8.1796729 68.1656064,8.32457853 68.1656064,8.49446789 L68.1656064,19.087569 C68.1656064,19.8270874 68.5653461,20.1119019 69.2499003,20.1119019 L75.6007642,20.1119019 C76.2853184,20.1119019 76.6850581,19.7121622 76.6850581,19.0575885 L76.6850581,11.4825219 C76.6850581,10.8279482 76.2853184,10.398228 75.6007642,10.398228 L69.2199198,10.398228 C68.8501606,10.398228 68.6802713,10.0584493 68.9650858,9.77363482 L70.3591778,8.37954273 C70.5290672,8.23463711 70.6739728,8.1796729 70.8738427,8.1796729 L75.0910961,8.1796729 C75.290966,8.1796729 75.4608553,8.23463711 75.605761,8.37954273 L78.7087401,11.4825219 C78.8536457,11.6274275 78.9086099,11.7673364 78.9086099,11.9971867 L78.9086099,18.51794 L78.9086099,18.51794 Z M91.9551133,20.7414919 L90.5610212,22.135584 C90.4161156,22.3054733 90.2762067,22.3354538 90.0463564,22.3354538 L86.5436375,22.3354538 C86.3137872,22.3354538 86.1738784,22.2804896 86.0289727,22.135584 L82.9259936,19.0326048 C82.7810879,18.8926959 82.7261237,18.7178098 82.7261237,18.51794 L82.7261237,8.49446789 C82.7261237,8.32457853 82.8410489,8.1796729 83.0409187,8.1796729 L84.6348806,8.1796729 C84.80477,8.1796729 84.9196952,8.32457853 84.9196952,8.49446789 L84.9196952,19.0625853 C84.9196952,19.717159 85.3444186,20.1168987 86.003989,20.1168987 L91.7302597,20.1168987 C92.1000189,20.1168987 92.2449245,20.4566774 91.96011,20.7414919 L91.9551133,20.7414919 Z M94.9731477,22.0256556 C94.9731477,22.2255254 94.8582226,22.3404505 94.6883332,22.3404505 L93.0943713,22.3404505 C92.8945015,22.3404505 92.7795763,22.2255254 92.7795763,22.0256556 L92.7795763,8.49446789 C92.7795763,8.32457853 92.8945015,8.1796729 93.0943713,8.1796729 L94.6883332,8.1796729 C94.8582226,8.1796729 94.9731477,8.32457853 94.9731477,8.49446789 L94.9731477,22.0256556 Z M108.984023,18.6628456 L105.566249,22.1106002 C105.39636,22.2804896 105.251454,22.3404505 105.0266,22.3404505 L103.832378,22.3404505 C103.602528,22.3404505 103.462619,22.2854863 103.317713,22.1405807 L100.214734,19.0376016 C100.044845,18.8677122 99.9848838,18.7228066 99.9848838,18.5229367 L99.9848838,10.4032248 L98.1061074,10.4032248 C97.936218,10.4032248 97.7913124,10.2633159 97.7913124,10.0884298 L97.7913124,8.49446789 C97.7913124,8.32457853 97.9312213,8.1796729 98.1061074,8.1796729 L99.9848838,8.1796729 L99.9848838,4.81686297 C99.9848838,4.64697361 100.129789,4.50206798 100.299679,4.50206798 L101.893641,4.50206798 C102.06353,4.50206798 102.208436,4.64697361 102.208436,4.81686297 L102.208436,19.0575885 C102.208436,19.7121622 102.608175,20.1119019 103.262749,20.1119019 L104.486952,20.1119019 L107.450022,17.1488316 C107.594928,17.003926 107.789801,17.003926 107.904726,17.1488316 L108.98902,18.203145 C109.128929,18.3480506 109.128929,18.51794 108.98902,18.6578489 L108.984023,18.6628456 Z M125.478281,12.3869329 C125.478281,12.5868027 125.423317,12.7267116 125.248431,12.9265814 L121.860637,16.2893914 C121.720728,16.4592807 121.545842,16.5192417 121.320988,16.5192417 L117.503475,16.5192417 C117.303605,16.5192417 117.163696,16.4642775 116.98881,16.3193718 L115.619701,14.9252798 C115.334887,14.6404652 115.474796,14.3006865 115.849552,14.3006865 L121.031177,14.3006865 L123.254729,12.0771346 L123.254729,11.4525414 C123.254729,10.7979677 122.854989,10.3682476 122.200416,10.3682476 L115.819571,10.3682476 C115.164998,10.3682476 114.765258,10.792971 114.765258,11.4525414 L114.765258,19.0276081 C114.765258,19.6821818 115.164998,20.0819214 115.819571,20.0819214 L122.115471,20.0819214 C122.770045,20.0819214 123.199765,19.6821818 123.199765,19.0276081 L123.199765,17.5185908 C123.199765,17.3487015 123.31469,17.2037958 123.51456,17.2037958 L125.108522,17.2037958 C125.278411,17.2037958 125.423317,17.3487015 125.423317,17.5185908 L125.423317,18.4879595 C125.423317,18.6878294 125.368353,18.8277382 125.193466,19.0026243 L122.090487,22.1056035 C121.950578,22.2505091 121.805673,22.3054733 121.575822,22.3054733 L116.364217,22.3054733 C116.164347,22.3054733 115.994457,22.2505091 115.849552,22.1056035 L112.746573,19.0026243 C112.606664,18.8577187 112.546703,18.7178098 112.546703,18.51794 L112.546703,11.9672062 C112.546703,11.7673364 112.601667,11.6274275 112.776553,11.4525414 L115.879532,8.34956226 C116.019441,8.20465663 116.164347,8.14969243 116.394197,8.14969243 L121.660767,8.14969243 C121.860637,8.14969243 122.030526,8.20465663 122.175432,8.34956226 L125.278411,11.4525414 C125.41832,11.5924503 125.478281,11.7373559 125.478281,11.9372258 L125.478281,12.3919296 L125.478281,12.3869329 Z M131.374441,21.9856816 C131.374441,22.1855514 131.259516,22.3004766 131.089627,22.3004766 L129.495665,22.3004766 C129.295795,22.3004766 129.18087,22.1855514 129.18087,21.9856816 L129.18087,8.45449392 C129.18087,8.28460456 129.295795,8.13969894 129.495665,8.13969894 L131.089627,8.13969894 C131.259516,8.13969894 131.374441,8.28460456 131.374441,8.45449392 L131.374441,21.9856816 Z M139.748987,14.4655791 C139.748987,14.6354685 139.609078,14.7803741 139.434192,14.7803741 L137.84023,14.7803741 C137.64036,14.7803741 137.525435,14.6404652 137.525435,14.4655791 L137.525435,11.4475447 C137.525435,10.792971 137.095715,10.3632508 136.441141,10.3632508 L132.423758,10.3632508 C132.053998,10.3632508 131.909093,10.0234721 132.193907,9.7386576 L133.563016,8.34456551 C133.732905,8.19965989 133.877811,8.14469568 134.077681,8.14469568 L135.931473,8.14469568 C136.131343,8.14469568 136.271252,8.19965989 136.446138,8.34456551 L139.524133,11.4475447 C139.694023,11.5874535 139.753984,11.7623397 139.753984,11.9622095 L139.753984,14.4705759 L139.748987,14.4655791 Z" id="Shape"></path>
            </g>
            <path d="M174.87611,71.1136865 C175.095967,68.3404925 176.704919,66.7615209 179.368185,66.7615209 C181.751632,66.7615209 183.250656,68.370473 183.390565,71.1136865 L174.87611,71.1136865 Z M179.368185,79.2134114 C182.725998,79.2134114 184.969537,77.4945309 185.524175,75.0261384 C185.554156,74.91621 185.469211,74.8312654 185.304319,74.8312654 L183.530474,74.8312654 C183.390565,74.8312654 183.310617,74.8862296 183.280637,75.0261384 C182.810942,76.4402175 181.421847,77.3296383 179.368185,77.3296383 C176.649955,77.3296383 175.041003,75.6357414 174.87611,72.8375638 L185.389263,72.8375638 C185.529172,72.8375638 185.60912,72.7526191 185.60912,72.617707 L185.60912,72.0630682 C185.60912,67.5959774 183.250656,64.8777477 179.368185,64.8777477 C175.205895,64.8777477 172.517646,67.6809221 172.517646,72.0630682 C172.517646,76.4452143 175.180912,79.2184082 179.368185,79.2184082 M164.612794,79.2184082 C167.915643,79.2184082 170.214146,77.3895992 170.743801,74.6713695 C170.768785,74.5314606 170.658857,74.4764964 170.523944,74.4764964 L168.7501,74.4764964 C168.610191,74.4764964 168.530243,74.5314606 168.500262,74.6713695 C167.975604,76.4751947 166.671453,77.334635 164.617791,77.334635 C161.789633,77.334635 160.070752,75.3659172 160.070752,72.0630682 C160.070752,68.7602192 161.789633,66.7665176 164.617791,66.7665176 C166.616489,66.7665176 167.945624,67.6809221 168.360354,69.4297831 C168.415318,69.5946757 168.470282,69.6496399 168.610191,69.6496399 L170.414016,69.6496399 C170.553925,69.6496399 170.663853,69.5646953 170.633873,69.3998026 C170.164179,66.6815729 167.830698,64.8777477 164.612794,64.8777477 C160.480485,64.8777477 157.732275,67.76087 157.732275,72.0630682 C157.732275,76.3652663 160.425521,79.2184082 164.612794,79.2184082 M143.701413,79.0784993 L145.585186,79.0784993 C145.695115,79.0784993 145.780059,78.9935546 145.780059,78.8586425 L145.780059,71.063719 C145.780059,68.2905251 147.08421,66.8464655 149.522622,66.8464655 C151.961034,66.8464655 153.100292,68.2055804 153.100292,71.063719 L153.100292,78.8586425 C153.100292,78.9985514 153.185237,79.0784993 153.320149,79.0784993 L155.178938,79.0784993 C155.318847,79.0784993 155.398795,78.9935546 155.398795,78.8586425 L155.398795,71.063719 C155.398795,67.0113581 153.62495,64.8777477 150.377065,64.8777477 C148.323403,64.8777477 146.744431,65.7921522 145.775062,67.4560685 L145.690118,67.4560685 L145.690118,65.2375134 C145.690118,65.0976045 145.605173,65.0176566 145.470261,65.0176566 L143.696416,65.0176566 C143.586488,65.0176566 143.501543,65.1026012 143.501543,65.2375134 L143.501543,78.8586425 C143.501543,78.9985514 143.586488,79.0784993 143.696416,79.0784993 M130.160232,71.1186832 C130.380089,68.3454893 131.989041,66.7665176 134.652306,66.7665176 C137.035754,66.7665176 138.534778,68.3754698 138.674687,71.1186832 L130.160232,71.1186832 Z M134.652306,79.2184082 C138.010119,79.2184082 140.253658,77.4995276 140.808297,75.0311352 C140.838278,74.9212068 140.753333,74.8362621 140.58844,74.8362621 L138.814596,74.8362621 C138.674687,74.8362621 138.594739,74.8912263 138.564758,75.0311352 C138.095064,76.4452143 136.705969,77.334635 134.652306,77.334635 C131.934077,77.334635 130.325124,75.6407382 130.160232,72.8425605 L140.673385,72.8425605 C140.813294,72.8425605 140.893242,72.7576158 140.893242,72.6227037 L140.893242,72.0680649 C140.893242,67.6009742 138.534778,64.8827444 134.652306,64.8827444 C130.490017,64.8827444 127.801768,67.6859188 127.801768,72.0680649 C127.801768,76.450211 130.465033,79.2234049 134.652306,79.2234049 M122.640129,61.9696416 C122.640129,62.07957 122.725074,62.1645147 122.859986,62.1645147 L125.303395,62.1645147 C125.413323,62.1645147 125.498268,62.07957 125.498268,61.9696416 L125.498268,59.5262329 C125.498268,59.386324 125.413323,59.3063761 125.303395,59.3063761 L122.859986,59.3063761 C122.720077,59.3063761 122.640129,59.3913208 122.640129,59.5262329 L122.640129,61.9696416 Z M123.109823,79.083496 L124.993597,79.083496 C125.103525,79.083496 125.18847,78.9985514 125.18847,78.8636392 L125.18847,65.2425101 C125.18847,65.1026012 125.103525,65.0226533 124.993597,65.0226533 L123.109823,65.0226533 C122.999895,65.0226533 122.91495,65.107598 122.91495,65.2425101 L122.91495,78.8636392 C122.91495,79.0035481 122.999895,79.083496 123.109823,79.083496 M114.180639,79.2234049 C117.478491,79.2234049 119.781991,77.394596 120.311646,74.6763662 C120.33663,74.5364573 120.226701,74.4814931 120.086792,74.4814931 L118.312947,74.4814931 C118.173039,74.4814931 118.093091,74.5364573 118.06311,74.6763662 C117.538452,76.4801915 116.234301,77.3396318 114.180639,77.3396318 C111.352481,77.3396318 109.6336,75.3709139 109.6336,72.0680649 C109.6336,68.7652159 111.352481,66.7715143 114.180639,66.7715143 C116.179337,66.7715143 117.508471,67.6859188 117.923201,69.4347799 C117.978165,69.5996725 118.03313,69.6546367 118.173039,69.6546367 L119.976864,69.6546367 C120.116773,69.6546367 120.226701,69.569692 120.196721,69.4047994 C119.727027,66.6865697 117.393546,64.8827444 114.180639,64.8827444 C110.04833,64.8827444 107.30012,67.7658668 107.30012,72.0680649 C107.30012,76.3702631 109.988369,79.2234049 114.180639,79.2234049 M98.5907917,79.2234049 C102.698117,79.2234049 105.276438,77.1447587 105.276438,73.756965 C105.276438,70.6240054 103.832378,69.1249816 99.9249228,68.4054502 L97.8712603,68.0456845 C95.0680859,67.4910457 93.9338246,66.5466608 93.9338246,64.6329071 C93.9338246,62.7191535 95.4028679,61.5249312 98.0111692,61.5249312 C100.619471,61.5249312 102.118494,62.6641893 102.47826,64.9626924 C102.533224,65.1575655 102.618169,65.1825492 102.728097,65.1825492 L104.61187,65.1825492 C104.751779,65.1825492 104.861708,65.0976045 104.831727,64.9626924 C104.416997,61.549915 101.893641,59.5262329 98.0061725,59.5262329 C94.1187042,59.5262329 91.5703638,61.5249312 91.5703638,64.7977998 C91.5703638,67.7908505 93.2892444,69.4597636 97.1167517,70.179295 L99.1704142,70.5390607 C101.998572,71.0936995 102.887993,71.8981756 102.887993,73.8119292 C102.887993,75.9455397 101.254057,77.2247066 98.5907917,77.2247066 C95.5677605,77.2247066 93.9837921,76.0304843 93.514098,73.2572904 C93.4891142,73.0923978 93.4291533,73.0374336 93.2942411,73.0374336 L91.3804875,73.0374336 C91.2405786,73.0374336 91.1606307,73.1223783 91.1856144,73.2872709 C91.685289,77.1147782 94.318574,79.2234049 98.5907917,79.2234049" id="Shape"></path>
            <path d="M149.662531,19.6721883 C152.96538,19.6721883 155.263883,17.8433793 155.793538,15.1251496 C155.818522,14.9852407 155.708593,14.9302765 155.573681,14.9302765 L153.799836,14.9302765 C153.659927,14.9302765 153.579979,14.9852407 153.549999,15.1251496 C153.020344,16.9289748 151.72119,17.7884151 149.667527,17.7884151 C146.839369,17.7884151 145.120489,15.8196973 145.120489,12.5168483 C145.120489,9.21399929 146.839369,7.22029771 149.667527,7.22029771 C151.666226,7.22029771 152.99536,8.13470219 153.41009,9.88356323 C153.465054,10.0484558 153.520018,10.10342 153.659927,10.10342 L155.463753,10.10342 C155.603661,10.10342 155.71359,10.0184754 155.683609,9.85358275 C155.213915,7.13535303 152.880435,5.33152779 149.662531,5.33152779 C145.530222,5.33152779 142.782012,8.21465012 142.782012,12.5168483 C142.782012,16.8190464 145.470261,19.6721883 149.662531,19.6721883 M128.58126,12.5168483 C128.58126,9.27396024 130.300141,7.22029771 133.01837,7.22029771 C135.7366,7.22029771 137.485461,9.29894397 137.485461,12.5168483 C137.485461,15.7347526 135.766581,17.7884151 133.01837,17.7884151 C130.27016,17.7884151 128.58126,15.7647331 128.58126,12.5168483 M132.438748,19.6721883 C134.547375,19.6721883 136.431148,18.6478554 137.405513,16.9239781 L137.490458,16.9239781 L137.490458,17.8383826 C137.490458,18.9476601 138.155025,19.5322794 139.459176,19.5322794 L141.40291,19.5322794 C141.542819,19.5322794 141.622767,19.4473347 141.622767,19.3124226 L141.622767,17.8983435 C141.622767,17.7884151 141.537822,17.7034704 141.40291,17.7034704 L139.709013,17.7034704 L139.709013,5.69129349 C139.709013,5.5513846 139.624068,5.47143667 139.489156,5.47143667 L137.630367,5.47143667 C137.490458,5.47143667 137.41051,5.55638135 137.41051,5.69129349 L137.41051,8.13470219 L137.325565,8.13470219 C136.301232,6.36085742 134.497407,5.33152779 132.443745,5.33152779 C128.671202,5.33152779 126.257773,8.15968592 126.257773,12.5168483 C126.257773,16.8740106 128.671202,19.6721883 132.443745,19.6721883 M112.057022,12.5168483 C112.057022,9.27396024 113.775902,7.22029771 116.494132,7.22029771 C119.212362,7.22029771 120.961223,9.29894397 120.961223,12.5168483 C120.961223,15.7347526 119.242342,17.7884151 116.494132,17.7884151 C113.745922,17.7884151 112.057022,15.7647331 112.057022,12.5168483 M115.914509,19.6721883 C118.023136,19.6721883 119.906909,18.6478554 120.881275,16.9239781 L120.966219,16.9239781 L120.966219,17.8383826 C120.966219,18.9476601 121.630787,19.5322794 122.934937,19.5322794 L124.878671,19.5322794 C125.01858,19.5322794 125.098528,19.4473347 125.098528,19.3124226 L125.098528,17.8983435 C125.098528,17.7884151 125.013584,17.7034704 124.878671,17.7034704 L123.184775,17.7034704 L123.184775,5.69129349 C123.184775,5.5513846 123.09983,5.47143667 122.964918,5.47143667 L121.106128,5.47143667 C120.966219,5.47143667 120.881275,5.55638135 120.881275,5.69129349 L120.881275,8.13470219 L120.79633,8.13470219 C119.771997,6.36085742 117.968172,5.33152779 115.914509,5.33152779 C112.141966,5.33152779 109.728538,8.15968592 109.728538,12.5168483 C109.728538,16.8740106 112.141966,19.6721883 115.914509,19.6721883 M102.848019,19.6721883 C106.120888,19.6721883 107.949697,18.1731645 107.949697,15.5648632 C107.949697,13.2613634 107.060276,12.20705 103.927316,11.6274275 L102.318364,11.322626 C100.434591,10.9328798 99.8199912,10.3532573 99.8199912,9.18401881 C99.8199912,7.90984863 100.81934,7.13035628 102.513237,7.13035628 C104.207134,7.13035628 105.091558,7.76993975 105.371376,9.23898302 C105.39636,9.34891142 105.45632,9.46383658 105.621213,9.46383658 L107.425038,9.46383658 C107.564947,9.46383658 107.649892,9.3788919 107.619911,9.21399929 C107.285129,6.74560685 105.45632,5.33152779 102.518234,5.33152779 C99.5801474,5.33152779 97.5814491,6.91549621 97.5814491,9.32392769 C97.5814491,11.5724633 98.800655,12.7367051 101.658794,13.2913439 L103.157817,13.5661649 C105.101552,13.9559111 105.711155,14.4555856 105.711155,15.6747916 C105.711155,17.0339065 104.626861,17.8633663 102.853016,17.8633663 C100.854318,17.8633663 99.8000042,17.0888707 99.470219,15.3949739 C99.4402385,15.255065 99.4152548,15.175117 99.2503622,15.175117 L97.4765174,15.175117 C97.3366085,15.175117 97.2566606,15.2600617 97.2816443,15.4249543 C97.5864458,18.1731645 99.5551637,19.6671915 102.858013,19.6671915 M92.2049506,19.5272827 L94.1486847,19.5272827 C94.2885936,19.5272827 94.3685415,19.442338 94.3685415,19.3074258 L94.3685415,0.33478197 C94.3685415,0.194873087 94.2835968,0.114925154 94.1486847,0.114925154 L92.2049506,0.114925154 C92.0950221,0.114925154 92.0100775,0.199869833 92.0100775,0.33478197 L92.0100775,19.3074258 C92.0100775,19.4473347 92.0950221,19.5272827 92.2049506,19.5272827" id="Shape"></path>
            <path d="M18.4379921,71.928156 L19.5622599,73.0574206 L26.7375869,65.8820936 L26.7375869,65.6222628 L38.8696857,65.6222628 L38.2800697,65.0326468 L26.7375869,65.0326468 L26.7375869,63.6285612 L18.4329953,71.9331528 L18.4379921,71.928156 Z M0.0649576956,53.4851672 L0.0349772207,53.5151477 L0.879427264,54.3595977 L1.75385778,53.4851672 L0.0649576956,53.4851672 Z M3.74755936,53.4851672 L1.87377968,55.3589469 L2.74321345,56.2283807 L5.48642691,53.4851672 L3.74256262,53.4851672 L3.74755936,53.4851672 Z M7.43016103,53.4851672 L3.71757889,57.1977494 L4.61699313,58.0971636 L9.22898952,53.4851672 L7.43016103,53.4851672 L7.43016103,53.4851672 Z M11.1127627,53.4851672 L5.55638135,59.0415486 L6.48077932,59.9709433 L12.9615586,53.490164 L11.107766,53.490164 L11.1127627,53.4851672 Z M14.7953644,53.4851672 L7.40018055,60.880351 L8.35455901,61.8347295 L16.7041213,53.4851672 L14.7903676,53.4851672 L14.7953644,53.4851672 Z M18.477966,53.4851672 L9.24397976,62.7191535 L10.2283387,63.7035124 L20.4466839,53.4851672 L18.477966,53.4851672 Z M22.1605677,53.4851672 L11.0827822,64.5629527 L12.0971216,65.5772921 L24.1892465,53.4851672 L22.1655644,53.4851672 L22.1605677,53.4851672 Z M53.4951607,53.4851672 L25.8381726,53.4851672 L12.9215847,66.4017552 L13.9609078,67.4410783 L26.7425836,54.6544057 L26.7425836,53.4801705 L27.2922257,54.0298125 L53.4851672,54.0298125 C53.4851672,54.0298125 53.4851672,54.0298125 53.4851672,54.0298125 L54.0348093,54.0298125 L54.4845164,54.4795196 L53.4851672,54.4795196 L53.4851672,54.1097605 L27.3721736,54.1097605 L28.3965065,55.1340933 L26.7425836,55.1340933 L26.7425836,55.8736117 L29.1360249,55.8736117 L29.6906636,56.4282505 L53.4851672,56.4282505 C53.4851672,56.4282505 56.4332473,56.4282505 56.4332473,56.4282505 L56.9229283,56.9179316 L53.4851672,56.9179316 L53.4851672,56.5481724 L29.8105855,56.5481724 L30.8698957,57.6074825 L26.7425836,57.6074825 L26.7425836,56.2583612 L14.7603871,68.2405576 L15.8296907,69.3098612 L26.7425836,58.3969684 L26.7425836,58.3120237 L31.5694401,58.3120237 L32.0891016,58.8316852 L53.4851672,58.8316852 C53.4851672,58.8316852 58.8316852,58.8316852 58.8316852,58.8316852 L59.3563436,59.3563436 L53.4851672,59.3563436 L53.4851672,58.9865844 L32.2440008,58.9865844 L33.3382881,60.0808717 L26.7375869,60.0808717 L26.7375869,59.9409628 L16.5941929,70.0843568 L17.6934769,71.1836409 L26.7375869,62.139531 L26.7375869,60.7504356 L34.0028553,60.7504356 L34.4875396,61.23512 L53.4851672,61.23512 C53.4851672,61.23512 61.2301232,61.23512 61.2301232,61.23512 L61.7947555,61.7947555 L53.4851672,61.7947555 L53.4851672,61.4249963 L34.6824127,61.4249963 L35.8116773,62.5542609 L26.7425836,62.5542609 L26.7425836,63.1838509 L36.4412672,63.1838509 L36.8909744,63.633558 L53.490164,63.633558 C53.490164,63.633558 63.633558,63.633558 63.633558,63.633558 L64.2331675,64.2331675 L53.490164,64.2331675 L53.490164,63.8634083 L37.1208247,63.8634083 L39.2894124,66.031996 L53.4851672,66.031996 C53.4851672,66.031996 66.0269992,66.031996 66.0269992,66.031996 L66.6615859,66.6665827 L53.4801705,66.6665827 L53.4801705,66.2968235 L39.5492431,66.2968235 L40.7534589,67.5010392 L26.7375869,67.5010392 L26.7375869,67.3061662 L20.2767945,73.7669585 L21.4310428,74.9212068 L26.7375869,69.6146627 L26.7375869,68.055678 L41.3031009,68.055678 L41.6778569,68.430434 L53.4751737,68.430434 C53.4751737,68.430434 68.4154437,68.430434 68.4154437,68.430434 L69.0900044,69.1049946 L53.4751737,69.1049946 L53.4751737,68.7352355 L41.9776616,68.7352355 L43.2168546,69.9744284 L26.7425836,69.9744284 L26.7425836,70.4890932 L43.7465096,70.4890932 L44.0862883,70.828872 L53.4851672,70.828872 C53.4851672,70.828872 70.828872,70.828872 70.828872,70.828872 L71.5384099,71.5384099 L53.4851672,71.5384099 L53.4851672,71.1686507 L44.4260671,71.1686507 C44.4260671,71.1686507 45.705234,72.4478176 45.705234,72.4478176 L26.7425836,72.4478176 L26.7425836,70.9887678 L22.1205937,75.6107577 L23.3048225,76.7949865 L26.7425836,73.3572253 L26.7425836,72.9275052 L46.1799248,72.9275052 L46.4847263,73.2323067 L53.4851672,73.2323067 C53.4851672,73.2323067 73.2273099,73.2323067 73.2273099,73.2323067 L73.9718251,73.9768218 L53.4851672,73.9768218 L53.4851672,73.6070626 L46.8594823,73.6070626 L48.1736264,74.9212068 L26.7425836,74.9212068 L26.7425836,74.6713695 L23.9643929,77.4495602 L25.1736054,78.6587726 L26.7425836,77.0897945 L26.7425836,75.3559237 L48.6183368,75.3559237 L48.8881611,75.6257479 L53.490164,75.6257479 C53.490164,75.6257479 75.6307447,75.6257479 75.6307447,75.6257479 L76.4152338,76.410237 L53.490164,76.410237 L53.490164,76.0404778 L49.302891,76.0404778 L50.6520123,77.3895992 L26.7425836,77.3895992 L26.7425836,77.7893389 L51.051752,77.7893389 L51.2865991,78.0241859 L53.490164,78.0241859 C53.490164,78.0241859 78.0291827,78.0241859 78.0291827,78.0241859 L78.848649,78.8436522 L53.490164,78.8436522 L53.490164,78.4738931 L51.7363062,78.4738931 L53.1254015,79.8629884 L26.7425836,79.8629884 L26.7425836,78.3489744 L25.8031954,79.2883626 L26.7425836,80.2277508 L80.2277508,80.2277508 L80.2277508,53.4851672 L53.4851672,53.4851672 L53.4951607,53.4851672 Z M0,44.7508555 L0,45.5553316 L18.8077513,45.5553316 L18.0032752,44.7508555 L0,44.7508555 Z M0,35.0072012 L0,35.9565829 L9.21399929,35.9565829 L8.26461758,35.0072012 L0,35.0072012 Z M0,32.5687892 L0,33.5581449 L6.81556129,33.5581449 L5.82620562,32.5687892 L0,32.5687892 Z M0,30.1303773 L0,31.1547102 L4.4171233,31.1547102 L3.39279041,30.1303773 L0,30.1303773 Z M0,27.6969621 L0,28.7562722 L2.01368856,28.7562722 L0.954378451,27.6969621 L0,27.6969621 Z M25.8931368,25.8931368 L26.7425836,26.7425836 L26.7425836,25.8931368 L25.8931368,25.8931368 Z M79.2184082,25.733241 L80.2277508,26.7425836 L80.2277508,24.7189016 L79.2184082,25.7282442 L79.2184082,25.733241 Z M77.3796057,23.8944385 L78.6487792,25.1636119 L80.2327476,23.5796435 L80.2327476,21.0462934 L77.3796057,23.8994352 L77.3796057,23.8944385 Z M23.5246793,23.5296761 L23.5596565,23.5646533 L20.3767294,26.7475804 L20.306775,26.7475804 L23.5246793,23.5296761 Z M19.7871134,19.7921102 L19.8770549,19.8820516 L13.0115261,26.7475804 L12.8316433,26.7475804 L19.7871134,19.7921102 Z M0,25.0286998 L0,26.7425836 L10.6980328,37.4406164 L0,37.4406164 L0,38.3550209 L11.6124373,38.3550209 L13.5811551,40.3237387 L13.1364448,39.8790284 L0,39.8790284 L0,40.7584556 L14.0108753,40.7584556 L15.56986,42.3174403 L0,42.3174403 L0,43.1568936 L16.4093133,43.1568936 L20.4416871,47.1892675 L0,47.1892675 L0,47.9537696 L21.211186,47.9537696 L22.8800991,49.6226827 L0,49.6226827 L0,50.3522076 L23.609624,50.3522076 L25.3185111,52.0610947 L0,52.0610947 L0,52.7556423 L26.008062,52.7556423 L26.7425836,53.490164 L26.7425836,26.7425836 L25.398459,25.398459 L24.0543344,26.7425836 L24.0443409,26.7425836 L25.3934622,25.3934622 L25.1835989,25.1835989 L26.7425836,25.1835989 L26.7425836,23.4547249 L23.4547249,23.4547249 L21.7158573,21.7158573 L16.6941278,26.7425836 L16.5692091,26.7425836 L21.6558964,21.6558964 L21.7158573,21.7158573 L22.7851609,22.7801642 L26.7425836,22.7801642 L26.7425836,21.0163129 L21.0213097,21.0163129 L20.3867229,20.3817262 L26.7425836,20.3817262 L26.7425836,18.5828977 L18.5828977,18.5828977 L18.0332557,18.0332557 L9.32892444,26.7375869 L9.08908064,26.7375869 L17.9133338,17.9133338 L17.9832882,17.9832882 L26.7375869,17.9832882 L26.7375869,16.1444857 L16.1444857,16.1444857 L16.1894564,16.1894564 L5.65131952,26.7425836 L5.35651152,26.7425836 L16.0495476,16.0495476 L14.3556507,14.3556507 L1.96871785,26.7425836 L1.61894564,26.7425836 L14.1807646,14.1807646 L14.3556507,14.3556507 L15.5848502,15.5898469 L26.7425836,15.5898469 L26.7425836,13.7160673 L13.7110705,13.7160673 L13.1864122,13.191409 L12.5118515,12.5168483 L0,25.0286998 Z M0,17.6634965 L0,20.8814008 L10.4431988,10.438202 L10.6730491,10.6730491 L0,21.3460981 L0,24.6189666 L12.3119817,12.3119817 L12.5168483,12.5168483 L13.191409,13.191409 L26.7475804,13.191409 L26.7475804,11.2826521 L11.2776553,11.2826521 L10.7879742,10.792971 L26.7425836,10.792971 L26.7425836,8.8442401 L8.83924335,8.8442401 L8.82924986,8.8342466 L0,17.6634965 Z M6.40582814,6.40582814 L6.70563289,6.70563289 L6.99544414,6.99544414 L0,13.9858915 L0,17.1438349 L8.56941908,8.56941908 L8.38953623,8.38953623 L26.7425836,8.38953623 L26.7425836,6.40582814 L6.40582814,6.40582814 Z M70.0144024,16.5292352 L71.1686507,17.6834834 L80.2277508,8.62438328 L80.2277508,6.31588671 L70.0144024,16.5292352 Z M3.96741618,3.96741618 L4.8318532,4.8318532 L5.14664819,5.15164494 L0,10.3032899 L0,13.406269 L6.70063614,6.70063614 L5.98610149,5.99109823 L26.7425836,5.99109823 L26.7425836,3.96741618 L3.96741618,3.96741618 Z M0,6.62068821 L0,9.66870316 L4.8318532,4.8318532 L3.30784573,3.30784573 L0,6.62068821 Z M1.53400097,1.53400097 L2.96806702,2.96806702 L3.59765699,3.59266024 L26.7425836,3.59266024 L26.7425836,1.53400097 L1.53400097,1.53400097 Z M0,2.93808654 L0,5.92614054 L2.96307027,2.96307027 L1.53400097,1.53400097 L1.47404002,1.46904327 L0,2.93808654 Z M0,2.18857467 L1.09428733,1.09428733 L0,0 L0,2.18857467 Z M57.087821,0 L55.2839957,1.80382524 L56.2133904,2.73321996 L58.9416137,0.00499674582 L57.087821,0.00499674582 L57.087821,0 Z M71.8132309,0 L62.6491991,9.16403183 L61.8197392,8.33457202 L70.159308,0 L68.135626,0 L60.8103966,7.32522937 L59.9559531,6.47078583 L66.4217421,0 L64.4530243,0 L58.9715941,5.48143016 L58.0871701,4.59700615 L62.6841763,0 L60.7704226,0 L57.1277949,3.6426277 L56.2133904,2.72822322 L54.3446075,0.85944028 L55.2040478,0 L52.3209254,0 L53.4851672,1.16424178 L53.4851672,2.42342172 L51.0617455,0 L48.6383238,0 L53.4851672,4.84684344 L53.4851672,6.16098759 L47.3241796,0 L44.9557221,0 L53.4851672,8.52944511 L53.4851672,9.90355021 L43.5866138,0 L41.2781172,0 L53.4851672,12.20705 L53.4851672,13.6361193 L39.8490479,0 L37.5955155,0 L53.4851672,15.8896517 L53.4851672,17.378682 L36.111482,0 L33.9179106,0 L53.490164,19.5722534 L53.490164,21.1162478 L32.3689194,0 L30.2303122,0 L53.4851672,23.254855 L53.4851672,24.8538137 L28.6313535,0 L0,0 L1.19422225,1.19422225 L26.7425836,1.19422225 L26.7425836,0 L53.4851672,26.7425836 L80.2277508,26.7425836 L79.2184082,25.733241 L77.3796057,23.8944385 L76.7799962,23.294829 L80.2327476,19.8420776 L80.2327476,17.3636917 L75.5408033,22.055636 L74.9112133,21.4260461 L80.2327476,16.1045118 L80.2327476,13.68109 L73.6970041,20.2168336 L73.0374336,19.5572631 L80.2277508,12.3669459 L80.2277508,10.0034851 L71.8532048,18.3780311 L69.2998677,15.824694 L80.2277508,4.8968109 L80.2277508,2.63328505 L68.1706032,14.6904327 L68.7951964,15.3150259 L66.3318007,12.8516302 L64.4929983,11.0128278 L63.6935189,10.2133484 L73.8968739,0 L71.8132309,0 Z M75.4958325,0 L64.4880015,11.007831 L65.5573051,12.0771346 L77.6394365,0 L75.5008293,0 L75.4958325,0 Z M79.1784342,0 L66.3318007,12.8466335 L67.4310848,13.9459176 L80.2277508,1.14425479 L80.2277508,0 L79.1784342,0 Z" id="Shape"></path>
        </g>
    </g>
</svg>