<svg width="309" height="105" viewBox="0 0 309 105" fill="none" xmlns="http://www.w3.org/2000/svg">
<path d="M164.351 49.4686H156.08C155.231 49.4686 154.713 50.0192 154.713 50.8742V60.6938C154.713 61.5424 155.231 62.0606 156.08 62.0606H162.505L165.718 58.7766V50.8742C165.718 50.0257 165.2 49.4686 164.351 49.4686Z" fill="#120540"/>
<path d="M119.223 35.9893V75.3779H308.523V35.9893H119.223ZM252.74 48.6589L254.547 46.8517C254.735 46.6639 254.916 46.5926 255.175 46.5926H259.716C259.975 46.5926 260.124 46.7805 260.124 47.0007V49.067C260.124 49.2872 259.975 49.4751 259.716 49.4751H253.031C252.552 49.4751 252.364 49.0346 252.733 48.6654L252.74 48.6589ZM147.665 58.9255L141.906 64.6838C141.725 64.8717 141.537 64.9429 141.239 64.9429H131.491C131.232 64.9429 131.011 64.8717 130.824 64.6838L126.801 60.6614C126.62 60.48 126.542 60.2533 126.542 59.9942V46.1133C126.542 45.8154 126.652 45.634 126.84 45.4462L132.935 39.351C133.117 39.1631 133.304 39.0919 133.602 39.0919H142.612C142.871 39.0919 143.092 39.1631 143.279 39.351L147.302 43.3734C147.49 43.5613 147.561 43.7815 147.561 44.0406L147.6 47.1432C147.6 47.4023 147.418 47.5513 147.192 47.5513H145.125C144.905 47.5513 144.717 47.4023 144.717 47.1432V43.341C144.717 42.4925 144.167 41.9743 143.312 41.9743H134.302L129.431 46.8453V60.6938C129.431 61.5423 129.949 62.0605 130.837 62.0605H140.546L145.644 56.9628C145.832 56.775 146.013 56.7426 146.233 56.924L147.671 58.362C147.82 58.5433 147.82 58.77 147.671 58.9125L147.665 58.9255ZM168.599 59.5149C168.599 59.8129 168.489 59.9942 168.301 60.2145L163.832 64.645C163.644 64.8652 163.424 64.9429 163.132 64.9429H156.785C156.526 64.9429 156.305 64.8717 156.118 64.6838L152.095 60.6614C151.914 60.48 151.836 60.2533 151.836 59.9942V51.5413C151.836 51.2822 151.907 51.062 152.095 50.8742L156.118 46.8517C156.299 46.6639 156.526 46.5926 156.785 46.5926H163.651C163.91 46.5926 164.13 46.6639 164.318 46.8517L168.34 50.8742C168.522 51.062 168.599 51.2434 168.599 51.5413V59.5149ZM175.763 64.5348C175.763 64.7939 175.614 64.9429 175.394 64.9429H173.328C173.069 64.9429 172.92 64.7939 172.92 64.5348V46.9942C172.92 46.774 173.069 46.5862 173.328 46.5862H175.394C175.614 46.5862 175.763 46.774 175.763 46.9942V64.5348ZM187.766 64.5348C187.766 64.7939 187.584 64.9429 187.358 64.9429H185.291C185.071 64.9429 184.883 64.7939 184.883 64.5348V50.8742C184.883 50.0256 184.365 49.4686 183.478 49.4686H177.162C176.683 49.4686 176.463 49.0281 176.832 48.6589L178.639 46.8517C178.859 46.6639 179.047 46.5926 179.306 46.5926H182.811C183.07 46.5926 183.29 46.6639 183.478 46.8517L187.5 50.8742C187.682 51.062 187.759 51.2822 187.759 51.5413V64.5348H187.766ZM199.729 64.5348C199.729 64.7939 199.58 64.9429 199.321 64.9429H197.287C197.028 64.9429 196.879 64.7939 196.879 64.5348V50.8742C196.879 50.0256 196.329 49.4686 195.474 49.4686H187.533C187.053 49.4686 186.865 49.0281 187.235 48.6589L189.042 46.8517C189.23 46.6639 189.411 46.5926 189.67 46.5926H194.8C195.059 46.5926 195.241 46.6639 195.428 46.8517L199.451 50.8742C199.639 51.062 199.71 51.2822 199.71 51.5413V64.5348H199.729ZM221.513 59.9942C221.513 60.2922 221.441 60.4736 221.254 60.6614L217.231 64.6838C217.043 64.8717 216.823 64.9429 216.564 64.9429H210.249C209.951 64.9429 209.769 64.8717 209.581 64.6838L207.586 62.6888V71.919C207.586 72.1781 207.437 72.3271 207.217 72.3271H205.151C204.892 72.3271 204.743 72.1781 204.743 71.919V47.0007C204.743 46.7805 204.892 46.5926 205.151 46.5926H207.217C207.437 46.5926 207.586 46.7805 207.586 47.0007V60.7327C207.586 61.6913 208.105 62.0605 208.992 62.0605H217.225C218.112 62.0605 218.63 61.5423 218.63 60.6938V50.8742C218.63 50.0256 218.112 49.4686 217.225 49.4686H208.953C208.474 49.4686 208.254 49.0281 208.623 48.6589L210.43 46.8517C210.65 46.6639 210.838 46.5926 211.097 46.5926H216.564C216.823 46.5926 217.043 46.6639 217.231 46.8517L221.254 50.8742C221.441 51.062 221.513 51.2434 221.513 51.5413V59.9942ZM238.425 62.8767L236.618 64.6838C236.43 64.9041 236.249 64.9429 235.951 64.9429H231.41C231.112 64.9429 230.931 64.8717 230.743 64.6838L226.72 60.6614C226.533 60.48 226.461 60.2533 226.461 59.9942V47.0007C226.461 46.7805 226.61 46.5926 226.869 46.5926H228.936C229.156 46.5926 229.305 46.7805 229.305 47.0007V60.7003C229.305 61.5488 229.855 62.067 230.71 62.067H238.133C238.613 62.067 238.801 62.5074 238.431 62.8767H238.425ZM242.337 64.5413C242.337 64.8004 242.188 64.9494 241.968 64.9494H239.902C239.643 64.9494 239.494 64.8004 239.494 64.5413V47.0007C239.494 46.7805 239.643 46.5926 239.902 46.5926H241.968C242.188 46.5926 242.337 46.7805 242.337 47.0007V64.5413ZM260.5 60.1821L256.069 64.6514C255.849 64.8717 255.661 64.9494 255.37 64.9494H253.822C253.524 64.9494 253.342 64.8781 253.154 64.6903L249.132 60.6679C248.912 60.4477 248.834 60.2598 248.834 60.0007V49.4751H246.399C246.178 49.4751 245.99 49.2937 245.99 49.067V47.0007C245.99 46.7805 246.172 46.5926 246.399 46.5926H248.834V42.2334C248.834 42.0132 249.022 41.8253 249.242 41.8253H251.308C251.529 41.8253 251.716 42.0132 251.716 42.2334V60.6938C251.716 61.5423 252.235 62.0605 253.083 62.0605H254.67L258.511 58.2195C258.699 58.0316 258.952 58.0316 259.101 58.2195L260.506 59.5862C260.688 59.774 260.688 59.9942 260.506 60.1756L260.5 60.1821ZM281.881 52.0466C281.881 52.3057 281.81 52.487 281.583 52.7461L277.192 57.1054C277.01 57.3256 276.784 57.4033 276.492 57.4033H271.544C271.284 57.4033 271.103 57.3321 270.876 57.1442L269.102 55.337C268.732 54.9678 268.914 54.5274 269.4 54.5274H276.117L278.999 51.645V50.8353C278.999 49.9868 278.481 49.4297 277.632 49.4297H269.361C268.512 49.4297 267.994 49.9803 267.994 50.8353V60.6549C267.994 61.5035 268.512 62.0216 269.361 62.0216H277.522C278.371 62.0216 278.928 61.5035 278.928 60.6549V58.6988C278.928 58.4785 279.077 58.2907 279.336 58.2907H281.402C281.622 58.2907 281.81 58.4785 281.81 58.6988V59.9554C281.81 60.2145 281.739 60.3958 281.512 60.6225L277.49 64.645C277.308 64.8328 277.121 64.9041 276.823 64.9041H270.067C269.808 64.9041 269.587 64.8328 269.4 64.645L265.377 60.6225C265.196 60.4347 265.118 60.2533 265.118 59.9942V51.5025C265.118 51.2434 265.189 51.062 265.416 50.8353L269.438 46.8129C269.62 46.625 269.808 46.5538 270.106 46.5538H276.933C277.192 46.5538 277.412 46.625 277.6 46.8129L281.622 50.8353C281.804 51.0167 281.881 51.2045 281.881 51.4636V52.053V52.0466ZM289.525 64.4895C289.525 64.7486 289.376 64.8976 289.155 64.8976H287.089C286.83 64.8976 286.681 64.7486 286.681 64.4895V46.9489C286.681 46.7287 286.83 46.5408 287.089 46.5408H289.155C289.376 46.5408 289.525 46.7287 289.525 46.9489V64.4895ZM300.381 54.7411C300.381 54.9614 300.199 55.1492 299.973 55.1492H297.906C297.647 55.1492 297.498 54.9678 297.498 54.7411V50.8288C297.498 49.9803 296.941 49.4232 296.093 49.4232H290.885C290.406 49.4232 290.218 48.9828 290.587 48.6136L292.362 46.8064C292.582 46.6186 292.77 46.5473 293.029 46.5473H295.432C295.691 46.5473 295.872 46.6186 296.099 46.8064L300.089 50.8288C300.309 51.0102 300.387 51.2369 300.387 51.496V54.7476L300.381 54.7411Z" fill="#120540"/>
<path d="M226.694 92.6853C226.979 89.0904 229.065 87.0436 232.517 87.0436C235.607 87.0436 237.55 89.1293 237.731 92.6853H226.694ZM232.517 103.185C236.87 103.185 239.778 100.957 240.497 97.7571C240.536 97.6146 240.426 97.5044 240.212 97.5044H237.913C237.731 97.5044 237.628 97.5757 237.589 97.7571C236.98 99.5901 235.179 100.743 232.517 100.743C228.993 100.743 226.908 98.5473 226.694 94.92H240.322C240.504 94.92 240.607 94.8099 240.607 94.635V93.916C240.607 88.1253 237.55 84.6016 232.517 84.6016C227.121 84.6016 223.637 88.2354 223.637 93.916C223.637 99.5966 227.089 103.192 232.517 103.192M213.389 103.192C217.671 103.192 220.651 100.821 221.337 97.2972C221.369 97.1158 221.227 97.0446 221.052 97.0446H218.753C218.571 97.0446 218.468 97.1158 218.429 97.2972C217.749 99.6355 216.058 100.75 213.396 100.75C209.73 100.75 207.502 98.1975 207.502 93.916C207.502 89.6345 209.73 87.05 213.396 87.05C215.987 87.05 217.71 88.2354 218.247 90.5025C218.319 90.7162 218.39 90.7875 218.571 90.7875H220.91C221.091 90.7875 221.233 90.6773 221.195 90.4636C220.586 86.9399 217.561 84.6016 213.389 84.6016C208.033 84.6016 204.47 88.339 204.47 93.916C204.47 99.493 207.961 103.192 213.389 103.192ZM186.282 103.01H188.724C188.866 103.01 188.976 102.9 188.976 102.725V92.6205C188.976 89.0256 190.667 87.1537 193.828 87.1537C196.989 87.1537 198.466 88.9155 198.466 92.6205V102.725C198.466 102.907 198.576 103.01 198.751 103.01H201.16C201.342 103.01 201.445 102.9 201.445 102.725V92.6205C201.445 87.3674 199.146 84.6016 194.936 84.6016C192.273 84.6016 190.227 85.787 188.97 87.9439H188.86V85.068C188.86 84.8866 188.75 84.783 188.575 84.783H186.275C186.133 84.783 186.023 84.8931 186.023 85.068V102.725C186.023 102.907 186.133 103.01 186.275 103.01M168.728 92.6918C169.013 89.0969 171.099 87.05 174.551 87.05C177.641 87.05 179.584 89.1357 179.766 92.6918H168.728ZM174.551 103.192C178.904 103.192 181.812 100.963 182.531 97.7635C182.57 97.621 182.46 97.5109 182.246 97.5109H179.947C179.766 97.5109 179.662 97.5822 179.623 97.7635C179.014 99.5966 177.214 100.75 174.551 100.75C171.028 100.75 168.942 98.5538 168.728 94.9265H182.357C182.538 94.9265 182.642 94.8164 182.642 94.6415V93.9225C182.642 88.1318 179.584 84.6081 174.551 84.6081C169.156 84.6081 165.671 88.2419 165.671 93.9225C165.671 99.6031 169.123 103.198 174.551 103.198M158.98 80.8318C158.98 80.9743 159.09 81.0844 159.265 81.0844H162.432C162.575 81.0844 162.685 80.9743 162.685 80.8318V77.6644C162.685 77.483 162.575 77.3794 162.432 77.3794H159.265C159.084 77.3794 158.98 77.4895 158.98 77.6644V80.8318ZM159.589 103.017H162.031C162.173 103.017 162.283 102.907 162.283 102.732V85.0745C162.283 84.8931 162.173 84.7895 162.031 84.7895H159.589C159.446 84.7895 159.336 84.8996 159.336 85.0745V102.732C159.336 102.913 159.446 103.017 159.589 103.017ZM148.014 103.198C152.289 103.198 155.275 100.827 155.961 97.3037C155.994 97.1223 155.851 97.051 155.67 97.051H153.371C153.189 97.051 153.086 97.1223 153.047 97.3037C152.367 99.642 150.676 100.756 148.014 100.756C144.348 100.756 142.119 98.204 142.119 93.9225C142.119 89.641 144.348 87.0565 148.014 87.0565C150.605 87.0565 152.328 88.2419 152.865 90.5089C152.937 90.7227 153.008 90.7939 153.189 90.7939H155.527C155.709 90.7939 155.851 90.6838 155.812 90.4701C155.204 86.9464 152.179 84.6081 148.014 84.6081C142.657 84.6081 139.094 88.3455 139.094 93.9225C139.094 99.4995 142.579 103.198 148.014 103.198ZM127.804 103.198C133.129 103.198 136.471 100.503 136.471 96.1118C136.471 92.0505 134.599 90.1073 129.534 89.1746L126.872 88.7082C123.238 87.9893 121.768 86.765 121.768 84.2842C121.768 81.8034 123.672 80.2553 127.053 80.2553C130.434 80.2553 132.377 81.7322 132.844 84.7117C132.915 84.9643 133.025 84.9967 133.168 84.9967H135.61C135.791 84.9967 135.934 84.8866 135.895 84.7117C135.357 80.2877 132.086 77.6644 127.047 77.6644C122.007 77.6644 118.704 80.2553 118.704 84.498C118.704 88.3779 120.932 90.5413 125.894 91.4741L128.556 91.9404C132.222 92.6594 133.375 93.7023 133.375 96.1831C133.375 98.9489 131.257 100.607 127.804 100.607C123.886 100.607 121.832 99.059 121.224 95.4641C121.191 95.2503 121.113 95.1791 120.939 95.1791H118.458C118.276 95.1791 118.173 95.2892 118.205 95.503C118.853 100.465 122.266 103.198 127.804 103.198Z" fill="#120540"/>
<path d="M194.009 26.0012C198.29 26.0012 201.27 23.6305 201.957 20.1069C201.989 19.9255 201.846 19.8543 201.672 19.8543H199.372C199.191 19.8543 199.087 19.9255 199.048 20.1069C198.362 22.4452 196.678 23.5593 194.015 23.5593C190.349 23.5593 188.121 21.0072 188.121 16.7257C188.121 12.4442 190.349 9.85974 194.015 9.85974C196.606 9.85974 198.329 11.0451 198.867 13.3122C198.938 13.5259 199.009 13.5972 199.191 13.5972H201.529C201.71 13.5972 201.853 13.487 201.814 13.2733C201.205 9.74963 198.18 7.41131 194.009 7.41131C188.652 7.41131 185.09 11.1487 185.09 16.7257C185.09 22.3027 188.574 26.0012 194.009 26.0012ZM166.681 16.7257C166.681 12.5219 168.909 9.85974 172.433 9.85974C175.957 9.85974 178.224 12.5543 178.224 16.7257C178.224 20.8971 175.995 23.5593 172.433 23.5593C168.87 23.5593 166.681 20.936 166.681 16.7257ZM171.681 26.0012C174.415 26.0012 176.857 24.6734 178.12 22.4387H178.23V23.6241C178.23 25.062 179.092 25.8199 180.782 25.8199H183.302C183.483 25.8199 183.587 25.7098 183.587 25.5349V23.7018C183.587 23.5593 183.477 23.4492 183.302 23.4492H181.106V7.87768C181.106 7.69631 180.996 7.59268 180.821 7.59268H178.411C178.23 7.59268 178.126 7.70279 178.126 7.87768V11.0451H178.016C176.688 8.74564 174.35 7.41131 171.688 7.41131C166.798 7.41131 163.669 11.0775 163.669 16.7257C163.669 22.3739 166.798 26.0012 171.688 26.0012M145.26 16.7257C145.26 12.5219 147.489 9.85974 151.012 9.85974C154.536 9.85974 156.803 12.5543 156.803 16.7257C156.803 20.8971 154.575 23.5593 151.012 23.5593C147.45 23.5593 145.26 20.936 145.26 16.7257ZM150.261 26.0012C152.994 26.0012 155.436 24.6734 156.699 22.4387H156.81V23.6241C156.81 25.062 157.671 25.8199 159.362 25.8199H161.881C162.063 25.8199 162.166 25.7098 162.166 25.5349V23.7018C162.166 23.5593 162.056 23.4492 161.881 23.4492H159.685V7.87768C159.685 7.69631 159.575 7.59268 159.4 7.59268H156.991C156.81 7.59268 156.699 7.70279 156.699 7.87768V11.0451H156.589C155.261 8.74564 152.923 7.41131 150.261 7.41131C145.371 7.41131 142.242 11.0775 142.242 16.7257C142.242 22.3739 145.371 26.0012 150.261 26.0012ZM133.323 26.0012C137.565 26.0012 139.936 24.058 139.936 20.6769C139.936 17.6908 138.783 16.3241 134.722 15.5727L132.636 15.1776C130.194 14.6724 129.398 13.921 129.398 12.4053C129.398 10.7536 130.693 9.74315 132.889 9.74315C135.085 9.74315 136.231 10.5722 136.594 12.4766C136.626 12.6191 136.704 12.7681 136.918 12.7681H139.256C139.437 12.7681 139.547 12.6579 139.509 12.4442C139.075 9.2444 136.704 7.41131 132.895 7.41131C129.087 7.41131 126.496 9.46462 126.496 12.5867C126.496 15.5015 128.076 17.0107 131.781 17.7297L133.724 18.0859C136.244 18.5912 137.034 19.2389 137.034 20.8194C137.034 22.5812 135.629 23.6565 133.329 23.6565C130.738 23.6565 129.372 22.6525 128.944 20.4567C128.905 20.2753 128.873 20.1716 128.659 20.1716H126.36C126.178 20.1716 126.075 20.2818 126.107 20.4955C126.502 24.058 129.054 25.9948 133.336 25.9948M119.526 25.8134H122.046C122.227 25.8134 122.331 25.7033 122.331 25.5284V0.933982C122.331 0.752616 122.221 0.648979 122.046 0.648979H119.526C119.384 0.648979 119.273 0.759094 119.273 0.933982V25.5284C119.273 25.7098 119.384 25.8134 119.526 25.8134Z" fill="#120540"/>
<path d="M23.9013 93.7412L25.3587 95.205L34.6602 85.9036V85.5668H50.3871L49.6228 84.8024H34.6602V82.9823L23.8949 93.7476L23.9013 93.7412ZM0.0842053 69.8333L0.0453413 69.8722L1.14001 70.9669L2.27354 69.8333H0.0842053ZM4.858 69.8333L2.429 72.2623L3.55605 73.3894L7.11211 69.8333H4.85152H4.858ZM9.63179 69.8333L4.81913 74.646L5.98505 75.8119L11.9636 69.8333H9.63179ZM14.4056 69.8333L7.20279 77.0361L8.4011 78.2409L16.8022 69.8398H14.3991L14.4056 69.8333ZM19.1794 69.8333L9.59293 79.4198L10.8301 80.657L21.6537 69.8333H19.1729H19.1794ZM23.9532 69.8333L11.9831 81.8034L13.2591 83.0795L26.5052 69.8333H23.9532ZM28.727 69.8333L14.3667 84.1936L15.6816 85.5085L31.3568 69.8333H28.7334H28.727ZM69.3463 69.8333H33.4943L16.7504 86.5772L18.0977 87.9245L34.6667 71.349V69.8269L35.3792 70.5394H69.3333H70.0458L70.6288 71.1223H69.3333V70.643H35.4828L36.8107 71.9709H34.6667V72.9295H37.7693L38.4883 73.6485H69.3333H73.155L73.7897 74.2833H69.3333V73.8039H38.6437L40.0169 75.1771H34.6667V73.4283L19.134 88.9609L20.5202 90.347L34.6667 76.2006V76.0904H40.9238L41.5974 76.7641H69.3333H76.2641L76.9442 77.4442H69.3333V76.9649H41.7982L43.2167 78.3834H34.6602V78.202L21.5112 91.351L22.9362 92.776L34.6602 81.0521V79.2514H44.0782L44.7065 79.8797H69.3333H79.3732L80.1051 80.6051H69.3333V80.1258H44.9591L46.423 81.5897H34.6667V82.4058H47.2392L47.8221 82.9888H69.3398H82.4888L83.2661 83.7661H69.3398V83.2868H48.1201L50.9312 86.0979H69.3333H85.5914L86.4141 86.9205H69.3269V86.4412H51.2681L52.8291 88.0022H34.6602V87.7496L26.285 96.1248L27.7813 97.6211L34.6602 90.7422V88.7212H53.5416L54.0274 89.207H69.3204H88.6876L89.562 90.0815H69.3204V89.6021H54.416L56.0224 91.2085H34.6667V91.8757H56.709L57.1495 92.3161H69.3333H91.8161L92.7359 93.2359H69.3333V92.7566H57.5899L59.2481 94.4148H34.6667V92.5234L28.6751 98.515L30.2103 100.05L34.6667 95.5937V95.0366H59.8635L60.2586 95.4317H69.3333H94.9253L95.8904 96.3969H69.3333V95.9175H60.7444L62.4479 97.6211H34.6667V97.2972L31.0653 100.899L32.6328 102.466L34.6667 100.432V98.1846H63.0244L63.3742 98.5344H69.3398H98.0409L99.0578 99.5513H69.3398V99.072H63.9118L65.6607 100.821H34.6667V101.339H66.1789L66.4833 101.644H69.3398H101.15L102.212 102.706H69.3398V102.226H67.0663L68.867 104.027H34.6667V102.065L33.4489 103.282L34.6667 104.5H104V69.8333H69.3333H69.3463ZM0 58.511V59.5538H24.3807L23.3378 58.511H0ZM0 45.8802V47.1109H11.9442L10.7135 45.8802H0ZM0 42.7192V44.0017H8.83508L7.55257 42.7192H0ZM0 39.5583V40.8862H5.72596L4.39811 39.5583H0ZM0 36.4038V37.777H2.61036L1.23717 36.4038H0ZM33.5655 34.0655L34.6667 35.1667V34.0655H33.5655ZM102.692 33.8582L104 35.1667V32.5434L102.692 33.8518V33.8582ZM100.308 31.4746L101.953 33.1198L104.006 31.0665V27.7825L100.308 31.4811V31.4746ZM30.4953 31.0017L30.5406 31.0471L26.4146 35.1731H26.3239L30.4953 31.0017ZM25.6502 26.1567L25.7668 26.2733L16.867 35.1731H16.6338L25.6502 26.1567ZM0 32.9449V35.1667L13.868 49.0346H0V50.22H15.0533L17.6054 52.772L17.0289 52.1956H0V53.3356H18.1624L20.1834 55.3565H0V56.4447H21.2716L26.4988 61.6719H0V62.6629H27.4963L29.6597 64.8264H0V65.772H30.6054L32.8206 67.9873H0V68.8876H33.7145L34.6667 69.8398V35.1667L32.9243 33.4243L31.1819 35.1667H31.1689L32.9178 33.4178L32.6457 33.1457H34.6667V30.9046H30.4046L28.1505 28.6505L21.6408 35.1667H21.4788L28.0727 28.5727L28.1505 28.6505L29.5366 30.0301H34.6667V27.7437H27.2501L26.4275 26.921H34.6667V24.5892H24.0892L23.3767 23.8767L12.0932 35.1602H11.7823L23.2212 23.7212L23.3119 23.8119H34.6602V21.4283H20.9283L20.9865 21.4865L7.32586 35.1667H6.9437L20.8052 21.3052L18.6094 19.1094L2.55207 35.1667H2.09865L18.3827 18.8827L18.6094 19.1094L20.2028 20.7093H34.6667V18.2803H17.7738L17.0937 17.6002L16.2192 16.7257L0 32.9449ZM0 23.3974V27.5688L13.5376 14.0311L13.8356 14.3356L0 28.1712V32.4138L15.9601 16.4601L16.2257 16.7257L17.1002 17.6002H34.6731V15.1258H14.6193L13.9846 14.491H34.6667V11.9649H11.4584L11.4454 11.9519L0 23.3974ZM8.30394 8.80394L8.69258 9.19258L9.06826 9.56826L0 18.63V22.7237L11.1086 11.6086L10.8754 11.3754H34.6667V8.80394H8.30394ZM90.7603 21.927L92.2566 23.4233L104 11.6799V8.68734L90.7603 21.927ZM5.143 5.643L6.26358 6.76358L6.67165 7.17813L0 13.8563V17.8787L8.6861 9.1861L7.75984 8.26632H34.6667V5.643H5.143ZM0 9.08246V13.0336L6.26358 6.76358L4.28799 4.78799L0 9.08246ZM1.98854 2.48854L3.84753 4.34753L4.66368 5.1572H34.6667V2.48854H1.98854ZM0 4.30867V8.18211L3.84106 4.34106L1.98854 2.48854L1.91081 2.40434L0 4.30867ZM0 3.33707L1.41854 1.91854L0 0.5V3.33707ZM74.0035 0.5L71.6652 2.83832L72.87 4.0431L76.4066 0.506477H74.0035V0.5ZM93.0922 0.5L81.2128 12.3794L80.1375 11.3042L90.9482 0.5H88.3249L78.8291 9.99577L77.7215 8.88814L86.1031 0.5H83.5511L76.4454 7.60563L75.299 6.45914L81.2581 0.5H78.7773L74.0553 5.22197L72.87 4.03662L70.4474 1.6141L71.5615 0.5H67.8241L69.3333 2.00922V3.6415L66.1918 0.5H63.0503L69.3333 6.78301V8.48655L61.3468 0.5H58.2765L69.3333 11.5568V13.3381L56.5018 0.5H53.5092L69.3333 16.3241V18.1766L51.6567 0.5H48.7354L69.3333 21.0979V23.0282L46.8117 0.5H43.9681L69.3398 25.8717V27.8732L41.9601 0.5H39.1878L69.3333 30.6455V32.7182L37.1151 0.5H0L1.54808 2.04808H34.6667V0.5L69.3333 35.1667H104L102.692 33.8582L100.308 31.4746L99.5306 30.6973L104.006 26.2215V23.0087L97.9243 29.0909L97.1081 28.2748L104.006 21.3764V18.2349L95.5341 26.7073L94.6791 25.8523L104 16.5314V13.4676L93.144 24.3236L89.8341 21.0137L104 6.84778V3.91355L88.3702 19.5433L89.1799 20.353L85.9865 17.1597L83.6029 14.776L82.5665 13.7397L95.7932 0.5H93.0922ZM97.866 0.5L83.5964 14.7696L84.9826 16.1557L100.645 0.5H97.8725H97.866ZM102.64 0.5L85.9865 17.1532L87.4116 18.5782L104 1.98331V0.5H102.64Z" fill="#120540"/>
</svg>
