<?xml version="1.0" encoding="UTF-8"?>
<svg width="303px" height="146px" viewBox="0 0 303 146" version="1.1" xmlns="http://www.w3.org/2000/svg" xmlns:xlink="http://www.w3.org/1999/xlink">
    <title>ncce-logo-with-bg</title>
    <g id="Page-1" stroke="none" stroke-width="1" fill="none" fill-rule="evenodd">
        <g id="ncce-logo-with-bg">
            <rect id="Rectangle" fill="#1C0F5F" fill-rule="nonzero" x="0" y="0" width="303" height="146"></rect>
            <g id="Group" transform="translate(105.000000, 39.000000)">
                <path d="M22.384104,42.5010469 L23.9611563,42.5010469 C24.0782849,42.5010469 24.1493987,42.4298559 24.1493987,42.3126001 L24.1493987,32.2160365 L28.4873385,32.2160365 C28.604467,32.2160365 28.6755808,32.1448454 28.6755808,32.0275896 L28.6755808,30.7294002 C28.6755808,30.6121444 28.604467,30.5409533 28.4873385,30.5409533 L24.8103384,30.5409533 C23.1119743,30.5409533 22.1958617,31.462249 22.1958617,33.1582707 L22.1958617,42.3126001 C22.1958617,42.4298559 22.2669754,42.5010469 22.384104,42.5010469 M10.3658773,36.5335632 C10.3658773,33.7738638 11.8509001,32.0275896 14.2311197,32.0275896 C16.6113394,32.0275896 18.1214611,33.7738638 18.1214611,36.5335632 C18.1214611,39.2932627 16.6113394,41.0144106 14.2311197,41.0144106 C11.8509001,41.0144106 10.3658773,39.2932627 10.3658773,36.5335632 M14.2311197,42.6224905 C17.7198775,42.6224905 20.1000971,40.1684937 20.1000971,36.5335632 C20.1000971,32.8986328 17.7198775,30.4236975 14.2311197,30.4236975 C10.742362,30.4236975 8.38724135,32.9028205 8.38724135,36.5335632 C8.38724135,40.1643059 10.742362,42.6224905 14.2311197,42.6224905 M2.58937775,42.5052346 L4.16643012,42.5052346 C4.28355868,42.5052346 4.35467244,42.4340436 4.35467244,42.3167878 L4.35467244,32.1239069 L7.48786136,32.1239069 C7.60498992,32.1239069 7.67610368,32.0275896 7.67610368,31.93546 L7.67610368,30.7335879 C7.67610368,30.6163321 7.60498992,30.545141 7.48786136,30.545141 L4.35467244,30.545141 L4.35467244,27.0777189 L7.48786136,27.0777189 C7.60498992,27.0777189 7.67610368,27.0065279 7.67610368,26.9143983 L7.67610368,25.7125262 C7.67610368,25.5952704 7.60498992,25.5240793 7.48786136,25.5240793 L5.01561216,25.5240793 C3.31724808,25.5240793 2.40113543,26.445375 2.40113543,28.1413967 L2.40113543,30.5493287 L0.163143348,30.5493287 C0.0669306043,30.5493287 0,30.6205198 0,30.7377756 L0,31.9396477 C0,32.035965 0.0711137671,32.1280946 0.163143348,32.1280946 L2.40113543,32.1280946 L2.40113543,42.3209755 C2.40113543,42.4382313 2.4722492,42.5094223 2.58937775,42.5094223" id="Shape" fill="#FFFFFF" fill-rule="nonzero"></path>
                <rect id="Rectangle" fill="#59FF69" fill-rule="nonzero" x="33.9421827" y="23.5516689" width="134.057817" height="25.8465328"></rect>
                <g transform="translate(2.367670, 0.000000)" id="Shape">
                    <path d="M155.044745,10.2138194 C155.232987,7.85613992 156.600881,6.5118857 158.863973,6.5118857 C160.892806,6.5118857 162.164488,7.88126617 162.281616,10.2138194 L155.044745,10.2138194 Z M158.863973,17.1025988 C161.71689,17.1025988 163.624412,15.6410888 164.097109,13.5388595 C164.122208,13.4425422 164.051094,13.3755389 163.908867,13.3755389 L162.398745,13.3755389 C162.281616,13.3755389 162.210503,13.4216036 162.185404,13.5388595 C161.78382,14.7407316 160.608351,15.4987067 158.863973,15.4987067 C156.554867,15.4987067 155.186972,14.0581352 155.044745,11.6753295 L163.975797,11.6753295 C164.092926,11.6753295 164.16404,11.6041384 164.16404,11.4868826 L164.16404,11.0136716 C164.16404,7.21542062 162.160305,4.90380589 158.859789,4.90380589 C155.325017,4.90380589 153.04101,7.28661165 153.04101,11.0136716 C153.04101,14.7407316 155.304101,17.1025988 158.859789,17.1025988 M145.640995,16.985343 L147.218047,16.985343 C147.335176,16.985343 147.40629,16.914152 147.40629,16.7968962 L147.40629,6.70033255 L151.744229,6.70033255 C151.861358,6.70033255 151.932472,6.62914152 151.932472,6.5118857 L151.932472,5.21369627 C151.932472,5.09644045 151.861358,5.02524941 151.744229,5.02524941 L148.067229,5.02524941 C146.368865,5.02524941 145.452753,5.94654514 145.452753,7.64256682 L145.452753,16.7968962 C145.452753,16.914152 145.523866,16.985343 145.640995,16.985343 M140.575185,16.985343 L143.047434,16.985343 C143.164563,16.985343 143.235676,16.914152 143.235676,16.7968962 L143.235676,15.595024 C143.235676,15.4987067 143.164563,15.4317034 143.047434,15.4317034 L139.914245,15.4317034 L139.914245,6.60401527 L143.047434,6.60401527 C143.164563,6.60401527 143.235676,6.50769799 143.235676,6.41556842 L143.235676,5.21369627 C143.235676,5.09644045 143.164563,5.02524941 143.047434,5.02524941 L139.914245,5.02524941 L139.914245,1.67508314 C139.914245,1.55782732 139.843131,1.48663629 139.726003,1.48663629 L138.14895,1.48663629 C138.031822,1.48663629 137.960708,1.55782732 137.960708,1.67508314 L137.960708,5.02524941 L135.722716,5.02524941 C135.626503,5.02524941 135.559573,5.09644045 135.559573,5.21369627 L135.559573,6.41556842 C135.559573,6.5118857 135.630686,6.60401527 135.722716,6.60401527 L137.960708,6.60401527 L137.960708,14.3638379 C137.960708,16.0640473 138.881004,16.9811553 140.575185,16.9811553 M124.10189,16.9811553 L125.704041,16.9811553 C125.800254,16.9811553 125.867185,16.9099643 125.867185,16.7927085 L125.867185,10.1635669 C125.867185,7.80588742 126.975723,6.57888903 129.050571,6.57888903 C131.12542,6.57888903 132.091731,7.73469639 132.091731,10.1635669 L132.091731,16.7927085 C132.091731,16.9099643 132.162845,16.9811553 132.279973,16.9811553 L133.857025,16.9811553 C133.974154,16.9811553 134.045268,16.9099643 134.045268,16.7927085 L134.045268,10.1635669 C134.045268,6.72127109 132.539329,4.90380589 129.778442,4.90380589 C128.034063,4.90380589 126.691268,5.68271955 125.867185,7.0981648 L125.796071,7.0981648 L125.796071,5.20950856 C125.796071,5.09225274 125.724957,5.02106171 125.607828,5.02106171 L124.10189,5.02106171 C124.005677,5.02106171 123.938747,5.09225274 123.938747,5.20950856 L123.938747,16.7927085 C123.938747,16.9099643 124.00986,16.9811553 124.10189,16.9811553 M112.602375,10.2096317 C112.790618,7.85195221 114.158512,6.50769799 116.421603,6.50769799 C118.450437,6.50769799 119.722118,7.87707846 119.839247,10.2096317 L112.602375,10.2096317 Z M116.421603,17.0984111 C119.27452,17.0984111 121.182042,15.6369011 121.65474,13.5346718 C121.679839,13.4383545 121.608725,13.3713512 121.466497,13.3713512 L119.956376,13.3713512 C119.839247,13.3713512 119.768133,13.4174159 119.743034,13.5346718 C119.341451,14.7365439 118.161799,15.494519 116.421603,15.494519 C114.112497,15.494519 112.744603,14.0539475 112.602375,11.6711418 L121.533428,11.6711418 C121.650557,11.6711418 121.72167,11.5999507 121.72167,11.4826949 L121.72167,11.0094839 C121.72167,7.21123291 119.717935,4.89961818 116.41742,4.89961818 C112.882647,4.89961818 110.594457,7.28242394 110.594457,11.0094839 C110.594457,14.7365439 112.857548,17.0984111 116.41742,17.0984111 M102.136102,17.0984111 C105.741988,17.0984111 108.335549,15.0003695 108.97139,11.8847149 C109.017405,11.7213943 108.925375,11.6711418 108.829163,11.6711418 L107.201912,11.6711418 C107.059685,11.6711418 107.038769,11.7172066 106.988571,11.8344624 C106.306715,14.2423944 104.583252,15.3730755 102.131919,15.3730755 C98.5720475,15.3730755 96.4051692,12.8730139 96.4051692,8.71880773 C96.4051692,4.56460155 98.5971465,2.06453997 102.131919,2.06453997 C104.654366,2.06453997 106.302532,3.3627294 106.846343,5.62827934 C106.871442,5.74553516 106.942556,5.8167262 107.059685,5.8167262 L108.661836,5.8167262 C108.778965,5.8167262 108.875177,5.74553516 108.850078,5.6031531 C108.260252,2.41630743 105.620677,0.343392043 102.131919,0.343392043 C97.4174946,0.343392043 94.3554194,3.69355832 94.3554194,8.71880773 C94.3554194,13.7440571 97.3965788,17.0942234 102.131919,17.0942234 M85.7046388,16.9769676 L87.5661463,16.9769676 C87.662359,16.9769676 87.7292896,16.9057766 87.7292896,16.7885208 L87.7292896,15.5866486 C87.7292896,15.4903313 87.6581758,15.423328 87.5661463,15.423328 L85.0436991,15.423328 L85.0436991,0.188446853 C85.0436991,0.0711910334 84.9725853,0 84.8805558,0 L83.2784044,0 C83.1821917,0 83.1152611,0.0711910334 83.1152611,0.188446853 L83.1152611,14.3680256 C83.1152611,16.068235 84.0355569,16.985343 85.708822,16.985343 M70.2269366,11.0178593 C70.2269366,8.25815987 71.6868604,6.5118857 73.9959662,6.5118857 C76.3050721,6.5118857 77.7900949,8.27909841 77.7900949,11.0178593 C77.7900949,13.7566203 76.3301711,15.4987067 73.9959662,15.4987067 C71.6617614,15.4987067 70.2269366,13.7775588 70.2269366,11.0178593 M73.502353,17.1067866 C75.2927467,17.1067866 76.894898,16.2357433 77.7189811,14.7700456 L77.7900949,14.7700456 L77.7900949,15.5489592 C77.7900949,16.4911935 78.3548218,16.9895307 79.46336,16.9895307 L81.1115261,16.9895307 C81.2286547,16.9895307 81.2997684,16.9183397 81.2997684,16.8010839 L81.2997684,15.5992117 C81.2997684,15.5028944 81.2286547,15.4358911 81.1115261,15.4358911 L79.6725181,15.4358911 L79.6725181,5.21369627 C79.6725181,5.09644045 79.6014043,5.02524941 79.4842758,5.02524941 L77.9072234,5.02524941 C77.7900949,5.02524941 77.7189811,5.09644045 77.7189811,5.21369627 L77.7189811,7.29079936 L77.6478673,7.29079936 C76.7777695,5.77903683 75.2425487,4.9079936 73.4981699,4.9079936 C70.2938672,4.9079936 68.2441174,7.31592561 68.2441174,11.0178593 C68.2441174,14.7197931 70.2938672,17.1067866 73.4981699,17.1067866 M56.4350489,16.9895307 L58.0372003,16.9895307 C58.133413,16.9895307 58.2003436,16.9183397 58.2003436,16.8010839 L58.2003436,10.1719424 C58.2003436,7.81426284 59.3088818,6.58726444 61.3837305,6.58726444 C63.4585792,6.58726444 64.4248898,7.74307181 64.4248898,10.1719424 L64.4248898,16.8010839 C64.4248898,16.9183397 64.4960036,16.9895307 64.6131321,16.9895307 L66.1901845,16.9895307 C66.3073131,16.9895307 66.3784268,16.9183397 66.3784268,16.8010839 L66.3784268,10.1719424 C66.3784268,6.72964651 64.8724882,4.9121813 62.1116008,4.9121813 C60.3672219,4.9121813 59.0244267,5.69109496 58.2003436,7.10654021 L58.1292298,7.10654021 L58.1292298,5.21788398 C58.1292298,5.10062816 58.0581161,5.02943712 57.9409875,5.02943712 L56.4350489,5.02943712 C56.3388362,5.02943712 56.2719056,5.10062816 56.2719056,5.21788398 L56.2719056,16.8010839 C56.2719056,16.9183397 56.3430193,16.9895307 56.4350489,16.9895307 M44.4628371,11.0220471 C44.4628371,8.26234758 45.9478599,6.51607341 48.3280795,6.51607341 C50.7082991,6.51607341 52.2184209,8.26234758 52.2184209,11.0220471 C52.2184209,13.7817465 50.7082991,15.5028944 48.3280795,15.5028944 C45.9478599,15.5028944 44.4628371,13.7817465 44.4628371,11.0220471 M48.3280795,17.1109743 C51.8168372,17.1109743 54.1970568,14.6569775 54.1970568,11.0220471 C54.1970568,7.38711664 51.8168372,4.9121813 48.3280795,4.9121813 C44.8393217,4.9121813 42.4842011,7.39130435 42.4842011,11.0220471 C42.4842011,14.6527898 44.8393217,17.1109743 48.3280795,17.1109743 M38.2173751,2.43724597 C38.2173751,2.53356325 38.2884888,2.60056657 38.4056174,2.60056657 L40.4804661,2.60056657 C40.5766789,2.60056657 40.6436095,2.52937554 40.6436095,2.43724597 L40.6436095,0.355955167 C40.6436095,0.238699347 40.5724957,0.167508314 40.4804661,0.167508314 L38.4056174,0.167508314 C38.2884888,0.167508314 38.2173751,0.238699347 38.2173751,0.355955167 L38.2173751,2.43305826 L38.2173751,2.43724597 Z M38.6189587,16.9937184 L40.22111,16.9937184 C40.3173228,16.9937184 40.3842534,16.9225274 40.3842534,16.8052716 L40.3842534,5.21369627 C40.3842534,5.09644045 40.3131396,5.02524941 40.22111,5.02524941 L38.6189587,5.02524941 C38.5227459,5.02524941 38.4558153,5.09644045 38.4558153,5.21369627 L38.4558153,16.7968962 C38.4558153,16.914152 38.5269291,16.985343 38.6189587,16.985343 M33.5991634,16.985343 L36.0714126,16.985343 C36.1885411,16.985343 36.2596549,16.914152 36.2596549,16.7968962 L36.2596549,15.595024 C36.2596549,15.4987067 36.1885411,15.4317034 36.0714126,15.4317034 L32.9382236,15.4317034 L32.9382236,6.60401527 L36.0714126,6.60401527 C36.1885411,6.60401527 36.2596549,6.50769799 36.2596549,6.41556842 L36.2596549,5.21369627 C36.2596549,5.09644045 36.1885411,5.02524941 36.0714126,5.02524941 L32.9382236,5.02524941 L32.9382236,1.67508314 C32.9382236,1.55782732 32.8671099,1.48663629 32.7499813,1.48663629 L31.172929,1.48663629 C31.0558004,1.48663629 30.9846866,1.55782732 30.9846866,1.67508314 L30.9846866,5.02524941 L28.7466946,5.02524941 C28.6504818,5.02524941 28.5835512,5.09644045 28.5835512,5.21369627 L28.5835512,6.41556842 C28.5835512,6.5118857 28.654665,6.60401527 28.7466946,6.60401527 L30.9846866,6.60401527 L30.9846866,14.3638379 C30.9846866,16.0640473 31.9049824,16.9811553 33.5991634,16.9811553 M16.9836408,11.0136716 C16.9836408,8.25397216 18.4435647,6.50769799 20.7526705,6.50769799 C23.0617764,6.50769799 24.5467991,8.2749107 24.5467991,11.0136716 C24.5467991,13.7524326 23.0868753,15.494519 20.7526705,15.494519 C18.4184657,15.494519 16.9836408,13.7733711 16.9836408,11.0136716 M20.2590573,17.1025988 C22.049451,17.1025988 23.6516023,16.2315556 24.4756854,14.7658579 L24.5467991,14.7658579 L24.5467991,15.5447715 C24.5467991,16.4870058 25.1115261,16.985343 26.2200642,16.985343 L27.8682304,16.985343 C27.9853589,16.985343 28.0564727,16.914152 28.0564727,16.7968962 L28.0564727,15.595024 C28.0564727,15.4987067 27.9853589,15.4317034 27.8682304,15.4317034 L26.4292224,15.4317034 L26.4292224,5.21369627 C26.4292224,5.09644045 26.3581086,5.02524941 26.2409801,5.02524941 L24.6639277,5.02524941 C24.5467991,5.02524941 24.4756854,5.09644045 24.4756854,5.21369627 L24.4756854,7.29079936 L24.4045716,7.29079936 C23.5344737,5.77903683 21.999253,4.9079936 20.2548741,4.9079936 C17.0505714,4.9079936 15.0008217,7.31592561 15.0008217,11.0178593 C15.0008217,14.7197931 17.0505714,17.1067866 20.2548741,17.1067866 M0.15059386,16.9895307 L1.7527452,16.9895307 C1.84895794,16.9895307 1.91588855,16.9183397 1.91588855,16.8010839 L1.91588855,3.53861313 L2.01210129,3.53861313 L10.3533279,16.842961 C10.4244416,16.9602168 10.4955554,16.985343 10.587585,16.985343 L12.6164189,16.985343 C12.7335475,16.985343 12.8046612,16.914152 12.8046612,16.7968962 L12.8046612,0.66165784 C12.8046612,0.54440202 12.7335475,0.473210987 12.6164189,0.473210987 L11.0393665,0.473210987 C10.922238,0.473210987 10.8511242,0.54440202 10.8511242,0.66165784 L10.8511242,13.8990023 L10.7549115,13.8990023 L2.43041757,0.611405345 C2.38440278,0.494149526 2.28819004,0.469023279 2.21707627,0.469023279 L0.167326511,0.469023279 C0.0711137671,0.469023279 0.00418316277,0.540214312 0.00418316277,0.657470132 L0.00418316277,16.7927085 C0.00418316277,16.9099643 0.0752969299,16.9811553 0.167326511,16.9811553" fill="#FFFFFF" fill-rule="nonzero"></path>
                    <path d="M93.1590349,67.8576179 L94.7611862,67.8576179 C94.857399,67.8576179 94.9243296,67.7864269 94.9243296,67.6691711 L94.9243296,61.0400296 C94.9243296,58.68235 96.0328677,57.4553516 98.1077164,57.4553516 C100.182565,57.4553516 101.148876,58.611159 101.148876,61.0400296 L101.148876,67.6691711 C101.148876,67.7864269 101.21999,67.8576179 101.337118,67.8576179 L102.918354,67.8576179 C103.035482,67.8576179 103.106596,67.7864269 103.106596,67.6691711 L103.106596,61.0400296 C103.106596,57.5977337 101.596474,55.7802685 98.8397699,55.7802685 C97.0953911,55.7802685 95.7525958,56.5591822 94.9285127,57.9746274 L94.857399,57.9746274 L94.857399,56.0859712 C94.857399,55.9687154 94.7862852,55.8975243 94.6691566,55.8975243 L93.1590349,55.8975243 C93.0628221,55.8975243 92.9958915,55.9687154 92.9958915,56.0859712 L92.9958915,67.6691711 C92.9958915,67.7864269 93.0670053,67.8576179 93.1590349,67.8576179 M81.0696945,61.8901343 C81.0696945,59.1304348 82.5547173,57.3841606 84.9349369,57.3841606 C87.3151565,57.3841606 88.8252783,59.1304348 88.8252783,61.8901343 C88.8252783,64.6498337 87.3151565,66.3709816 84.9349369,66.3709816 C82.5547173,66.3709816 81.0696945,64.6498337 81.0696945,61.8901343 M84.9349369,67.9790615 C88.4236946,67.9790615 90.8039142,65.5250647 90.8039142,61.8901343 C90.8039142,58.2552038 88.4236946,55.7802685 84.9349369,55.7802685 C81.4461791,55.7802685 79.0910585,58.2593916 79.0910585,61.8901343 C79.0910585,65.520877 81.4461791,67.9790615 84.9349369,67.9790615 M74.7071039,53.3053332 C74.7071039,53.4016504 74.7782177,53.4686538 74.8953462,53.4686538 L76.970195,53.4686538 C77.0664077,53.4686538 77.1333383,53.3974627 77.1333383,53.3053332 L77.1333383,51.2282301 C77.1333383,51.1109743 77.0622245,51.0397832 76.970195,51.0397832 L74.8953462,51.0397832 C74.7782177,51.0397832 74.7071039,51.1109743 74.7071039,51.2282301 L74.7071039,53.3053332 Z M75.1086875,67.8618056 L76.7108389,67.8618056 C76.8070516,67.8618056 76.8739822,67.7906146 76.8739822,67.6733588 L76.8739822,56.0901589 C76.8739822,55.9729031 76.8028685,55.901712 76.7108389,55.901712 L75.1086875,55.901712 C75.0124748,55.901712 74.9455442,55.9729031 74.9455442,56.0901589 L74.9455442,67.6733588 C74.9455442,67.7906146 75.016658,67.8618056 75.1086875,67.8618056 M69.9717637,67.8618056 L72.4440128,67.8618056 C72.5611414,67.8618056 72.6322552,67.7906146 72.6322552,67.6733588 L72.6322552,66.4714866 C72.6322552,66.3751694 72.5611414,66.308166 72.4440128,66.308166 L69.3108239,66.308166 L69.3108239,57.4846656 L72.4440128,57.4846656 C72.5611414,57.4846656 72.6322552,57.3883483 72.6322552,57.2962187 L72.6322552,56.0943466 C72.6322552,55.9770908 72.5611414,55.9058997 72.4440128,55.9058997 L69.3108239,55.9058997 L69.3108239,52.5557335 C69.3108239,52.4384776 69.2397102,52.3672866 69.1225816,52.3672866 L67.5455292,52.3672866 C67.4284007,52.3672866 67.3572869,52.4384776 67.3572869,52.5557335 L67.3572869,55.9058997 L65.1192948,55.9058997 C65.0230821,55.9058997 64.9561515,55.9770908 64.9561515,56.0943466 L64.9561515,57.2962187 C64.9561515,57.392536 65.0272653,57.4846656 65.1192948,57.4846656 L67.3572869,57.4846656 L67.3572869,65.2444882 C67.3572869,66.9446976 68.2775827,67.8618056 69.9717637,67.8618056 M53.2391126,61.894322 C53.2391126,59.1346225 54.6990364,57.3883483 57.0081422,57.3883483 C59.3172481,57.3883483 60.8022709,59.155561 60.8022709,61.894322 C60.8022709,64.6330829 59.3423471,66.3751694 57.0081422,66.3751694 C54.6739374,66.3751694 53.2391126,64.6540214 53.2391126,61.894322 M56.514529,67.9832492 C58.3049227,67.9832492 59.907074,67.1122059 60.7311571,65.6465082 L60.8022709,65.6465082 L60.8022709,66.4254218 C60.8022709,67.3676561 61.3669978,67.8659933 62.475536,67.8659933 L64.1237021,67.8659933 C64.2408307,67.8659933 64.3119444,67.7948023 64.3119444,67.6775465 L64.3119444,66.4756743 C64.3119444,66.3793571 64.2408307,66.3123537 64.1237021,66.3123537 L62.6846941,66.3123537 L62.6846941,56.0985343 C62.6846941,55.9812785 62.6135803,55.9100874 62.4964518,55.9100874 L60.9193994,55.9100874 C60.8022709,55.9100874 60.7311571,55.9812785 60.7311571,56.0985343 L60.7311571,58.1756374 L60.6600433,58.1756374 C59.7899455,56.6638749 58.2547247,55.7928316 56.5103459,55.7928316 C53.3060432,55.7928316 51.2562934,58.2007636 51.2562934,61.9026974 C51.2562934,65.6046311 53.3060432,67.9916246 56.5103459,67.9916246 M44.538134,67.9916246 C47.3408531,67.9916246 49.2985732,66.4337973 49.7461717,64.1221825 C49.7712706,64.0049267 49.6750579,63.9588619 49.5579293,63.9588619 L48.0519907,63.9588619 C47.9348622,63.9588619 47.8637484,64.0049267 47.8386494,64.1221825 C47.391051,65.6548836 46.2825129,66.3877325 44.538134,66.3877325 C42.1328154,66.3877325 40.6728916,64.7126493 40.6728916,61.9068851 C40.6728916,59.1011208 42.1328154,57.4009114 44.538134,57.4009114 C46.2364981,57.4009114 47.365952,58.1798251 47.7173377,59.6664614 C47.7633525,59.8088435 47.8135505,59.8549082 47.930679,59.8549082 L49.4617166,59.8549082 C49.5788451,59.8549082 49.6750579,59.7837172 49.6499589,59.6413351 C49.2483753,57.3297204 47.2697393,55.7970193 44.538134,55.7970193 C41.0242773,55.7970193 38.6942556,58.2510161 38.6942556,61.9068851 C38.6942556,65.562754 40.9782625,67.9958123 44.538134,67.9958123 M31.6958243,67.9958123 C34.9712408,67.9958123 36.7156196,66.2495381 36.7156196,62.9244981 L36.7156196,56.1069097 C36.7156196,55.9896539 36.6445059,55.9184629 36.5273773,55.9184629 L34.9461418,55.9184629 C34.8290132,55.9184629 34.7578995,55.9896539 34.7578995,56.1069097 L34.7578995,63.184136 C34.7578995,65.2612391 33.6744603,66.3919202 31.6958243,66.3919202 C29.7171883,66.3919202 28.6337492,65.2361128 28.6337492,63.184136 L28.6337492,56.1069097 C28.6337492,55.9896539 28.5626354,55.9184629 28.4706058,55.9184629 L26.8684545,55.9184629 C26.7722417,55.9184629 26.7053111,55.9896539 26.7053111,56.1069097 L26.7053111,62.9244981 C26.7053111,66.2495381 28.424591,67.9958123 31.7000075,67.9958123 M14.5657728,61.9068851 C14.5657728,59.1471856 16.0507955,57.4009114 18.3599014,57.4009114 C20.6690072,57.4009114 22.15403,59.1681242 22.15403,61.9068851 C22.15403,64.645646 20.6941062,66.3877325 18.3599014,66.3877325 C16.0256966,66.3877325 14.5657728,64.6665846 14.5657728,61.9068851 M17.8411892,67.9958123 C19.6315829,67.9958123 21.2337342,67.1247691 22.0829163,65.6590713 L22.15403,65.6590713 L22.15403,67.6901096 C22.15403,67.8073654 22.2251438,67.8785565 22.3422724,67.8785565 L23.8523941,67.8785565 C23.9486069,67.8785565 24.0155375,67.8073654 24.0155375,67.6901096 L24.0155375,51.0816603 C24.0155375,50.9644045 23.9444237,50.8932134 23.8523941,50.8932134 L22.2502428,50.8932134 C22.15403,50.8932134 22.0870994,50.9644045 22.0870994,51.0816603 L22.0870994,58.1840128 L21.9908867,58.1840128 C21.1417046,56.6722503 19.5855681,55.801207 17.8411892,55.801207 C14.6619855,55.801207 12.5871368,58.2091391 12.5871368,61.9110728 C12.5871368,65.6130065 14.6619855,68 17.8411892,68 M0.167326511,67.8827442 L10.5834018,67.8827442 C10.7005304,67.8827442 10.7716441,67.8115531 10.7716441,67.6942973 L10.7716441,66.3249169 C10.7716441,66.2285996 10.7005304,66.1615963 10.5834018,66.1615963 L2.00373497,66.1615963 L2.00373497,60.4286242 L9.8764473,60.4286242 C9.99357586,60.4286242 10.0646896,60.3574332 10.0646896,60.2401774 L10.0646896,58.8707969 C10.0646896,58.7744796 9.99357586,58.7074763 9.8764473,58.7074763 L2.00373497,58.7074763 L2.00373497,53.0917601 L10.3449615,53.0917601 C10.4620901,53.0917601 10.5332039,53.020569 10.5332039,52.9033132 L10.5332039,51.559059 C10.5332039,51.4418032 10.4620901,51.3706121 10.3449615,51.3706121 L0.163143348,51.3706121 C0.0669306043,51.3706121 0,51.4418032 0,51.559059 L0,67.6942973 C0,67.8115531 0.0711137671,67.8827442 0.163143348,67.8827442" fill="#FFFFFF" fill-rule="nonzero"></path>
                    <path d="M160.07709,30.5074517 L158.721745,30.5074517 C158.575334,30.5074517 158.454023,30.6288952 158.454023,30.775465 L158.454023,31.9605863 L157.169792,30.67496 C157.04848,30.5535164 156.927168,30.5074517 156.734743,30.5074517 L152.597595,30.5074517 C152.430268,30.5074517 152.283857,30.5577042 152.162546,30.67496 L149.52297,33.3174036 C149.401658,33.4388471 149.355644,33.5602907 149.355644,33.7529252 L149.355644,39.3016381 C149.355644,39.4942727 149.405841,39.6157162 149.52297,39.7371597 L152.162546,42.3796034 C152.283857,42.5010469 152.430268,42.5471117 152.597595,42.5471117 L156.178382,42.5471117 C156.345709,42.5471117 156.46702,42.5219855 156.613431,42.3796034 L157.77635,41.1944821 C158.018974,40.951595 157.897662,40.6626432 157.583925,40.6626432 L152.137447,40.6626432 C151.581086,40.6626432 151.24225,40.3234388 151.24225,39.7664737 L151.24225,33.3215913 C151.24225,32.7646262 151.581086,32.4002956 152.137447,32.4002956 L157.558826,32.4002956 C158.140285,32.4002956 158.454023,32.6431827 158.454023,33.2713388 L158.454023,44.607464 C158.454023,45.1644291 158.115186,45.5036335 157.558826,45.5036335 L152.137447,45.5036335 C151.581086,45.5036335 151.24225,45.1644291 151.24225,44.607464 L151.24225,43.3972164 C151.24225,43.2297081 151.120938,43.1292031 150.974528,43.1292031 L149.619183,43.1292031 C149.472772,43.1292031 149.35146,43.2255204 149.35146,43.3972164 L149.35146,44.1468161 C149.35146,44.3143244 149.401658,44.435768 149.543886,44.5823377 L152.183462,47.2247814 C152.304773,47.3462249 152.426085,47.3922897 152.61851,47.3922897 L157.094495,47.3922897 C157.261821,47.3922897 157.383133,47.3420372 157.504445,47.2247814 L160.14402,44.5823377 C160.290431,44.435768 160.336446,44.3143244 160.336446,44.1468161 L160.336446,30.775465 C160.336446,30.6288952 160.240233,30.5074517 160.068723,30.5074517 M144.992605,42.5471117 L146.34795,42.5471117 C146.49436,42.5471117 146.615672,42.4507944 146.615672,42.2790984 L146.615672,33.7529252 C146.615672,33.5854169 146.565474,33.4388471 146.423246,33.3174036 L143.80877,30.67496 C143.662359,30.5535164 143.541047,30.5074517 143.373721,30.5074517 L140.13177,30.5074517 C139.964443,30.5074517 139.843131,30.5577042 139.696721,30.67496 L138.533801,31.8600813 C138.291178,32.1029683 138.41249,32.3919202 138.726227,32.3919202 L143.80877,32.3919202 C144.36513,32.3919202 144.729066,32.7562508 144.729066,33.3132159 L144.729066,42.2749107 C144.729066,42.442419 144.825278,42.542924 144.996788,42.542924 M136.237245,42.542924 L137.59259,42.542924 C137.739001,42.542924 137.835213,42.4466067 137.835213,42.2749107 L137.835213,30.7670895 C137.835213,30.6205198 137.739001,30.4990762 137.59259,30.4990762 L136.237245,30.4990762 C136.069919,30.4990762 135.969523,30.6205198 135.969523,30.7670895 L135.969523,42.2749107 C135.969523,42.442419 136.065735,42.542924 136.237245,42.542924 M126.846045,42.542924 L129.410323,42.542924 C129.556734,42.542924 129.678046,42.4466067 129.678046,42.2749107 L129.678046,40.9180934 C129.678046,40.7715236 129.556734,40.6500801 129.410323,40.6500801 L126.846045,40.6500801 C126.678718,40.6500801 126.578322,40.7715236 126.578322,40.9180934 L126.578322,42.2749107 C126.578322,42.442419 126.674535,42.542924 126.846045,42.542924 M132.363636,42.542924 L133.283932,42.542924 C133.430343,42.542924 133.551655,42.4466067 133.551655,42.2749107 L133.551655,40.9180934 C133.551655,40.7715236 133.430343,40.6500801 133.283932,40.6500801 L131.903488,40.6500801 C131.347128,40.6500801 131.008292,40.3108757 131.008292,39.7539106 L131.008292,33.7445498 C131.008292,33.5770415 130.958094,33.455598 130.815866,33.3090282 L128.17629,30.6665846 C128.054979,30.545141 127.933667,30.4990762 127.741242,30.4990762 L126.846045,30.4990762 C126.678718,30.4990762 126.578322,30.6205198 126.578322,30.7670895 L126.578322,32.1239069 C126.578322,32.2704767 126.674535,32.3919202 126.846045,32.3919202 L128.201389,32.3919202 C128.75775,32.3919202 129.121685,32.7562508 129.121685,33.3132159 L129.121685,39.2974504 C129.121685,39.4649587 129.171883,39.5864023 129.314111,39.732972 L131.953686,42.3754157 C132.074998,42.4968592 132.171211,42.542924 132.363636,42.542924 M129.217898,26.3113684 C129.050571,26.3113684 128.92926,26.4328119 128.92926,26.6003202 L128.92926,28.2251509 C128.92926,28.3926592 129.050571,28.5141027 129.217898,28.5141027 L130.815866,28.5141027 C130.983193,28.5141027 131.083589,28.3926592 131.083589,28.2251509 L131.083589,26.6003202 C131.083589,26.4328119 130.987376,26.3113684 130.815866,26.3113684 L129.217898,26.3113684 Z M119.270337,32.3919202 L123.650108,32.3919202 C123.817435,32.3919202 123.917831,32.2704767 123.917831,32.1239069 L123.917831,30.7670895 C123.917831,30.6205198 123.821618,30.4990762 123.650108,30.4990762 L120.671696,30.4990762 C120.50437,30.4990762 120.383058,30.5493287 120.261746,30.6665846 L119.077911,31.8517059 C118.835288,32.0945929 118.9566,32.3835448 119.270337,32.3835448 M124.160454,39.0210617 L123.240158,38.1248922 C123.143946,38.0034487 122.972436,38.0034487 122.851124,38.1248922 L120.33286,40.6458924 L119.291253,40.6458924 C118.734892,40.6458924 118.396056,40.306688 118.396056,39.7497229 L118.396056,27.6388718 C118.396056,27.492302 118.274744,27.3708585 118.128333,27.3708585 L116.772989,27.3708585 C116.626578,27.3708585 116.505266,27.492302 116.505266,27.6388718 L116.505266,30.4990762 L114.907298,30.4990762 C114.760887,30.4990762 114.639576,30.6205198 114.639576,30.7670895 L114.639576,32.1239069 C114.639576,32.2704767 114.760887,32.3919202 114.907298,32.3919202 L116.505266,32.3919202 L116.505266,39.2974504 C116.505266,39.4649587 116.555464,39.5864023 116.697692,39.732972 L119.337267,42.3754157 C119.458579,42.4968592 119.579891,42.542924 119.772316,42.542924 L120.788825,42.542924 C120.98125,42.542924 121.102562,42.4926715 121.248973,42.3502894 L124.152088,39.418894 C124.2734,39.2974504 124.2734,39.1508807 124.152088,39.0294371 M110.648838,42.542924 L112.004183,42.542924 C112.150594,42.542924 112.246807,42.4466067 112.246807,42.2749107 L112.246807,30.7670895 C112.246807,30.6205198 112.150594,30.4990762 112.004183,30.4990762 L110.648838,30.4990762 C110.481512,30.4990762 110.381116,30.6205198 110.381116,30.7670895 L110.381116,42.2749107 C110.381116,42.442419 110.477329,42.542924 110.648838,42.542924 M105.081049,42.542924 L108.059461,42.542924 C108.251886,42.542924 108.373198,42.5177978 108.49451,42.3754157 L109.678345,41.1902944 C109.920968,40.9474073 109.799656,40.6584555 109.485919,40.6584555 L104.620901,40.6584555 C104.06454,40.6584555 103.700605,40.3192511 103.700605,39.762286 L103.700605,30.775465 C103.700605,30.6288952 103.604392,30.5074517 103.457982,30.5074517 L102.102637,30.5074517 C101.93531,30.5074517 101.834914,30.6288952 101.834914,30.775465 L101.834914,39.3016381 C101.834914,39.4691464 101.885112,39.6157162 102.002241,39.7371597 L104.641817,42.3796034 C104.763128,42.5010469 104.88444,42.5471117 105.076866,42.5471117 M98.4214536,33.3174036 L95.7818779,30.67496 C95.6605662,30.5535164 95.5141555,30.5074517 95.346829,30.5074517 L91.7660417,30.5074517 C91.5987152,30.5074517 91.4774035,30.5577042 91.3309928,30.67496 L90.1471577,31.8600813 C89.9045342,32.1029683 90.0509449,32.3919202 90.3646822,32.3919202 L95.7860611,32.3919202 C96.3675207,32.3919202 96.7063569,32.7562508 96.7063569,33.3132159 L96.7063569,39.7580983 C96.7063569,40.3150634 96.3675207,40.6542678 95.7860611,40.6542678 L90.3897811,40.6542678 C89.8083215,40.6542678 89.4694853,40.4113807 89.4694853,39.7832245 L89.4694853,30.7712773 C89.4694853,30.6247075 89.3732726,30.5032639 89.2268619,30.5032639 L87.8715171,30.5032639 C87.7041906,30.5032639 87.6037947,30.6247075 87.6037947,30.7712773 L87.6037947,47.1242764 C87.6037947,47.2917847 87.7000075,47.3922897 87.8715171,47.3922897 L89.2268619,47.3922897 C89.3732726,47.3922897 89.4694853,47.2959724 89.4694853,47.1242764 L89.4694853,41.0688508 L90.7746321,42.3754157 C90.8959438,42.4968592 91.0172555,42.542924 91.209681,42.542924 L95.346829,42.542924 C95.5141555,42.542924 95.6605662,42.4926715 95.7818779,42.3754157 L98.4214536,39.732972 C98.5427654,39.6115285 98.5887802,39.490085 98.5887802,39.2974504 L98.5887802,33.7487375 C98.5887802,33.556103 98.5385822,33.4346594 98.4214536,33.3132159 M82.7178606,42.542924 L84.0481064,42.542924 C84.2154329,42.542924 84.3158288,42.4466067 84.3158288,42.2749107 L84.3158288,33.7487375 C84.3158288,33.5812292 84.2656308,33.4346594 84.1485023,33.3132159 L81.5089266,30.6707723 C81.3876149,30.5493287 81.2663031,30.5032639 81.0989766,30.5032639 L77.7357138,30.5032639 C77.5683872,30.5032639 77.4470755,30.5535164 77.3257638,30.6707723 L76.1419287,31.8558936 C75.8993053,32.0987806 76.020617,32.3877325 76.3343542,32.3877325 L81.5382087,32.3877325 C82.0945694,32.3877325 82.4585045,32.7520631 82.4585045,33.3090282 L82.4585045,42.270723 C82.4585045,42.4382313 82.5547173,42.5387363 82.7262269,42.5387363 M74.8618809,42.5387363 L76.2172257,42.5387363 C76.3636364,42.5387363 76.4849481,42.442419 76.4849481,42.270723 L76.4849481,33.7445498 C76.4849481,33.5770415 76.4347501,33.4304717 76.3176216,33.3090282 L73.6780459,30.6665846 C73.5567341,30.545141 73.4103234,30.4990762 73.2429969,30.4990762 L70.9422574,30.4990762 C70.7749309,30.4990762 70.6536192,30.5493287 70.5072085,30.6665846 L69.3233734,31.8517059 C69.08075,32.0945929 69.2271607,32.3835448 69.5408979,32.3835448 L73.6780459,32.3835448 C74.2595055,32.3835448 74.5983417,32.7478754 74.5983417,33.3048405 L74.5983417,42.2665353 C74.5983417,42.4340436 74.7196534,42.5345486 74.8660641,42.5345486 M67.0268171,42.5345486 L68.3821618,42.5345486 C68.5285725,42.5345486 68.6247852,42.4382313 68.6247852,42.2665353 L68.6247852,30.7587141 C68.6247852,30.6121444 68.5285725,30.4907008 68.3821618,30.4907008 L67.0268171,30.4907008 C66.8594906,30.4907008 66.7590946,30.6121444 66.7590946,30.7587141 L66.7590946,42.2665353 C66.7590946,42.4340436 66.8553074,42.5345486 67.0268171,42.5345486 M55.7239113,40.6458924 C55.1675506,40.6458924 54.8287144,40.306688 54.8287144,39.7497229 L54.8287144,33.3048405 C54.8287144,32.7478754 55.1675506,32.3835448 55.7239113,32.3835448 L61.1452902,32.3835448 C61.7016509,32.3835448 62.040487,32.7478754 62.040487,33.3048405 L62.040487,38.4892228 L59.9363562,40.6458924 L55.7239113,40.6458924 Z M56.1840592,42.5345486 L60.3463061,42.5345486 C60.5387316,42.5345486 60.6851423,42.4842961 60.806454,42.341914 L63.734668,39.4356448 C63.8559797,39.289075 63.9270934,39.1676315 63.9270934,38.9749969 L63.9270934,33.7403621 C63.9270934,33.5477276 63.8768955,33.426284 63.7597669,33.3048405 L61.1201912,30.6623968 C60.9988795,30.5409533 60.8524688,30.4948885 60.6851423,30.4948885 L56.1840592,30.4948885 C56.0167327,30.4948885 55.870322,30.545141 55.7490102,30.6623968 L53.1094345,33.3048405 C52.9881228,33.426284 52.942108,33.5728538 52.942108,33.7403621 L52.942108,39.289075 C52.942108,39.4565833 52.992306,39.6031531 53.1094345,39.7245966 L55.7490102,42.3670403 C55.870322,42.4884838 56.0167327,42.5345486 56.1840592,42.5345486 M39.6103683,42.5345486 L45.9980578,42.5345486 C46.1904833,42.5345486 46.311795,42.4842961 46.4331067,42.3670403 L50.2063196,38.5897278 C50.3025323,38.4934105 50.3025323,38.3468407 50.2063196,38.2253972 L49.2609248,37.2789752 C49.1145141,37.1575317 48.9932024,37.182658 48.8718906,37.3041015 L45.5337267,40.6458924 L39.1711362,40.6458924 C38.5896766,40.6458924 38.2508404,40.306688 38.2508404,39.7497229 L38.2508404,30.6665846 L41.4467767,27.4671758 L47.3492194,27.4671758 C47.90558,27.4671758 48.2695152,27.8063801 48.2695152,28.3633452 L48.2695152,30.8592191 C48.2695152,31.0267274 48.3908269,31.1272324 48.5372376,31.1272324 L49.8925824,31.1272324 C50.0389931,31.1272324 50.1603048,31.0309151 50.1603048,30.8592191 L50.1352058,28.8239931 C50.1352058,28.6564848 50.0850078,28.509915 49.9678793,28.3884715 L47.3283036,25.7460278 C47.2069919,25.6245843 47.0605812,25.5785195 46.8932547,25.5785195 L40.990812,25.5785195 C40.7983865,25.5785195 40.6770748,25.628772 40.5557631,25.7460278 L36.5650258,29.7411011 C36.4437141,29.8625446 36.3726003,29.9839882 36.3726003,30.1766227 L36.3726003,39.2848873 C36.3726003,39.4523956 36.4227982,39.5989654 36.5399268,39.7204089 L39.1795025,42.3628526 C39.3008142,42.4842961 39.4472249,42.5303609 39.6145514,42.5303609" fill="#1C0F5F" fill-rule="nonzero"></path>
                    <path d="M160.07709,30.5074517 L158.721745,30.5074517 C158.575334,30.5074517 158.454023,30.6288952 158.454023,30.775465 L158.454023,31.9605863 L157.169792,30.67496 C157.04848,30.5535164 156.927168,30.5074517 156.734743,30.5074517 L152.597595,30.5074517 C152.430268,30.5074517 152.283857,30.5577042 152.162546,30.67496 L149.52297,33.3174036 C149.401658,33.4388471 149.355644,33.5602907 149.355644,33.7529252 L149.355644,39.3016381 C149.355644,39.4942727 149.405841,39.6157162 149.52297,39.7371597 L152.162546,42.3796034 C152.283857,42.5010469 152.430268,42.5471117 152.597595,42.5471117 L156.178382,42.5471117 C156.345709,42.5471117 156.46702,42.5219855 156.613431,42.3796034 L157.77635,41.1944821 C158.018974,40.951595 157.897662,40.6626432 157.583925,40.6626432 L152.137447,40.6626432 C151.581086,40.6626432 151.24225,40.3234388 151.24225,39.7664737 L151.24225,33.3215913 C151.24225,32.7646262 151.581086,32.4002956 152.137447,32.4002956 L157.558826,32.4002956 C158.140285,32.4002956 158.454023,32.6431827 158.454023,33.2713388 L158.454023,44.607464 C158.454023,45.1644291 158.115186,45.5036335 157.558826,45.5036335 L152.137447,45.5036335 C151.581086,45.5036335 151.24225,45.1644291 151.24225,44.607464 L151.24225,43.3972164 C151.24225,43.2297081 151.120938,43.1292031 150.974528,43.1292031 L149.619183,43.1292031 C149.472772,43.1292031 149.35146,43.2255204 149.35146,43.3972164 L149.35146,44.1468161 C149.35146,44.3143244 149.401658,44.435768 149.543886,44.5823377 L152.183462,47.2247814 C152.304773,47.3462249 152.426085,47.3922897 152.61851,47.3922897 L157.094495,47.3922897 C157.261821,47.3922897 157.383133,47.3420372 157.504445,47.2247814 L160.14402,44.5823377 C160.290431,44.435768 160.336446,44.3143244 160.336446,44.1468161 L160.336446,30.775465 C160.336446,30.6288952 160.240233,30.5074517 160.068723,30.5074517 L160.07709,30.5074517 Z M145.000971,42.5471117 L146.356316,42.5471117 C146.502727,42.5471117 146.624038,42.4507944 146.624038,42.2790984 L146.624038,33.7529252 C146.624038,33.5854169 146.57384,33.4388471 146.431613,33.3174036 L143.817136,30.67496 C143.670725,30.5535164 143.549414,30.5074517 143.382087,30.5074517 L140.140136,30.5074517 C139.972809,30.5074517 139.851498,30.5577042 139.705087,30.67496 L138.542168,31.8600813 C138.299544,32.1029683 138.420856,32.3919202 138.734593,32.3919202 L143.817136,32.3919202 C144.373497,32.3919202 144.737432,32.7562508 144.737432,33.3132159 L144.737432,42.2749107 C144.737432,42.442419 144.833645,42.542924 145.005154,42.542924 L145.000971,42.5471117 Z M136.241428,42.5471117 L137.596773,42.5471117 C137.743184,42.5471117 137.839396,42.4507944 137.839396,42.2790984 L137.839396,30.7712773 C137.839396,30.6247075 137.743184,30.5032639 137.596773,30.5032639 L136.241428,30.5032639 C136.074102,30.5032639 135.973706,30.6247075 135.973706,30.7712773 L135.973706,42.2790984 C135.973706,42.4466067 136.069919,42.5471117 136.241428,42.5471117 L136.241428,42.5471117 Z M126.850228,42.5471117 L129.414507,42.5471117 C129.560917,42.5471117 129.682229,42.4507944 129.682229,42.2790984 L129.682229,40.9222811 C129.682229,40.7757113 129.560917,40.6542678 129.414507,40.6542678 L126.850228,40.6542678 C126.682901,40.6542678 126.582505,40.7757113 126.582505,40.9222811 L126.582505,42.2790984 C126.582505,42.4466067 126.678718,42.5471117 126.850228,42.5471117 Z M132.36782,42.5471117 L133.288115,42.5471117 C133.434526,42.5471117 133.555838,42.4507944 133.555838,42.2790984 L133.555838,40.9222811 C133.555838,40.7757113 133.434526,40.6542678 133.288115,40.6542678 L131.907672,40.6542678 C131.351311,40.6542678 131.012475,40.3150634 131.012475,39.7580983 L131.012475,33.7487375 C131.012475,33.5812292 130.962277,33.4597857 130.820049,33.3132159 L128.180474,30.6707723 C128.059162,30.5493287 127.93785,30.5032639 127.745425,30.5032639 L126.850228,30.5032639 C126.682901,30.5032639 126.582505,30.6247075 126.582505,30.7712773 L126.582505,32.1280946 C126.582505,32.2746644 126.678718,32.3961079 126.850228,32.3961079 L128.205573,32.3961079 C128.761933,32.3961079 129.125868,32.7604385 129.125868,33.3174036 L129.125868,39.3016381 C129.125868,39.4691464 129.176066,39.59059 129.318294,39.7371597 L131.95787,42.3796034 C132.079181,42.5010469 132.175394,42.5471117 132.36782,42.5471117 L132.36782,42.5471117 Z M129.222081,26.3155561 C129.054755,26.3155561 128.933443,26.4369996 128.933443,26.6045079 L128.933443,28.2293386 C128.933443,28.3968469 129.054755,28.5182904 129.222081,28.5182904 L130.820049,28.5182904 C130.987376,28.5182904 131.087772,28.3968469 131.087772,28.2293386 L131.087772,26.6045079 C131.087772,26.4369996 130.991559,26.3155561 130.820049,26.3155561 L129.222081,26.3155561 Z M119.27452,32.3961079 L123.654291,32.3961079 C123.821618,32.3961079 123.922014,32.2746644 123.922014,32.1280946 L123.922014,30.7712773 C123.922014,30.6247075 123.825801,30.5032639 123.654291,30.5032639 L120.67588,30.5032639 C120.508553,30.5032639 120.387241,30.5535164 120.26593,30.6707723 L119.082095,31.8558936 C118.839471,32.0987806 118.960783,32.3877325 119.27452,32.3877325 L119.27452,32.3961079 Z M124.164637,39.0336248 L123.244342,38.1374554 C123.148129,38.0160118 122.976619,38.0160118 122.855307,38.1374554 L120.337043,40.6584555 L119.295436,40.6584555 C118.739075,40.6584555 118.400239,40.3192511 118.400239,39.762286 L118.400239,27.6514349 C118.400239,27.5048651 118.278927,27.3834216 118.132517,27.3834216 L116.777172,27.3834216 C116.630761,27.3834216 116.509449,27.5048651 116.509449,27.6514349 L116.509449,30.5116394 L114.911481,30.5116394 C114.765071,30.5116394 114.643759,30.6330829 114.643759,30.7796527 L114.643759,32.13647 C114.643759,32.2830398 114.765071,32.4044833 114.911481,32.4044833 L116.509449,32.4044833 L116.509449,39.3100135 C116.509449,39.4775219 116.559647,39.5989654 116.701875,39.7455352 L119.341451,42.3879788 C119.462762,42.5094223 119.584074,42.5554871 119.7765,42.5554871 L120.793008,42.5554871 C120.985434,42.5554871 121.106745,42.5052346 121.253156,42.3628526 L124.156271,39.4314571 C124.277583,39.3100135 124.277583,39.1634438 124.156271,39.0420002 L124.164637,39.0336248 Z M110.661388,42.5471117 L112.016733,42.5471117 C112.163143,42.5471117 112.259356,42.4507944 112.259356,42.2790984 L112.259356,30.7712773 C112.259356,30.6247075 112.163143,30.5032639 112.016733,30.5032639 L110.661388,30.5032639 C110.494061,30.5032639 110.393665,30.6247075 110.393665,30.7712773 L110.393665,42.2790984 C110.393665,42.4466067 110.489878,42.5471117 110.661388,42.5471117 Z M105.093598,42.5471117 L108.07201,42.5471117 C108.264436,42.5471117 108.385747,42.5219855 108.507059,42.3796034 L109.690894,41.1944821 C109.933518,40.951595 109.812206,40.6626432 109.498469,40.6626432 L104.63345,40.6626432 C104.07709,40.6626432 103.713155,40.3234388 103.713155,39.7664737 L103.713155,30.7796527 C103.713155,30.6330829 103.616942,30.5116394 103.470531,30.5116394 L102.115186,30.5116394 C101.94786,30.5116394 101.847464,30.6330829 101.847464,30.7796527 L101.847464,39.3058258 C101.847464,39.4733342 101.897662,39.6199039 102.01479,39.7413475 L104.654366,42.3837911 C104.775678,42.5052346 104.89699,42.5512994 105.089415,42.5512994 L105.093598,42.5471117 Z M98.4381863,33.3174036 L95.7986106,30.67496 C95.6772989,30.5535164 95.5308882,30.5074517 95.3635617,30.5074517 L91.7827743,30.5074517 C91.6154478,30.5074517 91.4941361,30.5577042 91.3477254,30.67496 L90.1638903,31.8600813 C89.9212669,32.1029683 90.0676776,32.3919202 90.3814148,32.3919202 L95.8027938,32.3919202 C96.3842534,32.3919202 96.7230896,32.7562508 96.7230896,33.3132159 L96.7230896,39.7580983 C96.7230896,40.3150634 96.3842534,40.6542678 95.8027938,40.6542678 L90.4065138,40.6542678 C89.8250542,40.6542678 89.486218,40.4113807 89.486218,39.7832245 L89.486218,30.7712773 C89.486218,30.6247075 89.3900052,30.5032639 89.2435945,30.5032639 L87.8882498,30.5032639 C87.7209233,30.5032639 87.6205274,30.6247075 87.6205274,30.7712773 L87.6205274,47.1242764 C87.6205274,47.2917847 87.7167401,47.3922897 87.8882498,47.3922897 L89.2435945,47.3922897 C89.3900052,47.3922897 89.486218,47.2959724 89.486218,47.1242764 L89.486218,41.0688508 L90.7913648,42.3754157 C90.9126765,42.4968592 91.0339882,42.542924 91.2264137,42.542924 L95.3635617,42.542924 C95.5308882,42.542924 95.6772989,42.4926715 95.7986106,42.3754157 L98.4381863,39.732972 C98.559498,39.6115285 98.6055128,39.490085 98.6055128,39.2974504 L98.6055128,33.7487375 C98.6055128,33.556103 98.5553149,33.4346594 98.4381863,33.3132159 L98.4381863,33.3174036 Z M82.7345933,42.5471117 L84.064839,42.5471117 C84.2321655,42.5471117 84.3325614,42.4507944 84.3325614,42.2790984 L84.3325614,33.7529252 C84.3325614,33.5854169 84.2823635,33.4388471 84.1652349,33.3174036 L81.5256592,30.67496 C81.4043475,30.5535164 81.2830358,30.5074517 81.1157093,30.5074517 L77.7524464,30.5074517 C77.5851199,30.5074517 77.4638082,30.5577042 77.3424965,30.67496 L76.1586614,31.8600813 C75.9160379,32.1029683 76.0373497,32.3919202 76.3510869,32.3919202 L81.5549414,32.3919202 C82.111302,32.3919202 82.4752372,32.7562508 82.4752372,33.3132159 L82.4752372,42.2749107 C82.4752372,42.442419 82.5714499,42.542924 82.7429596,42.542924 L82.7345933,42.5471117 Z M74.8702473,42.5471117 L76.225592,42.5471117 C76.3720027,42.5471117 76.4933144,42.4507944 76.4933144,42.2790984 L76.4933144,33.7529252 C76.4933144,33.5854169 76.4431165,33.4388471 76.3259879,33.3174036 L73.6864122,30.67496 C73.5651005,30.5535164 73.4186898,30.5074517 73.2513633,30.5074517 L70.9506237,30.5074517 C70.7832972,30.5074517 70.6619855,30.5577042 70.5155748,30.67496 L69.3317397,31.8600813 C69.0891163,32.1029683 69.235527,32.3919202 69.5492642,32.3919202 L73.6864122,32.3919202 C74.2678718,32.3919202 74.606708,32.7562508 74.606708,33.3132159 L74.606708,42.2749107 C74.606708,42.442419 74.7280197,42.542924 74.8744304,42.542924 L74.8702473,42.5471117 Z M67.0310002,42.5471117 L68.386345,42.5471117 C68.5327557,42.5471117 68.6289684,42.4507944 68.6289684,42.2790984 L68.6289684,30.7712773 C68.6289684,30.6247075 68.5327557,30.5032639 68.386345,30.5032639 L67.0310002,30.5032639 C66.8636737,30.5032639 66.7632778,30.6247075 66.7632778,30.7712773 L66.7632778,42.2790984 C66.7632778,42.4466067 66.8594906,42.5471117 67.0310002,42.5471117 Z M55.7280944,40.6584555 C55.1717338,40.6584555 54.8328976,40.3192511 54.8328976,39.762286 L54.8328976,33.3174036 C54.8328976,32.7604385 55.1717338,32.3961079 55.7280944,32.3961079 L61.1494734,32.3961079 C61.705834,32.3961079 62.0446702,32.7604385 62.0446702,33.3174036 L62.0446702,38.5017859 L59.9405393,40.6584555 L55.7280944,40.6584555 Z M56.1882423,42.5471117 L60.3504893,42.5471117 C60.5429148,42.5471117 60.6893255,42.4968592 60.8106372,42.3544772 L63.7388511,39.4482079 C63.8601628,39.3016381 63.9312766,39.1801946 63.9312766,38.98756 L63.9312766,33.7529252 C63.9312766,33.5602907 63.8810787,33.4388471 63.7639501,33.3174036 L61.1243744,30.67496 C61.0030627,30.5535164 60.856652,30.5074517 60.6893255,30.5074517 L56.1882423,30.5074517 C56.0209158,30.5074517 55.8745051,30.5577042 55.7531934,30.67496 L53.1136177,33.3174036 C52.992306,33.4388471 52.9462912,33.5854169 52.9462912,33.7529252 L52.9462912,39.3016381 C52.9462912,39.4691464 52.9964891,39.6157162 53.1136177,39.7371597 L55.7531934,42.3796034 C55.8745051,42.5010469 56.0209158,42.5471117 56.1882423,42.5471117 L56.1882423,42.5471117 Z M39.6145514,42.5471117 L46.002241,42.5471117 C46.1946665,42.5471117 46.3159782,42.4968592 46.4372899,42.3796034 L50.2105027,38.6022909 C50.3067155,38.5059736 50.3067155,38.3594039 50.2105027,38.2379603 L49.2651079,37.2915384 C49.1186972,37.1700948 48.9973855,37.1952211 48.8760738,37.3166646 L45.5379099,40.6584555 L39.1753193,40.6584555 C38.5938597,40.6584555 38.2550235,40.3192511 38.2550235,39.762286 L38.2550235,30.6791477 L41.4509599,27.4797389 L47.3534026,27.4797389 C47.9097632,27.4797389 48.2736984,27.8189432 48.2736984,28.3759084 L48.2736984,30.8717822 C48.2736984,31.0392906 48.3950101,31.1397955 48.5414208,31.1397955 L49.8967655,31.1397955 C50.0431762,31.1397955 50.1644879,31.0434783 50.1644879,30.8717822 L50.139389,28.8365562 C50.139389,28.6690479 50.089191,28.5224781 49.9720624,28.4010346 L47.3324867,25.758591 C47.211175,25.6371474 47.0647643,25.5910826 46.8974378,25.5910826 L40.9949951,25.5910826 C40.8025697,25.5910826 40.6812579,25.6413351 40.5599462,25.758591 L36.5692089,29.7536642 C36.4478972,29.8751078 36.3767834,29.9965513 36.3767834,30.1891859 L36.3767834,39.2974504 C36.3767834,39.4649587 36.4269814,39.6115285 36.54411,39.732972 L39.1836857,42.3754157 C39.3049974,42.4968592 39.4514081,42.542924 39.6187346,42.542924 L39.6145514,42.5471117 Z" stroke="#120540" stroke-width="0.36"></path>
                </g>
            </g>
            <g id="Group" transform="translate(30.000000, 40.000000)" fill-rule="nonzero">
                <path d="M0,0.0456912585 L0,44.6818971 L22.3333333,67 L67,67 L67,44.6818971 L22.3333333,44.6818971 L22.3333333,0.0456912585 L0,0.0456912585 Z M44.6666667,0.0456912585 L22.3333333,0.0456912585 L44.6666667,22.3637942 L67,22.3637942 L67,0.0456912585 L44.6666667,0.0456912585 Z" id="Shape" fill="#1C0F5F"></path>
                <path d="M0.157950245,0 L0.157950245,44.4617483 L22.4039953,66.6926224 L66.8960854,66.6926224 L66.8960854,44.4617483 L22.4039953,44.4617483 L22.4039953,0 L0.157950245,0 Z M44.6500403,0 L22.4039953,0 L44.6500403,22.2308741 L66.8960854,22.2308741 L66.8960854,0 L44.6500403,0 Z" id="Shape" fill="#1C0F5F"></path>
                <path d="M15.4957504,59.7932424 L16.4351387,60.7319901 L22.4039953,54.767204 L22.4039953,54.5553627 L32.4961846,54.5553627 L32.0057076,54.0652201 L22.4039953,54.0652201 L22.4039953,52.8980161 L15.4957504,59.8015499 L15.4957504,59.7932424 Z M0.211985855,44.4617483 L0.187046343,44.4866708 L0.889509275,45.1886547 L1.61691172,44.4617483 L0.211985855,44.4617483 Z M3.27538929,44.4617483 L1.71666977,46.0194048 L2.43991563,46.7421575 L4.72188101,44.4617483 L3.27123271,44.4617483 L3.27538929,44.4617483 Z M6.33879273,44.4617483 L3.25044978,47.5479851 L3.99863515,48.2956603 L7.83516347,44.4617483 L6.33879273,44.4617483 L6.33879273,44.4617483 Z M9.40219617,44.4617483 L4.78007321,49.0807192 L5.55319809,49.8533168 L10.9442893,44.465902 L9.40219617,44.465902 L9.40219617,44.4617483 Z M12.4655996,44.4617483 L6.31385322,50.6092994 L7.10776103,51.4026658 L14.0534152,44.4617483 L12.461443,44.4617483 L12.4655996,44.4617483 Z M15.529003,44.4617483 L7.84763323,52.1378797 L8.66648055,52.9561686 L17.1666977,44.4617483 L15.529003,44.4617483 Z M18.5924065,44.4617483 L9.37725665,53.6706138 L10.2210435,54.5138252 L20.2758236,44.4617483 L18.5924065,44.4617483 L18.5924065,44.4617483 Z M44.6583535,44.4617483 L21.6558099,44.4617483 L10.9110367,55.199194 L11.7756064,56.0631742 L22.4123085,45.433726 L22.4123085,44.4575945 L22.8695328,44.9145071 L44.6583535,44.9145071 C44.6583535,44.9145071 44.6583535,44.9145071 44.6583535,44.9145071 L45.1155779,44.9145071 L45.4896706,45.2883447 L44.6583535,45.2883447 L44.6583535,44.9809671 L22.9360382,44.9809671 L23.7881382,45.8324861 L22.4123085,45.8324861 L22.4123085,46.4472412 L24.4033129,46.4472412 L24.8646938,46.9083075 L44.6583535,46.9083075 C44.6583535,46.9083075 47.1107389,46.9083075 47.1107389,46.9083075 L47.5180842,47.3153751 L44.6625101,47.3153751 L44.6625101,47.0079975 L24.9686085,47.0079975 L25.8498046,47.8885927 L22.416465,47.8885927 L22.416465,46.76708 L12.4489733,56.7277743 L13.3384825,57.616677 L22.416465,48.5407316 L22.416465,48.4701178 L26.4317265,48.4701178 L26.8640114,48.9021079 L44.6625101,48.9021079 C44.6625101,48.9021079 49.1100565,48.9021079 49.1100565,48.9021079 L49.5464979,49.3382517 L44.6625101,49.3382517 L44.6625101,49.0308741 L26.9928656,49.0308741 L27.9031578,49.9405456 L22.4123085,49.9405456 L22.4123085,49.8242405 L13.9744401,58.2563546 L14.8888889,59.1701798 L22.4123085,51.6518909 L22.4123085,50.4971482 L28.4559836,50.4971482 L28.8591724,50.900062 L44.6625101,50.900062 C44.6625101,50.900062 51.1052174,50.900062 51.1052174,50.900062 L51.5749116,51.3652821 L44.6625101,51.3652821 L44.6625101,51.0579045 L29.0212792,51.0579045 L29.9606675,52.000806 L22.416465,52.000806 L22.416465,52.5241785 L30.4843973,52.5241785 L30.85849,52.8980161 L44.6666667,52.8980161 C44.6666667,52.8980161 53.104535,52.8980161 53.104535,52.8980161 L53.6033253,53.3964662 L44.6666667,53.3964662 L44.6666667,53.0890887 L31.0496929,53.0890887 L32.853651,54.8918165 L44.6666667,54.8918165 C44.6666667,54.8918165 55.099696,54.8918165 55.099696,54.8918165 L55.6275824,55.4193428 L44.6625101,55.4193428 L44.6625101,55.1119653 L33.07395,55.1119653 L34.0756871,56.1130192 L22.416465,56.1130192 L22.416465,55.9510229 L17.0420001,61.3218227 L18.0021714,62.2813391 L22.416465,57.8700558 L22.416465,56.5740856 L34.5370681,56.5740856 L34.848812,56.8856169 L44.6625101,56.8856169 C44.6625101,56.8856169 57.0907004,56.8856169 57.0907004,56.8856169 L57.6518394,57.4463732 L44.6625101,57.4463732 L44.6625101,57.1389957 L35.0982071,57.1389957 L36.1290403,58.1691259 L22.4123085,58.1691259 L22.4123085,58.5969622 L36.5571686,58.5969622 L36.8398164,58.8794172 L44.6583535,58.8794172 C44.6583535,58.8794172 59.0858614,58.8794172 59.0858614,58.8794172 L59.6760965,59.4692498 L44.6583535,59.4692498 L44.6583535,59.1618723 L37.1224642,59.1618723 C37.1224642,59.1618723 38.18655,60.2252325 38.18655,60.2252325 L22.4123085,60.2252325 L22.4123085,59.0123373 L18.567467,62.8545567 L19.5525777,63.8389957 L22.4123085,60.9812151 L22.4123085,60.6239926 L38.5814256,60.6239926 L38.8349774,60.8773714 L44.6583535,60.8773714 C44.6583535,60.8773714 61.0810224,60.8773714 61.0810224,60.8773714 L61.7003536,61.4962802 L44.6583535,61.4962802 L44.6583535,61.1889027 L39.1467213,61.1889027 L40.2399032,62.2813391 L22.4081519,62.2813391 L22.4081519,62.0736516 L20.0970904,64.383137 L21.1029841,65.3883447 L22.4081519,64.084067 L22.4081519,62.6427154 L40.6056827,62.6427154 L40.8301383,62.867018 L44.6583535,62.867018 C44.6583535,62.867018 63.0761834,62.867018 63.0761834,62.867018 L63.7287673,63.5191569 L44.6583535,63.5191569 L44.6583535,63.2117793 L41.1751349,63.2117793 L42.297413,64.333292 L22.4123085,64.333292 L22.4123085,64.6655921 L42.6340964,64.6655921 L42.8294559,64.8608184 L44.6625101,64.8608184 C44.6625101,64.8608184 65.075501,64.8608184 65.075501,64.8608184 L65.757181,65.5420335 L44.6625101,65.5420335 L44.6625101,65.2346559 L43.2035486,65.2346559 L44.3549228,66.3852449 L22.4123085,66.3852449 L22.4123085,65.1266584 L21.6308704,65.9075635 L22.4123085,66.6884687 L66.9043985,66.6884687 L66.9043985,44.4575945 L44.6583535,44.4575945 L44.6583535,44.4617483 Z M0.157950245,37.2009919 L0.157950245,37.8697458 L15.8033377,37.8697458 L15.1341274,37.2009919 L0.157950245,37.2009919 Z M0.157950245,29.1011779 L0.157950245,29.8903906 L7.82269372,29.8903906 L7.03294249,29.1011779 L0.157950245,29.1011779 Z M0.157950245,27.0741476 L0.157950245,27.8924365 L5.82753273,27.8924365 L5.00452882,27.0741476 L0.157950245,27.0741476 Z M0.157950245,25.0471172 L0.157950245,25.8986361 L3.83237174,25.8986361 L2.98027173,25.0471172 L0.157950245,25.0471172 Z M0.157950245,23.0242405 L0.157950245,23.9048357 L1.83305416,23.9048357 L0.951858056,23.0242405 L0.157950245,23.0242405 Z M21.6973758,21.5247365 L22.4039953,22.2308741 L22.4039953,21.5247365 L21.6973758,21.5247365 Z M66.0564551,21.3918165 L66.8960854,22.2308741 L66.8960854,20.5486051 L66.0564551,21.3876627 L66.0564551,21.3918165 Z M64.5268317,19.8590825 L65.5826044,20.9141352 L66.900242,19.5973962 L66.900242,17.4914445 L64.5268317,19.8632362 L64.5268317,19.8590825 Z M19.7271543,19.5558586 L19.7562504,19.5849349 L17.1085055,22.2308741 L17.0503133,22.2308741 L19.7271543,19.5558586 Z M16.6180284,16.4488531 L16.692847,16.5236206 L10.9816986,22.2308741 L10.8320615,22.2308741 L16.6180284,16.4488531 Z M0.157950245,20.8061376 L0.157950245,22.2308741 L9.05719958,31.1240546 L0.157950245,31.1240546 L0.157950245,31.8841909 L9.81785471,31.8841909 L11.4555494,33.5207688 L11.0856133,33.1510849 L0.157950245,33.1510849 L0.157950245,33.8779913 L11.8130157,33.8779913 L13.1098703,35.1739616 L0.157950245,35.1739616 L0.157950245,35.8717917 L13.8081767,35.8717917 L17.1625411,39.2238686 L0.157950245,39.2238686 L0.157950245,39.8593924 L17.8026553,39.8593924 L19.1909548,41.2467452 L0.157950245,41.2467452 L0.157950245,41.8531928 L19.7978162,41.8531928 L21.2193684,43.2737756 L0.157950245,43.2737756 L0.157950245,43.8469932 L21.7929772,43.8469932 L22.4039953,44.4575945 L22.4039953,22.2267204 L21.2858738,21.1093614 L20.1677523,22.2267204 L20.1594392,22.2267204 L21.2817172,21.1052077 L21.1071406,20.9307502 L22.4039953,20.9307502 L22.4039953,19.4977061 L19.6689621,19.4977061 L18.2224704,18.0522009 L14.0409455,22.2308741 L13.9370308,22.2308741 L18.1684348,18.0023559 L18.2183138,18.0522009 L19.1036665,18.9369498 L22.3956821,18.9369498 L22.3956821,17.4706758 L17.6363918,17.4706758 L17.1085055,16.9431494 L22.3956821,16.9431494 L22.3956821,15.4477991 L15.6079782,15.4477991 L15.1507538,14.9908865 L7.90998201,22.2267204 L7.71046591,22.2267204 L15.0509957,14.8911965 L15.1091879,14.949349 L22.3915255,14.949349 L22.3915255,13.4207688 L13.5795645,13.4207688 L13.6169738,13.4581525 L4.84242199,22.2267204 L4.59718345,22.2267204 L13.4922762,13.3376937 L12.0831937,11.9295722 L1.79148831,22.2308741 L1.50052733,22.2308741 L11.950183,11.7883447 L12.0956635,11.933726 L13.1223401,12.9597024 L22.4039953,12.9597024 L22.4039953,11.4020459 L11.5636206,11.4020459 L11.1271791,10.965902 L10.5660401,10.4051457 L0.157950245,20.8061376 Z M0.157950245,14.683509 L0.157950245,17.3585245 L8.84521372,8.67718537 L9.04057324,8.87241166 L0.157950245,17.7448233 L0.157950245,20.4655301 L10.3997767,10.2306882 L10.5701967,10.4009919 L11.1313357,10.9617483 L22.4081519,10.9617483 L22.4081519,9.3750155 L9.54352007,9.3750155 L9.1361747,8.96794792 L22.4081519,8.96794792 L22.4081519,7.34798512 L7.51094981,7.34798512 L7.50263664,7.33967762 L0.157950245,14.6876627 L0.157950245,14.683509 Z M5.48669272,5.32510849 L5.73608785,5.57433354 L5.9771698,5.81525108 L0.157950245,11.6263484 L0.157950245,14.2515189 L7.2864942,7.12783633 L7.13685713,6.9783013 L22.4039953,6.9783013 L22.4039953,5.32926224 L5.48669272,5.32926224 L5.48669272,5.32510849 Z M58.4000248,13.7406076 L59.360196,14.700124 L66.8960854,7.16937384 L66.8960854,5.25034098 L58.4000248,13.7406076 Z M3.45827905,3.29807812 L4.17736832,4.016677 L4.44338979,4.28251705 L0.157950245,8.5650341 L0.157950245,11.1445133 L5.73193126,5.57433354 L5.14169613,4.98450093 L22.4039953,4.98450093 L22.4039953,3.30223187 L3.45827905,3.30223187 L3.45827905,3.29807812 Z M0.157950245,5.50371978 L0.157950245,8.03750775 L4.17736832,4.02083075 L2.90960978,2.75393676 L0.157950245,5.50371978 Z M1.42986538,1.27520149 L2.62280538,2.46732796 L3.14653514,2.98654681 L22.4039953,2.98654681 L22.4039953,1.27520149 L1.42986538,1.27520149 Z M0.157950245,2.44240546 L0.157950245,4.92634842 L2.62280538,2.46317421 L1.42986538,1.27104774 L1.37998635,1.21704898 L0.157950245,2.44240546 Z M0.157950245,1.81934284 L1.06824245,0.90967142 L0.157950245,0 L0.157950245,1.81934284 Z M47.6469384,0 L46.1505677,1.49535028 L46.9236925,2.26794792 L49.1931882,0 L47.651095,0 L47.6469384,0 Z M59.8963956,0 L52.2732179,7.61797892 L51.5832248,6.92845629 L58.5205658,0 L56.8371487,0 L50.7435945,6.08939864 L50.0328184,5.37910725 L55.4114399,0.00415375077 L53.7737453,0.00415375077 L49.2139711,4.56081835 L48.4782555,3.82560446 L52.302314,0.00415375077 L50.7103418,0.00415375077 L47.6801911,3.03223807 L46.919536,2.27210167 L45.364973,0.718598884 L46.0799057,0.00415375077 L43.6815559,0.00415375077 L44.6500403,0.971977681 L44.6500403,2.01872288 L42.6340964,0.00415375077 L40.6181525,0.00415375077 L44.6500403,4.033292 L44.6500403,5.12572846 L39.5249705,0.00415375077 L37.5547491,0.00415375077 L44.6500403,7.09460632 L44.6500403,8.23688779 L36.4158447,0 L34.4955022,0 L44.6500403,10.1476131 L44.6500403,11.3355859 L33.3067188,0 L31.4320988,0 L44.6500403,13.2089275 L44.6500403,14.4467452 L30.1934363,0 L28.3686953,0 L44.6500403,16.2702418 L44.6500403,17.5537508 L27.0843104,0 L25.3052919,0 L44.6500403,19.3315561 L44.6500403,20.6607564 L23.9751846,0 L0.157950245,0 L1.15137415,0.988592684 L22.4039953,0.988592684 L22.4039953,0 L44.6500403,22.2308741 L66.8960854,22.2308741 L66.0564551,21.3918165 L64.5268317,19.8590825 L64.0280414,19.3606324 L66.900242,16.4903906 L66.900242,14.4301302 L62.9972083,18.3305022 L62.4734785,17.8071296 L66.900242,13.383385 L66.900242,11.3688159 L61.4634283,16.7977681 L60.914759,16.249473 L66.8960854,10.2722257 L66.8960854,8.30750155 L59.9296482,15.2691878 L57.8056331,13.1466212 L66.8960854,4.06236826 L66.8960854,2.18902666 L56.8662448,12.2120273 L57.385818,12.7312461 L55.3366214,10.683447 L53.806998,9.15486671 L53.1419443,8.49026658 L61.6296917,0 L59.8963956,0 L59.8963956,0 Z M62.959799,0 L53.8028414,9.15071296 L54.6923506,10.0396156 L64.7388175,0 L62.959799,0 Z M66.0232024,0 L55.3366214,10.6792932 L56.2510702,11.5931184 L66.8960854,0.955362678 L66.8960854,0 L66.0232024,0 Z" id="Shape" fill="#59FF69"></path>
            </g>
        </g>
    </g>
</svg>