<svg id="Layer_2" xmlns="http://www.w3.org/2000/svg" viewBox="0 0 580 162.08"><defs><style>.cls-1{fill:#120540;}.cls-2{fill:#59ff69;}.cls-3{fill:none;stroke:#120540;stroke-miterlimit:1.34;stroke-width:.35px;}</style></defs><g id="ARTWORK"><g><g><path class="cls-2" d="m0,.65v107.46l53.73,53.73h107.46v-53.73H53.73V.65H0Zm107.46,0h-53.73l53.73,53.73h53.73V.65h-53.73Z"/><path class="cls-1" d="m37.05,145.16l2.26,2.26,14.42-14.42v-.52h24.38l-1.18-1.18h-23.19v-2.82l-16.68,16.68ZM.13,108.11l-.06.06,1.69,1.69,1.76-1.76H.13Zm7.4,0l-3.76,3.76,1.75,1.75,5.51-5.51h-3.5Zm7.4,0l-7.46,7.46,1.81,1.81,9.27-9.27h-3.61Zm7.4,0l-11.16,11.16,1.86,1.86,13.02-13.02h-3.73Zm7.4,0l-14.86,14.86,1.92,1.92,16.78-16.78h-3.84Zm7.4,0l-18.56,18.56,1.98,1.98,20.53-20.53h-3.96Zm7.4,0l-22.26,22.26,2.03,2.03,24.29-24.29h-4.07Zm52.28,43.06l.88.88-.88-.88h0Zm10.67-43.06h-55.55l-25.95,25.95,2.09,2.09,25.69-25.69v-2.36l1.1,1.1h52.63s1.1,0,1.1,0l.91.91h-2.01v-.74h-52.46l2.05,2.05h-3.32v1.49h4.81l1.12,1.12h47.81s5.92,0,5.92,0l.98.98h-6.9v-.74h-47.57l2.13,2.13h-8.29v-2.71l-24.08,24.08,2.15,2.15,21.93-21.93v-.17h9.7l1.04,1.04h42.99s10.74,0,10.74,0l1.06,1.05h-11.8v-.74h-42.67l2.2,2.2h-13.26v-.28l-20.38,20.38,2.21,2.21,18.17-18.17v-2.79h14.59l.97.97h38.17s15.56,0,15.56,0l1.13,1.13h-16.69v-.74h-37.78l2.27,2.27h-18.23v1.26h19.48l-1.26-1.26,2.16,2.16h33.35,0s20.38,0,20.38,0l1.2,1.2h-21.59v-.74h-32.89l4.36,4.36h28.53s25.2,0,25.2,0l1.28,1.28h-26.48v-.74h-27.99l2.42,2.42h-28.16v-.39l-12.98,12.98,2.32,2.32,10.66-10.66v-3.14h29.27l.76.76h23.71s30.02,0,30.02,0l1.35,1.35h-31.38v-.74h-23.1l2.49,2.49h-33.13v1.03h34.16l.68.68h18.89s34.84,0,34.84,0l1.42,1.43h-36.27v-.74h-18.2l2.57,2.57h-38.1v-2.93l-9.28,9.28,2.38,2.38,6.91-6.91v-.86h39.05l.61.61h14.07s39.66,0,39.66,0l1.5,1.5h-41.16v-.74h-13.31l2.64,2.64h-43.06v-.5l-5.59,5.59,2.43,2.43,3.15-3.15v-3.48h43.95l.54.54h9.24s44.49,0,44.49,0l1.57,1.57h-46.06v-.74h-8.41l2.71,2.71h-48.03v.81h48.84l.47.47h4.42s49.31,0,49.31,0l1.65,1.65h-50.95v-.74s-3.52,0-3.52,0l2.79,2.79h-53v-3.04l-1.89,1.89,1.89,1.89h107.46v-53.73h-53.73ZM0,90.56v1.61h37.79l-1.61-1.61H0Zm0-19.58v1.91h18.51l-1.91-1.91H0Zm0-9.79v2.06h8.87l-2.06-2.06H0Zm0-4.9v2.13h4.05l-2.13-2.13H0Zm52.02-3.62l1.71,1.71v-1.71h-1.71Zm107.14-.32l2.03,2.03v-4.06l-2.03,2.03Zm-3.7-3.7l2.55,2.55,3.18-3.18v-5.1l-5.73,5.73Zm-3.7-3.7l2.49,2.49,6.94-6.94v-4.98l-9.43,9.43Zm-112.01-4.55l.18.18-13.79,13.79h-.36l13.98-13.98ZM0,50.93v3.44l11.71,11.71H0v1.98h13.69l7.81,7.81H0v1.84h23.33l-1.84-1.84,1.84,1.84h0l3.96,3.95-.89-.89H0v1.76h28.15l3.13,3.13H0v1.69h32.97l8.1,8.1H0v1.54h42.61l3.36,3.36H0v1.46h47.43l3.43,3.43H0v1.39h52.25l1.48,1.48v-53.73l-2.7-2.7-2.7,2.7h-.02l2.71-2.71-.42-.42h3.13v-3.47h-6.6l.2.21-6.4,6.4h-.14l6.47-6.47-3.63-3.63-10.1,10.09h-.25l10.22-10.22.13.13,2.14,2.14h7.95v-3.54h-11.5l-1.28-1.28h12.77v-3.62h-16.39l-1.1-1.1-17.49,17.49h-.48l17.73-17.73.14.14h17.59v-3.69h-21.29l.09.1-21.19,21.19h-.59l21.49-21.49-.93-.93h22.41v-3.77h-26.18l1.29,1.29L3.95,54.38h-.71l25.24-25.24-1.99-1.99-1.35-1.35L0,50.93Zm0-14.79v6.46l20.98-20.98.47.47L0,43.54v6.58l24.73-24.73.41.41,1.35,1.35h27.23v-3.84h-31.07l-.98-.98h32.05v-3.91H17.76l-.02-.02L0,36.14Zm0-14.79v6.23l13.47-13.47.58.58L0,28.74v6.35l17.22-17.22-.37-.37h36.88v-3.99H12.87l-2.52-2.52L0,21.35ZM3.08,3.73l2.88,2.88.7.7L0,13.95v6.12l9.71-9.71,2.32,2.32h41.7v-4.06H7.97l-.76-.76h46.52V3.73H3.08ZM0,6.55v6.01l5.96-5.95-2.88-2.88-.13-.13L0,6.55Zm0-1.5l2.2-2.2L0,.65v4.4ZM122.1.65l-7.32,7.32,1.92,1.92L125.94.65h-3.84Zm7.4,0l-11.02,11.02,1.98,1.98,13-12.99h-3.96Zm14.79,0l-18.41,18.41,2.09,2.09-3.76-3.76L140.96.65h-4.07l-14.71,14.71-3.7-3.7-1.78-1.78-3.76-3.76,5.48-5.48h-3.73l-3.62,3.62-1.89-1.89,1.73-1.73h-5.79l2.34,2.34v2.53l-4.87-4.87h-4.87l9.74,9.74v2.64L95.08.65h-4.75l17.13,17.13v2.76L87.57.65h-4.64l24.53,24.53v2.87L80.06.65h-4.53l31.93,31.93v2.99L72.55.65h-4.41l39.32,39.32v3.1L65.04.65h-4.3l46.72,46.72v3.21L57.53.65H0l2.4,2.39h51.34V.65l53.73,53.73h53.73l-2.03-2.03-3.7-3.7-3.7-3.7-1.26-1.26,10.69-10.69v-4.87l-13.13,13.13,1.81,1.81-3.14-3.14,14.45-14.45v-4.75l-16.82,16.82-1.38-1.38,18.2-18.2v-4.64l-20.52,20.52-1.44-1.44,21.96-21.96v-4.52l-24.22,24.22-3.7-3.7-3.7-3.7-1.61-1.61L148.48.65h-4.18Zm7.4,0l-22.11,22.11,2.15,2.15L155.99.65h-4.3Zm7.4,0l-25.81,25.81,2.21,2.21,25.72-25.71V.65h-2.11Z"/></g><g><path class="cls-1" d="m232.42,101.34h3.77c.28,0,.45-.17.45-.45v-24.08h10.35c.28,0,.45-.17.45-.45v-3.09c0-.28-.17-.45-.45-.45h-8.77c-4.05,0-6.24,2.19-6.24,6.24v21.83c0,.28.17.45.45.45m-28.69-14.23c0-6.58,3.54-10.74,9.23-10.74s9.28,4.16,9.28,10.74-3.6,10.69-9.28,10.69-9.23-4.11-9.23-10.69m9.23,14.51c8.32,0,14.01-5.85,14.01-14.51s-5.68-14.57-14.01-14.57-13.95,5.91-13.95,14.57,5.63,14.51,13.95,14.51m-27.79-.28h3.77c.28,0,.45-.17.45-.45v-24.3h7.48c.28,0,.45-.22.45-.45v-2.87c0-.28-.17-.45-.45-.45h-7.48v-8.27h7.48c.28,0,.45-.17.45-.39v-2.87c0-.28-.17-.45-.45-.45h-5.91c-4.05,0-6.24,2.19-6.24,6.24v5.74h-5.34c-.22,0-.39.17-.39.45v2.87c0,.22.17.45.39.45h5.34v24.3c0,.28.17.45.45.45"/><rect class="cls-2" x="260.01" y="56.15" width="319.99" height="61.62"/><g><path class="cls-1" d="m554.73,24.36c.45-5.63,3.71-8.83,9.11-8.83,4.84,0,7.88,3.26,8.16,8.83h-17.27Zm9.11,16.43c6.81,0,11.36-3.49,12.49-8.49.06-.22-.11-.39-.45-.39h-3.6c-.28,0-.45.11-.51.39-.96,2.87-3.77,4.67-7.93,4.67-5.51,0-8.77-3.43-9.11-9.11h21.32c.28,0,.45-.17.45-.45v-1.12c0-9.06-4.78-14.57-12.66-14.57-8.44,0-13.89,5.68-13.89,14.57s5.4,14.51,13.89,14.51m-31.56-.28h3.77c.28,0,.45-.17.45-.45V15.98h10.35c.28,0,.45-.17.45-.45v-3.09c0-.28-.17-.45-.45-.45h-8.78c-4.05,0-6.24,2.19-6.24,6.24v21.83c0,.28.17.45.45.45m-12.09,0h5.91c.28,0,.45-.17.45-.45v-2.87c0-.22-.17-.39-.45-.39h-7.48V15.75h7.48c.28,0,.45-.22.45-.45v-2.87c0-.28-.17-.45-.45-.45h-7.48V3.99c0-.28-.17-.45-.45-.45h-3.77c-.28,0-.45.17-.45.45v7.99h-5.34c-.22,0-.39.17-.39.45v2.87c0,.22.17.45.39.45h5.34v18.51c0,4.05,2.19,6.24,6.24,6.24m-39.32,0h3.82c.22,0,.39-.17.39-.45v-15.81c0-5.63,2.64-8.55,7.59-8.55s7.26,2.76,7.26,8.55v15.81c0,.28.17.45.45.45h3.77c.28,0,.45-.17.45-.45v-15.81c0-8.21-3.6-12.54-10.18-12.54-4.16,0-7.37,1.86-9.34,5.23h-.17v-4.5c0-.28-.17-.45-.45-.45h-3.6c-.22,0-.39.17-.39.45v27.62c0,.28.17.45.39.45m-27.45-16.14c.45-5.63,3.71-8.83,9.11-8.83,4.84,0,7.87,3.26,8.16,8.83h-17.27Zm9.11,16.43c6.81,0,11.36-3.49,12.49-8.49.06-.22-.11-.39-.45-.39h-3.6c-.28,0-.45.11-.51.39-.96,2.87-3.77,4.67-7.93,4.67-5.51,0-8.78-3.43-9.11-9.11h21.32c.28,0,.45-.17.45-.45v-1.12c0-9.06-4.78-14.57-12.66-14.57-8.44,0-13.9,5.68-13.9,14.57s5.4,14.51,13.9,14.51m-34.09,0c8.61,0,14.79-5.01,16.31-12.43.11-.39-.11-.51-.34-.51h-3.88c-.34,0-.39.11-.51.39-1.63,5.74-5.74,8.44-11.59,8.44-8.49,0-13.67-5.96-13.67-15.86s5.23-15.86,13.67-15.86c6.02,0,9.96,3.09,11.25,8.49.06.28.22.45.51.45h3.83c.28,0,.51-.17.45-.51-1.41-7.59-7.71-12.54-16.03-12.54-11.25,0-18.56,7.99-18.56,19.97s7.26,19.97,18.56,19.97m-39.21-.28h4.44c.22,0,.39-.17.39-.45v-2.87c0-.22-.17-.39-.39-.39h-6.02V.45c0-.28-.17-.45-.39-.45h-3.83c-.22,0-.39.17-.39.45v33.81c0,4.05,2.19,6.24,6.19,6.24m-36.96-14.23c0-6.58,3.49-10.74,9-10.74s9.06,4.22,9.06,10.74-3.49,10.69-9.06,10.69-9-4.11-9-10.69m7.82,14.51c4.28,0,8.1-2.08,10.07-5.57h.17v1.86c0,2.25,1.35,3.43,3.99,3.43h3.94c.28,0,.45-.17.45-.45v-2.87c0-.22-.17-.39-.45-.39h-3.43V12.43c0-.28-.17-.45-.45-.45h-3.77c-.28,0-.45.17-.45.45v4.95h-.17c-2.08-3.6-5.74-5.68-9.9-5.68-7.65,0-12.54,5.74-12.54,14.57s4.89,14.51,12.54,14.51m-40.73-.28h3.82c.22,0,.39-.17.39-.45v-15.81c0-5.63,2.64-8.55,7.59-8.55s7.26,2.76,7.26,8.55v15.81c0,.28.17.45.45.45h3.77c.28,0,.45-.17.45-.45v-15.81c0-8.21-3.6-12.54-10.18-12.54-4.16,0-7.37,1.86-9.34,5.23h-.17v-4.5c0-.28-.17-.45-.45-.45h-3.6c-.22,0-.39.17-.39.45v27.62c0,.28.17.45.39.45m-28.58-14.23c0-6.58,3.54-10.74,9.23-10.74s9.28,4.16,9.28,10.74-3.6,10.69-9.28,10.69-9.23-4.11-9.23-10.69m9.23,14.51c8.33,0,14.01-5.85,14.01-14.51s-5.68-14.57-14.01-14.57-13.95,5.91-13.95,14.57,5.63,14.51,13.95,14.51m-24.13-34.99c0,.22.17.39.45.39h4.95c.22,0,.39-.17.39-.39V.84c0-.28-.17-.45-.39-.45h-4.95c-.28,0-.45.17-.45.45v4.95Zm.96,34.71h3.83c.22,0,.39-.17.39-.45V12.43c0-.28-.17-.45-.39-.45h-3.83c-.22,0-.39.17-.39.45v27.62c0,.28.17.45.39.45m-11.98,0h5.91c.28,0,.45-.17.45-.45v-2.87c0-.22-.17-.39-.45-.39h-7.48V15.75h7.48c.28,0,.45-.22.45-.45v-2.87c0-.28-.17-.45-.45-.45h-7.48V3.99c0-.28-.17-.45-.45-.45h-3.77c-.28,0-.45.17-.45.45v7.99h-5.34c-.23,0-.39.17-.39.45v2.87c0,.22.17.45.39.45h5.34v18.51c0,4.05,2.19,6.24,6.24,6.24m-39.66-14.23c0-6.58,3.49-10.74,9-10.74s9.06,4.22,9.06,10.74-3.49,10.69-9.06,10.69-9-4.11-9-10.69m7.82,14.51c4.28,0,8.1-2.08,10.07-5.57h.17v1.86c0,2.25,1.35,3.43,3.99,3.43h3.94c.28,0,.45-.17.45-.45v-2.87c0-.22-.17-.39-.45-.39h-3.43V12.43c0-.28-.17-.45-.45-.45h-3.77c-.28,0-.45.17-.45.45v4.95h-.17c-2.08-3.6-5.74-5.68-9.9-5.68-7.65,0-12.54,5.74-12.54,14.57s4.89,14.51,12.54,14.51m-47.98-.28h3.83c.22,0,.39-.17.39-.45V8.44h.22l19.91,31.73c.17.28.34.34.56.34h4.84c.28,0,.45-.17.45-.45V1.57c0-.28-.17-.45-.45-.45h-3.77c-.28,0-.45.17-.45.45v31.56h-.22L190.45,1.46c-.11-.28-.34-.34-.51-.34h-4.89c-.22,0-.39.17-.39.45v38.48c0,.28.17.45.39.45"/><path class="cls-1" d="m407.01,161.8h3.83c.22,0,.39-.17.39-.45v-15.81c0-5.63,2.64-8.55,7.6-8.55s7.26,2.76,7.26,8.55v15.81c0,.28.17.45.45.45h3.77c.28,0,.45-.17.45-.45v-15.81c0-8.21-3.6-12.54-10.18-12.54-4.16,0-7.37,1.86-9.34,5.23h-.17v-4.5c0-.28-.17-.45-.45-.45h-3.6c-.22,0-.39.17-.39.45v27.62c0,.28.17.45.39.45m-28.86-14.23c0-6.58,3.54-10.74,9.22-10.74s9.28,4.16,9.28,10.74-3.6,10.69-9.28,10.69-9.22-4.11-9.22-10.69m9.22,14.51c8.33,0,14.01-5.85,14.01-14.51s-5.68-14.57-14.01-14.57-13.95,5.91-13.95,14.57,5.63,14.51,13.95,14.51m-24.41-34.99c0,.22.17.39.45.39h4.95c.22,0,.39-.17.39-.39v-4.95c0-.28-.17-.45-.39-.45h-4.95c-.28,0-.45.17-.45.45v4.95Zm.96,34.71h3.83c.22,0,.39-.17.39-.45v-27.62c0-.28-.17-.45-.39-.45h-3.83c-.22,0-.39.17-.39.45v27.62c0,.28.17.45.39.45m-12.26,0h5.91c.28,0,.45-.17.45-.45v-2.87c0-.22-.17-.39-.45-.39h-7.48v-21.04h7.48c.28,0,.45-.22.45-.45v-2.87c0-.28-.17-.45-.45-.45h-7.48v-7.99c0-.28-.17-.45-.45-.45h-3.77c-.28,0-.45.17-.45.45v7.99h-5.34c-.22,0-.39.17-.39.45v2.87c0,.22.17.45.39.45h5.34v18.51c0,4.05,2.19,6.24,6.24,6.24m-39.94-14.23c0-6.58,3.49-10.74,9-10.74s9.06,4.22,9.06,10.74-3.49,10.69-9.06,10.69-9-4.11-9-10.69m7.82,14.51c4.28,0,8.1-2.08,10.07-5.57h.17v1.86c0,2.25,1.35,3.43,3.99,3.43h3.94c.28,0,.45-.17.45-.45v-2.87c0-.22-.17-.39-.45-.39h-3.43v-24.36c0-.28-.17-.45-.45-.45h-3.77c-.28,0-.45.17-.45.45v4.95h-.17c-2.08-3.6-5.74-5.68-9.9-5.68-7.65,0-12.54,5.74-12.54,14.57s4.89,14.51,12.54,14.51m-28.58,0c6.69,0,11.36-3.71,12.43-9.23.06-.28-.17-.39-.45-.39h-3.6c-.28,0-.45.11-.51.39-1.07,3.66-3.71,5.4-7.87,5.4-5.74,0-9.23-3.99-9.23-10.69s3.49-10.74,9.23-10.74c4.05,0,6.75,1.86,7.59,5.4.11.34.23.45.51.45h3.66c.28,0,.51-.17.45-.51-.96-5.51-5.68-9.17-12.21-9.17-8.38,0-13.95,5.85-13.95,14.57s5.46,14.51,13.95,14.51m-30.66,0c7.82,0,11.98-4.16,11.98-12.09v-16.26c0-.28-.17-.45-.45-.45h-3.77c-.28,0-.45.17-.45.45v16.88c0,4.95-2.59,7.65-7.31,7.65s-7.31-2.76-7.31-7.65v-16.88c0-.28-.17-.45-.39-.45h-3.83c-.22,0-.39.17-.39.45v16.26c0,7.93,4.11,12.09,11.93,12.09m-40.9-14.51c0-6.58,3.54-10.74,9.06-10.74s9.06,4.22,9.06,10.74-3.49,10.69-9.06,10.69-9.06-4.11-9.06-10.69m7.82,14.51c4.28,0,8.1-2.08,10.13-5.57h.17v4.84c0,.28.17.45.45.45h3.6c.22,0,.39-.17.39-.45v-39.6c0-.28-.17-.45-.39-.45h-3.83c-.22,0-.39.17-.39.45v16.93h-.22c-2.02-3.6-5.74-5.68-9.9-5.68-7.59,0-12.54,5.74-12.54,14.57s4.95,14.51,12.54,14.51m-42.19-.28h24.86c.28,0,.45-.17.45-.45v-3.26c0-.22-.17-.39-.45-.39h-20.48v-13.67h18.79c.28,0,.45-.17.45-.45v-3.26c0-.22-.17-.39-.45-.39h-18.79v-13.39h19.91c.28,0,.45-.17.45-.45v-3.21c0-.28-.17-.45-.45-.45h-24.3c-.22,0-.39.17-.39.45v38.48c0,.28.17.45.39.45"/><path class="cls-1" d="m566.74,72.74h-3.23c-.35,0-.64.29-.64.64v2.83l-3.06-3.06c-.29-.29-.58-.4-1.04-.4h-9.88c-.4,0-.75.12-1.04.4l-6.3,6.3c-.29.29-.4.58-.4,1.04v13.23c0,.46.12.75.4,1.04l6.3,6.3c.29.29.64.4,1.04.4h8.55c.4,0,.69-.06,1.04-.4l2.77-2.83c.58-.58.29-1.27-.46-1.27h-13c-1.33,0-2.14-.81-2.14-2.14v-15.36c0-1.33.81-2.19,2.14-2.19h12.94c1.39,0,2.14.58,2.14,2.08v27.03c0,1.33-.81,2.14-2.14,2.14h-12.94c-1.33,0-2.14-.81-2.14-2.14v-2.89c0-.4-.29-.64-.64-.64h-3.23c-.35,0-.64.23-.64.64v1.79c0,.4.12.69.46,1.04l6.3,6.3c.29.29.58.4,1.04.4h10.69c.4,0,.69-.12.98-.4l6.3-6.3c.35-.35.46-.64.46-1.04v-31.88c0-.35-.23-.64-.64-.64m-35.99,28.71h3.23c.35,0,.64-.23.64-.64v-20.33c0-.4-.12-.75-.46-1.04l-6.24-6.3c-.35-.29-.64-.4-1.04-.4h-7.74c-.4,0-.69.12-1.04.4l-2.77,2.83c-.58.58-.29,1.27.46,1.27h12.13c1.33,0,2.19.87,2.19,2.19v21.37c0,.4.23.64.64.64m-20.91,0h3.23c.35,0,.58-.23.58-.64v-27.44c0-.35-.23-.64-.58-.64h-3.23c-.4,0-.64.29-.64.64v27.44c0,.4.23.64.64.64m-22.41,0h6.12c.35,0,.64-.23.64-.64v-3.23c0-.35-.29-.64-.64-.64h-6.12c-.4,0-.64.29-.64.64v3.23c0,.4.23.64.64.64m13.17,0h2.19c.35,0,.64-.23.64-.64v-3.23c0-.35-.29-.64-.64-.64h-3.29c-1.33,0-2.14-.81-2.14-2.14v-14.32c0-.4-.12-.69-.46-1.04l-6.3-6.3c-.29-.29-.58-.4-1.04-.4h-2.14c-.4,0-.64.29-.64.64v3.23c0,.35.23.64.64.64h3.23c1.33,0,2.19.87,2.19,2.19v14.27c0,.4.12.69.46,1.04l6.3,6.3c.29.29.52.4.98.4m-7.51-38.7c-.4,0-.69.29-.69.69v3.87c0,.4.29.69.69.69h3.81c.4,0,.64-.29.64-.69v-3.87c0-.4-.23-.69-.64-.69h-3.81Zm-23.74,14.5h10.45c.4,0,.64-.29.64-.64v-3.23c0-.35-.23-.64-.64-.64h-7.1c-.4,0-.69.12-.98.4l-2.83,2.83c-.58.58-.29,1.27.46,1.27m11.67,15.83l-2.19-2.14c-.23-.29-.64-.29-.92,0l-6.01,6.01h-2.48c-1.33,0-2.14-.81-2.14-2.14v-28.88c0-.35-.29-.64-.64-.64h-3.23c-.35,0-.64.29-.64.64v6.82h-3.81c-.35,0-.64.29-.64.64v3.23c0,.35.29.64.64.64h3.81v16.46c0,.4.12.69.46,1.04l6.3,6.3c.29.29.58.4,1.04.4h2.43c.46,0,.75-.12,1.1-.46l6.93-6.99c.29-.29.29-.64,0-.92m-32.23,8.38h3.23c.35,0,.58-.23.58-.64v-27.44c0-.35-.23-.64-.58-.64h-3.23c-.4,0-.64.29-.64.64v27.44c0,.4.23.64.64.64m-13.29,0h7.1c.46,0,.75-.06,1.04-.4l2.83-2.83c.58-.58.29-1.27-.46-1.27h-11.61c-1.33,0-2.19-.81-2.19-2.14v-21.43c0-.35-.23-.64-.58-.64h-3.23c-.4,0-.64.29-.64.64v20.33c0,.4.12.75.4,1.04l6.3,6.3c.29.29.58.4,1.04.4m-15.88-22.01l-6.3-6.3c-.29-.29-.64-.4-1.04-.4h-8.55c-.4,0-.69.12-1.04.4l-2.83,2.83c-.58.58-.23,1.27.52,1.27h12.94c1.39,0,2.19.87,2.19,2.19v15.36c0,1.33-.81,2.14-2.19,2.14h-12.88c-1.39,0-2.19-.58-2.19-2.08v-21.49c0-.35-.23-.64-.58-.64h-3.23c-.4,0-.64.29-.64.64v38.99c0,.4.23.64.64.64h3.23c.35,0,.58-.23.58-.64v-14.44l3.12,3.12c.29.29.58.4,1.04.4h9.88c.4,0,.75-.12,1.04-.4l6.3-6.3c.29-.29.4-.58.4-1.04v-13.23c0-.46-.12-.75-.4-1.04m-37.49,22.01h3.18c.4,0,.64-.23.64-.64v-20.33c0-.4-.12-.75-.4-1.04l-6.3-6.3c-.29-.29-.58-.4-.98-.4h-8.03c-.4,0-.69.12-.98.4l-2.83,2.83c-.58.58-.29,1.27.46,1.27h12.42c1.33,0,2.19.87,2.19,2.19v21.37c0,.4.23.64.64.64m-18.77,0h3.23c.35,0,.64-.23.64-.64v-20.33c0-.4-.12-.75-.4-1.04l-6.3-6.3c-.29-.29-.64-.4-1.04-.4h-5.49c-.4,0-.69.12-1.04.4l-2.83,2.83c-.58.58-.23,1.27.52,1.27h9.88c1.39,0,2.19.87,2.19,2.19v21.37c0,.4.29.64.64.64m-18.71,0h3.23c.35,0,.58-.23.58-.64v-27.44c0-.35-.23-.64-.58-.64h-3.23c-.4,0-.64.29-.64.64v27.44c0,.4.23.64.64.64m-26.97-4.51c-1.33,0-2.14-.81-2.14-2.14v-15.36c0-1.33.81-2.19,2.14-2.19h12.94c1.33,0,2.14.87,2.14,2.19v12.36l-5.03,5.14h-10.05Zm1.1,4.51h9.93c.46,0,.81-.12,1.1-.46l6.99-6.93c.29-.35.46-.64.46-1.1v-12.48c0-.46-.12-.75-.4-1.04l-6.3-6.3c-.29-.29-.64-.4-1.04-.4h-10.74c-.4,0-.75.12-1.04.4l-6.3,6.3c-.29.29-.4.64-.4,1.04v13.23c0,.4.12.75.4,1.04l6.3,6.3c.29.29.64.4,1.04.4m-39.57,0h15.25c.46,0,.75-.12,1.04-.4l9.01-9.01c.23-.23.23-.58,0-.87l-2.25-2.25c-.35-.29-.64-.23-.92.06l-7.97,7.97h-15.19c-1.39,0-2.19-.81-2.19-2.14v-21.66l7.62-7.62h14.09c1.33,0,2.19.81,2.19,2.14v5.95c0,.4.29.64.64.64h3.23c.35,0,.64-.23.64-.64l-.06-4.85c0-.4-.12-.75-.4-1.04l-6.3-6.3c-.29-.29-.64-.4-1.04-.4h-14.09c-.46,0-.75.12-1.04.4l-9.53,9.53c-.29.29-.46.58-.46,1.04v21.72c0,.4.12.75.4,1.04l6.3,6.3c.29.29.64.4,1.04.4"/><path class="cls-3" d="m566.74,72.74h-3.23c-.35,0-.64.29-.64.64v2.83l-3.06-3.06c-.29-.29-.58-.4-1.04-.4h-9.88c-.4,0-.75.12-1.04.4l-6.3,6.3c-.29.29-.4.58-.4,1.04v13.23c0,.46.12.75.4,1.04l6.3,6.3c.29.29.64.4,1.04.4h8.55c.4,0,.69-.06,1.04-.4l2.77-2.83c.58-.58.29-1.27-.46-1.27h-13c-1.33,0-2.14-.81-2.14-2.14v-15.36c0-1.33.81-2.19,2.14-2.19h12.94c1.39,0,2.14.58,2.14,2.08v27.03c0,1.33-.81,2.14-2.14,2.14h-12.94c-1.33,0-2.14-.81-2.14-2.14v-2.89c0-.4-.29-.64-.64-.64h-3.23c-.35,0-.64.23-.64.64v1.79c0,.4.12.69.46,1.04l6.3,6.3c.29.29.58.4,1.04.4h10.69c.4,0,.69-.12.98-.4l6.3-6.3c.35-.35.46-.64.46-1.04v-31.88c0-.35-.23-.64-.64-.64Zm-35.99,28.71h3.23c.35,0,.64-.23.64-.64v-20.33c0-.4-.12-.75-.46-1.04l-6.24-6.3c-.35-.29-.64-.4-1.04-.4h-7.74c-.4,0-.69.12-1.04.4l-2.77,2.83c-.58.58-.29,1.27.46,1.27h12.13c1.33,0,2.19.87,2.19,2.19v21.37c0,.4.23.64.64.64Zm-20.91,0h3.23c.35,0,.58-.23.58-.64v-27.44c0-.35-.23-.64-.58-.64h-3.23c-.4,0-.64.29-.64.64v27.44c0,.4.23.64.64.64Zm-22.41,0h6.12c.35,0,.64-.23.64-.64v-3.23c0-.35-.29-.64-.64-.64h-6.12c-.4,0-.64.29-.64.64v3.23c0,.4.23.64.64.64Zm13.17,0h2.19c.35,0,.64-.23.64-.64v-3.23c0-.35-.29-.64-.64-.64h-3.29c-1.33,0-2.14-.81-2.14-2.14v-14.32c0-.4-.12-.69-.46-1.04l-6.3-6.3c-.29-.29-.58-.4-1.04-.4h-2.14c-.4,0-.64.29-.64.64v3.23c0,.35.23.64.64.64h3.23c1.33,0,2.19.87,2.19,2.19v14.27c0,.4.12.69.46,1.04l6.3,6.3c.29.29.52.4.98.4Zm-7.51-38.7c-.4,0-.69.29-.69.69v3.87c0,.4.29.69.69.69h3.81c.4,0,.64-.29.64-.69v-3.87c0-.4-.23-.69-.64-.69h-3.81Zm-23.74,14.5h10.45c.4,0,.64-.29.64-.64v-3.23c0-.35-.23-.64-.64-.64h-7.1c-.4,0-.69.12-.98.4l-2.83,2.83c-.58.58-.29,1.27.46,1.27Zm11.67,15.83l-2.19-2.14c-.23-.29-.64-.29-.92,0l-6.01,6.01h-2.48c-1.33,0-2.14-.81-2.14-2.14v-28.88c0-.35-.29-.64-.64-.64h-3.23c-.35,0-.64.29-.64.64v6.82h-3.81c-.35,0-.64.29-.64.64v3.23c0,.35.29.64.64.64h3.81v16.46c0,.4.12.69.46,1.04l6.3,6.3c.29.29.58.4,1.04.4h2.43c.46,0,.75-.12,1.1-.46l6.93-6.99c.29-.29.29-.64,0-.92Zm-32.23,8.38h3.23c.35,0,.58-.23.58-.64v-27.44c0-.35-.23-.64-.58-.64h-3.23c-.4,0-.64.29-.64.64v27.44c0,.4.23.64.64.64Zm-13.29,0h7.1c.46,0,.75-.06,1.04-.4l2.83-2.83c.58-.58.29-1.27-.46-1.27h-11.61c-1.33,0-2.19-.81-2.19-2.14v-21.43c0-.35-.23-.64-.58-.64h-3.23c-.4,0-.64.29-.64.64v20.33c0,.4.12.75.4,1.04l6.3,6.3c.29.29.58.4,1.04.4Zm-15.88-22.01l-6.3-6.3c-.29-.29-.64-.4-1.04-.4h-8.55c-.4,0-.69.12-1.04.4l-2.83,2.83c-.58.58-.23,1.27.52,1.27h12.94c1.39,0,2.19.87,2.19,2.19v15.36c0,1.33-.81,2.14-2.19,2.14h-12.88c-1.39,0-2.19-.58-2.19-2.08v-21.49c0-.35-.23-.64-.58-.64h-3.23c-.4,0-.64.29-.64.64v38.99c0,.4.23.64.64.64h3.23c.35,0,.58-.23.58-.64v-14.44l3.12,3.12c.29.29.58.4,1.04.4h9.88c.4,0,.75-.12,1.04-.4l6.3-6.3c.29-.29.4-.58.4-1.04v-13.23c0-.46-.12-.75-.4-1.04Zm-37.49,22.01h3.18c.4,0,.64-.23.64-.64v-20.33c0-.4-.12-.75-.4-1.04l-6.3-6.3c-.29-.29-.58-.4-.98-.4h-8.03c-.4,0-.69.12-.98.4l-2.83,2.83c-.58.58-.29,1.27.46,1.27h12.42c1.33,0,2.19.87,2.19,2.19v21.37c0,.4.23.64.64.64Zm-18.77,0h3.23c.35,0,.64-.23.64-.64v-20.33c0-.4-.12-.75-.4-1.04l-6.3-6.3c-.29-.29-.64-.4-1.04-.4h-5.49c-.4,0-.69.12-1.04.4l-2.83,2.83c-.58.58-.23,1.27.52,1.27h9.88c1.39,0,2.19.87,2.19,2.19v21.37c0,.4.29.64.64.64Zm-18.71,0h3.23c.35,0,.58-.23.58-.64v-27.44c0-.35-.23-.64-.58-.64h-3.23c-.4,0-.64.29-.64.64v27.44c0,.4.23.64.64.64Zm-26.97-4.51c-1.33,0-2.14-.81-2.14-2.14v-15.36c0-1.33.81-2.19,2.14-2.19h12.94c1.33,0,2.14.87,2.14,2.19v12.36l-5.03,5.14h-10.05Zm1.1,4.51h9.93c.46,0,.81-.12,1.1-.46l6.99-6.93c.29-.35.46-.64.46-1.1v-12.48c0-.46-.12-.75-.4-1.04l-6.3-6.3c-.29-.29-.64-.4-1.04-.4h-10.74c-.4,0-.75.12-1.04.4l-6.3,6.3c-.29.29-.4.64-.4,1.04v13.23c0,.4.12.75.4,1.04l6.3,6.3c.29.29.64.4,1.04.4Zm-39.57,0h15.25c.46,0,.75-.12,1.04-.4l9.01-9.01c.23-.23.23-.58,0-.87l-2.25-2.25c-.35-.29-.64-.23-.92.06l-7.97,7.97h-15.19c-1.39,0-2.19-.81-2.19-2.14v-21.66l7.62-7.62h14.09c1.33,0,2.19.81,2.19,2.14v5.95c0,.4.29.64.64.64h3.23c.35,0,.64-.23.64-.64l-.06-4.85c0-.4-.12-.75-.4-1.04l-6.3-6.3c-.29-.29-.64-.4-1.04-.4h-14.09c-.46,0-.75.12-1.04.4l-9.53,9.53c-.29.29-.46.58-.46,1.04v21.72c0,.4.12.75.4,1.04l6.3,6.3c.29.29.64.4,1.04.4Z"/></g></g></g></g></svg>