<?xml version="1.0" encoding="UTF-8"?><svg id="Layer_2" xmlns="http://www.w3.org/2000/svg" viewBox="0 0 580.38 162.75"><defs><style>.cls-1{fill:#fff;}.cls-2{fill:#120540;}.cls-3{fill:#59ff69;}.cls-4{fill:none;stroke:#120540;stroke-miterlimit:1.34;stroke-width:.36px;}</style></defs><g id="ARTWORK"><g><g><path class="cls-1" d="m232.28,101.49h3.77c.28,0,.45-.17.45-.45v-24.11h10.37c.28,0,.45-.17.45-.45v-3.1c0-.28-.17-.45-.45-.45h-8.79c-4.06,0-6.25,2.2-6.25,6.25v21.86c0,.28.17.45.45.45m-28.73-14.25c0-6.59,3.55-10.76,9.24-10.76s9.3,4.17,9.3,10.76-3.61,10.7-9.3,10.7-9.24-4.11-9.24-10.7m9.24,14.54c8.34,0,14.03-5.86,14.03-14.54s-5.69-14.59-14.03-14.59-13.97,5.92-13.97,14.59,5.63,14.54,13.97,14.54m-27.83-.28h3.77c.28,0,.45-.17.45-.45v-24.34h7.49c.28,0,.45-.23.45-.45v-2.87c0-.28-.17-.45-.45-.45h-7.49v-8.28h7.49c.28,0,.45-.17.45-.39v-2.87c0-.28-.17-.45-.45-.45h-5.91c-4.06,0-6.25,2.2-6.25,6.25v5.75h-5.35c-.23,0-.39.17-.39.45v2.87c0,.23.17.45.39.45h5.35v24.34c0,.28.17.45.45.45"/><rect class="cls-3" x="259.91" y="56.24" width="320.47" height="61.72"/><g><path class="cls-1" d="m555.07,24.39c.45-5.63,3.72-8.84,9.13-8.84,4.85,0,7.89,3.27,8.17,8.84h-17.3Zm9.13,16.45c6.82,0,11.38-3.49,12.51-8.51.06-.23-.11-.39-.45-.39h-3.61c-.28,0-.45.11-.51.39-.96,2.87-3.77,4.68-7.94,4.68-5.52,0-8.79-3.44-9.13-9.13h21.35c.28,0,.45-.17.45-.45v-1.13c0-9.07-4.79-14.59-12.68-14.59-8.45,0-13.91,5.69-13.91,14.59s5.41,14.54,13.91,14.54m-31.6-.28h3.77c.28,0,.45-.17.45-.45V16h10.37c.28,0,.45-.17.45-.45v-3.1c0-.28-.17-.45-.45-.45h-8.79c-4.06,0-6.25,2.2-6.25,6.25v21.86c0,.28.17.45.45.45m-12.11,0h5.91c.28,0,.45-.17.45-.45v-2.87c0-.23-.17-.39-.45-.39h-7.49V15.77h7.49c.28,0,.45-.23.45-.45v-2.87c0-.28-.17-.45-.45-.45h-7.49V4c0-.28-.17-.45-.45-.45h-3.77c-.28,0-.45.17-.45.45v8h-5.35c-.23,0-.39.17-.39.45v2.87c0,.23.17.45.39.45h5.35v18.53c0,4.06,2.2,6.25,6.25,6.25m-39.38,0h3.83c.23,0,.39-.17.39-.45v-15.83c0-5.63,2.65-8.56,7.61-8.56s7.27,2.76,7.27,8.56v15.83c0,.28.17.45.45.45h3.77c.28,0,.45-.17.45-.45v-15.83c0-8.22-3.6-12.56-10.2-12.56-4.17,0-7.38,1.86-9.35,5.24h-.17v-4.51c0-.28-.17-.45-.45-.45h-3.6c-.23,0-.39.17-.39.45v27.66c0,.28.17.45.39.45m-27.49-16.17c.45-5.63,3.72-8.84,9.13-8.84,4.85,0,7.89,3.27,8.17,8.84h-17.3Zm9.13,16.45c6.82,0,11.38-3.49,12.51-8.51.06-.23-.11-.39-.45-.39h-3.61c-.28,0-.45.11-.51.39-.96,2.87-3.78,4.68-7.94,4.68-5.52,0-8.79-3.44-9.13-9.13h21.35c.28,0,.45-.17.45-.45v-1.13c0-9.07-4.79-14.59-12.68-14.59-8.45,0-13.92,5.69-13.92,14.59s5.41,14.54,13.92,14.54m-34.14,0c8.62,0,14.82-5.01,16.34-12.45.11-.39-.11-.51-.34-.51h-3.89c-.34,0-.39.11-.51.39-1.63,5.75-5.75,8.45-11.61,8.45-8.51,0-13.69-5.97-13.69-15.89s5.24-15.89,13.69-15.89c6.03,0,9.97,3.1,11.27,8.51.06.28.23.45.51.45h3.83c.28,0,.51-.17.45-.51-1.41-7.61-7.72-12.56-16.06-12.56-11.27,0-18.59,8-18.59,20s7.27,20,18.59,20m-39.27-.28h4.45c.23,0,.39-.17.39-.45v-2.87c0-.23-.17-.39-.39-.39h-6.03V.45c0-.28-.17-.45-.39-.45h-3.83c-.23,0-.39.17-.39.45v33.86c0,4.06,2.2,6.25,6.2,6.25m-37.01-14.25c0-6.59,3.49-10.76,9.01-10.76s9.07,4.22,9.07,10.76-3.49,10.7-9.07,10.7-9.01-4.11-9.01-10.7m7.83,14.54c4.28,0,8.11-2.08,10.08-5.58h.17v1.86c0,2.25,1.35,3.44,4,3.44h3.94c.28,0,.45-.17.45-.45v-2.87c0-.23-.17-.39-.45-.39h-3.44V12.45c0-.28-.17-.45-.45-.45h-3.77c-.28,0-.45.17-.45.45v4.96h-.17c-2.08-3.61-5.75-5.69-9.92-5.69-7.66,0-12.56,5.75-12.56,14.59s4.9,14.54,12.56,14.54m-40.79-.28h3.83c.23,0,.39-.17.39-.45v-15.83c0-5.63,2.65-8.56,7.61-8.56s7.27,2.76,7.27,8.56v15.83c0,.28.17.45.45.45h3.77c.28,0,.45-.17.45-.45v-15.83c0-8.22-3.6-12.56-10.2-12.56-4.17,0-7.38,1.86-9.35,5.24h-.17v-4.51c0-.28-.17-.45-.45-.45h-3.6c-.23,0-.39.17-.39.45v27.66c0,.28.17.45.39.45m-28.62-14.25c0-6.59,3.55-10.76,9.24-10.76s9.3,4.17,9.3,10.76-3.61,10.7-9.3,10.7-9.24-4.11-9.24-10.7m9.24,14.54c8.34,0,14.03-5.86,14.03-14.54s-5.69-14.59-14.03-14.59-13.97,5.92-13.97,14.59,5.63,14.54,13.97,14.54m-24.17-35.04c0,.23.17.39.45.39h4.96c.23,0,.39-.17.39-.39V.85c0-.28-.17-.45-.39-.45h-4.96c-.28,0-.45.17-.45.45v4.96Zm.96,34.76h3.83c.23,0,.39-.17.39-.45V12.45c0-.28-.17-.45-.39-.45h-3.83c-.23,0-.39.17-.39.45v27.66c0,.28.17.45.39.45m-12,0h5.91c.28,0,.45-.17.45-.45v-2.87c0-.23-.17-.39-.45-.39h-7.49V15.77h7.49c.28,0,.45-.23.45-.45v-2.87c0-.28-.17-.45-.45-.45h-7.49V4c0-.28-.17-.45-.45-.45h-3.77c-.28,0-.45.17-.45.45v8h-5.35c-.23,0-.39.17-.39.45v2.87c0,.23.17.45.39.45h5.35v18.53c0,4.06,2.2,6.25,6.25,6.25m-39.72-14.25c0-6.59,3.49-10.76,9.01-10.76s9.07,4.22,9.07,10.76-3.49,10.7-9.07,10.7-9.01-4.11-9.01-10.7m7.83,14.54c4.28,0,8.11-2.08,10.08-5.58h.17v1.86c0,2.25,1.35,3.44,4,3.44h3.94c.28,0,.45-.17.45-.45v-2.87c0-.23-.17-.39-.45-.39h-3.44V12.45c0-.28-.17-.45-.45-.45h-3.77c-.28,0-.45.17-.45.45v4.96h-.17c-2.08-3.61-5.75-5.69-9.92-5.69-7.66,0-12.56,5.75-12.56,14.59s4.9,14.54,12.56,14.54m-48.06-.28h3.83c.23,0,.39-.17.39-.45V8.45h.23l19.94,31.77c.17.28.34.34.56.34h4.85c.28,0,.45-.17.45-.45V1.58c0-.28-.17-.45-.45-.45h-3.77c-.28,0-.45.17-.45.45v31.61h-.23L190.24,1.46c-.11-.28-.34-.34-.51-.34h-4.9c-.23,0-.39.17-.39.45v38.53c0,.28.17.45.39.45"/><path class="cls-1" d="m407.13,162.04h3.83c.23,0,.39-.17.39-.45v-15.83c0-5.63,2.65-8.56,7.61-8.56s7.27,2.76,7.27,8.56v15.83c0,.28.17.45.45.45h3.78c.28,0,.45-.17.45-.45v-15.83c0-8.22-3.61-12.56-10.2-12.56-4.17,0-7.38,1.86-9.35,5.24h-.17v-4.51c0-.28-.17-.45-.45-.45h-3.61c-.23,0-.39.17-.39.45v27.66c0,.28.17.45.39.45m-28.9-14.25c0-6.59,3.55-10.76,9.24-10.76s9.3,4.17,9.3,10.76-3.61,10.7-9.3,10.7-9.24-4.11-9.24-10.7m9.24,14.54c8.34,0,14.03-5.86,14.03-14.54s-5.69-14.59-14.03-14.59-13.97,5.92-13.97,14.59,5.63,14.54,13.97,14.54m-24.45-35.04c0,.23.17.39.45.39h4.96c.23,0,.39-.17.39-.39v-4.96c0-.28-.17-.45-.39-.45h-4.96c-.28,0-.45.17-.45.45v4.96Zm.96,34.76h3.83c.23,0,.39-.17.39-.45v-27.66c0-.28-.17-.45-.39-.45h-3.83c-.23,0-.39.17-.39.45v27.66c0,.28.17.45.39.45m-12.28,0h5.91c.28,0,.45-.17.45-.45v-2.87c0-.23-.17-.39-.45-.39h-7.49v-21.07h7.49c.28,0,.45-.23.45-.45v-2.87c0-.28-.17-.45-.45-.45h-7.49v-8c0-.28-.17-.45-.45-.45h-3.77c-.28,0-.45.17-.45.45v8h-5.35c-.23,0-.39.17-.39.45v2.87c0,.23.17.45.39.45h5.35v18.53c0,4.06,2.2,6.25,6.25,6.25m-40-14.25c0-6.59,3.49-10.76,9.01-10.76s9.07,4.22,9.07,10.76-3.49,10.7-9.07,10.7-9.01-4.11-9.01-10.7m7.83,14.54c4.28,0,8.11-2.08,10.08-5.58h.17v1.86c0,2.25,1.35,3.44,4,3.44h3.94c.28,0,.45-.17.45-.45v-2.87c0-.23-.17-.39-.45-.39h-3.44v-24.39c0-.28-.17-.45-.45-.45h-3.77c-.28,0-.45.17-.45.45v4.96h-.17c-2.08-3.61-5.75-5.69-9.92-5.69-7.66,0-12.56,5.75-12.56,14.59s4.9,14.54,12.56,14.54m-28.62,0c6.7,0,11.38-3.72,12.45-9.24.06-.28-.17-.39-.45-.39h-3.6c-.28,0-.45.11-.51.39-1.07,3.66-3.72,5.41-7.89,5.41-5.75,0-9.24-4-9.24-10.7s3.49-10.76,9.24-10.76c4.06,0,6.76,1.86,7.6,5.41.11.34.23.45.51.45h3.66c.28,0,.51-.17.45-.51-.96-5.52-5.69-9.18-12.22-9.18-8.4,0-13.97,5.86-13.97,14.59s5.46,14.54,13.97,14.54m-30.7,0c7.83,0,12-4.17,12-12.11v-16.28c0-.28-.17-.45-.45-.45h-3.78c-.28,0-.45.17-.45.45v16.9c0,4.96-2.59,7.66-7.32,7.66s-7.32-2.76-7.32-7.66v-16.9c0-.28-.17-.45-.39-.45h-3.83c-.23,0-.39.17-.39.45v16.28c0,7.94,4.11,12.11,11.94,12.11m-40.96-14.54c0-6.59,3.55-10.76,9.07-10.76s9.07,4.22,9.07,10.76-3.49,10.7-9.07,10.7-9.07-4.11-9.07-10.7m7.83,14.54c4.28,0,8.11-2.08,10.14-5.58h.17v4.85c0,.28.17.45.45.45h3.61c.23,0,.39-.17.39-.45v-39.66c0-.28-.17-.45-.39-.45h-3.83c-.23,0-.39.17-.39.45v16.96h-.23c-2.03-3.61-5.75-5.69-9.92-5.69-7.6,0-12.56,5.75-12.56,14.59s4.96,14.54,12.56,14.54m-42.25-.28h24.9c.28,0,.45-.17.45-.45v-3.27c0-.23-.17-.39-.45-.39h-20.51v-13.69h18.82c.28,0,.45-.17.45-.45v-3.27c0-.23-.17-.39-.45-.39h-18.82v-13.41h19.94c.28,0,.45-.17.45-.45v-3.21c0-.28-.17-.45-.45-.45h-24.34c-.23,0-.39.17-.39.45v38.53c0,.28.17.45.39.45"/><path class="cls-2" d="m567.1,72.85h-3.24c-.35,0-.64.29-.64.64v2.83l-3.07-3.07c-.29-.29-.58-.4-1.04-.4h-9.89c-.4,0-.75.12-1.04.4l-6.31,6.31c-.29.29-.4.58-.4,1.04v13.25c0,.46.12.75.4,1.04l6.31,6.31c.29.29.64.4,1.04.4h8.56c.4,0,.69-.06,1.04-.4l2.78-2.83c.58-.58.29-1.27-.46-1.27h-13.02c-1.33,0-2.14-.81-2.14-2.14v-15.39c0-1.33.81-2.2,2.14-2.2h12.96c1.39,0,2.14.58,2.14,2.08v27.07c0,1.33-.81,2.14-2.14,2.14h-12.96c-1.33,0-2.14-.81-2.14-2.14v-2.89c0-.4-.29-.64-.64-.64h-3.24c-.35,0-.64.23-.64.64v1.79c0,.4.12.69.46,1.04l6.31,6.31c.29.29.58.4,1.04.4h10.7c.4,0,.69-.12.98-.4l6.31-6.31c.35-.35.46-.64.46-1.04v-31.93c0-.35-.23-.64-.64-.64m-36.04,28.75h3.24c.35,0,.64-.23.64-.64v-20.36c0-.4-.12-.75-.46-1.04l-6.25-6.31c-.35-.29-.64-.4-1.04-.4h-7.75c-.4,0-.69.12-1.04.4l-2.78,2.83c-.58.58-.29,1.27.46,1.27h12.15c1.33,0,2.2.87,2.2,2.2v21.4c0,.4.23.64.64.64m-20.94,0h3.24c.35,0,.58-.23.58-.64v-27.48c0-.35-.23-.64-.58-.64h-3.24c-.4,0-.64.29-.64.64v27.48c0,.4.23.64.64.64m-22.45,0h6.13c.35,0,.64-.23.64-.64v-3.24c0-.35-.29-.64-.64-.64h-6.13c-.4,0-.64.29-.64.64v3.24c0,.4.23.64.64.64m13.19,0h2.2c.35,0,.64-.23.64-.64v-3.24c0-.35-.29-.64-.64-.64h-3.3c-1.33,0-2.14-.81-2.14-2.14v-14.35c0-.4-.12-.69-.46-1.04l-6.31-6.31c-.29-.29-.58-.4-1.04-.4h-2.14c-.4,0-.64.29-.64.64v3.24c0,.35.23.64.64.64h3.24c1.33,0,2.2.87,2.2,2.2v14.29c0,.4.12.69.46,1.04l6.31,6.31c.29.29.52.4.98.4m-7.52-38.76c-.4,0-.69.29-.69.69v3.88c0,.4.29.69.69.69h3.82c.4,0,.64-.29.64-.69v-3.88c0-.4-.23-.69-.64-.69h-3.82Zm-23.78,14.52h10.47c.4,0,.64-.29.64-.64v-3.24c0-.35-.23-.64-.64-.64h-7.12c-.4,0-.69.12-.98.4l-2.83,2.83c-.58.58-.29,1.27.46,1.27m11.69,15.85l-2.2-2.14c-.23-.29-.64-.29-.93,0l-6.02,6.02h-2.49c-1.33,0-2.14-.81-2.14-2.14v-28.92c0-.35-.29-.64-.64-.64h-3.24c-.35,0-.64.29-.64.64v6.83h-3.82c-.35,0-.64.29-.64.64v3.24c0,.35.29.64.64.64h3.82v16.49c0,.4.12.69.46,1.04l6.31,6.31c.29.29.58.4,1.04.4h2.43c.46,0,.75-.12,1.1-.46l6.94-7c.29-.29.29-.64,0-.93m-32.28,8.39h3.24c.35,0,.58-.23.58-.64v-27.48c0-.35-.23-.64-.58-.64h-3.24c-.4,0-.64.29-.64.64v27.48c0,.4.23.64.64.64m-13.31,0h7.12c.46,0,.75-.06,1.04-.4l2.83-2.83c.58-.58.29-1.27-.46-1.27h-11.63c-1.33,0-2.2-.81-2.2-2.14v-21.46c0-.35-.23-.64-.58-.64h-3.24c-.4,0-.64.29-.64.64v20.36c0,.4.12.75.4,1.04l6.31,6.31c.29.29.58.4,1.04.4m-15.91-22.04l-6.31-6.31c-.29-.29-.64-.4-1.04-.4h-8.56c-.4,0-.69.12-1.04.4l-2.83,2.83c-.58.58-.23,1.27.52,1.27h12.96c1.39,0,2.2.87,2.2,2.2v15.39c0,1.33-.81,2.14-2.2,2.14h-12.9c-1.39,0-2.2-.58-2.2-2.08v-21.52c0-.35-.23-.64-.58-.64h-3.24c-.4,0-.64.29-.64.64v39.05c0,.4.23.64.64.64h3.24c.35,0,.58-.23.58-.64v-14.46l3.12,3.12c.29.29.58.4,1.04.4h9.89c.4,0,.75-.12,1.04-.4l6.31-6.31c.29-.29.4-.58.4-1.04v-13.25c0-.46-.12-.75-.4-1.04m-37.54,22.04h3.18c.4,0,.64-.23.64-.64v-20.36c0-.4-.12-.75-.4-1.04l-6.31-6.31c-.29-.29-.58-.4-.98-.4h-8.04c-.4,0-.69.12-.98.4l-2.83,2.83c-.58.58-.29,1.27.46,1.27h12.44c1.33,0,2.2.87,2.2,2.2v21.4c0,.4.23.64.64.64m-18.8,0h3.24c.35,0,.64-.23.64-.64v-20.36c0-.4-.12-.75-.4-1.04l-6.31-6.31c-.29-.29-.64-.4-1.04-.4h-5.5c-.4,0-.69.12-1.04.4l-2.83,2.83c-.58.58-.23,1.27.52,1.27h9.89c1.39,0,2.2.87,2.2,2.2v21.4c0,.4.29.64.64.64m-18.74,0h3.24c.35,0,.58-.23.58-.64v-27.48c0-.35-.23-.64-.58-.64h-3.24c-.4,0-.64.29-.64.64v27.48c0,.4.23.64.64.64m-27.02-4.51c-1.33,0-2.14-.81-2.14-2.14v-15.39c0-1.33.81-2.2,2.14-2.2h12.96c1.33,0,2.14.87,2.14,2.2v12.38l-5.03,5.15h-10.07Zm1.1,4.51h9.95c.46,0,.81-.12,1.1-.46l7-6.94c.29-.35.46-.64.46-1.1v-12.5c0-.46-.12-.75-.4-1.04l-6.31-6.31c-.29-.29-.64-.4-1.04-.4h-10.76c-.4,0-.75.12-1.04.4l-6.31,6.31c-.29.29-.4.64-.4,1.04v13.25c0,.4.12.75.4,1.04l6.31,6.31c.29.29.64.4,1.04.4m-39.62,0h15.27c.46,0,.75-.12,1.04-.4l9.02-9.02c.23-.23.23-.58,0-.87l-2.26-2.26c-.35-.29-.64-.23-.93.06l-7.98,7.98h-15.21c-1.39,0-2.2-.81-2.2-2.14v-21.69l7.64-7.64h14.11c1.33,0,2.2.81,2.2,2.14v5.96c0,.4.29.64.64.64h3.24c.35,0,.64-.23.64-.64l-.06-4.86c0-.4-.12-.75-.4-1.04l-6.31-6.31c-.29-.29-.64-.4-1.04-.4h-14.11c-.46,0-.75.12-1.04.4l-9.54,9.54c-.29.29-.46.58-.46,1.04v21.75c0,.4.12.75.4,1.04l6.31,6.31c.29.29.64.4,1.04.4"/><path class="cls-4" d="m567.1,72.85h-3.24c-.35,0-.64.29-.64.64v2.83l-3.07-3.07c-.29-.29-.58-.4-1.04-.4h-9.89c-.4,0-.75.12-1.04.4l-6.31,6.31c-.29.29-.4.58-.4,1.04v13.25c0,.46.12.75.4,1.04l6.31,6.31c.29.29.64.4,1.04.4h8.56c.4,0,.69-.06,1.04-.4l2.78-2.83c.58-.58.29-1.27-.46-1.27h-13.02c-1.33,0-2.14-.81-2.14-2.14v-15.39c0-1.33.81-2.2,2.14-2.2h12.96c1.39,0,2.14.58,2.14,2.08v27.07c0,1.33-.81,2.14-2.14,2.14h-12.96c-1.33,0-2.14-.81-2.14-2.14v-2.89c0-.4-.29-.64-.64-.64h-3.24c-.35,0-.64.23-.64.64v1.79c0,.4.12.69.46,1.04l6.31,6.31c.29.29.58.4,1.04.4h10.7c.4,0,.69-.12.98-.4l6.31-6.31c.35-.35.46-.64.46-1.04v-31.93c0-.35-.23-.64-.64-.64Zm-36.04,28.75h3.24c.35,0,.64-.23.64-.64v-20.36c0-.4-.12-.75-.46-1.04l-6.25-6.31c-.35-.29-.64-.4-1.04-.4h-7.75c-.4,0-.69.12-1.04.4l-2.78,2.83c-.58.58-.29,1.27.46,1.27h12.15c1.33,0,2.2.87,2.2,2.2v21.4c0,.4.23.64.64.64Zm-20.94,0h3.24c.35,0,.58-.23.58-.64v-27.48c0-.35-.23-.64-.58-.64h-3.24c-.4,0-.64.29-.64.64v27.48c0,.4.23.64.64.64Zm-22.45,0h6.13c.35,0,.64-.23.64-.64v-3.24c0-.35-.29-.64-.64-.64h-6.13c-.4,0-.64.29-.64.64v3.24c0,.4.23.64.64.64Zm13.19,0h2.2c.35,0,.64-.23.64-.64v-3.24c0-.35-.29-.64-.64-.64h-3.3c-1.33,0-2.14-.81-2.14-2.14v-14.35c0-.4-.12-.69-.46-1.04l-6.31-6.31c-.29-.29-.58-.4-1.04-.4h-2.14c-.4,0-.64.29-.64.64v3.24c0,.35.23.64.64.64h3.24c1.33,0,2.2.87,2.2,2.2v14.29c0,.4.12.69.46,1.04l6.31,6.31c.29.29.52.4.98.4Zm-7.52-38.76c-.4,0-.69.29-.69.69v3.88c0,.4.29.69.69.69h3.82c.4,0,.64-.29.64-.69v-3.88c0-.4-.23-.69-.64-.69h-3.82Zm-23.78,14.52h10.47c.4,0,.64-.29.64-.64v-3.24c0-.35-.23-.64-.64-.64h-7.12c-.4,0-.69.12-.98.4l-2.83,2.83c-.58.58-.29,1.27.46,1.27Zm11.69,15.85l-2.2-2.14c-.23-.29-.64-.29-.93,0l-6.02,6.02h-2.49c-1.33,0-2.14-.81-2.14-2.14v-28.92c0-.35-.29-.64-.64-.64h-3.24c-.35,0-.64.29-.64.64v6.83h-3.82c-.35,0-.64.29-.64.64v3.24c0,.35.29.64.64.64h3.82v16.49c0,.4.12.69.46,1.04l6.31,6.31c.29.29.58.4,1.04.4h2.43c.46,0,.75-.12,1.1-.46l6.94-7c.29-.29.29-.64,0-.93Zm-32.28,8.39h3.24c.35,0,.58-.23.58-.64v-27.48c0-.35-.23-.64-.58-.64h-3.24c-.4,0-.64.29-.64.64v27.48c0,.4.23.64.64.64Zm-13.31,0h7.12c.46,0,.75-.06,1.04-.4l2.83-2.83c.58-.58.29-1.27-.46-1.27h-11.63c-1.33,0-2.2-.81-2.2-2.14v-21.46c0-.35-.23-.64-.58-.64h-3.24c-.4,0-.64.29-.64.64v20.36c0,.4.12.75.4,1.04l6.31,6.31c.29.29.58.4,1.04.4Zm-15.91-22.04l-6.31-6.31c-.29-.29-.64-.4-1.04-.4h-8.56c-.4,0-.69.12-1.04.4l-2.83,2.83c-.58.58-.23,1.27.52,1.27h12.96c1.39,0,2.2.87,2.2,2.2v15.39c0,1.33-.81,2.14-2.2,2.14h-12.9c-1.39,0-2.2-.58-2.2-2.08v-21.52c0-.35-.23-.64-.58-.64h-3.24c-.4,0-.64.29-.64.64v39.05c0,.4.23.64.64.64h3.24c.35,0,.58-.23.58-.64v-14.46l3.12,3.12c.29.29.58.4,1.04.4h9.89c.4,0,.75-.12,1.04-.4l6.31-6.31c.29-.29.4-.58.4-1.04v-13.25c0-.46-.12-.75-.4-1.04Zm-37.54,22.04h3.18c.4,0,.64-.23.64-.64v-20.36c0-.4-.12-.75-.4-1.04l-6.31-6.31c-.29-.29-.58-.4-.98-.4h-8.04c-.4,0-.69.12-.98.4l-2.83,2.83c-.58.58-.29,1.27.46,1.27h12.44c1.33,0,2.2.87,2.2,2.2v21.4c0,.4.23.64.64.64Zm-18.8,0h3.24c.35,0,.64-.23.64-.64v-20.36c0-.4-.12-.75-.4-1.04l-6.31-6.31c-.29-.29-.64-.4-1.04-.4h-5.5c-.4,0-.69.12-1.04.4l-2.83,2.83c-.58.58-.23,1.27.52,1.27h9.89c1.39,0,2.2.87,2.2,2.2v21.4c0,.4.29.64.64.64Zm-18.74,0h3.24c.35,0,.58-.23.58-.64v-27.48c0-.35-.23-.64-.58-.64h-3.24c-.4,0-.64.29-.64.64v27.48c0,.4.23.64.64.64Zm-27.02-4.51c-1.33,0-2.14-.81-2.14-2.14v-15.39c0-1.33.81-2.2,2.14-2.2h12.96c1.33,0,2.14.87,2.14,2.2v12.38l-5.03,5.15h-10.07Zm1.1,4.51h9.95c.46,0,.81-.12,1.1-.46l7-6.94c.29-.35.46-.64.46-1.1v-12.5c0-.46-.12-.75-.4-1.04l-6.31-6.31c-.29-.29-.64-.4-1.04-.4h-10.76c-.4,0-.75.12-1.04.4l-6.31,6.31c-.29.29-.4.64-.4,1.04v13.25c0,.4.12.75.4,1.04l6.31,6.31c.29.29.64.4,1.04.4Zm-39.62,0h15.27c.46,0,.75-.12,1.04-.4l9.02-9.02c.23-.23.23-.58,0-.87l-2.26-2.26c-.35-.29-.64-.23-.93.06l-7.98,7.98h-15.21c-1.39,0-2.2-.81-2.2-2.14v-21.69l7.64-7.64h14.11c1.33,0,2.2.81,2.2,2.14v5.96c0,.4.29.64.64.64h3.24c.35,0,.64-.23.64-.64l-.06-4.86c0-.4-.12-.75-.4-1.04l-6.31-6.31c-.29-.29-.64-.4-1.04-.4h-14.11c-.46,0-.75.12-1.04.4l-9.54,9.54c-.29.29-.46.58-.46,1.04v21.75c0,.4.12.75.4,1.04l6.31,6.31c.29.29.64.4,1.04.4Z"/></g></g><g><path class="cls-2" d="m0,1.56v107.46l53.73,53.73h107.46v-53.73H53.73V1.56H0Zm107.46,0h-53.73l53.73,53.73h53.73V1.56h-53.73Z"/><path class="cls-2" d="m.38,1.45v107.04l53.52,53.52h107.04v-53.52H53.9V1.45H.38Zm107.04,0h-53.52l53.52,53.52h53.52V1.45h-53.52Z"/><path class="cls-3" d="m37.28,145.4l2.26,2.26,14.36-14.36v-.51h24.28l-1.18-1.18h-23.1v-2.81l-16.62,16.62ZM.51,108.49l-.06.06,1.69,1.69,1.75-1.75H.51Zm7.37,0l-3.75,3.75,1.74,1.74,5.49-5.49h-3.49Zm7.37,0l-7.43,7.43,1.8,1.8,9.23-9.23h-3.6Zm7.37,0l-11.12,11.12,1.86,1.86,12.97-12.97h-3.71Zm7.37,0l-14.8,14.8,1.91,1.91,16.71-16.71h-3.83Zm7.37,0l-18.48,18.48,1.97,1.97,20.45-20.45h-3.94Zm7.37,0l-22.17,22.17,2.03,2.03,24.19-24.2h-4.05Zm62.71,0h-55.34l-25.85,25.85,2.08,2.08,25.59-25.59v-2.35l1.1,1.1h52.42s0,0,0,0h1.1l.9.9h-2v-.74h-52.26l2.05,2.05h-3.31v1.48h4.79l1.11,1.11h47.62s5.9,0,5.9,0l.98.98h-6.87v-.74h-47.38l2.12,2.12h-8.26v-2.7l-23.98,23.98,2.14,2.14,21.84-21.85v-.17h9.66l1.04,1.04h42.82s10.7,0,10.7,0l1.05,1.05h-11.75v-.74h-42.51l2.19,2.19h-13.21v-.28l-20.3,20.3,2.2,2.2,18.1-18.1v-2.78h14.54l.97.97h38.02s15.5,0,15.5,0l1.13,1.12h-16.63v-.74h-37.63l2.26,2.27h-18.15v1.26h19.41l.9.9h33.22s20.3,0,20.3,0l1.2,1.2h-21.5v-.74h-32.76l4.34,4.34h28.42s25.1,0,25.1,0l1.27,1.27h-26.38v-.74h-27.88l2.41,2.41h-28.05v-.39l-12.93,12.93,2.31,2.31,10.62-10.62v-3.12h29.16l.75.75h23.61s29.9,0,29.9,0l1.35,1.35h-31.25v-.74h-23.01l2.48,2.48h-33v1.03h34.03l.68.68h18.81s34.71,0,34.71,0l1.42,1.42h-36.13v-.74h-18.13s2.56,2.56,2.56,2.56h-37.95v-2.92l-9.25,9.25,2.37,2.37,6.88-6.88v-.86h38.9l.61.61h14.01s39.51,0,39.51,0l1.49,1.49h-41v-.74h-13.26l2.63,2.63h-42.9v-.5l-5.56,5.56,2.42,2.42,3.14-3.14v-3.47h43.78l.54.54h9.21s44.31,0,44.31,0l1.57,1.57h-45.88v-.74h-8.38l2.7,2.7h-47.84v.8h48.65l.47.47h4.41s49.11,0,49.11,0l1.64,1.64h-50.75v-.74h-3.51l2.77,2.77h-52.79v-3.03l-1.88,1.88,1.88,1.88h107.04v-53.52h-53.52ZM.38,91.01v1.61h37.64l-1.61-1.61H.38Zm0-19.5v1.9h18.44l-1.9-1.9H.38Zm0-4.88v1.97h13.64l-1.98-1.97H.38Zm0-4.88v2.05h8.84l-2.05-2.05H.38Zm0-4.87v2.12h4.03l-2.12-2.12H.38Zm51.82-3.61l1.7,1.7v-1.7h-1.7Zm106.72-.32l2.02,2.02v-4.05l-2.02,2.02Zm-3.68-3.69l2.54,2.54,3.17-3.17v-5.07l-5.71,5.71Zm-107.78-.73l.07.07-6.37,6.37h-.14l6.44-6.44Zm-7.48-7.48l.18.18-13.74,13.74h-.36l13.92-13.92ZM.38,51.54v3.43l21.41,21.41H.38v1.83h23.24l3.94,3.94-.89-.89H.38v1.75h28.04l3.12,3.12H.38v1.68h32.84l8.07,8.07H.38v1.53h42.45l3.34,3.34H.38v1.46h47.25l3.42,3.42H.38v1.38h52.05l1.47,1.47v-53.52l-2.69-2.69-2.69,2.69h-.02l2.7-2.7-.42-.42h3.12v-3.45h-6.58l-3.48-3.48-10.06,10.06h-.25l10.18-10.18.12.12,2.13,2.13h7.92v-3.53h-11.45l-1.27-1.27h12.72v-3.6h-16.33l-1.1-1.1-17.42,17.42h-.48l17.66-17.66.14.14h17.52v-3.68h-21.2l.09.09-21.11,21.11h-.59l21.4-21.4-3.39-3.39L4.31,54.97h-.7l25.14-25.14.35.35,2.47,2.47h22.33v-3.75h-26.08l-1.05-1.05-1.35-1.35L.38,51.54Zm0-14.74v6.44l20.9-20.9.47.47L.38,44.17v6.55l24.64-24.64.41.41,1.35,1.35h27.13v-3.82h-30.95l-.98-.98h31.93v-3.9H18.07l-.02-.02L.38,36.81ZM13.2,14.27l.6.6.58.58L.38,29.44v6.32l17.15-17.15-.36-.36h36.73v-3.97H13.2Zm127.3,20.26l2.31,2.31,18.13-18.13v-4.62l-20.44,20.44ZM8.32,9.39l1.73,1.73.64.64L.38,22.07v6.21l13.41-13.41-1.42-1.42h41.53v-4.05H8.32ZM.38,14.7v6.1l9.67-9.67-3.05-3.05L.38,14.7ZM3.44,4.52l2.87,2.87,1.26,1.25h46.33v-4.12H3.44ZM.38,7.33v5.98l5.93-5.93-2.87-2.87-.12-.13L.38,7.33Zm0-1.5l2.19-2.19L.38,1.45v4.38ZM114.63,1.45l-3.6,3.6,1.86,1.86,5.46-5.46h-3.71Zm29.47,0l-18.34,18.34-1.66-1.66L140.79,1.45h-4.05l-14.66,14.66-1.71-1.71,12.94-12.94h-3.94l-10.97,10.97-1.77-1.77,9.2-9.2h-3.83l-7.29,7.29-1.83-1.83-3.74-3.74,1.72-1.72h-5.77l2.33,2.33v2.52l-4.85-4.85h-4.85l9.7,9.7v2.63l-12.33-12.33h-4.74l17.07,17.07v2.75L87.61,1.45h-4.62l24.43,24.43v2.86L80.13,1.45h-4.51l31.8,31.8v2.98L72.64,1.45h-4.39l39.17,39.17v3.09L65.16,1.45h-4.28l46.54,46.54v3.2L57.68,1.45H.38l2.39,2.38h51.13V1.45l53.52,53.52h53.52l-2.02-2.02-3.68-3.69-1.2-1.2,6.91-6.91v-4.96l-9.39,9.39-1.26-1.26,10.65-10.65v-4.85l-13.08,13.07-1.32-1.32,14.39-14.39v-4.73l-16.76,16.76-5.11-5.11,21.87-21.87v-4.51l-24.13,24.13,1.25,1.25-4.93-4.93-3.68-3.68-1.6-1.6L148.27,1.45h-4.17Zm7.37,0l-22.03,22.03,2.14,2.14L155.75,1.45h-4.28Zm7.37,0l-25.71,25.71,2.2,2.2,25.61-25.61V1.45h-2.1Z"/></g></g></g></svg>