<svg width="110" height="30" viewBox="0 0 110 30" fill="none" xmlns="http://www.w3.org/2000/svg">
<path d="M6.51609 0.0179306C6.33762 0.0179306 6.21864 0.0774184 5.98069 0.196395C5.50479 0.0179301 5.08837 -0.0415588 4.67195 0.315371C4.07707 0.255882 3.83911 0.374859 3.72014 0.612812C3.60116 0.612812 2.70884 0.493837 2.29242 1.08872C1.28112 0.969743 0.983679 1.6836 1.34061 2.33797C1.16214 2.63541 0.924191 2.99234 1.4001 3.58722C1.22163 3.94415 1.34061 4.30108 1.75703 4.7175C1.63805 5.19341 1.876 5.49085 2.23293 5.78829C2.17344 6.44266 2.82782 6.79959 3.00628 6.91857C3.06577 7.2755 3.24423 7.63242 4.01758 7.81089C4.13656 8.34628 4.61246 8.46526 5.02888 8.58424C3.54167 9.41707 2.29242 10.5473 2.29242 13.2243L2.05447 13.5812C0.388797 14.5925 -1.1579 17.8049 1.22163 20.4819C1.4001 21.3147 1.63805 21.9096 1.876 22.564C2.23293 25.1815 4.49349 26.4307 5.08837 26.6092C5.98069 27.2635 6.87301 27.8584 8.12227 28.3343C9.31203 29.5241 10.5613 30 11.87 30H11.9295C13.2383 30 14.4875 29.5241 15.6773 28.3343C16.9265 27.9179 17.8783 27.2635 18.7112 26.6092C19.3061 26.4902 21.5666 25.2409 21.9235 22.564C22.1615 21.9096 22.3994 21.3147 22.5779 20.4819C24.9574 17.8644 23.4107 14.5925 21.7451 13.5812L21.5071 13.2243C21.5071 10.4879 20.2579 9.41707 18.7707 8.58424C19.1871 8.46526 19.663 8.34628 19.782 7.81089C20.5553 7.63242 20.6743 7.2755 20.7933 6.91857C20.9717 6.79959 21.6856 6.38317 21.5666 5.78829C21.9235 5.55034 22.1615 5.19341 22.0425 4.7175C22.4589 4.30108 22.5779 3.94415 22.3994 3.58722C22.8754 2.99234 22.6969 2.6949 22.4589 2.33797C22.8159 1.6836 22.5184 0.969743 21.5071 1.08872C21.0907 0.493837 20.2579 0.612812 20.0794 0.612812C19.9009 0.434347 19.7225 0.255882 19.1276 0.315371C18.7112 -0.0415588 18.2948 0.0179301 17.8189 0.196395C17.2835 -0.220023 16.9265 0.136907 16.5101 0.255883C15.8557 0.0179304 15.6773 0.315371 15.3798 0.434348C14.666 0.255883 14.428 0.612813 14.0711 0.969742H13.6547C12.5839 1.62411 12.0485 2.87337 11.8105 3.52774C11.6321 2.87337 11.0967 1.56462 9.9664 0.969742H9.54999C9.19306 0.612813 9.01459 0.315371 8.24124 0.434348C7.9438 0.315371 7.76534 0.0179304 7.11097 0.255883C7.05148 0.136907 6.81353 -0.0415576 6.51609 0.0179306V0.0179306Z" fill="black"/>
<path d="M4.37424 2.75445C7.22967 4.24166 8.95483 5.43142 9.84716 6.38323C9.37125 8.22737 6.93223 8.34634 6.03991 8.28686C6.21837 8.22737 6.39684 8.10839 6.45633 7.92993C6.21837 7.75146 5.44503 7.92993 4.85014 7.63249C5.0881 7.573 5.14759 7.573 5.26656 7.39453C4.73117 7.21607 4.19578 7.09709 3.83885 6.79965C4.01731 6.79965 4.19578 6.85914 4.43373 6.68067C3.95782 6.44272 3.48192 6.20477 3.0655 5.84784C3.30345 5.84784 3.60089 5.84784 3.66038 5.72886C3.24396 5.49091 2.88703 5.19347 2.58959 4.83654C2.94652 4.89603 3.0655 4.83654 3.18448 4.77705C2.88703 4.42012 2.47062 4.18217 2.23266 3.76575C2.47062 3.82524 2.70857 3.88473 2.88703 3.76575C2.76806 3.5278 2.29215 3.34933 2.0542 2.81394C2.29215 2.81394 2.58959 2.87343 2.64908 2.81394C2.5301 2.33803 2.29215 2.04059 2.11369 1.74315C2.70857 1.74315 3.5414 1.74315 3.48192 1.68366L3.12499 1.32673C3.66038 1.20776 4.25526 1.32673 4.67168 1.5052C4.85015 1.38622 4.67168 1.20776 4.43373 0.969804C4.90963 1.02929 5.32605 1.14827 5.74247 1.26725C5.92093 1.08878 5.62349 0.910315 5.44503 0.731851C6.15889 0.850827 6.51582 1.08878 6.81326 1.26725C7.05121 1.02929 6.81326 0.850828 6.69428 0.672363C7.22967 0.850828 7.52711 1.14827 7.82456 1.38622C7.94353 1.26725 8.06251 1.14827 7.88404 0.850828C8.30046 1.08878 8.5979 1.32673 8.77637 1.62417C9.01432 1.44571 8.89534 1.26725 8.89534 1.08878C9.31176 1.38622 9.54971 1.74315 9.90664 2.10008C9.96613 2.04059 10.0256 1.92162 10.0851 1.68366C11.0369 2.63548 12.4051 4.95552 10.442 5.84784C8.65739 4.5391 6.63479 3.5278 4.37424 2.75445V2.75445Z" fill="#6CC64A"/>
<path d="M19.6629 2.75445C16.8074 4.24166 15.0823 5.43142 14.19 6.38323C14.6659 8.22737 17.1049 8.34634 17.9972 8.28686C17.8187 8.22737 17.6403 8.10839 17.5808 7.92993C17.8187 7.75146 18.5921 7.92993 19.187 7.63249C18.949 7.573 18.8895 7.573 18.7706 7.39453C19.3059 7.21607 19.8413 7.09709 20.1983 6.79965C20.0198 6.79965 19.8413 6.85914 19.6034 6.68067C20.0793 6.44272 20.5552 6.20477 20.9716 5.84784C20.7337 5.84784 20.4362 5.84784 20.3767 5.72886C20.7932 5.49091 21.1501 5.19347 21.4475 4.83654C21.0906 4.89603 20.9716 4.83654 20.8526 4.77705C21.1501 4.42012 21.5665 4.18217 21.8044 3.76575C21.5665 3.82524 21.3285 3.88473 21.1501 3.76575C21.2691 3.5278 21.745 3.34933 21.9829 2.81394C21.745 2.81394 21.4475 2.87343 21.388 2.81394C21.507 2.33803 21.745 2.04059 21.9234 1.74315C21.3285 1.74315 20.4957 1.74315 20.5552 1.68366L20.9121 1.32673C20.3767 1.20776 19.7819 1.32673 19.3654 1.5052C19.187 1.38622 19.3654 1.14827 19.6034 0.969804C19.1275 1.02929 18.7111 1.14827 18.2946 1.26725C18.1162 1.08878 18.4136 0.910315 18.5921 0.731851C17.8782 0.850827 17.5213 1.08878 17.2239 1.26725C16.9859 1.02929 17.2239 0.850828 17.3428 0.672363C16.8074 0.850828 16.51 1.14827 16.2126 1.38622C16.0936 1.26725 15.9746 1.14827 16.1531 0.850828C15.7367 1.08878 15.4392 1.32673 15.2607 1.62417C15.0228 1.44571 15.1418 1.26725 15.1418 1.08878C14.7848 1.44571 14.5469 1.80264 14.19 2.15957C14.1305 2.10008 14.071 1.9811 14.0115 1.74315C13.0597 2.69496 11.6915 5.015 13.6546 5.90733C15.3797 4.5391 17.4023 3.5278 19.6629 2.75445V2.75445Z" fill="#6CC64A"/>
<path d="M15.4983 21.6717C15.4983 23.3969 13.9516 24.8246 12.048 24.8246C10.1444 24.8246 8.59766 23.4564 8.59766 21.7312C8.59766 21.7312 8.59766 21.7312 8.59766 21.6717C8.59766 19.9465 10.1444 18.5188 12.048 18.5188C13.9516 18.5188 15.4983 19.8871 15.4983 21.6717Z" fill="#C51A4A"/>
<path d="M10.0859 12.6891C11.5136 13.6409 11.7516 15.723 10.6808 17.3886C9.5505 19.0543 7.5279 19.6492 6.10018 18.6974C4.67246 17.7456 4.43451 15.6635 5.5053 13.9978C6.63558 12.3916 8.65818 11.7967 10.0859 12.6891Z" fill="#C51A4A"/>
<path d="M13.9522 12.57C12.5245 13.5218 12.2866 15.6039 13.3574 17.2696C14.4876 18.9352 16.5102 19.5301 17.9379 18.5783C19.3657 17.6265 19.6036 15.5444 18.5328 13.8787C17.462 12.2131 15.38 11.6182 13.9522 12.57Z" fill="#C51A4A"/>
<path d="M3.06558 14.2356C4.61227 13.8192 3.60097 20.5414 2.35172 20.006C0.924003 18.8757 0.507585 15.6634 3.06558 14.2356Z" fill="#C51A4A"/>
<path d="M20.9116 14.1167C19.3649 13.7003 20.3762 20.4224 21.6254 19.887C22.9937 18.8162 23.4696 15.6039 20.9116 14.1167Z" fill="#C51A4A"/>
<path d="M15.7367 9.11966C18.4136 8.70325 20.6147 10.2499 20.5552 13.1054C20.4362 14.1762 14.7254 9.29813 15.7367 9.11966Z" fill="#C51A4A"/>
<path d="M8.36025 9.06024C5.68328 8.64383 3.48222 10.1905 3.54171 13.046C3.66068 14.1167 9.31206 9.23871 8.36025 9.06024" fill="#C51A4A"/>
<path d="M12.048 8.40586C10.4418 8.34637 8.95459 9.59562 8.95459 10.25C8.95459 11.0828 10.2038 11.9752 12.1075 11.9752C14.0111 11.9752 15.2603 11.2613 15.2603 10.4285C15.2009 9.41716 13.4162 8.40586 12.048 8.40586V8.40586Z" fill="#C51A4A"/>
<path d="M12.1673 25.7764C13.5356 25.7169 15.4392 26.1929 15.4392 26.9067C15.4392 27.5611 13.7735 28.9888 12.1079 28.9888C10.3827 29.0483 8.71703 27.6206 8.71703 27.0852C8.65755 26.3118 10.7991 25.7764 12.1673 25.7764Z" fill="#C51A4A"/>
<path d="M6.99152 21.8502C8.00282 23.04 8.41924 25.0626 7.5864 25.6575C6.81305 26.1334 4.90943 25.9549 3.5412 24.0513C2.64888 22.4451 2.76785 20.8389 3.36274 20.363C4.43352 19.7682 5.86124 20.5415 6.99152 21.8502Z" fill="#C51A4A"/>
<path d="M16.9859 21.4933C15.9151 22.7425 15.3203 25.0031 16.0936 25.7169C16.867 26.2523 18.8301 26.1928 20.3173 24.1702C21.3881 22.802 21.0311 20.5415 20.4362 19.9466C19.4844 19.2327 18.1757 20.125 16.9859 21.4933V21.4933Z" fill="#C51A4A"/>
<path d="M31.5607 17.567V21.6122H29.5381V11.4992H33.3453C34.4756 11.4992 35.4274 11.7371 36.0818 12.2725C36.7362 12.8079 37.0336 13.5218 37.0336 14.4736C37.0336 15.009 36.9146 15.4254 36.6172 15.8418C36.3197 16.1987 35.9628 16.4962 35.4274 16.7341C36.0223 16.9126 36.4387 17.21 36.7362 17.6265C36.9741 18.0429 37.1526 18.5783 37.1526 19.1732V19.9465C37.1526 20.2439 37.2121 20.5414 37.2716 20.8388C37.331 21.1363 37.45 21.3742 37.688 21.5527V21.6717H35.6059C35.4274 21.5527 35.3084 21.2552 35.249 20.8983C35.1895 20.5414 35.1895 20.2439 35.1895 19.887V19.1732C35.1895 18.6378 35.0705 18.2808 34.773 17.9834C34.4756 17.686 34.1187 17.567 33.5833 17.567H31.5607ZM31.5607 16.0203H33.2858C33.8807 16.0203 34.2971 15.9013 34.5351 15.6634C34.8325 15.4254 34.9515 15.0685 34.9515 14.5926C34.9515 14.1167 34.8325 13.7597 34.5351 13.4623C34.2377 13.1648 33.8212 13.0459 33.2858 13.0459H31.5012V16.0203H31.5607Z" fill="black"/>
<path d="M43.2198 21.6122C43.1603 21.4338 43.1009 21.2553 43.0414 21.0768C42.9819 20.8984 42.9224 20.7199 42.9224 20.4819C42.6844 20.8389 42.4465 21.1363 42.0896 21.3743C41.7326 21.6122 41.3162 21.7312 40.8403 21.7312C40.067 21.7312 39.4721 21.5527 38.9962 21.1363C38.5797 20.7199 38.3418 20.1845 38.3418 19.4706C38.3418 18.7568 38.6392 18.1619 39.1746 17.7455C39.7695 17.3291 40.5429 17.1506 41.6731 17.1506H42.8034V16.5557C42.8034 16.1988 42.6844 15.9014 42.506 15.7229C42.3275 15.5444 42.0301 15.4254 41.6731 15.4254C41.3162 15.4254 41.0783 15.4849 40.8998 15.6634C40.7213 15.8419 40.6024 16.0203 40.6024 16.3178H38.6392V16.2583C38.5797 15.6039 38.8772 15.0685 39.4721 14.5926C40.067 14.1167 40.8403 13.8788 41.7921 13.8788C42.6844 13.8788 43.3983 14.1167 43.9932 14.5926C44.5286 15.0685 44.826 15.7229 44.826 16.5557V19.6491C44.826 20.006 44.826 20.363 44.8855 20.6604C44.945 20.9579 45.0045 21.2553 45.1235 21.6122H43.2198ZM41.3162 20.3035C41.6731 20.3035 41.9706 20.244 42.268 20.0655C42.5655 19.8871 42.7439 19.7086 42.8034 19.4706V18.3999H41.6731C41.2567 18.3999 40.8998 18.5188 40.7213 18.6973C40.4834 18.9353 40.3644 19.1732 40.3644 19.4706C40.3644 19.7086 40.4239 19.9466 40.6024 20.0655C40.8403 20.1845 41.0188 20.3035 41.3162 20.3035" fill="black"/>
<path d="M50.4779 19.5895C50.4779 19.3516 50.3589 19.1731 50.1805 18.9947C49.9425 18.8162 49.5856 18.6972 48.9907 18.5782C48.0984 18.3998 47.444 18.1023 46.9681 17.7454C46.4922 17.3885 46.3137 16.9126 46.3137 16.3177C46.3137 15.6633 46.6112 15.1279 47.1466 14.652C47.682 14.1761 48.3958 13.9977 49.3476 13.9977C50.2994 13.9977 51.0728 14.2356 51.6677 14.652C52.2625 15.1279 52.5005 15.6633 52.5005 16.3772V16.4367H50.5374C50.5374 16.1392 50.4184 15.9013 50.2399 15.7228C50.0615 15.5443 49.764 15.4254 49.4071 15.4254C49.0502 15.4254 48.8122 15.4849 48.6338 15.6633C48.4553 15.8418 48.3363 16.0203 48.3363 16.2582C48.3363 16.4962 48.4553 16.6746 48.6338 16.8531C48.8122 16.9721 49.2286 17.1505 49.8235 17.2695C50.7753 17.448 51.4297 17.7454 51.9056 18.1023C52.3815 18.4593 52.56 18.9352 52.56 19.5895C52.56 20.2439 52.2625 20.8388 51.6677 21.2552C51.0728 21.6716 50.2994 21.9096 49.3476 21.9096C48.3363 21.9096 47.563 21.6716 46.9681 21.1362C46.3732 20.6008 46.1353 20.0654 46.1353 19.4111V19.3516H47.9794C47.9794 19.768 48.0984 20.0654 48.3958 20.2439C48.6338 20.4224 48.9907 20.5414 49.3476 20.5414C49.7045 20.5414 50.002 20.4819 50.1805 20.3034C50.4184 20.006 50.4779 19.8275 50.4779 19.5895" fill="black"/>
<path d="M60.5903 18.1023C60.5903 19.2326 60.3523 20.1249 59.8169 20.7793C59.2815 21.4337 58.5677 21.7906 57.6753 21.7906C57.2589 21.7906 56.902 21.7311 56.6045 21.5526C56.3071 21.4337 56.0097 21.1957 55.8312 20.8983V24.527H53.8086V14.1166H55.6527L55.7717 15.0089C56.0097 14.652 56.2476 14.414 56.6045 14.2356C56.902 14.0571 57.2589 13.9381 57.6753 13.9381C58.6271 13.9381 59.341 14.2951 59.8169 15.0089C60.3523 15.7228 60.5903 16.6746 60.5903 17.8644V18.1023ZM58.5082 17.9239C58.5082 17.21 58.3892 16.6151 58.1512 16.1987C57.9133 15.7823 57.5564 15.5443 57.0804 15.5443C56.783 15.5443 56.4856 15.6038 56.3071 15.7228C56.0691 15.8418 55.9502 16.0202 55.7717 16.2582V19.5895C55.8907 19.8275 56.0691 19.9465 56.3071 20.0654C56.5451 20.1844 56.783 20.2439 57.0804 20.2439C57.5564 20.2439 57.9133 20.0654 58.1512 19.649C58.3892 19.2921 58.5082 18.7567 58.5082 18.1023V17.9239Z" fill="black"/>
<path d="M68.6225 18.1023C68.6225 19.2326 68.3845 20.1249 67.8491 20.7793C67.3732 21.4337 66.5999 21.7906 65.7076 21.7906C65.2911 21.7906 64.8747 21.6716 64.5773 21.4932C64.2798 21.3147 63.9824 21.0173 63.7444 20.6603L63.566 21.6121H61.8408V10.7853H63.8634V14.89C64.1014 14.5925 64.3393 14.3546 64.6368 14.1761C64.9342 13.9976 65.2911 13.9382 65.7076 13.9382C66.6594 13.9382 67.3732 14.2951 67.9086 15.0089C68.3845 15.7228 68.682 16.6746 68.682 17.8644V18.1023H68.6225ZM66.5999 17.9239C66.5999 17.21 66.4809 16.6151 66.3024 16.1987C66.0645 15.7823 65.7076 15.5443 65.1722 15.5443C64.8747 15.5443 64.5773 15.6038 64.3988 15.7228C64.1609 15.8418 63.9824 16.0202 63.8634 16.3177V19.53C63.9824 19.768 64.1609 19.9465 64.3988 20.0654C64.6368 20.1844 64.8747 20.2439 65.2317 20.2439C65.767 20.2439 66.124 20.0654 66.3024 19.7085C66.5404 19.3516 66.5999 18.8162 66.5999 18.1023V17.9239Z" fill="black"/>
<path d="M73.2031 21.7906C72.1323 21.7906 71.24 21.4337 70.5856 20.7198C69.9312 20.0059 69.6338 19.1136 69.6338 18.0428V17.7454C69.6338 16.6151 69.9312 15.7228 70.5261 15.0089C71.121 14.2951 71.9538 13.9381 73.0246 13.9381C74.0359 13.9381 74.8093 14.2356 75.4041 14.8305C75.9395 15.4253 76.237 16.2582 76.237 17.329V18.4592H71.7159V18.5187C71.7754 18.9946 71.8943 19.4111 72.1918 19.768C72.4892 20.0654 72.9056 20.2439 73.3815 20.2439C73.8575 20.2439 74.2144 20.1844 74.5118 20.1249C74.8093 20.0059 75.1067 19.887 75.4636 19.7085L75.999 20.9578C75.7016 21.1957 75.2852 21.4337 74.8093 21.6121C74.3334 21.6716 73.798 21.7906 73.2031 21.7906V21.7906ZM73.0246 15.5443C72.6677 15.5443 72.3702 15.6633 72.1323 15.9607C71.8943 16.2582 71.7754 16.6151 71.7159 17.091V17.1505H74.2144V16.972C74.2144 16.5556 74.0954 16.1987 73.9169 15.9607C73.7385 15.6633 73.441 15.5443 73.0246 15.5443Z" fill="black"/>
<path d="M81.3524 15.8418H80.5791C80.2816 15.8418 80.0437 15.9013 79.8057 16.0203C79.6273 16.1392 79.4488 16.3177 79.3893 16.5556V21.6121H77.3667V14.1166H79.2703L79.3893 15.2469C79.5678 14.8305 79.8057 14.533 80.1032 14.3546C80.4006 14.1166 80.698 13.9977 81.055 13.9977H81.3524C81.4119 13.9977 81.5309 14.0571 81.5904 14.0571L81.3524 15.8418Z" fill="black"/>
<path d="M86.3495 15.8418H85.5761C85.2787 15.8418 85.0407 15.9013 84.8028 16.0203C84.6243 16.1392 84.4459 16.3177 84.3864 16.5556V21.6121H82.3638V14.1166H84.2674L84.3864 15.2469C84.5648 14.8305 84.8028 14.533 85.1002 14.3546C85.3977 14.1166 85.6951 13.9977 86.052 13.9977H86.3495C86.409 13.9977 86.5279 14.0571 86.5874 14.0571L86.3495 15.8418Z" fill="black"/>
<path d="M90.2759 18.4594L90.3354 18.8758H90.3949L91.8226 14.1168H94.0237L90.9898 22.7426C90.7518 23.278 90.5139 23.7539 90.0975 24.1108C89.7405 24.4677 89.2051 24.6462 88.4318 24.6462C88.2533 24.6462 88.0749 24.6462 87.9559 24.5867C87.8369 24.5867 87.6584 24.5272 87.4205 24.4677L87.6584 22.9805H87.8369H88.0154C88.3723 22.9805 88.6102 22.921 88.7887 22.7426C88.9672 22.5641 89.0862 22.3856 89.2051 22.1477L89.4431 21.5528L86.7661 14.0573H88.9672L90.2759 18.4594Z" fill="black"/>
<path d="M100.567 17.9833V21.6716H98.5444V11.5586H102.59C103.779 11.5586 104.672 11.856 105.326 12.4509C105.98 13.0458 106.337 13.8191 106.337 14.771C106.337 15.7228 105.98 16.4961 105.326 17.091C104.672 17.6859 103.72 17.9833 102.59 17.9833H100.567ZM100.567 16.3771H102.59C103.185 16.3771 103.601 16.1987 103.898 15.9012C104.196 15.6038 104.315 15.1874 104.315 14.7115C104.315 14.2356 104.196 13.8191 103.898 13.5217C103.601 13.2243 103.185 13.0458 102.59 13.0458H100.567V16.3771Z" fill="black"/>
<path d="M109.788 12.332H107.765V10.7853H109.788V12.332ZM109.788 21.6121H107.765V14.1166H109.788V21.6121Z" fill="black"/>
</svg>
