<svg width="100" height="30" viewBox="0 0 100 30" fill="none" xmlns="http://www.w3.org/2000/svg">
<g clip-path="url(#clip0_2090_11192)">
<path d="M32.0797 9.6133H30.6042V12.7295C30.6042 12.7523 30.5997 12.7749 30.5909 12.7959C30.5822 12.8169 30.5693 12.8359 30.5531 12.8519C30.5369 12.8679 30.5176 12.8806 30.4965 12.8891C30.4754 12.8976 30.4528 12.9018 30.43 12.9015H28.9259C28.9032 12.9018 28.8806 12.8976 28.8594 12.8891C28.8383 12.8806 28.8191 12.8679 28.8029 12.8519C28.7867 12.8359 28.7738 12.8169 28.765 12.7959C28.7562 12.7749 28.7517 12.7523 28.7517 12.7295V4.08878C28.7517 4.06601 28.7562 4.04346 28.765 4.02244C28.7738 4.00142 28.7867 3.98236 28.8029 3.96636C28.8191 3.95036 28.8383 3.93773 28.8594 3.92922C28.8806 3.9207 28.9032 3.91647 28.9259 3.91676H32.0907C33.1537 3.91676 33.9726 4.15274 34.5475 4.62469C35.1224 5.09665 35.4105 5.76562 35.412 6.6316C35.4346 7.17435 35.2957 7.71161 35.0128 8.17538C34.7155 8.61304 34.2959 8.95357 33.8065 9.15458L35.6634 12.659C35.6752 12.6851 35.6802 12.7138 35.6781 12.7425C35.6759 12.7711 35.6666 12.7987 35.6511 12.8228C35.6355 12.8469 35.6142 12.8668 35.589 12.8805C35.5638 12.8943 35.5355 12.9015 35.5068 12.9015H33.8859C33.8479 12.9003 33.8109 12.8893 33.7785 12.8696C33.746 12.8499 33.7192 12.8222 33.7006 12.7891L32.0797 9.6133ZM30.6042 8.11363H32.0973C32.4896 8.13713 32.876 8.01015 33.1779 7.75856C33.3075 7.63184 33.4085 7.47896 33.4743 7.31011C33.5401 7.14126 33.5691 6.96032 33.5595 6.77937C33.5698 6.59722 33.5433 6.41487 33.4816 6.24321C33.4198 6.07155 33.324 5.91411 33.2 5.78032C33.0494 5.64972 32.8744 5.55031 32.6851 5.48785C32.4958 5.42538 32.296 5.40111 32.0973 5.41643H30.6109L30.6042 8.11363Z" fill="#1D1D1B"/>
<path d="M40.3587 12.8023C40.294 12.6423 40.2495 12.4749 40.2264 12.3039C40.0155 12.5402 39.7553 12.7273 39.4642 12.8519C39.173 12.9765 38.858 13.0356 38.5415 13.025C37.947 13.0472 37.366 12.8449 36.9139 12.4583C36.7081 12.2819 36.5442 12.062 36.4339 11.8144C36.3237 11.5669 36.2699 11.2979 36.2765 11.0269C36.2607 10.7113 36.3243 10.3967 36.4614 10.112C36.5986 9.8273 36.805 9.58152 37.0617 9.39716C37.5865 9.01342 38.3452 8.82155 39.3376 8.82155H40.158V8.44002C40.1707 8.17199 40.0853 7.90854 39.9176 7.69901C39.821 7.60013 39.7036 7.52392 39.5739 7.47587C39.4443 7.42782 39.3056 7.40912 39.1678 7.42113C38.9138 7.40782 38.6634 7.48607 38.4621 7.64167C38.3274 7.7526 38.2393 7.90999 38.2151 8.08275C38.2083 8.12265 38.1874 8.15881 38.1562 8.18469C38.1251 8.21057 38.0858 8.22447 38.0453 8.22389H36.6096C36.5849 8.22378 36.5605 8.21842 36.5381 8.20818C36.5156 8.19795 36.4956 8.18306 36.4793 8.1645C36.4631 8.14594 36.4509 8.12414 36.4437 8.10054C36.4365 8.07695 36.4344 8.05209 36.4375 8.02761C36.4728 7.70808 36.5923 7.40365 36.7838 7.14545C37.0441 6.79971 37.3942 6.53197 37.7961 6.37136C38.2593 6.18287 38.756 6.09058 39.256 6.10009C40.0779 6.10009 40.7314 6.3074 41.2166 6.72202C41.4609 6.93905 41.6531 7.20846 41.7787 7.51014C41.9044 7.81182 41.9602 8.13798 41.9422 8.46428V11.36C41.9226 11.8011 41.9931 12.2416 42.1495 12.6545C42.1622 12.6807 42.168 12.7097 42.1665 12.7388C42.1649 12.7678 42.156 12.796 42.1406 12.8207C42.1251 12.8454 42.1037 12.8657 42.0783 12.8799C42.0528 12.894 42.0242 12.9015 41.9951 12.9015H40.5153C40.4823 12.9022 40.4499 12.8932 40.422 12.8755C40.3942 12.8579 40.3722 12.8324 40.3587 12.8023ZM38.9296 11.6621C39.183 11.6639 39.433 11.6033 39.6574 11.4857C39.866 11.382 40.0383 11.2174 40.1514 11.0137V9.86471H39.4898C38.5974 9.86471 38.1217 10.1735 38.0629 10.791V10.8968C38.0601 11 38.0798 11.1025 38.1205 11.1973C38.1613 11.2922 38.2221 11.377 38.2989 11.446C38.4762 11.5963 38.7041 11.6736 38.9362 11.6621H38.9296Z" fill="#1D1D1B"/>
<path d="M46.8008 11.0579C46.8005 10.9501 46.7699 10.8447 46.7126 10.7534C46.6553 10.6622 46.5735 10.5889 46.4766 10.5418C46.147 10.3777 45.7946 10.264 45.4313 10.2044C43.8449 9.87064 43.0524 9.19579 43.0539 8.17984C43.052 7.89184 43.118 7.60746 43.2463 7.34964C43.3746 7.09181 43.5618 6.86777 43.7927 6.6956C44.3461 6.27852 45.0279 6.0679 45.7202 6.10015C46.5685 6.10015 47.2463 6.3001 47.7536 6.70001C47.9732 6.85973 48.1555 7.06537 48.2876 7.30264C48.4198 7.53992 48.4987 7.80313 48.5188 8.07398C48.52 8.09748 48.5164 8.12099 48.5082 8.14304C48.4999 8.16509 48.4872 8.18521 48.4709 8.20217C48.4546 8.21912 48.4349 8.23254 48.4132 8.24159C48.3915 8.25065 48.3681 8.25515 48.3446 8.25482H46.9023C46.8615 8.25532 46.8218 8.2411 46.7907 8.21478C46.7595 8.18845 46.7388 8.15178 46.7325 8.11147C46.7093 7.92645 46.6255 7.75431 46.4943 7.62187C46.3886 7.53111 46.266 7.46232 46.1334 7.41953C46.0009 7.37673 45.8612 7.3608 45.7224 7.37266C45.4736 7.35755 45.2273 7.42927 45.0255 7.57556C44.9457 7.63627 44.881 7.71468 44.8366 7.80461C44.7922 7.89454 44.7693 7.99354 44.7696 8.09383C44.7699 8.19149 44.7962 8.28733 44.8458 8.37145C44.8954 8.45557 44.9666 8.52494 45.0519 8.5724C45.3465 8.73198 45.6667 8.83872 45.9981 8.88777C46.3801 8.95878 46.7561 9.05906 47.1228 9.1877C48.0652 9.53174 48.5357 10.1301 48.5343 10.9829C48.5386 11.2752 48.4691 11.5638 48.3322 11.8221C48.1954 12.0803 47.9956 12.2999 47.7513 12.4605C47.1537 12.8592 46.4445 13.0569 45.7268 13.0251C45.2142 13.0347 44.7055 12.9331 44.2359 12.7274C43.8331 12.5482 43.4847 12.266 43.2259 11.9092C43.0257 11.6371 42.9016 11.3166 42.8664 10.9807C42.8633 10.9562 42.8654 10.9314 42.8726 10.9078C42.8798 10.8842 42.8919 10.8624 42.9082 10.8438C42.9245 10.8252 42.9445 10.8104 42.9669 10.8001C42.9894 10.7899 43.0137 10.7845 43.0384 10.7844H44.3925C44.4322 10.7833 44.471 10.7965 44.5018 10.8216C44.5326 10.8467 44.5533 10.882 44.5601 10.9211C44.5744 11.0371 44.6116 11.1491 44.6696 11.2505C44.7275 11.352 44.805 11.4409 44.8976 11.5122C45.155 11.693 45.4656 11.7823 45.7797 11.7658C46.0521 11.7844 46.3232 11.7156 46.5538 11.5695C46.6339 11.5112 46.6984 11.4339 46.7415 11.3447C46.7846 11.2554 46.8049 11.1569 46.8008 11.0579Z" fill="#1D1D1B"/>
<path d="M55.6157 9.62434C55.6157 10.6535 55.3819 11.4776 54.9144 12.0966C54.6989 12.3943 54.4138 12.6346 54.0839 12.7964C53.754 12.9583 53.3894 13.0368 53.0221 13.0251C52.7142 13.0368 52.4076 12.9797 52.1245 12.858C51.8415 12.7363 51.5891 12.553 51.3857 12.3215V15.2966C51.3857 15.3195 51.3812 15.3422 51.3725 15.3633C51.3637 15.3844 51.3509 15.4036 51.3347 15.4198C51.3185 15.436 51.2993 15.4488 51.2782 15.4576C51.257 15.4663 51.2344 15.4708 51.2115 15.4708H49.7758C49.73 15.4703 49.6862 15.4517 49.654 15.419C49.6218 15.3864 49.6038 15.3425 49.6038 15.2966V6.39564C49.6035 6.37287 49.6077 6.35026 49.6162 6.32913C49.6247 6.30801 49.6374 6.28878 49.6534 6.27258C49.6694 6.25637 49.6884 6.2435 49.7095 6.23472C49.7305 6.22594 49.753 6.22141 49.7758 6.22142H51.099C51.1423 6.22119 51.1842 6.23711 51.2164 6.26606C51.2486 6.29501 51.2689 6.33491 51.2733 6.378L51.3196 6.87642C51.5225 6.62517 51.7808 6.42419 52.0742 6.28915C52.3676 6.15411 52.6883 6.08867 53.0111 6.09791C53.3815 6.08106 53.7504 6.15575 54.085 6.31539C54.4197 6.47502 54.7098 6.71468 54.9298 7.01315C55.3856 7.62184 55.6142 8.46063 55.6157 9.52951V9.62434ZM53.8315 9.49643C53.8611 8.99464 53.7463 8.49489 53.5007 8.05631C53.3995 7.89508 53.2574 7.76346 53.089 7.67478C52.9205 7.58609 52.7316 7.54348 52.5414 7.55127C51.9812 7.55127 51.5967 7.76519 51.3879 8.19304V10.9277C51.493 11.1428 51.6606 11.3211 51.8688 11.4392C52.077 11.5573 52.3161 11.6096 52.5546 11.5894C53.4059 11.5879 53.8315 10.8902 53.8315 9.49643Z" fill="#1D1D1B"/>
<path d="M62.6775 9.62436C62.6775 10.6947 62.4496 11.5291 61.9938 12.1275C61.7716 12.4214 61.4812 12.6567 61.1477 12.8131C60.8141 12.9695 60.4475 13.0423 60.0795 13.0251C59.7451 13.0355 59.4131 12.9654 59.1114 12.8207C58.8098 12.676 58.5473 12.4609 58.3461 12.1937L58.2821 12.7494C58.2772 12.7915 58.2569 12.8303 58.2252 12.8584C58.1935 12.8865 58.1525 12.9019 58.1101 12.9016H56.8332C56.8106 12.9016 56.7882 12.8971 56.7673 12.8885C56.7465 12.8798 56.7275 12.8672 56.7115 12.8512C56.6955 12.8352 56.6829 12.8163 56.6742 12.7954C56.6656 12.7745 56.6611 12.7522 56.6611 12.7296V3.59481C56.6611 3.54919 56.6793 3.50543 56.7115 3.47317C56.7438 3.44091 56.7875 3.42279 56.8332 3.42279H58.2711C58.3167 3.42279 58.3604 3.44091 58.3927 3.47317C58.425 3.50543 58.4431 3.54919 58.4431 3.59481V6.82351C58.641 6.58768 58.89 6.4 59.1713 6.27467C59.4525 6.14934 59.7585 6.08966 60.0663 6.10014C60.4346 6.08418 60.8014 6.1577 61.1351 6.3144C61.4689 6.4711 61.7597 6.70632 61.9827 6.99994C62.4459 7.59834 62.6775 8.4408 62.6775 9.52733V9.62436ZM60.8933 9.49645C60.8933 8.8216 60.7867 8.32833 60.5735 8.01663C60.4674 7.86338 60.3235 7.74006 60.1559 7.65855C59.9883 7.57705 59.8024 7.54011 59.6164 7.55129C59.3726 7.53127 59.1287 7.58761 58.9185 7.71249C58.7083 7.83737 58.5421 8.0246 58.4431 8.2482V10.8947C58.5437 11.1204 58.7118 11.3093 58.9244 11.4353C59.1369 11.5613 59.3833 11.6182 59.6296 11.5982C59.8888 11.6127 60.1449 11.5353 60.3527 11.3796C60.5604 11.2239 60.7066 10.9998 60.7654 10.7469C60.8675 10.3383 60.9106 9.91724 60.8933 9.49645Z" fill="#1D1D1B"/>
<path d="M66.7618 13.0251C66.3237 13.0435 65.8863 12.9737 65.4756 12.8199C65.065 12.6661 64.6894 12.4314 64.3711 12.1297C63.7551 11.5283 63.4471 10.7278 63.4471 9.72798V9.55596C63.4368 8.93427 63.5696 8.31854 63.8352 7.75636C64.0755 7.25008 64.4589 6.82531 64.9379 6.53457C65.4295 6.24362 65.9922 6.09475 66.5633 6.10452C67.4793 6.10452 68.199 6.39269 68.7224 6.96903C69.2458 7.54538 69.5075 8.36211 69.5075 9.41923V9.97499C69.5075 10.0206 69.4894 10.0644 69.4571 10.0966C69.4249 10.1289 69.3811 10.147 69.3355 10.147H65.2555C65.2953 10.5491 65.4813 10.9227 65.7782 11.1968C66.081 11.4659 66.4761 11.6073 66.8809 11.5915C67.1578 11.6024 67.4338 11.5536 67.6902 11.4486C67.9466 11.3436 68.1775 11.1848 68.3673 10.9829C68.3834 10.9653 68.403 10.9512 68.4249 10.9416C68.4467 10.932 68.4703 10.9271 68.4941 10.9271C68.518 10.9271 68.5416 10.932 68.5634 10.9416C68.5852 10.9512 68.6048 10.9653 68.6209 10.9829L69.2693 11.7062C69.2944 11.7375 69.308 11.7764 69.308 11.8165C69.308 11.8566 69.2944 11.8955 69.2693 11.9268C69.0011 12.2588 68.658 12.5226 68.2681 12.6964C67.796 12.9147 67.2819 13.0269 66.7618 13.0251ZM66.5589 7.53802C66.3978 7.53236 66.2373 7.56155 66.0885 7.62359C65.9397 7.68563 65.806 7.77906 65.6966 7.8975C65.4563 8.19051 65.3109 8.54975 65.2798 8.92742H67.7608V8.78407C67.7744 8.44773 67.6593 8.11886 67.4389 7.86442C67.3233 7.75138 67.1852 7.66391 67.0336 7.60768C66.882 7.55144 66.7203 7.52771 66.5589 7.53802Z" fill="#1D1D1B"/>
<path d="M74.2646 7.70565C74.2644 7.72933 74.2593 7.75271 74.2495 7.77429C74.2398 7.79587 74.2256 7.81518 74.208 7.83096C74.1903 7.84674 74.1696 7.85866 74.147 7.86595C74.1245 7.87323 74.1007 7.87572 74.0771 7.87326C73.9255 7.85653 73.7731 7.84769 73.6206 7.8468C72.9458 7.8468 72.5047 8.06734 72.2974 8.53268V12.7229C72.2974 12.7686 72.2793 12.8123 72.247 12.8446C72.2147 12.8768 72.171 12.895 72.1254 12.895H70.683C70.6374 12.895 70.5936 12.8768 70.5614 12.8446C70.5291 12.8123 70.511 12.7686 70.511 12.7229V6.39565C70.5107 6.37287 70.5149 6.35027 70.5235 6.32914C70.532 6.30802 70.5446 6.28879 70.5606 6.27258C70.5766 6.25637 70.5957 6.24351 70.6167 6.23472C70.6377 6.22594 70.6602 6.22142 70.683 6.22142H72.0327C72.0767 6.22189 72.1189 6.23897 72.1508 6.26924C72.1827 6.29951 72.202 6.34073 72.2047 6.38462L72.2444 7.01757C72.3816 6.74026 72.5938 6.50703 72.857 6.34444C73.1202 6.18185 73.4237 6.09643 73.7331 6.09792C73.8755 6.09733 74.0176 6.11287 74.1565 6.14423C74.1942 6.15369 74.2276 6.17562 74.2512 6.20645C74.2748 6.23729 74.2873 6.27521 74.2866 6.31405L74.2646 7.70565Z" fill="#1D1D1B"/>
<path d="M78.7746 7.70565C78.7741 7.72943 78.7687 7.75285 78.7587 7.77444C78.7487 7.79602 78.7343 7.8153 78.7165 7.83105C78.6987 7.8468 78.6778 7.85868 78.6551 7.86595C78.6325 7.87322 78.6086 7.8757 78.5849 7.87326C78.4333 7.85652 78.2809 7.84769 78.1284 7.8468C77.4536 7.8468 77.0125 8.07542 76.8052 8.53267V12.7229C76.8046 12.7687 76.786 12.8125 76.7534 12.8447C76.7208 12.8769 76.6768 12.8949 76.6309 12.8949H75.193C75.1474 12.8949 75.1037 12.8768 75.0714 12.8446C75.0391 12.8123 75.021 12.7685 75.021 12.7229V6.39564C75.0207 6.37287 75.0249 6.35026 75.0335 6.32914C75.042 6.30801 75.0546 6.28879 75.0706 6.27258C75.0866 6.25637 75.1057 6.2435 75.1267 6.23472C75.1477 6.22594 75.1703 6.22142 75.193 6.22142H76.5427C76.5869 6.22136 76.6293 6.23827 76.6614 6.26864C76.6934 6.29902 76.7125 6.34054 76.7148 6.38462L76.7544 7.01757C77.1139 6.40447 77.6079 6.09792 78.2431 6.09792C78.3855 6.09733 78.5276 6.11287 78.6665 6.14423C78.7042 6.15369 78.7376 6.17562 78.7612 6.20645C78.7848 6.23728 78.7973 6.27521 78.7966 6.31405L78.7746 7.70565Z" fill="#1D1D1B"/>
<path d="M82.3692 10.3786L83.5667 6.34714C83.578 6.31143 83.6003 6.28023 83.6304 6.25803C83.6605 6.23583 83.6969 6.22378 83.7343 6.22363H85.2781C85.3058 6.22384 85.3331 6.23065 85.3576 6.2435C85.3821 6.25634 85.4033 6.27485 85.4192 6.29749C85.4352 6.32013 85.4455 6.34624 85.4493 6.37367C85.4532 6.4011 85.4504 6.42905 85.4413 6.4552L82.8323 13.9403L82.6846 14.291C82.2861 15.1643 81.6245 15.6002 80.6997 15.5988C80.4767 15.5986 80.2545 15.5712 80.0381 15.5172C80.0008 15.507 79.9679 15.4849 79.9444 15.4542C79.9209 15.4236 79.9081 15.386 79.908 15.3474V14.3108C79.908 14.2874 79.9127 14.2642 79.9219 14.2426C79.931 14.221 79.9444 14.2015 79.9613 14.1852C79.9782 14.169 79.9982 14.1563 80.0201 14.1479C80.042 14.1396 80.0654 14.1357 80.0888 14.1366H80.2653C80.4974 14.1521 80.7286 14.095 80.9269 13.9734C81.1099 13.8501 81.2477 13.6705 81.3194 13.4617L81.5289 12.9126L79.2905 6.4552C79.2814 6.42905 79.2786 6.4011 79.2824 6.37367C79.2863 6.34624 79.2966 6.32013 79.3126 6.29749C79.3285 6.27485 79.3497 6.25634 79.3742 6.2435C79.3987 6.23065 79.426 6.22384 79.4537 6.22363H80.9974C81.0349 6.22378 81.0713 6.23583 81.1014 6.25803C81.1315 6.28023 81.1538 6.31143 81.1651 6.34714L82.3692 10.3786Z" fill="#1D1D1B"/>
<path d="M91.3386 9.73684V12.7296C91.3386 12.7523 91.3341 12.7749 91.3253 12.7959C91.3165 12.8169 91.3037 12.836 91.2874 12.852C91.2712 12.868 91.252 12.8806 91.2309 12.8891C91.2098 12.8976 91.1872 12.9019 91.1644 12.9016H89.6581C89.6355 12.9016 89.6131 12.8971 89.5923 12.8885C89.5714 12.8798 89.5524 12.8672 89.5365 12.8512C89.5205 12.8352 89.5078 12.8163 89.4992 12.7954C89.4905 12.7745 89.4861 12.7522 89.4861 12.7296V4.08882C89.4861 4.0432 89.5042 3.99944 89.5365 3.96718C89.5687 3.93492 89.6125 3.9168 89.6581 3.9168H92.9927C93.6063 3.90381 94.2149 4.03051 94.7724 4.28731C95.2619 4.51314 95.6734 4.87928 95.9545 5.33928C96.2324 5.8057 96.3752 6.34019 96.3669 6.88306C96.3854 7.27611 96.3135 7.66815 96.1567 8.02907C96 8.38998 95.7625 8.71014 95.4627 8.96495C94.8599 9.47513 94.0263 9.72949 92.9618 9.72802L91.3386 9.73684ZM91.3386 8.23717H92.9927C93.3961 8.26433 93.7952 8.14096 94.113 7.89092C94.2447 7.76385 94.3472 7.60968 94.4135 7.43909C94.4797 7.2685 94.5081 7.08556 94.4967 6.90291C94.5056 6.70818 94.4759 6.51361 94.4093 6.33042C94.3427 6.14722 94.2405 5.97902 94.1086 5.83549C93.9678 5.69576 93.7999 5.58646 93.6151 5.51438C93.4304 5.44229 93.2327 5.40897 93.0346 5.41647H91.3386V8.23717Z" fill="#1D1D1B"/>
<path d="M97.2426 4.4968C97.2388 4.37385 97.2608 4.25148 97.3072 4.13754C97.3535 4.0236 97.4232 3.92061 97.5117 3.83518C97.7184 3.66833 97.976 3.57733 98.2416 3.57733C98.5073 3.57733 98.7649 3.66833 98.9716 3.83518C99.0605 3.92042 99.1306 4.02332 99.1773 4.13727C99.224 4.25122 99.2464 4.37369 99.2429 4.4968C99.2458 4.62023 99.2228 4.7429 99.1753 4.85687C99.1278 4.97084 99.0569 5.07357 98.9672 5.15842C98.7626 5.32517 98.5067 5.41623 98.2427 5.41623C97.9788 5.41623 97.7229 5.32517 97.5183 5.15842C97.4286 5.07357 97.3577 4.97084 97.3102 4.85687C97.2627 4.7429 97.2397 4.62023 97.2426 4.4968ZM98.965 12.9016H97.5205C97.4979 12.9016 97.4755 12.8971 97.4547 12.8885C97.4338 12.8798 97.4148 12.8672 97.3988 12.8512C97.3829 12.8352 97.3702 12.8162 97.3616 12.7954C97.3529 12.7745 97.3485 12.7521 97.3485 12.7295V6.39564C97.3482 6.37287 97.3524 6.35026 97.3609 6.32914C97.3694 6.30801 97.3821 6.28879 97.3981 6.27258C97.4141 6.25637 97.4331 6.2435 97.4541 6.23472C97.4752 6.22594 97.4977 6.22142 97.5205 6.22142H98.965C98.9878 6.22142 99.0103 6.22594 99.0313 6.23472C99.0524 6.2435 99.0714 6.25637 99.0874 6.27258C99.1034 6.28879 99.1161 6.30801 99.1246 6.32914C99.1331 6.35026 99.1373 6.37287 99.137 6.39564V12.7295C99.137 12.7521 99.1326 12.7745 99.1239 12.7954C99.1153 12.8162 99.1026 12.8352 99.0866 12.8512C99.0707 12.8672 99.0517 12.8798 99.0308 12.8885C99.01 12.8971 98.9876 12.9016 98.965 12.9016Z" fill="#1D1D1B"/>
<path d="M23.3242 17.255C23.1897 15.8656 22.5655 14.6306 21.679 13.98C21.5298 13.4372 21.27 12.9311 20.9159 12.4935C20.7994 11.2997 20.217 10.1998 19.2949 9.43246C19.4447 9.30244 19.5714 9.1481 19.6698 8.97594C20.7461 8.49296 21.5047 7.48509 21.593 6.73305C22.134 6.22912 22.4661 5.54045 22.5236 4.80333C22.5402 4.50453 22.4834 4.20622 22.3582 3.9344C22.5853 3.72142 22.7473 3.44838 22.8254 3.14701C22.9034 2.84563 22.8944 2.52828 22.7993 2.23184C22.4795 1.30116 21.3526 0.688061 19.8397 0.632926C19.3788 0.240678 18.7857 0.0387885 18.1812 0.0683449C17.884 0.0704131 17.588 0.106673 17.299 0.176409C17.0217 0.0529688 16.7204 -0.00729437 16.4169 -2.24039e-05C15.8308 0.00662852 15.2561 0.163017 14.7474 0.454289C14.6838 0.445802 14.6197 0.441382 14.5555 0.441057C13.8035 0.441057 13.0537 0.959325 12.6721 1.26808C12.3006 1.56823 11.9686 1.9143 11.6841 2.298C11.3989 1.91425 11.0661 1.56819 10.6939 1.26808C10.3057 0.959325 9.5537 0.441057 8.80386 0.441057C8.73601 0.441004 8.66823 0.445424 8.60097 0.454289C8.09321 0.162741 7.51916 0.00631874 6.93369 -2.24039e-05C6.63021 -0.00714727 6.32892 0.0531095 6.05153 0.176409C5.7626 0.106635 5.4666 0.0703741 5.16937 0.0683449C4.57096 0.0439621 3.98526 0.245493 3.52855 0.632926C2.01565 0.696883 0.882079 1.29454 0.568913 2.23184C0.474348 2.52834 0.465584 2.84554 0.543632 3.14681C0.621681 3.44807 0.783359 3.72112 1.00999 3.9344C0.886596 4.20674 0.830617 4.50479 0.846793 4.80333C0.898682 5.53915 1.22632 6.2283 1.76424 6.73305C1.85025 7.48509 2.61111 8.49737 3.68734 8.97594C3.78498 9.14864 3.91183 9.3031 4.06226 9.43246C3.13371 10.1965 2.54538 11.297 2.42586 12.4935C2.07136 12.9309 1.81152 13.437 1.66279 13.98C0.780631 14.6416 0.149888 15.8656 0.0175642 17.255C-0.11476 18.6444 0.271185 19.9257 1.04307 20.7417C1.18123 21.4361 1.46703 22.0927 1.88112 22.667C1.97534 23.7505 2.41969 24.774 3.14702 25.5826C3.87454 26.4198 4.85174 27.0012 5.93464 27.241C6.57856 27.8445 7.33457 28.3158 8.15989 28.6282C8.62679 29.0765 9.1778 29.4279 9.78114 29.6622C10.3845 29.8965 11.0282 30.009 11.6753 29.9934C12.3217 30.0073 12.9645 29.8932 13.5666 29.6578C14.1688 29.4224 14.7185 29.0702 15.1841 28.6216C16.0127 28.3141 16.7732 27.8473 17.4225 27.2476C18.504 27.0048 19.4788 26.4211 20.2036 25.5826C20.9325 24.7726 21.3763 23.7463 21.4672 22.6604C21.8822 22.0866 22.1681 21.4298 22.3053 20.7351C23.0772 19.9257 23.4565 18.6356 23.3242 17.255Z" fill="#1D1D1B"/>
<path d="M14.5027 2.01354C14.5212 2.00791 14.5409 2.007 14.56 2.01089C14.579 2.01478 14.5968 2.02335 14.6117 2.03583C14.6265 2.0483 14.6381 2.06429 14.6452 2.08235C14.6524 2.10041 14.6549 2.11997 14.6526 2.13925C14.6151 2.49653 14.8313 2.45242 14.8732 2.38846C15.4377 1.68935 16.0398 1.53056 16.5735 1.57688C16.5947 1.57905 16.6149 1.58687 16.632 1.59951C16.6492 1.61214 16.6626 1.62914 16.6709 1.64873C16.6793 1.66833 16.6822 1.68979 16.6794 1.7109C16.6766 1.73201 16.6682 1.75198 16.6551 1.76875C16.4346 2.08412 16.6706 2.14366 16.7544 2.08632C17.6189 1.54379 18.4437 1.54379 18.7613 1.76433C18.7751 1.7755 18.7862 1.78961 18.7939 1.80564C18.8015 1.82166 18.8055 1.8392 18.8055 1.85696C18.8055 1.87472 18.8015 1.89226 18.7939 1.90828C18.7862 1.92431 18.7751 1.93842 18.7613 1.94959C18.4415 2.22085 18.6201 2.35759 18.7348 2.31568C19.617 2.00693 20.8233 2.2804 21.2468 2.63767C21.2598 2.64885 21.2703 2.66272 21.2775 2.67833C21.2846 2.69394 21.2883 2.71091 21.2883 2.72809C21.2883 2.74527 21.2846 2.76225 21.2775 2.77786C21.2703 2.79346 21.2598 2.80733 21.2468 2.81851C20.9955 3.01124 20.7852 3.25208 20.628 3.52699C20.4709 3.80189 20.3701 4.10534 20.3315 4.41963C20.3073 4.64017 20.6557 4.58504 20.8035 4.54754C20.8206 4.54328 20.8384 4.54287 20.8557 4.54635C20.873 4.54983 20.8893 4.55711 20.9035 4.56766C20.9176 4.57821 20.9292 4.59177 20.9375 4.60736C20.9458 4.62296 20.9505 4.64019 20.9512 4.65781C20.9645 5.16285 20.4859 5.71861 19.7758 6.20159C19.6809 6.26555 19.6942 6.42213 19.9103 6.42213C19.9311 6.42242 19.9514 6.42814 19.9692 6.43871C19.9871 6.44928 20.0019 6.46434 20.0122 6.4824C20.0224 6.50045 20.0278 6.52088 20.0277 6.54164C20.0276 6.5624 20.0221 6.58279 20.0117 6.60077C19.7581 7.07052 19.4141 7.5138 18.2474 7.81815C18.2248 7.82543 18.2048 7.83933 18.1902 7.85806C18.1755 7.87678 18.1668 7.89947 18.1651 7.92319C18.1634 7.94692 18.1689 7.9706 18.1808 7.99119C18.1928 8.01177 18.2106 8.02831 18.232 8.03869C18.2527 8.04483 18.2713 8.05659 18.2857 8.07266C18.3001 8.08873 18.3098 8.10848 18.3137 8.12972C18.3176 8.15097 18.3155 8.17287 18.3077 8.19301C18.2999 8.21314 18.2867 8.23072 18.2695 8.24379C17.0984 9.26268 14.1344 8.8613 13.7572 7.16976C13.754 7.15294 13.7543 7.13563 13.7581 7.11892C13.7619 7.10222 13.7691 7.08648 13.7793 7.07272C15.0364 5.38927 16.7391 4.09069 18.6951 3.32355C18.7153 3.31431 18.7317 3.29825 18.7413 3.27818C18.7509 3.25811 18.7531 3.23531 18.7476 3.21376C18.7421 3.19221 18.7292 3.17329 18.7111 3.1603C18.693 3.14731 18.671 3.14108 18.6488 3.14271C17.5894 3.29726 16.5715 3.66166 15.6547 4.21454C14.7379 4.76743 13.9406 5.4977 13.3095 6.36258C13.2924 6.38545 13.2675 6.40137 13.2396 6.40744C13.2117 6.41352 13.1825 6.40934 13.1574 6.39567C11.2475 5.42309 12.8177 2.5274 14.5027 2.01354Z" fill="#46AF4B"/>
<path d="M3.32788 6.60297C3.3175 6.58499 3.31199 6.56461 3.31192 6.54385C3.31184 6.52308 3.3172 6.50266 3.32745 6.48461C3.3377 6.46655 3.3525 6.45149 3.37037 6.44092C3.38824 6.43035 3.40857 6.42463 3.42933 6.42434C3.64987 6.42434 3.66089 6.26775 3.56606 6.2038C2.85372 5.72743 2.37515 5.17167 2.38838 4.66002C2.38909 4.64215 2.39381 4.62467 2.4022 4.60888C2.41059 4.59309 2.42242 4.57939 2.43683 4.5688C2.45124 4.5582 2.46784 4.55099 2.48542 4.54769C2.50299 4.5444 2.52108 4.5451 2.53835 4.54975C2.6839 4.58724 3.03456 4.63135 3.0103 4.42184C2.97121 4.10745 2.86996 3.80398 2.71245 3.5291C2.55495 3.25421 2.34433 3.01342 2.09286 2.82072C2.07981 2.80954 2.06934 2.79567 2.06216 2.78006C2.05499 2.76445 2.05127 2.74748 2.05127 2.7303C2.05127 2.71312 2.05499 2.69614 2.06216 2.68053C2.06934 2.66493 2.07981 2.65106 2.09286 2.63988C2.51409 2.2826 3.72706 2.00913 4.6048 2.31789C4.71728 2.35979 4.89592 2.22306 4.57613 1.95179C4.56232 1.94063 4.55118 1.92652 4.54352 1.91049C4.53587 1.89446 4.5319 1.87693 4.5319 1.85917C4.5319 1.84141 4.53587 1.82387 4.54352 1.80784C4.55118 1.79182 4.56232 1.7777 4.57613 1.76654C4.90474 1.54379 5.73397 1.54379 6.59407 2.08632C6.68008 2.14366 6.90724 2.08632 6.69552 1.76875C6.6824 1.75198 6.67401 1.73201 6.67123 1.7109C6.66845 1.68979 6.67138 1.66833 6.67971 1.64873C6.68804 1.62914 6.70147 1.61214 6.7186 1.59951C6.73573 1.58687 6.75594 1.57905 6.77712 1.57688C7.31082 1.53056 7.90408 1.68935 8.46645 2.38846C8.51718 2.45242 8.7333 2.49653 8.68699 2.13925C8.68512 2.11986 8.68803 2.1003 8.69547 2.08229C8.70291 2.06429 8.71466 2.04838 8.72968 2.03597C8.7447 2.02356 8.76254 2.01503 8.78163 2.01112C8.80072 2.00721 8.82047 2.00804 8.83916 2.01354C10.5241 2.5274 12.0833 5.42309 10.1845 6.40449C10.159 6.41831 10.1295 6.42257 10.1011 6.4165C10.0728 6.41044 10.0476 6.39444 10.0301 6.37141C9.39921 5.50635 8.60199 4.77596 7.68514 4.22305C6.7683 3.67014 5.75029 3.30585 4.69081 3.15153C4.66863 3.1499 4.64658 3.15613 4.62852 3.16912C4.61046 3.18211 4.59754 3.20103 4.59203 3.22258C4.58651 3.24413 4.58874 3.26693 4.59833 3.287C4.60792 3.30707 4.62427 3.32313 4.6445 3.33237C6.60115 4.09838 8.3041 5.39717 9.56033 7.08154C9.57151 7.09477 9.57935 7.11049 9.58319 7.12737C9.58703 7.14426 9.58675 7.16182 9.58238 7.17858C9.21408 8.8613 6.25003 9.26268 5.07235 8.25261C5.05516 8.23954 5.04192 8.22196 5.03411 8.20183C5.02631 8.18169 5.02423 8.15979 5.02811 8.13855C5.03199 8.1173 5.04169 8.09755 5.05611 8.08148C5.07054 8.06541 5.08914 8.05365 5.10984 8.04751C5.13032 8.03625 5.14712 8.01932 5.1582 7.99874C5.16929 7.97817 5.17419 7.95483 5.17233 7.93153C5.17047 7.90824 5.16191 7.88597 5.1477 7.86742C5.13348 7.84887 5.11421 7.83483 5.0922 7.82697C3.92775 7.51601 3.5815 7.07272 3.32788 6.60297Z" fill="#46AF4B"/>
<path d="M19.1627 11.7724C19.6501 13.0692 19.2708 13.6933 18.1151 13.0317C17.1829 12.5166 16.3592 11.8262 15.6892 10.9983C14.8181 9.96177 15.3826 9.50305 16.7544 9.75005C17.2795 9.89002 17.7674 10.1437 18.1836 10.4932C18.5998 10.8427 18.934 11.2794 19.1627 11.7724Z" fill="#CD2355"/>
<path d="M13.9778 10.3146C15.6296 11.6886 13.7352 12.6612 11.6753 12.6612C9.61551 12.6612 7.71887 11.6886 9.37291 10.3146C10.0254 9.78945 10.8378 9.50311 11.6753 9.50311C12.5129 9.50311 13.3253 9.78945 13.9778 10.3146Z" fill="#CD2355"/>
<path d="M4.19012 11.7724C4.41852 11.2792 4.75269 10.8424 5.1689 10.4928C5.58512 10.1433 6.07317 9.88973 6.59841 9.75004C7.97016 9.50303 8.53695 9.97058 7.66582 10.9983C6.99532 11.8256 6.17166 12.516 5.23988 13.0317C4.07985 13.6933 3.70052 13.0692 4.19012 11.7724Z" fill="#CD2355"/>
<path d="M1.79513 18.9775C1.60549 18.4648 1.53185 17.9164 1.57952 17.3719C1.62719 16.8273 1.79497 16.3001 2.0708 15.8281C2.6817 14.7872 3.297 14.8291 3.5396 15.7091C3.8508 16.9236 3.73879 18.2079 3.22202 19.3502C2.76991 20.2478 2.20533 19.9434 1.79513 18.9775Z" fill="#CD2355"/>
<path d="M6.19941 25.7083C4.73503 25.3996 3.48898 23.9219 3.43164 22.4245C3.661 17.0896 11.3512 26.6169 6.19941 25.7083Z" fill="#CD2355"/>
<path d="M6.35589 19.0635C5.07235 18.318 4.7261 16.4942 5.59503 14.9967C6.46396 13.4992 8.21284 12.8773 9.50299 13.6205C10.7932 14.3638 11.1328 16.1898 10.2639 17.6939C9.39493 19.198 7.64605 19.8067 6.35589 19.0635Z" fill="#CD2355"/>
<path d="M13.8256 27.7439C13.1992 28.1955 12.4465 28.4386 11.6742 28.4386C10.902 28.4386 10.1493 28.1955 9.52288 27.7439C8.24595 26.8617 9.52288 25.8472 11.6753 25.8472C13.8278 25.8472 15.1047 26.8617 13.8256 27.7439Z" fill="#CD2355"/>
<path d="M11.6753 24.5086C13.3282 24.5086 14.6681 23.3603 14.6681 21.9437C14.6681 20.5272 13.3282 19.3788 11.6753 19.3788C10.0225 19.3788 8.68262 20.5272 8.68262 21.9437C8.68262 23.3603 10.0225 24.5086 11.6753 24.5086Z" fill="#CD2355"/>
<path d="M13.0846 17.6873C12.2157 16.1832 12.5575 14.3593 13.8477 13.6139C15.1378 12.8685 16.8867 13.486 17.7556 14.9967C18.6246 16.5074 18.2827 18.3246 16.9926 19.0701C15.7024 19.8155 13.9535 19.187 13.0846 17.6873Z" fill="#CD2355"/>
<path d="M17.1492 25.7083C11.9974 26.6169 19.6876 17.0896 19.917 22.4245C19.8618 23.9219 18.6158 25.3996 17.1492 25.7083Z" fill="#CD2355"/>
<path d="M21.5534 18.9774C21.1454 19.9434 20.5809 20.2477 20.1287 19.3502C19.613 18.2077 19.5002 16.9239 19.809 15.709C20.0538 14.8269 20.6691 14.7872 21.28 15.8281C21.555 16.3004 21.7221 16.8277 21.7694 17.3722C21.8167 17.9166 21.7429 18.4648 21.5534 18.9774Z" fill="#CD2355"/>
<path d="M33.7536 22.4333H29.9934V26.403H28.8069V17.4226H34.3755V18.393H29.9934V21.4805H33.7646L33.7536 22.4333Z" fill="#1D1D1B"/>
<path d="M34.971 23.0023C34.9624 22.3924 35.0944 21.7886 35.3569 21.238C35.5923 20.7403 35.9649 20.3202 36.4309 20.0272C36.9046 19.7402 37.4496 19.5926 38.0034 19.6016C38.418 19.5873 38.8306 19.6647 39.2118 19.8282C39.593 19.9918 39.9335 20.2374 40.2088 20.5477C40.7704 21.177 41.0512 22.0143 41.0512 23.0597V23.139C41.0606 23.7434 40.9332 24.342 40.6785 24.8901C40.4463 25.3873 40.0747 25.8064 39.6089 26.0965C39.1304 26.3927 38.5771 26.5457 38.0144 26.5376C37.5999 26.5532 37.187 26.4767 36.8056 26.3135C36.4243 26.1502 36.0839 25.9044 35.809 25.5937C35.2459 24.9629 34.9644 24.1293 34.9644 23.0927L34.971 23.0023ZM36.12 23.1368C36.0882 23.7725 36.2699 24.4005 36.636 24.921C36.799 25.1324 37.0083 25.3036 37.2479 25.4215C37.4874 25.5393 37.7508 25.6005 38.0177 25.6005C38.2847 25.6005 38.5481 25.5393 38.7876 25.4215C39.0271 25.3036 39.2364 25.1324 39.3994 24.921C39.739 24.4667 39.9111 23.8293 39.9111 23.0111C39.9405 22.3755 39.7566 21.7482 39.3884 21.2292C39.2263 21.0187 39.018 20.8482 38.7796 20.7309C38.5412 20.6136 38.279 20.5526 38.0133 20.5526C37.7476 20.5526 37.4855 20.6136 37.2471 20.7309C37.0087 20.8482 36.8004 21.0187 36.6383 21.2292C36.292 21.6592 36.12 22.3032 36.12 23.1368Z" fill="#1D1D1B"/>
<path d="M46.4325 25.7436C45.9915 26.2655 45.3394 26.5265 44.4763 26.5265C43.7647 26.5265 43.2222 26.3199 42.8488 25.9068C42.476 25.4922 42.2886 24.8813 42.2842 24.0697V19.7228H43.4266V24.0388C43.4266 25.0518 43.8382 25.5583 44.6616 25.5583C45.5335 25.5583 46.1135 25.2327 46.4017 24.5813V19.7295H47.5441V26.4096H46.4568L46.4325 25.7436Z" fill="#1D1D1B"/>
<path d="M50.1705 19.7229L50.2058 20.5631C50.4392 20.2557 50.7422 20.008 51.0899 19.8404C51.4377 19.6729 51.8202 19.5903 52.2061 19.5994C53.619 19.5994 54.3314 20.3963 54.3431 21.99V26.4008H53.2007V21.99C53.2276 21.6054 53.1096 21.2246 52.8699 20.9226C52.7351 20.7982 52.5759 20.7031 52.4024 20.6435C52.2289 20.5839 52.0449 20.5611 51.8621 20.5764C51.5135 20.57 51.1717 20.6734 50.8851 20.8719C50.6011 21.07 50.3732 21.3382 50.2234 21.6504V26.4096H49.0811V19.7229H50.1705Z" fill="#1D1D1B"/>
<path d="M55.5759 23.0089C55.5759 21.9797 55.8193 21.1549 56.3059 20.5344C56.5287 20.2541 56.8096 20.0255 57.1293 19.8642C57.449 19.703 57.7999 19.613 58.1577 19.6004C58.5155 19.5878 58.8719 19.653 59.2021 19.7914C59.5323 19.9298 59.8286 20.1382 60.0705 20.4021V16.9198H61.2129V26.403H60.1631L60.108 25.6885C59.8768 25.9665 59.5841 26.187 59.253 26.3325C58.9219 26.4779 58.5615 26.5444 58.2003 26.5265C57.8315 26.5333 57.4666 26.4503 57.137 26.2847C56.8073 26.1191 56.5229 25.8759 56.3081 25.576C55.82 24.9438 55.5759 24.1167 55.5759 23.0949V23.0089ZM56.7183 23.1368C56.7183 23.8955 56.8749 24.4865 57.1881 24.9166C57.3337 25.1231 57.5286 25.2899 57.755 25.402C57.9815 25.514 58.2324 25.5678 58.4848 25.5583C58.8164 25.5717 59.1443 25.4859 59.4268 25.3119C59.7093 25.1379 59.9334 24.8835 60.0705 24.5813V21.5136C59.928 21.2209 59.7036 20.9758 59.4244 20.8083C59.1453 20.6407 58.8234 20.5578 58.4981 20.5697C58.2429 20.5596 57.9893 20.6136 57.7604 20.7269C57.5315 20.8402 57.3347 21.0091 57.1881 21.2181C56.8808 21.6504 56.7271 22.2899 56.7271 23.1368H56.7183Z" fill="#1D1D1B"/>
<path d="M66.9537 26.403C66.8648 26.1779 66.8105 25.9407 66.7927 25.6995C66.5516 25.963 66.2577 26.1728 65.9302 26.3153C65.6027 26.4578 65.2488 26.5297 64.8917 26.5265C64.3005 26.5505 63.7219 26.3513 63.2707 25.9685C63.0666 25.7939 62.9039 25.576 62.7945 25.3308C62.685 25.0855 62.6315 24.819 62.6377 24.5504C62.6242 24.2358 62.6897 23.9227 62.8284 23.6399C62.9671 23.3571 63.1745 23.1136 63.4317 22.9317C63.961 22.5465 64.7049 22.3539 65.6635 22.3539H66.7662V21.8334C66.7747 21.6583 66.7474 21.4833 66.6859 21.3191C66.6245 21.1549 66.5303 21.005 66.409 20.8785C66.2672 20.7511 66.1017 20.653 65.9219 20.5898C65.7422 20.5266 65.5517 20.4995 65.3614 20.5102C64.995 20.4978 64.6346 20.6063 64.3359 20.8189C64.2112 20.9004 64.1082 21.011 64.0359 21.1413C63.9637 21.2716 63.9243 21.4176 63.9213 21.5665H62.7745C62.7818 21.214 62.9068 20.874 63.1295 20.6006C63.3829 20.2774 63.7136 20.0233 64.0911 19.8618C64.5131 19.6775 64.9694 19.585 65.4298 19.5905C66.1995 19.5905 66.8015 19.7846 67.2382 20.1683C67.4611 20.3697 67.638 20.6167 67.7568 20.8927C67.8755 21.1686 67.9333 21.4669 67.9263 21.7672V24.8416C67.9062 25.3396 67.9857 25.8367 68.1601 26.3037V26.403H66.9537ZM65.0593 25.534C65.4176 25.5337 65.7693 25.4378 66.0782 25.2562C66.378 25.0907 66.6209 24.8386 66.7751 24.5328V23.1566H65.8797C64.4785 23.1566 63.7787 23.5661 63.7801 24.385C63.7719 24.5427 63.7998 24.7002 63.8618 24.8454C63.9237 24.9907 64.018 25.1198 64.1374 25.2231C64.3967 25.4353 64.7244 25.5459 65.0593 25.534Z" fill="#1D1D1B"/>
<path d="M71.1305 18.1063V19.7229H72.3766V20.605H71.1305V24.7512C71.1143 24.966 71.1736 25.1797 71.2982 25.3555C71.3719 25.4287 71.461 25.4847 71.559 25.5194C71.657 25.5541 71.7615 25.5667 71.8649 25.5561C72.0479 25.5499 72.2297 25.5248 72.4075 25.4812V26.4008C72.1205 26.4823 71.8236 26.5238 71.5253 26.5243C71.3102 26.5396 71.0944 26.5059 70.8942 26.4257C70.694 26.3454 70.5147 26.2208 70.3697 26.0612C70.0863 25.6807 69.9486 25.2112 69.9815 24.7379V20.6072H68.7664V19.7251H69.9815V18.1063H71.1305Z" fill="#1D1D1B"/>
<path d="M73.5919 17.9519C73.5865 17.7794 73.6473 17.6114 73.7617 17.4822C73.8263 17.4154 73.9049 17.3635 73.9918 17.3304C74.0787 17.2972 74.1718 17.2835 74.2645 17.2903C74.3576 17.284 74.4509 17.2978 74.5381 17.3309C74.6252 17.3641 74.7042 17.4157 74.7696 17.4822C74.8854 17.6109 74.9477 17.7789 74.9438 17.9519C74.9483 18.041 74.9336 18.1299 74.9007 18.2127C74.8677 18.2956 74.8173 18.3703 74.7528 18.4318C74.6883 18.4934 74.6113 18.5403 74.527 18.5694C74.4428 18.5985 74.3532 18.609 74.2645 18.6003C74.1723 18.6072 74.0797 18.5942 73.993 18.5623C73.9063 18.5303 73.8274 18.4801 73.7617 18.4151C73.6475 18.2884 73.5867 18.1224 73.5919 17.9519ZM74.8247 26.403H73.6845V19.7229H74.8247V26.403Z" fill="#1D1D1B"/>
<path d="M76.2229 23.0023C76.2143 22.3924 76.3464 21.7886 76.6089 21.238C76.8442 20.7403 77.2168 20.3202 77.6829 20.0272C78.1565 19.7402 78.7016 19.5926 79.2553 19.6016C79.6699 19.5873 80.0825 19.6647 80.4638 19.8282C80.845 19.9918 81.1854 20.2374 81.4607 20.5477C82.0209 21.177 82.3017 22.0143 82.3032 23.0597V23.139C82.3132 23.7437 82.185 24.3426 81.9283 24.8901C81.697 25.3872 81.3261 25.8064 80.8609 26.0965C80.3817 26.3929 79.8276 26.546 79.2642 26.5376C78.8497 26.5528 78.437 26.476 78.0557 26.3128C77.6744 26.1496 77.3339 25.904 77.0588 25.5937C76.4986 24.9629 76.2178 24.1293 76.2163 23.0927L76.2229 23.0023ZM77.3719 23.1368C77.3402 23.7725 77.5219 24.4005 77.888 24.921C78.051 25.1324 78.2603 25.3036 78.4998 25.4214C78.7394 25.5393 79.0027 25.6005 79.2697 25.6005C79.5366 25.6005 79.8 25.5393 80.0395 25.4214C80.2791 25.3036 80.4884 25.1324 80.6514 24.921C80.991 24.4667 81.163 23.8293 81.163 23.0111C81.1925 22.3755 81.0085 21.7482 80.6403 21.2292C80.4782 21.0187 80.2699 20.8482 80.0315 20.7309C79.7931 20.6136 79.531 20.5526 79.2653 20.5526C78.9996 20.5526 78.7374 20.6136 78.499 20.7309C78.2606 20.8482 78.0523 21.0187 77.8902 21.2292C77.544 21.6592 77.3719 22.3032 77.3719 23.1368Z" fill="#1D1D1B"/>
<path d="M84.6144 19.7229L84.6518 20.5631C84.8852 20.2557 85.1882 20.008 85.536 19.8404C85.8837 19.6729 86.2662 19.5903 86.6521 19.5994C88.0636 19.5994 88.7759 20.3963 88.7892 21.99V26.4008H87.6468V21.99C87.6737 21.6054 87.5557 21.2246 87.316 20.9226C87.1812 20.7982 87.0219 20.7031 86.8484 20.6435C86.6749 20.5839 86.4909 20.5611 86.3081 20.5764C85.9595 20.57 85.6177 20.6734 85.3311 20.8719C85.0474 21.0703 84.8195 21.3384 84.6695 21.6504V26.4096H83.5293V19.7229H84.6144Z" fill="#1D1D1B"/>
</g>
<defs>
<clipPath id="clip0_2090_11192">
<rect width="99.2428" height="30" fill="white"/>
</clipPath>
</defs>
</svg>
