<svg width="304" height="146" viewBox="0 0 304 146" fill="none" xmlns="http://www.w3.org/2000/svg">
<rect width="304" height="146" fill="white"/>
<path d="M48.8883 41.0382C48.5079 41.0382 48.2543 41.165 47.7472 41.4186C46.7328 41.0382 45.8453 40.9114 44.9577 41.6722C43.6898 41.5454 43.1826 41.799 42.929 42.3061C42.6755 42.3061 40.7736 42.0526 39.886 43.3205C37.7306 43.0669 37.0966 44.5884 37.8574 45.9831C37.477 46.6171 36.9698 47.3778 37.9841 48.6458C37.6038 49.4065 37.8574 50.1673 38.7449 51.0548C38.4913 52.0691 38.9985 52.7031 39.7592 53.3371C39.6324 54.7318 41.0272 55.4925 41.4075 55.7461C41.5343 56.5069 41.9147 57.2676 43.563 57.648C43.8166 58.7891 44.8309 59.0427 45.7185 59.2963C42.5487 61.0714 39.886 63.4805 39.886 69.1861L39.3789 69.9469C35.8287 72.1023 32.5321 78.9491 37.6038 84.6548C37.9841 86.4299 38.4913 87.6978 38.9985 89.0925C39.7592 94.6714 44.5773 97.334 45.8453 97.7144C47.7472 99.1091 49.649 100.377 52.3117 101.391C54.8475 103.927 57.5102 104.942 60.2996 104.942H60.4264C63.2158 104.942 65.8785 103.927 68.4143 101.391C71.0769 100.504 73.1056 99.1091 74.8807 97.7144C76.1486 97.4608 80.9667 94.7982 81.7275 89.0925C82.2347 87.6978 82.7418 86.4299 83.1222 84.6548C88.1939 79.0759 84.8973 72.1023 81.3471 69.9469L80.8399 69.1861C80.8399 63.3537 78.1773 61.0714 75.0075 59.2963C75.895 59.0427 76.9094 58.7891 77.163 57.648C78.8113 57.2676 79.0648 56.5069 79.3184 55.7461C79.6988 55.4925 81.2203 54.605 80.9667 53.3371C81.7275 52.8299 82.2347 52.0691 81.9811 51.0548C82.8686 50.1673 83.1222 49.4065 82.7418 48.6458C83.7562 47.3778 83.3758 46.7439 82.8686 45.9831C83.6294 44.5884 82.9954 43.0669 80.8399 43.3205C79.9524 42.0526 78.1773 42.3061 77.7969 42.3061C77.4165 41.9258 77.0362 41.5454 75.7682 41.6722C74.8807 40.9114 73.9932 41.0382 72.9788 41.4186C71.8377 40.531 71.0769 41.2918 70.1894 41.5454C68.7947 41.0382 68.4143 41.6722 67.7803 41.9258C66.2588 41.5454 65.7517 42.3061 64.9909 43.0669H64.1034C61.8211 44.4616 60.68 47.1242 60.1728 48.519C59.7924 47.1242 58.6513 44.3348 56.2422 43.0669H55.3547C54.5939 42.3061 54.2136 41.6722 52.5653 41.9258C51.9313 41.6722 51.5509 41.0382 50.1562 41.5454C50.0294 41.2918 49.5222 40.9114 48.8883 41.0382Z" fill="black"/>
<path d="M44.3238 46.8707C50.4098 50.0405 54.0868 52.5764 55.9887 54.605C54.9744 58.5356 49.7759 58.7892 47.874 58.6624C48.2544 58.5356 48.6347 58.282 48.7615 57.9016C48.2544 57.5213 46.6061 57.9016 45.3381 57.2677C45.8453 57.1409 45.9721 57.1409 46.2257 56.7605C45.0846 56.3801 43.9434 56.1265 43.1827 55.4926C43.5631 55.4926 43.9434 55.6194 44.4506 55.239C43.4363 54.7318 42.4219 54.2247 41.5344 53.4639C42.0415 53.4639 42.6755 53.4639 42.8023 53.2103C41.9148 52.7032 41.154 52.0692 40.52 51.3084C41.2808 51.4352 41.5344 51.3084 41.788 51.1816C41.154 50.4209 40.2665 49.9137 39.7593 49.0262C40.2665 49.153 40.7736 49.2798 41.154 49.0262C40.9004 48.519 39.8861 48.1386 39.3789 46.9975C39.8861 46.9975 40.52 47.1243 40.6468 46.9975C40.3932 45.9832 39.8861 45.3492 39.5057 44.7152C40.7736 44.7152 42.5487 44.7152 42.4219 44.5885L41.6612 43.8277C42.8023 43.5741 44.0702 43.8277 44.9578 44.2081C45.3381 43.9545 44.9578 43.5741 44.4506 43.0669C45.4649 43.1937 46.3525 43.4473 47.24 43.7009C47.6204 43.3205 46.9864 42.9402 46.6061 42.5598C48.1276 42.8134 48.8883 43.3205 49.5223 43.7009C50.0295 43.1937 49.5223 42.8134 49.2687 42.433C50.4098 42.8134 51.0438 43.4473 51.6778 43.9545C51.9313 43.7009 52.1849 43.4473 51.8045 42.8134C52.6921 43.3205 53.3261 43.8277 53.7064 44.4617C54.2136 44.0813 53.96 43.7009 53.96 43.3205C54.8476 43.9545 55.3547 44.7152 56.1155 45.476C56.2423 45.3492 56.3691 45.0956 56.4959 44.5885C58.5245 46.6171 61.4408 51.562 57.2566 53.4639C53.4528 50.6745 49.1419 48.519 44.3238 46.8707Z" fill="#6CC64A"/>
<path d="M76.9095 46.8707C70.8234 50.0405 67.1465 52.5764 65.2446 54.605C66.2589 58.5356 71.4574 58.7892 73.3593 58.6624C72.9789 58.5356 72.5985 58.282 72.4717 57.9016C72.9789 57.5213 74.6272 57.9016 75.8951 57.2677C75.388 57.1409 75.2612 57.1409 75.0076 56.7605C76.1487 56.3801 77.2898 56.1265 78.0506 55.4926C77.6702 55.4926 77.2898 55.6194 76.7827 55.239C77.797 54.7318 78.8114 54.2247 79.6989 53.4639C79.1917 53.4639 78.5578 53.4639 78.431 53.2103C79.3185 52.7032 80.0793 52.0692 80.7132 51.3084C79.9525 51.4352 79.6989 51.3084 79.4453 51.1816C80.0793 50.4209 80.9668 49.9137 81.474 49.0262C80.9668 49.153 80.4597 49.2798 80.0793 49.0262C80.3329 48.519 81.3472 48.1386 81.8544 46.9975C81.3472 46.9975 80.7132 47.1243 80.5864 46.9975C80.84 45.9832 81.3472 45.3492 81.7276 44.7152C80.4597 44.7152 78.6846 44.7152 78.8114 44.5885L79.5721 43.8277C78.431 43.5741 77.1631 43.8277 76.2755 44.2081C75.8951 43.9545 76.2755 43.4473 76.7827 43.0669C75.7683 43.1937 74.8808 43.4473 73.9933 43.7009C73.6129 43.3205 74.2468 42.9402 74.6272 42.5598C73.1057 42.8134 72.3449 43.3205 71.711 43.7009C71.2038 43.1937 71.711 42.8134 71.9646 42.433C70.8234 42.8134 70.1895 43.4473 69.5555 43.9545C69.3019 43.7009 69.0483 43.4473 69.4287 42.8134C68.5412 43.3205 67.9072 43.8277 67.5268 44.4617C67.0197 44.0813 67.2733 43.7009 67.2733 43.3205C66.5125 44.0813 66.0053 44.842 65.2446 45.6028C65.1178 45.476 64.991 45.2224 64.8642 44.7152C62.8355 46.7439 59.9193 51.6888 64.1034 53.5907C67.7804 50.6745 72.0914 48.519 76.9095 46.8707Z" fill="#6CC64A"/>
<path d="M68.0343 87.1906C68.0343 90.8675 64.7377 93.9106 60.6804 93.9106C56.623 93.9106 53.3264 90.9943 53.3264 87.3174C53.3264 87.3174 53.3264 87.3174 53.3264 87.1906C53.3264 83.5136 56.623 80.4706 60.6804 80.4706C64.7377 80.4706 68.0343 83.3868 68.0343 87.1906Z" fill="#C51A4A"/>
<path d="M56.4963 68.0452C59.5393 70.0739 60.0465 74.5116 57.7642 78.0618C55.3552 81.612 51.0442 82.8799 48.0012 80.8512C44.9582 78.8226 44.451 74.3848 46.7333 70.8346C49.1423 67.4112 53.4533 66.1433 56.4963 68.0452Z" fill="#C51A4A"/>
<path d="M64.7375 67.7915C61.6945 69.8202 61.1874 74.2579 63.4696 77.8081C65.8787 81.3583 70.1896 82.6262 73.2326 80.5976C76.2756 78.5689 76.7828 74.1312 74.5005 70.581C72.2183 67.0308 67.7806 65.7629 64.7375 67.7915Z" fill="#C51A4A"/>
<path d="M41.5349 71.3416C44.8315 70.4541 42.676 84.7816 40.0134 83.6405C36.9703 81.2314 36.0828 74.3846 41.5349 71.3416Z" fill="#C51A4A"/>
<path d="M79.5722 71.0881C76.2756 70.2005 78.4311 84.5281 81.0937 83.3869C84.0099 81.1047 85.0242 74.2579 79.5722 71.0881Z" fill="#C51A4A"/>
<path d="M68.5419 60.4375C74.2475 59.5499 78.9388 62.8465 78.812 68.9325C78.5584 71.2148 66.3864 60.8178 68.5419 60.4375Z" fill="#C51A4A"/>
<path d="M52.8193 60.3109C47.1137 59.4233 42.4223 62.7199 42.5491 68.806C42.8027 71.0882 54.848 60.6913 52.8193 60.3109Z" fill="#C51A4A"/>
<path d="M60.6806 58.916C57.2572 58.7892 54.0874 61.4518 54.0874 62.8466C54.0874 64.6216 56.75 66.5235 60.8074 66.5235C64.8647 66.5235 67.5274 65.002 67.5274 63.2269C67.4006 61.0715 63.5968 58.916 60.6806 58.916Z" fill="#C51A4A"/>
<path d="M60.9342 95.9394C63.8504 95.8126 67.9077 96.8269 67.9077 98.3484C67.9077 99.7432 64.3576 102.786 60.8074 102.786C57.1304 102.913 53.5802 99.8699 53.5802 98.7288C53.4534 97.0805 58.018 95.9394 60.9342 95.9394Z" fill="#C51A4A"/>
<path d="M49.9032 87.5712C52.0587 90.1071 52.9462 94.418 51.1711 95.6859C49.5228 96.7003 45.4655 96.3199 42.5493 92.2626C40.6474 88.8392 40.901 85.4158 42.1689 84.4014C44.4511 83.1335 47.4942 84.7818 49.9032 87.5712Z" fill="#C51A4A"/>
<path d="M71.2044 86.8105C68.9221 89.4731 67.6542 94.2912 69.3025 95.8127C70.9508 96.9539 75.1349 96.8271 78.3047 92.5161C80.587 89.5999 79.8262 84.7818 78.5583 83.5139C76.5296 81.9924 73.7402 83.8942 71.2044 86.8105Z" fill="#C51A4A"/>
<path d="M102.268 78.442V87.0638H97.957V65.5092H106.072C108.481 65.5092 110.509 66.0163 111.904 67.1575C113.299 68.2986 113.933 69.8201 113.933 71.8488C113.933 72.9899 113.679 73.8774 113.045 74.765C112.411 75.5257 111.651 76.1597 110.509 76.6669C111.777 77.0473 112.665 77.6812 113.299 78.5688C113.806 79.4563 114.186 80.5974 114.186 81.8654V83.5137C114.186 84.1476 114.313 84.7816 114.44 85.4155C114.567 86.0495 114.82 86.5567 115.328 86.9371V87.1906H110.89C110.509 86.937 110.256 86.3031 110.129 85.5423C110.002 84.7816 110.002 84.1476 110.002 83.3869V81.8654C110.002 80.7242 109.749 79.9635 109.115 79.3295C108.481 78.6955 107.72 78.442 106.579 78.442H102.268ZM102.268 75.1454H105.945C107.213 75.1454 108.1 74.8918 108.608 74.3846C109.242 73.8774 109.495 73.1167 109.495 72.1024C109.495 71.088 109.242 70.3273 108.608 69.6933C107.974 69.0593 107.086 68.8058 105.945 68.8058H102.141V75.1454H102.268Z" fill="black"/>
<path d="M127.119 87.0639C126.992 86.6836 126.865 86.3032 126.739 85.9228C126.612 85.5424 126.485 85.162 126.485 84.6549C125.978 85.4156 125.471 86.0496 124.71 86.5568C123.949 87.0639 123.062 87.3175 122.047 87.3175C120.399 87.3175 119.131 86.9371 118.117 86.0496C117.229 85.162 116.722 84.0209 116.722 82.4994C116.722 80.9779 117.356 79.71 118.497 78.8224C119.765 77.9349 121.413 77.5545 123.822 77.5545H126.231V76.2866C126.231 75.5258 125.978 74.8919 125.597 74.5115C125.217 74.1311 124.583 73.8775 123.822 73.8775C123.062 73.8775 122.554 74.0043 122.174 74.3847C121.794 74.7651 121.54 75.1455 121.54 75.7794H117.356V75.6526C117.229 74.2579 117.863 73.1168 119.131 72.1024C120.399 71.0881 122.047 70.5809 124.076 70.5809C125.978 70.5809 127.499 71.0881 128.767 72.1024C129.908 73.1168 130.542 74.5115 130.542 76.2866V82.8798C130.542 83.6405 130.542 84.4013 130.669 85.0353C130.796 85.6692 130.923 86.3032 131.176 87.0639H127.119ZM123.062 84.2745C123.822 84.2745 124.456 84.1477 125.09 83.7673C125.724 83.387 126.105 83.0066 126.231 82.4994V80.2171H123.822C122.935 80.2171 122.174 80.4707 121.794 80.8511C121.286 81.3583 121.033 81.8654 121.033 82.4994C121.033 83.0066 121.16 83.5137 121.54 83.7673C122.047 84.0209 122.428 84.2745 123.062 84.2745Z" fill="black"/>
<path d="M142.588 82.7528C142.588 82.2457 142.334 81.8653 141.954 81.4849C141.447 81.1045 140.686 80.8509 139.418 80.5974C137.516 80.217 136.121 79.583 135.107 78.8223C134.093 78.0615 133.712 77.0472 133.712 75.7793C133.712 74.3845 134.346 73.2434 135.488 72.2291C136.629 71.2147 138.15 70.8344 140.179 70.8344C142.207 70.8344 143.856 71.3415 145.124 72.2291C146.392 73.2434 146.899 74.3845 146.899 75.906V76.0328H142.715C142.715 75.3989 142.461 74.8917 142.081 74.5113C141.7 74.131 141.066 73.8774 140.306 73.8774C139.545 73.8774 139.038 74.0042 138.657 74.3845C138.277 74.7649 138.023 75.1453 138.023 75.6525C138.023 76.1596 138.277 76.54 138.657 76.9204C139.038 77.174 139.925 77.5543 141.193 77.8079C143.222 78.1883 144.617 78.8223 145.631 79.583C146.645 80.3438 147.026 81.3581 147.026 82.7528C147.026 84.1475 146.392 85.4155 145.124 86.303C143.856 87.1906 142.207 87.6977 140.179 87.6977C138.023 87.6977 136.375 87.1906 135.107 86.0494C133.839 84.9083 133.332 83.7672 133.332 82.3724V82.2457H137.263C137.263 83.1332 137.516 83.7672 138.15 84.1475C138.657 84.5279 139.418 84.7815 140.179 84.7815C140.94 84.7815 141.574 84.6547 141.954 84.2743C142.461 83.6404 142.588 83.26 142.588 82.7528Z" fill="black"/>
<path d="M164.142 79.583C164.142 81.992 163.635 83.8939 162.494 85.2886C161.353 86.6833 159.831 87.4441 157.929 87.4441C157.042 87.4441 156.281 87.3173 155.647 86.9369C155.013 86.6834 154.379 86.1762 153.999 85.5422V93.2765H149.688V71.0879H153.619L153.872 72.9898C154.379 72.229 154.886 71.7219 155.647 71.3415C156.281 70.9611 157.042 70.7075 157.929 70.7075C159.958 70.7075 161.48 71.4683 162.494 72.9898C163.635 74.5113 164.142 76.54 164.142 79.0758V79.583ZM159.705 79.2026C159.705 77.6811 159.451 76.4132 158.944 75.5256C158.437 74.6381 157.676 74.1309 156.662 74.1309C156.028 74.1309 155.394 74.2577 155.013 74.5113C154.506 74.7649 154.253 75.1453 153.872 75.6524V82.7528C154.126 83.26 154.506 83.5135 155.013 83.7671C155.52 84.0207 156.028 84.1475 156.662 84.1475C157.676 84.1475 158.437 83.7671 158.944 82.8796C159.451 82.1188 159.705 80.9777 159.705 79.583V79.2026Z" fill="black"/>
<path d="M181.26 79.583C181.26 81.9921 180.753 83.8939 179.612 85.2887C178.597 86.6834 176.949 87.4441 175.047 87.4441C174.16 87.4441 173.272 87.1905 172.638 86.8102C172.004 86.4298 171.37 85.7958 170.863 85.0351L170.483 87.0637H166.806V63.9875H171.117V72.7362C171.624 72.1023 172.131 71.5951 172.765 71.2147C173.399 70.8343 174.16 70.7075 175.047 70.7075C177.076 70.7075 178.597 71.4683 179.738 72.9898C180.753 74.5113 181.387 76.54 181.387 79.0758V79.583H181.26ZM176.949 79.2026C176.949 77.6811 176.695 76.4132 176.315 75.5256C175.808 74.6381 175.047 74.1309 173.906 74.1309C173.272 74.1309 172.638 74.2577 172.258 74.5113C171.751 74.7649 171.37 75.1453 171.117 75.7792V82.626C171.37 83.1332 171.751 83.5136 172.258 83.7672C172.765 84.0207 173.272 84.1475 174.033 84.1475C175.174 84.1475 175.935 83.7671 176.315 83.0064C176.822 82.2456 176.949 81.1045 176.949 79.583V79.2026Z" fill="black"/>
<path d="M191.023 87.4441C188.741 87.4441 186.839 86.6834 185.444 85.1618C184.049 83.6403 183.416 81.7385 183.416 79.4562V78.8222C183.416 76.4132 184.049 74.5113 185.317 72.9898C186.585 71.4683 188.36 70.7075 190.643 70.7075C192.798 70.7075 194.446 71.3415 195.714 72.6094C196.856 73.8773 197.489 75.6524 197.489 77.9347V80.3437H187.853V80.4705C187.98 81.4849 188.234 82.3724 188.868 83.1332C189.502 83.7671 190.389 84.1475 191.403 84.1475C192.418 84.1475 193.179 84.0207 193.812 83.8939C194.446 83.6403 195.08 83.3867 195.841 83.0064L196.982 85.669C196.348 86.1762 195.461 86.6834 194.446 87.0637C193.432 87.1905 192.291 87.4441 191.023 87.4441ZM190.643 74.1309C189.882 74.1309 189.248 74.3845 188.741 75.0185C188.234 75.6524 187.98 76.4132 187.853 77.4275V77.5543H193.179V77.1739C193.179 76.2864 192.925 75.5256 192.545 75.0185C192.164 74.3845 191.53 74.1309 190.643 74.1309Z" fill="black"/>
<path d="M208.393 74.7649H206.745C206.111 74.7649 205.604 74.8917 205.096 75.1453C204.716 75.3989 204.336 75.7793 204.209 76.2864V87.0638H199.898V71.0879H203.955L204.209 73.497C204.589 72.6094 205.096 71.9755 205.73 71.5951C206.364 71.0879 206.998 70.8344 207.759 70.8344H208.393C208.52 70.8344 208.773 70.9611 208.9 70.9611L208.393 74.7649Z" fill="black"/>
<path d="M219.044 74.7649H217.395C216.761 74.7649 216.254 74.8917 215.747 75.1453C215.367 75.3989 214.986 75.7793 214.86 76.2864V87.0638H210.549V71.0879H214.606L214.86 73.497C215.24 72.6094 215.747 71.9755 216.381 71.5951C217.015 71.0879 217.649 70.8344 218.41 70.8344H219.044C219.17 70.8344 219.424 70.9611 219.551 70.9611L219.044 74.7649Z" fill="black"/>
<path d="M227.412 80.3441L227.539 81.2316H227.665L230.708 71.0882H235.4L228.933 89.4731C228.426 90.6142 227.919 91.6286 227.032 92.3893C226.271 93.1501 225.13 93.5305 223.481 93.5305C223.101 93.5305 222.721 93.5305 222.467 93.4037C222.213 93.4037 221.833 93.2769 221.326 93.1501L221.833 89.9803H222.213H222.594C223.355 89.9803 223.862 89.8535 224.242 89.4731C224.622 89.0927 224.876 88.7123 225.13 88.2052L225.637 86.9373L219.931 70.9614H224.622L227.412 80.3441Z" fill="black"/>
<path d="M249.347 79.3294V87.1906H245.036V65.6359H253.658C256.194 65.6359 258.096 66.2698 259.49 67.5377C260.885 68.8057 261.646 70.454 261.646 72.4826C261.646 74.5113 260.885 76.1596 259.49 77.4275C258.096 78.6955 256.067 79.3294 253.658 79.3294H249.347ZM249.347 75.906H253.658C254.926 75.906 255.813 75.5257 256.447 74.8917C257.081 74.2577 257.335 73.3702 257.335 72.3559C257.335 71.3415 257.081 70.454 256.447 69.82C255.813 69.186 254.926 68.8057 253.658 68.8057H249.347V75.906Z" fill="black"/>
<path d="M269 67.2841H264.689V63.9875H269V67.2841ZM269 87.0637H264.689V71.0879H269V87.0637Z" fill="black"/>
</svg>
