<svg width="314" height="156" viewBox="0 0 314 156" fill="none" xmlns="http://www.w3.org/2000/svg">
<g filter="url(#filter0_d)">
<rect x="5" y="5" width="304" height="146" fill="white"/>
</g>
<path d="M53.8883 46.0382C53.5079 46.0382 53.2543 46.165 52.7472 46.4186C51.7328 46.0382 50.8453 45.9114 49.9577 46.6722C48.6898 46.5454 48.1826 46.799 47.929 47.3061C47.6755 47.3061 45.7736 47.0526 44.886 48.3205C42.7306 48.0669 42.0966 49.5884 42.8574 50.9831C42.477 51.6171 41.9698 52.3778 42.9841 53.6458C42.6038 54.4065 42.8574 55.1673 43.7449 56.0548C43.4913 57.0691 43.9985 57.7031 44.7592 58.3371C44.6324 59.7318 46.0272 60.4925 46.4075 60.7461C46.5343 61.5069 46.9147 62.2676 48.563 62.648C48.8166 63.7891 49.8309 64.0427 50.7185 64.2963C47.5487 66.0714 44.886 68.4805 44.886 74.1861L44.3789 74.9469C40.8287 77.1023 37.5321 83.9491 42.6038 89.6548C42.9841 91.4299 43.4913 92.6978 43.9985 94.0925C44.7592 99.6714 49.5773 102.334 50.8453 102.714C52.7472 104.109 54.649 105.377 57.3117 106.391C59.8475 108.927 62.5102 109.942 65.2996 109.942H65.4264C68.2158 109.942 70.8785 108.927 73.4143 106.391C76.0769 105.504 78.1056 104.109 79.8807 102.714C81.1486 102.461 85.9667 99.7982 86.7275 94.0925C87.2347 92.6978 87.7418 91.4299 88.1222 89.6548C93.1939 84.0759 89.8973 77.1023 86.3471 74.9469L85.8399 74.1861C85.8399 68.3537 83.1773 66.0714 80.0075 64.2963C80.895 64.0427 81.9094 63.7891 82.163 62.648C83.8113 62.2676 84.0648 61.5069 84.3184 60.7461C84.6988 60.4925 86.2203 59.605 85.9667 58.3371C86.7275 57.8299 87.2347 57.0691 86.9811 56.0548C87.8686 55.1673 88.1222 54.4065 87.7418 53.6458C88.7562 52.3778 88.3758 51.7439 87.8686 50.9831C88.6294 49.5884 87.9954 48.0669 85.8399 48.3205C84.9524 47.0526 83.1773 47.3061 82.7969 47.3061C82.4165 46.9258 82.0362 46.5454 80.7682 46.6722C79.8807 45.9114 78.9932 46.0382 77.9788 46.4186C76.8377 45.531 76.0769 46.2918 75.1894 46.5454C73.7947 46.0382 73.4143 46.6722 72.7803 46.9258C71.2588 46.5454 70.7517 47.3061 69.9909 48.0669H69.1034C66.8211 49.4616 65.68 52.1242 65.1728 53.519C64.7924 52.1242 63.6513 49.3348 61.2422 48.0669H60.3547C59.5939 47.3061 59.2136 46.6722 57.5653 46.9258C56.9313 46.6722 56.5509 46.0382 55.1562 46.5454C55.0294 46.2918 54.5222 45.9114 53.8883 46.0382Z" fill="black"/>
<path d="M49.3237 51.8707C55.4098 55.0405 59.0868 57.5764 60.9886 59.605C59.9743 63.5356 54.7758 63.7892 52.8739 63.6624C53.2543 63.5356 53.6347 63.282 53.7615 62.9016C53.2543 62.5213 51.606 62.9016 50.3381 62.2677C50.8452 62.1409 50.972 62.1409 51.2256 61.7605C50.0845 61.3801 48.9434 61.1265 48.1826 60.4926C48.563 60.4926 48.9434 60.6194 49.4505 60.239C48.4362 59.7318 47.4219 59.2247 46.5343 58.4639C47.0415 58.4639 47.6754 58.4639 47.8022 58.2103C46.9147 57.7032 46.1539 57.0692 45.52 56.3084C46.2807 56.4352 46.5343 56.3084 46.7879 56.1816C46.1539 55.4209 45.2664 54.9137 44.7592 54.0262C45.2664 54.153 45.7736 54.2798 46.1539 54.0262C45.9004 53.519 44.886 53.1386 44.3788 51.9975C44.886 51.9975 45.52 52.1243 45.6468 51.9975C45.3932 50.9832 44.886 50.3492 44.5056 49.7152C45.7736 49.7152 47.5487 49.7152 47.4219 49.5885L46.6611 48.8277C47.8022 48.5741 49.0702 48.8277 49.9577 49.2081C50.3381 48.9545 49.9577 48.5741 49.4505 48.0669C50.4649 48.1937 51.3524 48.4473 52.24 48.7009C52.6203 48.3205 51.9864 47.9402 51.606 47.5598C53.1275 47.8134 53.8883 48.3205 54.5222 48.7009C55.0294 48.1937 54.5222 47.8134 54.2686 47.433C55.4098 47.8134 56.0437 48.4473 56.6777 48.9545C56.9313 48.7009 57.1849 48.4473 56.8045 47.8134C57.692 48.3205 58.326 48.8277 58.7064 49.4617C59.2135 49.0813 58.96 48.7009 58.96 48.3205C59.8475 48.9545 60.3547 49.7152 61.1154 50.476C61.2422 50.3492 61.369 50.0956 61.4958 49.5885C63.5245 51.6171 66.4407 56.562 62.2566 58.4639C58.4528 55.6745 54.1418 53.519 49.3237 51.8707Z" fill="#6CC64A"/>
<path d="M81.9094 51.8707C75.8234 55.0405 72.1464 57.5764 70.2445 59.605C71.2588 63.5356 76.4573 63.7892 78.3592 63.6624C77.9788 63.5356 77.5984 63.282 77.4717 62.9016C77.9788 62.5213 79.6271 62.9016 80.895 62.2677C80.3879 62.1409 80.2611 62.1409 80.0075 61.7605C81.1486 61.3801 82.2898 61.1265 83.0505 60.4926C82.6701 60.4926 82.2898 60.6194 81.7826 60.239C82.7969 59.7318 83.8113 59.2247 84.6988 58.4639C84.1916 58.4639 83.5577 58.4639 83.4309 58.2103C84.3184 57.7032 85.0792 57.0692 85.7132 56.3084C84.9524 56.4352 84.6988 56.3084 84.4452 56.1816C85.0792 55.4209 85.9667 54.9137 86.4739 54.0262C85.9667 54.153 85.4596 54.2798 85.0792 54.0262C85.3328 53.519 86.3471 53.1386 86.8543 51.9975C86.3471 51.9975 85.7131 52.1243 85.5864 51.9975C85.8399 50.9832 86.3471 50.3492 86.7275 49.7152C85.4596 49.7152 83.6845 49.7152 83.8113 49.5885L84.572 48.8277C83.4309 48.5741 82.163 48.8277 81.2754 49.2081C80.895 48.9545 81.2754 48.4473 81.7826 48.0669C80.7682 48.1937 79.8807 48.4473 78.9932 48.7009C78.6128 48.3205 79.2467 47.9402 79.6271 47.5598C78.1056 47.8134 77.3449 48.3205 76.7109 48.7009C76.2037 48.1937 76.7109 47.8134 76.9645 47.433C75.8233 47.8134 75.1894 48.4473 74.5554 48.9545C74.3018 48.7009 74.0483 48.4473 74.4286 47.8134C73.5411 48.3205 72.9071 48.8277 72.5268 49.4617C72.0196 49.0813 72.2732 48.7009 72.2732 48.3205C71.5124 49.0813 71.0052 49.842 70.2445 50.6028C70.1177 50.476 69.9909 50.2224 69.8641 49.7152C67.8354 51.7439 64.9192 56.6888 69.1034 58.5907C72.7803 55.6745 77.0913 53.519 81.9094 51.8707Z" fill="#6CC64A"/>
<path d="M73.0342 92.1906C73.0342 95.8675 69.7376 98.9106 65.6802 98.9106C61.6229 98.9106 58.3263 95.9943 58.3263 92.3174C58.3263 92.3174 58.3263 92.3174 58.3263 92.1906C58.3263 88.5136 61.6229 85.4706 65.6802 85.4706C69.7376 85.4706 73.0342 88.3868 73.0342 92.1906Z" fill="#C51A4A"/>
<path d="M61.4961 73.0452C64.5391 75.0739 65.0463 79.5116 62.764 83.0618C60.355 86.612 56.044 87.8799 53.001 85.8512C49.958 83.8226 49.4508 79.3848 51.7331 75.8346C54.1422 72.4112 58.4531 71.1433 61.4961 73.0452Z" fill="#C51A4A"/>
<path d="M69.7374 72.7915C66.6944 74.8202 66.1872 79.2579 68.4695 82.8081C70.8785 86.3583 75.1895 87.6262 78.2325 85.5976C81.2755 83.5689 81.7827 79.1312 79.5004 75.581C77.2182 72.0308 72.7804 70.7629 69.7374 72.7915Z" fill="#C51A4A"/>
<path d="M46.5347 76.3416C49.8313 75.4541 47.6759 89.7816 45.0132 88.6405C41.9702 86.2314 41.0827 79.3846 46.5347 76.3416Z" fill="#C51A4A"/>
<path d="M84.572 76.0881C81.2754 75.2005 83.4308 89.5281 86.0935 88.3869C89.0097 86.1047 90.024 79.2579 84.572 76.0881Z" fill="#C51A4A"/>
<path d="M73.5417 65.4375C79.2474 64.55 83.9387 67.8466 83.8119 73.9326C83.5583 76.2149 71.3862 65.8179 73.5417 65.4375Z" fill="#C51A4A"/>
<path d="M57.8193 65.3108C52.1137 64.4233 47.4223 67.7199 47.5491 73.8059C47.8027 76.0882 59.848 65.6912 57.8193 65.3108Z" fill="#C51A4A"/>
<path d="M65.6804 63.9159C62.2571 63.7891 59.0872 66.4518 59.0872 67.8465C59.0872 69.6216 61.7499 71.5235 65.8072 71.5235C69.8646 71.5235 72.5272 70.002 72.5272 68.2269C72.4004 66.0714 68.5967 63.9159 65.6804 63.9159Z" fill="#C51A4A"/>
<path d="M65.934 100.939C68.8502 100.813 72.9076 101.827 72.9076 103.348C72.9076 104.743 69.3574 107.786 65.8072 107.786C62.1302 107.913 58.58 104.87 58.58 103.729C58.4532 102.081 63.0178 100.939 65.934 100.939Z" fill="#C51A4A"/>
<path d="M54.903 92.5712C57.0585 95.1071 57.946 99.418 56.171 100.686C54.5227 101.7 50.4653 101.32 47.5491 97.2626C45.6472 93.8392 45.9008 90.4158 47.1687 89.4014C49.451 88.1335 52.494 89.7818 54.903 92.5712Z" fill="#C51A4A"/>
<path d="M76.2042 91.8105C73.9219 94.4731 72.654 99.2912 74.3023 100.813C75.9506 101.954 80.1348 101.827 83.3046 97.5161C85.5868 94.5999 84.8261 89.7818 83.5582 88.5139C81.5295 86.9924 78.74 88.8942 76.2042 91.8105Z" fill="#C51A4A"/>
<path d="M107.268 83.442V92.0638H102.957V70.5092H111.072C113.481 70.5092 115.509 71.0163 116.904 72.1575C118.299 73.2986 118.933 74.8201 118.933 76.8488C118.933 77.9899 118.679 78.8774 118.045 79.765C117.411 80.5257 116.651 81.1597 115.509 81.6669C116.777 82.0473 117.665 82.6812 118.299 83.5688C118.806 84.4563 119.186 85.5974 119.186 86.8654V88.5137C119.186 89.1476 119.313 89.7816 119.44 90.4155C119.567 91.0495 119.82 91.5567 120.328 91.9371V92.1906H115.89C115.509 91.937 115.256 91.3031 115.129 90.5423C115.002 89.7816 115.002 89.1476 115.002 88.3869V86.8654C115.002 85.7242 114.749 84.9635 114.115 84.3295C113.481 83.6955 112.72 83.442 111.579 83.442H107.268ZM107.268 80.1454H110.945C112.213 80.1454 113.1 79.8918 113.608 79.3846C114.242 78.8774 114.495 78.1167 114.495 77.1024C114.495 76.088 114.242 75.3273 113.608 74.6933C112.974 74.0593 112.086 73.8058 110.945 73.8058H107.141V80.1454H107.268Z" fill="black"/>
<path d="M132.119 92.0639C131.992 91.6836 131.865 91.3032 131.739 90.9228C131.612 90.5424 131.485 90.162 131.485 89.6549C130.978 90.4156 130.471 91.0496 129.71 91.5568C128.949 92.0639 128.062 92.3175 127.047 92.3175C125.399 92.3175 124.131 91.9371 123.117 91.0496C122.229 90.162 121.722 89.0209 121.722 87.4994C121.722 85.9779 122.356 84.71 123.497 83.8224C124.765 82.9349 126.413 82.5545 128.822 82.5545H131.231V81.2866C131.231 80.5258 130.978 79.8919 130.598 79.5115C130.217 79.1311 129.583 78.8775 128.822 78.8775C128.062 78.8775 127.554 79.0043 127.174 79.3847C126.794 79.7651 126.54 80.1455 126.54 80.7794H122.356V80.6526C122.229 79.2579 122.863 78.1168 124.131 77.1024C125.399 76.0881 127.047 75.5809 129.076 75.5809C130.978 75.5809 132.499 76.0881 133.767 77.1024C134.908 78.1168 135.542 79.5115 135.542 81.2866V87.8798C135.542 88.6405 135.542 89.4013 135.669 90.0353C135.796 90.6692 135.923 91.3032 136.176 92.0639H132.119ZM128.062 89.2745C128.822 89.2745 129.456 89.1477 130.09 88.7673C130.724 88.387 131.105 88.0066 131.231 87.4994V85.2171H128.822C127.935 85.2171 127.174 85.4707 126.794 85.8511C126.287 86.3583 126.033 86.8654 126.033 87.4994C126.033 88.0066 126.16 88.5137 126.54 88.7673C127.047 89.0209 127.428 89.2745 128.062 89.2745Z" fill="black"/>
<path d="M147.588 87.7528C147.588 87.2457 147.334 86.8653 146.954 86.4849C146.447 86.1045 145.686 85.8509 144.418 85.5974C142.516 85.217 141.121 84.583 140.107 83.8223C139.093 83.0615 138.712 82.0472 138.712 80.7793C138.712 79.3845 139.346 78.2434 140.487 77.2291C141.629 76.2147 143.15 75.8344 145.179 75.8344C147.207 75.8344 148.856 76.3415 150.124 77.2291C151.392 78.2434 151.899 79.3845 151.899 80.906V81.0328H147.715C147.715 80.3989 147.461 79.8917 147.081 79.5113C146.7 79.131 146.066 78.8774 145.306 78.8774C144.545 78.8774 144.038 79.0042 143.657 79.3845C143.277 79.7649 143.023 80.1453 143.023 80.6525C143.023 81.1596 143.277 81.54 143.657 81.9204C144.038 82.174 144.925 82.5543 146.193 82.8079C148.222 83.1883 149.616 83.8223 150.631 84.583C151.645 85.3438 152.026 86.3581 152.026 87.7528C152.026 89.1475 151.392 90.4155 150.124 91.303C148.856 92.1906 147.207 92.6977 145.179 92.6977C143.023 92.6977 141.375 92.1906 140.107 91.0494C138.839 89.9083 138.332 88.7672 138.332 87.3724V87.2457H142.263C142.263 88.1332 142.516 88.7672 143.15 89.1475C143.657 89.5279 144.418 89.7815 145.179 89.7815C145.94 89.7815 146.573 89.6547 146.954 89.2743C147.461 88.6404 147.588 88.26 147.588 87.7528Z" fill="black"/>
<path d="M169.142 84.583C169.142 86.9921 168.635 88.894 167.494 90.2887C166.353 91.6834 164.831 92.4442 162.93 92.4442C162.042 92.4442 161.281 92.3174 160.647 91.937C160.013 91.6834 159.379 91.1762 158.999 90.5423V98.2766H154.688V76.088H158.619L158.872 77.9898C159.379 77.2291 159.887 76.7219 160.647 76.3415C161.281 75.9612 162.042 75.7076 162.93 75.7076C164.958 75.7076 166.48 76.4683 167.494 77.9898C168.635 79.5113 169.142 81.54 169.142 84.0759V84.583ZM164.705 84.2027C164.705 82.6812 164.451 81.4132 163.944 80.5257C163.437 79.6381 162.676 79.131 161.662 79.131C161.028 79.131 160.394 79.2578 160.013 79.5113C159.506 79.7649 159.253 80.1453 158.872 80.6525V87.7528C159.126 88.26 159.506 88.5136 160.013 88.7672C160.521 89.0208 161.028 89.1476 161.662 89.1476C162.676 89.1476 163.437 88.7672 163.944 87.8796C164.451 87.1189 164.705 85.9778 164.705 84.583V84.2027Z" fill="black"/>
<path d="M186.26 84.5829C186.26 86.992 185.753 88.8939 184.612 90.2886C183.597 91.6833 181.949 92.4441 180.047 92.4441C179.16 92.4441 178.272 92.1905 177.638 91.8101C177.004 91.4297 176.37 90.7958 175.863 90.035L175.483 92.0637H171.806V68.9875H176.117V77.7362C176.624 77.1022 177.131 76.595 177.765 76.2146C178.399 75.8343 179.16 75.7075 180.047 75.7075C182.076 75.7075 183.597 76.4682 184.738 77.9897C185.753 79.5112 186.387 81.5399 186.387 84.0758V84.5829H186.26ZM181.949 84.2026C181.949 82.6811 181.695 81.4131 181.315 80.5256C180.808 79.638 180.047 79.1309 178.906 79.1309C178.272 79.1309 177.638 79.2577 177.258 79.5112C176.751 79.7648 176.37 80.1452 176.117 80.7792V87.626C176.37 88.1331 176.751 88.5135 177.258 88.7671C177.765 89.0207 178.272 89.1475 179.033 89.1475C180.174 89.1475 180.935 88.7671 181.315 88.0063C181.822 87.2456 181.949 86.1044 181.949 84.5829V84.2026Z" fill="black"/>
<path d="M196.023 92.4442C193.741 92.4442 191.839 91.6834 190.444 90.1619C189.049 88.6404 188.415 86.7385 188.415 84.4563V83.8223C188.415 81.4132 189.049 79.5113 190.317 77.9898C191.585 76.4683 193.36 75.7076 195.643 75.7076C197.798 75.7076 199.446 76.3415 200.714 77.6095C201.855 78.8774 202.489 80.6525 202.489 82.9347V85.3438H192.853V85.4706C192.98 86.4849 193.234 87.3725 193.867 88.1332C194.501 88.7672 195.389 89.1476 196.403 89.1476C197.418 89.1476 198.178 89.0208 198.812 88.894C199.446 88.6404 200.08 88.3868 200.841 88.0064L201.982 90.6691C201.348 91.1762 200.461 91.6834 199.446 92.0638C198.432 92.1906 197.291 92.4442 196.023 92.4442ZM195.643 79.131C194.882 79.131 194.248 79.3846 193.741 80.0185C193.234 80.6525 192.98 81.4132 192.853 82.4276V82.5544H198.178V82.174C198.178 81.2864 197.925 80.5257 197.544 80.0185C197.164 79.3846 196.53 79.131 195.643 79.131Z" fill="black"/>
<path d="M213.393 79.7649H211.745C211.111 79.7649 210.603 79.8917 210.096 80.1453C209.716 80.3989 209.336 80.7793 209.209 81.2864V92.0638H204.898V76.0879H208.955L209.209 78.497C209.589 77.6094 210.096 76.9755 210.73 76.5951C211.364 76.0879 211.998 75.8344 212.759 75.8344H213.393C213.52 75.8344 213.773 75.9611 213.9 75.9611L213.393 79.7649Z" fill="black"/>
<path d="M224.044 79.7649H222.395C221.761 79.7649 221.254 79.8917 220.747 80.1453C220.367 80.3989 219.986 80.7793 219.86 81.2864V92.0638H215.549V76.0879H219.606L219.86 78.497C220.24 77.6094 220.747 76.9755 221.381 76.5951C222.015 76.0879 222.649 75.8344 223.41 75.8344H224.044C224.171 75.8344 224.424 75.9611 224.551 75.9611L224.044 79.7649Z" fill="black"/>
<path d="M232.412 85.3441L232.539 86.2317H232.665L235.708 76.0883H240.4L233.933 94.4732C233.426 95.6143 232.919 96.6286 232.031 97.3894C231.271 98.1501 230.13 98.5305 228.481 98.5305C228.101 98.5305 227.721 98.5305 227.467 98.4037C227.213 98.4037 226.833 98.2769 226.326 98.1501L226.833 94.9803H227.213H227.594C228.354 94.9803 228.862 94.8535 229.242 94.4732C229.622 94.0928 229.876 93.7124 230.13 93.2052L230.637 91.9373L224.931 75.9615H229.622L232.412 85.3441Z" fill="black"/>
<path d="M254.347 84.3294V92.1906H250.036V70.6359H258.658C261.194 70.6359 263.096 71.2698 264.49 72.5377C265.885 73.8057 266.646 75.454 266.646 77.4826C266.646 79.5113 265.885 81.1596 264.49 82.4275C263.096 83.6955 261.067 84.3294 258.658 84.3294H254.347ZM254.347 80.906H258.658C259.926 80.906 260.813 80.5257 261.447 79.8917C262.081 79.2577 262.335 78.3702 262.335 77.3559C262.335 76.3415 262.081 75.454 261.447 74.82C260.813 74.186 259.926 73.8057 258.658 73.8057H254.347V80.906Z" fill="black"/>
<path d="M274 72.2841H269.689V68.9875H274V72.2841ZM274 92.0637H269.689V76.0879H274V92.0637Z" fill="black"/>
<defs>
<filter id="filter0_d" x="0" y="0" width="314" height="156" filterUnits="userSpaceOnUse" color-interpolation-filters="sRGB">
<feFlood flood-opacity="0" result="BackgroundImageFix"/>
<feColorMatrix in="SourceAlpha" type="matrix" values="0 0 0 0 0 0 0 0 0 0 0 0 0 0 0 0 0 0 127 0"/>
<feOffset/>
<feGaussianBlur stdDeviation="2.5"/>
<feColorMatrix type="matrix" values="0 0 0 0 0 0 0 0 0 0 0 0 0 0 0 0 0 0 0.2 0"/>
<feBlend mode="normal" in2="BackgroundImageFix" result="effect1_dropShadow"/>
<feBlend mode="normal" in="SourceGraphic" in2="effect1_dropShadow" result="shape"/>
</filter>
</defs>
</svg>
