<svg width="70" height="30" viewBox="0 0 70 30" fill="none" xmlns="http://www.w3.org/2000/svg">
<path d="M14.927 10.3409C17.8621 10.3206 23.305 5.08346 27.4235 0.355118C27.2821 0.234845 27.1391 0.116462 26.9946 0C23.0969 3.78645 17.8679 7.9577 14.9113 7.97712C11.8131 7.99821 6.81397 3.97011 2.91021 0.0113748C2.77278 0.121517 2.63699 0.233879 2.50342 0.347627C6.46651 5.18334 11.7184 10.362 14.927 10.3409Z" fill="#6CAD2F"/>
<path d="M10.2914 15.0656C10.2707 12.1148 5.05819 6.64544 0.353256 2.50748C0.233204 2.64952 0.11536 2.79324 0 2.93834C3.76825 6.8549 7.91929 12.1095 7.94082 15.0817C7.9629 18.1968 3.95758 23.2236 0.0215265 27.1496C0.131919 27.2875 0.243416 27.4237 0.35712 27.5586C5.16527 23.5724 10.3145 18.2905 10.2919 15.0656H10.2914Z" fill="#CF2353"/>
<path d="M19.5694 14.9596C19.5812 17.9104 24.7771 23.3959 29.4694 27.548C29.5895 27.4064 29.7077 27.263 29.8237 27.118C26.0676 23.1909 21.9326 17.9232 21.9207 14.9507C21.9083 11.8357 25.9285 6.82131 29.8773 2.90724C29.7677 2.76935 29.6565 2.63258 29.5433 2.49747C24.7225 6.46869 19.5569 11.7341 19.5694 14.9599V14.9596Z" fill="#F9CE00"/>
<path d="M15.0153 19.6613C12.0803 19.6808 6.63654 24.9171 2.51807 29.6449C2.65882 29.7656 2.80178 29.8835 2.94667 30C6.84463 26.2141 12.0745 22.0437 15.0311 22.0245C18.1295 22.004 23.1275 26.0329 27.0308 29.9925C27.1682 29.8824 27.304 29.7697 27.4378 29.656C23.4747 24.8197 18.2239 19.6405 15.0153 19.6613Z" fill="#0097D2"/>
<path d="M33.7175 18.0453C34.3523 18.4878 35.1664 18.8315 36.1439 18.8315C37.0398 18.8315 37.9351 18.4875 37.9351 17.5545C37.9351 15.4432 33.2942 15.7051 33.2942 12.4147C33.2942 10.8267 34.5479 9.43506 36.779 9.43506C37.8857 9.43506 38.8141 9.68114 39.4008 9.9755V11.7766C38.5535 11.3344 37.6905 11.0886 36.8436 11.0886C36.0943 11.0886 35.3781 11.3835 35.3781 12.251C35.3781 14.2319 40.019 13.9698 40.019 17.3911C40.019 19.3065 38.3907 20.4845 36.1922 20.4845C34.9385 20.4845 33.7658 20.125 32.9517 19.5523L33.7172 18.0464L33.7175 18.0453ZM44.2037 11.1371H41.0768V9.53355H49.545L49.04 11.1371H46.1582V20.3214H44.2043V11.1371H44.2037ZM50.8797 9.53355H56.8072L56.2862 11.1371H52.8336V14.0189H56.2696V15.623H52.8336V18.7164H56.8238V20.3205H50.8791V9.53355H50.8797ZM59.0537 9.53355H60.8288L63.6461 13.6091C64.0203 14.1659 64.2974 14.5751 64.5416 15.001H64.5742C64.8495 14.5046 65.1429 14.0186 65.4537 13.5439L68.0264 9.53327H69.8176V20.3208H67.847V14.2311C67.847 13.7891 67.847 13.2323 67.8796 12.8067H67.8473C67.701 13.1175 67.31 13.7234 67.1146 14.018L64.9978 17.3251H64.102L61.757 13.9359C61.529 13.6085 61.2354 13.2323 61.0242 12.8234H60.9917C61.0082 13.2487 61.0082 13.8055 61.0082 14.1817V20.3205H59.0543V9.53355H59.0537ZM32.9823 23.1429H33.5762V27.075H35.1852V27.565H32.9823V23.1429ZM35.6381 23.1429H37.8608L37.687 23.6329H36.2317V25.0555H37.6668V25.5522H36.2317V27.0753H37.887V27.565H35.6378V23.1426L35.6381 23.1429ZM39.7888 23.1296H40.216L41.9244 27.5647H41.2907L40.8569 26.4039H39.1549L38.7277 27.5647H38.1136L39.7888 23.1296ZM40.6698 25.9142L40.2627 24.7601L40.0154 24.0221H40.0022C39.9552 24.183 39.8818 24.3911 39.7483 24.767L39.3343 25.9145H40.67L40.6698 25.9142ZM42.3237 23.1426H43.3186C43.7657 23.1426 44.0665 23.2231 44.2928 23.3576C44.6869 23.579 44.8536 23.9616 44.8536 24.3642C44.8536 24.9745 44.5197 25.3574 43.9727 25.525V25.5388C44.1063 25.6124 44.2735 25.854 44.507 26.2496L45.288 27.5647H44.5942L43.8734 26.3367C43.6664 25.9678 43.4997 25.7663 43.373 25.7328H42.919V27.5638H42.3251V23.1432L42.3237 23.1426ZM43.3117 25.2428C43.5455 25.2428 43.7191 25.1957 43.8794 25.1022C44.0997 24.9812 44.2399 24.7465 44.2399 24.4247C44.2399 24.1694 44.146 23.955 43.9595 23.8143C43.8262 23.7136 43.6255 23.6329 43.3186 23.6329H42.9185V25.2434H43.312L43.3117 25.2428ZM45.7807 23.1426H46.3547L48.3437 25.7466C48.5522 26.0138 48.7503 26.2889 48.9376 26.5715H48.9514C48.9376 26.3301 48.9376 26.1151 48.9376 25.8002V23.1423H49.5255V27.5647H49.0113L46.9486 24.8602C46.7483 24.5991 46.5546 24.3329 46.368 24.0618H46.3542C46.368 24.2698 46.3743 24.4846 46.3743 24.7997V27.5644H45.7804V23.1421L45.7807 23.1426ZM50.3915 23.1426H50.9854V27.565H50.3915V23.1426ZM51.8525 23.1426H52.4266L54.4156 25.7466C54.6241 26.0138 54.8222 26.2889 55.0095 26.5715H55.0233C55.0095 26.3301 55.0095 26.1151 55.0095 25.8002V23.1423H55.5973V27.5647H55.0835L53.0205 24.8602C52.82 24.5991 52.6262 24.3328 52.4393 24.0618H52.4255C52.4393 24.2698 52.4456 24.4846 52.4456 24.7997V27.5644H51.8517V23.1421L51.8525 23.1426ZM59.9617 27.2895C59.6344 27.4573 59.0805 27.6318 58.4728 27.6318C57.1177 27.6318 56.2566 26.7127 56.2566 25.4243C56.2566 24.0687 57.1845 23.1027 58.5796 23.1027C59.0868 23.1027 59.5207 23.2231 59.8011 23.3371V23.8939C59.4326 23.7073 59.0256 23.6108 58.613 23.612C57.498 23.612 56.8842 24.3367 56.8842 25.3702C56.8842 26.4438 57.5176 27.1213 58.5255 27.1213C58.8727 27.1213 59.1796 27.0548 59.3733 26.9604V25.4584H59.9611V27.2895H59.9617Z" fill="#747678"/>
</svg>
