<svg xmlns="http://www.w3.org/2000/svg" xmlns:xlink="http://www.w3.org/1999/xlink" width="279" height="120"><defs><path id="a" d="M0 0h279v119.099H0z"/></defs><g fill="none" fill-rule="evenodd"><mask id="b" fill="#fff"><use xlink:href="#a"/></mask><g fill-rule="nonzero" mask="url(#b)"><path fill="#489C22" d="M59.654 41.053c11.729-.08 33.48-20.873 49.94-39.643A96.413 96.413 0 0 0 107.88 0C92.304 15.031 71.408 31.592 59.59 31.67 47.209 31.751 27.23 15.762 11.63.046a59.5 59.5 0 0 0-1.626 1.335C25.841 20.58 46.83 41.14 59.651 41.056"/><path fill="#DC0C43" d="M41.129 59.81C41.046 48.094 20.216 26.382 1.412 9.954.93 10.518.46 11.087 0 11.664c15.06 15.563 31.649 36.41 31.735 48.21C31.824 72.24 15.818 92.195.086 107.79c.442.554.89 1.095 1.342 1.623C20.644 93.59 41.223 72.62 41.132 59.818l-.003-.008Z"/><path fill="#FFBF00" d="M78.206 59.389c.047 11.716 20.802 33.491 39.565 49.974.48-.554.953-1.122 1.417-1.706-15.016-15.59-31.552-36.502-31.588-48.304-.05-12.367 16.017-32.273 31.799-47.811a58.434 58.434 0 0 0-1.334-1.626C98.797 25.678 78.153 46.58 78.205 59.389Z"/><path fill="#00A3D4" d="M60.003 78.054c-11.73.078-33.485 20.864-49.943 39.635.554.478 1.126.948 1.714 1.41 15.579-15.032 36.477-31.575 48.293-31.661 12.381-.08 32.356 15.912 47.955 31.633a50.447 50.447 0 0 0 1.625-1.338C93.81 98.533 72.825 77.973 60 78.057"/><path fill="#3E4042" d="M239.621 108.336a13.797 13.797 0 0 1-5.952 1.36 8.358 8.358 0 0 1-6.395-2.4 8.333 8.333 0 0 1-2.46-6.364 8.801 8.801 0 0 1 2.591-6.666 8.827 8.827 0 0 1 6.691-2.549 13.33 13.33 0 0 1 4.882.93v2.217a10.488 10.488 0 0 0-4.749-1.108 6.456 6.456 0 0 0-5.07 1.895 6.437 6.437 0 0 0-1.839 5.084 6.287 6.287 0 0 0 1.68 4.982 6.306 6.306 0 0 0 4.88 1.97 8.209 8.209 0 0 0 3.386-.64v-5.993h2.35v7.27l.005.012Zm-32.409-16.464h2.294l7.946 10.34a51.59 51.59 0 0 1 2.374 3.274h.056c-.056-.959-.056-1.812-.056-3.061V91.872h2.35v17.558h-2.053l-8.237-10.739a82.832 82.832 0 0 1-2.322-3.168h-.055c.055.83.08 1.678.08 2.93v10.977h-2.374V91.872h-.003Zm-5.841 0h2.374v17.558h-2.374V91.872Zm-18.425 0h2.294l7.949 10.34a53.092 53.092 0 0 1 2.374 3.274h.056c-.056-.959-.056-1.812-.056-3.061V91.872h2.35v17.558h-2.056l-8.243-10.736a74.752 74.752 0 0 1-2.318-3.168h-.056c.056.83.08 1.678.08 2.93v10.976h-2.37v-17.56h-.004Zm-9.865 8.337a4.295 4.295 0 0 0 2.269-.554 3.207 3.207 0 0 0 .319-5.113 4.123 4.123 0 0 0-2.56-.72h-1.6v6.401h1.572v-.014Zm-3.95-8.337h3.978a7.444 7.444 0 0 1 3.882.853 4.38 4.38 0 0 1 2.242 3.997 4.524 4.524 0 0 1-3.52 4.609v.055a8.629 8.629 0 0 1 2.136 2.823l3.123 5.22h-2.774l-2.879-4.874c-.826-1.464-1.493-2.263-2-2.396h-1.814v7.27h-2.374V91.873Zm-6.615 11.004-1.625-4.58-.987-2.931h-.053c-.189.637-.483 1.465-1.015 2.958l-1.664 4.556h5.344v-.003Zm-3.52-11.054h1.706l6.829 17.608h-2.518l-1.734-4.61h-6.8l-1.71 4.61h-2.454l6.682-17.608Zm-16.588.053h8.875l-.696 1.939h-5.824v5.647h5.736v1.972h-5.706v6.05h6.63v1.938h-8.99V91.875h-.025Zm-10.612 0h2.372v15.61h6.437v1.94h-8.803v-17.55h-.006Zm104.192-54.03h7.092l11.258 16.179c1.495 2.216 2.601 3.836 3.58 5.54h.13a92.71 92.71 0 0 1 3.515-5.787l10.281-15.92H279V80.67h-7.874V56.494c0-1.753 0-3.966.13-5.653h-.127a52.855 52.855 0 0 1-2.926 4.809l-8.46 13.128h-3.58l-9.37-13.452a39.88 39.88 0 0 1-2.928-4.418h-.13c.066 1.69.066 3.9.066 5.393v24.373h-7.786V37.846h-.027Zm-32.667 0h23.689l-2.083 6.371h-13.799v11.44h13.732v6.37h-13.732v12.28h15.946v6.371h-23.756V37.846h.003Zm-26.679 6.371h-12.498v-6.37h33.838l-2.02 6.37h-11.515v36.458h-7.786v-36.46l-.019.002Zm-41.908 27.42a16.876 16.876 0 0 0 9.707 3.122c3.58 0 7.156-1.365 7.156-5.069 0-8.38-18.547-7.342-18.547-20.404 0-6.304 5.012-11.83 13.926-11.83a24.32 24.32 0 0 1 10.476 2.144v7.151a22.279 22.279 0 0 0-10.218-2.73c-2.995 0-5.858 1.171-5.858 4.614 0 7.863 18.547 6.822 18.547 20.407 0 7.603-6.507 12.281-15.293 12.281a23.085 23.085 0 0 1-12.95-3.7l3.05-5.98.004-.005Z"/></g></g></svg>