<svg xmlns="http://www.w3.org/2000/svg" fill="none" width="70" height="30">
      <path fill="#489C22" d="M14.967 10.3c2.943-.02 8.4-5.237 12.53-9.946a24.19 24.19 0 0 0-.43-.354c-3.908 3.771-9.151 7.926-12.116 7.946-3.107.02-8.119-3.991-12.033-7.934-.14.11-.274.221-.408.335 3.973 4.816 9.24 9.975 12.456 9.954"/>
      <path fill="#DC0C43" d="M10.32 15.006c-.022-2.94-5.248-8.387-9.966-12.508-.12.14-.238.284-.354.428 3.779 3.905 7.94 9.136 7.962 12.096.022 3.103-3.993 8.11-7.94 12.022.11.14.223.275.336.407 4.821-3.97 9.985-9.231 9.962-12.443v-.002Z"/>
      <path fill="#FFBF00" d="M19.622 14.9c.011 2.94 5.219 8.403 9.926 12.539.12-.14.24-.282.356-.428-3.768-3.912-7.916-9.159-7.926-12.12-.012-3.102 4.02-8.097 7.979-11.995-.11-.14-.222-.275-.335-.408-4.834 3.955-10.014 9.2-10 12.412Z"/>
      <path fill="#00A3D4" d="M15.055 19.583c-2.943.02-8.402 5.235-12.531 9.945.14.12.282.238.43.353 3.909-3.77 9.152-7.922 12.117-7.943 3.106-.02 8.118 3.992 12.031 7.936.14-.11.275-.221.408-.335-3.973-4.817-9.238-9.976-12.456-9.955"/>
      <path fill="#3E4042" d="M60.12 27.181c-.466.224-.976.34-1.493.341a2.097 2.097 0 0 1-2.222-2.199 2.208 2.208 0 0 1 2.329-2.312c.42 0 .835.08 1.225.234v.556a2.631 2.631 0 0 0-1.192-.278 1.62 1.62 0 0 0-1.733 1.751 1.578 1.578 0 0 0 1.646 1.744 2.06 2.06 0 0 0 .85-.16v-1.504h.589v1.824l.001.003Zm-8.131-4.13h.575l1.994 2.594c.21.265.408.54.596.82h.013c-.013-.24-.013-.454-.013-.767V23.05h.589v4.405h-.515l-2.067-2.694c-.2-.26-.394-.525-.582-.795h-.014c.014.209.02.421.02.736v2.753h-.596V23.05Zm-1.466 0h.596v4.404h-.596V23.05Zm-4.622 0h.575l1.994 2.594c.21.265.408.54.596.82h.014c-.014-.24-.014-.454-.014-.767V23.05h.59v4.405h-.516l-2.068-2.693c-.201-.26-.395-.525-.582-.795h-.014c.014.208.02.421.02.735v2.754h-.595V23.05Zm-2.476 2.091c.2.007.396-.04.57-.139a.804.804 0 0 0 .08-1.283 1.034 1.034 0 0 0-.643-.18h-.401v1.606h.394v-.004Zm-.99-2.092h.997c.338-.018.675.056.974.214.362.202.58.59.563 1.003a1.135 1.135 0 0 1-.883 1.157v.013c.225.197.408.438.535.709l.784 1.31h-.696l-.722-1.224c-.208-.367-.375-.567-.502-.6h-.455v1.823h-.596v-4.404Zm-1.66 2.761-.408-1.15-.248-.734h-.013c-.047.16-.121.367-.255.742l-.417 1.143h1.34Zm-.883-2.773h.428l1.713 4.417H41.4l-.435-1.156H39.26l-.429 1.156h-.616l1.677-4.417Zm-4.162.013h2.226l-.174.487H36.32v1.416h1.44v.495h-1.432v1.518h1.663v.486h-2.255v-4.402h-.006Zm-2.663 0h.595v3.917h1.615v.486H33.07v-4.403h-.002ZM59.208 9.495h1.78l2.824 4.06c.375.555.653.962.899 1.39h.032c.276-.495.57-.979.882-1.452l2.58-3.995H70V20.24h-1.976v-6.066c0-.44 0-.995.033-1.418h-.032c-.223.415-.468.817-.734 1.206l-2.122 3.294h-.899l-2.35-3.375c-.27-.353-.515-.723-.735-1.108h-.033c.017.423.017.978.017 1.353v6.115h-1.954V9.495h-.007Zm-8.196 0h5.944l-.523 1.599h-3.462v2.87h3.446v1.598H52.97v3.081h4v1.599h-5.96V9.495h.001Zm-6.693 1.599h-3.136V9.495h8.49l-.507 1.599h-2.889v9.147h-1.953v-9.148h-.005Zm-10.515 6.88c.712.505 1.562.779 2.436.782.898 0 1.795-.342 1.795-1.271 0-2.103-4.653-1.842-4.653-5.12 0-1.581 1.257-2.968 3.494-2.968a6.102 6.102 0 0 1 2.628.538v1.795a5.59 5.59 0 0 0-2.564-.686c-.751 0-1.47.294-1.47 1.158 0 1.973 4.654 1.712 4.654 5.12 0 1.908-1.632 3.081-3.837 3.081a5.792 5.792 0 0 1-3.249-.928l.765-1.5.001-.002Z"/>
</svg>