<svg width="313" height="156" viewBox="0 0 313 156" fill="none" xmlns="http://www.w3.org/2000/svg">
<g filter="url(#filter0_d)">
<rect x="5" y="5" width="303" height="146" fill="white"/>
</g>
<path d="M103.553 65.4009C111.33 65.3472 125.753 51.47 136.666 38.941C136.291 38.6223 135.912 38.3086 135.529 38C125.201 48.0332 111.346 59.086 103.511 59.1375C95.302 59.1934 82.0555 48.5199 71.7114 38.0301C71.3472 38.322 70.9874 38.6197 70.6335 38.9211C81.1348 51.7346 95.0511 65.4568 103.553 65.4009Z" fill="#6CAD2F"/>
<path d="M91.2697 77.9203C91.2148 70.1013 77.403 55.6088 64.936 44.6442C64.6179 45.0206 64.3057 45.4014 64 45.7858C73.985 56.1638 84.9843 70.0874 85.0413 77.9629C85.0998 86.2171 74.4866 99.5371 64.057 109.94C64.3496 110.305 64.645 110.666 64.9463 111.024C77.6868 100.461 91.3311 86.4656 91.2711 77.9203H91.2697Z" fill="#CF2353"/>
<path d="M115.853 77.6395C115.885 85.4585 129.653 99.9937 142.086 110.996C142.404 110.62 142.717 110.241 143.025 109.856C133.072 99.4504 122.115 85.4923 122.084 77.616C122.051 69.3618 132.704 56.0749 143.167 45.7035C142.877 45.3382 142.582 44.9758 142.282 44.6177C129.508 55.1405 115.82 69.0928 115.853 77.6402V77.6395Z" fill="#F9CE00"/>
<path d="M103.786 90.0979C96.0084 90.1494 81.5837 104.024 70.6708 116.552C71.0437 116.872 71.4225 117.184 71.8064 117.493C82.1351 107.461 95.993 96.4106 103.827 96.3599C112.037 96.3055 125.281 106.981 135.624 117.473C135.988 117.181 136.348 116.883 136.702 116.581C126.201 103.766 112.288 90.0428 103.786 90.0979Z" fill="#0097D2"/>
<path d="M153.343 85.8158C155.025 86.9883 157.183 87.8991 159.773 87.8991C162.147 87.8991 164.519 86.9876 164.519 84.5153C164.519 78.9209 152.222 79.6148 152.222 70.8961C152.222 66.6881 155.544 63.0007 161.456 63.0007C164.388 63.0007 166.848 63.6527 168.403 64.4327V69.2053C166.158 68.0334 163.871 67.3821 161.627 67.3821C159.641 67.3821 157.744 68.1636 157.744 70.4623C157.744 75.7112 170.041 75.0165 170.041 84.0823C170.041 89.1577 165.726 92.2791 159.901 92.2791C156.579 92.2791 153.471 91.3264 151.314 89.809L153.343 85.8187L153.343 85.8158ZM181.129 67.5108H172.844V63.2616H195.283L193.944 67.5108H186.308V91.8468H181.131V67.5108H181.129ZM198.819 63.2616H214.526L213.145 67.5108H203.997V75.1467H213.101V79.3972H203.997V87.5941H214.57V91.8446H198.818V63.2616H198.819ZM220.478 63.2616H225.182L232.647 74.0609C233.639 75.5363 234.373 76.6206 235.02 77.7491H235.106C235.836 76.4338 236.613 75.1459 237.437 73.8881L244.254 63.2609H249V91.8454H243.779V75.709C243.779 74.538 243.779 73.0625 243.865 71.9348H243.779C243.392 72.7582 242.356 74.3637 241.838 75.1445L236.229 83.9073H233.855L227.641 74.9269C227.037 74.0594 226.259 73.0625 225.7 71.9789H225.613C225.657 73.1059 225.657 74.5813 225.657 75.5782V91.8446H220.48V63.2616H220.478ZM151.395 99.3232H152.969V109.742H157.232V111.041H151.395V99.3232ZM158.432 99.3232H164.322L163.861 100.621H160.005V104.391H163.808V105.707H160.005V109.743H164.392V111.041H158.432V99.3225L158.432 99.3232ZM169.431 99.2879H170.563L175.09 111.04H173.411L172.261 107.964H167.751L166.619 111.04H164.992L169.431 99.2879ZM171.765 106.667L170.687 103.608L170.031 101.653H169.996C169.872 102.079 169.677 102.631 169.323 103.627L168.227 106.667H171.766L171.765 106.667ZM176.148 99.3225H178.784C179.969 99.3225 180.766 99.5357 181.366 99.8922C182.41 100.479 182.852 101.493 182.852 102.559C182.852 104.177 181.967 105.191 180.517 105.635V105.672C180.871 105.867 181.314 106.507 181.933 107.555L184.003 111.04H182.164L180.254 107.786C179.706 106.808 179.264 106.275 178.928 106.186H177.725V111.038H176.151V99.324L176.148 99.3225ZM178.766 104.887C179.385 104.887 179.845 104.763 180.27 104.515C180.854 104.194 181.225 103.572 181.225 102.72C181.225 102.043 180.976 101.475 180.482 101.102C180.129 100.835 179.597 100.621 178.784 100.621H177.724V104.889H178.767L178.766 104.887ZM185.308 99.3225H186.829L192.099 106.223C192.652 106.93 193.177 107.659 193.673 108.408H193.71C193.673 107.769 193.673 107.199 193.673 106.364V99.3217H195.231V111.04H193.868L188.403 103.874C187.872 103.182 187.359 102.476 186.864 101.758H186.828C186.864 102.309 186.881 102.878 186.881 103.713V111.039H185.307V99.321L185.308 99.3225ZM197.525 99.3225H199.099V111.041H197.525V99.3225ZM201.397 99.3225H202.918L208.188 106.223C208.741 106.93 209.266 107.659 209.762 108.408H209.799C209.762 107.769 209.762 107.199 209.762 106.364V99.3217H211.32V111.04H209.958L204.492 103.874C203.961 103.182 203.447 102.476 202.952 101.758H202.915C202.952 102.309 202.968 102.878 202.968 103.713V111.039H201.395V99.321L201.397 99.3225ZM222.884 110.311C222.017 110.755 220.549 111.218 218.939 111.218C215.348 111.218 213.067 108.782 213.067 105.368C213.067 101.776 215.525 99.2166 219.222 99.2166C220.566 99.2166 221.716 99.5357 222.459 99.8378V101.313C221.482 100.819 220.404 100.563 219.311 100.566C216.356 100.566 214.73 102.487 214.73 105.225C214.73 108.07 216.408 109.865 219.079 109.865C219.999 109.865 220.812 109.689 221.325 109.439V105.459H222.883V110.311H222.884Z" fill="#747678"/>
<defs>
<filter id="filter0_d" x="0" y="0" width="313" height="156" filterUnits="userSpaceOnUse" color-interpolation-filters="sRGB">
<feFlood flood-opacity="0" result="BackgroundImageFix"/>
<feColorMatrix in="SourceAlpha" type="matrix" values="0 0 0 0 0 0 0 0 0 0 0 0 0 0 0 0 0 0 127 0"/>
<feOffset/>
<feGaussianBlur stdDeviation="2.5"/>
<feColorMatrix type="matrix" values="0 0 0 0 0 0 0 0 0 0 0 0 0 0 0 0 0 0 0.2 0"/>
<feBlend mode="normal" in2="BackgroundImageFix" result="effect1_dropShadow"/>
<feBlend mode="normal" in="SourceGraphic" in2="effect1_dropShadow" result="shape"/>
</filter>
</defs>
</svg>
