<svg width="303px" height="146px" viewBox="0 0 303 146" version="1.1" xmlns="http://www.w3.org/2000/svg" xmlns:xlink="http://www.w3.org/1999/xlink">
  <rect id="Rectangle" fill="#FFFFFF" x="0" y="0" width="303" height="146"></rect>
  <path d="M97.983147,60.5757143 C105.84452,60.5219775 120.423147,46.5551096 131.455477,33.9471112 C131.076179,33.6270006 130.693217,33.3112759 130.306667,33 C119.866839,43.0964744 105.861276,54.2206652 97.9402509,54.2730585 C89.6418746,54.3274671 76.2509319,43.5874944 65.7950179,33.0308987 C65.4264969,33.3233494 65.0631641,33.6223071 64.70519,33.9276316 C75.3199534,46.8237937 89.3878495,60.6341531 97.9811362,60.5779018" id="Path" fill="#489C22"></path>
  <path d="M85.5667491,73.1749805 C85.5111183,65.3052251 71.5497921,50.7210556 58.9463943,39.6862022 C58.6233333,40.0650467 58.3083154,40.4472498 58,40.8348265 C68.0939785,51.2886506 79.2127706,65.2917909 79.2704122,73.2179699 C79.3300645,81.5243369 68.6020287,94.9283117 58.0576416,105.403631 C58.3538925,105.775758 58.6541649,106.139153 58.9571183,106.493816 C71.8366595,95.8653473 85.6297527,81.7795867 85.5689614,73.1803542 L85.5667491,73.1749805 Z" id="Path" fill="#DC0C43"></path>
  <path d="M110.417642,72.8921905 C110.449143,80.7619459 124.360201,95.3884332 136.936118,106.460231 C137.257839,106.088103 137.574867,105.706572 137.885864,105.314293 C127.821376,94.8423328 116.738108,80.7955314 116.713978,72.868009 C116.680466,64.5609703 127.449387,51.1899092 138.027287,40.7528779 C137.735811,40.3834648 137.437724,40.0193389 137.133172,39.6606773 C124.218778,50.2481717 110.382118,64.288256 110.416906,72.8921905 L110.417642,72.8921905 Z" id="Path" fill="#FFBF00"></path>
  <path d="M98.2170645,85.4296594 C90.3550215,85.4820527 75.7737133,99.4442187 64.742724,112.052889 C65.114043,112.373966 65.4974265,112.68967 65.8915341,113 C76.3333728,102.902854 90.340276,91.7907539 98.2599606,91.7329868 C106.558337,91.67925 119.946599,102.421238 130.401842,112.981192 C130.771093,112.689234 131.134224,112.389586 131.491,112.082444 C120.876237,99.1856103 106.811022,85.3752508 98.2150538,85.4316745" id="Path" fill="#00A3D4"></path>
  <path d="M218.60619,105.770384 C217.36117,106.369637 215.998021,106.681787 214.616857,106.68391 C213.02421,106.782861 211.465042,106.196442 210.330602,105.071806 C209.197426,103.948015 208.597444,102.392489 208.681785,100.797043 C208.602174,99.1254428 209.233235,97.4983468 210.418405,96.3194233 C211.604825,95.1394247 213.233946,94.5174443 214.903054,94.6072343 C216.023207,94.6080534 217.133216,94.8199658 218.175219,95.2319247 L218.175219,96.721106 C217.187298,96.2258312 216.096816,95.9708545 214.992197,95.9768512 C213.728112,95.8818349 212.486027,96.3470964 211.594025,97.2497418 C210.70296,98.1516 210.25227,99.4002643 210.361434,100.664716 C210.231001,101.891487 210.642379,103.114075 211.487455,104.011176 C212.333196,104.908906 213.527677,105.392154 214.75828,105.334444 C215.536599,105.353677 216.310129,105.207151 217.027749,104.90455 L217.027749,100.878991 L218.602839,100.878991 L218.602839,105.762324 L218.60619,105.770384 L218.60619,105.770384 Z M196.884029,94.7113494 L198.421584,94.7113494 L203.747398,101.656832 C204.306267,102.368768 204.837066,103.102391 205.338573,103.856011 L205.376108,103.856011 C205.338573,103.211841 205.338573,102.638872 205.338573,101.799906 L205.338573,94.7113494 L206.913663,94.7113494 L206.913663,106.505235 L205.537638,106.505235 L200.016781,99.2917405 C199.481296,98.5948428 198.962376,97.8853175 198.460459,97.1637629 L198.423595,97.1637629 C198.460459,97.7212823 198.477215,98.2908925 198.477215,99.1318735 L198.477215,106.505235 L196.886039,106.505235 L196.886039,94.7113494 L196.884029,94.7113494 L196.884029,94.7113494 Z M192.969093,94.7113494 L194.560269,94.7113494 L194.560269,106.505235 L192.969093,106.505235 L192.969093,94.7113494 Z M180.61972,94.7113494 L182.157276,94.7113494 L187.4851,101.656832 C188.043169,102.369373 188.573945,103.102965 189.076276,103.856011 L189.11381,103.856011 C189.076276,103.211841 189.076276,102.638872 189.076276,101.799906 L189.076276,94.7113494 L190.651366,94.7113494 L190.651366,106.505235 L189.27333,106.505235 L183.748452,99.2937556 C183.212073,98.5981818 182.694014,97.8886114 182.19481,97.1657781 L182.157276,97.1657781 C182.19481,97.7232974 182.210896,98.2929076 182.210896,99.1338886 L182.210896,106.506579 L180.622401,106.506579 L180.622401,94.7113494 L180.61972,94.7113494 L180.61972,94.7113494 Z M174.007695,100.311396 C174.539196,100.330525 175.065595,100.201719 175.528495,99.939269 C176.091827,99.5666911 176.447826,98.9505728 176.489854,98.2754676 C176.531882,97.6003625 176.255059,96.9446764 175.742305,96.5048153 C175.239357,96.1581021 174.636012,95.9880418 174.026462,96.0211841 L172.954061,96.0211841 L172.954061,100.3208 L174.007695,100.3208 L174.007695,100.311396 L174.007695,100.311396 Z M171.360204,94.7113494 L174.026462,94.7113494 C174.929555,94.662474 175.828919,94.8605235 176.628376,95.2843181 C177.593765,95.824294 178.174585,96.8620252 178.131079,97.9691433 C178.194868,99.4370093 177.201618,100.740378 175.771796,101.065055 L175.771796,101.101999 C176.374649,101.628129 176.862125,102.273794 177.203452,102.998237 L179.296645,106.504563 L177.437369,106.504563 L175.507717,103.230648 C174.95409,102.247265 174.507032,101.710569 174.167215,101.621231 L172.95138,101.621231 L172.95138,106.504563 L171.360204,106.504563 L171.360204,94.7120211 L171.360204,94.7113494 Z M166.926495,102.102847 L165.837337,99.026415 L165.175799,97.0576327 L165.140276,97.0576327 C165.013599,97.4855121 164.816545,98.041688 164.459971,99.0445512 L163.344674,102.104862 L166.926495,102.104862 L166.926495,102.102847 L166.926495,102.102847 Z M164.567211,94.6777639 L165.710659,94.6777639 L170.287803,106.505235 L168.600111,106.505235 L167.437896,103.408652 L162.88019,103.408652 L161.734061,106.505235 L160.089265,106.505235 L164.567882,94.6777639 L164.567211,94.6777639 Z M153.44909,94.7133645 L159.397566,94.7133645 L158.931072,96.0158104 L155.02753,96.0158104 L155.02753,99.8089573 L158.87209,99.8089573 L158.87209,101.13357 L155.047638,101.13357 L155.047638,105.197416 L159.491401,105.197416 L159.491401,106.49919 L153.465846,106.49919 L153.465846,94.7133645 L153.44909,94.7133645 L153.44909,94.7133645 Z M146.336387,94.7133645 L147.926222,94.7133645 L147.926222,105.198759 L152.240627,105.198759 L152.240627,106.501877 L146.340409,106.501877 L146.340409,94.7133645 L146.336387,94.7133645 L146.336387,94.7133645 Z M216.171168,58.4208684 L220.924588,58.4208684 L228.470272,69.2884659 C229.472297,70.7769755 230.213595,71.8651458 230.869771,73.0097398 L230.956903,73.0097398 C231.694724,71.6856946 232.480558,70.3891013 233.312835,69.1225535 L240.203685,58.4289289 L245,58.4289289 L245,87.186853 L239.722444,87.186853 L239.722444,70.9475898 C239.722444,69.770082 239.722444,68.2835876 239.809577,67.1504127 L239.724455,67.1504127 C239.128456,68.2613115 238.47381,69.3395916 237.763301,70.3806665 L232.092978,79.1988766 L229.69348,79.1988766 L223.413229,70.1630324 C222.694124,69.218535 222.038512,68.227141 221.450735,67.1954173 L221.363602,67.1954173 C221.407839,68.3306073 221.407839,69.8150866 221.407839,70.8179498 L221.407839,87.1895398 L216.189265,87.1895398 L216.189265,58.4215401 L216.171168,58.4215401 L216.171168,58.4208684 Z M194.276082,58.4208684 L210.153656,58.4208684 L208.757523,62.7003333 L199.508731,62.7003333 L199.508731,70.3846968 L208.712616,70.3846968 L208.712616,74.66349 L199.508731,74.66349 L199.508731,82.9120899 L210.196552,82.9120899 L210.196552,87.1915549 L194.274072,87.1915549 L194.274072,58.4215401 L194.276082,58.4215401 L194.276082,58.4208684 Z M176.394459,62.7003333 L168.017663,62.7003333 L168.017663,58.4215401 L190.697613,58.4215401 L189.343706,62.7003333 L181.625767,62.7003333 L181.625767,87.1895398 L176.407194,87.1895398 L176.407194,62.6989899 L176.394459,62.7003333 Z M148.305584,81.118624 C150.206651,82.4732431 152.479118,83.2057134 154.81171,83.2157029 C157.211208,83.2157029 159.608025,82.2988186 159.608025,79.8108045 C159.608025,74.1818739 147.176882,74.879109 147.176882,66.1052318 C147.176882,61.8707714 150.536179,58.1589014 156.510796,58.1589014 C158.928937,58.1109542 161.327422,58.6028927 163.532344,59.5990479 L163.532344,64.4024467 C161.429436,63.2491302 159.080374,62.6201518 156.68372,62.5686782 C154.676319,62.5686782 152.757391,63.3552507 152.757391,65.6679485 C152.757391,70.949605 165.188534,70.2503547 165.188534,79.3755363 C165.188534,84.4825481 160.827211,87.6248079 154.938387,87.6248079 C151.862954,87.6794085 148.841072,86.8141338 146.258638,85.1394806 L148.302903,81.1226543 L148.305584,81.1192957 L148.305584,81.118624 Z" id="Shape" fill="#3E4042"></path>
</svg>