<svg width="303" height="146" viewBox="0 0 303 146" fill="none" xmlns="http://www.w3.org/2000/svg">
<rect width="303" height="146" fill="white"/>
<path d="M98.5529 60.4009C106.33 60.3472 120.753 46.47 131.666 33.941C131.291 33.6223 130.912 33.3086 130.529 33C120.201 43.0332 106.345 54.086 98.5112 54.1375C90.3018 54.1934 77.0553 43.5199 66.7112 33.0301C66.347 33.322 65.9872 33.6197 65.6333 33.9211C76.1346 46.7346 90.0509 60.4568 98.5529 60.4009Z" fill="#6CAD2F"/>
<path d="M86.2697 72.9203C86.2148 65.1013 72.403 50.6088 59.936 39.6442C59.6179 40.0206 59.3057 40.4014 59 40.7858C68.985 51.1638 79.9843 65.0874 80.0413 72.9629C80.0998 81.2171 69.4866 94.5371 59.057 104.94C59.3496 105.305 59.645 105.666 59.9463 106.024C72.6868 95.4612 86.3311 81.4656 86.2711 72.9203H86.2697Z" fill="#CF2353"/>
<path d="M110.853 72.6394C110.885 80.4584 124.652 94.9936 137.086 105.996C137.404 105.62 137.717 105.241 138.025 104.856C128.072 94.4503 117.115 80.4922 117.084 72.6159C117.051 64.3618 127.703 51.0748 138.167 40.7035C137.876 40.3381 137.582 39.9757 137.282 39.6177C124.508 50.1405 110.82 64.0927 110.853 72.6402V72.6394Z" fill="#F9CE00"/>
<path d="M98.7857 85.0979C91.0085 85.1494 76.5839 99.0244 65.6709 111.552C66.0439 111.872 66.4227 112.184 66.8066 112.493C77.1353 102.461 90.9931 91.4106 98.8274 91.3599C107.038 91.3055 120.281 101.981 130.624 112.473C130.988 112.181 131.348 111.883 131.702 111.581C121.201 98.7664 107.288 85.0428 98.7857 85.0979Z" fill="#0097D2"/>
<path d="M148.343 80.8157C150.025 81.9882 152.183 82.8991 154.773 82.8991C157.147 82.8991 159.519 81.9875 159.519 79.5152C159.519 73.9208 147.221 74.6148 147.221 65.896C147.221 61.6881 150.544 58.0006 156.455 58.0006C159.388 58.0006 161.848 58.6527 163.403 59.4327V64.2052C161.158 63.0334 158.871 62.382 156.627 62.382C154.641 62.382 152.743 63.1635 152.743 65.4623C152.743 70.7112 165.041 70.0165 165.041 79.0822C165.041 84.1576 160.726 87.279 154.901 87.279C151.578 87.279 148.471 86.3263 146.314 84.809L148.343 80.8186L148.343 80.8157ZM176.129 62.5107H167.844V58.2616H190.283L188.944 62.5107H181.308V86.8468H176.131V62.5107H176.129ZM193.819 58.2616H209.526L208.145 62.5107H198.997V70.1466H208.101V74.3972H198.997V82.594H209.569V86.8446H193.818V58.2616H193.819ZM215.478 58.2616H220.182L227.647 69.0608C228.639 70.5362 229.373 71.6206 230.02 72.749H230.106C230.836 71.4337 231.613 70.1459 232.437 68.888L239.254 58.2609H244V86.8453H238.779V70.709C238.779 69.5379 238.779 68.0625 238.865 66.9348H238.779C238.392 67.7581 237.355 69.3637 236.838 70.1444L231.229 78.9073H228.855L222.641 69.9268C222.037 69.0593 221.259 68.0625 220.7 66.9789H220.613C220.657 68.1059 220.657 69.5813 220.657 70.5781V86.8446H215.48V58.2616H215.478ZM146.395 94.3232H147.969V104.742H152.232V106.041H146.395V94.3232ZM153.432 94.3232H159.322L158.861 95.6214H155.005V99.3912H158.808V100.707H155.005V104.743H159.392V106.041H153.432V94.3224L153.432 94.3232ZM164.431 94.2879H165.563L170.09 106.04H168.411L167.261 102.964H162.751L161.619 106.04H159.992L164.431 94.2879ZM166.765 101.666L165.686 98.6083L165.031 96.6528H164.996C164.872 97.0792 164.677 97.6306 164.323 98.6267L163.226 101.667H166.766L166.765 101.666ZM171.148 94.3224H173.784C174.969 94.3224 175.766 94.5356 176.365 94.8922C177.41 95.4788 177.851 96.4926 177.851 97.5592C177.851 99.1766 176.967 100.191 175.517 100.635V100.672C175.871 100.867 176.314 101.507 176.933 102.555L179.002 106.04H177.164L175.254 102.786C174.705 101.808 174.264 101.275 173.928 101.186H172.725V106.038H171.151V94.3239L171.148 94.3224ZM173.766 99.8874C174.385 99.8874 174.845 99.7625 175.27 99.5147C175.854 99.1942 176.225 98.5723 176.225 97.7195C176.225 97.0432 175.976 96.4749 175.482 96.1022C175.129 95.8353 174.597 95.6214 173.784 95.6214H172.724V99.8889H173.766L173.766 99.8874ZM180.308 94.3224H181.829L187.099 101.222C187.652 101.93 188.177 102.659 188.673 103.408H188.71C188.673 102.768 188.673 102.199 188.673 101.364V94.3217H190.231V106.04H188.868L183.403 98.8737C182.872 98.1818 182.359 97.4764 181.864 96.7579H181.827C181.864 97.3093 181.881 97.8783 181.881 98.7134V106.039H180.307V94.321L180.308 94.3224ZM192.525 94.3224H194.099V106.041H192.525V94.3224ZM196.397 94.3224H197.918L203.188 101.222C203.741 101.93 204.266 102.659 204.762 103.408H204.799C204.762 102.768 204.762 102.199 204.762 101.364V94.3217H206.32V106.04H204.958L199.492 98.8737C198.96 98.1817 198.447 97.4762 197.952 96.7579H197.915C197.952 97.3093 197.968 97.8783 197.968 98.7134V106.039H196.395V94.321L196.397 94.3224ZM217.884 105.311C217.017 105.755 215.549 106.218 213.939 106.218C210.348 106.218 208.067 103.782 208.067 100.368C208.067 96.7763 210.525 94.2166 214.222 94.2166C215.566 94.2166 216.716 94.5356 217.459 94.8378V96.3132C216.482 95.8188 215.404 95.5629 214.31 95.5663C211.356 95.5663 209.73 97.4865 209.73 100.225C209.73 103.07 211.408 104.865 214.079 104.865C214.999 104.865 215.812 104.689 216.325 104.439V100.459H217.883V105.311H217.884Z" fill="#747678"/>
</svg>
