<svg width="59" height="32" viewBox="0 0 59 32" fill="none" xmlns="http://www.w3.org/2000/svg">
<path fill-rule="evenodd" clip-rule="evenodd" d="M0 8.12818L8.02526 0H36.9632V11.3267H58.9215V23.8723L50.8973 32H3.61162V20.6733H0V8.12818ZM35.7595 11.3267H9.22917V1.2195H35.7595V11.3267ZM36.9634 12.5461H12.8401V22.6528H57.7182V12.5461H36.9634ZM11.7984 4.36828H13.358V8.59066H14.5825V4.36828H16.1421V3.33506H11.7984V4.36828ZM18.7281 6.34761C18.6627 5.86745 18.298 5.51354 17.8025 5.51354C17.3213 5.51354 16.9862 5.8452 16.8911 6.34761H18.7281ZM17.8239 4.66383C19.0192 4.66383 19.836 5.49061 19.836 6.68629C19.836 6.78252 19.836 6.93773 19.8212 7.01845L16.8987 7.0112C16.9932 7.54255 17.3508 7.8892 17.8458 7.8892C18.254 7.8892 18.5968 7.65327 18.7137 7.32111L19.6971 7.46133C19.5152 8.19963 18.728 8.73823 17.8172 8.73823C16.6142 8.73823 15.7693 7.8892 15.7693 6.6718C15.7693 5.49061 16.6219 4.66383 17.8239 4.66383ZM23.2076 6.7019C23.2076 6.08878 22.7995 5.63864 22.2314 5.63864C21.6628 5.63864 21.2547 6.08878 21.2547 6.7019C21.2547 7.31502 21.6628 7.76516 22.2314 7.76516C22.7995 7.76516 23.2076 7.31502 23.2076 6.7019ZM23.2158 4.81194H24.3085V8.59099H23.2158V8.06739C22.9241 8.48751 22.4791 8.73896 21.9474 8.73896C20.8981 8.73896 20.162 7.89768 20.162 6.70146C20.162 5.50525 20.8981 4.66396 21.9474 4.66396C22.4791 4.66396 22.9241 4.91542 23.2158 5.33554V4.81194ZM28.7447 6.16325L27.7246 6.2957C27.6296 5.89007 27.2582 5.59463 26.8424 5.59463C26.3106 5.59463 25.8953 6.05977 25.8953 6.70186C25.8953 7.34394 26.3034 7.80908 26.8424 7.80908C27.2725 7.80908 27.6296 7.51365 27.7322 7.10801L28.7524 7.24046C28.6134 8.11176 27.7976 8.73936 26.8357 8.73936C25.6618 8.73936 24.8021 7.88307 24.8021 6.70186C24.8021 5.52065 25.6547 4.66488 26.8357 4.66488C27.8119 4.66488 28.6283 5.29196 28.7447 6.16325ZM30.3244 3.11445V5.23989C30.5722 4.87151 31.0166 4.66455 31.4687 4.66455C32.329 4.66455 32.8899 5.29939 32.8899 6.1924V8.59154H31.7967V6.42161C31.7967 5.96372 31.5341 5.64656 31.0973 5.6388C30.6744 5.6388 30.3244 5.98596 30.3244 6.46558V8.59154H29.2313V3.11445H30.3244ZM20.0255 17.584L21.1698 17.7392C20.9946 18.8976 19.9162 19.7317 18.5896 19.7317C16.9866 19.7317 15.8203 18.551 15.8203 16.9196C15.8203 15.2883 16.9866 14.1071 18.5896 14.1071C19.9019 14.1071 20.9803 14.9639 21.1698 16.1518L20.0179 16.2848C19.8723 15.635 19.2894 15.1704 18.6187 15.1704C17.6936 15.1704 17.0448 15.8932 17.0448 16.9196C17.0448 17.9456 17.7002 18.6689 18.6187 18.6689C19.2746 18.6689 19.8651 18.2116 20.0255 17.584ZM24.5781 17.6577C24.5781 17.0378 24.1771 16.5944 23.6013 16.5944C23.0333 16.5944 22.6318 17.0378 22.6318 17.6577C22.6318 18.2775 23.0333 18.7209 23.6013 18.7209C24.1771 18.7209 24.5781 18.2775 24.5781 17.6577ZM25.6787 17.6581C25.6787 18.861 24.8333 19.6956 23.6017 19.6956C22.3772 19.6956 21.5318 18.861 21.5318 17.6581C21.5318 16.4474 22.3772 15.6206 23.6017 15.6206C24.8333 15.6206 25.6787 16.4474 25.6787 17.6581ZM26.1646 19.5477V15.7683H27.2138V16.2184C27.4473 15.8345 27.8555 15.6208 28.307 15.6208C28.8465 15.6208 29.2986 15.879 29.5096 16.2924C29.7502 15.879 30.2457 15.6208 30.7631 15.6208C31.6086 15.6208 32.1991 16.2629 32.1991 17.1709V19.5477H31.1059V17.3923C31.1059 16.9422 30.829 16.6095 30.4132 16.595C29.9908 16.595 29.7067 16.9277 29.7067 17.3923V19.5477H28.613V17.3923C28.613 16.9122 28.3505 16.595 27.9423 16.595C27.5275 16.595 27.2578 16.9122 27.2578 17.3923V19.5477H26.1646ZM35.7888 17.6576C35.7888 17.0522 35.3735 16.6165 34.8121 16.6165C34.2436 16.6165 33.8354 17.06 33.8354 17.6576C33.8354 18.2552 34.2436 18.6986 34.8121 18.6986C35.3807 18.6986 35.7888 18.2552 35.7888 17.6576ZM35.1113 19.6955C34.601 19.6955 34.1785 19.4741 33.8797 19.0902V21.2456H32.7865V15.7685H33.8648V16.2259C34.1637 15.8498 34.5938 15.6206 35.1113 15.6206C36.1462 15.6206 36.8824 16.4618 36.8824 17.658C36.8824 18.8542 36.1534 19.6955 35.1113 19.6955ZM40.043 19.5474V19.0305C39.7809 19.4439 39.3436 19.6948 38.8553 19.6948C38.017 19.6948 37.449 19.0383 37.449 18.1302V15.7678H38.5421V17.9383C38.5421 18.3957 38.8042 18.7206 39.2343 18.7206C39.6644 18.7206 40.0139 18.3734 40.0139 17.8938V15.7678H41.107V19.5474H40.043ZM42.0528 16.6099H41.5281V15.7687H42.1044L42.228 14.8161H43.1465V15.7687H43.9914V16.6099H43.1465V18.2123C43.1465 18.5294 43.336 18.7436 43.6415 18.7436C43.7441 18.7436 43.904 18.7214 44.0282 18.6846V19.5771C43.8024 19.6516 43.5107 19.6956 43.2772 19.6956C42.534 19.6956 42.0528 19.127 42.0528 18.323V16.6099ZM44.6094 19.5484H45.7026V15.7689H44.6094V19.5484ZM44.5224 14.6389C44.5224 14.2772 44.785 14.019 45.1563 14.019C45.5282 14.019 45.7908 14.2772 45.7908 14.6389C45.7908 15.0078 45.5282 15.2665 45.1563 15.2665C44.785 15.2665 44.5224 15.0078 44.5224 14.6389ZM47.5167 15.7684V16.2775C47.7792 15.8719 48.216 15.6209 48.7044 15.6209C49.5427 15.6209 50.1112 16.2775 50.1112 17.1855V19.5479H49.0175V17.3775C49.0175 16.9201 48.7555 16.5952 48.3253 16.5952C47.8952 16.5952 47.5458 16.9423 47.5458 17.422V19.5479H46.4526V15.7684H47.5167ZM53.5785 17.6577C53.5785 17.0446 53.1703 16.5944 52.6023 16.5944C52.0337 16.5944 51.6255 17.0446 51.6255 17.6577C51.6255 18.2552 52.0337 18.6909 52.6023 18.6909C53.1703 18.6909 53.5785 18.2552 53.5785 17.6577ZM53.535 19.4744V19.0243C53.2433 19.3859 52.8209 19.5996 52.3034 19.5996C51.2756 19.5996 50.5323 18.8023 50.5323 17.6583C50.5323 16.4699 51.2756 15.6281 52.3034 15.6281C52.828 15.6281 53.2505 15.8501 53.535 16.219V15.7688H54.6282V19.5034C54.6282 20.6773 53.8119 21.3934 52.6313 21.3934C51.6107 21.3934 50.7872 20.7586 50.6779 19.8878L51.6541 19.7771C51.7491 20.205 52.1425 20.5149 52.5874 20.5149C53.1417 20.5149 53.535 20.131 53.535 19.4744Z" fill="#007FA2"/>
</svg>
