<svg width="303" height="146" viewBox="0 0 303 146" fill="none" xmlns="http://www.w3.org/2000/svg">
<rect width="303" height="146" fill="#1C0F5F"/>
<path fill-rule="evenodd" clip-rule="evenodd" d="M69.7539 50.8605L92.3249 28H173.713V59.8563H235.471V95.1409L212.903 118H79.9116V86.1437H69.7539V50.8605ZM170.328 59.8563H95.7115V31.4298H170.328V59.8563ZM173.713 63.2859H105.866V91.7111H232.086V63.2859H173.713ZM102.937 40.2858H107.324V52.1613H110.768V40.2858H115.154V37.3799H102.937V40.2858ZM122.427 45.8527C122.243 44.5022 121.217 43.5068 119.823 43.5068C118.47 43.5068 117.528 44.4396 117.26 45.8527H122.427ZM119.883 41.1171C123.245 41.1171 125.543 43.4424 125.543 46.8052C125.543 47.0759 125.543 47.5124 125.501 47.7394L117.281 47.719C117.547 49.2135 118.553 50.1884 119.945 50.1884C121.093 50.1884 122.057 49.5249 122.386 48.5907L125.152 48.985C124.64 51.0615 122.426 52.5763 119.865 52.5763C116.481 52.5763 114.105 50.1884 114.105 46.7645C114.105 43.4424 116.503 41.1171 119.883 41.1171ZM135.026 46.8491C135.026 45.1247 133.878 43.8586 132.28 43.8586C130.681 43.8586 129.533 45.1247 129.533 46.8491C129.533 48.5735 130.681 49.8395 132.28 49.8395C133.878 49.8395 135.026 48.5735 135.026 46.8491ZM135.048 41.5336H138.121V52.1622H135.048V50.6896C134.227 51.8712 132.976 52.5784 131.48 52.5784C128.529 52.5784 126.459 50.2123 126.459 46.8479C126.459 43.4835 128.529 41.1174 131.48 41.1174C132.976 41.1174 134.227 41.8246 135.048 43.0062V41.5336ZM150.598 45.3342L147.729 45.7067C147.462 44.5658 146.418 43.7349 145.248 43.7349C143.752 43.7349 142.584 45.0431 142.584 46.849C142.584 48.6549 143.732 49.9631 145.248 49.9631C146.458 49.9631 147.462 49.1322 147.751 47.9913L150.62 48.3638C150.229 50.8143 147.935 52.5795 145.229 52.5795C141.928 52.5795 139.51 50.1712 139.51 46.849C139.51 43.5268 141.908 41.12 145.229 41.12C147.975 41.12 150.271 42.8837 150.598 45.3342ZM155.042 36.7594V42.7372C155.739 41.7011 156.988 41.1191 158.26 41.1191C160.679 41.1191 162.257 42.9045 162.257 45.4161V52.1637H159.182V46.0608C159.182 44.773 158.444 43.8809 157.215 43.8591C156.026 43.8591 155.042 44.8355 155.042 46.1845V52.1637H151.967V36.7594H155.042ZM126.076 77.4549L129.294 77.8914C128.801 81.1495 125.768 83.4952 122.037 83.4952C117.528 83.4952 114.248 80.1746 114.248 75.5865C114.248 70.9984 117.528 67.6763 122.037 67.6763C125.728 67.6763 128.761 70.086 129.294 73.427L126.054 73.801C125.645 71.9733 124.005 70.6666 122.119 70.6666C119.517 70.6666 117.692 72.6995 117.692 75.5865C117.692 78.472 119.536 80.5064 122.119 80.5064C123.964 80.5064 125.624 79.22 126.076 77.4549ZM138.88 77.6622C138.88 75.9189 137.752 74.6719 136.133 74.6719C134.535 74.6719 133.406 75.9189 133.406 77.6622C133.406 79.4055 134.535 80.6526 136.133 80.6526C137.752 80.6526 138.88 79.4055 138.88 77.6622ZM141.975 77.6633C141.975 81.0466 139.597 83.3938 136.133 83.3938C132.69 83.3938 130.312 81.0466 130.312 77.6633C130.312 74.2582 132.69 71.9329 136.133 71.9329C139.597 71.9329 141.975 74.2582 141.975 77.6633ZM143.342 82.9778V72.3482H146.293V73.6141C146.95 72.5344 148.098 71.9335 149.368 71.9335C150.885 71.9335 152.156 72.6596 152.75 73.8222C153.426 72.6596 154.82 71.9335 156.275 71.9335C158.653 71.9335 160.314 73.7393 160.314 76.293V82.9778H157.24V76.9158C157.24 75.6498 156.461 74.7142 155.291 74.6735C154.103 74.6735 153.304 75.6091 153.304 76.9158V82.9778H150.228V76.9158C150.228 75.5654 149.49 74.6735 148.342 74.6735C147.175 74.6735 146.417 75.5654 146.417 76.9158V82.9778H143.342ZM170.411 77.6619C170.411 75.9593 169.243 74.734 167.664 74.734C166.065 74.734 164.917 75.9811 164.917 77.6619C164.917 79.3426 166.065 80.5897 167.664 80.5897C169.263 80.5897 170.411 79.3426 170.411 77.6619ZM168.504 83.3937C167.069 83.3937 165.881 82.7708 165.04 81.6911V87.7533H161.966V72.349H164.999V73.6354C165.839 72.5775 167.049 71.9329 168.504 71.9329C171.415 71.9329 173.486 74.2989 173.486 77.6633C173.486 81.0276 171.435 83.3937 168.504 83.3937ZM182.375 82.977V81.5233C181.638 82.686 180.408 83.3917 179.034 83.3917C176.677 83.3917 175.079 81.5451 175.079 78.9913V72.3469H178.154V78.4514C178.154 79.7378 178.891 80.6516 180.101 80.6516C181.31 80.6516 182.293 79.6752 182.293 78.3262V72.3469H185.368V82.977H182.375ZM188.027 74.7154H186.551V72.3493H188.172L188.519 69.6704H191.103V72.3493H193.479V74.7154H191.103V79.222C191.103 80.114 191.636 80.7164 192.495 80.7164C192.784 80.7164 193.233 80.6539 193.582 80.5506V83.0607C192.947 83.2702 192.127 83.3939 191.47 83.3939C189.38 83.3939 188.027 81.7947 188.027 79.5334V74.7154ZM195.218 82.9797H198.293V72.35H195.218V82.9797ZM194.973 69.1719C194.973 68.1547 195.711 67.4286 196.756 67.4286C197.802 67.4286 198.54 68.1547 198.54 69.1719C198.54 70.2094 197.802 70.937 196.756 70.937C195.711 70.937 194.973 70.2094 194.973 69.1719ZM203.394 72.3486V73.7804C204.133 72.6396 205.361 71.9338 206.735 71.9338C209.092 71.9338 210.691 73.7804 210.691 76.3342V82.9785H207.615V76.8741C207.615 75.5877 206.878 74.6739 205.668 74.6739C204.459 74.6739 203.476 75.6503 203.476 76.9993V82.9785H200.401V72.3486H203.394ZM220.443 77.6622C220.443 75.9379 219.295 74.6719 217.697 74.6719C216.098 74.6719 214.95 75.9379 214.95 77.6622C214.95 79.3429 216.098 80.5681 217.697 80.5681C219.295 80.5681 220.443 79.3429 220.443 77.6622ZM220.321 82.7717V81.5057C219.5 82.5229 218.312 83.1239 216.857 83.1239C213.966 83.1239 211.875 80.8815 211.875 77.6641C211.875 74.3215 213.966 71.954 216.857 71.954C218.332 71.954 219.52 72.5782 220.321 73.6158V72.3498H223.395V82.8532C223.395 86.155 221.099 88.1689 217.779 88.1689C214.908 88.1689 212.592 86.3834 212.285 83.9344L215.031 83.623C215.298 84.8264 216.404 85.6981 217.655 85.6981C219.214 85.6981 220.321 84.6183 220.321 82.7717Z" fill="white"/>
</svg>
