<svg width="401" height="49" viewBox="0 0 401 49" fill="none" xmlns="http://www.w3.org/2000/svg">
<path d="M95.9384 12.9717H101.568V39.0477H95.9384V36.3089C93.4643 39.3948 90.4164 39.8577 88.6953 39.8577C81.2011 39.8577 76.9341 33.1844 76.9341 25.9711C76.9341 17.4848 82.3485 12.2773 88.7311 12.2773C90.524 12.2773 93.6435 12.7788 95.9384 15.9804V12.9717ZM82.6712 26.1254C82.6712 30.6386 85.3247 34.4188 89.4124 34.4188C92.9981 34.4188 96.2611 31.6415 96.2611 26.164C96.2611 20.455 92.9623 17.7548 89.4124 17.7548C85.3247 17.7548 82.6712 21.458 82.6712 26.1254ZM108.273 12.9717H113.903V15.3247C114.548 14.5146 115.445 13.666 116.269 13.1646C117.381 12.4702 118.457 12.3159 119.712 12.3159C121.11 12.3159 122.58 12.5474 124.158 13.5503L121.863 19.0664C120.608 18.2177 119.568 18.1406 118.995 18.1406C117.775 18.1406 116.592 18.3335 115.481 19.5678C113.939 21.3808 113.939 23.8495 113.939 25.5854V39.0862H108.309V12.9717H108.273ZM127.815 12.9717H133.481V15.4018C135.381 12.9331 137.64 12.3159 139.469 12.3159C142.015 12.3159 144.381 13.6274 145.744 16.1733C147.752 13.0874 150.8 12.3159 152.951 12.3159C155.892 12.3159 158.473 13.8203 159.872 16.4048C160.338 17.2534 161.127 19.1821 161.127 22.9623V39.0862H155.497V24.6982C155.497 21.8051 155.21 20.6093 154.995 20.0693C154.637 19.0664 153.776 17.7934 151.768 17.7934C150.37 17.7934 149.186 18.6035 148.433 19.7221C147.465 21.2265 147.322 23.4252 147.322 25.6625V39.1248H141.692V24.6982C141.692 21.8051 141.405 20.6093 141.19 20.0693C140.832 19.0664 139.971 17.7934 137.963 17.7934C136.565 17.7934 135.381 18.6035 134.628 19.7221C133.66 21.2265 133.517 23.4252 133.517 25.6625V39.1248H127.887V12.9717H127.815Z" fill="#0091BD"/>
<path d="M185.255 18.494C184.931 17.8077 184.353 17.0492 183.776 16.6158C183.271 16.2546 182.369 15.749 180.961 15.749C178.472 15.749 176.74 17.302 176.74 19.6497C176.74 20.6249 176.992 21.2028 177.678 21.853C178.436 22.6115 179.374 23.0087 180.312 23.4422L182.729 24.4896C184.209 25.1397 185.544 25.826 186.627 26.8734C187.926 28.1737 188.431 29.6184 188.431 31.4605C188.431 36.1197 185.003 39.1898 180.456 39.1898C178.796 39.1898 176.74 38.8647 174.971 37.1671C173.745 35.9752 172.987 34.2054 172.626 32.7246L175.332 31.9661C175.513 33.3025 176.126 34.4222 176.848 35.1806C177.93 36.2642 179.193 36.5893 180.456 36.5893C183.884 36.5893 185.508 34.1332 185.508 31.6049C185.508 30.4853 185.183 29.4739 184.281 28.6432C183.559 27.957 182.585 27.5235 181.25 26.9095L178.977 25.8621C178.003 25.3926 176.74 24.8869 175.621 23.7672C174.538 22.7198 173.889 21.5279 173.889 19.6497C173.889 15.749 176.884 13.1484 180.925 13.1484C182.477 13.1484 183.704 13.4374 184.967 14.2681C185.977 14.9544 186.843 15.9657 187.42 17.0492L185.255 18.494Z" fill="#323E48"/>
<path d="M205.137 27.3809C203.694 25.575 201.637 25.0332 200.229 25.0332C197.343 25.0332 194.673 27.0559 194.673 30.8844C194.673 34.713 197.379 36.6995 200.193 36.6995C201.817 36.6995 203.802 35.9771 205.245 34.2434V37.4941C203.549 38.7221 201.745 39.1194 200.266 39.1194C195.394 39.1194 191.894 35.6521 191.894 30.9205C191.894 26.1168 195.43 22.6133 200.266 22.6133C202.755 22.6133 204.379 23.5885 205.137 24.1303V27.3809Z" fill="#323E48"/>
<path d="M209.398 11.1621H212.105V24.8149C212.61 24.1647 213.981 22.6116 216.579 22.6116C218.419 22.6116 220.115 23.3701 221.054 24.7787C221.847 25.9345 221.956 27.2348 221.956 28.9685V38.6843H219.249V29.0407C219.249 28.1016 219.177 27.0181 218.528 26.1874C217.986 25.5011 217.156 25.0677 215.966 25.0677C215.028 25.0677 214.017 25.3205 213.223 26.2596C212.177 27.5237 212.105 29.3658 212.105 30.4854V38.6843H209.398V11.1621Z" fill="#323E48"/>
<path d="M225.562 30.9176C225.562 26.15 229.062 22.6465 233.861 22.6465C238.66 22.6465 242.161 26.15 242.161 30.9176C242.161 35.6852 238.624 39.1526 233.861 39.1526C229.098 39.1165 225.562 35.6491 225.562 30.9176ZM228.34 30.9176C228.34 34.7823 231.047 36.7327 233.861 36.7327C236.676 36.7327 239.382 34.7462 239.382 30.9176C239.382 27.0529 236.748 25.0664 233.861 25.0664C231.011 25.0664 228.34 27.0891 228.34 30.9176Z" fill="#323E48"/>
<path d="M245.334 30.9176C245.334 26.15 248.834 22.6465 253.633 22.6465C258.432 22.6465 261.933 26.15 261.933 30.9176C261.933 35.6852 258.396 39.1526 253.633 39.1526C248.87 39.1165 245.334 35.6491 245.334 30.9176ZM248.112 30.9176C248.112 34.7823 250.819 36.7327 253.633 36.7327C256.448 36.7327 259.154 34.7462 259.154 30.9176C259.154 27.0529 256.52 25.0664 253.633 25.0664C250.747 25.0664 248.112 27.0891 248.112 30.9176Z" fill="#323E48"/>
<path d="M268.791 11.1621V38.6843H266.084V11.1621H268.791Z" fill="#323E48"/>
<path d="M287.95 13.5098C290.476 13.5098 292.605 13.7987 294.301 15.2796C296.141 16.8688 296.61 19.1081 296.61 20.6973C296.61 24.2369 294.373 27.7765 288.636 27.7765H286.182V38.7204H283.368V13.5459H287.95V13.5098ZM286.182 25.1038H288.492C291.811 25.1038 293.796 23.4423 293.796 20.5167C293.796 16.5076 290.079 16.1464 288.239 16.1464H286.182V25.1038Z" fill="#323E48"/>
<path d="M299.893 23.0106H302.599V24.7081C302.851 24.3108 304.042 22.6133 306.135 22.6133C306.965 22.6133 307.867 22.9022 308.553 23.2634L307.254 25.7195C306.64 25.3222 306.099 25.1777 305.666 25.1777C304.583 25.1777 303.898 25.6472 303.465 26.1529C302.996 26.7669 302.563 27.8143 302.563 30.3787V38.6498H299.856V23.0106H299.893Z" fill="#323E48"/>
<path d="M309.167 30.9176C309.167 26.15 312.668 22.6465 317.467 22.6465C322.266 22.6465 325.766 26.15 325.766 30.9176C325.766 35.6852 322.23 39.1526 317.467 39.1526C312.74 39.1165 309.167 35.6491 309.167 30.9176ZM311.982 30.9176C311.982 34.7823 314.688 36.7327 317.503 36.7327C320.317 36.7327 323.024 34.7462 323.024 30.9176C323.024 27.0529 320.39 25.0664 317.503 25.0664C314.616 25.0664 311.982 27.0891 311.982 30.9176Z" fill="#323E48"/>
<path d="M341.933 23.0057H344.639V38.2838C344.639 39.9813 344.639 42.4013 343.124 44.4239C341.969 46.0131 339.804 47.3495 336.845 47.3495C334.175 47.3495 332.335 46.302 331.252 45.2185C330.206 44.1711 329.232 42.4735 329.232 40.1619H331.902C331.902 41.4983 332.443 42.6541 333.093 43.4126C334.211 44.6406 335.654 44.9295 336.881 44.9295C338.794 44.9295 340.129 44.2433 341.031 42.7263C341.825 41.4261 341.897 40.0536 341.897 38.7172V36.4417C340.995 37.5975 339.299 39.0784 336.557 39.0784C334.247 39.0784 332.407 38.1754 331.216 36.9474C330.17 35.8999 328.943 33.9134 328.943 30.7711C328.943 27.7011 330.061 25.8229 331.216 24.7032C332.551 23.403 334.464 22.5723 336.557 22.5723C338.866 22.5723 340.67 23.5475 341.897 25.1728V23.0057H341.933ZM333.309 26.5092C331.974 27.8817 331.721 29.5431 331.721 30.8073C331.721 32.1797 331.974 34.0218 333.489 35.4304C334.355 36.225 335.402 36.7307 336.845 36.7307C338.289 36.7307 339.407 36.2611 340.273 35.3943C341.32 34.383 342.041 32.7215 342.041 30.8795C342.041 29.0375 341.356 27.4121 340.381 26.473C339.515 25.6062 338.216 25.0644 336.845 25.0644C335.221 25.0644 334.067 25.7507 333.309 26.5092Z" fill="#323E48"/>
<path d="M349.763 23.0106H352.469V24.7081C352.722 24.3108 353.912 22.6133 356.005 22.6133C356.835 22.6133 357.737 22.9022 358.423 23.2634L357.124 25.7195C356.51 25.3222 355.969 25.1777 355.536 25.1777C354.454 25.1777 353.768 25.6472 353.335 26.1529C352.866 26.7669 352.433 27.8143 352.433 30.3787V38.6498H349.727V23.0106H349.763Z" fill="#323E48"/>
<path d="M372.134 23.0106H374.84V38.686H372.134V36.4828C371.232 37.6386 369.536 39.1194 366.793 39.1194C362.824 39.1194 359.18 36.3383 359.18 30.8122C359.18 25.4305 362.788 22.6133 366.793 22.6133C369.824 22.6133 371.448 24.2747 372.134 25.2138V23.0106ZM361.958 30.8122C361.958 34.1712 363.835 36.6995 367.082 36.6995C370.402 36.6995 372.278 33.9545 372.278 30.8483C372.278 26.803 369.5 25.0332 367.082 25.0332C364.412 25.0693 361.958 27.0197 361.958 30.8122Z" fill="#323E48"/>
<path d="M379.963 23.0077H382.67V24.6691C383.536 23.3688 384.907 22.6465 386.567 22.6465C389.381 22.6465 390.536 24.633 390.825 25.1748C392.34 22.791 394.469 22.6465 395.552 22.6465C400.207 22.6465 400.64 26.5473 400.64 28.7505V38.683H397.933V29.1839C397.933 27.4141 397.717 25.0664 395.155 25.0664C392.015 25.0664 391.691 28.1004 391.691 29.9785V38.7192H388.984V29.4367C388.984 28.3532 389.02 25.1025 386.17 25.1025C383.067 25.1025 382.742 28.3171 382.742 30.1952V38.7192H380.036V23.0077H379.963Z" fill="#323E48"/>
<path d="M31.0332 48.2174C19.3059 48.2174 9.74365 38.646 9.74365 26.9075C9.74365 15.169 19.3059 5.59766 31.0332 5.59766C42.7605 5.59766 52.3228 15.169 52.3228 26.9075C52.3228 30.7722 51.2763 34.5285 49.3278 37.8153L47.7762 36.8762C49.5804 33.8784 50.5186 30.411 50.5186 26.8714C50.5186 16.1081 41.7863 7.36746 31.0332 7.36746C20.2802 7.36746 11.5479 16.1081 11.5479 26.8714C11.5479 37.6347 20.2802 46.3753 31.0332 46.3753C35.6881 46.3753 40.1986 44.7139 43.7348 41.6438L44.9256 43.0163C41.0646 46.4114 36.1211 48.2174 31.0332 48.2174Z" fill="#7B868C"/>
<path d="M38.0341 8.09051C35.7969 8.09051 33.9927 6.2846 33.9927 4.04526C33.9927 1.80592 35.7969 0 38.0341 0C40.2713 0 42.0755 1.80592 42.0755 4.04526C42.0755 6.2846 40.2352 8.09051 38.0341 8.09051ZM38.0341 1.48086C36.6268 1.48086 35.436 2.63664 35.436 4.08137C35.436 5.52611 36.5907 6.6819 38.0341 6.6819C39.4774 6.6819 40.6321 5.52611 40.6321 4.08137C40.6321 2.63664 39.4414 1.48086 38.0341 1.48086Z" fill="#FFC600"/>
<path d="M4.04092 42.2936C1.80371 42.2936 -0.000488281 40.4877 -0.000488281 38.2484C-0.000488281 36.009 1.80371 34.2031 4.04092 34.2031C6.27812 34.2031 8.08232 36.009 8.08232 38.2484C8.04624 40.4877 6.24204 42.2936 4.04092 42.2936ZM4.04092 35.684C2.63364 35.684 1.44287 36.8398 1.44287 38.2845C1.44287 39.7292 2.59756 40.885 4.04092 40.885C5.48427 40.885 6.63897 39.7292 6.63897 38.2845C6.63897 36.8398 5.44819 35.684 4.04092 35.684Z" fill="#FF6B00"/>
<path d="M46.7641 44.2097C44.5268 44.2097 42.7227 42.4037 42.7227 40.1644C42.7227 37.9251 44.5268 36.1191 46.7641 36.1191C49.0013 36.1191 50.8055 37.9251 50.8055 40.1644C50.7694 42.4037 48.9652 44.2097 46.7641 44.2097ZM46.7641 37.5639C45.3568 37.5639 44.166 38.7197 44.166 40.1644C44.166 41.6091 45.3207 42.7649 46.7641 42.7649C48.2074 42.7649 49.3621 41.6091 49.3621 40.1644C49.3621 38.7197 48.1713 37.5639 46.7641 37.5639Z" fill="#93D500"/>
<path d="M19.7746 26.2212C17.4291 26.2212 15.5527 24.3069 15.5527 21.9954C15.5527 19.6838 17.4652 17.7695 19.7746 17.7695C22.0839 17.7695 23.9964 19.6838 23.9964 21.9954C23.9964 24.3069 22.12 26.2212 19.7746 26.2212ZM19.7746 19.1781C18.2229 19.1781 16.9961 20.4423 16.9961 21.9592C16.9961 23.4762 18.259 24.7404 19.7746 24.7404C21.2901 24.7404 22.553 23.4762 22.553 21.9592C22.553 20.4423 21.3262 19.1781 19.7746 19.1781Z" fill="#00C1DE"/>
<path d="M36.1835 7.27053L28.0791 29.6855L29.4363 30.1772L37.5407 7.76217L36.1835 7.27053Z" fill="#FFC600"/>
<path d="M31.102 33.7186L30.6245 35.082L43.3942 39.5625L43.8716 38.1991L31.102 33.7186Z" fill="#93D500"/>
<path d="M22.2294 24.6633L21.0107 25.4375L24.6075 31.1095L25.8261 30.3353L22.2294 24.6633Z" fill="#00C1DE"/>
<path d="M23.6407 33.7372L7.19238 36.8711L7.46229 38.2904L23.9106 35.1565L23.6407 33.7372Z" fill="#FF6B00"/>
<path d="M27.4606 37.3814C25.1151 37.3814 23.2388 35.4671 23.2388 33.1555C23.2388 30.844 25.1512 28.9297 27.4606 28.9297C29.8061 28.9297 31.6824 30.844 31.6824 33.1555C31.6824 35.4671 29.77 37.3814 27.4606 37.3814ZM27.4606 30.3744C25.909 30.3744 24.6821 31.6386 24.6821 33.1555C24.6821 34.6725 25.9451 35.9366 27.4606 35.9366C28.9761 35.9366 30.2391 34.6725 30.2391 33.1555C30.2391 31.6386 28.9761 30.3744 27.4606 30.3744Z" fill="#0091BD"/>
</svg>
