<svg width="161" height="50" viewBox="0 0 161 50" fill="none" xmlns="http://www.w3.org/2000/svg">
<path d="M36.269 1.25875H47.0129V48.5315H36.269V43.5664C31.5472 49.1609 25.7305 50 22.4457 50C8.14343 50 0 37.9021 0 24.8252C0 9.44056 10.3333 0 22.5142 0C25.9358 0 31.8894 0.909095 36.269 6.71329V1.25875ZM10.9491 25.1049C10.9491 33.2867 16.0131 40.1399 23.8144 40.1399C30.6576 40.1399 36.8849 35.1049 36.8849 25.1748C36.8849 14.8252 30.5892 9.93008 23.8144 9.93008C16.0131 9.93008 10.9491 16.6434 10.9491 25.1049ZM59.8097 1.25875H70.5535V5.52449C71.7853 4.05596 73.4961 2.5175 75.07 1.6084C77.1914 0.349663 79.2444 0.0699343 81.6395 0.0699343C84.3084 0.0699343 87.1141 0.489523 90.1251 2.30771L85.7454 12.3077C83.3503 10.7692 81.3658 10.6294 80.2709 10.6294C77.9442 10.6294 75.6859 10.979 73.5645 13.2168C70.6219 16.5035 70.6219 20.979 70.6219 24.1259V48.6014H59.8781V1.25875H59.8097ZM97.1052 1.25875H107.917V5.66434C111.544 1.18882 115.856 0.0699343 119.346 0.0699343C124.204 0.0699343 128.721 2.44756 131.321 7.06294C135.153 1.46854 140.97 0.0699343 145.076 0.0699343C150.688 0.0699343 155.615 2.79721 158.283 7.48253C159.173 9.02099 160.679 12.5175 160.679 19.3706V48.6014H149.935V22.5175C149.935 17.2727 149.387 15.1049 148.977 14.1259C148.292 12.3077 146.65 10 142.818 10C140.149 10 137.891 11.4685 136.454 13.4965C134.606 16.2238 134.332 20.2098 134.332 24.2657V48.6713H123.588V22.5175C123.588 17.2727 123.041 15.1049 122.63 14.1259C121.946 12.3077 120.304 10 116.471 10C113.803 10 111.544 11.4685 110.107 13.4965C108.26 16.2238 107.986 20.2098 107.986 24.2657V48.6713H97.242V1.25875H97.1052Z" fill="#0091BD"/>
</svg>
