<svg width="171" height="54" viewBox="0 0 171 54" fill="none" xmlns="http://www.w3.org/2000/svg">
<path d="M38.5263 1.35945H49.9388V52.414H38.5263V47.0518C33.5106 53.0937 27.3318 54 23.8427 54C8.65025 54 0 40.9343 0 26.8112C0 10.1958 10.9764 0 23.9154 0C27.5499 0 33.874 0.981823 38.5263 7.25035V1.35945ZM11.6306 27.1133C11.6306 35.9497 17.0097 43.3511 25.2965 43.3511C32.5656 43.3511 39.1805 37.9133 39.1805 27.1888C39.1805 16.0112 32.4929 10.7245 25.2965 10.7245C17.0097 10.7245 11.6306 17.9748 11.6306 27.1133ZM63.532 1.35945H74.9445V5.96645C76.2529 4.38044 78.0702 2.71889 79.7421 1.73708C81.9955 0.377636 84.1762 0.0755291 86.7204 0.0755291C89.5554 0.0755291 92.5357 0.528685 95.7341 2.49232L91.0819 13.2923C88.5377 11.6308 86.4297 11.4797 85.2666 11.4797C82.7951 11.4797 80.3963 11.8574 78.1429 14.2741C75.0172 17.8238 75.0172 22.6573 75.0172 26.0559V52.4895H63.6047V1.35945H63.532ZM103.149 1.35945H114.634V6.11749C118.486 1.28392 123.066 0.0755291 126.773 0.0755291C131.934 0.0755291 136.732 2.64336 139.494 7.62798C143.565 1.58602 149.744 0.0755291 154.105 0.0755291C160.066 0.0755291 165.299 3.02099 168.134 8.08113C169.079 9.74267 170.679 13.5189 170.679 20.9203V52.4895H159.266V24.3189C159.266 18.6546 158.685 16.3133 158.248 15.256C157.522 13.2923 155.777 10.8 151.706 10.8C148.871 10.8 146.472 12.386 144.946 14.5762C142.983 17.5217 142.693 21.8266 142.693 26.207V52.565H131.28V24.3189C131.28 18.6546 130.699 16.3133 130.262 15.256C129.535 13.2923 127.791 10.8 123.72 10.8C120.885 10.8 118.486 12.386 116.96 14.5762C114.997 17.5217 114.706 21.8266 114.706 26.207V52.565H103.294V1.35945H103.149Z" fill="#0091BD"/>
</svg>
