<svg width="222" height="222" viewBox="0 0 222 222" fill="none" xmlns="http://www.w3.org/2000/svg">
<path d="M0 0H222V222H0V0Z" fill="#5514B4"/>
<path d="M20 85.25H34.8917C37.1652 85.25 38.9841 85.591 40.4619 86.3868C41.9397 87.1825 43.0765 88.2056 43.8722 89.4561C44.6679 90.7065 45.009 92.0706 45.009 93.4348C45.009 95.0262 44.5543 96.3904 43.5312 97.6408C42.5081 98.8913 41.1439 99.8007 39.2114 100.369C41.5987 100.937 43.3038 101.847 44.5543 103.325C45.8047 104.802 46.3731 106.394 46.3731 108.213C46.3731 110.032 45.9184 111.623 45.1226 113.101C44.2132 114.579 42.9628 115.715 41.3713 116.625C39.7798 117.534 37.8473 117.875 35.4601 117.875H20V85.25ZM34.437 90.0244H25.6839V98.6639H34.437C36.0285 98.6639 37.2789 98.2092 38.0747 97.4135C38.8704 96.504 39.2114 95.4809 39.2114 94.3442C39.2114 93.0937 38.8704 92.0706 38.0747 91.2749C37.2789 90.4792 36.0285 90.0244 34.437 90.0244ZM35.0054 103.438H25.6839V113.101H35.0054C36.8242 113.101 38.1883 112.646 39.2114 111.737C40.1209 110.827 40.5756 109.577 40.5756 108.213C40.5756 106.962 40.1209 105.826 39.2114 104.916C38.302 103.893 36.8242 103.438 35.0054 103.438Z" fill="white"/>
<path d="M58.9913 118.332C57.1724 118.332 55.4673 117.877 53.8758 116.854C52.2843 115.831 51.0339 114.467 50.0108 112.648C48.9877 110.829 48.533 108.669 48.533 106.054C48.533 103.554 48.9877 101.28 50.0108 99.4612C51.0339 97.6424 52.2843 96.2782 53.8758 95.2551C55.4673 94.2321 57.1724 93.7773 58.9913 93.7773C60.9238 93.7773 62.6289 94.2321 64.1067 95.2551C65.5845 96.2782 66.6076 97.6424 67.4034 99.3475V94.2321H72.6325V117.763H67.4034V112.648C66.6076 114.353 65.5845 115.717 64.1067 116.74C62.6289 117.877 60.9238 118.332 58.9913 118.332ZM54.2168 106.168C54.2168 108.555 54.8989 110.374 56.1493 111.738C57.3998 113.102 59.1049 113.785 61.0374 113.785C62.0605 113.785 63.0836 113.557 63.9931 113.102C64.9025 112.648 65.6982 111.966 66.2666 111.056C66.835 110.147 67.176 109.124 67.176 107.987V104.463C67.176 103.326 66.835 102.303 66.2666 101.394C65.6982 100.484 64.9025 99.8022 63.9931 99.3475C63.0836 98.8928 62.0605 98.6655 61.0374 98.6655C58.9913 98.6655 57.3998 99.3475 56.1493 100.598C54.8989 101.848 54.2168 103.667 54.2168 106.168Z" fill="white"/>
<path d="M76.9524 117.876V94.3449H82.2952V99.6878C82.8636 97.9826 83.773 96.6185 85.0235 95.5954C86.1603 94.5723 87.5244 94.0039 89.1158 94.0039C89.4569 94.0039 89.6842 94.0039 90.0253 94.0039C90.3663 94.0039 90.5937 94.1176 90.9347 94.1176V99.6878C90.0253 99.4604 89.0022 99.3467 87.9791 99.3467C86.1602 99.3467 84.7961 99.8014 83.8867 100.825C82.9773 101.734 82.4089 103.098 82.4089 104.917V117.876H76.9524Z" fill="white"/>
<path d="M114.011 114.353C112.761 115.489 111.283 116.399 109.464 117.194C107.645 117.99 105.713 118.331 103.78 118.331C101.393 118.331 99.3468 117.877 97.4143 116.853C95.4818 115.83 94.004 114.466 92.9809 112.647C91.9578 110.829 91.3894 108.669 91.3894 106.168C91.3894 103.781 91.9578 101.621 92.9809 99.8018C94.004 97.983 95.4818 96.5052 97.1869 95.4821C99.0058 94.459 100.938 93.8906 103.098 93.8906C105.485 93.8906 107.532 94.3453 109.35 95.3684C111.056 96.3915 112.42 97.8693 113.329 99.6882C114.239 101.507 114.693 103.781 114.693 106.281V107.987H96.9596C97.3006 109.919 98.0964 111.397 99.3468 112.306C100.597 113.329 102.189 113.784 104.008 113.784C105.485 113.784 106.85 113.557 108.1 112.988C109.35 112.42 110.487 111.738 111.397 110.942L114.011 114.353ZM102.984 98.324C101.393 98.324 100.029 98.8924 98.8921 99.9155C97.7553 100.939 97.0733 102.416 96.7322 104.349H109.123C108.896 102.416 108.327 100.939 107.191 99.9155C106.167 98.8924 104.69 98.324 102.984 98.324Z" fill="white"/>
<path d="M119.695 117.876V98.8917H115.489V94.4583H119.695V92.4121C119.695 89.6839 120.49 87.6377 122.082 86.1599C123.673 84.6821 125.833 84 128.448 84C129.016 84 129.471 84 129.926 84.1137C130.38 84.2274 130.949 84.2274 131.403 84.341V88.7744C130.608 88.5471 129.812 88.4334 129.016 88.4334C126.515 88.4334 125.151 89.6839 125.151 92.2984V94.4583H131.062V98.8917H125.151V117.876H119.695Z" fill="white"/>
<path d="M143.794 118.332C141.521 118.332 139.361 117.763 137.542 116.74C135.609 115.717 134.132 114.239 133.109 112.42C131.972 110.602 131.517 108.442 131.517 106.054C131.517 103.667 132.085 101.507 133.109 99.6886C134.245 97.8697 135.723 96.3919 137.542 95.3688C139.474 94.3457 141.521 93.7773 143.794 93.7773C146.181 93.7773 148.228 94.3457 150.046 95.3688C151.865 96.3919 153.343 97.8697 154.48 99.6886C155.617 101.507 156.071 103.667 156.071 106.054C156.071 108.442 155.503 110.602 154.48 112.42C153.343 114.239 151.865 115.717 150.046 116.74C148.228 117.877 146.068 118.332 143.794 118.332ZM143.794 113.671C145.727 113.671 147.318 112.989 148.569 111.625C149.819 110.261 150.501 108.442 150.501 106.054C150.501 103.667 149.819 101.848 148.569 100.484C147.318 99.1202 145.613 98.4381 143.794 98.4381C141.862 98.4381 140.27 99.1202 139.02 100.484C137.769 101.848 137.087 103.667 137.087 106.054C137.087 108.442 137.769 110.261 139.02 111.625C140.27 113.102 141.862 113.671 143.794 113.671Z" fill="white"/>
<path d="M170.281 118.332C168.008 118.332 165.848 117.763 164.029 116.74C162.097 115.717 160.619 114.239 159.596 112.42C158.459 110.602 158.004 108.442 158.004 106.054C158.004 103.667 158.573 101.507 159.596 99.6886C160.732 97.8697 162.21 96.3919 164.029 95.3688C165.962 94.3457 168.008 93.7773 170.281 93.7773C172.668 93.7773 174.715 94.3457 176.534 95.3688C178.352 96.3919 179.83 97.8697 180.967 99.6886C182.104 101.507 182.558 103.667 182.558 106.054C182.558 108.442 181.99 110.602 180.967 112.42C179.83 114.239 178.352 115.717 176.534 116.74C174.715 117.877 172.668 118.332 170.281 118.332ZM170.281 113.671C172.214 113.671 173.805 112.989 175.056 111.625C176.306 110.261 176.988 108.442 176.988 106.054C176.988 103.667 176.306 101.848 175.056 100.484C173.805 99.1202 172.1 98.4381 170.281 98.4381C168.349 98.4381 166.757 99.1202 165.507 100.484C164.256 101.848 163.574 103.667 163.574 106.054C163.574 108.442 164.256 110.261 165.507 111.625C166.871 113.102 168.462 113.671 170.281 113.671Z" fill="white"/>
<path d="M186.991 110.6V98.7775H182.785V94.3441H186.991V86.9551H192.448V94.3441H198.7V98.7775H192.448V109.918C192.448 111.282 192.789 112.191 193.357 112.76C193.926 113.328 194.721 113.669 195.858 113.669C196.313 113.669 196.767 113.669 197.336 113.556C197.904 113.556 198.473 113.442 199.041 113.215V117.648C198.245 117.875 197.45 117.989 196.767 118.103C196.085 118.216 195.403 118.216 194.721 118.216C192.22 118.216 190.288 117.534 189.037 116.17C187.56 114.92 186.991 113.101 186.991 110.6Z" fill="white"/>
<path d="M190.629 132.199H196.199V133.791H194.381V139.816H192.562V133.791H190.743V132.199H190.629ZM190.061 145.84C184.604 145.84 180.285 141.407 180.285 136.064C180.285 130.721 184.718 126.288 190.061 126.288C195.404 126.288 199.837 130.721 199.837 136.064C199.837 141.407 195.517 145.84 190.061 145.84ZM190.061 147.205C196.199 147.205 201.201 142.203 201.201 136.064C201.201 129.926 196.199 124.924 190.061 124.924C183.922 124.924 178.92 129.926 178.92 136.064C178.92 142.203 183.922 147.205 190.061 147.205ZM188.242 137.428C188.242 136.974 187.901 136.633 187.446 136.633H186.196V138.224H187.446C187.901 138.224 188.242 137.883 188.242 137.428ZM188.015 134.359C188.015 133.904 187.787 133.677 187.333 133.677H186.196V135.041H187.333C187.787 135.041 188.015 134.814 188.015 134.359ZM190.061 137.542C190.061 139.02 189.038 139.816 187.56 139.816H184.263V132.199H187.333C188.81 132.199 189.833 132.995 189.833 134.359C189.833 135.041 189.606 135.496 189.151 135.837C189.606 136.064 190.061 136.746 190.061 137.542Z" fill="white"/>
<path d="M53.0796 138.565V134.586H52.1702V133.904H53.0796V133.336C53.0796 132.768 53.1933 132.427 53.5343 132.086C53.8753 131.858 54.2164 131.631 54.6711 131.631C54.7848 131.631 54.8984 131.631 54.8984 131.631C55.0121 131.631 55.0121 131.631 55.1258 131.631V132.313C55.0121 132.313 55.0121 132.313 54.8984 132.199C54.7848 132.199 54.7848 132.199 54.6711 132.199C54.1027 132.199 53.8753 132.427 53.8753 132.995V133.563H55.1258V134.245H53.8753V138.224H53.0796V138.565Z" fill="white"/>
<path d="M55.8076 138.565V133.905H56.6034V134.928C56.717 134.587 56.9444 134.359 57.1717 134.132C57.3991 133.905 57.6264 133.791 57.9675 133.791C58.0812 133.791 58.1948 133.791 58.4222 133.791V134.7C58.3085 134.7 58.1948 134.7 58.1948 134.7C58.0812 134.7 57.9675 134.7 57.8538 134.7C57.5128 134.7 57.1717 134.814 56.9444 135.041C56.717 135.269 56.6034 135.61 56.6034 135.951V138.565H55.8076Z" fill="white"/>
<path d="M61.0385 138.679C60.5838 138.679 60.1291 138.565 59.7881 138.338C59.447 138.111 59.106 137.883 58.8786 137.429C58.6513 137.088 58.5376 136.633 58.5376 136.178C58.5376 135.724 58.6513 135.269 58.8786 134.928C59.106 134.587 59.3333 134.246 59.7881 134.132C60.1291 133.905 60.5838 133.791 61.0385 133.791C61.4932 133.791 61.9479 133.905 62.2889 134.132C62.63 134.359 62.971 134.587 63.1984 135.041C63.4257 135.382 63.5394 135.837 63.5394 136.292C63.5394 136.747 63.4257 137.201 63.1984 137.542C62.971 137.883 62.7437 138.224 62.2889 138.338C61.8342 138.565 61.4932 138.679 61.0385 138.679ZM61.0385 137.883C61.3795 137.883 61.6069 137.77 61.8342 137.656C62.0616 137.542 62.2889 137.315 62.4026 137.088C62.5163 136.86 62.63 136.519 62.63 136.178C62.63 135.837 62.5163 135.496 62.4026 135.269C62.2889 135.041 62.0616 134.814 61.8342 134.7C61.6069 134.587 61.3795 134.473 61.0385 134.473C60.6975 134.473 60.4701 134.587 60.2428 134.7C60.0154 134.814 59.788 135.041 59.6744 135.269C59.5607 135.496 59.447 135.837 59.447 136.178C59.447 136.519 59.5607 136.86 59.6744 137.088C59.788 137.315 60.0154 137.542 60.2428 137.656C60.4701 137.883 60.6975 137.883 61.0385 137.883Z" fill="white"/>
<path d="M64.335 138.565V133.905H65.1307V134.928C65.2444 134.587 65.4717 134.359 65.6991 134.132C65.9264 133.905 66.2675 133.791 66.6085 133.791C66.9495 133.791 67.2906 133.905 67.5179 134.132C67.7453 134.359 67.9726 134.587 68.0863 135.041C68.2 134.7 68.4273 134.359 68.7684 134.132C68.9957 133.905 69.3367 133.791 69.7915 133.791C70.1325 133.791 70.3598 133.905 70.7009 134.018C70.9282 134.132 71.1556 134.359 71.2693 134.7C71.3829 135.041 71.4966 135.269 71.4966 135.724V138.565H70.7009V135.837C70.7009 135.382 70.5872 135.041 70.3598 134.814C70.1325 134.587 69.9051 134.473 69.5641 134.473C69.3367 134.473 69.1094 134.587 68.882 134.7C68.6547 134.814 68.541 134.928 68.4273 135.155C68.3137 135.382 68.2 135.61 68.2 135.837V138.565H67.4042V135.837C67.4042 135.382 67.2906 135.041 67.0632 134.814C66.8359 134.587 66.6085 134.473 66.2675 134.473C66.0401 134.473 65.8128 134.587 65.5854 134.7C65.358 134.814 65.2444 134.928 65.1307 135.155C65.017 135.382 64.9033 135.61 64.9033 135.837V138.565H64.335Z" fill="white"/>
<path d="M172.328 124.811H171.987V147.091H172.328V124.811Z" fill="white"/>
<path d="M91.7308 138.224C91.2761 137.997 91.0488 137.656 90.7077 137.315C90.4804 136.974 90.3667 136.519 90.3667 135.951C90.3667 135.496 90.4804 135.041 90.7077 134.586C90.9351 134.245 91.2761 133.904 91.7308 133.677C92.1855 133.45 92.6402 133.336 93.0949 133.336C93.5497 133.336 93.8907 133.45 94.2317 133.563C94.5727 133.677 94.9138 133.904 95.1411 134.245L94.3454 134.927C94.0044 134.586 93.5497 134.359 93.0949 134.359C92.7539 134.359 92.5266 134.473 92.2992 134.586C92.0719 134.7 91.8445 134.927 91.7308 135.155C91.6171 135.382 91.5035 135.723 91.5035 135.951C91.5035 136.292 91.6171 136.519 91.7308 136.746C91.8445 136.974 92.0719 137.201 92.2992 137.315C92.5266 137.428 92.8676 137.542 93.0949 137.542C93.5497 137.542 94.0044 137.315 94.3454 136.974L95.1411 137.656C94.9138 137.997 94.5727 138.224 94.2317 138.338C93.8907 138.451 93.436 138.565 93.0949 138.565C92.6402 138.565 92.1855 138.451 91.7308 138.224Z" fill="white"/>
<path d="M98.3241 137.427C98.5515 137.2 98.5515 136.973 98.5515 136.632C98.5515 136.291 98.4378 136.063 98.3241 135.836C98.0968 135.609 97.8694 135.495 97.642 135.495C97.301 135.495 97.0737 135.609 96.96 135.836C96.7326 136.063 96.7326 136.291 96.7326 136.632C96.7326 136.973 96.8463 137.2 96.96 137.427C97.1873 137.655 97.4147 137.768 97.642 137.768C97.8694 137.655 98.0968 137.541 98.3241 137.427ZM96.5053 138.337C96.1642 138.223 95.9369 137.882 95.7095 137.655C95.4822 137.314 95.4822 136.973 95.4822 136.632C95.4822 136.291 95.5959 135.95 95.7095 135.609C95.9369 135.268 96.1642 135.04 96.5053 134.927C96.8463 134.813 97.1873 134.699 97.642 134.699C98.0967 134.699 98.4378 134.813 98.7788 134.927C99.1198 135.04 99.3472 135.381 99.5746 135.609C99.8019 135.95 99.8019 136.291 99.8019 136.632C99.8019 136.973 99.6882 137.314 99.5746 137.655C99.3472 137.996 99.1198 138.223 98.7788 138.337C98.4378 138.451 98.0967 138.564 97.642 138.564C97.1873 138.564 96.8463 138.451 96.5053 138.337Z" fill="white"/>
<path d="M106.508 135.042C106.849 135.383 106.963 135.724 106.963 136.292V138.452H105.826V136.52C105.826 136.179 105.713 135.951 105.599 135.838C105.485 135.724 105.258 135.61 105.03 135.61C104.803 135.61 104.576 135.724 104.462 135.838C104.348 135.951 104.235 136.292 104.235 136.633V138.566H103.098V136.52C103.098 135.951 102.871 135.61 102.416 135.61C102.189 135.61 101.961 135.724 101.848 135.838C101.734 135.951 101.62 136.292 101.62 136.633V138.566H100.483V134.701H101.507V135.156C101.62 135.042 101.848 134.815 102.075 134.815C102.302 134.701 102.53 134.701 102.757 134.701C102.984 134.701 103.325 134.701 103.439 134.815C103.666 134.928 103.78 135.042 104.007 135.269C104.121 135.042 104.348 134.928 104.576 134.815C104.803 134.701 105.03 134.701 105.372 134.701C105.826 134.587 106.281 134.701 106.508 135.042Z" fill="white"/>
<path d="M110.829 137.43C111.056 137.202 111.056 136.975 111.056 136.634C111.056 136.293 110.942 136.066 110.829 135.838C110.601 135.611 110.374 135.497 110.146 135.497C109.805 135.497 109.578 135.611 109.464 135.838C109.237 136.066 109.237 136.293 109.237 136.634C109.237 136.975 109.351 137.202 109.464 137.43C109.692 137.657 109.919 137.771 110.146 137.771C110.374 137.657 110.601 137.543 110.829 137.43ZM111.283 134.815C111.624 134.929 111.852 135.156 111.965 135.497C112.079 135.838 112.193 136.179 112.193 136.52C112.193 136.861 112.079 137.316 111.965 137.543C111.852 137.884 111.511 138.112 111.283 138.225C110.942 138.339 110.715 138.453 110.26 138.453C109.805 138.453 109.351 138.339 109.123 137.998V139.931H107.987V134.701H109.01V135.156C109.237 134.815 109.692 134.701 110.26 134.701C110.601 134.588 110.942 134.701 111.283 134.815Z" fill="white"/>
<path d="M116.853 134.699V138.564H115.83V138.11C115.716 138.223 115.489 138.451 115.262 138.451C115.034 138.564 114.807 138.564 114.58 138.564C114.125 138.564 113.67 138.451 113.329 138.11C112.988 137.769 112.875 137.427 112.875 136.859V134.699H114.011V136.745C114.011 137.314 114.239 137.655 114.807 137.655C115.034 137.655 115.262 137.541 115.489 137.427C115.603 137.2 115.716 136.973 115.716 136.632V134.699H116.853Z" fill="white"/>
<path d="M120.378 138.338C120.264 138.451 120.15 138.451 119.923 138.565C119.809 138.565 119.582 138.679 119.468 138.679C119.013 138.679 118.672 138.565 118.445 138.338C118.218 138.11 118.104 137.769 118.104 137.315V135.723H117.536V134.814H118.104V133.904H119.241V134.814H120.15V135.723H119.241V137.315C119.241 137.428 119.241 137.656 119.354 137.656C119.468 137.769 119.582 137.769 119.696 137.769C119.923 137.769 120.037 137.769 120.15 137.656L120.378 138.338Z" fill="white"/>
<path d="M120.946 134.7H122.082V138.565H120.946V134.7ZM121.059 133.904C120.946 133.791 120.832 133.677 120.832 133.45C120.832 133.222 120.946 133.109 121.059 132.995C121.173 132.881 121.4 132.768 121.514 132.768C121.741 132.768 121.855 132.881 121.969 132.995C122.082 133.109 122.196 133.222 122.196 133.45C122.196 133.677 122.082 133.791 121.969 133.904C121.855 134.018 121.628 134.132 121.514 134.132C121.287 134.132 121.173 134.018 121.059 133.904Z" fill="white"/>
<path d="M126.629 135.042C126.97 135.383 127.084 135.724 127.084 136.292V138.452H125.947V136.52C125.947 136.179 125.834 135.951 125.72 135.838C125.606 135.724 125.379 135.61 125.152 135.61C124.924 135.61 124.697 135.724 124.47 135.838C124.356 136.065 124.242 136.292 124.242 136.633V138.566H123.105V134.701H124.129V135.156C124.242 135.042 124.47 134.815 124.697 134.815C124.924 134.701 125.152 134.701 125.379 134.701C125.947 134.587 126.402 134.701 126.629 135.042Z" fill="white"/>
<path d="M130.722 137.2C130.949 136.973 130.949 136.745 130.949 136.518C130.949 136.291 130.835 136.063 130.722 135.836C130.494 135.609 130.267 135.609 130.04 135.609C129.699 135.609 129.471 135.722 129.358 135.836C129.13 136.063 129.017 136.291 129.017 136.518C129.017 136.745 129.13 136.973 129.358 137.2C129.585 137.427 129.812 137.427 130.04 137.427C130.267 137.427 130.494 137.314 130.722 137.2ZM132.086 134.699V137.882C132.086 138.564 131.859 139.133 131.518 139.474C131.177 139.815 130.608 140.042 129.926 140.042C129.585 140.042 129.244 140.042 128.903 139.928C128.562 139.815 128.335 139.701 128.107 139.587L128.562 138.792C128.676 138.905 128.903 139.019 129.13 139.133C129.358 139.246 129.585 139.246 129.926 139.246C130.267 139.246 130.608 139.133 130.835 139.019C131.063 138.792 131.063 138.564 131.063 138.223V138.11C130.722 138.451 130.381 138.564 129.812 138.564C129.471 138.564 129.13 138.451 128.789 138.337C128.448 138.223 128.221 137.996 128.107 137.655C127.88 137.427 127.88 137.086 127.88 136.632C127.88 136.177 127.994 135.95 128.107 135.609C128.335 135.381 128.562 135.154 128.789 134.927C129.13 134.813 129.358 134.699 129.812 134.699C130.381 134.699 130.835 134.927 131.063 135.268V134.813H132.086V134.699Z" fill="white"/>
<path d="M137.088 137.996C137.315 137.882 137.429 137.655 137.543 137.427V136.859H136.406C135.724 136.859 135.383 137.086 135.383 137.541C135.383 137.769 135.496 137.882 135.61 138.11C135.724 138.223 136.065 138.337 136.292 138.337C136.633 138.11 136.861 138.11 137.088 137.996ZM137.656 135.04C137.884 135.268 137.997 135.609 137.997 136.177V138.564H137.543V137.996C137.429 138.223 137.315 138.337 137.088 138.451C136.861 138.564 136.633 138.564 136.292 138.564C135.837 138.564 135.496 138.451 135.269 138.223C135.042 137.996 134.928 137.768 134.928 137.427C134.928 137.086 135.042 136.859 135.269 136.632C135.496 136.404 135.837 136.291 136.406 136.291H137.656V136.063C137.656 135.722 137.543 135.495 137.429 135.268C137.202 135.154 136.974 135.04 136.633 135.04C136.406 135.04 136.178 135.04 135.951 135.154C135.724 135.268 135.496 135.381 135.383 135.495L135.155 135.154C135.383 135.04 135.61 134.813 135.837 134.813C136.065 134.699 136.406 134.699 136.633 134.699C137.088 134.699 137.429 134.813 137.656 135.04Z" fill="white"/>
<path d="M141.408 138.337C141.294 138.451 141.18 138.451 141.067 138.565C140.953 138.565 140.725 138.678 140.612 138.678C140.271 138.678 139.93 138.565 139.816 138.337C139.589 138.11 139.475 137.883 139.475 137.542V135.268H138.793V134.813H139.475V134.018H139.93V134.813H141.067V135.268H139.93V137.542C139.93 137.769 139.93 137.883 140.043 138.11C140.157 138.224 140.271 138.337 140.498 138.337C140.612 138.337 140.725 138.337 140.839 138.337C140.953 138.337 141.067 138.224 141.067 138.224L141.408 138.337Z" fill="white"/>
<path d="M144.704 138.337C144.363 138.224 144.136 138.11 143.908 137.883L144.136 137.428C144.363 137.655 144.59 137.769 144.818 137.883C145.159 137.996 145.386 137.996 145.727 137.996C146.182 137.996 146.523 137.883 146.75 137.769C146.978 137.655 147.091 137.428 147.091 137.087C147.091 136.86 146.978 136.746 146.864 136.632C146.75 136.519 146.637 136.405 146.409 136.405C146.182 136.291 145.955 136.291 145.727 136.177C145.386 136.064 145.045 135.95 144.818 135.95C144.59 135.836 144.363 135.723 144.249 135.495C144.136 135.268 144.022 135.041 144.022 134.813C144.022 134.586 144.136 134.359 144.249 134.131C144.363 133.904 144.59 133.79 144.818 133.677C145.045 133.563 145.386 133.449 145.841 133.449C146.182 133.449 146.409 133.449 146.637 133.563C146.864 133.677 147.205 133.79 147.319 133.904L147.091 134.359C146.864 134.245 146.637 134.131 146.409 134.018C146.182 133.904 145.955 133.904 145.727 133.904C145.273 133.904 144.932 134.018 144.704 134.131C144.477 134.245 144.363 134.472 144.363 134.813C144.363 135.041 144.477 135.154 144.59 135.268C144.704 135.382 144.818 135.495 145.045 135.495C145.273 135.609 145.5 135.609 145.841 135.723C146.182 135.836 146.523 135.95 146.75 135.95C146.978 136.064 147.205 136.177 147.319 136.405C147.432 136.632 147.546 136.86 147.546 137.087C147.546 137.314 147.432 137.542 147.319 137.769C147.205 137.996 146.978 138.11 146.637 138.224C146.409 138.337 145.955 138.451 145.614 138.451C145.386 138.565 145.045 138.565 144.704 138.337Z" fill="white"/>
<path d="M149.251 138.337C148.91 138.223 148.683 137.996 148.569 137.655C148.456 137.314 148.342 136.973 148.342 136.632C148.342 136.291 148.456 135.95 148.569 135.609C148.683 135.268 149.024 135.04 149.251 134.927C149.592 134.813 149.934 134.699 150.275 134.699C150.616 134.699 150.843 134.813 151.184 134.927C151.411 135.04 151.639 135.268 151.752 135.495L151.411 135.722C151.298 135.495 151.184 135.381 150.957 135.268C150.729 135.154 150.502 135.154 150.388 135.154C150.161 135.154 149.82 135.268 149.706 135.381C149.479 135.495 149.365 135.722 149.251 135.95C149.138 136.177 149.024 136.404 149.024 136.745C149.024 137.086 149.138 137.314 149.251 137.541C149.365 137.769 149.592 137.882 149.706 138.11C149.934 138.223 150.161 138.337 150.388 138.337C150.616 138.337 150.843 138.337 150.957 138.223C151.184 138.11 151.298 137.996 151.411 137.768L151.752 137.996C151.639 138.223 151.411 138.451 151.184 138.564C150.957 138.678 150.616 138.792 150.275 138.792C149.82 138.564 149.479 138.451 149.251 138.337Z" fill="white"/>
<path d="M155.731 135.156C155.958 135.383 156.186 135.838 156.186 136.406V138.566H155.731V136.406C155.731 136.065 155.617 135.724 155.39 135.497C155.162 135.269 154.935 135.156 154.594 135.156C154.139 135.156 153.912 135.269 153.685 135.497C153.457 135.724 153.344 136.065 153.344 136.52V138.452H152.889V133.109H153.344V135.383C153.457 135.156 153.685 135.042 153.912 134.928C154.139 134.815 154.48 134.701 154.708 134.701C155.049 134.701 155.39 134.815 155.731 135.156Z" fill="white"/>
<path d="M159.824 137.882C160.051 137.769 160.165 137.541 160.279 137.314C160.392 137.086 160.506 136.859 160.506 136.518C160.506 136.177 160.392 135.95 160.279 135.722C160.165 135.495 159.937 135.268 159.824 135.154C159.596 135.04 159.369 134.927 159.142 134.927C158.914 134.927 158.687 135.04 158.46 135.154C158.232 135.268 158.119 135.495 158.005 135.722C157.891 135.95 157.778 136.177 157.778 136.518C157.778 136.859 157.891 137.086 158.005 137.314C158.119 137.541 158.346 137.769 158.46 137.882C158.687 137.996 158.914 138.11 159.142 138.11C159.369 138.11 159.596 137.996 159.824 137.882ZM158.119 138.337C157.778 138.223 157.55 137.996 157.437 137.655C157.323 137.314 157.209 137.086 157.209 136.632C157.209 136.291 157.323 135.95 157.437 135.609C157.55 135.268 157.778 135.04 158.119 134.927C158.46 134.813 158.687 134.699 159.142 134.699C159.483 134.699 159.824 134.813 160.165 134.927C160.506 135.04 160.733 135.268 160.847 135.609C160.961 135.95 161.074 136.177 161.074 136.632C161.074 136.973 160.961 137.314 160.847 137.655C160.733 137.996 160.506 138.223 160.165 138.337C159.824 138.451 159.596 138.564 159.142 138.564C158.687 138.564 158.346 138.451 158.119 138.337Z" fill="white"/>
<path d="M164.257 137.882C164.485 137.769 164.598 137.541 164.712 137.314C164.826 137.086 164.939 136.859 164.939 136.518C164.939 136.177 164.826 135.95 164.712 135.722C164.598 135.495 164.371 135.268 164.257 135.154C164.03 135.04 163.803 134.927 163.575 134.927C163.348 134.927 163.121 135.04 162.893 135.154C162.666 135.268 162.552 135.495 162.439 135.722C162.325 135.95 162.211 136.177 162.211 136.518C162.211 136.859 162.325 137.086 162.439 137.314C162.552 137.541 162.78 137.769 162.893 137.882C163.121 137.996 163.348 138.11 163.575 138.11C163.803 138.11 164.03 137.996 164.257 137.882ZM162.552 138.337C162.211 138.223 161.984 137.996 161.87 137.655C161.756 137.314 161.643 137.086 161.643 136.632C161.643 136.291 161.756 135.95 161.87 135.609C161.984 135.268 162.211 135.04 162.552 134.927C162.893 134.813 163.121 134.699 163.575 134.699C163.916 134.699 164.257 134.813 164.598 134.927C164.939 135.04 165.167 135.268 165.28 135.609C165.394 135.95 165.508 136.177 165.508 136.632C165.508 136.973 165.394 137.314 165.28 137.655C165.167 137.996 164.939 138.223 164.598 138.337C164.257 138.451 164.03 138.564 163.575 138.564C163.234 138.564 162.893 138.451 162.552 138.337Z" fill="white"/>
<path d="M166.985 133.223H166.531V138.565H166.985V133.223Z" fill="white"/>
<path d="M83.5454 132.084C84.0002 132.311 84.6822 132.084 84.9096 131.629C85.1369 131.174 84.9096 130.492 84.4549 130.265C84.0002 130.038 83.3181 130.265 83.0907 130.72C82.8634 131.288 82.9771 131.856 83.5454 132.084Z" fill="white"/>
<path d="M91.5032 129.355L83.7732 132.993L79.5671 129.696L83.3185 135.153L91.5032 129.355Z" fill="white"/>
<path d="M88.0922 135.384C87.6375 135.157 86.9555 135.384 86.7281 135.839C86.5008 136.294 86.7281 136.976 87.1828 137.203C87.6375 137.43 88.3196 137.203 88.5469 136.748C88.7743 136.18 88.5469 135.611 88.0922 135.384Z" fill="white"/>
<path d="M89.4572 143.907L85.8195 136.063L89.1162 131.857L83.6597 135.609L89.4572 143.907Z" fill="white"/>
<path d="M82.9777 139.019C82.523 138.792 81.841 139.019 81.6136 139.474C81.3863 139.928 81.6136 140.61 82.0683 140.838C82.523 141.065 83.2051 140.838 83.4324 140.383C83.6598 139.815 83.5461 139.246 82.9777 139.019Z" fill="white"/>
<path d="M75.0203 141.747L82.7503 138.109L86.9564 141.406L83.205 135.949L75.0203 141.747Z" fill="white"/>
<path d="M78.5445 135.838C78.9992 136.065 79.6812 135.838 79.9086 135.383C80.136 134.928 79.9086 134.246 79.4539 134.019C78.9992 133.792 78.3171 134.019 78.0898 134.474C77.8624 134.928 77.9761 135.497 78.5445 135.838Z" fill="white"/>
<path d="M77.1804 127.311L80.7044 135.154L77.5215 139.36L82.8643 135.495L77.1804 127.311Z" fill="white"/>
</svg>
