<svg width="423" height="81" viewBox="0 0 423 81" fill="none" xmlns="http://www.w3.org/2000/svg">
<path d="M95.4043 1.60278H114.489C117.402 1.60278 119.733 2.03983 121.627 3.05962C123.521 4.0794 124.978 5.39055 125.998 6.99307C127.018 8.59559 127.455 10.3438 127.455 12.092C127.455 14.1316 126.872 15.8798 125.561 17.4823C124.25 19.0848 122.501 20.2503 120.025 20.9787C123.084 21.7071 125.269 22.8726 126.872 24.7665C128.474 26.6603 129.203 28.6999 129.203 31.0308C129.203 33.3618 128.62 35.4013 127.6 37.2952C126.435 39.1891 124.832 40.6459 122.793 41.8114C120.753 42.9769 118.277 43.4139 115.217 43.4139H95.4043V1.60278ZM113.906 7.72149H102.688V18.7934H113.906C115.946 18.7934 117.548 18.2107 118.568 17.1909C119.588 16.0254 120.025 14.7143 120.025 13.2575C120.025 11.6549 119.588 10.3438 118.568 9.32401C117.548 8.30422 115.946 7.72149 113.906 7.72149ZM114.635 24.9121H102.688V37.2952H114.635C116.965 37.2952 118.714 36.7125 120.025 35.547C121.19 34.3816 121.773 32.779 121.773 31.0308C121.773 29.4283 121.19 27.9715 120.025 26.806C118.859 25.4949 116.965 24.9121 114.635 24.9121Z" fill="#5514B4"/>
<path d="M145.374 43.9967C143.043 43.9967 140.857 43.4139 138.818 42.1028C136.778 40.7916 135.176 39.0434 133.865 36.7125C132.553 34.3816 131.971 31.6136 131.971 28.2629C131.971 25.0578 132.553 22.1442 133.865 19.8132C135.176 17.4823 136.778 15.7341 138.818 14.4229C140.857 13.1118 143.043 12.5291 145.374 12.5291C147.85 12.5291 150.035 13.1118 151.929 14.4229C153.823 15.7341 155.134 17.4823 156.154 19.6675V13.1118H162.856V43.2683H156.154V36.7125C155.134 38.8978 153.823 40.646 151.929 41.9571C150.035 43.4139 147.85 43.9967 145.374 43.9967ZM139.255 28.4085C139.255 31.4679 140.129 33.7988 141.731 35.547C143.334 37.2952 145.519 38.1693 147.996 38.1693C149.307 38.1693 150.618 37.878 151.784 37.2952C152.949 36.7125 153.969 35.8384 154.697 34.6729C155.426 33.5075 155.863 32.1963 155.863 30.7395V26.2233C155.863 24.7665 155.426 23.4553 154.697 22.2898C153.969 21.1244 152.949 20.2503 151.784 19.6675C150.618 19.0848 149.307 18.7934 147.996 18.7934C145.374 18.7934 143.334 19.6675 141.731 21.2701C140.129 22.8726 139.255 25.2035 139.255 28.4085Z" fill="#5514B4"/>
<path d="M168.392 43.4133V13.2569H175.239V20.104C175.967 17.9187 177.133 16.1705 178.735 14.8594C180.192 13.5482 181.94 12.8198 183.98 12.8198C184.417 12.8198 184.708 12.8198 185.145 12.8198C185.582 12.8198 185.874 12.9655 186.311 12.9655V20.104C185.145 19.8126 183.834 19.6669 182.523 19.6669C180.192 19.6669 178.444 20.2497 177.278 21.5608C176.113 22.7263 175.384 24.4745 175.384 26.8054V43.4133H168.392Z" fill="#5514B4"/>
<path d="M215.885 38.8978C214.282 40.3547 212.388 41.5201 210.057 42.5399C207.726 43.5597 205.25 43.9967 202.773 43.9967C199.714 43.9967 197.091 43.414 194.615 42.1029C192.138 40.7917 190.244 39.0435 188.933 36.7126C187.622 34.3816 186.894 31.6137 186.894 28.4086C186.894 25.3493 187.622 22.5813 188.933 20.2503C190.244 17.9194 192.138 16.0255 194.323 14.7144C196.654 13.4032 199.131 12.6748 201.899 12.6748C204.958 12.6748 207.581 13.2575 209.912 14.5687C212.097 15.8798 213.845 17.7737 215.01 20.1047C216.176 22.4356 216.759 25.3493 216.759 28.5543V30.7396H194.032C194.469 33.2162 195.489 35.1101 197.091 36.2755C198.694 37.5867 200.733 38.1694 203.064 38.1694C204.958 38.1694 206.707 37.878 208.309 37.1496C209.912 36.4212 211.368 35.5471 212.534 34.5273L215.885 38.8978ZM201.753 18.3565C199.714 18.3565 197.966 19.0849 196.509 20.396C195.052 21.7072 194.178 23.6011 193.741 26.0777H209.62C209.329 23.6011 208.6 21.7072 207.144 20.396C205.832 19.0849 203.939 18.3565 201.753 18.3565Z" fill="#5514B4"/>
<path d="M223.169 43.4137V19.0845H217.778V13.4029H223.169V10.7806C223.169 7.28417 224.188 4.66187 226.228 2.76798C228.268 0.8741 231.036 0 234.386 0C235.115 0 235.697 -8.35778e-07 236.28 0.145683C236.863 0.291366 237.591 0.291367 238.174 0.437051V6.1187C237.154 5.82734 236.134 5.68165 235.115 5.68165C231.91 5.68165 230.161 7.28417 230.161 10.6349V13.4029H237.737V19.0845H230.161V43.4137H223.169Z" fill="#5514B4"/>
<path d="M254.053 43.9967C251.14 43.9967 248.372 43.2683 246.041 41.9571C243.564 40.646 241.67 38.7521 240.359 36.4211C238.902 34.0902 238.32 31.3222 238.32 28.2629C238.32 25.2035 239.048 22.4355 240.359 20.1046C241.816 17.7737 243.71 15.8798 246.041 14.5686C248.517 13.2575 251.14 12.5291 254.053 12.5291C257.113 12.5291 259.735 13.2575 262.066 14.5686C264.397 15.8798 266.291 17.7737 267.748 20.1046C269.204 22.4355 269.787 25.2035 269.787 28.2629C269.787 31.3222 269.059 34.0902 267.748 36.4211C266.291 38.7521 264.397 40.646 262.066 41.9571C259.735 43.4139 256.967 43.9967 254.053 43.9967ZM254.053 38.0237C256.53 38.0237 258.57 37.1496 260.172 35.4014C261.775 33.6531 262.649 31.3222 262.649 28.2629C262.649 25.2035 261.775 22.8726 260.172 21.1244C258.57 19.3762 256.384 18.5021 254.053 18.5021C251.577 18.5021 249.537 19.3762 247.935 21.1244C246.332 22.8726 245.458 25.2035 245.458 28.2629C245.458 31.3222 246.332 33.6531 247.935 35.4014C249.537 37.2952 251.577 38.0237 254.053 38.0237Z" fill="#5514B4"/>
<path d="M287.998 43.9967C285.084 43.9967 282.316 43.2683 279.985 41.9571C277.509 40.646 275.615 38.7521 274.304 36.4211C272.847 34.0902 272.264 31.3222 272.264 28.2629C272.264 25.2035 272.992 22.4355 274.304 20.1046C275.76 17.7737 277.654 15.8798 279.985 14.5686C282.462 13.2575 285.084 12.5291 287.998 12.5291C291.057 12.5291 293.679 13.2575 296.01 14.5686C298.341 15.8798 300.235 17.7737 301.692 20.1046C303.149 22.4355 303.732 25.2035 303.732 28.2629C303.732 31.3222 303.003 34.0902 301.692 36.4211C300.235 38.7521 298.341 40.646 296.01 41.9571C293.679 43.4139 291.057 43.9967 287.998 43.9967ZM287.998 38.0237C290.474 38.0237 292.514 37.1496 294.117 35.4014C295.719 33.6531 296.593 31.3222 296.593 28.2629C296.593 25.2035 295.719 22.8726 294.117 21.1244C292.514 19.3762 290.329 18.5021 287.998 18.5021C285.521 18.5021 283.482 19.3762 281.879 21.1244C280.277 22.8726 279.403 25.2035 279.403 28.2629C279.403 31.3222 280.277 33.6531 281.879 35.4014C283.627 37.2952 285.667 38.0237 287.998 38.0237Z" fill="#5514B4"/>
<path d="M309.413 34.0902V18.9392H304.023V13.2575H309.413V3.78809H316.406V13.2575H324.419V18.9392H316.406V33.2161C316.406 34.9643 316.843 36.1298 317.571 36.8582C318.3 37.5866 319.32 38.0237 320.776 38.0237C321.359 38.0237 321.942 38.0237 322.67 37.878C323.399 37.878 324.127 37.7323 324.856 37.441V43.1226C323.836 43.414 322.816 43.5597 321.942 43.7053C321.068 43.851 320.194 43.851 319.32 43.851C316.115 43.851 313.638 42.9769 312.035 41.2287C310.142 39.6262 309.413 37.2953 309.413 34.0902Z" fill="#5514B4"/>
<path d="M314.075 61.7698H321.214V63.8094H318.883V71.5306H316.552V63.8094H314.221V61.7698H314.075ZM313.347 79.2518C306.354 79.2518 300.818 73.5701 300.818 66.723C300.818 59.8759 306.5 54.1942 313.347 54.1942C320.194 54.1942 325.876 59.8759 325.876 66.723C325.876 73.5701 320.34 79.2518 313.347 79.2518ZM313.347 81C321.214 81 327.624 74.5899 327.624 66.723C327.624 58.8561 321.214 52.446 313.347 52.446C305.48 52.446 299.07 58.8561 299.07 66.723C299.07 74.5899 305.48 81 313.347 81ZM311.016 68.4712C311.016 67.8885 310.579 67.4514 309.996 67.4514H308.394V69.491H309.996C310.579 69.491 311.016 69.054 311.016 68.4712ZM310.724 64.5378C310.724 63.955 310.433 63.6637 309.85 63.6637H308.394V65.4119H309.85C310.433 65.4119 310.724 65.1205 310.724 64.5378ZM313.347 68.6169C313.347 70.5108 312.036 71.5306 310.142 71.5306H305.917V61.7698H309.85C311.744 61.7698 313.055 62.7896 313.055 64.5378C313.055 65.4119 312.764 65.9946 312.181 66.4317C312.764 66.723 313.347 67.5971 313.347 68.6169Z" fill="#5514B4"/>
<path d="M137.798 69.9279V64.829H136.633V63.9549H137.798V63.2265C137.798 62.4981 137.944 62.061 138.381 61.624C138.818 61.3326 139.255 61.0413 139.838 61.0413C139.984 61.0413 140.129 61.0413 140.129 61.0413C140.275 61.0413 140.275 61.0413 140.421 61.0413V61.9154C140.275 61.9154 140.275 61.9154 140.129 61.7697C139.984 61.7697 139.984 61.7697 139.838 61.7697C139.109 61.7697 138.818 62.061 138.818 62.7895V63.5179H140.421V64.392H138.818V69.4909H137.798V69.9279Z" fill="black"/>
<path d="M141.295 69.9278V63.9548H142.315V65.2659C142.46 64.8289 142.752 64.5375 143.043 64.2461C143.334 63.9548 143.626 63.8091 144.063 63.8091C144.209 63.8091 144.354 63.8091 144.646 63.8091V64.9746C144.5 64.9746 144.354 64.9746 144.354 64.9746C144.209 64.9746 144.063 64.9746 143.917 64.9746C143.48 64.9746 143.043 65.1202 142.752 65.4116C142.46 65.703 142.315 66.14 142.315 66.5771V69.9278H141.295Z" fill="black"/>
<path d="M147.996 70.0735C147.414 70.0735 146.831 69.9278 146.394 69.6364C145.957 69.3451 145.52 69.0537 145.228 68.471C144.937 68.0339 144.791 67.4512 144.791 66.8684C144.791 66.2857 144.937 65.703 145.228 65.2659C145.52 64.8289 145.811 64.3918 146.394 64.2461C146.831 63.9548 147.414 63.8091 147.996 63.8091C148.579 63.8091 149.162 63.9548 149.599 64.2461C150.036 64.5375 150.473 64.8289 150.764 65.4116C151.056 65.8487 151.201 66.4314 151.201 67.0141C151.201 67.5969 151.056 68.1796 150.764 68.6166C150.473 69.0537 150.182 69.4907 149.599 69.6364C149.016 69.9278 148.579 70.0735 147.996 70.0735ZM147.996 69.0537C148.433 69.0537 148.725 68.908 149.016 68.7623C149.307 68.6166 149.599 68.3253 149.744 68.0339C149.89 67.7425 150.036 67.3055 150.036 66.8684C150.036 66.4314 149.89 65.9943 149.744 65.703C149.599 65.4116 149.307 65.1202 149.016 64.9746C148.725 64.8289 148.433 64.6832 147.996 64.6832C147.559 64.6832 147.268 64.8289 146.977 64.9746C146.685 65.1202 146.394 65.4116 146.248 65.703C146.102 65.9943 145.957 66.4314 145.957 66.8684C145.957 67.3055 146.102 67.7425 146.248 68.0339C146.394 68.3253 146.685 68.6166 146.977 68.7623C147.268 69.0537 147.559 69.0537 147.996 69.0537Z" fill="black"/>
<path d="M152.221 69.9278V63.9548H153.241V65.2659C153.387 64.8289 153.678 64.5375 153.969 64.2461C154.261 63.9548 154.698 63.8091 155.135 63.8091C155.572 63.8091 156.009 63.9548 156.3 64.2461C156.592 64.5375 156.883 64.8289 157.029 65.4116C157.174 64.9746 157.466 64.5375 157.903 64.2461C158.194 63.9548 158.631 63.8091 159.214 63.8091C159.651 63.8091 159.942 63.9548 160.379 64.1005C160.671 64.2461 160.962 64.5375 161.108 64.9746C161.254 65.4116 161.399 65.703 161.399 66.2857V69.9278H160.379V66.4314C160.379 65.8487 160.234 65.4116 159.942 65.1202C159.651 64.8289 159.36 64.6832 158.923 64.6832C158.631 64.6832 158.34 64.8289 158.049 64.9746C157.757 65.1202 157.611 65.2659 157.466 65.5573C157.32 65.8487 157.174 66.14 157.174 66.4314V69.9278H156.155V66.4314C156.155 65.8487 156.009 65.4116 155.718 65.1202C155.426 64.8289 155.135 64.6832 154.698 64.6832C154.406 64.6832 154.115 64.8289 153.824 64.9746C153.532 65.1202 153.387 65.2659 153.241 65.5573C153.095 65.8487 152.95 66.14 152.95 66.4314V69.9278H152.221Z" fill="black"/>
<path d="M290.62 52.3003H290.183V80.8542H290.62V52.3003Z" fill="black"/>
<path d="M187.33 69.4909C186.748 69.1996 186.456 68.7625 186.019 68.3255C185.728 67.8884 185.582 67.3057 185.582 66.5773C185.582 65.9945 185.728 65.4118 186.019 64.8291C186.311 64.392 186.748 63.955 187.33 63.6636C187.913 63.3722 188.496 63.2266 189.079 63.2266C189.661 63.2266 190.098 63.3722 190.536 63.5179C190.973 63.6636 191.41 63.955 191.701 64.392L190.681 65.2661C190.244 64.8291 189.661 64.5377 189.079 64.5377C188.642 64.5377 188.35 64.6834 188.059 64.8291C187.768 64.9748 187.476 65.2661 187.33 65.5575C187.185 65.8489 187.039 66.2859 187.039 66.5773C187.039 67.0143 187.185 67.3057 187.33 67.5971C187.476 67.8884 187.768 68.1798 188.059 68.3255C188.35 68.4712 188.787 68.6169 189.079 68.6169C189.661 68.6169 190.244 68.3255 190.681 67.8884L191.701 68.7625C191.41 69.1996 190.973 69.4909 190.536 69.6366C190.098 69.7823 189.516 69.928 189.079 69.928C188.496 69.928 187.913 69.7823 187.33 69.4909Z" fill="black"/>
<path d="M195.78 68.4715C196.072 68.1801 196.072 67.8888 196.072 67.4517C196.072 67.0147 195.926 66.7233 195.78 66.4319C195.489 66.1406 195.198 65.9949 194.906 65.9949C194.469 65.9949 194.178 66.1406 194.032 66.4319C193.741 66.7233 193.741 67.0147 193.741 67.4517C193.741 67.8888 193.886 68.1801 194.032 68.4715C194.323 68.7629 194.615 68.9085 194.906 68.9085C195.198 68.7629 195.489 68.6172 195.78 68.4715ZM193.449 69.637C193.012 69.4913 192.721 69.0542 192.43 68.7629C192.138 68.3258 192.138 67.8888 192.138 67.4517C192.138 67.0147 192.284 66.5776 192.43 66.1406C192.721 65.7035 193.012 65.4121 193.449 65.2665C193.886 65.1208 194.323 64.9751 194.906 64.9751C195.489 64.9751 195.926 65.1208 196.363 65.2665C196.8 65.4121 197.091 65.8492 197.383 66.1406C197.674 66.5776 197.674 67.0147 197.674 67.4517C197.674 67.8888 197.528 68.3258 197.383 68.7629C197.091 69.1999 196.8 69.4913 196.363 69.637C195.926 69.7826 195.489 69.9283 194.906 69.9283C194.323 69.9283 193.886 69.7826 193.449 69.637Z" fill="black"/>
<path d="M206.269 65.4118C206.706 65.8489 206.852 66.2859 206.852 67.0144V69.7824H205.395V67.3057C205.395 66.8687 205.25 66.5773 205.104 66.4316C204.958 66.2859 204.667 66.1403 204.375 66.1403C204.084 66.1403 203.793 66.2859 203.647 66.4316C203.501 66.5773 203.356 67.0144 203.356 67.4514V69.928H201.899V67.3057C201.899 66.5773 201.607 66.1403 201.025 66.1403C200.733 66.1403 200.442 66.2859 200.296 66.4316C200.151 66.5773 200.005 67.0144 200.005 67.4514V69.928H198.548V64.9748H199.859V65.5575C200.005 65.4118 200.296 65.1205 200.588 65.1205C200.879 64.9748 201.17 64.9748 201.462 64.9748C201.753 64.9748 202.19 64.9748 202.336 65.1205C202.627 65.2662 202.773 65.4118 203.064 65.7032C203.21 65.4118 203.501 65.2662 203.793 65.1205C204.084 64.9748 204.375 64.9748 204.812 64.9748C205.395 64.8291 205.978 64.9748 206.269 65.4118Z" fill="black"/>
<path d="M211.805 68.4713C212.097 68.1799 212.097 67.8886 212.097 67.4515C212.097 67.0145 211.951 66.7231 211.805 66.4317C211.514 66.1404 211.222 65.9947 210.931 65.9947C210.494 65.9947 210.203 66.1404 210.057 66.4317C209.766 66.7231 209.766 67.0145 209.766 67.4515C209.766 67.8886 209.911 68.1799 210.057 68.4713C210.348 68.7627 210.64 68.9083 210.931 68.9083C211.222 68.7627 211.514 68.617 211.805 68.4713ZM212.388 65.1206C212.825 65.2663 213.116 65.5576 213.262 65.9947C213.408 66.4317 213.553 66.8688 213.553 67.3058C213.553 67.7429 213.408 68.3256 213.262 68.617C213.116 69.054 212.679 69.3454 212.388 69.4911C211.951 69.6368 211.659 69.7824 211.077 69.7824C210.494 69.7824 209.911 69.6368 209.62 69.1997V71.6763H208.163V64.9749H209.474V65.5576C209.766 65.1206 210.348 64.9749 211.077 64.9749C211.514 64.8292 211.951 64.9749 212.388 65.1206Z" fill="black"/>
<path d="M219.527 64.9751V69.9283H218.215V69.3456C218.07 69.4913 217.778 69.7826 217.487 69.7826C217.196 69.9283 216.904 69.9283 216.613 69.9283C216.03 69.9283 215.448 69.7827 215.01 69.3456C214.573 68.9086 214.428 68.4715 214.428 67.7431V64.9751H215.885V67.5974C215.885 68.3258 216.176 68.7629 216.904 68.7629C217.196 68.7629 217.487 68.6172 217.778 68.4715C217.924 68.1801 218.07 67.8888 218.07 67.4517V64.9751H219.527Z" fill="black"/>
<path d="M224.043 69.6362C223.897 69.7819 223.751 69.7819 223.46 69.9276C223.314 69.9276 223.023 70.0733 222.877 70.0733C222.295 70.0733 221.857 69.9276 221.566 69.6362C221.275 69.3449 221.129 68.9078 221.129 68.3251V66.2855H220.401V65.1201H221.129V63.9546H222.586V65.1201H223.751V66.2855H222.586V68.3251C222.586 68.4708 222.586 68.7621 222.732 68.7621C222.877 68.9078 223.023 68.9078 223.169 68.9078C223.46 68.9078 223.606 68.9078 223.751 68.7621L224.043 69.6362Z" fill="black"/>
<path d="M224.771 64.9747H226.228V69.9279H224.771V64.9747ZM224.917 63.9549C224.771 63.8092 224.625 63.6635 224.625 63.3721C224.625 63.0808 224.771 62.9351 224.917 62.7894C225.063 62.6437 225.354 62.498 225.5 62.498C225.791 62.498 225.937 62.6437 226.082 62.7894C226.228 62.9351 226.374 63.0808 226.374 63.3721C226.374 63.6635 226.228 63.8092 226.082 63.9549C225.937 64.1006 225.645 64.2462 225.5 64.2462C225.208 64.2462 225.063 64.1006 224.917 63.9549Z" fill="black"/>
<path d="M232.055 65.4118C232.492 65.8489 232.638 66.2859 232.638 67.0144V69.7824H231.181V67.3057C231.181 66.8687 231.035 66.5773 230.89 66.4316C230.744 66.2859 230.453 66.1403 230.161 66.1403C229.87 66.1403 229.579 66.2859 229.287 66.4316C229.142 66.723 228.996 67.0144 228.996 67.4514V69.928H227.539V64.9748H228.85V65.5575C228.996 65.4118 229.287 65.1205 229.579 65.1205C229.87 64.9748 230.161 64.9748 230.453 64.9748C231.181 64.8291 231.764 64.9748 232.055 65.4118Z" fill="black"/>
<path d="M237.3 68.1801C237.591 67.8888 237.591 67.5974 237.591 67.306C237.591 67.0147 237.446 66.7233 237.3 66.4319C237.009 66.1406 236.717 66.1406 236.426 66.1406C235.989 66.1406 235.698 66.2862 235.552 66.4319C235.26 66.7233 235.115 67.0147 235.115 67.306C235.115 67.5974 235.26 67.8888 235.552 68.1801C235.843 68.4715 236.135 68.4715 236.426 68.4715C236.717 68.4715 237.009 68.3258 237.3 68.1801ZM239.048 64.9751V69.0542C239.048 69.9283 238.757 70.6567 238.32 71.0938C237.883 71.5308 237.154 71.8222 236.28 71.8222C235.843 71.8222 235.406 71.8222 234.969 71.6765C234.532 71.5308 234.241 71.3852 233.949 71.2395L234.532 70.2197C234.678 70.3654 234.969 70.5111 235.26 70.6567C235.552 70.8024 235.843 70.8024 236.28 70.8024C236.717 70.8024 237.154 70.6568 237.446 70.5111C237.737 70.2197 237.737 69.9283 237.737 69.4913V69.3456C237.3 69.7827 236.863 69.9283 236.135 69.9283C235.698 69.9283 235.26 69.7826 234.823 69.637C234.386 69.4913 234.095 69.1999 233.949 68.7629C233.658 68.4715 233.658 68.0344 233.658 67.4517C233.658 66.869 233.804 66.5776 233.949 66.1406C234.241 65.8492 234.532 65.5578 234.823 65.2665C235.26 65.1208 235.552 64.9751 236.135 64.9751C236.863 64.9751 237.446 65.2665 237.737 65.7035V65.1208H239.048V64.9751Z" fill="black"/>
<path d="M245.458 69.1999C245.75 69.0542 245.895 68.7629 246.041 68.4715V67.7431H244.584C243.71 67.7431 243.273 68.0345 243.273 68.6172C243.273 68.9086 243.419 69.0542 243.564 69.3456C243.71 69.4913 244.147 69.637 244.438 69.637C244.875 69.3456 245.167 69.3456 245.458 69.1999ZM246.187 65.4121C246.478 65.7035 246.624 66.1406 246.624 66.869V69.9283H246.041V69.1999C245.895 69.4913 245.75 69.637 245.458 69.7826C245.167 69.9283 244.875 69.9283 244.438 69.9283C243.856 69.9283 243.419 69.7826 243.127 69.4913C242.836 69.1999 242.69 68.9085 242.69 68.4715C242.69 68.0344 242.836 67.7431 243.127 67.4517C243.419 67.1603 243.856 67.0147 244.584 67.0147H246.187V66.7233C246.187 66.2862 246.041 65.9949 245.895 65.7035C245.604 65.5578 245.312 65.4121 244.875 65.4121C244.584 65.4121 244.293 65.4121 244.001 65.5578C243.71 65.7035 243.419 65.8492 243.273 65.9949L242.982 65.5578C243.273 65.4121 243.564 65.1208 243.856 65.1208C244.147 64.9751 244.584 64.9751 244.875 64.9751C245.458 64.9751 245.895 65.1208 246.187 65.4121Z" fill="black"/>
<path d="M250.994 69.6368C250.848 69.7825 250.703 69.7825 250.557 69.9282C250.411 69.9282 250.12 70.0739 249.974 70.0739C249.537 70.0739 249.1 69.9282 248.954 69.6368C248.663 69.3454 248.517 69.0541 248.517 68.617V65.7034H247.643V65.1206H248.517V64.1008H249.1V65.1206H250.557V65.7034H249.1V68.617C249.1 68.9084 249.1 69.0541 249.246 69.3454C249.391 69.4911 249.537 69.6368 249.829 69.6368C249.974 69.6368 250.12 69.6368 250.266 69.6368C250.411 69.6368 250.557 69.4911 250.557 69.4911L250.994 69.6368Z" fill="black"/>
<path d="M255.219 69.6367C254.782 69.491 254.491 69.3453 254.199 69.054L254.491 68.4712C254.782 68.7626 255.073 68.9083 255.365 69.054C255.802 69.1997 256.093 69.1997 256.53 69.1997C257.113 69.1997 257.55 69.054 257.841 68.9083C258.133 68.7626 258.278 68.4712 258.278 68.0342C258.278 67.7428 258.133 67.5971 257.987 67.4514C257.841 67.3058 257.696 67.1601 257.404 67.1601C257.113 67.0144 256.822 67.0144 256.53 66.8687C256.093 66.723 255.656 66.5774 255.365 66.5774C255.073 66.4317 254.782 66.286 254.636 65.9946C254.491 65.7032 254.345 65.4119 254.345 65.1205C254.345 64.8291 254.491 64.5378 254.636 64.2464C254.782 63.9551 255.073 63.8094 255.365 63.6637C255.656 63.518 256.093 63.3723 256.676 63.3723C257.113 63.3723 257.404 63.3723 257.696 63.518C257.987 63.6637 258.424 63.8094 258.57 63.9551L258.278 64.5378C257.987 64.3921 257.696 64.2464 257.404 64.1007C257.113 63.955 256.822 63.9551 256.53 63.9551C255.947 63.9551 255.51 64.1007 255.219 64.2464C254.928 64.3921 254.782 64.6835 254.782 65.1205C254.782 65.4119 254.928 65.5576 255.073 65.7033C255.219 65.8489 255.365 65.9946 255.656 65.9946C255.947 66.1403 256.239 66.1403 256.676 66.286C257.113 66.4317 257.55 66.5774 257.841 66.5774C258.133 66.723 258.424 66.8687 258.57 67.1601C258.715 67.4515 258.861 67.7428 258.861 68.0342C258.861 68.3256 258.715 68.6169 258.57 68.9083C258.424 69.1997 258.133 69.3453 257.696 69.491C257.404 69.6367 256.822 69.7824 256.384 69.7824C256.093 69.9281 255.656 69.9281 255.219 69.6367Z" fill="black"/>
<path d="M261.046 69.637C260.609 69.4913 260.318 69.1999 260.172 68.7629C260.027 68.3258 259.881 67.8888 259.881 67.4517C259.881 67.0147 260.027 66.5776 260.172 66.1406C260.318 65.7035 260.755 65.4121 261.046 65.2665C261.483 65.1208 261.92 64.9751 262.357 64.9751C262.795 64.9751 263.086 65.1208 263.523 65.2665C263.814 65.4121 264.106 65.7035 264.251 65.9949L263.814 66.2862C263.669 65.9949 263.523 65.8492 263.232 65.7035C262.94 65.5578 262.649 65.5578 262.503 65.5578C262.212 65.5578 261.775 65.7035 261.629 65.8492C261.338 65.9949 261.192 66.2862 261.046 66.5776C260.901 66.869 260.755 67.1603 260.755 67.5974C260.755 68.0344 260.901 68.3258 261.046 68.6172C261.192 68.9086 261.483 69.0542 261.629 69.3456C261.92 69.4913 262.212 69.637 262.503 69.637C262.795 69.637 263.086 69.637 263.232 69.4913C263.523 69.3456 263.669 69.1999 263.814 68.9085L264.251 69.1999C264.106 69.4913 263.814 69.7826 263.523 69.9283C263.232 70.074 262.795 70.2197 262.357 70.2197C261.775 69.9283 261.338 69.7826 261.046 69.637Z" fill="black"/>
<path d="M269.35 65.5569C269.642 65.8482 269.933 66.431 269.933 67.1594V69.9274H269.35V67.1594C269.35 66.7223 269.205 66.2853 268.913 65.9939C268.622 65.7026 268.33 65.5569 267.893 65.5569C267.311 65.5569 267.019 65.7026 266.728 65.9939C266.437 66.2853 266.291 66.7223 266.291 67.3051V69.7817H265.708V62.9346H266.291V65.8482C266.437 65.5569 266.728 65.4112 267.019 65.2655C267.311 65.1198 267.748 64.9741 268.039 64.9741C268.476 64.9741 268.913 65.1198 269.35 65.5569Z" fill="black"/>
<path d="M274.595 69.0542C274.886 68.9085 275.032 68.6172 275.178 68.3258C275.323 68.0344 275.469 67.7431 275.469 67.306C275.469 66.869 275.323 66.5776 275.178 66.2862C275.032 65.9949 274.741 65.7035 274.595 65.5578C274.304 65.4121 274.012 65.2665 273.721 65.2665C273.43 65.2665 273.138 65.4121 272.847 65.5578C272.555 65.7035 272.41 65.9949 272.264 66.2862C272.118 66.5776 271.973 66.869 271.973 67.306C271.973 67.7431 272.118 68.0344 272.264 68.3258C272.41 68.6172 272.701 68.9085 272.847 69.0542C273.138 69.1999 273.43 69.3456 273.721 69.3456C274.012 69.3456 274.304 69.1999 274.595 69.0542ZM272.41 69.637C271.973 69.4913 271.681 69.1999 271.536 68.7629C271.39 68.3258 271.244 68.0344 271.244 67.4517C271.244 67.0147 271.39 66.5776 271.536 66.1406C271.681 65.7035 271.973 65.4121 272.41 65.2665C272.847 65.1208 273.138 64.9751 273.721 64.9751C274.158 64.9751 274.595 65.1208 275.032 65.2665C275.469 65.4121 275.76 65.7035 275.906 66.1406C276.052 66.5776 276.198 66.869 276.198 67.4517C276.198 67.8888 276.052 68.3258 275.906 68.7629C275.76 69.1999 275.469 69.4913 275.032 69.637C274.595 69.7826 274.304 69.9283 273.721 69.9283C273.138 69.9283 272.701 69.7826 272.41 69.637Z" fill="black"/>
<path d="M280.277 69.0542C280.568 68.9085 280.714 68.6172 280.859 68.3258C281.005 68.0344 281.151 67.7431 281.151 67.306C281.151 66.869 281.005 66.5776 280.859 66.2862C280.714 65.9949 280.422 65.7035 280.277 65.5578C279.985 65.4121 279.694 65.2665 279.402 65.2665C279.111 65.2665 278.82 65.4121 278.528 65.5578C278.237 65.7035 278.091 65.9949 277.946 66.2862C277.8 66.5776 277.654 66.869 277.654 67.306C277.654 67.7431 277.8 68.0344 277.946 68.3258C278.091 68.6172 278.383 68.9085 278.528 69.0542C278.82 69.1999 279.111 69.3456 279.402 69.3456C279.694 69.3456 279.985 69.1999 280.277 69.0542ZM278.091 69.637C277.654 69.4913 277.363 69.1999 277.217 68.7629C277.072 68.3258 276.926 68.0344 276.926 67.4517C276.926 67.0147 277.072 66.5776 277.217 66.1406C277.363 65.7035 277.654 65.4121 278.091 65.2665C278.528 65.1208 278.82 64.9751 279.402 64.9751C279.84 64.9751 280.277 65.1208 280.714 65.2665C281.151 65.4121 281.442 65.7035 281.588 66.1406C281.733 66.5776 281.879 66.869 281.879 67.4517C281.879 67.8888 281.733 68.3258 281.588 68.7629C281.442 69.1999 281.151 69.4913 280.714 69.637C280.277 69.7826 279.985 69.9283 279.402 69.9283C278.965 69.9283 278.528 69.7826 278.091 69.637Z" fill="black"/>
<path d="M283.773 63.0808H283.19V69.9279H283.773V63.0808Z" fill="black"/>
<path d="M176.842 61.6242C177.424 61.9156 178.298 61.6242 178.59 61.0415C178.881 60.4587 178.59 59.5846 178.007 59.2933C177.424 59.0019 176.55 59.2933 176.259 59.876C175.967 60.6044 176.113 61.3328 176.842 61.6242Z" fill="black"/>
<path d="M187.039 58.1277L177.133 62.7896L171.743 58.5647L176.55 65.5575L187.039 58.1277Z" fill="black"/>
<path d="M182.669 65.8487C182.086 65.5573 181.212 65.8487 180.921 66.4314C180.629 67.0141 180.921 67.8882 181.503 68.1796C182.086 68.471 182.96 68.1796 183.252 67.5969C183.543 66.8685 183.252 66.14 182.669 65.8487Z" fill="black"/>
<path d="M184.417 76.7752L179.755 66.723L183.98 61.3328L176.987 66.1403L184.417 76.7752Z" fill="black"/>
<path d="M176.113 70.5108C175.531 70.2194 174.656 70.5108 174.365 71.0935C174.074 71.6763 174.365 72.5504 174.948 72.8417C175.53 73.1331 176.405 72.8417 176.696 72.259C176.987 71.5306 176.842 70.8022 176.113 70.5108Z" fill="black"/>
<path d="M165.915 74.0072L175.822 69.3454L181.212 73.5702L176.404 66.5774L165.915 74.0072Z" fill="black"/>
<path d="M170.431 66.4321C171.014 66.7234 171.888 66.4321 172.18 65.8493C172.471 65.2666 172.18 64.3925 171.597 64.1011C171.014 63.8098 170.14 64.1011 169.849 64.6839C169.557 65.2666 169.703 65.995 170.431 66.4321Z" fill="black"/>
<path d="M168.683 55.5054L173.2 65.5575L169.12 70.9478L175.968 65.9946L168.683 55.5054Z" fill="black"/>
</svg>
