<svg width="233" height="81" viewBox="0 0 233 81" fill="none" xmlns="http://www.w3.org/2000/svg">
<path d="M0.404297 1.60278H19.4888C22.4025 1.60278 24.7334 2.03983 26.6273 3.05962C28.5212 4.0794 29.978 5.39055 30.9978 6.99307C32.0176 8.59559 32.4547 10.3438 32.4547 12.092C32.4547 14.1316 31.8719 15.8798 30.5608 17.4823C29.2496 19.0848 27.5014 20.2503 25.0248 20.9787C28.0841 21.7071 30.2694 22.8726 31.8719 24.7665C33.4744 26.6603 34.2029 28.6999 34.2029 31.0308C34.2029 33.3618 33.6201 35.4013 32.6003 37.2952C31.4349 39.1891 29.8323 40.6459 27.7928 41.8114C25.7532 42.9769 23.2766 43.4139 20.2172 43.4139H0.404297V1.60278ZM18.9061 7.72149H7.68847V18.7934H18.9061C20.9457 18.7934 22.5482 18.2107 23.568 17.1909C24.5877 16.0254 25.0248 14.7143 25.0248 13.2575C25.0248 11.6549 24.5877 10.3438 23.568 9.32401C22.5482 8.30422 20.9457 7.72149 18.9061 7.72149ZM19.6345 24.9121H7.68847V37.2952H19.6345C21.9654 37.2952 23.7136 36.7125 25.0248 35.547C26.1903 34.3816 26.773 32.779 26.773 31.0308C26.773 29.4283 26.1903 27.9715 25.0248 26.806C23.8593 25.4949 21.9654 24.9121 19.6345 24.9121Z" fill="#5514B4"/>
<path d="M50.3736 43.9967C48.0426 43.9967 45.8574 43.4139 43.8178 42.1028C41.7783 40.7916 40.1757 39.0434 38.8646 36.7125C37.5534 34.3816 36.9707 31.6136 36.9707 28.2629C36.9707 25.0578 37.5534 22.1442 38.8646 19.8132C40.1757 17.4823 41.7783 15.7341 43.8178 14.4229C45.8574 13.1118 48.0426 12.5291 50.3736 12.5291C52.8502 12.5291 55.0354 13.1118 56.9293 14.4229C58.8232 15.7341 60.1344 17.4823 61.1542 19.6675V13.1118H67.8556V43.2683H61.1542V36.7125C60.1344 38.8978 58.8232 40.646 56.9293 41.9571C55.0354 43.4139 52.8502 43.9967 50.3736 43.9967ZM44.2549 28.4085C44.2549 31.4679 45.129 33.7988 46.7315 35.547C48.334 37.2952 50.5193 38.1693 52.9959 38.1693C54.307 38.1693 55.6182 37.878 56.7837 37.2952C57.9491 36.7125 58.9689 35.8384 59.6973 34.6729C60.4257 33.5075 60.8628 32.1963 60.8628 30.7395V26.2233C60.8628 24.7665 60.4257 23.4553 59.6973 22.2898C58.9689 21.1244 57.9491 20.2503 56.7837 19.6675C55.6182 19.0848 54.307 18.7934 52.9959 18.7934C50.3736 18.7934 48.334 19.6675 46.7315 21.2701C45.129 22.8726 44.2549 25.2035 44.2549 28.4085Z" fill="#5514B4"/>
<path d="M73.3916 43.4133V13.2569H80.2387V20.104C80.9671 17.9187 82.1326 16.1705 83.7351 14.8594C85.192 13.5482 86.9402 12.8198 88.9797 12.8198C89.4168 12.8198 89.7081 12.8198 90.1452 12.8198C90.5822 12.8198 90.8736 12.9655 91.3107 12.9655V20.104C90.1452 19.8126 88.834 19.6669 87.5229 19.6669C85.192 19.6669 83.4438 20.2497 82.2783 21.5608C81.1128 22.7263 80.3844 24.4745 80.3844 26.8054V43.4133H73.3916Z" fill="#5514B4"/>
<path d="M120.885 38.8978C119.282 40.3547 117.388 41.5201 115.057 42.5399C112.726 43.5597 110.25 43.9967 107.773 43.9967C104.714 43.9967 102.091 43.414 99.6148 42.1029C97.1382 40.7917 95.2443 39.0435 93.9331 36.7126C92.622 34.3816 91.8936 31.6137 91.8936 28.4086C91.8936 25.3493 92.622 22.5813 93.9331 20.2503C95.2443 17.9194 97.1382 16.0255 99.3234 14.7144C101.654 13.4032 104.131 12.6748 106.899 12.6748C109.958 12.6748 112.581 13.2575 114.912 14.5687C117.097 15.8798 118.845 17.7737 120.01 20.1047C121.176 22.4356 121.759 25.3493 121.759 28.5543V30.7396H99.0321C99.4691 33.2162 100.489 35.1101 102.091 36.2755C103.694 37.5867 105.733 38.1694 108.064 38.1694C109.958 38.1694 111.707 37.878 113.309 37.1496C114.912 36.4212 116.368 35.5471 117.534 34.5273L120.885 38.8978ZM106.753 18.3565C104.714 18.3565 102.966 19.0849 101.509 20.396C100.052 21.7072 99.1777 23.6011 98.7407 26.0777H114.62C114.329 23.6011 113.6 21.7072 112.144 20.396C110.832 19.0849 108.939 18.3565 106.753 18.3565Z" fill="#5514B4"/>
<path d="M128.169 43.4137V19.0845H122.778V13.4029H128.169V10.7806C128.169 7.28417 129.188 4.66187 131.228 2.76798C133.268 0.8741 136.036 0 139.386 0C140.115 0 140.697 -8.35778e-07 141.28 0.145683C141.863 0.291366 142.591 0.291367 143.174 0.437051V6.1187C142.154 5.82734 141.134 5.68165 140.115 5.68165C136.91 5.68165 135.161 7.28417 135.161 10.6349V13.4029H142.737V19.0845H135.161V43.4137H128.169Z" fill="#5514B4"/>
<path d="M159.053 43.9967C156.14 43.9967 153.372 43.2683 151.041 41.9571C148.564 40.646 146.67 38.7521 145.359 36.4211C143.902 34.0902 143.32 31.3222 143.32 28.2629C143.32 25.2035 144.048 22.4355 145.359 20.1046C146.816 17.7737 148.71 15.8798 151.041 14.5686C153.517 13.2575 156.14 12.5291 159.053 12.5291C162.113 12.5291 164.735 13.2575 167.066 14.5686C169.397 15.8798 171.291 17.7737 172.748 20.1046C174.204 22.4355 174.787 25.2035 174.787 28.2629C174.787 31.3222 174.059 34.0902 172.748 36.4211C171.291 38.7521 169.397 40.646 167.066 41.9571C164.735 43.4139 161.967 43.9967 159.053 43.9967ZM159.053 38.0237C161.53 38.0237 163.57 37.1496 165.172 35.4014C166.775 33.6531 167.649 31.3222 167.649 28.2629C167.649 25.2035 166.775 22.8726 165.172 21.1244C163.57 19.3762 161.384 18.5021 159.053 18.5021C156.577 18.5021 154.537 19.3762 152.935 21.1244C151.332 22.8726 150.458 25.2035 150.458 28.2629C150.458 31.3222 151.332 33.6531 152.935 35.4014C154.537 37.2952 156.577 38.0237 159.053 38.0237Z" fill="#5514B4"/>
<path d="M192.998 43.9967C190.084 43.9967 187.316 43.2683 184.985 41.9571C182.509 40.646 180.615 38.7521 179.304 36.4211C177.847 34.0902 177.264 31.3222 177.264 28.2629C177.264 25.2035 177.992 22.4355 179.304 20.1046C180.76 17.7737 182.654 15.8798 184.985 14.5686C187.462 13.2575 190.084 12.5291 192.998 12.5291C196.057 12.5291 198.679 13.2575 201.01 14.5686C203.341 15.8798 205.235 17.7737 206.692 20.1046C208.149 22.4355 208.732 25.2035 208.732 28.2629C208.732 31.3222 208.003 34.0902 206.692 36.4211C205.235 38.7521 203.341 40.646 201.01 41.9571C198.679 43.4139 196.057 43.9967 192.998 43.9967ZM192.998 38.0237C195.474 38.0237 197.514 37.1496 199.117 35.4014C200.719 33.6531 201.593 31.3222 201.593 28.2629C201.593 25.2035 200.719 22.8726 199.117 21.1244C197.514 19.3762 195.329 18.5021 192.998 18.5021C190.521 18.5021 188.482 19.3762 186.879 21.1244C185.277 22.8726 184.403 25.2035 184.403 28.2629C184.403 31.3222 185.277 33.6531 186.879 35.4014C188.627 37.2952 190.667 38.0237 192.998 38.0237Z" fill="#5514B4"/>
<path d="M214.413 34.0902V18.9392H209.023V13.2575H214.413V3.78809H221.406V13.2575H229.419V18.9392H221.406V33.2161C221.406 34.9643 221.843 36.1298 222.571 36.8582C223.3 37.5866 224.32 38.0237 225.776 38.0237C226.359 38.0237 226.942 38.0237 227.67 37.878C228.399 37.878 229.127 37.7323 229.856 37.441V43.1226C228.836 43.414 227.816 43.5597 226.942 43.7053C226.068 43.851 225.194 43.851 224.32 43.851C221.115 43.851 218.638 42.9769 217.035 41.2287C215.142 39.6262 214.413 37.2953 214.413 34.0902Z" fill="#5514B4"/>
<path d="M219.075 61.7698H226.214V63.8094H223.883V71.5306H221.552V63.8094H219.221V61.7698H219.075ZM218.347 79.2518C211.354 79.2518 205.818 73.5701 205.818 66.723C205.818 59.8759 211.5 54.1942 218.347 54.1942C225.194 54.1942 230.876 59.8759 230.876 66.723C230.876 73.5701 225.34 79.2518 218.347 79.2518ZM218.347 81C226.214 81 232.624 74.5899 232.624 66.723C232.624 58.8561 226.214 52.446 218.347 52.446C210.48 52.446 204.07 58.8561 204.07 66.723C204.07 74.5899 210.48 81 218.347 81ZM216.016 68.4712C216.016 67.8885 215.579 67.4514 214.996 67.4514H213.394V69.491H214.996C215.579 69.491 216.016 69.054 216.016 68.4712ZM215.724 64.5378C215.724 63.955 215.433 63.6637 214.85 63.6637H213.394V65.4119H214.85C215.433 65.4119 215.724 65.1205 215.724 64.5378ZM218.347 68.6169C218.347 70.5108 217.036 71.5306 215.142 71.5306H210.917V61.7698H214.85C216.744 61.7698 218.055 62.7896 218.055 64.5378C218.055 65.4119 217.764 65.9946 217.181 66.4317C217.764 66.723 218.347 67.5971 218.347 68.6169Z" fill="#5514B4"/>
<path d="M42.7983 69.9279V64.829H41.6328V63.9549H42.7983V63.2265C42.7983 62.4981 42.944 62.061 43.381 61.624C43.8181 61.3326 44.2551 61.0413 44.8379 61.0413C44.9835 61.0413 45.1292 61.0413 45.1292 61.0413C45.2749 61.0413 45.2749 61.0413 45.4206 61.0413V61.9154C45.2749 61.9154 45.2749 61.9154 45.1292 61.7697C44.9835 61.7697 44.9835 61.7697 44.8379 61.7697C44.1094 61.7697 43.8181 62.061 43.8181 62.7895V63.5179H45.4206V64.392H43.8181V69.4909H42.7983V69.9279Z" fill="black"/>
<path d="M46.2949 69.9278V63.9548H47.3147V65.2659C47.4604 64.8289 47.7518 64.5375 48.0431 64.2461C48.3345 63.9548 48.6258 63.8091 49.0629 63.8091C49.2086 63.8091 49.3543 63.8091 49.6456 63.8091V64.9746C49.4999 64.9746 49.3543 64.9746 49.3543 64.9746C49.2086 64.9746 49.0629 64.9746 48.9172 64.9746C48.4802 64.9746 48.0431 65.1202 47.7518 65.4116C47.4604 65.703 47.3147 66.14 47.3147 66.5771V69.9278H46.2949Z" fill="black"/>
<path d="M52.9963 70.0735C52.4136 70.0735 51.8308 69.9278 51.3938 69.6364C50.9567 69.3451 50.5197 69.0537 50.2283 68.471C49.9369 68.0339 49.7913 67.4512 49.7913 66.8684C49.7913 66.2857 49.9369 65.703 50.2283 65.2659C50.5197 64.8289 50.8111 64.3918 51.3938 64.2461C51.8308 63.9548 52.4136 63.8091 52.9963 63.8091C53.579 63.8091 54.1618 63.9548 54.5988 64.2461C55.0359 64.5375 55.4729 64.8289 55.7643 65.4116C56.0557 65.8487 56.2013 66.4314 56.2013 67.0141C56.2013 67.5969 56.0557 68.1796 55.7643 68.6166C55.4729 69.0537 55.1816 69.4907 54.5988 69.6364C54.0161 69.9278 53.579 70.0735 52.9963 70.0735ZM52.9963 69.0537C53.4333 69.0537 53.7247 68.908 54.0161 68.7623C54.3074 68.6166 54.5988 68.3253 54.7445 68.0339C54.8902 67.7425 55.0359 67.3055 55.0359 66.8684C55.0359 66.4314 54.8902 65.9943 54.7445 65.703C54.5988 65.4116 54.3074 65.1202 54.0161 64.9746C53.7247 64.8289 53.4333 64.6832 52.9963 64.6832C52.5592 64.6832 52.2679 64.8289 51.9765 64.9746C51.6851 65.1202 51.3938 65.4116 51.2481 65.703C51.1024 65.9943 50.9567 66.4314 50.9567 66.8684C50.9567 67.3055 51.1024 67.7425 51.2481 68.0339C51.3938 68.3253 51.6851 68.6166 51.9765 68.7623C52.2679 69.0537 52.5592 69.0537 52.9963 69.0537Z" fill="black"/>
<path d="M57.2212 69.9278V63.9548H58.241V65.2659C58.3867 64.8289 58.678 64.5375 58.9694 64.2461C59.2608 63.9548 59.6978 63.8091 60.1349 63.8091C60.5719 63.8091 61.0089 63.9548 61.3003 64.2461C61.5917 64.5375 61.883 64.8289 62.0287 65.4116C62.1744 64.9746 62.4658 64.5375 62.9028 64.2461C63.1942 63.9548 63.6312 63.8091 64.214 63.8091C64.651 63.8091 64.9424 63.9548 65.3794 64.1005C65.6708 64.2461 65.9622 64.5375 66.1079 64.9746C66.2536 65.4116 66.3992 65.703 66.3992 66.2857V69.9278H65.3794V66.4314C65.3794 65.8487 65.2338 65.4116 64.9424 65.1202C64.651 64.8289 64.3597 64.6832 63.9226 64.6832C63.6312 64.6832 63.3399 64.8289 63.0485 64.9746C62.7572 65.1202 62.6115 65.2659 62.4658 65.5573C62.3201 65.8487 62.1744 66.14 62.1744 66.4314V69.9278H61.1546V66.4314C61.1546 65.8487 61.009 65.4116 60.7176 65.1202C60.4262 64.8289 60.1349 64.6832 59.6978 64.6832C59.4064 64.6832 59.1151 64.8289 58.8237 64.9746C58.5323 65.1202 58.3867 65.2659 58.241 65.5573C58.0953 65.8487 57.9496 66.14 57.9496 66.4314V69.9278H57.2212Z" fill="black"/>
<path d="M195.62 52.3003H195.183V80.8542H195.62V52.3003Z" fill="black"/>
<path d="M92.3305 69.4909C91.7477 69.1996 91.4564 68.7625 91.0193 68.3255C90.728 67.8884 90.5823 67.3057 90.5823 66.5773C90.5823 65.9945 90.728 65.4118 91.0193 64.8291C91.3107 64.392 91.7477 63.955 92.3305 63.6636C92.9132 63.3722 93.4959 63.2266 94.0787 63.2266C94.6614 63.2266 95.0985 63.3722 95.5355 63.5179C95.9726 63.6636 96.4096 63.955 96.701 64.392L95.6812 65.2661C95.2441 64.8291 94.6614 64.5377 94.0787 64.5377C93.6416 64.5377 93.3503 64.6834 93.0589 64.8291C92.7675 64.9748 92.4762 65.2661 92.3305 65.5575C92.1848 65.8489 92.0391 66.2859 92.0391 66.5773C92.0391 67.0143 92.1848 67.3057 92.3305 67.5971C92.4762 67.8884 92.7675 68.1798 93.0589 68.3255C93.3503 68.4712 93.7873 68.6169 94.0787 68.6169C94.6614 68.6169 95.2441 68.3255 95.6812 67.8884L96.701 68.7625C96.4096 69.1996 95.9726 69.4909 95.5355 69.6366C95.0985 69.7823 94.5157 69.928 94.0787 69.928C93.4959 69.928 92.9132 69.7823 92.3305 69.4909Z" fill="black"/>
<path d="M100.78 68.4715C101.072 68.1801 101.072 67.8888 101.072 67.4517C101.072 67.0147 100.926 66.7233 100.78 66.4319C100.489 66.1406 100.198 65.9949 99.9062 65.9949C99.4691 65.9949 99.1778 66.1406 99.0321 66.4319C98.7407 66.7233 98.7407 67.0147 98.7407 67.4517C98.7407 67.8888 98.8864 68.1801 99.0321 68.4715C99.3234 68.7629 99.6148 68.9085 99.9062 68.9085C100.198 68.7629 100.489 68.6172 100.78 68.4715ZM98.4493 69.637C98.0123 69.4913 97.7209 69.0542 97.4295 68.7629C97.1382 68.3258 97.1382 67.8888 97.1382 67.4517C97.1382 67.0147 97.2839 66.5776 97.4295 66.1406C97.7209 65.7035 98.0123 65.4121 98.4493 65.2665C98.8864 65.1208 99.3234 64.9751 99.9062 64.9751C100.489 64.9751 100.926 65.1208 101.363 65.2665C101.8 65.4121 102.091 65.8492 102.383 66.1406C102.674 66.5776 102.674 67.0147 102.674 67.4517C102.674 67.8888 102.528 68.3258 102.383 68.7629C102.091 69.1999 101.8 69.4913 101.363 69.637C100.926 69.7826 100.489 69.9283 99.9062 69.9283C99.3234 69.9283 98.8864 69.7826 98.4493 69.637Z" fill="black"/>
<path d="M111.269 65.4118C111.706 65.8489 111.852 66.2859 111.852 67.0144V69.7824H110.395V67.3057C110.395 66.8687 110.25 66.5773 110.104 66.4316C109.958 66.2859 109.667 66.1403 109.375 66.1403C109.084 66.1403 108.793 66.2859 108.647 66.4316C108.501 66.5773 108.356 67.0144 108.356 67.4514V69.928H106.899V67.3057C106.899 66.5773 106.607 66.1403 106.025 66.1403C105.733 66.1403 105.442 66.2859 105.296 66.4316C105.151 66.5773 105.005 67.0144 105.005 67.4514V69.928H103.548V64.9748H104.859V65.5575C105.005 65.4118 105.296 65.1205 105.588 65.1205C105.879 64.9748 106.17 64.9748 106.462 64.9748C106.753 64.9748 107.19 64.9748 107.336 65.1205C107.627 65.2662 107.773 65.4118 108.064 65.7032C108.21 65.4118 108.501 65.2662 108.793 65.1205C109.084 64.9748 109.375 64.9748 109.812 64.9748C110.395 64.8291 110.978 64.9748 111.269 65.4118Z" fill="black"/>
<path d="M116.805 68.4713C117.097 68.1799 117.097 67.8886 117.097 67.4515C117.097 67.0145 116.951 66.7231 116.805 66.4317C116.514 66.1404 116.222 65.9947 115.931 65.9947C115.494 65.9947 115.203 66.1404 115.057 66.4317C114.766 66.7231 114.766 67.0145 114.766 67.4515C114.766 67.8886 114.911 68.1799 115.057 68.4713C115.348 68.7627 115.64 68.9083 115.931 68.9083C116.222 68.7627 116.514 68.617 116.805 68.4713ZM117.388 65.1206C117.825 65.2663 118.116 65.5576 118.262 65.9947C118.408 66.4317 118.553 66.8688 118.553 67.3058C118.553 67.7429 118.408 68.3256 118.262 68.617C118.116 69.054 117.679 69.3454 117.388 69.4911C116.951 69.6368 116.659 69.7824 116.077 69.7824C115.494 69.7824 114.911 69.6368 114.62 69.1997V71.6763H113.163V64.9749H114.474V65.5576C114.766 65.1206 115.348 64.9749 116.077 64.9749C116.514 64.8292 116.951 64.9749 117.388 65.1206Z" fill="black"/>
<path d="M124.527 64.9751V69.9283H123.215V69.3456C123.07 69.4913 122.778 69.7826 122.487 69.7826C122.196 69.9283 121.904 69.9283 121.613 69.9283C121.03 69.9283 120.448 69.7827 120.01 69.3456C119.573 68.9086 119.428 68.4715 119.428 67.7431V64.9751H120.885V67.5974C120.885 68.3258 121.176 68.7629 121.904 68.7629C122.196 68.7629 122.487 68.6172 122.778 68.4715C122.924 68.1801 123.07 67.8888 123.07 67.4517V64.9751H124.527Z" fill="black"/>
<path d="M129.043 69.6362C128.897 69.7819 128.751 69.7819 128.46 69.9276C128.314 69.9276 128.023 70.0733 127.877 70.0733C127.295 70.0733 126.857 69.9276 126.566 69.6362C126.275 69.3449 126.129 68.9078 126.129 68.3251V66.2855H125.401V65.1201H126.129V63.9546H127.586V65.1201H128.751V66.2855H127.586V68.3251C127.586 68.4708 127.586 68.7621 127.732 68.7621C127.877 68.9078 128.023 68.9078 128.169 68.9078C128.46 68.9078 128.606 68.9078 128.751 68.7621L129.043 69.6362Z" fill="black"/>
<path d="M129.771 64.9747H131.228V69.9279H129.771V64.9747ZM129.917 63.9549C129.771 63.8092 129.625 63.6635 129.625 63.3721C129.625 63.0808 129.771 62.9351 129.917 62.7894C130.063 62.6437 130.354 62.498 130.5 62.498C130.791 62.498 130.937 62.6437 131.082 62.7894C131.228 62.9351 131.374 63.0808 131.374 63.3721C131.374 63.6635 131.228 63.8092 131.082 63.9549C130.937 64.1006 130.645 64.2462 130.5 64.2462C130.208 64.2462 130.063 64.1006 129.917 63.9549Z" fill="black"/>
<path d="M137.055 65.4118C137.492 65.8489 137.638 66.2859 137.638 67.0144V69.7824H136.181V67.3057C136.181 66.8687 136.035 66.5773 135.89 66.4316C135.744 66.2859 135.453 66.1403 135.161 66.1403C134.87 66.1403 134.579 66.2859 134.287 66.4316C134.142 66.723 133.996 67.0144 133.996 67.4514V69.928H132.539V64.9748H133.85V65.5575C133.996 65.4118 134.287 65.1205 134.579 65.1205C134.87 64.9748 135.161 64.9748 135.453 64.9748C136.181 64.8291 136.764 64.9748 137.055 65.4118Z" fill="black"/>
<path d="M142.3 68.1801C142.591 67.8888 142.591 67.5974 142.591 67.306C142.591 67.0147 142.446 66.7233 142.3 66.4319C142.009 66.1406 141.717 66.1406 141.426 66.1406C140.989 66.1406 140.698 66.2862 140.552 66.4319C140.26 66.7233 140.115 67.0147 140.115 67.306C140.115 67.5974 140.26 67.8888 140.552 68.1801C140.843 68.4715 141.135 68.4715 141.426 68.4715C141.717 68.4715 142.009 68.3258 142.3 68.1801ZM144.048 64.9751V69.0542C144.048 69.9283 143.757 70.6567 143.32 71.0938C142.883 71.5308 142.154 71.8222 141.28 71.8222C140.843 71.8222 140.406 71.8222 139.969 71.6765C139.532 71.5308 139.241 71.3852 138.949 71.2395L139.532 70.2197C139.678 70.3654 139.969 70.5111 140.26 70.6567C140.552 70.8024 140.843 70.8024 141.28 70.8024C141.717 70.8024 142.154 70.6568 142.446 70.5111C142.737 70.2197 142.737 69.9283 142.737 69.4913V69.3456C142.3 69.7827 141.863 69.9283 141.135 69.9283C140.698 69.9283 140.26 69.7826 139.823 69.637C139.386 69.4913 139.095 69.1999 138.949 68.7629C138.658 68.4715 138.658 68.0344 138.658 67.4517C138.658 66.869 138.804 66.5776 138.949 66.1406C139.241 65.8492 139.532 65.5578 139.823 65.2665C140.26 65.1208 140.552 64.9751 141.135 64.9751C141.863 64.9751 142.446 65.2665 142.737 65.7035V65.1208H144.048V64.9751Z" fill="black"/>
<path d="M150.458 69.1999C150.75 69.0542 150.895 68.7629 151.041 68.4715V67.7431H149.584C148.71 67.7431 148.273 68.0345 148.273 68.6172C148.273 68.9086 148.419 69.0542 148.564 69.3456C148.71 69.4913 149.147 69.637 149.438 69.637C149.875 69.3456 150.167 69.3456 150.458 69.1999ZM151.187 65.4121C151.478 65.7035 151.624 66.1406 151.624 66.869V69.9283H151.041V69.1999C150.895 69.4913 150.75 69.637 150.458 69.7826C150.167 69.9283 149.875 69.9283 149.438 69.9283C148.856 69.9283 148.419 69.7826 148.127 69.4913C147.836 69.1999 147.69 68.9085 147.69 68.4715C147.69 68.0344 147.836 67.7431 148.127 67.4517C148.419 67.1603 148.856 67.0147 149.584 67.0147H151.187V66.7233C151.187 66.2862 151.041 65.9949 150.895 65.7035C150.604 65.5578 150.312 65.4121 149.875 65.4121C149.584 65.4121 149.293 65.4121 149.001 65.5578C148.71 65.7035 148.419 65.8492 148.273 65.9949L147.982 65.5578C148.273 65.4121 148.564 65.1208 148.856 65.1208C149.147 64.9751 149.584 64.9751 149.875 64.9751C150.458 64.9751 150.895 65.1208 151.187 65.4121Z" fill="black"/>
<path d="M155.994 69.6368C155.848 69.7825 155.703 69.7825 155.557 69.9282C155.411 69.9282 155.12 70.0739 154.974 70.0739C154.537 70.0739 154.1 69.9282 153.954 69.6368C153.663 69.3454 153.517 69.0541 153.517 68.617V65.7034H152.643V65.1206H153.517V64.1008H154.1V65.1206H155.557V65.7034H154.1V68.617C154.1 68.9084 154.1 69.0541 154.246 69.3454C154.391 69.4911 154.537 69.6368 154.829 69.6368C154.974 69.6368 155.12 69.6368 155.266 69.6368C155.411 69.6368 155.557 69.4911 155.557 69.4911L155.994 69.6368Z" fill="black"/>
<path d="M160.219 69.6367C159.782 69.491 159.491 69.3453 159.199 69.054L159.491 68.4712C159.782 68.7626 160.073 68.9083 160.365 69.054C160.802 69.1997 161.093 69.1997 161.53 69.1997C162.113 69.1997 162.55 69.054 162.841 68.9083C163.133 68.7626 163.278 68.4712 163.278 68.0342C163.278 67.7428 163.133 67.5971 162.987 67.4514C162.841 67.3058 162.696 67.1601 162.404 67.1601C162.113 67.0144 161.822 67.0144 161.53 66.8687C161.093 66.723 160.656 66.5774 160.365 66.5774C160.073 66.4317 159.782 66.286 159.636 65.9946C159.491 65.7032 159.345 65.4119 159.345 65.1205C159.345 64.8291 159.491 64.5378 159.636 64.2464C159.782 63.9551 160.073 63.8094 160.365 63.6637C160.656 63.518 161.093 63.3723 161.676 63.3723C162.113 63.3723 162.404 63.3723 162.696 63.518C162.987 63.6637 163.424 63.8094 163.57 63.9551L163.278 64.5378C162.987 64.3921 162.696 64.2464 162.404 64.1007C162.113 63.955 161.822 63.9551 161.53 63.9551C160.947 63.9551 160.51 64.1007 160.219 64.2464C159.928 64.3921 159.782 64.6835 159.782 65.1205C159.782 65.4119 159.928 65.5576 160.073 65.7033C160.219 65.8489 160.365 65.9946 160.656 65.9946C160.947 66.1403 161.239 66.1403 161.676 66.286C162.113 66.4317 162.55 66.5774 162.841 66.5774C163.133 66.723 163.424 66.8687 163.57 67.1601C163.715 67.4515 163.861 67.7428 163.861 68.0342C163.861 68.3256 163.715 68.6169 163.57 68.9083C163.424 69.1997 163.133 69.3453 162.696 69.491C162.404 69.6367 161.822 69.7824 161.384 69.7824C161.093 69.9281 160.656 69.9281 160.219 69.6367Z" fill="black"/>
<path d="M166.046 69.637C165.609 69.4913 165.318 69.1999 165.172 68.7629C165.027 68.3258 164.881 67.8888 164.881 67.4517C164.881 67.0147 165.027 66.5776 165.172 66.1406C165.318 65.7035 165.755 65.4121 166.046 65.2665C166.483 65.1208 166.92 64.9751 167.357 64.9751C167.795 64.9751 168.086 65.1208 168.523 65.2665C168.814 65.4121 169.106 65.7035 169.251 65.9949L168.814 66.2862C168.669 65.9949 168.523 65.8492 168.232 65.7035C167.94 65.5578 167.649 65.5578 167.503 65.5578C167.212 65.5578 166.775 65.7035 166.629 65.8492C166.338 65.9949 166.192 66.2862 166.046 66.5776C165.901 66.869 165.755 67.1603 165.755 67.5974C165.755 68.0344 165.901 68.3258 166.046 68.6172C166.192 68.9086 166.483 69.0542 166.629 69.3456C166.92 69.4913 167.212 69.637 167.503 69.637C167.795 69.637 168.086 69.637 168.232 69.4913C168.523 69.3456 168.669 69.1999 168.814 68.9085L169.251 69.1999C169.106 69.4913 168.814 69.7826 168.523 69.9283C168.232 70.074 167.795 70.2197 167.357 70.2197C166.775 69.9283 166.338 69.7826 166.046 69.637Z" fill="black"/>
<path d="M174.35 65.5569C174.642 65.8482 174.933 66.431 174.933 67.1594V69.9274H174.35V67.1594C174.35 66.7223 174.205 66.2853 173.913 65.9939C173.622 65.7026 173.33 65.5569 172.893 65.5569C172.311 65.5569 172.019 65.7026 171.728 65.9939C171.437 66.2853 171.291 66.7223 171.291 67.3051V69.7817H170.708V62.9346H171.291V65.8482C171.437 65.5569 171.728 65.4112 172.019 65.2655C172.311 65.1198 172.748 64.9741 173.039 64.9741C173.476 64.9741 173.913 65.1198 174.35 65.5569Z" fill="black"/>
<path d="M179.595 69.0542C179.886 68.9085 180.032 68.6172 180.178 68.3258C180.323 68.0344 180.469 67.7431 180.469 67.306C180.469 66.869 180.323 66.5776 180.178 66.2862C180.032 65.9949 179.741 65.7035 179.595 65.5578C179.304 65.4121 179.012 65.2665 178.721 65.2665C178.43 65.2665 178.138 65.4121 177.847 65.5578C177.555 65.7035 177.41 65.9949 177.264 66.2862C177.118 66.5776 176.973 66.869 176.973 67.306C176.973 67.7431 177.118 68.0344 177.264 68.3258C177.41 68.6172 177.701 68.9085 177.847 69.0542C178.138 69.1999 178.43 69.3456 178.721 69.3456C179.012 69.3456 179.304 69.1999 179.595 69.0542ZM177.41 69.637C176.973 69.4913 176.681 69.1999 176.536 68.7629C176.39 68.3258 176.244 68.0344 176.244 67.4517C176.244 67.0147 176.39 66.5776 176.536 66.1406C176.681 65.7035 176.973 65.4121 177.41 65.2665C177.847 65.1208 178.138 64.9751 178.721 64.9751C179.158 64.9751 179.595 65.1208 180.032 65.2665C180.469 65.4121 180.76 65.7035 180.906 66.1406C181.052 66.5776 181.198 66.869 181.198 67.4517C181.198 67.8888 181.052 68.3258 180.906 68.7629C180.76 69.1999 180.469 69.4913 180.032 69.637C179.595 69.7826 179.304 69.9283 178.721 69.9283C178.138 69.9283 177.701 69.7826 177.41 69.637Z" fill="black"/>
<path d="M185.277 69.0542C185.568 68.9085 185.714 68.6172 185.859 68.3258C186.005 68.0344 186.151 67.7431 186.151 67.306C186.151 66.869 186.005 66.5776 185.859 66.2862C185.714 65.9949 185.422 65.7035 185.277 65.5578C184.985 65.4121 184.694 65.2665 184.402 65.2665C184.111 65.2665 183.82 65.4121 183.528 65.5578C183.237 65.7035 183.091 65.9949 182.946 66.2862C182.8 66.5776 182.654 66.869 182.654 67.306C182.654 67.7431 182.8 68.0344 182.946 68.3258C183.091 68.6172 183.383 68.9085 183.528 69.0542C183.82 69.1999 184.111 69.3456 184.402 69.3456C184.694 69.3456 184.985 69.1999 185.277 69.0542ZM183.091 69.637C182.654 69.4913 182.363 69.1999 182.217 68.7629C182.072 68.3258 181.926 68.0344 181.926 67.4517C181.926 67.0147 182.072 66.5776 182.217 66.1406C182.363 65.7035 182.654 65.4121 183.091 65.2665C183.528 65.1208 183.82 64.9751 184.402 64.9751C184.84 64.9751 185.277 65.1208 185.714 65.2665C186.151 65.4121 186.442 65.7035 186.588 66.1406C186.733 66.5776 186.879 66.869 186.879 67.4517C186.879 67.8888 186.733 68.3258 186.588 68.7629C186.442 69.1999 186.151 69.4913 185.714 69.637C185.277 69.7826 184.985 69.9283 184.402 69.9283C183.965 69.9283 183.528 69.7826 183.091 69.637Z" fill="black"/>
<path d="M188.773 63.0808H188.19V69.9279H188.773V63.0808Z" fill="black"/>
<path d="M81.8416 61.6242C82.4243 61.9156 83.2984 61.6242 83.5898 61.0415C83.8811 60.4587 83.5898 59.5846 83.0071 59.2933C82.4243 59.0019 81.5502 59.2933 81.2589 59.876C80.9675 60.6044 81.1132 61.3328 81.8416 61.6242Z" fill="black"/>
<path d="M92.0394 58.1277L82.133 62.7896L76.7427 58.5647L81.5502 65.5575L92.0394 58.1277Z" fill="black"/>
<path d="M87.6689 65.8487C87.0862 65.5573 86.2121 65.8487 85.9207 66.4314C85.6293 67.0141 85.9207 67.8882 86.5034 68.1796C87.0862 68.471 87.9603 68.1796 88.2516 67.5969C88.543 66.8685 88.2516 66.14 87.6689 65.8487Z" fill="black"/>
<path d="M89.4171 76.7752L84.7553 66.723L88.9801 61.3328L81.9873 66.1403L89.4171 76.7752Z" fill="black"/>
<path d="M81.1132 70.5108C80.5305 70.2194 79.6564 70.5108 79.365 71.0935C79.0737 71.6763 79.365 72.5504 79.9478 72.8417C80.5305 73.1331 81.4046 72.8417 81.696 72.259C81.9873 71.5306 81.8417 70.8022 81.1132 70.5108Z" fill="black"/>
<path d="M70.9153 74.0072L80.8218 69.3454L86.212 73.5702L81.4045 66.5774L70.9153 74.0072Z" fill="black"/>
<path d="M75.4314 66.4321C76.0142 66.7234 76.8883 66.4321 77.1796 65.8493C77.471 65.2666 77.1796 64.3925 76.5969 64.1011C76.0142 63.8098 75.1401 64.1011 74.8487 64.6839C74.5573 65.2666 74.703 65.995 75.4314 66.4321Z" fill="black"/>
<path d="M73.6833 55.5054L78.1995 65.5575L74.1204 70.9478L80.9675 65.9946L73.6833 55.5054Z" fill="black"/>
</svg>
