<svg width="222" height="222" viewBox="0 0 222 222" fill="none" xmlns="http://www.w3.org/2000/svg">
<path d="M0 0H222V222H0V0Z" fill="#5514B4"/>
<g clip-path="url(#clip0)">
<path d="M21.0903 85.7773H36.0614C38.3076 85.7773 40.1776 86.1635 41.6712 86.9472C43.1649 87.7195 44.2937 88.7303 45.0691 89.9797C45.833 91.2177 46.2207 92.5579 46.2207 93.989C46.2207 95.579 45.719 96.9874 44.7042 98.2254C43.6894 99.4634 42.2642 100.383 40.417 100.974C42.7545 101.508 44.5218 102.485 45.7304 103.916C46.9276 105.347 47.532 106.982 47.532 108.811C47.532 110.583 47.0987 112.195 46.2207 113.66C45.3427 115.126 44.0999 116.284 42.4808 117.136C40.8617 117.988 38.8891 118.419 36.5859 118.419H21.0903V85.7773ZM35.5027 90.5816H26.7572V99.2021H35.5027C37.156 99.2021 38.376 98.7705 39.1742 97.896C39.9723 97.0215 40.3714 95.9993 40.3714 94.8181C40.3714 93.6028 39.9837 92.592 39.197 91.7856C38.4216 90.9792 37.1902 90.5816 35.5027 90.5816ZM36.1526 103.961H26.7572V113.615H36.164C37.9998 113.615 39.3908 113.149 40.3258 112.218C41.2608 111.287 41.7283 110.106 41.7283 108.674C41.7283 107.402 41.2608 106.301 40.3258 105.369C39.3908 104.427 37.9998 103.961 36.1526 103.961Z" fill="white"/>
<path d="M60.2111 118.874C58.3982 118.874 56.7106 118.386 55.1371 117.409C53.5636 116.432 52.2866 115.035 51.2946 113.218C50.314 111.401 49.8237 109.22 49.8237 106.665C49.8237 104.12 50.314 101.928 51.2946 100.111C52.2752 98.294 53.5522 96.897 55.1371 95.9202C56.7106 94.9435 58.4096 94.4551 60.2111 94.4551C62.1495 94.4551 63.837 94.9548 65.2851 95.9429C66.7331 96.9424 67.8392 98.3053 68.5803 100.043V94.9207H73.8253V118.408H68.5803V113.286C67.8278 115.024 66.7331 116.398 65.2851 117.386C63.837 118.374 62.1381 118.874 60.2111 118.874ZM55.4336 106.665C55.4336 109.061 56.0607 110.924 57.3264 112.253C58.592 113.593 60.2339 114.252 62.2635 114.252C63.3239 114.252 64.3273 114.013 65.2623 113.525C66.1972 113.048 66.9612 112.355 67.5541 111.469C68.147 110.583 68.4435 109.561 68.4435 108.414V104.87C68.4435 103.689 68.147 102.667 67.5541 101.792C66.9612 100.918 66.1972 100.248 65.2623 99.7591C64.3273 99.2821 63.3239 99.0322 62.2635 99.0322C60.2339 99.0322 58.592 99.691 57.3264 101.008C56.0721 102.36 55.4336 104.234 55.4336 106.665Z" fill="white"/>
<path d="M78.2266 118.409V94.9215H83.5628V100.237C84.1899 98.556 85.0907 97.2044 86.2765 96.1595C87.4623 95.1146 88.8306 94.6035 90.3927 94.6035C90.7005 94.6035 91.0198 94.6149 91.3277 94.6489C91.6355 94.683 91.9548 94.7285 92.2626 94.7852V100.328C91.3619 100.112 90.3585 99.9984 89.2639 99.9984C87.4851 99.9984 86.1169 100.475 85.1705 101.441C84.2127 102.406 83.7452 103.758 83.7452 105.496V118.409H78.2266Z" fill="white"/>
<path d="M115.329 114.91C114.086 116.057 112.547 117.011 110.745 117.75C108.932 118.499 107.017 118.874 104.987 118.874C102.616 118.874 100.483 118.374 98.6021 117.386C96.7093 116.387 95.2384 114.978 94.1552 113.15C93.0834 111.321 92.5361 109.141 92.5361 106.619C92.5361 104.223 93.0606 102.11 94.0982 100.282C95.1472 98.453 96.5497 97.0219 98.3284 95.9884C100.107 94.9662 102.091 94.4551 104.269 94.4551C106.675 94.4551 108.75 94.9548 110.495 95.9657C112.239 96.9765 113.585 98.4076 114.52 100.282C115.454 102.144 115.922 104.336 115.922 106.858V108.584H98.1118C98.4539 110.515 99.2634 111.969 100.54 112.945C101.817 113.922 103.391 114.411 105.261 114.411C106.732 114.411 108.1 114.149 109.377 113.616C110.654 113.093 111.76 112.389 112.695 111.514L115.329 114.91ZM104.337 98.8732C102.741 98.8732 101.384 99.3957 100.244 100.429C99.1038 101.474 98.3968 102.951 98.1118 104.881H110.517C110.335 102.985 109.685 101.508 108.579 100.452C107.462 99.407 106.048 98.8732 104.337 98.8732Z" fill="white"/>
<path d="M121.088 118.409V99.3844H116.926V94.9208H121.088V92.8196C121.088 90.1165 121.886 88.038 123.471 86.5729C125.067 85.1078 127.188 84.3809 129.844 84.3809C130.38 84.3809 130.882 84.4149 131.361 84.4717C131.84 84.5399 132.33 84.6307 132.832 84.7557V89.2306C131.988 88.9807 131.19 88.8558 130.449 88.8558C127.895 88.8558 126.606 90.1619 126.606 92.7742V94.9208H132.547V99.3957H126.606V118.409H121.088Z" fill="white"/>
<path d="M145.192 118.874C142.877 118.874 140.779 118.363 138.898 117.341C137.005 116.319 135.523 114.888 134.428 113.048C133.333 111.219 132.786 109.084 132.786 106.665C132.786 104.245 133.333 102.11 134.428 100.282C135.523 98.453 137.005 97.0219 138.898 95.9884C140.779 94.9662 142.877 94.4551 145.192 94.4551C147.529 94.4551 149.639 94.9662 151.508 95.9884C153.378 97.0106 154.861 98.4416 155.955 100.282C157.05 102.11 157.597 104.245 157.597 106.665C157.597 109.084 157.05 111.219 155.955 113.048C154.861 114.876 153.378 116.307 151.508 117.341C149.639 118.374 147.529 118.874 145.192 118.874ZM145.192 114.263C147.096 114.263 148.704 113.593 150.015 112.264C151.326 110.924 151.976 109.061 151.976 106.676C151.976 104.279 151.326 102.417 150.015 101.088C148.704 99.7478 147.096 99.089 145.192 99.089C143.288 99.089 141.68 99.7591 140.369 101.088C139.057 102.428 138.407 104.291 138.407 106.676C138.407 109.072 139.057 110.935 140.369 112.264C141.68 113.593 143.288 114.263 145.192 114.263Z" fill="white"/>
<path d="M171.861 118.874C169.546 118.874 167.448 118.363 165.567 117.341C163.674 116.319 162.192 114.888 161.097 113.048C160.003 111.219 159.456 109.084 159.456 106.665C159.456 104.245 160.003 102.11 161.097 100.282C162.192 98.453 163.674 97.0219 165.567 95.9884C167.448 94.9662 169.546 94.4551 171.861 94.4551C174.199 94.4551 176.308 94.9662 178.178 95.9884C180.048 97.0106 181.53 98.4416 182.625 100.282C183.719 102.11 184.267 104.245 184.267 106.665C184.267 109.084 183.719 111.219 182.625 113.048C181.53 114.876 180.048 116.307 178.178 117.341C176.308 118.374 174.199 118.874 171.861 118.874ZM171.861 114.263C173.765 114.263 175.373 113.593 176.684 112.264C177.995 110.924 178.645 109.061 178.645 106.676C178.645 104.279 177.995 102.417 176.684 101.088C175.373 99.7478 173.765 99.089 171.861 99.089C169.957 99.089 168.349 99.7591 167.038 101.088C165.727 102.428 165.077 104.291 165.077 106.676C165.077 109.072 165.727 110.935 167.038 112.264C168.349 113.593 169.957 114.263 171.861 114.263Z" fill="white"/>
<path d="M188.52 111.139V99.3386H184.312V94.9091H188.52V87.5039H194.039V94.9205H200.264V99.35H194.039V110.492C194.039 111.832 194.335 112.786 194.928 113.377C195.521 113.967 196.342 114.263 197.414 114.263C197.847 114.263 198.326 114.24 198.839 114.194C199.352 114.149 199.933 114.047 200.595 113.888V118.317C199.785 118.533 199.01 118.681 198.28 118.76C197.55 118.84 196.866 118.874 196.239 118.874C193.708 118.874 191.792 118.192 190.481 116.841C189.17 115.489 188.52 113.593 188.52 111.139Z" fill="white"/>
<path d="M192.248 132.686H197.836V134.321H195.966V140.284H194.13V134.321H192.26V132.686H192.248ZM191.701 146.292C186.274 146.292 181.861 141.897 181.861 136.49C181.861 131.084 186.274 126.689 191.701 126.689C197.129 126.689 201.541 131.084 201.541 136.49C201.541 141.897 197.129 146.292 191.701 146.292ZM191.701 147.666C197.893 147.666 202.921 142.658 202.921 136.49C202.921 130.323 197.893 125.314 191.701 125.314C185.51 125.314 180.481 130.323 180.481 136.49C180.481 142.658 185.51 147.666 191.701 147.666ZM189.808 137.956C189.808 137.479 189.501 137.149 188.987 137.149H187.756V138.739H188.987C189.501 138.739 189.808 138.421 189.808 137.956ZM189.58 134.912C189.58 134.514 189.318 134.23 188.885 134.23H187.756V135.616H188.885C189.318 135.616 189.58 135.332 189.58 134.912ZM191.667 138.046C191.667 139.489 190.641 140.284 189.193 140.284H185.943V132.686H188.976C190.447 132.686 191.439 133.435 191.439 134.809C191.439 135.434 191.154 135.991 190.709 136.331C191.222 136.627 191.667 137.217 191.667 138.046Z" fill="white"/>
<path d="M22.1993 140.001V134.942H21.0903V134.041H22.1993V133.344C22.1993 132.66 22.389 132.152 22.7538 131.817C23.1186 131.468 23.6148 131.309 24.213 131.309C24.3298 131.309 24.4319 131.323 24.5487 131.338C24.6508 131.352 24.7675 131.367 24.8697 131.396V132.326C24.753 132.282 24.6508 132.253 24.5633 132.253C24.4611 132.239 24.3736 132.239 24.286 132.239C23.5856 132.239 23.25 132.602 23.25 133.314V134.07H24.7967V134.971H23.25V140.03H22.1993V140.001Z" fill="white"/>
<path d="M25.7588 140V134.026H26.7656V135.319C26.9408 134.912 27.1742 134.578 27.4661 134.331C27.7725 134.069 28.1081 133.953 28.5167 133.953C28.6918 133.953 28.8669 133.968 29.0566 133.997V135.13C28.9399 135.101 28.8231 135.087 28.7064 135.072C28.5897 135.058 28.4583 135.058 28.3124 135.058C27.8163 135.058 27.4223 135.203 27.1742 135.508C26.9116 135.814 26.7948 136.192 26.7948 136.671V140H25.7588Z" fill="white"/>
<path d="M32.4426 140.118C31.859 140.118 31.3336 139.987 30.8667 139.725C30.3998 139.463 30.0349 139.1 29.7577 138.635C29.4804 138.17 29.3491 137.617 29.3491 137.007C29.3491 136.382 29.4804 135.844 29.7577 135.379C30.0349 134.914 30.3998 134.551 30.8667 134.289C31.3336 134.027 31.859 133.896 32.4426 133.896C33.0263 133.896 33.5516 134.027 34.0186 134.303C34.4855 134.58 34.8503 134.943 35.1276 135.423C35.4048 135.902 35.5362 136.44 35.5362 137.051C35.5362 137.661 35.4048 138.199 35.1276 138.664C34.8503 139.129 34.4855 139.478 34.0186 139.74C33.5516 139.987 33.0263 140.118 32.4426 140.118ZM32.4426 139.158C32.822 139.158 33.1577 139.071 33.4641 138.911C33.7705 138.751 34.0186 138.504 34.2083 138.199C34.398 137.879 34.4855 137.501 34.4855 137.065C34.4855 136.629 34.398 136.237 34.2083 135.902C34.0186 135.568 33.7851 135.321 33.4641 135.132C33.1577 134.958 32.8074 134.87 32.4426 134.87C32.0633 134.87 31.713 134.958 31.4066 135.132C31.1002 135.306 30.8521 135.553 30.677 135.873C30.5019 136.193 30.4143 136.585 30.4143 137.022C30.4143 137.458 30.5019 137.85 30.677 138.17C30.8521 138.49 31.1002 138.737 31.4066 138.911C31.713 139.071 32.0633 139.158 32.4426 139.158Z" fill="white"/>
<path d="M36.7334 140V134.026H37.7403V135.291C37.9299 134.869 38.1926 134.535 38.5282 134.288C38.8784 134.041 39.2724 133.91 39.7248 133.91C40.2063 133.91 40.6149 134.041 40.9651 134.317C41.3153 134.593 41.5488 134.957 41.6947 135.422C41.8844 134.957 42.1471 134.579 42.5119 134.317C42.8767 134.041 43.2998 133.91 43.796 133.91C44.2191 133.91 44.5839 134.012 44.905 134.215C45.2114 134.419 45.4595 134.71 45.6346 135.073C45.8097 135.436 45.8972 135.858 45.8972 136.338V139.986H44.8612V136.512C44.8612 135.945 44.7299 135.538 44.4672 135.276C44.2045 135.015 43.8689 134.884 43.4603 134.884C43.1685 134.884 42.8913 134.957 42.6432 135.117C42.3951 135.262 42.1908 135.465 42.0449 135.713C41.899 135.96 41.826 136.236 41.826 136.526V140H40.79V136.526C40.79 135.96 40.6587 135.553 40.396 135.291C40.1334 135.029 39.7977 134.899 39.3892 134.899C39.0973 134.899 38.8201 134.971 38.572 135.131C38.3239 135.276 38.1196 135.48 37.9737 135.727C37.8278 135.974 37.7548 136.25 37.7548 136.541V140.015H36.7334V140Z" fill="white"/>
<path d="M173.925 125.314H173.572V147.564H173.925V125.314Z" fill="white"/>
<path d="M71.884 139.607C71.3587 139.316 70.9355 138.924 70.6291 138.43C70.3227 137.921 70.1768 137.354 70.1768 136.714C70.1768 136.075 70.3227 135.508 70.6291 134.999C70.9355 134.491 71.3441 134.098 71.884 133.822C72.4094 133.531 73.0076 133.4 73.6789 133.4C74.2334 133.4 74.7441 133.502 75.1964 133.691C75.6488 133.88 76.0282 134.171 76.3346 134.534L75.3715 135.421C74.9338 134.927 74.3939 134.665 73.7518 134.665C73.3578 134.665 72.993 134.752 72.6866 134.927C72.3802 135.101 72.1321 135.348 71.957 135.653C71.7819 135.959 71.6943 136.322 71.6943 136.714C71.6943 137.107 71.7819 137.47 71.957 137.775C72.1321 138.081 72.3802 138.328 72.6866 138.502C72.993 138.677 73.3578 138.764 73.7518 138.764C74.3939 138.764 74.9338 138.517 75.3715 138.008L76.3346 138.895C76.0282 139.273 75.6488 139.549 75.1964 139.752C74.7441 139.941 74.2334 140.043 73.6789 140.043C73.0076 140.028 72.4094 139.898 71.884 139.607Z" fill="white"/>
<path d="M80.318 138.445C80.5515 138.198 80.6682 137.864 80.6682 137.457C80.6682 137.035 80.5515 136.716 80.318 136.468C80.0845 136.221 79.7781 136.091 79.4133 136.091C79.0485 136.091 78.7421 136.207 78.5086 136.468C78.2751 136.716 78.1438 137.05 78.1438 137.457C78.1438 137.878 78.2605 138.198 78.5086 138.445C78.7421 138.692 79.0485 138.823 79.4133 138.823C79.7781 138.823 80.0845 138.707 80.318 138.445ZM78.0124 139.666C77.6039 139.448 77.2683 139.143 77.0348 138.765C76.8013 138.373 76.6846 137.937 76.6846 137.457C76.6846 136.963 76.8013 136.527 77.0348 136.149C77.2683 135.756 77.5893 135.466 78.0124 135.248C78.421 135.029 78.888 134.928 79.4133 134.928C79.9386 134.928 80.4055 135.029 80.8141 135.248C81.2227 135.466 81.5437 135.771 81.7772 136.149C82.0107 136.541 82.1274 136.977 82.1274 137.457C82.1274 137.951 82.0107 138.387 81.7772 138.765C81.5437 139.143 81.2227 139.448 80.8141 139.666C80.4055 139.884 79.9386 139.986 79.4133 139.986C78.888 140.001 78.421 139.884 78.0124 139.666Z" fill="white"/>
<path d="M90.9118 135.463C91.2766 135.827 91.4663 136.379 91.4663 137.106V139.926H90.0363V137.324C90.0363 136.931 89.9487 136.641 89.7882 136.452C89.6277 136.263 89.3942 136.161 89.0878 136.161C88.7522 136.161 88.4895 136.263 88.2852 136.481C88.0955 136.699 87.9934 137.019 87.9934 137.455V139.926H86.5634V137.324C86.5634 136.553 86.2569 136.161 85.6295 136.161C85.2939 136.161 85.0312 136.263 84.8415 136.481C84.6518 136.699 84.5497 137.019 84.5497 137.455V139.926H83.1196V134.984H84.4913V135.551C84.681 135.347 84.8999 135.187 85.1625 135.071C85.4252 134.955 85.717 134.911 86.0381 134.911C86.3883 134.911 86.7093 134.984 86.9865 135.115C87.2638 135.245 87.4973 135.449 87.6724 135.71C87.8767 135.449 88.1247 135.26 88.4458 135.115C88.7522 134.969 89.0878 134.896 89.4672 134.896C90.0509 134.911 90.547 135.1 90.9118 135.463Z" fill="white"/>
<path d="M96.326 138.444C96.5595 138.197 96.6763 137.863 96.6763 137.456C96.6763 137.034 96.5595 136.714 96.326 136.467C96.0926 136.22 95.7861 136.089 95.4213 136.089C95.0565 136.089 94.7501 136.22 94.5166 136.467C94.2831 136.714 94.1664 137.049 94.1664 137.456C94.1664 137.877 94.2831 138.197 94.5166 138.444C94.7501 138.691 95.0565 138.822 95.4213 138.822C95.8007 138.822 96.0926 138.706 96.326 138.444ZM96.9243 135.232C97.3037 135.435 97.5956 135.741 97.8144 136.119C98.0333 136.496 98.1355 136.947 98.1355 137.456C98.1355 137.964 98.0333 138.415 97.8144 138.793C97.5956 139.171 97.3037 139.476 96.9243 139.68C96.5449 139.898 96.1218 139.999 95.6694 139.999C95.0419 139.999 94.5458 139.796 94.181 139.403V141.7H92.751V134.985H94.1226V135.552C94.4728 135.13 94.9982 134.912 95.684 134.912C96.1363 134.912 96.5595 135.014 96.9243 135.232Z" fill="white"/>
<path d="M104.089 134.986V139.928H102.731V139.347C102.542 139.565 102.308 139.725 102.046 139.841C101.783 139.957 101.491 140.016 101.185 140.016C100.528 140.016 100.017 139.827 99.6379 139.463C99.2585 139.085 99.0688 138.533 99.0688 137.806V135.015H100.499V137.588C100.499 138.388 100.834 138.78 101.506 138.78C101.856 138.78 102.119 138.664 102.337 138.446C102.542 138.228 102.644 137.893 102.644 137.457V135.015H104.089V134.986Z" fill="white"/>
<path d="M108.626 139.68C108.481 139.782 108.305 139.869 108.101 139.913C107.897 139.971 107.678 139.986 107.445 139.986C106.861 139.986 106.394 139.84 106.073 139.535C105.752 139.23 105.591 138.794 105.591 138.212V136.192H104.833V135.087H105.591V133.881H107.021V135.087H108.262V136.192H107.021V138.198C107.021 138.401 107.08 138.561 107.182 138.677C107.284 138.794 107.445 138.852 107.634 138.852C107.868 138.852 108.057 138.794 108.218 138.663L108.626 139.68Z" fill="white"/>
<path d="M109.429 134.985H110.86V139.927H109.429V134.985ZM109.502 134.069C109.342 133.91 109.254 133.721 109.254 133.503C109.254 133.27 109.342 133.081 109.502 132.936C109.663 132.776 109.882 132.703 110.145 132.703C110.407 132.703 110.626 132.776 110.787 132.921C110.947 133.067 111.035 133.255 111.035 133.473C111.035 133.706 110.947 133.91 110.787 134.069C110.626 134.229 110.407 134.302 110.145 134.302C109.882 134.302 109.678 134.229 109.502 134.069Z" fill="white"/>
<path d="M116.696 135.463C117.075 135.827 117.265 136.379 117.265 137.091V139.911H115.835V137.309C115.835 136.917 115.748 136.626 115.572 136.437C115.397 136.248 115.149 136.147 114.828 136.147C114.464 136.147 114.172 136.263 113.967 136.481C113.748 136.699 113.646 137.033 113.646 137.469V139.911H112.216V134.969H113.588V135.551C113.778 135.347 114.011 135.187 114.303 135.071C114.58 134.955 114.901 134.896 115.237 134.896C115.835 134.911 116.331 135.1 116.696 135.463Z" fill="white"/>
<path d="M121.95 138.184C122.198 137.966 122.314 137.675 122.314 137.312C122.314 136.949 122.198 136.658 121.95 136.44C121.701 136.222 121.395 136.105 121.016 136.105C120.636 136.105 120.315 136.222 120.082 136.44C119.834 136.658 119.717 136.949 119.717 137.312C119.717 137.675 119.834 137.966 120.082 138.184C120.33 138.402 120.636 138.518 121.016 138.518C121.395 138.518 121.701 138.402 121.95 138.184ZM123.73 134.986V139.1C123.73 140.001 123.496 140.684 123.015 141.12C122.548 141.556 121.847 141.774 120.943 141.774C120.461 141.774 120.009 141.716 119.586 141.6C119.162 141.484 118.798 141.309 118.52 141.091L119.089 140.059C119.294 140.233 119.556 140.364 119.877 140.466C120.198 140.568 120.519 140.611 120.84 140.611C121.337 140.611 121.701 140.495 121.935 140.277C122.168 140.059 122.285 139.71 122.285 139.26V139.042C121.906 139.449 121.395 139.652 120.724 139.652C120.271 139.652 119.848 139.55 119.469 139.347C119.089 139.143 118.798 138.867 118.564 138.504C118.345 138.14 118.229 137.733 118.229 137.254C118.229 136.789 118.345 136.367 118.564 136.004C118.783 135.64 119.089 135.364 119.469 135.161C119.848 134.957 120.257 134.855 120.724 134.855C121.439 134.855 121.993 135.088 122.358 135.568V134.928H123.73V134.986Z" fill="white"/>
<path d="M130.135 139.199C130.398 139.025 130.602 138.792 130.719 138.472V137.688H129.201C128.37 137.688 127.961 137.978 127.961 138.545C127.961 138.821 128.063 139.054 128.282 139.214C128.501 139.374 128.793 139.461 129.187 139.461C129.566 139.461 129.873 139.374 130.135 139.199ZM130.879 135.536C131.215 135.856 131.39 136.321 131.39 136.932V139.926H130.763V139.17C130.617 139.417 130.398 139.621 130.121 139.752C129.829 139.897 129.493 139.97 129.099 139.97C128.559 139.97 128.136 139.839 127.815 139.577C127.494 139.315 127.333 138.981 127.333 138.56C127.333 138.153 127.479 137.818 127.786 137.571C128.078 137.324 128.559 137.193 129.216 137.193H130.748V136.903C130.748 136.481 130.631 136.176 130.398 135.958C130.164 135.74 129.829 135.638 129.376 135.638C129.07 135.638 128.778 135.682 128.486 135.783C128.209 135.885 127.961 136.031 127.757 136.205L127.465 135.725C127.713 135.522 128.005 135.362 128.355 135.246C128.705 135.129 129.055 135.071 129.435 135.071C130.062 135.057 130.544 135.217 130.879 135.536Z" fill="white"/>
<path d="M135.71 139.635C135.593 139.751 135.433 139.824 135.258 139.882C135.082 139.94 134.893 139.969 134.688 139.969C134.236 139.969 133.886 139.853 133.638 139.606C133.39 139.359 133.273 139.01 133.273 138.574V135.652H132.412V135.1H133.273V134.039H133.93V135.1H135.403V135.652H133.93V138.53C133.93 138.821 134.003 139.039 134.149 139.185C134.294 139.33 134.499 139.403 134.776 139.403C134.907 139.403 135.039 139.388 135.17 139.344C135.301 139.301 135.403 139.243 135.491 139.155L135.71 139.635Z" fill="white"/>
<path d="M139.854 139.753C139.416 139.593 139.081 139.404 138.833 139.142L139.095 138.619C139.329 138.852 139.635 139.04 140.029 139.186C140.408 139.331 140.817 139.404 141.226 139.404C141.809 139.404 142.232 139.302 142.524 139.084C142.816 138.866 142.962 138.604 142.962 138.27C142.962 138.008 142.889 137.805 142.729 137.66C142.568 137.5 142.378 137.383 142.16 137.311C141.926 137.224 141.62 137.136 141.211 137.035C140.729 136.918 140.336 136.788 140.044 136.686C139.752 136.57 139.504 136.395 139.299 136.163C139.095 135.93 138.993 135.61 138.993 135.218C138.993 134.898 139.081 134.593 139.256 134.331C139.431 134.069 139.693 133.851 140.044 133.692C140.394 133.532 140.846 133.459 141.372 133.459C141.736 133.459 142.101 133.503 142.451 133.604C142.802 133.706 143.108 133.851 143.371 134.026L143.137 134.564C142.86 134.389 142.583 134.258 142.276 134.171C141.97 134.084 141.663 134.04 141.372 134.04C140.802 134.04 140.379 134.142 140.102 134.36C139.81 134.578 139.679 134.854 139.679 135.203C139.679 135.465 139.752 135.668 139.912 135.828C140.073 135.988 140.263 136.104 140.496 136.192C140.729 136.279 141.051 136.366 141.445 136.468C141.911 136.584 142.305 136.7 142.597 136.817C142.889 136.933 143.137 137.107 143.341 137.325C143.546 137.558 143.648 137.863 143.648 138.256C143.648 138.575 143.56 138.881 143.385 139.142C143.21 139.404 142.947 139.622 142.583 139.782C142.218 139.942 141.78 140.014 141.24 140.014C140.744 139.985 140.292 139.898 139.854 139.753Z" fill="white"/>
<path d="M145.706 139.651C145.326 139.447 145.035 139.157 144.816 138.779C144.597 138.401 144.495 137.979 144.495 137.514C144.495 137.049 144.597 136.628 144.816 136.25C145.035 135.872 145.326 135.581 145.706 135.378C146.085 135.174 146.508 135.072 146.99 135.072C147.413 135.072 147.778 135.159 148.113 135.319C148.435 135.479 148.697 135.712 148.887 136.032L148.405 136.366C148.245 136.133 148.041 135.944 147.792 135.828C147.544 135.712 147.282 135.654 146.99 135.654C146.64 135.654 146.319 135.726 146.041 135.886C145.764 136.046 145.545 136.264 145.385 136.555C145.224 136.846 145.151 137.165 145.151 137.543C145.151 137.921 145.224 138.241 145.385 138.532C145.545 138.822 145.764 139.04 146.041 139.186C146.319 139.346 146.64 139.418 146.99 139.418C147.282 139.418 147.544 139.36 147.792 139.244C148.041 139.128 148.245 138.953 148.405 138.706L148.887 139.04C148.697 139.346 148.435 139.593 148.099 139.753C147.763 139.912 147.398 140 146.99 140C146.508 139.971 146.085 139.869 145.706 139.651Z" fill="white"/>
<path d="M154.009 135.596C154.374 135.945 154.549 136.454 154.549 137.137V139.927H153.892V137.195C153.892 136.701 153.761 136.308 153.513 136.047C153.265 135.785 152.9 135.654 152.433 135.654C151.908 135.654 151.499 135.814 151.192 136.119C150.886 136.424 150.74 136.861 150.74 137.398V139.927H150.083V133.125H150.74V135.945C150.915 135.669 151.163 135.451 151.484 135.291C151.791 135.145 152.156 135.058 152.564 135.058C153.162 135.058 153.644 135.233 154.009 135.596Z" fill="white"/>
<path d="M159.247 139.157C159.524 138.997 159.728 138.779 159.889 138.488C160.049 138.197 160.122 137.878 160.122 137.5C160.122 137.136 160.049 136.802 159.889 136.511C159.728 136.221 159.524 136.003 159.247 135.843C158.969 135.683 158.663 135.61 158.327 135.61C157.977 135.61 157.671 135.683 157.408 135.843C157.131 136.003 156.926 136.221 156.766 136.511C156.605 136.802 156.532 137.122 156.532 137.5C156.532 137.863 156.605 138.197 156.766 138.488C156.926 138.779 157.131 138.997 157.408 139.157C157.685 139.317 157.992 139.389 158.327 139.389C158.663 139.389 158.969 139.317 159.247 139.157ZM157.058 139.651C156.678 139.447 156.387 139.142 156.168 138.779C155.949 138.401 155.847 137.979 155.847 137.514C155.847 137.049 155.949 136.628 156.168 136.25C156.387 135.872 156.678 135.581 157.058 135.378C157.437 135.174 157.846 135.072 158.313 135.072C158.78 135.072 159.203 135.174 159.568 135.378C159.947 135.581 160.239 135.872 160.443 136.25C160.662 136.628 160.764 137.049 160.764 137.514C160.764 137.979 160.662 138.401 160.443 138.779C160.239 139.157 159.932 139.447 159.568 139.651C159.188 139.869 158.765 139.971 158.313 139.971C157.86 139.971 157.437 139.869 157.058 139.651Z" fill="white"/>
<path d="M165.025 139.157C165.303 138.997 165.507 138.779 165.668 138.488C165.828 138.197 165.901 137.878 165.901 137.5C165.901 137.136 165.828 136.802 165.668 136.511C165.507 136.221 165.303 136.003 165.025 135.843C164.748 135.683 164.442 135.61 164.106 135.61C163.756 135.61 163.45 135.683 163.187 135.843C162.91 136.003 162.705 136.221 162.545 136.511C162.384 136.802 162.311 137.122 162.311 137.5C162.311 137.863 162.384 138.197 162.545 138.488C162.705 138.779 162.91 138.997 163.187 139.157C163.464 139.317 163.771 139.389 164.106 139.389C164.442 139.389 164.748 139.317 165.025 139.157ZM162.837 139.651C162.457 139.447 162.165 139.142 161.947 138.779C161.728 138.401 161.625 137.979 161.625 137.514C161.625 137.049 161.728 136.628 161.947 136.25C162.165 135.872 162.457 135.581 162.837 135.378C163.216 135.174 163.625 135.072 164.092 135.072C164.558 135.072 164.982 135.174 165.346 135.378C165.726 135.581 166.018 135.872 166.222 136.25C166.441 136.628 166.543 137.049 166.543 137.514C166.543 137.979 166.441 138.401 166.222 138.779C166.018 139.157 165.711 139.447 165.346 139.651C164.967 139.869 164.544 139.971 164.092 139.971C163.625 139.971 163.201 139.869 162.837 139.651Z" fill="white"/>
<path d="M168.542 133.125H167.885V139.927H168.542V133.125Z" fill="white"/>
<path d="M61.3491 131.728C61.9911 132.033 62.7645 131.772 63.0855 131.132C63.3919 130.493 63.1293 129.722 62.4872 129.403C61.8452 129.097 61.0718 129.359 60.7508 129.999C60.4443 130.638 60.707 131.408 61.3491 131.728Z" fill="white"/>
<path d="M71.6519 128.24L61.6417 132.804L56.228 128.691L61.1018 135.61L71.6519 128.24Z" fill="white"/>
<path d="M67.1865 135.901C66.5444 135.595 65.771 135.857 65.45 136.497C65.1436 137.136 65.4062 137.907 66.0483 138.226C66.6903 138.532 67.4637 138.27 67.7847 137.63C68.0912 136.976 67.8285 136.206 67.1865 135.901Z" fill="white"/>
<path d="M68.9514 146.745L64.3549 136.773L68.4845 131.381L61.5532 136.25L68.9514 146.745Z" fill="white"/>
<path d="M60.6786 140.537C60.0366 140.232 59.2632 140.494 58.9422 141.133C58.6357 141.773 58.8984 142.543 59.5405 142.863C60.1825 143.168 60.9559 142.907 61.2769 142.267C61.5833 141.628 61.3207 140.857 60.6786 140.537Z" fill="white"/>
<path d="M50.3765 144.026L60.3866 139.462L65.8003 143.575L60.9265 136.656L50.3765 144.026Z" fill="white"/>
<path d="M54.9291 136.424C55.5712 136.729 56.3446 136.467 56.6656 135.828C56.972 135.188 56.7094 134.418 56.0673 134.098C55.4253 133.793 54.6519 134.054 54.3309 134.694C54.0244 135.333 54.2871 136.118 54.9291 136.424Z" fill="white"/>
<path d="M53.1636 125.566L57.7455 135.538L53.6159 140.93L60.5618 136.075L53.1636 125.566Z" fill="white"/>
</g>
<defs>
<clipPath id="clip0">
<rect width="181.819" height="63.2851" fill="white" transform="translate(21.0903 84.3809)"/>
</clipPath>
</defs>
</svg>
