<svg width="94" height="94" viewBox="0 0 94 94" fill="none" xmlns="http://www.w3.org/2000/svg">
<path d="M49.2827 30.9626H72.6949V37.8107H64.8518V62.9203H57.155V37.84H49.312V30.9626H49.2827ZM47 88.2055C24.2609 88.2055 5.79452 69.7391 5.79452 47C5.79452 24.2609 24.2609 5.79452 47 5.79452C69.7391 5.79452 88.2055 24.2609 88.2055 47C88.2055 69.7391 69.7391 88.2055 47 88.2055ZM47 94C72.929 94 94 72.9583 94 47C94 21.0417 72.929 0 47 0C21.0417 0 0 21.0417 0 47C0 72.9583 21.0417 94 47 94ZM39.0398 53.1457C39.0398 51.1264 37.7814 49.7509 35.6158 49.7509H30.4359V56.4234H35.6158C37.7814 56.4527 39.0398 55.0772 39.0398 53.1457ZM38.1034 40.3275C38.1034 38.6301 37.0205 37.4595 35.1768 37.4595H30.4359V43.2833H35.1768C37.0205 43.2833 38.1034 42.1127 38.1034 40.3275ZM46.8537 53.5261C46.8537 59.5841 42.5809 62.9203 36.4645 62.9203H22.8562V30.9626H35.5865C41.7323 30.9626 45.9172 34.1233 45.9172 39.8885C45.9172 42.5224 44.7466 44.8636 42.8736 46.2684C45.01 47.556 46.8537 50.0143 46.8537 53.5261Z" fill="#5514B4"/>
</svg>
