<svg width="146" height="136" viewBox="0 0 146 136" fill="none" xmlns="http://www.w3.org/2000/svg">
<rect width="146" height="136" fill="white"/>
<path d="M75.5641 53.9981H96.7347V60.1905H89.6426V82.896H82.6828V60.217H75.5906V53.9981H75.5641ZM73.5 105.76C52.938 105.76 36.2397 89.062 36.2397 68.5C36.2397 47.938 52.938 31.2397 73.5 31.2397C94.062 31.2397 110.76 47.938 110.76 68.5C110.76 89.062 94.062 105.76 73.5 105.76ZM73.5 111C96.9464 111 116 91.9729 116 68.5C116 45.0271 96.9464 26 73.5 26C50.0271 26 31 45.0271 31 68.5C31 91.9729 50.0271 111 73.5 111ZM66.302 74.0573C66.302 72.2313 65.1641 70.9875 63.2058 70.9875H58.5218V77.0212H63.2058C65.1641 77.0476 66.302 75.8039 66.302 74.0573ZM65.4552 62.4664C65.4552 60.9315 64.476 59.873 62.8088 59.873H58.5218V65.1392H62.8088C64.476 65.1392 65.4552 64.0806 65.4552 62.4664ZM73.3677 74.4013C73.3677 79.8792 69.504 82.896 63.9732 82.896H51.6678V53.9981H63.1793C68.7366 53.9981 72.5209 56.8562 72.5209 62.0694C72.5209 64.4511 71.4623 66.5682 69.7687 67.8384C71.7005 69.0028 73.3677 71.2257 73.3677 74.4013Z" fill="#5514B4"/>
</svg>
