<svg width="85" height="85" viewBox="0 0 85 85" fill="none" xmlns="http://www.w3.org/2000/svg">
<path d="M44.5641 27.9981H65.7347V34.1905H58.6426V56.896H51.6828V34.217H44.5906V27.9981H44.5641ZM42.5 79.7603C21.938 79.7603 5.23973 63.062 5.23973 42.5C5.23973 21.938 21.938 5.23973 42.5 5.23973C63.062 5.23973 79.7603 21.938 79.7603 42.5C79.7603 63.062 63.062 79.7603 42.5 79.7603ZM42.5 85C65.9464 85 85 65.9729 85 42.5C85 19.0271 65.9464 0 42.5 0C19.0271 0 0 19.0271 0 42.5C0 65.9729 19.0271 85 42.5 85ZM35.302 48.0573C35.302 46.2313 34.1641 44.9875 32.2058 44.9875H27.5218V51.0212H32.2058C34.1641 51.0476 35.302 49.8039 35.302 48.0573ZM34.4552 36.4664C34.4552 34.9315 33.476 33.873 31.8088 33.873H27.5218V39.1392H31.8088C33.476 39.1392 34.4552 38.0806 34.4552 36.4664ZM42.3677 48.4013C42.3677 53.8792 38.504 56.896 32.9732 56.896H20.6678V27.9981H32.1793C37.7366 27.9981 41.5209 30.8562 41.5209 36.0694C41.5209 38.4511 40.4623 40.5682 38.7687 41.8384C40.7005 43.0028 42.3677 45.2257 42.3677 48.4013Z" fill="#5514B4"/>
</svg>
