<svg width="81" height="81" viewBox="0 0 81 81" fill="none" xmlns="http://www.w3.org/2000/svg">
  <title>
		Code Club logo
  </title>
<path d="M81.0001 40.5C81.0001 62.9238 62.8094 81.0001 40.5 81.0001C18.0763 81.0001 0 62.8094 0 40.5C0 18.0763 18.1907 0 40.5 0C62.9238 0 81.0001 18.0763 81.0001 40.5Z" fill="#2C9942"/>
<path d="M20.25 56.9746C20.25 57.5466 20.1356 58.1187 19.4492 58.1187C19.106 58.1187 19.5636 58.1187 19.2204 58.1187C17.1611 58.1187 15.7882 57.6611 14.8729 56.7458C14.0721 55.8305 13.6144 54.3433 13.6144 52.1695V44.8475C13.6144 43.7034 13.5 42.7882 13.1568 42.3305C12.8136 41.7585 12.2416 41.4153 11.4407 41.0721C10.9831 40.9576 10.7543 40.5 10.7543 40.0424C10.7543 39.5848 11.0975 39.1271 11.4407 39.0127C12.928 38.5551 13.7289 37.411 13.7289 35.4661V27.6864C13.7289 25.7415 14.1865 24.3687 14.9873 23.5678C15.9026 22.767 17.2755 22.3093 19.2204 22.3093H19.4492C20.0212 22.3093 20.25 22.767 20.25 23.4534C20.25 24.0254 20.1356 24.2542 19.4492 24.2542C17.9619 24.2542 16.9322 24.4831 16.4746 25.0551C15.9026 25.5127 15.6738 26.428 15.6738 27.8009V35.6949C15.6738 36.6102 15.5594 37.411 15.3305 38.2119C15.1017 39.0127 14.4153 39.6992 13.2712 40.2712C14.1865 40.7288 14.7585 41.3009 15.1017 41.9873C15.445 42.6737 15.6738 43.589 15.6738 44.8475V52.5127C15.6738 54 15.9026 54.9153 16.3602 55.4873C16.8178 55.9449 17.8475 56.1738 19.4492 56.2882C20.1356 56.1738 20.25 56.2882 20.25 56.9746Z" fill="#9ED8B3"/>
<path d="M61.4365 56.1737C62.9238 56.1737 63.9535 55.9449 64.5255 55.3728C64.9832 54.9152 65.212 53.8855 65.212 52.3982V44.733C65.212 43.4745 65.4408 42.5592 65.784 41.8728C66.1272 41.1864 66.8137 40.6143 67.6145 40.1567C66.4704 39.5847 65.784 38.8982 65.5552 38.0974C65.3264 37.2965 65.212 36.4957 65.212 35.5804V27.6864C65.212 26.3135 64.9832 25.3982 64.4111 24.9406C63.8391 24.483 62.9238 24.2541 61.4365 24.1397C60.8645 24.1397 60.2925 24.0253 60.2925 23.3389C60.2925 22.7669 60.7501 22.1948 61.4365 22.1948H61.6654C63.6103 22.1948 65.0976 22.6525 65.8984 23.4533C66.8137 24.2541 67.1569 25.7414 67.1569 27.5719V35.3516C67.1569 37.2965 67.9577 38.555 69.445 38.8982C69.9027 39.127 70.1315 39.4703 70.1315 39.9279C70.1315 40.3855 69.7883 40.8431 69.445 40.9576C68.6442 41.1864 68.0721 41.644 67.7289 42.216C67.3857 42.7881 67.2713 43.5889 67.2713 44.733V52.055C67.2713 54.2287 66.8137 55.716 66.0128 56.6313C65.212 57.5466 63.7247 58.0042 61.6654 58.0042C61.4365 58.0042 61.7798 58.0042 61.4365 58.0042C60.8645 58.0042 60.4069 57.5466 60.4069 56.8601C60.4069 56.2881 60.8645 56.1737 61.4365 56.1737Z" fill="#9ED8B3"/>
<path d="M35.0086 36.7247C36.1526 36.7247 37.1823 36.267 37.9832 35.4662C38.784 34.6653 39.2416 33.6357 39.2416 32.4916C39.2416 31.3475 38.784 30.3179 37.9832 29.517C37.1823 28.7162 36.1526 28.2586 35.0086 28.2586C33.8645 28.2586 32.8348 28.7162 32.034 29.517C31.2332 30.3179 30.7755 31.3475 30.7755 32.4916C30.7755 33.6357 31.2332 34.6653 32.034 35.4662C32.8348 36.267 33.8645 36.7247 35.0086 36.7247ZM33.2925 30.7755C33.7501 30.3179 34.3221 30.0891 35.0086 30.0891C35.695 30.0891 36.267 30.3179 36.7247 30.7755C37.1823 31.2331 37.4111 31.8052 37.4111 32.4916C37.4111 33.1781 37.1823 33.7501 36.7247 34.2077C36.267 34.6653 35.695 34.8942 35.0086 34.8942C34.3221 34.8942 33.7501 34.6653 33.2925 34.2077C32.8348 33.7501 32.606 33.1781 32.606 32.4916C32.606 31.8052 32.8348 31.2331 33.2925 30.7755ZM55.6018 30.2035C56.7459 30.2035 57.5467 30.6611 57.7755 31.6908H53.4281C53.7713 30.6611 54.4577 30.2035 55.6018 30.2035ZM58.462 45.0764C57.6611 44.2755 56.7459 43.9323 55.6018 43.9323C54.801 43.9323 54.1145 44.1611 53.5425 44.6187C53.4281 44.7331 53.3137 44.8476 53.1993 44.962V42.1018C53.1993 41.6442 52.7416 41.1865 52.284 41.1865C51.8264 41.1865 51.3688 41.6442 51.3688 42.1018V51.3687C51.3688 51.8264 51.712 52.284 52.284 52.284C52.7416 52.284 53.1993 51.9408 53.1993 51.3687V51.1399C53.5425 51.5976 54.0001 51.8264 54.4577 52.0552C54.9154 52.1696 55.373 52.284 55.8306 52.284C56.9747 52.284 57.8899 51.8264 58.6908 51.0255C59.4916 50.2247 59.8349 49.195 59.8349 48.0509C59.606 46.9069 59.2628 45.8772 58.462 45.0764ZM56.9747 49.6526C56.5171 50.1103 55.945 50.3391 55.373 50.3391C54.6866 50.3391 54.2289 50.1103 53.7713 49.6526C53.3137 49.195 53.0849 48.623 53.0849 48.0509C53.0849 47.3645 53.3137 46.7925 53.7713 46.3348C54.2289 45.8772 54.801 45.6484 55.373 45.6484C56.0594 45.6484 56.5171 45.8772 56.9747 46.3348C57.4323 46.7925 57.6611 47.3645 57.6611 47.9365C57.6611 48.7374 57.4323 49.3094 56.9747 49.6526ZM47.9365 44.8476V51.3687C47.9365 51.8264 47.5933 52.284 47.0213 52.284C46.5637 52.284 46.106 51.9408 46.106 51.3687V51.2543V50.9111C45.9916 51.1399 45.7628 51.2543 45.7628 51.3687C45.1908 51.9408 44.5043 52.1696 43.5891 52.1696C42.9026 52.1696 42.3306 52.0552 41.873 51.712C41.3009 51.4832 40.9577 51.0255 40.7289 50.5679C40.5001 50.1103 40.3857 49.6526 40.3857 49.0806C40.3857 48.8518 40.3857 48.3942 40.3857 47.4789V44.6187C40.3857 44.1611 40.8433 43.7035 41.3009 43.7035C41.873 43.7035 42.2162 44.1611 42.2162 44.6187V44.7331V47.4789C42.2162 48.0509 42.2162 48.3942 42.2162 48.5086C42.2162 48.8518 42.3306 49.195 42.445 49.5382C42.6738 50.1103 43.2459 50.3391 43.9323 50.3391C45.4196 50.3391 46.106 49.4238 46.106 47.5933V44.7331C46.106 44.2755 46.5637 43.8179 47.0213 43.8179C47.4789 43.9323 47.9365 44.2755 47.9365 44.8476ZM48.3942 25.6272C47.9365 25.6272 47.4789 26.0848 47.4789 26.5425V29.2882C47.0213 28.945 46.5637 28.6018 46.2204 28.4874C45.8772 28.373 45.534 28.373 45.0764 28.373C43.9323 28.373 43.0171 28.7162 42.3306 29.517C41.5298 30.3179 41.1866 31.3475 41.1866 32.4916C41.1866 33.6357 41.5298 34.6653 42.3306 35.4662C43.1315 36.267 44.0467 36.7247 45.0764 36.7247C45.9916 36.7247 46.6781 36.4959 47.3645 35.9238C47.4789 35.8094 47.5933 35.695 47.7077 35.5806V35.8094C47.7077 36.267 48.051 36.7247 48.623 36.7247C49.0806 36.7247 49.5382 36.3814 49.5382 35.8094V26.5425C49.3094 25.9704 48.9662 25.6272 48.3942 25.6272ZM46.9069 34.2077C46.4493 34.6653 45.9916 34.8942 45.3052 34.8942C44.7332 34.8942 44.1611 34.6653 43.7035 34.2077C43.2459 33.7501 43.017 33.1781 43.017 32.606C43.017 31.9196 43.2459 31.3475 43.7035 30.8899C44.1611 30.4323 44.6187 30.2035 45.3052 30.2035C45.9916 30.2035 46.5637 30.4323 46.9069 30.8899C47.3645 31.3475 47.4789 31.9196 47.4789 32.606C47.5933 33.1781 47.3645 33.7501 46.9069 34.2077ZM37.8687 51.1399C37.8687 51.5976 37.5255 51.9408 37.0679 51.9408H32.3772C31.9196 51.9408 31.5764 51.5976 31.5764 51.1399C31.5764 50.6823 31.9196 50.3391 32.3772 50.3391H33.8645V43.1314H32.3772C31.9196 43.1314 31.5764 42.7882 31.5764 42.3306C31.5764 41.873 31.9196 41.5298 32.3772 41.5298H34.7798C35.2374 41.5298 35.5806 41.873 35.5806 42.3306V50.3391H36.9535C37.5255 50.2247 37.8687 50.6823 37.8687 51.1399ZM23.9111 46.3348C23.4535 46.7925 23.2247 47.3645 23.2247 48.0509C23.2247 48.623 23.4535 49.3094 23.9111 49.767C24.8264 50.6823 26.3136 50.6823 27.2289 49.767C27.5721 49.4238 28.373 49.4238 28.7162 49.767C29.0594 50.1103 29.0594 50.6823 28.7162 51.0255C27.9153 51.8264 26.7713 52.284 25.6272 52.284C24.4831 52.284 23.4535 51.8264 22.5382 51.0255C20.8221 49.4238 20.8221 46.6781 22.5382 45.0764C24.2543 43.4747 27.0001 43.4747 28.7162 45.0764C29.0594 45.4196 29.0594 45.9916 28.7162 46.3348C28.373 46.6781 27.5721 46.6781 27.2289 46.3348C26.1992 45.4196 24.8264 45.4196 23.9111 46.3348ZM23.7967 30.7755C23.3391 31.2331 23.1103 31.8052 23.1103 32.4916C23.1103 33.0636 23.3391 33.7501 23.7967 34.2077C24.7119 35.123 26.1992 35.123 27.0001 34.2077C27.3433 33.8645 28.1442 33.8645 28.4874 34.2077C28.8306 34.5509 28.8306 35.123 28.4874 35.4662C27.6865 36.267 26.5425 36.7247 25.3984 36.7247C24.2543 36.7247 23.2247 36.267 22.3094 35.4662C20.5933 33.8645 20.5933 31.1187 22.3094 29.517C24.0255 27.9153 26.7713 27.9153 28.373 29.517C28.7162 29.8603 28.7162 30.4323 28.373 30.7755C28.0297 31.1187 27.2289 31.1187 26.8857 30.7755C26.1992 29.8603 24.7119 29.8603 23.7967 30.7755ZM59.1484 35.5806C59.4916 35.2374 59.4916 34.6653 59.1484 34.2077C58.8052 33.8645 58.1188 33.8645 57.7755 34.2077C57.3179 34.5509 56.7459 34.7797 56.1738 34.7797C56.1738 34.7797 55.945 34.7797 55.8306 34.7797C55.1442 34.7797 54.6866 34.6653 54.2289 34.3221C53.7713 33.9789 53.5425 33.6357 53.4281 33.0636H58.6908C59.2628 33.0636 59.7205 32.606 59.7205 31.9196C59.7205 31.9196 59.7205 31.9196 59.7205 31.8052C59.6061 30.8899 59.2628 30.0891 58.5764 29.4026C57.7755 28.6018 56.8603 28.1441 55.6018 28.1441C54.4577 28.1441 53.4281 28.6018 52.6272 29.4026C51.8264 30.2035 51.3688 31.2331 51.3688 32.3772C51.3688 33.5213 51.712 34.5509 52.5128 35.3518C53.3137 36.1526 54.3433 36.4959 55.6018 36.4959C55.7162 36.4959 55.945 36.4959 55.945 36.4959C57.2035 36.7247 58.2332 36.267 59.1484 35.5806Z" fill="white"/>
</svg>
