<svg width="84" height="81" viewBox="0 0 84 81" fill="none" xmlns="http://www.w3.org/2000/svg">
<path d="M83.0001 41.1273C82.884 41.2593 82.9503 41.4079 82.9338 41.54C82.9172 42.6132 82.884 43.6698 82.7679 44.743C82.4859 47.3021 81.9551 49.7952 81.2087 52.2553C79.2017 58.7108 75.818 64.3409 71.0079 69.1124C65.4845 74.6103 58.883 78.2261 51.2697 79.9762C48.8978 80.521 46.5093 80.8513 44.071 80.9338C43.9218 80.9338 43.7559 80.9173 43.6066 80.9833C42.7607 80.9833 41.9148 80.9833 41.0522 80.9833C40.8366 80.9173 40.6044 80.9338 40.3888 80.9173C34.799 80.6531 29.5079 79.2497 24.5153 76.7732C24.0508 76.542 23.5864 76.2779 23.122 76.0302C23.0888 76.0137 23.0556 75.9807 23.0225 75.9477C23.2049 75.9642 23.3376 76.0467 23.4703 76.1128C26.7047 77.5822 30.0718 78.6058 33.5716 79.2167C36.607 79.7451 39.659 79.9432 42.7275 79.7616C52.6464 79.2002 61.2881 75.5844 68.5531 68.8152C74.3584 63.4163 78.1402 56.8121 80.0643 49.1513C80.5121 47.4012 80.8272 45.6181 80.9931 43.8184C81.2087 41.4079 81.2917 38.9974 81.0926 36.5869C80.8936 34.1599 80.4955 31.7659 79.8818 29.4214C78.5549 24.3692 76.3322 19.7463 73.2139 15.5526C70.1122 11.4085 66.3802 7.94136 62.0179 5.1511C61.8852 5.06855 61.7359 5.00251 61.653 4.8374C61.8023 4.91995 61.9515 4.986 62.0842 5.06855C64.8376 6.52146 67.3588 8.30459 69.681 10.3849C72.7163 13.0926 75.2707 16.1966 77.344 19.6802C78.9695 22.388 80.2301 25.2608 81.1756 28.2656C81.7395 30.0323 82.1708 31.8154 82.4693 33.648C82.7513 35.3651 82.9503 37.0657 82.9669 38.7993C82.9669 38.8818 82.9503 38.9809 83.0333 39.0634C83.0001 39.7569 83.0001 40.4503 83.0001 41.1273Z" fill="#134395"/>
<path d="M41.5165 64.6382C28.0812 64.5886 17.3662 53.7909 17.3496 40.566C17.333 27.2091 28.1973 16.4443 41.5497 16.4443C55.0181 16.4443 65.7995 27.3742 65.7331 40.6486C65.6834 53.7248 55.0679 64.6217 41.5165 64.6382ZM28.9603 30.4947C27.6997 30.4947 26.5884 30.9405 25.7425 31.799C24.9961 32.5585 24.598 33.4831 24.4985 34.5562C24.399 35.6789 24.6146 36.7356 25.2615 37.6767C26.3562 39.2782 28.5291 39.9551 30.4531 39.2947C31.6806 38.882 32.4767 38.0399 32.908 36.8347C32.9909 36.587 32.9909 36.587 32.7421 36.5045C32.3938 36.3889 32.0289 36.2898 31.6806 36.1908C31.4152 36.1082 31.3986 36.1082 31.2825 36.3889C30.8678 37.33 30.138 37.8253 29.1262 37.8748C28.0315 37.9244 27.1524 37.4951 26.6216 36.521C26.1738 35.712 26.1572 34.8204 26.4226 33.9454C26.7543 32.8887 27.65 32.2118 28.7447 32.1457C29.9887 32.0797 30.7517 32.542 31.2327 33.6812C31.2991 33.8463 31.382 33.8628 31.5313 33.8133C31.8962 33.6977 32.2611 33.5821 32.626 33.4666C32.9246 33.3675 32.9246 33.3675 32.825 33.0868C32.5099 32.1622 31.9294 31.4523 31.0503 30.99C30.4034 30.6433 29.7067 30.4947 28.9603 30.4947ZM42.6112 38.7829C42.8766 39.0636 43.1752 39.2947 43.5567 39.3938C44.7343 39.7405 46.2437 39.3277 46.874 37.8583C47.3053 36.8347 47.3218 35.7945 46.874 34.7874C46.4428 33.7637 45.6466 33.2354 44.5187 33.1859C43.7889 33.1529 43.142 33.3345 42.5615 33.9288C42.5615 33.7307 42.5615 33.5986 42.5615 33.4666C42.5615 32.5915 42.5615 31.733 42.5615 30.8579C42.5615 30.4947 42.5946 30.4947 42.1965 30.4947C41.8814 30.4947 41.5663 30.4947 41.2345 30.4947C40.936 30.4947 40.936 30.4947 40.9194 30.7919C40.9194 30.8414 40.9194 30.8909 40.9194 30.957C40.9194 33.6151 40.9194 36.2568 40.9194 38.915C40.9194 39.3938 40.8696 39.3773 41.3506 39.3773C41.5497 39.3773 41.7487 39.3773 41.9477 39.3773C42.4785 39.3773 42.4785 39.3773 42.5283 38.8655C42.5449 38.8324 42.578 38.8159 42.6112 38.7829ZM24.9795 46.2786C24.9795 47.6325 24.9795 49.0028 24.9795 50.3567C24.9795 50.6374 24.9795 50.6374 25.2615 50.6374C25.643 50.6374 26.0245 50.6374 26.4226 50.6374C26.7211 50.6374 26.7211 50.6374 26.7211 50.3237C26.7211 49.4651 26.7211 48.6066 26.7211 47.748C26.7211 47.2032 26.6548 47.2692 27.2021 47.2692C28.0647 47.2692 28.9272 47.2692 29.7897 47.2692C30.0717 47.2692 30.0716 47.2692 30.0882 46.9886C30.0882 46.6749 30.0882 46.3612 30.0882 46.031C30.0882 45.7008 30.0882 45.7008 29.7731 45.7008C28.8774 45.7008 27.9983 45.7008 27.1026 45.7008C26.7045 45.7008 26.7045 45.7008 26.7045 45.288C26.7045 44.8587 26.7045 44.4129 26.7045 43.9837C26.7045 43.5214 26.6714 43.5709 27.1026 43.5709C28.0978 43.5709 29.093 43.5709 30.0882 43.5709C30.5029 43.5709 30.5029 43.637 30.5029 43.1747C30.5029 42.8775 30.5029 42.5968 30.5029 42.2996C30.5029 41.9694 30.5029 41.9694 30.1546 41.9694C28.5457 41.9694 26.9533 41.9694 25.3444 41.9694C24.9961 41.9694 24.9961 41.9694 24.9961 42.3161C24.9795 43.637 24.9795 44.9578 24.9795 46.2786ZM49.5279 36.7851C49.8762 36.7851 50.1914 36.7851 50.5065 36.7851C51.5183 36.7851 52.5301 36.7851 53.5253 36.7851C53.8238 36.7851 53.8238 36.7851 53.8404 36.4714C53.857 36.0917 53.8238 35.7285 53.7409 35.3652C53.575 34.6058 53.2101 33.9454 52.4969 33.5491C50.7387 32.575 48.4995 33.3345 47.9521 35.4313C47.8692 35.7285 47.8526 36.0257 47.8526 36.3394C47.8526 38.4857 49.6108 39.9056 51.7173 39.4433C52.5633 39.2617 53.2101 38.7829 53.5916 37.9904C53.7741 37.6272 53.7575 37.6107 53.3926 37.5116C53.1438 37.4456 52.9116 37.3795 52.6628 37.297C52.4471 37.2144 52.3476 37.2309 52.2315 37.4621C51.9164 38.0234 51.2861 38.2546 50.6226 38.0895C50.0089 37.9409 49.6108 37.4951 49.5279 36.7851ZM34.7159 41.7548C35.1804 41.7548 35.6282 41.7383 36.076 41.7548C36.3083 41.7713 36.4244 41.6722 36.5239 41.4741C37.685 38.8655 38.8626 36.2733 40.0403 33.6812C40.09 33.5821 40.1564 33.4996 40.09 33.351C39.6588 33.351 39.2275 33.3675 38.7963 33.351C38.5143 33.3345 38.3816 33.417 38.2655 33.6812C37.9006 34.6058 37.4859 35.5304 37.1044 36.4549C37.0547 36.554 37.0381 36.6696 36.9551 36.7521C36.839 36.6696 36.8224 36.554 36.7727 36.4384C36.3414 35.4973 35.9102 34.5728 35.4955 33.6317C35.4458 33.5161 35.4126 33.3345 35.2135 33.351C34.6662 33.351 34.1354 33.351 33.588 33.351C33.5549 33.5491 33.6544 33.6647 33.7207 33.7803C34.4505 35.2827 35.1638 36.7686 35.9102 38.2546C36.0429 38.5022 36.0263 38.7003 35.9102 38.948C35.5287 39.7405 35.1804 40.533 34.832 41.3255C34.7657 41.4411 34.6828 41.5566 34.7159 41.7548ZM41.3009 44.446C40.5213 44.4295 39.891 44.6441 39.3934 45.1889C38.5641 46.1135 38.8294 47.4343 39.9408 47.9792C40.2061 48.1113 40.4881 48.1773 40.7701 48.2434C41.0521 48.3094 41.334 48.3589 41.616 48.458C41.9312 48.5571 42.097 48.7882 42.0639 49.0359C42.0307 49.3 41.8316 49.4816 41.5331 49.5477C40.9857 49.6633 40.3554 49.4321 40.2061 48.8377C40.173 48.7056 40.1232 48.6726 39.9905 48.7056C39.6422 48.7882 39.2939 48.8542 38.9456 48.9368C38.7963 48.9698 38.7631 49.0359 38.8129 49.1844C38.9787 49.8284 39.3768 50.2741 39.9573 50.5713C40.372 50.786 40.8199 50.8355 41.2677 50.852C41.7985 50.852 42.3292 50.7694 42.7771 50.4557C43.3742 50.0595 43.6728 49.4816 43.6396 48.7717C43.6064 48.0617 43.2249 47.5664 42.5946 47.2527C42.3624 47.1372 42.097 47.0546 41.8482 47.0051C41.5331 46.939 41.2179 46.873 40.9194 46.807C40.6042 46.7244 40.4384 46.5428 40.4384 46.2951C40.4384 46.031 40.654 45.7998 40.9691 45.7338C41.4999 45.6347 41.9643 45.7998 42.1302 46.3116C42.1966 46.4933 42.2795 46.4933 42.4288 46.4602C42.7439 46.3777 43.0425 46.3116 43.3576 46.2456C43.5567 46.2126 43.5732 46.1135 43.5235 45.9484C43.3576 45.3871 43.0093 44.9743 42.4785 44.7266C42.097 44.512 41.6824 44.4295 41.3009 44.446ZM48.1346 49.2835C47.9356 49.2835 47.7697 49.2835 47.5872 49.2835C47.1394 49.267 46.9404 49.1019 46.9238 48.6726C46.9072 47.8801 46.9238 47.0876 46.9072 46.2951C46.9072 46.13 46.9735 46.064 47.1394 46.064C47.3882 46.064 47.637 46.064 47.9024 46.064C48.0683 46.064 48.1346 45.9979 48.1346 45.8328C48.118 45.5026 48.118 45.1724 48.1346 44.8422C48.1346 44.6606 48.0517 44.6111 47.9024 44.6276C47.6536 44.6276 47.4048 44.6276 47.1394 44.6276C46.9569 44.6276 46.9072 44.5615 46.9072 44.3964C46.9072 43.9672 46.9072 43.5214 46.9072 43.0921C46.9072 42.894 46.8574 42.7949 46.6418 42.8114C46.4428 42.8279 46.2437 42.8114 46.0447 42.8114C45.4144 42.8114 45.3978 42.8114 45.431 43.4388C45.4641 44.0992 45.2153 44.6771 44.3694 44.6276C44.2367 44.6276 44.1704 44.6771 44.187 44.8092C44.187 45.0238 44.187 45.2385 44.187 45.4366C44.187 46.064 44.187 46.064 44.8173 46.064C45.348 46.064 45.2817 46.031 45.2817 46.5263C45.2817 47.3518 45.2651 48.1608 45.2817 48.9863C45.2983 49.5807 45.5139 50.0925 46.0447 50.4227C46.6418 50.8025 47.3053 50.786 47.9687 50.6374C48.0683 50.6209 48.1346 50.5548 48.1346 50.4557C48.1346 50.0595 48.1346 49.6632 48.1346 49.2835ZM56.5938 34.0444C56.5109 33.8463 56.5441 33.6812 56.5441 33.5326C56.5441 33.384 56.4777 33.318 56.3284 33.3345C55.9635 33.3345 55.6152 33.3345 55.2503 33.3345C54.9352 33.3345 54.9352 33.3345 54.9186 33.6647C54.9186 34.903 54.9186 36.1412 54.9186 37.396C54.9186 37.9574 54.9186 38.5352 54.9186 39.0966C54.9186 39.2947 54.9683 39.3773 55.184 39.3773C55.5157 39.3608 55.8474 39.3773 56.1792 39.3773C56.5772 39.3773 56.5772 39.4103 56.5772 38.9975C56.5772 38.2381 56.5772 37.4621 56.5772 36.7026C56.5772 36.4549 56.5938 36.2073 56.6602 35.9596C56.8095 35.3818 57.2407 35.002 57.8378 34.9525C58.0369 34.936 58.2359 34.936 58.435 34.9525C58.5676 34.9525 58.634 34.936 58.634 34.7874C58.634 34.3581 58.634 33.9123 58.634 33.4831C58.634 33.3675 58.5842 33.318 58.4681 33.3014C57.8544 33.2684 57.2739 33.3675 56.8095 33.8133C56.7597 33.8628 56.6934 33.9454 56.5938 34.0444ZM36.2087 45.321C36.2087 45.1559 36.2087 45.0073 36.2087 44.8587C36.2253 44.6936 36.159 44.6276 35.9765 44.6276C35.6282 44.6441 35.2799 44.6276 34.9481 44.6276C34.6164 44.6276 34.6164 44.6276 34.6164 44.9743C34.6164 46.4767 34.6164 47.9792 34.6164 49.4816C34.6164 49.7953 34.6164 50.109 34.6164 50.4392C34.6164 50.5878 34.6662 50.6539 34.8155 50.6539C35.2301 50.6539 35.6448 50.6374 36.0429 50.6539C36.2253 50.6539 36.2585 50.5548 36.2585 50.4062C36.2585 49.7458 36.2585 49.0854 36.2585 48.425C36.2585 48.1113 36.2585 47.7976 36.2917 47.4839C36.3746 46.7079 36.8888 46.2456 37.6684 46.2126C37.8011 46.2126 37.9338 46.1961 38.0665 46.2126C38.2655 46.2456 38.3153 46.163 38.3153 45.9814C38.2987 45.6017 38.2987 45.222 38.3153 44.8257C38.3153 44.6606 38.2655 44.578 38.0996 44.578C37.4859 44.5615 36.9054 44.6606 36.4575 45.1229C36.3912 45.1889 36.358 45.288 36.2087 45.321ZM33.1734 47.6655C33.1734 46.7409 33.1734 45.8163 33.1734 44.8917C33.1734 44.6936 33.1236 44.6111 32.908 44.6111C32.5431 44.6276 32.1616 44.6111 31.7967 44.6111C31.5147 44.6111 31.5147 44.6111 31.5147 44.8917C31.5147 46.0475 31.5147 47.2197 31.5147 48.3754C31.5147 49.0359 31.5147 49.6963 31.5147 50.3567C31.5147 50.5548 31.5645 50.6374 31.7801 50.6374C32.145 50.6209 32.5265 50.6374 32.8914 50.6374C33.1734 50.6374 33.1734 50.6374 33.1734 50.3567C33.1734 49.4651 33.1734 48.5736 33.1734 47.6655ZM32.3274 43.6535C32.8914 43.6535 33.3392 43.2077 33.3392 42.6628C33.3392 42.085 32.8748 41.6227 32.3109 41.6227C31.7635 41.6392 31.3157 42.1015 31.3157 42.6463C31.3157 43.2077 31.7801 43.6535 32.3274 43.6535Z" fill="#114294"/>
<path d="M75.3203 34.9856C75.8676 37.5447 76.0999 40.1368 75.9837 42.762C75.7847 47.3354 74.7066 51.6776 72.7327 55.8052C70.5931 60.2795 67.6075 64.1264 63.7759 67.2799C61.2381 69.3768 58.4848 71.1599 55.5157 72.6128C52.3974 74.1483 49.0801 75.1224 45.63 75.6177C43.0425 75.9809 40.455 76.0304 37.8509 75.7828C30.8513 75.0893 24.6644 72.4642 19.3235 67.9073C17.2833 66.1572 15.5417 64.143 13.9826 61.9471C11.9424 59.0578 10.2008 55.9868 9.00654 52.6517C8.12744 50.2082 7.56349 47.6986 7.28152 45.1065C7.08248 43.2903 7.04931 41.4742 7.14883 39.6415C7.16541 39.2618 7.19859 38.882 7.24835 38.5023C7.26493 38.3702 7.23176 38.2051 7.38104 38.1061C7.51373 38.2381 7.44739 38.3867 7.46397 38.5188C7.53032 42.0851 8.0611 45.5853 9.17241 48.9864C10.2671 52.338 11.8429 55.442 13.8665 58.3313C15.1768 60.2135 16.5535 62.0296 18.1624 63.6807C22.1266 67.6927 26.8041 70.4829 32.2445 72.0349C35.5785 72.9925 38.9622 73.3723 42.4288 73.2072C47.0731 73.009 51.452 71.8368 55.5655 69.707C58.5179 68.1715 61.3377 66.4049 63.8257 64.176C66.2971 61.9801 68.4202 59.5035 70.1618 56.6968C72.2683 53.3286 73.728 49.6964 74.5905 45.8329C75.0051 44.0003 75.2539 42.1511 75.37 40.2689C75.4696 38.5849 75.4364 36.9173 75.3203 35.2498C75.3203 35.1672 75.3203 35.0847 75.3203 34.9856Z" fill="#134395"/>
<path d="M47.6868 12.1353C49.6274 12.3664 51.6012 12.8452 53.4755 13.5882C61.2713 16.7086 66.6786 22.1736 69.6974 29.9665C70.5101 32.0468 71.0409 34.2262 71.3063 36.4386C71.5053 38.0731 71.5717 39.6911 71.4887 41.3421C71.2068 47.0547 69.3325 52.206 65.9654 56.8124C63.2285 60.5272 59.7287 63.334 55.5157 65.2492C55.2006 65.3978 54.8688 65.5299 54.5371 65.6454C61.2879 61.4518 65.8492 55.5411 67.9392 47.9133C70.0457 40.2359 69.0505 32.8393 65.0863 25.9379C61.122 19.0366 55.1674 14.5293 47.6868 12.1353Z" fill="#134395"/>
<path d="M17.0015 16.1472C17.864 15.0906 18.7762 14.0834 19.7714 13.1423C23.802 9.39447 28.4961 6.88489 33.837 5.53104C36.9885 4.73854 40.1731 4.40833 43.4241 4.60646C51.6843 5.10177 58.8498 8.15619 64.7878 13.9348C66.9773 16.0647 68.7852 18.5247 70.1951 21.2324C70.2449 21.3315 70.2946 21.4471 70.3444 21.5461C70.361 21.5626 70.3444 21.5957 70.3278 21.6452C70.1619 21.6122 70.1122 21.4636 70.0292 21.3645C68.072 18.9705 65.8826 16.8076 63.4277 14.9089C59.5796 11.9041 55.2836 9.79072 50.573 8.50291C48.3504 7.89203 46.078 7.51229 43.7724 7.34718C36.607 6.85187 29.9059 8.37083 23.603 11.772C21.3969 12.9607 19.3236 14.3641 17.3664 15.9326C17.2669 16.0317 17.1839 16.1802 17.0015 16.1472Z" fill="#134395"/>
<path d="M34.6829 0.181549C29.8064 1.33728 25.2119 3.20295 20.9657 5.89415C13.8831 10.4015 8.67491 16.5103 5.25805 24.1546C3.815 27.3907 2.85297 30.7588 2.28902 34.259C1.79142 37.3299 1.67531 40.4009 1.89094 43.4883C2.3222 49.8778 4.16332 55.8711 7.23187 61.4846C7.29821 61.6167 7.38115 61.7653 7.41432 61.9304C7.29822 61.7818 7.18211 61.6332 7.08259 61.4846C4.34578 57.6212 2.4383 53.3946 1.29382 48.8047C0.663523 46.2951 0.282028 43.736 0.165921 41.1438C-0.198987 32.9052 1.79142 25.2773 6.17032 18.2935C11.4449 9.88966 18.8758 4.25962 28.4131 1.3703C30.2874 0.808944 32.2115 0.429205 34.1687 0.165039C34.3014 0.165039 34.5005 0.181549 34.6829 0.181549Z" fill="#134395"/>
<path d="M13.9329 31.8816C12.1581 45.7338 16.8521 56.9609 28.0979 65.4802C13.8333 60.3455 8.17725 43.5049 13.9329 31.8816Z" fill="#134395"/>
<path d="M61.5036 4.8046L61.487 4.82111L61.4705 4.8046C61.487 4.8046 61.487 4.78809 61.5036 4.78809C61.487 4.77158 61.487 4.78809 61.5036 4.8046Z" fill="#134395"/>
<path d="M17.0181 16.1472V16.1637L17.0015 16.1472H17.0181Z" fill="#134395"/>
<path d="M70.4106 21.7442C70.4106 21.7607 70.394 21.7607 70.394 21.7772C70.3774 21.7607 70.3608 21.7607 70.3608 21.7442C70.3774 21.7277 70.3774 21.7277 70.394 21.7112C70.394 21.7277 70.4106 21.7442 70.4106 21.7442Z" fill="#134395"/>
<path d="M7.56346 62.1452L7.54688 62.1287H7.56346V62.1452Z" fill="#134395"/>
<path d="M28.9604 30.4946C29.7068 30.4781 30.4034 30.6267 31.0669 30.9734C31.9294 31.4357 32.5265 32.1457 32.8417 33.0703C32.9412 33.3509 32.9246 33.3509 32.6426 33.45C32.2777 33.5656 31.9128 33.6811 31.5479 33.7967C31.3986 33.8463 31.3157 33.8297 31.2493 33.6646C30.7517 32.5254 29.9887 32.0631 28.7613 32.1292C27.6666 32.1952 26.7709 32.8721 26.4392 33.9288C26.1572 34.8039 26.1904 35.6789 26.6382 36.5044C27.169 37.4785 28.0481 37.9078 29.1428 37.8583C30.1546 37.8087 30.8844 37.3134 31.2991 36.3723C31.4152 36.1082 31.4152 36.1082 31.6972 36.1742C32.0455 36.2733 32.4104 36.3889 32.7587 36.4879C33.0075 36.5705 33.0075 36.5705 32.9246 36.8181C32.4933 38.0234 31.6972 38.8654 30.4697 39.2782C28.5457 39.9386 26.3728 39.2617 25.2781 37.6602C24.6312 36.7191 24.4322 35.6624 24.5151 34.5397C24.598 33.483 24.9961 32.5419 25.7591 31.7825C26.5885 30.9404 27.6998 30.4946 28.9604 30.4946Z" fill="#FEFEFF"/>
<path d="M42.6113 38.7827C42.5781 38.8157 42.5615 38.8488 42.545 38.8653C42.4952 39.3771 42.4952 39.3771 41.9644 39.3771C41.7654 39.3771 41.5663 39.3771 41.3673 39.3771C40.8697 39.3771 40.936 39.4101 40.936 38.9148C40.936 36.2566 40.936 33.615 40.936 30.9568C40.936 30.9073 40.936 30.8577 40.936 30.7917C40.936 30.4945 40.936 30.4945 41.2512 30.4945C41.5663 30.4945 41.8815 30.4945 42.2132 30.4945C42.6113 30.4945 42.5781 30.478 42.5781 30.8577C42.5781 31.7328 42.5781 32.5913 42.5781 33.4664C42.5781 33.5984 42.5781 33.714 42.5781 33.9287C43.1587 33.3343 43.8055 33.1527 44.5354 33.1857C45.6467 33.2352 46.4428 33.7636 46.8907 34.7872C47.3219 35.8108 47.3219 36.851 46.8907 37.8581C46.2604 39.3276 44.751 39.7403 43.5733 39.3936C43.1753 39.278 42.8767 39.0634 42.6113 38.7827ZM45.514 36.2401C45.514 36.2236 45.514 36.1245 45.4974 36.009C45.3979 35.233 44.8671 34.6881 44.1373 34.6386C43.4075 34.5891 42.7938 35.0183 42.5947 35.7448C42.4786 36.1576 42.4786 36.5703 42.6113 36.9831C42.8269 37.66 43.3743 38.0563 44.0709 38.0232C44.7344 38.0067 45.2486 37.5775 45.431 36.9005C45.4974 36.7189 45.5306 36.5208 45.514 36.2401Z" fill="#FEFEFF"/>
<path d="M24.9797 46.2787C24.9797 44.9579 24.9797 43.637 24.9797 42.3162C24.9797 41.9695 24.9797 41.9695 25.328 41.9695C26.937 41.9695 28.5293 41.9695 30.1382 41.9695C30.4865 41.9695 30.4865 41.9695 30.4865 42.2997C30.4865 42.5969 30.4865 42.8776 30.4865 43.1747C30.4865 43.637 30.4865 43.571 30.0718 43.571C29.0766 43.571 28.0814 43.571 27.0862 43.571C26.655 43.571 26.6882 43.5215 26.6882 43.9838C26.6882 44.413 26.6882 44.8588 26.6882 45.2881C26.6882 45.7008 26.6882 45.7008 27.0862 45.7008C27.9819 45.7008 28.861 45.7008 29.7567 45.7008C30.0718 45.7008 30.0718 45.7008 30.0718 46.031C30.0718 46.3447 30.0718 46.6584 30.0718 46.9886C30.0718 47.2693 30.0718 47.2693 29.7733 47.2693C28.9108 47.2693 28.0483 47.2693 27.1858 47.2693C26.6218 47.2693 26.7047 47.2033 26.7047 47.7481C26.7047 48.6067 26.7047 49.4652 26.7047 50.3237C26.7047 50.6209 26.7047 50.6374 26.4062 50.6374C26.0247 50.6374 25.6432 50.6374 25.2451 50.6374C24.9631 50.6374 24.9631 50.6374 24.9631 50.3568C24.9797 49.0029 24.9797 47.6491 24.9797 46.2787Z" fill="#FEFEFF"/>
<path d="M49.5281 36.7853C49.611 37.4952 50.0091 37.941 50.656 38.1061C51.3194 38.2712 51.9663 38.0401 52.2649 37.4787C52.381 37.2641 52.4971 37.2476 52.6961 37.3136C52.9283 37.3961 53.1771 37.4622 53.4259 37.5282C53.7908 37.6438 53.8074 37.6438 53.625 38.007C53.2435 38.7995 52.6132 39.2783 51.7507 39.4599C49.6442 39.9222 47.886 38.5023 47.886 36.356C47.886 36.0588 47.9026 35.7451 47.9855 35.4479C48.5329 33.3346 50.7721 32.5751 52.5303 33.5657C53.2269 33.962 53.6084 34.6059 53.7743 35.3819C53.8572 35.7451 53.8904 36.1083 53.8738 36.4881C53.8572 36.7853 53.8572 36.8018 53.5586 36.8018C52.5468 36.8018 51.5351 36.8018 50.5399 36.8018C50.1915 36.7853 49.8764 36.7853 49.5281 36.7853ZM49.5612 35.646C50.4072 35.646 51.2199 35.646 52.0492 35.646C52.1985 35.646 52.2151 35.5635 52.1985 35.4479C52.1488 35.1672 52.0161 34.9361 51.7839 34.7545C51.3526 34.4243 50.6062 34.3913 50.1418 34.6884C49.81 34.9031 49.5944 35.2168 49.5612 35.646Z" fill="#FEFEFF"/>
<path d="M34.716 41.7549C34.6829 41.5567 34.7824 41.4577 34.8321 41.3421C35.197 40.5496 35.5454 39.7571 35.9103 38.9646C36.0264 38.717 36.0264 38.5188 35.9103 38.2712C35.1639 36.7852 34.4506 35.2828 33.7208 33.7969C33.6545 33.6648 33.555 33.5492 33.5881 33.3676C34.1355 33.3676 34.6663 33.3676 35.2136 33.3676C35.4127 33.3676 35.4293 33.5327 35.4956 33.6483C35.9269 34.5894 36.3581 35.5139 36.7728 36.455C36.8225 36.5541 36.8391 36.6862 36.9552 36.7687C37.0382 36.6862 37.0714 36.5706 37.1045 36.4715C37.5026 35.547 37.9007 34.6224 38.2656 33.6978C38.3817 33.4171 38.5144 33.3511 38.7964 33.3676C39.2276 33.3841 39.6755 33.3676 40.0901 33.3676C40.1565 33.5162 40.0736 33.5987 40.0404 33.6978C38.8627 36.2899 37.6851 38.8986 36.524 41.4907C36.4245 41.7053 36.3084 41.7879 36.0761 41.7714C35.6283 41.7384 35.1805 41.7549 34.716 41.7549Z" fill="#FEFEFF"/>
<path d="M41.301 44.4461C41.6825 44.4296 42.0972 44.5122 42.4787 44.7103C43.0094 44.9745 43.3578 45.3707 43.5236 45.9321C43.5734 46.0972 43.5568 46.1962 43.3578 46.2293C43.0426 46.2788 42.744 46.3613 42.4289 46.4439C42.2796 46.4769 42.1967 46.4769 42.1303 46.2953C41.9645 45.8 41.5 45.6184 40.9693 45.7174C40.6541 45.767 40.4385 46.0146 40.4385 46.2788C40.4385 46.5264 40.5878 46.7081 40.9195 46.7906C41.2181 46.8732 41.5332 46.9227 41.8484 46.9887C42.1138 47.0383 42.3625 47.1208 42.5948 47.2364C43.2251 47.5501 43.6066 48.0454 43.6397 48.7554C43.6729 49.4653 43.3743 50.0267 42.7772 50.4394C42.3128 50.7531 41.7986 50.8357 41.2678 50.8357C40.82 50.8357 40.3721 50.7696 39.9575 50.555C39.3769 50.2578 38.9789 49.812 38.813 49.1681C38.7798 49.0195 38.813 48.937 38.9457 48.9205C39.294 48.8379 39.6423 48.7719 39.9906 48.6893C40.1233 48.6563 40.1897 48.7058 40.2063 48.8214C40.339 49.4158 40.9859 49.6469 41.5332 49.5313C41.8484 49.4653 42.0474 49.2837 42.064 49.0195C42.0972 48.7719 41.9313 48.5407 41.6161 48.4417C41.3342 48.3591 41.0522 48.3096 40.7702 48.227C40.4883 48.161 40.2063 48.0949 39.9409 47.9629C38.8296 47.418 38.5642 46.0972 39.3935 45.1726C39.8911 44.6443 40.538 44.4296 41.301 44.4461Z" fill="#FEFEFF"/>
<path d="M48.1346 49.2834C48.1346 49.6632 48.1346 50.0594 48.1346 50.4557C48.1346 50.5712 48.0683 50.6208 47.9688 50.6373C47.3053 50.7859 46.6418 50.8024 46.0447 50.4226C45.5139 50.0924 45.2983 49.5806 45.2817 48.9862C45.2651 48.1607 45.2817 47.3517 45.2817 46.5262C45.2817 46.0144 45.3481 46.0639 44.8173 46.0639C44.187 46.0639 44.187 46.0639 44.187 45.4365C44.187 45.2219 44.187 45.0072 44.187 44.8091C44.187 44.677 44.2368 44.611 44.3695 44.6275C45.2154 44.677 45.4642 44.0992 45.431 43.4387C45.4144 42.8113 45.431 42.8113 46.0447 42.8113C46.2438 42.8113 46.4428 42.8279 46.6418 42.8113C46.8575 42.7948 46.9072 42.8939 46.9072 43.092C46.9072 43.5213 46.9072 43.9671 46.9072 44.3963C46.9072 44.5615 46.957 44.6275 47.1394 44.6275C47.3882 44.611 47.637 44.6275 47.9024 44.6275C48.0683 44.6275 48.1512 44.677 48.1346 44.8421C48.1181 45.1723 48.1181 45.5025 48.1346 45.8328C48.1346 45.9979 48.0849 46.0804 47.9024 46.0639C47.6536 46.0639 47.4048 46.0639 47.1394 46.0639C46.9736 46.0639 46.8906 46.1134 46.9072 46.295C46.9072 47.0875 46.9072 47.88 46.9238 48.6725C46.9404 49.1018 47.1394 49.2669 47.5873 49.2834C47.7531 49.2834 47.919 49.2834 48.1346 49.2834Z" fill="#FEFEFF"/>
<path d="M56.594 34.0444C56.6935 33.9453 56.7598 33.8627 56.8262 33.7967C57.2906 33.3509 57.8712 33.2519 58.4849 33.2849C58.601 33.2849 58.6507 33.3509 58.6507 33.4665C58.6507 33.8958 58.6507 34.3415 58.6507 34.7708C58.6507 34.9194 58.5844 34.9359 58.4517 34.9359C58.2526 34.9194 58.0536 34.9194 57.8546 34.9359C57.2574 34.9854 56.8262 35.3652 56.6769 35.9431C56.6106 36.1907 56.594 36.4384 56.594 36.686C56.594 37.4455 56.594 38.2215 56.594 38.981C56.594 39.3937 56.594 39.3607 56.1959 39.3607C55.8642 39.3607 55.5324 39.3442 55.2007 39.3607C54.9851 39.3772 54.9353 39.2782 54.9353 39.08C54.9519 38.5187 54.9353 37.9408 54.9353 37.3795C54.9353 36.1412 54.9353 34.9029 54.9353 33.6481C54.9353 33.3179 54.9353 33.3179 55.267 33.3179C55.6319 33.3179 55.9803 33.3179 56.3452 33.3179C56.4945 33.3179 56.5608 33.3674 56.5608 33.516C56.5442 33.6976 56.511 33.8462 56.594 34.0444Z" fill="#FEFEFF"/>
<path d="M36.2088 45.321C36.3581 45.288 36.3912 45.1889 36.4576 45.1229C36.9054 44.6606 37.486 44.545 38.0997 44.578C38.2655 44.578 38.3319 44.6606 38.3153 44.8257C38.2987 45.2054 38.2987 45.5851 38.3153 45.9814C38.3153 46.163 38.2821 46.2456 38.0665 46.2125C37.9338 46.196 37.8011 46.196 37.6684 46.2125C36.8888 46.2456 36.3747 46.7079 36.2917 47.4838C36.2585 47.7975 36.2585 48.1112 36.2585 48.4249C36.2585 49.0853 36.2585 49.7458 36.2585 50.4062C36.2585 50.5548 36.242 50.6538 36.0429 50.6538C35.6282 50.6373 35.2136 50.6538 34.8155 50.6538C34.6496 50.6538 34.6165 50.5878 34.6165 50.4392C34.6165 50.1255 34.6165 49.8118 34.6165 49.4816C34.6165 47.9792 34.6165 46.4767 34.6165 44.9743C34.6165 44.6275 34.6165 44.6275 34.9482 44.6275C35.2965 44.6275 35.6448 44.6275 35.9766 44.6275C36.159 44.6275 36.2088 44.6936 36.2088 44.8587C36.1922 45.0073 36.2088 45.1394 36.2088 45.321Z" fill="#FEFEFF"/>
<path d="M33.1736 47.6655C33.1736 48.5571 33.1736 49.4651 33.1736 50.3567C33.1736 50.6374 33.1736 50.6374 32.8916 50.6374C32.5267 50.6374 32.1452 50.6208 31.7803 50.6374C31.5647 50.6539 31.5149 50.5548 31.5149 50.3567C31.5315 49.6963 31.5149 49.0359 31.5149 48.3754C31.5149 47.2197 31.5149 46.0475 31.5149 44.8918C31.5149 44.6111 31.5149 44.6111 31.7969 44.6111C32.1618 44.6111 32.5433 44.6276 32.9082 44.6111C33.1238 44.6111 33.1736 44.6936 33.1736 44.8918C33.1736 45.8163 33.1736 46.7409 33.1736 47.6655Z" fill="#FEFEFF"/>
<path d="M32.3275 43.6535C31.7801 43.6535 31.3157 43.2077 31.3157 42.6464C31.3157 42.1015 31.7635 41.6392 32.3109 41.6227C32.8748 41.6062 33.3393 42.085 33.3393 42.6629C33.3393 43.2077 32.8914 43.6535 32.3275 43.6535Z" fill="#FEFEFF"/>
<path d="M45.5139 36.2405C45.5139 36.5377 45.4973 36.7193 45.4476 36.9174C45.2651 37.5943 44.7675 38.0236 44.0875 38.0401C43.3908 38.0566 42.8434 37.6769 42.6278 37C42.4951 36.5872 42.4951 36.1744 42.6112 35.7617C42.8103 35.0352 43.4074 34.6059 44.1538 34.6555C44.867 34.705 45.4144 35.2333 45.5139 36.0258C45.5139 36.1084 45.5139 36.224 45.5139 36.2405Z" fill="#134395"/>
<path d="M49.561 35.646C49.5942 35.2003 49.7932 34.9031 50.1416 34.6884C50.6226 34.3747 51.3524 34.4078 51.7836 34.7545C52.0159 34.9361 52.1486 35.1672 52.1983 35.4479C52.2149 35.5635 52.1983 35.646 52.049 35.646C51.2363 35.646 50.4235 35.646 49.561 35.646Z" fill="#134395"/>
</svg>
