<svg width="219" height="72" viewBox="0 0 219 72" fill="none" xmlns="http://www.w3.org/2000/svg">
<path d="M35.3284 53.6221C21.1993 53.6221 9.31934 42.1092 9.31934 27.9722C9.31934 13.8352 21.1993 2.32227 35.3284 2.32227C43.1442 2.32227 48.7107 5.38948 52.8965 9.39077L47.9595 14.3348C44.9591 11.5196 40.895 9.32995 35.3284 9.32995C25.0116 9.32995 16.9484 17.6497 16.9484 27.9722C16.9484 38.2947 25.016 46.6145 35.3284 46.6145C42.0196 46.6145 45.8319 43.9252 48.2722 41.4836C50.2739 39.4808 51.5852 36.5743 52.0845 32.6339H35.3718V25.6826H58.8799C59.1317 26.9339 59.2533 28.4067 59.2533 30.0358C59.2533 35.2927 57.8378 41.7964 53.2134 46.4276C48.7107 51.1197 42.9575 53.6221 35.3284 53.6221Z" fill="#0081C6"/>
<path d="M94.8368 37.1057C94.8368 46.6158 87.4379 53.6191 78.3586 53.6191C69.2793 53.6191 61.8804 46.6115 61.8804 37.1057C61.8804 27.5347 69.2793 20.5879 78.3586 20.5879C87.4379 20.5879 94.8368 27.5347 94.8368 37.1057ZM87.6246 37.1057C87.6246 31.1624 83.3346 27.096 78.3586 27.096C73.3825 27.096 69.0926 31.1624 69.0926 37.1057C69.0926 42.9881 73.3825 47.1154 78.3586 47.1154C83.3346 47.1154 87.6246 42.9881 87.6246 37.1057Z" fill="#F04931"/>
<path d="M130.442 37.1057C130.442 46.6158 123.043 53.6191 113.964 53.6191C104.884 53.6191 97.4854 46.6115 97.4854 37.1057C97.4854 27.5347 104.884 20.5879 113.964 20.5879C123.043 20.5879 130.442 27.5347 130.442 37.1057ZM123.23 37.1057C123.23 31.1624 118.94 27.096 113.964 27.096C108.988 27.096 104.698 31.1624 104.698 37.1057C104.698 42.9881 108.988 47.1154 113.964 47.1154C118.94 47.1154 123.23 42.9881 123.23 37.1057Z" fill="#FBAB18"/>
<path d="M164.749 21.55V51.2403C164.749 63.4397 157.558 68.4445 149.056 68.4445C141.054 68.4445 136.239 63.066 134.424 58.6868L140.737 56.0583C141.862 58.7476 144.614 61.9408 149.052 61.9408C154.493 61.9408 157.866 58.5608 157.866 52.2439V49.8674H157.615C155.991 51.8702 152.864 53.6211 148.922 53.6211C140.667 53.6211 133.104 46.4266 133.104 37.1685C133.104 27.8452 140.667 20.5898 148.922 20.5898C152.86 20.5898 155.986 22.3407 157.615 24.2827H157.866V21.5543H164.749V21.55ZM158.37 37.1685C158.37 31.3512 154.493 27.0979 149.556 27.0979C144.554 27.0979 140.363 31.3512 140.363 37.1685C140.363 42.9249 144.554 47.1174 149.556 47.1174C154.497 47.113 158.37 42.9206 158.37 37.1685Z" fill="#0081C6"/>
<path d="M176.924 4.07422V52.6197H169.672V4.07422H176.924Z" fill="#00AE57"/>
<path d="M204.518 42.547L210.145 46.3006C208.33 48.9899 203.958 53.6211 196.389 53.6211C187.011 53.6211 180.007 46.3658 180.007 37.1076C180.007 27.2847 187.071 20.5898 195.578 20.5898C204.144 20.5898 208.335 27.4107 209.707 31.0992L210.458 32.976L188.387 42.1082C190.076 45.423 192.703 47.113 196.389 47.113C200.076 47.113 202.642 45.3014 204.518 42.547ZM187.197 36.6037L201.952 30.4736C201.14 28.4099 198.699 26.9719 195.825 26.9719C192.139 26.9676 187.011 30.2216 187.197 36.6037Z" fill="#F04931"/>
</svg>
