<svg width="198" height="81" viewBox="0 0 198 81" fill="none" xmlns="http://www.w3.org/2000/svg">
<path d="M198 11.5346C197.483 12.1525 196.759 12.4615 196.035 12.719C195.311 12.9764 194.69 13.2854 194.018 13.6458C192.984 14.2123 192.467 15.0877 192.467 16.3235C192.519 18.5378 192.467 20.752 192.467 22.9148C192.467 23.2752 192.467 23.6357 192.364 23.9446C192.105 25.129 191.122 25.7984 189.881 25.7469C188.795 25.6954 187.916 24.82 187.761 23.6872C187.71 23.4297 187.71 23.1722 187.71 22.9663C187.71 18.9497 187.761 14.8817 187.71 10.8652C187.658 8.85691 189.313 7.87852 191.174 8.39346C192.002 8.59944 192.364 9.21737 192.415 10.0928C194.277 7.56956 197.121 7.82703 197.897 9.83529C198 10.4017 198 10.9682 198 11.5346Z" fill="#0792D0"/>
<path d="M36.5078 0.720947C38.6796 1.54485 40.1792 2.93519 40.6963 5.25242C41.1617 7.56964 40.6963 9.6809 38.8864 11.3802C37.3868 12.7705 35.577 13.131 33.6637 12.5131C31.5952 11.8436 30.3542 10.2473 29.9405 8.18757C29.2166 4.78897 30.6644 2.36875 34.1808 0.720947C34.9564 0.720947 35.7321 0.720947 36.5078 0.720947Z" fill="#EE7F02"/>
<path d="M71.309 44.5938C71.309 61.6898 59.2087 76.3655 42.4027 79.6097C22.701 83.4202 3.46461 70.0833 0.465396 50.2581C-1.39619 38.054 2.32698 27.5493 11.6349 19.2072C14.0136 17.0445 16.806 15.4997 19.8052 14.2638C20.3223 14.0579 20.5291 14.0578 20.5808 14.7273C20.8394 17.5594 21.0979 20.3916 21.4082 23.1723C21.5116 23.8932 21.2531 24.2022 20.6843 24.5111C14.9961 28.0127 11.3763 32.9561 10.187 39.5989C7.39462 55.0985 18.047 68.178 31.802 70.1863C46.0225 72.2975 59.157 62.6681 61.2771 48.4043C62.3113 41.4011 61.0703 34.8099 56.468 29.0941C54.8133 27.0858 52.8483 25.3865 50.6247 24.0477C50.211 23.7902 49.9525 23.4812 49.8491 22.9148C49.5388 21.164 49.1251 19.3617 48.7631 17.6109C48.6597 17.096 48.7114 16.8385 49.3319 16.684C51.0384 16.3236 52.7448 15.8601 54.3996 15.4482C54.865 15.3452 55.227 15.4482 55.5889 15.6542C64.2246 21.1125 69.344 28.8881 70.8436 38.9809C71.1538 40.8347 71.309 42.6885 71.309 44.5938Z" fill="#EE7F02"/>
<path d="M106.627 15.6541C106.42 15.963 106.524 16.169 106.524 16.375C106.524 18.6922 106.524 21.0094 106.524 23.2752C106.524 24.2536 106.162 25.0775 105.231 25.4894C104.3 25.9014 103.37 25.8499 102.542 25.2319C101.973 24.82 101.766 24.2021 101.766 23.4811C101.766 17.4049 101.766 11.3286 101.766 5.25229C101.766 3.86195 102.801 2.93506 104.197 2.93506C105.645 2.93506 106.524 3.81046 106.524 5.30378C106.524 7.26055 106.524 9.16583 106.524 11.1226C106.524 11.3286 106.524 11.586 106.524 11.792C106.576 11.8435 106.627 11.8435 106.679 11.895C106.938 11.6375 107.196 11.3286 107.455 11.0711C109.73 8.65089 111.953 6.28217 114.229 3.86195C115.108 2.93506 116.039 2.72908 117.073 3.14103C118.366 3.65597 118.883 5.20079 118.107 6.38515C117.693 7.05457 117.125 7.56951 116.556 8.13595C114.849 9.83525 113.143 11.5345 111.385 13.1824C111.023 13.4913 111.074 13.6973 111.385 14.0063C113.712 16.375 115.987 18.7952 118.314 21.1639C118.779 21.6789 119.296 22.1938 119.503 22.8632C119.813 23.7901 119.503 24.717 118.779 25.2319C117.9 25.8499 116.607 25.9014 115.78 25.2319C114.746 24.408 113.97 23.3782 113.039 22.4513C110.868 20.237 108.747 17.9713 106.627 15.6541Z" fill="#0792D0"/>
<path d="M80.41 11.2772C80.41 9.32038 80.41 7.41511 80.41 5.45834C80.41 3.60456 81.9613 2.52318 83.7195 3.14111C84.6503 3.50157 85.1674 4.32547 85.1674 5.56133C85.1674 9.1659 85.1674 12.719 85.1674 16.3236C85.1674 17.9199 85.5811 19.3617 86.8221 20.4431C88.27 21.7304 90.0282 21.9879 91.7864 21.267C93.648 20.4946 94.6305 19.0012 94.7339 17.0445C94.8373 15.1392 94.7856 13.1824 94.7856 11.2257C94.7856 9.32038 94.7856 7.41511 94.7856 5.45834C94.7856 3.60456 96.3369 2.52318 98.0951 3.14111C98.9741 3.45007 99.543 4.27398 99.543 5.30386C99.543 9.2174 99.5947 13.1824 99.543 17.096C99.4395 21.5245 95.8198 25.3865 91.3727 25.8499C87.3393 26.2619 84.0815 24.9745 81.8062 21.5759C80.8237 20.1341 80.41 18.5378 80.41 16.787C80.41 14.9847 80.41 13.1309 80.41 11.2772Z" fill="#0792D0"/>
<path d="M133.931 26.0045C132.069 25.9015 130.259 25.747 128.553 25.0261C127.984 24.7686 127.467 24.5112 127.053 24.0477C126.277 23.2238 126.122 22.091 126.639 21.1641C127.105 20.2887 128.036 19.8767 129.173 20.1342C130.001 20.2887 130.828 20.6491 131.655 20.9066C132.896 21.3186 134.189 21.5245 135.482 21.0611C136.206 20.8036 136.723 20.3402 137.033 19.6192C137.499 18.4349 137.188 17.508 136.051 16.8901C135.016 16.3236 133.879 16.0662 132.793 15.7572C131.552 15.3967 130.363 15.0363 129.225 14.4184C127.105 13.234 126.226 11.3287 126.484 9.01149C126.846 5.5099 129.328 2.9867 132.845 2.47176C134.81 2.16279 136.723 2.42026 138.585 3.08969C139.05 3.24417 139.515 3.50164 139.929 3.8621C140.86 4.58301 141.067 5.61289 140.601 6.69426C140.188 7.67265 139.308 8.13609 138.119 7.93012C137.499 7.82713 136.878 7.56966 136.309 7.36369C135.327 7.05472 134.396 6.90024 133.362 7.15771C133 7.2607 132.689 7.41518 132.431 7.62115C131.448 8.39356 131.5 9.68091 132.534 10.3503C133.103 10.7108 133.724 10.9168 134.344 11.1227C135.534 11.4832 136.775 11.7922 137.912 12.2556C141.015 13.4915 142.463 15.4997 142.463 18.5379C142.463 21.576 140.756 24.1507 137.861 25.2836C137.24 25.5411 136.568 25.747 135.896 25.85C135.275 25.953 134.603 26.0045 133.931 26.0045Z" fill="#0792D0"/>
<path d="M79.7378 68.6929C79.7378 65.3973 80.4617 62.7196 82.3233 60.4023C84.8571 57.2612 88.2701 56.1798 92.2001 56.5403C93.4411 56.6433 94.6822 56.9008 95.8198 57.4672C96.9574 58.0336 97.8365 58.806 97.7331 60.1964C97.6814 61.5352 96.5955 62.4621 95.251 62.1531C94.3202 61.9472 93.4411 61.4837 92.562 61.2777C88.7872 60.4538 85.9431 62.2561 85.064 66.0152C84.6503 67.663 84.6503 69.3108 85.1157 70.9586C86.0982 74.5632 89.356 76.2625 92.9757 75.1296C93.5963 74.9236 94.2168 74.6147 94.7856 74.4087C96.0267 73.8938 97.0092 74.1512 97.6297 75.0266C98.3019 76.005 98.1985 77.2409 97.3194 78.1678C96.2852 79.1976 94.9924 79.5581 93.5962 79.8156C90.7522 80.3305 88.0115 80.176 85.426 78.7342C82.2199 76.9319 80.5135 74.0482 79.8412 70.4952C79.7378 69.8772 79.7378 69.1048 79.7378 68.6929Z" fill="#0792D0"/>
<path d="M155.287 10.0412C155.907 8.65089 156.683 8.13595 157.872 8.23894C158.907 8.34193 159.476 8.80537 159.734 9.83525C159.838 10.1957 159.838 10.6077 159.838 11.0196C159.838 14.9846 159.838 18.9497 159.838 22.9662C159.838 23.2237 159.838 23.4812 159.838 23.6871C159.734 24.8715 159.165 25.5409 158.234 25.7469C156.942 26.0044 156.114 25.5409 155.597 24.408C155.494 24.2021 155.442 23.7901 155.132 24.2021C152.65 26.9827 148.254 26.2618 145.979 23.9446C144.531 22.5028 143.756 20.752 143.445 18.7437C143.032 15.7056 143.549 12.8734 145.669 10.5562C147.582 8.39342 149.961 7.56952 152.805 8.34193C153.736 8.5994 154.563 9.21733 155.287 10.0412ZM147.892 17.0444C147.944 18.3318 148.254 19.5676 149.082 20.546C150.426 22.1423 152.908 22.0393 154.098 20.34C155.442 18.4862 155.442 15.4481 154.098 13.5943C152.908 11.998 150.685 11.8435 149.289 13.2339C148.254 14.3152 147.944 15.6541 147.892 17.0444Z" fill="#0792D0"/>
<path d="M107.765 72.8124C106.162 72.8124 104.559 72.8124 103.008 72.8124C102.542 72.8124 102.542 72.9669 102.594 73.3273C102.956 74.7692 104.3 75.8505 106.007 76.0565C107.455 76.2625 108.799 75.799 110.04 75.1296C110.506 74.8721 110.971 74.6147 111.488 74.4087C112.264 74.0997 113.039 74.3057 113.608 74.9751C114.177 75.6446 114.229 76.4685 113.815 77.1379C113.505 77.6528 113.039 78.0648 112.574 78.3737C109.937 80.0215 107.093 80.588 104.042 79.8156C100.577 78.9402 98.1467 76.005 97.8365 72.4004C97.5779 69.4653 98.3019 66.8906 100.319 64.7278C104.042 60.7628 110.35 61.5867 113.246 66.3756C114.022 67.663 114.487 69.0533 114.487 70.5982C114.487 72.143 113.867 72.7609 112.367 72.7609C110.764 72.8124 109.265 72.8124 107.765 72.8124ZM106.058 69.6713C107.093 69.6713 108.179 69.6713 109.213 69.6713C109.575 69.6713 109.73 69.5683 109.627 69.1563C109.316 67.4055 107.817 66.1697 106.058 66.1697C104.3 66.1697 102.801 67.4055 102.439 69.1048C102.335 69.5168 102.439 69.6713 102.852 69.6713C103.938 69.6713 105.024 69.6713 106.058 69.6713Z" fill="#0792D0"/>
<path d="M161.803 72.8124C160.251 72.8124 158.7 72.8639 157.149 72.8124C156.58 72.8124 156.58 73.0184 156.683 73.4304C157.097 74.8207 158.39 75.8506 160.044 76.0565C161.337 76.211 162.527 75.9536 163.664 75.3356C164.233 75.0267 164.802 74.7177 165.371 74.4602C166.25 74.0483 167.025 74.2543 167.646 75.0267C168.215 75.7476 168.266 76.623 167.749 77.3439C167.439 77.7558 167.077 78.1163 166.612 78.3738C163.871 80.0731 160.923 80.6395 157.769 79.7641C154.408 78.8372 152.133 75.8506 151.822 72.4005C151.616 70.0318 152.081 67.8175 153.425 65.8092C156.683 61.1233 163.25 61.0203 166.663 65.5518C167.801 67.0966 168.525 68.7959 168.473 70.7527C168.422 72.0915 167.853 72.7094 166.508 72.7094C164.957 72.8124 163.354 72.8124 161.803 72.8124ZM160.096 69.6713C161.182 69.6713 162.216 69.6713 163.302 69.6713C163.716 69.6713 163.768 69.5168 163.716 69.1564C163.354 67.4056 161.906 66.1697 160.148 66.1697C158.39 66.1697 156.89 67.4056 156.528 69.1564C156.425 69.5683 156.58 69.6713 156.993 69.6713C158.079 69.6713 159.062 69.6713 160.096 69.6713Z" fill="#0792D0"/>
<path d="M174.834 18.5892C175.04 20.34 176.385 21.5244 178.195 21.8333C179.436 22.0393 180.574 21.7818 181.659 21.2669C182.332 20.9579 182.952 20.546 183.624 20.237C184.452 19.8766 185.279 20.0826 185.848 20.8035C186.417 21.5244 186.469 22.3483 186.003 23.0692C185.693 23.5326 185.331 23.8416 184.917 24.1506C182.125 25.9014 179.177 26.5193 175.971 25.5924C173.127 24.7685 171.266 22.8117 170.438 19.9796C169.507 16.7869 169.973 13.8003 172.041 11.1741C175.299 7.05458 181.246 7.00309 184.659 11.0711C185.951 12.6159 186.727 14.4182 186.779 16.478C186.779 17.9713 186.158 18.5892 184.659 18.5892C181.608 18.5892 178.557 18.5892 175.558 18.5892C175.299 18.5892 175.04 18.5892 174.834 18.5892ZM178.247 15.4481C179.332 15.4481 180.418 15.4481 181.504 15.4481C181.918 15.4481 182.021 15.3451 181.918 14.9332C181.556 13.1309 180.108 11.895 178.298 11.895C176.54 11.895 175.04 13.2339 174.678 15.0361C174.627 15.3966 174.73 15.4481 175.04 15.4481C176.178 15.4481 177.212 15.4481 178.247 15.4481Z" fill="#0792D0"/>
<path d="M168.525 45.6751C166.922 45.6751 165.319 45.6751 163.664 45.6751C163.199 45.6751 163.147 45.8296 163.25 46.2416C163.716 47.8379 165.164 48.8678 167.025 49.0222C168.215 49.1252 169.301 48.7648 170.335 48.1983C170.904 47.8894 171.472 47.5804 172.041 47.3229C172.869 46.9625 173.644 47.1685 174.213 47.9409C174.782 48.6103 174.834 49.4342 174.317 50.1551C174.058 50.6186 173.644 50.979 173.231 51.2365C170.18 53.1418 166.87 53.7597 163.457 52.4208C159.993 51.0305 158.441 48.1468 158.286 44.5423C158.131 40.7317 160.303 37.1271 163.561 35.7883C167.801 34.0375 172.61 36.2002 174.368 40.6802C174.782 41.6586 174.989 42.6885 174.989 43.7699C174.937 45.1087 174.368 45.6751 173.024 45.7266C171.628 45.6751 170.076 45.6751 168.525 45.6751ZM166.767 42.534C167.853 42.534 168.939 42.534 170.076 42.534C170.438 42.534 170.49 42.431 170.387 42.122C169.973 40.2168 168.628 39.0839 166.818 39.0839C165.009 39.0839 163.612 40.2683 163.199 42.122C163.095 42.4825 163.199 42.5855 163.561 42.5855C164.647 42.534 165.681 42.534 166.767 42.534Z" fill="#0792D0"/>
<path d="M123.433 45.6751C121.83 45.6751 120.227 45.6751 118.572 45.6751C118.107 45.6751 118.004 45.7781 118.159 46.2416C118.624 47.8379 120.02 48.8678 121.882 49.0222C123.071 49.1252 124.157 48.7648 125.191 48.2498C125.76 47.9409 126.329 47.6319 126.898 47.3744C127.725 47.014 128.501 47.2199 129.07 47.8894C129.69 48.6103 129.742 49.3827 129.277 50.1551C128.915 50.7215 128.449 51.1335 127.88 51.4425C125.347 52.9358 122.606 53.5022 119.71 52.8328C116.711 52.1634 114.694 50.3096 113.712 47.3744C112.626 44.0788 113.091 40.9377 115.263 38.2085C118.624 33.986 124.829 34.1405 128.087 38.466C129.225 39.9078 129.845 41.5556 129.897 43.4094C129.949 45.0057 129.328 45.6236 127.725 45.6236C126.381 45.6751 124.881 45.6751 123.433 45.6751ZM121.623 42.534C122.709 42.534 123.795 42.534 124.933 42.534C125.295 42.534 125.347 42.431 125.295 42.122C124.881 40.2683 123.537 39.0839 121.727 39.0839C119.917 39.0839 118.521 40.2683 118.107 42.122C118.004 42.4825 118.107 42.5855 118.469 42.5855C119.452 42.534 120.537 42.534 121.623 42.534Z" fill="#0792D0"/>
<path d="M42.8682 25.1806C42.8682 27.0859 42.9716 28.8882 42.3511 30.5875C42.1442 31.2054 41.9374 31.8233 41.5237 32.2868C40.748 33.1622 40.6446 34.1406 40.6963 35.2219C40.748 38.672 40.6963 42.1221 40.6963 45.5722C40.6963 48.3529 39.145 50.6186 36.818 51.3395C33.4568 52.3694 29.9922 49.6917 29.9405 45.8812C29.8888 42.0706 29.9405 38.2086 29.9405 34.398C29.9405 33.8316 29.7854 33.3682 29.4234 32.9047C28.2858 31.3599 27.6652 29.6091 27.7169 27.7038C27.8204 25.4381 27.4584 23.1209 27.9238 20.8551C28.6994 17.0446 31.9572 14.4184 35.6804 14.6244C39.145 14.7788 42.1959 17.7655 42.713 21.4731C42.9199 22.7604 42.8682 24.0477 42.8682 25.1806Z" fill="#EE7F02"/>
<path d="M146.496 36.9212C147.22 36.0458 148.151 35.4794 149.289 35.3249C151.771 34.9129 154.046 35.2219 155.856 37.1787C156.89 38.3115 157.304 39.7534 157.355 41.2467C157.355 44.2333 157.355 47.2715 157.355 50.2581C157.355 51.8029 156.425 52.8328 155.08 52.8328C153.684 52.8328 152.701 51.8544 152.701 50.2581C152.701 47.5289 152.701 44.7998 152.701 42.1221C152.701 40.6288 151.978 39.5474 150.685 39.1869C148.513 38.5175 146.755 39.8563 146.703 42.2251C146.651 44.9027 146.703 47.5289 146.703 50.2066C146.703 50.5156 146.703 50.8246 146.6 51.1335C146.289 52.2664 145.41 52.8843 144.273 52.8328C143.135 52.7813 142.308 52.0604 142.101 50.9275C142.049 50.7216 142.049 50.5156 142.049 50.3096C142.049 46.1901 142.049 42.0191 142.049 37.8996C142.049 36.2003 143.135 35.2219 144.738 35.3764C145.514 35.4794 146.031 35.8913 146.496 36.9212Z" fill="#0792D0"/>
<path d="M92.3035 36.9726C93.0274 36.0973 93.9065 35.5308 94.9924 35.3763C97.5262 34.9644 99.8532 35.2733 101.663 37.3331C102.646 38.466 103.059 39.8048 103.059 41.2466C103.059 44.2848 103.059 47.3229 103.059 50.3611C103.059 52.1119 101.767 53.1932 100.163 52.8328C99.0258 52.5753 98.3536 51.5969 98.3536 50.2066C98.3536 47.4774 98.3536 44.7482 98.3536 42.0705C98.3536 39.8563 96.3886 38.569 94.3202 39.2384C93.1308 39.6503 92.4069 40.7317 92.4069 42.1735C92.4069 44.7482 92.4069 47.2714 92.4069 49.8461C92.4069 50.2581 92.4069 50.7215 92.3035 51.1335C91.9932 52.2664 91.1141 52.9358 89.9248 52.8843C88.7871 52.8328 87.9598 52.0604 87.8046 50.9275C87.7529 50.67 87.7529 50.4126 87.7529 50.1551C87.7529 46.1386 87.7529 42.122 87.7529 38.1055C87.7529 37.7966 87.7529 37.4361 87.8563 37.1271C88.1149 36.1487 88.8389 35.4793 89.8214 35.3763C91.0107 35.2733 91.6829 35.6853 92.3035 36.9726Z" fill="#0792D0"/>
<path d="M120.072 64.0069C122.192 61.4322 127.777 61.7927 129.69 64.6248C130.466 65.7062 130.88 66.9421 130.88 68.2809C130.88 71.3705 130.931 74.4602 130.88 77.5498C130.88 79.3521 129.328 80.485 127.725 79.9185C126.743 79.5581 126.174 78.6312 126.174 77.3953C126.174 74.6661 126.174 71.937 126.174 69.2593C126.174 67.0965 124.467 65.8092 122.347 66.3241C121.003 66.6331 120.227 67.8174 120.227 69.4652C120.227 72.0914 120.227 74.7176 120.227 77.3953C120.227 77.7043 120.227 78.0647 120.124 78.3737C119.813 79.4551 118.934 80.073 117.797 80.0215C116.711 79.97 115.883 79.3006 115.625 78.2192C115.573 78.0132 115.521 77.7558 115.521 77.5498C115.521 73.3788 115.521 69.2078 115.521 64.9853C115.521 63.183 116.918 62.1531 118.572 62.5651C119.296 62.7195 119.607 63.08 120.072 64.0069Z" fill="#0792D0"/>
<path d="M162.992 18.126C162.992 16.4267 162.992 14.7274 162.992 12.9766C162.992 12.5647 162.889 12.4102 162.475 12.4617C162.32 12.4617 162.165 12.4617 161.958 12.4617C160.717 12.4617 159.889 11.6893 159.889 10.5049C159.889 9.26905 160.717 8.39366 161.958 8.39366C162.94 8.39366 162.94 8.39366 162.94 7.41527C162.94 6.3339 162.888 5.25252 163.199 4.17115C163.974 1.33898 167.387 -0.154342 170.025 1.1845C170.955 1.64795 171.317 2.52334 171.007 3.65621C170.8 4.48011 170.231 4.84057 169.249 4.84057C168.008 4.84057 167.698 5.20103 167.646 6.43689C167.646 7.05481 167.439 7.82722 167.698 8.23917C168.008 8.70262 168.835 8.34216 169.456 8.39366C170.697 8.49664 171.421 9.21756 171.472 10.4019C171.472 11.5863 170.8 12.3587 169.559 12.4617C169.145 12.5132 168.732 12.5132 168.318 12.4617C167.801 12.4102 167.646 12.5647 167.646 13.0796C167.698 16.3237 167.646 19.5678 167.646 22.7605C167.646 23.0179 167.646 23.2754 167.594 23.5844C167.387 25.0262 166.405 25.7986 165.06 25.6956C163.819 25.5926 162.992 24.6143 162.992 23.2239C162.992 21.5761 162.992 19.8768 162.992 18.126Z" fill="#0792D0"/>
<path d="M111.023 45.3662C111.023 47.014 111.023 48.7133 111.023 50.3612C110.971 52.3694 109.058 53.5023 107.455 52.5239C106.576 52.009 106.369 51.1336 106.317 50.2067C106.317 46.9111 106.317 43.6669 106.317 40.3713C106.317 39.7534 106.162 39.5989 105.593 39.6504C103.887 39.7019 103.008 38.672 103.318 37.1272C103.525 36.1488 104.3 35.5824 105.335 35.5309C106.317 35.5309 106.317 35.5309 106.317 34.501C106.317 33.7286 106.214 32.9562 106.369 32.2353C106.627 30.8964 107.558 30.124 108.799 30.1755C110.04 30.2785 110.919 31.2054 110.971 32.5442C111.023 33.3681 111.023 34.192 110.971 35.016C110.971 35.4794 111.126 35.5824 111.54 35.5309C112.005 35.4794 112.471 35.4794 112.936 35.5824C113.97 35.7884 114.487 36.4578 114.487 37.5392C114.487 38.6205 113.919 39.3414 112.884 39.4959C112.419 39.5989 111.902 39.5989 111.385 39.5474C111.023 39.5474 110.868 39.6504 110.919 40.0109C111.023 41.8646 111.023 43.6154 111.023 45.3662Z" fill="#0792D0"/>
<path d="M177.419 45.263C177.419 43.5637 177.419 41.8644 177.419 40.1136C177.419 39.7532 177.316 39.5987 176.954 39.5987C176.644 39.5987 176.385 39.5987 176.075 39.5472C174.937 39.3927 174.317 38.6718 174.317 37.5389C174.317 36.4576 175.092 35.6337 176.178 35.5307C176.54 35.4792 177.057 35.6851 177.316 35.4277C177.574 35.1187 177.367 34.6038 177.419 34.1918C177.419 33.7284 177.419 33.2649 177.419 32.75C177.419 31.2052 178.35 30.1753 179.746 30.1753C181.142 30.1753 182.073 31.2052 182.125 32.75C182.125 33.5224 182.125 34.2948 182.125 35.1187C182.125 35.4792 182.228 35.5822 182.59 35.5822C183.107 35.5822 183.573 35.5307 184.09 35.6337C185.176 35.8396 185.693 36.509 185.641 37.6934C185.641 38.7233 185.021 39.4442 183.986 39.5987C183.624 39.6502 183.211 39.7017 182.797 39.6502C182.28 39.5987 182.073 39.7532 182.125 40.3196C182.177 43.5637 182.125 46.8078 182.125 50.052C182.125 50.4639 182.073 50.8759 181.97 51.2878C181.608 52.4207 180.625 53.0386 179.436 52.8326C178.298 52.6782 177.471 51.7513 177.471 50.4124C177.367 48.7131 177.419 47.0138 177.419 45.263Z" fill="#0792D0"/>
<path d="M134.137 72.4005C134.137 70.7012 134.137 69.0019 134.137 67.2511C134.137 66.8391 134.034 66.6847 133.62 66.7362C133.413 66.7362 133.258 66.7362 133.051 66.7362C131.81 66.7362 131.086 65.9637 131.035 64.7794C130.983 63.6465 131.81 62.7711 132.948 62.6681C134.086 62.5651 134.086 62.5651 134.086 61.4323C134.086 60.8658 134.086 60.2994 134.086 59.7845C134.137 58.2911 135.068 57.3643 136.413 57.3643C137.809 57.3643 138.688 58.2911 138.74 59.7845C138.791 60.6084 138.74 61.4323 138.74 62.2562C138.74 62.6166 138.843 62.7196 139.205 62.7196C139.619 62.7196 140.084 62.7196 140.498 62.7196C141.584 62.8226 142.204 63.492 142.308 64.5734C142.359 65.7063 141.842 66.4272 140.756 66.6847C140.55 66.7362 140.343 66.7362 140.136 66.7362C138.74 66.7877 138.74 66.7362 138.74 68.178C138.74 71.1131 138.74 74.0483 138.74 76.9834C138.74 77.1379 138.74 77.2924 138.74 77.3954C138.688 78.9402 137.757 79.9701 136.413 79.9701C135.016 79.9701 134.086 78.9402 134.086 77.3954C134.086 75.7476 134.137 74.0483 134.137 72.4005Z" fill="#0792D0"/>
<path d="M80.6168 41.1952C80.6168 38.157 80.6168 35.1189 80.6168 32.0807C80.6168 30.2785 82.0647 29.1971 83.8229 29.712C84.7537 29.9695 85.3225 30.6904 85.4776 31.6688C85.4776 31.8748 85.4776 32.1322 85.4776 32.3382C85.4776 38.3115 85.4776 44.2333 85.4776 50.2066C85.4776 50.876 85.4259 51.5455 84.9605 52.0604C84.34 52.8328 83.1506 53.1418 82.1681 52.7813C81.2373 52.4723 80.6168 51.6484 80.6168 50.5671C80.6168 47.4259 80.6168 44.2848 80.6168 41.1952Z" fill="#0792D0"/>
<path d="M135.74 37.2301C136.051 36.8696 136.309 36.5607 136.62 36.3032C137.447 35.5308 138.378 35.2733 139.464 35.4278C140.394 35.5823 141.118 36.4062 141.273 37.3846C141.429 38.5689 141.118 39.0839 139.981 39.5473C139.102 39.9078 138.171 40.2682 137.343 40.7317C136.206 41.3496 135.689 42.225 135.689 43.5638C135.74 45.8296 135.689 48.1468 135.689 50.4125C135.689 51.9574 134.706 52.9357 133.31 52.9357C132.172 52.9357 131.293 52.1633 131.086 51.082C131.035 50.773 130.983 50.4125 130.983 50.1036C130.983 46.0871 130.983 42.0705 130.983 38.054C130.983 36.2002 132.224 35.1703 134.034 35.4793C135.12 35.5823 135.585 36.0972 135.74 37.2301Z" fill="#0792D0"/>
<path d="M147.737 64.3674C148.461 63.3375 149.289 62.6166 150.478 62.4621C152.133 62.2561 153.425 63.4405 153.27 65.0883C153.219 65.8092 152.753 66.2726 152.081 66.5301C151.202 66.8906 150.271 67.251 149.444 67.7145C148.254 68.3324 147.634 69.2078 147.686 70.5981C147.737 72.8639 147.686 75.0781 147.686 77.3438C147.686 78.9402 146.755 79.97 145.359 79.97C144.014 79.97 143.083 78.9917 143.032 77.5498C142.98 76.6229 143.032 75.7475 143.032 74.8206C143.032 71.525 143.083 68.2809 143.032 64.9853C142.98 62.9255 144.893 61.8957 146.755 62.6681C147.375 62.977 147.634 63.595 147.737 64.3674Z" fill="#0792D0"/>
</svg>
