<svg width="202" height="81" viewBox="0 0 202 81" fill="none" xmlns="http://www.w3.org/2000/svg">
<path d="M0 0C67.2256 0 134.451 0 201.677 0C201.941 0 202 0.058952 202 0.324236C202 27.1179 202 53.8821 202 80.6758C202 80.9411 201.941 81 201.677 81C134.569 81 67.4312 81 0.323059 81C0.058738 81 0 80.9411 0 80.6758C0 53.7937 0 26.8821 0 0ZM183.204 34.7227C183.204 35.4301 183.204 36.167 183.204 36.9039C183.204 42.7991 183.204 48.6649 183.204 54.56C183.204 54.8253 183.263 54.9138 183.527 54.9138C185.113 54.9138 186.669 54.9138 188.255 54.9138C188.52 54.9138 188.549 54.8253 188.549 54.5895C188.549 45.0983 188.549 35.607 188.549 26.1157C188.549 25.8799 188.49 25.7915 188.255 25.7915C186.816 25.7915 185.377 25.7915 183.967 25.7915C183.791 25.7915 183.674 25.8504 183.586 26.0273C183.38 26.3515 183.174 26.6758 182.969 26.9705C180.149 31.4214 177.154 35.7838 174.511 40.3231C174.364 40.559 174.305 40.5 174.188 40.3231C173.541 39.2031 172.807 38.1124 172.073 37.0218C169.547 33.3668 167.022 29.7118 164.496 26.0568C164.378 25.8799 164.261 25.7915 164.055 25.7915C162.646 25.7915 161.236 25.7915 159.826 25.7915C159.532 25.7915 159.503 25.8799 159.503 26.1452C159.503 27 159.503 27.8548 159.503 28.6801C159.503 37.2871 159.503 45.8646 159.503 54.4716C159.503 54.8548 159.621 54.9138 159.944 54.9138C161.412 54.8843 162.91 54.8843 164.378 54.9138C164.731 54.9138 164.819 54.8253 164.819 54.4716C164.819 48.7533 164.819 43.0644 164.819 37.3461C164.819 36.6976 164.789 36.0197 164.76 35.3712C164.76 35.1648 164.76 34.929 164.76 34.7227C165.377 35.7249 166.082 36.6386 166.728 37.5819C168.784 40.559 170.869 43.536 172.925 46.5131C173.072 46.7194 173.218 46.8079 173.483 46.8079C174.07 46.7784 174.687 46.7784 175.274 46.8079C175.509 46.8079 175.627 46.7489 175.744 46.5426C176.831 44.833 177.917 43.1528 179.004 41.4432C180.384 39.1736 181.882 36.9924 183.204 34.7227ZM52.8936 40.3231C52.8936 41.0895 53.0111 41.7969 53.1873 42.5044C53.7159 44.5677 54.6851 46.4542 55.7717 48.2817C57.9744 51.9367 60.647 55.238 63.4664 58.4214C66.6383 62.0175 70.0157 65.4367 73.5106 68.738C75.449 70.5655 77.3873 72.3635 79.3844 74.1321C79.5606 74.2795 79.6781 74.3384 79.8249 74.1026C80.0012 73.8373 80.2067 73.6015 80.4417 73.3657C80.5885 73.2183 80.5885 73.1299 80.4417 72.9531C77.5342 69.9465 74.7441 66.8221 72.1009 63.5797C69.164 60.0131 66.3446 56.2991 63.907 52.3493C62.3504 49.8439 60.97 47.25 60.0302 44.4498C59.3254 42.3865 59.0611 40.2642 59.5016 38.083C59.9128 36.0491 60.6764 34.1037 61.5868 32.2467C63.2608 28.857 65.3754 25.7031 67.6368 22.6965C71.4254 17.6561 75.6546 13.0284 80.0893 8.57751C80.2949 8.37118 80.6767 8.16485 80.6767 7.89956C80.6767 7.66376 80.3536 7.39847 80.148 7.16266C79.8249 6.77948 79.825 6.77948 79.4432 7.10371C75.9189 10.0513 72.4533 13.0873 69.1346 16.2707C65.581 19.69 62.1742 23.286 59.1492 27.1769C57.2108 29.6528 55.4487 32.2467 54.1858 35.1648C53.4516 36.845 52.9229 38.5251 52.8936 40.3231ZM27.9006 40.7358C27.9006 39.4683 27.5481 37.9945 26.8139 36.3144C25.6098 33.4847 23.9064 30.9793 22.0561 28.5328C18.943 24.4061 15.4481 20.6037 11.8063 16.9192C9.69177 14.7675 7.51846 12.7041 5.28642 10.6408C3.96482 9.43231 2.58447 8.2238 1.26287 7.01528C1.08665 6.8679 0.998546 6.8679 0.88107 7.04476C0.704856 7.28057 0.499273 7.54585 0.29369 7.75218C0.117476 7.95852 0.146845 8.07642 0.323059 8.28275C2.14394 10.1397 3.90608 12.0557 5.60948 14.0011C9.33934 18.2456 12.893 22.6376 15.9767 27.3832C17.6508 29.9771 19.2073 32.6299 20.3527 35.5186C20.9401 37.0513 21.41 38.6135 21.5275 40.2642C21.645 42.2391 21.1751 44.1255 20.4996 45.9531C19.3835 49.048 17.7389 51.8777 15.918 54.5895C12.335 59.9836 8.13521 64.8766 3.72986 69.5633C2.61384 70.7424 1.49782 71.8919 0.352428 73.0415C0.176214 73.2183 0.176214 73.3068 0.323059 73.4836C0.499273 73.69 0.675487 73.8963 0.851701 74.1026C0.998546 74.3384 1.11602 74.309 1.32161 74.1321C4.78715 71.2435 8.16458 68.2664 11.3952 65.1419C14.9782 61.7227 18.385 58.1266 21.4394 54.2063C23.4071 51.6714 25.228 49.0186 26.5496 46.071C27.3132 44.3908 27.8712 42.6223 27.9006 40.7358ZM40.588 27.9727C41.0285 28.0022 41.7334 27.8548 42.4676 27.6779C44.3178 27.2063 46.0212 26.3515 47.6659 25.4083C51.4839 23.1681 54.8907 20.3679 58.18 17.4203C61.0582 14.8559 63.7895 12.2031 66.4327 9.43231C68.9878 6.77948 71.4842 4.06769 73.9218 1.26747C74.0686 1.12009 74.098 1.03166 73.8924 0.884279C73.6281 0.677948 73.3638 0.471616 73.1288 0.265284C72.982 0.117904 72.8645 0.117904 72.7177 0.265284C69.8982 3.03603 66.9613 5.68887 63.907 8.25328C60.1184 11.4367 56.1829 14.4727 51.9538 17.0961C49.3987 18.6878 46.7555 20.1026 43.8479 20.9869C42.3795 21.429 40.911 21.6943 39.3838 21.5469C37.5042 21.3701 35.7127 20.81 33.9799 20.0731C30.5144 18.5993 27.3425 16.595 24.3175 14.3843C18.7081 10.3166 13.5685 5.68886 8.66386 0.825328C8.4289 0.58952 8.22332 0.176856 7.92963 0.206332C7.66531 0.206332 7.43036 0.58952 7.16604 0.766376C6.84298 0.972707 6.87235 1.12009 7.1073 1.38537C10.2792 5.18777 13.5391 8.90175 17.0047 12.4389C20.294 15.7991 23.7008 19.012 27.4306 21.9007C29.8683 23.7576 32.394 25.4672 35.1841 26.7052C36.7994 27.4127 38.4734 27.9432 40.588 27.9727ZM40.7935 53.0568C39.6775 53.0568 38.679 53.2631 37.7098 53.5873C35.1547 54.4127 32.8933 55.798 30.72 57.3013C26.6083 60.131 22.8785 63.4323 19.2661 66.9105C16.8284 69.2686 14.4495 71.6856 12.1294 74.1616C10.426 75.9891 8.72259 77.8755 7.07793 79.762C6.93108 79.9389 6.93108 80.0273 7.1073 80.1747C7.37162 80.3515 7.60657 80.5579 7.84152 80.7937C7.98837 80.9411 8.10584 80.9411 8.25269 80.7937C10.2792 78.8483 12.335 76.9323 14.4495 75.0753C18.5025 71.5087 22.6729 68.1485 27.1957 65.1714C29.8683 63.4028 32.629 61.8111 35.5952 60.6321C38.5321 59.4531 41.4984 59.1583 44.5528 60.131C47.519 61.0742 50.2504 62.4891 52.8642 64.1397C57.5632 67.0873 61.8218 70.5655 65.9334 74.2205C68.2829 76.3133 70.5737 78.4945 72.7764 80.7347C72.9526 80.9116 73.0701 80.9705 73.2757 80.7642C73.4225 80.5873 73.6281 80.44 73.8337 80.3221C74.1274 80.1452 74.1274 79.9683 73.8924 79.7325C73.863 79.7031 73.8337 79.6736 73.8043 79.6146C70.0451 75.0753 66.139 70.6834 61.9392 66.5568C59.4135 64.0513 56.7703 61.6638 53.9802 59.4825C51.5132 57.5666 48.9581 55.7686 46.08 54.4716C44.3766 53.6463 42.6144 53.0862 40.7935 53.0568ZM137.535 40.2937C137.535 45.0393 137.535 49.7849 137.535 54.5011C137.535 54.7664 137.564 54.8843 137.887 54.8843C143.027 54.8843 148.167 54.8843 153.306 54.8843C153.541 54.8843 153.6 54.8253 153.6 54.5895C153.6 53.3515 153.571 52.1135 153.6 50.8755C153.6 50.5808 153.512 50.5218 153.218 50.5218C149.87 50.5218 146.522 50.5218 143.174 50.5218C142.88 50.5218 142.792 50.4629 142.792 50.1681C142.792 47.6332 142.792 45.1277 142.792 42.5928C142.792 42.2686 142.91 42.2096 143.203 42.2096C146.023 42.2096 148.871 42.2096 151.691 42.2096C152.014 42.2096 152.102 42.1212 152.102 41.7969C152.073 40.6179 152.073 39.4094 152.102 38.2304C152.102 37.9061 152.014 37.8472 151.72 37.8472C148.871 37.8472 146.023 37.8472 143.145 37.8472C142.851 37.8472 142.792 37.7587 142.792 37.4935C142.792 35.1943 142.792 32.8657 142.792 30.5666C142.792 30.2129 142.851 30.1245 143.233 30.1245C146.081 30.1539 148.93 30.1245 151.75 30.1539C152.043 30.1539 152.161 30.0655 152.249 29.8002C152.631 28.5917 153.042 27.3832 153.424 26.1747C153.541 25.7915 153.541 25.7915 153.13 25.7915C148.079 25.7915 142.998 25.7915 137.946 25.7915C137.623 25.7915 137.506 25.8799 137.506 26.2042C137.535 30.8908 137.535 35.5775 137.535 40.2937ZM106.492 31.8341C106.492 30.3603 106.463 28.9454 106.492 27.5011C106.492 27.059 106.375 26.8526 105.963 26.7052C103.232 25.6146 100.442 25.2609 97.5345 25.6146C95.4199 25.8799 93.5696 26.7052 92.0424 28.238C89.3405 31.0087 89.2524 35.7249 91.8662 38.5841C92.806 39.6157 93.9514 40.3821 95.1849 41.0895C96.624 41.9148 98.1512 42.5633 99.5609 43.4181C100.383 43.9192 101.147 44.4498 101.734 45.1867C102.88 46.631 102.938 49.2249 100.471 50.2566C99.5022 50.6692 98.4743 50.7871 97.417 50.7576C95.2143 50.6987 93.2172 50.0207 91.367 48.8122C91.1614 48.6649 91.0733 48.6943 90.9558 48.9301C90.3684 50.1092 89.781 51.2587 89.1643 52.4083C89.0174 52.6736 89.0762 52.7915 89.3111 52.9389C89.5461 53.0568 89.781 53.2336 90.0454 53.381C92.1012 54.5011 94.3039 55.0611 96.624 55.238C98.8854 55.3854 101.059 55.1201 103.173 54.2358C106.933 52.6146 108.783 49.048 107.931 45.0688C107.491 42.976 106.257 41.4432 104.583 40.2052C103.115 39.1441 101.499 38.3777 99.9134 37.5524C98.8561 37.0218 97.7988 36.4618 96.8883 35.6659C96.1541 35.0175 95.6255 34.2511 95.5961 33.2489C95.5374 31.5983 96.4184 30.4782 98.0925 30.1245C99.649 29.7707 101.176 30.0066 102.703 30.3603C104.025 30.714 105.259 31.2151 106.492 31.8341ZM119.209 42.4749C119.209 46.4836 119.209 50.4629 119.209 54.4716C119.209 54.7959 119.297 54.8843 119.62 54.8843C121.118 54.8548 122.616 54.8548 124.084 54.8843C124.436 54.8843 124.525 54.8253 124.525 54.4421C124.525 46.4836 124.525 38.5251 124.525 30.5666C124.525 30.0655 124.466 30.1245 124.994 30.1245C127.315 30.1245 129.635 30.1245 131.926 30.1245C132.219 30.1245 132.337 30.036 132.395 29.7707C132.777 28.5328 133.159 27.2948 133.57 26.0568C133.658 25.7915 133.6 25.7325 133.335 25.7325C125.934 25.7325 118.504 25.7325 111.103 25.7325C110.809 25.7325 110.78 25.821 110.78 26.0862C110.78 27.2948 110.809 28.5033 110.78 29.7413C110.78 30.036 110.839 30.1245 111.162 30.1245C113.717 30.1245 116.272 30.1245 118.798 30.095C119.121 30.095 119.209 30.1834 119.209 30.5076C119.209 34.5164 119.209 38.4956 119.209 42.4749ZM106.11 69.1507C104.935 67.3232 103.702 65.5841 102.586 63.786C102.175 63.1376 101.734 62.8133 100.971 62.9312C100.677 62.9607 100.589 63.0197 100.589 63.3439C100.589 66.881 100.589 70.4181 100.589 73.9552C100.589 74.0142 100.589 74.0732 100.589 74.1321C100.589 74.2795 100.648 74.3384 100.794 74.3384C101.147 74.3384 101.47 74.309 101.822 74.3384C102.057 74.3384 102.145 74.2795 102.145 74.0142C102.145 71.4203 102.145 68.8264 102.145 66.2325C102.145 66.0557 102.087 65.9083 102.175 65.702C102.233 65.7609 102.234 65.7904 102.263 65.7904C103.379 67.441 104.466 69.0917 105.582 70.7424C105.846 71.1255 106.463 71.0961 106.698 70.7129C107.344 69.6812 107.99 68.6496 108.636 67.5884C109.047 66.94 109.458 66.2915 109.899 65.5546C109.899 65.7609 109.899 65.9083 109.899 66.0262C109.899 68.3843 109.899 70.7129 109.899 73.071C109.899 73.4541 109.723 73.9552 109.958 74.191C110.192 74.4269 110.721 74.2205 111.103 74.2795C111.397 74.309 111.455 74.1911 111.455 73.9258C111.455 71.8035 111.455 69.6517 111.455 67.5295C111.455 66.1146 111.455 64.6998 111.455 63.2849C111.455 62.9607 111.367 62.8723 111.074 62.9017C110.809 62.9312 110.545 62.9312 110.31 62.9017C110.104 62.9017 109.987 62.9607 109.899 63.1376C109.517 63.7566 109.106 64.405 108.724 65.024C107.814 66.4094 106.962 67.7358 106.11 69.1507ZM178.123 62.8723C176.39 62.9018 174.716 63.7566 173.659 65.6725C172.954 66.94 172.807 68.2959 173.013 69.7107C173.16 70.8897 173.6 71.9214 174.423 72.8057C175.685 74.1321 177.242 74.6037 179.033 74.4563C181.148 74.2795 182.705 73.2183 183.586 71.2435C184.026 70.2707 184.114 69.2096 184.056 68.1485C183.85 65.0535 181.589 62.9018 178.123 62.8723ZM162.499 68.6201C162.499 70.4181 162.499 72.1867 162.499 73.9847C162.499 74.25 162.557 74.3384 162.822 74.3384C163.997 74.309 165.171 74.3974 166.346 74.2795C167.756 74.1321 169.019 73.69 170.047 72.6583C171.016 71.6856 171.427 70.4771 171.544 69.1212C171.779 65.9378 170.135 63.3734 166.493 63.0197C165.289 62.9018 164.114 62.9902 162.91 62.9607C162.616 62.9607 162.528 63.0197 162.528 63.3144C162.499 65.083 162.499 66.8515 162.499 68.6201ZM119.268 68.2959C120.413 67.4705 120.853 66.5273 120.648 65.3188C120.413 64.0808 119.414 63.1965 118.034 63.0197C116.889 62.8723 115.714 62.9902 114.539 62.9607C114.304 62.9607 114.334 63.1081 114.334 63.2555C114.334 66.8515 114.334 70.4181 114.334 74.0142C114.334 74.25 114.392 74.3384 114.657 74.3384C115.626 74.3384 116.595 74.3384 117.535 74.3384C118.269 74.3384 118.974 74.2205 119.62 73.9258C120.824 73.3657 121.5 72.1867 121.382 70.8603C121.265 69.5044 120.56 68.7085 119.268 68.2959ZM190.399 69.0917C190.429 69.0328 190.517 69.0328 190.605 69.0033C192.161 68.3548 192.866 66.9694 192.484 65.3188C192.191 64.0513 191.045 63.167 189.548 63.0197C188.49 62.9312 187.462 62.9902 186.405 62.9607C186.141 62.9607 186.053 63.0197 186.053 63.3144C186.053 65.5546 186.053 67.8242 186.053 70.0644C186.053 71.3908 186.053 72.7173 186.053 74.0142C186.053 74.25 186.111 74.3384 186.376 74.3384C186.669 74.309 186.934 74.309 187.227 74.3384C187.55 74.3679 187.609 74.25 187.609 73.9552C187.58 72.6288 187.609 71.3024 187.609 69.976C187.609 69.8581 187.521 69.6517 187.756 69.6517C188.373 69.6223 189.019 69.5338 189.401 70.2118C189.548 70.4771 189.753 70.7129 189.9 70.9782C190.34 71.6856 190.752 72.4225 191.163 73.1299C191.398 73.5426 191.574 74.1026 191.926 74.2795C192.308 74.4858 192.866 74.3384 193.336 74.3384C193.366 74.3384 193.395 74.3384 193.395 74.3384C193.6 74.3384 193.659 74.309 193.542 74.1026C192.514 72.4225 191.662 70.6539 190.399 69.0917ZM98.9148 74.3384C98.8561 74.191 98.8267 74.1026 98.7973 74.0142C97.4464 70.536 96.0954 67.0284 94.7444 63.5502C94.5095 62.9607 94.5095 62.9607 93.8927 62.9312C93.5109 62.9017 93.3641 63.0197 93.2172 63.4028C92.2774 65.9673 91.2789 68.5317 90.3097 71.0961C89.9279 72.0688 89.5755 73.071 89.1937 74.0437C89.0762 74.3384 89.1349 74.3679 89.4286 74.3679C89.781 74.3384 90.1041 74.3384 90.4565 74.3679C90.6621 74.3679 90.7502 74.309 90.809 74.1026C91.1026 73.2773 91.3963 72.4814 91.69 71.6561C91.7781 71.4498 91.8662 71.3614 92.1012 71.3614C93.3347 71.3614 94.5976 71.3614 95.8311 71.3614C96.066 71.3614 96.1835 71.4498 96.2716 71.6561C96.5653 72.452 96.859 73.2773 97.182 74.0732C97.2408 74.2205 97.2701 74.3679 97.4757 74.3679C97.9163 74.3384 98.3862 74.3384 98.9148 74.3384ZM131.632 74.3384C131.749 74.3384 131.896 74.3384 132.014 74.3384C132.484 74.3384 132.484 74.3384 132.307 73.9258C130.986 70.5066 129.664 67.0873 128.343 63.6681C128.078 62.9607 128.078 62.9902 127.315 62.9607C127.05 62.9607 126.933 63.0491 126.845 63.2849C125.993 65.5546 125.141 67.8242 124.26 70.0939C123.761 71.4203 123.262 72.7467 122.762 74.0437C122.674 74.2795 122.704 74.3679 122.968 74.3679C123.32 74.3384 123.644 74.3384 123.996 74.3679C124.202 74.3679 124.29 74.309 124.378 74.1026C124.671 73.2773 124.965 72.4814 125.259 71.6561C125.318 71.4498 125.435 71.3908 125.641 71.3908C126.903 71.3908 128.166 71.3908 129.459 71.3908C129.694 71.3908 129.752 71.4793 129.84 71.6561C130.075 72.3046 130.31 72.9531 130.575 73.6015C130.839 74.3384 130.839 74.3384 131.632 74.3384ZM160.472 74.3384C160.413 74.191 160.384 74.0731 160.325 73.9552C159.004 70.536 157.682 67.0873 156.361 63.6681C156.096 62.9607 156.096 62.9902 155.333 62.9607C155.068 62.9607 154.951 63.0491 154.863 63.2849C153.629 66.5273 152.396 69.7991 151.162 73.0415C151.015 73.4542 150.839 73.8963 150.663 74.3384C151.133 74.3384 151.544 74.309 151.955 74.3384C152.19 74.3384 152.337 74.2795 152.396 74.0437C152.66 73.2183 152.983 72.4225 153.277 71.6266C153.336 71.4203 153.453 71.3614 153.659 71.3614C154.921 71.3614 156.184 71.3614 157.418 71.3614C157.653 71.3614 157.741 71.4203 157.829 71.6561C158.123 72.4814 158.446 73.2773 158.739 74.1026C158.798 74.2205 158.798 74.3679 159.004 74.3679C159.503 74.3384 159.973 74.3384 160.472 74.3384ZM201.383 64.8472C201.383 64.4345 201.383 64.0808 201.383 63.7271C201.383 63.4913 201.325 63.4028 201.119 63.3144C200.179 62.9607 199.239 62.8133 198.241 62.9312C197.36 63.0197 196.567 63.3439 196.009 64.0513C195.069 65.2304 195.186 66.9694 196.302 67.9716C196.86 68.5022 197.536 68.8264 198.182 69.1801C198.769 69.5044 199.357 69.7991 199.797 70.2707C200.267 70.7718 200.414 71.3614 200.208 72.0098C200.032 72.6288 199.533 72.9236 198.946 73.071C197.859 73.3068 196.86 73.1004 195.891 72.5404C195.715 72.4225 195.598 72.4225 195.509 72.6288C195.392 72.8646 195.275 73.1004 195.157 73.3068C194.981 73.5426 195.098 73.6605 195.304 73.7784C196.684 74.5153 198.153 74.6921 199.68 74.2795C200.767 73.9552 201.589 73.2773 201.824 72.1277C202.088 70.9192 201.765 69.8581 200.825 69.0328C200.297 68.5611 199.65 68.2369 199.034 67.9127C198.505 67.6179 197.976 67.3526 197.536 66.94C197.066 66.4978 196.86 65.9378 197.007 65.3188C197.154 64.6998 197.624 64.405 198.211 64.2871C198.476 64.2282 198.74 64.2282 199.004 64.2282C199.856 64.2282 200.59 64.464 201.383 64.8472ZM146.199 62.8723C145.935 62.8723 145.612 62.8723 145.288 62.9607C144.055 63.226 143.145 63.9039 142.851 65.2009C142.557 66.4683 142.998 67.5 144.026 68.2664C144.525 68.6496 145.083 68.9148 145.612 69.2391C146.17 69.5633 146.757 69.8286 147.197 70.3297C148.137 71.3614 147.697 72.8057 146.375 73.1004C145.523 73.2773 144.701 73.1889 143.879 72.8646C143.585 72.7467 143.291 72.393 143.056 72.5404C142.821 72.6878 142.733 73.1004 142.557 73.3657C142.44 73.5721 142.44 73.69 142.675 73.8079C144.084 74.5742 145.582 74.7806 147.139 74.309C148.255 73.9847 149.048 73.2773 149.253 72.0983C149.488 70.8603 149.106 69.7991 148.108 69.0033C147.52 68.5317 146.816 68.178 146.17 67.8242C145.7 67.559 145.259 67.3232 144.877 66.94C144.554 66.5863 144.349 66.1736 144.407 65.702C144.466 64.9061 144.995 64.405 145.876 64.3166C146.786 64.2282 147.667 64.405 148.519 64.7882C148.725 64.8766 148.813 64.8766 148.783 64.6114C148.754 64.3461 148.754 64.0808 148.783 63.786C148.813 63.5502 148.725 63.4323 148.49 63.3439C147.755 63.0197 147.021 62.8723 146.199 62.8723ZM137.623 62.8723C137.3 62.8723 136.977 62.8723 136.654 62.9607C135.45 63.226 134.539 63.845 134.216 65.1124C133.893 66.3799 134.304 67.441 135.332 68.2369C136.008 68.7675 136.771 69.0917 137.506 69.5338C137.946 69.7697 138.357 70.0644 138.651 70.4476C139.385 71.3614 139.033 72.6288 137.917 73.012C137.682 73.1004 137.418 73.1299 137.153 73.1594C136.243 73.2183 135.391 73.012 134.628 72.5404C134.451 72.4225 134.334 72.452 134.246 72.6288C134.128 72.8941 134.011 73.1299 133.835 73.3657C133.717 73.5426 133.746 73.631 133.923 73.7194C135.479 74.5742 137.094 74.7806 138.739 74.1321C140.795 73.3363 141.265 70.8013 139.738 69.2096C139.327 68.797 138.827 68.4727 138.328 68.178C137.682 67.7948 136.977 67.5 136.39 67.0284C135.773 66.5273 135.538 65.8788 135.744 65.2304C135.92 64.6408 136.478 64.2871 137.241 64.2282C138.093 64.1692 138.915 64.3166 139.708 64.6998C140.031 64.8472 140.09 64.7587 140.061 64.464C140.031 64.2282 140.031 63.9629 140.061 63.7271C140.09 63.4913 139.973 63.4028 139.767 63.3144C139.121 63.0197 138.387 62.8723 137.623 62.8723Z" fill="#FEFEFE"/>
<path d="M183.204 34.7227C181.912 37.0219 180.384 39.2031 178.975 41.4433C177.888 43.1529 176.801 44.833 175.715 46.5426C175.597 46.7489 175.45 46.8079 175.245 46.8079C174.657 46.7784 174.041 46.7784 173.453 46.8079C173.189 46.8079 173.042 46.7195 172.895 46.5131C170.839 43.536 168.784 40.559 166.698 37.5819C166.052 36.6387 165.347 35.7249 164.731 34.7227C164.731 34.9291 164.731 35.1649 164.731 35.3712C164.731 36.0197 164.789 36.6976 164.789 37.3461C164.789 43.0644 164.789 48.7533 164.789 54.4716C164.789 54.8253 164.701 54.9138 164.349 54.9138C162.88 54.8843 161.383 54.8843 159.914 54.9138C159.562 54.9138 159.474 54.8253 159.474 54.4716C159.474 45.8646 159.474 37.2871 159.474 28.6802C159.474 27.8253 159.474 26.9705 159.474 26.1452C159.474 25.9094 159.532 25.7915 159.797 25.7915C161.206 25.7915 162.616 25.7915 164.026 25.7915C164.261 25.7915 164.349 25.8799 164.466 26.0568C166.992 29.7118 169.518 33.3668 172.044 37.0219C172.778 38.083 173.512 39.1736 174.158 40.3232C174.276 40.5295 174.334 40.559 174.481 40.3232C177.124 35.7544 180.12 31.4214 182.939 26.9705C183.145 26.6463 183.351 26.3515 183.556 26.0273C183.644 25.8799 183.762 25.7915 183.938 25.7915C185.377 25.7915 186.816 25.7915 188.226 25.7915C188.49 25.7915 188.52 25.8799 188.52 26.1157C188.52 35.607 188.52 45.0983 188.52 54.5895C188.52 54.8253 188.49 54.9138 188.226 54.9138C186.64 54.9138 185.083 54.9138 183.497 54.9138C183.233 54.9138 183.174 54.8253 183.174 54.5601C183.174 48.6649 183.174 42.7991 183.174 36.9039C183.204 36.167 183.204 35.4302 183.204 34.7227Z" fill="#747678"/>
<path d="M52.8936 40.3231C52.9229 38.5251 53.4516 36.8155 54.1564 35.1648C55.4193 32.2762 57.2108 29.6823 59.1198 27.1768C62.1448 23.2565 65.5516 19.6899 69.1052 16.2707C72.4239 13.0873 75.8601 10.0513 79.4137 7.1037C79.7955 6.77946 79.7955 6.77946 80.1186 7.16265C80.2948 7.39846 80.6179 7.63427 80.6473 7.89955C80.6473 8.16484 80.2655 8.34169 80.0599 8.5775C75.6252 13.0284 71.396 17.6856 67.6074 22.6965C65.3166 25.703 63.2314 28.857 61.5574 32.2467C60.647 34.1037 59.8834 36.0196 59.4722 38.083C59.0317 40.2642 59.296 42.357 60.0008 44.4498C60.9407 47.25 62.321 49.8439 63.8776 52.3493C66.3152 56.2991 69.1052 60.0131 72.0715 63.5797C74.7441 66.822 77.5341 69.9465 80.4123 72.953C80.5591 73.1299 80.5591 73.2183 80.4123 73.3657C80.2067 73.6015 80.0011 73.8373 79.7956 74.1026C79.6487 74.3089 79.5312 74.2795 79.355 74.1321C77.3579 72.3635 75.4196 70.5655 73.4812 68.738C69.9863 65.4367 66.6382 62.0175 63.437 58.4214C60.6176 55.238 57.945 51.9367 55.7423 48.2816C54.6557 46.4541 53.6865 44.5971 53.1579 42.5044C53.011 41.8264 52.8936 41.0895 52.8936 40.3231Z" fill="#FDCA01"/>
<path d="M27.9005 40.7358C27.8711 42.6223 27.3131 44.3614 26.5789 46.071C25.2573 49.0186 23.4364 51.6714 21.4687 54.2064C18.4143 58.1267 15.0075 61.6933 11.4245 65.1419C8.19387 68.2664 4.81643 71.2435 1.35089 74.1321C1.14531 74.309 1.02783 74.309 0.880987 74.1026C0.734142 73.8668 0.557928 73.6605 0.352345 73.4837C0.176131 73.3068 0.2055 73.2184 0.381714 73.0415C1.46837 71.8919 2.61376 70.7424 3.72978 69.5633C8.1645 64.8767 12.3349 59.9836 15.9179 54.5895C17.7388 51.8483 19.3541 49.0481 20.4995 45.9531C21.175 44.1256 21.6449 42.2391 21.5274 40.2642C21.4393 38.6136 20.9694 37.0513 20.3526 35.5186C19.2366 32.6299 17.6801 29.9771 15.9767 27.3832C12.8635 22.6376 9.33926 18.2457 5.6094 14.0011C3.90599 12.0557 2.14385 10.1398 0.322976 8.28277C0.117393 8.07644 0.0880241 7.95854 0.293607 7.7522C0.49919 7.54587 0.704773 7.28059 0.880987 7.04478C0.998463 6.86793 1.08657 6.86793 1.26278 7.01531C2.58439 8.22382 3.96473 9.43234 5.28634 10.6409C7.51838 12.6747 9.69169 14.7675 11.8356 16.9192C15.4774 20.6037 18.9723 24.3767 22.0854 28.5328C23.9063 30.9793 25.6097 33.4847 26.8432 36.3144C27.548 37.9946 27.9005 39.4684 27.9005 40.7358Z" fill="#CE2553"/>
<path d="M40.5879 27.9727C38.4734 27.9433 36.7993 27.4127 35.184 26.7053C32.3646 25.4673 29.8389 23.7577 27.4306 21.9007C23.7008 19.0415 20.294 15.7992 17.0046 12.4389C13.5391 8.90178 10.2791 5.18781 7.10728 1.38541C6.87232 1.12012 6.84296 0.972744 7.16601 0.766412C7.43034 0.589556 7.66529 0.206368 7.92961 0.206368C8.19393 0.206368 8.39951 0.619032 8.63446 0.825364C13.5391 5.71838 18.6787 10.3461 24.2881 14.3843C27.3425 16.595 30.485 18.5994 33.9505 20.0732C35.6833 20.8101 37.4748 21.3701 39.3544 21.547C40.8816 21.6944 42.3794 21.4291 43.8185 20.9869C46.7261 20.1027 49.3693 18.6878 51.9244 17.0961C56.1535 14.5022 60.089 11.4662 63.8776 8.25331C66.9613 5.6889 69.8982 3.03606 72.747 0.26532C72.8938 0.11794 73.0113 0.11794 73.1582 0.26532C73.3931 0.471652 73.6574 0.70746 73.9218 0.884316C74.098 1.0317 74.0686 1.12012 73.9511 1.2675C71.5135 4.03825 69.0171 6.77951 66.4327 9.43235C63.7601 12.2031 61.0288 14.8854 58.18 17.4203C54.8906 20.3679 51.4838 23.1387 47.6659 25.4083C46.0212 26.381 44.3178 27.2064 42.4676 27.678C41.7333 27.8548 41.0285 27.9727 40.5879 27.9727Z" fill="#69BE29"/>
<path d="M40.7935 53.0569C42.6144 53.0864 44.3765 53.6759 46.1093 54.4423C48.9581 55.7392 51.5425 57.5372 54.0095 59.4532C56.7996 61.6344 59.4428 64.0219 61.9685 66.5274C66.1683 70.654 70.0744 75.046 73.8336 79.5853C73.863 79.6147 73.8923 79.6737 73.9217 79.7032C74.186 79.9095 74.1567 80.1158 73.863 80.2927C73.6574 80.4106 73.4812 80.558 73.305 80.7348C73.0994 80.9412 72.9819 80.8822 72.8057 80.7053C70.603 78.4652 68.3122 76.2839 65.9627 74.1912C61.8511 70.5067 57.5632 67.0285 52.8935 64.1104C50.2797 62.4597 47.5484 61.0449 44.5821 60.1016C41.5277 59.1289 38.5614 59.4532 35.6245 60.6027C32.6583 61.7818 29.8976 63.3735 27.225 65.142C22.6728 68.0896 18.5024 71.4794 14.4495 75.0165C12.3349 76.8735 10.2791 78.7894 8.25262 80.7348C8.07641 80.9117 7.9883 80.8822 7.84146 80.7348C7.6065 80.5285 7.37155 80.3222 7.10723 80.1158C6.93102 79.9684 6.90165 79.88 7.07786 79.7032C8.7519 77.8167 10.4259 75.9597 12.1293 74.1027C14.4495 71.6267 16.799 69.2097 19.266 66.8516C22.8784 63.403 26.6082 60.1016 30.7199 57.2425C32.9226 55.7392 35.184 54.3538 37.7097 53.5285C38.6789 53.2632 39.6775 53.0569 40.7935 53.0569Z" fill="#01AFD7"/>
<path d="M137.535 40.2936C137.535 35.5775 137.535 30.8908 137.535 26.1746C137.535 25.8209 137.623 25.762 137.976 25.762C143.027 25.762 148.108 25.762 153.159 25.762C153.6 25.762 153.6 25.762 153.453 26.1451C153.071 27.3537 152.66 28.5622 152.278 29.7707C152.19 30.036 152.073 30.1244 151.779 30.1244C148.93 30.1244 146.082 30.1244 143.262 30.0949C142.88 30.0949 142.822 30.2128 142.822 30.5371C142.851 32.8362 142.822 35.1648 142.822 37.4639C142.822 37.7292 142.88 37.8176 143.174 37.8176C146.023 37.8176 148.872 37.8176 151.75 37.8176C152.073 37.8176 152.132 37.9061 152.132 38.2008C152.102 39.3799 152.102 40.5884 152.132 41.7674C152.132 42.0917 152.043 42.1801 151.72 42.1801C148.901 42.1801 146.052 42.1801 143.233 42.1801C142.939 42.1801 142.822 42.239 142.822 42.5633C142.851 45.0982 142.822 47.6037 142.822 50.1386C142.822 50.4334 142.91 50.4923 143.203 50.4923C146.551 50.4923 149.9 50.4923 153.248 50.4923C153.541 50.4923 153.629 50.5513 153.629 50.846C153.6 52.084 153.629 53.322 153.629 54.56C153.629 54.7958 153.571 54.8548 153.336 54.8548C148.196 54.8548 143.057 54.8548 137.917 54.8548C137.623 54.8548 137.565 54.7368 137.565 54.4716C137.535 49.7554 137.535 45.0393 137.535 40.2936Z" fill="#747678"/>
<path d="M106.492 31.8341C105.258 31.1856 104.025 30.6845 102.733 30.3898C101.206 30.0361 99.6783 29.8003 98.1218 30.154C96.4477 30.5077 95.5667 31.6278 95.6254 33.2784C95.6841 34.2806 96.1834 35.047 96.9176 35.6955C97.8281 36.4913 98.8854 37.0219 99.9426 37.5819C101.529 38.4072 103.173 39.1736 104.612 40.2348C106.286 41.4728 107.49 43.0055 107.96 45.0983C108.812 49.0776 106.962 52.6441 103.203 54.2653C101.117 55.1791 98.9147 55.4149 96.6533 55.2675C94.3332 55.1201 92.1305 54.5601 90.0747 53.4105C89.8397 53.2631 89.6048 53.1158 89.3404 52.9684C89.1055 52.8505 89.0467 52.7031 89.1936 52.4378C89.8103 51.2883 90.3977 50.1092 90.9851 48.9597C91.1026 48.7533 91.1613 48.6944 91.3963 48.8417C93.2171 50.0503 95.2436 50.7577 97.4463 50.7872C98.5036 50.8166 99.5315 50.6987 100.501 50.2861C102.938 49.2544 102.88 46.631 101.764 45.2162C101.176 44.4793 100.413 43.9193 99.5902 43.4476C98.1805 42.5928 96.6533 41.9149 95.2142 41.119C94.0101 40.4411 92.8647 39.6452 91.8955 38.6136C89.2817 35.7544 89.3698 31.0677 92.0717 28.2675C93.5696 26.7053 95.4492 25.9094 97.5638 25.6441C100.442 25.2904 103.261 25.6441 105.993 26.7348C106.404 26.8821 106.521 27.0885 106.521 27.5306C106.492 28.9455 106.492 30.3603 106.492 31.8341Z" fill="#747678"/>
<path d="M119.209 42.4748C119.209 38.4956 119.209 34.5163 119.209 30.5371C119.209 30.2128 119.15 30.1244 118.798 30.1244C116.242 30.1539 113.687 30.1244 111.162 30.1539C110.839 30.1539 110.78 30.0655 110.78 29.7707C110.809 28.5622 110.78 27.3537 110.78 26.1157C110.78 25.8799 110.809 25.762 111.103 25.762C118.504 25.762 125.934 25.762 133.335 25.762C133.6 25.762 133.658 25.8209 133.57 26.0862C133.159 27.3242 132.777 28.5622 132.395 29.8002C132.307 30.0655 132.219 30.1539 131.925 30.1539C129.605 30.1539 127.285 30.1539 124.994 30.1539C124.466 30.1539 124.524 30.0949 124.524 30.596C124.524 38.5545 124.524 46.5131 124.524 54.4716C124.524 54.8253 124.436 54.9137 124.084 54.9137C122.586 54.8842 121.088 54.8842 119.62 54.9137C119.297 54.9137 119.209 54.8547 119.209 54.501C119.209 50.4628 119.209 46.4836 119.209 42.4748Z" fill="#747678"/>
<path d="M106.11 69.1508C106.932 67.7359 107.814 66.4095 108.665 65.0536C109.047 64.4346 109.458 63.8156 109.84 63.1671C109.957 62.9903 110.075 62.9313 110.251 62.9313C110.515 62.9608 110.78 62.9608 111.015 62.9313C111.308 62.9019 111.426 62.9903 111.397 63.3145C111.367 64.7294 111.397 66.1442 111.397 67.5591C111.397 69.6813 111.397 71.8331 111.397 73.9554C111.397 74.2206 111.338 74.3386 111.044 74.3091C110.662 74.2796 110.134 74.4859 109.899 74.2206C109.664 73.9848 109.84 73.4837 109.84 73.1006C109.84 70.7425 109.84 68.4139 109.84 66.0558C109.84 65.9379 109.84 65.7905 109.84 65.5842C109.399 66.2916 108.988 66.9401 108.577 67.618C107.931 68.6497 107.285 69.6813 106.639 70.7425C106.404 71.1257 105.758 71.1551 105.523 70.772C104.407 69.1213 103.32 67.4706 102.204 65.82C102.175 65.7905 102.175 65.761 102.116 65.7316C102.028 65.9084 102.087 66.0853 102.087 66.2621C102.087 68.856 102.087 71.4499 102.087 74.0438C102.087 74.3091 101.998 74.368 101.764 74.368C101.411 74.3386 101.088 74.368 100.736 74.368C100.589 74.368 100.53 74.3091 100.53 74.1617C100.53 74.1027 100.53 74.0438 100.53 73.9848C100.53 70.4477 100.53 66.9106 100.53 63.3735C100.53 63.0787 100.618 63.0198 100.912 62.9608C101.675 62.8429 102.116 63.1671 102.527 63.8156C103.702 65.6137 104.965 67.3233 106.11 69.1508Z" fill="#747678"/>
<path d="M178.123 62.8723C181.589 62.8723 183.85 65.0535 184.056 68.1485C184.114 69.2391 184.026 70.2708 183.586 71.2435C182.705 73.2184 181.148 74.2795 179.033 74.4564C177.271 74.6038 175.685 74.1321 174.422 72.8057C173.6 71.9509 173.16 70.8898 173.013 69.7107C172.807 68.2959 172.954 66.94 173.659 65.6725C174.716 63.7566 176.39 62.9313 178.123 62.8723ZM182.44 68.6791C182.47 67.9127 182.323 67.1463 182 66.4094C180.884 63.8745 177.301 63.4029 175.568 65.5841C174.393 67.0579 174.276 69.7402 175.274 71.4204C176.655 73.749 180.414 73.7784 181.794 71.4204C182.235 70.5655 182.44 69.6518 182.44 68.6791Z" fill="#747678"/>
<path d="M162.499 68.6201C162.499 66.8515 162.499 65.083 162.499 63.3144C162.499 63.0196 162.587 62.9312 162.881 62.9607C164.085 62.9902 165.259 62.9017 166.464 63.0196C170.105 63.3734 171.75 65.9378 171.515 69.1212C171.427 70.4771 170.986 71.6856 170.017 72.6583C169.019 73.6899 167.726 74.1321 166.317 74.2795C165.142 74.3974 163.967 74.3089 162.792 74.3384C162.528 74.3384 162.469 74.25 162.469 73.9847C162.499 72.2161 162.499 70.4181 162.499 68.6201ZM164.055 68.6496C164.055 70.0054 164.055 71.3908 164.055 72.7467C164.055 72.9825 164.114 73.0709 164.378 73.0709C164.995 73.0709 165.612 73.071 166.199 73.012C167.315 72.8941 168.284 72.4814 168.989 71.5677C169.782 70.536 169.929 69.357 169.87 68.119C169.753 66.1736 168.637 64.8177 166.757 64.405C166.023 64.2282 165.289 64.2282 164.555 64.2576C163.997 64.2576 164.055 64.1987 164.055 64.7292C164.055 66.0262 164.055 67.3526 164.055 68.6496Z" fill="#747678"/>
<path d="M119.267 68.2959C120.53 68.7086 121.265 69.5044 121.382 70.8603C121.499 72.1867 120.824 73.3363 119.62 73.9258C118.944 74.2501 118.24 74.3385 117.535 74.3385C116.565 74.3385 115.596 74.3385 114.657 74.3385C114.392 74.3385 114.333 74.2501 114.333 74.0143C114.333 70.4182 114.333 66.8516 114.333 63.2555C114.333 63.1082 114.304 62.9313 114.539 62.9608C115.714 62.9902 116.859 62.9018 118.034 63.0197C119.414 63.1966 120.413 64.0809 120.648 65.3188C120.853 66.5274 120.442 67.4706 119.267 68.2959ZM115.89 71.0961C115.89 71.6562 115.89 72.2162 115.89 72.7468C115.89 72.9236 115.919 73.0415 116.125 73.0415C116.771 73.0121 117.388 73.0415 118.034 73.0121C119.121 72.9236 119.796 72.2457 119.825 71.2435C119.855 70.1529 119.297 69.4455 118.151 69.2391C117.447 69.1212 116.742 69.2097 116.037 69.1802C115.861 69.1802 115.89 69.2981 115.861 69.416C115.89 69.976 115.89 70.5361 115.89 71.0961ZM115.89 66.1147C115.89 66.6453 115.89 67.1464 115.89 67.6769C115.89 67.8243 115.919 67.9127 116.096 67.9127C116.624 67.8833 117.124 67.9422 117.652 67.8538C118.563 67.7064 119.121 67.0874 119.15 66.2031C119.179 65.142 118.739 64.5525 117.77 64.3461C117.212 64.2282 116.654 64.2872 116.096 64.2872C115.89 64.2872 115.919 64.4346 115.919 64.5525C115.89 65.083 115.89 65.5841 115.89 66.1147Z" fill="#747678"/>
<path d="M190.399 69.0917C191.662 70.6539 192.514 72.4225 193.571 74.1026C193.689 74.3089 193.63 74.3384 193.424 74.3384C193.395 74.3384 193.366 74.3384 193.366 74.3384C192.896 74.3384 192.308 74.4858 191.956 74.2795C191.603 74.0731 191.427 73.5131 191.192 73.1299C190.781 72.4225 190.341 71.6856 189.929 70.9782C189.783 70.7129 189.577 70.4771 189.43 70.2118C189.048 69.5338 188.402 69.6223 187.785 69.6517C187.55 69.6517 187.639 69.8581 187.639 69.976C187.639 71.3024 187.639 72.6288 187.639 73.9552C187.639 74.2795 187.55 74.3679 187.257 74.3384C186.992 74.3089 186.699 74.3089 186.405 74.3384C186.141 74.3679 186.082 74.2795 186.082 74.0142C186.082 72.6878 186.082 71.3613 186.082 70.0644C186.082 67.8242 186.082 65.5546 186.082 63.3144C186.082 63.0491 186.17 62.9607 186.434 62.9607C187.492 62.9902 188.52 62.9312 189.577 63.0196C191.075 63.167 192.22 64.0513 192.514 65.3188C192.896 66.9694 192.191 68.3548 190.634 69.0033C190.517 69.0327 190.429 69.0327 190.399 69.0917ZM187.609 66.2915C187.609 66.881 187.609 67.4705 187.609 68.06C187.609 68.1779 187.55 68.3548 187.756 68.3548C188.402 68.3548 189.048 68.4432 189.665 68.1779C190.517 67.8537 190.987 67.1463 190.957 66.2031C190.928 65.2598 190.429 64.6408 189.548 64.3755C189.019 64.2282 188.49 64.2576 187.932 64.2282C187.668 64.2282 187.58 64.2871 187.58 64.5524C187.609 65.1419 187.609 65.7314 187.609 66.2915Z" fill="#747678"/>
<path d="M98.9148 74.3385C98.3862 74.3385 97.9163 74.3385 97.4464 74.3385C97.2408 74.3385 97.2114 74.1912 97.1527 74.0438C96.859 73.2479 96.5359 72.4521 96.2423 71.6267C96.1541 71.3909 96.0367 71.332 95.8017 71.332C94.5682 71.332 93.3054 71.332 92.0719 71.332C91.8369 71.332 91.7488 71.3909 91.6607 71.6267C91.367 72.4521 91.0733 73.2479 90.7796 74.0733C90.7209 74.2501 90.6328 74.3385 90.4272 74.3385C90.0748 74.3091 89.7517 74.3091 89.3993 74.3385C89.135 74.368 89.0469 74.3091 89.1643 74.0143C89.5461 73.0416 89.8986 72.0689 90.2804 71.0667C91.2495 68.5023 92.2481 65.9379 93.1879 63.3735C93.3347 63.0198 93.4816 62.9019 93.8634 62.9019C94.4801 62.9313 94.4801 62.9019 94.7151 63.5209C96.066 66.999 97.417 70.5067 98.768 73.9848C98.8267 74.1027 98.8561 74.1912 98.9148 74.3385ZM93.9808 65.2894C93.3935 66.9106 92.8355 68.4728 92.2774 70.094C93.3641 70.094 94.392 70.094 95.4493 70.094C95.6255 70.094 95.6842 70.0645 95.6255 69.8582C95.0675 68.3549 94.5095 66.8516 93.9808 65.2894Z" fill="#747678"/>
<path d="M131.632 74.3384C130.839 74.3384 130.839 74.3384 130.545 73.572C130.31 72.9236 130.046 72.2751 129.811 71.6266C129.752 71.4498 129.664 71.3319 129.429 71.3613C128.166 71.3613 126.904 71.3613 125.611 71.3613C125.406 71.3613 125.288 71.4498 125.23 71.6266C124.936 72.452 124.642 73.2478 124.348 74.0731C124.29 74.2795 124.202 74.3679 123.967 74.3384C123.614 74.3089 123.291 74.3089 122.939 74.3384C122.645 74.3679 122.645 74.25 122.733 74.0142C123.232 72.6878 123.732 71.3908 124.231 70.0644C125.083 67.7947 125.964 65.5251 126.815 63.2554C126.904 63.0196 127.021 62.9017 127.285 62.9312C128.049 62.9607 128.049 62.9312 128.313 63.6386C129.635 67.0578 130.956 70.4771 132.278 73.8963C132.454 74.3089 132.454 74.3089 131.984 74.3089C131.896 74.3384 131.779 74.3384 131.632 74.3384ZM127.579 65.2598C127.021 66.8515 126.463 68.3548 125.934 69.8875C125.846 70.1528 126.052 70.0939 126.169 70.0939C127.08 70.0939 127.99 70.0939 128.901 70.0939C129.224 70.0939 129.253 70.0054 129.136 69.7402C128.754 68.679 128.372 67.6179 127.99 66.5568C127.873 66.1441 127.726 65.7314 127.579 65.2598Z" fill="#747678"/>
<path d="M160.472 74.3384C159.973 74.3384 159.474 74.3384 159.004 74.3384C158.798 74.3384 158.798 74.191 158.74 74.0731C158.417 73.2477 158.123 72.4519 157.829 71.6266C157.741 71.4202 157.653 71.3318 157.418 71.3318C156.155 71.3318 154.892 71.3318 153.659 71.3318C153.453 71.3318 153.336 71.3908 153.277 71.5971C152.983 72.3929 152.69 73.2183 152.396 74.0141C152.308 74.2499 152.19 74.3384 151.955 74.3089C151.544 74.2794 151.133 74.3089 150.663 74.3089C150.839 73.8373 150.986 73.4246 151.162 73.0119C152.396 69.7696 153.629 66.4977 154.863 63.2554C154.951 62.9901 155.068 62.9312 155.333 62.9312C156.096 62.9606 156.096 62.9312 156.361 63.6386C157.682 67.0578 159.004 70.5065 160.326 73.9257C160.384 74.0731 160.443 74.191 160.472 74.3384ZM155.597 65.3777C155.48 65.4071 155.48 65.4956 155.48 65.5545C155.215 66.2914 154.98 67.0283 154.716 67.7357C154.452 68.4432 154.217 69.1506 153.952 69.858C153.923 69.9464 153.806 70.0938 154.041 70.0938C155.098 70.0938 156.155 70.0938 157.271 70.0938C156.684 68.5021 156.155 66.9399 155.597 65.3777Z" fill="#747678"/>
<path d="M201.383 64.8473C200.62 64.4641 199.856 64.2283 199.063 64.2283C198.799 64.2283 198.534 64.2283 198.27 64.2872C197.683 64.4051 197.213 64.6999 197.066 65.3189C196.919 65.9674 197.095 66.4979 197.595 66.9401C198.035 67.3527 198.564 67.618 199.092 67.9128C199.709 68.237 200.326 68.5907 200.884 69.0329C201.824 69.8582 202.147 70.9193 201.882 72.1278C201.618 73.2774 200.825 73.9848 199.739 74.2796C198.241 74.7217 196.772 74.5154 195.363 73.7785C195.128 73.6606 195.039 73.5427 195.216 73.3069C195.363 73.1006 195.48 72.8647 195.568 72.6289C195.656 72.4226 195.774 72.4226 195.95 72.5405C196.89 73.1006 197.918 73.3069 199.004 73.0711C199.592 72.9532 200.091 72.6289 200.267 72.0099C200.473 71.3615 200.297 70.772 199.856 70.2709C199.386 69.7698 198.799 69.475 198.241 69.1802C197.565 68.8265 196.919 68.4728 196.361 67.9717C195.245 66.9401 195.128 65.201 196.067 64.0514C196.655 63.344 197.418 63.0198 198.299 62.9313C199.269 62.8134 200.238 62.9608 201.178 63.3145C201.383 63.4029 201.471 63.4914 201.442 63.7272C201.354 64.0514 201.383 64.4051 201.383 64.8473Z" fill="#747678"/>
<path d="M146.199 62.8723C147.021 62.8723 147.755 63.0197 148.49 63.285C148.725 63.3734 148.813 63.4913 148.783 63.7271C148.754 63.9924 148.754 64.2577 148.783 64.5524C148.783 64.8177 148.725 64.8177 148.519 64.7293C147.697 64.3166 146.816 64.1693 145.876 64.2577C144.995 64.3461 144.466 64.8177 144.407 65.6431C144.378 66.1147 144.554 66.5273 144.877 66.881C145.259 67.2642 145.7 67.5295 146.17 67.7653C146.845 68.119 147.521 68.4727 148.108 68.9444C149.106 69.7402 149.488 70.8014 149.253 72.0393C149.018 73.2184 148.255 73.9258 147.139 74.25C145.582 74.6922 144.114 74.5153 142.675 73.749C142.44 73.631 142.44 73.5131 142.557 73.3068C142.733 73.0415 142.821 72.6289 143.056 72.4815C143.291 72.3341 143.585 72.7173 143.879 72.8057C144.701 73.13 145.523 73.2479 146.375 73.0415C147.726 72.7468 148.137 71.3024 147.197 70.2708C146.757 69.7697 146.17 69.5044 145.612 69.1802C145.054 68.8854 144.525 68.5907 144.026 68.2075C142.998 67.4411 142.557 66.4094 142.851 65.142C143.145 63.845 144.055 63.1671 145.288 62.9018C145.612 62.9018 145.935 62.8723 146.199 62.8723Z" fill="#747678"/>
<path d="M137.623 62.8723C138.387 62.8723 139.121 63.0197 139.826 63.285C140.031 63.3734 140.119 63.4618 140.119 63.6976C140.09 63.9335 140.09 64.1987 140.119 64.4345C140.149 64.7293 140.09 64.8177 139.767 64.6703C139.003 64.2872 138.181 64.1398 137.3 64.1987C136.536 64.2577 135.978 64.6409 135.802 65.2009C135.597 65.8494 135.832 66.4979 136.448 66.999C137.036 67.4706 137.741 67.7948 138.387 68.1485C138.886 68.4433 139.385 68.738 139.796 69.1802C141.353 70.7424 140.854 73.2773 138.798 74.1027C137.153 74.7511 135.538 74.5448 133.981 73.69C133.805 73.6016 133.776 73.5131 133.893 73.3363C134.04 73.1005 134.187 72.8352 134.304 72.5994C134.393 72.3931 134.481 72.3931 134.686 72.511C135.45 72.9826 136.302 73.1889 137.212 73.13C137.476 73.1005 137.711 73.071 137.976 72.9826C139.092 72.5994 139.444 71.3319 138.71 70.4182C138.387 70.035 137.976 69.7697 137.564 69.5044C136.83 69.0917 136.067 68.738 135.391 68.2075C134.363 67.4116 133.952 66.3505 134.275 65.083C134.598 63.8155 135.509 63.1965 136.713 62.9313C136.977 62.8723 137.3 62.8723 137.623 62.8723Z" fill="#747678"/>
<path d="M182.44 68.6791C182.44 69.6813 182.264 70.5655 181.765 71.4203C180.414 73.7784 176.625 73.749 175.245 71.4203C174.246 69.7107 174.364 67.0579 175.539 65.5841C177.271 63.4324 180.854 63.8745 181.97 66.4094C182.293 67.1463 182.44 67.9127 182.44 68.6791Z" fill="#FEFEFE"/>
<path d="M164.055 68.6497C164.055 67.3528 164.055 66.0263 164.055 64.7294C164.055 64.1694 163.997 64.2578 164.555 64.2578C165.289 64.2578 166.023 64.2578 166.757 64.4052C168.637 64.8473 169.753 66.1737 169.87 68.1191C169.929 69.3571 169.782 70.5362 168.989 71.5678C168.284 72.4816 167.286 72.8648 166.199 73.0121C165.582 73.0711 164.995 73.0711 164.378 73.0711C164.143 73.0711 164.055 72.9827 164.055 72.7469C164.055 71.391 164.055 70.0056 164.055 68.6497Z" fill="#FEFEFE"/>
<path d="M115.89 71.096C115.89 70.536 115.89 69.9759 115.89 69.4454C115.89 69.3275 115.861 69.2096 116.066 69.2096C116.771 69.239 117.476 69.1506 118.181 69.2685C119.297 69.4748 119.884 70.1823 119.855 71.2729C119.826 72.2751 119.15 72.953 118.063 73.0414C117.447 73.1004 116.801 73.0709 116.154 73.0709C115.919 73.0709 115.919 72.953 115.919 72.7762C115.89 72.1866 115.89 71.6266 115.89 71.096Z" fill="#FEFEFE"/>
<path d="M115.89 66.1147C115.89 65.5841 115.89 65.083 115.89 64.5525C115.89 64.4346 115.861 64.2872 116.066 64.2872C116.624 64.2872 117.182 64.2282 117.74 64.3462C118.71 64.5525 119.15 65.142 119.121 66.2031C119.091 67.0579 118.533 67.7064 117.623 67.8538C117.124 67.9422 116.595 67.8833 116.066 67.9127C115.89 67.9127 115.861 67.8243 115.861 67.6769C115.89 67.1464 115.89 66.6158 115.89 66.1147Z" fill="#FEFEFE"/>
<path d="M187.609 66.2916C187.609 65.7021 187.609 65.142 187.609 64.5525C187.609 64.2872 187.697 64.2283 187.962 64.2283C188.49 64.2577 189.048 64.1988 189.577 64.3757C190.487 64.6409 190.957 65.2599 190.987 66.2032C191.016 67.1464 190.575 67.8538 189.694 68.1781C189.078 68.4139 188.431 68.3254 187.785 68.3549C187.58 68.3549 187.639 68.178 187.639 68.0601C187.609 67.4706 187.609 66.8811 187.609 66.2916Z" fill="#FEFEFE"/>
<path d="M93.9808 65.2893C94.5388 66.8515 95.0675 68.3548 95.5961 69.8581C95.6842 70.0644 95.6255 70.0939 95.4199 70.0939C94.392 70.0939 93.3641 70.0939 92.248 70.0939C92.8354 68.4727 93.3934 66.9105 93.9808 65.2893Z" fill="#FEFEFE"/>
<path d="M127.579 65.2598C127.726 65.7314 127.873 66.144 128.02 66.5272C128.401 67.5884 128.754 68.6495 129.165 69.7106C129.282 70.0054 129.224 70.0644 128.93 70.0644C128.02 70.0349 127.109 70.0644 126.199 70.0644C126.081 70.0644 125.876 70.1528 125.964 69.858C126.463 68.3842 126.992 66.8515 127.579 65.2598Z" fill="#FEFEFE"/>
<path d="M155.597 65.3777C156.155 66.9399 156.684 68.5021 157.271 70.0938C156.155 70.0938 155.098 70.0938 154.04 70.0938C153.805 70.0938 153.923 69.9465 153.952 69.858C154.217 69.1506 154.452 68.4432 154.716 67.7358C154.98 66.9989 155.215 66.262 155.48 65.5545C155.48 65.4661 155.48 65.4072 155.597 65.3777Z" fill="#FEFEFE"/>
</svg>
