<svg width="296" height="146" viewBox="0 0 296 146" fill="none" xmlns="http://www.w3.org/2000/svg">
<path d="M0 0H296V146H0V0Z" fill="#00546C"/>
<g clip-path="url(#clip0)">
<path d="M74.4649 85.7747C75.2546 86.1585 76.2051 85.8297 76.5889 85.0399C76.9726 84.2502 76.6438 83.2997 75.8541 82.9159C75.0643 82.5322 74.1139 82.861 73.7301 83.6507C73.3474 84.4394 73.6762 85.3909 74.4649 85.7747Z" fill="white"/>
<path d="M87.1029 81.478L74.8179 87.1131L68.1721 82.0436L74.1592 90.5681L87.1029 81.478Z" fill="white"/>
<path d="M81.6223 90.9181C80.8326 90.5344 79.8821 90.8632 79.4983 91.6529C79.1146 92.4427 79.4434 93.3931 80.2331 93.7769C81.0229 94.1607 81.9733 93.8319 82.3571 93.0421C82.7409 92.2534 82.4121 91.3019 81.6223 90.9181Z" fill="white"/>
<path d="M83.795 104.29L78.161 92.0049L83.2294 85.3602L74.705 91.3463L83.795 104.29Z" fill="white"/>
<path d="M73.6381 96.644C72.8483 96.2602 71.8979 96.589 71.5141 97.3787C71.1303 98.1685 71.4591 99.1189 72.2489 99.5027C73.0386 99.8865 73.9891 99.5577 74.3728 98.7679C74.7555 97.9782 74.4267 97.0277 73.6381 96.644Z" fill="white"/>
<path d="M61 100.941L73.2861 95.3057L79.9308 100.375L73.9447 91.8507L61 100.941Z" fill="white"/>
<path d="M66.5813 91.5662C67.371 91.95 68.3215 91.6212 68.7052 90.8314C69.089 90.0417 68.7602 89.0912 67.9705 88.7074C67.1807 88.3237 66.2303 88.6525 65.8465 89.4422C65.4627 90.232 65.7915 91.1824 66.5813 91.5662Z" fill="white"/>
<path d="M64.4086 78.1943L70.0436 90.4793L64.9742 97.1251L73.4986 91.1391L64.4086 78.1943Z" fill="white"/>
<path d="M90.447 90.3842C90.447 87.6027 92.5773 85.5918 95.4393 85.5918C96.9574 85.5918 98.261 86.1373 99.1269 87.1491L98.0083 88.2011C97.3296 87.4684 96.4901 87.11 95.5186 87.11C93.5881 87.11 92.1904 88.4675 92.1904 90.3842C92.1904 92.301 93.5881 93.6596 95.5186 93.6596C96.4901 93.6596 97.3285 93.3001 98.0083 92.5548L99.1269 93.6194C98.2621 94.6312 96.9574 95.1767 95.4266 95.1767C92.5773 95.1756 90.447 93.1658 90.447 90.3842Z" fill="white"/>
<path d="M99.9135 91.4892C99.9135 89.3588 101.511 87.8555 103.694 87.8555C105.904 87.8555 107.487 89.3599 107.487 91.4892C107.487 93.6195 105.904 95.1366 103.694 95.1366C101.511 95.1366 99.9135 93.6184 99.9135 91.4892ZM105.811 91.4892C105.811 90.1306 104.906 89.2658 103.694 89.2658C102.496 89.2658 101.591 90.1306 101.591 91.4892C101.591 92.8466 102.496 93.7125 103.694 93.7125C104.906 93.7115 105.811 92.8466 105.811 91.4892Z" fill="white"/>
<path d="M121.107 90.97V95.0436H119.443V91.1836C119.443 89.9192 118.857 89.307 117.845 89.307C116.754 89.307 115.995 90.0259 115.995 91.4373V95.0446H114.331V91.1847C114.331 89.9202 113.745 89.3081 112.733 89.3081C111.629 89.3081 110.883 90.027 110.883 91.4384V95.0457H109.22V87.9379H110.804V88.8429C111.337 88.2043 112.161 87.8576 113.133 87.8576C114.171 87.8576 115.037 88.2434 115.529 89.0427C116.102 88.31 117.06 87.8576 118.191 87.8576C119.909 87.8544 121.107 88.826 121.107 90.97Z" fill="white"/>
<path d="M130.92 91.4892C130.92 93.6989 129.389 95.1367 127.313 95.1367C126.408 95.1367 125.608 94.8301 125.036 94.1778V97.6254H123.372V87.9348H124.956V88.8663C125.515 88.1875 126.34 87.8545 127.313 87.8545C129.389 87.8545 130.92 89.2923 130.92 91.4892ZM129.229 91.4892C129.229 90.1307 128.324 89.2659 127.127 89.2659C125.929 89.2659 125.01 90.1307 125.01 91.4892C125.01 92.8467 125.929 93.7126 127.127 93.7126C128.324 93.7115 129.229 92.8467 129.229 91.4892Z" fill="white"/>
<path d="M139.521 87.9349V95.0426H137.937V94.1376C137.404 94.79 136.566 95.1357 135.647 95.1357C133.823 95.1357 132.585 94.1376 132.585 91.9936V87.9338H134.249V91.7673C134.249 93.0582 134.861 93.6703 135.913 93.6703C137.071 93.6703 137.856 92.9514 137.856 91.5273V87.9327H139.521V87.9349Z" fill="white"/>
<path d="M146.111 94.6566C145.712 94.9759 145.113 95.1355 144.514 95.1355C142.956 95.1355 142.064 94.3098 142.064 92.7398V89.3186H140.893V87.9876H142.064V86.3636H143.728V87.9876H145.632V89.3186H143.728V92.6996C143.728 93.3921 144.074 93.7643 144.714 93.7643C145.06 93.7643 145.392 93.6712 145.645 93.4714L146.111 94.6566Z" fill="white"/>
<path d="M147.391 85.7643C147.391 85.205 147.843 84.7662 148.455 84.7662C149.067 84.7662 149.52 85.1786 149.52 85.7241C149.52 86.3098 149.081 86.7623 148.455 86.7623C147.843 86.7633 147.391 86.3235 147.391 85.7643ZM147.617 87.9348H149.281V95.0425H147.617V87.9348Z" fill="white"/>
<path d="M158.599 90.9701V95.0436H156.935V91.1837C156.935 89.9192 156.309 89.3071 155.245 89.3071C154.059 89.3071 153.261 90.026 153.261 91.4501V95.0447H151.597V87.9369H153.181V88.8546C153.726 88.2023 154.592 87.8566 155.631 87.8566C157.335 87.8545 158.599 88.826 158.599 90.9701Z" fill="white"/>
<path d="M167.973 87.9348V93.9642C167.973 96.547 166.628 97.7184 164.139 97.7184C162.808 97.7184 161.49 97.3717 160.678 96.7067L161.423 95.4549C162.049 95.974 163.061 96.307 164.045 96.307C165.616 96.307 166.309 95.5881 166.309 94.1503V93.7781C165.723 94.4167 164.883 94.7233 163.926 94.7233C161.889 94.7233 160.331 93.3394 160.331 91.2757C160.331 89.212 161.888 87.8545 163.926 87.8545C164.924 87.8545 165.802 88.1738 166.388 88.88V87.9348H167.973ZM166.335 91.2757C166.335 90.0778 165.43 89.2659 164.178 89.2659C162.914 89.2659 162.009 90.0778 162.009 91.2757C162.009 92.4873 162.914 93.3119 164.178 93.3119C165.43 93.313 166.335 92.4873 166.335 91.2757Z" fill="white"/>
<path d="M179.609 90.7037V95.0436H178.704V93.9525C178.277 94.6714 177.452 95.1102 176.294 95.1102C174.71 95.1102 173.739 94.2845 173.739 93.074C173.739 91.9956 174.431 91.0906 176.441 91.0906H178.664V90.6645C178.664 89.4667 177.986 88.8144 176.681 88.8144C175.776 88.8144 174.924 89.1337 174.352 89.6401L173.926 88.9349C174.631 88.3355 175.67 87.9897 176.774 87.9897C178.584 87.9876 179.609 88.8926 179.609 90.7037ZM178.663 92.9397V91.7947H176.466C175.109 91.7947 174.669 92.3265 174.669 93.0465C174.669 93.8584 175.321 94.3638 176.44 94.3638C177.506 94.3638 178.291 93.8584 178.663 92.9397Z" fill="white"/>
<path d="M185.999 94.6165C185.626 94.9495 185.067 95.1091 184.521 95.1091C183.203 95.1091 182.471 94.3638 182.471 93.0729V88.8398H181.221V88.0405H182.471V86.5096H183.417V88.0405H185.547V88.8398H183.417V93.019C183.417 93.8447 183.843 94.2972 184.628 94.2972C185.014 94.2972 185.4 94.1777 185.666 93.9377L185.999 94.6165Z" fill="white"/>
<path d="M190.779 93.9112L191.165 93.1521C191.831 93.8044 193.015 94.2834 194.241 94.2834C195.984 94.2834 196.743 93.5507 196.743 92.633C196.743 90.0777 191.005 91.6477 191.005 88.2001C191.005 86.8288 192.07 85.6437 194.439 85.6437C195.491 85.6437 196.582 85.9503 197.328 86.4694L196.995 87.2549C196.195 86.7358 195.264 86.4831 194.439 86.4831C192.735 86.4831 191.977 87.2422 191.977 88.1736C191.977 90.729 197.715 89.1854 197.715 92.5802C197.715 93.9514 196.624 95.1228 194.241 95.1228C192.843 95.1228 191.472 94.6301 190.779 93.9112Z" fill="white"/>
<path d="M199.088 91.5421C199.088 89.4519 200.605 87.9877 202.695 87.9877C203.88 87.9877 204.878 88.4539 205.438 89.3716L204.732 89.8516C204.254 89.1464 203.508 88.8134 202.696 88.8134C201.165 88.8134 200.047 89.9044 200.047 91.5421C200.047 93.1924 201.165 94.2708 202.696 94.2708C203.508 94.2708 204.254 93.9515 204.732 93.2463L205.438 93.7253C204.878 94.6302 203.88 95.1102 202.695 95.1102C200.605 95.1092 199.088 93.6322 199.088 91.5421Z" fill="white"/>
<path d="M213.758 90.9827V95.0425H212.813V91.0758C212.813 89.5988 212.041 88.8397 210.71 88.8397C209.206 88.8397 208.26 89.7711 208.26 91.3686V95.0425H207.315V85.1648H208.26V89.2647C208.78 88.4528 209.698 87.9865 210.882 87.9865C212.587 87.9876 213.758 88.9729 213.758 90.9827Z" fill="white"/>
<path d="M215.783 91.5421C215.783 89.4657 217.3 87.9877 219.35 87.9877C221.4 87.9877 222.904 89.4646 222.904 91.5421C222.904 93.6195 221.4 95.1092 219.35 95.1092C217.3 95.1092 215.783 93.6185 215.783 91.5421ZM221.945 91.5421C221.945 89.9044 220.84 88.8134 219.35 88.8134C217.859 88.8134 216.741 89.9044 216.741 91.5421C216.741 93.1797 217.859 94.2708 219.35 94.2708C220.842 94.2708 221.945 93.1797 221.945 91.5421Z" fill="white"/>
<path d="M224.264 91.5421C224.264 89.4657 225.781 87.9877 227.831 87.9877C229.881 87.9877 231.385 89.4646 231.385 91.5421C231.385 93.6195 229.881 95.1092 227.831 95.1092C225.781 95.1092 224.264 93.6185 224.264 91.5421ZM230.427 91.5421C230.427 89.9044 229.323 88.8134 227.832 88.8134C226.341 88.8134 225.223 89.9044 225.223 91.5421C225.223 93.1797 226.341 94.2708 227.832 94.2708C229.323 94.2708 230.427 93.1797 230.427 91.5421Z" fill="white"/>
<path d="M233.45 85.1659H234.395V95.0436H233.45V85.1659Z" fill="white"/>
<path d="M86.6664 63.2769C86.6664 68.099 82.8403 70.8879 75.5084 70.8879H61.0814V42.9929H74.7102C81.6837 42.9929 85.2708 45.9024 85.2708 50.2455C85.2708 53.0355 83.8362 55.187 81.5652 56.3827C84.6735 57.3786 86.6664 59.7701 86.6664 63.2769ZM67.4977 47.8541V54.429H73.9141C77.0625 54.429 78.7752 53.3136 78.7752 51.122C78.7752 48.9303 77.0615 47.8541 73.9141 47.8541H67.4977ZM80.1697 62.5992C80.1697 60.248 78.3766 59.1326 75.0295 59.1326H67.4977V66.0268H75.0295C78.3766 66.0257 80.1697 64.9896 80.1697 62.5992Z" fill="white"/>
<path d="M109.61 58.6536V70.8879H103.791V68.2183C102.636 70.1711 100.404 71.2071 97.2567 71.2071C92.2359 71.2071 89.2461 68.4171 89.2461 64.7115C89.2461 60.9256 91.9156 58.2952 98.4514 58.2952H103.393C103.393 55.6257 101.799 54.0716 98.4514 54.0716C96.1805 54.0716 93.8292 54.8285 92.274 56.0644L90.0422 51.7203C92.3935 50.0467 95.8601 49.1301 99.2876 49.1301C105.824 49.129 109.61 52.158 109.61 58.6536ZM103.393 64.1131V61.9215H99.1291C96.2196 61.9215 95.303 62.9977 95.303 64.4324C95.303 65.9865 96.6181 67.0226 98.8098 67.0226C100.883 67.0226 102.676 66.0658 103.393 64.1131Z" fill="white"/>
<path d="M127.481 49.129V54.8677C126.963 54.8275 126.564 54.7884 126.086 54.7884C122.659 54.7884 120.388 56.6618 120.388 60.7659V70.8879H114.171V49.4483H120.11V52.2775C121.623 50.2053 124.173 49.129 127.481 49.129Z" fill="white"/>
<path d="M151.151 61.9215H134.931C135.528 64.5921 137.8 66.2255 141.068 66.2255C143.34 66.2255 144.974 65.5478 146.448 64.1533L149.757 67.7395C147.764 70.0104 144.775 71.2061 140.91 71.2061C133.497 71.2061 128.675 66.5437 128.675 60.1676C128.675 53.7523 133.577 49.129 140.112 49.129C146.408 49.129 151.27 53.3537 151.27 60.2479C151.27 60.7258 151.19 61.4035 151.151 61.9215ZM134.852 58.2952H145.412C144.974 55.5855 142.942 53.8316 140.152 53.8316C137.322 53.8316 135.289 55.5454 134.852 58.2952Z" fill="white"/>
<path d="M161.613 49.9262H167.113V54.7081H161.773V70.8879H155.556V54.7081H152.248V49.9262H155.556V48.9694C155.556 44.1474 158.505 40.999 163.845 40.999C165.599 40.999 167.432 41.3574 168.588 42.1545L166.953 46.6573C166.276 46.1794 165.399 45.9003 164.444 45.9003C162.61 45.9003 161.614 46.8962 161.614 49.0085V49.9262H161.613Z" fill="white"/>
<path d="M167.964 60.1676C167.964 53.7121 172.946 49.129 179.76 49.129C186.575 49.129 191.516 53.7121 191.516 60.1676C191.516 66.623 186.575 71.2061 179.76 71.2061C172.946 71.2072 167.964 66.6241 167.964 60.1676ZM185.22 60.1676C185.22 56.462 182.869 54.2302 179.761 54.2302C176.652 54.2302 174.261 56.462 174.261 60.1676C174.261 63.8742 176.652 66.106 179.761 66.106C182.869 66.106 185.22 63.8742 185.22 60.1676Z" fill="white"/>
<path d="M193.427 60.1676C193.427 53.7121 198.409 49.129 205.223 49.129C212.038 49.129 216.979 53.7121 216.979 60.1676C216.979 66.623 212.038 71.2061 205.223 71.2061C198.408 71.2072 193.427 66.6241 193.427 60.1676ZM210.683 60.1676C210.683 56.462 208.331 54.2302 205.223 54.2302C202.115 54.2302 199.723 56.462 199.723 60.1676C199.723 63.8742 202.115 66.106 205.223 66.106C208.331 66.106 210.683 63.8742 210.683 60.1676Z" fill="white"/>
<path d="M234.292 69.8518C233.017 70.7684 231.143 71.2072 229.231 71.2072C224.17 71.2072 221.22 68.6169 221.22 63.5158V54.7091H217.912V49.9262H221.22V44.7056H227.437V49.9262H232.777V54.708H227.437V63.4355C227.437 65.2687 228.432 66.2646 230.107 66.2646C231.024 66.2646 231.94 65.9855 232.617 65.4675L234.292 69.8518Z" fill="white"/>
</g>
<defs>
<clipPath id="clip0">
<rect width="173.395" height="63.29" fill="white" transform="translate(61 41)"/>
</clipPath>
</defs>
</svg>
