<svg width="296" height="146" viewBox="0 0 296 146" fill="none" xmlns="http://www.w3.org/2000/svg">
<rect width="296" height="146" fill="#64BE5B"/>
<path d="M205.585 72.7925C205.585 104.708 179.71 130.585 147.793 130.585C115.874 130.585 90 104.708 90 72.7925C90 40.8736 115.874 15 147.793 15C179.71 15 205.585 40.8736 205.585 72.7925Z" fill="white"/>
<path d="M118.961 96.2213C118.961 97.0819 118.751 97.7727 117.896 97.7959V97.8113C117.436 97.848 118.006 97.8634 117.637 97.8634C114.741 97.8634 112.694 97.2247 111.493 95.9531C110.293 94.6777 109.695 92.5223 109.695 89.4756V79.0964C109.695 77.4543 109.454 76.2329 108.971 75.4302C108.497 74.6333 107.665 74.0622 106.482 73.7091C106.181 73.5912 105.921 73.3854 105.738 73.1184C105.555 72.8515 105.456 72.5356 105.454 72.2117C105.454 71.5344 105.869 70.9594 106.453 70.7144C108.614 70.1393 109.695 68.4433 109.695 65.6203V54.5484C109.695 51.7969 110.311 49.8152 111.549 48.5957C112.784 47.3782 114.814 46.7703 117.637 46.7703H117.896V46.7723C118.781 46.7761 119.021 47.4959 119.021 48.3796C119.021 49.2653 118.781 49.491 117.896 49.4968V49.5142C115.773 49.5528 114.345 49.9136 113.606 50.5947C112.867 51.2778 112.499 52.5976 112.499 54.5523V65.8403C112.499 67.1138 112.333 68.285 111.999 69.3521C111.613 70.5561 110.621 71.5518 109.037 72.3448C110.309 73.026 111.204 73.8557 111.721 74.834C112.236 75.8142 112.497 77.1996 112.497 78.9883V89.8634C112.497 91.9647 112.846 93.3598 113.548 94.0525C114.249 94.7471 115.698 95.1022 117.892 95.1176V95.1408C118.751 95.1601 118.961 95.3588 118.961 96.2213ZM177.689 95.1369V95.1138C179.881 95.0983 181.33 94.7452 182.031 94.0486C182.735 93.3578 183.086 91.9608 183.086 89.8595V78.9864C183.086 77.1958 183.345 75.8104 183.858 74.8321C184.377 73.8538 185.27 73.026 186.544 72.3429C184.958 71.5499 183.968 70.5523 183.58 69.3502C183.239 68.2112 183.073 67.0272 183.086 65.8383V54.5504C183.086 52.5938 182.718 51.2759 181.973 50.5947C181.24 49.9117 179.808 49.5508 177.689 49.5103V49.493C176.802 49.4872 176.082 49.2653 176.082 48.3796C176.082 47.492 176.802 46.7723 177.689 46.7684V46.7665H177.946C180.769 46.7665 182.801 47.3743 184.036 48.5919C185.272 49.8133 185.892 51.7969 185.892 54.5446V65.6164C185.892 68.4394 186.972 70.1355 189.132 70.7105C189.43 70.8325 189.685 71.0414 189.864 71.3101C190.043 71.5788 190.137 71.895 190.133 72.2177C190.13 72.5403 190.03 72.8546 189.847 73.1199C189.663 73.3851 189.404 73.589 189.103 73.7052C187.922 74.0583 187.088 74.6295 186.612 75.4264C186.131 76.2291 185.894 77.4524 185.894 79.0925V89.4717C185.894 92.5185 185.29 94.6738 184.092 95.9493C182.893 97.2208 180.84 97.8595 177.946 97.8595C177.575 97.8595 178.146 97.8422 177.689 97.8074V97.792C176.831 97.7669 176.142 97.0781 176.142 96.2175C176.142 95.3569 176.831 95.1601 177.689 95.1369Z" fill="#339933"/>
<path d="M139.964 67.376C141.645 67.376 143.077 66.7894 144.265 65.6162C145.454 64.443 146.046 63.0325 146.046 61.3847C146.046 59.7465 145.45 58.3456 144.259 57.1782C143.067 56.0128 141.637 55.4281 139.964 55.4281C138.291 55.4281 136.861 56.0108 135.677 57.1744C135.106 57.7153 134.654 58.3687 134.348 59.0935C134.043 59.8182 133.892 60.5984 133.903 61.3847C133.903 63.0325 134.496 64.443 135.677 65.6162C136.235 66.1849 136.903 66.6342 137.64 66.9367C138.377 67.2392 139.168 67.3887 139.964 67.376ZM137.521 58.938C138.195 58.2568 139.007 57.9192 139.964 57.9192C140.929 57.9192 141.743 58.2568 142.413 58.9341C143.082 59.6114 143.418 60.4237 143.418 61.3847C143.418 62.361 143.082 63.1869 142.413 63.8603C142.097 64.1891 141.716 64.449 141.295 64.6237C140.873 64.7983 140.42 64.884 139.964 64.8753C139.007 64.8753 138.195 64.5376 137.521 63.8603C137.194 63.5425 136.935 63.1609 136.761 62.739C136.586 62.3172 136.501 61.8642 136.508 61.4078C136.508 60.445 136.848 59.6191 137.521 58.938ZM169.255 58.0755C170.913 58.0755 171.995 58.8106 172.373 60.1671H166.195C166.685 58.8106 167.744 58.0755 169.255 58.0755ZM173.44 79.3046C172.927 78.7518 172.303 78.3136 171.609 78.0186C170.914 77.7237 170.166 77.5787 169.411 77.593C168.1 77.5685 166.829 78.0541 165.869 78.9476V74.8839C165.85 74.5447 165.703 74.2254 165.456 73.9918C165.209 73.7582 164.883 73.6279 164.543 73.6279C164.203 73.6279 163.877 73.7582 163.63 73.9918C163.383 74.2254 163.236 74.5447 163.217 74.8839V88.306C163.217 88.9891 163.777 89.5467 164.46 89.5467C165.143 89.5467 165.697 88.991 165.701 88.306H165.714V87.9471C166.256 88.5376 166.872 88.9563 167.551 89.1994C168.171 89.429 168.804 89.5448 169.454 89.5448C171.042 89.5448 172.375 88.964 173.456 87.8043C174.538 86.6466 175.078 85.2206 175.078 83.5323C175.08 81.8535 174.532 80.445 173.44 79.3046ZM171.352 85.9269C171.053 86.2398 170.691 86.4869 170.29 86.6523C169.889 86.8177 169.459 86.8979 169.025 86.8878C168.595 86.8982 168.167 86.8212 167.767 86.6613C167.367 86.5015 167.003 86.2621 166.698 85.9577C166.391 85.6568 166.148 85.2958 165.986 84.8971C165.824 84.4983 165.746 84.0706 165.757 83.6403C165.757 82.6389 166.062 81.8207 166.666 81.1878C167.269 80.5607 168.059 80.2404 169.027 80.2404C169.95 80.2404 170.723 80.5607 171.351 81.1936C171.974 81.8285 172.29 82.6119 172.29 83.5535C172.288 84.497 171.978 85.2901 171.352 85.9269ZM158.338 78.9553V88.3041C158.333 88.6361 158.197 88.9528 157.96 89.1852C157.723 89.4176 157.404 89.5469 157.072 89.5448C156.739 89.5474 156.42 89.4179 156.183 89.185C155.946 88.952 155.811 88.6345 155.808 88.3022C155.808 88.2558 155.816 88.2153 155.819 88.1729V87.6577C155.588 87.9626 155.403 88.1883 155.268 88.335C154.529 89.1415 153.471 89.5448 152.093 89.5448C151.233 89.555 150.382 89.3557 149.616 88.964C148.873 88.5704 148.329 88.0571 147.982 87.4049C147.673 86.828 147.486 86.1275 147.418 85.2882C147.386 84.5509 147.374 83.8129 147.383 83.075V78.9553C147.383 78.2259 147.985 77.6336 148.734 77.6336C149.479 77.6336 150.081 78.2259 150.081 78.9553C150.08 79.0279 150.072 79.1003 150.058 79.1714V83.073C150.058 83.8468 150.067 84.3195 150.081 84.4797C150.081 85.0161 150.185 85.4966 150.388 85.9288C150.731 86.6755 151.457 87.0479 152.557 87.0479C154.61 87.0479 155.642 85.7223 155.642 83.0711V78.9515C155.642 78.2221 156.244 77.6297 156.989 77.6297C157.734 77.6297 158.338 78.2259 158.338 78.9553ZM159.094 51.5381C158.923 51.5388 158.753 51.5734 158.595 51.6398C158.437 51.7063 158.294 51.8032 158.174 51.9251C158.054 52.0471 157.959 52.1915 157.894 52.3503C157.83 52.509 157.798 52.6789 157.799 52.8502V56.7807C157.17 56.2424 156.553 55.8719 155.937 55.6732C155.406 55.5071 154.852 55.4245 154.295 55.4281C152.709 55.4281 151.376 55.9992 150.305 57.1377C149.232 58.2684 148.697 59.6809 148.697 61.3673C148.697 63.0557 149.226 64.4797 150.297 65.6394C151.366 66.799 152.676 67.376 154.233 67.376C155.524 67.376 156.589 67.0152 157.438 66.2916C157.62 66.1411 157.784 65.9702 157.927 65.7822V66.0465H157.942V66.0484C157.942 66.7315 158.488 67.2872 159.165 67.2872C159.843 67.2872 160.393 66.7296 160.393 66.0484V52.8483C160.394 52.5025 160.257 52.1704 160.014 51.9248C159.771 51.6792 159.44 51.5401 159.094 51.5381ZM156.968 63.7735C156.356 64.4044 155.586 64.719 154.658 64.719C153.766 64.719 153.004 64.4044 152.383 63.7677C152.079 63.4602 151.841 63.0949 151.681 62.6936C151.521 62.2922 151.444 61.8629 151.453 61.431C151.453 60.4778 151.763 59.6809 152.379 59.0402C152.996 58.3977 153.757 58.0774 154.658 58.0774C155.615 58.0774 156.391 58.3881 156.989 59.0074C157.587 59.6288 157.886 60.4257 157.886 61.4098C157.884 62.3514 157.579 63.1425 156.968 63.7735ZM144.084 87.9336C144.084 88.5993 143.544 89.1415 142.878 89.1415H136.203C135.883 89.1415 135.575 89.0142 135.349 88.7874C135.122 88.5607 134.995 88.2533 134.995 87.9326C134.995 87.612 135.122 87.3045 135.349 87.0778C135.575 86.8511 135.883 86.7238 136.203 86.7238H138.247V76.4527H136.203V76.443C135.883 76.443 135.576 76.3159 135.35 76.0895C135.124 75.8632 134.996 75.5562 134.996 75.2361C134.996 74.916 135.124 74.609 135.35 74.3826C135.576 74.1563 135.883 74.0291 136.203 74.0291H139.669C140.335 74.0291 140.875 74.5713 140.875 75.2351C140.875 75.2544 140.871 75.2737 140.869 75.2911H140.873V86.7238H142.88C143.542 86.7238 144.084 87.266 144.084 87.9336ZM124.07 81.1184C123.447 81.7717 123.101 82.6408 123.104 83.5438C123.104 84.4276 123.428 85.3055 124.07 85.9751C124.37 86.2924 124.732 86.5452 125.133 86.7179C125.534 86.8907 125.966 86.9798 126.403 86.9798C126.84 86.9798 127.272 86.8907 127.673 86.7179C128.074 86.5452 128.436 86.2924 128.736 85.9751C129.218 85.4753 130.314 85.4753 130.833 85.9751C131.354 86.4768 131.354 87.2891 130.833 87.787C129.653 88.9201 128.078 89.5497 126.442 89.5429C124.805 89.5496 123.229 88.92 122.048 87.787C121.474 87.2397 121.017 86.5817 120.705 85.8528C120.393 85.1238 120.232 84.3392 120.232 83.5462C120.232 82.7532 120.392 81.9685 120.704 81.2394C121.016 80.5103 121.473 79.8521 122.046 79.3046C124.47 76.9659 128.414 76.9659 130.833 79.3046C131.354 79.8063 131.354 80.6167 130.833 81.1184C130.316 81.6181 129.218 81.6181 128.736 81.1184C128.436 80.8011 128.074 80.5483 127.673 80.3756C127.272 80.2028 126.84 80.1137 126.403 80.1137C125.966 80.1137 125.534 80.2028 125.133 80.3756C124.732 80.5483 124.37 80.8011 124.07 81.1184ZM124.03 58.9553C123.393 59.6249 123.075 60.5009 123.075 61.3808C123.075 62.2607 123.395 63.1406 124.03 63.8121C124.326 64.1289 124.683 64.3816 125.081 64.5543C125.478 64.7271 125.907 64.8162 126.34 64.8162C126.774 64.8162 127.203 64.7271 127.6 64.5543C127.998 64.3816 128.355 64.1289 128.651 63.8121C129.128 63.3104 130.212 63.3104 130.727 63.8121C130.849 63.9293 130.946 64.0698 131.012 64.2253C131.078 64.3808 131.112 64.5481 131.112 64.717C131.112 64.886 131.078 65.0533 131.012 65.2088C130.946 65.3643 130.849 65.5048 130.727 65.622C129.563 66.7541 128.002 67.384 126.378 67.376C124.756 67.3838 123.195 66.7539 122.033 65.622C121.464 65.0716 121.012 64.4126 120.703 63.684C120.394 62.9554 120.235 62.1721 120.235 61.3808C120.235 60.5895 120.394 59.8062 120.703 59.0776C121.012 58.3491 121.464 57.69 122.033 57.1396C123.2 56.0137 124.758 55.3845 126.38 55.3845C128.002 55.3845 129.56 56.0137 130.727 57.1396C130.85 57.2567 130.947 57.3975 131.014 57.5533C131.081 57.7092 131.115 57.877 131.115 58.0465C131.115 58.216 131.081 58.3838 131.014 58.5397C130.947 58.6956 130.85 58.8363 130.727 58.9534C130.216 59.4532 129.128 59.4532 128.651 58.9534C128.355 58.6364 127.998 58.3837 127.6 58.211C127.202 58.0382 126.774 57.9492 126.34 57.9493C125.907 57.9495 125.478 58.0389 125.08 58.212C124.683 58.3851 124.325 58.6381 124.03 58.9553ZM174.349 65.7281C174.475 65.6061 174.576 65.46 174.644 65.2984C174.713 65.1368 174.748 64.963 174.748 64.7875C174.748 64.6119 174.713 64.4382 174.644 64.2766C174.576 64.115 174.475 63.9688 174.349 63.8468C173.818 63.3278 172.842 63.3278 172.346 63.8468H172.35C171.708 64.3899 170.9 64.697 170.06 64.717H169.637C168.722 64.717 167.951 64.5086 167.331 64.0861C167.033 63.8876 166.776 63.6319 166.577 63.3339C166.377 63.0358 166.239 62.7013 166.17 62.3495H173.658C174.064 62.3439 174.451 62.1773 174.735 61.8864C175.018 61.5955 175.174 61.2041 175.169 60.7981L175.165 60.6862L175.169 60.6592C175.032 59.3601 174.469 58.143 173.568 57.1975C172.46 56.0185 171.063 55.4262 169.377 55.4262C167.729 55.4262 166.334 56.0147 165.153 57.1821C164.58 57.7334 164.126 58.397 163.821 59.1314C163.516 59.8658 163.366 60.6552 163.379 61.4503C163.379 63.1637 163.953 64.5781 165.091 65.6953C166.233 66.8145 167.682 67.3741 169.438 67.3741H170.019C171.635 67.3787 173.195 66.7777 174.39 65.6895L174.349 65.7281Z" fill="#339933"/>
</svg>
