<svg width="296" height="146" viewBox="0 0 296 146" fill="none" xmlns="http://www.w3.org/2000/svg">
<rect width="296" height="146" fill="#D02454"/>
<path d="M217.046 72.4178C217.293 72.3353 217.348 72.1428 217.431 72.0054C218.97 69.3938 220.675 66.8922 222.297 64.3082C223.342 62.6863 224.415 61.0643 225.432 59.4424C225.707 59.0026 226.037 58.8102 226.559 58.8377C227.632 58.8651 228.704 58.8377 229.804 58.8377C230.409 58.8377 230.464 58.9201 230.491 59.5249C230.491 59.6624 230.491 59.7998 230.491 59.9098C230.491 68.2668 230.491 76.6237 230.491 84.9807C230.491 86.0528 230.491 86.0528 229.391 86.0528C228.264 86.0528 227.137 86.0528 226.037 86.0528C225.432 86.0528 225.35 85.9704 225.35 85.3656C225.35 83.4413 225.35 81.4895 225.35 79.5652C225.35 75.7441 225.35 71.9229 225.35 68.1018C225.35 67.9644 225.35 67.8544 225.35 67.7444C225.185 67.662 225.157 67.7719 225.13 67.8269C223.59 70.356 221.913 72.8301 220.345 75.3317C219.795 76.2114 219.19 77.0911 218.64 77.9982C218.393 78.3831 218.091 78.603 217.623 78.5755C217.266 78.548 216.908 78.548 216.578 78.5755C216.138 78.603 215.836 78.4381 215.588 78.0807C214.599 76.6237 213.581 75.1943 212.591 73.7373C211.436 72.0879 210.282 70.4385 209.099 68.7616C208.852 68.4042 208.604 68.0468 208.329 67.607C208.164 67.8819 208.219 68.1293 208.219 68.3492C208.219 73.9022 208.219 79.4277 208.219 84.9807C208.219 86.0803 208.219 86.0803 207.092 86.0803C206.02 86.0803 204.947 86.0803 203.848 86.0803C203.215 86.0803 203.188 85.9979 203.16 85.3931C203.16 85.2556 203.16 85.1182 203.16 85.0082C203.16 76.6512 203.16 68.2942 203.16 59.9373C203.16 58.8651 203.16 58.8651 204.26 58.8651C205.14 58.8651 206.02 58.8926 206.9 58.8651C207.532 58.8377 207.917 59.0851 208.247 59.5799C208.852 60.5145 209.512 61.4217 210.144 62.3564C212.206 65.3528 214.351 68.3217 216.358 71.3731C216.578 71.703 216.826 72.0604 217.046 72.4178Z" fill="white"/>
<path d="M80.0595 73.0499C80.0045 74.6993 79.4821 76.3487 78.7672 77.9432C77.5298 80.6647 75.8251 83.1113 74.0103 85.448C70.7933 89.5715 67.1363 93.2551 63.3418 96.8563C60.8397 99.248 58.2275 101.502 55.5879 103.701C54.873 104.306 54.598 104.224 54.1581 103.426C54.0481 103.234 54.0481 103.042 54.2131 102.877C54.3781 102.712 54.543 102.519 54.708 102.354C59.1349 97.9285 63.2868 93.2826 66.9713 88.2245C68.5936 86.0252 70.0784 83.7436 71.3432 81.3244C72.1956 79.7025 72.9105 77.9981 73.4604 76.2113C74.2578 73.5997 74.0103 71.0432 73.0755 68.5141C72.0031 65.6276 70.4908 62.9886 68.8136 60.432C66.4764 56.8858 63.8642 53.532 61.1146 50.2881C59.0524 47.869 56.9352 45.4774 54.708 43.1957C54.598 43.0583 54.4881 42.9208 54.3506 42.8108C53.8831 42.2885 53.8831 42.261 54.3506 41.7112C54.4331 41.6288 54.4881 41.5463 54.5705 41.4638C54.763 41.2164 54.9555 41.2164 55.1755 41.4088C55.7529 41.9312 56.3853 42.4535 56.9627 42.9758C60.2622 45.9722 63.5343 49.0236 66.6139 52.2399C69.6659 55.4288 72.608 58.6726 75.1927 62.2463C76.6774 64.3081 78.1072 66.4523 79.0696 68.8165C79.647 70.136 80.0595 71.483 80.0595 73.0499Z" fill="white"/>
<path d="M91.2229 60.9816C89.9031 60.9267 88.3633 60.4868 86.851 59.8271C83.8539 58.5075 81.2143 56.6657 78.6847 54.6589C76.595 52.982 74.6152 51.1677 72.6355 49.3533C70.2433 47.0992 68.0162 44.68 65.789 42.2884C64.0292 40.3641 62.3245 38.3848 60.6472 36.3505C60.4822 36.1581 60.1798 35.9657 60.3997 35.6633C60.6197 35.3609 60.8947 35.086 61.2796 35.031C61.4721 35.0035 61.5821 35.196 61.692 35.3059C62.5994 36.2131 63.5343 37.0928 64.4417 37.9724C69.171 42.4808 74.0928 46.7143 79.592 50.2605C82.0392 51.8274 84.5688 53.2294 87.346 54.1641C88.6933 54.6314 90.0956 54.9338 91.5529 54.9063C93.3676 54.9063 95.0724 54.384 96.7221 53.7243C98.9493 52.8171 101.039 51.6625 103.074 50.3705C106.978 47.8964 110.635 45.0649 114.155 42.0685C116.712 39.8968 119.214 37.6151 121.661 35.3334C122.129 34.8936 122.156 34.8936 122.651 35.3059C123.283 35.8007 123.311 35.8282 122.761 36.4605C121.881 37.4776 121.001 38.4673 120.094 39.4569C117.592 42.1509 115.09 44.845 112.422 47.3741C109.04 50.6179 105.576 53.7792 101.754 56.4733C99.8292 57.8478 97.8495 59.1123 95.6773 60.0195C94.2475 60.6243 92.7902 60.9816 91.2229 60.9816Z" fill="white"/>
<path d="M123.229 109.474C123.174 109.722 122.954 109.831 122.789 109.941C122.266 110.354 122.239 110.354 121.771 109.886C120.479 108.539 119.104 107.275 117.73 106.01C113.633 102.217 109.371 98.6155 104.696 95.5091C102.222 93.8597 99.6371 92.4028 96.8325 91.3581C94.9628 90.6709 93.038 90.2585 91.0308 90.4235C89.656 90.5334 88.3637 90.9733 87.0989 91.4681C84.8717 92.3203 82.8095 93.4749 80.7747 94.7394C76.8153 97.186 73.1583 100.045 69.6113 103.014C67.5216 104.773 65.4869 106.588 63.5072 108.457C62.9572 108.979 62.3798 109.502 61.8299 110.024C61.4724 110.381 61.39 110.354 60.9775 110.051C60.2351 109.502 60.2076 109.447 60.84 108.759C62.5998 106.835 64.332 104.911 66.1193 103.041C67.879 101.172 69.6663 99.3577 71.5085 97.5984C75.083 94.1621 78.7675 90.8908 82.8919 88.0868C84.6242 86.9047 86.4389 85.8601 88.3637 85.0904C90.8658 84.0733 93.313 84.1282 95.8151 85.0904C98.3173 86.0526 100.572 87.4545 102.744 89.0215C105.521 91.0283 108.106 93.2824 110.608 95.6466C111.598 96.6087 112.615 97.5434 113.578 98.533C115.585 100.595 117.565 102.684 119.434 104.883C120.589 106.203 121.717 107.55 122.871 108.897C123.009 109.034 123.201 109.199 123.229 109.474Z" fill="white"/>
<path d="M103.376 72.4173C103.376 70.6855 103.899 69.0911 104.586 67.5241C105.851 64.7476 107.583 62.246 109.453 59.8544C110.855 58.0675 112.34 56.3631 113.88 54.7137C115.172 53.3392 116.492 51.9647 117.839 50.6452C120.094 48.4735 122.403 46.3293 124.796 44.295C125.785 43.4703 126.775 42.6181 127.765 41.7659C127.958 41.601 128.15 41.4635 128.343 41.3261C128.453 41.2436 128.59 41.1886 128.7 41.2986C128.92 41.5185 129.112 41.7659 129.305 41.9858C129.387 42.0958 129.36 42.2332 129.277 42.3432C129.195 42.4532 129.112 42.5356 129.003 42.6456C127.875 43.8002 126.775 44.9548 125.648 46.1093C123.421 48.446 121.276 50.8651 119.241 53.3942C117.344 55.7309 115.557 58.1225 113.962 60.6241C112.395 63.0707 110.993 65.6273 110.085 68.4038C109.7 69.5859 109.425 70.7679 109.343 72.005C109.26 73.2695 109.535 74.5066 109.893 75.7162C110.69 78.3827 111.982 80.8293 113.412 83.221C115.942 87.372 118.911 91.2481 122.018 94.9592C123.998 97.3234 126.06 99.66 128.233 101.887C128.508 102.162 128.755 102.491 129.03 102.766C129.222 102.986 129.25 103.179 129.057 103.399C129.03 103.426 129.003 103.454 128.975 103.509C128.398 104.223 128.425 104.196 127.71 103.591C123.778 100.182 120.066 96.5811 116.464 92.8425C113.082 89.3237 109.865 85.6676 107.116 81.599C105.878 79.7847 104.751 77.8879 103.981 75.7986C103.596 74.6166 103.376 73.6269 103.376 72.4173Z" fill="white"/>
<path d="M182.593 72.4452C182.593 68.2393 182.593 64.0333 182.593 59.8548C182.593 58.8376 182.593 58.8376 183.61 58.8376C187.982 58.8376 192.354 58.8376 196.726 58.8376C197.688 58.8376 197.688 58.8651 197.413 59.7448C197.138 60.5695 196.863 61.4217 196.588 62.2464C196.341 62.9612 196.341 62.9612 195.543 62.9612C193.289 62.9612 191.062 62.9612 188.807 62.9612C188.642 62.9612 188.449 62.9612 188.285 62.9612C187.68 62.9887 187.625 63.0161 187.625 63.6484C187.625 65.5452 187.625 67.442 187.625 69.3114C187.625 69.9986 187.68 70.0261 188.394 70.0261C190.649 70.0261 192.931 70.0261 195.186 70.0261C195.351 70.0261 195.543 70.0261 195.708 70.0261C196.203 70.0536 196.286 70.1361 196.313 70.6034C196.341 71.648 196.341 72.6652 196.313 73.7098C196.313 74.1221 196.203 74.2046 195.791 74.2321C195.626 74.2596 195.434 74.2321 195.269 74.2321C193.096 74.2321 190.924 74.2321 188.724 74.2321C188.559 74.2321 188.367 74.2321 188.202 74.2321C187.707 74.2596 187.625 74.3146 187.625 74.8094C187.625 76.9536 187.625 79.1253 187.625 81.2696C187.625 81.7919 187.707 81.8469 188.339 81.8469C190.979 81.8469 193.619 81.8469 196.258 81.8469C196.588 81.8469 196.918 81.8469 197.248 81.8469C197.578 81.8469 197.743 82.0118 197.743 82.3142C197.743 83.3588 197.743 84.4309 197.743 85.4755C197.743 85.8054 197.578 85.9704 197.248 85.9704C197.083 85.9704 196.946 85.9704 196.781 85.9704C192.354 85.9704 187.927 85.9704 183.528 85.9704C182.565 85.9704 182.565 85.9704 182.565 85.0357C182.593 80.8847 182.593 76.6787 182.593 72.4452Z" fill="white"/>
<path d="M153.667 62.301C153.667 62.8783 153.694 63.4555 153.667 64.0053C153.639 64.5002 153.529 64.5552 153.089 64.3627C152.182 63.9229 151.247 63.538 150.257 63.2906C149.212 63.0157 148.14 62.8508 147.068 62.8508C146.463 62.8508 145.83 62.9332 145.253 63.1532C143.548 63.8129 142.943 65.6822 143.906 67.2217C144.346 67.9089 144.95 68.4038 145.638 68.8161C146.71 69.4759 147.865 70.0532 149.02 70.6305C150.037 71.1528 151.027 71.7026 151.962 72.3898C154.134 74.0117 155.262 76.1285 155.179 78.905C155.097 81.1592 154.189 82.9735 152.429 84.3755C151.082 85.4476 149.542 86.0249 147.865 86.2998C144.483 86.8221 141.266 86.3273 138.214 84.7329C137.994 84.6229 137.774 84.458 137.527 84.3205C137.307 84.1831 137.224 84.0181 137.362 83.7707C137.884 82.7261 138.434 81.709 138.956 80.6643C139.149 80.2795 139.231 80.2795 139.644 80.5269C140.771 81.2141 141.981 81.7639 143.301 82.0114C144.758 82.2863 146.215 82.3687 147.673 81.8464C148.085 81.709 148.497 81.5165 148.827 81.2416C150.092 80.197 150.175 78.2727 149.047 76.9807C148.305 76.1285 147.398 75.5512 146.408 75.0289C145.115 74.3416 143.823 73.6819 142.558 72.9671C141.238 72.2249 140.084 71.3177 139.231 70.0257C137.472 67.3866 137.801 63.593 139.974 61.2838C141.321 59.8543 143.026 59.0571 144.923 58.7547C147.645 58.3149 150.312 58.6723 152.897 59.6344C153.667 59.9368 153.694 59.9643 153.694 60.789C153.694 61.2838 153.667 61.8061 153.667 62.301Z" fill="white"/>
<path d="M165.435 74.452C165.435 71.0157 165.435 67.5795 165.435 64.1707C165.435 64.0058 165.435 63.8683 165.435 63.7034C165.435 63.0436 165.38 62.9886 164.72 62.9886C162.685 62.9886 160.623 62.9886 158.588 62.9886C157.543 62.9886 157.543 62.9886 157.543 61.944C157.543 61.2293 157.543 60.487 157.543 59.7723C157.543 58.8926 157.571 58.8651 158.478 58.8651C159.523 58.8651 160.596 58.8651 161.64 58.8651C167.112 58.8651 172.584 58.8651 178.056 58.8651C179.1 58.8651 179.1 58.8651 178.798 59.8273C178.523 60.652 178.276 61.5042 178.001 62.3289C177.781 62.9611 177.781 62.9886 177.121 62.9886C175.306 62.9886 173.519 62.9886 171.704 62.9886C171.539 62.9886 171.347 62.9886 171.182 62.9886C170.687 63.0161 170.604 63.0711 170.577 63.5659C170.577 63.7858 170.577 64.0058 170.577 64.2257C170.577 71.1257 170.577 78.0257 170.577 84.9257C170.577 86.0528 170.577 86.0528 169.449 86.0528C168.377 86.0528 167.305 86.0528 166.205 86.0528C165.462 86.0528 165.435 85.9978 165.435 85.2556C165.435 81.6544 165.435 78.0532 165.435 74.452Z" fill="white"/>
<path d="M149.679 96.6361C149.542 96.911 149.597 97.1584 149.597 97.4058C149.597 99.2202 149.597 101.062 149.597 102.876C149.597 103.041 149.597 103.179 149.597 103.344C149.597 104.196 149.157 104.498 148.332 104.223C148.167 104.168 148.057 104.086 148.057 103.893C148.03 103.701 148.03 103.509 148.03 103.289C148.03 100.347 148.03 97.4058 148.03 94.4644C148.03 94.162 147.892 93.8046 148.222 93.6122C148.552 93.4198 148.964 93.5023 149.322 93.5847C149.542 93.6122 149.624 93.8321 149.734 93.9971C150.064 94.4644 150.367 94.9317 150.697 95.4266C151.439 96.5537 152.181 97.6533 152.924 98.7803C153.226 99.2477 153.254 99.2477 153.556 98.7529C154.519 97.2134 155.508 95.674 156.498 94.1345C156.828 93.6122 157.433 93.3923 158.038 93.6122C158.203 93.6672 158.286 93.7772 158.313 93.9421C158.341 94.107 158.341 94.2995 158.341 94.4644C158.341 97.4058 158.341 100.347 158.341 103.289C158.341 104.223 158.038 104.443 157.131 104.251C156.911 104.196 156.773 104.086 156.773 103.866C156.773 103.674 156.773 103.481 156.773 103.261C156.773 101.227 156.773 99.2202 156.773 97.1859C156.773 96.966 156.828 96.7461 156.718 96.5537C156.498 96.5537 156.498 96.7461 156.416 96.856C155.646 98.0931 154.876 99.3027 154.079 100.54C153.941 100.76 153.831 101.007 153.556 101.09C153.199 101.199 152.896 101.09 152.594 100.705C151.796 99.5501 151.027 98.368 150.229 97.2134C150.037 97.021 149.954 96.7736 149.679 96.6361Z" fill="white"/>
<path d="M226.284 99.1101C226.202 100.732 225.68 102.271 224.222 103.344C221.583 105.295 216.963 104.498 215.946 100.567C215.561 99.0551 215.671 97.5981 216.358 96.1961C217.403 94.0519 219.713 93.1997 221.693 93.4471C224.58 93.832 226.284 96.1686 226.284 99.1101ZM217.458 98.9176C217.458 99.1926 217.431 99.4949 217.458 99.7698C217.651 101.282 218.531 102.656 220.318 102.986C221.638 103.234 223.48 102.794 224.195 101.062C224.8 99.5774 224.827 98.0655 224.085 96.6085C223.425 95.289 222.242 94.7392 220.813 94.8216C219.41 94.8766 218.366 95.5913 217.788 96.8834C217.486 97.5157 217.376 98.2029 217.458 98.9176Z" fill="white"/>
<path d="M165.792 98.4782C165.93 98.5881 166.012 98.6431 166.067 98.6706C167.057 99.1379 167.772 100.155 167.552 101.64C167.387 102.877 166.59 103.619 165.435 104.004C164.94 104.141 164.445 104.251 163.95 104.251C163.153 104.279 162.355 104.251 161.585 104.251C160.953 104.251 160.871 104.141 160.843 103.509C160.843 102.079 160.843 100.65 160.843 99.2204C160.843 97.6534 160.843 96.114 160.843 94.5471C160.843 94.3546 160.843 94.1622 160.871 93.9423C160.898 93.6949 161.035 93.5299 161.283 93.5299C162.52 93.5574 163.758 93.365 164.967 93.6949C167.03 94.2722 167.25 96.3614 166.59 97.5985C166.397 97.9558 166.122 98.2033 165.792 98.4782ZM162.438 101.117C162.438 101.585 162.438 102.024 162.438 102.492C162.438 102.739 162.575 102.904 162.85 102.904C163.483 102.904 164.115 102.987 164.747 102.794C165.6 102.574 165.985 102.052 165.985 101.172C165.985 100.265 165.545 99.7152 164.692 99.5228C164.115 99.3853 163.51 99.3853 162.933 99.4128C162.52 99.4403 162.465 99.4953 162.438 99.9351C162.41 100.32 162.438 100.705 162.438 101.117ZM162.438 96.4989C162.438 96.8837 162.438 97.2961 162.438 97.6809C162.438 98.0108 162.603 98.1483 162.933 98.1483C163.428 98.1483 163.895 98.1208 164.363 97.9833C165.077 97.7634 165.407 97.1586 165.325 96.2515C165.27 95.5092 164.83 95.0144 164.088 94.9319C163.703 94.8769 163.29 94.9044 162.905 94.9044C162.575 94.9044 162.438 95.0694 162.438 95.3993C162.438 95.7566 162.438 96.114 162.438 96.4989Z" fill="white"/>
<path d="M205.937 98.8629C205.937 97.3509 205.937 95.839 205.937 94.327C205.937 93.5848 205.992 93.5298 206.734 93.5573C207.889 93.5848 209.071 93.4748 210.226 93.6672C213.333 94.1896 214.846 96.6362 214.488 99.6051C214.158 102.217 212.426 103.839 209.786 104.168C208.741 104.306 207.669 104.251 206.624 104.278C206.019 104.278 205.937 104.196 205.937 103.591C205.937 101.997 205.937 100.43 205.937 98.8629ZM207.532 98.8354C207.532 99.6326 207.532 100.43 207.532 101.2C207.532 101.584 207.532 101.942 207.532 102.327C207.559 102.821 207.614 102.904 208.109 102.931C208.494 102.931 208.906 102.959 209.291 102.904C211.189 102.766 212.481 101.667 212.756 99.935C212.866 99.2477 212.921 98.533 212.783 97.8457C212.508 96.5262 211.821 95.619 210.556 95.1242C209.814 94.8493 209.016 94.7943 208.219 94.7943C207.587 94.7943 207.532 94.8493 207.532 95.4541C207.532 96.5812 207.532 97.7083 207.532 98.8354Z" fill="white"/>
<path d="M227.989 98.8905C227.989 97.406 227.989 95.949 227.989 94.4646C227.989 94.2996 227.989 94.1072 228.016 93.9423C228.044 93.7223 228.154 93.5574 228.374 93.5574C229.611 93.5849 230.849 93.3925 232.058 93.7223C233.818 94.2172 234.643 95.8116 234.066 97.5435C233.818 98.2582 233.351 98.7255 232.691 99.0829C232.251 99.3303 232.251 99.3303 232.553 99.7427C233.323 100.732 233.873 101.859 234.533 102.932C234.725 103.234 234.89 103.536 235.055 103.839C235.193 104.086 235.11 104.224 234.835 104.224C234.56 104.251 234.313 104.224 234.038 104.224C233.653 104.251 233.378 104.086 233.186 103.729C232.636 102.767 232.058 101.804 231.481 100.842C231.316 100.567 231.151 100.32 230.904 100.128C230.739 99.9626 230.519 99.8526 230.271 99.7977C229.721 99.7152 229.556 99.8526 229.556 100.43C229.556 101.447 229.556 102.464 229.556 103.454C229.556 103.701 229.639 104.031 229.336 104.169C228.951 104.306 228.566 104.306 228.181 104.169C228.016 104.114 227.989 103.949 227.989 103.784C227.989 103.591 227.989 103.399 227.961 103.179C227.961 103.151 227.961 103.124 227.961 103.124C227.989 101.694 227.989 100.292 227.989 98.8905ZM229.584 96.6638C229.584 97.1311 229.584 97.5984 229.584 98.0383C229.611 98.4506 229.666 98.5056 230.106 98.5331C230.601 98.5606 231.068 98.5056 231.536 98.3132C232.251 98.0108 232.636 97.3785 232.608 96.5263C232.581 95.7566 232.141 95.1793 231.426 94.9594C231.014 94.8219 230.574 94.767 230.134 94.767C229.694 94.767 229.611 94.8494 229.611 95.3168C229.584 95.7841 229.584 96.2239 229.584 96.6638Z" fill="white"/>
<path d="M177.094 104.251C176.351 104.251 176.324 104.224 176.049 103.509C175.856 102.987 175.664 102.492 175.471 101.97C175.361 101.64 175.141 101.475 174.784 101.475C173.767 101.475 172.749 101.475 171.759 101.475C171.429 101.475 171.237 101.612 171.127 101.942C170.934 102.519 170.714 103.097 170.494 103.674C170.302 104.196 170.247 104.224 169.67 104.251C169.56 104.251 169.45 104.251 169.34 104.251C168.735 104.224 168.68 104.141 168.9 103.564C170.082 100.43 171.292 97.2688 172.474 94.135C172.612 93.7501 172.804 93.5027 173.272 93.5027C173.739 93.5027 173.932 93.7501 174.069 94.1075C174.784 96.0043 175.526 97.8736 176.269 99.7704C176.736 100.98 177.204 102.19 177.671 103.399C177.726 103.509 177.781 103.647 177.808 103.756C177.891 104.086 177.836 104.169 177.479 104.224C177.369 104.251 177.231 104.251 177.094 104.251ZM173.382 96.1417C173.327 96.1417 173.299 96.1417 173.244 96.1417C172.804 97.3238 172.392 98.5334 171.952 99.7154C171.842 99.9903 171.924 100.155 172.254 100.128C172.969 100.128 173.657 100.128 174.371 100.128C174.646 100.128 174.811 100.018 174.701 99.7154C174.234 98.5334 173.794 97.3513 173.382 96.1417Z" fill="white"/>
<path d="M203.324 104.251C202.582 104.251 202.555 104.251 202.28 103.536C202.087 103.014 201.867 102.464 201.675 101.942C201.565 101.64 201.372 101.502 201.042 101.502C200.025 101.502 199.008 101.502 198.018 101.502C197.66 101.502 197.44 101.667 197.33 101.997C197.138 102.574 196.918 103.152 196.698 103.729C196.505 104.224 195.571 104.499 195.131 104.196C194.938 104.059 195.021 103.894 195.076 103.729C195.323 103.097 195.543 102.437 195.79 101.805C196.725 99.3304 197.66 96.8838 198.623 94.4097C198.678 94.2997 198.733 94.1623 198.76 94.0523C198.87 93.6675 199.118 93.5575 199.502 93.5575C199.887 93.5575 200.107 93.6949 200.245 94.0523C200.795 95.4818 201.345 96.8838 201.895 98.2858C202.555 100.018 203.242 101.722 203.902 103.454C203.929 103.509 203.957 103.564 203.984 103.646C204.149 104.169 204.094 104.251 203.544 104.279C203.462 104.251 203.407 104.251 203.324 104.251ZM199.612 96.1141C199.557 96.1141 199.53 96.1141 199.475 96.1141C199.035 97.3236 198.595 98.5332 198.183 99.7428C198.073 100.045 198.265 100.128 198.54 100.128C199.227 100.128 199.887 100.128 200.575 100.128C200.987 100.128 201.015 100.045 200.877 99.6328C200.602 98.8631 200.327 98.1208 200.052 97.3511C199.887 96.9388 199.75 96.5264 199.612 96.1141Z" fill="white"/>
<path d="M145.61 104.251C144.923 104.251 144.895 104.251 144.648 103.591C144.428 103.069 144.235 102.519 144.043 101.997C143.933 101.64 143.685 101.475 143.301 101.475C142.338 101.475 141.376 101.475 140.386 101.475C139.836 101.475 139.781 101.53 139.589 102.079C139.396 102.602 139.204 103.124 139.011 103.619C138.791 104.169 138.736 104.224 138.159 104.251C138.021 104.251 137.884 104.251 137.774 104.251C137.306 104.224 137.251 104.114 137.389 103.646C137.691 102.767 138.049 101.915 138.379 101.062C139.259 98.7531 140.138 96.4715 141.018 94.1623C141.156 93.8049 141.266 93.53 141.733 93.53C142.283 93.53 142.393 93.5575 142.613 94.1348C143.218 95.6743 143.823 97.2137 144.4 98.7531C145.005 100.32 145.61 101.86 146.188 103.426C146.215 103.509 146.27 103.591 146.27 103.674C146.408 104.114 146.353 104.224 145.885 104.279C145.83 104.251 145.72 104.251 145.61 104.251ZM141.926 96.1141C141.871 96.1141 141.843 96.1141 141.788 96.1141C141.348 97.3237 140.908 98.5332 140.496 99.7428C140.386 100.045 140.578 100.128 140.853 100.128C141.541 100.128 142.228 100.128 142.888 100.128C143.273 100.128 143.328 100.045 143.218 99.6878C142.971 98.9731 142.696 98.2308 142.448 97.5161C142.256 97.0763 142.091 96.5814 141.926 96.1141Z" fill="white"/>
<path d="M239.152 104.389C238.464 104.361 237.64 104.196 236.87 103.756C236.457 103.536 236.43 103.454 236.65 103.042C236.705 102.932 236.787 102.822 236.842 102.712C236.98 102.437 237.2 102.409 237.447 102.547C237.887 102.794 238.327 102.932 238.822 103.014C239.317 103.097 239.784 103.069 240.252 102.932C241.324 102.602 241.681 101.447 240.967 100.567C240.692 100.238 240.362 99.9902 240.004 99.7978C239.399 99.4679 238.794 99.1655 238.217 98.7806C237.53 98.3408 236.98 97.791 236.787 96.9663C236.485 95.7018 237.062 94.4372 238.217 93.8599C239.482 93.2551 240.774 93.3651 242.066 93.8599C242.451 93.9974 242.644 94.8496 242.396 95.1794C242.259 95.3444 242.121 95.2619 241.984 95.2069C241.544 95.042 241.104 94.932 240.637 94.8496C240.224 94.7946 239.812 94.7671 239.399 94.877C238.382 95.1794 238.024 96.3065 238.739 97.1312C239.069 97.5161 239.482 97.736 239.922 97.9559C240.609 98.3133 241.297 98.6707 241.874 99.1655C242.424 99.6328 242.809 100.21 242.946 100.925C243.166 102.244 242.561 103.399 241.379 103.976C240.857 104.224 240.059 104.389 239.152 104.389Z" fill="white"/>
<path d="M182.07 104.388C181.245 104.361 180.448 104.196 179.678 103.839C179.458 103.729 179.183 103.646 179.21 103.344C179.265 102.986 179.43 102.656 179.733 102.464C179.87 102.354 180.035 102.491 180.173 102.546C180.558 102.739 180.998 102.876 181.41 102.959C181.932 103.069 182.455 103.041 182.977 102.876C183.912 102.574 184.297 101.639 183.802 100.76C183.637 100.457 183.362 100.21 183.087 100.017C182.537 99.6325 181.905 99.3576 181.327 99.0003C181.025 98.8078 180.723 98.6154 180.448 98.3955C178.853 97.1034 179.155 94.6018 181.025 93.7496C182.262 93.1998 183.527 93.3373 184.737 93.8046C185.094 93.9421 185.287 94.8218 185.039 95.1241C184.902 95.2891 184.765 95.2066 184.627 95.1516C184.215 94.9867 183.802 94.8767 183.362 94.8218C182.895 94.7393 182.455 94.7393 181.987 94.9042C181.025 95.2341 180.723 96.2238 181.382 97.021C181.712 97.4333 182.18 97.7082 182.647 97.9556C183.197 98.258 183.747 98.5329 184.242 98.8903C184.545 99.0827 184.792 99.3301 185.012 99.605C186.249 101.089 185.727 103.234 183.967 104.031C183.362 104.278 182.73 104.388 182.07 104.388Z" fill="white"/>
<path d="M190.127 104.388C189.247 104.361 188.422 104.196 187.624 103.784C187.432 103.674 187.184 103.564 187.294 103.289C187.404 102.959 187.514 102.602 187.844 102.437C188.009 102.354 188.174 102.519 188.339 102.602C188.944 102.877 189.577 103.041 190.237 103.041C190.539 103.041 190.814 102.986 191.061 102.877C191.969 102.547 192.299 101.639 191.831 100.787C191.639 100.457 191.391 100.183 191.061 99.9901C190.567 99.6877 190.044 99.3853 189.522 99.1104C189.109 98.8905 188.724 98.6431 188.394 98.3132C187.597 97.5709 187.267 96.6913 187.514 95.6466C187.789 94.5745 188.504 93.9148 189.549 93.5849C190.594 93.255 191.639 93.3924 192.656 93.7498C193.096 93.9148 193.344 94.712 193.069 95.0693C192.959 95.2343 192.794 95.1793 192.656 95.1243C192.244 94.9594 191.831 94.8494 191.391 94.7944C190.924 94.712 190.484 94.712 190.017 94.8769C189.109 95.1793 188.807 96.004 189.274 96.8287C189.467 97.1311 189.714 97.3785 190.017 97.5709C190.539 97.8733 191.034 98.1757 191.556 98.4506C191.969 98.6705 192.326 98.9454 192.684 99.2478C193.536 99.9901 193.784 100.925 193.619 101.997C193.481 102.959 192.876 103.564 192.051 103.976C191.474 104.279 190.814 104.361 190.127 104.388Z" fill="white"/>
</svg>
