<svg width="204" height="211" viewBox="0 0 204 211" fill="none" xmlns="http://www.w3.org/2000/svg">
<path d="M-4.19568e-07 5.88968L9.57139 15.4883L9.57139 0.383675L-6.60243e-07 0.383676L-4.19568e-07 5.88968Z" fill="#59FF69"/>
<path d="M13.9004 19.827L23.6896 29.6436L23.6896 0.38364L13.9004 0.38364L13.9004 19.827Z" fill="#59FF69"/>
<path d="M27.8008 33.7654L37.8008 43.793L37.8008 0.38478L27.8008 0.384781L27.8008 33.7654Z" fill="#59FF69"/>
<path d="M41.7012 47.7017L51.9191 57.9473L51.9191 0.383777L41.7012 0.383778L41.7012 47.7017Z" fill="#59FF69"/>
<path d="M55.6016 61.6392L66.0303 72.0957L66.0303 0.383934L55.6016 0.383934L55.6016 61.6392Z" fill="#59FF69"/>
<path d="M69.5098 75.5775L80.1564 86.252L80.1564 0.384872L69.5098 0.384872L69.5098 75.5775Z" fill="#59FF69"/>
<path d="M83.4082 89.514L94.2656 100.399L94.2656 0.377014L83.4082 0.377014L83.4082 89.5069L83.4082 89.514Z" fill="#59FF69"/>
<path d="M97.3086 103.45L108.384 114.554L108.384 0.383049L97.3086 0.383049L97.3086 103.45Z" fill="#59FF69"/>
<path d="M111.211 117.389L122.497 128.703L122.497 0.377151L111.211 0.377151L111.211 117.382L111.211 117.389Z" fill="#59FF69"/>
<path d="M125.109 131.326L136.613 142.858L136.613 0.38417L125.109 0.384171L125.109 131.326Z" fill="#59FF69"/>
<path d="M139.01 145.263L150.725 157.006L150.725 0.376296L139.01 0.376297L139.01 145.263Z" fill="#59FF69"/>
<path d="M152.91 159.202L164.843 171.163L164.843 0.385284L152.91 0.385284L152.91 159.202Z" fill="#59FF69"/>
<path d="M166.809 173.137L178.952 185.31L178.952 0.376449L166.809 0.37645L166.809 173.137Z" fill="#59FF69"/>
<path d="M180.719 187.076L193.073 199.466L193.073 0.384429L180.719 0.38443L180.719 187.076Z" fill="#59FF69"/>
<path d="M194.619 201.012L204.001 210.414L204.001 0.376876L194.619 0.376877L194.619 201.012Z" fill="#59FF69"/>
</svg>
