<svg width="20" height="21" viewBox="0 0 20 21" fill="none" xmlns="http://www.w3.org/2000/svg"><title>LinkedIn logo</title>
<path d="M18 0.25002C17 0.249988 1.99996 0.250004 1.99996 0.250004C1 0.25 -4.07677e-05 1.25 1.25146e-09 2.25021L0 18.25C0 19.25 1 20.25 1.99996 20.25H18C19 20.25 20 19.25 20 18.25C20 18.25 20 3.25044 20 2.25022C20 1.25 19 0.250053 18 0.25002ZM6.1839 17.2272H3.07692L3.0589 7.92429H6.16587L6.1839 17.2272ZM4.55228 6.70734H4.53426C3.51863 6.70734 2.86358 6.00722 2.86358 5.13583C2.86358 4.2434 3.53966 3.56732 4.57332 3.56732C5.60697 3.56732 6.24099 4.2434 6.26202 5.13583C6.26202 6.00722 5.60397 6.70734 4.55228 6.70734ZM16.9561 17.2272H13.8221V12.1731C13.8221 10.9501 13.4976 10.1178 12.4038 10.1178C11.5685 10.1178 11.1178 10.6797 10.9014 11.2236C10.8203 11.4189 10.7993 11.6863 10.7993 11.9597V17.2272H7.65024L7.63221 7.92429H10.7812L10.7993 9.23739C11.2019 8.6154 11.872 7.73499 13.4766 7.73499C15.4657 7.73499 16.9531 9.03306 16.9531 11.8245V17.2272H16.9561Z" fill="#FFFFFF"/>
</svg>
