<svg width="22" height="22" viewBox="0 0 22 22" fill="none" xmlns="http://www.w3.org/2000/svg">
<path d="M11 22C17.0751 22 22 17.0751 22 11C22 4.92487 17.0751 0 11 0C4.92487 0 0 4.92487 0 11C0 17.0751 4.92487 22 11 22Z" fill="#1B9DF0"/>
<path d="M8.98661 16.8025C13.8651 16.8025 16.5326 12.76 16.5326 9.25652C16.5326 9.14102 16.5326 9.02552 16.5271 8.91552C17.0441 8.54152 17.4951 8.07402 17.8526 7.54052C17.3796 7.74952 16.8681 7.89252 16.3291 7.95852C16.8791 7.62852 17.2971 7.11152 17.4951 6.49002C16.9836 6.79252 16.4171 7.01252 15.8121 7.13352C15.3281 6.61652 14.6406 6.29752 13.8761 6.29752C12.4131 6.29752 11.2251 7.48552 11.2251 8.94852C11.2251 9.15752 11.2471 9.36102 11.2966 9.55352C9.09111 9.44352 7.13861 8.38752 5.82961 6.78152C5.60411 7.17202 5.47211 7.62852 5.47211 8.11252C5.47211 9.03102 5.93961 9.84502 6.65461 10.318C6.22011 10.307 5.81311 10.186 5.45561 9.98802C5.45561 9.99902 5.45561 10.01 5.45561 10.021C5.45561 11.308 6.36861 12.375 7.58411 12.6225C7.36411 12.683 7.12761 12.716 6.88561 12.716C6.71511 12.716 6.55011 12.6995 6.38511 12.6665C6.72061 13.7225 7.69961 14.487 8.86011 14.509C7.95261 15.2185 6.80861 15.642 5.56561 15.642C5.35111 15.642 5.14211 15.631 4.93311 15.6035C6.09361 16.3625 7.49061 16.8025 8.98661 16.8025Z" fill="white"/>
</svg>
