<svg width="30" height="30" viewBox="0 0 30 30" fill="none" xmlns="http://www.w3.org/2000/svg">
<path d="M14.68 30C6.26004 29.72 -0.259956 22.86 0.0100443 14.54C0.280044 6.27003 7.12004 -0.199965 15.3 0.0200353C23.75 0.240035 30.27 7.16003 29.99 15.48C29.72 23.72 22.89 30.16 14.68 30ZM14.26 8.57003C12.6 8.57003 10.99 8.56003 9.39004 8.58003C9.28004 8.58003 9.12004 8.72003 9.08004 8.84003C8.58004 10.02 8.25004 11.26 8.06004 12.53C7.98004 13.1 7.94004 13.68 7.87004 14.26C10.05 14.26 12.15 14.26 14.26 14.26C14.26 12.35 14.26 10.48 14.26 8.57003ZM7.90004 15.74C7.90004 15.85 7.90004 15.93 7.90004 16.01C8.01004 17.81 8.41004 19.55 9.08004 21.22C9.17004 21.43 9.31004 21.43 9.48004 21.43C10.98 21.43 12.48 21.43 13.98 21.43C14.07 21.43 14.16 21.41 14.25 21.4C14.25 19.5 14.25 17.62 14.25 15.73C12.14 15.74 10.04 15.74 7.90004 15.74ZM22.11 15.75C19.96 15.75 17.85 15.75 15.75 15.75C15.75 17.66 15.75 19.54 15.75 21.44C17.4 21.44 19.02 21.44 20.65 21.43C20.74 21.43 20.88 21.3 20.92 21.21C21.14 20.63 21.35 20.05 21.52 19.45C21.87 18.25 22.07 17.02 22.11 15.75ZM22.09 14.26C22.09 14.07 22.1 13.93 22.09 13.78C21.95 12.09 21.59 10.46 20.96 8.89003C20.85 8.62003 20.72 8.56003 20.45 8.56003C18.99 8.57003 17.52 8.57003 16.06 8.57003C15.95 8.57003 15.85 8.58003 15.75 8.59003C15.75 10.5 15.75 12.38 15.75 14.27C17.88 14.26 19.97 14.26 22.09 14.26ZM22.37 8.57003C23.08 10.44 23.45 12.32 23.55 14.25C25.24 14.25 26.88 14.25 28.52 14.25C28.41 12.3 27.92 10.5 27.04 8.79003C26.99 8.69003 26.83 8.58003 26.72 8.58003C25.3 8.56003 23.88 8.57003 22.37 8.57003ZM7.62004 8.57003C6.12004 8.57003 4.68004 8.56003 3.24004 8.58003C3.13004 8.58003 2.98004 8.71003 2.93004 8.82003C2.69004 9.35003 2.43004 9.90003 2.23004 10.46C1.79004 11.68 1.54004 12.94 1.48004 14.26C3.14004 14.26 4.78004 14.26 6.45004 14.26C6.54004 12.31 6.91004 10.43 7.62004 8.57003ZM28.52 15.75C26.86 15.75 25.22 15.75 23.55 15.75C23.47 17.7 23.08 19.59 22.38 21.44C23.88 21.44 25.32 21.44 26.76 21.43C26.86 21.43 27 21.32 27.05 21.22C27.23 20.88 27.39 20.52 27.54 20.16C28.11 18.75 28.45 17.29 28.52 15.75ZM6.44004 15.74C4.76004 15.74 3.13004 15.74 1.51004 15.74C1.49004 15.78 1.48004 15.81 1.48004 15.83C1.59004 17.73 2.08004 19.52 2.96004 21.21C3.02004 21.32 3.22004 21.42 3.35004 21.42C4.46004 21.44 5.57004 21.43 6.68004 21.43C6.98004 21.43 7.28004 21.43 7.62004 21.43C6.91004 19.57 6.53004 17.7 6.44004 15.74ZM12.41 1.84004C10 1.75004 4.93004 5.03004 4.03004 7.15003C4.16004 7.15003 4.28004 7.15003 4.40004 7.15003C5.52004 7.15003 6.65004 7.13003 7.77004 7.16003C8.14004 7.17003 8.33004 7.06003 8.50004 6.73003C9.40004 4.97003 10.59 3.44003 12.04 2.11003C12.15 2.00003 12.29 1.93004 12.41 1.84004ZM12.4 28.31C12.33 28.2 12.31 28.15 12.28 28.13C10.66 26.68 9.36004 24.99 8.36004 23.07C8.30004 22.96 8.10004 22.87 7.96004 22.87C6.75004 22.85 5.54004 22.86 4.34004 22.86C4.24004 22.86 4.14004 22.88 3.98004 22.89C6.12004 25.77 8.87004 27.56 12.4 28.31ZM17.72 28.24C19.85 28.34 24.93 25.07 25.97 22.87C25.84 22.86 25.72 22.85 25.61 22.85C24.45 22.85 23.29 22.86 22.13 22.84C21.83 22.83 21.68 22.94 21.55 23.2C20.83 24.62 19.9 25.9 18.81 27.07C18.43 27.47 18.06 27.87 17.72 28.24ZM26.01 7.15003C24.53 4.66003 19.52 1.47004 17.67 1.79004C17.68 1.81004 17.69 1.84004 17.7 1.85004C19.32 3.31003 20.64 5.00003 21.65 6.94003C21.7 7.05003 21.89 7.14003 22.01 7.14003C22.9 7.16003 23.79 7.15003 24.68 7.15003C25.1 7.15003 25.52 7.15003 26.01 7.15003ZM14.25 7.13003C14.25 5.44003 14.25 3.80003 14.25 2.13004C12.68 3.18003 10.12 6.18003 9.96004 7.13003C11.38 7.13003 12.8 7.13003 14.25 7.13003ZM14.26 22.88C12.79 22.88 11.36 22.88 9.92004 22.88C10.46 24.28 13.15 27.35 14.26 27.84C14.26 26.19 14.26 24.55 14.26 22.88ZM20.06 22.9C18.62 22.9 17.18 22.9 15.76 22.9C15.76 24.58 15.76 26.21 15.76 27.87C17.35 26.78 19.62 24.15 20.06 22.9ZM20.12 7.13003C19.01 5.13003 17.57 3.48003 15.74 2.10003C15.74 3.81003 15.74 5.46003 15.74 7.13003C17.2 7.13003 18.63 7.13003 20.12 7.13003Z" fill="#333448"/>
</svg>
