<svg width="42" height="44" viewBox="0 0 42 44" fill="green" xmlns="http://www.w3.org/2000/svg">
<title>Thumb down</title>

<path d="M20.9631 43.8477C20.4631 43.8477 20.0631 43.8477 19.5631 43.8477C14.3631 41.9477 13.4631 37.2477 14.4631 33.3477C14.6631 32.5477 14.8631 31.8477 14.9631 31.0477C15.3631 28.9477 14.7631 28.0477 12.8631 27.1477C11.0631 26.2477 9.16312 25.8477 7.06312 26.1477C5.76312 26.3477 4.46312 26.1477 3.16312 25.8477C1.66312 25.5477 0.763123 24.5477 0.363121 23.1477C-0.0368805 21.7477 0.363121 20.5477 1.56312 19.7477C2.36312 19.1477 2.16312 18.9477 1.46312 18.3477C-0.436882 16.8477 -0.53688 14.2477 1.46312 12.8477C2.36312 12.2477 2.26312 11.7477 1.86312 10.9477C0.66312 8.84766 1.26312 7.04766 3.46312 6.04766C4.36312 5.64766 4.26312 5.24766 4.06312 4.44766C3.46312 2.54766 4.16312 1.04766 6.06312 0.447659C6.96312 0.147659 7.86312 0.047657 8.76312 0.047657C11.7631 -0.252342 14.5631 0.947659 17.5631 1.04766C20.9631 1.14766 24.0631 2.34766 26.7631 4.44766C27.2631 4.84766 27.8631 4.84766 28.4631 4.74766C30.4631 4.34766 32.3631 4.04766 34.3631 3.64766C35.6631 3.34766 36.6631 3.64766 37.6631 4.34766C38.7631 5.14766 39.5631 6.24766 40.0631 7.54766C41.0631 10.1477 41.2631 12.8477 41.0631 15.5477C40.8631 17.8477 40.5631 20.2477 39.3631 22.2477C38.5631 23.6477 37.5631 24.3477 35.8631 24.1477C34.3631 23.9477 32.8631 23.9477 31.2631 23.8477C30.6631 23.8477 30.1631 23.8477 29.7631 24.3477C28.2631 25.9477 26.5631 27.4477 25.2631 29.2477C23.4631 31.6477 22.6631 34.1477 23.3631 37.1477C23.6631 38.2477 23.8631 39.3477 24.0631 40.5477C24.3631 41.9477 23.7631 43.0477 22.4631 43.6477C21.7631 43.5477 21.3631 43.6477 20.9631 43.8477Z" fill="#E6A614"/>
</svg>
