<svg width="45" height="48" viewBox="0 0 45 48" fill="none" xmlns="http://www.w3.org/2000/svg">
<path d="M22.9338 47.9709C22.3868 47.9709 21.9492 47.9709 21.4022 47.9709C15.7132 45.8923 14.7286 40.7504 15.8226 36.4837C16.0414 35.6084 16.2602 34.8426 16.3696 33.9674C16.8073 31.6699 16.1508 30.6853 14.0722 29.7007C12.1029 28.7161 10.0243 28.2785 7.72683 28.6067C6.3046 28.8255 4.88236 28.6067 3.46012 28.2785C1.81908 27.9503 0.834461 26.8562 0.396851 25.3246C-0.04076 23.7929 0.396851 22.4801 1.70968 21.6049C2.5849 20.9485 2.3661 20.7297 1.60028 20.0733C-0.478374 18.4322 -0.587776 15.5877 1.60028 14.0561C2.5849 13.3997 2.4755 12.8527 2.03789 11.9775C0.72506 9.68 1.38147 7.71075 3.78833 6.61672C4.77296 6.17911 4.66356 5.7415 4.44475 4.86628C3.78833 2.78763 4.55415 1.14659 6.6328 0.49017C7.61743 0.161964 8.60205 0.0525589 9.58668 0.0525589C12.8688 -0.27565 15.932 1.03718 19.2141 1.14659C22.9338 1.25599 26.3253 2.56882 29.2792 4.86628C29.8262 5.30389 30.4826 5.30389 31.139 5.19449C33.3271 4.75688 35.4057 4.42867 37.5938 3.99105C39.016 3.66285 40.11 3.99105 41.2041 4.75687C42.4075 5.6321 43.2827 6.83553 43.8297 8.25776C44.9238 11.1022 45.1426 14.0561 44.9238 17.01C44.7049 19.5262 44.3767 22.1519 43.0639 24.34C42.1887 25.8716 41.0947 26.6374 39.2348 26.4186C37.5938 26.1998 35.9527 26.1998 34.2023 26.0904C33.5459 26.0904 32.9989 26.0904 32.5612 26.6374C30.9202 28.3879 29.0604 30.0289 27.6381 31.9982C25.6689 34.6238 24.7937 37.3589 25.5595 40.641C25.8877 41.8444 26.1065 43.0478 26.3253 44.3607C26.6535 45.8923 25.9971 47.0957 24.5748 47.7521C23.809 47.6427 23.3714 47.7521 22.9338 47.9709Z" fill="#FF3300"/>
</svg>
