<svg width="45" height="48" viewBox="0 0 45 48" fill="none" xmlns="http://www.w3.org/2000/svg">
<path d="M22.0662 0C22.6132 0 23.0508 0 23.5978 0C29.2868 2.07865 30.2714 7.22058 29.1774 11.4873C28.9586 12.3625 28.7398 13.1283 28.6304 14.0035C28.1927 16.301 28.8492 17.2856 30.9278 18.2703C32.8971 19.2549 34.9757 19.6925 37.2732 19.3643C38.6954 19.1455 40.1176 19.3643 41.5399 19.6925C43.1809 20.0207 44.1655 21.1147 44.6031 22.6464C45.0408 24.178 44.6031 25.4908 43.2903 26.3661C42.4151 27.0225 42.6339 27.2413 43.3997 27.8977C45.4784 29.5387 45.5878 32.3832 43.3997 33.9148C42.4151 34.5713 42.5245 35.1183 42.9621 35.9935C44.2749 38.2909 43.6185 40.2602 41.2117 41.3542C40.227 41.7918 40.3364 42.2294 40.5552 43.1047C41.2117 45.1833 40.4458 46.8244 38.3672 47.4808C37.3826 47.809 36.3979 47.9184 35.4133 47.9184C32.1312 48.2466 29.068 46.9338 25.7859 46.8244C22.0662 46.715 18.6747 45.4021 15.7208 43.1047C15.1738 42.6671 14.5174 42.6671 13.861 42.7765C11.6729 43.2141 9.59428 43.5423 7.40623 43.9799C5.98399 44.3081 4.88997 43.9799 3.79594 43.2141C2.59251 42.3389 1.71729 41.1354 1.17027 39.7132C0.0762469 36.8687 -0.142558 33.9148 0.076247 30.961C0.295052 28.4447 0.623261 25.819 1.93609 23.631C2.81132 22.0993 3.90534 21.3335 5.76519 21.5523C7.40623 21.7711 9.04727 21.7711 10.7977 21.8805C11.4541 21.8805 12.0011 21.8805 12.4388 21.3335C14.0798 19.5831 15.9396 17.942 17.3619 15.9728C19.3311 13.3471 20.2063 10.6121 19.4405 7.32998C19.1123 6.12655 18.8935 4.92312 18.6747 3.61029C18.3465 2.07865 19.0029 0.875222 20.4252 0.218805C21.191 0.328208 21.6286 0.218805 22.0662 0Z" fill="#66CC00"/>
</svg>
