<svg width="42" height="44" viewBox="0 0 42 44" fill="none" xmlns="http://www.w3.org/2000/svg">
<path d="M20.1697 0C20.6697 0 21.0697 0 21.5697 0C26.7697 1.9 27.6697 6.6 26.6697 10.5C26.4697 11.3 26.2697 12 26.1697 12.8C25.7697 14.9 26.3697 15.8 28.2697 16.7C30.0697 17.6 31.9697 18 34.0697 17.7C35.3697 17.5 36.6697 17.7 37.9697 18C39.4697 18.3 40.3697 19.3 40.7697 20.7C41.1697 22.1 40.7697 23.3 39.5697 24.1C38.7697 24.7 38.9697 24.9 39.6697 25.5C41.5697 27 41.6697 29.6 39.6697 31C38.7697 31.6 38.8697 32.1 39.2697 32.9C40.4697 35 39.8697 36.8 37.6697 37.8C36.7697 38.2 36.8697 38.6 37.0697 39.4C37.6697 41.3 36.9697 42.8 35.0697 43.4C34.1697 43.7 33.2697 43.8 32.3697 43.8C29.3697 44.1 26.5697 42.9 23.5697 42.8C20.1697 42.7 17.0697 41.5 14.3697 39.4C13.8697 39 13.2697 39 12.6697 39.1C10.6697 39.5 8.76969 39.8 6.76969 40.2C5.46969 40.5 4.46969 40.2 3.46969 39.5C2.36969 38.7 1.56969 37.6 1.06969 36.3C0.0696938 33.7 -0.130306 31 0.0696938 28.3C0.269694 26 0.569694 23.6 1.76969 21.6C2.56969 20.2 3.56969 19.5 5.26969 19.7C6.76969 19.9 8.26969 19.9 9.86969 20C10.4697 20 10.9697 20 11.3697 19.5C12.8697 17.9 14.5697 16.4 15.8697 14.6C17.6697 12.2 18.4697 9.7 17.7697 6.7C17.4697 5.6 17.2697 4.5 17.0697 3.3C16.7697 1.9 17.3697 0.8 18.6697 0.2C19.3697 0.3 19.7697 0.2 20.1697 0Z" fill="#E6A614"/>
</svg>
