<svg width="32" height="32" viewBox="0 0 32 32" fill="none" xmlns="http://www.w3.org/2000/svg">
<rect width="30" height="30" transform="translate(0 2)" fill="#120540"/>
<rect x="1.5" y="3.5" width="27" height="27" rx="3.5" stroke="#120540" stroke-width="3"/>
<path fill-rule="evenodd" clip-rule="evenodd" d="M10.8826 27.5699C10.1182 27.034 9.17672 26.6574 8.60015 25.9662C7.07 24.1329 6.3504 21.8341 5.3721 19.6823C5.16363 19.2236 4.89251 18.7941 4.60455 18.3723C4.31717 17.9513 4.13247 17.4685 4.07975 16.9616C4.02741 16.4582 4.08571 15.9392 4.32993 15.4959C4.97424 14.3264 5.52129 14.6529 7.47881 15.0832C7.9144 15.1787 8.37853 15.7753 8.57278 16.2482C9.22057 17.824 9.82509 19.4179 10.4799 21.1507C10.8334 22.0866 12.106 22.1872 12.599 21.3178C13.4614 19.7962 14.2401 18.4188 15.1219 17.1126C16.64 14.8634 18.3467 12.7452 19.9669 10.5669C20.7062 9.572 21.3905 8.53072 22.1793 7.57808C23.1152 6.44758 24.1303 5.3834 25.1242 4.30286C26.33 2.99153 27.9452 0.822722 28.9438 0.177612C29.1395 0.0512077 29.3703 -0.00500516 29.6025 0.000348442C30.3871 0.0187886 30.8448 0.133296 31.4005 0.458082C31.7681 0.672821 32 1.06542 32 1.4946V2.40501C32 3.03079 31.8555 3.65508 31.5356 4.19103C30.9672 5.14308 30.112 5.84054 29.1852 6.55494C27.8869 7.55577 26.8059 8.88257 25.7652 10.1781C23.5799 12.8984 21.4188 15.6436 19.3724 18.4709C17.9974 20.3705 16.7656 22.3873 15.6022 24.4288C14.7675 25.8931 14.1421 27.4736 12.33 28" fill="#59FF69"/>
</svg>
