<svg width="32" height="32" viewBox="0 0 32 32" fill="none" xmlns="http://www.w3.org/2000/svg">
<circle cx="16" cy="16" r="16" fill="#FF003D"/>
<path d="M5.59998 24.96V22.4H8.18459V13.44C8.18459 11.6693 8.72305 10.096 9.79997 8.72001C10.8769 7.34401 12.2769 6.44268 14 6.01601V5.12001C14 4.58668 14.1884 4.13335 14.5654 3.76001C14.9423 3.38668 15.4 3.20001 15.9384 3.20001C16.4769 3.20001 16.9346 3.38668 17.3115 3.76001C17.6884 4.13335 17.8769 4.58668 17.8769 5.12001V6.01601C19.6 6.44268 21 7.34401 22.0769 8.72001C23.1538 10.096 23.6923 11.6693 23.6923 13.44V22.4H26.2769V24.96H5.59998ZM15.9384 28.8C15.2277 28.8 14.6192 28.5493 14.1131 28.048C13.6069 27.5467 13.3538 26.944 13.3538 26.24H18.5231C18.5231 26.944 18.27 27.5467 17.7638 28.048C17.2577 28.5493 16.6492 28.8 15.9384 28.8ZM10.7692 22.4H21.1077V13.44C21.1077 12.032 20.6015 10.8267 19.5892 9.82401C18.5769 8.82135 17.36 8.32001 15.9384 8.32001C14.5169 8.32001 13.3 8.82135 12.2877 9.82401C11.2754 10.8267 10.7692 12.032 10.7692 13.44V22.4Z" fill="white"/>
<circle cx="16" cy="16" r="16" fill="#FF003D"/>
<path d="M4 13.66C4 11.66 4.445 9.825 5.335 8.155C6.225 6.485 7.42 5.1 8.92 4L10.33 5.92C9.13 6.8 8.175 7.91 7.465 9.25C6.755 10.59 6.4 12.06 6.4 13.66H4ZM25.6 13.66C25.6 12.06 25.245 10.59 24.535 9.25C23.825 7.91 22.87 6.8 21.67 5.92L23.08 4C24.58 5.1 25.775 6.485 26.665 8.155C27.555 9.825 28 11.66 28 13.66H25.6ZM6.4 24.46V22.06H8.8V13.66C8.8 12 9.3 10.525 10.3 9.235C11.3 7.945 12.6 7.1 14.2 6.7V5.86C14.2 5.36 14.375 4.935 14.725 4.585C15.075 4.235 15.5 4.06 16 4.06C16.5 4.06 16.925 4.235 17.275 4.585C17.625 4.935 17.8 5.36 17.8 5.86V6.7C19.4 7.1 20.7 7.945 21.7 9.235C22.7 10.525 23.2 12 23.2 13.66V22.06H25.6V24.46H6.4ZM16 28.06C15.34 28.06 14.775 27.825 14.305 27.355C13.835 26.885 13.6 26.32 13.6 25.66H18.4C18.4 26.32 18.165 26.885 17.695 27.355C17.225 27.825 16.66 28.06 16 28.06ZM11.2 22.06H20.8V13.66C20.8 12.34 20.33 11.21 19.39 10.27C18.45 9.33 17.32 8.86 16 8.86C14.68 8.86 13.55 9.33 12.61 10.27C11.67 11.21 11.2 12.34 11.2 13.66V22.06Z" fill="white"/>
</svg>
