<svg width="28" height="24" viewBox="0 0 28 24" fill="none" xmlns="http://www.w3.org/2000/svg">
<path d="M3.55353 24C2.82499 24 2.20132 23.7389 1.68251 23.2167C1.1637 22.6944 0.904297 22.0667 0.904297 21.3333V2.66667C0.904297 1.93333 1.1637 1.30556 1.68251 0.783333C2.20132 0.261111 2.82499 0 3.55353 0H22.0982C22.8267 0 23.4504 0.261111 23.9692 0.783333C24.488 1.30556 24.7474 1.93333 24.7474 2.66667V5.33333H27.3967V8H24.7474V10.6667H27.3967V13.3333H24.7474V16H27.3967V18.6667H24.7474V21.3333C24.7474 22.0667 24.488 22.6944 23.9692 23.2167C23.4504 23.7389 22.8267 24 22.0982 24H3.55353ZM3.55353 21.3333H22.0982V2.66667H3.55353V21.3333ZM6.20277 18.6667H12.8259V13.3333H6.20277V18.6667ZM14.1505 9.33333H19.449V5.33333H14.1505V9.33333ZM6.20277 12H12.8259V5.33333H6.20277V12ZM14.1505 18.6667H19.449V10.6667H14.1505V18.6667Z" fill="#FF8300"/>
</svg>
