<svg width="21" height="21" viewBox="0 0 21 21" fill="none" xmlns="http://www.w3.org/2000/svg">
<path fill-rule="evenodd" clip-rule="evenodd" d="M3.41901 0.586609C2.63686 -0.195536 1.36875 -0.195536 0.586609 0.586609C-0.195536 1.36875 -0.195536 2.63686 0.586609 3.41901L7.6676 10.5L0.586609 17.581C-0.195536 18.3631 -0.195536 19.6312 0.586609 20.4134C1.36875 21.1955 2.63686 21.1955 3.41901 20.4134L10.5 13.3324L17.581 20.4134C18.3631 21.1955 19.6312 21.1955 20.4134 20.4134C21.1955 19.6312 21.1955 18.3631 20.4134 17.581L13.3324 10.5L20.4134 3.41901C21.1955 2.63686 21.1955 1.36875 20.4134 0.586609C19.6312 -0.195536 18.3631 -0.195536 17.581 0.586609L10.5 7.6676L3.41901 0.586609Z" fill="#333448"/>
</svg>
