<svg width="16" height="16" viewBox="0 0 16 16" fill="none" xmlns="http://www.w3.org/2000/svg">
<path fill-rule="evenodd" clip-rule="evenodd" d="M2.60496 0.44694C2.00904 -0.14898 1.04286 -0.14898 0.44694 0.44694C-0.14898 1.04286 -0.14898 2.00904 0.44694 2.60496L5.84198 8L0.44694 13.395C-0.14898 13.991 -0.14898 14.9571 0.44694 15.5531C1.04286 16.149 2.00904 16.149 2.60496 15.5531L8 10.158L13.395 15.5531C13.991 16.149 14.9571 16.149 15.5531 15.5531C16.149 14.9571 16.149 13.991 15.5531 13.395L10.158 8L15.5531 2.60496C16.149 2.00904 16.149 1.04286 15.5531 0.44694C14.9571 -0.14898 13.991 -0.14898 13.395 0.44694L8 5.84198L2.60496 0.44694Z" fill="#1C0F5F"/>
</svg>
