<svg width="39" height="42" viewBox="0 0 39 42" fill="none" xmlns="http://www.w3.org/2000/svg">
<g clip-path="url(#clip0_1462:9292)">
<path d="M25.2755 24.2C24.2721 24.2 23.328 23.6656 22.8174 22.8106L18.9996 16.4812L15.1877 22.8106C14.6711 23.6716 13.7271 24.2059 12.7236 24.2059C12.4565 24.2059 12.1893 24.1703 11.934 24.0931L3.79958 21.7656V32.3344C3.79958 33.2072 4.39333 33.9672 5.23646 34.175L18.0733 37.3872C18.679 37.5356 19.3143 37.5356 19.914 37.3872L32.7627 34.175C33.6058 33.9612 34.1996 33.2012 34.1996 32.3344V21.7656L26.0652 24.0872C25.8099 24.1644 25.5427 24.2 25.2755 24.2ZM37.8986 17.5381L34.8408 11.4344C34.6568 11.0662 34.259 10.8525 33.8493 10.9059L18.9996 12.8L24.4443 21.8309C24.6699 22.205 25.1211 22.3831 25.5427 22.2644L37.293 18.9097C37.8808 18.7375 38.1658 18.0844 37.8986 17.5381ZM3.15833 11.4344L0.100521 17.5381C-0.172604 18.0844 0.118333 18.7375 0.700208 18.9037L12.4505 22.2584C12.8721 22.3772 13.3233 22.1991 13.549 21.825L18.9996 12.8L4.14396 10.9059C3.73427 10.8584 3.3424 11.0662 3.15833 11.4344Z" fill="#007FA2"/>
<path d="M22.2126 4.88679L18.8867 0.137074C18.857 0.0947117 18.8179 0.0601838 18.7725 0.0363474C18.7272 0.0125111 18.6769 5.15946e-05 18.6259 0H18.6251C18.574 0.000109258 18.5235 0.012698 18.4781 0.0367201C18.4326 0.0607422 18.3934 0.0955041 18.3637 0.138117L15.0593 4.88784C15.0252 4.93694 15.0049 4.99472 15.0008 5.05481C14.9967 5.11491 15.0088 5.17501 15.036 5.2285C15.0629 5.28206 15.1039 5.32698 15.1542 5.3583C15.2046 5.38962 15.2624 5.40613 15.3214 5.406H16.8765L16.8764 9.67199C16.8764 9.71508 16.8847 9.75775 16.9008 9.79756C16.9169 9.83738 16.9406 9.87355 16.9704 9.90401C17.0002 9.93448 17.0357 9.95863 17.0746 9.9751C17.1136 9.99157 17.1554 10 17.1975 10L20.0748 9.99987C20.117 9.99989 20.1588 9.99141 20.1978 9.97491C20.2368 9.95842 20.2722 9.93424 20.302 9.90375C20.3318 9.87326 20.3555 9.83707 20.3716 9.79723C20.3878 9.7574 20.396 9.7147 20.396 9.6716V5.40613H21.9516C22.0716 5.40613 22.1818 5.33701 22.2372 5.22785C22.2642 5.17419 22.2762 5.11396 22.2719 5.05378C22.2675 4.9936 22.247 4.93582 22.2126 4.88679Z" fill="#007FA2"/>
</g>
<defs>
<clipPath id="clip0_1462:9292">
<rect width="39" height="42" fill="white"/>
</clipPath>
</defs>
</svg>
