<?xml version="1.0" encoding="UTF-8"?>
<svg width="30" height="30" viewBox="0 0 30 30" xmlns="http://www.w3.org/2000/svg">
  <title>
    Clock
  </title>
  <g fill="none">
    <circle cx="15" cy="15" r="12" fill="#FFF"/>
    <g fill="#333448">
      <path d="M15 0C23.3 0 30 6.7 30 15 30 23.3 23.3 30 15 30 6.7 30 0 23.3 0 15 0 6.7 6.7 0 15 0ZM15 3.8C8.8 3.8 3.8 8.8 3.8 15 3.8 21.2 8.8 26.3 15 26.3 21.2 26.3 26.3 21.2 26.3 15 26.3 8.8 21.2 3.8 15 3.8Z"/>
      <path d="M15 5.6C16 5.6 16.9 6.5 16.9 7.5L16.9 13.1 20.6 13.1C21.7 13.1 22.5 14 22.5 15 22.5 16 21.7 16.9 20.6 16.9L15 16.9 15 16.9C14 16.9 13.1 16 13.1 15L13.1 7.5C13.1 6.5 14 5.6 15 5.6Z"/>
    </g>
  </g>
</svg>

