<svg width="40" height="40" viewBox="0 0 40 40" fill="none" xmlns="http://www.w3.org/2000/svg">
<path d="M10.8335 29.1667L23.3335 23.3334L29.1668 10.8334L16.6668 16.6667L10.8335 29.1667ZM20.0002 21.6667C19.5279 21.6667 19.1321 21.507 18.8127 21.1875C18.4932 20.8681 18.3335 20.4723 18.3335 20C18.3335 19.5278 18.4932 19.132 18.8127 18.8125C19.1321 18.4931 19.5279 18.3334 20.0002 18.3334C20.4724 18.3334 20.8682 18.4931 21.1877 18.8125C21.5071 19.132 21.6668 19.5278 21.6668 20C21.6668 20.4723 21.5071 20.8681 21.1877 21.1875C20.8682 21.507 20.4724 21.6667 20.0002 21.6667ZM20.0002 36.6667C17.6946 36.6667 15.5279 36.2292 13.5002 35.3542C11.4724 34.4792 9.7085 33.2917 8.2085 31.7917C6.7085 30.2917 5.521 28.5278 4.646 26.5C3.771 24.4723 3.3335 22.3056 3.3335 20C3.3335 17.6945 3.771 15.5278 4.646 13.5C5.521 11.4723 6.7085 9.70837 8.2085 8.20837C9.7085 6.70837 11.4724 5.52087 13.5002 4.64587C15.5279 3.77087 17.6946 3.33337 20.0002 3.33337C22.3057 3.33337 24.4724 3.77087 26.5002 4.64587C28.5279 5.52087 30.2918 6.70837 31.7918 8.20837C33.2918 9.70837 34.4793 11.4723 35.3543 13.5C36.2293 15.5278 36.6668 17.6945 36.6668 20C36.6668 22.3056 36.2293 24.4723 35.3543 26.5C34.4793 28.5278 33.2918 30.2917 31.7918 31.7917C30.2918 33.2917 28.5279 34.4792 26.5002 35.3542C24.4724 36.2292 22.3057 36.6667 20.0002 36.6667ZM20.0002 33.3334C23.7224 33.3334 26.8752 32.0417 29.4585 29.4584C32.0418 26.875 33.3335 23.7223 33.3335 20C33.3335 16.2778 32.0418 13.125 29.4585 10.5417C26.8752 7.95837 23.7224 6.66671 20.0002 6.66671C16.2779 6.66671 13.1252 7.95837 10.5418 10.5417C7.9585 13.125 6.66683 16.2778 6.66683 20C6.66683 23.7223 7.9585 26.875 10.5418 29.4584C13.1252 32.0417 16.2779 33.3334 20.0002 33.3334Z" fill="#1C0F5F"/>
</svg>
