<svg width="32" height="32" viewBox="0 0 32 32" fill="none" xmlns="http://www.w3.org/2000/svg">
<circle cx="16" cy="16" r="14.5" fill="#370C84" stroke="#120540" stroke-width="3"/>
<path fill-rule="evenodd" clip-rule="evenodd" d="M13.8994 23.6313C13.2442 23.172 12.4372 22.8492 11.943 22.2567C10.6314 20.6854 10.0146 18.715 9.17609 16.8705C8.90691 16.2783 8.51589 15.7427 8.13723 15.2012C8.0941 14.7857 8.04314 14.2962 8 13.8809C8.71418 12.1907 9.03002 12.4994 10.9818 12.9285C11.3552 13.0103 11.753 13.5218 11.9195 13.927C12.4748 15.2777 12.9929 16.6439 13.5542 18.1291C13.8572 18.9314 14.948 19.0176 15.3706 18.2724C16.1098 16.9682 16.7773 15.7876 17.533 14.6679C18.8343 12.7401 20.2972 10.9245 21.686 9.05729C22.3196 8.20459 22.9062 7.31205 23.5823 6.4955C24.3845 5.5265 25.2545 4.61434 26.1065 3.68816C27.14 2.56417 28.5245 0.70519 29.3804 0.152239C29.5482 0.0438923 29.7459 -0.00429014 29.945 0.000298665C30.6175 0.0161045 31.0098 0.114254 31.4861 0.392642C31.8012 0.576704 32 0.913215 32 1.28108V2.06144C32 2.59781 31.8761 3.13292 31.6019 3.59231C31.1148 4.40836 30.3817 5.00618 29.5873 5.61852C28.4746 6.47638 27.5479 7.61364 26.6559 8.72415C24.7828 11.0557 22.9304 13.4088 21.1763 15.8322C19.9978 17.4605 18.942 19.1892 17.9447 20.939C17.2293 22.194 16.6933 23.5488 15.14 24" fill="#59FF69"/>
</svg>
