<svg width="38" height="35" viewBox="0 0 38 35" fill="none" xmlns="http://www.w3.org/2000/svg">
<path d="M31.4098 31.1634C30.7999 31.1634 30.2037 30.9826 29.6966 30.6438C29.1896 30.3049 28.7943 29.8233 28.5609 29.2599C28.3275 28.6964 28.2665 28.0764 28.3854 27.4783C28.5044 26.8801 28.7981 26.3307 29.2294 25.8994C29.6606 25.4682 30.2101 25.1745 30.8082 25.0555C31.4064 24.9365 32.0264 24.9976 32.5898 25.231C33.1533 25.4644 33.6349 25.8596 33.9737 26.3667C34.3125 26.8738 34.4934 27.47 34.4934 28.0798C34.4916 28.8971 34.1662 29.6805 33.5883 30.2584C33.0104 30.8363 32.2271 31.1617 31.4098 31.1634ZM24.9867 26.8727H13.0198C12.7425 25.415 11.9793 24.0944 10.8548 23.1264L16.8382 12.7538C18.2363 13.2523 19.7637 13.2523 21.1618 12.7538L27.1256 23.1264C25.9974 24.0914 25.2333 25.4134 24.9605 26.8727H24.9867ZM6.59023 31.1634C5.98008 31.1647 5.38326 30.985 4.87531 30.6469C4.36735 30.3089 3.97109 29.8278 3.7367 29.2644C3.5023 28.7011 3.4403 28.0809 3.55854 27.4823C3.67678 26.8837 3.96992 26.3337 4.40091 25.9018C4.83189 25.4699 5.38135 25.1755 5.97968 25.056C6.57802 24.9365 7.19833 24.9972 7.76216 25.2304C8.326 25.4636 8.80801 25.8588 9.14713 26.366C9.48625 26.8733 9.66726 27.4697 9.66726 28.0798C9.66726 28.8965 9.34329 29.6799 8.76643 30.258C8.18956 30.8361 7.40691 31.1617 6.59023 31.1634ZM18.9967 3.5096C19.6069 3.5096 20.2033 3.69061 20.7106 4.02973C21.2178 4.36885 21.613 4.85082 21.8462 5.41466C22.0794 5.97849 22.1401 6.59884 22.0206 7.19718C21.9011 7.79551 21.6067 8.34495 21.1748 8.77593C20.7429 9.20692 20.1928 9.50008 19.5943 9.61832C18.9957 9.73656 18.3755 9.67454 17.8121 9.44014C17.2488 9.20575 16.7677 8.80951 16.4296 8.30155C16.0916 7.7936 15.9118 7.19678 15.9131 6.58662C15.9149 5.76994 16.2405 4.9873 16.8186 4.41043C17.3967 3.83356 18.18 3.5096 18.9967 3.5096ZM31.4032 21.5453C30.666 21.5452 29.9341 21.6694 29.2381 21.9127L23.2547 11.5466C24.2738 10.6749 25.0014 9.51174 25.3393 8.21389C25.6772 6.91605 25.6093 5.54581 25.1446 4.28776C24.68 3.0297 23.841 1.94425 22.7406 1.17762C21.6402 0.41098 20.3313 0 18.9902 0C17.649 0 16.3401 0.41098 15.2397 1.17762C14.1394 1.94425 13.3003 3.0297 12.8357 4.28776C12.3711 5.54581 12.3031 6.91605 12.641 8.21389C12.9789 9.51174 13.7065 10.6749 14.7256 11.5466L8.75529 21.9192C8.06275 21.671 7.33249 21.5445 6.5968 21.5453C5.34849 21.5384 4.12413 21.8879 3.06748 22.5525C2.01083 23.2172 1.16572 24.1696 0.631399 25.2978C0.0970765 26.426 -0.104302 27.6832 0.050921 28.9218C0.206144 30.1604 0.711532 31.3291 1.50772 32.2905C2.30392 33.252 3.35787 33.9664 4.54587 34.3497C5.73386 34.7331 7.00656 34.7696 8.21458 34.455C9.4226 34.1403 10.5158 33.4875 11.3658 32.5733C12.2158 31.6591 12.7873 30.5213 13.0133 29.2936H24.9867C25.2127 30.521 25.784 31.6586 26.6337 32.5727C27.4834 33.4869 28.5762 34.1397 29.7838 34.4546C30.9915 34.7695 32.2639 34.7334 33.4518 34.3505C34.6397 33.9677 35.6937 33.2539 36.4902 32.2931C37.2867 31.3323 37.7926 30.1642 37.9486 28.9259C38.1045 27.6877 37.9041 26.4306 37.3707 25.3022C36.8374 24.1739 35.9932 23.2211 34.9374 22.5556C33.8816 21.8902 32.6578 21.5397 31.4098 21.5453" fill="#007FA2"/>
</svg>
