<svg width="33" height="38" viewBox="0 0 33 38" fill="none" xmlns="http://www.w3.org/2000/svg">
<path fill-rule="evenodd" clip-rule="evenodd" d="M23.5862 0.790685L32.2927 9.55024L32.6908 10.5058V36.2536L31.3636 37.5808H2.1651L0.837891 36.2536V1.74627L2.1651 0.419067H22.6572L23.5862 0.790685ZM3.4923 3.07348V34.9264H30.0364V11.0367L22.0732 3.07348H3.4923ZM7.36774 13.8292C7.36774 17.2454 8.58346 18.9522 11.0149 18.9522C12.228 18.9522 13.157 18.493 13.802 17.5719C14.455 16.6481 14.7789 15.3236 14.7789 13.5929C14.7789 10.1183 13.5923 8.3823 11.2166 8.3823C9.96641 8.3823 9.01082 8.84682 8.34988 9.77852C7.69424 10.7076 7.36774 12.056 7.36774 13.8292ZM9.65585 13.7708C9.65585 11.3234 10.1416 10.0997 11.1158 10.0997C12.0289 10.0997 12.4854 11.2889 12.4854 13.6646C12.4854 16.0403 12.0183 17.2295 11.0866 17.2295C10.131 17.2295 9.65319 16.0774 9.65319 13.7708H9.65585ZM18.1155 18.777H24.579V16.9932H22.4767V8.3823L18.0571 9.27419V11.0978L20.2337 10.6279V16.9932H18.1155V18.777ZM14.5665 32.049H8.10036V30.2653H10.2186V23.9L8.04197 24.3698V22.5462L12.4642 21.6544V30.2653H14.5665V32.0464V32.049ZM17.3138 26.9234C17.3138 30.3396 18.5295 32.0464 20.9636 32.0464C22.1767 32.0464 23.1058 31.5872 23.7508 30.6661C24.4011 29.7424 24.7276 28.4178 24.7276 26.6871C24.7276 23.2125 23.5384 21.4765 21.1627 21.4765C19.9151 21.4765 18.9596 21.941 18.296 22.8727C17.643 23.8018 17.3138 25.1502 17.3138 26.9234ZM19.6019 26.865C19.6019 24.4176 20.0903 23.1939 21.0619 23.1939C21.975 23.1939 22.4315 24.3831 22.4315 26.7588C22.4315 29.1345 21.967 30.3237 21.0353 30.3237C20.0797 30.3237 19.6019 29.1717 19.6019 26.865Z" fill="#120540"/>
</svg>
