<svg width="18" height="18" viewBox="0 0 18 18" fill="none" xmlns="http://www.w3.org/2000/svg">
<path d="M8.99999 11.5C9.2361 11.5 9.43402 11.4201 9.59374 11.2604C9.75346 11.1007 9.83332 10.9027 9.83332 10.6666C9.83332 10.4305 9.75346 10.2326 9.59374 10.0729C9.43402 9.91315 9.2361 9.83329 8.99999 9.83329C8.76388 9.83329 8.56596 9.91315 8.40624 10.0729C8.24652 10.2326 8.16666 10.4305 8.16666 10.6666C8.16666 10.9027 8.24652 11.1007 8.40624 11.2604C8.56596 11.4201 8.76388 11.5 8.99999 11.5ZM8.16666 8.16663H9.83332V3.16663H8.16666V8.16663ZM0.666656 17.3333V2.33329C0.666656 1.87496 0.829851 1.4826 1.15624 1.15621C1.48263 0.82982 1.87499 0.666626 2.33332 0.666626H15.6667C16.125 0.666626 16.5173 0.82982 16.8437 1.15621C17.1701 1.4826 17.3333 1.87496 17.3333 2.33329V12.3333C17.3333 12.7916 17.1701 13.184 16.8437 13.5104C16.5173 13.8368 16.125 14 15.6667 14H3.99999L0.666656 17.3333ZM3.29166 12.3333H15.6667V2.33329H2.33332V13.2708L3.29166 12.3333Z" fill="white"/>
</svg>
