<svg width="82" height="82" viewBox="0 0 82 82" fill="none" xmlns="http://www.w3.org/2000/svg">
<g clip-path="url(#clip0_1_566)">
<path d="M81.9695 0V6.71381L78.612 3.3569L81.9695 0Z" fill="#59FF69"/>
<path d="M77.4979 4.53183L81.9695 9.00261V18.1731L72.9042 9.12468L77.4979 4.53183Z" fill="#59FF69"/>
<path d="M71.8206 10.1775L81.9695 20.294V29.6323L67.1658 14.8314L71.8206 10.1775Z" fill="#59FF69"/>
<path d="M4.77687 77.224L10.0726 71.9293L9.76737 72.2497L19.5195 82H8.27175L4.13588 77.8649L4.77687 77.224Z" fill="#59FF69"/>
<path d="M9.76737 72.2498L19.5195 82H8.27175L4.13588 77.8649L10.0726 71.9293L9.76737 72.2498Z" fill="#59FF69"/>
<path d="M43.6326 38.3755L82 76.7358V81.9847H81.9847L65.6092 82L32.8275 49.2244M38.0316 44.0212L75.9717 81.9847H77.0553L38.5505 43.5024" fill="#59FF69"/>
<path d="M15.4141 66.604L30.8282 82H19.7331L9.87418 72.1429M26.7229 55.3126L53.4152 82H31.2098L15.6125 66.4057M21.0456 60.9278L42.0912 81.9695H42.6406L21.3203 60.6532" fill="#59FF69"/>
<path d="M32.3849 49.6822L64.7087 82H54.1478L27.0892 54.9464L26.8755 55.16L32.3849 49.6822Z" fill="#59FF69"/>
<path d="M66.1891 15.808L81.9695 31.5854V31.6007V41.1068L61.4275 20.5687L66.1891 15.808Z" fill="#59FF69"/>
<path d="M56.2539 25.7261L60.5423 21.4536L81.9695 42.8768V52.566L55.6892 26.2906L56.2539 25.7261Z" fill="#59FF69"/>
<path d="M49.2336 32.7298L81.9695 65.4443V75.4845L44.2278 37.7499L49.2336 32.7298Z" fill="#59FF69"/>
<path d="M54.8498 27.1146H54.8651L54.8956 27.0841L81.9695 54.153V54.1682V64.0253L49.9509 32.0127L54.8498 27.1146Z" fill="#59FF69"/>
<path d="M8.24121 82H8.58307e-06L4.12061 77.8801L8.24121 82Z" fill="#59FF69"/>
</g>
<defs>
<clipPath id="clip0_1_566">
<rect width="82" height="82" fill="white" transform="matrix(-1 0 0 1 82 0)"/>
</clipPath>
</defs>
</svg>
