<svg width="38" height="38" viewBox="0 0 38 38" fill="none" xmlns="http://www.w3.org/2000/svg">
<path d="M20.9545 0C12.9323 0 6.59897 6.12222 6.17675 14.1444L2.16564 19.4222C1.74342 20.0556 2.16564 21.1111 3.01008 21.1111H6.17675V27.4444C6.17675 29.7667 8.07675 31.6667 10.399 31.6667H12.5101V38H27.2879V28.0778C32.3545 25.7556 35.7323 20.6889 35.7323 14.7778C35.7323 6.54445 29.1879 0 20.9545 0Z" fill="#120540"/>
<path d="M16 9L11 14L16 19L17.2388 17.7612L13.4777 14L17.2388 10.2388L16 9ZM22.4955 19L27.4955 14L22.4955 9L21.2567 10.2388L25.0179 14L21.2567 17.7612L22.4955 19Z" fill="white"/>
</svg>
