<svg width="23" height="14" viewBox="0 0 23 14" fill="none" xmlns="http://www.w3.org/2000/svg">
<path d="M8.502 13.9995C6.47286 13.9995 4.44423 13.9984 2.41508 14C1.54844 14.0005 0.832608 13.703 0.341423 12.9644C0.0884994 12.5839 -0.000521356 12.1579 2.29486e-06 11.7043C0.0031442 8.57455 0.000525944 5.44529 0.0020969 2.3155C0.00262055 1.01003 0.844128 0.113792 2.16111 0.0104404C2.25642 0.00313266 2.35224 0.00104473 2.44807 0.00104473C6.47966 0.00052275 10.5113 0.00156671 14.5428 7.71977e-07C15.3938 -0.000521207 16.1154 0.2636 16.6212 0.981843C16.8741 1.34096 16.9956 1.74393 16.9956 2.17926C16.9977 5.3957 17.0061 8.61161 16.992 11.828C16.9867 12.9921 16.1217 13.8679 14.9272 13.9833C14.7717 13.9984 14.6141 13.999 14.4575 13.999C12.4728 14 10.4872 14 8.502 13.9995Z" fill="#1C0F5F"/>
<path d="M22.5973 1.22192C22.7954 1.11056 23 1.23257 23 1.45978C23 5.03068 23 8.87327 23 12.4561C23 12.7135 22.7472 12.8646 22.5239 12.7368C21.0819 11.9102 19.6413 11.0804 18.1968 10.2588C18.0534 10.1773 17.9995 10.0837 18 9.90141C18.0059 7.96254 18.0015 6.02422 18.0093 4.08535C18.0098 3.98238 18.071 3.82764 18.1444 3.78469C19.6252 2.92236 21.1117 2.07269 22.5973 1.22192Z" fill="#1C0F5F"/>
</svg>
