<svg width="14" height="25" viewBox="0 0 14 25" fill="none" xmlns="http://www.w3.org/2000/svg">
<path d="M8.33333 17.5907H4.73191C4.74268 16.5491 4.82881 15.6754 4.99031 14.9698C5.15181 14.2529 5.42097 13.6033 5.7978 13.0208C6.1854 12.4384 6.69681 11.8224 7.33204 11.1727C7.8273 10.6799 8.27412 10.2151 8.67248 9.77823C9.07084 9.3302 9.38846 8.85977 9.62532 8.36693C9.86219 7.8629 9.98062 7.28607 9.98062 6.63642C9.98062 5.93078 9.86757 5.33154 9.64147 4.83871C9.41537 4.34588 9.08161 3.97065 8.64018 3.71304C8.20952 3.45542 7.67119 3.32661 7.02519 3.32661C6.48686 3.32661 5.98084 3.43862 5.50711 3.66263C5.03338 3.87545 4.65116 4.21147 4.36047 4.6707C4.06977 5.11873 3.91365 5.71237 3.89212 6.45161H0C0.0215332 5.04032 0.344531 3.85305 0.968992 2.88978C1.59345 1.92652 2.43325 1.20408 3.48837 0.722446C4.5435 0.240815 5.72244 0 7.02519 0C8.46792 0 9.70069 0.257616 10.7235 0.772849C11.7463 1.27688 12.5269 2.01613 13.0652 2.99059C13.6143 3.95385 13.8889 5.11873 13.8889 6.48521C13.8889 7.47088 13.7005 8.36693 13.3236 9.17339C12.9468 9.96864 12.4569 10.7135 11.854 11.4079C11.2511 12.0912 10.5997 12.7744 9.89987 13.4577C9.29694 14.0289 8.88781 14.6505 8.67248 15.3226C8.45715 15.9834 8.3441 16.7395 8.33333 17.5907ZM4.40891 22.8327C4.40891 22.2278 4.6081 21.7182 5.00646 21.3038C5.40482 20.8781 5.94854 20.6653 6.6376 20.6653C7.32666 20.6653 7.87037 20.8781 8.26873 21.3038C8.6671 21.7182 8.86628 22.2278 8.86628 22.8327C8.86628 23.4375 8.6671 23.9527 8.26873 24.3784C7.87037 24.7928 7.32666 25 6.6376 25C5.94854 25 5.40482 24.7928 5.00646 24.3784C4.6081 23.9527 4.40891 23.4375 4.40891 22.8327Z" fill="#FF8300"/>
</svg>
