<svg width="32" height="32" viewBox="0 0 31 31" fill="none" xmlns="http://www.w3.org/2000/svg">
<circle cx="15.5" cy="15.5" r="14" fill="#120540" stroke="#120540" stroke-width="3"/>
<path d="M23.1465 15.8818C23.1465 15.3553 23.3089 14.9129 23.6337 14.5545C23.9698 14.1848 24.4514 14 25.0787 14C25.706 14 26.182 14.1848 26.5068 14.5545C26.8429 14.9129 27.0109 15.3553 27.0109 15.8818C27.0109 16.3971 26.8429 16.8339 26.5068 17.1923C26.182 17.5508 25.706 17.73 25.0787 17.73C24.4514 17.73 23.9698 17.5508 23.6337 17.1923C23.3089 16.8339 23.1465 16.3971 23.1465 15.8818Z" fill="#59FF69"/>
<path d="M14.0732 15.8818C14.0732 15.3553 14.2357 14.9129 14.5605 14.5545C14.8965 14.1848 15.3782 14 16.0054 14C16.6327 14 17.1088 14.1848 17.4336 14.5545C17.7696 14.9129 17.9377 15.3553 17.9377 15.8818C17.9377 16.3971 17.7696 16.8339 17.4336 17.1923C17.1088 17.5508 16.6327 17.73 16.0054 17.73C15.3782 17.73 14.8965 17.5508 14.5605 17.1923C14.2357 16.8339 14.0732 16.3971 14.0732 15.8818Z" fill="#59FF69"/>
<path d="M5 15.8818C5 15.3553 5.16242 14.9129 5.48725 14.5545C5.82329 14.1848 6.30494 14 6.93221 14C7.55947 14 8.03553 14.1848 8.36036 14.5545C8.6964 14.9129 8.86441 15.3553 8.86441 15.8818C8.86441 16.3971 8.6964 16.8339 8.36036 17.1923C8.03553 17.5508 7.55947 17.73 6.93221 17.73C6.30494 17.73 5.82329 17.5508 5.48725 17.1923C5.16242 16.8339 5 16.3971 5 15.8818Z" fill="#59FF69"/>
</svg>
