<svg width="38" height="38" viewBox="0 0 38 38" fill="none" xmlns="http://www.w3.org/2000/svg">
<mask id="path-1-outside-1_1457:9293" maskUnits="userSpaceOnUse" x="21.1113" y="0.197876" width="4" height="9" fill="black">
<rect fill="white" x="21.1113" y="0.197876" width="4" height="9"/>
<path d="M22.3351 8.17703H22.4184C22.489 8.17688 22.5575 8.15325 22.6132 8.10985C22.6688 8.06646 22.7085 8.00577 22.7258 7.93736L24.4088 1.59647C24.4302 1.51494 24.4183 1.42825 24.3758 1.35545C24.3333 1.28266 24.2636 1.22973 24.1821 1.20831C24.1006 1.18689 24.0139 1.19873 23.9411 1.24124C23.8683 1.28374 23.8154 1.35342 23.7939 1.43495L22.1214 7.80711C22.1006 7.88859 22.1123 7.97501 22.1541 8.04798C22.196 8.12096 22.2646 8.17473 22.3455 8.19788"/>
</mask>
<path d="M22.3351 8.17703H22.4184C22.489 8.17688 22.5575 8.15325 22.6132 8.10985C22.6688 8.06646 22.7085 8.00577 22.7258 7.93736L24.4088 1.59647C24.4302 1.51494 24.4183 1.42825 24.3758 1.35545C24.3333 1.28266 24.2636 1.22973 24.1821 1.20831C24.1006 1.18689 24.0139 1.19873 23.9411 1.24124C23.8683 1.28374 23.8154 1.35342 23.7939 1.43495L22.1214 7.80711C22.1006 7.88859 22.1123 7.97501 22.1541 8.04798C22.196 8.12096 22.2646 8.17473 22.3455 8.19788" fill="#1C0F5F"/>
<path d="M22.4184 8.17703V8.67703L22.4195 8.67703L22.4184 8.17703ZM22.7258 7.93736L22.2425 7.80909L22.2412 7.81441L22.7258 7.93736ZM24.4088 1.59647L24.892 1.72473L24.8923 1.72352L24.4088 1.59647ZM23.7939 1.43495L23.3103 1.30791L23.3103 1.30802L23.7939 1.43495ZM22.1214 7.80711L21.6378 7.68017L21.6371 7.68297L22.1214 7.80711ZM22.3351 8.67703H22.4184V7.67703H22.3351V8.67703ZM22.4195 8.67703C22.6011 8.67665 22.7774 8.61582 22.9206 8.50417L22.3057 7.71554C22.3376 7.69068 22.3769 7.67712 22.4174 7.67703L22.4195 8.67703ZM22.9206 8.50417C23.0638 8.39253 23.1658 8.2364 23.2105 8.06031L22.2412 7.81441C22.2511 7.77515 22.2739 7.74038 22.3057 7.71554L22.9206 8.50417ZM23.2091 8.06563L24.892 1.72473L23.9255 1.46821L22.2426 7.8091L23.2091 8.06563ZM24.8923 1.72352C24.9475 1.51367 24.9169 1.29059 24.8076 1.10334L23.944 1.60757C23.9197 1.5659 23.9129 1.51621 23.9252 1.46943L24.8923 1.72352ZM24.8076 1.10334C24.6982 0.916025 24.5189 0.779831 24.3091 0.724718L24.055 1.6919C24.0083 1.67962 23.9684 1.64929 23.944 1.60757L24.8076 1.10334ZM24.3091 0.724718C24.0994 0.669607 23.8763 0.700081 23.689 0.809454L24.1932 1.67302C24.1515 1.69739 24.1018 1.70417 24.055 1.6919L24.3091 0.724718ZM23.689 0.809454C23.5016 0.918823 23.3655 1.09812 23.3103 1.30791L24.2775 1.562C24.2652 1.60873 24.2349 1.64866 24.1932 1.67302L23.689 0.809454ZM23.3103 1.30802L21.6378 7.68017L22.6051 7.93404L24.2776 1.56189L23.3103 1.30802ZM21.6371 7.68297C21.5839 7.89056 21.6138 8.11074 21.7204 8.29667L22.5879 7.79929C22.6108 7.83928 22.6172 7.88662 22.6058 7.93124L21.6371 7.68297ZM21.7204 8.29667C21.827 8.4826 22.0019 8.61961 22.2079 8.67858L22.4831 7.71717C22.5274 7.72985 22.565 7.75931 22.5879 7.79929L21.7204 8.29667Z" fill="#1C0F5F" mask="url(#path-1-outside-1_1457:9293)"/>
<path d="M15.2722 8.25H15.2458H15.1787H15.1783V8C15.1063 8.00025 15.0364 7.97555 14.9805 7.93009C14.9247 7.88464 14.8863 7.82124 14.8719 7.75067L15.2722 8.25ZM15.2722 8.25L15.298 8.24449C15.4444 8.21323 15.5725 8.12532 15.6543 7.99998C15.7362 7.87464 15.7651 7.72202 15.7348 7.57542L15.7345 7.5742L14.3789 1.17494L14.3768 1.16521L14.374 1.15567C14.3335 1.01916 14.2431 0.90291 14.1208 0.829996C13.9986 0.757082 13.8533 0.732835 13.714 0.762109C13.5746 0.791383 13.4514 0.872026 13.3688 0.987982C13.2862 1.10394 13.2503 1.24673 13.2682 1.38799L13.2695 1.3983L13.2716 1.40846L14.6269 7.80067C14.627 7.80103 14.6271 7.80139 14.6271 7.80175L15.2722 8.25Z" fill="#1C0F5F" stroke="#120540" stroke-width="0.5"/>
<mask id="path-4-outside-2_1457:9293" maskUnits="userSpaceOnUse" x="3" y="3.48743" width="7" height="9" fill="black">
<rect fill="white" x="3" y="3.48743" width="7" height="9"/>
<path d="M9.07791 11.0626C9.16068 11.0609 9.24049 11.0315 9.30457 10.979C9.34168 10.9495 9.37255 10.9129 9.39537 10.8713C9.41819 10.8297 9.43252 10.784 9.43751 10.7368C9.44251 10.6896 9.43807 10.6419 9.42446 10.5964C9.41085 10.551 9.38835 10.5087 9.35825 10.472L4.64602 4.62648C4.61636 4.58873 4.57951 4.55723 4.53762 4.53379C4.49573 4.51034 4.44962 4.49541 4.40194 4.48986C4.35425 4.48432 4.30596 4.48827 4.2598 4.50147C4.21365 4.51468 4.17057 4.53689 4.13304 4.56682C4.05904 4.6285 4.01204 4.71662 4.00201 4.81242C3.99198 4.90823 4.01974 5.00415 4.07936 5.07981L8.79756 10.9254C8.83089 10.9679 8.87342 11.0024 8.92198 11.0261C8.97053 11.0499 9.02385 11.0623 9.07791 11.0626Z"/>
</mask>
<path d="M9.07791 11.0626C9.16068 11.0609 9.24049 11.0315 9.30457 10.979C9.34168 10.9495 9.37255 10.9129 9.39537 10.8713C9.41819 10.8297 9.43252 10.784 9.43751 10.7368C9.44251 10.6896 9.43807 10.6419 9.42446 10.5964C9.41085 10.551 9.38835 10.5087 9.35825 10.472L4.64602 4.62648C4.61636 4.58873 4.57951 4.55723 4.53762 4.53379C4.49573 4.51034 4.44962 4.49541 4.40194 4.48986C4.35425 4.48432 4.30596 4.48827 4.2598 4.50147C4.21365 4.51468 4.17057 4.53689 4.13304 4.56682C4.05904 4.6285 4.01204 4.71662 4.00201 4.81242C3.99198 4.90823 4.01974 5.00415 4.07936 5.07981L8.79756 10.9254C8.83089 10.9679 8.87342 11.0024 8.92198 11.0261C8.97053 11.0499 9.02385 11.0623 9.07791 11.0626Z" fill="#1C0F5F"/>
<path d="M9.30457 10.979L8.99306 10.5879L8.98797 10.592L9.30457 10.979ZM9.35825 10.472L8.96897 10.7858L8.97176 10.7892L9.35825 10.472ZM4.64602 4.62648L4.25285 4.93543L4.25675 4.94028L4.64602 4.62648ZM4.13304 4.56682L3.82119 4.17584L3.8129 4.18275L4.13304 4.56682ZM4.07936 5.07981L3.68661 5.38931L3.69028 5.39385L4.07936 5.07981ZM8.79756 10.9254L9.19121 10.617L9.18663 10.6113L8.79756 10.9254ZM9.08805 11.5625C9.28276 11.5585 9.47049 11.4893 9.62117 11.366L8.98797 10.592C9.0105 10.5736 9.03859 10.5633 9.06776 10.5627L9.08805 11.5625ZM9.61606 11.3702C9.70501 11.2993 9.779 11.2115 9.83371 11.1118L8.95703 10.6307C8.9661 10.6142 8.97836 10.5996 8.99308 10.5879L9.61606 11.3702ZM9.83371 11.1118C9.88843 11.0121 9.92276 10.9025 9.93473 10.7894L8.94029 10.6841C8.94227 10.6654 8.94796 10.6473 8.95703 10.6307L9.83371 11.1118ZM9.93473 10.7894C9.94671 10.6763 9.93606 10.5619 9.90345 10.453L8.94547 10.7398C8.94007 10.7218 8.9383 10.7029 8.94029 10.6841L9.93473 10.7894ZM9.90345 10.453C9.87086 10.3442 9.81694 10.2428 9.74474 10.1548L8.97176 10.7892C8.95976 10.7746 8.95085 10.7578 8.94547 10.7398L9.90345 10.453ZM9.74752 10.1582L5.03529 4.31268L4.25675 4.94028L8.96899 10.7858L9.74752 10.1582ZM5.03917 4.31755C4.96869 4.22786 4.8812 4.1531 4.78183 4.09748L4.29342 4.97009C4.27782 4.96136 4.26403 4.9496 4.25288 4.9354L5.03917 4.31755ZM4.78183 4.09748C4.68243 4.04184 4.57295 4.00638 4.45969 3.99321L4.34419 4.98651C4.32629 4.98443 4.30904 4.97884 4.29342 4.97009L4.78183 4.09748ZM4.45969 3.99321C4.34645 3.98004 4.23177 3.98942 4.12223 4.02078L4.39738 4.98217C4.38015 4.98711 4.36206 4.98859 4.34419 4.98651L4.45969 3.99321ZM4.12223 4.02078C4.01269 4.05213 3.91039 4.10484 3.82127 4.17593L4.44481 4.95772C4.43074 4.96894 4.41462 4.97724 4.39738 4.98217L4.12223 4.02078ZM3.8129 4.18275C3.63886 4.32782 3.5283 4.53508 3.50473 4.76038L4.49929 4.86446C4.49577 4.89817 4.47923 4.92918 4.45317 4.9509L3.8129 4.18275ZM3.50473 4.76038C3.48114 4.98572 3.54642 5.21135 3.68664 5.38929L4.47207 4.77034C4.49305 4.79696 4.50282 4.83073 4.49929 4.86446L3.50473 4.76038ZM3.69028 5.39385L8.40848 11.2394L9.18663 10.6113L4.46843 4.76577L3.69028 5.39385ZM8.40394 11.2337C8.4838 11.3356 8.58574 11.4183 8.7022 11.4752L9.14175 10.577C9.1611 10.5865 9.17798 10.6002 9.19117 10.617L8.40394 11.2337ZM8.7022 11.4752C8.8186 11.5322 8.9464 11.562 9.07596 11.5626L9.07985 10.5626C9.1013 10.5626 9.12246 10.5676 9.14175 10.577L8.7022 11.4752Z" fill="#1C0F5F" mask="url(#path-4-outside-2_1457:9293)"/>
<mask id="path-6-outside-3_1457:9293" maskUnits="userSpaceOnUse" x="27.2686" y="4.23877" width="8" height="8" fill="black">
<rect fill="white" x="27.2686" y="4.23877" width="8" height="8"/>
<path d="M33.8978 5.33049C33.8257 5.26655 33.7313 5.23379 33.6351 5.23938C33.539 5.24497 33.449 5.28847 33.3848 5.36033L28.3743 10.9613C28.3066 11.0295 28.2686 11.1217 28.2686 11.2178C28.2686 11.3139 28.3066 11.4061 28.3743 11.4743C28.4426 11.5323 28.5293 11.564 28.6189 11.5638C28.6695 11.5636 28.7195 11.5529 28.7657 11.5324C28.8119 11.5119 28.8533 11.4819 28.8873 11.4445L33.8918 5.84348C33.9261 5.81013 33.9533 5.77025 33.9719 5.72619C33.9905 5.68214 34.0001 5.63481 34.0001 5.58699C34.0001 5.53917 33.9905 5.49183 33.9719 5.44777C33.9533 5.40372 33.9261 5.36384 33.8918 5.33049"/>
</mask>
<path d="M33.8978 5.33049C33.8257 5.26655 33.7313 5.23379 33.6351 5.23938C33.539 5.24497 33.449 5.28847 33.3848 5.36033L28.3743 10.9613C28.3066 11.0295 28.2686 11.1217 28.2686 11.2178C28.2686 11.3139 28.3066 11.4061 28.3743 11.4743C28.4426 11.5323 28.5293 11.564 28.6189 11.5638C28.6695 11.5636 28.7195 11.5529 28.7657 11.5324C28.8119 11.5119 28.8533 11.4819 28.8873 11.4445L33.8918 5.84348C33.9261 5.81013 33.9533 5.77025 33.9719 5.72619C33.9905 5.68214 34.0001 5.63481 34.0001 5.58699C34.0001 5.53917 33.9905 5.49183 33.9719 5.44777C33.9533 5.40372 33.9261 5.36384 33.8918 5.33049" fill="#1C0F5F"/>
<path d="M33.3848 5.36033L33.7575 5.69369L33.7578 5.69329L33.3848 5.36033ZM28.3743 10.9613L28.729 11.3138L28.7382 11.3045L28.747 11.2947L28.3743 10.9613ZM28.3743 11.4743L28.0197 11.8268L28.0345 11.8417L28.0505 11.8553L28.3743 11.4743ZM28.6189 11.5638L28.6175 11.0638L28.6173 11.0638L28.6189 11.5638ZM28.8873 11.4445L29.2575 11.7805L29.2602 11.7776L28.8873 11.4445ZM33.8918 5.84348L33.5431 5.48514L33.5306 5.49732L33.519 5.51034L33.8918 5.84348ZM34.2297 4.95654C34.0586 4.80471 33.8344 4.72696 33.6061 4.74023L33.6641 5.73854C33.6282 5.74063 33.5928 5.72839 33.5659 5.70444L34.2297 4.95654ZM33.6061 4.74023C33.3778 4.7535 33.1641 4.85678 33.0118 5.02736L33.7578 5.69329C33.7338 5.72016 33.7001 5.73645 33.6641 5.73854L33.6061 4.74023ZM33.0122 5.02696L28.0017 10.628L28.747 11.2947L33.7575 5.69369L33.0122 5.02696ZM28.0197 10.6089C27.8588 10.7707 27.7686 10.9896 27.7686 11.2178H28.7686C28.7686 11.2538 28.7543 11.2883 28.729 11.3138L28.0197 10.6089ZM27.7686 11.2178C27.7686 11.446 27.8588 11.6649 28.0197 11.8268L28.729 11.1218C28.7543 11.1474 28.7686 11.1818 28.7686 11.2178H27.7686ZM28.0505 11.8553C28.2096 11.9905 28.4117 12.0644 28.6204 12.0638L28.6173 11.0638C28.6469 11.0637 28.6756 11.0742 28.6982 11.0934L28.0505 11.8553ZM28.6203 12.0638C28.7404 12.0634 28.8591 12.0381 28.9687 11.9893L28.5626 11.0755C28.5798 11.0678 28.5986 11.0638 28.6175 11.0638L28.6203 12.0638ZM28.9687 11.9893C29.0785 11.9405 29.1768 11.8694 29.2575 11.7805L28.5171 11.1084C28.5298 11.0944 28.5453 11.0832 28.5626 11.0755L28.9687 11.9893ZM29.2602 11.7776L34.2647 6.17662L33.519 5.51034L28.5145 11.1113L29.2602 11.7776ZM34.2405 6.20181C34.3227 6.1218 34.388 6.02619 34.4325 5.92068L33.5113 5.53171C33.5186 5.51431 33.5294 5.49845 33.5431 5.48514L34.2405 6.20181ZM34.4325 5.92068C34.4771 5.81518 34.5001 5.70173 34.5001 5.58699H33.5001C33.5001 5.5679 33.5039 5.54911 33.5113 5.53171L34.4325 5.92068ZM34.5001 5.58699C34.5001 5.47229 34.4771 5.35882 34.4325 5.25329L33.5113 5.64226C33.5039 5.62484 33.5001 5.60606 33.5001 5.58699H34.5001ZM34.4325 5.25329C34.388 5.14778 34.3227 5.05217 34.2405 4.97216L33.5431 5.68882C33.5294 5.67552 33.5186 5.65966 33.5113 5.64226L34.4325 5.25329Z" fill="#1C0F5F" mask="url(#path-6-outside-3_1457:9293)"/>
<path d="M18.5 15.2143C18.3143 15.2143 18.1363 15.287 18.005 15.4165C17.8737 15.546 17.8 15.7216 17.8 15.9048C17.8 16.0879 17.8737 16.2635 18.005 16.393C18.1363 16.5225 18.3143 16.5952 18.5 16.5952C20.0162 16.5952 21.2496 17.8119 21.2496 19.3074C21.2496 19.4906 21.3234 19.6662 21.4546 19.7957C21.5859 19.9252 21.7639 19.9979 21.9496 19.9979C22.1353 19.9979 22.3133 19.9252 22.4446 19.7957C22.5759 19.6662 22.6496 19.4906 22.6496 19.3074C22.6481 18.2223 22.2105 17.182 21.4326 16.4148C20.6547 15.6475 19.6001 15.2157 18.5 15.2143V15.2143ZM18.5 9C12.7096 9 8 13.6455 8 19.3571C8 21.4092 8.616 23.3923 9.7836 25.1088L9.8956 25.2952C12.4506 28.894 12.9 30.0319 12.9 31.0952V35.2381C12.9 35.6043 13.0475 35.9556 13.3101 36.2146C13.5726 36.4736 13.9287 36.619 14.3 36.619H17.1C17.1 36.9781 17.254 37.3371 17.506 37.5995C17.772 37.8481 18.136 38 18.5 38C18.864 38 19.228 37.8481 19.494 37.5995C19.746 37.3371 19.9 36.9781 19.9 36.619H22.7C23.0713 36.619 23.4274 36.4736 23.69 36.2146C23.9525 35.9556 24.1 35.6043 24.1 35.2381V31.0952C24.1 30.0153 24.5466 28.8719 27.0848 25.2966C28.3302 23.5596 28.9993 21.4846 29 19.3571C29 13.6455 24.2904 9 18.5 9ZM21.3 33.8571H15.7V32.4762H21.3V33.8571ZM24.793 23.7113C22.7406 26.6016 21.7928 28.2532 21.454 29.7143H19.9V26.9524C19.9 26.5861 19.7525 26.2349 19.4899 25.9759C19.2274 25.7169 18.8713 25.5714 18.5 25.5714C18.1287 25.5714 17.7726 25.7169 17.5101 25.9759C17.2475 26.2349 17.1 26.5861 17.1 26.9524V29.7143H15.5418C15.2058 28.2919 14.2846 26.6762 12.3134 23.8867L12.2056 23.7085C11.2918 22.4365 10.8007 20.9161 10.8 19.3571C10.8 15.1687 14.2538 11.7619 18.5 11.7619C22.7462 11.7619 26.2 15.1687 26.2 19.3571C26.1987 20.9171 25.7071 22.4383 24.793 23.7113Z" fill="#1C0F5F"/>
</svg>
