<svg width="20" height="20" viewBox="0 0 20 20" fill="none" xmlns="http://www.w3.org/2000/svg">
<path d="M10 9.58967C8.71667 9.58967 7.61811 9.13278 6.70433 8.219C5.79033 7.305 5.33333 6.20633 5.33333 4.923C5.33333 3.63967 5.79033 2.54111 6.70433 1.62733C7.61811 0.713333 8.71667 0.256332 10 0.256332C11.2833 0.256332 12.3819 0.713333 13.2957 1.62733C14.2097 2.54111 14.6667 3.63967 14.6667 4.923C14.6667 6.20633 14.2097 7.305 13.2957 8.219C12.3819 9.13278 11.2833 9.58967 10 9.58967ZM0 19.7437V16.7793C0 16.1264 0.177334 15.5218 0.532 14.9653C0.886667 14.4089 1.36067 13.9811 1.954 13.682C3.27178 13.036 4.60122 12.5514 5.94233 12.2283C7.28344 11.9052 8.636 11.7437 10 11.7437C11.364 11.7437 12.7166 11.9052 14.0577 12.2283C15.3988 12.5514 16.7282 13.036 18.046 13.682C18.6393 13.9811 19.1133 14.4089 19.468 14.9653C19.8227 15.5218 20 16.1264 20 16.7793V19.7437H0ZM2 17.7437H18V16.7793C18 16.5093 17.9218 16.2593 17.7653 16.0293C17.6089 15.7996 17.3966 15.612 17.1283 15.4667C15.9794 14.9009 14.8081 14.4722 13.6143 14.1807C12.4203 13.8893 11.2156 13.7437 10 13.7437C8.78444 13.7437 7.57967 13.8893 6.38567 14.1807C5.19189 14.4722 4.02056 14.9009 2.87167 15.4667C2.60344 15.612 2.39111 15.7996 2.23467 16.0293C2.07822 16.2593 2 16.5093 2 16.7793V17.7437ZM10 7.58967C10.7333 7.58967 11.3611 7.32856 11.8833 6.80633C12.4056 6.28411 12.6667 5.65633 12.6667 4.923C12.6667 4.18967 12.4056 3.56189 11.8833 3.03967C11.3611 2.51744 10.7333 2.25633 10 2.25633C9.26667 2.25633 8.63889 2.51744 8.11667 3.03967C7.59444 3.56189 7.33333 4.18967 7.33333 4.923C7.33333 5.65633 7.59444 6.28411 8.11667 6.80633C8.63889 7.32856 9.26667 7.58967 10 7.58967Z" fill="#1C0F5F"/>
</svg>
