<svg width="28" height="28" viewBox="0 0 28 28" fill="none" xmlns="http://www.w3.org/2000/svg">
<path d="M12.6667 20.6666H15.3334V12.6666H12.6667V20.6666ZM14.0001 9.99996C14.3779 9.99996 14.6945 9.87218 14.9501 9.61663C15.2056 9.36107 15.3334 9.0444 15.3334 8.66663C15.3334 8.28885 15.2056 7.97218 14.9501 7.71663C14.6945 7.46107 14.3779 7.33329 14.0001 7.33329C13.6223 7.33329 13.3056 7.46107 13.0501 7.71663C12.7945 7.97218 12.6667 8.28885 12.6667 8.66663C12.6667 9.0444 12.7945 9.36107 13.0501 9.61663C13.3056 9.87218 13.6223 9.99996 14.0001 9.99996ZM14.0001 27.3333C12.1556 27.3333 10.4223 26.9833 8.80008 26.2833C7.17786 25.5833 5.76675 24.6333 4.56675 23.4333C3.36675 22.2333 2.41675 20.8222 1.71675 19.2C1.01675 17.5777 0.666748 15.8444 0.666748 14C0.666748 12.1555 1.01675 10.4222 1.71675 8.79996C2.41675 7.17774 3.36675 5.76663 4.56675 4.56663C5.76675 3.36663 7.17786 2.41663 8.80008 1.71663C10.4223 1.01663 12.1556 0.666626 14.0001 0.666626C15.8445 0.666626 17.5779 1.01663 19.2001 1.71663C20.8223 2.41663 22.2334 3.36663 23.4334 4.56663C24.6334 5.76663 25.5834 7.17774 26.2834 8.79996C26.9834 10.4222 27.3334 12.1555 27.3334 14C27.3334 15.8444 26.9834 17.5777 26.2834 19.2C25.5834 20.8222 24.6334 22.2333 23.4334 23.4333C22.2334 24.6333 20.8223 25.5833 19.2001 26.2833C17.5779 26.9833 15.8445 27.3333 14.0001 27.3333ZM14.0001 24.6666C16.9779 24.6666 19.5001 23.6333 21.5667 21.5666C23.6334 19.5 24.6667 16.9777 24.6667 14C24.6667 11.0222 23.6334 8.49996 21.5667 6.43329C19.5001 4.36663 16.9779 3.33329 14.0001 3.33329C11.0223 3.33329 8.50008 4.36663 6.43341 6.43329C4.36675 8.49996 3.33341 11.0222 3.33341 14C3.33341 16.9777 4.36675 19.5 6.43341 21.5666C8.50008 23.6333 11.0223 24.6666 14.0001 24.6666Z" fill="black"/>
</svg>
