<svg width="92" height="87" viewBox="0 0 92 87" fill="none" xmlns="http://www.w3.org/2000/svg">
<path d="M46.238 74.2541C43.0562 74.3193 39.8705 74.3571 36.6991 74.018C35.2097 73.8589 34.5567 73.2616 34.2692 71.7669C33.9063 69.8876 33.8919 67.9678 33.6253 66.0753C33.2389 63.3443 32.5599 60.7111 31.1563 58.3049C30.77 57.6423 30.2367 57.0972 29.7671 56.5024C26.4006 52.2377 24.5625 47.4512 24.9228 41.9553C25.2272 37.3318 26.8272 33.1871 29.8113 29.6318C33.6656 25.0396 38.5931 22.4299 44.5664 21.9317C50.3238 21.4518 55.4529 23.1407 59.89 26.816C64.089 30.293 66.5853 34.7821 67.4009 40.1868C68.1489 45.1388 67.1303 49.7297 64.517 53.9775C63.7768 55.1813 62.9118 56.2925 62.0259 57.3932C60.5183 59.2661 59.8302 61.5119 59.2942 63.8099C58.7453 66.1666 58.6828 68.586 58.3797 70.9753C58.3277 71.3835 58.2549 71.7917 58.1482 72.1882C57.8568 73.2668 57.1687 73.9019 56.0357 74.001C55.0445 74.0871 54.0519 74.2254 53.0594 74.2423C50.7869 74.2788 48.5118 74.2541 46.238 74.2541ZM46.2106 71.4956C49.0282 71.5139 51.8419 71.4591 54.6555 71.2961C55.4256 71.2518 55.5622 70.8735 55.6181 70.2319C55.7872 68.3082 55.903 66.3766 56.2529 64.4725C56.915 60.8794 58.022 57.4845 60.5196 54.6922C61.1726 53.9631 61.6851 53.1271 62.1963 52.2924C64.2906 48.8702 65.1284 45.1493 64.6536 41.178C64.0552 36.1841 61.7866 32.0498 57.8841 28.8871C53.7306 25.5209 48.9515 24.1463 43.6571 24.9157C38.3941 25.68 34.1976 28.3132 31.1225 32.6588C28.3557 36.5676 27.3072 40.9471 27.9251 45.6944C28.3544 48.9889 29.8074 51.8568 31.808 54.4705C32.4532 55.313 33.196 56.0747 33.7215 57.0163C35.0184 59.3404 35.8015 61.8314 36.2646 64.4386C36.6106 66.3871 36.7342 68.3603 36.9137 70.3271C36.9645 70.8762 37.075 71.2348 37.7684 71.2818C40.5794 71.4722 43.3944 71.5087 46.2106 71.4956Z" fill="black"/>
<path d="M46.2053 83.1448C43.4983 83.1448 40.7913 83.1565 38.0843 83.1396C36.7588 83.1304 35.9015 81.9279 36.3308 80.7398C36.6027 79.9873 37.201 79.5751 38.096 79.5712C40.3269 79.5634 42.5565 79.5699 44.7874 79.5699C48.0147 79.5699 51.2407 79.5686 54.468 79.5686C55.2329 79.5686 55.8105 79.8934 56.1292 80.6003C56.4466 81.3019 56.3269 81.9592 55.8391 82.5448C55.4462 83.017 54.9181 83.1487 54.3262 83.1474C51.6193 83.1422 48.9123 83.1448 46.2053 83.1448Z" fill="black"/>
<path d="M43.4142 28.7586C43.4012 29.4694 42.9992 29.9207 42.1212 30.175C40.3716 30.681 38.7807 31.4897 37.3563 32.6321C35.2711 34.3055 33.7921 36.4026 32.9192 38.9315C32.7917 39.3006 32.6864 39.6827 32.3872 39.9605C31.9137 40.4 31.2282 40.4796 30.7 40.1614C30.1056 39.804 29.861 39.1897 30.073 38.4737C30.6337 36.5787 31.5326 34.8519 32.7332 33.2869C34.9017 30.4606 37.7101 28.5539 41.0961 27.4909C41.3225 27.4192 41.554 27.3514 41.7895 27.3175C42.6636 27.1936 43.4311 27.8796 43.4142 28.7586Z" fill="black"/>
<path d="M46.1678 86.6402C44.3999 86.6402 42.6308 86.6493 40.863 86.6363C39.998 86.6298 39.4374 85.726 39.717 84.8339C39.8952 84.2679 40.2855 83.9588 40.8695 83.9562C42.3265 83.9496 43.7834 83.9549 45.2403 83.9549C47.3476 83.9549 49.4562 83.9536 51.5635 83.9536C52.063 83.9536 52.4403 84.1974 52.6484 84.7282C52.8552 85.2551 52.7772 85.7494 52.4585 86.1889C52.2022 86.5437 51.8562 86.6428 51.4699 86.6415C49.7034 86.6376 47.9356 86.6402 46.1678 86.6402Z" fill="black"/>
<path d="M46.1952 78.6834C43.1097 78.6834 40.0241 78.6951 36.9386 78.6781C35.4284 78.669 34.4501 77.4835 34.9392 76.311C35.2488 75.5689 35.9318 75.162 36.9516 75.1594C39.4947 75.1515 42.0365 75.1581 44.5796 75.1581C48.2583 75.1581 51.9357 75.1568 55.6144 75.1568C56.4859 75.1568 57.1441 75.4763 57.5084 76.174C57.87 76.8653 57.7334 77.5148 57.178 78.0925C56.7305 78.5582 56.1282 78.6886 55.4544 78.6873C52.3662 78.6808 49.2807 78.6847 46.1952 78.6834Z" fill="black"/>
<path d="M17.2975 67.5597C15.4919 69.023 13.6929 70.4955 11.8796 71.9483C10.9924 72.6591 9.82819 72.3905 9.529 71.4332C9.34038 70.8267 9.53551 70.2516 10.1313 69.7664C11.6142 68.5548 13.1049 67.3523 14.5918 66.1459C16.7433 64.4009 18.8935 62.6545 21.0451 60.9095C21.555 60.4961 22.1001 60.3813 22.6607 60.6395C23.2174 60.8965 23.4607 61.3621 23.4243 61.9829C23.3944 62.4824 23.1069 62.8502 22.7127 63.1684C20.9059 64.6304 19.103 66.0964 17.2975 67.5597Z" fill="black"/>
<path d="M8.71997 35.3676C6.46436 34.8185 4.20485 34.2799 1.95184 33.7191C0.84875 33.4439 0.35574 32.3536 0.932 31.5345C1.29753 31.0154 1.87249 30.8224 2.61785 31.0011C4.47802 31.4458 6.33688 31.9036 8.19574 32.3549C10.8858 33.0083 13.5746 33.6604 16.2647 34.3138C16.9021 34.469 17.3235 34.8329 17.4601 35.4367C17.5954 36.0353 17.3743 36.5127 16.8605 36.8609C16.4468 37.1413 15.9811 37.1348 15.4881 37.0148C13.2338 36.4618 10.9769 35.9154 8.71997 35.3676Z" fill="black"/>
<path d="M75.2877 67.587C77.0933 69.0503 78.8923 70.5228 80.7056 71.9757C81.5928 72.6865 82.757 72.4178 83.0562 71.4605C83.2448 70.8541 83.0497 70.2802 82.4539 69.7937C80.971 68.5821 79.4803 67.3796 77.9934 66.1733C75.8419 64.4282 73.6916 62.6819 71.5401 60.9369C71.0302 60.5234 70.4851 60.4086 69.9245 60.6669C69.3677 60.9238 69.1245 61.3894 69.1609 62.0102C69.1908 62.5097 69.4783 62.8775 69.8724 63.1957C71.6806 64.6578 73.4835 66.1237 75.2877 67.587Z" fill="black"/>
<path d="M83.6937 35.3405C85.9493 34.7914 88.2088 34.2528 90.4618 33.692C91.5649 33.4168 92.0579 32.3265 91.4816 31.5074C91.1161 30.9883 90.5411 30.7953 89.7958 30.974C87.9356 31.4187 86.0768 31.8765 84.2179 32.3278C81.5278 32.9812 78.839 33.6333 76.149 34.2867C75.5116 34.4419 75.0901 34.8058 74.9535 35.4096C74.8182 36.0083 75.0394 36.4856 75.5532 36.8338C75.9668 37.1142 76.4325 37.1077 76.9255 36.9877C79.1798 36.4347 81.4368 35.8896 83.6937 35.3405Z" fill="black"/>
<path d="M28.1324 8.57673C27.1542 6.46521 26.1669 4.35891 25.2017 2.24218C24.7295 1.20663 25.2719 0.139788 26.2709 0.0810982C26.9031 0.0445803 27.4118 0.374545 27.737 1.07099C28.5487 2.8082 29.35 4.54933 30.1565 6.28915C31.3233 8.80497 32.4902 11.3208 33.6557 13.8379C33.9315 14.434 33.9106 14.9922 33.5243 15.4747C33.1406 15.9534 32.6319 16.0773 32.0401 15.8921C31.564 15.7421 31.2778 15.373 31.0658 14.9126C30.0914 12.7972 29.1106 10.6883 28.1324 8.57673Z" fill="black"/>
<path d="M64.2192 8.54011C65.1974 6.42859 66.1847 4.32229 67.1499 2.20556C67.6221 1.17001 67.0797 0.103167 66.0806 0.0444771C65.4484 0.0079592 64.9398 0.337926 64.6146 1.03438C63.8029 2.77159 63.0016 4.51271 62.1951 6.25253C61.0283 8.76835 59.8614 11.2842 58.6959 13.8013C58.4201 14.3973 58.4409 14.9555 58.8273 15.4381C59.211 15.9167 59.7197 16.0406 60.3115 15.8554C60.7876 15.7055 61.0738 15.3364 61.2858 14.876C62.2601 12.7605 63.241 10.6503 64.2192 8.54011Z" fill="black"/>
</svg>
