<svg width="38" height="38" viewBox="0 0 38 38" fill="none" xmlns="http://www.w3.org/2000/svg">
<path d="M10.8571 10.8571H0V0H10.8571V10.8571ZM2.71429 8.14286H8.14286V2.71429H2.71429V8.14286Z" fill="#1C0F5F"/>
<path d="M37.9997 38H27.1426V27.1429H37.9997V38ZM29.8569 35.2857H35.2854V29.8571H29.8569V35.2857Z" fill="#1C0F5F"/>
<path d="M24.4286 33.9286H8.14286C5.98324 33.9286 3.91207 33.0707 2.38499 31.5436C0.857906 30.0165 0 27.9453 0 25.7857C0 23.6261 0.857906 21.5549 2.38499 20.0278C3.91207 18.5008 5.98324 17.6429 8.14286 17.6429V20.3571C6.70311 20.3571 5.32233 20.9291 4.30428 21.9471C3.28622 22.9652 2.71429 24.346 2.71429 25.7857C2.71429 27.2255 3.28622 28.6062 4.30428 29.6243C5.32233 30.6424 6.70311 31.2143 8.14286 31.2143H24.4286V33.9286Z" fill="#1C0F5F"/>
<path d="M29.857 20.3571V17.6429C31.2968 17.6429 32.6775 17.0709 33.6956 16.0529C34.7136 15.0348 35.2856 13.654 35.2856 12.2143C35.2856 10.7745 34.7136 9.39376 33.6956 8.37571C32.6775 7.35765 31.2968 6.78572 29.857 6.78572H13.5713V4.07143H29.857C32.0166 4.07143 34.0878 4.92934 35.6149 6.45642C37.142 7.9835 37.9999 10.0547 37.9999 12.2143C37.9999 14.3739 37.142 16.4451 35.6149 17.9722C34.0878 19.4992 32.0166 20.3571 29.857 20.3571Z" fill="#1C0F5F"/>
<path d="M23.0717 12.2143H14.9289L10.8574 17.6429L19.0003 25.7857L27.1431 17.6429L23.0717 12.2143Z" fill="#1C0F5F"/>
</svg>
