<svg width="38" height="38" viewBox="0 0 38 38" fill="none" xmlns="http://www.w3.org/2000/svg">
<g clip-path="url(#clip0_1462:9301)">
<path d="M12.3958 22.9588C9.41812 23.1503 6.71582 24.2844 5.18246 28.3248C5.00805 28.7857 4.58871 29.0655 4.09961 29.0655C3.27504 29.0655 0.725625 27.0119 -0.000976562 26.5161C-0.000234375 32.628 2.81488 38 9.49976 38C15.13 38 18.9998 34.7514 18.9998 29.0796C18.9998 28.8488 18.9515 28.6284 18.9278 28.402L12.3958 22.9588ZM33.9838 0C32.8586 0 31.804 0.498008 30.9995 1.2209C15.8284 14.7732 14.2498 15.0916 14.2498 19.0809C14.2498 20.0977 14.491 21.067 14.8977 21.9532L19.6343 25.9001C20.1695 26.0337 20.7209 26.125 21.2961 26.125C25.9058 26.125 28.5777 22.7503 36.9681 7.09086C37.5159 6.02582 37.9998 4.87543 37.9998 3.67754C37.9998 1.53187 36.0701 0 33.9838 0Z" fill="#1C0F5F"/>
</g>
<defs>
<clipPath id="clip0_1462:9301">
<rect width="38" height="38" fill="white"/>
</clipPath>
</defs>
</svg>
