<svg width="32" height="32" viewBox="0 0 32 32" fill="none" xmlns="http://www.w3.org/2000/svg">
<path d="M18.8737 23.4947C18.8737 22.2421 20.4106 22.2421 20.4106 20.9895C20.4106 19.7368 18.8737 19.7368 18.8737 18.4842C18.8737 17.2316 20.4106 17.2316 20.4106 15.9789M18.8737 23.4947C17.8632 23.4947 17.0527 24.3368 17.0527 25.3684C17.0527 26.4 17.8632 27.2421 18.8737 27.2421C19.8843 27.2421 20.6948 26.4 20.6948 25.3684C20.6948 24.3368 19.8843 23.4947 18.8737 23.4947ZM23.2843 16V1H8.71585V8.50526M26.9264 16L30.5685 8.50526H23.2843M26.9264 16H5.07375V31H26.9264V16ZM18.8737 4.74737C17.8632 4.74737 17.0527 5.58947 17.0527 6.62105C17.0527 7.65263 17.8632 8.49474 18.8737 8.49474C19.8843 8.49474 20.6948 7.65263 20.6948 6.62105C20.6948 5.58947 19.8843 4.74737 18.8737 4.74737ZM12.358 8.49474H1.43164L5.07375 15.9895H16.0001L12.358 8.49474Z" stroke="#120540" stroke-width="1.5" stroke-miterlimit="10"/>
</svg>
