<svg width="32" height="32" viewBox="0 0 32 32" fill="none" xmlns="http://www.w3.org/2000/svg">
<path d="M19.4665 16.6666L17.9999 15.1999L25.4665 7.73327C26.1332 7.0666 27.0665 6.6666 27.9999 6.6666C28.9332 6.6666 29.8665 7.0666 30.5332 7.73327L31.3332 8.53327L29.8665 9.99994L29.0665 9.19993C28.7999 8.93327 28.3999 8.6666 27.8665 8.6666C27.3332 8.6666 27.0665 8.79993 26.6665 9.19993L19.1999 16.6666H19.4665ZM14.1332 11.3333L12.6665 9.8666L13.4665 9.0666C13.7332 8.79994 13.9999 8.39994 13.9999 7.8666C13.9999 7.33327 13.8665 7.0666 13.4665 6.6666L12.5332 5.73327L13.9999 4.2666L14.9332 5.19993C15.5999 5.8666 15.9999 6.79994 15.9999 7.73327C15.9999 8.6666 15.5999 9.59994 14.9332 10.2666L14.1332 11.0666V11.3333Z" fill="#FF8300"/>
<path d="M9.33366 10.6665L2.66699 29.3332L21.3337 22.6665L9.33366 10.6665ZM10.4003 15.5998L16.4003 21.5998L7.06699 24.9332L10.4003 15.5998Z" fill="#1C0F5F"/>
<path d="M16.8007 14.0001L15.334 12.5334L20.134 7.7334C20.4007 7.46673 20.6673 7.06673 20.6673 6.5334C20.6673 6.00007 20.534 5.7334 20.134 5.3334L18.0007 3.20007L19.4673 1.7334L21.6007 3.86673C22.2673 4.5334 22.6673 5.46673 22.6673 6.40007C22.6673 7.3334 22.2673 8.26673 21.6007 8.9334L16.8007 13.7334V14.0001Z" fill="#59FF69"/>
<path d="M22.1337 19.3332L20.667 17.8665L22.8003 15.7332C23.467 15.0665 24.4003 14.6665 25.3337 14.6665C26.267 14.6665 27.2003 15.0665 27.867 15.7332L30.0003 17.8665L28.5337 19.3332L26.4003 17.1998C26.1337 16.9332 25.7337 16.6665 25.2003 16.6665C24.667 16.6665 24.4003 16.7998 24.0003 17.1998L21.867 19.3332H22.1337Z" fill="#59FF69"/>
</svg>
