<svg width="32" height="32" viewBox="0 0 32 32" fill="none" xmlns="http://www.w3.org/2000/svg">
<circle cx="16" cy="16" r="16" fill="#1C0F5F"/>
<mask id="mask0_2735_627" style="mask-type:alpha" maskUnits="userSpaceOnUse" x="3" y="6" width="26" height="26">
<path d="M16 19C14.2125 19 12.6823 18.3635 11.4094 17.0906C10.1365 15.8177 9.5 14.2875 9.5 12.5C9.5 10.7125 10.1365 9.18229 11.4094 7.90937C12.6823 6.63646 14.2125 6 16 6C17.7875 6 19.3177 6.63646 20.5906 7.90937C21.8635 9.18229 22.5 10.7125 22.5 12.5C22.5 14.2875 21.8635 15.8177 20.5906 17.0906C19.3177 18.3635 17.7875 19 16 19ZM3 32V27.45C3 26.5292 3.23698 25.6828 3.71094 24.9109C4.1849 24.1391 4.81458 23.55 5.6 23.1437C7.27917 22.3042 8.98542 21.6745 10.7187 21.2547C12.4521 20.8349 14.2125 20.625 16 20.625C17.7875 20.625 19.5479 20.8349 21.2812 21.2547C23.0146 21.6745 24.7208 22.3042 26.4 23.1437C27.1854 23.55 27.8151 24.1391 28.2891 24.9109C28.763 25.6828 29 26.5292 29 27.45V32H3Z" fill="#E8EAED"/>
</mask>
<g mask="url(#mask0_2735_627)">
<circle cx="16" cy="16" r="16" fill="#59FF69"/>
</g>
</svg>
