<svg width="39" height="38" viewBox="0 0 39 38" fill="none" xmlns="http://www.w3.org/2000/svg">
<path d="M12.2253 34.4908C15.0394 36.7669 18.5507 38.0059 22.1701 38C24.5582 38 26.8259 37.4711 28.8624 36.5209L36.112 37.9683C36.3674 38.0192 36.6315 38.0062 36.8808 37.9306C37.13 37.855 37.3568 37.7191 37.5409 37.535C37.7251 37.3508 37.861 37.124 37.9366 36.8748C38.0122 36.6255 38.0251 36.3615 37.9743 36.106L36.5269 28.8595C37.477 26.8231 38.006 24.5522 38.006 22.1642C38.006 18.3984 36.6916 14.943 34.4967 12.2224C34.9474 14.5672 34.955 16.9757 34.5189 19.3232C35.183 22.2253 34.8075 25.2684 33.4579 27.9221C33.2953 28.2403 33.245 28.6042 33.3154 28.9546L34.4049 34.3989L28.9574 33.3094C28.608 33.2398 28.2454 33.29 27.928 33.4519C25.2739 34.8036 22.2291 35.1791 19.326 34.5129C16.9785 34.9494 14.57 34.9419 12.2253 34.4908ZM1.47006e-05 15.8298C0.00130641 12.4031 1.11412 9.0692 3.17139 6.3287C5.22867 3.58821 8.11938 1.58898 11.4096 0.631171C14.6997 -0.326641 18.2118 -0.191355 21.4186 1.01672C24.6253 2.22479 27.3537 4.44046 29.1941 7.33109C31.0344 10.2217 31.8875 13.6313 31.6252 17.048C31.3629 20.4647 29.9993 23.7042 27.7393 26.28C25.4792 28.8558 22.4446 30.629 19.091 31.3334C15.7374 32.0378 12.2459 31.6354 9.14044 30.1866L1.89398 31.634C1.63853 31.6848 1.37448 31.6719 1.12522 31.5963C0.875967 31.5207 0.649205 31.3848 0.46503 31.2006C0.280854 31.0165 0.144951 30.7897 0.0693618 30.5404C-0.00622718 30.2912 -0.0191681 30.0271 0.0316863 29.7717L1.47908 22.5221C0.501786 20.4266 -0.00314094 18.142 1.47006e-05 15.8298ZM15.8358 21.7841C15.3108 21.7841 14.8073 21.9927 14.4361 22.3639C14.0649 22.7351 13.8563 23.2386 13.8563 23.7636C13.8563 24.2886 14.0649 24.7921 14.4361 25.1633C14.8073 25.5345 15.3108 25.7431 15.8358 25.7431C16.3608 25.7431 16.8643 25.5345 17.2355 25.1633C17.6068 24.7921 17.8153 24.2886 17.8153 23.7636C17.8153 23.2386 17.6068 22.7351 17.2355 22.3639C16.8643 21.9927 16.3608 21.7841 15.8358 21.7841ZM15.8358 6.33786C12.5166 6.33786 9.93223 8.9286 9.96707 12.5297C9.97127 12.9497 10.1421 13.3508 10.4421 13.6448C10.742 13.9388 11.1465 14.1016 11.5665 14.0974C11.9865 14.0932 12.3876 13.9223 12.6816 13.6224C12.9756 13.3224 13.1384 12.918 13.1342 12.498C13.1152 10.6642 14.2744 9.50502 15.8358 9.50502C17.3307 9.50502 18.5374 10.7465 18.5374 12.5138C18.5374 13.1536 18.3157 13.5115 17.3972 14.2368L16.5199 14.9177C14.9173 16.1972 14.2522 17.1886 14.2522 18.997C14.2515 19.3927 14.399 19.7744 14.6656 20.0668C14.9322 20.3593 15.2986 20.5413 15.6927 20.577C16.0868 20.6128 16.4801 20.4997 16.7949 20.26C17.1098 20.0203 17.3236 19.6714 17.3941 19.282L17.4289 18.788C17.4827 18.3192 17.7456 17.9835 18.5247 17.3691L19.4021 16.6881C21.0268 15.3896 21.7046 14.3698 21.7046 12.5138C21.7046 9.01728 19.1012 6.33786 15.8358 6.33786Z" fill="#1C0F5F"/>
</svg>
