<svg width="63" height="92" viewBox="0 0 63 92" fill="none" xmlns="http://www.w3.org/2000/svg">
<g clip-path="url(#clip0)">
<path d="M2.1 35.1579L2.1 85.6842C2.1 85.9634 2.21062 86.2311 2.40754 86.4285C2.60445 86.6259 2.87152 86.7368 3.15 86.7368H22.05C22.3285 86.7368 22.5956 86.8477 22.7925 87.0451C22.9894 87.2426 23.1 87.5103 23.1 87.7895C23.1 88.0686 22.9894 88.3364 22.7925 88.5338C22.5956 88.7312 22.3285 88.8421 22.05 88.8421H3.15C2.31457 88.8421 1.51335 88.5094 0.922614 87.9172C0.331874 87.325 0 86.5217 0 85.6842L0 35.1579" fill="#333448"/>
<path d="M58.8 44.6316V48.8421C58.8 49.1213 58.6894 49.389 58.4925 49.5864C58.2956 49.7838 58.0285 49.8947 57.75 49.8947C57.4715 49.8947 57.2045 49.7838 57.0075 49.5864C56.8106 49.389 56.7 49.1213 56.7 48.8421V44.6316C56.7 44.3524 56.8106 44.0846 57.0075 43.8872C57.2045 43.6898 57.4715 43.5789 57.75 43.5789C58.0285 43.5789 58.2956 43.6898 58.4925 43.8872C58.6894 44.0846 58.8 44.3524 58.8 44.6316Z" fill="#333448"/>
<path d="M58.8 61.7684V65.9789C58.8 66.2581 58.6894 66.5258 58.4925 66.7232C58.2956 66.9207 58.0285 67.0316 57.75 67.0316C57.4715 67.0316 57.2045 66.9207 57.0075 66.7232C56.8106 66.5258 56.7 66.2581 56.7 65.9789V61.7684C56.7 61.4892 56.8106 61.2215 57.0075 61.0241C57.2045 60.8267 57.4715 60.7158 57.75 60.7158C58.0285 60.7158 58.2956 60.8267 58.4925 61.0241C58.6894 61.2215 58.8 61.4892 58.8 61.7684Z" fill="#333448"/>
<path d="M58.8 70.2947V74.5052C58.8 74.7844 58.6894 75.0521 58.4925 75.2496C58.2956 75.447 58.0285 75.5579 57.75 75.5579C57.4715 75.5579 57.2045 75.447 57.0075 75.2496C56.8106 75.0521 56.7 74.7844 56.7 74.5052V70.2947C56.7 70.0155 56.8106 69.7478 57.0075 69.5504C57.2045 69.353 57.4715 69.2421 57.75 69.2421C58.0285 69.2421 58.2956 69.353 58.4925 69.5504C58.6894 69.7478 58.8 70.0155 58.8 70.2947Z" fill="#333448"/>
<path d="M58.8 66.0842V70.2947C58.8 70.5739 58.6894 70.8416 58.4925 71.039C58.2956 71.2364 58.0285 71.3474 57.75 71.3474C57.4715 71.3474 57.2045 71.2364 57.0075 71.039C56.8106 70.8416 56.7 70.5739 56.7 70.2947V66.0842C56.7 65.805 56.8106 65.5373 57.0075 65.3399C57.2045 65.1425 57.4715 65.0316 57.75 65.0316C58.0285 65.0316 58.2956 65.1425 58.4925 65.3399C58.6894 65.5373 58.8 65.805 58.8 66.0842Z" fill="#333448"/>
<path d="M58.8 21.421V25.6316C58.8 25.9107 58.6894 26.1785 58.4925 26.3759C58.2956 26.5733 58.0285 26.6842 57.75 26.6842C57.4715 26.6842 57.2045 26.5733 57.0075 26.3759C56.8106 26.1785 56.7 25.9107 56.7 25.6316V21.421C56.7 21.1419 56.8106 20.8741 57.0075 20.6767C57.2045 20.4793 57.4715 20.3684 57.75 20.3684C58.0285 20.3684 58.2956 20.4793 58.4925 20.6767C58.6894 20.8741 58.8 21.1419 58.8 21.421Z" fill="#333448"/>
<path d="M58.8 25.6842V29.8948C58.8 30.1739 58.6894 30.4417 58.4925 30.6391C58.2956 30.8365 58.0285 30.9474 57.75 30.9474C57.4715 30.9474 57.2045 30.8365 57.0075 30.6391C56.8106 30.4417 56.7 30.1739 56.7 29.8948V25.6842C56.7 25.4051 56.8106 25.1373 57.0075 24.9399C57.2045 24.7425 57.4715 24.6316 57.75 24.6316C58.0285 24.6316 58.2956 24.7425 58.4925 24.9399C58.6894 25.1373 58.8 25.4051 58.8 25.6842Z" fill="#333448"/>
<path d="M2.1 27.5368L2.1 31.7474C2.1 32.0265 1.98938 32.2943 1.79246 32.4917C1.59555 32.6891 1.32848 32.8 1.05 32.8C0.771523 32.8 0.504451 32.6891 0.307538 32.4917C0.110625 32.2943 0 32.0265 0 31.7474L0 27.5368C0 27.2577 0.110625 26.9899 0.307538 26.7925C0.504451 26.5951 0.771523 26.4842 1.05 26.4842C1.32848 26.4842 1.59555 26.5951 1.79246 26.7925C1.98938 26.9899 2.1 27.2577 2.1 27.5368Z" fill="#333448"/>
<path d="M2.1 21.2737L2.1 28.8421C2.1 29.8947 1.6275 30.7474 1.05 30.7474C0.4725 30.7474 0 29.8947 0 28.8421L0 21.2211C0 20.1684 0.4725 19.3158 1.05 19.3158C1.6275 19.3158 2.1 20.2211 2.1 21.2737Z" fill="#333448"/>
<path d="M2.1 31.8526L2.1 36.0632C2.1 36.3423 1.98938 36.6101 1.79246 36.8075C1.59555 37.0049 1.32848 37.1158 1.05 37.1158C0.771523 37.1158 0.504451 37.0049 0.307538 36.8075C0.110625 36.6101 0 36.3423 0 36.0632L0 31.8526C0 31.5734 0.110625 31.3057 0.307538 31.1083C0.504451 30.9109 0.771523 30.8 1.05 30.8C1.32848 30.8 1.59555 30.9109 1.79246 31.1083C1.98938 31.3057 2.1 31.5734 2.1 31.8526Z" fill="#333448"/>
<path d="M58.8 29.5895V33.8C58.8 34.0792 58.6894 34.3469 58.4925 34.5444C58.2956 34.7418 58.0285 34.8527 57.75 34.8527C57.4715 34.8527 57.2045 34.7418 57.0075 34.5444C56.8106 34.3469 56.7 34.0792 56.7 33.8V29.5895C56.7 29.3103 56.8106 29.0426 57.0075 28.8452C57.2045 28.6478 57.4715 28.5369 57.75 28.5369C58.0285 28.5369 58.2956 28.6478 58.4925 28.8452C58.6894 29.0426 58.8 29.3103 58.8 29.5895Z" fill="#333448"/>
<path d="M53.9385 6.85262H55.7865C56.049 6.85262 56.2485 7.31578 56.2485 7.90525C56.2485 8.49473 56.049 8.95789 55.7865 8.95789H53.9385C53.6865 8.95789 53.4765 8.4842 53.4765 7.90525C53.4765 7.32631 53.6865 6.85262 53.9385 6.85262Z" fill="#333448"/>
<path d="M36.3615 6.85262H39.9C40.1785 6.85262 40.4455 6.96352 40.6425 7.16093C40.8394 7.35834 40.95 7.62608 40.95 7.90525C40.95 8.18443 40.8394 8.45217 40.6425 8.64958C40.4455 8.84698 40.1785 8.95789 39.9 8.95789H36.3615C36.083 8.95789 35.8159 8.84698 35.619 8.64958C35.4221 8.45217 35.3115 8.18443 35.3115 7.90525C35.3115 7.62608 35.4221 7.35834 35.619 7.16093C35.8159 6.96352 36.083 6.85262 36.3615 6.85262Z" fill="#333448"/>
<path d="M18.963 6.85262H22.3965C22.6749 6.85262 22.942 6.96352 23.1389 7.16093C23.3358 7.35834 23.4465 7.62608 23.4465 7.90525C23.4465 8.18443 23.3358 8.45217 23.1389 8.64958C22.942 8.84698 22.6749 8.95789 22.3965 8.95789H18.963C18.6845 8.95789 18.4174 8.84698 18.2205 8.64958C18.0236 8.45217 17.913 8.18443 17.913 7.90525C17.913 7.62608 18.0236 7.35834 18.2205 7.16093C18.4174 6.96352 18.6845 6.85262 18.963 6.85262Z" fill="#333448"/>
<path d="M3.05548 6.31582H5.55448C5.90098 6.31582 6.17398 6.7895 6.17398 7.36845C6.17398 7.9474 5.90098 8.42108 5.55448 8.42108H3.05548C2.70898 8.42108 2.42548 7.9474 2.42548 7.36845C2.42548 6.7895 2.70898 6.31582 3.05548 6.31582Z" fill="#333448"/>
<path d="M58.8 74.1053V85.6842C58.8 86.5217 58.4681 87.325 57.8774 87.9172C57.2867 88.5094 56.4854 88.8421 55.65 88.8421H36.75C36.4715 88.8421 36.2045 88.7312 36.0075 88.5338C35.8106 88.3364 35.7 88.0686 35.7 87.7895C35.7 87.5103 35.8106 87.2426 36.0075 87.0451C36.2045 86.8477 36.4715 86.7368 36.75 86.7368H55.65C55.9285 86.7368 56.1956 86.6259 56.3925 86.4285C56.5894 86.2311 56.7 85.9634 56.7 85.6842V74.1053C56.7 73.8261 56.8106 73.5583 57.0075 73.3609C57.2045 73.1635 57.4715 73.0526 57.75 73.0526C58.0285 73.0526 58.2956 73.1635 58.4925 73.3609C58.6894 73.5583 58.8 73.8261 58.8 74.1053Z" fill="#333448"/>
<path d="M55.65 6.85262C56.4854 6.85262 57.2866 7.18532 57.8774 7.77754C58.4681 8.36976 58.8 9.17299 58.8 10.0105V21.5895C58.8 21.8686 58.6894 22.1364 58.4925 22.3338C58.2955 22.5312 58.0285 22.6421 57.75 22.6421C57.4715 22.6421 57.2044 22.5312 57.0075 22.3338C56.8106 22.1364 56.7 21.8686 56.7 21.5895V10.0105C56.7 9.73134 56.5894 9.46359 56.3925 9.26619C56.1955 9.06878 55.9285 8.95788 55.65 8.95788" fill="#333448"/>
<path d="M3.15 6.32631C2.31457 6.32631 1.51335 6.65901 0.922614 7.25123C0.331874 7.84345 0 8.64668 0 9.4842L0 21.0632C0 21.3423 0.110625 21.6101 0.307538 21.8075C0.504451 22.0049 0.771523 22.1158 1.05 22.1158C1.32848 22.1158 1.59555 22.0049 1.79246 21.8075C1.98938 21.6101 2.1 21.3423 2.1 21.0632L2.1 9.4842C2.1 9.20503 2.21062 8.93729 2.40754 8.73988C2.60445 8.54247 2.87152 8.43157 3.15 8.43157" fill="#333448"/>
<path d="M10.5 81.4737C10.5 82.0983 10.3153 82.7088 9.96914 83.2281C9.62302 83.7474 9.13105 84.1522 8.55547 84.3912C7.97988 84.6302 7.34652 84.6928 6.73548 84.5709C6.12444 84.4491 5.56316 84.1483 5.12263 83.7067C4.68209 83.265 4.38208 82.7023 4.26054 82.0898C4.139 81.4772 4.20138 80.8423 4.43979 80.2652C4.67821 79.6882 5.08195 79.195 5.59997 78.848C6.11798 78.501 6.727 78.3158 7.35001 78.3158C8.18545 78.3158 8.98666 78.6485 9.5774 79.2407C10.1681 79.8329 10.5 80.6362 10.5 81.4737ZM6.30001 81.4737C6.30001 81.6819 6.3616 81.8854 6.47697 82.0585C6.59235 82.2316 6.75633 82.3665 6.9482 82.4462C7.14006 82.5259 7.35118 82.5467 7.55486 82.5061C7.75854 82.4655 7.94563 82.3652 8.09248 82.218C8.23932 82.0708 8.33932 81.8832 8.37984 81.6791C8.42035 81.4749 8.39956 81.2632 8.32009 81.0709C8.24062 80.8785 8.10603 80.7141 7.93336 80.5985C7.76069 80.4828 7.55768 80.4211 7.35001 80.4211C7.07154 80.4211 6.80446 80.532 6.60755 80.7294C6.41064 80.9268 6.30001 81.1945 6.30001 81.4737Z" fill="#333448"/>
<path d="M10.5 26.7368C10.5 27.3614 10.3153 27.9719 9.96914 28.4912C9.62302 29.0106 9.13105 29.4153 8.55547 29.6543C7.97988 29.8933 7.34652 29.9559 6.73548 29.834C6.12444 29.7122 5.56316 29.4114 5.12263 28.9698C4.68209 28.5281 4.38208 27.9655 4.26054 27.3529C4.139 26.7403 4.20138 26.1054 4.43979 25.5283C4.67821 24.9513 5.08195 24.4581 5.59997 24.1111C6.11798 23.7641 6.727 23.5789 7.35001 23.5789C8.18545 23.5789 8.98666 23.9116 9.5774 24.5038C10.1681 25.0961 10.5 25.8993 10.5 26.7368ZM6.30001 26.7368C6.30001 26.945 6.3616 27.1485 6.47697 27.3216C6.59235 27.4947 6.75633 27.6296 6.9482 27.7093C7.14006 27.789 7.35118 27.8098 7.55486 27.7692C7.75854 27.7286 7.94563 27.6284 8.09248 27.4811C8.23932 27.3339 8.33932 27.1464 8.37984 26.9422C8.42035 26.738 8.39956 26.5263 8.32009 26.334C8.24062 26.1416 8.10603 25.9772 7.93336 25.8616C7.76069 25.7459 7.55768 25.6842 7.35001 25.6842C7.07154 25.6842 6.80446 25.7951 6.60755 25.9925C6.41064 26.1899 6.30001 26.4576 6.30001 26.7368Z" fill="#333448"/>
<path d="M54.6 81.4737C54.6 82.0983 54.4152 82.7088 54.0691 83.2281C53.723 83.7474 53.231 84.1522 52.6554 84.3912C52.0799 84.6302 51.4465 84.6928 50.8355 84.5709C50.2244 84.4491 49.6631 84.1483 49.2226 83.7067C48.7821 83.265 48.4821 82.7023 48.3605 82.0898C48.239 81.4772 48.3014 80.8423 48.5398 80.2652C48.7782 79.6882 49.1819 79.195 49.6999 78.848C50.218 78.501 50.827 78.3158 51.45 78.3158C52.2854 78.3158 53.0866 78.6485 53.6774 79.2407C54.2681 79.8329 54.6 80.6362 54.6 81.4737ZM50.4 81.4737C50.4 81.6819 50.4616 81.8854 50.5769 82.0585C50.6923 82.2316 50.8563 82.3665 51.0482 82.4462C51.24 82.5259 51.4512 82.5467 51.6548 82.5061C51.8585 82.4655 52.0456 82.3652 52.1925 82.218C52.3393 82.0708 52.4393 81.8832 52.4798 81.6791C52.5203 81.4749 52.4995 81.2632 52.4201 81.0709C52.3406 80.8785 52.206 80.7141 52.0333 80.5985C51.8607 80.4828 51.6577 80.4211 51.45 80.4211C51.1715 80.4211 50.9044 80.532 50.7075 80.7294C50.5106 80.9268 50.4 81.1945 50.4 81.4737Z" fill="#333448"/>
<path d="M54.6 26.7368C54.6 27.3614 54.4152 27.9719 54.0691 28.4912C53.723 29.0106 53.231 29.4153 52.6554 29.6543C52.0799 29.8933 51.4465 29.9559 50.8355 29.834C50.2244 29.7122 49.6631 29.4114 49.2226 28.9698C48.7821 28.5281 48.4821 27.9655 48.3605 27.3529C48.239 26.7403 48.3014 26.1054 48.5398 25.5283C48.7782 24.9513 49.1819 24.4581 49.6999 24.1111C50.218 23.7641 50.827 23.5789 51.45 23.5789C52.2854 23.5789 53.0866 23.9116 53.6774 24.5038C54.2681 25.0961 54.6 25.8993 54.6 26.7368ZM50.4 26.7368C50.4 26.945 50.4616 27.1485 50.5769 27.3216C50.6923 27.4947 50.8563 27.6296 51.0482 27.7093C51.24 27.789 51.4512 27.8098 51.6548 27.7692C51.8585 27.7286 52.0456 27.6284 52.1925 27.4811C52.3393 27.3339 52.4393 27.1464 52.4798 26.9422C52.5203 26.738 52.4995 26.5263 52.4201 26.334C52.3406 26.1416 52.206 25.9772 52.0333 25.8616C51.8607 25.7459 51.6577 25.6842 51.45 25.6842C51.1715 25.6842 50.9044 25.7951 50.7075 25.9925C50.5106 26.1899 50.4 26.4576 50.4 26.7368Z" fill="#333448"/>
<path d="M37.275 2.10526V14.7368C37.275 15.2952 37.0537 15.8307 36.6599 16.2255C36.2661 16.6203 35.7319 16.8421 35.175 16.8421H23.625C23.068 16.8421 22.5339 16.6203 22.1401 16.2255C21.7462 15.8307 21.525 15.2952 21.525 14.7368V2.10526C21.525 1.54691 21.7462 1.01143 22.1401 0.616615C22.5339 0.221802 23.068 0 23.625 0H35.175C35.7319 0 36.2661 0.221802 36.6599 0.616615C37.0537 1.01143 37.275 1.54691 37.275 2.10526ZM23.625 14.7368H35.175V2.10526H23.625V14.7368Z" fill="#333448"/>
<path d="M19.95 6.31577V18.9473C19.95 19.5057 19.7288 20.0412 19.3349 20.436C18.9411 20.8308 18.407 21.0526 17.85 21.0526H6.30001C5.74306 21.0526 5.20891 20.8308 4.81509 20.436C4.42126 20.0412 4.20001 19.5057 4.20001 18.9473L4.20001 6.31577L19.95 6.31577ZM17.85 6.31577H6.30001L6.30001 18.9473H17.85" fill="#333448"/>
<path d="M4.20001 14.7368L4.20001 2.10524C4.20001 1.54689 4.42126 1.01141 4.81509 0.616592C5.20891 0.22178 5.74306 -2.28882e-05 6.30001 -2.28882e-05H17.85C18.407 -2.28882e-05 18.9411 0.22178 19.3349 0.616592C19.7288 1.01141 19.95 1.54689 19.95 2.10524V14.7368L4.20001 14.7368ZM6.30001 14.7368H17.85V2.10524H6.30001" fill="#333448"/>
<path d="M54.6 34.1053V44.6316C54.6 44.9107 54.4894 45.1785 54.2925 45.3759C54.0955 45.5733 53.8285 45.6842 53.55 45.6842H42C41.443 45.6842 40.9089 45.4624 40.5151 45.0676C40.1212 44.6728 39.9 44.1373 39.9 43.5789V35.1579C39.9 34.5995 40.1212 34.0641 40.5151 33.6692C40.9089 33.2744 41.443 33.0526 42 33.0526H53.55C53.8285 33.0526 54.0955 33.1635 54.2925 33.3609C54.4894 33.5583 54.6 33.8261 54.6 34.1053ZM52.5 43.5789V35.1579H42V43.5789H52.5Z" fill="#333448"/>
<path d="M63 36.2105V42.5263C63 43.3638 62.6681 44.1671 62.0774 44.7593C61.4866 45.3515 60.6854 45.6842 59.85 45.6842H53.55C53.2715 45.6842 53.0045 45.5733 52.8075 45.3759C52.6106 45.1785 52.5 44.9107 52.5 44.6316V34.1053C52.5 33.8261 52.6106 33.5583 52.8075 33.3609C53.0045 33.1635 53.2715 33.0526 53.55 33.0526H59.85C60.6854 33.0526 61.4866 33.3853 62.0774 33.9776C62.6681 34.5698 63 35.373 63 36.2105ZM54.6 43.5789H59.85C60.1285 43.5789 60.3955 43.468 60.5925 43.2706C60.7894 43.0732 60.9 42.8055 60.9 42.5263V36.2105C60.9 35.9313 60.7894 35.6636 60.5925 35.4662C60.3955 35.2688 60.1285 35.1579 59.85 35.1579H54.6V43.5789Z" fill="#333448"/>
<path d="M61.95 49.8947V60.421C61.95 60.9794 61.7288 61.5149 61.3349 61.9097C60.9411 62.3045 60.407 62.5263 59.85 62.5263H49.35C48.793 62.5263 48.2589 62.3045 47.8651 61.9097C47.4712 61.5149 47.25 60.9794 47.25 60.421V49.8947C47.25 49.3364 47.4712 48.8009 47.8651 48.4061C48.2589 48.0113 48.793 47.7895 49.35 47.7895H59.85C60.407 47.7895 60.9411 48.0113 61.3349 48.4061C61.7288 48.8009 61.95 49.3364 61.95 49.8947ZM49.35 60.421H59.85V49.8947H49.35V60.421Z" fill="#333448"/>
<path d="M37.8 54.1053V66.7368C37.8 67.2952 37.5788 67.8307 37.1849 68.2255C36.7911 68.6203 36.257 68.8421 35.7 68.8421H23.1C22.543 68.8421 22.0089 68.6203 21.6151 68.2255C21.2212 67.8307 21 67.2952 21 66.7368V54.1053C21 53.5469 21.2212 53.0114 21.6151 52.6166C22.0089 52.2218 22.543 52 23.1 52H35.7C36.257 52 36.7911 52.2218 37.1849 52.6166C37.5788 53.0114 37.8 53.5469 37.8 54.1053ZM23.1 66.7368H35.7V54.1053H23.1V66.7368Z" fill="#333448"/>
<path d="M6.30003 75.1579C6.29837 75.2954 6.26983 75.4313 6.21603 75.5579C6.16285 75.6854 6.08828 75.8029 5.99553 75.9052C5.89107 75.9979 5.7745 76.0758 5.64903 76.1368C5.52207 76.1871 5.38654 76.2122 5.25003 76.2105C4.97202 76.2066 4.70574 76.0976 4.50453 75.9052C4.38347 75.7827 4.29431 75.6322 4.24487 75.467C4.19544 75.3018 4.18725 75.127 4.22103 74.9579C4.23076 74.8881 4.25206 74.8205 4.28403 74.7579C4.305 74.6932 4.33697 74.6327 4.37853 74.5789C4.411 74.5162 4.45357 74.4593 4.50453 74.4105C4.70574 74.2181 4.97202 74.1091 5.25003 74.1052C5.38724 74.1069 5.5228 74.1355 5.64903 74.1894C5.77627 74.2427 5.89347 74.3175 5.99553 74.4105C6.08828 74.5128 6.16285 74.6303 6.21603 74.7579C6.26983 74.8844 6.29837 75.0203 6.30003 75.1579Z" fill="#333448"/>
<path d="M10.5 75.1579C10.4983 75.2954 10.4698 75.4313 10.416 75.5579C10.3628 75.6854 10.2882 75.8029 10.1955 75.9052C10.091 75.9979 9.97446 76.0758 9.84899 76.1368C9.72203 76.1871 9.5865 76.2122 9.44999 76.2105C9.3118 76.2113 9.17481 76.1847 9.04689 76.1324C8.91896 76.08 8.8026 76.0028 8.70449 75.9052C8.61174 75.8029 8.53716 75.6854 8.48399 75.5579C8.3934 75.3718 8.36399 75.1617 8.39999 74.9579C8.40972 74.8881 8.43101 74.8205 8.46299 74.7579C8.48597 74.6908 8.51775 74.6271 8.55749 74.5684L8.68349 74.4105L8.84099 74.2842C8.89952 74.2443 8.96308 74.2125 9.02999 74.1894C9.09474 74.1497 9.16574 74.1212 9.23999 74.1052C9.30989 74.1001 9.38008 74.1001 9.44999 74.1052C9.5872 74.1069 9.72275 74.1355 9.84899 74.1894C9.97929 74.2367 10.0976 74.3121 10.1956 74.4104C10.2936 74.5086 10.3688 74.6272 10.416 74.7579C10.4698 74.8844 10.4983 75.0203 10.5 75.1579Z" fill="#333448"/>
<path d="M6.30003 70.9474C6.29837 71.0849 6.26983 71.2208 6.21603 71.3474C6.16285 71.4749 6.08828 71.5924 5.99553 71.6947C5.89347 71.7877 5.77627 71.8625 5.64903 71.9158C5.5228 71.9697 5.38724 71.9983 5.25003 72C4.97202 71.9961 4.70574 71.8871 4.50453 71.6947C4.38347 71.5722 4.29431 71.4217 4.24487 71.2565C4.19544 71.0913 4.18725 70.9165 4.22103 70.7474C4.23076 70.6776 4.25206 70.6101 4.28403 70.5474C4.30701 70.4803 4.33879 70.4166 4.37853 70.3579L4.50453 70.2C4.70574 70.0077 4.97202 69.8986 5.25003 69.8947C5.38724 69.8964 5.5228 69.925 5.64903 69.9789C5.77627 70.0323 5.89347 70.107 5.99553 70.2C6.08828 70.3023 6.16285 70.4198 6.21603 70.5474C6.26983 70.6739 6.29837 70.8098 6.30003 70.9474Z" fill="#333448"/>
<path d="M10.5 70.9473C10.4983 71.0849 10.4698 71.2208 10.416 71.3473C10.3628 71.4749 10.2883 71.5924 10.1955 71.6947C10.0934 71.7877 9.97625 71.8625 9.84901 71.9158C9.72278 71.9697 9.58722 71.9983 9.45001 72C9.3801 72.0051 9.30991 72.0051 9.24001 72C9.17423 71.9884 9.11053 71.9672 9.05101 71.9368C8.9841 71.9138 8.92054 71.8819 8.86201 71.8421L8.70451 71.7158C8.60609 71.6179 8.52798 71.5015 8.47467 71.3732C8.42137 71.2449 8.39392 71.1074 8.39392 70.9684C8.39392 70.8294 8.42137 70.6918 8.47467 70.5636C8.52798 70.4353 8.60609 70.3189 8.70451 70.221L8.86201 70.0947C8.92054 70.0549 8.9841 70.023 9.05101 70C9.10793 69.9549 9.17175 69.9193 9.24001 69.8947C9.30991 69.8895 9.3801 69.8895 9.45001 69.8947C9.58722 69.8964 9.72278 69.925 9.84901 69.9789C9.97931 70.0262 10.0976 70.1016 10.1956 70.1998C10.2936 70.2981 10.3689 70.4167 10.416 70.5473C10.4698 70.6739 10.4983 70.8098 10.5 70.9473Z" fill="#333448"/>
<path d="M6.30001 66.7368C6.29835 66.8744 6.26981 67.0103 6.21601 67.1368C6.16284 67.2644 6.08826 67.3819 5.99551 67.4842C5.89375 67.5803 5.77662 67.6586 5.64901 67.7158C5.52206 67.7661 5.38653 67.7911 5.25001 67.7895C4.97153 67.7895 4.70446 67.6786 4.50755 67.4812C4.31064 67.2838 4.20001 67.016 4.20001 66.7368C4.20001 66.4577 4.31064 66.1899 4.50755 65.9925C4.70446 65.7951 4.97153 65.6842 5.25001 65.6842C5.38722 65.6859 5.52278 65.7145 5.64901 65.7684C5.77626 65.8217 5.89345 65.8965 5.99551 65.9895C6.09283 66.0878 6.16982 66.2045 6.22207 66.3327C6.27432 66.461 6.30081 66.5983 6.30001 66.7368Z" fill="#333448"/>
<path d="M10.5 66.7368C10.4983 66.8744 10.4698 67.0103 10.416 67.1368C10.3628 67.2644 10.2883 67.3819 10.1955 67.4842C10.0934 67.5772 9.97625 67.652 9.84901 67.7053C9.72278 67.7592 9.58722 67.7878 9.45001 67.7895C9.31182 67.7903 9.17484 67.7637 9.04691 67.7113C8.91898 67.659 8.80262 67.5818 8.70451 67.4842C8.60609 67.3864 8.52798 67.2699 8.47467 67.1417C8.42137 67.0134 8.39392 66.8758 8.39392 66.7368C8.39392 66.5979 8.42137 66.4603 8.47467 66.332C8.52798 66.2037 8.60609 66.0873 8.70451 65.9895C8.80262 65.8919 8.91898 65.8147 9.04691 65.7623C9.17484 65.71 9.31182 65.6834 9.45001 65.6842C9.58722 65.6859 9.72278 65.7145 9.84901 65.7684C9.97931 65.8157 10.0976 65.8911 10.1956 65.9893C10.2936 66.0876 10.3689 66.2062 10.416 66.3368C10.4698 66.4634 10.4983 66.5993 10.5 66.7368Z" fill="#333448"/>
<path d="M6.30003 62.5263C6.29837 62.6639 6.26983 62.7998 6.21603 62.9263C6.16286 63.0539 6.08828 63.1714 5.99553 63.2737C5.89107 63.3663 5.7745 63.4442 5.64903 63.5053C5.52207 63.5556 5.38654 63.5806 5.25003 63.579C4.97202 63.5751 4.70574 63.466 4.50453 63.2737C4.38347 63.1512 4.29431 63.0007 4.24487 62.8355C4.19544 62.6703 4.18725 62.4954 4.22103 62.3263C4.23076 62.2566 4.25206 62.189 4.28403 62.1263C4.30701 62.0593 4.33879 61.9955 4.37853 61.9369L4.50453 61.779C4.70574 61.5866 4.97202 61.4776 5.25003 61.4737C5.38724 61.4754 5.5228 61.504 5.64903 61.5579C5.77627 61.6112 5.89347 61.686 5.99553 61.779C6.09284 61.8773 6.16984 61.994 6.22209 62.1222C6.27434 62.2505 6.30083 62.3878 6.30003 62.5263Z" fill="#333448"/>
<path d="M10.5 62.5263C10.4983 62.6639 10.4698 62.7998 10.416 62.9263C10.3628 63.0539 10.2882 63.1714 10.1955 63.2737C10.091 63.3663 9.97446 63.4442 9.84899 63.5053C9.72203 63.5556 9.5865 63.5806 9.44999 63.579C9.3118 63.5798 9.17481 63.5532 9.04689 63.5008C8.91896 63.4484 8.8026 63.3713 8.70449 63.2737C8.61174 63.1714 8.53716 63.0539 8.48399 62.9263C8.3934 62.7403 8.36399 62.5302 8.39999 62.3263C8.40972 62.2566 8.43101 62.189 8.46299 62.1263C8.48597 62.0593 8.51775 61.9955 8.55749 61.9369L8.68349 61.779L8.84099 61.6526C8.89952 61.6128 8.96308 61.581 9.02999 61.5579C9.09474 61.5181 9.16574 61.4897 9.23999 61.4737C9.30989 61.4685 9.38008 61.4685 9.44999 61.4737C9.5872 61.4754 9.72275 61.504 9.84899 61.5579C9.97929 61.6052 10.0976 61.6806 10.1956 61.7788C10.2936 61.8771 10.3688 61.9957 10.416 62.1263C10.4698 62.2529 10.4983 62.3888 10.5 62.5263Z" fill="#333448"/>
<path d="M6.29999 58.3158C6.30079 58.4543 6.2743 58.5916 6.22205 58.7199C6.1698 58.8481 6.09281 58.9648 5.99549 59.0631C5.89343 59.1561 5.77623 59.2309 5.64899 59.2842C5.52276 59.3381 5.3872 59.3667 5.24999 59.3684C5.1118 59.3692 4.97482 59.3426 4.84689 59.2903C4.71896 59.2379 4.6026 59.1607 4.50449 59.0631C4.30893 58.8659 4.19916 58.5991 4.19916 58.321C4.19916 58.0429 4.30893 57.7761 4.50449 57.5789C4.60174 57.4795 4.7177 57.4003 4.84567 57.3461C4.97364 57.2919 5.11107 57.2637 5.24999 57.2631C5.3872 57.2648 5.52276 57.2934 5.64899 57.3473C5.77623 57.4006 5.89343 57.4754 5.99549 57.5684C6.09281 57.6668 6.1698 57.7834 6.22205 57.9116C6.2743 58.0399 6.30079 58.1772 6.29999 58.3158Z" fill="#333448"/>
<path d="M10.5 58.3158C10.4983 58.4534 10.4698 58.5893 10.416 58.7158C10.3628 58.8434 10.2882 58.9609 10.1955 59.0632C10.0934 59.1562 9.97623 59.2309 9.84899 59.2842C9.72276 59.3382 9.5872 59.3668 9.44999 59.3684C9.38008 59.3736 9.30989 59.3736 9.23999 59.3684C9.17421 59.3569 9.11051 59.3356 9.05099 59.3053C8.98408 59.2822 8.92052 59.2504 8.86199 59.2105L8.70449 59.0842C8.57469 58.9606 8.47859 58.8058 8.42529 58.6344C8.372 58.4631 8.36329 58.2809 8.39999 58.1053L8.46299 57.9158L8.55749 57.7263C8.59058 57.6702 8.63322 57.6203 8.68349 57.579C8.82997 57.4311 9.01693 57.3302 9.22067 57.289C9.42441 57.2478 9.63578 57.2681 9.82799 57.3474C9.95699 57.402 10.0746 57.4806 10.1745 57.579C10.3691 57.7765 10.4849 58.0386 10.5 58.3158Z" fill="#333448"/>
<path d="M6.3 54.1052C6.3008 54.2438 6.27431 54.3811 6.22206 54.5094C6.16981 54.6376 6.09282 54.7543 5.9955 54.8526C5.89373 54.9487 5.77661 55.027 5.649 55.0842C5.52204 55.1345 5.38651 55.1596 5.25 55.1579C4.97152 55.1579 4.70445 55.047 4.50754 54.8496C4.31062 54.6522 4.2 54.3844 4.2 54.1052C4.19918 53.9642 4.22664 53.8244 4.28075 53.6942C4.33486 53.564 4.41452 53.4461 4.515 53.3474C4.71226 53.1567 4.97603 53.051 5.25 53.0526C5.38721 53.0543 5.52277 53.0829 5.649 53.1368C5.77624 53.1901 5.89344 53.2649 5.9955 53.3579C6.08825 53.4602 6.16283 53.5777 6.216 53.7052C6.2698 53.8318 6.29834 53.9677 6.3 54.1052Z" fill="#333448"/>
<path d="M10.5 54.1052C10.4983 54.2428 10.4698 54.3787 10.416 54.5052C10.3628 54.6328 10.2883 54.7503 10.1955 54.8526C10.0934 54.9456 9.97625 55.0204 9.84901 55.0737C9.72278 55.1276 9.58722 55.1562 9.45001 55.1579C9.31182 55.1587 9.17484 55.1321 9.04691 55.0797C8.91898 55.0274 8.80262 54.9502 8.70451 54.8526C8.60609 54.7548 8.52798 54.6383 8.47467 54.5101C8.42137 54.3818 8.39392 54.2442 8.39392 54.1052C8.39392 53.9663 8.42137 53.8287 8.47467 53.7004C8.52798 53.5722 8.60609 53.4557 8.70451 53.3579C8.80262 53.2603 8.91898 53.1831 9.04691 53.1308C9.17484 53.0784 9.31182 53.0518 9.45001 53.0526C9.58722 53.0543 9.72278 53.0829 9.84901 53.1368C9.97931 53.1841 10.0976 53.2595 10.1956 53.3578C10.2936 53.456 10.3689 53.5746 10.416 53.7052C10.4698 53.8318 10.4983 53.9677 10.5 54.1052Z" fill="#333448"/>
<path d="M6.30001 49.8948C6.30081 50.0333 6.27432 50.1706 6.22207 50.2989C6.16982 50.4271 6.09283 50.5438 5.99551 50.6421C5.89345 50.7351 5.77626 50.8099 5.64901 50.8632C5.52278 50.9171 5.38722 50.9457 5.25001 50.9474C4.97153 50.9474 4.70446 50.8365 4.50755 50.6391C4.31064 50.4417 4.20001 50.1739 4.20001 49.8948C4.20001 49.6156 4.31064 49.3478 4.50755 49.1504C4.70446 48.953 4.97153 48.8421 5.25001 48.8421C5.38722 48.8438 5.52278 48.8724 5.64901 48.9263C5.77626 48.9796 5.89345 49.0544 5.99551 49.1474C6.09283 49.2457 6.16982 49.3624 6.22207 49.4906C6.27432 49.6189 6.30081 49.7562 6.30001 49.8948Z" fill="#333448"/>
<path d="M10.5 49.8947C10.4983 50.0323 10.4698 50.1682 10.416 50.2947C10.3628 50.4223 10.2882 50.5398 10.1955 50.6421C10.091 50.7347 9.97445 50.8127 9.84898 50.8737C9.72203 50.924 9.5865 50.949 9.44998 50.9474C9.3118 50.9482 9.17481 50.9216 9.04688 50.8692C8.91895 50.8168 8.8026 50.7397 8.70448 50.6421L8.57848 50.4842L8.48398 50.2947L8.39998 50.1053C8.36863 49.9702 8.36863 49.8298 8.39998 49.6947C8.40972 49.625 8.43101 49.5574 8.46298 49.4947L8.55748 49.3053L8.68348 49.1474L8.84098 49.0211C8.89952 48.9812 8.96307 48.9494 9.02998 48.9263C9.09474 48.8866 9.16574 48.8581 9.23998 48.8421C9.30989 48.8369 9.38008 48.8369 9.44998 48.8421C9.5872 48.8438 9.72275 48.8724 9.84898 48.9263C9.97928 48.9736 10.0976 49.049 10.1956 49.1473C10.2936 49.2455 10.3688 49.3641 10.416 49.4947C10.4698 49.6213 10.4983 49.7572 10.5 49.8947Z" fill="#333448"/>
<path d="M6.3 45.6842C6.3008 45.8228 6.27431 45.9601 6.22206 46.0883C6.16981 46.2166 6.09281 46.3332 5.9955 46.4316C5.89104 46.5242 5.77447 46.6021 5.649 46.6632C5.52204 46.7135 5.38651 46.7385 5.25 46.7369C4.97199 46.733 4.70572 46.6239 4.5045 46.4316C4.41175 46.3293 4.33717 46.2118 4.284 46.0842C4.20359 45.8925 4.18162 45.6813 4.22087 45.4771C4.26011 45.2729 4.3588 45.0849 4.5045 44.9369C4.70572 44.7445 4.97199 44.6355 5.25 44.6316C5.38651 44.6299 5.52204 44.6549 5.649 44.7053C5.77447 44.7663 5.89104 44.8442 5.9955 44.9369C6.08825 45.0392 6.16283 45.1567 6.216 45.2842C6.2698 45.4108 6.29834 45.5467 6.3 45.6842Z" fill="#333448"/>
<path d="M10.5 45.6842C10.4983 45.8218 10.4698 45.9577 10.416 46.0842C10.3628 46.2118 10.2882 46.3293 10.1955 46.4316C10.0934 46.5246 9.97623 46.5993 9.84899 46.6526C9.72276 46.7066 9.5872 46.7352 9.44999 46.7368C9.38008 46.742 9.30989 46.742 9.23999 46.7368C9.17421 46.7253 9.11051 46.704 9.05099 46.6737C8.98408 46.6506 8.92052 46.6188 8.86199 46.579L8.70449 46.4526C8.57469 46.329 8.47859 46.1742 8.42529 46.0028C8.372 45.8315 8.36329 45.6494 8.39999 45.4737L8.46299 45.2842L8.55749 45.0947C8.59058 45.0386 8.63322 44.9887 8.68349 44.9474C8.82997 44.7995 9.01693 44.6986 9.22067 44.6574C9.42441 44.6162 9.63578 44.6365 9.82799 44.7158C9.95699 44.7704 10.0746 44.849 10.1745 44.9474C10.3691 45.1449 10.4849 45.407 10.5 45.6842Z" fill="#333448"/>
<path d="M6.30001 41.3263C6.30081 41.4649 6.27432 41.6022 6.22207 41.7304C6.16982 41.8587 6.09283 41.9753 5.99551 42.0737C5.89345 42.1667 5.77626 42.2414 5.64901 42.2948C5.52278 42.3487 5.38722 42.3773 5.25001 42.379C4.97153 42.379 4.70446 42.2681 4.50755 42.0707C4.31064 41.8733 4.20001 41.6055 4.20001 41.3263C4.20001 41.0472 4.31064 40.7794 4.50755 40.582C4.70446 40.3846 4.97153 40.2737 5.25001 40.2737C5.38722 40.2754 5.52278 40.304 5.64901 40.3579C5.77626 40.4112 5.89345 40.486 5.99551 40.579C6.09283 40.6773 6.16982 40.794 6.22207 40.9222C6.27432 41.0505 6.30081 41.1878 6.30001 41.3263Z" fill="#333448"/>
<path d="M10.5 41.3263C10.4983 41.4639 10.4698 41.5998 10.416 41.7263C10.3628 41.8539 10.2882 41.9714 10.1955 42.0737C10.091 42.1663 9.97445 42.2442 9.84898 42.3053C9.72203 42.3556 9.5865 42.3806 9.44998 42.3789C9.3118 42.3798 9.17481 42.3532 9.04688 42.3008C8.91895 42.2484 8.8026 42.1712 8.70448 42.0737L8.57848 41.9158L8.48398 41.7263L8.39998 41.5368C8.36863 41.4018 8.36863 41.2614 8.39998 41.1263C8.40972 41.0566 8.43101 40.989 8.46298 40.9263C8.4838 40.8583 8.51574 40.7943 8.55748 40.7368L8.68348 40.5789L8.84098 40.4526C8.89952 40.4128 8.96307 40.3809 9.02998 40.3579C9.0895 40.3275 9.1532 40.3063 9.21898 40.2947C9.28889 40.2896 9.35908 40.2896 9.42898 40.2947C9.56619 40.2964 9.70175 40.325 9.82798 40.3789C9.95828 40.4262 10.0766 40.5016 10.1746 40.5999C10.2726 40.6981 10.3478 40.8167 10.395 40.9474C10.4534 41.0659 10.489 41.1945 10.5 41.3263Z" fill="#333448"/>
<path d="M6.3 37.1158C6.3008 37.2543 6.27431 37.3917 6.22206 37.5199C6.16981 37.6482 6.09281 37.7648 5.9955 37.8632C5.89104 37.9558 5.77447 38.0337 5.649 38.0948C5.52204 38.1451 5.38651 38.1701 5.25 38.1684C4.97199 38.1646 4.70572 38.0555 4.5045 37.8632C4.41175 37.7609 4.33717 37.6434 4.284 37.5158C4.20359 37.3241 4.18162 37.1128 4.22087 36.9086C4.26011 36.7044 4.3588 36.5165 4.5045 36.3684C4.70572 36.1761 4.97199 36.0671 5.25 36.0632C5.38651 36.0615 5.52204 36.0865 5.649 36.1369C5.77447 36.1979 5.89104 36.2758 5.9955 36.3684C6.08825 36.4708 6.16283 36.5882 6.216 36.7158C6.2698 36.8424 6.29834 36.9783 6.3 37.1158Z" fill="#333448"/>
<path d="M10.5 37.1158C10.4983 37.2534 10.4698 37.3892 10.416 37.5158C10.3628 37.6434 10.2882 37.7608 10.1955 37.8632C10.0934 37.9561 9.97623 38.0309 9.84899 38.0842C9.72276 38.1382 9.5872 38.1668 9.44999 38.1684C9.38008 38.1736 9.30989 38.1736 9.23999 38.1684C9.17421 38.1569 9.11051 38.1356 9.05099 38.1053C8.98408 38.0822 8.92052 38.0504 8.86199 38.0105L8.70449 37.8842C8.57469 37.7606 8.47859 37.6058 8.42529 37.4344C8.372 37.2631 8.36329 37.0809 8.39999 36.9053L8.46299 36.7158C8.48381 36.6478 8.51574 36.5838 8.55749 36.5263C8.59058 36.4702 8.63322 36.4203 8.68349 36.379C8.82997 36.2311 9.01693 36.1302 9.22067 36.089C9.42441 36.0478 9.63578 36.0681 9.82799 36.1474C9.95907 36.1981 10.0774 36.2772 10.1745 36.379C10.3691 36.5765 10.4849 36.8386 10.5 37.1158Z" fill="#333448"/>
<path d="M6.3 33.1684C6.3008 33.307 6.27431 33.4443 6.22206 33.5726C6.16981 33.7008 6.09281 33.8174 5.9955 33.9158C5.88653 33.9903 5.77046 34.0538 5.649 34.1053C5.52502 34.1701 5.38936 34.2095 5.25 34.2211C4.97262 34.2142 4.70738 34.1056 4.5045 33.9158C4.41175 33.8135 4.33717 33.696 4.284 33.5684C4.20359 33.3767 4.18162 33.1655 4.22087 32.9613C4.26011 32.7571 4.3588 32.5691 4.5045 32.4211C4.60261 32.3235 4.71897 32.2463 4.8469 32.1939C4.97483 32.1416 5.11181 32.115 5.25 32.1158C5.38693 32.1086 5.52363 32.1338 5.649 32.1895C5.77661 32.2467 5.89373 32.325 5.9955 32.4211C6.09109 32.5212 6.16603 32.6392 6.216 32.7684C6.2698 32.895 6.29834 33.0309 6.3 33.1684Z" fill="#333448"/>
<path d="M10.5 33.1684C10.4983 33.306 10.4698 33.4419 10.416 33.5684C10.3628 33.696 10.2882 33.8135 10.1955 33.9158C10.0889 33.9941 9.97236 34.0578 9.849 34.1053C9.7231 34.1652 9.58836 34.2043 9.45 34.2211C9.37649 34.2211 9.303 34.2211 9.24 34.2211C9.17104 34.1932 9.10717 34.1541 9.05099 34.1053L8.86199 34.0105L8.70449 33.8842C8.58296 33.7659 8.4918 33.6199 8.43877 33.4586C8.38575 33.2973 8.37244 33.1255 8.39999 32.9579C8.40821 32.8912 8.42963 32.8268 8.463 32.7684C8.48163 32.6996 8.51375 32.6352 8.55749 32.579C8.59058 32.5228 8.63323 32.473 8.6835 32.4316C8.82998 32.2838 9.01693 32.1828 9.22068 32.1416C9.42442 32.1004 9.63578 32.1207 9.82799 32.2C9.95776 32.2532 10.0756 32.332 10.1745 32.4316C10.3716 32.6274 10.4879 32.8905 10.5 33.1684Z" fill="#333448"/>
<path d="M37.8 83.5789V89.8947C37.8 90.4531 37.5788 90.9886 37.1849 91.3834C36.7911 91.7782 36.257 92 35.7 92H23.1C22.543 92 22.0089 91.7782 21.6151 91.3834C21.2212 90.9886 21 90.4531 21 89.8947V83.5789C21 83.2998 21.1106 83.032 21.3075 82.8346C21.5045 82.6372 21.7715 82.5263 22.05 82.5263H36.75C37.0285 82.5263 37.2956 82.6372 37.4925 82.8346C37.6894 83.032 37.8 83.2998 37.8 83.5789ZM23.1 89.8947H35.7V84.6316H23.1V89.8947Z" fill="#333448"/>
<path d="M43.05 79.3684V83.579C43.05 83.8581 42.9394 84.1259 42.7425 84.3233C42.5455 84.5207 42.2785 84.6316 42 84.6316H16.8C16.5215 84.6316 16.2545 84.5207 16.0575 84.3233C15.8606 84.1259 15.75 83.8581 15.75 83.579V79.3684C15.75 79.0893 15.8606 78.8215 16.0575 78.6241C16.2545 78.4267 16.5215 78.3158 16.8 78.3158H42C42.2785 78.3158 42.5455 78.4267 42.7425 78.6241C42.9394 78.8215 43.05 79.0893 43.05 79.3684ZM40.95 82.5263V80.4211H17.85V82.5263H40.95Z" fill="#333448"/>
<path d="M17.85 76.2106V79.3685C17.85 79.6476 17.7394 79.9154 17.5425 80.1128C17.3456 80.3102 17.0785 80.4211 16.8 80.4211C16.5215 80.4211 16.2545 80.3102 16.0575 80.1128C15.8606 79.9154 15.75 79.6476 15.75 79.3685V76.2106C15.75 75.9314 15.8606 75.6636 16.0575 75.4662C16.2545 75.2688 16.5215 75.1579 16.8 75.1579C17.0785 75.1579 17.3456 75.2688 17.5425 75.4662C17.7394 75.6636 17.85 75.9314 17.85 76.2106Z" fill="#333448"/>
<path d="M22.05 76.2106V79.3685C22.05 79.6476 21.9394 79.9154 21.7425 80.1128C21.5456 80.3102 21.2785 80.4211 21 80.4211C20.7215 80.4211 20.4545 80.3102 20.2575 80.1128C20.0606 79.9154 19.95 79.6476 19.95 79.3685V76.2106C19.95 75.9314 20.0606 75.6636 20.2575 75.4662C20.4545 75.2688 20.7215 75.1579 21 75.1579C21.2785 75.1579 21.5456 75.2688 21.7425 75.4662C21.9394 75.6636 22.05 75.9314 22.05 76.2106Z" fill="#333448"/>
<path d="M26.25 76.2106V79.3685C26.25 79.6476 26.1394 79.9154 25.9425 80.1128C25.7455 80.3102 25.4785 80.4211 25.2 80.4211C24.9215 80.4211 24.6544 80.3102 24.4575 80.1128C24.2606 79.9154 24.15 79.6476 24.15 79.3685V76.2106C24.15 75.9314 24.2606 75.6636 24.4575 75.4662C24.6544 75.2688 24.9215 75.1579 25.2 75.1579C25.4785 75.1579 25.7455 75.2688 25.9425 75.4662C26.1394 75.6636 26.25 75.9314 26.25 76.2106Z" fill="#333448"/>
<path d="M30.45 76.2106V79.3685C30.45 79.6476 30.3394 79.9154 30.1425 80.1128C29.9456 80.3102 29.6785 80.4211 29.4 80.4211C29.1215 80.4211 28.8545 80.3102 28.6575 80.1128C28.4606 79.9154 28.35 79.6476 28.35 79.3685V76.2106C28.35 75.9314 28.4606 75.6636 28.6575 75.4662C28.8545 75.2688 29.1215 75.1579 29.4 75.1579C29.6785 75.1579 29.9456 75.2688 30.1425 75.4662C30.3394 75.6636 30.45 75.9314 30.45 76.2106Z" fill="#333448"/>
<path d="M34.65 76.2106V79.3685C34.65 79.6476 34.5394 79.9154 34.3425 80.1128C34.1455 80.3102 33.8785 80.4211 33.6 80.4211C33.3215 80.4211 33.0544 80.3102 32.8575 80.1128C32.6606 79.9154 32.55 79.6476 32.55 79.3685V76.2106C32.55 75.9314 32.6606 75.6636 32.8575 75.4662C33.0544 75.2688 33.3215 75.1579 33.6 75.1579C33.8785 75.1579 34.1455 75.2688 34.3425 75.4662C34.5394 75.6636 34.65 75.9314 34.65 76.2106Z" fill="#333448"/>
<path d="M38.85 76.2106V79.3685C38.85 79.6476 38.7394 79.9154 38.5425 80.1128C38.3456 80.3102 38.0785 80.4211 37.8 80.4211C37.5215 80.4211 37.2545 80.3102 37.0575 80.1128C36.8606 79.9154 36.75 79.6476 36.75 79.3685V76.2106C36.75 75.9314 36.8606 75.6636 37.0575 75.4662C37.2545 75.2688 37.5215 75.1579 37.8 75.1579C38.0785 75.1579 38.3456 75.2688 38.5425 75.4662C38.7394 75.6636 38.85 75.9314 38.85 76.2106Z" fill="#333448"/>
<path d="M43.05 76.2106V79.3685C43.05 79.6476 42.9394 79.9154 42.7425 80.1128C42.5456 80.3102 42.2785 80.4211 42 80.4211C41.7215 80.4211 41.4545 80.3102 41.2575 80.1128C41.0606 79.9154 40.95 79.6476 40.95 79.3685V76.2106C40.95 75.9314 41.0606 75.6636 41.2575 75.4662C41.4545 75.2688 41.7215 75.1579 42 75.1579C42.2785 75.1579 42.5456 75.2688 42.7425 75.4662C42.9394 75.6636 43.05 75.9314 43.05 76.2106Z" fill="#333448"/>
<path d="M54.6 39.3684C54.6 39.6476 54.4894 39.9153 54.2925 40.1127C54.0956 40.3101 53.8285 40.421 53.55 40.421H48.3C48.0215 40.421 47.7545 40.3101 47.5575 40.1127C47.3606 39.9153 47.25 39.6476 47.25 39.3684C47.25 39.0892 47.3606 38.8215 47.5575 38.6241C47.7545 38.4267 48.0215 38.3158 48.3 38.3158H53.55C53.8285 38.3158 54.0956 38.4267 54.2925 38.6241C54.4894 38.8215 54.6 39.0892 54.6 39.3684Z" fill="#333448"/>
<path d="M56.7 57.2632C56.7 57.5423 56.5894 57.8101 56.3925 58.0075C56.1955 58.2049 55.9285 58.3158 55.65 58.3158H53.55C53.2715 58.3158 53.0044 58.2049 52.8075 58.0075C52.6106 57.8101 52.5 57.5423 52.5 57.2632C52.5 56.984 52.6106 56.7162 52.8075 56.5188C53.0044 56.3214 53.2715 56.2105 53.55 56.2105H55.65C55.9285 56.2105 56.1955 56.3214 56.3925 56.5188C56.5894 56.7162 56.7 56.984 56.7 57.2632Z" fill="#333448"/>
<path d="M56.7 53.0527C56.7 53.3318 56.5894 53.5996 56.3925 53.797C56.1955 53.9944 55.9285 54.1053 55.65 54.1053H53.55C53.2715 54.1053 53.0044 53.9944 52.8075 53.797C52.6106 53.5996 52.5 53.3318 52.5 53.0527C52.5 52.7735 52.6106 52.5057 52.8075 52.3083C53.0044 52.1109 53.2715 52 53.55 52H55.65C55.9285 52 56.1955 52.1109 56.3925 52.3083C56.5894 52.5057 56.7 52.7735 56.7 53.0527Z" fill="#333448"/>
<path d="M27.825 7.36843V11.579C27.825 11.8581 27.7144 12.1259 27.5175 12.3233C27.3206 12.5207 27.0535 12.6316 26.775 12.6316C26.4965 12.6316 26.2295 12.5207 26.0325 12.3233C25.8356 12.1259 25.725 11.8581 25.725 11.579V7.36843C25.725 7.08926 25.8356 6.82152 26.0325 6.62411C26.2295 6.4267 26.4965 6.3158 26.775 6.3158C27.0535 6.3158 27.3206 6.4267 27.5175 6.62411C27.7144 6.82152 27.825 7.08926 27.825 7.36843Z" fill="#333448"/>
<path d="M33.075 7.36843V11.579C33.075 11.8581 32.9644 12.1259 32.7675 12.3233C32.5706 12.5207 32.3035 12.6316 32.025 12.6316C31.7465 12.6316 31.4795 12.5207 31.2825 12.3233C31.0856 12.1259 30.975 11.8581 30.975 11.579V7.36843C30.975 7.08926 31.0856 6.82152 31.2825 6.62411C31.4795 6.4267 31.7465 6.3158 32.025 6.3158C32.3035 6.3158 32.5706 6.4267 32.7675 6.62411C32.9644 6.82152 33.075 7.08926 33.075 7.36843Z" fill="#333448"/>
<path d="M55.125 2.11582V14.7474C55.125 15.3057 54.9038 15.8412 54.5099 16.236C54.1161 16.6309 53.582 16.8527 53.025 16.8527H41.475C40.918 16.8527 40.3839 16.6309 39.9901 16.236C39.5962 15.8412 39.375 15.3057 39.375 14.7474V2.11582C39.375 1.55747 39.5962 1.02199 39.9901 0.627174C40.3839 0.232361 40.918 0.0105591 41.475 0.0105591H53.025C53.582 0.0105591 54.1161 0.232361 54.5099 0.627174C54.9038 1.02199 55.125 1.55747 55.125 2.11582ZM41.475 14.7474H53.025V2.11582H41.475V14.7474Z" fill="#333448"/>
<path d="M45.675 7.37893V11.5895C45.675 11.8686 45.5644 12.1364 45.3675 12.3338C45.1706 12.5312 44.9035 12.6421 44.625 12.6421C44.3465 12.6421 44.0795 12.5312 43.8825 12.3338C43.6856 12.1364 43.575 11.8686 43.575 11.5895V7.37893C43.575 7.09976 43.6856 6.83202 43.8825 6.63461C44.0795 6.4372 44.3465 6.3263 44.625 6.3263C44.9035 6.3263 45.1706 6.4372 45.3675 6.63461C45.5644 6.83202 45.675 7.09976 45.675 7.37893Z" fill="#333448"/>
<path d="M50.925 7.37893V11.5895C50.925 11.8686 50.8144 12.1364 50.6175 12.3338C50.4206 12.5312 50.1535 12.6421 49.875 12.6421C49.5965 12.6421 49.3295 12.5312 49.1325 12.3338C48.9356 12.1364 48.825 11.8686 48.825 11.5895V7.37893C48.825 7.09976 48.9356 6.83202 49.1325 6.63461C49.3295 6.4372 49.5965 6.3263 49.875 6.3263C50.1535 6.3263 50.4206 6.4372 50.6175 6.63461C50.8144 6.83202 50.925 7.09976 50.925 7.37893Z" fill="#333448"/>
</g>
<defs>
<clipPath id="clip0">
<rect width="92" height="63" fill="white" transform="translate(0 92) rotate(-90)"/>
</clipPath>
</defs>
</svg>
