<svg width="32" height="32" viewBox="0 0 32 32" fill="none" xmlns="http://www.w3.org/2000/svg">
<path d="M7.84666 3.58806C8.13322 4.20597 8.5183 4.76119 8.98397 5.24478C10.0407 6.32836 11.4914 7 13.0944 7C9.87949 7 7.28248 9.68657 7.28248 13C7.28248 11.3433 6.62875 9.83881 5.58099 8.75522C5.12427 8.2806 4.578 7.87761 3.978 7.58209M7.84666 3.58806C7.48845 2.80895 7.28248 1.93134 7.28248 1C7.28248 2.65672 6.62875 4.16119 5.58099 5.24478C4.53322 6.32836 3.08248 7 1.47949 7C2.37501 7 3.22576 7.20597 3.978 7.58209M7.84666 3.58806C10.1661 1.95821 12.978 1 15.9959 1C20.7422 1 24.969 3.35522 27.6108 7M3.978 7.58209C2.40188 9.98209 1.47949 12.8836 1.47949 16C1.47949 17.0299 1.578 18.0328 1.76606 19M27.6108 25C26.0079 25 24.7093 23.6567 24.7093 22C24.7093 21.1672 25.0317 20.4239 25.5601 19.8776C26.0795 19.3403 26.8138 19 27.6108 19C28.4079 19 29.1332 19.3403 29.6616 19.8776C29.7601 19.9761 29.8496 20.0836 29.9302 20.2M27.6108 25C28.6496 23.5761 29.4377 21.9552 29.9302 20.2M27.6108 25C28.6407 23.5761 29.4377 21.9552 29.9302 20.2M27.6108 25C24.9601 28.6448 20.7422 31 15.9959 31C11.2496 31 7.03173 28.6448 4.38099 25M29.9302 20.2C30.3064 18.8657 30.5123 17.4597 30.5123 16H30.5213C30.5213 14.9701 30.4138 13.9672 30.2258 13M1.76606 19H15.9959C17.5989 19 18.8974 20.3433 18.8974 22C18.8974 22.8328 18.575 23.5761 18.0467 24.1224C17.5273 24.6597 16.8019 25 15.9959 25H4.38099M1.76606 19C2.20487 21.2119 3.10934 23.2537 4.38099 25M1.76606 19C2.20487 21.2119 3.1183 23.2537 4.38099 25M27.6108 7H15.9959C15.1899 7 14.4646 7.3403 13.9452 7.87761C13.4168 8.42388 13.0944 9.16716 13.0944 10C13.0944 11.6567 14.3929 13 15.9959 13H30.2258M27.6108 7C28.8825 8.74627 29.787 10.7881 30.2258 13M27.6108 7C28.8735 8.74627 29.787 10.7881 30.2258 13" stroke="#120540" stroke-width="1.5" stroke-linejoin="round"/>
</svg>
