<svg width="23" height="23" viewBox="0 0 23 23" fill="none" xmlns="http://www.w3.org/2000/svg">
<g clip-path="url(#clip0_261_146)">
<path fill-rule="evenodd" clip-rule="evenodd" d="M22.656 20.4395H21.3088V10.347C21.3088 10.158 21.1579 10.0101 20.9649 10.0101H16.0958V6.76261C16.0958 6.65405 16.0404 6.53426 15.9448 6.47998L11.8325 3.83333V2.802H15.5474C15.7404 2.802 15.8913 2.65413 15.8913 2.47819V0.336914C15.8913 0.147868 15.7404 0 15.5474 0H11.4885C11.2955 0 11.1446 0.147868 11.1446 0.336914V3.81649L7.00357 6.48185C6.90803 6.56234 6.85261 6.6578 6.85261 6.76449V10.0251H2.00839C1.81539 10.0251 1.66442 10.186 1.66442 10.362V20.4413H0.343968C0.150964 20.4413 0 20.5892 0 20.7782V22.665C0 22.854 0.150964 23.0019 0.343968 23.0019H22.656C22.849 23.0019 23 22.854 23 22.665V20.7782C23 20.5892 22.849 20.4413 22.656 20.4413V20.4395ZM16.8239 12.3423C16.8239 12.1663 16.9748 12.0054 17.1678 12.0054H19.4514C19.6444 12.0054 19.7954 12.1663 19.7954 12.3423V14.5921C19.7954 14.7531 19.6444 14.9028 19.4514 14.9028H17.1678C16.9748 14.9028 16.8239 14.755 16.8239 14.5659V12.3423ZM16.8239 16.5331C16.8239 16.3441 16.9748 16.1962 17.1678 16.1962H19.4514C19.6444 16.1962 19.7954 16.3441 19.7954 16.5331V18.7699C19.7954 18.9589 19.6444 19.1068 19.4514 19.1068H17.1678C16.9748 19.1068 16.8239 18.9589 16.8239 18.7699V16.5331ZM14.0454 13.7704V20.4395H11.8306V13.4335H13.7014C13.8944 13.4335 14.0454 13.5814 14.0454 13.7704ZM11.4866 6.72331C12.5873 6.72331 13.5084 7.62549 13.5084 8.70361C13.5084 9.78174 12.6141 10.6839 11.4866 10.6839C10.3592 10.6839 9.47823 9.78174 9.47823 8.70361C9.47823 7.62549 10.3859 6.72331 11.4866 6.72331ZM8.92788 13.7704C8.92788 13.5814 9.07885 13.4335 9.27185 13.4335H11.1427V20.4395H8.92788V13.7704ZM3.13584 12.3423C3.13584 12.1663 3.28681 12.0054 3.47981 12.0054H5.75C5.92963 12.0054 6.09397 12.1663 6.09397 12.3423V14.5921C6.09397 14.7531 5.92963 14.9028 5.75 14.9028H3.47981C3.28681 14.9028 3.13584 14.755 3.13584 14.5659V12.3423ZM3.13584 16.5331C3.13584 16.3441 3.28681 16.1962 3.47981 16.1962H5.75C5.92963 16.1962 6.09397 16.3441 6.09397 16.5331V18.7699C6.09397 18.9589 5.92963 19.1068 5.75 19.1068H3.47981C3.28681 19.1068 3.13584 18.9589 3.13584 18.7699V16.5331ZM22.3121 22.3393H0.67456V21.1133H22.3121V22.3393Z" fill="#1C0F5F"/>
</g>
<defs>
<clipPath id="clip0_261_146">
<rect width="23" height="23" fill="white"/>
</clipPath>
</defs>
</svg>
