<svg width="23" height="22" viewBox="0 0 23 22" fill="none" xmlns="http://www.w3.org/2000/svg">
<path d="M0 8.64184C0.0201147 3.4973 4.58926 -0.437616 9.9305 0.0391658C14.6002 0.455614 18.1961 4.31696 18.077 8.77869C18.0305 10.5166 17.4875 12.0956 16.4353 13.5112C16.2543 13.754 16.2806 13.8732 16.4956 14.0748C18.4762 15.9334 20.4397 17.8081 22.4171 19.6696C22.6244 19.8639 22.6569 19.9698 22.4264 20.1744C21.8168 20.7203 21.2272 21.2854 20.6486 21.8608C20.4629 22.0462 20.3685 22.0462 20.1751 21.8622C18.1791 19.9492 16.1692 18.0494 14.1716 16.1364C13.9627 15.9363 13.8266 15.8804 13.5341 16.0437C8.0459 19.1031 0.988717 15.8362 0.0897427 9.83526C0.0293985 9.41881 0.0232093 9.00384 0 8.64184ZM9.02533 15.1785C12.8595 15.1829 15.9556 12.2486 15.9572 8.60799C15.9587 4.98357 12.8796 2.03753 9.0733 2.02428C5.24376 2.00957 2.13216 4.94384 2.12443 8.57856C2.11514 12.2265 5.19734 15.174 9.02533 15.1785Z" fill="#020202"/>
</svg>
