<svg width="38" height="38" viewBox="0 0 38 38" fill="none" xmlns="http://www.w3.org/2000/svg">
<path d="M8.76916 30.6923C8.76916 30.2965 8.62452 29.9539 8.33526 29.6647C8.046 29.3754 7.70345 29.2308 7.30762 29.2308C6.91178 29.2308 6.56924 29.3754 6.27997 29.6647C5.99071 29.9539 5.84608 30.2965 5.84608 30.6923C5.84608 31.0881 5.99071 31.4307 6.27997 31.72C6.56924 32.0092 6.91178 32.1538 7.30762 32.1538C7.70345 32.1538 8.046 32.0092 8.33526 31.72C8.62452 31.4307 8.76916 31.0881 8.76916 30.6923ZM23.4759 21.101L7.90137 36.6755C7.33807 37.2388 6.65297 37.5204 5.84608 37.5204C5.05441 37.5204 4.3617 37.2388 3.76795 36.6755L1.34728 34.2091C0.768755 33.6611 0.479492 32.976 0.479492 32.1538C0.479492 31.347 0.768755 30.6542 1.34728 30.0757L16.899 14.524C17.4927 16.016 18.3643 17.3367 19.5137 18.4862C20.6632 19.6356 21.9839 20.5072 23.4759 21.101ZM37.9543 11.1671C37.9543 11.7608 37.7792 12.5677 37.429 13.5877C36.7135 15.6278 35.4613 17.2835 33.6724 18.5547C31.8835 19.8259 29.9158 20.4615 27.7692 20.4615C24.9526 20.4615 22.5434 19.4605 20.5414 17.4585C18.5394 15.4565 17.5384 13.0473 17.5384 10.2308C17.5384 7.41426 18.5394 5.00501 20.5414 3.00301C22.5434 1.001 24.9526 0 27.7692 0C28.6522 0 29.577 0.125601 30.5438 0.376803C31.5105 0.628005 32.3288 0.981971 32.9987 1.4387C33.2423 1.60617 33.3641 1.81931 33.3641 2.07813C33.3641 2.33694 33.2423 2.55008 32.9987 2.71755L26.3076 6.57692V11.6923L30.7151 14.1358C30.7912 14.0901 31.3926 13.721 32.5192 13.0282C33.6458 12.3355 34.6772 11.719 35.6135 11.1785C36.5498 10.638 37.0865 10.3678 37.2235 10.3678C37.4518 10.3678 37.6307 10.4439 37.7601 10.5962C37.8895 10.7484 37.9543 10.9387 37.9543 11.1671Z" fill="#007FA2"/>
</svg>
