<svg width="22" height="32" viewBox="0 0 22 32" fill="none" xmlns="http://www.w3.org/2000/svg">
<path d="M7.82599 27.6637H14.1831M11 7.66366C9.24168 7.66366 7.82599 9.1605 7.82599 11C7.82599 12.8395 9.25069 14.3363 11 14.3363C12.7493 14.3363 14.174 12.8485 14.174 11C14.174 9.15149 12.7493 7.66366 11 7.66366ZM14.174 24.3273H7.81697V27.6637C7.81697 29.5032 9.24168 31 10.991 31C12.7403 31 14.165 29.5122 14.165 27.6637V24.3273H14.174ZM16.7349 18.9892C15.1389 20.2516 14.1831 22.1993 14.1831 24.2913V24.3273H7.82599V24.2913C7.82599 22.2173 6.89722 20.2606 5.31021 19.0252C2.96575 17.1948 1.45088 14.2642 1.46891 10.9549C1.49596 5.44545 5.74303 1 11 1C16.257 1 20.5311 5.4725 20.5311 11C20.5311 14.2642 19.0343 17.1677 16.7349 18.9892Z" stroke="#120540" stroke-width="1.65" stroke-miterlimit="10"/>
</svg>
