<svg width="24" height="32" viewBox="0 0 24 32" fill="none" xmlns="http://www.w3.org/2000/svg">
<path d="M11.9955 25.4017L10.0494 30.9911L7.33905 24.904L1.51855 27.7387L4.69095 18.6214C4.74427 18.737 4.81536 18.8436 4.89533 18.9325C5.73064 19.8033 7.78337 18.8703 8.88526 19.3501C9.4451 19.59 9.93384 20.3009 10.4404 20.9319L11.9866 25.3928L11.9955 25.4017ZM22.4812 27.7476L16.6607 24.9129L13.9415 31L11.9955 25.4105L10.4492 20.9496C10.9202 21.5273 11.409 22.0249 11.9955 22.0249C12.5819 22.0249 13.0796 21.5184 13.5505 20.9496C14.0659 20.3276 14.5458 19.6078 15.1056 19.3679C16.2164 18.888 18.2603 19.8211 19.0956 18.9502C19.1844 18.8614 19.2555 18.7547 19.3 18.6392L22.4723 27.7565L22.4812 27.7476ZM22.0369 11.5124C22.0369 12.8009 19.9398 13.6451 19.4954 14.7648C19.0867 15.8045 19.762 17.6351 19.3 18.6303C19.2466 18.7459 19.1755 18.8525 19.0956 18.9414C18.2603 19.8122 16.2164 18.8791 15.1056 19.359C14.5458 19.5989 14.0571 20.3098 13.5505 20.9408C13.0796 21.5184 12.5908 22.016 11.9955 22.016C11.4001 22.016 10.9113 21.5095 10.4492 20.9408C9.93384 20.3187 9.45398 19.5989 8.89415 19.359C7.78337 18.8791 5.73953 19.8122 4.90422 18.9414C4.81536 18.8525 4.75315 18.7459 4.69984 18.6303C4.23775 17.6351 4.9131 15.8045 4.50434 14.7648C4.06002 13.6451 1.96287 12.8009 1.96287 11.5124C1.96287 10.2239 4.06002 9.37974 4.50434 8.26007C4.96642 7.09597 4.06891 4.95438 4.90422 4.08353C5.73953 3.20379 7.79225 4.14574 8.89415 3.65699C9.96938 3.19491 10.7691 1 12.0043 1C13.2395 1 14.0393 3.19491 15.1145 3.65699C16.2253 4.13685 18.2691 3.20379 19.1045 4.08353C19.9398 4.96327 19.0511 7.10486 19.5043 8.26007C19.9487 9.37974 22.0458 10.2239 22.0458 11.5124H22.0369ZM16.5363 11.5124C16.5363 14.1339 14.5014 16.2666 11.9955 16.2666C9.48953 16.2666 7.45457 14.1428 7.45457 11.5124C7.45457 8.88211 9.48953 6.75829 11.9955 6.75829C14.5014 6.75829 16.5363 8.88211 16.5363 11.5124Z" stroke="#120540" stroke-width="1.5" stroke-linejoin="round"/>
</svg>
