<svg width="32" height="32" viewBox="0 0 32 32" fill="none" xmlns="http://www.w3.org/2000/svg">
<g id="Group 1152">
<circle id="Ellipse 1" cx="16" cy="16" r="14.5" fill="#120540" stroke="#120540" stroke-width="3"/>
<path id="Fill 1" fill-rule="evenodd" clip-rule="evenodd" d="M10.9161 26.0535C10.3702 25.6443 9.69765 25.3567 9.28582 24.8289C8.19286 23.4289 7.67886 21.6734 6.98007 20.0302C6.75576 19.5026 6.42991 19.0254 6.11436 18.543C6.07841 18.1728 6.03595 17.7367 6 17.3667C6.59515 15.8609 6.85835 16.1359 8.48486 16.5182C8.796 16.5911 9.12752 17.0467 9.26627 17.4078C9.72898 18.6111 10.1608 19.8283 10.6285 21.1515C10.881 21.8663 11.79 21.943 12.1422 21.2792C12.7581 20.1172 13.3144 19.0654 13.9442 18.0679C15.0285 16.3503 16.2476 14.7328 17.4049 13.0693C17.933 12.3096 18.4218 11.5144 18.9852 10.7869C19.6537 9.92364 20.3788 9.11099 21.0887 8.28584C21.95 7.28445 23.1037 5.62826 23.817 5.13563C23.9568 5.0391 24.1216 4.99618 24.2875 5.00027C24.848 5.01435 25.1749 5.10179 25.5718 5.34981C25.8343 5.51379 26 5.8136 26 6.14134V6.83656C26 7.31443 25.8968 7.79117 25.6683 8.20044C25.2623 8.92747 24.6514 9.46008 23.9894 10.0056C23.0621 10.7699 22.2899 11.7831 21.5466 12.7725C19.9857 14.8497 18.442 16.9461 16.9803 19.1051C15.9981 20.5558 15.1183 22.0959 14.2873 23.6549C13.6911 24.773 13.2444 25.9799 11.95 26.382" fill="#59FF69"/>
</g>
</svg>
