<svg width="35" height="35" viewBox="0 0 35 35" fill="none" xmlns="http://www.w3.org/2000/svg">
<path d="M1.5 10C1.5 8.067 3.067 6.5 5 6.5H25C26.933 6.5 28.5 8.067 28.5 10V30C28.5 31.933 26.933 33.5 25 33.5H5C3.067 33.5 1.5 31.933 1.5 30V10Z" stroke="#333448" stroke-width="3"/>
<path fill-rule="evenodd" clip-rule="evenodd" d="M11.62 30.5238C10.7738 29.9305 9.73136 29.5136 9.09302 28.7483C7.39893 26.7186 6.60223 24.1735 5.51911 21.7911C5.17143 21.0262 4.66636 20.3343 4.17726 19.6349C4.12154 19.0982 4.05572 18.4659 4 17.9295C4.92248 15.7463 5.33044 16.1451 7.85154 16.6993C8.3338 16.805 8.84766 17.4656 9.06272 17.9891C9.77992 19.7337 10.4492 21.4984 11.1742 23.4168C11.5656 24.4531 12.9745 24.5644 13.5203 23.6019C14.4751 21.9172 15.3373 20.3923 16.3135 18.946C17.9943 16.456 19.8839 14.1108 21.6777 11.699C22.4962 10.5976 23.2538 9.44473 24.1271 8.39002C25.1633 7.13839 26.2871 5.96019 27.3875 4.76388C28.7225 3.31205 30.5108 0.91087 31.6164 0.196642C31.8331 0.0566942 32.0885 -0.00554143 32.3456 0.000385776C33.2143 0.0208017 33.721 0.147578 34.3362 0.507162C34.7432 0.744909 35 1.17957 35 1.65473V2.66269C35 3.35551 34.84 4.04669 34.4858 4.64007C33.8566 5.69413 32.9097 6.46631 31.8836 7.25726C30.4463 8.36532 29.2494 9.83428 28.0972 11.2687C25.6778 14.2803 23.2851 17.3197 21.0194 20.4499C19.4971 22.5531 18.1334 24.786 16.8453 27.0462C15.9212 28.6673 15.2288 30.4172 13.2225 31" fill="#6CC64A"/>
</svg>
