<svg width="38" height="38" viewBox="0 0 38 38" fill="none" xmlns="http://www.w3.org/2000/svg">
<path d="M9.5 18.9991C7.62108 18.9991 5.78435 19.5563 4.22209 20.6001C2.65982 21.644 1.44218 23.1277 0.723149 24.8636C0.00411617 26.5995 -0.184015 28.5096 0.182544 30.3525C0.549104 32.1953 1.45389 33.888 2.78249 35.2166C4.11109 36.5452 5.80383 37.45 7.64665 37.8166C9.48947 38.1831 11.3996 37.995 13.1355 37.276C14.8714 36.5569 16.3551 35.3393 17.399 33.777C18.4428 32.2147 19 30.378 19 28.4991C19 25.9795 17.9991 23.5632 16.2175 21.7816C14.4359 20 12.0196 18.9991 9.5 18.9991ZM37.6289 14.9275L29.6927 1.35656C29.4481 0.943 29.0999 0.600311 28.6826 0.362264C28.2652 0.124216 27.793 -0.000976562 27.3125 -0.000976562C26.832 -0.000976563 26.3598 0.124216 25.9424 0.362264C25.5251 0.600311 25.1769 0.943 24.9323 1.35656L16.9961 14.9275C15.9392 16.7369 17.2618 18.9991 19.3778 18.9991H35.2472C37.3632 18.9991 38.6858 16.7369 37.6289 14.9275ZM35.625 21.3741H23.75C23.1201 21.3741 22.516 21.6243 22.0706 22.0697C21.6252 22.5151 21.375 23.1192 21.375 23.7491V35.6241C21.375 36.254 21.6252 36.8581 22.0706 37.3035C22.516 37.7489 23.1201 37.9991 23.75 37.9991H35.625C36.2549 37.9991 36.859 37.7489 37.3044 37.3035C37.7498 36.8581 38 36.254 38 35.6241V23.7491C38 23.1192 37.7498 22.5151 37.3044 22.0697C36.859 21.6243 36.2549 21.3741 35.625 21.3741Z" fill="#120540"/>
</svg>
