<svg width="38" height="38" viewBox="0 0 38 38" fill="none" xmlns="http://www.w3.org/2000/svg">
<path d="M19 0C8.50659 0 0 8.50659 0 19C0 29.4934 8.50659 38 19 38C29.4934 38 38 29.4934 38 19C38 8.50659 29.4934 0 19 0ZM18.8469 4.86365C19.9109 4.86365 20.9308 4.97069 21.9061 5.18605C22.8815 5.40119 23.8143 5.71289 24.7009 6.11841C24.5743 6.09308 24.4096 6.05543 24.2069 6.00476C23.1916 5.80339 22.2542 5.71488 21.317 6.34572C20.7403 6.70516 20.1078 6.98193 19.3803 6.95337C18.519 6.95337 17.652 6.80868 16.778 6.51732C15.904 6.22595 15.1241 5.90248 14.4402 5.54784C15.8335 5.09184 17.3016 4.86365 18.8469 4.86365ZM10.6295 7.76283C10.871 7.76381 11.1013 7.79092 11.323 7.84633C11.6777 7.935 11.92 8.11968 12.0466 8.39835C12.224 8.75298 12.4699 9.08238 12.7865 9.38638C13.1032 9.69038 13.4384 9.95622 13.7931 10.1842C13.9957 10.2349 14.1604 10.2843 14.2871 10.335C14.6634 10.4674 14.8659 10.8225 15.2751 10.829C15.5791 10.7277 15.8214 10.8053 15.9988 11.0586C16.5585 11.3394 17.0544 11.729 17.4043 12.274C17.0611 12.8451 16.6685 13.4703 16.0359 13.7931C16.0613 13.7931 16.073 13.8014 16.073 13.814C16.073 13.8266 16.0871 13.8326 16.1124 13.8326C16.2139 14.0099 16.1622 14.1487 15.9594 14.2501C15.8327 14.3007 15.7139 14.3384 15.5999 14.3637C15.4859 14.389 15.3647 14.4149 15.238 14.4403C14.9087 14.4909 14.6923 14.5544 14.5909 14.6304C14.5909 14.6811 14.5533 14.707 14.4773 14.707C14.4773 14.7323 14.3961 14.8135 14.2314 14.9528C14.0667 15.0922 13.9338 15.378 13.8325 15.8087C13.8071 15.91 13.7554 16.0112 13.6794 16.1125C13.7554 16.8218 13.7754 17.3735 13.7374 17.7662C13.6994 18.1589 13.5406 18.393 13.2619 18.4689C13.1353 18.4943 12.9707 18.4684 12.7679 18.3924C12.5905 18.3417 12.3682 18.2465 12.1022 18.1071C11.8362 17.9678 11.5268 17.7455 11.1722 17.4415C11.2241 17.9015 11.3596 18.3752 11.5131 18.847C11.839 18.783 12.4001 18.82 12.1602 19.3039C11.9885 19.4778 12.0355 19.5959 12.2739 19.6843C12.375 19.7096 12.4762 19.799 12.5777 19.951C12.9709 19.9858 13.3747 19.9947 13.8139 19.9116C14.1813 19.8609 14.5718 19.8491 14.9898 19.8745C15.4078 19.8998 15.8207 19.9951 16.226 20.1598C17.3814 20.6427 18.3188 22.1654 19.5891 22.725C19.9056 22.9276 20.1656 23.13 20.3683 23.3326C20.571 23.5352 20.6722 23.7634 20.6722 24.0168C20.6701 24.8955 20.5927 25.7899 20.3683 26.6771C20.2923 26.9051 20.0582 27.2204 19.6656 27.6257C19.273 28.031 18.8225 28.4121 18.3157 28.7668C18.1143 28.9176 17.9354 29.0964 17.7846 29.2979C17.658 29.4752 17.5368 29.7035 17.4228 29.9821C17.3088 30.2607 17.2512 30.5901 17.2512 30.9701C17.0485 31.3501 16.878 31.6995 16.7386 32.0161C16.5992 32.3328 16.4804 32.5904 16.3791 32.7931C16.2777 33.0718 16.1743 33.3 16.0729 33.4773C15.0645 33.4187 14.1229 33.041 13.1853 32.4893C13.2948 30.6881 13.6535 28.9027 13.8324 27.1316C13.8831 26.9543 13.869 26.7896 13.793 26.6376C12.9783 25.0185 12.0226 24.2094 12.2367 21.9641C12.2874 21.7108 12.311 21.5202 12.311 21.3936C11.976 21.0635 11.5092 20.8071 11.1722 20.4055C8.8699 19.3264 6.47181 19.2438 4.78702 16.8337C5.06569 14.9844 5.6809 13.2881 6.63091 11.7428C7.5809 10.1975 8.76546 8.88 10.1841 7.79063C10.3362 7.77163 10.4846 7.76223 10.6295 7.76283ZM28.006 8.17101C29.5766 9.48835 30.8188 11.0835 31.7308 12.9581C32.6428 14.8328 33.0969 16.8843 33.0969 19.1137V19.3804L31.8816 19.7608C31.3673 19.6191 30.8195 19.9916 30.5897 20.4821L31.2368 20.7094C31.3382 20.76 31.4016 20.8118 31.427 20.8624C31.5678 21.2231 31.419 21.6612 31.3111 22.0407C31.1078 22.3087 30.7743 22.5603 30.5132 22.8385C30.4878 22.9652 30.4761 23.1557 30.4761 23.4091C30.4761 23.8144 30.3114 24.3085 29.9821 24.8911C30.0327 25.0685 30.0327 25.2332 29.9821 25.3852C29.9065 25.7138 29.792 26.0322 29.6411 26.3338C29.4642 26.6378 29.3607 26.9177 29.335 27.171C29.2336 27.8551 28.9301 28.4879 28.4235 29.0706C27.7394 29.7799 27.1443 30.0952 26.6376 30.0192C26.4096 29.9685 26.239 29.8238 26.125 29.5831C25.7507 28.7903 25.5175 27.9603 25.1184 27.0945C24.8485 26.3752 25.0446 25.5468 25.0999 24.7751C25.1204 24.2031 24.74 23.6829 24.6244 23.1238C24.599 22.9338 24.6484 22.6738 24.7751 22.3445C24.7502 22.3191 24.6314 22.2733 24.4156 22.21C23.2659 21.8878 22.4302 22.5032 21.4515 21.6209C21.0589 21.2662 20.7989 20.7604 20.6722 20.1017C20.5202 19.1897 20.6967 18.3662 21.2033 17.6316C21.2287 17.5556 21.2428 17.4803 21.2428 17.4043C21.2428 17.2269 21.2545 17.0999 21.2799 17.0239C21.4059 16.9985 21.5129 16.9468 21.6023 16.8708C21.6903 16.7948 21.7597 16.7196 21.811 16.6435C21.887 16.5423 21.9387 16.4411 21.9641 16.3397C24.669 16.093 25.2467 15.5884 27.665 17.0239L28.7667 16.2631C28.5134 15.8325 28.291 15.5172 28.101 15.3145C27.4596 14.6408 26.6497 14.5248 25.9928 15.3145L23.3325 15.0849C22.9842 15.4266 22.3762 15.4371 21.8875 15.4653C21.8875 15.2373 21.824 15.0091 21.6973 14.7811C21.5453 14.4771 21.47 14.2371 21.47 14.0598C21.47 13.8826 21.5077 13.7438 21.5837 13.6423C22.3894 12.5805 22.2301 12.5061 22.5532 11.0957C22.6672 10.7664 22.8754 10.3617 23.1794 9.88035C23.8896 8.87271 26.5935 8.3183 28.006 8.17101Z" fill="#007FA2"/>
</svg>
