<?xml version="1.0" encoding="UTF-8"?>
<svg width="127px" height="76px" viewBox="0 0 127 76" version="1.1" xmlns="http://www.w3.org/2000/svg" xmlns:xlink="http://www.w3.org/1999/xlink">
    <defs></defs>
    <g id="splash-pink" stroke="none" stroke-width="1" fill="none" fill-rule="evenodd" stroke-linecap="round" stroke-linejoin="round">
        <path d="M47.4688951,14.4773035 C47.420533,11.9841138 47.3721709,9.49092416 47.3238088,6.99773449 L47.4688951,14.4773035 Z M61.8246043,13.2003039 C62.5101701,9.80020261 63.1957359,6.4001013 63.8813017,3 L61.8246043,13.2003039 Z M81.8484853,13.3023069 C82.8470979,10.401759 83.8457105,7.50121103 84.844323,4.60066308 L81.8484853,13.3023069 Z M102.425263,16.2309711 C103.919261,14.4818806 105.413258,12.73279 106.907256,10.9836994 L102.425263,16.2309711 Z M114.279213,28.1986738 C117.519475,27.7965465 120.759738,27.3944191 124,26.9922918 L114.279213,28.1986738 Z M116.675098,41.7219229 C118.724607,41.9023898 120.774115,42.0828567 122.823624,42.2633237 L116.675098,41.7219229 Z M111.379446,54.5154579 C113.460978,55.5459502 115.54251,56.5764424 117.624042,57.6069347 L111.379446,54.5154579 Z M96.3630052,64.009587 C97.0551065,65.9306442 97.7472077,67.8517014 98.439309,69.7727587 L96.3630052,64.009587 Z M79.244773,63.5388037 C79.7754493,67.0258691 80.3061256,70.5129346 80.8368019,74 L79.244773,63.5388037 Z M58.7621053,63.2739881 C58.8797429,65.187199 58.9973805,67.1004098 59.1150181,69.0136207 L58.7621053,63.2739881 Z M47.4218401,60.6454483 C46.3317316,64.0357416 45.2416231,67.4260349 44.1515147,70.8163282 L47.4218401,60.6454483 Z M24.0511691,65.6455588 C21.4461497,67.8445089 18.8411303,70.043459 16.2361109,72.2424092 L24.0511691,65.6455588 Z M14.51272,47.3065893 C11.3691817,48.1762306 8.2256435,49.0458719 5.08210526,49.9155132 L14.51272,47.3065893 Z M10.2287505,35.8842105 C7.48583367,35.7266289 4.74291683,35.5690473 2,35.4114657 L10.2287505,35.8842105 Z M15.0420892,21.4468573 C13.5944931,20.0338537 12.146897,18.62085 10.6993009,17.2078464 L15.0420892,21.4468573 Z M30.3408598,15.8543445 C29.3121843,14.2889902 28.2835088,12.7236359 27.2548333,11.1582815 L30.3408598,15.8543445 Z" id="Combined-Shape" stroke="#EF65CC" stroke-width="4"></path>
    </g>
</svg>
