<?xml version="1.0" encoding="UTF-8"?>
<svg width="587px" height="470px" viewBox="0 0 587 470" version="1.1" xmlns="http://www.w3.org/2000/svg" xmlns:xlink="http://www.w3.org/1999/xlink">
    <defs>
        <path d="M580.495967,165.266612 C570.926214,163.420459 561.341658,162.583966 551.934732,162.669083 L551.934732,162.663213 C551.882923,162.663213 551.838516,162.663213 551.794109,162.669083 C548.108311,162.704304 544.459519,162.892148 540.840331,163.203264 C440.620666,167.297675 444.935566,142.531626 400.454347,110.74491 C399.825245,110.289975 399.18134,109.843846 398.544837,109.391846 C397.767711,108.857665 396.990585,108.323484 396.183854,107.783433 C384.489956,100.128793 370.494285,94.3966173 354.774133,91.3588286 C302.018371,81.1594902 248.877747,104.951099 231.921595,145.049908 L231.884589,145.061649 C221.53771,168.101881 211.731119,179.349037 175.739077,185.996951 C156.233212,188.835156 139.665623,200.455064 134.669812,216.727045 C133.367201,220.950598 132.949033,225.182957 133.307991,229.306718 C133.54853,248.915864 149.75346,266.543843 112.736352,284.374342 C111.585465,284.879173 110.449381,285.401613 109.328099,285.947535 C109.287393,285.965146 109.257788,285.979821 109.220782,285.997431 L109.228183,286.003302 C89.5779942,295.606823 74.5017475,311.109818 68.6066902,330.302185 C58.4189367,363.447834 78.9202638,396.813613 115.67833,411.629804 L115.663528,411.635674 C115.889265,411.729596 116.1113,411.811778 116.329635,411.89983 C117.117863,412.210946 117.906091,412.516193 118.709121,412.809699 C151.633365,425.336541 188.076879,434.529153 178.422012,482.153461 C178.262886,482.828526 178.137066,483.49772 178.022347,484.172784 C178.007545,484.219745 178.000143,484.266706 177.992743,484.325407 L178.000144,484.319536 C174.680705,504.589071 191.048462,524.025049 216.675121,528.973562 C225.427041,530.670028 234.204866,530.458703 242.312881,528.691796 L242.312881,528.697666 C242.327684,528.691796 242.335085,528.691796 242.349887,528.685926 C245.458391,528.004992 248.474382,527.095123 251.346047,525.979799 C309.537992,509.202988 329.543438,519.927703 358.400722,546.942009 C359.80695,548.362578 361.264987,549.759668 362.797035,551.103926 C362.819239,551.121536 362.834041,551.139147 362.856245,551.162627 C375.719532,562.433263 392.838511,570.86863 412.85876,574.742911 C466.125204,585.039107 519.820919,559.134254 532.795225,516.898719 C533.106075,515.894928 533.365117,514.885267 533.616758,513.881476 L533.705573,513.940177 C533.764782,513.59384 533.823992,513.259243 533.883201,512.918776 C534.453094,510.553116 534.852759,508.199197 535.148807,505.851148 C541.491637,471.552019 548.374753,458.22097 596.1051,467.448803 L595.942274,467.26683 C622.001903,470.530618 647.291807,457.446114 653.656841,436.75393 C657.520267,424.156646 653.516218,411.512401 644.161099,402.043893 C643.391374,401.269037 642.606847,400.511791 641.770511,399.783895 C622.564394,381.222566 596.756406,345.485258 634.05846,318.16277 L634.036256,318.16277 C648.616622,306.733641 659.50379,292.067138 664.714235,275.117158 C679.701667,226.336437 641.999949,177.156547 580.495967,165.266612 Z" id="path-1"></path>
    </defs>
    <g id="Home-page" stroke="none" stroke-width="1" fill="none" fill-rule="evenodd">
        <g id="Home-desktop" transform="translate(-683.000000, -210.000000)">
            <g id="STEM-137" transform="translate(598.000000, 110.000000)">
                <mask id="mask-2" fill="white">
                    <use xlink:href="#path-1"></use>
                </mask>
                <use id="Shape" fill="#000000" fill-rule="nonzero" transform="translate(367.000000, 333.000000) rotate(-20.000000) translate(-367.000000, -333.000000) " xlink:href="#path-1"></use>
            </g>
        </g>
    </g>
</svg>
