<svg width="106" height="106" viewBox="0 0 106 106" fill="none" xmlns="http://www.w3.org/2000/svg">
<path d="M106 53C106 82.271 82.271 106 53 106C23.729 106 0 82.271 0 53C0 23.729 23.729 0 53 0C82.271 0 106 23.729 106 53Z" fill="#007FA2"/>
<path d="M85.8052 62.9778L85.7314 62.9064V62.9061L84.5619 61.7745L83.9529 61.1851L82.1741 59.4642C81.8422 59.1431 81.4042 58.9832 80.9665 58.9848V23.9698H38.4227H27.3926V86.177H38.4227H56.141L55.6425 87.9772L54.5291 89.0542C54.4053 89.174 54.4053 89.3704 54.5291 89.4902L54.6148 89.5731L54.7145 89.6695C54.8308 89.782 55.0215 89.782 55.1375 89.6695L56.2648 88.579L63.5587 86.688L63.5349 86.6643C63.5607 86.6505 63.5828 86.6298 63.608 86.6133C63.6178 86.6074 63.627 86.5995 63.6372 86.5929C63.661 86.5755 63.6875 86.5633 63.709 86.5422L64.0868 86.177H80.9665V69.8437L80.972 69.8384L85.7314 65.2331L85.7317 65.2328L85.8052 65.1617C86.4258 64.5612 86.4258 63.5783 85.8052 62.9778Z" fill="#3B3F56"/>
<path d="M36.7108 84.4609H25.6807V22.2538H36.7108V84.4609Z" fill="#A94F91"/>
<path d="M79.2545 84.4609H36.7109V22.2538H79.2545V84.4609Z" fill="#E5E5E5"/>
<path d="M70.6712 42.8516H46.791V32.4346H70.6712V42.8516Z" fill="white"/>
<path d="M79.2597 68.1328L73.2979 62.3643L78.0573 57.7589C78.7187 57.1186 79.8008 57.1186 80.4618 57.7589L84.0192 61.2008C84.6802 61.8404 84.6802 62.8878 84.0192 63.5275L79.2597 68.1328Z" fill="#EF5643"/>
<path d="M52.9891 87.9492L52.8177 87.7834C52.6936 87.6636 52.6936 87.4672 52.8177 87.3474L54.3442 85.8703C54.4683 85.7502 54.671 85.7502 54.7951 85.8703L54.9662 86.0361C55.0903 86.1559 55.0903 86.352 54.9662 86.4721L53.4397 87.9492C53.3155 88.069 53.1129 88.069 52.9891 87.9492Z" fill="#6D6762"/>
<g opacity="0.199997">
<g opacity="0.199997">
<path opacity="0.199997" d="M84.0914 61.2825L82.2391 59.4898L52.9014 87.8778L53.0007 87.9742C53.1173 88.0867 53.3074 88.0867 53.4237 87.9742L54.551 86.8837L61.8449 84.9927L61.8211 84.969C61.883 84.9364 61.9428 84.8979 61.9952 84.8469L79.2582 68.1431L84.0914 63.4664C84.712 62.8658 84.712 61.883 84.0914 61.2825Z" fill="#6D6762"/>
</g>
</g>
<path d="M53.7031 87.0938L61.8468 84.9823L55.8853 79.2134L53.7031 87.0938Z" fill="#DECDC0"/>
<path d="M60.8769 84.8008L56.0702 80.1497C55.7526 79.8423 55.7526 79.3392 56.0702 79.0319L73.2972 62.3627L79.2594 68.1312L62.0318 84.8008C61.7145 85.1081 61.1946 85.1081 60.8769 84.8008Z" fill="#F47D30"/>
<path d="M69.2036 35.2734H49.1406V34.516H69.2036V35.2734Z" fill="#979797"/>
<path d="M69.2036 38.0195H49.1406V37.2621H69.2036V38.0195Z" fill="#979797"/>
<path d="M69.2036 40.7656H49.1406V40.0082H69.2036V40.7656Z" fill="#979797"/>
</svg>
