<svg width="36" height="56" viewBox="0 0 36 56" fill="none" xmlns="http://www.w3.org/2000/svg">
<g clip-path="url(#clip0_1354_4585)">
<mask id="mask0_1354_4585" style="mask-type:luminance" maskUnits="userSpaceOnUse" x="-44" y="0" width="80" height="56">
<path d="M35.4927 0H-43.707V56H35.4927V0Z" fill="white"/>
</mask>
<g mask="url(#mask0_1354_4585)">
<path d="M35.4927 0H-43.707V56H35.4927V0Z" fill="#120540"/>
<path d="M35.4927 0H-43.707V56H35.4927V0Z" fill="#120540"/>
<path d="M35.4927 30.2156H-43.707V32.3649H35.4927V30.2156Z" fill="#59FF69"/>
<path d="M35.4927 27.802H-43.707V29.9884H35.4927V27.802Z" fill="#59FF69"/>
<path d="M35.4927 25.3893H-43.707V27.6119H35.4927V25.3893Z" fill="#59FF69"/>
<path d="M35.4927 22.9758H-43.707V25.2356H35.4927V22.9758Z" fill="#59FF69"/>
<path d="M35.4927 20.5623H-43.707V22.8583H35.4927V20.5623Z" fill="#59FF69"/>
<path d="M35.4927 18.1487H-43.707V20.481H35.4927V18.1487Z" fill="#59FF69"/>
<path d="M35.4927 15.7352H-43.707V18.1046H35.4927V15.7352Z" fill="#59FF69"/>
<path d="M35.4927 13.3217H-43.707V15.7273H35.4927V13.3217Z" fill="#59FF69"/>
<path d="M35.4927 10.9089H-43.707V13.3516H35.4927V10.9089Z" fill="#59FF69"/>
<path d="M35.4927 8.49548H-43.707V10.9745H35.4927V8.49548Z" fill="#59FF69"/>
<path d="M35.4927 6.08191H-43.707V8.59718H35.4927V6.08191Z" fill="#59FF69"/>
<path d="M35.4927 3.66833H-43.707V6.22067H35.4927V3.66833Z" fill="#59FF69"/>
<path d="M35.4927 1.25488H-43.707V3.8435H35.4927V1.25488Z" fill="#59FF69"/>
<path d="M35.4927 0H-43.707V1.46704H35.4927V0Z" fill="#59FF69"/>
<path d="M7.4257 27.8533V27.7863L35.4927 55.9085V27.7863L35.4896 27.7831V0H-20.3669L7.4257 27.8533ZM-43.707 32.8594L-20.6382 55.9732V55.9763H-43.707V56H7.42807V55.9795L7.44857 56H35.492V55.9763H7.42807L-20.6358 27.8565V27.8533H-43.707V32.8586V32.8594ZM-43.707 4.73476L-20.6382 27.8541V0H-43.707V4.73476Z" fill="#120540"/>
<path d="M-1.11914 56H0.0190002V48.552L-1.11914 47.4115V56.0008V56ZM-1.11914 19.2892L0.0190002 20.4305V0H-1.11914V19.2892Z" fill="#59FF69"/>
<path d="M0.741211 56H1.90854V50.445L0.741211 49.2753V56ZM0.741211 21.1546L1.90854 22.3243V0H0.741211V21.1546Z" fill="#59FF69"/>
<path d="M2.60156 56H3.79728V52.3379L2.60156 51.1398V56ZM2.60156 23.0192L3.79728 24.2172V0H2.60156V23.0192Z" fill="#59FF69"/>
<path d="M4.46289 56H5.687V54.2317L4.46289 53.0044V56ZM4.46289 24.8845L5.687 26.1118V0H4.46289V24.8845Z" fill="#59FF69"/>
<path d="M6.32422 56H7.42844V55.9795L7.44974 56H7.57751V55.9763H7.42923L6.32501 54.8698V56.0008L6.32422 56ZM6.32422 26.7491L7.42608 27.8533V27.7863L7.57751 27.9377V0H6.32422V26.7491Z" fill="#59FF69"/>
<path d="M9.46626 56V55.9763H8.18457V56H9.46626ZM8.18457 28.5466L9.46626 29.8306V0H8.18457V28.5466Z" fill="#59FF69"/>
<path d="M11.356 56V55.9763H10.0459V56H11.356ZM10.0459 30.4112L11.356 31.7244V0H10.0459V30.4112Z" fill="#59FF69"/>
<path d="M13.2455 56V55.9763H11.9062V56H13.2455ZM11.9062 32.2757L13.2455 33.6174V0H11.9062V32.2757Z" fill="#59FF69"/>
<path d="M15.136 56V55.9763H13.7684V56H15.136ZM13.7676 34.1403L15.1352 35.5103V0H13.7676V34.1403Z" fill="#59FF69"/>
<path d="M17.025 56V55.9763H15.6289V56H17.025ZM15.6289 36.0048L17.025 37.4041V0H15.6289V36.0048Z" fill="#59FF69"/>
<path d="M18.9145 56V55.9763H17.4893V56H18.9145ZM17.4893 37.8694L18.9145 39.297V0H17.4893V37.8694Z" fill="#59FF69"/>
<path d="M20.804 56V55.9763H19.3504V56H20.804ZM19.3496 39.734L20.8032 41.1908V0H19.3496V39.734Z" fill="#59FF69"/>
<path d="M22.693 56V55.9763H21.2109V56H22.693ZM21.2109 41.5985L22.693 43.0837V0H21.2109V41.5985Z" fill="#59FF69"/>
<path d="M24.5835 56V55.9763H23.0723V56H24.5835ZM23.0723 43.4631L24.5835 44.9775V0H23.0723V43.4631Z" fill="#59FF69"/>
<path d="M26.473 56V55.9763H24.9334V56H26.473ZM24.9326 45.3277L26.4722 46.8704V0H24.9326V45.3277Z" fill="#59FF69"/>
<path d="M28.3619 56V55.9763H26.7939V56H28.3619ZM26.7939 47.1922L28.3619 48.7634V0H26.7939V47.1922Z" fill="#59FF69"/>
<path d="M-20.237 56H7.75822V55.9321H-20.3057L-20.237 56Z" fill="#120540"/>
<path d="M35.4929 1.26434V0H34.2656L35.4929 1.26434Z" fill="#120540"/>
<path d="M35.4928 27.664V0H7.7002L35.4928 27.664Z" fill="#120540"/>
<path d="M-20.7725 27.6608L6.89469 0H-20.7725V27.6608Z" fill="#120540"/>
<path d="M8.20312 0.63495L8.39636 0.828189V0.0441895H8.20312V0.63495Z" fill="#59FF69"/>
<path d="M10.0645 2.49636L10.2853 2.7172V0.0441895H10.0645V2.49636Z" fill="#59FF69"/>
<path d="M11.9258 4.35698L12.1758 4.60701V0.0441895H11.9258V4.35698Z" fill="#59FF69"/>
<path d="M13.7871 6.21839L14.0655 6.49681V0.0441895H13.7871V6.21839Z" fill="#59FF69"/>
<path d="M15.6475 8.07901L15.9543 8.38582V0.0441895H15.6475V8.07901Z" fill="#59FF69"/>
<path d="M17.5078 9.93963L17.8438 10.2756V0.0441895H17.5078V9.93963Z" fill="#59FF69"/>
<path d="M19.3691 11.801L19.7335 12.1654V0.0441895H19.3691V11.801Z" fill="#59FF69"/>
<path d="M21.2305 13.6617L21.4939 13.9251L21.624 13.795V0.0441895H21.2305V13.6617Z" fill="#59FF69"/>
<path d="M23.0908 12.3271L23.5128 11.9051V0.0441895H23.0908V12.3271Z" fill="#59FF69"/>
<path d="M24.9521 10.4665L25.4025 10.0161V0.0441895H24.9521V10.4665Z" fill="#59FF69"/>
<path d="M26.8125 8.60509L27.292 8.12633V0.0441895H26.8125V8.60509Z" fill="#59FF69"/>
<path d="M28.6738 6.74447L29.1818 6.23653V0.0441895H28.6738V6.74447Z" fill="#59FF69"/>
<path d="M30.5352 4.88385L31.0715 4.34751V0.0441895H30.5352V4.88385Z" fill="#59FF69"/>
<path d="M32.3955 3.02244L32.961 2.45771V0.0441895H32.3955V3.02244Z" fill="#59FF69"/>
<path d="M34.2559 1.16182L34.8498 0.567908V0.0441895H34.2559V1.16182Z" fill="#59FF69"/>
</g>
<path d="M31.549 3.9436H3.94336V52.0563H31.549V3.9436Z" fill="white"/>
<path d="M12.9629 41.8028C12.8477 41.8028 12.7641 41.7673 12.7129 41.6971C12.6616 41.627 12.6616 41.5339 12.7129 41.4179L23.5122 17.2394V17.0855H8.49631C8.31648 17.0855 8.22656 16.983 8.22656 16.7772V14.5253C8.22656 14.3068 8.31648 14.198 8.49631 14.198H26.9574C27.1624 14.198 27.2658 14.3068 27.2658 14.5253V16.1809C27.2658 16.2069 27.2397 16.3221 27.1885 16.5271L16.2732 41.5725C16.1959 41.7263 16.0737 41.8036 15.9072 41.8036H12.9621L12.9629 41.8028Z" fill="#120540"/>
</g>
<defs>
<clipPath id="clip0_1354_4585">
<rect width="35.493" height="56" fill="white"/>
</clipPath>
</defs>
</svg>
