<svg width="36" height="56" viewBox="0 0 36 56" fill="none" xmlns="http://www.w3.org/2000/svg">
<g clip-path="url(#clip0_1354_4292)">
<mask id="mask0_1354_4292" style="mask-type:luminance" maskUnits="userSpaceOnUse" x="0" y="0" width="36" height="57">
<path d="M35.5833 0H0V56.026H35.5833V0Z" fill="white"/>
</mask>
<g mask="url(#mask0_1354_4292)">
<path d="M35.5833 0H0V56.026H35.5833V0Z" fill="#120540"/>
<path d="M35.5833 0H0V56.026H35.5833V0Z" fill="#120540"/>
<path d="M1.3605 0H0.762695V56.026H1.3605V0Z" fill="#59FF69"/>
<path d="M2.89496 0H2.27344V56.026H2.89496V0Z" fill="#59FF69"/>
<path d="M4.42863 0H3.78418V56.026H4.42863V0Z" fill="#59FF69"/>
<path d="M5.96212 0H5.29395V56.026H5.96212V0Z" fill="#59FF69"/>
<path d="M7.49579 0H6.80469V56.026H7.49579V0Z" fill="#59FF69"/>
<path d="M9.02928 0H8.31445V56.026H9.02928V0Z" fill="#59FF69"/>
<path d="M10.563 0H9.8252V56.026H10.563V0Z" fill="#59FF69"/>
<path d="M12.0957 0H11.335V56.026H12.0957V0Z" fill="#59FF69"/>
<path d="M13.6291 0H12.8447V56.026H13.6291V0Z" fill="#59FF69"/>
<path d="M15.1628 0H14.3555V56.026H15.1628V0Z" fill="#59FF69"/>
<path d="M16.6963 0H15.8652V56.026H16.6963V0Z" fill="#59FF69"/>
<path d="M18.23 0H17.376V56.026H18.23V0Z" fill="#59FF69"/>
<path d="M19.7635 0H18.8857V56.026H19.7635V0Z" fill="#59FF69"/>
<path d="M21.2971 0H20.3965V56.026H21.2971V0Z" fill="#59FF69"/>
<path d="M22.8298 0H21.9062V56.026H22.8298V0Z" fill="#59FF69"/>
<path d="M24.3643 0H23.417V56.026H24.3643V0Z" fill="#59FF69"/>
<path d="M25.898 0H24.9277V56.026H25.898V0Z" fill="#59FF69"/>
<path d="M27.4315 0H26.4375V56.026H27.4315V0Z" fill="#59FF69"/>
<path d="M28.9642 0H27.9473V56.026H28.9642V0Z" fill="#59FF69"/>
<path d="M30.4969 0H29.457V56.026H30.4969V0Z" fill="#59FF69"/>
<path d="M32.0313 0H30.9678V56.026H32.0313V0Z" fill="#59FF69"/>
<path d="M33.565 0H32.4785V56.026H33.565V0Z" fill="#59FF69"/>
<path d="M35.0985 0H33.9883V56.026H35.0985V0Z" fill="#59FF69"/>
<path d="M35.5836 0H35.499V56.026H35.5836V0Z" fill="#59FF69"/>
<path d="M0 56.026H17.7292L0 36.3274V56.026ZM17.7292 56.026H35.5833V36.1878L17.7292 56.026ZM32.418 0L17.7308 16.3189H17.7292V0H14.5488L0 16.1643V16.3204H17.7268L0 36.0175V36.1736H35.5833V0H32.418Z" fill="#120540"/>
<path d="M14.5481 0L14.3789 0.188507H17.7293V0H14.5489H14.5481ZM32.4181 0L32.2489 0.188507H35.5834V0H32.4181Z" fill="#59FF69"/>
<path d="M13.4992 1.16577L13.1758 1.52464H17.7289V1.16577H13.4992ZM31.3684 1.16577L31.0449 1.52464H35.583V1.16577H31.3684Z" fill="#59FF69"/>
<path d="M12.3143 2.48218L11.9727 2.86156H17.7285V2.48218H12.3143ZM30.1842 2.48218L29.8426 2.86156H35.5834V2.48218H30.1842Z" fill="#59FF69"/>
<path d="M11.1293 3.79858L10.7695 4.19847H17.7288V3.79858H11.1293ZM28.9993 3.79858L28.6395 4.19847H35.583V3.79858H28.9993Z" fill="#59FF69"/>
<path d="M9.94536 5.11499L9.56738 5.53538H17.7294V5.11499H9.94536ZM27.8145 5.11499L27.4365 5.53538H35.5835V5.11499H27.8145Z" fill="#59FF69"/>
<path d="M8.75944 6.43127L8.36328 6.87139H17.7288V6.43127H8.76023H8.75944ZM26.6294 6.43127L26.2332 6.87139H35.5829V6.43127H26.6294Z" fill="#59FF69"/>
<path d="M7.57548 7.74768L7.16113 8.2083H17.7294V7.74768H7.57548ZM25.4454 7.74768L25.0311 8.2083H35.5843V7.74768H25.4462H25.4454Z" fill="#59FF69"/>
<path d="M6.39054 9.06409L5.95801 9.54521H17.729V9.06409H6.39054ZM24.2597 9.06409L23.8272 9.54521H35.5831V9.06409H24.2597Z" fill="#59FF69"/>
<path d="M5.20561 10.3805L4.75488 10.8813H17.7294V10.3805H5.20561ZM23.0756 10.3805L22.6248 10.8813H35.5835V10.3805H23.0756Z" fill="#59FF69"/>
<path d="M4.02067 11.6969L3.55176 12.2183H17.7289V11.6969H4.02067ZM21.8906 11.6969L21.4217 12.2183H35.5839V11.6969H21.8914H21.8906Z" fill="#59FF69"/>
<path d="M2.83652 13.0133L2.34863 13.5552H17.7285V13.0133H2.83652ZM20.7057 13.0133L20.2178 13.5552H35.5827V13.0133H20.7049H20.7057Z" fill="#59FF69"/>
<path d="M1.65061 14.3297L1.14453 14.8921H17.7279V14.3297H1.65061ZM19.5206 14.3297L19.0145 14.8921H35.5829V14.3297H19.5206Z" fill="#59FF69"/>
<path d="M0.466537 15.6461L0 16.1643V16.2282H17.7292V15.6461H0.466537ZM18.3365 15.6461L17.8122 16.2282H35.5833V15.6461H18.3365Z" fill="#59FF69"/>
<path d="M17.1499 16.9625L16.6074 17.5651H35.5836V16.9625H17.1499Z" fill="#59FF69"/>
<path d="M15.9649 18.2789L15.4043 18.902H35.5832V18.2789H15.9649Z" fill="#59FF69"/>
<path d="M14.78 19.5952L14.2012 20.238H35.5836V19.5952H14.78Z" fill="#59FF69"/>
<path d="M13.5951 20.9116L12.998 21.5749H35.5832V20.9116H13.5951Z" fill="#59FF69"/>
<path d="M12.4111 22.228L11.7959 22.9119H35.5838V22.228H12.4111Z" fill="#59FF69"/>
<path d="M11.2252 23.5444L10.5918 24.248H35.5832V23.5444H11.2252Z" fill="#59FF69"/>
<path d="M10.0412 24.8608L9.38965 25.5849H35.5837V24.8608H10.0412Z" fill="#59FF69"/>
<path d="M8.8561 26.1772L8.18555 26.9218H35.5831V26.1772H8.8561Z" fill="#59FF69"/>
<path d="M7.67134 27.4937L6.9834 28.2587H35.5837V27.4937H7.67134Z" fill="#59FF69"/>
<path d="M6.4864 28.8101L5.78027 29.5948H35.5833V28.8101H6.4864Z" fill="#59FF69"/>
<path d="M5.30226 30.1265L4.57715 30.9318H35.5837V30.1265H5.30226Z" fill="#59FF69"/>
<path d="M35.502 36.2785H35.5834V36.1886L35.502 36.2785Z" fill="#59FF69"/>
<path d="M0 36.7084V37.6154H1.15844L0.342391 36.7084H0ZM35.1152 36.7084L34.2992 37.6154H35.5833V36.7084H35.1152Z" fill="#59FF69"/>
<path d="M0 38.0248V38.9515H2.36194L1.52771 38.0248H0ZM33.9307 38.0248L33.0965 38.9515H35.5841V38.0248H33.9315H33.9307Z" fill="#59FF69"/>
<path d="M0 39.3412V40.2885H3.56466L2.71224 39.3412H0ZM32.7454 39.3412L31.8929 40.2885H35.5833V39.3412H32.7454Z" fill="#59FF69"/>
<path d="M0 40.6576V41.6254H4.76817L3.89756 40.6576H0ZM31.5608 40.6576L30.6902 41.6254H35.5833V40.6576H31.5608Z" fill="#59FF69"/>
<path d="M0 41.974V42.9615H5.97088L5.08209 41.974H0ZM30.3763 41.974L29.4875 42.9615H35.5841V41.974H30.3771H30.3763Z" fill="#59FF69"/>
<path d="M0 43.2904V44.2984H7.1736L6.26662 43.2904H0ZM29.191 43.2904L28.284 44.2984H35.5833V43.2904H29.191Z" fill="#59FF69"/>
<path d="M0 44.6068V45.6353H8.37711L7.45194 44.6068H0ZM28.0065 44.6068L27.0813 45.6353H35.5833V44.6068H28.0065Z" fill="#59FF69"/>
<path d="M0 45.9231V46.9713H9.57982L8.63647 45.9231H0ZM26.8219 45.9231L25.8786 46.9713H35.5841V45.9231H26.8227H26.8219Z" fill="#59FF69"/>
<path d="M0 47.2395V48.3082H10.7833L9.821 47.2395H0ZM25.6366 47.2395L24.6743 48.3082H35.5825V47.2395H25.6358H25.6366Z" fill="#59FF69"/>
<path d="M0 48.5559V49.6451H11.986L11.0055 48.5559H0ZM24.4521 48.5559L23.4716 49.6451H35.5833V48.5559H24.4521Z" fill="#59FF69"/>
<path d="M0 49.8723V50.9821H13.1888L12.1901 49.8723H0ZM23.2675 49.8723L22.2688 50.9821H35.5833V49.8723H23.2675Z" fill="#59FF69"/>
<path d="M0 51.1887V52.3182H14.3923L13.3754 51.1887H0ZM22.0822 51.1887L21.0653 52.3182H35.5825V51.1887H22.0814H22.0822Z" fill="#59FF69"/>
<path d="M0 52.5051V53.6551H15.595L14.5599 52.5051H0ZM20.8977 52.5051L19.8626 53.6551H35.5833V52.5051H20.8977Z" fill="#59FF69"/>
<path d="M0 53.8215V54.992H16.7977L15.7444 53.8215H0ZM19.7132 53.8215L18.6599 54.992H35.5833V53.8215H19.7132Z" fill="#59FF69"/>
<path d="M0 55.1379V56.0261H17.7292L16.9298 55.1379H0ZM18.5278 55.1379L17.7284 56.0261H35.5825V55.1379H18.5278Z" fill="#59FF69"/>
<path d="M35.1372 36.7218L35.0146 36.8583H35.5128V36.7218H35.1372Z" fill="#59FF69"/>
<path d="M33.9552 38.0382L33.8145 38.1952H35.513V38.0382H33.9552Z" fill="#59FF69"/>
<path d="M32.7722 39.3546L32.6133 39.5313H35.5129V39.3546H32.7722Z" fill="#59FF69"/>
<path d="M31.5902 40.671L31.4131 40.8682H35.5131V40.671H31.5902Z" fill="#59FF69"/>
<path d="M30.4074 41.9874L30.2129 42.2051H35.5132V41.9874H30.4074Z" fill="#59FF69"/>
<path d="M29.2252 43.3038L29.0117 43.5412H35.5132V43.3038H29.2252Z" fill="#59FF69"/>
<path d="M28.0432 44.6201L27.8115 44.878H35.5133V44.6201H28.0432Z" fill="#59FF69"/>
<path d="M26.8602 45.9365L26.6934 46.1227L26.7756 46.2149H35.5133V45.9365H26.8602Z" fill="#59FF69"/>
<path d="M27.708 47.2529L27.9761 47.5519H35.5126V47.2529H27.708Z" fill="#59FF69"/>
<path d="M28.8906 48.5693L29.1769 48.888H35.5131V48.5693H28.8906Z" fill="#59FF69"/>
<path d="M30.0723 49.8857L30.3767 50.2249H35.5126V49.8857H30.0723Z" fill="#59FF69"/>
<path d="M31.2559 51.2021L31.5785 51.5618H35.5132V51.2021H31.2559Z" fill="#59FF69"/>
<path d="M32.4375 52.5186L32.7783 52.8979H35.5127V52.5186H32.4375Z" fill="#59FF69"/>
<path d="M33.6201 53.835L33.9799 54.2348H35.5131V53.835H33.6201Z" fill="#59FF69"/>
<path d="M34.8027 55.1514L35.1799 55.5718H35.5128V55.1514H34.8027Z" fill="#59FF69"/>
<path d="M13.9937 0L0 16.0002V16.0972H17.8352V0H13.9937Z" fill="#120540"/>
<path d="M17.835 36.4071H35.5831V16.6028L17.835 36.4071Z" fill="#120540"/>
<path d="M20.918 0L35.583 16.5082V0H20.918Z" fill="#120540"/>
<path d="M0.126953 56.026H17.7383V36.4071L0.126953 56.026Z" fill="#120540"/>
<path d="M17.6758 56.026H35.2872L17.6758 36.4071V56.026Z" fill="#120540"/>
<path d="M0 16.0964L17.8352 36.4094V16.0964H0Z" fill="#120540"/>
<path d="M0 16.2494V36.1736H0.0854V16.1548L0 16.2494Z" fill="#120540"/>
<path d="M35.1372 36.7218L35.0146 36.8583H35.5128V36.7218H35.1372Z" fill="#59FF69"/>
<path d="M33.9552 38.0382L33.8145 38.1952H35.513V38.0382H33.9552Z" fill="#59FF69"/>
<path d="M31.63 3.9436H3.9541V52.0563H31.63V3.9436Z" fill="white"/>
<path d="M32.7722 39.3546L32.6133 39.5313H35.5129V39.3546H32.7722Z" fill="#59FF69"/>
<path d="M31.5902 40.671L31.4131 40.8682H35.5131V40.671H31.5902Z" fill="#59FF69"/>
<path d="M30.4074 41.9874L30.2129 42.2051H35.5132V41.9874H30.4074Z" fill="#59FF69"/>
<path d="M29.2252 43.3038L29.0117 43.5412H35.5132V43.3038H29.2252Z" fill="#59FF69"/>
<path d="M28.0432 44.6201L27.8115 44.878H35.5133V44.6201H28.0432Z" fill="#59FF69"/>
<path d="M26.8602 45.9365L26.6934 46.1227L26.7756 46.2149H35.5133V45.9365H26.8602Z" fill="#59FF69"/>
<path d="M27.708 47.2529L27.9761 47.5519H35.5126V47.2529H27.708Z" fill="#59FF69"/>
<path d="M28.8906 48.5693L29.1769 48.888H35.5131V48.5693H28.8906Z" fill="#59FF69"/>
<path d="M30.0723 49.8857L30.3767 50.2249H35.5126V49.8857H30.0723Z" fill="#59FF69"/>
<path d="M31.2559 51.2021L31.5785 51.5618H35.5132V51.2021H31.2559Z" fill="#59FF69"/>
<path d="M32.4375 52.5186L32.7783 52.8979H35.5127V52.5186H32.4375Z" fill="#59FF69"/>
<path d="M33.6201 53.835L33.9799 54.2348H35.5131V53.835H33.6201Z" fill="#59FF69"/>
<path d="M34.8027 55.1514L35.1799 55.5718H35.5128V55.1514H34.8027Z" fill="#59FF69"/>
</g>
<path d="M17.9481 41.8028C17.7551 41.8028 17.6594 41.7002 17.6594 41.4952V21.4937H11.2876C11.0955 21.4937 10.999 21.3912 10.999 21.1853V18.8948C10.999 18.715 11.0955 18.6251 11.2876 18.6251H17.7939V14.5245C17.7939 14.306 17.8967 14.1971 18.1022 14.1971H20.7781C20.9964 14.1971 21.1055 14.306 21.1055 14.5245V41.4952C21.1055 41.7002 20.9964 41.8028 20.7781 41.8028H17.9481Z" fill="#120540"/>
</g>
<defs>
<clipPath id="clip0_1354_4292">
<rect width="35.5833" height="56" fill="white"/>
</clipPath>
</defs>
</svg>
