<svg width="36" height="56" viewBox="0 0 36 56" fill="none" xmlns="http://www.w3.org/2000/svg">
<g clip-path="url(#clip0_1354_4017)">
<mask id="mask0_1354_4017" style="mask-type:luminance" maskUnits="userSpaceOnUse" x="0" y="0" width="40" height="56">
<path d="M39.6968 0H0V56H39.6968V0Z" fill="white"/>
</mask>
<g mask="url(#mask0_1354_4017)">
<path d="M39.6968 0H0V56H39.6968V0Z" fill="#120540"/>
<path d="M39.6968 0H0V56H39.6968V0Z" fill="#120540"/>
<path d="M18.2777 0H16.7539V56H18.2777V0Z" fill="#59FF69"/>
<path d="M19.9883 0H18.4385V56H19.9883V0Z" fill="#59FF69"/>
<path d="M21.699 0H20.123V56H21.699V0Z" fill="#59FF69"/>
<path d="M23.4098 0H21.8086V56H23.4098V0Z" fill="#59FF69"/>
<path d="M25.1195 0H23.4922V56H25.1195V0Z" fill="#59FF69"/>
<path d="M26.8312 0H25.1777V56H26.8312V0Z" fill="#59FF69"/>
<path d="M28.5418 0H26.8623V56H28.5418V0Z" fill="#59FF69"/>
<path d="M30.2535 0H28.5479V56H30.2535V0Z" fill="#59FF69"/>
<path d="M31.9641 0H30.2324V56H31.9641V0Z" fill="#59FF69"/>
<path d="M33.674 0H31.917V56H33.674V0Z" fill="#59FF69"/>
<path d="M35.3857 0H33.6025V56H35.3857V0Z" fill="#59FF69"/>
<path d="M37.0953 0H35.2861V56H37.0953V0Z" fill="#59FF69"/>
<path d="M19.952 36.1547H19.9994L0.0648407 56H20.0002L20.0026 55.9976H39.6976V16.5034L19.9528 36.1547H19.952ZM16.4039 0L0.0189778 16.311H0.0166056V0H0V36.1563H0.0150241L0 36.1713V56H0.0166056V36.1563L19.9496 16.3126H19.952V0H16.4039ZM36.3409 0L19.9528 16.311H39.6976V0H36.3417H36.3409Z" fill="#120540"/>
<path d="M0 0.188507H0.0166056V0H0V0.187718V0.188507ZM16.4039 0L16.2149 0.187718H19.952V0H16.4039ZM36.3409 0L36.1519 0.187718H39.6968V0H36.3409Z" fill="#59FF69"/>
<path d="M0 1.52379H0.0166056V1.16492H0V1.52379ZM15.2336 1.16492L14.873 1.52379H19.9528V1.16492H15.2344H15.2336ZM35.1698 1.16492L34.8092 1.52379H39.6968V1.16492H35.1698Z" fill="#59FF69"/>
<path d="M0 2.85997H0.0166056V2.48059H0V2.85997ZM13.9115 2.48059L13.5304 2.85997H19.952V2.48059H13.9115ZM33.8477 2.48059L33.4665 2.85997H39.696V2.48059H33.8469H33.8477Z" fill="#59FF69"/>
<path d="M0 4.19603H0.0166056V3.79614H0V4.19603ZM12.5902 3.79693L12.1885 4.19682H19.952V3.79693H12.5902ZM32.5263 3.79693L32.1246 4.19682H39.6968V3.79693H32.5263Z" fill="#59FF69"/>
<path d="M0 5.53215H0.0166056V5.11255H0V5.53215ZM11.2681 5.11255L10.8466 5.53215H19.952V5.11255H11.2681ZM31.2042 5.11255L30.7827 5.53215H39.6976V5.11255H31.205H31.2042Z" fill="#59FF69"/>
<path d="M0 6.86834H0.0166056V6.42822H0V6.86834ZM9.94673 6.42822L9.5047 6.86834H19.9528V6.42822H9.94752H9.94673ZM29.8821 6.42822L29.4401 6.86834H39.6968V6.42822H29.8821Z" fill="#59FF69"/>
<path d="M0 8.20439H0.0166056V7.74377H0V8.20439ZM8.62461 7.74377L8.16203 8.20439H19.952V7.74377H8.62461ZM28.56 7.74377L28.0974 8.20439H39.6968V7.74377H28.56Z" fill="#59FF69"/>
<path d="M0 9.54052H0.0166056V9.06018H0V9.54052ZM7.30328 9.06018L6.82014 9.54052H19.952V9.06018H7.30328ZM27.2379 9.06018L26.7547 9.54052H39.6968V9.06018H27.2379Z" fill="#59FF69"/>
<path d="M0 10.8766H0.0166056V10.3757H0V10.8766ZM5.98116 10.3757L5.47825 10.8766H19.952V10.3757H5.98116ZM25.9157 10.3757L25.412 10.8766H39.696V10.3757H25.9149H25.9157Z" fill="#59FF69"/>
<path d="M0 12.2128H0.0166056V11.6914H0V12.2128ZM4.65983 11.6914L4.13636 12.2128H19.9528V11.6914H4.65983ZM24.5936 11.6914L24.0701 12.2128H39.6968V11.6914H24.5936Z" fill="#59FF69"/>
<path d="M0 13.5488H0.0166056V13.0077H0V13.5488ZM3.33772 13.007L2.79369 13.548H19.952V13.007H3.33772ZM23.2715 13.007L22.7275 13.548H39.696V13.007H23.2707H23.2715Z" fill="#59FF69"/>
<path d="M0 14.885H0.0166056V14.3234H0V14.885ZM2.01639 14.3226L1.4518 14.8842H19.952V14.3226H2.01639ZM21.9502 14.3226L21.3856 14.8842H39.6968V14.3226H21.9502Z" fill="#59FF69"/>
<path d="M0 16.2211H0.0166056V15.639H0V16.2211ZM0.69427 15.639L0.109913 16.2211H19.9528V15.639H0.69427ZM20.6281 15.639L20.0429 16.2211H39.6968V15.639H20.6281Z" fill="#59FF69"/>
<path d="M0 16.9546V17.5572H18.701L19.3059 16.9546H0ZM39.2429 16.9546L38.638 17.5572H39.6968V16.9546H39.2429Z" fill="#59FF69"/>
<path d="M0 18.2701V18.8925H17.3591L17.9846 18.2701H0ZM37.9216 18.2701L37.2961 18.8925H39.6968V18.2701H37.9216Z" fill="#59FF69"/>
<path d="M0 19.5858V20.2286H16.0165L16.6625 19.5858H0ZM36.5994 19.5858L35.9534 20.2286H39.6968V19.5858H36.5994Z" fill="#59FF69"/>
<path d="M0 20.9022V21.5655H14.6746L15.3404 20.9022H0ZM35.2773 20.9022L34.6107 21.5655H39.6968V20.9022H35.2773Z" fill="#59FF69"/>
<path d="M0 22.2178V22.9008H13.3327L14.019 22.2178H0ZM33.9552 22.2178L33.2688 22.9008H39.6968V22.2178H33.9552Z" fill="#59FF69"/>
<path d="M0 23.5334V24.237H11.9908L12.6977 23.5334H0ZM32.6331 23.5334L31.9262 24.237H39.6968V23.5334H32.6331Z" fill="#59FF69"/>
<path d="M0 24.849V25.5731H10.6481L11.3748 24.849H0ZM31.311 24.849L30.5835 25.5731H39.6968V24.849H31.311Z" fill="#59FF69"/>
<path d="M0 26.1654V26.9092H9.30623L10.0535 26.1654H0ZM29.9888 26.1654L29.2416 26.9092H39.6968V26.1654H29.9888Z" fill="#59FF69"/>
<path d="M0 27.481V28.2452H7.96434L8.73215 27.481H0ZM28.6667 27.481L27.8989 28.2452H39.6968V27.481H28.6667Z" fill="#59FF69"/>
<path d="M0 28.7966V29.5814H6.62166L7.41003 28.7966H0ZM27.3454 28.7966L26.557 29.5814H39.6968V28.7966H27.3454Z" fill="#59FF69"/>
<path d="M0 30.1122V30.9175H5.27978L6.0887 30.1122H0ZM26.0233 30.1122L25.2143 30.9175H39.6968V30.1122H26.0233Z" fill="#59FF69"/>
<path d="M0 31.4279V32.2529H3.93789L4.76658 31.4279H0ZM24.7012 31.4279L23.8717 32.2529H39.6968V31.4279H24.7012Z" fill="#59FF69"/>
<path d="M0 32.7443V33.5898H2.596L3.44526 32.7443H0ZM23.379 32.7443L22.5298 33.5898H39.6968V32.7443H23.379Z" fill="#59FF69"/>
<path d="M0 34.0598V34.9258H1.25332L2.12314 34.0598H0ZM22.0569 34.0598L21.1871 34.9258H39.6968V34.0598H22.0569Z" fill="#59FF69"/>
<path d="M0 35.3755V36.1563H0.0150241L0 36.1713V36.2612H0.0166056V36.1563L0.80102 35.3755H0ZM20.7348 35.3755L19.952 36.1548H19.9994L19.8919 36.262H39.696V35.3763H20.734L20.7348 35.3755Z" fill="#59FF69"/>
<path d="M0 37.5973H0.0166056V36.691H0V37.5973ZM19.4609 36.691L18.5508 37.5973H39.6968V36.691H19.4609Z" fill="#59FF69"/>
<path d="M0 38.9334H0.0166056V38.0066H0V38.9334ZM18.1388 38.0074L17.2081 38.9341H39.6968V38.0074H18.1388Z" fill="#59FF69"/>
<path d="M0 40.2695H0.0166056V39.323H0V40.2695ZM16.8175 39.323L15.8662 40.2695H39.6968V39.323H16.8175Z" fill="#59FF69"/>
<path d="M0 41.6057H0.0166056V40.6387H0V41.6057ZM15.4954 40.6387L14.5243 41.6057H39.6968V40.6387H15.4954Z" fill="#59FF69"/>
<path d="M0 42.9417H0.0166056V41.9542H0V42.9417ZM14.174 41.9542L13.1824 42.9417H39.6968V41.9542H14.174Z" fill="#59FF69"/>
<path d="M0 44.2779H0.0166056V43.2707H0V44.2779ZM12.8519 43.2699L11.8398 44.2771H39.6968V43.2699H12.8519Z" fill="#59FF69"/>
<path d="M0 45.614H0.0166056V44.5863H0V45.614ZM11.5306 44.5863L10.4979 45.614H39.6968V44.5863H11.5306Z" fill="#59FF69"/>
<path d="M0 46.9501H0.0166056V45.9019H0V46.9501ZM10.2085 45.9019L9.15599 46.9501H39.6968V45.9019H10.2085Z" fill="#59FF69"/>
<path d="M0 48.2863H0.0166056V47.2175H0V48.2863ZM8.88713 47.2175L7.8141 48.2863H39.6976V47.2175H8.88713Z" fill="#59FF69"/>
<path d="M0 49.6223H0.0166056V48.5339H0V49.6223ZM7.56502 48.5331L6.47142 49.6215H39.6968V48.5331H7.56502Z" fill="#59FF69"/>
<path d="M0 50.9584H0.0166056V49.8495H0V50.9584ZM6.24369 49.8495L5.12954 50.9584H39.6968V49.8495H6.24369Z" fill="#59FF69"/>
<path d="M0 52.2945H0.0166056V51.165H0V52.2945ZM4.92157 51.165L3.78765 52.2945H39.6968V51.165H4.92157Z" fill="#59FF69"/>
<path d="M0 53.6299H0.0166056V52.4807H0V53.6299ZM3.60024 52.4807L2.44576 53.6299H39.6976V52.4807H3.60024Z" fill="#59FF69"/>
<path d="M0 54.966H0.0166056V53.7963H0V54.966ZM2.27812 53.7963L1.10308 54.966H39.6968V53.7963H2.27812Z" fill="#59FF69"/>
<path d="M0 56.0001H0.0166056V55.1127H0V56.0001ZM0.956006 55.1127L0.06405 56.0001H19.9994L20.0018 55.9977H39.6968V55.1119H0.956006V55.1127Z" fill="#59FF69"/>
<path d="M0 16.595V36.3906H0.0482352V16.5469L0 16.595Z" fill="#120540"/>
<path d="M0 0V16.5003L0.0482352 16.5492V0H0Z" fill="#120540"/>
<path d="M20.0859 56H39.6963V36.3488L20.0859 56Z" fill="#120540"/>
<path d="M20.0889 16.2172L39.6969 35.7793V16.2172H20.0889Z" fill="#120540"/>
<path d="M36.3475 0L20.0859 16.2171H39.6963V0H36.3475Z" fill="#120540"/>
<path d="M14.1998 0L-0.0390625 16.2187L-0.0105958 16.867L19.2772 16.8268L20.1335 16.2187V0H14.1998Z" fill="#120540"/>
<path d="M35.2885 40.6521L35.0908 40.8493H39.6645V40.6521H35.2885Z" fill="#59FF69"/>
<path d="M33.9702 41.9677L33.752 42.1853H39.6651V41.9677H33.9702Z" fill="#59FF69"/>
<path d="M32.6501 43.2841L32.4121 43.5215H39.6648V43.2841H32.6501Z" fill="#59FF69"/>
<path d="M31.3308 44.5996L31.0723 44.8575H39.6645V44.5996H31.3308Z" fill="#59FF69"/>
<path d="M30.0118 45.9153L29.8252 46.1014L29.9169 46.1937H39.6644V45.9153H30.0118Z" fill="#59FF69"/>
<path d="M30.958 47.2308L31.2569 47.529H39.6649V47.2308H30.958Z" fill="#59FF69"/>
<path d="M32.2773 48.5465L32.5968 48.8652H39.6652V48.5465H32.2773Z" fill="#59FF69"/>
<path d="M33.5967 49.8629L33.9359 50.2013H39.6648V49.8629H33.5967Z" fill="#59FF69"/>
<path d="M34.916 51.1785L35.2758 51.5373H39.6652V51.1785H34.916Z" fill="#59FF69"/>
</g>
<path d="M31.63 3.9436H3.9541V52.0563H31.63V3.9436Z" fill="white"/>
<path d="M1.20081 15.6864V-0.0330811H-0.00585938V16.901L1.20081 15.6864Z" fill="#59FF69"/>
<path d="M2.96558 13.9267V-0.0330811H1.63477V15.2541L2.96558 13.9267Z" fill="#59FF69"/>
<path d="M4.72977 12.167V-0.0330811H3.37207V13.5205L4.72977 12.167Z" fill="#59FF69"/>
<path d="M6.49415 10.4066V-0.0330811H5.11035V11.7877L6.49415 10.4066Z" fill="#59FF69"/>
<path d="M8.25913 8.64692V-0.0330811H6.84766V10.054L8.25913 8.64692Z" fill="#59FF69"/>
<path d="M10.0235 6.88726V-0.0330811H8.58594V8.32117L10.0235 6.88726Z" fill="#59FF69"/>
<path d="M11.7877 5.12681V-0.0330811H10.3232V6.58754L11.7877 5.12681Z" fill="#59FF69"/>
<path d="M13.5511 3.36714V-0.0330811H12.0605V4.85469L13.5511 3.36714Z" fill="#59FF69"/>
<path d="M15.3161 1.60748V-0.0330811H13.7979V3.12106L15.3161 1.60748Z" fill="#59FF69"/>
<path d="M16.9609 -0.0330811H17.0803H15.5352V1.38821L16.9609 -0.0330811Z" fill="#59FF69"/>
<path d="M8.29443 41.8028C8.11493 41.8028 8.02637 41.701 8.02637 41.4967V39.8909C8.02637 39.7253 8.07697 39.592 8.17977 39.4894L17.9162 30.5231C19.9349 28.6373 21.3084 27.085 22.0367 25.868C22.765 24.651 23.1295 23.2904 23.1295 21.7863C23.1295 20.2822 22.6756 19.0652 21.7686 18.2497C20.8617 17.4341 19.5649 17.0263 17.8782 17.0263C14.1601 17.0263 12.1153 18.7978 11.7452 22.3408C11.7073 22.5829 11.5792 22.7044 11.3617 22.7044H8.67794C8.49923 22.7044 8.40988 22.5964 8.40988 22.3795C8.62733 19.7538 9.56594 17.7338 11.2273 16.3188C12.8878 14.9038 15.1051 14.1971 17.8782 14.1971C20.6513 14.1971 22.6472 14.8731 24.1741 16.2234C25.701 17.5745 26.4641 19.4288 26.4641 21.7863C26.4641 23.6596 26.007 25.3806 25.0937 26.9478C24.1796 28.5158 22.5286 30.4016 20.1389 32.6062L13.5078 38.7811V38.9342H27.2501C27.4541 38.9342 27.5569 39.0296 27.5569 39.2213V41.496C27.5569 41.7002 27.4549 41.802 27.2501 41.802H8.29443V41.8028Z" fill="#120540"/>
</g>
<defs>
<clipPath id="clip0_1354_4017">
<rect width="35.5833" height="56" fill="white"/>
</clipPath>
</defs>
</svg>
