<svg width="35" height="56" viewBox="0 0 35 56" fill="none" xmlns="http://www.w3.org/2000/svg">
<g clip-path="url(#clip0_1354_4188)">
<mask id="mask0_1354_4188" style="mask-type:luminance" maskUnits="userSpaceOnUse" x="0" y="0" width="40" height="56">
<path d="M39.046 0H0V56H39.046V0Z" fill="white"/>
</mask>
<g mask="url(#mask0_1354_4188)">
<path d="M39.046 0H0V56H39.046V0Z" fill="#120540"/>
<path d="M39.046 0H0V56H39.046V0Z" fill="#120540"/>
<path d="M0.153907 0H0.110352V56H0.153907V0Z" fill="#59FF69"/>
<path d="M1.8368 0H1.76758V56H1.8368V0Z" fill="#59FF69"/>
<path d="M3.51969 0H3.4248V56H3.51969V0Z" fill="#59FF69"/>
<path d="M5.20259 0H5.08203V56H5.20259V0Z" fill="#59FF69"/>
<path d="M6.88548 0H6.73926V56H6.88548V0Z" fill="#59FF69"/>
<path d="M8.5676 0H8.39648V56H8.5676V0Z" fill="#59FF69"/>
<path d="M10.2505 0H10.0537V56H10.2505V0Z" fill="#59FF69"/>
<path d="M11.9334 0H11.7109V56H11.9334V0Z" fill="#59FF69"/>
<path d="M13.6153 0H13.3672V56H13.6153V0Z" fill="#59FF69"/>
<path d="M15.2992 0H15.0254V56H15.2992V0Z" fill="#59FF69"/>
<path d="M16.9813 0H16.6826V56H16.9813V0Z" fill="#59FF69"/>
<path d="M18.6642 0H18.3398V56H18.6642V0Z" fill="#59FF69"/>
<path d="M0 36.1563H19.2811L0 55.6703V56H19.2834V36.1547H19.2827L0 16.6407V36.1571V36.1563ZM38.892 16.3134H39.046V16.1572L38.892 16.3134ZM0 16.3134H19.2834V0H0V16.3134ZM22.7733 0L38.8904 16.3118L19.2827 36.1563H38.8889L19.2827 56H39.0452V36.3109L38.8928 36.1571H39.0452V36.0009L38.892 36.1563H38.8912V0H22.7726H22.7733Z" fill="#120540"/>
<path d="M0 0.188507H19.2834V0H0V0.187718V0.188507ZM22.7733 0L22.9592 0.187718H38.892V0H22.7733Z" fill="#59FF69"/>
<path d="M0 1.52385H19.2834V1.16498H0V1.52385ZM23.9244 1.16498L24.2791 1.52385H38.8912V1.16498H23.9237H23.9244Z" fill="#59FF69"/>
<path d="M0 2.85997H19.2834V2.48059H0V2.85997ZM25.2241 2.48059L25.599 2.85997H38.8912V2.48059H25.2241Z" fill="#59FF69"/>
<path d="M0 4.19603H19.2834V3.79614H0V4.19603ZM26.5246 3.79693L26.9197 4.19682H38.892V3.79693H26.5246Z" fill="#59FF69"/>
<path d="M0 5.53215H19.2834V5.11255H0V5.53215ZM27.825 5.11255L28.2396 5.53215H38.892V5.11255H27.825Z" fill="#59FF69"/>
<path d="M0 6.86827H19.2834V6.42816H0V6.86827ZM29.1247 6.42816L29.5594 6.86827H38.8912V6.42816H29.1239H29.1247Z" fill="#59FF69"/>
<path d="M0 8.20439H19.2834V7.74377H0V8.20439ZM30.4251 7.74377L30.8801 8.20439H38.892V7.74377H30.4251Z" fill="#59FF69"/>
<path d="M0 9.54052H19.2834V9.06018H0V9.54052ZM31.7248 9.06018L32.2 9.54052H38.892V9.06018H31.7248Z" fill="#59FF69"/>
<path d="M0 10.8766H19.2834V10.3758H0V10.8766ZM33.0252 10.3758L33.5199 10.8766H38.892V10.3758H33.0252Z" fill="#59FF69"/>
<path d="M0 12.2128H19.2834V11.6914H0V12.2128ZM34.3249 11.6914L34.8398 12.2128H38.8912V11.6914H34.3249Z" fill="#59FF69"/>
<path d="M0 13.5488H19.2834V13.0077H0V13.5488ZM35.6253 13.007L36.1604 13.548H38.892V13.007H35.6253Z" fill="#59FF69"/>
<path d="M0 14.8849H19.2834V14.3234H0V14.8849ZM36.925 14.3226L37.4803 14.8841H38.892V14.3226H36.9258H36.925Z" fill="#59FF69"/>
<path d="M38.983 16.2211H39.046V16.1572L38.983 16.2211ZM0 16.2211H19.2834V15.639H0V16.2211ZM38.2254 15.639L38.8002 16.2211H38.8912V15.639H38.2247H38.2254Z" fill="#59FF69"/>
<path d="M0 16.9546V17.5572H0.905333L0.310333 16.9546H0ZM38.2558 16.9546L37.6608 17.5572H38.8912V16.9546H38.2558Z" fill="#59FF69"/>
<path d="M0 18.2702V18.8925H2.22522L1.61 18.2702H0ZM36.9561 18.2702L36.3409 18.8925H38.892V18.2702H36.9561Z" fill="#59FF69"/>
<path d="M0 19.5858V20.2286H3.54589L2.91044 19.5858H0ZM35.6557 19.5858L35.0202 20.2286H38.8912V19.5858H35.6557Z" fill="#59FF69"/>
<path d="M0 20.9022V21.5655H4.86578L4.21089 20.9022H0ZM34.356 20.9022L33.7011 21.5655H38.892V20.9022H34.356Z" fill="#59FF69"/>
<path d="M0 22.2178V22.9008H6.18567L5.51056 22.2178H0ZM33.0556 22.2178L32.3804 22.9008H38.892V22.2178H33.0563H33.0556Z" fill="#59FF69"/>
<path d="M0 23.5334V24.2369H7.50556L6.81022 23.5334H0ZM31.7559 23.5334L31.0606 24.2369H38.892V23.5334H31.7559Z" fill="#59FF69"/>
<path d="M0 24.849V25.5731H8.82622L8.11144 24.849H0ZM30.4554 24.849L29.7407 25.5731H38.892V24.849H30.4554Z" fill="#59FF69"/>
<path d="M0 26.1654V26.9092H10.1461L9.41111 26.1654H0ZM29.155 26.1654L28.42 26.9092H38.8912V26.1654H29.155Z" fill="#59FF69"/>
<path d="M0 27.481V28.2453H11.466L10.7108 27.481H0ZM27.8553 27.481L27.1001 28.2453H38.892V27.481H27.8553Z" fill="#59FF69"/>
<path d="M0 28.7966V29.5814H12.7859L12.0104 28.7966H0ZM26.5549 28.7966L25.7794 29.5814H38.8912V28.7966H26.5549Z" fill="#59FF69"/>
<path d="M0 30.1122V30.9175H14.1066L13.3109 30.1122H0ZM25.2552 30.1122L24.4596 30.9175H38.8912V30.1122H25.2544H25.2552Z" fill="#59FF69"/>
<path d="M0 31.4279V32.2529H15.4264L14.6113 31.4279H0ZM23.9548 31.4279L23.1397 32.2529H38.8912V31.4279H23.9548Z" fill="#59FF69"/>
<path d="M0 32.7442V33.5897H16.7463L15.911 32.7442H0ZM22.6551 32.7442L21.8198 33.5897H38.892V32.7442H22.6551Z" fill="#59FF69"/>
<path d="M0 34.0598V34.9258H18.067L17.2114 34.0598H0ZM21.3547 34.0598L20.4991 34.9258H38.8912V34.0598H21.3547Z" fill="#59FF69"/>
<path d="M18.7526 36.691L17.8574 37.5973H19.2831V36.691H18.7526Z" fill="#59FF69"/>
<path d="M17.4526 38.0074L16.5371 38.9342H19.2834V38.0074H17.4526Z" fill="#59FF69"/>
<path d="M16.1525 39.323L15.2168 40.2695H19.283V39.323H16.1525ZM35.7602 39.323L34.8246 40.2695H39.0448V39.323H35.7595H35.7602Z" fill="#59FF69"/>
<path d="M14.8524 40.6387L13.8965 41.6057H19.2826V40.6387H14.8516H14.8524ZM34.4609 40.6387L33.5058 41.6057H39.0467V40.6387H34.4617H34.4609Z" fill="#59FF69"/>
<path d="M13.5525 41.9542L12.5771 42.9417H19.2831V41.9542H13.5525ZM33.1603 41.9542L32.1849 42.9417H39.0457V41.9542H33.1603Z" fill="#59FF69"/>
<path d="M12.2524 43.2698L11.2568 44.277H19.2835V43.2698H12.2524ZM31.861 43.2698L30.8654 44.277H39.0461V43.2698H31.861Z" fill="#59FF69"/>
<path d="M10.9523 44.5863L9.93652 45.614H19.2831V44.5863H10.9523ZM30.5601 44.5863L29.5443 45.614H39.0449V44.5863H30.5593H30.5601Z" fill="#59FF69"/>
<path d="M9.65221 45.9019L8.61621 46.9501H19.2827V45.9019H9.65143H9.65221ZM29.2608 45.9019L28.2255 46.9501H39.0468V45.9019H29.2615H29.2608Z" fill="#59FF69"/>
<path d="M8.35134 47.2175L7.2959 48.2863H19.2822V47.2175H8.35134ZM27.9599 47.2175L26.9045 48.2863H39.0456V47.2175H27.9599Z" fill="#59FF69"/>
<path d="M7.05223 48.5331L5.97656 49.6215H19.2836V48.5331H7.05223ZM26.6608 48.5331L25.5851 49.6215H39.0461V48.5331H26.6608Z" fill="#59FF69"/>
<path d="M5.75214 49.8495L4.65625 50.9584H19.2831V49.8495H5.75214ZM25.3607 49.8495L24.2648 50.9584H39.0457V49.8495H25.3599H25.3607Z" fill="#59FF69"/>
<path d="M4.45205 51.165L3.33594 52.2945H19.2827V51.165H4.45205ZM24.0606 51.165L22.9453 52.2945H39.0468V51.165H24.0614H24.0606Z" fill="#59FF69"/>
<path d="M3.15118 52.4807L2.01562 53.6299H19.2823V52.4807H3.15118ZM22.7597 52.4807L21.6242 53.6299H39.0456V52.4807H22.7597Z" fill="#59FF69"/>
<path d="M1.85207 53.7963L0.696289 54.966H19.2836V53.7963H1.85207ZM21.4606 53.7963L20.3048 54.966H39.0462V53.7963H21.4606Z" fill="#59FF69"/>
<path d="M0.551445 55.1127L0 55.6703V56H19.2834V55.1127H0.551445ZM20.16 55.1127L19.2827 56H39.0452V55.1127H20.1592H20.16Z" fill="#59FF69"/>
<path d="M34.6349 40.6521L34.4404 40.8493H39.0464V40.6521H34.6349Z" fill="#59FF69"/>
<path d="M33.336 41.9677L33.1221 42.1853H39.0456V41.9677H33.336Z" fill="#59FF69"/>
<path d="M32.0386 43.2841L31.8037 43.5215H39.0456V43.2841H32.0386Z" fill="#59FF69"/>
<path d="M30.7407 44.5997L30.4863 44.8576H39.0458V44.5997H30.7407Z" fill="#59FF69"/>
<path d="M29.4427 45.9153L29.1689 46.1937H39.0459V45.9153H29.4427Z" fill="#59FF69"/>
<path d="M28.1456 47.2309L27.8516 47.5298H39.0461V47.2309H28.1456Z" fill="#59FF69"/>
<path d="M26.8474 48.5472L26.5332 48.8651H39.0461V48.5472H26.8474Z" fill="#59FF69"/>
<path d="M25.5503 49.8629L25.2158 50.2013H39.0463V49.8629H25.5503Z" fill="#59FF69"/>
<path d="M24.2523 51.1785L23.8984 51.5373H39.0464V51.1785H24.2523Z" fill="#59FF69"/>
<path d="M22.9542 52.4941L22.5801 52.8735H39.0464V52.4941H22.9542Z" fill="#59FF69"/>
<path d="M21.6561 53.8104L21.2617 54.2095H39.0456V53.8104H21.6561Z" fill="#59FF69"/>
<path d="M19.2832 36.1563L19.2886 56H39.0458V15.9971L19.2832 36.1563Z" fill="#120540"/>
<path d="M0 36.1563H19.5697L0 16.1477V36.1563Z" fill="#120540"/>
<path d="M16.0806 0L0 16.5208H19.4763V0H16.0806Z" fill="#120540"/>
<path d="M0 36.1791H19.5129L0 15.7888V36.1791Z" fill="#120540"/>
<path d="M31.1109 3.94366H3.88867V52.0563H31.1109V3.94366Z" fill="white"/>
</g>
<path d="M17.8149 41.8028C14.8741 41.8028 12.5392 41.1371 10.811 39.805C9.08279 38.4736 8.0429 36.5325 7.69057 33.9841C7.65323 33.742 7.74735 33.6205 7.97368 33.6205H10.6321C10.7955 33.6205 10.8958 33.716 10.9339 33.9076C11.2855 35.6539 12.0181 36.9379 13.1303 37.7598C14.2426 38.5817 15.8043 38.9926 17.8149 38.9926C19.8255 38.9926 21.3118 38.4286 22.3867 37.3007C23.4616 36.1729 23.9982 34.5828 23.9982 32.5305C23.9982 28.4267 21.9496 26.3744 17.8522 26.3744C15.1502 26.3744 13.0635 27.2349 11.5935 28.9552C11.4923 29.0956 11.3671 29.1658 11.2162 29.1658L9.55723 28.8787C9.3939 28.8408 9.31223 28.713 9.31223 28.4961L10.1981 14.5214C10.1981 14.3045 10.3047 14.1964 10.5186 14.1964H25.7319C25.9326 14.1964 26.0337 14.3045 26.0337 14.5214V16.7582C26.0337 16.9625 25.9326 17.0642 25.7319 17.0642H12.8752L12.3285 25.7245H12.4793C13.233 25.062 14.1757 24.5359 15.3073 24.1471C16.4382 23.7582 17.5948 23.5642 18.7762 23.5642C21.4907 23.5642 23.593 24.345 25.0825 25.9059C26.5719 27.4676 27.3162 29.6753 27.3162 32.5305C27.3162 35.3857 26.4739 37.692 24.79 39.3365C23.1061 40.981 20.7806 41.8028 17.8149 41.8028Z" fill="#120540"/>
<path d="M34.4447 38.1036L34.2588 38.2921H35V38.1036H34.4447Z" fill="#59FF69"/>
<path d="M32.8809 39.689L32.6709 39.9019H35.0003V39.689H32.8809Z" fill="#59FF69"/>
<path d="M31.3171 41.2744L31.083 41.5118H34.9999V41.2744H31.3171Z" fill="#59FF69"/>
<path d="M29.7533 42.8597L29.4951 43.1216H35.0002V42.8597H29.7533Z" fill="#59FF69"/>
<path d="M28.1896 44.4451L27.9072 44.7314H34.9998V44.4451H28.1896Z" fill="#59FF69"/>
<path d="M26.626 46.0304L26.3203 46.3412H35.0003V46.0304H26.626Z" fill="#59FF69"/>
<path d="M25.062 47.6157L24.7314 47.9509H34.9997V47.6157H25.062Z" fill="#59FF69"/>
<path d="M23.4982 49.2011L23.1436 49.5608H35V49.2011H23.4982Z" fill="#59FF69"/>
<path d="M21.9344 50.7865L21.5557 51.1706H34.9996V50.7865H21.9344Z" fill="#59FF69"/>
<path d="M20.3709 52.3718L19.9688 52.7804H35.0001V52.3718H20.3709Z" fill="#59FF69"/>
<path d="M18.8079 53.9579L18.3809 54.3901H35.0004V53.9579H18.8079Z" fill="#59FF69"/>
<path d="M17.2433 55.5433L16.793 55.9999H35V55.5433H17.2433Z" fill="#59FF69"/>
</g>
<defs>
<clipPath id="clip0_1354_4188">
<rect width="35" height="56" fill="white"/>
</clipPath>
</defs>
</svg>
