<svg width="36" height="56" viewBox="0 0 36 56" fill="none" xmlns="http://www.w3.org/2000/svg">
<g clip-path="url(#clip0_1354_3096)">
<mask id="mask0_1354_3096" style="mask-type:luminance" maskUnits="userSpaceOnUse" x="0" y="0" width="40" height="56">
<path d="M39.5959 0H0V56H39.5959V0Z" fill="white"/>
</mask>
<g mask="url(#mask0_1354_3096)">
<path d="M39.5959 0H0V56H39.5959V0Z" fill="#120540"/>
<path d="M39.5959 0H0V56H39.5959V0Z" fill="#120540"/>
<path d="M18.2308 0H16.7109V56H18.2308V0Z" fill="#59FF69"/>
<path d="M19.9375 0H18.3916V56H19.9375V0Z" fill="#59FF69"/>
<path d="M19.9013 36.1547H19.9486L0.0646761 56H19.9494L19.9518 55.9976H39.5967V16.5034L19.9021 36.1547H19.9013ZM16.3623 0L0.0189296 16.311H0.0165634V0H0V36.1563H0.0149859L0 36.1713V56H0.0165634V36.1563L19.8989 16.3126H19.9013V0H16.3623ZM36.2486 0L19.9021 16.311H39.5967V0H36.2494H36.2486Z" fill="#120540"/>
<path d="M0 0.188507H0.0165634V0H0V0.187718V0.188507ZM16.3623 0L16.1737 0.187718H19.9013V0H16.3623ZM36.2486 0L36.0601 0.187718H39.5959V0H36.2486Z" fill="#59FF69"/>
<path d="M0 1.52379H0.0165634V1.16492H0V1.52379ZM15.1949 1.16492L14.8353 1.52379H19.9021V1.16492H15.1957H15.1949ZM35.0804 1.16492L34.7208 1.52379H39.5959V1.16492H35.0804Z" fill="#59FF69"/>
<path d="M0 2.85997H0.0165634V2.48059H0V2.85997ZM13.8762 2.48059L13.496 2.85997H19.9013V2.48059H13.8762ZM33.7617 2.48059L33.3815 2.85997H39.5952V2.48059H33.7609H33.7617Z" fill="#59FF69"/>
<path d="M0 4.19603H0.0165634V3.79614H0V4.19603ZM12.5582 3.79693L12.1575 4.19682H19.9013V3.79693H12.5582ZM32.4437 3.79693L32.043 4.19682H39.5959V3.79693H32.4437Z" fill="#59FF69"/>
<path d="M0 5.53215H0.0165634V5.11255H0V5.53215ZM11.2394 5.11255L10.819 5.53215H19.9013V5.11255H11.2394ZM31.125 5.11255L30.7046 5.53215H39.5967V5.11255H31.1257H31.125Z" fill="#59FF69"/>
<path d="M0 6.86834H0.0165634V6.42822H0V6.86834ZM9.92146 6.42822L9.48056 6.86834H19.9021V6.42822H9.92225H9.92146ZM29.8062 6.42822L29.3653 6.86834H39.5959V6.42822H29.8062Z" fill="#59FF69"/>
<path d="M0 8.20439H0.0165634V7.74377H0V8.20439ZM8.6027 7.74377L8.1413 8.20439H19.9013V7.74377H8.6027ZM28.4874 7.74377L28.026 8.20439H39.5959V7.74377H28.4874Z" fill="#59FF69"/>
<path d="M0 9.54052H0.0165634V9.06018H0V9.54052ZM7.28473 9.06018L6.80282 9.54052H19.9013V9.06018H7.28473ZM27.1687 9.06018L26.6868 9.54052H39.5959V9.06018H27.1687Z" fill="#59FF69"/>
<path d="M0 10.8766H0.0165634V10.3757H0V10.8766ZM5.96597 10.3757L5.46434 10.8766H19.9013V10.3757H5.96597ZM25.8499 10.3757L25.3475 10.8766H39.5952V10.3757H25.8491H25.8499Z" fill="#59FF69"/>
<path d="M0 12.2128H0.0165634V11.6914H0V12.2128ZM4.648 11.6914L4.12586 12.2128H19.9021V11.6914H4.648ZM24.5312 11.6914L24.009 12.2128H39.5959V11.6914H24.5312Z" fill="#59FF69"/>
<path d="M0 13.5488H0.0165634V13.0077H0V13.5488ZM3.32924 13.007L2.78659 13.548H19.9013V13.007H3.32924ZM23.2124 13.007L22.6698 13.548H39.5952V13.007H23.2116H23.2124Z" fill="#59FF69"/>
<path d="M0 14.885H0.0165634V14.3234H0V14.885ZM2.01127 14.3226L1.44811 14.8842H19.9013V14.3226H2.01127ZM21.8944 14.3226L21.3313 14.8842H39.5959V14.3226H21.8944Z" fill="#59FF69"/>
<path d="M0 16.2211H0.0165634V15.639H0V16.2211ZM0.692507 15.639L0.109634 16.2211H19.9021V15.639H0.692507ZM20.5757 15.639L19.992 16.2211H39.5959V15.639H20.5757Z" fill="#59FF69"/>
<path d="M0 16.9546V17.5572H18.6535L19.2569 16.9546H0ZM39.1432 16.9546L38.5398 17.5572H39.5959V16.9546H39.1432Z" fill="#59FF69"/>
<path d="M0 18.2701V18.8925H17.315L17.9389 18.2701H0ZM37.8252 18.2701L37.2014 18.8925H39.5959V18.2701H37.8252Z" fill="#59FF69"/>
<path d="M0 19.5858V20.2286H15.9758L16.6202 19.5858H0ZM36.5065 19.5858L35.8621 20.2286H39.5959V19.5858H36.5065Z" fill="#59FF69"/>
<path d="M0 20.9022V21.5655H14.6373L15.3014 20.9022H0ZM35.1877 20.9022L34.5228 21.5655H39.5959V20.9022H35.1877Z" fill="#59FF69"/>
<path d="M0 22.2178V22.9008H13.2988L13.9834 22.2178H0ZM33.869 22.2178L33.1843 22.9008H39.5959V22.2178H33.869Z" fill="#59FF69"/>
<path d="M0 23.5334V24.237H11.9603L12.6655 23.5334H0ZM32.5502 23.5334L31.8451 24.237H39.5959V23.5334H32.5502Z" fill="#59FF69"/>
<path d="M0 24.849V25.5731H10.6211L11.3459 24.849H0ZM31.2314 24.849L30.5058 25.5731H39.5959V24.849H31.2314Z" fill="#59FF69"/>
<path d="M0 26.1654V26.9092H9.28259L10.0279 26.1654H0ZM29.9127 26.1654L29.1673 26.9092H39.5959V26.1654H29.9127Z" fill="#59FF69"/>
<path d="M0 27.481V28.2452H7.94411L8.70997 27.481H0ZM28.5939 27.481L27.8281 28.2452H39.5959V27.481H28.5939Z" fill="#59FF69"/>
<path d="M0 28.7966V29.5814H6.60485L7.39121 28.7966H0ZM27.2759 28.7966L26.4896 29.5814H39.5959V28.7966H27.2759Z" fill="#59FF69"/>
<path d="M0 30.1122V30.9175H5.26637L6.07324 30.1122H0ZM25.9572 30.1122L25.1503 30.9175H39.5959V30.1122H25.9572Z" fill="#59FF69"/>
<path d="M0 31.4279V32.2529H3.92789L4.75448 31.4279H0ZM24.6384 31.4279L23.811 32.2529H39.5959V31.4279H24.6384Z" fill="#59FF69"/>
<path d="M0 32.7443V33.5898H2.58941L3.43651 32.7443H0ZM23.3197 32.7443L22.4726 33.5898H39.5959V32.7443H23.3197Z" fill="#59FF69"/>
<path d="M0 34.0598V34.9258H1.25014L2.11775 34.0598H0ZM22.0009 34.0598L21.1333 34.9258H39.5959V34.0598H22.0009Z" fill="#59FF69"/>
<path d="M0 35.3755V36.1563H0.0149859L0 36.1713V36.2612H0.0165634V36.1563L0.798986 35.3755H0ZM20.6821 35.3755L19.9013 36.1548H19.9486L19.8414 36.262H39.5952V35.3763H20.6814L20.6821 35.3755Z" fill="#59FF69"/>
<path d="M0 37.5973H0.0165634V36.691H0V37.5973ZM19.4115 36.691L18.5037 37.5973H39.5959V36.691H19.4115Z" fill="#59FF69"/>
<path d="M0 38.9334H0.0165634V38.0066H0V38.9334ZM18.0927 38.0074L17.1644 38.9341H39.5959V38.0074H18.0927Z" fill="#59FF69"/>
<path d="M0 40.2695H0.0165634V39.323H0V40.2695ZM16.7748 39.323L15.8259 40.2695H39.5959V39.323H16.7748Z" fill="#59FF69"/>
<path d="M0 41.6057H0.0165634V40.6387H0V41.6057ZM15.456 40.6387L14.4874 41.6057H39.5959V40.6387H15.456Z" fill="#59FF69"/>
<path d="M0 42.9417H0.0165634V41.9542H0V42.9417ZM14.138 41.9542L13.149 42.9417H39.5959V41.9542H14.138Z" fill="#59FF69"/>
<path d="M0 44.2779H0.0165634V43.2707H0V44.2779ZM12.8193 43.2699L11.8097 44.2771H39.5959V43.2699H12.8193Z" fill="#59FF69"/>
<path d="M0 45.614H0.0165634V44.5863H0V45.614ZM11.5013 44.5863L10.4712 45.614H39.5959V44.5863H11.5013Z" fill="#59FF69"/>
<path d="M0 46.9501H0.0165634V45.9019H0V46.9501ZM10.1825 45.9019L9.13273 46.9501H39.5959V45.9019H10.1825Z" fill="#59FF69"/>
<path d="M0 48.2863H0.0165634V47.2175H0V48.2863ZM8.86456 47.2175L7.79425 48.2863H39.5967V47.2175H8.86456Z" fill="#59FF69"/>
<path d="M0 49.6223H0.0165634V48.5339H0V49.6223ZM7.5458 48.5331L6.45499 49.6215H39.5959V48.5331H7.5458Z" fill="#59FF69"/>
<path d="M0 50.9584H0.0165634V49.8495H0V50.9584ZM6.22783 49.8495L5.11651 50.9584H39.5959V49.8495H6.22783Z" fill="#59FF69"/>
<path d="M0 52.2945H0.0165634V51.165H0V52.2945ZM4.90907 51.165L3.77803 52.2945H39.5959V51.165H4.90907Z" fill="#59FF69"/>
<path d="M0 53.6299H0.0165634V52.4807H0V53.6299ZM3.5911 52.4807L2.43955 53.6299H39.5967V52.4807H3.5911Z" fill="#59FF69"/>
<path d="M0 54.966H0.0165634V53.7963H0V54.966ZM2.27234 53.7963L1.10028 54.966H39.5959V53.7963H2.27234Z" fill="#59FF69"/>
<path d="M0 56.0001H0.0165634V55.1127H0V56.0001ZM0.953577 55.1127L0.0638873 56.0001H19.9486L19.951 55.9977H39.5959V55.1119H0.953577V55.1127Z" fill="#59FF69"/>
<path d="M0 16.595V36.3906H0.0481127V16.5469L0 16.595Z" fill="#120540"/>
<path d="M0 0V16.5003L0.0481127 16.5492V0H0Z" fill="#120540"/>
<path d="M20.0352 56H39.5957V36.3488L20.0352 56Z" fill="#120540"/>
<path d="M20.0371 16.2171L39.5953 35.7792V16.2171H20.0371Z" fill="#120540"/>
<path d="M19.9541 0L20.0346 16.2171H39.5951V0H19.9541Z" fill="#120540"/>
<path d="M14.1636 0L-0.0390625 16.2187L-0.0106681 16.867L19.2281 16.8268L20.0823 16.2187V0H14.1636Z" fill="#120540"/>
<path d="M35.1991 40.652L35.002 40.8492H39.564V40.652H35.1991Z" fill="#59FF69"/>
<path d="M33.8837 41.9677L33.666 42.1853H39.5642V41.9677H33.8837Z" fill="#59FF69"/>
<path d="M32.5675 43.2841L32.3301 43.5215H39.5643V43.2841H32.5675Z" fill="#59FF69"/>
<path d="M31.2511 44.5996L30.9932 44.8575H39.5635V44.5996H31.2511Z" fill="#59FF69"/>
<path d="M29.9361 45.9153L29.75 46.1014L29.8415 46.1937H39.5642V45.9153H29.9361Z" fill="#59FF69"/>
<path d="M30.8789 47.2308L31.177 47.529H39.5636V47.2308H30.8789Z" fill="#59FF69"/>
<path d="M32.1953 48.5465L32.514 48.8652H39.5644V48.5465H32.1953Z" fill="#59FF69"/>
<path d="M33.5117 49.8629L33.8501 50.2013H39.5645V49.8629H33.5117Z" fill="#59FF69"/>
<path d="M34.8271 51.1785L35.186 51.5373H39.5643V51.1785H34.8271Z" fill="#59FF69"/>
</g>
<path d="M31.549 3.9436H3.94336V52.0563H31.549V3.9436Z" fill="white"/>
<path d="M21.6259 41.8028C21.42 41.8028 21.3175 41.7002 21.3175 41.4952V35.7004H6.64865C6.46882 35.7004 6.37891 35.5915 6.37891 35.373V34.0448C6.37891 33.8524 6.41755 33.7175 6.49406 33.6402L20.2393 14.4085C20.3418 14.2673 20.4767 14.1971 20.6431 14.1971H24.3778C24.5955 14.1971 24.7051 14.306 24.7051 14.5245V32.8128H28.8057C29.0108 32.8128 29.1141 32.9153 29.1141 33.1204V35.373C29.1141 35.5915 29.0108 35.7004 28.8057 35.7004H24.7051V41.4952C24.7051 41.7002 24.5963 41.8028 24.3778 41.8028H21.6251H21.6259ZM10.7106 32.8128H21.4334V17.6431H21.3175L10.7106 32.6969V32.812V32.8128Z" fill="#120540"/>
<path d="M19.7791 1.20282H35.493V0H18.5645L19.7791 1.20282Z" fill="#59FF69"/>
<path d="M21.5376 2.96251H35.4926V1.63586H20.2109L21.5376 2.96251Z" fill="#59FF69"/>
<path d="M23.2978 4.72132H35.4932V3.36786H21.9443L23.2978 4.72132Z" fill="#59FF69"/>
<path d="M25.0561 6.48099H35.4926V5.10071H23.6758L25.0561 6.48099Z" fill="#59FF69"/>
<path d="M26.8163 8.23987H35.4931V6.83356H25.4092L26.8163 8.23987Z" fill="#59FF69"/>
<path d="M28.5747 9.99959H35.4927V8.56567H27.1416L28.5747 9.99959Z" fill="#59FF69"/>
<path d="M30.3348 11.7584H35.4931V10.2985H28.874L30.3348 11.7584Z" fill="#59FF69"/>
<path d="M32.0932 13.5181H35.4926V12.0314H30.6064L32.0932 13.5181Z" fill="#59FF69"/>
<path d="M33.8534 15.2769H35.4932V13.7634H32.3398L33.8534 15.2769Z" fill="#59FF69"/>
<path d="M35.4928 16.9175V17.0366V15.4962H34.0723L35.4928 16.9175Z" fill="#59FF69"/>
</g>
<defs>
<clipPath id="clip0_1354_3096">
<rect width="35.493" height="56" fill="white"/>
</clipPath>
</defs>
</svg>
