<svg width="36" height="56" viewBox="0 0 36 56" fill="none" xmlns="http://www.w3.org/2000/svg">
<mask id="mask0_1354_4764" style="mask-type:luminance" maskUnits="userSpaceOnUse" x="0" y="0" width="36" height="56">
<path d="M35.4768 0H0V56H35.4768V0Z" fill="white"/>
</mask>
<g mask="url(#mask0_1354_4764)">
<path d="M35.4768 0H0V56H35.4768V0Z" fill="#120540"/>
<path d="M35.4768 0H0V56H35.4768V0Z" fill="#120540"/>
<path d="M34.7162 0H34.1201V56H34.7162V0Z" fill="#59FF69"/>
<path d="M33.2096 0H32.5898V56H33.2096V0Z" fill="#59FF69"/>
<path d="M31.7041 0H31.0615V56H31.7041V0Z" fill="#59FF69"/>
<path d="M30.1994 0H29.5332V56H30.1994V0Z" fill="#59FF69"/>
<path d="M28.693 0H28.0039V56H28.693V0Z" fill="#59FF69"/>
<path d="M27.1874 0H26.4746V56H27.1874V0Z" fill="#59FF69"/>
<path d="M25.6819 0H24.9463V56H25.6819V0Z" fill="#59FF69"/>
<path d="M24.1765 0H23.418V56H24.1765V0Z" fill="#59FF69"/>
<path d="M22.6698 0H21.8877V56H22.6698V0Z" fill="#59FF69"/>
<path d="M21.1644 0H20.3594V56H21.1644V0Z" fill="#59FF69"/>
<path d="M19.6597 0H18.8311V56H19.6597V0Z" fill="#59FF69"/>
<path d="M18.1533 0H17.3018V56H18.1533V0Z" fill="#59FF69"/>
<path d="M16.6468 0H15.7725V56H16.6468V0Z" fill="#59FF69"/>
<path d="M15.1422 0H14.2441V56H15.1422V0Z" fill="#59FF69"/>
<path d="M13.6367 0H12.7158V56H13.6367V0Z" fill="#59FF69"/>
<path d="M12.1301 0H11.1855V56H12.1301V0Z" fill="#59FF69"/>
<path d="M10.6246 0H9.65723V56H10.6246V0Z" fill="#59FF69"/>
<path d="M9.11822 0H8.12793V56H9.11822V0Z" fill="#59FF69"/>
<path d="M7.61355 0H6.59961V56H7.61355V0Z" fill="#59FF69"/>
<path d="M6.10712 0H5.07031V56H6.10712V0Z" fill="#59FF69"/>
<path d="M4.60245 0H3.54199V56H4.60245V0Z" fill="#59FF69"/>
<path d="M3.09602 0H2.0127V56H3.09602V0Z" fill="#59FF69"/>
<path d="M1.59037 0H0.483398V56H1.59037V0Z" fill="#59FF69"/>
<path d="M0.0843635 0H0V56H0.0843635V0Z" fill="#59FF69"/>
<path d="M35.4768 0H17.8015L35.4768 19.689V0ZM17.8015 0H0V19.8286L17.8015 0ZM3.15614 56L17.7991 39.6887H17.8007V56H20.9718L35.4768 39.8432V39.6871H17.8031L35.4768 19.9997V19.8435H0V56H3.15614Z" fill="#120540"/>
<path d="M20.9718 56L21.1405 55.8115H17.8007V56H20.9718ZM3.15614 56L3.32487 55.8115H0V56H3.15614Z" fill="#59FF69"/>
<path d="M22.0181 54.8347L22.3406 54.476H17.8015V54.8347H22.0189H22.0181ZM4.2024 54.8347L4.52488 54.476H0V54.8347H4.20162H4.2024Z" fill="#59FF69"/>
<path d="M23.1992 53.5188L23.5398 53.1395H17.8007V53.5188H23.1992ZM5.38349 53.5188L5.7241 53.1395H0V53.5188H5.3827H5.38349Z" fill="#59FF69"/>
<path d="M24.3803 52.2028L24.739 51.8031H17.8007V52.2028H24.3803ZM6.56458 52.2028L6.92332 51.8031H0V52.2028H6.56458Z" fill="#59FF69"/>
<path d="M25.5621 50.8878L25.939 50.4675H17.8015V50.8878H25.5621ZM7.74567 50.8878L8.12255 50.4675H0V50.8878H7.74567Z" fill="#59FF69"/>
<path d="M26.7432 49.5718L27.1382 49.1318H17.8015V49.5718H26.7432ZM8.92676 49.5718L9.32177 49.1318H0V49.5718H8.92676Z" fill="#59FF69"/>
<path d="M27.9243 48.2559L28.3375 47.7954H17.8007V48.2559H27.9235H27.9243ZM10.1086 48.2559L10.5218 47.7954H0V48.2559H10.1078H10.1086Z" fill="#59FF69"/>
<path d="M29.1054 46.9399L29.5367 46.459H17.8007V46.9399H29.1054ZM11.2897 46.9399L11.721 46.459H0V46.9399H11.2889H11.2897Z" fill="#59FF69"/>
<path d="M30.2865 45.6241L30.7359 45.1234H17.8007V45.6241H30.2865ZM12.4708 45.6241L12.9202 45.1234H0V45.6241H12.47H12.4708Z" fill="#59FF69"/>
<path d="M31.4676 44.3081L31.9351 43.787H17.8007V44.3081H31.4676ZM13.6519 44.3081L14.1194 43.787H0V44.3081H13.6519Z" fill="#59FF69"/>
<path d="M32.6495 42.9931L33.1351 42.4514H17.8007V42.9931H32.6487H32.6495ZM14.833 42.9931L15.3187 42.4514H0V42.9931H14.833Z" fill="#59FF69"/>
<path d="M33.8305 41.6771L34.3351 41.1157H17.8015V41.6771H33.8305ZM16.0141 41.6771L16.5187 41.1157H0V41.6771H16.0141Z" fill="#59FF69"/>
<path d="M35.0116 40.3612L35.4768 39.8432V39.7793H17.8007V40.3612H35.0108H35.0116ZM17.196 40.3612L17.7187 39.7793H0V40.3612H17.1952H17.196Z" fill="#59FF69"/>
<path d="M18.3786 39.0452L18.9195 38.4429H0V39.0452H18.3786Z" fill="#59FF69"/>
<path d="M19.5597 37.7294L20.1187 37.1073H0V37.7294H19.5597Z" fill="#59FF69"/>
<path d="M20.7416 36.4135L21.3179 35.7709H0V36.4135H20.7416Z" fill="#59FF69"/>
<path d="M21.9227 35.0984L22.518 34.4353H0V35.0984H21.9227Z" fill="#59FF69"/>
<path d="M23.1038 33.7825L23.7172 33.0989H0V33.7825H23.1038Z" fill="#59FF69"/>
<path d="M24.2848 32.4665L24.9164 31.7625H0V32.4665H24.2848Z" fill="#59FF69"/>
<path d="M25.4659 31.1507L26.1156 30.4269H0V31.1507H25.4659Z" fill="#59FF69"/>
<path d="M26.647 29.8347L27.3156 29.0905H0V29.8347H26.647Z" fill="#59FF69"/>
<path d="M27.8289 28.5188L28.5149 27.7548H0V28.5188H27.8289Z" fill="#59FF69"/>
<path d="M29.01 27.2028L29.7141 26.4183H0V27.2028H29.01Z" fill="#59FF69"/>
<path d="M30.1911 25.8878L30.9133 25.0828H0V25.8878H30.1911Z" fill="#59FF69"/>
<path d="M31.3722 24.5718L32.1133 23.7463H0V24.5718H31.3722Z" fill="#59FF69"/>
<path d="M32.5533 23.256L33.3125 22.4108H0V23.256H32.5533Z" fill="#59FF69"/>
<path d="M33.7343 21.9401L34.5118 21.0743H0V21.9401H33.7343Z" fill="#59FF69"/>
<path d="M0.0812097 19.7379H0V19.8278L0.0812097 19.7379ZM34.9162 20.6241L35.4776 19.9989V19.8428H0V20.6241H34.9154H34.9162Z" fill="#59FF69"/>
<path d="M35.4768 19.3081V18.4022H34.3217L35.1354 19.3081H35.4768ZM0.466759 19.3081L1.28043 18.4022H0V19.3081H0.466759Z" fill="#59FF69"/>
<path d="M35.4768 17.9922V17.0658H33.1225L33.9543 17.9922H35.4768ZM1.64864 17.9922L2.48044 17.0658H0V17.9922H1.64785H1.64864Z" fill="#59FF69"/>
<path d="M35.4768 16.6771V15.7302H31.9225L32.7724 16.6771H35.4768ZM2.82972 16.6771L3.67967 15.7302H0V16.6771H2.82894H2.82972Z" fill="#59FF69"/>
<path d="M35.4768 15.3612V14.3938H30.7233L31.5914 15.3612H35.4768ZM4.01081 15.3612L4.87889 14.3938H0V15.3612H4.01081Z" fill="#59FF69"/>
<path d="M35.4768 14.0454V13.0582H29.5241L30.4103 14.0454H35.4768ZM5.1919 14.0454L6.07811 13.0582H0V14.0454H5.1919Z" fill="#59FF69"/>
<path d="M35.4768 12.7294V11.7218H28.3248L29.2292 12.7294H35.4768ZM6.37299 12.7294L7.27733 11.7218H0V12.7294H6.37299Z" fill="#59FF69"/>
<path d="M35.4768 11.4135V10.3854H27.1248L28.0473 11.4135H35.476H35.4768ZM7.55408 11.4135L8.47656 10.3854H0V11.4135H7.55408Z" fill="#59FF69"/>
<path d="M35.4768 10.0976V9.0498H25.9256L26.8662 10.0976H35.4768ZM8.73596 10.0976L9.67657 9.0498H0V10.0976H8.73517H8.73596Z" fill="#59FF69"/>
<path d="M35.4768 8.78245V7.71411H24.7264L25.6859 8.78245H35.4776H35.4768ZM9.91704 8.78245L10.8766 7.71411H0V8.78245H9.91626H9.91704Z" fill="#59FF69"/>
<path d="M35.4768 7.46653V6.37769H23.5272L24.5048 7.46653H35.4776H35.4768ZM11.0981 7.46653L12.0758 6.37769H0V7.46653H11.0981Z" fill="#59FF69"/>
<path d="M35.4768 6.15067V5.04211H22.3271L23.323 6.15067H35.4768ZM12.2792 6.15067L13.275 5.04211H0V6.15067H12.2792Z" fill="#59FF69"/>
<path d="M35.4768 4.83474V3.70569H21.1279L22.1419 4.83474H35.4768ZM13.4603 4.83474L14.4742 3.70569H0V4.83474H13.4603Z" fill="#59FF69"/>
<path d="M35.4768 3.51881V2.36926H19.9287L20.9608 3.51881H35.4768ZM14.6414 3.51881L15.6735 2.36926H0V3.51881H14.6414Z" fill="#59FF69"/>
<path d="M35.4768 2.20289V1.03284H18.7295L19.7797 2.20289H35.4776H35.4768ZM15.8233 2.20289L16.8735 1.03284H0V2.20289H15.8225H15.8233Z" fill="#59FF69"/>
<path d="M35.4768 0.887788V0H17.8007L18.5978 0.887788H35.4768ZM17.0044 0.887788L17.8007 0H0V0.887788H17.0036H17.0044Z" fill="#59FF69"/>
<path d="M0.445011 19.2948L0.56722 19.1592H0.0712891V19.2948H0.445011Z" fill="#59FF69"/>
<path d="M1.62452 17.9789L1.76408 17.8228H0.0712891V17.9789H1.62452Z" fill="#59FF69"/>
<path d="M2.80325 16.6637L2.96172 16.4863H0.0712891V16.6637H2.80325Z" fill="#59FF69"/>
<path d="M3.98197 15.3479L4.15858 15.1508H0.0712891V15.3479H3.98197Z" fill="#59FF69"/>
<path d="M5.16069 14.0319L5.35544 13.8143H0.0712891V14.0319H5.16069Z" fill="#59FF69"/>
<path d="M6.3402 12.716L6.5523 12.4786H0.0712891V12.716H6.3402Z" fill="#59FF69"/>
<path d="M7.51893 11.4002L7.74994 11.1423H0.0712891V11.4002H7.51893Z" fill="#59FF69"/>
<path d="M8.69765 10.0842L8.86401 9.8981L8.78201 9.80664H0.0712891V10.0842H8.69765Z" fill="#59FF69"/>
<path d="M7.85244 8.76904L7.58516 8.47021H0.0712891V8.76904H7.85244Z" fill="#59FF69"/>
<path d="M6.67372 7.45317L6.3883 7.13464H0.0712891V7.45317H6.67372Z" fill="#59FF69"/>
<path d="M5.4942 6.13725L5.19065 5.79822H0.0712891V6.13725H5.4942Z" fill="#59FF69"/>
<path d="M4.31548 4.82139L3.9938 4.46265H0.0712891V4.82139H4.31548Z" fill="#59FF69"/>
<path d="M3.13676 3.50546L2.79694 3.12622H0.0712891V3.50546H3.13676Z" fill="#59FF69"/>
<path d="M1.95803 2.18948L1.60008 1.79053H0.0712891V2.18948H1.95803Z" fill="#59FF69"/>
<path d="M0.778523 0.873554L0.402435 0.454102H0.0712891V0.873554H0.778523Z" fill="#59FF69"/>
<path d="M21.5256 56L35.4771 56.0127V40.0073V39.9103H17.6953V56H21.5256Z" fill="#120540"/>
<path d="M17.695 19.6094H0V39.4048L17.695 19.6094Z" fill="#120540"/>
<path d="M14.6217 56.0001L0 39.4995V56.0001H14.6217Z" fill="#120540"/>
<path d="M35.3497 0H17.791V19.6094L35.3497 0Z" fill="#120540"/>
<path d="M17.8553 0H0.295898L17.8553 19.6094V0Z" fill="#120540"/>
<path d="M35.4763 39.9102L17.6953 19.6078V39.9102H35.4763Z" fill="#120540"/>
<path d="M35.4768 39.758V19.8435H35.3916V39.8526L35.4768 39.758Z" fill="#120540"/>
<path d="M31.5379 3.92957H3.94238V52.0246H31.5379V3.92957Z" fill="white"/>
<path d="M0.445011 19.2948L0.56722 19.1592H0.0712891V19.2948H0.445011Z" fill="#59FF69"/>
<path d="M1.62452 17.9789L1.76408 17.8228H0.0712891V17.9789H1.62452Z" fill="#59FF69"/>
<path d="M2.80325 16.6637L2.96172 16.4863H0.0712891V16.6637H2.80325Z" fill="#59FF69"/>
<path d="M3.98197 15.3479L4.15858 15.1508H0.0712891V15.3479H3.98197Z" fill="#59FF69"/>
<path d="M5.16069 14.0319L5.35544 13.8143H0.0712891V14.0319H5.16069Z" fill="#59FF69"/>
<path d="M6.3402 12.716L6.5523 12.4786H0.0712891V12.716H6.3402Z" fill="#59FF69"/>
<path d="M7.51893 11.4002L7.74994 11.1423H0.0712891V11.4002H7.51893Z" fill="#59FF69"/>
<path d="M8.69765 10.0842L8.86401 9.8981L8.78201 9.80664H0.0712891V10.0842H8.69765Z" fill="#59FF69"/>
<path d="M7.85244 8.76904L7.58516 8.47021H0.0712891V8.76904H7.85244Z" fill="#59FF69"/>
<path d="M6.67372 7.45317L6.3883 7.13464H0.0712891V7.45317H6.67372Z" fill="#59FF69"/>
<path d="M5.4942 6.13725L5.19065 5.79822H0.0712891V6.13725H5.4942Z" fill="#59FF69"/>
<path d="M4.31548 4.82139L3.9938 4.46265H0.0712891V4.82139H4.31548Z" fill="#59FF69"/>
<path d="M3.13676 3.50546L2.79694 3.12622H0.0712891V3.50546H3.13676Z" fill="#59FF69"/>
<path d="M1.95803 2.18948L1.60008 1.79053H0.0712891V2.18948H1.95803Z" fill="#59FF69"/>
<path d="M0.778523 0.873554L0.402435 0.454102H0.0712891V0.873554H0.778523Z" fill="#59FF69"/>
</g>
<path d="M18.1321 41.8206C15.1123 41.8206 12.7241 41.1102 10.9659 39.6895C9.20768 38.2687 8.15038 36.1896 7.79322 33.4497C7.75537 33.2203 7.85077 33.1059 8.08021 33.1059H10.7365C10.9281 33.1059 11.0424 33.195 11.0802 33.3732C11.4114 35.3096 12.1502 36.7336 13.2973 37.6442C14.4437 38.5557 16.0553 39.0106 18.1321 39.0106C20.0559 39.0106 21.5689 38.5107 22.6711 37.5102C23.7726 36.5104 24.3237 35.1307 24.3237 33.3732C24.3237 31.4747 23.7537 30.0799 22.6136 29.1882C21.4735 28.2964 19.6798 27.8502 17.234 27.8502H14.6921C14.4753 27.8502 14.3673 27.7485 14.3673 27.5443V26.2063C14.3673 26.0659 14.4248 25.939 14.5391 25.8239L22.4701 17.2433V17.0903H8.82529C8.6337 17.0903 8.53829 16.9886 8.53829 16.7844V14.5484C8.53829 14.3315 8.6337 14.2235 8.82529 14.2235H26.6938C26.9106 14.2235 27.0186 14.3315 27.0186 14.5484V16.1536C27.0186 16.3066 26.9674 16.4343 26.8657 16.536L19.0687 25.0402V25.1931C24.8141 25.626 27.688 28.3532 27.688 33.3724C27.688 35.9846 26.831 38.0448 25.1177 39.5546C23.4044 41.0645 21.0761 41.819 18.1329 41.819L18.1321 41.8206Z" fill="#120540"/>
</svg>
