<svg width="36" height="56" viewBox="0 0 36 56" fill="none" xmlns="http://www.w3.org/2000/svg">
<g clip-path="url(#clip0_1354_4506)">
<mask id="mask0_1354_4506" style="mask-type:luminance" maskUnits="userSpaceOnUse" x="0" y="0" width="89" height="56">
<path d="M88.496 0H0.0996094V56H88.496V0Z" fill="white"/>
</mask>
<g mask="url(#mask0_1354_4506)">
<path d="M88.496 0H0.0996094V56H88.496V0Z" fill="#120540"/>
<path d="M88.496 0H0.0996094V56H88.496V0Z" fill="#120540"/>
<path d="M88.496 53.8578H0.0996094V54.7995H88.496V53.8578Z" fill="#59FF69"/>
<path d="M88.496 51.4443H0.0996094V52.4224H88.496V51.4443Z" fill="#59FF69"/>
<path d="M88.496 49.0308H0.0996094V50.0451H88.496V49.0308Z" fill="#59FF69"/>
<path d="M88.496 46.6172H0.0996094V47.6686H88.496V46.6172Z" fill="#59FF69"/>
<path d="M88.496 44.2037H0.0996094V45.2914H88.496V44.2037Z" fill="#59FF69"/>
<path d="M88.496 41.791H0.0996094V42.9157H88.496V41.791Z" fill="#59FF69"/>
<path d="M88.496 39.3774H0.0996094V40.5385H88.496V39.3774Z" fill="#59FF69"/>
<path d="M88.496 36.964H0.0996094V38.1613H88.496V36.964Z" fill="#59FF69"/>
<path d="M88.496 34.5504H0.0996094V35.7848H88.496V34.5504Z" fill="#59FF69"/>
<path d="M88.496 32.137H0.0996094V33.4076H88.496V32.137Z" fill="#59FF69"/>
<path d="M88.496 29.7234H0.0996094V31.0311H88.496V29.7234Z" fill="#59FF69"/>
<path d="M88.496 27.3107H0.0996094V28.6547H88.496V27.3107Z" fill="#59FF69"/>
<path d="M88.496 24.8971H0.0996094V26.2782H88.496V24.8971Z" fill="#59FF69"/>
<path d="M88.496 22.4836H0.0996094V23.901H88.496V22.4836Z" fill="#59FF69"/>
<path d="M88.496 20.0701H0.0996094V21.5237H88.496V20.0701Z" fill="#59FF69"/>
<path d="M88.496 17.6566H0.0996094V19.1473H88.496V17.6566Z" fill="#59FF69"/>
<path d="M88.496 15.243H0.0996094V16.77H88.496V15.243Z" fill="#59FF69"/>
<path d="M88.496 12.8303H0.0996094V14.3944H88.496V12.8303Z" fill="#59FF69"/>
<path d="M88.496 10.4167H0.0996094V12.0171H88.496V10.4167Z" fill="#59FF69"/>
<path d="M88.496 8.0033H0.0996094V9.63992H88.496V8.0033Z" fill="#59FF69"/>
<path d="M88.496 5.58972H0.0996094V7.26341H88.496V5.58972Z" fill="#59FF69"/>
<path d="M88.496 3.17627H0.0996094V4.88624H88.496V3.17627Z" fill="#59FF69"/>
<path d="M88.496 0.762695H0.0996094V2.50974H88.496V0.762695Z" fill="#59FF69"/>
<path d="M88.496 0H0.0996094V0.133296H88.496V0Z" fill="#59FF69"/>
<path d="M88.496 56V28.0986L57.416 56H88.496ZM88.496 28.0986V0H57.1959L88.496 28.0986ZM0.0996094 4.98163L25.847 28.0954V28.0986H0.0996094V33.1039L25.6033 56H25.8501V28.1017L56.927 56H58.4272L63.4869 51.4537L57.1731 28.0986V0H0.0996094V4.98163Z" fill="#120540"/>
<path d="M0.0996094 33.1039L0.396173 33.3705V28.0986H0.0996094V33.1039ZM0.0996094 4.98163L0.396173 5.24823V0H0.0996094V4.98163Z" fill="#59FF69"/>
<path d="M1.93848 34.7555L2.50558 35.2642V28.0986H1.93848V34.7555ZM1.93848 6.63245L2.50558 7.14118V0H1.93848V6.63245Z" fill="#59FF69"/>
<path d="M4.01562 36.6201L4.61427 37.158V28.0994H4.01562V36.6208V36.6201ZM4.01562 8.49701L4.61427 9.03493V0H4.01562V8.49701Z" fill="#59FF69"/>
<path d="M6.09277 38.4846L6.72376 39.0509V28.0986H6.09277V38.4846ZM6.09277 10.3616L6.72376 10.9279V0H6.09277V10.3616Z" fill="#59FF69"/>
<path d="M8.16895 40.3492L8.83148 40.9439V28.0986H8.16895V40.3492ZM8.16895 12.2261L8.83148 12.8208V0H8.16895V12.2261Z" fill="#59FF69"/>
<path d="M10.2471 42.2137L10.9419 42.8376V28.0986H10.2471V42.2137ZM10.2471 14.0907L10.9419 14.7146V0H10.2471V14.0907Z" fill="#59FF69"/>
<path d="M12.3232 44.0783L13.0497 44.7306V28.0986H12.3232V44.0783ZM12.3232 15.9553L13.0497 16.6075V0H12.3232V15.9553Z" fill="#59FF69"/>
<path d="M14.4004 45.9429L15.1592 46.6243V28.0994H14.4004V45.9437V45.9429ZM14.4004 17.8198L15.1592 18.5013V0H14.4004V17.8198Z" fill="#59FF69"/>
<path d="M16.4766 47.8074L17.2677 48.5173V28.0986H16.4766V47.8074ZM16.4766 19.6844L17.2677 20.3943V0H16.4766V19.6844Z" fill="#59FF69"/>
<path d="M18.5547 49.672L19.3773 50.4103V28.0986H18.5547V49.672ZM18.5547 21.549L19.3773 22.2872V0H18.5547V21.549Z" fill="#59FF69"/>
<path d="M20.6309 51.5366L21.4858 52.304V28.0986H20.6309V51.5366ZM20.6309 23.4135L21.4858 24.181V0H20.6309V23.4135Z" fill="#59FF69"/>
<path d="M22.709 53.4011L23.5955 54.197V28.0986H22.709V53.4011ZM22.709 25.2781L23.5955 26.0739V0H22.709V25.2781Z" fill="#59FF69"/>
<path d="M24.7852 55.2657L25.6031 56H25.704V28.0986H24.7852V55.2657ZM24.7852 27.1426L25.704 27.9677V0H24.7852V27.1426Z" fill="#59FF69"/>
<path d="M26.8623 29.0104L27.8127 29.8638V0H26.8623V29.0104Z" fill="#59FF69"/>
<path d="M28.9385 30.8749L29.9212 31.7575V0H28.9385V30.8749Z" fill="#59FF69"/>
<path d="M31.0166 32.7395L32.0309 33.6505V0H31.0166V32.7395Z" fill="#59FF69"/>
<path d="M33.0928 34.6041L34.1394 35.5442V0H33.0928V34.6041Z" fill="#59FF69"/>
<path d="M35.1699 36.4686L36.2489 37.4372V0H35.1699V36.4686Z" fill="#59FF69"/>
<path d="M0.0996094 33.977L25.3438 56H25.4968V27.9314H0.0996094V33.977Z" fill="#120540"/>
<path d="M57.5413 27.9314V0H26.2949L57.5413 27.9314Z" fill="#120540"/>
<path d="M0.0996094 23.0791L26.1451 0H0.0996094V23.0791Z" fill="#120540"/>
<path d="M25.4971 55.9992L57.5448 27.9314H25.4971V55.9992Z" fill="#120540"/>
<path d="M25.737 56.0001H57.1719V55.866H25.5879L25.737 56.0001Z" fill="#120540"/>
</g>
<path d="M31.549 3.9436H3.94336V52.0563H31.549V3.9436Z" fill="white"/>
<path d="M25.03 39.3459C23.2838 40.9833 20.8561 41.8028 17.7461 41.8028C14.6361 41.8028 12.2084 40.9841 10.4622 39.3459C8.7159 37.7085 7.84277 35.4362 7.84277 32.5305C7.84277 30.9885 8.13224 29.4844 8.71275 28.0189C9.29246 26.5535 10.2453 24.8964 11.5711 23.0484L17.784 14.407C17.9244 14.2666 18.0576 14.1964 18.1854 14.1964H21.1873C21.3143 14.1964 21.4003 14.2382 21.4453 14.321C21.4894 14.4038 21.4736 14.4835 21.3971 14.56L14.4192 24.3095L14.4957 24.4247C15.5534 23.7495 16.9361 23.4112 18.6445 23.4112C21.3845 23.4112 23.5701 24.2362 25.202 25.887C26.8331 27.5378 27.6494 29.7518 27.6494 32.5305C27.6494 35.3092 26.7763 37.7085 25.03 39.3459ZM11.1696 32.5305C11.1696 34.5828 11.7431 36.1721 12.8899 37.3007C14.0367 38.4286 15.6552 38.9926 17.7461 38.9926C19.837 38.9926 21.4547 38.4286 22.6015 37.3007C23.7484 36.1729 24.3218 34.5828 24.3218 32.5305C24.3218 30.4782 23.7484 28.9331 22.6015 27.8178C21.4547 26.7026 19.8354 26.1449 17.7461 26.1449C15.6567 26.1449 14.0848 26.7089 12.9191 27.8367C11.7533 28.9646 11.1696 30.5295 11.1696 32.5297V32.5305Z" fill="#120540"/>
<path d="M16.0341 1.22727H0V0H17.2732L16.0341 1.22727Z" fill="#59FF69"/>
<path d="M14.239 3.02241H0V1.66895H15.5932L14.239 3.02241Z" fill="#59FF69"/>
<path d="M12.4438 4.81759H0V3.43652H13.8249L12.4438 4.81759Z" fill="#59FF69"/>
<path d="M10.6487 6.61272H0V5.20483H12.0574L10.6487 6.61272Z" fill="#59FF69"/>
<path d="M8.85352 8.4079H0V6.97241H10.289L8.85352 8.4079Z" fill="#59FF69"/>
<path d="M7.05837 10.203H0V8.74072H8.52147L7.05837 10.203Z" fill="#59FF69"/>
<path d="M5.26321 11.9982H0V10.5083H6.75313L5.26321 11.9982Z" fill="#59FF69"/>
<path d="M3.46806 13.7934H0V12.2759H4.98558L3.46806 13.7934Z" fill="#59FF69"/>
<path d="M1.67369 15.5885H0V14.0442H3.21803L1.67369 15.5885Z" fill="#59FF69"/>
<path d="M0 17.2615V17.3837V15.8118H1.44969L0 17.2615Z" fill="#59FF69"/>
</g>
<defs>
<clipPath id="clip0_1354_4506">
<rect width="35.493" height="56" fill="white"/>
</clipPath>
</defs>
</svg>
