<svg width="36" height="56" viewBox="0 0 36 56" fill="none" xmlns="http://www.w3.org/2000/svg">
<g clip-path="url(#clip0_1354_3187)">
<mask id="mask0_1354_3187" style="mask-type:luminance" maskUnits="userSpaceOnUse" x="0" y="0" width="40" height="56">
<path d="M39.5959 0H0V56H39.5959V0Z" fill="white"/>
</mask>
<g mask="url(#mask0_1354_3187)">
<path d="M39.5959 0H0V56H39.5959V0Z" fill="#120540"/>
<path d="M39.5959 0H0V56H39.5959V0Z" fill="#120540"/>
<path d="M0.156474 0H0.112305V56H0.156474V0Z" fill="#59FF69"/>
<path d="M1.86317 18.7545H1.79297V56H1.86317V18.7545Z" fill="#59FF69"/>
<path d="M3.56888 0H3.47266V56H3.56888V0Z" fill="#59FF69"/>
<path d="M5.27557 0H5.15332V56H5.27557V0Z" fill="#59FF69"/>
<path d="M6.98227 0H6.83398V56H6.98227V0Z" fill="#59FF69"/>
<path d="M8.68817 0H8.51465V56H8.68817V0Z" fill="#59FF69"/>
<path d="M10.3949 0H10.1953V56H10.3949V0Z" fill="#59FF69"/>
<path d="M12.1016 0H11.876V56H12.1016V0Z" fill="#59FF69"/>
<path d="M13.8073 0H13.5557V56H13.8073V0Z" fill="#59FF69"/>
<path d="M15.514 0H15.2363V56H15.514V0Z" fill="#59FF69"/>
<path d="M17.2208 0H16.918V56H17.2208V0Z" fill="#59FF69"/>
<path d="M18.9275 0H18.5986V56H18.9275V0Z" fill="#59FF69"/>
<path d="M0 36.1563H19.5527L0 55.6703V56H19.555V36.1547H19.5543L0 16.6407V36.1571V36.1563ZM39.4398 16.3134H39.5959V16.1572L39.4398 16.3134ZM0 16.3134H19.555V0H0V16.3134ZM23.0941 0L39.4382 16.3118L19.5543 36.1563H39.4366L19.5543 56H39.5952V36.3109L39.4406 36.1571H39.5952V36.0009L39.4398 36.1563H39.439V0H23.0933H23.0941Z" fill="#120540"/>
<path d="M0 0.188507H19.555V0H0V0.187718V0.188507ZM23.0941 0L23.2826 0.187718H39.4398V0H23.0941Z" fill="#59FF69"/>
<path d="M0 1.52385H19.555V1.16498H0V1.52385ZM24.2614 1.16498L24.6211 1.52385H39.439V1.16498H24.2606H24.2614Z" fill="#59FF69"/>
<path d="M0 2.85997H19.555V2.48059H0V2.85997ZM25.5794 2.48059L25.9595 2.85997H39.439V2.48059H25.5794Z" fill="#59FF69"/>
<path d="M0 4.19603H19.555V3.79614H0V4.19603ZM26.8981 3.79693L27.2988 4.19682H39.4398V3.79693H26.8981Z" fill="#59FF69"/>
<path d="M0 5.53215H19.555V5.11255H0V5.53215ZM28.2169 5.11255L28.6373 5.53215H39.4398V5.11255H28.2169Z" fill="#59FF69"/>
<path d="M0 6.86827H19.555V6.42816H0V6.86827ZM29.5349 6.42816L29.9758 6.86827H39.439V6.42816H29.5341H29.5349Z" fill="#59FF69"/>
<path d="M0 8.20439H19.555V7.74377H0V8.20439ZM30.8536 7.74377L31.315 8.20439H39.4398V7.74377H30.8536Z" fill="#59FF69"/>
<path d="M0 9.54052H19.555V9.06018H0V9.54052ZM32.1716 9.06018L32.6535 9.54052H39.4398V9.06018H32.1716Z" fill="#59FF69"/>
<path d="M0 10.8766H19.555V10.3758H0V10.8766ZM33.4904 10.3758L33.992 10.8766H39.4398V10.3758H33.4904Z" fill="#59FF69"/>
<path d="M0 12.2128H19.555V11.6914H0V12.2128ZM34.8083 11.6914L35.3305 12.2128H39.439V11.6914H34.8083Z" fill="#59FF69"/>
<path d="M0 13.5488H19.555V13.0077H0V13.5488ZM36.1271 13.007L36.6697 13.548H39.4398V13.007H36.1271Z" fill="#59FF69"/>
<path d="M0 14.8849H19.555V14.3234H0V14.8849ZM37.4451 14.3226L38.0082 14.8841H39.4398V14.3226H37.4459H37.4451Z" fill="#59FF69"/>
<path d="M39.5321 16.2211H39.5959V16.1572L39.5321 16.2211ZM0 16.2211H19.555V15.639H0V16.2211ZM38.7638 15.639L39.3467 16.2211H39.439V15.639H38.763H38.7638Z" fill="#59FF69"/>
<path d="M0 16.9546V17.5572H0.918084L0.314704 16.9546H0ZM38.7946 16.9546L38.1912 17.5572H39.439V16.9546H38.7946Z" fill="#59FF69"/>
<path d="M0 18.2702V18.8925H2.25656L1.63268 18.2702H0ZM37.4766 18.2702L36.8527 18.8925H39.4398V18.2702H37.4766Z" fill="#59FF69"/>
<path d="M0 19.5858V20.2286H3.59583L2.95144 19.5858H0ZM36.1579 19.5858L35.5135 20.2286H39.439V19.5858H36.1579Z" fill="#59FF69"/>
<path d="M0 20.9022V21.5655H4.93431L4.2702 20.9022H0ZM34.8399 20.9022L34.1758 21.5655H39.4398V20.9022H34.8399Z" fill="#59FF69"/>
<path d="M0 22.2178V22.9008H6.27279L5.58817 22.2178H0ZM33.5211 22.2178L32.8365 22.9008H39.4398V22.2178H33.5219H33.5211Z" fill="#59FF69"/>
<path d="M0 23.5334V24.2369H7.61127L6.90614 23.5334H0ZM32.2032 23.5334L31.498 24.2369H39.4398V23.5334H32.2032Z" fill="#59FF69"/>
<path d="M0 24.849V25.5731H8.95054L8.22569 24.849H0ZM30.8844 24.849L30.1595 25.5731H39.4398V24.849H30.8844Z" fill="#59FF69"/>
<path d="M0 26.1654V26.9092H10.289L9.54366 26.1654H0ZM29.5656 26.1654L28.8203 26.9092H39.439V26.1654H29.5656Z" fill="#59FF69"/>
<path d="M0 27.481V28.2453H11.6275L10.8616 27.481H0ZM28.2477 27.481L27.4818 28.2453H39.4398V27.481H28.2477Z" fill="#59FF69"/>
<path d="M0 28.7966V29.5814H12.966L12.1796 28.7966H0ZM26.9289 28.7966L26.1425 29.5814H39.439V28.7966H26.9289Z" fill="#59FF69"/>
<path d="M0 30.1122V30.9175H14.3052L13.4984 30.1122H0ZM25.6109 30.1122L24.8041 30.9175H39.439V30.1122H25.6101H25.6109Z" fill="#59FF69"/>
<path d="M0 31.4279V32.2529H15.6437L14.8171 31.4279H0ZM24.2922 31.4279L23.4656 32.2529H39.439V31.4279H24.2922Z" fill="#59FF69"/>
<path d="M0 32.7442V33.5897H16.9822L16.1351 32.7442H0ZM22.9742 32.7442L22.1271 33.5897H39.4398V32.7442H22.9742Z" fill="#59FF69"/>
<path d="M0 34.0598V34.9258H18.3215L17.4539 34.0598H0ZM21.6554 34.0598L20.7878 34.9258H39.439V34.0598H21.6554Z" fill="#59FF69"/>
<path d="M19.0172 36.691L18.1094 37.5973H19.5551V36.691H19.0172Z" fill="#59FF69"/>
<path d="M17.6988 38.0074L16.7705 38.9342H19.5555V38.0074H17.6988Z" fill="#59FF69"/>
<path d="M16.3805 39.3231L15.4316 40.2695H19.5551V39.3231H16.3805ZM36.2644 39.3231L35.3156 40.2695H39.5952V39.3231H36.2636H36.2644Z" fill="#59FF69"/>
<path d="M15.0611 40.6387L14.0918 41.6057H19.5538V40.6387H15.0604H15.0611ZM34.9459 40.6387L33.9773 41.6057H39.5962V40.6387H34.9467H34.9459Z" fill="#59FF69"/>
<path d="M13.744 41.9542L12.7549 42.9417H19.5553V41.9542H13.744ZM33.6279 41.9542L32.6388 42.9417H39.5962V41.9542H33.6279Z" fill="#59FF69"/>
<path d="M12.4246 43.2699L11.415 44.2771H19.5548V43.2699H12.4246ZM32.3094 43.2699L31.2998 44.2771H39.5957V43.2699H32.3094Z" fill="#59FF69"/>
<path d="M11.1072 44.5863L10.0771 45.614H19.5553V44.5863H11.1072ZM30.9912 44.5863L29.9611 45.614H39.5955V44.5863H30.9904H30.9912Z" fill="#59FF69"/>
<path d="M9.7879 45.9019L8.7373 46.9501H19.554V45.9019H9.78711H9.7879ZM29.6726 45.9019L28.6228 46.9501H39.5965V45.9019H29.6734H29.6726Z" fill="#59FF69"/>
<path d="M8.46972 47.2175L7.39941 48.2863H19.5546V47.2175H8.46972ZM28.3545 47.2175L27.2841 48.2863H39.5963V47.2175H28.3545Z" fill="#59FF69"/>
<path d="M7.15136 48.5331L6.06055 49.6215H19.555V48.5331H7.15136ZM27.0361 48.5331L25.9453 49.6215H39.5959V48.5331H27.0361Z" fill="#59FF69"/>
<path d="M5.833 49.8495L4.72168 50.9584H19.5546V49.8495H5.833ZM25.7177 49.8495L24.6064 50.9584H39.5955V49.8495H25.7169H25.7177Z" fill="#59FF69"/>
<path d="M4.51464 51.165L3.38281 52.2945H19.5542V51.165H4.51464ZM24.3994 51.165L23.2683 52.2945H39.5967V51.165H24.4002H24.3994Z" fill="#59FF69"/>
<path d="M3.19549 52.4807L2.04395 53.6299H19.5538V52.4807H3.19549ZM23.0802 52.4807L21.9287 53.6299H39.5955V52.4807H23.0802Z" fill="#59FF69"/>
<path d="M1.87811 53.7963L0.706055 54.966H19.5552V53.7963H1.87811ZM21.7628 53.7963L20.5908 54.966H39.5961V53.7963H21.7628Z" fill="#59FF69"/>
<path d="M0.559211 55.1127L0 55.6703V56H19.555V55.1127H0.559211ZM20.4439 55.1127L19.5543 56H39.5952V55.1127H20.4432H20.4439Z" fill="#59FF69"/>
<path d="M35.122 40.6521L34.9248 40.8493H39.5957V40.6521H35.122Z" fill="#59FF69"/>
<path d="M33.8058 41.9677L33.5889 42.1853H39.5959V41.9677H33.8058Z" fill="#59FF69"/>
<path d="M32.4901 43.2841L32.252 43.5215H39.5958V43.2841H32.4901Z" fill="#59FF69"/>
<path d="M31.1739 44.5997L30.916 44.8576H39.596V44.5997H31.1739Z" fill="#59FF69"/>
<path d="M29.8577 45.9153L29.5801 46.1937H39.5962V45.9153H29.8577Z" fill="#59FF69"/>
<path d="M28.5423 47.2308L28.2441 47.5298H39.5964V47.2308H28.5423Z" fill="#59FF69"/>
<path d="M27.2259 48.5472L26.9072 48.8651H39.5964V48.5472H27.2259Z" fill="#59FF69"/>
<path d="M25.9095 49.8629L25.5703 50.2013H39.5956V49.8629H25.9095Z" fill="#59FF69"/>
<path d="M24.5932 51.1785L24.2344 51.5373H39.5957V51.1785H24.5932Z" fill="#59FF69"/>
<path d="M23.2768 52.4941L22.8975 52.8735H39.5957V52.4941H23.2768Z" fill="#59FF69"/>
<path d="M21.9614 53.8105L21.5615 54.2096H39.5959V53.8105H21.9614Z" fill="#59FF69"/>
<path d="M20.6452 55.1261L20.2256 55.5457H39.5961V55.1261H20.6452Z" fill="#59FF69"/>
<path d="M19.5547 36.1563H39.5956V15.9971L19.5547 36.1563Z" fill="#120540"/>
<path d="M0 36.1563H19.8453L0 16.1477V36.1563Z" fill="#120540"/>
<path d="M16.307 0H0V16.5208H19.7506V0H16.307Z" fill="#120540"/>
<path d="M0 36.1792H19.7877L20.7437 14.8282L0 15.7889V36.1792Z" fill="#120540"/>
<path d="M35.1806 41.9677L34.9629 42.1853H39.5959V41.9677H35.1806Z" fill="#59FF69"/>
<path d="M33.8644 43.2841L33.627 43.5215H39.5961V43.2841H33.8644Z" fill="#59FF69"/>
<path d="M32.5481 44.5996L32.291 44.8575H39.5963V44.5996H32.5481Z" fill="#59FF69"/>
<path d="M31.2325 45.9153L30.9541 46.1937H39.5962V45.9153H31.2325Z" fill="#59FF69"/>
<path d="M29.9163 47.2308L29.6182 47.5298H39.5964V47.2308H29.9163Z" fill="#59FF69"/>
<path d="M28.5999 48.5472L28.2812 48.8651H39.5956V48.5472H28.5999Z" fill="#59FF69"/>
<path d="M27.2835 49.8629L26.9443 50.2013H39.5956V49.8629H27.2835Z" fill="#59FF69"/>
<path d="M25.9673 51.1785L25.6084 51.5373H39.5958V51.1785H25.9673Z" fill="#59FF69"/>
<path d="M24.6518 52.4941L24.2725 52.8735H39.596V52.4941H24.6518Z" fill="#59FF69"/>
<path d="M23.3356 53.8105L22.9365 54.2096H39.5961V53.8105H23.3356Z" fill="#59FF69"/>
<path d="M22.02 55.1261L21.5996 55.5457H39.5961V55.1261H22.02Z" fill="#59FF69"/>
</g>
<path d="M31.549 3.9436H3.94336V52.0563H31.549V3.9436Z" fill="white"/>
<path d="M0.506366 16.2479L0.675944 16.0783H0V16.2479H0.506366Z" fill="#59FF69"/>
<path d="M1.93161 14.8234L2.12248 14.6318H0V14.8234H1.93161Z" fill="#59FF69"/>
<path d="M3.35606 13.3982L3.5698 13.1852H0V13.3982H3.35606Z" fill="#59FF69"/>
<path d="M4.7813 11.9738L5.01713 11.7387H0V11.9738H4.7813Z" fill="#59FF69"/>
<path d="M6.20654 10.5485L6.46366 10.2914H0V10.5485H6.20654Z" fill="#59FF69"/>
<path d="M7.63178 9.12406L7.91099 8.84485H0V9.12406H7.63178Z" fill="#59FF69"/>
<path d="M9.05701 7.53476L9.35752 7.23346H0V7.53476H9.05701Z" fill="#59FF69"/>
<path d="M10.4823 6.10952L10.8048 5.78693H0V6.10952H10.4823Z" fill="#59FF69"/>
<path d="M11.9067 4.68507L12.2522 4.34039H0V4.68507H11.9067Z" fill="#59FF69"/>
<path d="M13.3319 3.26062L13.6987 2.89307H0V3.26062H13.3319Z" fill="#59FF69"/>
<path d="M14.7572 1.83538L15.146 1.44653H0V1.83538H14.7572Z" fill="#59FF69"/>
<path d="M16.1824 0.41093L16.5934 0H0V0.41093H16.1824Z" fill="#59FF69"/>
<path d="M25.1228 39.8665C23.401 41.1577 20.9394 41.8028 17.7372 41.8028C14.5349 41.8028 12.0756 41.1577 10.3609 39.8665C8.64544 38.5754 7.78809 36.7337 7.78809 34.3414C7.78809 32.6835 8.24634 31.263 9.16442 30.0791C10.0817 28.896 11.3319 28.1018 12.9141 27.6964V27.5828C11.5472 27.0386 10.4997 26.2412 9.77175 25.1906C9.04375 24.14 8.68014 22.8741 8.68014 21.3936C8.68014 19.1536 9.48702 17.3939 11.1008 16.1154C12.7145 14.8369 14.9261 14.198 17.7364 14.198C20.5466 14.198 22.7582 14.8369 24.372 16.1154C25.9857 17.3939 26.7926 19.1528 26.7926 21.3936C26.7926 22.8748 26.425 24.1408 25.6915 25.1906C24.9572 26.2412 23.9129 27.0386 22.5587 27.5828V27.6964C24.1409 28.1018 25.3942 28.896 26.3178 30.0791C27.2414 31.263 27.7036 32.6835 27.7036 34.3414C27.7036 36.7337 26.8423 38.5754 25.1213 39.8665H25.1228ZM11.0921 33.9999C11.0921 35.6578 11.6521 36.908 12.7721 37.7495C13.8921 38.5911 15.5468 39.0123 17.7372 39.0123C19.9275 39.0123 21.5688 38.5888 22.7022 37.7401C23.8348 36.8922 24.4012 35.6452 24.4012 33.9999C24.4012 30.8103 22.1801 29.2155 17.7372 29.2155C13.2942 29.2155 11.0921 30.8103 11.0921 33.9999ZM12.022 21.8298C12.022 23.2984 12.5157 24.4279 13.5032 25.219C14.4907 26.0101 15.9018 26.406 17.7372 26.406C19.5725 26.406 20.9836 26.0108 21.9711 25.219C22.9586 24.4279 23.4523 23.2984 23.4523 21.8298C23.4523 20.2476 22.968 19.0479 22.0003 18.2316C21.0317 17.4152 19.6112 17.0067 17.7379 17.0067C15.8647 17.0067 14.4442 17.4152 13.4756 18.2316C12.5079 19.0479 12.0236 20.2476 12.0236 21.8298H12.022Z" fill="#120540"/>
</g>
<defs>
<clipPath id="clip0_1354_3187">
<rect width="35.493" height="56" fill="white"/>
</clipPath>
</defs>
</svg>
