<?xml version="1.0" encoding="UTF-8" standalone="no"?>
<svg
   width="283"
   height="179"
   viewBox="0 0 283 179"
   fill="none"
   version="1.1"
   id="svg110"
   sodipodi:docname="computing_hubs.svg"
   inkscape:version="1.2.2 (b0a84865, 2022-12-01)"
   xmlns:inkscape="http://www.inkscape.org/namespaces/inkscape"
   xmlns:sodipodi="http://sodipodi.sourceforge.net/DTD/sodipodi-0.dtd"
   xmlns="http://www.w3.org/2000/svg"
   xmlns:svg="http://www.w3.org/2000/svg">
  <sodipodi:namedview
     id="namedview112"
     pagecolor="#ffffff"
     bordercolor="#000000"
     borderopacity="0.25"
     inkscape:showpageshadow="2"
     inkscape:pageopacity="0.0"
     inkscape:pagecheckerboard="0"
     inkscape:deskcolor="#d1d1d1"
     showgrid="false"
     inkscape:zoom="0.48659794"
     inkscape:cx="86.313559"
     inkscape:cy="243.52754"
     inkscape:window-width="2560"
     inkscape:window-height="1387"
     inkscape:window-x="1440"
     inkscape:window-y="25"
     inkscape:window-maximized="0"
     inkscape:current-layer="svg110" />
  <g
     clip-path="url(#clip0_447_14632)"
     id="g98"
     transform="scale(0.35375,0.36948202)">
    <rect
       width="800"
       height="484.46201"
       fill="#120540"
       id="rect2"
       x="0"
       y="0" />
    <path
       d="m 399.856,553.234 c 143.97,0 260.681,-116.711 260.681,-260.681 0,-143.97 -116.711,-260.6804 -260.681,-260.6804 -143.97,0 -260.68,116.7104 -260.68,260.6804 0,143.97 116.71,260.681 260.68,260.681 z"
       fill="#120540"
       id="path4" />
    <path
       d="m 399.856,553.234 c 143.97,0 260.681,-116.711 260.681,-260.681 0,-143.97 -116.711,-260.6804 -260.681,-260.6804 -143.97,0 -260.68,116.7104 -260.68,260.6804 0,143.97 116.71,260.681 260.68,260.681 z"
       fill="#ffffff"
       fill-opacity="0.2"
       id="path6" />
    <path
       d="m 299.833,169.248 c -2.686,35.559 -17.139,39.396 -16.5,58.327 0.512,18.931 7.291,31.466 4.221,39.908 -3.198,8.442 -24.175,19.442 -19.442,42.466 4.732,23.024 13.686,32.489 11.512,44.641 -2.047,12.023 -14.71,37.221 -14.71,37.221 l 214.377,1.407 c 0,0 18.547,-24.175 17.268,-40.547 -1.279,-16.373 -12.663,-34.792 -7.675,-50.141 5.117,-15.349 11.384,-26.861 4.094,-45.408 -7.291,-18.547 -17.012,-20.977 -13.559,-43.361 3.582,-22.385 2.686,-63.955 -33.768,-79.816 -36.454,-15.861 -145.818,35.303 -145.818,35.303 z"
       fill="url(#paint0_linear_447_14632)"
       id="path8"
       style="fill:url(#paint0_linear_447_14632)" />
    <path
       d="m 556.163,411.254 c 0,23.407 -19.058,42.466 -42.466,42.466 z"
       fill="#f5f5f5"
       id="path10" />
    <path
       d="m 434.011,357.02 83.653,11.768 -19.187,246.354 32.106,105.014 -273.983,3.454 29.931,-103.863 -23.792,-250.832 81.223,-11 z"
       fill="#fcfcfc"
       id="path12" />
    <path
       d="M 299.574,212.098 C 288.19,149.422 328.098,95.8278 392.309,95.8278 c 65.874,0 99.13,67.0252 88.514,119.9792 -8.187,41.187 -46.815,51.036 -93.119,51.036 -46.303,0 -80.839,-14.581 -88.13,-54.745 z"
       fill="#5f2d1c"
       id="path14" />
    <path
       d="m 350.616,277.971 c 0,0 4.605,44.257 -6.651,79.944 0,0 1.918,36.838 46.559,36.071 44.769,-0.768 43.489,-36.966 43.489,-36.966 -12.279,-29.164 -9.465,-80.328 -9.465,-80.328 z"
       fill="#fea899"
       id="path16" />
    <path
       d="m 375.43,382.474 14.07,58.199 12.791,-62.932 z"
       fill="#fea899"
       id="path18" />
    <mask
       id="mask0_447_14632"
       maskUnits="userSpaceOnUse"
       x="344"
       y="276"
       width="91"
       height="112">
      <path
         d="m 350.618,277.972 c 0,0 5.116,42.466 -6.268,78.28 -3.709,11.768 22.896,30.827 46.815,30.827 23.92,0 47.455,-23.024 42.85,-34.024 -12.279,-29.164 -9.465,-76.235 -9.465,-76.235 z"
         fill="#ffffff"
         id="path20" />
    </mask>
    <g
       mask="url(#mask0_447_14632)"
       id="g25">
      <path
         d="m 439.001,291.146 c -37.478,64.978 -101.689,39.396 -101.689,39.396 l 4.094,-36.71 c 0,0 135.073,-67.664 97.595,-2.686 z"
         fill="#ea7e73"
         id="path23" />
    </g>
    <path
       d="m 318.891,230.005 c -2.302,-66.641 3.198,-127.27 72.141,-127.27 64.083,0 65.49,70.478 64.979,132.003 -0.256,36.838 -31.85,84.804 -67.281,84.804 -35.431,0 -68.304,-44.768 -69.839,-89.537 z"
       fill="#fea899"
       id="path27" />
    <path
       d="m 386.558,284.495 c 8.619,0 15.605,-5.498 15.605,-12.279 0,-6.782 -6.986,-12.28 -15.605,-12.28 -8.618,0 -15.605,5.498 -15.605,12.28 0,6.781 6.987,12.279 15.605,12.279 z"
       fill="#d1736b"
       id="path29" />
    <path
       d="m 386.558,291.53 c 8.619,0 15.605,-5.956 15.605,-13.303 0,-7.346 -6.986,-13.302 -15.605,-13.302 -8.618,0 -15.605,5.956 -15.605,13.302 0,7.347 6.987,13.303 15.605,13.303 z"
       fill="#d1736b"
       id="path31" />
    <path
       d="m 386.559,285.135 c 8.548,0 15.477,-4.582 15.477,-10.233 0,-5.652 -6.929,-10.233 -15.477,-10.233 -8.548,0 -15.477,4.581 -15.477,10.233 0,5.651 6.929,10.233 15.477,10.233 z"
       fill="#262222"
       id="path33" />
    <mask
       id="mask1_447_14632"
       maskUnits="userSpaceOnUse"
       x="371"
       y="264"
       width="32"
       height="22">
      <path
         d="m 386.557,285.135 c 8.548,0 15.477,-4.582 15.477,-10.233 0,-5.651 -6.929,-10.233 -15.477,-10.233 -8.548,0 -15.477,4.582 -15.477,10.233 0,5.651 6.929,10.233 15.477,10.233 z"
         fill="#ffffff"
         id="path35" />
    </mask>
    <g
       mask="url(#mask1_447_14632)"
       id="g42">
      <path
         d="m 385.662,268.762 c 9.396,0 17.012,-2.233 17.012,-4.988 0,-2.755 -7.616,-4.989 -17.012,-4.989 -9.395,0 -17.012,2.234 -17.012,4.989 0,2.755 7.617,4.988 17.012,4.988 z"
         fill="#ffffff"
         id="path38" />
      <path
         d="m 386.045,290.124 c 9.396,0 17.012,-3.15 17.012,-7.035 0,-3.886 -7.616,-7.036 -17.012,-7.036 -9.395,0 -17.012,3.15 -17.012,7.036 0,3.885 7.617,7.035 17.012,7.035 z"
         fill="#b24653"
         id="path40" />
    </g>
    <path
       d="m 317.992,214.273 c 0,0 3.198,-46.432 21.105,-59.479 0.256,-0.128 0.512,-0.639 0.768,-0.767 19.57,-14.198 24.431,2.302 47.71,2.302 26.989,0 28.396,-11.512 46.176,-3.709 21.361,9.337 23.407,63.315 23.407,63.315 0,0 34.024,-113.84 -66.257,-113.84 -109.875,-0.127 -72.909,112.178 -72.909,112.178 z"
       fill="#5f2d1c"
       id="path44" />
    <path
       d="m 323.28,246.763 c 6.812,-4.163 7.675,-15.161 1.928,-24.564 -5.747,-9.404 -15.928,-13.652 -22.74,-9.489 -6.811,4.162 -7.674,15.16 -1.927,24.564 5.747,9.403 15.928,13.652 22.739,9.489 z"
       fill="#fea899"
       id="path46" />
    <path
       d="m 306.355,217.726 c 6.524,3.07 8.826,7.035 10.617,13.047"
       stroke="#222226"
       stroke-width="1.71407"
       stroke-miterlimit="10"
       stroke-linecap="round"
       id="path48" />
    <path
       d="m 383.614,220.028 c 0,0 2.047,5.372 -3.198,18.803 -3.325,8.314 6.524,10.233 11.257,7.035"
       stroke="#222226"
       stroke-width="2.44872"
       stroke-miterlimit="10"
       stroke-linecap="round"
       stroke-linejoin="round"
       id="path50" />
    <path
       d="m 317.996,214.272 c 42.722,-11.256 70.478,-42.21 75.211,-72.908 4.733,-30.699 -59.99,-23.919 -69.711,-2.686 -9.721,21.233 -5.5,75.594 -5.5,75.594 z"
       fill="#5f2d1c"
       id="path52" />
    <path
       d="m 388.857,120.514 c -7.419,41.443 47.071,93.631 67.153,98.747 20.082,5.116 8.826,-97.595 -20.338,-98.747 -29.163,-1.151 -46.815,0 -46.815,0 z"
       fill="#5f2d1c"
       id="path54" />
    <path
       d="m 478.45,237.295 c 5.747,-9.404 4.884,-20.402 -1.928,-24.565 -6.811,-4.162 -16.992,0.086 -22.739,9.49 -5.747,9.403 -4.884,20.401 1.927,24.564 6.812,4.163 16.993,-0.086 22.74,-9.489 z"
       fill="#fea899"
       id="path56" />
    <path
       d="m 472.507,217.726 c -6.523,3.07 -9.081,5.884 -10.872,12.024"
       stroke="#222226"
       stroke-width="1.71407"
       stroke-miterlimit="10"
       stroke-linecap="round"
       id="path58" />
    <path
       d="m 405.232,185.365 c -0.384,-6.779 11,-6.268 17.14,-4.989 9.593,2.047 15.221,8.954 12.407,11.256 -1.918,1.535 -5.884,-2.174 -15.221,-2.686 -4.733,-0.256 -13.942,2.175 -14.326,-3.581 z"
       fill="#32170e"
       id="path60" />
    <path
       d="m 364.427,185.365 c 0.384,-6.779 -11,-6.268 -17.14,-4.989 -9.593,2.047 -15.221,8.954 -12.407,11.256 1.919,1.535 5.884,-2.174 15.221,-2.686 4.733,-0.256 13.943,2.175 14.326,-3.581 z"
       fill="#32170e"
       id="path62" />
    <path
       d="m 270.539,467.534 c 27.41,0 49.629,-22.219 49.629,-49.629 0,-27.409 -22.219,-49.629 -49.629,-49.629 -27.409,0 -49.629,22.22 -49.629,49.629 0,27.41 22.22,49.629 49.629,49.629 z"
       fill="#fcfcfc"
       id="path64" />
    <path
       d="m 226.538,394.114 -70.35,194.679 72.652,24.047 85.828,-74.188 c 0,0 24.687,-105.654 -17.14,-147.48 -28.396,-28.268 -70.99,2.942 -70.99,2.942 z"
       fill="#fcfcfc"
       id="path66" />
    <path
       d="m 502.956,477.639 c 30.236,0 54.746,-24.51 54.746,-54.745 0,-30.235 -24.51,-54.746 -54.746,-54.746 -30.235,0 -54.745,24.511 -54.745,54.746 0,30.235 24.51,54.745 54.745,54.745 z"
       fill="#fcfcfc"
       id="path68" />
    <path
       d="m 551.432,396.672 21.489,135.585 -72.525,92.095 -57.303,-155.027 c 0,0 -23.024,-64.339 33.768,-96.572 38.373,-21.873 74.571,23.919 74.571,23.919 z"
       fill="#fcfcfc"
       id="path70" />
    <path
       d="m 529.43,653.899 c 15.861,-139.55 26.477,-264.646 26.477,-264.646 l 38.757,1.279 c 0,0 13.303,181.121 16.5,266.565 2.814,74.827 -89.92,67.536 -81.734,-3.198 z"
       fill="#fea899"
       id="path72" />
    <path
       d="m 531.859,336.298 c 0,0 10.873,-13.686 11.384,-25.07 0.64,-14.326 3.71,-43.106 4.221,-55.513 0.512,-12.407 14.582,-17.268 14.07,4.093 -0.255,8.314 1.407,54.106 1.407,54.106 l 7.803,2.686 -2.047,18.675 z"
       fill="#fea899"
       id="path74" />
    <path
       d="m 555.014,387.718 c -3.837,-5.372 -10.744,-12.535 -15.093,-19.058 -2.303,-3.454 -6.78,-7.419 -10.489,-10.361 -2.302,-4.477 -3.837,-8.57 -3.326,-11 1.152,-4.861 11.001,-18.419 14.071,-23.664 3.069,-5.244 7.546,-3.069 13.046,0.384 5.373,3.326 23.28,8.698 23.28,8.698 0,0 -3.198,9.465 -10.745,8.826 -7.418,-0.64 -10.872,-3.582 -10.872,-3.582 l -3.581,4.861 c 0,0 7.035,0.895 13.046,2.558 8.315,2.302 12.791,8.442 12.791,8.442 0,0 19.187,-14.582 29.676,-14.454 0,0 -2.687,19.698 -5.884,29.548 -3.198,9.849 -6.524,21.233 -7.163,26.733 -0.64,5.5 -0.768,27.5 -0.768,27.5 l -34.791,-0.895 c -0.256,-4.093 -0.512,-8.442 -0.64,-11.768 -0.128,-8.442 1.151,-17.395 -2.558,-22.768 z"
       fill="#fea899"
       id="path76" />
    <path
       d="m 601.062,346.148 c 0,0 -2.047,7.674 -7.163,9.082 -5.373,1.534 -7.035,-2.431 -7.035,-2.431 0,0 -4.349,3.582 -10.105,1.919 -4.221,-2.686 -7.675,-6.268 -14.198,-8.442 -6.524,-2.175 -12.024,-2.942 -12.024,-2.942 l 4.093,-5.5 c 0,0 6.779,5.628 18.931,2.046 3.453,-0.256 25.07,3.582 27.501,6.268 z"
       fill="#ea7e73"
       id="path78" />
    <path
       d="m 606.948,330.415 c 2.175,3.581 -0.511,12.151 -1.791,18.802 -1.279,6.78 -13.686,4.989 -15.093,0.256 -1.151,-4.093 0.256,-15.093 2.302,-19.442 2.303,-4.349 11.257,-5.244 14.582,0.384 z"
       fill="#fea899"
       id="path80" />
    <path
       d="m 585.585,317.24 c 4.733,-0.895 9.85,4.477 8.954,11.128 -0.767,5.756 -1.919,16.245 -6.651,19.826 -5.5,4.221 -9.21,3.198 -11.768,-3.581 -2.558,-6.779 -0.384,-25.454 9.465,-27.373 z"
       fill="#fea899"
       id="path82" />
    <path
       d="m 576.888,307.775 c 3.454,1.791 3.838,7.802 3.966,16.245 0.128,8.442 -1.791,18.291 -6.78,20.593 -4.86,2.302 -10.36,1.407 -12.151,-10.233 -1.535,-9.849 0.128,-18.163 2.302,-23.663 1.279,-2.942 6.14,-6.396 12.663,-2.942 z"
       fill="#fea899"
       id="path84" />
    <path
       d="m 564.479,340.904 c 0,0 3.197,1.407 8.314,-2.047 2.174,-1.535 3.453,-5.756 3.453,-5.756 l -0.256,-0.767 -0.255,-0.896 c 0,0 -0.256,3.198 -4.349,6.652 -2.814,2.558 -6.907,2.814 -6.907,2.814 z"
       fill="#ea7e73"
       id="path86" />
    <path
       d="m 566.784,328.752 c -4.605,-1.279 -12.663,-4.221 -15.477,-5.5 -2.431,-1.151 -5.756,-2.686 -7.036,-2.814 1.919,-1.791 10.233,2.43 12.919,3.453 11.001,4.094 19.571,6.396 19.571,6.396 l -0.384,1.279 c -0.128,0 -3.965,-1.151 -9.593,-2.814 z"
       fill="#ea7e73"
       id="path88" />
    <path
       d="m 352.532,221.052 c 2.472,0 4.476,-3.723 4.476,-8.315 0,-4.591 -2.004,-8.314 -4.476,-8.314 -2.473,0 -4.477,3.723 -4.477,8.314 0,4.592 2.004,8.315 4.477,8.315 z"
       fill="#262222"
       id="path90" />
    <path
       d="m 365.322,209.412 c -6.012,-3.71 -20.594,-5.884 -27.884,-2.303 8.186,-7.163 20.081,-5.884 27.884,2.303 z"
       fill="#262222"
       id="path92" />
    <path
       d="m 417.383,222.971 c 2.473,0 4.477,-3.723 4.477,-8.315 0,-4.591 -2.004,-8.314 -4.477,-8.314 -2.472,0 -4.477,3.723 -4.477,8.314 0,4.592 2.005,8.315 4.477,8.315 z"
       fill="#262222"
       id="path94" />
    <path
       d="m 404.594,211.331 c 6.012,-3.71 20.593,-5.884 27.884,-2.303 -8.314,-7.163 -20.21,-5.756 -27.884,2.303 z"
       fill="#262222"
       id="path96" />
  </g>
  <defs
     id="defs108">
    <linearGradient
       id="paint0_linear_447_14632"
       x1="380.92001"
       y1="368.047"
       x2="382.573"
       y2="195.11501"
       gradientUnits="userSpaceOnUse">
      <stop
         offset="0.0539211"
         stop-color="#874D2D"
         id="stop100" />
      <stop
         offset="1"
         stop-color="#5F2D1C"
         id="stop102" />
    </linearGradient>
    <clipPath
       id="clip0_447_14632">
      <rect
         width="800"
         height="484.46201"
         fill="#ffffff"
         id="rect105"
         x="0"
         y="0" />
    </clipPath>
  </defs>
</svg>
