<svg width="386" height="234" viewBox="0 0 386 234" fill="none" xmlns="http://www.w3.org/2000/svg">
<g clip-path="url(#clip0_446_15263)">
<rect width="386" height="233.519" fill="#007FA2"/>
<path d="M192.931 266.668C262.396 266.668 318.709 210.412 318.709 141.016C318.709 71.6197 262.396 15.3631 192.931 15.3631C123.465 15.3631 67.1523 71.6197 67.1523 141.016C67.1523 210.412 123.465 266.668 192.931 266.668Z" fill="#007FA2"/>
<path d="M192.931 266.668C262.396 266.668 318.709 210.412 318.709 141.016C318.709 71.6197 262.396 15.3631 192.931 15.3631C123.465 15.3631 67.1523 71.6197 67.1523 141.016C67.1523 210.412 123.465 266.668 192.931 266.668Z" fill="white" fill-opacity="0.2"/>
<path d="M144.669 81.5805C143.373 98.7205 136.399 100.57 136.707 109.695C136.954 118.82 140.225 124.862 138.744 128.931C137.201 133.001 127.08 138.303 129.363 149.401C131.647 160.499 135.967 165.061 134.918 170.918C133.93 176.714 127.82 188.86 127.82 188.86L231.257 189.538C231.257 189.538 240.206 177.885 239.589 169.994C238.972 162.102 233.479 153.223 235.886 145.825C238.355 138.426 241.379 132.877 237.861 123.937C234.343 114.997 229.653 113.826 231.319 103.036C233.047 92.2468 232.615 72.2089 215.026 64.5637C197.437 56.9185 144.669 81.5805 144.669 81.5805Z" fill="url(#paint0_linear_446_15263)"/>
<path d="M268.347 198.232C268.347 209.514 259.152 218.701 247.857 218.701L268.347 198.232Z" fill="#F5F5F5"/>
<path d="M209.409 172.09L249.772 177.762L240.515 296.509L256.005 347.128L123.809 348.793L138.25 298.729L126.771 177.824L165.961 172.521L209.409 172.09Z" fill="#FCFCFC"/>
<path d="M144.544 102.235C139.051 72.024 158.307 46.1906 189.289 46.1906C221.073 46.1906 237.119 78.4978 231.997 104.023C228.047 123.876 209.408 128.623 187.067 128.623C164.726 128.623 148.062 121.595 144.544 102.235Z" fill="#5F2D1C"/>
<path d="M169.17 133.987C169.17 133.987 171.392 155.32 165.961 172.521C165.961 172.521 166.887 190.278 188.426 189.908C210.027 189.538 209.409 172.09 209.409 172.09C203.485 158.033 204.842 133.371 204.842 133.371L169.17 133.987Z" fill="#FEA899"/>
<path d="M181.143 184.359L187.931 212.412L194.103 182.078L181.143 184.359Z" fill="#FEA899"/>
<mask id="mask0_446_15263" style="mask-type:luminance" maskUnits="userSpaceOnUse" x="165" y="133" width="45" height="54">
<path d="M169.171 133.987C169.171 133.987 171.639 154.457 166.147 171.72C164.357 177.392 177.194 186.579 188.735 186.579C200.276 186.579 211.632 175.481 209.41 170.179C203.485 156.121 204.843 133.432 204.843 133.432L169.171 133.987Z" fill="white"/>
</mask>
<g mask="url(#mask0_446_15263)">
<path d="M211.817 140.338C193.734 171.658 162.752 159.327 162.752 159.327L164.727 141.632C164.727 141.632 229.9 109.017 211.817 140.338Z" fill="#EA7E73"/>
</g>
<path d="M153.864 110.867C152.753 78.7444 155.407 49.52 188.672 49.52C219.592 49.52 220.271 83.4918 220.024 113.148C219.901 130.904 204.657 154.025 187.562 154.025C170.466 154.025 154.605 132.446 153.864 110.867Z" fill="#FEA899"/>
<path d="M186.514 137.132C190.672 137.132 194.043 134.482 194.043 131.213C194.043 127.944 190.672 125.294 186.514 125.294C182.355 125.294 178.984 127.944 178.984 131.213C178.984 134.482 182.355 137.132 186.514 137.132Z" fill="#D1736B"/>
<path d="M186.514 140.523C190.672 140.523 194.043 137.652 194.043 134.111C194.043 130.569 190.672 127.698 186.514 127.698C182.355 127.698 178.984 130.569 178.984 134.111C178.984 137.652 182.355 140.523 186.514 140.523Z" fill="#D1736B"/>
<path d="M186.515 137.44C190.639 137.44 193.982 135.231 193.982 132.507C193.982 129.783 190.639 127.575 186.515 127.575C182.39 127.575 179.047 129.783 179.047 132.507C179.047 135.231 182.39 137.44 186.515 137.44Z" fill="#262222"/>
<mask id="mask1_446_15263" style="mask-type:luminance" maskUnits="userSpaceOnUse" x="179" y="127" width="15" height="11">
<path d="M186.515 137.44C190.639 137.44 193.982 135.232 193.982 132.508C193.982 129.784 190.639 127.575 186.515 127.575C182.39 127.575 179.047 129.784 179.047 132.508C179.047 135.232 182.39 137.44 186.515 137.44Z" fill="white"/>
</mask>
<g mask="url(#mask1_446_15263)">
<path d="M186.083 129.548C190.617 129.548 194.292 128.472 194.292 127.144C194.292 125.816 190.617 124.739 186.083 124.739C181.55 124.739 177.875 125.816 177.875 127.144C177.875 128.472 181.55 129.548 186.083 129.548Z" fill="white"/>
<path d="M186.269 139.845C190.802 139.845 194.477 138.326 194.477 136.454C194.477 134.581 190.802 133.063 186.269 133.063C181.736 133.063 178.061 134.581 178.061 136.454C178.061 138.326 181.736 139.845 186.269 139.845Z" fill="#B24653"/>
</g>
<path d="M153.431 103.283C153.431 103.283 154.973 80.9023 163.614 74.6135C163.737 74.5519 163.861 74.3053 163.984 74.2436C173.427 67.3999 175.772 75.3534 187.004 75.3534C200.027 75.3534 200.705 69.8044 209.284 73.5654C219.591 78.0662 220.578 104.085 220.578 104.085C220.578 104.085 236.995 49.2117 188.609 49.2117C135.594 49.1501 153.431 103.283 153.431 103.283Z" fill="#5F2D1C"/>
<path d="M155.981 118.944C159.268 116.937 159.684 111.636 156.911 107.104C154.138 102.571 149.226 100.523 145.939 102.53C142.653 104.536 142.236 109.837 145.009 114.37C147.782 118.903 152.694 120.951 155.981 118.944Z" fill="#FEA899"/>
<path d="M147.814 104.948C150.962 106.427 152.073 108.339 152.937 111.236" stroke="#222226" stroke-width="1.71407" stroke-miterlimit="10" stroke-linecap="round"/>
<path d="M185.092 106.057C185.092 106.057 186.079 108.647 183.549 115.121C181.944 119.128 186.697 120.053 188.98 118.512" stroke="#222226" stroke-width="2.44872" stroke-miterlimit="10" stroke-linecap="round" stroke-linejoin="round"/>
<path d="M153.432 103.283C174.045 97.8574 187.438 82.9369 189.722 68.1397C192.005 53.3426 160.776 56.6103 156.086 66.845C151.396 77.0797 153.432 103.283 153.432 103.283Z" fill="#5F2D1C"/>
<path d="M187.624 58.09C184.044 78.0662 210.335 103.221 220.025 105.688C229.714 108.154 224.283 58.6449 210.212 58.09C196.14 57.5351 187.624 58.09 187.624 58.09Z" fill="#5F2D1C"/>
<path d="M230.85 114.38C233.623 109.848 233.207 104.546 229.92 102.54C226.634 100.533 221.722 102.581 218.949 107.114C216.176 111.646 216.592 116.947 219.879 118.954C223.165 120.961 228.077 118.913 230.85 114.38Z" fill="#FEA899"/>
<path d="M227.984 104.948C224.837 106.427 223.602 107.784 222.738 110.743" stroke="#222226" stroke-width="1.71407" stroke-miterlimit="10" stroke-linecap="round"/>
<path d="M195.524 89.349C195.339 86.0813 200.832 86.3279 203.794 86.9445C208.423 87.931 211.138 91.2603 209.781 92.3701C208.855 93.11 206.942 91.322 202.436 91.0754C200.153 90.952 195.709 92.1235 195.524 89.349Z" fill="#32170E"/>
<path d="M175.835 89.349C176.02 86.0813 170.528 86.3279 167.565 86.9445C162.936 87.931 160.221 91.2603 161.579 92.3701C162.504 93.11 164.418 91.322 168.923 91.0754C171.206 90.952 175.65 92.1235 175.835 89.349Z" fill="#32170E"/>
<path d="M130.534 225.36C143.759 225.36 154.48 214.649 154.48 201.438C154.48 188.226 143.759 177.516 130.534 177.516C117.309 177.516 106.588 188.226 106.588 201.438C106.588 214.649 117.309 225.36 130.534 225.36Z" fill="#FCFCFC"/>
<path d="M109.303 189.97L75.3594 283.809L110.414 295.4L151.826 259.64C151.826 259.64 163.737 208.713 143.556 188.552C129.855 174.926 109.303 189.97 109.303 189.97Z" fill="#FCFCFC"/>
<path d="M242.674 230.23C257.263 230.23 269.089 218.416 269.089 203.842C269.089 189.268 257.263 177.454 242.674 177.454C228.086 177.454 216.26 189.268 216.26 203.842C216.26 218.416 228.086 230.23 242.674 230.23Z" fill="#FCFCFC"/>
<path d="M266.064 191.203L276.432 256.557L241.439 300.949L213.79 226.223C213.79 226.223 202.681 195.21 230.083 179.673C248.598 169.13 266.064 191.203 266.064 191.203Z" fill="#FCFCFC"/>
<path d="M255.448 315.191C263.101 247.925 268.224 187.627 268.224 187.627L286.924 188.243C286.924 188.243 293.342 275.547 294.885 316.732C296.243 352.8 251.498 349.286 255.448 315.191Z" fill="#FEA899"/>
<path d="M256.621 162.102C256.621 162.102 261.867 155.505 262.114 150.017C262.422 143.112 263.904 129.24 264.151 123.259C264.397 117.279 271.186 114.936 270.939 125.232C270.816 129.24 271.618 151.312 271.618 151.312L275.383 152.607L274.395 161.609L256.621 162.102Z" fill="#FEA899"/>
<path d="M267.792 186.887C265.941 184.298 262.608 180.845 260.51 177.7C259.399 176.036 257.239 174.124 255.449 172.706C254.338 170.549 253.598 168.576 253.844 167.404C254.4 165.061 259.152 158.526 260.633 155.998C262.114 153.47 264.275 154.518 266.928 156.183C269.52 157.786 278.161 160.375 278.161 160.375C278.161 160.375 276.618 164.938 272.977 164.63C269.397 164.321 267.731 162.903 267.731 162.903L266.003 165.246C266.003 165.246 269.397 165.678 272.298 166.479C276.309 167.589 278.469 170.549 278.469 170.549C278.469 170.549 287.727 163.52 292.788 163.582C292.788 163.582 291.492 173.076 289.949 177.824C288.406 182.571 286.801 188.059 286.493 190.71C286.184 193.361 286.122 203.965 286.122 203.965L269.335 203.534C269.212 201.561 269.088 199.465 269.027 197.862C268.965 193.792 269.582 189.477 267.792 186.887Z" fill="#FEA899"/>
<path d="M290.011 166.849C290.011 166.849 289.023 170.549 286.555 171.227C283.963 171.967 283.16 170.055 283.16 170.055C283.16 170.055 281.062 171.782 278.285 170.98C276.248 169.685 274.582 167.959 271.434 166.911C268.287 165.863 265.633 165.493 265.633 165.493L267.608 162.842C267.608 162.842 270.879 165.555 276.742 163.828C278.408 163.705 288.838 165.555 290.011 166.849Z" fill="#EA7E73"/>
<path d="M292.85 159.266C293.899 160.992 292.603 165.123 291.986 168.329C291.369 171.597 285.382 170.734 284.704 168.452C284.148 166.479 284.827 161.177 285.814 159.081C286.925 156.984 291.245 156.553 292.85 159.266Z" fill="#FEA899"/>
<path d="M282.542 152.915C284.826 152.484 287.295 155.073 286.863 158.279C286.492 161.054 285.937 166.109 283.653 167.836C281 169.87 279.21 169.377 277.975 166.109C276.741 162.842 277.79 153.84 282.542 152.915Z" fill="#FEA899"/>
<path d="M278.347 148.353C280.013 149.216 280.198 152.114 280.26 156.183C280.322 160.252 279.396 165 276.989 166.109C274.644 167.219 271.99 166.788 271.126 161.177C270.385 156.43 271.188 152.422 272.237 149.771C272.854 148.353 275.199 146.688 278.347 148.353Z" fill="#FEA899"/>
<path d="M272.359 164.321C272.359 164.321 273.902 165 276.371 163.335C277.42 162.595 278.037 160.561 278.037 160.561L277.914 160.191L277.79 159.759C277.79 159.759 277.667 161.3 275.692 162.965C274.334 164.198 272.359 164.321 272.359 164.321Z" fill="#EA7E73"/>
<path d="M273.471 158.464C271.25 157.848 267.362 156.43 266.004 155.813C264.831 155.258 263.227 154.518 262.609 154.457C263.535 153.593 267.547 155.628 268.843 156.121C274.15 158.094 278.285 159.204 278.285 159.204L278.1 159.821C278.039 159.821 276.187 159.266 273.471 158.464Z" fill="#EA7E73"/>
<path d="M170.096 106.551C171.289 106.551 172.256 104.757 172.256 102.543C172.256 100.33 171.289 98.5356 170.096 98.5356C168.903 98.5356 167.936 100.33 167.936 102.543C167.936 104.757 168.903 106.551 170.096 106.551Z" fill="#262222"/>
<path d="M176.267 100.94C173.366 99.1521 166.33 98.104 162.812 99.8303C166.762 96.3776 172.502 96.9942 176.267 100.94Z" fill="#262222"/>
<path d="M201.387 107.476C202.58 107.476 203.547 105.681 203.547 103.468C203.547 101.255 202.58 99.4606 201.387 99.4606C200.194 99.4606 199.227 101.255 199.227 103.468C199.227 105.681 200.194 107.476 201.387 107.476Z" fill="#262222"/>
<path d="M195.215 101.865C198.116 100.077 205.151 99.0289 208.669 100.755C204.657 97.3026 198.918 97.9808 195.215 101.865Z" fill="#262222"/>
</g>
<defs>
<linearGradient id="paint0_linear_446_15263" x1="183.793" y1="177.405" x2="184.589" y2="94.0488" gradientUnits="userSpaceOnUse">
<stop offset="0.0539211" stop-color="#874D2D"/>
<stop offset="1" stop-color="#5F2D1C"/>
</linearGradient>
<clipPath id="clip0_446_15263">
<rect width="386" height="233.519" fill="white"/>
</clipPath>
</defs>
</svg>
