<svg width="800" height="485" viewBox="0 0 800 485" fill="none" xmlns="http://www.w3.org/2000/svg">
<g clip-path="url(#clip0_447_14632)">
<rect width="800" height="484.462" fill="#007FA2"/>
<path d="M399.856 553.234C543.826 553.234 660.537 436.523 660.537 292.553C660.537 148.583 543.826 31.8726 399.856 31.8726C255.886 31.8726 139.176 148.583 139.176 292.553C139.176 436.523 255.886 553.234 399.856 553.234Z" fill="#007FA2"/>
<path d="M399.856 553.234C543.826 553.234 660.537 436.523 660.537 292.553C660.537 148.583 543.826 31.8726 399.856 31.8726C255.886 31.8726 139.176 148.583 139.176 292.553C139.176 436.523 255.886 553.234 399.856 553.234Z" fill="white" fill-opacity="0.2"/>
<path d="M299.833 169.248C297.147 204.807 282.694 208.644 283.333 227.575C283.845 246.506 290.624 259.041 287.554 267.483C284.356 275.925 263.379 286.925 268.112 309.949C272.844 332.973 281.798 342.438 279.624 354.59C277.577 366.613 264.914 391.811 264.914 391.811L479.291 393.218C479.291 393.218 497.838 369.043 496.559 352.671C495.28 336.298 483.896 317.879 488.884 302.53C494.001 287.181 500.268 275.669 492.978 257.122C485.687 238.575 475.966 236.145 479.419 213.761C483.001 191.376 482.105 149.806 445.651 133.945C409.197 118.084 299.833 169.248 299.833 169.248Z" fill="url(#paint0_linear_447_14632)"/>
<path d="M556.163 411.254C556.163 434.661 537.105 453.72 513.697 453.72L556.163 411.254Z" fill="#F5F5F5"/>
<path d="M434.011 357.02L517.664 368.788L498.477 615.142L530.583 720.156L256.6 723.61L286.531 619.747L262.739 368.915L343.962 357.915L434.011 357.02Z" fill="#FCFCFC"/>
<path d="M299.574 212.098C288.19 149.422 328.098 95.8278 392.309 95.8278C458.183 95.8278 491.439 162.853 480.823 215.807C472.636 256.994 434.008 266.843 387.704 266.843C341.401 266.843 306.865 252.262 299.574 212.098Z" fill="#5F2D1C"/>
<path d="M350.616 277.971C350.616 277.971 355.221 322.228 343.965 357.915C343.965 357.915 345.883 394.753 390.524 393.986C435.293 393.218 434.013 357.02 434.013 357.02C421.734 327.856 424.548 276.692 424.548 276.692L350.616 277.971Z" fill="#FEA899"/>
<path d="M375.43 382.474L389.5 440.673L402.291 377.741L375.43 382.474Z" fill="#FEA899"/>
<mask id="mask0_447_14632" style="mask-type:luminance" maskUnits="userSpaceOnUse" x="344" y="276" width="91" height="112">
<path d="M350.618 277.972C350.618 277.972 355.734 320.438 344.35 356.252C340.641 368.02 367.246 387.079 391.165 387.079C415.085 387.079 438.62 364.055 434.015 353.055C421.736 323.891 424.55 276.82 424.55 276.82L350.618 277.972Z" fill="white"/>
</mask>
<g mask="url(#mask0_447_14632)">
<path d="M439.001 291.146C401.523 356.124 337.312 330.542 337.312 330.542L341.406 293.832C341.406 293.832 476.479 226.168 439.001 291.146Z" fill="#EA7E73"/>
</g>
<path d="M318.891 230.005C316.589 163.364 322.089 102.735 391.032 102.735C455.115 102.735 456.522 173.213 456.011 234.738C455.755 271.576 424.161 319.542 388.73 319.542C353.299 319.542 320.426 274.774 318.891 230.005Z" fill="#FEA899"/>
<path d="M386.558 284.495C395.177 284.495 402.163 278.997 402.163 272.216C402.163 265.434 395.177 259.936 386.558 259.936C377.94 259.936 370.953 265.434 370.953 272.216C370.953 278.997 377.94 284.495 386.558 284.495Z" fill="#D1736B"/>
<path d="M386.558 291.53C395.177 291.53 402.163 285.574 402.163 278.227C402.163 270.881 395.177 264.925 386.558 264.925C377.94 264.925 370.953 270.881 370.953 278.227C370.953 285.574 377.94 291.53 386.558 291.53Z" fill="#D1736B"/>
<path d="M386.559 285.135C395.107 285.135 402.036 280.553 402.036 274.902C402.036 269.25 395.107 264.669 386.559 264.669C378.011 264.669 371.082 269.25 371.082 274.902C371.082 280.553 378.011 285.135 386.559 285.135Z" fill="#262222"/>
<mask id="mask1_447_14632" style="mask-type:luminance" maskUnits="userSpaceOnUse" x="371" y="264" width="32" height="22">
<path d="M386.557 285.135C395.105 285.135 402.034 280.553 402.034 274.902C402.034 269.251 395.105 264.669 386.557 264.669C378.009 264.669 371.08 269.251 371.08 274.902C371.08 280.553 378.009 285.135 386.557 285.135Z" fill="white"/>
</mask>
<g mask="url(#mask1_447_14632)">
<path d="M385.662 268.762C395.058 268.762 402.674 266.529 402.674 263.774C402.674 261.019 395.058 258.785 385.662 258.785C376.267 258.785 368.65 261.019 368.65 263.774C368.65 266.529 376.267 268.762 385.662 268.762Z" fill="white"/>
<path d="M386.045 290.124C395.441 290.124 403.057 286.974 403.057 283.089C403.057 279.203 395.441 276.053 386.045 276.053C376.65 276.053 369.033 279.203 369.033 283.089C369.033 286.974 376.65 290.124 386.045 290.124Z" fill="#B24653"/>
</g>
<path d="M317.992 214.273C317.992 214.273 321.19 167.841 339.097 154.794C339.353 154.666 339.609 154.155 339.865 154.027C359.435 139.829 364.296 156.329 387.575 156.329C414.564 156.329 415.971 144.817 433.751 152.62C455.112 161.957 457.158 215.935 457.158 215.935C457.158 215.935 491.182 102.095 390.901 102.095C281.026 101.968 317.992 214.273 317.992 214.273Z" fill="#5F2D1C"/>
<path d="M323.28 246.763C330.092 242.6 330.955 231.602 325.208 222.199C319.461 212.795 309.28 208.547 302.468 212.71C295.657 216.872 294.794 227.87 300.541 237.274C306.288 246.677 316.469 250.926 323.28 246.763Z" fill="#FEA899"/>
<path d="M306.355 217.726C312.879 220.796 315.181 224.761 316.972 230.773" stroke="#222226" stroke-width="1.71407" stroke-miterlimit="10" stroke-linecap="round"/>
<path d="M383.614 220.028C383.614 220.028 385.661 225.4 380.416 238.831C377.091 247.145 386.94 249.064 391.673 245.866" stroke="#222226" stroke-width="2.44872" stroke-miterlimit="10" stroke-linecap="round" stroke-linejoin="round"/>
<path d="M317.996 214.272C360.718 203.016 388.474 172.062 393.207 141.364C397.94 110.665 333.217 117.445 323.496 138.678C313.775 159.911 317.996 214.272 317.996 214.272Z" fill="#5F2D1C"/>
<path d="M388.857 120.514C381.438 161.957 435.928 214.145 456.01 219.261C476.092 224.377 464.836 121.666 435.672 120.514C406.509 119.363 388.857 120.514 388.857 120.514Z" fill="#5F2D1C"/>
<path d="M478.45 237.295C484.197 227.891 483.334 216.893 476.522 212.73C469.711 208.568 459.53 212.816 453.783 222.22C448.036 231.623 448.899 242.621 455.71 246.784C462.522 250.947 472.703 246.698 478.45 237.295Z" fill="#FEA899"/>
<path d="M472.507 217.726C465.984 220.796 463.426 223.61 461.635 229.75" stroke="#222226" stroke-width="1.71407" stroke-miterlimit="10" stroke-linecap="round"/>
<path d="M405.232 185.365C404.848 178.586 416.232 179.097 422.372 180.376C431.965 182.423 437.593 189.33 434.779 191.632C432.861 193.167 428.895 189.458 419.558 188.946C414.825 188.69 405.616 191.121 405.232 185.365Z" fill="#32170E"/>
<path d="M364.427 185.365C364.811 178.586 353.427 179.097 347.287 180.376C337.694 182.423 332.066 189.33 334.88 191.632C336.799 193.167 340.764 189.458 350.101 188.946C354.834 188.69 364.044 191.121 364.427 185.365Z" fill="#32170E"/>
<path d="M270.539 467.534C297.949 467.534 320.168 445.315 320.168 417.905C320.168 390.496 297.949 368.276 270.539 368.276C243.13 368.276 220.91 390.496 220.91 417.905C220.91 445.315 243.13 467.534 270.539 467.534Z" fill="#FCFCFC"/>
<path d="M226.538 394.114L156.188 588.793L228.84 612.84L314.668 538.652C314.668 538.652 339.355 432.998 297.528 391.172C269.132 362.904 226.538 394.114 226.538 394.114Z" fill="#FCFCFC"/>
<path d="M502.956 477.639C533.192 477.639 557.702 453.129 557.702 422.894C557.702 392.659 533.192 368.148 502.956 368.148C472.721 368.148 448.211 392.659 448.211 422.894C448.211 453.129 472.721 477.639 502.956 477.639Z" fill="#FCFCFC"/>
<path d="M551.432 396.672L572.921 532.257L500.396 624.352L443.093 469.325C443.093 469.325 420.069 404.986 476.861 372.753C515.234 350.88 551.432 396.672 551.432 396.672Z" fill="#FCFCFC"/>
<path d="M529.43 653.899C545.291 514.349 555.907 389.253 555.907 389.253L594.664 390.532C594.664 390.532 607.967 571.653 611.164 657.097C613.978 731.924 521.244 724.633 529.43 653.899Z" fill="#FEA899"/>
<path d="M531.859 336.298C531.859 336.298 542.732 322.612 543.243 311.228C543.883 296.902 546.953 268.122 547.464 255.715C547.976 243.308 562.046 238.447 561.534 259.808C561.279 268.122 562.941 313.914 562.941 313.914L570.744 316.6L568.697 335.275L531.859 336.298Z" fill="#FEA899"/>
<path d="M555.014 387.718C551.177 382.346 544.27 375.183 539.921 368.66C537.618 365.206 533.141 361.241 529.432 358.299C527.13 353.822 525.595 349.729 526.106 347.299C527.258 342.438 537.107 328.88 540.177 323.635C543.246 318.391 547.723 320.566 553.223 324.019C558.596 327.345 576.503 332.717 576.503 332.717C576.503 332.717 573.305 342.182 565.758 341.543C558.34 340.903 554.886 337.961 554.886 337.961L551.305 342.822C551.305 342.822 558.34 343.717 564.351 345.38C572.666 347.682 577.142 353.822 577.142 353.822C577.142 353.822 596.329 339.24 606.818 339.368C606.818 339.368 604.131 359.066 600.934 368.916C597.736 378.765 594.41 390.149 593.771 395.649C593.131 401.149 593.003 423.149 593.003 423.149L558.212 422.254C557.956 418.161 557.7 413.812 557.572 410.486C557.444 402.044 558.723 393.091 555.014 387.718Z" fill="#FEA899"/>
<path d="M601.062 346.148C601.062 346.148 599.015 353.822 593.899 355.23C588.526 356.764 586.864 352.799 586.864 352.799C586.864 352.799 582.515 356.381 576.759 354.718C572.538 352.032 569.084 348.45 562.561 346.276C556.037 344.101 550.537 343.334 550.537 343.334L554.63 337.834C554.63 337.834 561.409 343.462 573.561 339.88C577.014 339.624 598.631 343.462 601.062 346.148Z" fill="#EA7E73"/>
<path d="M606.948 330.415C609.123 333.996 606.437 342.566 605.157 349.217C603.878 355.997 591.471 354.206 590.064 349.473C588.913 345.38 590.32 334.38 592.366 330.031C594.669 325.682 603.623 324.787 606.948 330.415Z" fill="#FEA899"/>
<path d="M585.585 317.24C590.318 316.345 595.435 321.717 594.539 328.368C593.772 334.124 592.62 344.613 587.888 348.194C582.388 352.415 578.678 351.392 576.12 344.613C573.562 337.834 575.736 319.159 585.585 317.24Z" fill="#FEA899"/>
<path d="M576.888 307.775C580.342 309.566 580.726 315.577 580.854 324.02C580.982 332.462 579.063 342.311 574.074 344.613C569.214 346.915 563.714 346.02 561.923 334.38C560.388 324.531 562.051 316.217 564.225 310.717C565.504 307.775 570.365 304.321 576.888 307.775Z" fill="#FEA899"/>
<path d="M564.479 340.904C564.479 340.904 567.676 342.311 572.793 338.857C574.967 337.322 576.246 333.101 576.246 333.101L575.99 332.334L575.735 331.438C575.735 331.438 575.479 334.636 571.386 338.09C568.572 340.648 564.479 340.904 564.479 340.904Z" fill="#EA7E73"/>
<path d="M566.784 328.752C562.179 327.473 554.121 324.531 551.307 323.252C548.876 322.101 545.551 320.566 544.271 320.438C546.19 318.647 554.504 322.868 557.19 323.891C568.191 327.985 576.761 330.287 576.761 330.287L576.377 331.566C576.249 331.566 572.412 330.415 566.784 328.752Z" fill="#EA7E73"/>
<path d="M352.532 221.052C355.004 221.052 357.008 217.329 357.008 212.737C357.008 208.146 355.004 204.423 352.532 204.423C350.059 204.423 348.055 208.146 348.055 212.737C348.055 217.329 350.059 221.052 352.532 221.052Z" fill="#262222"/>
<path d="M365.322 209.412C359.31 205.702 344.728 203.528 337.438 207.109C345.624 199.946 357.519 201.225 365.322 209.412Z" fill="#262222"/>
<path d="M417.383 222.971C419.856 222.971 421.86 219.248 421.86 214.656C421.86 210.065 419.856 206.342 417.383 206.342C414.911 206.342 412.906 210.065 412.906 214.656C412.906 219.248 414.911 222.971 417.383 222.971Z" fill="#262222"/>
<path d="M404.594 211.331C410.606 207.621 425.187 205.447 432.478 209.028C424.164 201.865 412.268 203.272 404.594 211.331Z" fill="#262222"/>
</g>
<defs>
<linearGradient id="paint0_linear_447_14632" x1="380.92" y1="368.047" x2="382.573" y2="195.115" gradientUnits="userSpaceOnUse">
<stop offset="0.0539211" stop-color="#874D2D"/>
<stop offset="1" stop-color="#5F2D1C"/>
</linearGradient>
<clipPath id="clip0_447_14632">
<rect width="800" height="484.462" fill="white"/>
</clipPath>
</defs>
</svg>
