<?xml version="1.0" encoding="UTF-8"?>
<svg width="699px" height="700px" viewBox="0 0 699 700" version="1.1" xmlns="http://www.w3.org/2000/svg" xmlns:xlink="http://www.w3.org/1999/xlink">
    <title>Issac-Favicon-Suite</title>
    <g id="Page-1" stroke="none" stroke-width="1" fill="none" fill-rule="evenodd">
        <g id="Issac-Favicon-Suite" fill-rule="nonzero">
            <rect id="Rectangle" fill="#120540" x="0" y="0.0776666667" width="699" height="699"></rect>
            <g id="Group">
                <path d="M0,0.543666667 L0,466.233 L233,699.077667 L699,699.077667 L699,466.233 L233,466.233 L233,0.543666667 L0,0.543666667 Z M466,0.543666667 L233,0.543666667 L466,233.388333 L699,233.388333 L699,0.543666667 L466,0.543666667 Z" id="Shape" fill="#120540"></path>
                <path d="M1.631,0.0776666667 L1.631,463.903 L233.699,695.815667 L697.912667,695.815667 L697.912667,463.903 L233.699,463.903 L233.699,0.0776666667 L1.631,0.0776666667 Z M465.844667,0.0776666667 L233.699,0.0776666667 L465.767,231.990333 L697.835,231.990333 L697.835,0.0776666667 L465.767,0.0776666667 L465.844667,0.0776666667 Z" id="Shape" fill="#120540"></path>
                <path d="M161.702,623.896333 L171.488,633.682333 L233.776667,571.471333 L233.776667,569.296667 L339.092667,569.296667 L333.966667,564.170667 L233.776667,564.170667 L233.776667,551.977 L161.702,623.974 L161.702,623.974 L161.702,623.896333 Z M2.17466667,463.903 L1.94166667,464.136 L9.24233333,471.436667 L16.8536667,463.825333 L2.17466667,463.825333 L2.17466667,463.903 Z M34.1733333,463.903 L17.941,480.135333 L25.4746667,487.669 L49.3183333,463.903 L34.251,463.903 L34.1733333,463.903 Z M66.172,463.903 L33.9403333,496.134667 L41.7846667,503.901333 L81.783,463.903 C81.783,463.903 66.172,463.903 66.172,463.903 L66.172,463.903 Z M98.1706667,463.903 L49.9396667,512.056333 L58.017,520.133667 L114.247667,463.903 L98.1706667,463.903 L98.1706667,463.903 Z M130.169333,463.903 L66.0166667,528.055667 L74.327,536.366 L146.79,463.980667 L130.247,463.980667 L130.169333,463.903 Z M162.168,463.903 L82.016,543.977333 L90.5593333,552.520667 L179.254667,463.903 C179.254667,463.903 162.168,463.903 162.168,463.903 Z M194.166667,463.903 L98.0153333,559.976667 L106.791667,568.753 L211.719333,463.903 C211.719333,463.903 194.166667,463.903 194.166667,463.903 L194.166667,463.903 Z M466.077667,463.903 L225.932333,463.903 L113.859333,575.898333 L122.868667,584.907667 L233.854333,473.999667 L233.854333,463.825333 L238.592,468.563 L470.66,468.563 L474.543333,472.446333 L465.844667,472.446333 L465.844667,469.262 L239.291,469.262 L248.145,478.116 L233.776667,478.116 L233.776667,484.562333 L254.513667,484.562333 L259.329,489.377667 L491.397,489.377667 L495.668667,493.649333 L465.844667,493.649333 L465.844667,490.465 L260.416333,490.465 L269.581,499.629667 L233.776667,499.629667 L233.776667,487.902 L129.781,591.82 L139.023333,601.062333 L233.699,506.386667 L233.699,505.687667 L275.561333,505.687667 L280.066,510.192333 L512.134,510.192333 L516.716333,514.774667 L465.767,514.774667 L465.767,511.590333 L281.386333,511.590333 L290.861667,521.065667 L233.543667,521.065667 L233.543667,519.823 L145.547333,607.819333 L155.100333,617.372333 L233.621333,538.929 L233.621333,526.890667 L296.686667,526.890667 L300.880667,531.084667 L532.948667,531.084667 L537.841667,535.9 L465.689333,535.9 L465.689333,532.715667 L302.511667,532.715667 L312.297667,542.579333 L233.621333,542.579333 L233.621333,548.016 L317.812,548.016 L321.695333,551.899333 L553.763333,551.899333 L558.967,557.103 L465.767,557.103 L465.767,553.918667 L323.714667,553.918667 L342.51,572.714 L574.578,572.714 L580.092333,578.228333 L465.689333,578.228333 L465.689333,575.044 L344.762333,575.044 L355.247333,585.451333 L233.621333,585.451333 L233.621333,583.742667 L177.546,639.740333 L187.565,649.759333 L233.621333,603.703 L233.621333,590.189 L360.062667,590.189 L363.324667,593.451 L595.392667,593.451 L601.217667,599.276 L465.689333,599.276 L465.689333,596.091667 L365.887667,596.091667 L376.605667,606.809667 L233.854333,606.809667 L233.854333,611.236667 L381.421,611.236667 L384.372333,614.188 L616.440333,614.188 L622.576,620.323667 L465.922333,620.323667 L465.922333,617.139333 L387.323667,617.139333 L398.43,628.245667 L233.854333,628.245667 L233.854333,615.586 L193.778333,655.662 L204.030333,665.914 L233.854333,636.09 L233.854333,632.362 L402.546333,632.362 L405.187,635.002667 L637.255,635.002667 L643.701333,641.449 L465.922333,641.449 L465.922333,638.264667 L408.449,638.264667 L419.866,649.681667 L233.776667,649.681667 L233.776667,647.507 L209.7,671.583667 L220.185,682.068667 L233.776667,668.477 L233.776667,653.409667 L423.594,653.409667 L425.924,655.739667 L657.992,655.739667 L664.826667,662.574333 L465.844667,662.574333 L465.844667,659.39 L429.496667,659.39 L441.224333,671.117667 L233.854333,671.117667 L233.854333,674.612667 L444.797,674.612667 L446.816333,676.632 L678.884333,676.632 L686.029667,683.777333 L465.922333,683.777333 L465.922333,680.593 L450.699667,680.593 L462.738,692.631333 L233.854333,692.631333 L233.854333,679.505667 L225.699333,687.660667 L233.854333,695.815667 L698.068,695.815667 L698.068,463.903 L466,463.903 L466.077667,463.903 Z M1.631,388.178 L1.631,395.168 L164.886333,395.168 L157.896333,388.178 L1.631,388.178 Z M1.631,303.676667 L1.631,311.909333 L81.6276667,311.909333 L73.395,303.676667 L1.631,303.676667 Z M1.631,282.551333 L1.631,291.094667 L60.813,291.094667 L52.192,282.551333 L1.631,282.551333 Z M1.631,261.426 L1.631,270.28 L39.9983333,270.28 L31.1443333,261.426 L1.631,261.426 Z M1.631,240.300667 L1.631,249.465333 L19.106,249.465333 L9.94133333,240.300667 L1.631,240.300667 Z M226.320667,224.689667 L233.699,232.068 L233.699,224.689667 L226.320667,224.689667 Z M689.136333,223.291667 L697.912667,232.068 L697.912667,214.515333 L689.136333,223.291667 L689.136333,223.291667 Z M673.214667,207.37 L684.243333,218.398667 L697.990333,204.651667 L697.990333,182.672 L673.214667,207.447667 L673.214667,207.447667 L673.214667,207.37 Z M205.816667,204.185667 L206.127333,204.496333 L178.478,232.068 L177.856667,232.068 L205.816667,204.185667 L205.816667,204.185667 Z M173.352,171.798667 L174.128667,172.575333 L114.558333,232.145667 L113.005,232.145667 C113.005,232.145667 173.352,171.798667 173.352,171.798667 L173.352,171.798667 Z M1.631,217.156 L1.631,231.990333 L94.4426667,324.802 L1.631,324.802 L1.631,332.724 L102.442333,332.724 L119.529,349.810667 L115.645667,345.927333 L1.631,345.927333 L1.631,353.538667 L123.257,353.538667 L136.771,367.052667 L1.631,367.052667 L1.631,374.353333 L144.071667,374.353333 L179.099333,409.303333 L1.631,409.303333 L1.631,415.905 L185.701,415.905 L200.147,430.351 L1.631,430.351 L1.631,436.642 L206.515667,436.642 L221.35,451.476333 L1.631,451.476333 L1.631,457.456667 L227.330333,457.456667 L233.699,463.825333 L233.699,231.990333 L222.049,220.340333 L210.399,231.990333 L210.321333,231.990333 L222.049,220.262667 L220.262667,218.476333 L233.776667,218.476333 L233.776667,203.564333 L205.273,203.564333 L190.205667,188.497 L146.557,232.068 L145.469667,232.068 L189.584333,187.953333 L190.128,188.497 L199.370333,197.739333 L233.699,197.739333 L233.699,182.439 L184.07,182.439 L178.555667,176.924667 L233.699,176.924667 L233.699,161.313667 L162.867,161.313667 L158.129333,156.576 L82.5596667,232.068 L80.4626667,232.068 L157.042,155.566333 L157.663333,156.187667 L233.621333,156.187667 L233.621333,140.266 L141.664,140.266 L142.052333,140.654333 L50.4833333,231.990333 L47.9203333,231.990333 L140.732,139.256333 L126.053,124.577333 L18.7176667,231.990333 L15.6886667,231.990333 L124.732667,123.024 L126.286,124.577333 L137.004,135.295333 L233.854333,135.295333 L233.854333,119.063 L120.616333,119.063 L116.034,114.480667 L110.209,108.655667 L1.631,217.156 Z M1.631,153.236333 L1.631,181.118667 L92.268,90.637 L94.2873333,92.6563333 L1.631,185.235 L1.631,213.583333 L108.500333,106.791667 L110.286667,108.578 L116.111667,114.403 L233.776667,114.403 L233.776667,97.86 L99.5686667,97.86 L95.297,93.5883333 L233.776667,93.5883333 L233.776667,76.657 L78.288,76.657 C78.288,76.657 1.631,153.236333 1.631,153.236333 Z M57.2403333,55.6093333 L59.881,58.1723333 L62.3663333,60.6576667 L1.631,121.393 L1.631,148.809333 L76.0356667,74.4046667 L74.4823333,72.8513333 L233.699,72.8513333 L233.699,55.6093333 L57.2403333,55.6093333 Z M609.295,143.372667 L619.314,153.391667 L697.912667,74.793 L697.912667,54.755 C697.912667,54.755 609.295,143.295 609.295,143.295 L609.295,143.372667 Z M36.115,34.484 L43.6486667,42.0176667 L46.4446667,44.8136667 L1.631,89.472 L1.631,116.344667 L59.8033333,58.25 L53.6676667,52.1143333 L233.699,52.1143333 L233.699,34.5616667 L36.115,34.5616667 L36.115,34.484 Z M1.631,57.4733333 L1.631,83.88 L43.571,42.0176667 L30.3676667,28.8143333 L1.631,57.4733333 Z M14.912,13.3586667 L27.3386667,25.7853333 L32.7753333,31.222 L233.699,31.222 L233.699,13.3586667 L14.912,13.3586667 Z M1.631,25.5523333 L1.631,51.493 L27.3386667,25.7853333 L14.912,13.3586667 L14.3683333,12.815 L1.631,25.5523333 Z M1.631,19.0283333 L11.1063333,9.553 L1.631,0.0776666667 L1.631,19.0283333 Z M497.066667,0.0776666667 L481.455667,15.6886667 L489.533,23.766 L513.221333,0.0776666667 L497.066667,0.0776666667 Z M624.828333,0.0776666667 L545.297667,79.5306667 L538.074667,72.3076667 L610.537667,0.0776666667 L592.985,0.0776666667 L529.376,63.609 L521.997667,56.2306667 L578.073,0.0776666667 L560.986333,0.0776666667 L513.376667,47.6096667 L505.687667,39.9206667 L545.608333,-1.37963715e-14 L528.987667,-1.37963715e-14 L497.377333,31.6103333 L489.455333,23.6883333 L473.223,7.456 L480.679,-1.37963715e-14 L455.670333,-1.37963715e-14 L465.767,10.0966667 L465.767,21.0476667 L444.719333,-1.37963715e-14 L423.671667,-1.37963715e-14 L465.767,42.0176667 L465.767,53.4346667 L412.332333,0.0776666667 L391.750667,0.0776666667 L465.767,74.0163333 L465.767,85.8993333 L379.945333,0.0776666667 L359.907333,0.0776666667 L465.844667,105.937333 L465.844667,118.364 L347.480667,0.0776666667 L327.908667,0.0776666667 L465.844667,137.858333 L465.844667,150.751 L315.016,0.0776666667 L295.987667,0.0776666667 L465.844667,169.857 L465.844667,183.215667 L282.551333,0.0776666667 L263.989,0.0776666667 L465.844667,201.778 L465.844667,215.680333 L250.164333,0.0776666667 L1.631,0.0776666667 L12.0383333,10.4073333 L233.699,10.4073333 L233.699,0.0776666667 L465.767,231.990333 L697.835,231.990333 L689.058667,223.214 L673.137,207.214667 L667.933333,202.011 L697.912667,172.031667 L697.912667,150.518 L657.215333,191.215333 L651.778667,185.778667 L697.990333,139.644667 L697.990333,118.597 L641.293667,175.216 L635.546333,169.468667 L697.912667,107.102333 L697.912667,86.5983333 L625.216667,159.216667 L603.081667,137.081667 L697.912667,42.3283333 L697.912667,22.9116667 L593.295667,127.451 L598.732333,132.887667 L577.374,111.529333 L561.452333,95.6076667 L554.54,88.6953333 L643.002333,0.0776666667 L624.906,0.0776666667 L624.828333,0.0776666667 Z M656.827,0.0776666667 L561.297,95.53 L570.539333,104.772333 L675.389333,0.0776666667 L656.827,0.0776666667 L656.827,0.0776666667 Z M688.825667,0.0776666667 L577.296333,111.529333 L586.849333,121.082333 L697.912667,10.019 L697.912667,0.0776666667 L688.825667,0.0776666667 L688.825667,0.0776666667 Z" id="Shape" fill="#59FF69"></path>
            </g>
        </g>
    </g>
</svg>