<svg width="42" height="44" viewBox="0 0 42 44" fill="none" xmlns="http://www.w3.org/2000/svg">
<path d="M21.3303 43.9998C20.8303 43.9998 20.4303 43.9998 19.9303 43.9998C14.7303 42.0998 13.8303 37.3998 14.8303 33.4998C15.0303 32.6998 15.2303 31.9998 15.3303 31.1998C15.7303 29.0998 15.1303 28.1998 13.2303 27.2998C11.4303 26.3998 9.53031 25.9998 7.43031 26.2998C6.13031 26.4998 4.83031 26.2998 3.53031 25.9998C2.03031 25.6998 1.13031 24.6998 0.730309 23.2998C0.330307 21.8998 0.730309 20.6998 1.93031 19.8998C2.73031 19.2998 2.53031 19.0998 1.83031 18.4998C-0.0696945 16.9998 -0.169693 14.3998 1.83031 12.9998C2.73031 12.3998 2.63031 11.8998 2.23031 11.0998C1.03031 8.99976 1.63031 7.19976 3.83031 6.19976C4.73031 5.79976 4.63031 5.39976 4.43031 4.59976C3.83031 2.69976 4.53031 1.19976 6.43031 0.599758C7.33031 0.299759 8.2303 0.199757 9.13031 0.199757C12.1303 -0.100243 14.9303 1.09976 17.9303 1.19976C21.3303 1.29976 24.4303 2.49976 27.1303 4.59976C27.6303 4.99976 28.2303 4.99976 28.8303 4.89976C30.8303 4.49976 32.7303 4.19976 34.7303 3.79976C36.0303 3.49976 37.0303 3.79976 38.0303 4.49976C39.1303 5.29976 39.9303 6.39976 40.4303 7.69976C41.4303 10.2998 41.6303 12.9998 41.4303 15.6998C41.2303 17.9998 40.9303 20.3998 39.7303 22.3998C38.9303 23.7998 37.9303 24.4998 36.2303 24.2998C34.7303 24.0998 33.2303 24.0998 31.6303 23.9998C31.0303 23.9998 30.5303 23.9998 30.1303 24.4998C28.6303 26.0998 26.9303 27.5998 25.6303 29.3998C23.8303 31.7998 23.0303 34.2998 23.7303 37.2998C24.0303 38.3998 24.2303 39.4998 24.4303 40.6998C24.7303 42.0998 24.1303 43.1998 22.8303 43.7998C22.1303 43.6998 21.7303 43.7998 21.3303 43.9998Z" fill="#120540"/>
</svg>
