<svg width="42" height="44" viewBox="0 0 42 44" fill="none" xmlns="http://www.w3.org/2000/svg">
<path d="M20.405 0.151855C20.905 0.151855 21.305 0.151855 21.805 0.151855C27.005 2.05186 27.905 6.75186 26.905 10.6519C26.705 11.4519 26.505 12.1519 26.405 12.9519C26.005 15.0519 26.605 15.9519 28.505 16.8519C30.305 17.7519 32.205 18.1519 34.305 17.8519C35.605 17.6519 36.905 17.8519 38.205 18.1519C39.705 18.4519 40.605 19.4519 41.005 20.8519C41.405 22.2519 41.005 23.4519 39.805 24.2519C39.005 24.8519 39.205 25.0519 39.905 25.6519C41.805 27.1519 41.905 29.7519 39.905 31.1519C39.005 31.7519 39.105 32.2519 39.505 33.0519C40.705 35.1519 40.105 36.9519 37.905 37.9519C37.005 38.3519 37.105 38.7519 37.305 39.5519C37.905 41.4519 37.205 42.9519 35.305 43.5519C34.405 43.8519 33.505 43.9519 32.605 43.9519C29.605 44.2519 26.805 43.0519 23.805 42.9519C20.405 42.8519 17.305 41.6519 14.605 39.5519C14.105 39.1519 13.505 39.1519 12.905 39.2519C10.905 39.6519 9.00505 39.9519 7.00505 40.3519C5.70505 40.6519 4.70505 40.3519 3.70505 39.6519C2.60505 38.8519 1.80505 37.7519 1.30505 36.4519C0.305045 33.8519 0.105045 31.1519 0.305045 28.4519C0.505045 26.1519 0.805046 23.7519 2.00505 21.7519C2.80505 20.3519 3.80505 19.6519 5.50505 19.8519C7.00505 20.0519 8.50504 20.0519 10.105 20.1519C10.705 20.1519 11.205 20.1519 11.605 19.6519C13.105 18.0519 14.805 16.5519 16.105 14.7519C17.905 12.3519 18.705 9.85186 18.005 6.85186C17.705 5.75186 17.505 4.65186 17.305 3.45186C17.005 2.05186 17.605 0.951856 18.905 0.351856C19.605 0.451856 20.005 0.351855 20.405 0.151855Z" fill="#007FA2"/>
</svg>
